<?xml version="1.0" encoding="utf-8"?>
<svg xmlns="http://www.w3.org/2000/svg" xmlns:xlink="http://www.w3.org/1999/xlink" width="325" height="200" viewBox="0 0 1300 800">
<defs>
  <clipPath id="clip130">
    <rect x="0" y="0" width="1300" height="800"/>
  </clipPath>
</defs>
<path clip-path="url(#clip130)" d="
M0 800 L1300 800 L1300 0 L0 0  Z
  " fill="#ffffff" fill-rule="evenodd" fill-opacity="1"/>
<defs>
  <clipPath id="clip131">
    <rect x="260" y="0" width="911" height="800"/>
  </clipPath>
</defs>
<path clip-path="url(#clip130)" d="
M297.569 673.18 L1252.76 673.18 L1252.76 47.2441 L297.569 47.2441  Z
  " fill="#ffffff" fill-rule="evenodd" fill-opacity="1"/>
<defs>
  <clipPath id="clip132">
    <rect x="297" y="47" width="956" height="627"/>
  </clipPath>
</defs>
<polyline clip-path="url(#clip130)" style="stroke:#000000; stroke-linecap:butt; stroke-linejoin:round; stroke-width:4; stroke-opacity:1; fill:none" points="
  297.569,673.18 1252.76,673.18 
  "/>
<polyline clip-path="url(#clip130)" style="stroke:#000000; stroke-linecap:butt; stroke-linejoin:round; stroke-width:4; stroke-opacity:1; fill:none" points="
  297.569,673.18 297.569,654.283 
  "/>
<polyline clip-path="url(#clip130)" style="stroke:#000000; stroke-linecap:butt; stroke-linejoin:round; stroke-width:4; stroke-opacity:1; fill:none" points="
  488.606,673.18 488.606,654.283 
  "/>
<polyline clip-path="url(#clip130)" style="stroke:#000000; stroke-linecap:butt; stroke-linejoin:round; stroke-width:4; stroke-opacity:1; fill:none" points="
  679.644,673.18 679.644,654.283 
  "/>
<polyline clip-path="url(#clip130)" style="stroke:#000000; stroke-linecap:butt; stroke-linejoin:round; stroke-width:4; stroke-opacity:1; fill:none" points="
  870.681,673.18 870.681,654.283 
  "/>
<polyline clip-path="url(#clip130)" style="stroke:#000000; stroke-linecap:butt; stroke-linejoin:round; stroke-width:4; stroke-opacity:1; fill:none" points="
  1061.72,673.18 1061.72,654.283 
  "/>
<polyline clip-path="url(#clip130)" style="stroke:#000000; stroke-linecap:butt; stroke-linejoin:round; stroke-width:4; stroke-opacity:1; fill:none" points="
  1252.76,673.18 1252.76,654.283 
  "/>
<path clip-path="url(#clip130)" d="M257.992 704.088 Q251.672 704.088 248.472 710.326 Q245.312 716.524 245.312 729.001 Q245.312 741.437 248.472 747.676 Q251.672 753.873 257.992 753.873 Q264.352 753.873 267.511 747.676 Q270.711 741.437 270.711 729.001 Q270.711 716.524 267.511 710.326 Q264.352 704.088 257.992 704.088 M257.992 697.606 Q268.159 697.606 273.507 705.668 Q278.894 713.689 278.894 729.001 Q278.894 744.273 273.507 752.334 Q268.159 760.355 257.992 760.355 Q247.824 760.355 242.436 752.334 Q237.089 744.273 237.089 729.001 Q237.089 713.689 242.436 705.668 Q247.824 697.606 257.992 697.606 Z" fill="#000000" fill-rule="evenodd" fill-opacity="1" /><path clip-path="url(#clip130)" d="M293.275 748.891 L301.822 748.891 L301.822 759.18 L293.275 759.18 L293.275 748.891 Z" fill="#000000" fill-rule="evenodd" fill-opacity="1" /><path clip-path="url(#clip130)" d="M337.146 704.088 Q330.827 704.088 327.627 710.326 Q324.467 716.524 324.467 729.001 Q324.467 741.437 327.627 747.676 Q330.827 753.873 337.146 753.873 Q343.506 753.873 346.666 747.676 Q349.866 741.437 349.866 729.001 Q349.866 716.524 346.666 710.326 Q343.506 704.088 337.146 704.088 M337.146 697.606 Q347.314 697.606 352.661 705.668 Q358.049 713.689 358.049 729.001 Q358.049 744.273 352.661 752.334 Q347.314 760.355 337.146 760.355 Q326.979 760.355 321.591 752.334 Q316.244 744.273 316.244 729.001 Q316.244 713.689 321.591 705.668 Q326.979 697.606 337.146 697.606 Z" fill="#000000" fill-rule="evenodd" fill-opacity="1" /><path clip-path="url(#clip130)" d="M450.103 704.088 Q443.783 704.088 440.583 710.326 Q437.423 716.524 437.423 729.001 Q437.423 741.437 440.583 747.676 Q443.783 753.873 450.103 753.873 Q456.462 753.873 459.622 747.676 Q462.822 741.437 462.822 729.001 Q462.822 716.524 459.622 710.326 Q456.462 704.088 450.103 704.088 M450.103 697.606 Q460.27 697.606 465.617 705.668 Q471.005 713.689 471.005 729.001 Q471.005 744.273 465.617 752.334 Q460.27 760.355 450.103 760.355 Q439.935 760.355 434.547 752.334 Q429.2 744.273 429.2 729.001 Q429.2 713.689 434.547 705.668 Q439.935 697.606 450.103 697.606 Z" fill="#000000" fill-rule="evenodd" fill-opacity="1" /><path clip-path="url(#clip130)" d="M485.386 748.891 L493.933 748.891 L493.933 759.18 L485.386 759.18 L485.386 748.891 Z" fill="#000000" fill-rule="evenodd" fill-opacity="1" /><path clip-path="url(#clip130)" d="M513.175 752.294 L526.543 752.294 L526.543 706.154 L512 709.07 L512 701.617 L526.462 698.7 L534.645 698.7 L534.645 752.294 L548.013 752.294 L548.013 759.18 L513.175 759.18 L513.175 752.294 Z" fill="#000000" fill-rule="evenodd" fill-opacity="1" /><path clip-path="url(#clip130)" d="M641.464 704.088 Q635.145 704.088 631.944 710.326 Q628.785 716.524 628.785 729.001 Q628.785 741.437 631.944 747.676 Q635.145 753.873 641.464 753.873 Q647.824 753.873 650.984 747.676 Q654.184 741.437 654.184 729.001 Q654.184 716.524 650.984 710.326 Q647.824 704.088 641.464 704.088 M641.464 697.606 Q651.632 697.606 656.979 705.668 Q662.367 713.689 662.367 729.001 Q662.367 744.273 656.979 752.334 Q651.632 760.355 641.464 760.355 Q631.296 760.355 625.909 752.334 Q620.561 744.273 620.561 729.001 Q620.561 713.689 625.909 705.668 Q631.296 697.606 641.464 697.606 Z" fill="#000000" fill-rule="evenodd" fill-opacity="1" /><path clip-path="url(#clip130)" d="M676.747 748.891 L685.295 748.891 L685.295 759.18 L676.747 759.18 L676.747 748.891 Z" fill="#000000" fill-rule="evenodd" fill-opacity="1" /><path clip-path="url(#clip130)" d="M710.167 752.294 L738.726 752.294 L738.726 759.18 L700.324 759.18 L700.324 752.294 Q704.982 747.473 713.003 739.371 Q721.064 731.229 723.13 728.879 Q727.06 724.464 728.599 721.426 Q730.179 718.347 730.179 715.39 Q730.179 710.569 726.776 707.531 Q723.414 704.493 717.986 704.493 Q714.137 704.493 709.843 705.83 Q705.59 707.167 700.729 709.881 L700.729 701.617 Q705.671 699.632 709.965 698.619 Q714.259 697.606 717.824 697.606 Q727.222 697.606 732.812 702.305 Q738.402 707.005 738.402 714.863 Q738.402 718.59 736.984 721.952 Q735.607 725.274 731.921 729.811 Q730.908 730.986 725.48 736.617 Q720.052 742.207 710.167 752.294 Z" fill="#000000" fill-rule="evenodd" fill-opacity="1" /><path clip-path="url(#clip130)" d="M831.671 704.088 Q825.352 704.088 822.151 710.326 Q818.992 716.524 818.992 729.001 Q818.992 741.437 822.151 747.676 Q825.352 753.873 831.671 753.873 Q838.031 753.873 841.191 747.676 Q844.391 741.437 844.391 729.001 Q844.391 716.524 841.191 710.326 Q838.031 704.088 831.671 704.088 M831.671 697.606 Q841.839 697.606 847.186 705.668 Q852.574 713.689 852.574 729.001 Q852.574 744.273 847.186 752.334 Q841.839 760.355 831.671 760.355 Q821.503 760.355 816.115 752.334 Q810.768 744.273 810.768 729.001 Q810.768 713.689 816.115 705.668 Q821.503 697.606 831.671 697.606 Z" fill="#000000" fill-rule="evenodd" fill-opacity="1" /><path clip-path="url(#clip130)" d="M866.954 748.891 L875.502 748.891 L875.502 759.18 L866.954 759.18 L866.954 748.891 Z" fill="#000000" fill-rule="evenodd" fill-opacity="1" /><path clip-path="url(#clip130)" d="M918.117 726.57 Q923.991 727.826 927.272 731.796 Q930.594 735.766 930.594 741.599 Q930.594 750.552 924.437 755.453 Q918.279 760.355 906.937 760.355 Q903.129 760.355 899.078 759.585 Q895.068 758.856 890.774 757.357 L890.774 749.458 Q894.176 751.443 898.227 752.456 Q902.278 753.468 906.694 753.468 Q914.39 753.468 918.401 750.43 Q922.452 747.392 922.452 741.599 Q922.452 736.252 918.684 733.254 Q914.958 730.216 908.274 730.216 L901.225 730.216 L901.225 723.492 L908.598 723.492 Q914.633 723.492 917.834 721.102 Q921.034 718.671 921.034 714.134 Q921.034 709.476 917.712 707.005 Q914.431 704.493 908.274 704.493 Q904.911 704.493 901.063 705.222 Q897.215 705.951 892.597 707.491 L892.597 700.199 Q897.255 698.903 901.306 698.255 Q905.397 697.606 909.003 697.606 Q918.32 697.606 923.748 701.86 Q929.176 706.073 929.176 713.283 Q929.176 718.307 926.3 721.79 Q923.424 725.234 918.117 726.57 Z" fill="#000000" fill-rule="evenodd" fill-opacity="1" /><path clip-path="url(#clip130)" d="M1021.72 704.088 Q1015.4 704.088 1012.2 710.326 Q1009.04 716.524 1009.04 729.001 Q1009.04 741.437 1012.2 747.676 Q1015.4 753.873 1021.72 753.873 Q1028.08 753.873 1031.24 747.676 Q1034.44 741.437 1034.44 729.001 Q1034.44 716.524 1031.24 710.326 Q1028.08 704.088 1021.72 704.088 M1021.72 697.606 Q1031.88 697.606 1037.23 705.668 Q1042.62 713.689 1042.62 729.001 Q1042.62 744.273 1037.23 752.334 Q1031.88 760.355 1021.72 760.355 Q1011.55 760.355 1006.16 752.334 Q1000.81 744.273 1000.81 729.001 Q1000.81 713.689 1006.16 705.668 Q1011.55 697.606 1021.72 697.606 Z" fill="#000000" fill-rule="evenodd" fill-opacity="1" /><path clip-path="url(#clip130)" d="M1057 748.891 L1065.55 748.891 L1065.55 759.18 L1057 759.18 L1057 748.891 Z" fill="#000000" fill-rule="evenodd" fill-opacity="1" /><path clip-path="url(#clip130)" d="M1105.85 705.83 L1085.19 738.115 L1105.85 738.115 L1105.85 705.83 M1103.71 698.7 L1114 698.7 L1114 738.115 L1122.62 738.115 L1122.62 744.921 L1114 744.921 L1114 759.18 L1105.85 759.18 L1105.85 744.921 L1078.55 744.921 L1078.55 737.022 L1103.71 698.7 Z" fill="#000000" fill-rule="evenodd" fill-opacity="1" /><path clip-path="url(#clip130)" d="M1214.05 704.088 Q1207.73 704.088 1204.53 710.326 Q1201.37 716.524 1201.37 729.001 Q1201.37 741.437 1204.53 747.676 Q1207.73 753.873 1214.05 753.873 Q1220.41 753.873 1223.57 747.676 Q1226.77 741.437 1226.77 729.001 Q1226.77 716.524 1223.57 710.326 Q1220.41 704.088 1214.05 704.088 M1214.05 697.606 Q1224.22 697.606 1229.56 705.668 Q1234.95 713.689 1234.95 729.001 Q1234.95 744.273 1229.56 752.334 Q1224.22 760.355 1214.05 760.355 Q1203.88 760.355 1198.49 752.334 Q1193.15 744.273 1193.15 729.001 Q1193.15 713.689 1198.49 705.668 Q1203.88 697.606 1214.05 697.606 Z" fill="#000000" fill-rule="evenodd" fill-opacity="1" /><path clip-path="url(#clip130)" d="M1249.33 748.891 L1257.88 748.891 L1257.88 759.18 L1249.33 759.18 L1249.33 748.891 Z" fill="#000000" fill-rule="evenodd" fill-opacity="1" /><path clip-path="url(#clip130)" d="M1275.79 698.7 L1307.91 698.7 L1307.91 705.587 L1283.28 705.587 L1283.28 720.413 Q1285.06 719.805 1286.84 719.522 Q1288.63 719.198 1290.41 719.198 Q1300.54 719.198 1306.45 724.747 Q1312.36 730.297 1312.36 739.776 Q1312.36 749.539 1306.29 754.967 Q1300.21 760.355 1289.15 760.355 Q1285.35 760.355 1281.38 759.707 Q1277.45 759.059 1273.23 757.762 L1273.23 749.539 Q1276.88 751.524 1280.77 752.496 Q1284.66 753.468 1288.99 753.468 Q1296 753.468 1300.09 749.782 Q1304.18 746.096 1304.18 739.776 Q1304.18 733.457 1300.09 729.771 Q1296 726.084 1288.99 726.084 Q1285.71 726.084 1282.43 726.813 Q1279.19 727.543 1275.79 729.082 L1275.79 698.7 Z" fill="#000000" fill-rule="evenodd" fill-opacity="1" /><polyline clip-path="url(#clip130)" style="stroke:#000000; stroke-linecap:butt; stroke-linejoin:round; stroke-width:4; stroke-opacity:1; fill:none" points="
  297.569,673.18 297.569,47.2441 
  "/>
<polyline clip-path="url(#clip130)" style="stroke:#000000; stroke-linecap:butt; stroke-linejoin:round; stroke-width:4; stroke-opacity:1; fill:none" points="
  297.569,673.18 316.467,673.18 
  "/>
<polyline clip-path="url(#clip130)" style="stroke:#000000; stroke-linecap:butt; stroke-linejoin:round; stroke-width:4; stroke-opacity:1; fill:none" points="
  297.569,380.659 316.467,380.659 
  "/>
<polyline clip-path="url(#clip130)" style="stroke:#000000; stroke-linecap:butt; stroke-linejoin:round; stroke-width:4; stroke-opacity:1; fill:none" points="
  297.569,88.1369 316.467,88.1369 
  "/>
<path clip-path="url(#clip130)" d="M57.6669 707.817 L71.0349 707.817 L71.0349 661.677 L56.4921 664.594 L56.4921 657.14 L70.9539 654.223 L79.1367 654.223 L79.1367 707.817 L92.5047 707.817 L92.5047 714.703 L57.6669 714.703 L57.6669 707.817 Z" fill="#000000" fill-rule="evenodd" fill-opacity="1" /><path clip-path="url(#clip130)" d="M126.532 659.611 Q120.213 659.611 117.013 665.85 Q113.853 672.047 113.853 684.524 Q113.853 696.961 117.013 703.199 Q120.213 709.397 126.532 709.397 Q132.892 709.397 136.052 703.199 Q139.252 696.961 139.252 684.524 Q139.252 672.047 136.052 665.85 Q132.892 659.611 126.532 659.611 M126.532 653.13 Q136.7 653.13 142.047 661.191 Q147.435 669.212 147.435 684.524 Q147.435 699.796 142.047 707.857 Q136.7 715.878 126.532 715.878 Q116.364 715.878 110.977 707.857 Q105.63 699.796 105.63 684.524 Q105.63 669.212 110.977 661.191 Q116.364 653.13 126.532 653.13 Z" fill="#000000" fill-rule="evenodd" fill-opacity="1" /><path clip-path="url(#clip130)" d="M147.435 642.807 L189.63 642.807 L189.63 648.402 L147.435 648.402 L147.435 642.807 Z" fill="#000000" fill-rule="evenodd" fill-opacity="1" /><path clip-path="url(#clip130)" d="M205.132 661.14 L215.994 661.14 L215.994 623.651 L204.178 626.021 L204.178 619.965 L215.928 617.595 L222.577 617.595 L222.577 661.14 L233.438 661.14 L233.438 666.735 L205.132 666.735 L205.132 661.14 Z" fill="#000000" fill-rule="evenodd" fill-opacity="1" /><path clip-path="url(#clip130)" d="M261.086 621.973 Q255.951 621.973 253.351 627.041 Q250.784 632.077 250.784 642.215 Q250.784 652.319 253.351 657.388 Q255.951 662.424 261.086 662.424 Q266.253 662.424 268.82 657.388 Q271.42 652.319 271.42 642.215 Q271.42 632.077 268.82 627.041 Q266.253 621.973 261.086 621.973 M261.086 616.707 Q269.347 616.707 273.691 623.256 Q278.069 629.773 278.069 642.215 Q278.069 654.623 273.691 661.173 Q269.347 667.69 261.086 667.69 Q252.824 667.69 248.447 661.173 Q244.102 654.623 244.102 642.215 Q244.102 629.773 248.447 623.256 Q252.824 616.707 261.086 616.707 Z" fill="#000000" fill-rule="evenodd" fill-opacity="1" /><path clip-path="url(#clip130)" d="M101.969 415.295 L115.337 415.295 L115.337 369.155 L100.794 372.072 L100.794 364.618 L115.256 361.702 L123.438 361.702 L123.438 415.295 L136.806 415.295 L136.806 422.182 L101.969 422.182 L101.969 415.295 Z" fill="#000000" fill-rule="evenodd" fill-opacity="1" /><path clip-path="url(#clip130)" d="M170.834 367.09 Q164.515 367.09 161.314 373.328 Q158.155 379.526 158.155 392.003 Q158.155 404.439 161.314 410.677 Q164.515 416.875 170.834 416.875 Q177.194 416.875 180.354 410.677 Q183.554 404.439 183.554 392.003 Q183.554 379.526 180.354 373.328 Q177.194 367.09 170.834 367.09 M170.834 360.608 Q181.002 360.608 186.349 368.669 Q191.737 376.69 191.737 392.003 Q191.737 407.274 186.349 415.336 Q181.002 423.357 170.834 423.357 Q160.666 423.357 155.278 415.336 Q149.931 407.274 149.931 392.003 Q149.931 376.69 155.278 368.669 Q160.666 360.608 170.834 360.608 Z" fill="#000000" fill-rule="evenodd" fill-opacity="1" /><path clip-path="url(#clip130)" d="M191.737 350.285 L233.932 350.285 L233.932 355.881 L191.737 355.881 L191.737 350.285 Z" fill="#000000" fill-rule="evenodd" fill-opacity="1" /><path clip-path="url(#clip130)" d="M248.348 325.074 L274.448 325.074 L274.448 330.669 L254.437 330.669 L254.437 342.715 Q255.885 342.222 257.333 341.991 Q258.782 341.728 260.23 341.728 Q268.458 341.728 273.264 346.237 Q278.069 350.746 278.069 358.448 Q278.069 366.38 273.132 370.791 Q268.195 375.168 259.21 375.168 Q256.116 375.168 252.89 374.642 Q249.697 374.115 246.274 373.062 L246.274 366.38 Q249.237 367.993 252.396 368.783 Q255.556 369.573 259.078 369.573 Q264.772 369.573 268.096 366.578 Q271.42 363.583 271.42 358.448 Q271.42 353.313 268.096 350.318 Q264.772 347.323 259.078 347.323 Q256.412 347.323 253.746 347.916 Q251.113 348.508 248.348 349.759 L248.348 325.074 Z" fill="#000000" fill-rule="evenodd" fill-opacity="1" /><path clip-path="url(#clip130)" d="M154.334 122.774 L167.702 122.774 L167.702 76.6338 L153.159 79.5505 L153.159 72.0968 L167.621 69.1802 L175.804 69.1802 L175.804 122.774 L189.172 122.774 L189.172 129.66 L154.334 129.66 L154.334 122.774 Z" fill="#000000" fill-rule="evenodd" fill-opacity="1" /><path clip-path="url(#clip130)" d="M223.199 74.5679 Q216.88 74.5679 213.68 80.8063 Q210.52 87.0041 210.52 99.4809 Q210.52 111.917 213.68 118.156 Q216.88 124.353 223.199 124.353 Q229.559 124.353 232.719 118.156 Q235.919 111.917 235.919 99.4809 Q235.919 87.0041 232.719 80.8063 Q229.559 74.5679 223.199 74.5679 M223.199 68.0864 Q233.367 68.0864 238.714 76.1477 Q244.102 84.1685 244.102 99.4809 Q244.102 114.753 238.714 122.814 Q233.367 130.835 223.199 130.835 Q213.032 130.835 207.644 122.814 Q202.297 114.753 202.297 99.4809 Q202.297 84.1685 207.644 76.1477 Q213.032 68.0864 223.199 68.0864 Z" fill="#000000" fill-rule="evenodd" fill-opacity="1" /><path clip-path="url(#clip130)" d="M261.086 36.9295 Q255.951 36.9295 253.351 41.9982 Q250.784 47.0339 250.784 57.1713 Q250.784 67.2758 253.351 72.3445 Q255.951 77.3803 261.086 77.3803 Q266.253 77.3803 268.82 72.3445 Q271.42 67.2758 271.42 57.1713 Q271.42 47.0339 268.82 41.9982 Q266.253 36.9295 261.086 36.9295 M261.086 31.6633 Q269.347 31.6633 273.691 38.2131 Q278.069 44.73 278.069 57.1713 Q278.069 69.5798 273.691 76.1296 Q269.347 82.6465 261.086 82.6465 Q252.824 82.6465 248.447 76.1296 Q244.102 69.5798 244.102 57.1713 Q244.102 44.73 248.447 38.2131 Q252.824 31.6633 261.086 31.6633 Z" fill="#000000" fill-rule="evenodd" fill-opacity="1" /><polyline clip-path="url(#clip132)" style="stroke:#000000; stroke-linecap:butt; stroke-linejoin:round; stroke-width:16; stroke-opacity:1; fill:none" stroke-dasharray="8, 16" points="
  297.569,4586.86 307.121,4586.77 316.673,4586.68 326.225,4586.59 335.776,4586.51 345.328,4586.42 354.88,4586.33 364.432,4586.24 373.984,4586.15 383.536,4586.06 
  393.088,4585.97 402.64,4585.88 412.191,4585.79 421.743,4585.7 431.295,4585.61 440.847,4585.53 450.399,4585.44 459.951,4585.35 469.503,4585.26 479.055,4585.17 
  488.606,4585.08 498.158,4584.99 507.71,4584.9 517.262,4584.82 526.814,4584.73 536.366,4584.64 545.918,4584.55 555.469,4584.46 565.021,4584.37 574.573,4584.28 
  584.125,4584.2 593.677,4584.11 603.229,4584.02 612.781,4583.93 622.333,4583.84 631.884,4583.75 641.436,4583.67 650.988,4583.58 660.54,4583.49 670.092,4583.4 
  679.644,4583.31 689.196,4583.23 698.747,4583.14 708.299,4583.05 717.851,4582.96 727.403,4582.87 736.955,4582.79 746.507,4582.7 756.059,4582.61 765.611,4582.52 
  775.162,4582.44 784.714,4582.35 794.266,4582.26 803.818,4582.17 813.37,4582.09 822.922,4582 832.474,4581.91 842.026,4581.82 851.577,4581.74 861.129,4581.65 
  870.681,4581.56 880.233,4581.47 889.785,4581.39 899.337,4581.3 908.889,4581.21 918.44,4581.13 927.992,4581.04 937.544,4580.95 947.096,4580.86 956.648,4580.78 
  966.2,4580.69 975.752,4580.6 985.304,4580.52 994.855,4580.43 1004.41,4580.34 1013.96,4580.26 1023.51,4580.17 1033.06,4580.08 1042.61,4580 1052.17,4579.91 
  1061.72,4579.82 1071.27,4579.74 1080.82,4579.65 1090.37,4579.56 1099.93,4579.48 1109.48,4579.39 1119.03,4579.3 1128.58,4579.22 1138.13,4579.13 1147.69,4579.05 
  1157.24,4578.96 1166.79,4578.87 1176.34,4578.79 1185.89,4578.7 1195.44,4578.62 1205,4578.53 1214.55,4578.44 1224.1,4578.36 1233.65,4578.27 1243.2,4578.19 
  1252.76,4578.1 1262.31,4578.01 1271.86,4577.93 1281.41,4577.84 1290.96,4577.76 1300.52,4577.67 1310.07,4577.58 1319.62,4577.5 1329.17,4577.41 1338.72,4577.33 
  1348.27,4577.24 1357.83,4577.16 1367.38,4577.07 1376.93,4576.99 1386.48,4576.9 1396.03,4576.81 1405.59,4576.73 1415.14,4576.64 1424.69,4576.56 1434.24,4576.47 
  1443.79,4576.39 1453.35,4576.3 1462.9,4576.22 1472.45,4576.13 1482,4576.05 1491.55,4575.96 1501.1,4575.88 1510.66,4575.79 1520.21,4575.71 1529.76,4575.62 
  1539.31,4575.54 1548.86,4575.45 1558.42,4575.37 1567.97,4575.28 1577.52,4575.2 1587.07,4575.11 1596.62,4575.03 1606.18,4574.94 1615.73,4574.86 1625.28,4574.77 
  1634.83,4574.69 1644.38,4574.61 1653.93,4574.52 1663.49,4574.44 1673.04,4574.35 1682.59,4574.27 1692.14,4574.18 1701.69,4574.1 1711.25,4574.01 1720.8,4573.93 
  1730.35,4573.85 1739.9,4573.76 1749.45,4573.68 1759,4573.59 1768.56,4573.51 1778.11,4573.42 1787.66,4573.34 1797.21,4573.26 1806.76,4573.17 1816.32,4573.09 
  1825.87,4573 1835.42,4572.92 1844.97,4572.84 1854.52,4572.75 1864.08,4572.67 1873.63,4572.59 1883.18,4572.5 1892.73,4572.42 1902.28,4572.33 1911.83,4572.25 
  1921.39,4572.17 1930.94,4572.08 1940.49,4572 1950.04,4571.92 1959.59,4571.83 1969.15,4571.75 1978.7,4571.66 1988.25,4571.58 1997.8,4571.5 2007.35,4571.41 
  2016.91,4571.33 2026.46,4571.25 2036.01,4571.16 2045.56,4571.08 2055.11,4571 2064.66,4570.91 2074.22,4570.83 2083.77,4570.75 2093.32,4570.66 2102.87,4570.58 
  2112.42,4570.5 2121.98,4570.42 2131.53,4570.33 2141.08,4570.25 2150.63,4570.17 2160.18,4570.08 2169.74,4570 2179.29,4569.92 2188.84,4569.83 2198.39,4569.75 
  2207.94,4569.67 
  "/>
<polyline clip-path="url(#clip132)" style="stroke:#000000; stroke-linecap:butt; stroke-linejoin:round; stroke-width:16; stroke-opacity:1; fill:none" stroke-dasharray="64, 40" points="
  297.569,3524.84 307.121,3524.48 316.673,3524.12 326.225,3523.76 335.776,3523.39 345.328,3523.03 354.88,3522.67 364.432,3522.3 373.984,3521.94 383.536,3521.58 
  393.088,3521.21 402.64,3520.85 412.191,3520.49 421.743,3520.12 431.295,3519.76 440.847,3519.39 450.399,3519.03 459.951,3518.67 469.503,3518.3 479.055,3517.94 
  488.606,3517.57 498.158,3517.2 507.71,3516.84 517.262,3516.47 526.814,3516.11 536.366,3515.74 545.918,3515.38 555.469,3515.01 565.021,3514.64 574.573,3514.28 
  584.125,3513.91 593.677,3513.54 603.229,3513.18 612.781,3512.81 622.333,3512.44 631.884,3512.08 641.436,3511.71 650.988,3511.34 660.54,3510.97 670.092,3510.6 
  679.644,3510.24 689.196,3509.87 698.747,3509.5 708.299,3509.13 717.851,3508.76 727.403,3508.39 736.955,3508.02 746.507,3507.65 756.059,3507.29 765.611,3506.92 
  775.162,3506.55 784.714,3506.18 794.266,3505.81 803.818,3505.44 813.37,3505.07 822.922,3504.7 832.474,3504.32 842.026,3503.95 851.577,3503.58 861.129,3503.21 
  870.681,3502.84 880.233,3502.47 889.785,3502.1 899.337,3501.73 908.889,3501.35 918.44,3500.98 927.992,3500.61 937.544,3500.24 947.096,3499.86 956.648,3499.49 
  966.2,3499.12 975.752,3498.75 985.304,3498.37 994.855,3498 1004.41,3497.63 1013.96,3497.25 1023.51,3496.88 1033.06,3496.5 1042.61,3496.13 1052.17,3495.76 
  1061.72,3495.38 1071.27,3495.01 1080.82,3494.63 1090.37,3494.26 1099.93,3493.88 1109.48,3493.51 1119.03,3493.13 1128.58,3492.76 1138.13,3492.38 1147.69,3492.01 
  1157.24,3491.63 1166.79,3491.25 1176.34,3490.88 1185.89,3490.5 1195.44,3490.12 1205,3489.75 1214.55,3489.37 1224.1,3488.99 1233.65,3488.62 1243.2,3488.24 
  1252.76,3487.86 1262.31,3487.48 1271.86,3487.11 1281.41,3486.73 1290.96,3486.35 1300.52,3485.97 1310.07,3485.59 1319.62,3485.21 1329.17,3484.83 1338.72,3484.46 
  1348.27,3484.08 1357.83,3483.7 1367.38,3483.32 1376.93,3482.94 1386.48,3482.56 1396.03,3482.18 1405.59,3481.8 1415.14,3481.42 1424.69,3481.04 1434.24,3480.66 
  1443.79,3480.28 1453.35,3479.89 1462.9,3479.51 1472.45,3479.13 1482,3478.75 1491.55,3478.37 1501.1,3477.99 1510.66,3477.6 1520.21,3477.22 1529.76,3476.84 
  1539.31,3476.46 1548.86,3476.08 1558.42,3475.69 1567.97,3475.31 1577.52,3474.93 1587.07,3474.54 1596.62,3474.16 1606.18,3473.78 1615.73,3473.39 1625.28,3473.01 
  1634.83,3472.62 1644.38,3472.24 1653.93,3471.86 1663.49,3471.47 1673.04,3471.09 1682.59,3470.7 1692.14,3470.32 1701.69,3469.93 1711.25,3469.54 1720.8,3469.16 
  1730.35,3468.77 1739.9,3468.39 1749.45,3468 1759,3467.62 1768.56,3467.23 1778.11,3466.84 1787.66,3466.46 1797.21,3466.07 1806.76,3465.68 1816.32,3465.29 
  1825.87,3464.91 1835.42,3464.52 1844.97,3464.13 1854.52,3463.74 1864.08,3463.35 1873.63,3462.97 1883.18,3462.58 1892.73,3462.19 1902.28,3461.8 1911.83,3461.41 
  1921.39,3461.02 1930.94,3460.63 1940.49,3460.24 1950.04,3459.85 1959.59,3459.46 1969.15,3459.07 1978.7,3458.68 1988.25,3458.29 1997.8,3457.9 2007.35,3457.51 
  2016.91,3457.12 2026.46,3456.73 2036.01,3456.34 2045.56,3455.95 2055.11,3455.56 2064.66,3455.16 2074.22,3454.77 2083.77,3454.38 2093.32,3453.99 2102.87,3453.6 
  2112.42,3453.2 2121.98,3452.81 2131.53,3452.42 2141.08,3452.02 2150.63,3451.63 2160.18,3451.24 2169.74,3450.84 2179.29,3450.45 2188.84,3450.06 2198.39,3449.66 
  2207.94,3449.27 
  "/>
<polyline clip-path="url(#clip132)" style="stroke:#808080; stroke-linecap:butt; stroke-linejoin:round; stroke-width:16; stroke-opacity:1; fill:none" stroke-dasharray="8, 16" points="
  297.569,5952.09 307.121,5951.99 316.673,5951.88 326.225,5951.78 335.776,5951.67 345.328,5951.57 354.88,5951.46 364.432,5951.36 373.984,5951.25 383.536,5951.15 
  393.088,5951.04 402.64,5950.94 412.191,5950.84 421.743,5950.73 431.295,5950.63 440.847,5950.52 450.399,5950.42 459.951,5950.31 469.503,5950.21 479.055,5950.11 
  488.606,5950 498.158,5949.9 507.71,5949.79 517.262,5949.69 526.814,5949.59 536.366,5949.48 545.918,5949.38 555.469,5949.27 565.021,5949.17 574.573,5949.07 
  584.125,5948.96 593.677,5948.86 603.229,5948.76 612.781,5948.65 622.333,5948.55 631.884,5948.45 641.436,5948.34 650.988,5948.24 660.54,5948.13 670.092,5948.03 
  679.644,5947.93 689.196,5947.82 698.747,5947.72 708.299,5947.62 717.851,5947.51 727.403,5947.41 736.955,5947.31 746.507,5947.2 756.059,5947.1 765.611,5947 
  775.162,5946.9 784.714,5946.79 794.266,5946.69 803.818,5946.59 813.37,5946.48 822.922,5946.38 832.474,5946.28 842.026,5946.18 851.577,5946.07 861.129,5945.97 
  870.681,5945.87 880.233,5945.76 889.785,5945.66 899.337,5945.56 908.889,5945.46 918.44,5945.35 927.992,5945.25 937.544,5945.15 947.096,5945.05 956.648,5944.94 
  966.2,5944.84 975.752,5944.74 985.304,5944.64 994.855,5944.53 1004.41,5944.43 1013.96,5944.33 1023.51,5944.23 1033.06,5944.12 1042.61,5944.02 1052.17,5943.92 
  1061.72,5943.82 1071.27,5943.72 1080.82,5943.61 1090.37,5943.51 1099.93,5943.41 1109.48,5943.31 1119.03,5943.21 1128.58,5943.1 1138.13,5943 1147.69,5942.9 
  1157.24,5942.8 1166.79,5942.7 1176.34,5942.59 1185.89,5942.49 1195.44,5942.39 1205,5942.29 1214.55,5942.19 1224.1,5942.09 1233.65,5941.99 1243.2,5941.88 
  1252.76,5941.78 1262.31,5941.68 1271.86,5941.58 1281.41,5941.48 1290.96,5941.38 1300.52,5941.27 1310.07,5941.17 1319.62,5941.07 1329.17,5940.97 1338.72,5940.87 
  1348.27,5940.77 1357.83,5940.67 1367.38,5940.57 1376.93,5940.46 1386.48,5940.36 1396.03,5940.26 1405.59,5940.16 1415.14,5940.06 1424.69,5939.96 1434.24,5939.86 
  1443.79,5939.76 1453.35,5939.66 1462.9,5939.56 1472.45,5939.45 1482,5939.35 1491.55,5939.25 1501.1,5939.15 1510.66,5939.05 1520.21,5938.95 1529.76,5938.85 
  1539.31,5938.75 1548.86,5938.65 1558.42,5938.55 1567.97,5938.45 1577.52,5938.35 1587.07,5938.25 1596.62,5938.15 1606.18,5938.05 1615.73,5937.95 1625.28,5937.85 
  1634.83,5937.74 1644.38,5937.64 1653.93,5937.54 1663.49,5937.44 1673.04,5937.34 1682.59,5937.24 1692.14,5937.14 1701.69,5937.04 1711.25,5936.94 1720.8,5936.84 
  1730.35,5936.74 1739.9,5936.64 1749.45,5936.54 1759,5936.44 1768.56,5936.34 1778.11,5936.24 1787.66,5936.14 1797.21,5936.04 1806.76,5935.94 1816.32,5935.84 
  1825.87,5935.74 1835.42,5935.64 1844.97,5935.54 1854.52,5935.44 1864.08,5935.34 1873.63,5935.24 1883.18,5935.14 1892.73,5935.04 1902.28,5934.94 1911.83,5934.85 
  1921.39,5934.75 1930.94,5934.65 1940.49,5934.55 1950.04,5934.45 1959.59,5934.35 1969.15,5934.25 1978.7,5934.15 1988.25,5934.05 1997.8,5933.95 2007.35,5933.85 
  2016.91,5933.75 2026.46,5933.65 2036.01,5933.55 2045.56,5933.45 2055.11,5933.35 2064.66,5933.25 2074.22,5933.16 2083.77,5933.06 2093.32,5932.96 2102.87,5932.86 
  2112.42,5932.76 2121.98,5932.66 2131.53,5932.56 2141.08,5932.46 2150.63,5932.36 2160.18,5932.26 2169.74,5932.17 2179.29,5932.07 2188.84,5931.97 2198.39,5931.87 
  2207.94,5931.77 
  "/>
<polyline clip-path="url(#clip132)" style="stroke:#808080; stroke-linecap:butt; stroke-linejoin:round; stroke-width:16; stroke-opacity:1; fill:none" stroke-dasharray="64, 40" points="
  297.569,4634.63 307.121,4634.17 316.673,4633.72 326.225,4633.26 335.776,4632.8 345.328,4632.35 354.88,4631.89 364.432,4631.44 373.984,4630.98 383.536,4630.52 
  393.088,4630.07 402.64,4629.61 412.191,4629.15 421.743,4628.69 431.295,4628.24 440.847,4627.78 450.399,4627.32 459.951,4626.86 469.503,4626.4 479.055,4625.94 
  488.606,4625.49 498.158,4625.03 507.71,4624.57 517.262,4624.11 526.814,4623.65 536.366,4623.19 545.918,4622.73 555.469,4622.27 565.021,4621.81 574.573,4621.35 
  584.125,4620.88 593.677,4620.42 603.229,4619.96 612.781,4619.5 622.333,4619.04 631.884,4618.58 641.436,4618.12 650.988,4617.65 660.54,4617.19 670.092,4616.73 
  679.644,4616.26 689.196,4615.8 698.747,4615.34 708.299,4614.87 717.851,4614.41 727.403,4613.95 736.955,4613.48 746.507,4613.02 756.059,4612.55 765.611,4612.09 
  775.162,4611.62 784.714,4611.16 794.266,4610.69 803.818,4610.23 813.37,4609.76 822.922,4609.3 832.474,4608.83 842.026,4608.36 851.577,4607.9 861.129,4607.43 
  870.681,4606.96 880.233,4606.5 889.785,4606.03 899.337,4605.56 908.889,4605.09 918.44,4604.63 927.992,4604.16 937.544,4603.69 947.096,4603.22 956.648,4602.75 
  966.2,4602.28 975.752,4601.81 985.304,4601.34 994.855,4600.87 1004.41,4600.4 1013.96,4599.93 1023.51,4599.46 1033.06,4598.99 1042.61,4598.52 1052.17,4598.05 
  1061.72,4597.58 1071.27,4597.11 1080.82,4596.64 1090.37,4596.17 1099.93,4595.69 1109.48,4595.22 1119.03,4594.75 1128.58,4594.28 1138.13,4593.8 1147.69,4593.33 
  1157.24,4592.86 1166.79,4592.38 1176.34,4591.91 1185.89,4591.44 1195.44,4590.96 1205,4590.49 1214.55,4590.01 1224.1,4589.54 1233.65,4589.06 1243.2,4588.59 
  1252.76,4588.11 1262.31,4587.64 1271.86,4587.16 1281.41,4586.69 1290.96,4586.21 1300.52,4585.73 1310.07,4585.26 1319.62,4584.78 1329.17,4584.3 1338.72,4583.83 
  1348.27,4583.35 1357.83,4582.87 1367.38,4582.39 1376.93,4581.92 1386.48,4581.44 1396.03,4580.96 1405.59,4580.48 1415.14,4580 1424.69,4579.52 1434.24,4579.04 
  1443.79,4578.56 1453.35,4578.08 1462.9,4577.6 1472.45,4577.12 1482,4576.64 1491.55,4576.16 1501.1,4575.68 1510.66,4575.2 1520.21,4574.72 1529.76,4574.24 
  1539.31,4573.76 1548.86,4573.27 1558.42,4572.79 1567.97,4572.31 1577.52,4571.83 1587.07,4571.34 1596.62,4570.86 1606.18,4570.38 1615.73,4569.89 1625.28,4569.41 
  1634.83,4568.93 1644.38,4568.44 1653.93,4567.96 1663.49,4567.47 1673.04,4566.99 1682.59,4566.5 1692.14,4566.02 1701.69,4565.53 1711.25,4565.05 1720.8,4564.56 
  1730.35,4564.08 1739.9,4563.59 1749.45,4563.1 1759,4562.62 1768.56,4562.13 1778.11,4561.64 1787.66,4561.15 1797.21,4560.67 1806.76,4560.18 1816.32,4559.69 
  1825.87,4559.2 1835.42,4558.71 1844.97,4558.23 1854.52,4557.74 1864.08,4557.25 1873.63,4556.76 1883.18,4556.27 1892.73,4555.78 1902.28,4555.29 1911.83,4554.8 
  1921.39,4554.31 1930.94,4553.82 1940.49,4553.33 1950.04,4552.84 1959.59,4552.34 1969.15,4551.85 1978.7,4551.36 1988.25,4550.87 1997.8,4550.38 2007.35,4549.88 
  2016.91,4549.39 2026.46,4548.9 2036.01,4548.4 2045.56,4547.91 2055.11,4547.42 2064.66,4546.92 2074.22,4546.43 2083.77,4545.93 2093.32,4545.44 2102.87,4544.95 
  2112.42,4544.45 2121.98,4543.96 2131.53,4543.46 2141.08,4542.96 2150.63,4542.47 2160.18,4541.97 2169.74,4541.48 2179.29,4540.98 2188.84,4540.48 2198.39,4539.98 
  2207.94,4539.49 
  "/>
<polyline clip-path="url(#clip132)" style="stroke:#0000ff; stroke-linecap:butt; stroke-linejoin:round; stroke-width:16; stroke-opacity:1; fill:none" stroke-dasharray="8, 16" points="
  297.569,3620.43 307.121,3620.36 316.673,3620.28 326.225,3620.2 335.776,3620.12 345.328,3620.04 354.88,3619.96 364.432,3619.89 373.984,3619.81 383.536,3619.73 
  393.088,3619.65 402.64,3619.57 412.191,3619.49 421.743,3619.42 431.295,3619.34 440.847,3619.26 450.399,3619.18 459.951,3619.1 469.503,3619.03 479.055,3618.95 
  488.606,3618.87 498.158,3618.79 507.71,3618.72 517.262,3618.64 526.814,3618.56 536.366,3618.48 545.918,3618.41 555.469,3618.33 565.021,3618.25 574.573,3618.17 
  584.125,3618.1 593.677,3618.02 603.229,3617.94 612.781,3617.86 622.333,3617.79 631.884,3617.71 641.436,3617.63 650.988,3617.56 660.54,3617.48 670.092,3617.4 
  679.644,3617.32 689.196,3617.25 698.747,3617.17 708.299,3617.09 717.851,3617.02 727.403,3616.94 736.955,3616.86 746.507,3616.79 756.059,3616.71 765.611,3616.63 
  775.162,3616.56 784.714,3616.48 794.266,3616.4 803.818,3616.33 813.37,3616.25 822.922,3616.17 832.474,3616.1 842.026,3616.02 851.577,3615.94 861.129,3615.87 
  870.681,3615.79 880.233,3615.72 889.785,3615.64 899.337,3615.56 908.889,3615.49 918.44,3615.41 927.992,3615.34 937.544,3615.26 947.096,3615.18 956.648,3615.11 
  966.2,3615.03 975.752,3614.96 985.304,3614.88 994.855,3614.81 1004.41,3614.73 1013.96,3614.65 1023.51,3614.58 1033.06,3614.5 1042.61,3614.43 1052.17,3614.35 
  1061.72,3614.28 1071.27,3614.2 1080.82,3614.13 1090.37,3614.05 1099.93,3613.97 1109.48,3613.9 1119.03,3613.82 1128.58,3613.75 1138.13,3613.67 1147.69,3613.6 
  1157.24,3613.52 1166.79,3613.45 1176.34,3613.37 1185.89,3613.3 1195.44,3613.22 1205,3613.15 1214.55,3613.07 1224.1,3613 1233.65,3612.92 1243.2,3612.85 
  1252.76,3612.77 1262.31,3612.7 1271.86,3612.63 1281.41,3612.55 1290.96,3612.48 1300.52,3612.4 1310.07,3612.33 1319.62,3612.25 1329.17,3612.18 1338.72,3612.1 
  1348.27,3612.03 1357.83,3611.96 1367.38,3611.88 1376.93,3611.81 1386.48,3611.73 1396.03,3611.66 1405.59,3611.58 1415.14,3611.51 1424.69,3611.44 1434.24,3611.36 
  1443.79,3611.29 1453.35,3611.21 1462.9,3611.14 1472.45,3611.07 1482,3610.99 1491.55,3610.92 1501.1,3610.84 1510.66,3610.77 1520.21,3610.7 1529.76,3610.62 
  1539.31,3610.55 1548.86,3610.48 1558.42,3610.4 1567.97,3610.33 1577.52,3610.26 1587.07,3610.18 1596.62,3610.11 1606.18,3610.03 1615.73,3609.96 1625.28,3609.89 
  1634.83,3609.81 1644.38,3609.74 1653.93,3609.67 1663.49,3609.6 1673.04,3609.52 1682.59,3609.45 1692.14,3609.38 1701.69,3609.3 1711.25,3609.23 1720.8,3609.16 
  1730.35,3609.08 1739.9,3609.01 1749.45,3608.94 1759,3608.86 1768.56,3608.79 1778.11,3608.72 1787.66,3608.65 1797.21,3608.57 1806.76,3608.5 1816.32,3608.43 
  1825.87,3608.36 1835.42,3608.28 1844.97,3608.21 1854.52,3608.14 1864.08,3608.07 1873.63,3607.99 1883.18,3607.92 1892.73,3607.85 1902.28,3607.78 1911.83,3607.7 
  1921.39,3607.63 1930.94,3607.56 1940.49,3607.49 1950.04,3607.41 1959.59,3607.34 1969.15,3607.27 1978.7,3607.2 1988.25,3607.13 1997.8,3607.05 2007.35,3606.98 
  2016.91,3606.91 2026.46,3606.84 2036.01,3606.77 2045.56,3606.69 2055.11,3606.62 2064.66,3606.55 2074.22,3606.48 2083.77,3606.41 2093.32,3606.33 2102.87,3606.26 
  2112.42,3606.19 2121.98,3606.12 2131.53,3606.05 2141.08,3605.98 2150.63,3605.9 2160.18,3605.83 2169.74,3605.76 2179.29,3605.69 2188.84,3605.62 2198.39,3605.55 
  2207.94,3605.48 
  "/>
<polyline clip-path="url(#clip132)" style="stroke:#0000ff; stroke-linecap:butt; stroke-linejoin:round; stroke-width:16; stroke-opacity:1; fill:none" stroke-dasharray="64, 40" points="
  297.569,2667.96 307.121,2667.65 316.673,2667.34 326.225,2667.02 335.776,2666.71 345.328,2666.4 354.88,2666.08 364.432,2665.77 373.984,2665.46 383.536,2665.14 
  393.088,2664.83 402.64,2664.51 412.191,2664.2 421.743,2663.89 431.295,2663.57 440.847,2663.26 450.399,2662.94 459.951,2662.63 469.503,2662.31 479.055,2662 
  488.606,2661.68 498.158,2661.37 507.71,2661.05 517.262,2660.74 526.814,2660.42 536.366,2660.1 545.918,2659.79 555.469,2659.47 565.021,2659.16 574.573,2658.84 
  584.125,2658.52 593.677,2658.21 603.229,2657.89 612.781,2657.57 622.333,2657.26 631.884,2656.94 641.436,2656.62 650.988,2656.31 660.54,2655.99 670.092,2655.67 
  679.644,2655.35 689.196,2655.04 698.747,2654.72 708.299,2654.4 717.851,2654.08 727.403,2653.76 736.955,2653.44 746.507,2653.13 756.059,2652.81 765.611,2652.49 
  775.162,2652.17 784.714,2651.85 794.266,2651.53 803.818,2651.21 813.37,2650.89 822.922,2650.57 832.474,2650.25 842.026,2649.93 851.577,2649.61 861.129,2649.29 
  870.681,2648.97 880.233,2648.65 889.785,2648.33 899.337,2648.01 908.889,2647.69 918.44,2647.37 927.992,2647.05 937.544,2646.73 947.096,2646.41 956.648,2646.08 
  966.2,2645.76 975.752,2645.44 985.304,2645.12 994.855,2644.8 1004.41,2644.48 1013.96,2644.15 1023.51,2643.83 1033.06,2643.51 1042.61,2643.19 1052.17,2642.86 
  1061.72,2642.54 1071.27,2642.22 1080.82,2641.89 1090.37,2641.57 1099.93,2641.25 1109.48,2640.92 1119.03,2640.6 1128.58,2640.28 1138.13,2639.95 1147.69,2639.63 
  1157.24,2639.3 1166.79,2638.98 1176.34,2638.66 1185.89,2638.33 1195.44,2638.01 1205,2637.68 1214.55,2637.36 1224.1,2637.03 1233.65,2636.71 1243.2,2636.38 
  1252.76,2636.06 1262.31,2635.73 1271.86,2635.4 1281.41,2635.08 1290.96,2634.75 1300.52,2634.43 1310.07,2634.1 1319.62,2633.77 1329.17,2633.45 1338.72,2633.12 
  1348.27,2632.79 1357.83,2632.47 1367.38,2632.14 1376.93,2631.81 1386.48,2631.48 1396.03,2631.16 1405.59,2630.83 1415.14,2630.5 1424.69,2630.17 1434.24,2629.84 
  1443.79,2629.52 1453.35,2629.19 1462.9,2628.86 1472.45,2628.53 1482,2628.2 1491.55,2627.87 1501.1,2627.54 1510.66,2627.22 1520.21,2626.89 1529.76,2626.56 
  1539.31,2626.23 1548.86,2625.9 1558.42,2625.57 1567.97,2625.24 1577.52,2624.91 1587.07,2624.58 1596.62,2624.25 1606.18,2623.92 1615.73,2623.59 1625.28,2623.25 
  1634.83,2622.92 1644.38,2622.59 1653.93,2622.26 1663.49,2621.93 1673.04,2621.6 1682.59,2621.27 1692.14,2620.94 1701.69,2620.6 1711.25,2620.27 1720.8,2619.94 
  1730.35,2619.61 1739.9,2619.27 1749.45,2618.94 1759,2618.61 1768.56,2618.28 1778.11,2617.94 1787.66,2617.61 1797.21,2617.28 1806.76,2616.94 1816.32,2616.61 
  1825.87,2616.28 1835.42,2615.94 1844.97,2615.61 1854.52,2615.27 1864.08,2614.94 1873.63,2614.61 1883.18,2614.27 1892.73,2613.94 1902.28,2613.6 1911.83,2613.27 
  1921.39,2612.93 1930.94,2612.6 1940.49,2612.26 1950.04,2611.93 1959.59,2611.59 1969.15,2611.25 1978.7,2610.92 1988.25,2610.58 1997.8,2610.25 2007.35,2609.91 
  2016.91,2609.57 2026.46,2609.24 2036.01,2608.9 2045.56,2608.56 2055.11,2608.22 2064.66,2607.89 2074.22,2607.55 2083.77,2607.21 2093.32,2606.87 2102.87,2606.54 
  2112.42,2606.2 2121.98,2605.86 2131.53,2605.52 2141.08,2605.18 2150.63,2604.85 2160.18,2604.51 2169.74,2604.17 2179.29,2603.83 2188.84,2603.49 2198.39,2603.15 
  2207.94,2602.81 
  "/>
</svg>
