<?xml version="1.0" encoding="utf-8"?>
<svg xmlns="http://www.w3.org/2000/svg" xmlns:xlink="http://www.w3.org/1999/xlink" width="300" height="180" viewBox="0 0 1200 720">
<defs>
  <clipPath id="clip060">
    <rect x="0" y="0" width="1200" height="720"/>
  </clipPath>
</defs>
<path clip-path="url(#clip060)" d="
M0 720 L1200 720 L1200 0 L0 0  Z
  " fill="#ffffff" fill-rule="evenodd" fill-opacity="1"/>
<defs>
  <clipPath id="clip061">
    <rect x="240" y="0" width="841" height="720"/>
  </clipPath>
</defs>
<path clip-path="url(#clip060)" d="
M264.915 603.152 L1152.76 603.152 L1152.76 47.2441 L264.915 47.2441  Z
  " fill="#ffffff" fill-rule="evenodd" fill-opacity="1"/>
<defs>
  <clipPath id="clip062">
    <rect x="264" y="47" width="889" height="557"/>
  </clipPath>
</defs>
<polyline clip-path="url(#clip060)" style="stroke:#000000; stroke-linecap:butt; stroke-linejoin:round; stroke-width:4; stroke-opacity:1; fill:none" points="
  264.915,603.152 1152.76,603.152 
  "/>
<polyline clip-path="url(#clip060)" style="stroke:#000000; stroke-linecap:butt; stroke-linejoin:round; stroke-width:4; stroke-opacity:1; fill:none" points="
  290.043,603.152 290.043,584.254 
  "/>
<polyline clip-path="url(#clip060)" style="stroke:#000000; stroke-linecap:butt; stroke-linejoin:round; stroke-width:4; stroke-opacity:1; fill:none" points="
  499.439,603.152 499.439,584.254 
  "/>
<polyline clip-path="url(#clip060)" style="stroke:#000000; stroke-linecap:butt; stroke-linejoin:round; stroke-width:4; stroke-opacity:1; fill:none" points="
  708.836,603.152 708.836,584.254 
  "/>
<polyline clip-path="url(#clip060)" style="stroke:#000000; stroke-linecap:butt; stroke-linejoin:round; stroke-width:4; stroke-opacity:1; fill:none" points="
  918.232,603.152 918.232,584.254 
  "/>
<polyline clip-path="url(#clip060)" style="stroke:#000000; stroke-linecap:butt; stroke-linejoin:round; stroke-width:4; stroke-opacity:1; fill:none" points="
  1127.63,603.152 1127.63,584.254 
  "/>
<path clip-path="url(#clip060)" d="M233.498 630.33 Q228.081 630.33 225.338 635.677 Q222.63 640.99 222.63 651.684 Q222.63 662.344 225.338 667.691 Q228.081 673.003 233.498 673.003 Q238.949 673.003 241.658 667.691 Q244.401 662.344 244.401 651.684 Q244.401 640.99 241.658 635.677 Q238.949 630.33 233.498 630.33 M233.498 624.774 Q242.213 624.774 246.796 631.684 Q251.414 638.559 251.414 651.684 Q251.414 664.774 246.796 671.684 Q242.213 678.559 233.498 678.559 Q224.783 678.559 220.165 671.684 Q215.581 664.774 215.581 651.684 Q215.581 638.559 220.165 631.684 Q224.783 624.774 233.498 624.774 Z" fill="#000000" fill-rule="evenodd" fill-opacity="1" /><path clip-path="url(#clip060)" d="M263.741 668.732 L271.067 668.732 L271.067 677.552 L263.741 677.552 L263.741 668.732 Z" fill="#000000" fill-rule="evenodd" fill-opacity="1" /><path clip-path="url(#clip060)" d="M301.345 630.33 Q295.928 630.33 293.185 635.677 Q290.477 640.99 290.477 651.684 Q290.477 662.344 293.185 667.691 Q295.928 673.003 301.345 673.003 Q306.796 673.003 309.504 667.691 Q312.247 662.344 312.247 651.684 Q312.247 640.99 309.504 635.677 Q306.796 630.33 301.345 630.33 M301.345 624.774 Q310.06 624.774 314.643 631.684 Q319.261 638.559 319.261 651.684 Q319.261 664.774 314.643 671.684 Q310.06 678.559 301.345 678.559 Q292.63 678.559 288.011 671.684 Q283.428 664.774 283.428 651.684 Q283.428 638.559 288.011 631.684 Q292.63 624.774 301.345 624.774 Z" fill="#000000" fill-rule="evenodd" fill-opacity="1" /><path clip-path="url(#clip060)" d="M346.588 630.33 Q341.171 630.33 338.428 635.677 Q335.72 640.99 335.72 651.684 Q335.72 662.344 338.428 667.691 Q341.171 673.003 346.588 673.003 Q352.039 673.003 354.747 667.691 Q357.49 662.344 357.49 651.684 Q357.49 640.99 354.747 635.677 Q352.039 630.33 346.588 630.33 M346.588 624.774 Q355.303 624.774 359.886 631.684 Q364.504 638.559 364.504 651.684 Q364.504 664.774 359.886 671.684 Q355.303 678.559 346.588 678.559 Q337.872 678.559 333.254 671.684 Q328.671 664.774 328.671 651.684 Q328.671 638.559 333.254 631.684 Q337.872 624.774 346.588 624.774 Z" fill="#000000" fill-rule="evenodd" fill-opacity="1" /><path clip-path="url(#clip060)" d="M443.641 630.33 Q438.224 630.33 435.481 635.677 Q432.773 640.99 432.773 651.684 Q432.773 662.344 435.481 667.691 Q438.224 673.003 443.641 673.003 Q449.092 673.003 451.8 667.691 Q454.544 662.344 454.544 651.684 Q454.544 640.99 451.8 635.677 Q449.092 630.33 443.641 630.33 M443.641 624.774 Q452.356 624.774 456.939 631.684 Q461.557 638.559 461.557 651.684 Q461.557 664.774 456.939 671.684 Q452.356 678.559 443.641 678.559 Q434.926 678.559 430.308 671.684 Q425.724 664.774 425.724 651.684 Q425.724 638.559 430.308 631.684 Q434.926 624.774 443.641 624.774 Z" fill="#000000" fill-rule="evenodd" fill-opacity="1" /><path clip-path="url(#clip060)" d="M473.884 668.732 L481.21 668.732 L481.21 677.552 L473.884 677.552 L473.884 668.732 Z" fill="#000000" fill-rule="evenodd" fill-opacity="1" /><path clip-path="url(#clip060)" d="M502.529 671.649 L527.008 671.649 L527.008 677.552 L494.092 677.552 L494.092 671.649 Q498.085 667.517 504.96 660.573 Q511.87 653.594 513.64 651.58 Q517.008 647.795 518.328 645.191 Q519.682 642.552 519.682 640.017 Q519.682 635.885 516.765 633.281 Q513.883 630.677 509.231 630.677 Q505.932 630.677 502.252 631.823 Q498.606 632.969 494.439 635.295 L494.439 628.212 Q498.675 626.51 502.356 625.642 Q506.036 624.774 509.092 624.774 Q517.147 624.774 521.939 628.802 Q526.731 632.83 526.731 639.566 Q526.731 642.76 525.515 645.642 Q524.335 648.49 521.175 652.378 Q520.307 653.385 515.654 658.212 Q511.002 663.003 502.529 671.649 Z" fill="#000000" fill-rule="evenodd" fill-opacity="1" /><path clip-path="url(#clip060)" d="M541.8 625.712 L569.335 625.712 L569.335 631.615 L548.224 631.615 L548.224 644.323 Q549.751 643.802 551.279 643.559 Q552.807 643.281 554.335 643.281 Q563.015 643.281 568.085 648.038 Q573.154 652.795 573.154 660.92 Q573.154 669.288 567.946 673.941 Q562.737 678.559 553.258 678.559 Q549.994 678.559 546.592 678.003 Q543.224 677.448 539.613 676.337 L539.613 669.288 Q542.738 670.989 546.071 671.823 Q549.404 672.656 553.119 672.656 Q559.126 672.656 562.633 669.496 Q566.14 666.337 566.14 660.92 Q566.14 655.503 562.633 652.344 Q559.126 649.184 553.119 649.184 Q550.307 649.184 547.494 649.809 Q544.717 650.434 541.8 651.753 L541.8 625.712 Z" fill="#000000" fill-rule="evenodd" fill-opacity="1" /><path clip-path="url(#clip060)" d="M652.291 630.33 Q646.874 630.33 644.131 635.677 Q641.423 640.99 641.423 651.684 Q641.423 662.344 644.131 667.691 Q646.874 673.003 652.291 673.003 Q657.742 673.003 660.45 667.691 Q663.193 662.344 663.193 651.684 Q663.193 640.99 660.45 635.677 Q657.742 630.33 652.291 630.33 M652.291 624.774 Q661.006 624.774 665.589 631.684 Q670.207 638.559 670.207 651.684 Q670.207 664.774 665.589 671.684 Q661.006 678.559 652.291 678.559 Q643.575 678.559 638.957 671.684 Q634.374 664.774 634.374 651.684 Q634.374 638.559 638.957 631.684 Q643.575 624.774 652.291 624.774 Z" fill="#000000" fill-rule="evenodd" fill-opacity="1" /><path clip-path="url(#clip060)" d="M682.534 668.732 L689.86 668.732 L689.86 677.552 L682.534 677.552 L682.534 668.732 Z" fill="#000000" fill-rule="evenodd" fill-opacity="1" /><path clip-path="url(#clip060)" d="M705.207 625.712 L732.742 625.712 L732.742 631.615 L711.631 631.615 L711.631 644.323 Q713.158 643.802 714.686 643.559 Q716.214 643.281 717.742 643.281 Q726.422 643.281 731.492 648.038 Q736.561 652.795 736.561 660.92 Q736.561 669.288 731.353 673.941 Q726.144 678.559 716.665 678.559 Q713.401 678.559 709.999 678.003 Q706.631 677.448 703.02 676.337 L703.02 669.288 Q706.145 670.989 709.478 671.823 Q712.811 672.656 716.526 672.656 Q722.533 672.656 726.04 669.496 Q729.547 666.337 729.547 660.92 Q729.547 655.503 726.04 652.344 Q722.533 649.184 716.526 649.184 Q713.714 649.184 710.901 649.809 Q708.124 650.434 705.207 651.753 L705.207 625.712 Z" fill="#000000" fill-rule="evenodd" fill-opacity="1" /><path clip-path="url(#clip060)" d="M765.38 630.33 Q759.964 630.33 757.221 635.677 Q754.512 640.99 754.512 651.684 Q754.512 662.344 757.221 667.691 Q759.964 673.003 765.38 673.003 Q770.832 673.003 773.54 667.691 Q776.283 662.344 776.283 651.684 Q776.283 640.99 773.54 635.677 Q770.832 630.33 765.38 630.33 M765.38 624.774 Q774.096 624.774 778.679 631.684 Q783.297 638.559 783.297 651.684 Q783.297 664.774 778.679 671.684 Q774.096 678.559 765.38 678.559 Q756.665 678.559 752.047 671.684 Q747.464 664.774 747.464 651.684 Q747.464 638.559 752.047 631.684 Q756.665 624.774 765.38 624.774 Z" fill="#000000" fill-rule="evenodd" fill-opacity="1" /><path clip-path="url(#clip060)" d="M862.434 630.33 Q857.017 630.33 854.274 635.677 Q851.566 640.99 851.566 651.684 Q851.566 662.344 854.274 667.691 Q857.017 673.003 862.434 673.003 Q867.885 673.003 870.593 667.691 Q873.336 662.344 873.336 651.684 Q873.336 640.99 870.593 635.677 Q867.885 630.33 862.434 630.33 M862.434 624.774 Q871.149 624.774 875.732 631.684 Q880.35 638.559 880.35 651.684 Q880.35 664.774 875.732 671.684 Q871.149 678.559 862.434 678.559 Q853.718 678.559 849.1 671.684 Q844.517 664.774 844.517 651.684 Q844.517 638.559 849.1 631.684 Q853.718 624.774 862.434 624.774 Z" fill="#000000" fill-rule="evenodd" fill-opacity="1" /><path clip-path="url(#clip060)" d="M892.677 668.732 L900.003 668.732 L900.003 677.552 L892.677 677.552 L892.677 668.732 Z" fill="#000000" fill-rule="evenodd" fill-opacity="1" /><path clip-path="url(#clip060)" d="M913.51 625.712 L946.843 625.712 L946.843 628.698 L928.024 677.552 L920.697 677.552 L938.405 631.615 L913.51 631.615 L913.51 625.712 Z" fill="#000000" fill-rule="evenodd" fill-opacity="1" /><path clip-path="url(#clip060)" d="M960.593 625.712 L988.127 625.712 L988.127 631.615 L967.016 631.615 L967.016 644.323 Q968.544 643.802 970.072 643.559 Q971.6 643.281 973.127 643.281 Q981.808 643.281 986.877 648.038 Q991.947 652.795 991.947 660.92 Q991.947 669.288 986.739 673.941 Q981.53 678.559 972.051 678.559 Q968.787 678.559 965.384 678.003 Q962.016 677.448 958.405 676.337 L958.405 669.288 Q961.53 670.989 964.864 671.823 Q968.197 672.656 971.912 672.656 Q977.919 672.656 981.426 669.496 Q984.933 666.337 984.933 660.92 Q984.933 655.503 981.426 652.344 Q977.919 649.184 971.912 649.184 Q969.1 649.184 966.287 649.809 Q963.509 650.434 960.593 651.753 L960.593 625.712 Z" fill="#000000" fill-rule="evenodd" fill-opacity="1" /><path clip-path="url(#clip060)" d="M1055.74 671.649 L1067.19 671.649 L1067.19 632.101 L1054.73 634.601 L1054.73 628.212 L1067.13 625.712 L1074.14 625.712 L1074.14 671.649 L1085.6 671.649 L1085.6 677.552 L1055.74 677.552 L1055.74 671.649 Z" fill="#000000" fill-rule="evenodd" fill-opacity="1" /><path clip-path="url(#clip060)" d="M1099.76 668.732 L1107.09 668.732 L1107.09 677.552 L1099.76 677.552 L1099.76 668.732 Z" fill="#000000" fill-rule="evenodd" fill-opacity="1" /><path clip-path="url(#clip060)" d="M1137.37 630.33 Q1131.95 630.33 1129.21 635.677 Q1126.5 640.99 1126.5 651.684 Q1126.5 662.344 1129.21 667.691 Q1131.95 673.003 1137.37 673.003 Q1142.82 673.003 1145.53 667.691 Q1148.27 662.344 1148.27 651.684 Q1148.27 640.99 1145.53 635.677 Q1142.82 630.33 1137.37 630.33 M1137.37 624.774 Q1146.08 624.774 1150.67 631.684 Q1155.28 638.559 1155.28 651.684 Q1155.28 664.774 1150.67 671.684 Q1146.08 678.559 1137.37 678.559 Q1128.65 678.559 1124.03 671.684 Q1119.45 664.774 1119.45 651.684 Q1119.45 638.559 1124.03 631.684 Q1128.65 624.774 1137.37 624.774 Z" fill="#000000" fill-rule="evenodd" fill-opacity="1" /><path clip-path="url(#clip060)" d="M1182.61 630.33 Q1177.19 630.33 1174.45 635.677 Q1171.74 640.99 1171.74 651.684 Q1171.74 662.344 1174.45 667.691 Q1177.19 673.003 1182.61 673.003 Q1188.06 673.003 1190.77 667.691 Q1193.51 662.344 1193.51 651.684 Q1193.51 640.99 1190.77 635.677 Q1188.06 630.33 1182.61 630.33 M1182.61 624.774 Q1191.33 624.774 1195.91 631.684 Q1200.53 638.559 1200.53 651.684 Q1200.53 664.774 1195.91 671.684 Q1191.33 678.559 1182.61 678.559 Q1173.9 678.559 1169.28 671.684 Q1164.69 664.774 1164.69 651.684 Q1164.69 638.559 1169.28 631.684 Q1173.9 624.774 1182.61 624.774 Z" fill="#000000" fill-rule="evenodd" fill-opacity="1" /><polyline clip-path="url(#clip060)" style="stroke:#000000; stroke-linecap:butt; stroke-linejoin:round; stroke-width:4; stroke-opacity:1; fill:none" points="
  264.915,603.152 264.915,47.2441 
  "/>
<polyline clip-path="url(#clip060)" style="stroke:#000000; stroke-linecap:butt; stroke-linejoin:round; stroke-width:4; stroke-opacity:1; fill:none" points="
  264.915,603.152 283.813,603.152 
  "/>
<polyline clip-path="url(#clip060)" style="stroke:#000000; stroke-linecap:butt; stroke-linejoin:round; stroke-width:4; stroke-opacity:1; fill:none" points="
  264.915,343.357 283.813,343.357 
  "/>
<polyline clip-path="url(#clip060)" style="stroke:#000000; stroke-linecap:butt; stroke-linejoin:round; stroke-width:4; stroke-opacity:1; fill:none" points="
  264.915,83.5619 283.813,83.5619 
  "/>
<path clip-path="url(#clip060)" d="M57.9991 632.841 L69.4573 632.841 L69.4573 593.292 L56.9921 595.792 L56.9921 589.403 L69.3879 586.903 L76.4017 586.903 L76.4017 632.841 L87.86 632.841 L87.86 638.743 L57.9991 638.743 L57.9991 632.841 Z" fill="#000000" fill-rule="evenodd" fill-opacity="1" /><path clip-path="url(#clip060)" d="M117.027 591.521 Q111.61 591.521 108.867 596.868 Q106.159 602.181 106.159 612.875 Q106.159 623.535 108.867 628.882 Q111.61 634.195 117.027 634.195 Q122.478 634.195 125.186 628.882 Q127.929 623.535 127.929 612.875 Q127.929 602.181 125.186 596.868 Q122.478 591.521 117.027 591.521 M117.027 585.966 Q125.742 585.966 130.325 592.875 Q134.943 599.75 134.943 612.875 Q134.943 625.966 130.325 632.875 Q125.742 639.75 117.027 639.75 Q108.311 639.75 103.693 632.875 Q99.11 625.966 99.11 612.875 Q99.11 599.75 103.693 592.875 Q108.311 585.966 117.027 585.966 Z" fill="#000000" fill-rule="evenodd" fill-opacity="1" /><path clip-path="url(#clip060)" d="M134.943 577.118 L171.11 577.118 L171.11 581.914 L134.943 581.914 L134.943 577.118 Z" fill="#000000" fill-rule="evenodd" fill-opacity="1" /><path clip-path="url(#clip060)" d="M184.398 592.832 L193.708 592.832 L193.708 560.699 L183.58 562.73 L183.58 557.539 L193.652 555.508 L199.35 555.508 L199.35 592.832 L208.66 592.832 L208.66 597.628 L184.398 597.628 L184.398 592.832 Z" fill="#000000" fill-rule="evenodd" fill-opacity="1" /><path clip-path="url(#clip060)" d="M232.358 559.26 Q227.957 559.26 225.728 563.604 Q223.528 567.921 223.528 576.61 Q223.528 585.271 225.728 589.616 Q227.957 593.932 232.358 593.932 Q236.787 593.932 238.988 589.616 Q241.216 585.271 241.216 576.61 Q241.216 567.921 238.988 563.604 Q236.787 559.26 232.358 559.26 M232.358 554.746 Q239.439 554.746 243.163 560.36 Q246.915 565.946 246.915 576.61 Q246.915 587.246 243.163 592.86 Q239.439 598.446 232.358 598.446 Q225.277 598.446 221.525 592.86 Q217.801 587.246 217.801 576.61 Q217.801 565.946 221.525 560.36 Q225.277 554.746 232.358 554.746 Z" fill="#000000" fill-rule="evenodd" fill-opacity="1" /><path clip-path="url(#clip060)" d="M95.972 373.046 L107.43 373.046 L107.43 333.497 L94.965 335.997 L94.965 329.608 L107.361 327.108 L114.375 327.108 L114.375 373.046 L125.833 373.046 L125.833 378.948 L95.972 378.948 L95.972 373.046 Z" fill="#000000" fill-rule="evenodd" fill-opacity="1" /><path clip-path="url(#clip060)" d="M154.999 331.726 Q149.583 331.726 146.84 337.073 Q144.131 342.386 144.131 353.08 Q144.131 363.74 146.84 369.087 Q149.583 374.4 154.999 374.4 Q160.451 374.4 163.159 369.087 Q165.902 363.74 165.902 353.08 Q165.902 342.386 163.159 337.073 Q160.451 331.726 154.999 331.726 M154.999 326.171 Q163.715 326.171 168.298 333.08 Q172.916 339.955 172.916 353.08 Q172.916 366.171 168.298 373.08 Q163.715 379.955 154.999 379.955 Q146.284 379.955 141.666 373.08 Q137.083 366.171 137.083 353.08 Q137.083 339.955 141.666 333.08 Q146.284 326.171 154.999 326.171 Z" fill="#000000" fill-rule="evenodd" fill-opacity="1" /><path clip-path="url(#clip060)" d="M172.916 317.323 L209.083 317.323 L209.083 322.119 L172.916 322.119 L172.916 317.323 Z" fill="#000000" fill-rule="evenodd" fill-opacity="1" /><path clip-path="url(#clip060)" d="M221.44 295.713 L243.812 295.713 L243.812 300.509 L226.659 300.509 L226.659 310.834 Q227.9 310.411 229.142 310.213 Q230.383 309.988 231.624 309.988 Q238.677 309.988 242.796 313.853 Q246.915 317.718 246.915 324.319 Q246.915 331.118 242.683 334.899 Q238.452 338.651 230.75 338.651 Q228.098 338.651 225.333 338.199 Q222.597 337.748 219.663 336.845 L219.663 331.118 Q222.202 332.501 224.91 333.178 Q227.618 333.855 230.637 333.855 Q235.518 333.855 238.367 331.288 Q241.216 328.72 241.216 324.319 Q241.216 319.918 238.367 317.351 Q235.518 314.784 230.637 314.784 Q228.352 314.784 226.067 315.292 Q223.81 315.799 221.44 316.871 L221.44 295.713 Z" fill="#000000" fill-rule="evenodd" fill-opacity="1" /><path clip-path="url(#clip060)" d="M140.857 113.251 L152.315 113.251 L152.315 73.7021 L139.85 76.2021 L139.85 69.8133 L152.246 67.3133 L159.259 67.3133 L159.259 113.251 L170.718 113.251 L170.718 119.153 L140.857 119.153 L140.857 113.251 Z" fill="#000000" fill-rule="evenodd" fill-opacity="1" /><path clip-path="url(#clip060)" d="M199.884 71.9313 Q194.468 71.9313 191.724 77.2785 Q189.016 82.591 189.016 93.2854 Q189.016 103.945 191.724 109.292 Q194.468 114.605 199.884 114.605 Q205.336 114.605 208.044 109.292 Q210.787 103.945 210.787 93.2854 Q210.787 82.591 208.044 77.2785 Q205.336 71.9313 199.884 71.9313 M199.884 66.3758 Q208.599 66.3758 213.183 73.2855 Q217.801 80.1604 217.801 93.2854 Q217.801 106.376 213.183 113.285 Q208.599 120.16 199.884 120.16 Q191.169 120.16 186.551 113.285 Q181.968 106.376 181.968 93.2854 Q181.968 80.1604 186.551 73.2855 Q191.169 66.3758 199.884 66.3758 Z" fill="#000000" fill-rule="evenodd" fill-opacity="1" /><path clip-path="url(#clip060)" d="M232.358 39.6698 Q227.957 39.6698 225.728 44.0144 Q223.528 48.3308 223.528 57.02 Q223.528 65.681 225.728 70.0256 Q227.957 74.342 232.358 74.342 Q236.787 74.342 238.988 70.0256 Q241.216 65.681 241.216 57.02 Q241.216 48.3308 238.988 44.0144 Q236.787 39.6698 232.358 39.6698 M232.358 35.156 Q239.439 35.156 243.163 40.7701 Q246.915 46.356 246.915 57.02 Q246.915 67.6558 243.163 73.2699 Q239.439 78.8558 232.358 78.8558 Q225.277 78.8558 221.525 73.2699 Q217.801 67.6558 217.801 57.02 Q217.801 46.356 221.525 40.7701 Q225.277 35.156 232.358 35.156 Z" fill="#000000" fill-rule="evenodd" fill-opacity="1" /><polyline clip-path="url(#clip062)" style="stroke:#000000; stroke-linecap:butt; stroke-linejoin:round; stroke-width:16; stroke-opacity:1; fill:none" stroke-dasharray="8, 16" points="
  1127.63,4063.71 1119.25,3979.62 1110.88,3862.66 1102.5,3720.8 1094.12,3562.57 1085.75,3395.31 1077.37,3224.51 1069,3053.95 1060.62,2886.04 1052.25,2722.25 
  1043.87,2563.39 1035.49,2409.85 1027.12,2261.77 1018.74,2119.09 1010.37,1981.68 1001.99,1849.35 993.615,1721.85 985.239,1598.96 976.863,1480.42 968.487,1366 
  960.111,1255.59 951.735,1154.6 943.36,1066.1 934.984,989.964 926.608,925.965 918.232,873.384 909.856,830.659 901.48,795.493 893.104,765.623 884.729,739.456 
  876.353,715.951 867.977,694.461 859.601,674.536 851.225,655.991 842.849,638.55 834.473,622.047 826.098,606.375 817.722,591.568 809.346,577.358 800.97,563.753 
  792.594,550.787 784.218,538.257 775.842,526.272 767.467,514.739 759.091,503.475 750.715,492.872 742.339,482.466 733.963,472.332 725.587,462.772 717.211,453.383 
  708.836,444.158 700.46,435.432 692.084,426.966 683.708,418.644 675.332,410.46 666.956,402.744 658.58,395.247 650.205,387.871 641.829,380.614 633.453,373.564 
  625.077,366.932 616.701,360.404 608.325,353.978 599.949,347.651 591.574,341.455 583.198,335.693 574.822,330.018 566.446,324.43 558.07,318.926 549.694,313.506 
  541.318,308.302 532.943,303.388 524.567,298.549 516.191,293.783 507.815,289.09 499.439,284.47 491.063,279.974 482.687,275.811 474.312,271.713 465.936,267.68 
  457.56,263.711 449.184,259.807 440.808,255.966 432.432,252.326 424.056,248.894 415.681,245.52 407.305,242.203 398.929,238.945 390.553,235.744 382.177,232.6 
  373.801,229.598 365.425,226.814 357.05,224.082 348.674,221.402 340.298,218.774 331.922,216.196 323.546,213.67 315.17,211.194 306.794,208.896 298.419,206.723 
  290.043,204.594 
  "/>
<polyline clip-path="url(#clip062)" style="stroke:#000000; stroke-linecap:butt; stroke-linejoin:round; stroke-width:16; stroke-opacity:1; fill:none" stroke-dasharray="64, 40" points="
  1127.63,3068.66 1119.25,3016.95 1110.88,2934.43 1102.5,2827.76 1094.12,2704.56 1085.75,2571.61 1077.37,2434.09 1069,2295.59 1060.62,2158.48 1052.25,2024.22 
  1043.87,1893.64 1035.49,1767.21 1027.12,1645.11 1018.74,1527.4 1010.37,1413.99 1001.99,1304.79 993.615,1199.62 985.239,1098.33 976.863,1000.75 968.487,906.708 
  960.111,816.052 951.735,728.637 943.36,644.335 934.984,563.041 926.608,484.679 918.232,409.23 909.856,337.704 901.48,283.463 893.104,247.754 884.729,224.365 
  876.353,208.26 867.977,196.543 859.601,187.585 851.225,180.494 842.849,174.687 834.473,169.817 826.098,165.653 817.722,162.038 809.346,158.852 800.97,156.019 
  792.594,153.462 784.218,151.138 775.842,149.02 767.467,147.065 759.091,145.259 750.715,143.581 742.339,142.006 733.963,140.538 725.587,139.156 717.211,137.846 
  708.836,136.604 700.46,135.435 692.084,134.319 683.708,133.252 675.332,132.23 666.956,131.254 658.58,130.323 650.205,129.426 641.829,128.563 633.453,127.73 
  625.077,126.926 616.701,126.148 608.325,125.402 599.949,124.679 591.574,123.978 583.198,123.298 574.822,122.638 566.446,121.995 558.07,121.371 549.694,120.763 
  541.318,120.172 532.943,119.599 524.567,119.04 516.191,118.494 507.815,117.961 499.439,117.441 491.063,116.932 482.687,116.434 474.312,115.948 465.936,115.471 
  457.56,115.005 449.184,114.548 440.808,114.103 432.432,113.667 424.056,113.239 415.681,112.819 407.305,112.407 398.929,112.002 390.553,111.605 382.177,111.215 
  373.801,110.831 365.425,110.454 357.05,110.084 348.674,109.719 340.298,109.361 331.922,109.008 323.546,108.662 315.17,108.323 306.794,107.988 298.419,107.659 
  290.043,107.334 
  "/>
<polyline clip-path="url(#clip062)" style="stroke:#e38512; stroke-linecap:butt; stroke-linejoin:round; stroke-width:16; stroke-opacity:1; fill:none" stroke-dasharray="8, 16" points="
  1127.63,7367.54 1119.25,7283.19 1110.88,7165.98 1102.5,7023.87 1094.12,6865.41 1085.75,6697.91 1077.37,6526.88 1069,6356.08 1060.62,6187.92 1052.25,6023.88 
  1043.87,5864.75 1035.49,5710.94 1027.12,5562.58 1018.74,5419.62 1010.37,5281.92 1001.99,5149.28 993.615,5021.48 985.239,4898.27 976.863,4779.41 968.487,4664.66 
  960.111,4553.8 951.735,4446.6 943.36,4342.87 934.984,4242.4 926.608,4145.02 918.232,4050.57 909.856,3958.88 901.48,3869.81 893.104,3783.22 884.729,3698.98 
  876.353,3616.99 867.977,3537.13 859.601,3459.29 851.225,3383.38 842.849,3309.32 834.473,3237.01 826.098,3166.38 817.722,3097.36 809.346,3029.88 800.97,2963.86 
  792.594,2899.26 784.218,2836.01 775.842,2774.07 767.467,2713.37 759.091,2653.87 750.715,2595.53 742.339,2538.3 733.963,2482.14 725.587,2427.02 717.211,2372.89 
  708.836,2319.73 700.46,2267.5 692.084,2216.16 683.708,2165.7 675.332,2116.07 666.956,2067.26 658.58,2019.24 650.205,1971.98 641.829,1925.46 633.453,1879.66 
  625.077,1834.55 616.701,1790.12 608.325,1746.35 599.949,1703.21 591.574,1660.7 583.198,1618.78 574.822,1577.46 566.446,1536.7 558.07,1496.5 549.694,1456.84 
  541.318,1417.7 532.943,1379.08 524.567,1340.96 516.191,1303.32 507.815,1266.16 499.439,1229.47 491.063,1193.23 482.687,1157.43 474.312,1122.06 465.936,1087.29 
  457.56,1054.2 449.184,1022.95 440.808,993.533 432.432,965.952 424.056,940.203 415.681,916.253 407.305,894.067 398.929,873.598 390.553,854.758 382.177,837.447 
  373.801,821.531 365.425,806.865 357.05,793.298 348.674,780.691 340.298,768.9 331.922,757.81 323.546,747.325 315.17,737.378 306.794,727.882 298.419,718.788 
  290.043,710.041 
  "/>
<polyline clip-path="url(#clip062)" style="stroke:#e38512; stroke-linecap:butt; stroke-linejoin:round; stroke-width:16; stroke-opacity:1; fill:none" stroke-dasharray="64, 40" points="
  1127.63,5844.89 1119.25,5792.48 1110.88,5709.81 1102.5,5603.4 1094.12,5480.72 1085.75,5348.4 1077.37,5211.52 1069,5073.61 1060.62,4936.97 1052.25,4803.03 
  1043.87,4672.62 1035.49,4546.18 1027.12,4423.89 1018.74,4305.78 1010.37,4191.79 1001.99,4081.78 993.615,3975.61 985.239,3873.09 976.863,3774.05 968.487,3678.3 
  960.111,3585.67 951.735,3496 943.36,3409.12 934.984,3324.89 926.608,3243.15 918.232,3163.79 909.856,3086.68 901.48,3011.7 893.104,2938.75 884.729,2867.72 
  876.353,2798.53 867.977,2731.07 859.601,2665.28 851.225,2601.08 842.849,2538.39 834.473,2477.15 826.098,2417.3 817.722,2358.77 809.346,2301.51 800.97,2245.47 
  792.594,2190.61 784.218,2136.86 775.842,2084.2 767.467,2032.58 759.091,1981.97 750.715,1932.31 742.339,1883.59 733.963,1835.77 725.587,1788.82 717.211,1742.71 
  708.836,1697.4 700.46,1652.88 692.084,1609.13 683.708,1566.11 675.332,1523.8 666.956,1482.18 658.58,1441.24 650.205,1400.95 641.829,1361.29 633.453,1322.25 
  625.077,1283.81 616.701,1245.95 608.325,1208.66 599.949,1171.93 591.574,1135.73 583.198,1100.06 574.822,1064.9 566.446,1030.24 558.07,996.075 549.694,962.386 
  541.318,929.164 532.943,896.4 524.567,864.083 516.191,832.205 507.815,800.757 499.439,769.73 491.063,739.116 482.687,708.909 474.312,679.1 465.936,649.683 
  457.56,620.652 449.184,592.001 440.808,563.724 432.432,535.817 424.056,508.275 415.681,481.095 407.305,454.273 398.929,427.808 390.553,401.699 382.177,375.947 
  373.801,350.557 365.425,325.54 357.05,302.368 348.674,282.125 340.298,264.581 331.922,249.432 323.546,236.349 315.17,225.011 306.794,215.136 298.419,206.484 
  290.043,198.86 
  "/>
<polyline clip-path="url(#clip062)" style="stroke:#7a4c8f; stroke-linecap:butt; stroke-linejoin:round; stroke-width:16; stroke-opacity:1; fill:none" stroke-dasharray="8, 16" points="
  1127.63,2011.33 1119.25,1927.88 1110.88,1811.59 1102.5,1670.41 1094.12,1512.88 1085.75,1346.38 1077.37,1187.81 1069,1051.26 1060.62,940.7 1052.25,856.887 
  1043.87,794.742 1035.49,746.013 1027.12,705.178 1018.74,669.523 1010.37,637.635 1001.99,608.608 993.615,582.107 985.239,557.59 976.863,534.769 968.487,513.623 
  960.111,493.865 951.735,475.127 943.36,457.782 934.984,441.214 926.608,425.786 918.232,410.932 909.856,397.229 901.48,383.925 893.104,371.549 884.729,359.753 
  876.353,348.289 867.977,337.852 859.601,327.721 851.225,317.873 842.849,308.954 834.473,300.299 826.098,291.89 817.722,284.17 809.346,276.838 800.97,269.725 
  792.594,262.972 784.218,256.831 775.842,250.887 767.467,245.137 759.091,239.848 750.715,234.947 742.339,230.219 733.963,225.662 725.587,221.494 717.211,217.653 
  708.836,213.956 700.46,210.403 692.084,207.019 683.708,204.041 675.332,201.179 666.956,198.43 658.58,195.789 650.205,193.255 641.829,191.006 633.453,188.873 
  625.077,186.822 616.701,184.848 608.325,182.95 599.949,181.124 591.574,179.41 583.198,177.855 574.822,176.354 566.446,174.905 558.07,173.506 549.694,172.154 
  541.318,170.847 532.943,169.584 524.567,168.363 516.191,167.214 507.815,166.149 499.439,165.116 491.063,164.113 482.687,163.139 474.312,162.192 465.936,161.272 
  457.56,160.377 449.184,159.507 440.808,158.66 432.432,157.836 424.056,157.034 415.681,156.252 407.305,155.49 398.929,154.783 390.553,154.097 382.177,153.427 
  373.801,152.772 365.425,152.131 357.05,151.504 348.674,150.891 340.298,150.291 331.922,149.703 323.546,149.128 315.17,148.565 306.794,148.012 298.419,147.471 
  290.043,146.941 
  "/>
<polyline clip-path="url(#clip062)" style="stroke:#7a4c8f; stroke-linecap:butt; stroke-linejoin:round; stroke-width:16; stroke-opacity:1; fill:none" stroke-dasharray="64, 40" points="
  1127.63,1355.91 1119.25,1307.98 1110.88,1230.19 1102.5,1129.1 1094.12,1012.25 1085.75,886.337 1077.37,756.561 1069,626.616 1060.62,499.094 1052.25,376.058 
  1043.87,280.892 1035.49,234.474 1027.12,210.808 1018.74,196.461 1010.37,186.6 1001.99,179.272 993.615,173.495 985.239,168.776 976.863,164.797 968.487,161.366 
  960.111,158.365 951.735,155.696 943.36,153.29 934.984,151.115 926.608,149.118 918.232,147.28 909.856,145.579 901.48,143.989 893.104,142.505 884.729,141.113 
  876.353,139.796 867.977,138.549 859.601,137.373 851.225,136.253 842.849,135.184 834.473,134.161 826.098,133.182 817.722,132.248 809.346,131.35 800.97,130.485 
  792.594,129.651 784.218,128.846 775.842,128.069 767.467,127.322 759.091,126.597 750.715,125.895 742.339,125.213 733.963,124.551 725.587,123.908 717.211,123.282 
  708.836,122.675 700.46,122.086 692.084,121.511 683.708,120.95 675.332,120.402 666.956,119.868 658.58,119.345 650.205,118.835 641.829,118.335 633.453,117.848 
  625.077,117.372 616.701,116.907 608.325,116.45 599.949,116.003 591.574,115.565 583.198,115.135 574.822,114.713 566.446,114.299 558.07,113.892 549.694,113.493 
  541.318,113.1 532.943,112.715 524.567,112.338 516.191,111.968 507.815,111.603 499.439,111.245 491.063,110.892 482.687,110.545 474.312,110.203 465.936,109.866 
  457.56,109.534 449.184,109.208 440.808,108.886 432.432,108.569 424.056,108.256 415.681,107.948 407.305,107.644 398.929,107.346 390.553,107.052 382.177,106.762 
  373.801,106.475 365.425,106.193 357.05,105.914 348.674,105.638 340.298,105.367 331.922,105.098 323.546,104.833 315.17,104.571 306.794,104.312 298.419,104.057 
  290.043,103.804 
  "/>
</svg>
