<?xml version="1.0" encoding="utf-8"?>
<svg xmlns="http://www.w3.org/2000/svg" xmlns:xlink="http://www.w3.org/1999/xlink" width="325" height="150" viewBox="0 0 1300 600">
<defs>
  <clipPath id="clip980">
    <rect x="0" y="0" width="1300" height="600"/>
  </clipPath>
</defs>
<path clip-path="url(#clip980)" d="
M0 600 L1300 600 L1300 0 L0 0  Z
  " fill="#ffffff" fill-rule="evenodd" fill-opacity="1"/>
<defs>
  <clipPath id="clip981">
    <rect x="260" y="0" width="911" height="600"/>
  </clipPath>
</defs>
<path clip-path="url(#clip980)" d="
M200.094 501.1 L1252.76 501.1 L1252.76 47.2441 L200.094 47.2441  Z
  " fill="#ffffff" fill-rule="evenodd" fill-opacity="1"/>
<defs>
  <clipPath id="clip982">
    <rect x="200" y="47" width="1054" height="455"/>
  </clipPath>
</defs>
<polyline clip-path="url(#clip980)" style="stroke:#000000; stroke-linecap:butt; stroke-linejoin:round; stroke-width:4; stroke-opacity:1; fill:none" points="
  200.094,501.1 1252.76,501.1 
  "/>
<polyline clip-path="url(#clip980)" style="stroke:#000000; stroke-linecap:butt; stroke-linejoin:round; stroke-width:4; stroke-opacity:1; fill:none" points="
  200.094,501.1 200.094,482.203 
  "/>
<polyline clip-path="url(#clip980)" style="stroke:#000000; stroke-linecap:butt; stroke-linejoin:round; stroke-width:4; stroke-opacity:1; fill:none" points="
  548.658,501.1 548.658,482.203 
  "/>
<polyline clip-path="url(#clip980)" style="stroke:#000000; stroke-linecap:butt; stroke-linejoin:round; stroke-width:4; stroke-opacity:1; fill:none" points="
  897.221,501.1 897.221,482.203 
  "/>
<polyline clip-path="url(#clip980)" style="stroke:#000000; stroke-linecap:butt; stroke-linejoin:round; stroke-width:4; stroke-opacity:1; fill:none" points="
  1245.78,501.1 1245.78,482.203 
  "/>
<path clip-path="url(#clip980)" d="M200.094 526.149 Q195.581 526.149 193.295 530.605 Q191.038 535.032 191.038 543.944 Q191.038 552.827 193.295 557.283 Q195.581 561.71 200.094 561.71 Q204.637 561.71 206.894 557.283 Q209.18 552.827 209.18 543.944 Q209.18 535.032 206.894 530.605 Q204.637 526.149 200.094 526.149 M200.094 521.519 Q207.357 521.519 211.177 527.277 Q215.025 533.006 215.025 543.944 Q215.025 554.852 211.177 560.61 Q207.357 566.339 200.094 566.339 Q192.832 566.339 188.983 560.61 Q185.164 554.852 185.164 543.944 Q185.164 533.006 188.983 527.277 Q192.832 521.519 200.094 521.519 Z" fill="#000000" fill-rule="evenodd" fill-opacity="1" /><path clip-path="url(#clip980)" d="M517.032 522.3 L539.977 522.3 L539.977 527.219 L522.385 527.219 L522.385 537.809 Q523.658 537.375 524.931 537.173 Q526.204 536.941 527.477 536.941 Q534.711 536.941 538.936 540.905 Q543.16 544.87 543.16 551.64 Q543.16 558.614 538.82 562.491 Q534.48 566.339 526.58 566.339 Q523.861 566.339 521.025 565.876 Q518.218 565.413 515.209 564.487 L515.209 558.614 Q517.813 560.031 520.591 560.726 Q523.369 561.42 526.465 561.42 Q531.47 561.42 534.393 558.787 Q537.315 556.154 537.315 551.64 Q537.315 547.126 534.393 544.493 Q531.47 541.86 526.465 541.86 Q524.121 541.86 521.777 542.381 Q519.462 542.902 517.032 544.001 L517.032 522.3 Z" fill="#000000" fill-rule="evenodd" fill-opacity="1" /><path clip-path="url(#clip980)" d="M567.176 526.149 Q562.662 526.149 560.377 530.605 Q558.12 535.032 558.12 543.944 Q558.12 552.827 560.377 557.283 Q562.662 561.71 567.176 561.71 Q571.719 561.71 573.976 557.283 Q576.262 552.827 576.262 543.944 Q576.262 535.032 573.976 530.605 Q571.719 526.149 567.176 526.149 M567.176 521.519 Q574.439 521.519 578.258 527.277 Q582.107 533.006 582.107 543.944 Q582.107 554.852 578.258 560.61 Q574.439 566.339 567.176 566.339 Q559.914 566.339 556.065 560.61 Q552.246 554.852 552.246 543.944 Q552.246 533.006 556.065 527.277 Q559.914 521.519 567.176 521.519 Z" fill="#000000" fill-rule="evenodd" fill-opacity="1" /><path clip-path="url(#clip980)" d="M846.73 560.581 L856.278 560.581 L856.278 527.624 L845.891 529.708 L845.891 524.384 L856.22 522.3 L862.065 522.3 L862.065 560.581 L871.614 560.581 L871.614 565.5 L846.73 565.5 L846.73 560.581 Z" fill="#000000" fill-rule="evenodd" fill-opacity="1" /><path clip-path="url(#clip980)" d="M895.919 526.149 Q891.405 526.149 889.119 530.605 Q886.863 535.032 886.863 543.944 Q886.863 552.827 889.119 557.283 Q891.405 561.71 895.919 561.71 Q900.462 561.71 902.719 557.283 Q905.005 552.827 905.005 543.944 Q905.005 535.032 902.719 530.605 Q900.462 526.149 895.919 526.149 M895.919 521.519 Q903.182 521.519 907.001 527.277 Q910.85 533.006 910.85 543.944 Q910.85 554.852 907.001 560.61 Q903.182 566.339 895.919 566.339 Q888.656 566.339 884.808 560.61 Q880.989 554.852 880.989 543.944 Q880.989 533.006 884.808 527.277 Q888.656 521.519 895.919 521.519 Z" fill="#000000" fill-rule="evenodd" fill-opacity="1" /><path clip-path="url(#clip980)" d="M933.622 526.149 Q929.108 526.149 926.822 530.605 Q924.565 535.032 924.565 543.944 Q924.565 552.827 926.822 557.283 Q929.108 561.71 933.622 561.71 Q938.164 561.71 940.421 557.283 Q942.707 552.827 942.707 543.944 Q942.707 535.032 940.421 530.605 Q938.164 526.149 933.622 526.149 M933.622 521.519 Q940.884 521.519 944.704 527.277 Q948.552 533.006 948.552 543.944 Q948.552 554.852 944.704 560.61 Q940.884 566.339 933.622 566.339 Q926.359 566.339 922.51 560.61 Q918.691 554.852 918.691 543.944 Q918.691 533.006 922.51 527.277 Q926.359 521.519 933.622 521.519 Z" fill="#000000" fill-rule="evenodd" fill-opacity="1" /><path clip-path="url(#clip980)" d="M1195.29 560.581 L1204.84 560.581 L1204.84 527.624 L1194.45 529.708 L1194.45 524.384 L1204.78 522.3 L1210.63 522.3 L1210.63 560.581 L1220.18 560.581 L1220.18 565.5 L1195.29 565.5 L1195.29 560.581 Z" fill="#000000" fill-rule="evenodd" fill-opacity="1" /><path clip-path="url(#clip980)" d="M1232.04 522.3 L1254.99 522.3 L1254.99 527.219 L1237.39 527.219 L1237.39 537.809 Q1238.67 537.375 1239.94 537.173 Q1241.21 536.941 1242.49 536.941 Q1249.72 536.941 1253.94 540.905 Q1258.17 544.87 1258.17 551.64 Q1258.17 558.614 1253.83 562.491 Q1249.49 566.339 1241.59 566.339 Q1238.87 566.339 1236.03 565.876 Q1233.23 565.413 1230.22 564.487 L1230.22 558.614 Q1232.82 560.031 1235.6 560.726 Q1238.38 561.42 1241.47 561.42 Q1246.48 561.42 1249.4 558.787 Q1252.32 556.154 1252.32 551.64 Q1252.32 547.126 1249.4 544.493 Q1246.48 541.86 1241.47 541.86 Q1239.13 541.86 1236.79 542.381 Q1234.47 542.902 1232.04 544.001 L1232.04 522.3 Z" fill="#000000" fill-rule="evenodd" fill-opacity="1" /><path clip-path="url(#clip980)" d="M1282.18 526.149 Q1277.67 526.149 1275.39 530.605 Q1273.13 535.032 1273.13 543.944 Q1273.13 552.827 1275.39 557.283 Q1277.67 561.71 1282.18 561.71 Q1286.73 561.71 1288.98 557.283 Q1291.27 552.827 1291.27 543.944 Q1291.27 535.032 1288.98 530.605 Q1286.73 526.149 1282.18 526.149 M1282.18 521.519 Q1289.45 521.519 1293.27 527.277 Q1297.12 533.006 1297.12 543.944 Q1297.12 554.852 1293.27 560.61 Q1289.45 566.339 1282.18 566.339 Q1274.92 566.339 1271.07 560.61 Q1267.25 554.852 1267.25 543.944 Q1267.25 533.006 1271.07 527.277 Q1274.92 521.519 1282.18 521.519 Z" fill="#000000" fill-rule="evenodd" fill-opacity="1" /><polyline clip-path="url(#clip980)" style="stroke:#000000; stroke-linecap:butt; stroke-linejoin:round; stroke-width:4; stroke-opacity:1; fill:none" points="
  200.094,501.1 200.094,47.2441 
  "/>
<polyline clip-path="url(#clip980)" style="stroke:#000000; stroke-linecap:butt; stroke-linejoin:round; stroke-width:4; stroke-opacity:1; fill:none" points="
  200.094,487.84 218.992,487.84 
  "/>
<polyline clip-path="url(#clip980)" style="stroke:#000000; stroke-linecap:butt; stroke-linejoin:round; stroke-width:4; stroke-opacity:1; fill:none" points="
  200.094,380.899 218.992,380.899 
  "/>
<polyline clip-path="url(#clip980)" style="stroke:#000000; stroke-linecap:butt; stroke-linejoin:round; stroke-width:4; stroke-opacity:1; fill:none" points="
  200.094,273.958 218.992,273.958 
  "/>
<polyline clip-path="url(#clip980)" style="stroke:#000000; stroke-linecap:butt; stroke-linejoin:round; stroke-width:4; stroke-opacity:1; fill:none" points="
  200.094,167.018 218.992,167.018 
  "/>
<polyline clip-path="url(#clip980)" style="stroke:#000000; stroke-linecap:butt; stroke-linejoin:round; stroke-width:4; stroke-opacity:1; fill:none" points="
  200.094,60.077 218.992,60.077 
  "/>
<path clip-path="url(#clip980)" d="M71.4226 470.088 Q66.9087 470.088 64.6229 474.544 Q62.3659 478.971 62.3659 487.883 Q62.3659 496.766 64.6229 501.222 Q66.9087 505.649 71.4226 505.649 Q75.9654 505.649 78.2223 501.222 Q80.5082 496.766 80.5082 487.883 Q80.5082 478.971 78.2223 474.544 Q75.9654 470.088 71.4226 470.088 M71.4226 465.458 Q78.6853 465.458 82.5047 471.216 Q86.3531 476.946 86.3531 487.883 Q86.3531 498.791 82.5047 504.55 Q78.6853 510.279 71.4226 510.279 Q64.1599 510.279 60.3115 504.55 Q56.4921 498.791 56.4921 487.883 Q56.4921 476.946 60.3115 471.216 Q64.1599 465.458 71.4226 465.458 Z" fill="#000000" fill-rule="evenodd" fill-opacity="1" /><path clip-path="url(#clip980)" d="M96.625 502.09 L102.73 502.09 L102.73 509.44 L96.625 509.44 L96.625 502.09 Z" fill="#000000" fill-rule="evenodd" fill-opacity="1" /><path clip-path="url(#clip980)" d="M127.962 470.088 Q123.448 470.088 121.162 474.544 Q118.905 478.971 118.905 487.883 Q118.905 496.766 121.162 501.222 Q123.448 505.649 127.962 505.649 Q132.504 505.649 134.761 501.222 Q137.047 496.766 137.047 487.883 Q137.047 478.971 134.761 474.544 Q132.504 470.088 127.962 470.088 M127.962 465.458 Q135.224 465.458 139.044 471.216 Q142.892 476.946 142.892 487.883 Q142.892 498.791 139.044 504.55 Q135.224 510.279 127.962 510.279 Q120.699 510.279 116.851 504.55 Q113.031 498.791 113.031 487.883 Q113.031 476.946 116.851 471.216 Q120.699 465.458 127.962 465.458 Z" fill="#000000" fill-rule="evenodd" fill-opacity="1" /><path clip-path="url(#clip980)" d="M165.664 470.088 Q161.15 470.088 158.864 474.544 Q156.607 478.971 156.607 487.883 Q156.607 496.766 158.864 501.222 Q161.15 505.649 165.664 505.649 Q170.207 505.649 172.464 501.222 Q174.75 496.766 174.75 487.883 Q174.75 478.971 172.464 474.544 Q170.207 470.088 165.664 470.088 M165.664 465.458 Q172.927 465.458 176.746 471.216 Q180.594 476.946 180.594 487.883 Q180.594 498.791 176.746 504.55 Q172.927 510.279 165.664 510.279 Q158.401 510.279 154.553 504.55 Q150.734 498.791 150.734 487.883 Q150.734 476.946 154.553 471.216 Q158.401 465.458 165.664 465.458 Z" fill="#000000" fill-rule="evenodd" fill-opacity="1" /><path clip-path="url(#clip980)" d="M72.6668 363.147 Q68.1529 363.147 65.8671 367.603 Q63.6101 372.03 63.6101 380.942 Q63.6101 389.825 65.8671 394.281 Q68.1529 398.708 72.6668 398.708 Q77.2096 398.708 79.4665 394.281 Q81.7524 389.825 81.7524 380.942 Q81.7524 372.03 79.4665 367.603 Q77.2096 363.147 72.6668 363.147 M72.6668 358.518 Q79.9295 358.518 83.7489 364.276 Q87.5973 370.005 87.5973 380.942 Q87.5973 391.851 83.7489 397.609 Q79.9295 403.338 72.6668 403.338 Q65.4041 403.338 61.5558 397.609 Q57.7363 391.851 57.7363 380.942 Q57.7363 370.005 61.5558 364.276 Q65.4041 358.518 72.6668 358.518 Z" fill="#000000" fill-rule="evenodd" fill-opacity="1" /><path clip-path="url(#clip980)" d="M97.8692 395.149 L103.975 395.149 L103.975 402.499 L97.8692 402.499 L97.8692 395.149 Z" fill="#000000" fill-rule="evenodd" fill-opacity="1" /><path clip-path="url(#clip980)" d="M121.741 397.58 L142.14 397.58 L142.14 402.499 L114.709 402.499 L114.709 397.58 Q118.037 394.137 123.766 388.35 Q129.524 382.534 131 380.855 Q133.807 377.702 134.906 375.531 Q136.035 373.332 136.035 371.22 Q136.035 367.777 133.604 365.607 Q131.202 363.437 127.325 363.437 Q124.576 363.437 121.509 364.391 Q118.471 365.346 114.999 367.285 L114.999 361.382 Q118.529 359.964 121.596 359.241 Q124.663 358.518 127.209 358.518 Q133.922 358.518 137.915 361.874 Q141.908 365.231 141.908 370.844 Q141.908 373.506 140.896 375.908 Q139.912 378.28 137.279 381.521 Q136.555 382.36 132.678 386.382 Q128.801 390.375 121.741 397.58 Z" fill="#000000" fill-rule="evenodd" fill-opacity="1" /><path clip-path="url(#clip980)" d="M154.466 359.299 L177.412 359.299 L177.412 364.218 L159.819 364.218 L159.819 374.808 Q161.092 374.374 162.365 374.172 Q163.639 373.94 164.912 373.94 Q172.145 373.94 176.37 377.904 Q180.594 381.868 180.594 388.639 Q180.594 395.612 176.254 399.49 Q171.914 403.338 164.015 403.338 Q161.295 403.338 158.459 402.875 Q155.652 402.412 152.643 401.486 L152.643 395.612 Q155.247 397.03 158.025 397.725 Q160.803 398.419 163.899 398.419 Q168.905 398.419 171.827 395.786 Q174.75 393.153 174.75 388.639 Q174.75 384.125 171.827 381.492 Q168.905 378.859 163.899 378.859 Q161.555 378.859 159.211 379.38 Q156.897 379.901 154.466 381 L154.466 359.299 Z" fill="#000000" fill-rule="evenodd" fill-opacity="1" /><path clip-path="url(#clip980)" d="M71.4226 256.207 Q66.9087 256.207 64.6229 260.663 Q62.3659 265.09 62.3659 274.002 Q62.3659 282.885 64.6229 287.341 Q66.9087 291.768 71.4226 291.768 Q75.9654 291.768 78.2223 287.341 Q80.5082 282.885 80.5082 274.002 Q80.5082 265.09 78.2223 260.663 Q75.9654 256.207 71.4226 256.207 M71.4226 251.577 Q78.6853 251.577 82.5047 257.335 Q86.3531 263.064 86.3531 274.002 Q86.3531 284.91 82.5047 290.668 Q78.6853 296.397 71.4226 296.397 Q64.1599 296.397 60.3115 290.668 Q56.4921 284.91 56.4921 274.002 Q56.4921 263.064 60.3115 257.335 Q64.1599 251.577 71.4226 251.577 Z" fill="#000000" fill-rule="evenodd" fill-opacity="1" /><path clip-path="url(#clip980)" d="M96.625 288.209 L102.73 288.209 L102.73 295.558 L96.625 295.558 L96.625 288.209 Z" fill="#000000" fill-rule="evenodd" fill-opacity="1" /><path clip-path="url(#clip980)" d="M115.52 252.358 L138.465 252.358 L138.465 257.277 L120.873 257.277 L120.873 267.867 Q122.146 267.433 123.419 267.231 Q124.692 266.999 125.965 266.999 Q133.199 266.999 137.423 270.963 Q141.648 274.928 141.648 281.698 Q141.648 288.672 137.308 292.549 Q132.967 296.397 125.068 296.397 Q122.348 296.397 119.513 295.934 Q116.706 295.471 113.697 294.546 L113.697 288.672 Q116.301 290.09 119.079 290.784 Q121.856 291.478 124.952 291.478 Q129.958 291.478 132.881 288.845 Q135.803 286.212 135.803 281.698 Q135.803 277.185 132.881 274.551 Q129.958 271.918 124.952 271.918 Q122.609 271.918 120.265 272.439 Q117.95 272.96 115.52 274.06 L115.52 252.358 Z" fill="#000000" fill-rule="evenodd" fill-opacity="1" /><path clip-path="url(#clip980)" d="M165.664 256.207 Q161.15 256.207 158.864 260.663 Q156.607 265.09 156.607 274.002 Q156.607 282.885 158.864 287.341 Q161.15 291.768 165.664 291.768 Q170.207 291.768 172.464 287.341 Q174.75 282.885 174.75 274.002 Q174.75 265.09 172.464 260.663 Q170.207 256.207 165.664 256.207 M165.664 251.577 Q172.927 251.577 176.746 257.335 Q180.594 263.064 180.594 274.002 Q180.594 284.91 176.746 290.668 Q172.927 296.397 165.664 296.397 Q158.401 296.397 154.553 290.668 Q150.734 284.91 150.734 274.002 Q150.734 263.064 154.553 257.335 Q158.401 251.577 165.664 251.577 Z" fill="#000000" fill-rule="evenodd" fill-opacity="1" /><path clip-path="url(#clip980)" d="M72.6668 149.266 Q68.1529 149.266 65.8671 153.722 Q63.6101 158.149 63.6101 167.061 Q63.6101 175.944 65.8671 180.4 Q68.1529 184.827 72.6668 184.827 Q77.2096 184.827 79.4665 180.4 Q81.7524 175.944 81.7524 167.061 Q81.7524 158.149 79.4665 153.722 Q77.2096 149.266 72.6668 149.266 M72.6668 144.636 Q79.9295 144.636 83.7489 150.394 Q87.5973 156.124 87.5973 167.061 Q87.5973 177.97 83.7489 183.728 Q79.9295 189.457 72.6668 189.457 Q65.4041 189.457 61.5558 183.728 Q57.7363 177.97 57.7363 167.061 Q57.7363 156.124 61.5558 150.394 Q65.4041 144.636 72.6668 144.636 Z" fill="#000000" fill-rule="evenodd" fill-opacity="1" /><path clip-path="url(#clip980)" d="M97.8692 181.268 L103.975 181.268 L103.975 188.618 L97.8692 188.618 L97.8692 181.268 Z" fill="#000000" fill-rule="evenodd" fill-opacity="1" /><path clip-path="url(#clip980)" d="M115.23 145.418 L143.008 145.418 L143.008 147.906 L127.325 188.618 L121.22 188.618 L135.977 150.337 L115.23 150.337 L115.23 145.418 Z" fill="#000000" fill-rule="evenodd" fill-opacity="1" /><path clip-path="url(#clip980)" d="M154.466 145.418 L177.412 145.418 L177.412 150.337 L159.819 150.337 L159.819 160.927 Q161.092 160.493 162.365 160.29 Q163.639 160.059 164.912 160.059 Q172.145 160.059 176.37 164.023 Q180.594 167.987 180.594 174.758 Q180.594 181.731 176.254 185.608 Q171.914 189.457 164.015 189.457 Q161.295 189.457 158.459 188.994 Q155.652 188.531 152.643 187.605 L152.643 181.731 Q155.247 183.149 158.025 183.843 Q160.803 184.538 163.899 184.538 Q168.905 184.538 171.827 181.905 Q174.75 179.272 174.75 174.758 Q174.75 170.244 171.827 167.611 Q168.905 164.978 163.899 164.978 Q161.555 164.978 159.211 165.499 Q156.897 166.019 154.466 167.119 L154.466 145.418 Z" fill="#000000" fill-rule="evenodd" fill-opacity="1" /><path clip-path="url(#clip980)" d="M59.9354 76.758 L69.484 76.758 L69.484 43.801 L59.0963 45.8843 L59.0963 40.5603 L69.4261 38.477 L75.271 38.477 L75.271 76.758 L84.8195 76.758 L84.8195 81.677 L59.9354 81.677 L59.9354 76.758 Z" fill="#000000" fill-rule="evenodd" fill-opacity="1" /><path clip-path="url(#clip980)" d="M96.625 74.3275 L102.73 74.3275 L102.73 81.677 L96.625 81.677 L96.625 74.3275 Z" fill="#000000" fill-rule="evenodd" fill-opacity="1" /><path clip-path="url(#clip980)" d="M127.962 42.3253 Q123.448 42.3253 121.162 46.7813 Q118.905 51.2084 118.905 60.1204 Q118.905 69.0034 121.162 73.4594 Q123.448 77.8865 127.962 77.8865 Q132.504 77.8865 134.761 73.4594 Q137.047 69.0034 137.047 60.1204 Q137.047 51.2084 134.761 46.7813 Q132.504 42.3253 127.962 42.3253 M127.962 37.6957 Q135.224 37.6957 139.044 43.4538 Q142.892 49.1829 142.892 60.1204 Q142.892 71.0289 139.044 76.787 Q135.224 82.5161 127.962 82.5161 Q120.699 82.5161 116.851 76.787 Q113.031 71.0289 113.031 60.1204 Q113.031 49.1829 116.851 43.4538 Q120.699 37.6957 127.962 37.6957 Z" fill="#000000" fill-rule="evenodd" fill-opacity="1" /><path clip-path="url(#clip980)" d="M165.664 42.3253 Q161.15 42.3253 158.864 46.7813 Q156.607 51.2084 156.607 60.1204 Q156.607 69.0034 158.864 73.4594 Q161.15 77.8865 165.664 77.8865 Q170.207 77.8865 172.464 73.4594 Q174.75 69.0034 174.75 60.1204 Q174.75 51.2084 172.464 46.7813 Q170.207 42.3253 165.664 42.3253 M165.664 37.6957 Q172.927 37.6957 176.746 43.4538 Q180.594 49.1829 180.594 60.1204 Q180.594 71.0289 176.746 76.787 Q172.927 82.5161 165.664 82.5161 Q158.401 82.5161 154.553 76.787 Q150.734 71.0289 150.734 60.1204 Q150.734 49.1829 154.553 43.4538 Q158.401 37.6957 165.664 37.6957 Z" fill="#000000" fill-rule="evenodd" fill-opacity="1" /><polyline clip-path="url(#clip982)" style="stroke:#ff00ff; stroke-linecap:butt; stroke-linejoin:round; stroke-width:16; stroke-opacity:1; fill:none" points="
  207.066,274.065 214.037,274.146 221.008,274.282 227.98,274.488 234.951,274.8 241.922,275.27 248.893,275.98 255.865,277.048 262.836,278.647 269.807,281.026 
  276.778,284.531 283.75,289.623 290.721,296.865 297.692,306.865 304.663,320.126 311.635,336.794 318.606,356.39 325.577,377.699 332.549,398.989 339.52,418.537 
  346.491,435.142 353.462,448.342 360.434,458.296 367.405,465.512 374.376,470.6 381.347,474.124 388.319,476.54 395.29,478.188 402.261,479.308 409.233,480.061 
  416.204,480.555 423.175,480.857 430.146,481.01 437.118,481.044 444.089,480.975 451.06,480.819 458.031,480.583 465.003,480.277 471.974,479.909 478.945,479.487 
  485.916,479.02 492.888,478.519 499.859,477.995 506.83,477.456 513.802,476.914 520.773,476.375 527.744,475.849 534.715,475.339 541.687,474.851 548.658,474.387 
  555.629,473.948 562.6,473.536 569.572,473.15 576.543,472.79 583.514,472.454 590.485,472.141 597.457,471.85 604.428,471.579 611.399,471.327 618.371,471.092 
  625.342,470.873 632.313,470.668 639.284,470.477 646.256,470.298 653.227,470.13 660.198,469.973 667.169,469.824 674.141,469.684 681.112,469.553 688.083,469.428 
  695.054,469.31 702.026,469.198 708.997,469.092 715.968,468.991 722.94,468.895 729.911,468.803 736.882,468.715 743.853,468.631 750.825,468.551 757.796,468.474 
  764.767,468.4 771.738,468.328 778.71,468.26 785.681,468.194 792.652,468.13 799.623,468.069 806.595,468.009 813.566,467.951 820.537,467.895 827.509,467.841 
  834.48,467.789 841.451,467.737 848.422,467.687 855.394,467.639 862.365,467.592 869.336,467.545 876.307,467.5 883.279,467.456 890.25,467.413 897.221,467.371 
  904.193,467.33 911.164,467.289 918.135,467.25 925.106,467.21 932.078,467.172 939.049,467.134 946.02,467.097 952.991,467.061 959.963,467.025 966.934,466.989 
  973.905,466.954 980.876,466.92 987.848,466.886 994.819,466.852 1001.79,466.819 1008.76,466.786 1015.73,466.753 1022.7,466.721 1029.68,466.689 1036.65,466.657 
  1043.62,466.625 1050.59,466.594 1057.56,466.563 1064.53,466.532 1071.5,466.502 1078.47,466.471 1085.45,466.441 1092.42,466.411 1099.39,466.381 1106.36,466.351 
  1113.33,466.321 1120.3,466.292 1127.27,466.262 1134.24,466.233 1141.22,466.203 1148.19,466.174 1155.16,466.145 1162.13,466.115 1169.1,466.086 1176.07,466.057 
  1183.04,466.028 1190.01,465.999 1196.99,465.97 1203.96,465.94 1210.93,465.911 1217.9,465.882 1224.87,465.853 1231.84,465.824 1238.81,465.794 1245.78,465.765 
  1252.76,465.735 
  "/>
<polyline clip-path="url(#clip982)" style="stroke:#2000d4; stroke-linecap:butt; stroke-linejoin:round; stroke-width:16; stroke-opacity:1; fill:none" stroke-dasharray="8, 16" points="
  207.066,487.84 214.037,487.84 221.008,487.84 227.98,487.84 234.951,487.84 241.922,487.84 248.893,487.839 255.865,487.839 262.836,487.839 269.807,487.839 
  276.778,487.839 283.75,487.839 290.721,487.838 297.692,487.838 304.663,487.837 311.635,487.836 318.606,487.835 325.577,487.834 332.549,487.833 339.52,487.832 
  346.491,487.831 353.462,487.83 360.434,487.83 367.405,487.829 374.376,487.828 381.347,487.828 388.319,487.827 395.29,487.826 402.261,487.826 409.233,487.825 
  416.204,487.825 423.175,487.824 430.146,487.823 437.118,487.823 444.089,487.822 451.06,487.822 458.031,487.821 465.003,487.82 471.974,487.82 478.945,487.819 
  485.916,487.818 492.888,487.818 499.859,487.817 506.83,487.816 513.802,487.816 520.773,487.815 527.744,487.814 534.715,487.814 541.687,487.813 548.658,487.812 
  555.629,487.812 562.6,487.811 569.572,487.81 576.543,487.81 583.514,487.809 590.485,487.808 597.457,487.807 604.428,487.807 611.399,487.806 618.371,487.805 
  625.342,487.804 632.313,487.803 639.284,487.803 646.256,487.802 653.227,487.801 660.198,487.8 667.169,487.799 674.141,487.799 681.112,487.798 688.083,487.797 
  695.054,487.796 702.026,487.795 708.997,487.794 715.968,487.793 722.94,487.792 729.911,487.792 736.882,487.791 743.853,487.79 750.825,487.789 757.796,487.788 
  764.767,487.787 771.738,487.786 778.71,487.785 785.681,487.784 792.652,487.783 799.623,487.782 806.595,487.781 813.566,487.78 820.537,487.779 827.509,487.778 
  834.48,487.777 841.451,487.776 848.422,487.775 855.394,487.774 862.365,487.772 869.336,487.771 876.307,487.77 883.279,487.769 890.25,487.768 897.221,487.767 
  904.193,487.766 911.164,487.764 918.135,487.763 925.106,487.762 932.078,487.761 939.049,487.76 946.02,487.758 952.991,487.757 959.963,487.756 966.934,487.755 
  973.905,487.753 980.876,487.752 987.848,487.751 994.819,487.749 1001.79,487.748 1008.76,487.747 1015.73,487.745 1022.7,487.744 1029.68,487.743 1036.65,487.741 
  1043.62,487.74 1050.59,487.738 1057.56,487.737 1064.53,487.735 1071.5,487.734 1078.47,487.732 1085.45,487.731 1092.42,487.729 1099.39,487.728 1106.36,487.726 
  1113.33,487.725 1120.3,487.723 1127.27,487.722 1134.24,487.72 1141.22,487.718 1148.19,487.717 1155.16,487.715 1162.13,487.713 1169.1,487.712 1176.07,487.71 
  1183.04,487.708 1190.01,487.706 1196.99,487.705 1203.96,487.703 1210.93,487.701 1217.9,487.699 1224.87,487.697 1231.84,487.696 1238.81,487.694 1245.78,487.692 
  1252.76,487.69 
  "/>
<polyline clip-path="url(#clip982)" style="stroke:#008900; stroke-linecap:butt; stroke-linejoin:round; stroke-width:16; stroke-opacity:1; fill:none" stroke-dasharray="64, 40" points="
  207.066,487.84 214.037,487.839 221.008,487.839 227.98,487.839 234.951,487.839 241.922,487.839 248.893,487.838 255.865,487.837 262.836,487.836 269.807,487.835 
  276.778,487.832 283.75,487.828 290.721,487.823 297.692,487.816 304.663,487.806 311.635,487.794 318.606,487.779 325.577,487.762 332.549,487.744 339.52,487.724 
  346.491,487.704 353.462,487.682 360.434,487.657 367.405,487.624 374.376,487.582 381.347,487.527 388.319,487.455 395.29,487.364 402.261,487.249 409.233,487.108 
  416.204,486.941 423.175,486.744 430.146,486.519 437.118,486.265 444.089,485.985 451.06,485.679 458.031,485.352 465.003,485.008 471.974,484.651 478.945,484.285 
  485.916,483.915 492.888,483.547 499.859,483.182 506.83,482.825 513.802,482.478 520.773,482.142 527.744,481.819 534.715,481.509 541.687,481.212 548.658,480.929 
  555.629,480.658 562.6,480.4 569.572,480.154 576.543,479.919 583.514,479.695 590.485,479.481 597.457,479.277 604.428,479.082 611.399,478.895 618.371,478.716 
  625.342,478.545 632.313,478.381 639.284,478.224 646.256,478.073 653.227,477.928 660.198,477.789 667.169,477.656 674.141,477.528 681.112,477.405 688.083,477.287 
  695.054,477.173 702.026,477.064 708.997,476.959 715.968,476.858 722.94,476.762 729.911,476.669 736.882,476.579 743.853,476.494 750.825,476.411 757.796,476.332 
  764.767,476.257 771.738,476.184 778.71,476.114 785.681,476.048 792.652,475.984 799.623,475.923 806.595,475.864 813.566,475.808 820.537,475.755 827.509,475.704 
  834.48,475.656 841.451,475.609 848.422,475.565 855.394,475.524 862.365,475.484 869.336,475.446 876.307,475.411 883.279,475.377 890.25,475.345 897.221,475.316 
  904.193,475.288 911.164,475.261 918.135,475.237 925.106,475.214 932.078,475.193 939.049,475.173 946.02,475.155 952.991,475.138 959.963,475.123 966.934,475.109 
  973.905,475.097 980.876,475.086 987.848,475.076 994.819,475.068 1001.79,475.06 1008.76,475.055 1015.73,475.05 1022.7,475.046 1029.68,475.044 1036.65,475.042 
  1043.62,475.042 1050.59,475.043 1057.56,475.044 1064.53,475.047 1071.5,475.051 1078.47,475.055 1085.45,475.061 1092.42,475.067 1099.39,475.075 1106.36,475.083 
  1113.33,475.092 1120.3,475.101 1127.27,475.112 1134.24,475.123 1141.22,475.135 1148.19,475.147 1155.16,475.161 1162.13,475.175 1169.1,475.189 1176.07,475.205 
  1183.04,475.221 1190.01,475.237 1196.99,475.254 1203.96,475.272 1210.93,475.29 1217.9,475.309 1224.87,475.328 1231.84,475.348 1238.81,475.368 1245.78,475.388 
  1252.76,475.409 
  "/>
<polyline clip-path="url(#clip982)" style="stroke:#008900; stroke-linecap:butt; stroke-linejoin:round; stroke-width:16; stroke-opacity:1; fill:none" stroke-dasharray="8, 16" points="
  207.066,487.84 214.037,487.839 221.008,487.839 227.98,487.839 234.951,487.839 241.922,487.839 248.893,487.838 255.865,487.837 262.836,487.836 269.807,487.834 
  276.778,487.832 283.75,487.828 290.721,487.823 297.692,487.816 304.663,487.807 311.635,487.795 318.606,487.781 325.577,487.765 332.549,487.75 339.52,487.735 
  346.491,487.723 353.462,487.712 360.434,487.703 367.405,487.696 374.376,487.69 381.347,487.683 388.319,487.678 395.29,487.672 402.261,487.667 409.233,487.663 
  416.204,487.661 423.175,487.659 430.146,487.66 437.118,487.662 444.089,487.666 451.06,487.671 458.031,487.678 465.003,487.685 471.974,487.693 478.945,487.701 
  485.916,487.71 492.888,487.718 499.859,487.726 506.83,487.733 513.802,487.74 520.773,487.746 527.744,487.752 534.715,487.758 541.687,487.763 548.658,487.767 
  555.629,487.771 562.6,487.775 569.572,487.778 576.543,487.781 583.514,487.784 590.485,487.786 597.457,487.788 604.428,487.79 611.399,487.792 618.371,487.794 
  625.342,487.795 632.313,487.797 639.284,487.798 646.256,487.799 653.227,487.8 660.198,487.801 667.169,487.802 674.141,487.803 681.112,487.803 688.083,487.804 
  695.054,487.805 702.026,487.805 708.997,487.806 715.968,487.806 722.94,487.807 729.911,487.807 736.882,487.808 743.853,487.808 750.825,487.809 757.796,487.809 
  764.767,487.809 771.738,487.81 778.71,487.81 785.681,487.81 792.652,487.81 799.623,487.811 806.595,487.811 813.566,487.811 820.537,487.811 827.509,487.812 
  834.48,487.812 841.451,487.812 848.422,487.812 855.394,487.812 862.365,487.812 869.336,487.812 876.307,487.813 883.279,487.813 890.25,487.813 897.221,487.813 
  904.193,487.813 911.164,487.813 918.135,487.813 925.106,487.813 932.078,487.814 939.049,487.814 946.02,487.814 952.991,487.814 959.963,487.814 966.934,487.814 
  973.905,487.814 980.876,487.814 987.848,487.814 994.819,487.814 1001.79,487.814 1008.76,487.814 1015.73,487.814 1022.7,487.814 1029.68,487.814 1036.65,487.814 
  1043.62,487.815 1050.59,487.815 1057.56,487.815 1064.53,487.815 1071.5,487.815 1078.47,487.815 1085.45,487.815 1092.42,487.815 1099.39,487.815 1106.36,487.815 
  1113.33,487.815 1120.3,487.815 1127.27,487.815 1134.24,487.815 1141.22,487.815 1148.19,487.815 1155.16,487.815 1162.13,487.815 1169.1,487.815 1176.07,487.815 
  1183.04,487.815 1190.01,487.815 1196.99,487.815 1203.96,487.815 1210.93,487.815 1217.9,487.815 1224.87,487.815 1231.84,487.815 1238.81,487.815 1245.78,487.815 
  1252.76,487.815 
  "/>
<polyline clip-path="url(#clip982)" style="stroke:#2000d4; stroke-linecap:butt; stroke-linejoin:round; stroke-width:16; stroke-opacity:1; fill:none" points="
  207.066,487.412 214.037,487.085 221.008,486.537 227.98,485.708 234.951,484.457 241.922,482.575 248.893,479.751 255.865,475.539 262.836,469.307 269.807,460.203 
  276.778,447.139 283.75,428.876 290.721,404.252 297.692,372.624 304.663,334.436 311.635,291.629 318.606,247.462 325.577,205.62 332.549,169.069 339.52,139.333 
  346.491,116.51 353.462,99.7599 360.434,87.8651 367.405,79.6091 374.376,73.9636 381.347,70.1349 388.319,67.5442 395.29,65.7849 402.261,64.5788 409.233,63.7395 
  416.204,63.144 423.175,62.7121 430.146,62.3913 437.118,62.1475 444.089,61.9582 451.06,61.8082 458.031,61.6871 465.003,61.5878 471.974,61.5052 478.945,61.4358 
  485.916,61.377 492.888,61.3266 499.859,61.2833 506.83,61.246 513.802,61.2137 520.773,61.1857 527.744,61.1615 534.715,61.1405 541.687,61.1223 548.658,61.1067 
  555.629,61.0934 562.6,61.082 569.572,61.0723 576.543,61.0643 583.514,61.0577 590.485,61.0524 597.457,61.0483 604.428,61.0452 611.399,61.0431 618.371,61.0419 
  625.342,61.0415 632.313,61.0418 639.284,61.0429 646.256,61.0446 653.227,61.0469 660.198,61.0498 667.169,61.0532 674.141,61.0572 681.112,61.0616 688.083,61.0664 
  695.054,61.0717 702.026,61.0774 708.997,61.0834 715.968,61.0899 722.94,61.0967 729.911,61.1038 736.882,61.1113 743.853,61.1191 750.825,61.1272 757.796,61.1356 
  764.767,61.1443 771.738,61.1533 778.71,61.1625 785.681,61.1721 792.652,61.1819 799.623,61.1919 806.595,61.2022 813.566,61.2128 820.537,61.2236 827.509,61.2347 
  834.48,61.246 841.451,61.2575 848.422,61.2693 855.394,61.2813 862.365,61.2935 869.336,61.306 876.307,61.3187 883.279,61.3316 890.25,61.3447 897.221,61.3581 
  904.193,61.3717 911.164,61.3855 918.135,61.3996 925.106,61.4138 932.078,61.4283 939.049,61.443 946.02,61.4579 952.991,61.473 959.963,61.4884 966.934,61.504 
  973.905,61.5198 980.876,61.5358 987.848,61.552 994.819,61.5685 1001.79,61.5852 1008.76,61.6021 1015.73,61.6192 1022.7,61.6365 1029.68,61.6541 1036.65,61.6719 
  1043.62,61.6899 1050.59,61.7082 1057.56,61.7267 1064.53,61.7454 1071.5,61.7643 1078.47,61.7835 1085.45,61.8029 1092.42,61.8226 1099.39,61.8424 1106.36,61.8626 
  1113.33,61.8829 1120.3,61.9035 1127.27,61.9243 1134.24,61.9454 1141.22,61.9668 1148.19,61.9883 1155.16,62.0102 1162.13,62.0322 1169.1,62.0546 1176.07,62.0771 
  1183.04,62.1 1190.01,62.1231 1196.99,62.1464 1203.96,62.17 1210.93,62.1939 1217.9,62.218 1224.87,62.2425 1231.84,62.2671 1238.81,62.2921 1245.78,62.3173 
  1252.76,62.3428 
  "/>
<polyline clip-path="url(#clip982)" style="stroke:#008900; stroke-linecap:butt; stroke-linejoin:round; stroke-width:16; stroke-opacity:1; fill:none" points="
  207.066,487.626 214.037,487.482 221.008,487.296 227.98,487.015 234.951,486.591 241.922,485.951 248.893,484.991 255.865,483.558 262.836,481.439 269.807,478.341 
  276.778,473.894 283.75,467.676 290.721,459.289 297.692,448.508 304.663,435.476 311.635,420.839 318.606,405.685 325.577,391.238 332.549,378.464 339.52,367.826 
  346.491,359.279 353.462,352.443 360.434,346.788 367.405,341.789 374.376,337.025 381.347,332.245 388.319,327.415 395.29,322.715 402.261,318.489 409.233,315.142 
  416.204,313.044 423.175,312.465 430.146,313.542 437.118,316.283 444.089,320.587 451.06,326.266 458.031,333.076 465.003,340.741 471.974,348.979 478.945,357.52 
  485.916,366.122 492.888,374.585 499.859,382.75 506.83,390.505 513.802,397.776 520.773,404.526 527.744,410.741 534.715,416.432 541.687,421.62 548.658,426.337 
  555.629,430.618 562.6,434.5 569.572,438.021 576.543,441.216 583.514,444.119 590.485,446.76 597.457,449.167 604.428,451.365 611.399,453.376 618.371,455.22 
  625.342,456.914 632.313,458.475 639.284,459.915 646.256,461.246 653.227,462.481 660.198,463.627 667.169,464.693 674.141,465.688 681.112,466.617 688.083,467.486 
  695.054,468.3 702.026,469.065 708.997,469.784 715.968,470.462 722.94,471.101 729.911,471.704 736.882,472.275 743.853,472.815 750.825,473.328 757.796,473.814 
  764.767,474.276 771.738,474.716 778.71,475.135 785.681,475.534 792.652,475.915 799.623,476.279 806.595,476.627 813.566,476.96 820.537,477.279 827.509,477.584 
  834.48,477.877 841.451,478.158 848.422,478.428 855.394,478.688 862.365,478.937 869.336,479.177 876.307,479.409 883.279,479.631 890.25,479.846 897.221,480.053 
  904.193,480.253 911.164,480.446 918.135,480.632 925.106,480.812 932.078,480.986 939.049,481.154 946.02,481.317 952.991,481.475 959.963,481.627 966.934,481.775 
  973.905,481.918 980.876,482.057 987.848,482.192 994.819,482.322 1001.79,482.449 1008.76,482.572 1015.73,482.692 1022.7,482.808 1029.68,482.92 1036.65,483.03 
  1043.62,483.137 1050.59,483.24 1057.56,483.341 1064.53,483.439 1071.5,483.534 1078.47,483.627 1085.45,483.717 1092.42,483.805 1099.39,483.891 1106.36,483.974 
  1113.33,484.055 1120.3,484.134 1127.27,484.212 1134.24,484.287 1141.22,484.36 1148.19,484.432 1155.16,484.502 1162.13,484.57 1169.1,484.636 1176.07,484.701 
  1183.04,484.764 1190.01,484.826 1196.99,484.886 1203.96,484.945 1210.93,485.002 1217.9,485.059 1224.87,485.113 1231.84,485.167 1238.81,485.219 1245.78,485.27 
  1252.76,485.32 
  "/>
<polyline clip-path="url(#clip982)" style="stroke:#7f7f7f; stroke-linecap:butt; stroke-linejoin:round; stroke-width:16; stroke-opacity:1; fill:none" points="
  207.066,60.077 214.037,71.0592 221.008,97.8907 227.98,113.051 234.951,122.201 241.922,128.003 248.893,131.887 255.865,134.708 262.836,137.036 269.807,139.309 
  276.778,141.923 283.75,145.305 290.721,149.955 297.692,156.485 304.663,165.61 311.635,178.081 318.606,194.524 325.577,215.194 332.549,239.734 339.52,267.103 
  346.491,295.765 353.462,324.086 360.434,350.703 367.405,374.72 374.376,395.693 381.347,413.524 388.319,428.337 395.29,440.389 402.261,450.022 409.233,457.616 
  416.204,463.553 423.175,468.181 430.146,471.79 437.118,474.616 444.089,476.839 451.06,478.599 458.031,480.002 465.003,481.127 471.974,482.037 478.945,482.779 
  485.916,483.388 492.888,483.893 499.859,484.314 506.83,484.669 513.802,484.969 520.773,485.226 527.744,485.448 534.715,485.64 541.687,485.808 548.658,485.955 
  555.629,486.086 562.6,486.202 569.572,486.306 576.543,486.4 583.514,486.484 590.485,486.561 597.457,486.631 604.428,486.696 611.399,486.755 618.371,486.81 
  625.342,486.86 632.313,486.908 639.284,486.952 646.256,486.993 653.227,487.031 660.198,487.068 667.169,487.102 674.141,487.134 681.112,487.165 688.083,487.194 
  695.054,487.221 702.026,487.247 708.997,487.272 715.968,487.296 722.94,487.319 729.911,487.34 736.882,487.361 743.853,487.381 750.825,487.4 757.796,487.419 
  764.767,487.436 771.738,487.453 778.71,487.47 785.681,487.486 792.652,487.501 799.623,487.515 806.595,487.53 813.566,487.543 820.537,487.557 827.509,487.57 
  834.48,487.582 841.451,487.594 848.422,487.606 855.394,487.617 862.365,487.628 869.336,487.639 876.307,487.65 883.279,487.66 890.25,487.669 897.221,487.679 
  904.193,487.688 911.164,487.697 918.135,487.706 925.106,487.715 932.078,487.723 939.049,487.731 946.02,487.739 952.991,487.747 959.963,487.754 966.934,487.762 
  973.905,487.769 980.876,487.776 987.848,487.782 994.819,487.789 1001.79,487.795 1008.76,487.802 1015.73,487.808 1022.7,487.814 1029.68,487.82 1036.65,487.825 
  1043.62,487.831 1050.59,487.836 1057.56,487.842 1064.53,487.847 1071.5,487.852 1078.47,487.857 1085.45,487.862 1092.42,487.866 1099.39,487.871 1106.36,487.876 
  1113.33,487.88 1120.3,487.884 1127.27,487.888 1134.24,487.893 1141.22,487.896 1148.19,487.9 1155.16,487.904 1162.13,487.908 1169.1,487.912 1176.07,487.915 
  1183.04,487.919 1190.01,487.922 1196.99,487.925 1203.96,487.928 1210.93,487.932 1217.9,487.935 1224.87,487.938 1231.84,487.941 1238.81,487.943 1245.78,487.946 
  1252.76,487.949 
  "/>
<polyline clip-path="url(#clip982)" style="stroke:#895f55; stroke-linecap:butt; stroke-linejoin:round; stroke-width:16; stroke-opacity:1; fill:none" points="
  214.037,487.416 221.008,487.094 227.98,486.556 234.951,485.742 241.922,484.515 248.893,482.668 255.865,479.897 262.836,475.763 269.807,469.648 276.778,460.712 
  283.75,447.891 290.721,429.968 297.692,405.802 304.663,374.762 311.635,337.284 318.606,295.272 325.577,251.923 332.549,210.857 339.52,174.981 346.491,145.791 
  353.462,123.382 360.434,106.93 367.405,95.2369 374.376,87.1097 381.347,81.5394 388.319,77.7503 395.29,75.1806 402.261,73.4408 409.233,72.2699 416.204,71.4973 
  423.175,71.0131 430.146,70.7464 437.118,70.6506 444.089,70.6939 451.06,70.8533 458.031,71.1103 465.003,71.4488 471.974,71.8538 478.945,72.3102 485.916,72.8033 
  492.888,73.3188 499.859,73.8435 506.83,74.3659 513.802,74.8763 520.773,75.3672 527.744,75.8335 534.715,76.2718 541.687,76.6804 548.658,77.0589 555.629,77.4079 
  562.6,77.7287 569.572,78.023 576.543,78.2926 583.514,78.5396 590.485,78.766 597.457,78.9736 604.428,79.1643 611.399,79.3398 618.371,79.5015 625.342,79.651 
  632.313,79.7893 639.284,79.9177 646.256,80.037 653.227,80.1483 660.198,80.2523 667.169,80.3497 674.141,80.4412 681.112,80.5272 688.083,80.6084 695.054,80.6851 
  702.026,80.7577 708.997,80.8266 715.968,80.8922 722.94,80.9546 729.911,81.0143 736.882,81.0713 743.853,81.1259 750.825,81.1784 757.796,81.2288 764.767,81.2774 
  771.738,81.3242 778.71,81.3695 785.681,81.4132 792.652,81.4556 799.623,81.4968 806.595,81.5368 813.566,81.5757 820.537,81.6135 827.509,81.6505 834.48,81.6865 
  841.451,81.7218 848.422,81.7563 855.394,81.7901 862.365,81.8232 869.336,81.8558 876.307,81.8877 883.279,81.9192 890.25,81.9501 897.221,81.9806 904.193,82.0107 
  911.164,82.0403 918.135,82.0697 925.106,82.0986 932.078,82.1273 939.049,82.1556 946.02,82.1837 952.991,82.2116 959.963,82.2392 966.934,82.2666 973.905,82.2938 
  980.876,82.3209 987.848,82.3478 994.819,82.3746 1001.79,82.4012 1008.76,82.4277 1015.73,82.4541 1022.7,82.4804 1029.68,82.5067 1036.65,82.5329 1043.62,82.559 
  1050.59,82.5851 1057.56,82.6112 1064.53,82.6373 1071.5,82.6633 1078.47,82.6893 1085.45,82.7154 1092.42,82.7415 1099.39,82.7675 1106.36,82.7937 1113.33,82.8198 
  1120.3,82.846 1127.27,82.8723 1134.24,82.8986 1141.22,82.925 1148.19,82.9515 1155.16,82.978 1162.13,83.0047 1169.1,83.0314 1176.07,83.0582 1183.04,83.0852 
  1190.01,83.1123 1196.99,83.1394 1203.96,83.1667 1210.93,83.1942 1217.9,83.2217 1224.87,83.2494 1231.84,83.2773 1238.81,83.3053 1245.78,83.3334 1252.76,83.3618 
  
  "/>
<polyline clip-path="url(#clip982)" style="stroke:#2000d4; stroke-linecap:butt; stroke-linejoin:round; stroke-width:16; stroke-opacity:1; fill:none" stroke-dasharray="64, 40" points="
  207.066,487.84 214.037,487.84 221.008,487.84 227.98,487.84 234.951,487.84 241.922,487.84 248.893,487.84 255.865,487.839 262.836,487.839 269.807,487.839 
  276.778,487.839 283.75,487.839 290.721,487.839 297.692,487.839 304.663,487.839 311.635,487.839 318.606,487.838 325.577,487.838 332.549,487.838 339.52,487.838 
  346.491,487.838 353.462,487.838 360.434,487.838 367.405,487.838 374.376,487.838 381.347,487.838 388.319,487.837 395.29,487.837 402.261,487.837 409.233,487.837 
  416.204,487.837 423.175,487.837 430.146,487.837 437.118,487.837 444.089,487.836 451.06,487.836 458.031,487.836 465.003,487.836 471.974,487.835 478.945,487.835 
  485.916,487.835 492.888,487.835 499.859,487.834 506.83,487.834 513.802,487.834 520.773,487.833 527.744,487.833 534.715,487.833 541.687,487.832 548.658,487.832 
  555.629,487.832 562.6,487.831 569.572,487.831 576.543,487.831 583.514,487.83 590.485,487.83 597.457,487.83 604.428,487.829 611.399,487.829 618.371,487.828 
  625.342,487.828 632.313,487.827 639.284,487.827 646.256,487.827 653.227,487.826 660.198,487.826 667.169,487.825 674.141,487.825 681.112,487.824 688.083,487.824 
  695.054,487.823 702.026,487.823 708.997,487.822 715.968,487.822 722.94,487.821 729.911,487.82 736.882,487.82 743.853,487.819 750.825,487.819 757.796,487.818 
  764.767,487.818 771.738,487.817 778.71,487.816 785.681,487.816 792.652,487.815 799.623,487.814 806.595,487.814 813.566,487.813 820.537,487.812 827.509,487.812 
  834.48,487.811 841.451,487.81 848.422,487.81 855.394,487.809 862.365,487.808 869.336,487.807 876.307,487.807 883.279,487.806 890.25,487.805 897.221,487.804 
  904.193,487.804 911.164,487.803 918.135,487.802 925.106,487.801 932.078,487.8 939.049,487.8 946.02,487.799 952.991,487.798 959.963,487.797 966.934,487.796 
  973.905,487.795 980.876,487.794 987.848,487.793 994.819,487.793 1001.79,487.792 1008.76,487.791 1015.73,487.79 1022.7,487.789 1029.68,487.788 1036.65,487.787 
  1043.62,487.786 1050.59,487.785 1057.56,487.784 1064.53,487.783 1071.5,487.782 1078.47,487.781 1085.45,487.779 1092.42,487.778 1099.39,487.777 1106.36,487.776 
  1113.33,487.775 1120.3,487.774 1127.27,487.773 1134.24,487.772 1141.22,487.77 1148.19,487.769 1155.16,487.768 1162.13,487.767 1169.1,487.766 1176.07,487.764 
  1183.04,487.763 1190.01,487.762 1196.99,487.76 1203.96,487.759 1210.93,487.758 1217.9,487.757 1224.87,487.755 1231.84,487.754 1238.81,487.752 1245.78,487.751 
  1252.76,487.75 
  "/>
<polyline clip-path="url(#clip982)" style="stroke:#ff221c; stroke-linecap:butt; stroke-linejoin:round; stroke-width:16; stroke-opacity:1; fill:none" points="
  207.066,402.33 214.037,402.32 221.008,402.311 227.98,402.309 234.951,402.313 241.922,402.323 248.893,402.338 255.865,402.362 262.836,402.398 269.807,402.452 
  276.778,402.531 283.75,402.645 290.721,402.805 297.692,403.023 304.663,403.305 311.635,403.645 318.606,404.013 325.577,404.357 332.549,404.597 339.52,404.641 
  346.491,404.387 353.462,403.727 360.434,402.539 367.405,400.681 374.376,397.997 381.347,394.332 388.319,389.561 395.29,383.61 402.261,376.464 409.233,368.157 
  416.204,358.755 423.175,348.352 430.146,337.06 437.118,325.011 444.089,312.357 451.06,299.268 458.031,285.931 465.003,272.541 471.974,259.295 478.945,246.376 
  485.916,233.946 492.888,222.135 499.859,211.037 506.83,200.71 513.802,191.179 520.773,182.441 527.744,174.47 534.715,167.226 541.687,160.659 548.658,154.714 
  555.629,149.336 562.6,144.469 569.572,140.062 576.543,136.065 583.514,132.435 590.485,129.132 597.457,126.121 604.428,123.368 611.399,120.847 618.371,118.533 
  625.342,116.403 632.313,114.439 639.284,112.622 646.256,110.939 653.227,109.377 660.198,107.922 667.169,106.566 674.141,105.298 681.112,104.111 688.083,102.998 
  695.054,101.952 702.026,100.968 708.997,100.039 715.968,99.1622 722.94,98.3327 729.911,97.547 736.882,96.8016 743.853,96.0936 750.825,95.42 757.796,94.7785 
  764.767,94.1668 771.738,93.5827 778.71,93.0245 785.681,92.4903 792.652,91.9787 799.623,91.488 806.595,91.0171 813.566,90.5647 820.537,90.1297 827.509,89.711 
  834.48,89.3076 841.451,88.9187 848.422,88.5435 855.394,88.1812 862.365,87.8311 869.336,87.4925 876.307,87.1648 883.279,86.8475 890.25,86.54 897.221,86.2418 
  904.193,85.9525 911.164,85.6716 918.135,85.3987 925.106,85.1335 932.078,84.8755 939.049,84.6245 946.02,84.3801 952.991,84.1421 959.963,83.9101 966.934,83.6839 
  973.905,83.4633 980.876,83.2479 987.848,83.0377 994.819,82.8323 1001.79,82.6316 1008.76,82.4355 1015.73,82.2436 1022.7,82.0559 1029.68,81.8722 1036.65,81.6923 
  1043.62,81.5162 1050.59,81.3436 1057.56,81.1744 1064.53,81.0086 1071.5,80.8459 1078.47,80.6864 1085.45,80.5298 1092.42,80.3761 1099.39,80.2252 1106.36,80.0769 
  1113.33,79.9313 1120.3,79.7882 1127.27,79.6475 1134.24,79.5092 1141.22,79.3732 1148.19,79.2394 1155.16,79.1077 1162.13,78.9781 1169.1,78.8506 1176.07,78.725 
  1183.04,78.6013 1190.01,78.4795 1196.99,78.3595 1203.96,78.2412 1210.93,78.1247 1217.9,78.0098 1224.87,77.8965 1231.84,77.7848 1238.81,77.6746 1245.78,77.566 
  1252.76,77.4587 
  "/>
<polyline clip-path="url(#clip982)" style="stroke:#000000; stroke-linecap:butt; stroke-linejoin:round; stroke-width:16; stroke-opacity:1; fill:none" stroke-dasharray="8, 16" points="
  207.066,60.077 214.037,60.5005 221.008,60.8932 227.98,61.4966 234.951,62.4101 241.922,63.7887 248.893,65.864 255.865,68.9769 262.836,73.6202 269.807,80.4887 
  276.778,90.5226 283.75,104.916 290.721,125.029 297.692,152.131 304.663,186.908 311.635,228.827 318.606,275.682 325.577,323.781 332.549,368.918 339.52,407.646 
  346.491,438.074 353.462,459.902 360.434,473.999 367.405,481.964 374.376,485.755 381.347,487.227 388.319,487.689 395.29,487.808 402.261,487.834 409.233,487.839 
  416.204,487.839 423.175,487.84 430.146,487.84 437.118,487.84 444.089,487.84 451.06,487.84 458.031,487.84 465.003,487.84 471.974,487.84 478.945,487.84 
  485.916,487.84 492.888,487.84 499.859,487.84 506.83,487.84 513.802,487.84 520.773,487.84 527.744,487.84 534.715,487.84 541.687,487.84 548.658,487.84 
  555.629,487.84 562.6,487.84 569.572,487.84 576.543,487.84 583.514,487.84 590.485,487.84 597.457,487.84 604.428,487.84 611.399,487.84 618.371,487.84 
  625.342,487.84 632.313,487.84 639.284,487.84 646.256,487.84 653.227,487.84 660.198,487.84 667.169,487.84 674.141,487.84 681.112,487.84 688.083,487.84 
  695.054,487.84 702.026,487.84 708.997,487.84 715.968,487.84 722.94,487.84 729.911,487.84 736.882,487.84 743.853,487.84 750.825,487.84 757.796,487.84 
  764.767,487.84 771.738,487.84 778.71,487.84 785.681,487.84 792.652,487.84 799.623,487.84 806.595,487.84 813.566,487.84 820.537,487.84 827.509,487.84 
  834.48,487.84 841.451,487.84 848.422,487.84 855.394,487.84 862.365,487.84 869.336,487.84 876.307,487.84 883.279,487.84 890.25,487.84 897.221,487.84 
  904.193,487.84 911.164,487.84 918.135,487.84 925.106,487.84 932.078,487.84 939.049,487.84 946.02,487.84 952.991,487.84 959.963,487.84 966.934,487.84 
  973.905,487.84 980.876,487.84 987.848,487.84 994.819,487.84 1001.79,487.84 1008.76,487.84 1015.73,487.84 1022.7,487.84 1029.68,487.84 1036.65,487.84 
  1043.62,487.84 1050.59,487.84 1057.56,487.84 1064.53,487.84 1071.5,487.84 1078.47,487.84 1085.45,487.84 1092.42,487.84 1099.39,487.84 1106.36,487.84 
  1113.33,487.84 1120.3,487.84 1127.27,487.84 1134.24,487.84 1141.22,487.84 1148.19,487.84 1155.16,487.84 1162.13,487.84 1169.1,487.84 1176.07,487.84 
  1183.04,487.84 1190.01,487.84 1196.99,487.84 1203.96,487.84 1210.93,487.84 1217.9,487.84 1224.87,487.84 1231.84,487.84 1238.81,487.84 1245.78,487.84 
  1252.76,487.84 
  "/>
</svg>
