<?xml version="1.0" encoding="utf-8"?>
<svg xmlns="http://www.w3.org/2000/svg" xmlns:xlink="http://www.w3.org/1999/xlink" width="325" height="150" viewBox="0 0 1300 600">
<defs>
  <clipPath id="clip200">
    <rect x="0" y="0" width="1300" height="600"/>
  </clipPath>
</defs>
<path clip-path="url(#clip200)" d="
M0 600 L1300 600 L1300 0 L0 0  Z
  " fill="#ffffff" fill-rule="evenodd" fill-opacity="1"/>
<defs>
  <clipPath id="clip201">
    <rect x="260" y="0" width="911" height="600"/>
  </clipPath>
</defs>
<path clip-path="url(#clip200)" d="
M200.094 501.1 L1252.76 501.1 L1252.76 47.2441 L200.094 47.2441  Z
  " fill="#ffffff" fill-rule="evenodd" fill-opacity="1"/>
<defs>
  <clipPath id="clip202">
    <rect x="200" y="47" width="1054" height="455"/>
  </clipPath>
</defs>
<polyline clip-path="url(#clip200)" style="stroke:#000000; stroke-linecap:butt; stroke-linejoin:round; stroke-width:4; stroke-opacity:1; fill:none" points="
  200.094,501.1 1252.76,501.1 
  "/>
<polyline clip-path="url(#clip200)" style="stroke:#000000; stroke-linecap:butt; stroke-linejoin:round; stroke-width:4; stroke-opacity:1; fill:none" points="
  200.094,501.1 200.094,482.203 
  "/>
<polyline clip-path="url(#clip200)" style="stroke:#000000; stroke-linecap:butt; stroke-linejoin:round; stroke-width:4; stroke-opacity:1; fill:none" points="
  548.658,501.1 548.658,482.203 
  "/>
<polyline clip-path="url(#clip200)" style="stroke:#000000; stroke-linecap:butt; stroke-linejoin:round; stroke-width:4; stroke-opacity:1; fill:none" points="
  897.221,501.1 897.221,482.203 
  "/>
<polyline clip-path="url(#clip200)" style="stroke:#000000; stroke-linecap:butt; stroke-linejoin:round; stroke-width:4; stroke-opacity:1; fill:none" points="
  1245.78,501.1 1245.78,482.203 
  "/>
<path clip-path="url(#clip200)" d="M200.094 526.149 Q195.581 526.149 193.295 530.605 Q191.038 535.032 191.038 543.944 Q191.038 552.827 193.295 557.283 Q195.581 561.71 200.094 561.71 Q204.637 561.71 206.894 557.283 Q209.18 552.827 209.18 543.944 Q209.18 535.032 206.894 530.605 Q204.637 526.149 200.094 526.149 M200.094 521.519 Q207.357 521.519 211.177 527.277 Q215.025 533.006 215.025 543.944 Q215.025 554.852 211.177 560.61 Q207.357 566.339 200.094 566.339 Q192.832 566.339 188.983 560.61 Q185.164 554.852 185.164 543.944 Q185.164 533.006 188.983 527.277 Q192.832 521.519 200.094 521.519 Z" fill="#000000" fill-rule="evenodd" fill-opacity="1" /><path clip-path="url(#clip200)" d="M517.032 522.3 L539.977 522.3 L539.977 527.219 L522.385 527.219 L522.385 537.809 Q523.658 537.375 524.931 537.173 Q526.204 536.941 527.477 536.941 Q534.711 536.941 538.936 540.905 Q543.16 544.87 543.16 551.64 Q543.16 558.614 538.82 562.491 Q534.48 566.339 526.58 566.339 Q523.861 566.339 521.025 565.876 Q518.218 565.413 515.209 564.487 L515.209 558.614 Q517.813 560.031 520.591 560.726 Q523.369 561.42 526.465 561.42 Q531.47 561.42 534.393 558.787 Q537.315 556.154 537.315 551.64 Q537.315 547.126 534.393 544.493 Q531.47 541.86 526.465 541.86 Q524.121 541.86 521.777 542.381 Q519.462 542.902 517.032 544.001 L517.032 522.3 Z" fill="#000000" fill-rule="evenodd" fill-opacity="1" /><path clip-path="url(#clip200)" d="M567.176 526.149 Q562.662 526.149 560.377 530.605 Q558.12 535.032 558.12 543.944 Q558.12 552.827 560.377 557.283 Q562.662 561.71 567.176 561.71 Q571.719 561.71 573.976 557.283 Q576.262 552.827 576.262 543.944 Q576.262 535.032 573.976 530.605 Q571.719 526.149 567.176 526.149 M567.176 521.519 Q574.439 521.519 578.258 527.277 Q582.107 533.006 582.107 543.944 Q582.107 554.852 578.258 560.61 Q574.439 566.339 567.176 566.339 Q559.914 566.339 556.065 560.61 Q552.246 554.852 552.246 543.944 Q552.246 533.006 556.065 527.277 Q559.914 521.519 567.176 521.519 Z" fill="#000000" fill-rule="evenodd" fill-opacity="1" /><path clip-path="url(#clip200)" d="M846.73 560.581 L856.278 560.581 L856.278 527.624 L845.891 529.708 L845.891 524.384 L856.22 522.3 L862.065 522.3 L862.065 560.581 L871.614 560.581 L871.614 565.5 L846.73 565.5 L846.73 560.581 Z" fill="#000000" fill-rule="evenodd" fill-opacity="1" /><path clip-path="url(#clip200)" d="M895.919 526.149 Q891.405 526.149 889.119 530.605 Q886.863 535.032 886.863 543.944 Q886.863 552.827 889.119 557.283 Q891.405 561.71 895.919 561.71 Q900.462 561.71 902.719 557.283 Q905.005 552.827 905.005 543.944 Q905.005 535.032 902.719 530.605 Q900.462 526.149 895.919 526.149 M895.919 521.519 Q903.182 521.519 907.001 527.277 Q910.85 533.006 910.85 543.944 Q910.85 554.852 907.001 560.61 Q903.182 566.339 895.919 566.339 Q888.656 566.339 884.808 560.61 Q880.989 554.852 880.989 543.944 Q880.989 533.006 884.808 527.277 Q888.656 521.519 895.919 521.519 Z" fill="#000000" fill-rule="evenodd" fill-opacity="1" /><path clip-path="url(#clip200)" d="M933.622 526.149 Q929.108 526.149 926.822 530.605 Q924.565 535.032 924.565 543.944 Q924.565 552.827 926.822 557.283 Q929.108 561.71 933.622 561.71 Q938.164 561.71 940.421 557.283 Q942.707 552.827 942.707 543.944 Q942.707 535.032 940.421 530.605 Q938.164 526.149 933.622 526.149 M933.622 521.519 Q940.884 521.519 944.704 527.277 Q948.552 533.006 948.552 543.944 Q948.552 554.852 944.704 560.61 Q940.884 566.339 933.622 566.339 Q926.359 566.339 922.51 560.61 Q918.691 554.852 918.691 543.944 Q918.691 533.006 922.51 527.277 Q926.359 521.519 933.622 521.519 Z" fill="#000000" fill-rule="evenodd" fill-opacity="1" /><path clip-path="url(#clip200)" d="M1195.29 560.581 L1204.84 560.581 L1204.84 527.624 L1194.45 529.708 L1194.45 524.384 L1204.78 522.3 L1210.63 522.3 L1210.63 560.581 L1220.18 560.581 L1220.18 565.5 L1195.29 565.5 L1195.29 560.581 Z" fill="#000000" fill-rule="evenodd" fill-opacity="1" /><path clip-path="url(#clip200)" d="M1232.04 522.3 L1254.99 522.3 L1254.99 527.219 L1237.39 527.219 L1237.39 537.809 Q1238.67 537.375 1239.94 537.173 Q1241.21 536.941 1242.49 536.941 Q1249.72 536.941 1253.94 540.905 Q1258.17 544.87 1258.17 551.64 Q1258.17 558.614 1253.83 562.491 Q1249.49 566.339 1241.59 566.339 Q1238.87 566.339 1236.03 565.876 Q1233.23 565.413 1230.22 564.487 L1230.22 558.614 Q1232.82 560.031 1235.6 560.726 Q1238.38 561.42 1241.47 561.42 Q1246.48 561.42 1249.4 558.787 Q1252.32 556.154 1252.32 551.64 Q1252.32 547.126 1249.4 544.493 Q1246.48 541.86 1241.47 541.86 Q1239.13 541.86 1236.79 542.381 Q1234.47 542.902 1232.04 544.001 L1232.04 522.3 Z" fill="#000000" fill-rule="evenodd" fill-opacity="1" /><path clip-path="url(#clip200)" d="M1282.18 526.149 Q1277.67 526.149 1275.39 530.605 Q1273.13 535.032 1273.13 543.944 Q1273.13 552.827 1275.39 557.283 Q1277.67 561.71 1282.18 561.71 Q1286.73 561.71 1288.98 557.283 Q1291.27 552.827 1291.27 543.944 Q1291.27 535.032 1288.98 530.605 Q1286.73 526.149 1282.18 526.149 M1282.18 521.519 Q1289.45 521.519 1293.27 527.277 Q1297.12 533.006 1297.12 543.944 Q1297.12 554.852 1293.27 560.61 Q1289.45 566.339 1282.18 566.339 Q1274.92 566.339 1271.07 560.61 Q1267.25 554.852 1267.25 543.944 Q1267.25 533.006 1271.07 527.277 Q1274.92 521.519 1282.18 521.519 Z" fill="#000000" fill-rule="evenodd" fill-opacity="1" /><polyline clip-path="url(#clip200)" style="stroke:#000000; stroke-linecap:butt; stroke-linejoin:round; stroke-width:4; stroke-opacity:1; fill:none" points="
  200.094,501.1 200.094,47.2441 
  "/>
<polyline clip-path="url(#clip200)" style="stroke:#000000; stroke-linecap:butt; stroke-linejoin:round; stroke-width:4; stroke-opacity:1; fill:none" points="
  200.094,487.84 218.992,487.84 
  "/>
<polyline clip-path="url(#clip200)" style="stroke:#000000; stroke-linecap:butt; stroke-linejoin:round; stroke-width:4; stroke-opacity:1; fill:none" points="
  200.094,380.899 218.992,380.899 
  "/>
<polyline clip-path="url(#clip200)" style="stroke:#000000; stroke-linecap:butt; stroke-linejoin:round; stroke-width:4; stroke-opacity:1; fill:none" points="
  200.094,273.958 218.992,273.958 
  "/>
<polyline clip-path="url(#clip200)" style="stroke:#000000; stroke-linecap:butt; stroke-linejoin:round; stroke-width:4; stroke-opacity:1; fill:none" points="
  200.094,167.018 218.992,167.018 
  "/>
<polyline clip-path="url(#clip200)" style="stroke:#000000; stroke-linecap:butt; stroke-linejoin:round; stroke-width:4; stroke-opacity:1; fill:none" points="
  200.094,60.077 218.992,60.077 
  "/>
<path clip-path="url(#clip200)" d="M71.4226 470.088 Q66.9087 470.088 64.6229 474.544 Q62.3659 478.971 62.3659 487.883 Q62.3659 496.766 64.6229 501.222 Q66.9087 505.649 71.4226 505.649 Q75.9654 505.649 78.2223 501.222 Q80.5082 496.766 80.5082 487.883 Q80.5082 478.971 78.2223 474.544 Q75.9654 470.088 71.4226 470.088 M71.4226 465.458 Q78.6853 465.458 82.5047 471.216 Q86.3531 476.946 86.3531 487.883 Q86.3531 498.791 82.5047 504.55 Q78.6853 510.279 71.4226 510.279 Q64.1599 510.279 60.3115 504.55 Q56.4921 498.791 56.4921 487.883 Q56.4921 476.946 60.3115 471.216 Q64.1599 465.458 71.4226 465.458 Z" fill="#000000" fill-rule="evenodd" fill-opacity="1" /><path clip-path="url(#clip200)" d="M96.625 502.09 L102.73 502.09 L102.73 509.44 L96.625 509.44 L96.625 502.09 Z" fill="#000000" fill-rule="evenodd" fill-opacity="1" /><path clip-path="url(#clip200)" d="M127.962 470.088 Q123.448 470.088 121.162 474.544 Q118.905 478.971 118.905 487.883 Q118.905 496.766 121.162 501.222 Q123.448 505.649 127.962 505.649 Q132.504 505.649 134.761 501.222 Q137.047 496.766 137.047 487.883 Q137.047 478.971 134.761 474.544 Q132.504 470.088 127.962 470.088 M127.962 465.458 Q135.224 465.458 139.044 471.216 Q142.892 476.946 142.892 487.883 Q142.892 498.791 139.044 504.55 Q135.224 510.279 127.962 510.279 Q120.699 510.279 116.851 504.55 Q113.031 498.791 113.031 487.883 Q113.031 476.946 116.851 471.216 Q120.699 465.458 127.962 465.458 Z" fill="#000000" fill-rule="evenodd" fill-opacity="1" /><path clip-path="url(#clip200)" d="M165.664 470.088 Q161.15 470.088 158.864 474.544 Q156.607 478.971 156.607 487.883 Q156.607 496.766 158.864 501.222 Q161.15 505.649 165.664 505.649 Q170.207 505.649 172.464 501.222 Q174.75 496.766 174.75 487.883 Q174.75 478.971 172.464 474.544 Q170.207 470.088 165.664 470.088 M165.664 465.458 Q172.927 465.458 176.746 471.216 Q180.594 476.946 180.594 487.883 Q180.594 498.791 176.746 504.55 Q172.927 510.279 165.664 510.279 Q158.401 510.279 154.553 504.55 Q150.734 498.791 150.734 487.883 Q150.734 476.946 154.553 471.216 Q158.401 465.458 165.664 465.458 Z" fill="#000000" fill-rule="evenodd" fill-opacity="1" /><path clip-path="url(#clip200)" d="M72.6668 363.147 Q68.1529 363.147 65.8671 367.603 Q63.6101 372.03 63.6101 380.942 Q63.6101 389.825 65.8671 394.281 Q68.1529 398.708 72.6668 398.708 Q77.2096 398.708 79.4665 394.281 Q81.7524 389.825 81.7524 380.942 Q81.7524 372.03 79.4665 367.603 Q77.2096 363.147 72.6668 363.147 M72.6668 358.518 Q79.9295 358.518 83.7489 364.276 Q87.5973 370.005 87.5973 380.942 Q87.5973 391.851 83.7489 397.609 Q79.9295 403.338 72.6668 403.338 Q65.4041 403.338 61.5558 397.609 Q57.7363 391.851 57.7363 380.942 Q57.7363 370.005 61.5558 364.276 Q65.4041 358.518 72.6668 358.518 Z" fill="#000000" fill-rule="evenodd" fill-opacity="1" /><path clip-path="url(#clip200)" d="M97.8692 395.149 L103.975 395.149 L103.975 402.499 L97.8692 402.499 L97.8692 395.149 Z" fill="#000000" fill-rule="evenodd" fill-opacity="1" /><path clip-path="url(#clip200)" d="M121.741 397.58 L142.14 397.58 L142.14 402.499 L114.709 402.499 L114.709 397.58 Q118.037 394.137 123.766 388.35 Q129.524 382.534 131 380.855 Q133.807 377.702 134.906 375.531 Q136.035 373.332 136.035 371.22 Q136.035 367.777 133.604 365.607 Q131.202 363.437 127.325 363.437 Q124.576 363.437 121.509 364.391 Q118.471 365.346 114.999 367.285 L114.999 361.382 Q118.529 359.964 121.596 359.241 Q124.663 358.518 127.209 358.518 Q133.922 358.518 137.915 361.874 Q141.908 365.231 141.908 370.844 Q141.908 373.506 140.896 375.908 Q139.912 378.28 137.279 381.521 Q136.555 382.36 132.678 386.382 Q128.801 390.375 121.741 397.58 Z" fill="#000000" fill-rule="evenodd" fill-opacity="1" /><path clip-path="url(#clip200)" d="M154.466 359.299 L177.412 359.299 L177.412 364.218 L159.819 364.218 L159.819 374.808 Q161.092 374.374 162.365 374.172 Q163.639 373.94 164.912 373.94 Q172.145 373.94 176.37 377.904 Q180.594 381.868 180.594 388.639 Q180.594 395.612 176.254 399.49 Q171.914 403.338 164.015 403.338 Q161.295 403.338 158.459 402.875 Q155.652 402.412 152.643 401.486 L152.643 395.612 Q155.247 397.03 158.025 397.725 Q160.803 398.419 163.899 398.419 Q168.905 398.419 171.827 395.786 Q174.75 393.153 174.75 388.639 Q174.75 384.125 171.827 381.492 Q168.905 378.859 163.899 378.859 Q161.555 378.859 159.211 379.38 Q156.897 379.901 154.466 381 L154.466 359.299 Z" fill="#000000" fill-rule="evenodd" fill-opacity="1" /><path clip-path="url(#clip200)" d="M71.4226 256.207 Q66.9087 256.207 64.6229 260.663 Q62.3659 265.09 62.3659 274.002 Q62.3659 282.885 64.6229 287.341 Q66.9087 291.768 71.4226 291.768 Q75.9654 291.768 78.2223 287.341 Q80.5082 282.885 80.5082 274.002 Q80.5082 265.09 78.2223 260.663 Q75.9654 256.207 71.4226 256.207 M71.4226 251.577 Q78.6853 251.577 82.5047 257.335 Q86.3531 263.064 86.3531 274.002 Q86.3531 284.91 82.5047 290.668 Q78.6853 296.397 71.4226 296.397 Q64.1599 296.397 60.3115 290.668 Q56.4921 284.91 56.4921 274.002 Q56.4921 263.064 60.3115 257.335 Q64.1599 251.577 71.4226 251.577 Z" fill="#000000" fill-rule="evenodd" fill-opacity="1" /><path clip-path="url(#clip200)" d="M96.625 288.209 L102.73 288.209 L102.73 295.558 L96.625 295.558 L96.625 288.209 Z" fill="#000000" fill-rule="evenodd" fill-opacity="1" /><path clip-path="url(#clip200)" d="M115.52 252.358 L138.465 252.358 L138.465 257.277 L120.873 257.277 L120.873 267.867 Q122.146 267.433 123.419 267.231 Q124.692 266.999 125.965 266.999 Q133.199 266.999 137.423 270.963 Q141.648 274.928 141.648 281.698 Q141.648 288.672 137.308 292.549 Q132.967 296.397 125.068 296.397 Q122.348 296.397 119.513 295.934 Q116.706 295.471 113.697 294.546 L113.697 288.672 Q116.301 290.09 119.079 290.784 Q121.856 291.478 124.952 291.478 Q129.958 291.478 132.881 288.845 Q135.803 286.212 135.803 281.698 Q135.803 277.185 132.881 274.551 Q129.958 271.918 124.952 271.918 Q122.609 271.918 120.265 272.439 Q117.95 272.96 115.52 274.06 L115.52 252.358 Z" fill="#000000" fill-rule="evenodd" fill-opacity="1" /><path clip-path="url(#clip200)" d="M165.664 256.207 Q161.15 256.207 158.864 260.663 Q156.607 265.09 156.607 274.002 Q156.607 282.885 158.864 287.341 Q161.15 291.768 165.664 291.768 Q170.207 291.768 172.464 287.341 Q174.75 282.885 174.75 274.002 Q174.75 265.09 172.464 260.663 Q170.207 256.207 165.664 256.207 M165.664 251.577 Q172.927 251.577 176.746 257.335 Q180.594 263.064 180.594 274.002 Q180.594 284.91 176.746 290.668 Q172.927 296.397 165.664 296.397 Q158.401 296.397 154.553 290.668 Q150.734 284.91 150.734 274.002 Q150.734 263.064 154.553 257.335 Q158.401 251.577 165.664 251.577 Z" fill="#000000" fill-rule="evenodd" fill-opacity="1" /><path clip-path="url(#clip200)" d="M72.6668 149.266 Q68.1529 149.266 65.8671 153.722 Q63.6101 158.149 63.6101 167.061 Q63.6101 175.944 65.8671 180.4 Q68.1529 184.827 72.6668 184.827 Q77.2096 184.827 79.4665 180.4 Q81.7524 175.944 81.7524 167.061 Q81.7524 158.149 79.4665 153.722 Q77.2096 149.266 72.6668 149.266 M72.6668 144.636 Q79.9295 144.636 83.7489 150.394 Q87.5973 156.124 87.5973 167.061 Q87.5973 177.97 83.7489 183.728 Q79.9295 189.457 72.6668 189.457 Q65.4041 189.457 61.5558 183.728 Q57.7363 177.97 57.7363 167.061 Q57.7363 156.124 61.5558 150.394 Q65.4041 144.636 72.6668 144.636 Z" fill="#000000" fill-rule="evenodd" fill-opacity="1" /><path clip-path="url(#clip200)" d="M97.8692 181.268 L103.975 181.268 L103.975 188.618 L97.8692 188.618 L97.8692 181.268 Z" fill="#000000" fill-rule="evenodd" fill-opacity="1" /><path clip-path="url(#clip200)" d="M115.23 145.418 L143.008 145.418 L143.008 147.906 L127.325 188.618 L121.22 188.618 L135.977 150.337 L115.23 150.337 L115.23 145.418 Z" fill="#000000" fill-rule="evenodd" fill-opacity="1" /><path clip-path="url(#clip200)" d="M154.466 145.418 L177.412 145.418 L177.412 150.337 L159.819 150.337 L159.819 160.927 Q161.092 160.493 162.365 160.29 Q163.639 160.059 164.912 160.059 Q172.145 160.059 176.37 164.023 Q180.594 167.987 180.594 174.758 Q180.594 181.731 176.254 185.608 Q171.914 189.457 164.015 189.457 Q161.295 189.457 158.459 188.994 Q155.652 188.531 152.643 187.605 L152.643 181.731 Q155.247 183.149 158.025 183.843 Q160.803 184.538 163.899 184.538 Q168.905 184.538 171.827 181.905 Q174.75 179.272 174.75 174.758 Q174.75 170.244 171.827 167.611 Q168.905 164.978 163.899 164.978 Q161.555 164.978 159.211 165.499 Q156.897 166.019 154.466 167.119 L154.466 145.418 Z" fill="#000000" fill-rule="evenodd" fill-opacity="1" /><path clip-path="url(#clip200)" d="M59.9354 76.758 L69.484 76.758 L69.484 43.801 L59.0963 45.8843 L59.0963 40.5603 L69.4261 38.477 L75.271 38.477 L75.271 76.758 L84.8195 76.758 L84.8195 81.677 L59.9354 81.677 L59.9354 76.758 Z" fill="#000000" fill-rule="evenodd" fill-opacity="1" /><path clip-path="url(#clip200)" d="M96.625 74.3275 L102.73 74.3275 L102.73 81.677 L96.625 81.677 L96.625 74.3275 Z" fill="#000000" fill-rule="evenodd" fill-opacity="1" /><path clip-path="url(#clip200)" d="M127.962 42.3253 Q123.448 42.3253 121.162 46.7813 Q118.905 51.2084 118.905 60.1204 Q118.905 69.0034 121.162 73.4594 Q123.448 77.8865 127.962 77.8865 Q132.504 77.8865 134.761 73.4594 Q137.047 69.0034 137.047 60.1204 Q137.047 51.2084 134.761 46.7813 Q132.504 42.3253 127.962 42.3253 M127.962 37.6957 Q135.224 37.6957 139.044 43.4538 Q142.892 49.1829 142.892 60.1204 Q142.892 71.0289 139.044 76.787 Q135.224 82.5161 127.962 82.5161 Q120.699 82.5161 116.851 76.787 Q113.031 71.0289 113.031 60.1204 Q113.031 49.1829 116.851 43.4538 Q120.699 37.6957 127.962 37.6957 Z" fill="#000000" fill-rule="evenodd" fill-opacity="1" /><path clip-path="url(#clip200)" d="M165.664 42.3253 Q161.15 42.3253 158.864 46.7813 Q156.607 51.2084 156.607 60.1204 Q156.607 69.0034 158.864 73.4594 Q161.15 77.8865 165.664 77.8865 Q170.207 77.8865 172.464 73.4594 Q174.75 69.0034 174.75 60.1204 Q174.75 51.2084 172.464 46.7813 Q170.207 42.3253 165.664 42.3253 M165.664 37.6957 Q172.927 37.6957 176.746 43.4538 Q180.594 49.1829 180.594 60.1204 Q180.594 71.0289 176.746 76.787 Q172.927 82.5161 165.664 82.5161 Q158.401 82.5161 154.553 76.787 Q150.734 71.0289 150.734 60.1204 Q150.734 49.1829 154.553 43.4538 Q158.401 37.6957 165.664 37.6957 Z" fill="#000000" fill-rule="evenodd" fill-opacity="1" /><polyline clip-path="url(#clip202)" style="stroke:#2000d4; stroke-linecap:butt; stroke-linejoin:round; stroke-width:16; stroke-opacity:1; fill:none" stroke-dasharray="8, 16" points="
  207.066,487.84 214.037,487.84 221.008,487.84 227.98,487.84 234.951,487.84 241.922,487.84 248.893,487.84 255.865,487.84 262.836,487.84 269.807,487.84 
  276.778,487.84 283.75,487.839 290.721,487.839 297.692,487.839 304.663,487.839 311.635,487.839 318.606,487.839 325.577,487.839 332.549,487.839 339.52,487.839 
  346.491,487.839 353.462,487.839 360.434,487.839 367.405,487.839 374.376,487.839 381.347,487.839 388.319,487.839 395.29,487.839 402.261,487.839 409.233,487.839 
  416.204,487.839 423.175,487.839 430.146,487.839 437.118,487.839 444.089,487.839 451.06,487.839 458.031,487.839 465.003,487.839 471.974,487.839 478.945,487.839 
  485.916,487.839 492.888,487.839 499.859,487.839 506.83,487.839 513.802,487.839 520.773,487.839 527.744,487.839 534.715,487.839 541.687,487.839 548.658,487.839 
  555.629,487.839 562.6,487.839 569.572,487.839 576.543,487.839 583.514,487.839 590.485,487.839 597.457,487.839 604.428,487.839 611.399,487.839 618.371,487.839 
  625.342,487.839 632.313,487.839 639.284,487.839 646.256,487.839 653.227,487.839 660.198,487.839 667.169,487.839 674.141,487.839 681.112,487.839 688.083,487.839 
  695.054,487.839 702.026,487.839 708.997,487.839 715.968,487.839 722.94,487.839 729.911,487.839 736.882,487.839 743.853,487.839 750.825,487.839 757.796,487.839 
  764.767,487.839 771.738,487.839 778.71,487.839 785.681,487.839 792.652,487.839 799.623,487.839 806.595,487.839 813.566,487.839 820.537,487.839 827.509,487.839 
  834.48,487.839 841.451,487.839 848.422,487.839 855.394,487.839 862.365,487.839 869.336,487.839 876.307,487.839 883.279,487.839 890.25,487.839 897.221,487.839 
  904.193,487.839 911.164,487.839 918.135,487.839 925.106,487.839 932.078,487.839 939.049,487.839 946.02,487.839 952.991,487.839 959.963,487.839 966.934,487.839 
  973.905,487.839 980.876,487.839 987.848,487.839 994.819,487.839 1001.79,487.839 1008.76,487.839 1015.73,487.839 1022.7,487.839 1029.68,487.839 1036.65,487.839 
  1043.62,487.839 1050.59,487.839 1057.56,487.839 1064.53,487.839 1071.5,487.839 1078.47,487.839 1085.45,487.839 1092.42,487.839 1099.39,487.839 1106.36,487.839 
  1113.33,487.839 1120.3,487.839 1127.27,487.839 1134.24,487.839 1141.22,487.839 1148.19,487.839 1155.16,487.839 1162.13,487.839 1169.1,487.839 1176.07,487.839 
  1183.04,487.839 1190.01,487.839 1196.99,487.839 1203.96,487.839 1210.93,487.839 1217.9,487.839 1224.87,487.839 1231.84,487.839 1238.81,487.839 1245.78,487.839 
  1252.76,487.839 
  "/>
<polyline clip-path="url(#clip202)" style="stroke:#008900; stroke-linecap:butt; stroke-linejoin:round; stroke-width:16; stroke-opacity:1; fill:none" stroke-dasharray="64, 40" points="
  207.066,487.84 214.037,487.839 221.008,487.839 227.98,487.84 234.951,487.84 241.922,487.84 248.893,487.84 255.865,487.84 262.836,487.84 269.807,487.84 
  276.778,487.84 283.75,487.84 290.721,487.84 297.692,487.84 304.663,487.84 311.635,487.84 318.606,487.84 325.577,487.84 332.549,487.84 339.52,487.84 
  346.491,487.84 353.462,487.84 360.434,487.84 367.405,487.84 374.376,487.84 381.347,487.84 388.319,487.84 395.29,487.84 402.261,487.84 409.233,487.84 
  416.204,487.84 423.175,487.84 430.146,487.84 437.118,487.84 444.089,487.84 451.06,487.84 458.031,487.84 465.003,487.84 471.974,487.84 478.945,487.84 
  485.916,487.84 492.888,487.84 499.859,487.84 506.83,487.84 513.802,487.84 520.773,487.84 527.744,487.84 534.715,487.84 541.687,487.84 548.658,487.84 
  555.629,487.84 562.6,487.84 569.572,487.84 576.543,487.84 583.514,487.84 590.485,487.84 597.457,487.84 604.428,487.84 611.399,487.84 618.371,487.84 
  625.342,487.84 632.313,487.84 639.284,487.84 646.256,487.84 653.227,487.84 660.198,487.84 667.169,487.84 674.141,487.84 681.112,487.84 688.083,487.84 
  695.054,487.84 702.026,487.84 708.997,487.84 715.968,487.84 722.94,487.84 729.911,487.84 736.882,487.84 743.853,487.84 750.825,487.84 757.796,487.84 
  764.767,487.84 771.738,487.84 778.71,487.84 785.681,487.84 792.652,487.84 799.623,487.84 806.595,487.84 813.566,487.84 820.537,487.84 827.509,487.84 
  834.48,487.84 841.451,487.84 848.422,487.84 855.394,487.84 862.365,487.84 869.336,487.84 876.307,487.84 883.279,487.84 890.25,487.84 897.221,487.84 
  904.193,487.84 911.164,487.84 918.135,487.84 925.106,487.84 932.078,487.84 939.049,487.84 946.02,487.84 952.991,487.84 959.963,487.84 966.934,487.84 
  973.905,487.84 980.876,487.84 987.848,487.84 994.819,487.84 1001.79,487.84 1008.76,487.84 1015.73,487.84 1022.7,487.84 1029.68,487.84 1036.65,487.84 
  1043.62,487.84 1050.59,487.84 1057.56,487.84 1064.53,487.84 1071.5,487.84 1078.47,487.84 1085.45,487.84 1092.42,487.84 1099.39,487.84 1106.36,487.84 
  1113.33,487.84 1120.3,487.84 1127.27,487.84 1134.24,487.84 1141.22,487.84 1148.19,487.84 1155.16,487.84 1162.13,487.84 1169.1,487.84 1176.07,487.84 
  1183.04,487.84 1190.01,487.84 1196.99,487.84 1203.96,487.84 1210.93,487.84 1217.9,487.84 1224.87,487.84 1231.84,487.84 1238.81,487.84 1245.78,487.84 
  1252.76,487.84 
  "/>
<polyline clip-path="url(#clip202)" style="stroke:#008900; stroke-linecap:butt; stroke-linejoin:round; stroke-width:16; stroke-opacity:1; fill:none" stroke-dasharray="8, 16" points="
  207.066,487.84 214.037,487.839 221.008,487.839 227.98,487.839 234.951,487.839 241.922,487.839 248.893,487.839 255.865,487.839 262.836,487.84 269.807,487.84 
  276.778,487.84 283.75,487.84 290.721,487.84 297.692,487.84 304.663,487.84 311.635,487.84 318.606,487.84 325.577,487.84 332.549,487.84 339.52,487.84 
  346.491,487.84 353.462,487.84 360.434,487.84 367.405,487.84 374.376,487.84 381.347,487.84 388.319,487.84 395.29,487.84 402.261,487.84 409.233,487.84 
  416.204,487.84 423.175,487.84 430.146,487.84 437.118,487.84 444.089,487.84 451.06,487.84 458.031,487.84 465.003,487.84 471.974,487.84 478.945,487.84 
  485.916,487.84 492.888,487.84 499.859,487.84 506.83,487.84 513.802,487.84 520.773,487.84 527.744,487.84 534.715,487.84 541.687,487.84 548.658,487.84 
  555.629,487.84 562.6,487.84 569.572,487.84 576.543,487.84 583.514,487.84 590.485,487.84 597.457,487.84 604.428,487.84 611.399,487.84 618.371,487.84 
  625.342,487.84 632.313,487.84 639.284,487.84 646.256,487.84 653.227,487.84 660.198,487.84 667.169,487.84 674.141,487.84 681.112,487.84 688.083,487.84 
  695.054,487.84 702.026,487.84 708.997,487.84 715.968,487.84 722.94,487.84 729.911,487.84 736.882,487.84 743.853,487.84 750.825,487.84 757.796,487.84 
  764.767,487.84 771.738,487.84 778.71,487.84 785.681,487.84 792.652,487.84 799.623,487.84 806.595,487.84 813.566,487.84 820.537,487.84 827.509,487.84 
  834.48,487.84 841.451,487.84 848.422,487.84 855.394,487.84 862.365,487.84 869.336,487.84 876.307,487.84 883.279,487.84 890.25,487.84 897.221,487.84 
  904.193,487.84 911.164,487.84 918.135,487.84 925.106,487.84 932.078,487.84 939.049,487.84 946.02,487.84 952.991,487.84 959.963,487.84 966.934,487.84 
  973.905,487.84 980.876,487.84 987.848,487.84 994.819,487.84 1001.79,487.84 1008.76,487.84 1015.73,487.84 1022.7,487.84 1029.68,487.84 1036.65,487.84 
  1043.62,487.84 1050.59,487.84 1057.56,487.84 1064.53,487.84 1071.5,487.84 1078.47,487.84 1085.45,487.84 1092.42,487.84 1099.39,487.84 1106.36,487.84 
  1113.33,487.84 1120.3,487.84 1127.27,487.84 1134.24,487.84 1141.22,487.84 1148.19,487.84 1155.16,487.84 1162.13,487.84 1169.1,487.84 1176.07,487.84 
  1183.04,487.84 1190.01,487.84 1196.99,487.84 1203.96,487.84 1210.93,487.84 1217.9,487.84 1224.87,487.84 1231.84,487.84 1238.81,487.84 1245.78,487.84 
  1252.76,487.84 
  "/>
<polyline clip-path="url(#clip202)" style="stroke:#2000d4; stroke-linecap:butt; stroke-linejoin:round; stroke-width:16; stroke-opacity:1; fill:none" points="
  207.066,487.412 214.037,487.085 221.008,486.527 227.98,486.043 234.951,485.623 241.922,485.259 248.893,484.945 255.865,484.674 262.836,484.442 269.807,484.244 
  276.778,484.075 283.75,483.932 290.721,483.811 297.692,483.711 304.663,483.628 311.635,483.561 318.606,483.507 325.577,483.465 332.549,483.434 339.52,483.412 
  346.491,483.397 353.462,483.39 360.434,483.389 367.405,483.393 374.376,483.402 381.347,483.415 388.319,483.431 395.29,483.451 402.261,483.473 409.233,483.497 
  416.204,483.524 423.175,483.552 430.146,483.582 437.118,483.612 444.089,483.644 451.06,483.677 458.031,483.71 465.003,483.744 471.974,483.779 478.945,483.814 
  485.916,483.849 492.888,483.884 499.859,483.92 506.83,483.955 513.802,483.991 520.773,484.027 527.744,484.062 534.715,484.098 541.687,484.133 548.658,484.168 
  555.629,484.203 562.6,484.238 569.572,484.273 576.543,484.308 583.514,484.342 590.485,484.376 597.457,484.409 604.428,484.443 611.399,484.476 618.371,484.509 
  625.342,484.542 632.313,484.574 639.284,484.606 646.256,484.638 653.227,484.67 660.198,484.701 667.169,484.732 674.141,484.763 681.112,484.793 688.083,484.823 
  695.054,484.853 702.026,484.883 708.997,484.912 715.968,484.941 722.94,484.97 729.911,484.998 736.882,485.026 743.853,485.054 750.825,485.082 757.796,485.109 
  764.767,485.136 771.738,485.163 778.71,485.19 785.681,485.216 792.652,485.242 799.623,485.268 806.595,485.294 813.566,485.319 820.537,485.344 827.509,485.369 
  834.48,485.393 841.451,485.418 848.422,485.442 855.394,485.466 862.365,485.489 869.336,485.513 876.307,485.536 883.279,485.559 890.25,485.581 897.221,485.604 
  904.193,485.626 911.164,485.648 918.135,485.67 925.106,485.692 932.078,485.713 939.049,485.734 946.02,485.755 952.991,485.776 959.963,485.796 966.934,485.817 
  973.905,485.837 980.876,485.857 987.848,485.877 994.819,485.896 1001.79,485.915 1008.76,485.935 1015.73,485.954 1022.7,485.972 1029.68,485.991 1036.65,486.009 
  1043.62,486.028 1050.59,486.046 1057.56,486.064 1064.53,486.081 1071.5,486.099 1078.47,486.116 1085.45,486.133 1092.42,486.15 1099.39,486.167 1106.36,486.184 
  1113.33,486.2 1120.3,486.217 1127.27,486.233 1134.24,486.249 1141.22,486.265 1148.19,486.28 1155.16,486.296 1162.13,486.311 1169.1,486.326 1176.07,486.342 
  1183.04,486.357 1190.01,486.371 1196.99,486.386 1203.96,486.4 1210.93,486.415 1217.9,486.429 1224.87,486.443 1231.84,486.457 1238.81,486.471 1245.78,486.484 
  1252.76,486.498 
  "/>
<polyline clip-path="url(#clip202)" style="stroke:#008900; stroke-linecap:butt; stroke-linejoin:round; stroke-width:16; stroke-opacity:1; fill:none" points="
  207.066,487.626 214.037,487.482 221.008,487.523 227.98,487.56 234.951,487.591 241.922,487.619 248.893,487.644 255.865,487.666 262.836,487.685 269.807,487.702 
  276.778,487.717 283.75,487.73 290.721,487.741 297.692,487.752 304.663,487.761 311.635,487.769 318.606,487.776 325.577,487.782 332.549,487.787 339.52,487.792 
  346.491,487.797 353.462,487.8 360.434,487.804 367.405,487.807 374.376,487.809 381.347,487.812 388.319,487.814 395.29,487.816 402.261,487.817 409.233,487.819 
  416.204,487.82 423.175,487.821 430.146,487.822 437.118,487.823 444.089,487.824 451.06,487.825 458.031,487.825 465.003,487.826 471.974,487.827 478.945,487.827 
  485.916,487.827 492.888,487.828 499.859,487.828 506.83,487.829 513.802,487.829 520.773,487.829 527.744,487.829 534.715,487.83 541.687,487.83 548.658,487.83 
  555.629,487.83 562.6,487.83 569.572,487.83 576.543,487.831 583.514,487.831 590.485,487.831 597.457,487.831 604.428,487.831 611.399,487.831 618.371,487.831 
  625.342,487.832 632.313,487.832 639.284,487.832 646.256,487.832 653.227,487.832 660.198,487.832 667.169,487.832 674.141,487.832 681.112,487.832 688.083,487.832 
  695.054,487.832 702.026,487.832 708.997,487.833 715.968,487.833 722.94,487.833 729.911,487.833 736.882,487.833 743.853,487.833 750.825,487.833 757.796,487.833 
  764.767,487.833 771.738,487.833 778.71,487.833 785.681,487.833 792.652,487.833 799.623,487.833 806.595,487.834 813.566,487.834 820.537,487.834 827.509,487.834 
  834.48,487.834 841.451,487.834 848.422,487.834 855.394,487.834 862.365,487.834 869.336,487.834 876.307,487.834 883.279,487.834 890.25,487.834 897.221,487.834 
  904.193,487.834 911.164,487.834 918.135,487.834 925.106,487.834 932.078,487.835 939.049,487.835 946.02,487.835 952.991,487.835 959.963,487.835 966.934,487.835 
  973.905,487.835 980.876,487.835 987.848,487.835 994.819,487.835 1001.79,487.835 1008.76,487.835 1015.73,487.835 1022.7,487.835 1029.68,487.835 1036.65,487.835 
  1043.62,487.835 1050.59,487.835 1057.56,487.835 1064.53,487.835 1071.5,487.835 1078.47,487.835 1085.45,487.836 1092.42,487.836 1099.39,487.836 1106.36,487.836 
  1113.33,487.836 1120.3,487.836 1127.27,487.836 1134.24,487.836 1141.22,487.836 1148.19,487.836 1155.16,487.836 1162.13,487.836 1169.1,487.836 1176.07,487.836 
  1183.04,487.836 1190.01,487.836 1196.99,487.836 1203.96,487.836 1210.93,487.836 1217.9,487.836 1224.87,487.836 1231.84,487.836 1238.81,487.836 1245.78,487.836 
  1252.76,487.836 
  "/>
<polyline clip-path="url(#clip202)" style="stroke:#7f7f7f; stroke-linecap:butt; stroke-linejoin:round; stroke-width:16; stroke-opacity:1; fill:none" points="
  207.066,60.077 214.037,71.0592 221.008,191.941 227.98,251.178 234.951,288.517 241.922,315.061 248.893,335.319 255.865,351.521 262.836,364.916 269.807,376.268 
  276.778,386.071 283.75,394.664 290.721,402.288 297.692,409.118 304.663,415.287 311.635,420.896 318.606,426.025 325.577,430.736 332.549,435.081 339.52,439.099 
  346.491,442.827 353.462,446.29 360.434,449.514 367.405,452.517 374.376,455.316 381.347,457.927 388.319,460.36 395.29,462.628 402.261,464.739 409.233,466.703 
  416.204,468.528 423.175,470.221 430.146,471.788 437.118,473.237 444.089,474.574 451.06,475.805 458.031,476.937 465.003,477.975 471.974,478.926 478.945,479.795 
  485.916,480.587 492.888,481.308 499.859,481.963 506.83,482.558 513.802,483.097 520.773,483.584 527.744,484.024 534.715,484.422 541.687,484.779 548.658,485.102 
  555.629,485.391 562.6,485.652 569.572,485.885 576.543,486.095 583.514,486.283 590.485,486.451 597.457,486.602 604.428,486.737 611.399,486.857 618.371,486.965 
  625.342,487.061 632.313,487.147 639.284,487.224 646.256,487.293 653.227,487.354 660.198,487.409 667.169,487.458 674.141,487.501 681.112,487.54 688.083,487.574 
  695.054,487.605 702.026,487.633 708.997,487.657 715.968,487.679 722.94,487.698 729.911,487.716 736.882,487.731 743.853,487.745 750.825,487.757 757.796,487.768 
  764.767,487.778 771.738,487.786 778.71,487.794 785.681,487.801 792.652,487.807 799.623,487.812 806.595,487.817 813.566,487.821 820.537,487.825 827.509,487.828 
  834.48,487.831 841.451,487.833 848.422,487.836 855.394,487.838 862.365,487.84 869.336,487.841 876.307,487.843 883.279,487.844 890.25,487.845 897.221,487.846 
  904.193,487.847 911.164,487.847 918.135,487.848 925.106,487.849 932.078,487.849 939.049,487.849 946.02,487.85 952.991,487.85 959.963,487.85 966.934,487.851 
  973.905,487.851 980.876,487.851 987.848,487.851 994.819,487.851 1001.79,487.851 1008.76,487.851 1015.73,487.851 1022.7,487.851 1029.68,487.851 1036.65,487.851 
  1043.62,487.851 1050.59,487.851 1057.56,487.851 1064.53,487.851 1071.5,487.851 1078.47,487.851 1085.45,487.851 1092.42,487.851 1099.39,487.851 1106.36,487.851 
  1113.33,487.851 1120.3,487.85 1127.27,487.85 1134.24,487.85 1141.22,487.85 1148.19,487.85 1155.16,487.85 1162.13,487.85 1169.1,487.85 1176.07,487.85 
  1183.04,487.85 1190.01,487.85 1196.99,487.849 1203.96,487.849 1210.93,487.849 1217.9,487.849 1224.87,487.849 1231.84,487.849 1238.81,487.849 1245.78,487.849 
  1252.76,487.849 
  "/>
<polyline clip-path="url(#clip202)" style="stroke:#2000d4; stroke-linecap:butt; stroke-linejoin:round; stroke-width:16; stroke-opacity:1; fill:none" stroke-dasharray="64, 40" points="
  207.066,487.84 214.037,487.84 221.008,487.84 227.98,487.84 234.951,487.84 241.922,487.84 248.893,487.84 255.865,487.84 262.836,487.84 269.807,487.84 
  276.778,487.84 283.75,487.839 290.721,487.839 297.692,487.839 304.663,487.839 311.635,487.839 318.606,487.839 325.577,487.839 332.549,487.839 339.52,487.839 
  346.491,487.839 353.462,487.839 360.434,487.839 367.405,487.839 374.376,487.839 381.347,487.839 388.319,487.839 395.29,487.839 402.261,487.839 409.233,487.839 
  416.204,487.839 423.175,487.839 430.146,487.839 437.118,487.839 444.089,487.839 451.06,487.839 458.031,487.839 465.003,487.839 471.974,487.839 478.945,487.839 
  485.916,487.839 492.888,487.839 499.859,487.839 506.83,487.839 513.802,487.839 520.773,487.839 527.744,487.839 534.715,487.839 541.687,487.839 548.658,487.839 
  555.629,487.839 562.6,487.839 569.572,487.839 576.543,487.839 583.514,487.839 590.485,487.839 597.457,487.839 604.428,487.839 611.399,487.839 618.371,487.839 
  625.342,487.839 632.313,487.839 639.284,487.839 646.256,487.839 653.227,487.839 660.198,487.839 667.169,487.839 674.141,487.839 681.112,487.839 688.083,487.839 
  695.054,487.839 702.026,487.839 708.997,487.839 715.968,487.839 722.94,487.839 729.911,487.839 736.882,487.839 743.853,487.839 750.825,487.839 757.796,487.839 
  764.767,487.839 771.738,487.839 778.71,487.839 785.681,487.839 792.652,487.839 799.623,487.839 806.595,487.839 813.566,487.839 820.537,487.839 827.509,487.839 
  834.48,487.839 841.451,487.839 848.422,487.839 855.394,487.839 862.365,487.839 869.336,487.839 876.307,487.839 883.279,487.839 890.25,487.839 897.221,487.839 
  904.193,487.839 911.164,487.839 918.135,487.839 925.106,487.839 932.078,487.839 939.049,487.839 946.02,487.839 952.991,487.839 959.963,487.839 966.934,487.839 
  973.905,487.839 980.876,487.839 987.848,487.839 994.819,487.839 1001.79,487.839 1008.76,487.839 1015.73,487.839 1022.7,487.839 1029.68,487.839 1036.65,487.839 
  1043.62,487.839 1050.59,487.839 1057.56,487.839 1064.53,487.839 1071.5,487.839 1078.47,487.839 1085.45,487.839 1092.42,487.839 1099.39,487.839 1106.36,487.839 
  1113.33,487.839 1120.3,487.839 1127.27,487.839 1134.24,487.839 1141.22,487.839 1148.19,487.839 1155.16,487.839 1162.13,487.839 1169.1,487.839 1176.07,487.839 
  1183.04,487.839 1190.01,487.839 1196.99,487.839 1203.96,487.839 1210.93,487.839 1217.9,487.839 1224.87,487.839 1231.84,487.839 1238.81,487.839 1245.78,487.839 
  1252.76,487.839 
  "/>
<polyline clip-path="url(#clip202)" style="stroke:#ff221c; stroke-linecap:butt; stroke-linejoin:round; stroke-width:16; stroke-opacity:1; fill:none" points="
  207.066,60.2907 214.037,60.262 221.008,60.2392 227.98,60.2201 234.951,60.2036 241.922,60.1893 248.893,60.1768 255.865,60.1659 262.836,60.1562 269.807,60.1477 
  276.778,60.1402 283.75,60.1336 290.721,60.1278 297.692,60.1226 304.663,60.1181 311.635,60.114 318.606,60.1105 325.577,60.1074 332.549,60.1046 339.52,60.1021 
  346.491,60.0999 353.462,60.098 360.434,60.0963 367.405,60.0948 374.376,60.0934 381.347,60.0923 388.319,60.0912 395.29,60.0903 402.261,60.0894 409.233,60.0887 
  416.204,60.088 423.175,60.0874 430.146,60.0869 437.118,60.0864 444.089,60.086 451.06,60.0856 458.031,60.0853 465.003,60.085 471.974,60.0847 478.945,60.0844 
  485.916,60.0842 492.888,60.084 499.859,60.0838 506.83,60.0836 513.802,60.0835 520.773,60.0833 527.744,60.0832 534.715,60.0831 541.687,60.0829 548.658,60.0828 
  555.629,60.0827 562.6,60.0826 569.572,60.0826 576.543,60.0825 583.514,60.0824 590.485,60.0823 597.457,60.0822 604.428,60.0822 611.399,60.0821 618.371,60.082 
  625.342,60.082 632.313,60.0819 639.284,60.0819 646.256,60.0818 653.227,60.0818 660.198,60.0817 667.169,60.0817 674.141,60.0816 681.112,60.0816 688.083,60.0815 
  695.054,60.0815 702.026,60.0814 708.997,60.0814 715.968,60.0813 722.94,60.0813 729.911,60.0812 736.882,60.0812 743.853,60.0812 750.825,60.0811 757.796,60.0811 
  764.767,60.081 771.738,60.081 778.71,60.081 785.681,60.0809 792.652,60.0809 799.623,60.0809 806.595,60.0808 813.566,60.0808 820.537,60.0807 827.509,60.0807 
  834.48,60.0807 841.451,60.0806 848.422,60.0806 855.394,60.0806 862.365,60.0805 869.336,60.0805 876.307,60.0805 883.279,60.0804 890.25,60.0804 897.221,60.0804 
  904.193,60.0803 911.164,60.0803 918.135,60.0803 925.106,60.0802 932.078,60.0802 939.049,60.0802 946.02,60.0802 952.991,60.0801 959.963,60.0801 966.934,60.0801 
  973.905,60.08 980.876,60.08 987.848,60.08 994.819,60.08 1001.79,60.0799 1008.76,60.0799 1015.73,60.0799 1022.7,60.0799 1029.68,60.0798 1036.65,60.0798 
  1043.62,60.0798 1050.59,60.0797 1057.56,60.0797 1064.53,60.0797 1071.5,60.0797 1078.47,60.0796 1085.45,60.0796 1092.42,60.0796 1099.39,60.0796 1106.36,60.0796 
  1113.33,60.0795 1120.3,60.0795 1127.27,60.0795 1134.24,60.0795 1141.22,60.0794 1148.19,60.0794 1155.16,60.0794 1162.13,60.0794 1169.1,60.0794 1176.07,60.0793 
  1183.04,60.0793 1190.01,60.0793 1196.99,60.0793 1203.96,60.0793 1210.93,60.0792 1217.9,60.0792 1224.87,60.0792 1231.84,60.0792 1238.81,60.0792 1245.78,60.0791 
  1252.76,60.0791 
  "/>
<polyline clip-path="url(#clip202)" style="stroke:#000000; stroke-linecap:butt; stroke-linejoin:round; stroke-width:16; stroke-opacity:1; fill:none" stroke-dasharray="8, 16" points="
  207.066,60.077 214.037,60.5005 221.008,60.8932 227.98,61.4867 234.951,62.0447 241.922,62.536 248.893,62.9627 255.865,63.3316 262.836,63.6495 269.807,63.9226 
  276.778,64.1564 283.75,64.3556 290.721,64.5244 297.692,64.6665 304.663,64.7852 311.635,64.8833 318.606,64.9633 325.577,65.0274 332.549,65.0776 339.52,65.1156 
  346.491,65.1429 353.462,65.1607 360.434,65.1704 367.405,65.1729 374.376,65.1692 381.347,65.16 388.319,65.146 395.29,65.1278 402.261,65.1061 409.233,65.0812 
  416.204,65.0536 423.175,65.0237 430.146,64.9919 437.118,64.9583 444.089,64.9232 451.06,64.887 458.031,64.8497 465.003,64.8115 471.974,64.7727 478.945,64.7332 
  485.916,64.6934 492.888,64.6531 499.859,64.6127 506.83,64.572 513.802,64.5312 520.773,64.4904 527.744,64.4496 534.715,64.4089 541.687,64.3682 548.658,64.3277 
  555.629,64.2873 562.6,64.2471 569.572,64.2071 576.543,64.1674 583.514,64.1279 590.485,64.0886 597.457,64.0497 604.428,64.011 611.399,63.9726 618.371,63.9345 
  625.342,63.8967 632.313,63.8592 639.284,63.8221 646.256,63.7853 653.227,63.7487 660.198,63.7125 667.169,63.6767 674.141,63.6411 681.112,63.6059 688.083,63.571 
  695.054,63.5365 702.026,63.5022 708.997,63.4683 715.968,63.4347 722.94,63.4014 729.911,63.3685 736.882,63.3358 743.853,63.3035 750.825,63.2715 757.796,63.2398 
  764.767,63.2084 771.738,63.1773 778.71,63.1465 785.681,63.116 792.652,63.0858 799.623,63.0559 806.595,63.0263 813.566,62.997 820.537,62.968 827.509,62.9392 
  834.48,62.9108 841.451,62.8826 848.422,62.8547 855.394,62.8271 862.365,62.7997 869.336,62.7726 876.307,62.7458 883.279,62.7193 890.25,62.693 897.221,62.6669 
  904.193,62.6412 911.164,62.6156 918.135,62.5904 925.106,62.5654 932.078,62.5406 939.049,62.5161 946.02,62.4918 952.991,62.4678 959.963,62.444 966.934,62.4204 
  973.905,62.3971 980.876,62.374 987.848,62.3511 994.819,62.3284 1001.79,62.306 1008.76,62.2838 1015.73,62.2618 1022.7,62.2401 1029.68,62.2185 1036.65,62.1972 
  1043.62,62.1761 1050.59,62.1552 1057.56,62.1345 1064.53,62.114 1071.5,62.0937 1078.47,62.0736 1085.45,62.0537 1092.42,62.034 1099.39,62.0145 1106.36,61.9952 
  1113.33,61.9761 1120.3,61.9572 1127.27,61.9384 1134.24,61.9199 1141.22,61.9015 1148.19,61.8833 1155.16,61.8653 1162.13,61.8475 1169.1,61.8298 1176.07,61.8124 
  1183.04,61.7951 1190.01,61.7779 1196.99,61.761 1203.96,61.7442 1210.93,61.7276 1217.9,61.7111 1224.87,61.6948 1231.84,61.6787 1238.81,61.6627 1245.78,61.6469 
  1252.76,61.6313 
  "/>
</svg>
