<?xml version="1.0" encoding="utf-8"?>
<svg xmlns="http://www.w3.org/2000/svg" xmlns:xlink="http://www.w3.org/1999/xlink" width="325" height="150" viewBox="0 0 1300 600">
<defs>
  <clipPath id="clip450">
    <rect x="0" y="0" width="1300" height="600"/>
  </clipPath>
</defs>
<path clip-path="url(#clip450)" d="
M0 600 L1300 600 L1300 0 L0 0  Z
  " fill="#ffffff" fill-rule="evenodd" fill-opacity="1"/>
<defs>
  <clipPath id="clip451">
    <rect x="260" y="0" width="911" height="600"/>
  </clipPath>
</defs>
<path clip-path="url(#clip450)" d="
M200.094 501.1 L1252.76 501.1 L1252.76 47.2441 L200.094 47.2441  Z
  " fill="#ffffff" fill-rule="evenodd" fill-opacity="1"/>
<defs>
  <clipPath id="clip452">
    <rect x="200" y="47" width="1054" height="455"/>
  </clipPath>
</defs>
<polyline clip-path="url(#clip450)" style="stroke:#000000; stroke-linecap:butt; stroke-linejoin:round; stroke-width:4; stroke-opacity:1; fill:none" points="
  200.094,501.1 1252.76,501.1 
  "/>
<polyline clip-path="url(#clip450)" style="stroke:#000000; stroke-linecap:butt; stroke-linejoin:round; stroke-width:4; stroke-opacity:1; fill:none" points="
  200.094,501.1 200.094,482.203 
  "/>
<polyline clip-path="url(#clip450)" style="stroke:#000000; stroke-linecap:butt; stroke-linejoin:round; stroke-width:4; stroke-opacity:1; fill:none" points="
  548.658,501.1 548.658,482.203 
  "/>
<polyline clip-path="url(#clip450)" style="stroke:#000000; stroke-linecap:butt; stroke-linejoin:round; stroke-width:4; stroke-opacity:1; fill:none" points="
  897.221,501.1 897.221,482.203 
  "/>
<polyline clip-path="url(#clip450)" style="stroke:#000000; stroke-linecap:butt; stroke-linejoin:round; stroke-width:4; stroke-opacity:1; fill:none" points="
  1245.78,501.1 1245.78,482.203 
  "/>
<path clip-path="url(#clip450)" d="M200.094 526.149 Q195.581 526.149 193.295 530.605 Q191.038 535.032 191.038 543.944 Q191.038 552.827 193.295 557.283 Q195.581 561.71 200.094 561.71 Q204.637 561.71 206.894 557.283 Q209.18 552.827 209.18 543.944 Q209.18 535.032 206.894 530.605 Q204.637 526.149 200.094 526.149 M200.094 521.519 Q207.357 521.519 211.177 527.277 Q215.025 533.006 215.025 543.944 Q215.025 554.852 211.177 560.61 Q207.357 566.339 200.094 566.339 Q192.832 566.339 188.983 560.61 Q185.164 554.852 185.164 543.944 Q185.164 533.006 188.983 527.277 Q192.832 521.519 200.094 521.519 Z" fill="#000000" fill-rule="evenodd" fill-opacity="1" /><path clip-path="url(#clip450)" d="M517.032 522.3 L539.977 522.3 L539.977 527.219 L522.385 527.219 L522.385 537.809 Q523.658 537.375 524.931 537.173 Q526.204 536.941 527.477 536.941 Q534.711 536.941 538.936 540.905 Q543.16 544.87 543.16 551.64 Q543.16 558.614 538.82 562.491 Q534.48 566.339 526.58 566.339 Q523.861 566.339 521.025 565.876 Q518.218 565.413 515.209 564.487 L515.209 558.614 Q517.813 560.031 520.591 560.726 Q523.369 561.42 526.465 561.42 Q531.47 561.42 534.393 558.787 Q537.315 556.154 537.315 551.64 Q537.315 547.126 534.393 544.493 Q531.47 541.86 526.465 541.86 Q524.121 541.86 521.777 542.381 Q519.462 542.902 517.032 544.001 L517.032 522.3 Z" fill="#000000" fill-rule="evenodd" fill-opacity="1" /><path clip-path="url(#clip450)" d="M567.176 526.149 Q562.662 526.149 560.377 530.605 Q558.12 535.032 558.12 543.944 Q558.12 552.827 560.377 557.283 Q562.662 561.71 567.176 561.71 Q571.719 561.71 573.976 557.283 Q576.262 552.827 576.262 543.944 Q576.262 535.032 573.976 530.605 Q571.719 526.149 567.176 526.149 M567.176 521.519 Q574.439 521.519 578.258 527.277 Q582.107 533.006 582.107 543.944 Q582.107 554.852 578.258 560.61 Q574.439 566.339 567.176 566.339 Q559.914 566.339 556.065 560.61 Q552.246 554.852 552.246 543.944 Q552.246 533.006 556.065 527.277 Q559.914 521.519 567.176 521.519 Z" fill="#000000" fill-rule="evenodd" fill-opacity="1" /><path clip-path="url(#clip450)" d="M846.73 560.581 L856.278 560.581 L856.278 527.624 L845.891 529.708 L845.891 524.384 L856.22 522.3 L862.065 522.3 L862.065 560.581 L871.614 560.581 L871.614 565.5 L846.73 565.5 L846.73 560.581 Z" fill="#000000" fill-rule="evenodd" fill-opacity="1" /><path clip-path="url(#clip450)" d="M895.919 526.149 Q891.405 526.149 889.119 530.605 Q886.863 535.032 886.863 543.944 Q886.863 552.827 889.119 557.283 Q891.405 561.71 895.919 561.71 Q900.462 561.71 902.719 557.283 Q905.005 552.827 905.005 543.944 Q905.005 535.032 902.719 530.605 Q900.462 526.149 895.919 526.149 M895.919 521.519 Q903.182 521.519 907.001 527.277 Q910.85 533.006 910.85 543.944 Q910.85 554.852 907.001 560.61 Q903.182 566.339 895.919 566.339 Q888.656 566.339 884.808 560.61 Q880.989 554.852 880.989 543.944 Q880.989 533.006 884.808 527.277 Q888.656 521.519 895.919 521.519 Z" fill="#000000" fill-rule="evenodd" fill-opacity="1" /><path clip-path="url(#clip450)" d="M933.622 526.149 Q929.108 526.149 926.822 530.605 Q924.565 535.032 924.565 543.944 Q924.565 552.827 926.822 557.283 Q929.108 561.71 933.622 561.71 Q938.164 561.71 940.421 557.283 Q942.707 552.827 942.707 543.944 Q942.707 535.032 940.421 530.605 Q938.164 526.149 933.622 526.149 M933.622 521.519 Q940.884 521.519 944.704 527.277 Q948.552 533.006 948.552 543.944 Q948.552 554.852 944.704 560.61 Q940.884 566.339 933.622 566.339 Q926.359 566.339 922.51 560.61 Q918.691 554.852 918.691 543.944 Q918.691 533.006 922.51 527.277 Q926.359 521.519 933.622 521.519 Z" fill="#000000" fill-rule="evenodd" fill-opacity="1" /><path clip-path="url(#clip450)" d="M1195.29 560.581 L1204.84 560.581 L1204.84 527.624 L1194.45 529.708 L1194.45 524.384 L1204.78 522.3 L1210.63 522.3 L1210.63 560.581 L1220.18 560.581 L1220.18 565.5 L1195.29 565.5 L1195.29 560.581 Z" fill="#000000" fill-rule="evenodd" fill-opacity="1" /><path clip-path="url(#clip450)" d="M1232.04 522.3 L1254.99 522.3 L1254.99 527.219 L1237.39 527.219 L1237.39 537.809 Q1238.67 537.375 1239.94 537.173 Q1241.21 536.941 1242.49 536.941 Q1249.72 536.941 1253.94 540.905 Q1258.17 544.87 1258.17 551.64 Q1258.17 558.614 1253.83 562.491 Q1249.49 566.339 1241.59 566.339 Q1238.87 566.339 1236.03 565.876 Q1233.23 565.413 1230.22 564.487 L1230.22 558.614 Q1232.82 560.031 1235.6 560.726 Q1238.38 561.42 1241.47 561.42 Q1246.48 561.42 1249.4 558.787 Q1252.32 556.154 1252.32 551.64 Q1252.32 547.126 1249.4 544.493 Q1246.48 541.86 1241.47 541.86 Q1239.13 541.86 1236.79 542.381 Q1234.47 542.902 1232.04 544.001 L1232.04 522.3 Z" fill="#000000" fill-rule="evenodd" fill-opacity="1" /><path clip-path="url(#clip450)" d="M1282.18 526.149 Q1277.67 526.149 1275.39 530.605 Q1273.13 535.032 1273.13 543.944 Q1273.13 552.827 1275.39 557.283 Q1277.67 561.71 1282.18 561.71 Q1286.73 561.71 1288.98 557.283 Q1291.27 552.827 1291.27 543.944 Q1291.27 535.032 1288.98 530.605 Q1286.73 526.149 1282.18 526.149 M1282.18 521.519 Q1289.45 521.519 1293.27 527.277 Q1297.12 533.006 1297.12 543.944 Q1297.12 554.852 1293.27 560.61 Q1289.45 566.339 1282.18 566.339 Q1274.92 566.339 1271.07 560.61 Q1267.25 554.852 1267.25 543.944 Q1267.25 533.006 1271.07 527.277 Q1274.92 521.519 1282.18 521.519 Z" fill="#000000" fill-rule="evenodd" fill-opacity="1" /><polyline clip-path="url(#clip450)" style="stroke:#000000; stroke-linecap:butt; stroke-linejoin:round; stroke-width:4; stroke-opacity:1; fill:none" points="
  200.094,501.1 200.094,47.2441 
  "/>
<polyline clip-path="url(#clip450)" style="stroke:#000000; stroke-linecap:butt; stroke-linejoin:round; stroke-width:4; stroke-opacity:1; fill:none" points="
  200.094,487.84 218.992,487.84 
  "/>
<polyline clip-path="url(#clip450)" style="stroke:#000000; stroke-linecap:butt; stroke-linejoin:round; stroke-width:4; stroke-opacity:1; fill:none" points="
  200.094,380.899 218.992,380.899 
  "/>
<polyline clip-path="url(#clip450)" style="stroke:#000000; stroke-linecap:butt; stroke-linejoin:round; stroke-width:4; stroke-opacity:1; fill:none" points="
  200.094,273.958 218.992,273.958 
  "/>
<polyline clip-path="url(#clip450)" style="stroke:#000000; stroke-linecap:butt; stroke-linejoin:round; stroke-width:4; stroke-opacity:1; fill:none" points="
  200.094,167.018 218.992,167.018 
  "/>
<polyline clip-path="url(#clip450)" style="stroke:#000000; stroke-linecap:butt; stroke-linejoin:round; stroke-width:4; stroke-opacity:1; fill:none" points="
  200.094,60.077 218.992,60.077 
  "/>
<path clip-path="url(#clip450)" d="M71.4226 470.088 Q66.9087 470.088 64.6229 474.544 Q62.3659 478.971 62.3659 487.883 Q62.3659 496.766 64.6229 501.222 Q66.9087 505.649 71.4226 505.649 Q75.9654 505.649 78.2223 501.222 Q80.5082 496.766 80.5082 487.883 Q80.5082 478.971 78.2223 474.544 Q75.9654 470.088 71.4226 470.088 M71.4226 465.458 Q78.6853 465.458 82.5047 471.216 Q86.3531 476.946 86.3531 487.883 Q86.3531 498.791 82.5047 504.55 Q78.6853 510.279 71.4226 510.279 Q64.1599 510.279 60.3115 504.55 Q56.4921 498.791 56.4921 487.883 Q56.4921 476.946 60.3115 471.216 Q64.1599 465.458 71.4226 465.458 Z" fill="#000000" fill-rule="evenodd" fill-opacity="1" /><path clip-path="url(#clip450)" d="M96.625 502.09 L102.73 502.09 L102.73 509.44 L96.625 509.44 L96.625 502.09 Z" fill="#000000" fill-rule="evenodd" fill-opacity="1" /><path clip-path="url(#clip450)" d="M127.962 470.088 Q123.448 470.088 121.162 474.544 Q118.905 478.971 118.905 487.883 Q118.905 496.766 121.162 501.222 Q123.448 505.649 127.962 505.649 Q132.504 505.649 134.761 501.222 Q137.047 496.766 137.047 487.883 Q137.047 478.971 134.761 474.544 Q132.504 470.088 127.962 470.088 M127.962 465.458 Q135.224 465.458 139.044 471.216 Q142.892 476.946 142.892 487.883 Q142.892 498.791 139.044 504.55 Q135.224 510.279 127.962 510.279 Q120.699 510.279 116.851 504.55 Q113.031 498.791 113.031 487.883 Q113.031 476.946 116.851 471.216 Q120.699 465.458 127.962 465.458 Z" fill="#000000" fill-rule="evenodd" fill-opacity="1" /><path clip-path="url(#clip450)" d="M165.664 470.088 Q161.15 470.088 158.864 474.544 Q156.607 478.971 156.607 487.883 Q156.607 496.766 158.864 501.222 Q161.15 505.649 165.664 505.649 Q170.207 505.649 172.464 501.222 Q174.75 496.766 174.75 487.883 Q174.75 478.971 172.464 474.544 Q170.207 470.088 165.664 470.088 M165.664 465.458 Q172.927 465.458 176.746 471.216 Q180.594 476.946 180.594 487.883 Q180.594 498.791 176.746 504.55 Q172.927 510.279 165.664 510.279 Q158.401 510.279 154.553 504.55 Q150.734 498.791 150.734 487.883 Q150.734 476.946 154.553 471.216 Q158.401 465.458 165.664 465.458 Z" fill="#000000" fill-rule="evenodd" fill-opacity="1" /><path clip-path="url(#clip450)" d="M72.6668 363.147 Q68.1529 363.147 65.8671 367.603 Q63.6101 372.03 63.6101 380.942 Q63.6101 389.825 65.8671 394.281 Q68.1529 398.708 72.6668 398.708 Q77.2096 398.708 79.4665 394.281 Q81.7524 389.825 81.7524 380.942 Q81.7524 372.03 79.4665 367.603 Q77.2096 363.147 72.6668 363.147 M72.6668 358.518 Q79.9295 358.518 83.7489 364.276 Q87.5973 370.005 87.5973 380.942 Q87.5973 391.851 83.7489 397.609 Q79.9295 403.338 72.6668 403.338 Q65.4041 403.338 61.5558 397.609 Q57.7363 391.851 57.7363 380.942 Q57.7363 370.005 61.5558 364.276 Q65.4041 358.518 72.6668 358.518 Z" fill="#000000" fill-rule="evenodd" fill-opacity="1" /><path clip-path="url(#clip450)" d="M97.8692 395.149 L103.975 395.149 L103.975 402.499 L97.8692 402.499 L97.8692 395.149 Z" fill="#000000" fill-rule="evenodd" fill-opacity="1" /><path clip-path="url(#clip450)" d="M121.741 397.58 L142.14 397.58 L142.14 402.499 L114.709 402.499 L114.709 397.58 Q118.037 394.137 123.766 388.35 Q129.524 382.534 131 380.855 Q133.807 377.702 134.906 375.531 Q136.035 373.332 136.035 371.22 Q136.035 367.777 133.604 365.607 Q131.202 363.437 127.325 363.437 Q124.576 363.437 121.509 364.391 Q118.471 365.346 114.999 367.285 L114.999 361.382 Q118.529 359.964 121.596 359.241 Q124.663 358.518 127.209 358.518 Q133.922 358.518 137.915 361.874 Q141.908 365.231 141.908 370.844 Q141.908 373.506 140.896 375.908 Q139.912 378.28 137.279 381.521 Q136.555 382.36 132.678 386.382 Q128.801 390.375 121.741 397.58 Z" fill="#000000" fill-rule="evenodd" fill-opacity="1" /><path clip-path="url(#clip450)" d="M154.466 359.299 L177.412 359.299 L177.412 364.218 L159.819 364.218 L159.819 374.808 Q161.092 374.374 162.365 374.172 Q163.639 373.94 164.912 373.94 Q172.145 373.94 176.37 377.904 Q180.594 381.868 180.594 388.639 Q180.594 395.612 176.254 399.49 Q171.914 403.338 164.015 403.338 Q161.295 403.338 158.459 402.875 Q155.652 402.412 152.643 401.486 L152.643 395.612 Q155.247 397.03 158.025 397.725 Q160.803 398.419 163.899 398.419 Q168.905 398.419 171.827 395.786 Q174.75 393.153 174.75 388.639 Q174.75 384.125 171.827 381.492 Q168.905 378.859 163.899 378.859 Q161.555 378.859 159.211 379.38 Q156.897 379.901 154.466 381 L154.466 359.299 Z" fill="#000000" fill-rule="evenodd" fill-opacity="1" /><path clip-path="url(#clip450)" d="M71.4226 256.207 Q66.9087 256.207 64.6229 260.663 Q62.3659 265.09 62.3659 274.002 Q62.3659 282.885 64.6229 287.341 Q66.9087 291.768 71.4226 291.768 Q75.9654 291.768 78.2223 287.341 Q80.5082 282.885 80.5082 274.002 Q80.5082 265.09 78.2223 260.663 Q75.9654 256.207 71.4226 256.207 M71.4226 251.577 Q78.6853 251.577 82.5047 257.335 Q86.3531 263.064 86.3531 274.002 Q86.3531 284.91 82.5047 290.668 Q78.6853 296.397 71.4226 296.397 Q64.1599 296.397 60.3115 290.668 Q56.4921 284.91 56.4921 274.002 Q56.4921 263.064 60.3115 257.335 Q64.1599 251.577 71.4226 251.577 Z" fill="#000000" fill-rule="evenodd" fill-opacity="1" /><path clip-path="url(#clip450)" d="M96.625 288.209 L102.73 288.209 L102.73 295.558 L96.625 295.558 L96.625 288.209 Z" fill="#000000" fill-rule="evenodd" fill-opacity="1" /><path clip-path="url(#clip450)" d="M115.52 252.358 L138.465 252.358 L138.465 257.277 L120.873 257.277 L120.873 267.867 Q122.146 267.433 123.419 267.231 Q124.692 266.999 125.965 266.999 Q133.199 266.999 137.423 270.963 Q141.648 274.928 141.648 281.698 Q141.648 288.672 137.308 292.549 Q132.967 296.397 125.068 296.397 Q122.348 296.397 119.513 295.934 Q116.706 295.471 113.697 294.546 L113.697 288.672 Q116.301 290.09 119.079 290.784 Q121.856 291.478 124.952 291.478 Q129.958 291.478 132.881 288.845 Q135.803 286.212 135.803 281.698 Q135.803 277.185 132.881 274.551 Q129.958 271.918 124.952 271.918 Q122.609 271.918 120.265 272.439 Q117.95 272.96 115.52 274.06 L115.52 252.358 Z" fill="#000000" fill-rule="evenodd" fill-opacity="1" /><path clip-path="url(#clip450)" d="M165.664 256.207 Q161.15 256.207 158.864 260.663 Q156.607 265.09 156.607 274.002 Q156.607 282.885 158.864 287.341 Q161.15 291.768 165.664 291.768 Q170.207 291.768 172.464 287.341 Q174.75 282.885 174.75 274.002 Q174.75 265.09 172.464 260.663 Q170.207 256.207 165.664 256.207 M165.664 251.577 Q172.927 251.577 176.746 257.335 Q180.594 263.064 180.594 274.002 Q180.594 284.91 176.746 290.668 Q172.927 296.397 165.664 296.397 Q158.401 296.397 154.553 290.668 Q150.734 284.91 150.734 274.002 Q150.734 263.064 154.553 257.335 Q158.401 251.577 165.664 251.577 Z" fill="#000000" fill-rule="evenodd" fill-opacity="1" /><path clip-path="url(#clip450)" d="M72.6668 149.266 Q68.1529 149.266 65.8671 153.722 Q63.6101 158.149 63.6101 167.061 Q63.6101 175.944 65.8671 180.4 Q68.1529 184.827 72.6668 184.827 Q77.2096 184.827 79.4665 180.4 Q81.7524 175.944 81.7524 167.061 Q81.7524 158.149 79.4665 153.722 Q77.2096 149.266 72.6668 149.266 M72.6668 144.636 Q79.9295 144.636 83.7489 150.394 Q87.5973 156.124 87.5973 167.061 Q87.5973 177.97 83.7489 183.728 Q79.9295 189.457 72.6668 189.457 Q65.4041 189.457 61.5558 183.728 Q57.7363 177.97 57.7363 167.061 Q57.7363 156.124 61.5558 150.394 Q65.4041 144.636 72.6668 144.636 Z" fill="#000000" fill-rule="evenodd" fill-opacity="1" /><path clip-path="url(#clip450)" d="M97.8692 181.268 L103.975 181.268 L103.975 188.618 L97.8692 188.618 L97.8692 181.268 Z" fill="#000000" fill-rule="evenodd" fill-opacity="1" /><path clip-path="url(#clip450)" d="M115.23 145.418 L143.008 145.418 L143.008 147.906 L127.325 188.618 L121.22 188.618 L135.977 150.337 L115.23 150.337 L115.23 145.418 Z" fill="#000000" fill-rule="evenodd" fill-opacity="1" /><path clip-path="url(#clip450)" d="M154.466 145.418 L177.412 145.418 L177.412 150.337 L159.819 150.337 L159.819 160.927 Q161.092 160.493 162.365 160.29 Q163.639 160.059 164.912 160.059 Q172.145 160.059 176.37 164.023 Q180.594 167.987 180.594 174.758 Q180.594 181.731 176.254 185.608 Q171.914 189.457 164.015 189.457 Q161.295 189.457 158.459 188.994 Q155.652 188.531 152.643 187.605 L152.643 181.731 Q155.247 183.149 158.025 183.843 Q160.803 184.538 163.899 184.538 Q168.905 184.538 171.827 181.905 Q174.75 179.272 174.75 174.758 Q174.75 170.244 171.827 167.611 Q168.905 164.978 163.899 164.978 Q161.555 164.978 159.211 165.499 Q156.897 166.019 154.466 167.119 L154.466 145.418 Z" fill="#000000" fill-rule="evenodd" fill-opacity="1" /><path clip-path="url(#clip450)" d="M59.9354 76.758 L69.484 76.758 L69.484 43.801 L59.0963 45.8843 L59.0963 40.5603 L69.4261 38.477 L75.271 38.477 L75.271 76.758 L84.8195 76.758 L84.8195 81.677 L59.9354 81.677 L59.9354 76.758 Z" fill="#000000" fill-rule="evenodd" fill-opacity="1" /><path clip-path="url(#clip450)" d="M96.625 74.3275 L102.73 74.3275 L102.73 81.677 L96.625 81.677 L96.625 74.3275 Z" fill="#000000" fill-rule="evenodd" fill-opacity="1" /><path clip-path="url(#clip450)" d="M127.962 42.3253 Q123.448 42.3253 121.162 46.7813 Q118.905 51.2084 118.905 60.1204 Q118.905 69.0034 121.162 73.4594 Q123.448 77.8865 127.962 77.8865 Q132.504 77.8865 134.761 73.4594 Q137.047 69.0034 137.047 60.1204 Q137.047 51.2084 134.761 46.7813 Q132.504 42.3253 127.962 42.3253 M127.962 37.6957 Q135.224 37.6957 139.044 43.4538 Q142.892 49.1829 142.892 60.1204 Q142.892 71.0289 139.044 76.787 Q135.224 82.5161 127.962 82.5161 Q120.699 82.5161 116.851 76.787 Q113.031 71.0289 113.031 60.1204 Q113.031 49.1829 116.851 43.4538 Q120.699 37.6957 127.962 37.6957 Z" fill="#000000" fill-rule="evenodd" fill-opacity="1" /><path clip-path="url(#clip450)" d="M165.664 42.3253 Q161.15 42.3253 158.864 46.7813 Q156.607 51.2084 156.607 60.1204 Q156.607 69.0034 158.864 73.4594 Q161.15 77.8865 165.664 77.8865 Q170.207 77.8865 172.464 73.4594 Q174.75 69.0034 174.75 60.1204 Q174.75 51.2084 172.464 46.7813 Q170.207 42.3253 165.664 42.3253 M165.664 37.6957 Q172.927 37.6957 176.746 43.4538 Q180.594 49.1829 180.594 60.1204 Q180.594 71.0289 176.746 76.787 Q172.927 82.5161 165.664 82.5161 Q158.401 82.5161 154.553 76.787 Q150.734 71.0289 150.734 60.1204 Q150.734 49.1829 154.553 43.4538 Q158.401 37.6957 165.664 37.6957 Z" fill="#000000" fill-rule="evenodd" fill-opacity="1" /><polyline clip-path="url(#clip452)" style="stroke:#ff00ff; stroke-linecap:butt; stroke-linejoin:round; stroke-width:16; stroke-opacity:1; fill:none" points="
  207.066,274.065 214.037,274.147 221.008,274.245 227.98,274.334 234.951,274.418 241.922,274.497 248.893,274.571 255.865,274.64 262.836,274.705 269.807,274.765 
  276.778,274.821 283.75,274.873 290.721,274.922 297.692,274.967 304.663,275.008 311.635,275.047 318.606,275.083 325.577,275.116 332.549,275.147 339.52,275.175 
  346.491,275.2 353.462,275.224 360.434,275.245 367.405,275.265 374.376,275.283 381.347,275.298 388.319,275.313 395.29,275.325 402.261,275.337 409.233,275.347 
  416.204,275.355 423.175,275.363 430.146,275.369 437.118,275.374 444.089,275.378 451.06,275.381 458.031,275.383 465.003,275.385 471.974,275.385 478.945,275.385 
  485.916,275.384 492.888,275.383 499.859,275.38 506.83,275.378 513.802,275.374 520.773,275.37 527.744,275.366 534.715,275.361 541.687,275.356 548.658,275.351 
  555.629,275.345 562.6,275.338 569.572,275.332 576.543,275.325 583.514,275.318 590.485,275.31 597.457,275.303 604.428,275.295 611.399,275.287 618.371,275.278 
  625.342,275.27 632.313,275.261 639.284,275.253 646.256,275.244 653.227,275.235 660.198,275.226 667.169,275.217 674.141,275.207 681.112,275.198 688.083,275.189 
  695.054,275.179 702.026,275.17 708.997,275.16 715.968,275.151 722.94,275.141 729.911,275.132 736.882,275.122 743.853,275.113 750.825,275.103 757.796,275.093 
  764.767,275.084 771.738,275.074 778.71,275.065 785.681,275.055 792.652,275.046 799.623,275.036 806.595,275.027 813.566,275.017 820.537,275.008 827.509,274.998 
  834.48,274.989 841.451,274.98 848.422,274.97 855.394,274.961 862.365,274.952 869.336,274.943 876.307,274.934 883.279,274.925 890.25,274.916 897.221,274.907 
  904.193,274.898 911.164,274.89 918.135,274.881 925.106,274.872 932.078,274.864 939.049,274.855 946.02,274.847 952.991,274.838 959.963,274.83 966.934,274.822 
  973.905,274.813 980.876,274.805 987.848,274.797 994.819,274.789 1001.79,274.781 1008.76,274.773 1015.73,274.765 1022.7,274.758 1029.68,274.75 1036.65,274.742 
  1043.62,274.735 1050.59,274.727 1057.56,274.72 1064.53,274.712 1071.5,274.705 1078.47,274.698 1085.45,274.691 1092.42,274.684 1099.39,274.677 1106.36,274.67 
  1113.33,274.663 1120.3,274.656 1127.27,274.649 1134.24,274.642 1141.22,274.635 1148.19,274.629 1155.16,274.622 1162.13,274.616 1169.1,274.609 1176.07,274.603 
  1183.04,274.597 1190.01,274.59 1196.99,274.584 1203.96,274.578 1210.93,274.572 1217.9,274.566 1224.87,274.56 1231.84,274.554 1238.81,274.548 1245.78,274.542 
  1252.76,274.536 
  "/>
<polyline clip-path="url(#clip452)" style="stroke:#2000d4; stroke-linecap:butt; stroke-linejoin:round; stroke-width:16; stroke-opacity:1; fill:none" stroke-dasharray="8, 16" points="
  207.066,487.84 214.037,487.84 221.008,487.84 227.98,487.84 234.951,487.84 241.922,487.84 248.893,487.84 255.865,487.84 262.836,487.84 269.807,487.84 
  276.778,487.84 283.75,487.839 290.721,487.839 297.692,487.839 304.663,487.839 311.635,487.839 318.606,487.839 325.577,487.839 332.549,487.839 339.52,487.839 
  346.491,487.839 353.462,487.839 360.434,487.839 367.405,487.839 374.376,487.839 381.347,487.839 388.319,487.839 395.29,487.839 402.261,487.839 409.233,487.839 
  416.204,487.839 423.175,487.839 430.146,487.839 437.118,487.839 444.089,487.839 451.06,487.839 458.031,487.839 465.003,487.839 471.974,487.839 478.945,487.839 
  485.916,487.839 492.888,487.839 499.859,487.839 506.83,487.839 513.802,487.839 520.773,487.839 527.744,487.839 534.715,487.839 541.687,487.839 548.658,487.839 
  555.629,487.839 562.6,487.839 569.572,487.839 576.543,487.839 583.514,487.839 590.485,487.839 597.457,487.839 604.428,487.839 611.399,487.839 618.371,487.839 
  625.342,487.839 632.313,487.839 639.284,487.839 646.256,487.839 653.227,487.839 660.198,487.839 667.169,487.839 674.141,487.839 681.112,487.839 688.083,487.839 
  695.054,487.839 702.026,487.839 708.997,487.839 715.968,487.839 722.94,487.839 729.911,487.839 736.882,487.839 743.853,487.839 750.825,487.839 757.796,487.839 
  764.767,487.839 771.738,487.839 778.71,487.839 785.681,487.839 792.652,487.839 799.623,487.839 806.595,487.839 813.566,487.839 820.537,487.839 827.509,487.839 
  834.48,487.839 841.451,487.839 848.422,487.839 855.394,487.839 862.365,487.839 869.336,487.839 876.307,487.839 883.279,487.839 890.25,487.839 897.221,487.839 
  904.193,487.839 911.164,487.839 918.135,487.839 925.106,487.839 932.078,487.839 939.049,487.839 946.02,487.839 952.991,487.839 959.963,487.839 966.934,487.839 
  973.905,487.839 980.876,487.839 987.848,487.839 994.819,487.839 1001.79,487.839 1008.76,487.839 1015.73,487.839 1022.7,487.839 1029.68,487.839 1036.65,487.839 
  1043.62,487.839 1050.59,487.839 1057.56,487.839 1064.53,487.839 1071.5,487.839 1078.47,487.839 1085.45,487.839 1092.42,487.839 1099.39,487.839 1106.36,487.839 
  1113.33,487.839 1120.3,487.839 1127.27,487.839 1134.24,487.839 1141.22,487.839 1148.19,487.839 1155.16,487.839 1162.13,487.839 1169.1,487.839 1176.07,487.839 
  1183.04,487.839 1190.01,487.839 1196.99,487.839 1203.96,487.839 1210.93,487.839 1217.9,487.839 1224.87,487.839 1231.84,487.839 1238.81,487.839 1245.78,487.839 
  1252.76,487.839 
  "/>
<polyline clip-path="url(#clip452)" style="stroke:#008900; stroke-linecap:butt; stroke-linejoin:round; stroke-width:16; stroke-opacity:1; fill:none" stroke-dasharray="64, 40" points="
  207.066,487.84 214.037,487.84 221.008,487.84 227.98,487.84 234.951,487.84 241.922,487.84 248.893,487.84 255.865,487.84 262.836,487.84 269.807,487.84 
  276.778,487.84 283.75,487.84 290.721,487.84 297.692,487.84 304.663,487.84 311.635,487.84 318.606,487.84 325.577,487.84 332.549,487.84 339.52,487.84 
  346.491,487.84 353.462,487.84 360.434,487.84 367.405,487.84 374.376,487.84 381.347,487.84 388.319,487.84 395.29,487.84 402.261,487.84 409.233,487.84 
  416.204,487.84 423.175,487.84 430.146,487.84 437.118,487.84 444.089,487.84 451.06,487.84 458.031,487.84 465.003,487.84 471.974,487.84 478.945,487.84 
  485.916,487.84 492.888,487.84 499.859,487.84 506.83,487.84 513.802,487.84 520.773,487.84 527.744,487.84 534.715,487.84 541.687,487.84 548.658,487.84 
  555.629,487.84 562.6,487.84 569.572,487.84 576.543,487.84 583.514,487.84 590.485,487.84 597.457,487.84 604.428,487.84 611.399,487.84 618.371,487.84 
  625.342,487.84 632.313,487.84 639.284,487.84 646.256,487.84 653.227,487.84 660.198,487.84 667.169,487.84 674.141,487.84 681.112,487.84 688.083,487.84 
  695.054,487.84 702.026,487.84 708.997,487.84 715.968,487.84 722.94,487.84 729.911,487.84 736.882,487.84 743.853,487.84 750.825,487.84 757.796,487.84 
  764.767,487.84 771.738,487.84 778.71,487.84 785.681,487.84 792.652,487.84 799.623,487.84 806.595,487.84 813.566,487.84 820.537,487.84 827.509,487.84 
  834.48,487.84 841.451,487.84 848.422,487.84 855.394,487.84 862.365,487.84 869.336,487.84 876.307,487.84 883.279,487.84 890.25,487.84 897.221,487.84 
  904.193,487.84 911.164,487.84 918.135,487.84 925.106,487.84 932.078,487.84 939.049,487.84 946.02,487.84 952.991,487.84 959.963,487.84 966.934,487.84 
  973.905,487.84 980.876,487.84 987.848,487.84 994.819,487.84 1001.79,487.84 1008.76,487.84 1015.73,487.84 1022.7,487.84 1029.68,487.84 1036.65,487.84 
  1043.62,487.84 1050.59,487.84 1057.56,487.84 1064.53,487.84 1071.5,487.84 1078.47,487.84 1085.45,487.84 1092.42,487.84 1099.39,487.84 1106.36,487.84 
  1113.33,487.84 1120.3,487.84 1127.27,487.84 1134.24,487.84 1141.22,487.84 1148.19,487.84 1155.16,487.84 1162.13,487.84 1169.1,487.84 1176.07,487.84 
  1183.04,487.84 1190.01,487.84 1196.99,487.84 1203.96,487.84 1210.93,487.84 1217.9,487.84 1224.87,487.84 1231.84,487.84 1238.81,487.84 1245.78,487.84 
  1252.76,487.84 
  "/>
<polyline clip-path="url(#clip452)" style="stroke:#008900; stroke-linecap:butt; stroke-linejoin:round; stroke-width:16; stroke-opacity:1; fill:none" stroke-dasharray="8, 16" points="
  207.066,487.84 214.037,487.84 221.008,487.84 227.98,487.839 234.951,487.839 241.922,487.839 248.893,487.839 255.865,487.839 262.836,487.839 269.807,487.839 
  276.778,487.839 283.75,487.839 290.721,487.839 297.692,487.839 304.663,487.839 311.635,487.839 318.606,487.839 325.577,487.839 332.549,487.839 339.52,487.839 
  346.491,487.839 353.462,487.839 360.434,487.839 367.405,487.839 374.376,487.839 381.347,487.84 388.319,487.84 395.29,487.84 402.261,487.84 409.233,487.84 
  416.204,487.84 423.175,487.84 430.146,487.84 437.118,487.84 444.089,487.84 451.06,487.84 458.031,487.84 465.003,487.84 471.974,487.84 478.945,487.84 
  485.916,487.84 492.888,487.84 499.859,487.84 506.83,487.84 513.802,487.84 520.773,487.84 527.744,487.84 534.715,487.84 541.687,487.84 548.658,487.84 
  555.629,487.84 562.6,487.84 569.572,487.84 576.543,487.84 583.514,487.84 590.485,487.84 597.457,487.84 604.428,487.84 611.399,487.84 618.371,487.84 
  625.342,487.84 632.313,487.84 639.284,487.84 646.256,487.84 653.227,487.84 660.198,487.84 667.169,487.84 674.141,487.84 681.112,487.84 688.083,487.84 
  695.054,487.84 702.026,487.84 708.997,487.84 715.968,487.84 722.94,487.84 729.911,487.84 736.882,487.84 743.853,487.84 750.825,487.84 757.796,487.84 
  764.767,487.84 771.738,487.84 778.71,487.84 785.681,487.84 792.652,487.84 799.623,487.84 806.595,487.84 813.566,487.84 820.537,487.84 827.509,487.84 
  834.48,487.84 841.451,487.84 848.422,487.84 855.394,487.84 862.365,487.84 869.336,487.84 876.307,487.84 883.279,487.84 890.25,487.84 897.221,487.84 
  904.193,487.84 911.164,487.84 918.135,487.84 925.106,487.84 932.078,487.84 939.049,487.84 946.02,487.84 952.991,487.84 959.963,487.84 966.934,487.84 
  973.905,487.84 980.876,487.84 987.848,487.84 994.819,487.84 1001.79,487.84 1008.76,487.84 1015.73,487.84 1022.7,487.84 1029.68,487.84 1036.65,487.84 
  1043.62,487.84 1050.59,487.84 1057.56,487.84 1064.53,487.84 1071.5,487.84 1078.47,487.84 1085.45,487.84 1092.42,487.84 1099.39,487.84 1106.36,487.84 
  1113.33,487.84 1120.3,487.84 1127.27,487.84 1134.24,487.84 1141.22,487.84 1148.19,487.84 1155.16,487.84 1162.13,487.84 1169.1,487.84 1176.07,487.84 
  1183.04,487.84 1190.01,487.84 1196.99,487.84 1203.96,487.84 1210.93,487.84 1217.9,487.84 1224.87,487.84 1231.84,487.84 1238.81,487.84 1245.78,487.84 
  1252.76,487.84 
  "/>
<polyline clip-path="url(#clip452)" style="stroke:#2000d4; stroke-linecap:butt; stroke-linejoin:round; stroke-width:16; stroke-opacity:1; fill:none" points="
  207.066,487.412 214.037,487.081 221.008,486.679 227.98,486.303 234.951,485.95 241.922,485.621 248.893,485.312 255.865,485.025 262.836,484.756 269.807,484.505 
  276.778,484.272 283.75,484.055 290.721,483.853 297.692,483.665 304.663,483.491 311.635,483.33 318.606,483.181 325.577,483.044 332.549,482.917 339.52,482.801 
  346.491,482.694 353.462,482.596 360.434,482.507 367.405,482.426 374.376,482.352 381.347,482.286 388.319,482.227 395.29,482.174 402.261,482.127 409.233,482.086 
  416.204,482.05 423.175,482.02 430.146,481.994 437.118,481.972 444.089,481.955 451.06,481.942 458.031,481.933 465.003,481.927 471.974,481.924 478.945,481.925 
  485.916,481.928 492.888,481.935 499.859,481.943 506.83,481.955 513.802,481.968 520.773,481.984 527.744,482.002 534.715,482.021 541.687,482.042 548.658,482.065 
  555.629,482.089 562.6,482.115 569.572,482.142 576.543,482.171 583.514,482.2 590.485,482.231 597.457,482.262 604.428,482.294 611.399,482.328 618.371,482.361 
  625.342,482.396 632.313,482.431 639.284,482.467 646.256,482.504 653.227,482.54 660.198,482.578 667.169,482.615 674.141,482.654 681.112,482.692 688.083,482.73 
  695.054,482.769 702.026,482.808 708.997,482.848 715.968,482.887 722.94,482.926 729.911,482.966 736.882,483.006 743.853,483.045 750.825,483.085 757.796,483.125 
  764.767,483.164 771.738,483.204 778.71,483.243 785.681,483.283 792.652,483.322 799.623,483.361 806.595,483.401 813.566,483.44 820.537,483.478 827.509,483.517 
  834.48,483.556 841.451,483.594 848.422,483.632 855.394,483.67 862.365,483.708 869.336,483.746 876.307,483.783 883.279,483.82 890.25,483.857 897.221,483.894 
  904.193,483.931 911.164,483.967 918.135,484.003 925.106,484.039 932.078,484.074 939.049,484.11 946.02,484.145 952.991,484.179 959.963,484.214 966.934,484.248 
  973.905,484.282 980.876,484.316 987.848,484.35 994.819,484.383 1001.79,484.416 1008.76,484.449 1015.73,484.481 1022.7,484.513 1029.68,484.545 1036.65,484.577 
  1043.62,484.608 1050.59,484.639 1057.56,484.67 1064.53,484.701 1071.5,484.731 1078.47,484.761 1085.45,484.791 1092.42,484.821 1099.39,484.85 1106.36,484.879 
  1113.33,484.908 1120.3,484.936 1127.27,484.964 1134.24,484.992 1141.22,485.02 1148.19,485.048 1155.16,485.075 1162.13,485.102 1169.1,485.129 1176.07,485.155 
  1183.04,485.182 1190.01,485.208 1196.99,485.233 1203.96,485.259 1210.93,485.284 1217.9,485.309 1224.87,485.334 1231.84,485.359 1238.81,485.383 1245.78,485.407 
  1252.76,485.431 
  "/>
<polyline clip-path="url(#clip452)" style="stroke:#008900; stroke-linecap:butt; stroke-linejoin:round; stroke-width:16; stroke-opacity:1; fill:none" points="
  207.066,487.626 214.037,487.58 221.008,487.593 227.98,487.605 234.951,487.616 241.922,487.626 248.893,487.636 255.865,487.646 262.836,487.655 269.807,487.663 
  276.778,487.671 283.75,487.679 290.721,487.686 297.692,487.693 304.663,487.7 311.635,487.706 318.606,487.712 325.577,487.717 332.549,487.723 339.52,487.728 
  346.491,487.732 353.462,487.737 360.434,487.741 367.405,487.745 374.376,487.749 381.347,487.753 388.319,487.757 395.29,487.76 402.261,487.763 409.233,487.766 
  416.204,487.769 423.175,487.772 430.146,487.775 437.118,487.777 444.089,487.779 451.06,487.782 458.031,487.784 465.003,487.786 471.974,487.788 478.945,487.79 
  485.916,487.792 492.888,487.793 499.859,487.795 506.83,487.796 513.802,487.798 520.773,487.799 527.744,487.801 534.715,487.802 541.687,487.803 548.658,487.804 
  555.629,487.805 562.6,487.806 569.572,487.807 576.543,487.808 583.514,487.809 590.485,487.81 597.457,487.811 604.428,487.812 611.399,487.813 618.371,487.813 
  625.342,487.814 632.313,487.815 639.284,487.815 646.256,487.816 653.227,487.817 660.198,487.817 667.169,487.818 674.141,487.818 681.112,487.819 688.083,487.819 
  695.054,487.82 702.026,487.82 708.997,487.821 715.968,487.821 722.94,487.821 729.911,487.822 736.882,487.822 743.853,487.822 750.825,487.823 757.796,487.823 
  764.767,487.823 771.738,487.824 778.71,487.824 785.681,487.824 792.652,487.825 799.623,487.825 806.595,487.825 813.566,487.825 820.537,487.826 827.509,487.826 
  834.48,487.826 841.451,487.826 848.422,487.827 855.394,487.827 862.365,487.827 869.336,487.827 876.307,487.827 883.279,487.828 890.25,487.828 897.221,487.828 
  904.193,487.828 911.164,487.828 918.135,487.828 925.106,487.829 932.078,487.829 939.049,487.829 946.02,487.829 952.991,487.829 959.963,487.829 966.934,487.829 
  973.905,487.83 980.876,487.83 987.848,487.83 994.819,487.83 1001.79,487.83 1008.76,487.83 1015.73,487.83 1022.7,487.83 1029.68,487.831 1036.65,487.831 
  1043.62,487.831 1050.59,487.831 1057.56,487.831 1064.53,487.831 1071.5,487.831 1078.47,487.831 1085.45,487.831 1092.42,487.831 1099.39,487.832 1106.36,487.832 
  1113.33,487.832 1120.3,487.832 1127.27,487.832 1134.24,487.832 1141.22,487.832 1148.19,487.832 1155.16,487.832 1162.13,487.832 1169.1,487.832 1176.07,487.833 
  1183.04,487.833 1190.01,487.833 1196.99,487.833 1203.96,487.833 1210.93,487.833 1217.9,487.833 1224.87,487.833 1231.84,487.833 1238.81,487.833 1245.78,487.833 
  1252.76,487.833 
  "/>
<polyline clip-path="url(#clip452)" style="stroke:#7f7f7f; stroke-linecap:butt; stroke-linejoin:round; stroke-width:16; stroke-opacity:1; fill:none" points="
  207.066,60.077 214.037,133.824 221.008,209.727 227.98,253.112 234.951,282.252 241.922,303.643 248.893,320.263 255.865,333.695 262.836,344.871 269.807,354.378 
  276.778,362.609 283.75,369.839 290.721,376.264 297.692,382.03 304.663,387.249 311.635,392.007 318.606,396.372 325.577,400.398 332.549,404.13 339.52,407.604 
  346.491,410.851 353.462,413.895 360.434,416.758 367.405,419.459 374.376,422.012 381.347,424.433 388.319,426.732 395.29,428.919 402.261,431.004 409.233,432.995 
  416.204,434.899 423.175,436.721 430.146,438.469 437.118,440.145 444.089,441.756 451.06,443.305 458.031,444.796 465.003,446.232 471.974,447.616 478.945,448.951 
  485.916,450.239 492.888,451.483 499.859,452.685 506.83,453.846 513.802,454.97 520.773,456.056 527.744,457.107 534.715,458.124 541.687,459.109 548.658,460.062 
  555.629,460.986 562.6,461.88 569.572,462.746 576.543,463.585 583.514,464.398 590.485,465.186 597.457,465.949 604.428,466.688 611.399,467.405 618.371,468.099 
  625.342,468.771 632.313,469.422 639.284,470.053 646.256,470.664 653.227,471.256 660.198,471.828 667.169,472.383 674.141,472.92 681.112,473.44 688.083,473.943 
  695.054,474.429 702.026,474.9 708.997,475.356 715.968,475.796 722.94,476.222 729.911,476.634 736.882,477.032 743.853,477.417 750.825,477.789 757.796,478.148 
  764.767,478.495 771.738,478.83 778.71,479.154 785.681,479.466 792.652,479.768 799.623,480.059 806.595,480.34 813.566,480.611 820.537,480.873 827.509,481.125 
  834.48,481.368 841.451,481.603 848.422,481.829 855.394,482.047 862.365,482.257 869.336,482.46 876.307,482.655 883.279,482.843 890.25,483.024 897.221,483.199 
  904.193,483.367 911.164,483.529 918.135,483.684 925.106,483.834 932.078,483.979 939.049,484.118 946.02,484.252 952.991,484.381 959.963,484.505 966.934,484.624 
  973.905,484.739 980.876,484.85 987.848,484.956 994.819,485.058 1001.79,485.157 1008.76,485.252 1015.73,485.343 1022.7,485.43 1029.68,485.515 1036.65,485.596 
  1043.62,485.674 1050.59,485.749 1057.56,485.821 1064.53,485.89 1071.5,485.957 1078.47,486.021 1085.45,486.083 1092.42,486.143 1099.39,486.2 1106.36,486.255 
  1113.33,486.308 1120.3,486.359 1127.27,486.407 1134.24,486.455 1141.22,486.5 1148.19,486.543 1155.16,486.585 1162.13,486.626 1169.1,486.664 1176.07,486.702 
  1183.04,486.738 1190.01,486.772 1196.99,486.805 1203.96,486.837 1210.93,486.868 1217.9,486.898 1224.87,486.926 1231.84,486.954 1238.81,486.98 1245.78,487.006 
  1252.76,487.03 
  "/>
<polyline clip-path="url(#clip452)" style="stroke:#895f55; stroke-linecap:butt; stroke-linejoin:round; stroke-width:16; stroke-opacity:1; fill:none" points="
  214.037,487.416 221.008,487.098 227.98,486.716 234.951,486.358 241.922,486.022 248.893,485.709 255.865,485.415 262.836,485.141 269.807,484.886 276.778,484.647 
  283.75,484.425 290.721,484.219 297.692,484.026 304.663,483.848 311.635,483.682 318.606,483.529 325.577,483.387 332.549,483.257 339.52,483.136 346.491,483.025 
  353.462,482.924 360.434,482.831 367.405,482.746 374.376,482.669 381.347,482.599 388.319,482.536 395.29,482.48 402.261,482.43 409.233,482.385 416.204,482.346 
  423.175,482.312 430.146,482.283 437.118,482.259 444.089,482.239 451.06,482.222 458.031,482.21 465.003,482.201 471.974,482.196 478.945,482.193 485.916,482.194 
  492.888,482.197 499.859,482.204 506.83,482.212 513.802,482.223 520.773,482.236 527.744,482.251 534.715,482.268 541.687,482.286 548.658,482.307 555.629,482.329 
  562.6,482.352 569.572,482.377 576.543,482.403 583.514,482.43 590.485,482.458 597.457,482.487 604.428,482.517 611.399,482.548 618.371,482.58 625.342,482.612 
  632.313,482.645 639.284,482.679 646.256,482.713 653.227,482.748 660.198,482.783 667.169,482.819 674.141,482.855 681.112,482.891 688.083,482.928 695.054,482.964 
  702.026,483.001 708.997,483.039 715.968,483.076 722.94,483.114 729.911,483.151 736.882,483.189 743.853,483.227 750.825,483.265 757.796,483.303 764.767,483.341 
  771.738,483.378 778.71,483.416 785.681,483.454 792.652,483.492 799.623,483.529 806.595,483.567 813.566,483.604 820.537,483.641 827.509,483.678 834.48,483.715 
  841.451,483.752 848.422,483.789 855.394,483.825 862.365,483.861 869.336,483.898 876.307,483.933 883.279,483.969 890.25,484.005 897.221,484.04 904.193,484.075 
  911.164,484.11 918.135,484.144 925.106,484.179 932.078,484.213 939.049,484.247 946.02,484.281 952.991,484.314 959.963,484.347 966.934,484.38 973.905,484.413 
  980.876,484.445 987.848,484.478 994.819,484.51 1001.79,484.541 1008.76,484.573 1015.73,484.604 1022.7,484.635 1029.68,484.666 1036.65,484.696 1043.62,484.726 
  1050.59,484.756 1057.56,484.786 1064.53,484.816 1071.5,484.845 1078.47,484.874 1085.45,484.902 1092.42,484.931 1099.39,484.959 1106.36,484.987 1113.33,485.015 
  1120.3,485.042 1127.27,485.069 1134.24,485.096 1141.22,485.123 1148.19,485.15 1155.16,485.176 1162.13,485.202 1169.1,485.228 1176.07,485.253 1183.04,485.278 
  1190.01,485.303 1196.99,485.328 1203.96,485.353 1210.93,485.377 1217.9,485.401 1224.87,485.425 1231.84,485.449 1238.81,485.473 1245.78,485.496 1252.76,485.519 
  
  "/>
<polyline clip-path="url(#clip452)" style="stroke:#2000d4; stroke-linecap:butt; stroke-linejoin:round; stroke-width:16; stroke-opacity:1; fill:none" stroke-dasharray="64, 40" points="
  207.066,487.84 214.037,487.84 221.008,487.84 227.98,487.84 234.951,487.84 241.922,487.84 248.893,487.84 255.865,487.84 262.836,487.84 269.807,487.84 
  276.778,487.84 283.75,487.84 290.721,487.839 297.692,487.839 304.663,487.839 311.635,487.839 318.606,487.839 325.577,487.839 332.549,487.839 339.52,487.839 
  346.491,487.839 353.462,487.839 360.434,487.839 367.405,487.839 374.376,487.839 381.347,487.839 388.319,487.839 395.29,487.839 402.261,487.839 409.233,487.839 
  416.204,487.839 423.175,487.839 430.146,487.839 437.118,487.839 444.089,487.839 451.06,487.839 458.031,487.839 465.003,487.839 471.974,487.839 478.945,487.839 
  485.916,487.839 492.888,487.839 499.859,487.839 506.83,487.839 513.802,487.839 520.773,487.839 527.744,487.839 534.715,487.839 541.687,487.839 548.658,487.839 
  555.629,487.839 562.6,487.839 569.572,487.839 576.543,487.839 583.514,487.839 590.485,487.839 597.457,487.839 604.428,487.839 611.399,487.839 618.371,487.839 
  625.342,487.839 632.313,487.839 639.284,487.839 646.256,487.839 653.227,487.839 660.198,487.839 667.169,487.839 674.141,487.839 681.112,487.839 688.083,487.839 
  695.054,487.839 702.026,487.839 708.997,487.839 715.968,487.839 722.94,487.839 729.911,487.839 736.882,487.839 743.853,487.839 750.825,487.839 757.796,487.839 
  764.767,487.839 771.738,487.839 778.71,487.839 785.681,487.839 792.652,487.839 799.623,487.839 806.595,487.839 813.566,487.839 820.537,487.839 827.509,487.839 
  834.48,487.839 841.451,487.839 848.422,487.839 855.394,487.839 862.365,487.839 869.336,487.839 876.307,487.839 883.279,487.839 890.25,487.839 897.221,487.839 
  904.193,487.839 911.164,487.839 918.135,487.839 925.106,487.839 932.078,487.839 939.049,487.839 946.02,487.839 952.991,487.839 959.963,487.839 966.934,487.839 
  973.905,487.839 980.876,487.839 987.848,487.839 994.819,487.839 1001.79,487.839 1008.76,487.839 1015.73,487.839 1022.7,487.839 1029.68,487.839 1036.65,487.839 
  1043.62,487.839 1050.59,487.839 1057.56,487.839 1064.53,487.839 1071.5,487.839 1078.47,487.839 1085.45,487.839 1092.42,487.839 1099.39,487.839 1106.36,487.839 
  1113.33,487.839 1120.3,487.839 1127.27,487.839 1134.24,487.839 1141.22,487.839 1148.19,487.839 1155.16,487.839 1162.13,487.839 1169.1,487.839 1176.07,487.839 
  1183.04,487.839 1190.01,487.839 1196.99,487.839 1203.96,487.839 1210.93,487.839 1217.9,487.839 1224.87,487.839 1231.84,487.839 1238.81,487.839 1245.78,487.839 
  1252.76,487.839 
  "/>
<polyline clip-path="url(#clip452)" style="stroke:#ff221c; stroke-linecap:butt; stroke-linejoin:round; stroke-width:16; stroke-opacity:1; fill:none" points="
  207.066,145.801 214.037,145.727 221.008,145.705 227.98,145.692 234.951,145.684 241.922,145.679 248.893,145.675 255.865,145.671 262.836,145.668 269.807,145.666 
  276.778,145.663 283.75,145.661 290.721,145.658 297.692,145.656 304.663,145.654 311.635,145.652 318.606,145.65 325.577,145.649 332.549,145.647 339.52,145.645 
  346.491,145.644 353.462,145.642 360.434,145.641 367.405,145.64 374.376,145.639 381.347,145.637 388.319,145.636 395.29,145.635 402.261,145.634 409.233,145.633 
  416.204,145.632 423.175,145.631 430.146,145.631 437.118,145.63 444.089,145.629 451.06,145.628 458.031,145.628 465.003,145.627 471.974,145.626 478.945,145.626 
  485.916,145.625 492.888,145.624 499.859,145.624 506.83,145.623 513.802,145.623 520.773,145.622 527.744,145.622 534.715,145.622 541.687,145.621 548.658,145.621 
  555.629,145.62 562.6,145.62 569.572,145.62 576.543,145.619 583.514,145.619 590.485,145.619 597.457,145.619 604.428,145.618 611.399,145.618 618.371,145.618 
  625.342,145.618 632.313,145.617 639.284,145.617 646.256,145.617 653.227,145.617 660.198,145.616 667.169,145.616 674.141,145.616 681.112,145.616 688.083,145.616 
  695.054,145.616 702.026,145.615 708.997,145.615 715.968,145.615 722.94,145.615 729.911,145.615 736.882,145.615 743.853,145.614 750.825,145.614 757.796,145.614 
  764.767,145.614 771.738,145.614 778.71,145.614 785.681,145.614 792.652,145.614 799.623,145.614 806.595,145.613 813.566,145.613 820.537,145.613 827.509,145.613 
  834.48,145.613 841.451,145.613 848.422,145.613 855.394,145.613 862.365,145.613 869.336,145.613 876.307,145.613 883.279,145.613 890.25,145.612 897.221,145.612 
  904.193,145.612 911.164,145.612 918.135,145.612 925.106,145.612 932.078,145.612 939.049,145.612 946.02,145.612 952.991,145.612 959.963,145.612 966.934,145.612 
  973.905,145.612 980.876,145.612 987.848,145.612 994.819,145.612 1001.79,145.611 1008.76,145.611 1015.73,145.611 1022.7,145.611 1029.68,145.611 1036.65,145.611 
  1043.62,145.611 1050.59,145.611 1057.56,145.611 1064.53,145.611 1071.5,145.611 1078.47,145.611 1085.45,145.611 1092.42,145.611 1099.39,145.611 1106.36,145.611 
  1113.33,145.611 1120.3,145.611 1127.27,145.611 1134.24,145.611 1141.22,145.611 1148.19,145.611 1155.16,145.61 1162.13,145.61 1169.1,145.61 1176.07,145.61 
  1183.04,145.61 1190.01,145.61 1196.99,145.61 1203.96,145.61 1210.93,145.61 1217.9,145.61 1224.87,145.61 1231.84,145.61 1238.81,145.61 1245.78,145.61 
  1252.76,145.61 
  "/>
<polyline clip-path="url(#clip452)" style="stroke:#000000; stroke-linecap:butt; stroke-linejoin:round; stroke-width:16; stroke-opacity:1; fill:none" stroke-dasharray="8, 16" points="
  207.066,60.077 214.037,60.5004 221.008,60.8889 227.98,61.3357 234.951,61.7683 241.922,62.1757 248.893,62.5573 255.865,62.9142 262.836,63.2475 269.807,63.5588 
  276.778,63.849 283.75,64.1195 290.721,64.3713 297.692,64.6055 304.663,64.823 311.635,65.0248 318.606,65.2117 325.577,65.3846 332.549,65.5443 339.52,65.6914 
  346.491,65.8267 353.462,65.9509 360.434,66.0645 367.405,66.1682 374.376,66.2625 381.347,66.348 388.319,66.4251 395.29,66.4943 402.261,66.5561 409.233,66.6109 
  416.204,66.6591 423.175,66.7011 430.146,66.7371 437.118,66.7677 444.089,66.793 451.06,66.8135 458.031,66.8293 465.003,66.8408 471.974,66.8482 478.945,66.8517 
  485.916,66.8517 492.888,66.8482 499.859,66.8416 506.83,66.8319 513.802,66.8195 520.773,66.8044 527.744,66.7869 534.715,66.7671 541.687,66.7451 548.658,66.7211 
  555.629,66.6953 562.6,66.6676 569.572,66.6384 576.543,66.6076 583.514,66.5754 590.485,66.5419 597.457,66.5072 604.428,66.4713 611.399,66.4345 618.371,66.3966 
  625.342,66.3579 632.313,66.3183 639.284,66.278 646.256,66.2371 653.227,66.1955 660.198,66.1534 667.169,66.1107 674.141,66.0676 681.112,66.0241 688.083,65.9803 
  695.054,65.9361 702.026,65.8916 708.997,65.847 715.968,65.8021 722.94,65.757 729.911,65.7118 736.882,65.6665 743.853,65.6212 750.825,65.5758 757.796,65.5303 
  764.767,65.4849 771.738,65.4395 778.71,65.3942 785.681,65.3489 792.652,65.3037 799.623,65.2585 806.595,65.2136 813.566,65.1687 820.537,65.124 827.509,65.0794 
  834.48,65.035 841.451,64.9908 848.422,64.9468 855.394,64.903 862.365,64.8595 869.336,64.8161 876.307,64.773 883.279,64.7301 890.25,64.6874 897.221,64.6451 
  904.193,64.6029 911.164,64.5611 918.135,64.5195 925.106,64.4781 932.078,64.4371 939.049,64.3963 946.02,64.3558 952.991,64.3156 959.963,64.2757 966.934,64.2361 
  973.905,64.1968 980.876,64.1578 987.848,64.119 994.819,64.0806 1001.79,64.0425 1008.76,64.0046 1015.73,63.9671 1022.7,63.9299 1029.68,63.893 1036.65,63.8564 
  1043.62,63.8201 1050.59,63.784 1057.56,63.7483 1064.53,63.7129 1071.5,63.6778 1078.47,63.643 1085.45,63.6085 1092.42,63.5743 1099.39,63.5404 1106.36,63.5068 
  1113.33,63.4735 1120.3,63.4405 1127.27,63.4078 1134.24,63.3754 1141.22,63.3432 1148.19,63.3114 1155.16,63.2798 1162.13,63.2485 1169.1,63.2176 1176.07,63.1869 
  1183.04,63.1564 1190.01,63.1263 1196.99,63.0964 1203.96,63.0668 1210.93,63.0375 1217.9,63.0085 1224.87,62.9797 1231.84,62.9512 1238.81,62.923 1245.78,62.895 
  1252.76,62.8673 
  "/>
</svg>
