<?xml version="1.0" encoding="utf-8"?>
<svg xmlns="http://www.w3.org/2000/svg" xmlns:xlink="http://www.w3.org/1999/xlink" width="325" height="200" viewBox="0 0 1300 800">
<defs>
  <clipPath id="clip530">
    <rect x="0" y="0" width="1300" height="800"/>
  </clipPath>
</defs>
<path clip-path="url(#clip530)" d="
M0 800 L1300 800 L1300 0 L0 0  Z
  " fill="#ffffff" fill-rule="evenodd" fill-opacity="1"/>
<defs>
  <clipPath id="clip531">
    <rect x="260" y="0" width="911" height="800"/>
  </clipPath>
</defs>
<path clip-path="url(#clip530)" d="
M297.569 653.338 L1252.76 653.338 L1252.76 47.2441 L297.569 47.2441  Z
  " fill="#ffffff" fill-rule="evenodd" fill-opacity="1"/>
<defs>
  <clipPath id="clip532">
    <rect x="297" y="47" width="956" height="607"/>
  </clipPath>
</defs>
<polyline clip-path="url(#clip530)" style="stroke:#000000; stroke-linecap:butt; stroke-linejoin:round; stroke-width:4; stroke-opacity:1; fill:none" points="
  297.569,653.338 1252.76,653.338 
  "/>
<polyline clip-path="url(#clip530)" style="stroke:#000000; stroke-linecap:butt; stroke-linejoin:round; stroke-width:4; stroke-opacity:1; fill:none" points="
  297.569,653.338 297.569,634.44 
  "/>
<polyline clip-path="url(#clip530)" style="stroke:#000000; stroke-linecap:butt; stroke-linejoin:round; stroke-width:4; stroke-opacity:1; fill:none" points="
  615.965,653.338 615.965,634.44 
  "/>
<polyline clip-path="url(#clip530)" style="stroke:#000000; stroke-linecap:butt; stroke-linejoin:round; stroke-width:4; stroke-opacity:1; fill:none" points="
  934.36,653.338 934.36,634.44 
  "/>
<polyline clip-path="url(#clip530)" style="stroke:#000000; stroke-linecap:butt; stroke-linejoin:round; stroke-width:4; stroke-opacity:1; fill:none" points="
  1252.76,653.338 1252.76,634.44 
  "/>
<path clip-path="url(#clip530)" d="M209.859 759.857 L223.227 759.857 L223.227 713.717 L208.685 716.633 L208.685 709.18 L223.146 706.263 L231.329 706.263 L231.329 759.857 L244.697 759.857 L244.697 766.743 L209.859 766.743 L209.859 759.857 Z" fill="#000000" fill-rule="evenodd" fill-opacity="1" /><path clip-path="url(#clip530)" d="M278.725 711.651 Q272.405 711.651 269.205 717.889 Q266.045 724.087 266.045 736.564 Q266.045 749 269.205 755.239 Q272.405 761.436 278.725 761.436 Q285.085 761.436 288.244 755.239 Q291.445 749 291.445 736.564 Q291.445 724.087 288.244 717.889 Q285.085 711.651 278.725 711.651 M278.725 705.169 Q288.892 705.169 294.24 713.231 Q299.627 721.251 299.627 736.564 Q299.627 751.836 294.24 759.897 Q288.892 767.918 278.725 767.918 Q268.557 767.918 263.169 759.897 Q257.822 751.836 257.822 736.564 Q257.822 721.251 263.169 713.231 Q268.557 705.169 278.725 705.169 Z" fill="#000000" fill-rule="evenodd" fill-opacity="1" /><path clip-path="url(#clip530)" d="M299.627 694.847 L341.823 694.847 L341.823 700.442 L299.627 700.442 L299.627 694.847 Z" fill="#000000" fill-rule="evenodd" fill-opacity="1" /><path clip-path="url(#clip530)" d="M376.316 692.279 Q381.089 693.3 383.755 696.525 Q386.453 699.751 386.453 704.49 Q386.453 711.764 381.451 715.747 Q376.448 719.729 367.232 719.729 Q364.138 719.729 360.847 719.104 Q357.588 718.512 354.099 717.294 L354.099 710.876 Q356.864 712.488 360.155 713.311 Q363.447 714.134 367.034 714.134 Q373.288 714.134 376.546 711.666 Q379.838 709.197 379.838 704.49 Q379.838 700.146 376.777 697.71 Q373.749 695.242 368.318 695.242 L362.591 695.242 L362.591 689.778 L368.581 689.778 Q373.485 689.778 376.086 687.836 Q378.686 685.861 378.686 682.175 Q378.686 678.39 375.987 676.382 Q373.321 674.342 368.318 674.342 Q365.586 674.342 362.459 674.934 Q359.333 675.526 355.58 676.777 L355.58 670.853 Q359.366 669.799 362.657 669.273 Q365.981 668.746 368.91 668.746 Q376.481 668.746 380.891 672.202 Q385.301 675.625 385.301 681.484 Q385.301 685.565 382.965 688.396 Q380.628 691.193 376.316 692.279 Z" fill="#000000" fill-rule="evenodd" fill-opacity="1" /><path clip-path="url(#clip530)" d="M528.93 759.857 L542.298 759.857 L542.298 713.717 L527.755 716.633 L527.755 709.18 L542.217 706.263 L550.399 706.263 L550.399 759.857 L563.767 759.857 L563.767 766.743 L528.93 766.743 L528.93 759.857 Z" fill="#000000" fill-rule="evenodd" fill-opacity="1" /><path clip-path="url(#clip530)" d="M597.795 711.651 Q591.476 711.651 588.275 717.889 Q585.116 724.087 585.116 736.564 Q585.116 749 588.275 755.239 Q591.476 761.436 597.795 761.436 Q604.155 761.436 607.315 755.239 Q610.515 749 610.515 736.564 Q610.515 724.087 607.315 717.889 Q604.155 711.651 597.795 711.651 M597.795 705.169 Q607.963 705.169 613.31 713.231 Q618.698 721.251 618.698 736.564 Q618.698 751.836 613.31 759.897 Q607.963 767.918 597.795 767.918 Q587.627 767.918 582.24 759.897 Q576.892 751.836 576.892 736.564 Q576.892 721.251 582.24 713.231 Q587.627 705.169 597.795 705.169 Z" fill="#000000" fill-rule="evenodd" fill-opacity="1" /><path clip-path="url(#clip530)" d="M618.698 694.847 L660.893 694.847 L660.893 700.442 L618.698 700.442 L618.698 694.847 Z" fill="#000000" fill-rule="evenodd" fill-opacity="1" /><path clip-path="url(#clip530)" d="M680.97 713.18 L704.174 713.18 L704.174 718.775 L672.972 718.775 L672.972 713.18 Q676.757 709.263 683.274 702.68 Q689.824 696.065 691.503 694.156 Q694.695 690.568 695.946 688.099 Q697.23 685.598 697.23 683.195 Q697.23 679.279 694.465 676.81 Q691.733 674.342 687.323 674.342 Q684.196 674.342 680.707 675.428 Q677.251 676.514 673.301 678.719 L673.301 672.005 Q677.317 670.392 680.806 669.569 Q684.295 668.746 687.191 668.746 Q694.827 668.746 699.369 672.564 Q703.911 676.382 703.911 682.767 Q703.911 685.795 702.759 688.527 Q701.64 691.226 698.645 694.913 Q697.822 695.867 693.412 700.442 Q689.001 704.984 680.97 713.18 Z" fill="#000000" fill-rule="evenodd" fill-opacity="1" /><path clip-path="url(#clip530)" d="M847.062 759.857 L860.43 759.857 L860.43 713.717 L845.887 716.633 L845.887 709.18 L860.349 706.263 L868.532 706.263 L868.532 759.857 L881.9 759.857 L881.9 766.743 L847.062 766.743 L847.062 759.857 Z" fill="#000000" fill-rule="evenodd" fill-opacity="1" /><path clip-path="url(#clip530)" d="M915.927 711.651 Q909.608 711.651 906.408 717.889 Q903.248 724.087 903.248 736.564 Q903.248 749 906.408 755.239 Q909.608 761.436 915.927 761.436 Q922.287 761.436 925.447 755.239 Q928.647 749 928.647 736.564 Q928.647 724.087 925.447 717.889 Q922.287 711.651 915.927 711.651 M915.927 705.169 Q926.095 705.169 931.442 713.231 Q936.83 721.251 936.83 736.564 Q936.83 751.836 931.442 759.897 Q926.095 767.918 915.927 767.918 Q905.76 767.918 900.372 759.897 Q895.025 751.836 895.025 736.564 Q895.025 721.251 900.372 713.231 Q905.76 705.169 915.927 705.169 Z" fill="#000000" fill-rule="evenodd" fill-opacity="1" /><path clip-path="url(#clip530)" d="M936.83 694.847 L979.025 694.847 L979.025 700.442 L936.83 700.442 L936.83 694.847 Z" fill="#000000" fill-rule="evenodd" fill-opacity="1" /><path clip-path="url(#clip530)" d="M994.528 713.18 L1005.39 713.18 L1005.39 675.691 L993.573 678.061 L993.573 672.005 L1005.32 669.635 L1011.97 669.635 L1011.97 713.18 L1022.83 713.18 L1022.83 718.775 L994.528 718.775 L994.528 713.18 Z" fill="#000000" fill-rule="evenodd" fill-opacity="1" /><path clip-path="url(#clip530)" d="M1191.48 759.857 L1204.84 759.857 L1204.84 713.717 L1190.3 716.633 L1190.3 709.18 L1204.76 706.263 L1212.95 706.263 L1212.95 759.857 L1226.31 759.857 L1226.31 766.743 L1191.48 766.743 L1191.48 759.857 Z" fill="#000000" fill-rule="evenodd" fill-opacity="1" /><path clip-path="url(#clip530)" d="M1260.34 711.651 Q1254.02 711.651 1250.82 717.889 Q1247.66 724.087 1247.66 736.564 Q1247.66 749 1250.82 755.239 Q1254.02 761.436 1260.34 761.436 Q1266.7 761.436 1269.86 755.239 Q1273.06 749 1273.06 736.564 Q1273.06 724.087 1269.86 717.889 Q1266.7 711.651 1260.34 711.651 M1260.34 705.169 Q1270.51 705.169 1275.86 713.231 Q1281.24 721.251 1281.24 736.564 Q1281.24 751.836 1275.86 759.897 Q1270.51 767.918 1260.34 767.918 Q1250.17 767.918 1244.79 759.897 Q1239.44 751.836 1239.44 736.564 Q1239.44 721.251 1244.79 713.231 Q1250.17 705.169 1260.34 705.169 Z" fill="#000000" fill-rule="evenodd" fill-opacity="1" /><path clip-path="url(#clip530)" d="M1298.23 674.012 Q1293.09 674.012 1290.49 679.081 Q1287.93 684.117 1287.93 694.254 Q1287.93 704.359 1290.49 709.427 Q1293.09 714.463 1298.23 714.463 Q1303.39 714.463 1305.96 709.427 Q1308.56 704.359 1308.56 694.254 Q1308.56 684.117 1305.96 679.081 Q1303.39 674.012 1298.23 674.012 M1298.23 668.746 Q1306.49 668.746 1310.83 675.296 Q1315.21 681.813 1315.21 694.254 Q1315.21 706.663 1310.83 713.212 Q1306.49 719.729 1298.23 719.729 Q1289.97 719.729 1285.59 713.212 Q1281.24 706.663 1281.24 694.254 Q1281.24 681.813 1285.59 675.296 Q1289.97 668.746 1298.23 668.746 Z" fill="#000000" fill-rule="evenodd" fill-opacity="1" /><polyline clip-path="url(#clip530)" style="stroke:#000000; stroke-linecap:butt; stroke-linejoin:round; stroke-width:4; stroke-opacity:1; fill:none" points="
  297.569,653.338 297.569,47.2441 
  "/>
<polyline clip-path="url(#clip530)" style="stroke:#000000; stroke-linecap:butt; stroke-linejoin:round; stroke-width:4; stroke-opacity:1; fill:none" points="
  297.569,653.338 316.467,653.338 
  "/>
<polyline clip-path="url(#clip530)" style="stroke:#000000; stroke-linecap:butt; stroke-linejoin:round; stroke-width:4; stroke-opacity:1; fill:none" points="
  297.569,370.089 316.467,370.089 
  "/>
<polyline clip-path="url(#clip530)" style="stroke:#000000; stroke-linecap:butt; stroke-linejoin:round; stroke-width:4; stroke-opacity:1; fill:none" points="
  297.569,86.8406 316.467,86.8406 
  "/>
<path clip-path="url(#clip530)" d="M57.6669 687.975 L71.0349 687.975 L71.0349 641.835 L56.4921 644.752 L56.4921 637.298 L70.9539 634.381 L79.1367 634.381 L79.1367 687.975 L92.5047 687.975 L92.5047 694.861 L57.6669 694.861 L57.6669 687.975 Z" fill="#000000" fill-rule="evenodd" fill-opacity="1" /><path clip-path="url(#clip530)" d="M126.532 639.769 Q120.213 639.769 117.013 646.007 Q113.853 652.205 113.853 664.682 Q113.853 677.118 117.013 683.357 Q120.213 689.555 126.532 689.555 Q132.892 689.555 136.052 683.357 Q139.252 677.118 139.252 664.682 Q139.252 652.205 136.052 646.007 Q132.892 639.769 126.532 639.769 M126.532 633.288 Q136.7 633.288 142.047 641.349 Q147.435 649.37 147.435 664.682 Q147.435 679.954 142.047 688.015 Q136.7 696.036 126.532 696.036 Q116.364 696.036 110.977 688.015 Q105.63 679.954 105.63 664.682 Q105.63 649.37 110.977 641.349 Q116.364 633.288 126.532 633.288 Z" fill="#000000" fill-rule="evenodd" fill-opacity="1" /><path clip-path="url(#clip530)" d="M147.435 622.965 L189.63 622.965 L189.63 628.56 L147.435 628.56 L147.435 622.965 Z" fill="#000000" fill-rule="evenodd" fill-opacity="1" /><path clip-path="url(#clip530)" d="M205.132 641.298 L215.994 641.298 L215.994 603.809 L204.178 606.179 L204.178 600.123 L215.928 597.753 L222.577 597.753 L222.577 641.298 L233.438 641.298 L233.438 646.893 L205.132 646.893 L205.132 641.298 Z" fill="#000000" fill-rule="evenodd" fill-opacity="1" /><path clip-path="url(#clip530)" d="M261.086 602.131 Q255.951 602.131 253.351 607.199 Q250.784 612.235 250.784 622.373 Q250.784 632.477 253.351 637.546 Q255.951 642.582 261.086 642.582 Q266.253 642.582 268.82 637.546 Q271.42 632.477 271.42 622.373 Q271.42 612.235 268.82 607.199 Q266.253 602.131 261.086 602.131 M261.086 596.865 Q269.347 596.865 273.691 603.414 Q278.069 609.931 278.069 622.373 Q278.069 634.781 273.691 641.331 Q269.347 647.848 261.086 647.848 Q252.824 647.848 248.447 641.331 Q244.102 634.781 244.102 622.373 Q244.102 609.931 248.447 603.414 Q252.824 596.865 261.086 596.865 Z" fill="#000000" fill-rule="evenodd" fill-opacity="1" /><path clip-path="url(#clip530)" d="M101.969 404.726 L115.337 404.726 L115.337 358.586 L100.794 361.503 L100.794 354.049 L115.256 351.133 L123.438 351.133 L123.438 404.726 L136.806 404.726 L136.806 411.613 L101.969 411.613 L101.969 404.726 Z" fill="#000000" fill-rule="evenodd" fill-opacity="1" /><path clip-path="url(#clip530)" d="M170.834 356.52 Q164.515 356.52 161.314 362.759 Q158.155 368.957 158.155 381.433 Q158.155 393.87 161.314 400.108 Q164.515 406.306 170.834 406.306 Q177.194 406.306 180.354 400.108 Q183.554 393.87 183.554 381.433 Q183.554 368.957 180.354 362.759 Q177.194 356.52 170.834 356.52 M170.834 350.039 Q181.002 350.039 186.349 358.1 Q191.737 366.121 191.737 381.433 Q191.737 396.705 186.349 404.767 Q181.002 412.787 170.834 412.787 Q160.666 412.787 155.278 404.767 Q149.931 396.705 149.931 381.433 Q149.931 366.121 155.278 358.1 Q160.666 350.039 170.834 350.039 Z" fill="#000000" fill-rule="evenodd" fill-opacity="1" /><path clip-path="url(#clip530)" d="M191.737 339.716 L233.932 339.716 L233.932 345.312 L191.737 345.312 L191.737 339.716 Z" fill="#000000" fill-rule="evenodd" fill-opacity="1" /><path clip-path="url(#clip530)" d="M248.348 314.504 L274.448 314.504 L274.448 320.1 L254.437 320.1 L254.437 332.146 Q255.885 331.652 257.333 331.422 Q258.782 331.159 260.23 331.159 Q268.458 331.159 273.264 335.668 Q278.069 340.177 278.069 347.879 Q278.069 355.811 273.132 360.221 Q268.195 364.599 259.21 364.599 Q256.116 364.599 252.89 364.072 Q249.697 363.546 246.274 362.492 L246.274 355.811 Q249.237 357.424 252.396 358.214 Q255.556 359.004 259.078 359.004 Q264.772 359.004 268.096 356.008 Q271.42 353.013 271.42 347.879 Q271.42 342.744 268.096 339.749 Q264.772 336.754 259.078 336.754 Q256.412 336.754 253.746 337.346 Q251.113 337.939 248.348 339.19 L248.348 314.504 Z" fill="#000000" fill-rule="evenodd" fill-opacity="1" /><path clip-path="url(#clip530)" d="M154.334 121.477 L167.702 121.477 L167.702 75.3375 L153.159 78.2542 L153.159 70.8005 L167.621 67.8839 L175.804 67.8839 L175.804 121.477 L189.172 121.477 L189.172 128.364 L154.334 128.364 L154.334 121.477 Z" fill="#000000" fill-rule="evenodd" fill-opacity="1" /><path clip-path="url(#clip530)" d="M223.199 73.2716 Q216.88 73.2716 213.68 79.51 Q210.52 85.7079 210.52 98.1846 Q210.52 110.621 213.68 116.859 Q216.88 123.057 223.199 123.057 Q229.559 123.057 232.719 116.859 Q235.919 110.621 235.919 98.1846 Q235.919 85.7079 232.719 79.51 Q229.559 73.2716 223.199 73.2716 M223.199 66.7901 Q233.367 66.7901 238.714 74.8514 Q244.102 82.8722 244.102 98.1846 Q244.102 113.457 238.714 121.518 Q233.367 129.539 223.199 129.539 Q213.032 129.539 207.644 121.518 Q202.297 113.457 202.297 98.1846 Q202.297 82.8722 207.644 74.8514 Q213.032 66.7901 223.199 66.7901 Z" fill="#000000" fill-rule="evenodd" fill-opacity="1" /><path clip-path="url(#clip530)" d="M261.086 35.6332 Q255.951 35.6332 253.351 40.7019 Q250.784 45.7377 250.784 55.875 Q250.784 65.9795 253.351 71.0482 Q255.951 76.084 261.086 76.084 Q266.253 76.084 268.82 71.0482 Q271.42 65.9795 271.42 55.875 Q271.42 45.7377 268.82 40.7019 Q266.253 35.6332 261.086 35.6332 M261.086 30.367 Q269.347 30.367 273.691 36.9168 Q278.069 43.4337 278.069 55.875 Q278.069 68.2835 273.691 74.8333 Q269.347 81.3502 261.086 81.3502 Q252.824 81.3502 248.447 74.8333 Q244.102 68.2835 244.102 55.875 Q244.102 43.4337 248.447 36.9168 Q252.824 30.367 261.086 30.367 Z" fill="#000000" fill-rule="evenodd" fill-opacity="1" /><polyline clip-path="url(#clip532)" style="stroke:#000000; stroke-linecap:butt; stroke-linejoin:round; stroke-width:16; stroke-opacity:1; fill:none" stroke-dasharray="8, 16" points="
  297.569,1244.35 313.489,1173.34 329.409,1105.22 345.328,1039.7 361.248,976.41 377.168,915.187 393.088,855.793 409.007,798.071 424.927,742.088 440.847,687.757 
  456.767,635.132 472.687,584.069 488.606,535.115 504.526,488.191 520.446,443.358 536.366,400.827 552.286,360.83 568.205,323.639 584.125,289.617 600.045,259.416 
  615.965,233.147 631.884,211.036 647.804,192.937 663.724,178.282 679.644,166.475 695.564,156.861 711.483,148.592 727.403,141.629 743.323,135.511 759.243,130.013 
  775.162,125.046 791.082,120.527 807.002,116.376 822.922,112.521 838.842,108.931 854.761,105.665 870.681,102.619 886.601,99.8128 902.521,97.2344 918.44,94.9146 
  934.36,92.8148 950.28,90.9268 966.2,89.2403 982.12,87.7951 998.039,86.9113 1013.96,86.8856 1029.88,86.8787 1045.8,86.8744 1061.72,86.871 1077.64,86.8686 
  1093.56,86.8661 1109.48,86.8633 1125.4,86.8603 1141.32,86.8592 1157.24,86.8579 1173.16,86.8563 1189.08,86.8543 1205,86.8518 1220.92,86.8487 1236.84,86.8449 
  1252.76,86.8406 
  "/>
<polyline clip-path="url(#clip532)" style="stroke:#000000; stroke-linecap:butt; stroke-linejoin:round; stroke-width:16; stroke-opacity:1; fill:none" stroke-dasharray="64, 40" points="
  297.569,418.081 313.489,360.266 329.409,310.155 345.328,268.16 361.248,234.812 377.168,209.721 393.088,191.255 409.007,177.527 424.927,166.953 440.847,158.436 
  456.767,151.38 472.687,145.359 488.606,140.082 504.526,135.352 520.446,131.091 536.366,127.169 552.286,123.565 568.205,120.196 584.125,117.042 600.045,114.094 
  615.965,111.315 631.884,108.693 647.804,106.221 663.724,103.89 679.644,101.709 695.564,99.6641 711.483,97.7621 727.403,96.0032 743.323,94.3919 759.243,92.9372 
  775.162,91.6421 791.082,90.51 807.002,89.5413 822.922,88.724 838.842,88.0305 854.761,87.4324 870.681,87.0032 886.601,86.9662 902.521,86.9428 918.44,86.926 
  934.36,86.9136 950.28,86.9038 966.2,86.896 982.12,86.8899 998.039,86.8842 1013.96,86.8805 1029.88,86.8766 1045.8,86.8731 1061.72,86.871 1077.64,86.8686 
  1093.56,86.8661 1109.48,86.8633 1125.4,86.8603 1141.32,86.8592 1157.24,86.8579 1173.16,86.8563 1189.08,86.8543 1205,86.8518 1220.92,86.8487 1236.84,86.8449 
  1252.76,86.8406 
  "/>
<polyline clip-path="url(#clip532)" style="stroke:#808080; stroke-linecap:butt; stroke-linejoin:round; stroke-width:16; stroke-opacity:1; fill:none" stroke-dasharray="8, 16" points="
  297.569,1814.34 313.489,1700.22 329.409,1591.99 345.328,1489.47 361.248,1392.27 377.168,1300.19 393.088,1212.91 409.007,1129.99 424.927,1051.21 440.847,976.254 
  456.767,904.691 472.687,836.423 488.606,771.182 504.526,708.991 520.446,649.547 536.366,592.737 552.286,538.848 568.205,487.768 584.125,439.412 600.045,393.964 
  615.965,351.956 631.884,313.202 647.804,277.995 663.724,246.708 679.644,219.736 695.564,197.295 711.483,179.168 727.403,164.651 743.323,152.853 759.243,143.458 
  775.162,135.482 791.082,128.654 807.002,122.754 822.922,117.578 838.842,112.945 854.761,108.769 870.681,105.026 886.601,101.659 902.521,98.6686 918.44,95.964 
  934.36,93.5513 950.28,91.4158 966.2,89.5178 982.12,87.9021 998.039,86.9167 1013.96,86.8848 1029.88,86.8768 1045.8,86.8716 1061.72,86.8673 1077.64,86.8648 
  1093.56,86.8621 1109.48,86.8593 1125.4,86.857 1141.32,86.8556 1157.24,86.8541 1173.16,86.8523 1189.08,86.8502 1205,86.848 1220.92,86.8455 1236.84,86.843 
  1252.76,86.8406 
  "/>
<polyline clip-path="url(#clip532)" style="stroke:#808080; stroke-linecap:butt; stroke-linejoin:round; stroke-width:16; stroke-opacity:1; fill:none" stroke-dasharray="64, 40" points="
  297.569,929.061 313.489,814.153 329.409,708.857 345.328,612.987 361.248,526.351 377.168,448.814 393.088,380.262 409.007,320.947 424.927,271.152 440.847,231.633 
  456.767,202.252 472.687,181.265 488.606,166.167 504.526,154.918 520.446,146.08 536.366,138.888 552.286,132.83 568.205,127.6 584.125,123.005 600.045,118.905 
  615.965,115.196 631.884,111.822 647.804,108.738 663.724,105.907 679.644,103.3 695.564,100.921 711.483,98.7392 727.403,96.7568 743.323,94.9666 759.243,93.3748 
  775.162,91.9752 791.082,90.7669 807.002,89.7403 822.922,88.8748 838.842,88.1294 854.761,87.4721 870.681,86.983 886.601,86.9392 902.521,86.9214 918.44,86.909 
  934.36,86.8995 950.28,86.8921 966.2,86.8861 982.12,86.8812 998.039,86.8771 1013.96,86.8737 1029.88,86.8701 1045.8,86.8678 1061.72,86.8656 1077.64,86.8632 
  1093.56,86.8607 1109.48,86.8582 1125.4,86.857 1141.32,86.8556 1157.24,86.8541 1173.16,86.8523 1189.08,86.8502 1205,86.848 1220.92,86.8455 1236.84,86.843 
  1252.76,86.8406 
  "/>
<polyline clip-path="url(#clip532)" style="stroke:#0000ff; stroke-linecap:butt; stroke-linejoin:round; stroke-width:16; stroke-opacity:1; fill:none" stroke-dasharray="8, 16" points="
  297.569,964.751 313.489,913.083 329.409,862.294 345.328,812.166 361.248,762.946 377.168,714.209 393.088,666.604 409.007,619.809 424.927,573.98 440.847,529.308 
  456.767,485.995 472.687,444.258 488.606,404.417 504.526,366.749 520.446,331.459 536.366,298.906 552.286,269.503 568.205,243.672 584.125,221.706 600.045,203.578 
  615.965,188.849 631.884,176.807 647.804,166.821 663.724,158.603 679.644,151.329 695.564,145.068 711.483,139.467 727.403,134.329 743.323,129.602 759.243,125.237 
  775.162,121.188 791.082,117.41 807.002,113.861 822.922,110.496 838.842,107.294 854.761,104.357 870.681,101.585 886.601,99.0053 902.521,96.624 918.44,94.4601 
  934.36,92.4904 950.28,90.7128 966.2,89.1193 982.12,87.7479 998.039,86.9058 1013.96,86.8787 1029.88,86.8719 1045.8,86.8677 1061.72,86.8648 1077.64,86.8623 
  1093.56,86.8598 1109.48,86.8582 1125.4,86.857 1141.32,86.8556 1157.24,86.8541 1173.16,86.8523 1189.08,86.8502 1205,86.848 1220.92,86.8455 1236.84,86.843 
  1252.76,86.8406 
  "/>
<polyline clip-path="url(#clip532)" style="stroke:#0000ff; stroke-linecap:butt; stroke-linejoin:round; stroke-width:16; stroke-opacity:1; fill:none" stroke-dasharray="64, 40" points="
  297.569,225.203 313.489,206.376 329.409,192.086 345.328,180.9 361.248,171.941 377.168,164.463 393.088,158.071 409.007,152.479 424.927,147.479 440.847,142.95 
  456.767,138.813 472.687,134.948 488.606,131.375 504.526,127.986 520.446,124.802 536.366,121.776 552.286,118.887 568.205,116.14 584.125,113.524 600.045,111.022 
  615.965,108.632 631.884,106.353 647.804,104.183 663.724,102.124 679.644,100.186 695.564,98.3572 711.483,96.6512 727.403,95.0769 743.323,93.634 759.243,92.33 
  775.162,91.174 791.082,90.1674 807.002,89.3056 822.922,88.574 838.842,87.9412 854.761,87.3809 870.681,86.9626 886.601,86.9251 902.521,86.91 918.44,86.8994 
  934.36,86.8913 950.28,86.885 966.2,86.8801 982.12,86.8758 998.039,86.8726 1013.96,86.8694 1029.88,86.8672 1045.8,86.8652 1061.72,86.863 1077.64,86.8608 
  1093.56,86.8591 1109.48,86.8582 1125.4,86.857 1141.32,86.8556 1157.24,86.8541 1173.16,86.8523 1189.08,86.8502 1205,86.848 1220.92,86.8455 1236.84,86.843 
  1252.76,86.8406 
  "/>
</svg>
