<?xml version="1.0" encoding="utf-8"?>
<svg xmlns="http://www.w3.org/2000/svg" xmlns:xlink="http://www.w3.org/1999/xlink" width="325" height="150" viewBox="0 0 1300 600">
<defs>
  <clipPath id="clip840">
    <rect x="0" y="0" width="1300" height="600"/>
  </clipPath>
</defs>
<path clip-path="url(#clip840)" d="
M0 600 L1300 600 L1300 0 L0 0  Z
  " fill="#ffffff" fill-rule="evenodd" fill-opacity="1"/>
<defs>
  <clipPath id="clip841">
    <rect x="260" y="0" width="911" height="600"/>
  </clipPath>
</defs>
<path clip-path="url(#clip840)" d="
M200.094 501.1 L1252.76 501.1 L1252.76 47.2441 L200.094 47.2441  Z
  " fill="#ffffff" fill-rule="evenodd" fill-opacity="1"/>
<defs>
  <clipPath id="clip842">
    <rect x="200" y="47" width="1054" height="455"/>
  </clipPath>
</defs>
<polyline clip-path="url(#clip840)" style="stroke:#000000; stroke-linecap:butt; stroke-linejoin:round; stroke-width:4; stroke-opacity:1; fill:none" points="
  200.094,501.1 1252.76,501.1 
  "/>
<polyline clip-path="url(#clip840)" style="stroke:#000000; stroke-linecap:butt; stroke-linejoin:round; stroke-width:4; stroke-opacity:1; fill:none" points="
  200.094,501.1 200.094,482.203 
  "/>
<polyline clip-path="url(#clip840)" style="stroke:#000000; stroke-linecap:butt; stroke-linejoin:round; stroke-width:4; stroke-opacity:1; fill:none" points="
  460.654,501.1 460.654,482.203 
  "/>
<polyline clip-path="url(#clip840)" style="stroke:#000000; stroke-linecap:butt; stroke-linejoin:round; stroke-width:4; stroke-opacity:1; fill:none" points="
  721.214,501.1 721.214,482.203 
  "/>
<polyline clip-path="url(#clip840)" style="stroke:#000000; stroke-linecap:butt; stroke-linejoin:round; stroke-width:4; stroke-opacity:1; fill:none" points="
  981.774,501.1 981.774,482.203 
  "/>
<polyline clip-path="url(#clip840)" style="stroke:#000000; stroke-linecap:butt; stroke-linejoin:round; stroke-width:4; stroke-opacity:1; fill:none" points="
  1242.33,501.1 1242.33,482.203 
  "/>
<path clip-path="url(#clip840)" d="M200.094 526.149 Q195.581 526.149 193.295 530.605 Q191.038 535.032 191.038 543.944 Q191.038 552.827 193.295 557.283 Q195.581 561.71 200.094 561.71 Q204.637 561.71 206.894 557.283 Q209.18 552.827 209.18 543.944 Q209.18 535.032 206.894 530.605 Q204.637 526.149 200.094 526.149 M200.094 521.519 Q207.357 521.519 211.177 527.277 Q215.025 533.006 215.025 543.944 Q215.025 554.852 211.177 560.61 Q207.357 566.339 200.094 566.339 Q192.832 566.339 188.983 560.61 Q185.164 554.852 185.164 543.944 Q185.164 533.006 188.983 527.277 Q192.832 521.519 200.094 521.519 Z" fill="#000000" fill-rule="evenodd" fill-opacity="1" /><path clip-path="url(#clip840)" d="M434.743 560.581 L455.142 560.581 L455.142 565.5 L427.712 565.5 L427.712 560.581 Q431.039 557.138 436.768 551.351 Q442.526 545.535 444.002 543.857 Q446.809 540.703 447.908 538.533 Q449.037 536.334 449.037 534.221 Q449.037 530.778 446.606 528.608 Q444.205 526.438 440.327 526.438 Q437.579 526.438 434.511 527.393 Q431.473 528.348 428.001 530.286 L428.001 524.384 Q431.531 522.966 434.598 522.242 Q437.665 521.519 440.212 521.519 Q446.925 521.519 450.918 524.875 Q454.911 528.232 454.911 533.845 Q454.911 536.507 453.898 538.909 Q452.914 541.282 450.281 544.522 Q449.558 545.361 445.68 549.383 Q441.803 553.376 434.743 560.581 Z" fill="#000000" fill-rule="evenodd" fill-opacity="1" /><path clip-path="url(#clip840)" d="M467.468 522.3 L490.414 522.3 L490.414 527.219 L472.821 527.219 L472.821 537.809 Q474.095 537.375 475.368 537.173 Q476.641 536.941 477.914 536.941 Q485.148 536.941 489.372 540.905 Q493.597 544.87 493.597 551.64 Q493.597 558.614 489.257 562.491 Q484.916 566.339 477.017 566.339 Q474.297 566.339 471.461 565.876 Q468.655 565.413 465.646 564.487 L465.646 558.614 Q468.25 560.031 471.027 560.726 Q473.805 561.42 476.901 561.42 Q481.907 561.42 484.829 558.787 Q487.752 556.154 487.752 551.64 Q487.752 547.126 484.829 544.493 Q481.907 541.86 476.901 541.86 Q474.558 541.86 472.214 542.381 Q469.899 542.902 467.468 544.001 L467.468 522.3 Z" fill="#000000" fill-rule="evenodd" fill-opacity="1" /><path clip-path="url(#clip840)" d="M689.588 522.3 L712.533 522.3 L712.533 527.219 L694.941 527.219 L694.941 537.809 Q696.214 537.375 697.487 537.173 Q698.76 536.941 700.034 536.941 Q707.267 536.941 711.492 540.905 Q715.716 544.87 715.716 551.64 Q715.716 558.614 711.376 562.491 Q707.036 566.339 699.137 566.339 Q696.417 566.339 693.581 565.876 Q690.774 565.413 687.765 564.487 L687.765 558.614 Q690.369 560.031 693.147 560.726 Q695.925 561.42 699.021 561.42 Q704.027 561.42 706.949 558.787 Q709.871 556.154 709.871 551.64 Q709.871 547.126 706.949 544.493 Q704.027 541.86 699.021 541.86 Q696.677 541.86 694.333 542.381 Q692.019 542.902 689.588 544.001 L689.588 522.3 Z" fill="#000000" fill-rule="evenodd" fill-opacity="1" /><path clip-path="url(#clip840)" d="M739.732 526.149 Q735.219 526.149 732.933 530.605 Q730.676 535.032 730.676 543.944 Q730.676 552.827 732.933 557.283 Q735.219 561.71 739.732 561.71 Q744.275 561.71 746.532 557.283 Q748.818 552.827 748.818 543.944 Q748.818 535.032 746.532 530.605 Q744.275 526.149 739.732 526.149 M739.732 521.519 Q746.995 521.519 750.815 527.277 Q754.663 533.006 754.663 543.944 Q754.663 554.852 750.815 560.61 Q746.995 566.339 739.732 566.339 Q732.47 566.339 728.621 560.61 Q724.802 554.852 724.802 543.944 Q724.802 533.006 728.621 527.277 Q732.47 521.519 739.732 521.519 Z" fill="#000000" fill-rule="evenodd" fill-opacity="1" /><path clip-path="url(#clip840)" d="M949.092 522.3 L976.869 522.3 L976.869 524.789 L961.186 565.5 L955.081 565.5 L969.838 527.219 L949.092 527.219 L949.092 522.3 Z" fill="#000000" fill-rule="evenodd" fill-opacity="1" /><path clip-path="url(#clip840)" d="M988.328 522.3 L1011.27 522.3 L1011.27 527.219 L993.681 527.219 L993.681 537.809 Q994.954 537.375 996.227 537.173 Q997.5 536.941 998.773 536.941 Q1006.01 536.941 1010.23 540.905 Q1014.46 544.87 1014.46 551.64 Q1014.46 558.614 1010.12 562.491 Q1005.78 566.339 997.876 566.339 Q995.156 566.339 992.321 565.876 Q989.514 565.413 986.505 564.487 L986.505 558.614 Q989.109 560.031 991.887 560.726 Q994.664 561.42 997.76 561.42 Q1002.77 561.42 1005.69 558.787 Q1008.61 556.154 1008.61 551.64 Q1008.61 547.126 1005.69 544.493 Q1002.77 541.86 997.76 541.86 Q995.417 541.86 993.073 542.381 Q990.758 542.902 988.328 544.001 L988.328 522.3 Z" fill="#000000" fill-rule="evenodd" fill-opacity="1" /><path clip-path="url(#clip840)" d="M1191.84 560.581 L1201.39 560.581 L1201.39 527.624 L1191 529.708 L1191 524.384 L1201.33 522.3 L1207.18 522.3 L1207.18 560.581 L1216.73 560.581 L1216.73 565.5 L1191.84 565.5 L1191.84 560.581 Z" fill="#000000" fill-rule="evenodd" fill-opacity="1" /><path clip-path="url(#clip840)" d="M1241.03 526.149 Q1236.52 526.149 1234.23 530.605 Q1231.97 535.032 1231.97 543.944 Q1231.97 552.827 1234.23 557.283 Q1236.52 561.71 1241.03 561.71 Q1245.57 561.71 1247.83 557.283 Q1250.12 552.827 1250.12 543.944 Q1250.12 535.032 1247.83 530.605 Q1245.57 526.149 1241.03 526.149 M1241.03 521.519 Q1248.29 521.519 1252.11 527.277 Q1255.96 533.006 1255.96 543.944 Q1255.96 554.852 1252.11 560.61 Q1248.29 566.339 1241.03 566.339 Q1233.77 566.339 1229.92 560.61 Q1226.1 554.852 1226.1 543.944 Q1226.1 533.006 1229.92 527.277 Q1233.77 521.519 1241.03 521.519 Z" fill="#000000" fill-rule="evenodd" fill-opacity="1" /><path clip-path="url(#clip840)" d="M1278.73 526.149 Q1274.22 526.149 1271.93 530.605 Q1269.68 535.032 1269.68 543.944 Q1269.68 552.827 1271.93 557.283 Q1274.22 561.71 1278.73 561.71 Q1283.28 561.71 1285.53 557.283 Q1287.82 552.827 1287.82 543.944 Q1287.82 535.032 1285.53 530.605 Q1283.28 526.149 1278.73 526.149 M1278.73 521.519 Q1286 521.519 1289.82 527.277 Q1293.66 533.006 1293.66 543.944 Q1293.66 554.852 1289.82 560.61 Q1286 566.339 1278.73 566.339 Q1271.47 566.339 1267.62 560.61 Q1263.8 554.852 1263.8 543.944 Q1263.8 533.006 1267.62 527.277 Q1271.47 521.519 1278.73 521.519 Z" fill="#000000" fill-rule="evenodd" fill-opacity="1" /><polyline clip-path="url(#clip840)" style="stroke:#000000; stroke-linecap:butt; stroke-linejoin:round; stroke-width:4; stroke-opacity:1; fill:none" points="
  200.094,501.1 200.094,47.2441 
  "/>
<polyline clip-path="url(#clip840)" style="stroke:#000000; stroke-linecap:butt; stroke-linejoin:round; stroke-width:4; stroke-opacity:1; fill:none" points="
  200.094,487.84 218.992,487.84 
  "/>
<polyline clip-path="url(#clip840)" style="stroke:#000000; stroke-linecap:butt; stroke-linejoin:round; stroke-width:4; stroke-opacity:1; fill:none" points="
  200.094,380.899 218.992,380.899 
  "/>
<polyline clip-path="url(#clip840)" style="stroke:#000000; stroke-linecap:butt; stroke-linejoin:round; stroke-width:4; stroke-opacity:1; fill:none" points="
  200.094,273.958 218.992,273.958 
  "/>
<polyline clip-path="url(#clip840)" style="stroke:#000000; stroke-linecap:butt; stroke-linejoin:round; stroke-width:4; stroke-opacity:1; fill:none" points="
  200.094,167.018 218.992,167.018 
  "/>
<polyline clip-path="url(#clip840)" style="stroke:#000000; stroke-linecap:butt; stroke-linejoin:round; stroke-width:4; stroke-opacity:1; fill:none" points="
  200.094,60.077 218.992,60.077 
  "/>
<path clip-path="url(#clip840)" d="M71.4226 470.088 Q66.9087 470.088 64.6229 474.544 Q62.3659 478.971 62.3659 487.883 Q62.3659 496.766 64.6229 501.222 Q66.9087 505.649 71.4226 505.649 Q75.9654 505.649 78.2223 501.222 Q80.5082 496.766 80.5082 487.883 Q80.5082 478.971 78.2223 474.544 Q75.9654 470.088 71.4226 470.088 M71.4226 465.458 Q78.6853 465.458 82.5047 471.216 Q86.3531 476.946 86.3531 487.883 Q86.3531 498.791 82.5047 504.55 Q78.6853 510.279 71.4226 510.279 Q64.1599 510.279 60.3115 504.55 Q56.4921 498.791 56.4921 487.883 Q56.4921 476.946 60.3115 471.216 Q64.1599 465.458 71.4226 465.458 Z" fill="#000000" fill-rule="evenodd" fill-opacity="1" /><path clip-path="url(#clip840)" d="M96.625 502.09 L102.73 502.09 L102.73 509.44 L96.625 509.44 L96.625 502.09 Z" fill="#000000" fill-rule="evenodd" fill-opacity="1" /><path clip-path="url(#clip840)" d="M127.962 470.088 Q123.448 470.088 121.162 474.544 Q118.905 478.971 118.905 487.883 Q118.905 496.766 121.162 501.222 Q123.448 505.649 127.962 505.649 Q132.504 505.649 134.761 501.222 Q137.047 496.766 137.047 487.883 Q137.047 478.971 134.761 474.544 Q132.504 470.088 127.962 470.088 M127.962 465.458 Q135.224 465.458 139.044 471.216 Q142.892 476.946 142.892 487.883 Q142.892 498.791 139.044 504.55 Q135.224 510.279 127.962 510.279 Q120.699 510.279 116.851 504.55 Q113.031 498.791 113.031 487.883 Q113.031 476.946 116.851 471.216 Q120.699 465.458 127.962 465.458 Z" fill="#000000" fill-rule="evenodd" fill-opacity="1" /><path clip-path="url(#clip840)" d="M165.664 470.088 Q161.15 470.088 158.864 474.544 Q156.607 478.971 156.607 487.883 Q156.607 496.766 158.864 501.222 Q161.15 505.649 165.664 505.649 Q170.207 505.649 172.464 501.222 Q174.75 496.766 174.75 487.883 Q174.75 478.971 172.464 474.544 Q170.207 470.088 165.664 470.088 M165.664 465.458 Q172.927 465.458 176.746 471.216 Q180.594 476.946 180.594 487.883 Q180.594 498.791 176.746 504.55 Q172.927 510.279 165.664 510.279 Q158.401 510.279 154.553 504.55 Q150.734 498.791 150.734 487.883 Q150.734 476.946 154.553 471.216 Q158.401 465.458 165.664 465.458 Z" fill="#000000" fill-rule="evenodd" fill-opacity="1" /><path clip-path="url(#clip840)" d="M72.6668 363.147 Q68.1529 363.147 65.8671 367.603 Q63.6101 372.03 63.6101 380.942 Q63.6101 389.825 65.8671 394.281 Q68.1529 398.708 72.6668 398.708 Q77.2096 398.708 79.4665 394.281 Q81.7524 389.825 81.7524 380.942 Q81.7524 372.03 79.4665 367.603 Q77.2096 363.147 72.6668 363.147 M72.6668 358.518 Q79.9295 358.518 83.7489 364.276 Q87.5973 370.005 87.5973 380.942 Q87.5973 391.851 83.7489 397.609 Q79.9295 403.338 72.6668 403.338 Q65.4041 403.338 61.5558 397.609 Q57.7363 391.851 57.7363 380.942 Q57.7363 370.005 61.5558 364.276 Q65.4041 358.518 72.6668 358.518 Z" fill="#000000" fill-rule="evenodd" fill-opacity="1" /><path clip-path="url(#clip840)" d="M97.8692 395.149 L103.975 395.149 L103.975 402.499 L97.8692 402.499 L97.8692 395.149 Z" fill="#000000" fill-rule="evenodd" fill-opacity="1" /><path clip-path="url(#clip840)" d="M121.741 397.58 L142.14 397.58 L142.14 402.499 L114.709 402.499 L114.709 397.58 Q118.037 394.137 123.766 388.35 Q129.524 382.534 131 380.855 Q133.807 377.702 134.906 375.531 Q136.035 373.332 136.035 371.22 Q136.035 367.777 133.604 365.607 Q131.202 363.437 127.325 363.437 Q124.576 363.437 121.509 364.391 Q118.471 365.346 114.999 367.285 L114.999 361.382 Q118.529 359.964 121.596 359.241 Q124.663 358.518 127.209 358.518 Q133.922 358.518 137.915 361.874 Q141.908 365.231 141.908 370.844 Q141.908 373.506 140.896 375.908 Q139.912 378.28 137.279 381.521 Q136.555 382.36 132.678 386.382 Q128.801 390.375 121.741 397.58 Z" fill="#000000" fill-rule="evenodd" fill-opacity="1" /><path clip-path="url(#clip840)" d="M154.466 359.299 L177.412 359.299 L177.412 364.218 L159.819 364.218 L159.819 374.808 Q161.092 374.374 162.365 374.172 Q163.639 373.94 164.912 373.94 Q172.145 373.94 176.37 377.904 Q180.594 381.868 180.594 388.639 Q180.594 395.612 176.254 399.49 Q171.914 403.338 164.015 403.338 Q161.295 403.338 158.459 402.875 Q155.652 402.412 152.643 401.486 L152.643 395.612 Q155.247 397.03 158.025 397.725 Q160.803 398.419 163.899 398.419 Q168.905 398.419 171.827 395.786 Q174.75 393.153 174.75 388.639 Q174.75 384.125 171.827 381.492 Q168.905 378.859 163.899 378.859 Q161.555 378.859 159.211 379.38 Q156.897 379.901 154.466 381 L154.466 359.299 Z" fill="#000000" fill-rule="evenodd" fill-opacity="1" /><path clip-path="url(#clip840)" d="M71.4226 256.207 Q66.9087 256.207 64.6229 260.663 Q62.3659 265.09 62.3659 274.002 Q62.3659 282.885 64.6229 287.341 Q66.9087 291.768 71.4226 291.768 Q75.9654 291.768 78.2223 287.341 Q80.5082 282.885 80.5082 274.002 Q80.5082 265.09 78.2223 260.663 Q75.9654 256.207 71.4226 256.207 M71.4226 251.577 Q78.6853 251.577 82.5047 257.335 Q86.3531 263.064 86.3531 274.002 Q86.3531 284.91 82.5047 290.668 Q78.6853 296.397 71.4226 296.397 Q64.1599 296.397 60.3115 290.668 Q56.4921 284.91 56.4921 274.002 Q56.4921 263.064 60.3115 257.335 Q64.1599 251.577 71.4226 251.577 Z" fill="#000000" fill-rule="evenodd" fill-opacity="1" /><path clip-path="url(#clip840)" d="M96.625 288.209 L102.73 288.209 L102.73 295.558 L96.625 295.558 L96.625 288.209 Z" fill="#000000" fill-rule="evenodd" fill-opacity="1" /><path clip-path="url(#clip840)" d="M115.52 252.358 L138.465 252.358 L138.465 257.277 L120.873 257.277 L120.873 267.867 Q122.146 267.433 123.419 267.231 Q124.692 266.999 125.965 266.999 Q133.199 266.999 137.423 270.963 Q141.648 274.928 141.648 281.698 Q141.648 288.672 137.308 292.549 Q132.967 296.397 125.068 296.397 Q122.348 296.397 119.513 295.934 Q116.706 295.471 113.697 294.546 L113.697 288.672 Q116.301 290.09 119.079 290.784 Q121.856 291.478 124.952 291.478 Q129.958 291.478 132.881 288.845 Q135.803 286.212 135.803 281.698 Q135.803 277.185 132.881 274.551 Q129.958 271.918 124.952 271.918 Q122.609 271.918 120.265 272.439 Q117.95 272.96 115.52 274.06 L115.52 252.358 Z" fill="#000000" fill-rule="evenodd" fill-opacity="1" /><path clip-path="url(#clip840)" d="M165.664 256.207 Q161.15 256.207 158.864 260.663 Q156.607 265.09 156.607 274.002 Q156.607 282.885 158.864 287.341 Q161.15 291.768 165.664 291.768 Q170.207 291.768 172.464 287.341 Q174.75 282.885 174.75 274.002 Q174.75 265.09 172.464 260.663 Q170.207 256.207 165.664 256.207 M165.664 251.577 Q172.927 251.577 176.746 257.335 Q180.594 263.064 180.594 274.002 Q180.594 284.91 176.746 290.668 Q172.927 296.397 165.664 296.397 Q158.401 296.397 154.553 290.668 Q150.734 284.91 150.734 274.002 Q150.734 263.064 154.553 257.335 Q158.401 251.577 165.664 251.577 Z" fill="#000000" fill-rule="evenodd" fill-opacity="1" /><path clip-path="url(#clip840)" d="M72.6668 149.266 Q68.1529 149.266 65.8671 153.722 Q63.6101 158.149 63.6101 167.061 Q63.6101 175.944 65.8671 180.4 Q68.1529 184.827 72.6668 184.827 Q77.2096 184.827 79.4665 180.4 Q81.7524 175.944 81.7524 167.061 Q81.7524 158.149 79.4665 153.722 Q77.2096 149.266 72.6668 149.266 M72.6668 144.636 Q79.9295 144.636 83.7489 150.394 Q87.5973 156.124 87.5973 167.061 Q87.5973 177.97 83.7489 183.728 Q79.9295 189.457 72.6668 189.457 Q65.4041 189.457 61.5558 183.728 Q57.7363 177.97 57.7363 167.061 Q57.7363 156.124 61.5558 150.394 Q65.4041 144.636 72.6668 144.636 Z" fill="#000000" fill-rule="evenodd" fill-opacity="1" /><path clip-path="url(#clip840)" d="M97.8692 181.268 L103.975 181.268 L103.975 188.618 L97.8692 188.618 L97.8692 181.268 Z" fill="#000000" fill-rule="evenodd" fill-opacity="1" /><path clip-path="url(#clip840)" d="M115.23 145.418 L143.008 145.418 L143.008 147.906 L127.325 188.618 L121.22 188.618 L135.977 150.337 L115.23 150.337 L115.23 145.418 Z" fill="#000000" fill-rule="evenodd" fill-opacity="1" /><path clip-path="url(#clip840)" d="M154.466 145.418 L177.412 145.418 L177.412 150.337 L159.819 150.337 L159.819 160.927 Q161.092 160.493 162.365 160.29 Q163.639 160.059 164.912 160.059 Q172.145 160.059 176.37 164.023 Q180.594 167.987 180.594 174.758 Q180.594 181.731 176.254 185.608 Q171.914 189.457 164.015 189.457 Q161.295 189.457 158.459 188.994 Q155.652 188.531 152.643 187.605 L152.643 181.731 Q155.247 183.149 158.025 183.843 Q160.803 184.538 163.899 184.538 Q168.905 184.538 171.827 181.905 Q174.75 179.272 174.75 174.758 Q174.75 170.244 171.827 167.611 Q168.905 164.978 163.899 164.978 Q161.555 164.978 159.211 165.499 Q156.897 166.019 154.466 167.119 L154.466 145.418 Z" fill="#000000" fill-rule="evenodd" fill-opacity="1" /><path clip-path="url(#clip840)" d="M59.9354 76.758 L69.484 76.758 L69.484 43.801 L59.0963 45.8843 L59.0963 40.5603 L69.4261 38.477 L75.271 38.477 L75.271 76.758 L84.8195 76.758 L84.8195 81.677 L59.9354 81.677 L59.9354 76.758 Z" fill="#000000" fill-rule="evenodd" fill-opacity="1" /><path clip-path="url(#clip840)" d="M96.625 74.3275 L102.73 74.3275 L102.73 81.677 L96.625 81.677 L96.625 74.3275 Z" fill="#000000" fill-rule="evenodd" fill-opacity="1" /><path clip-path="url(#clip840)" d="M127.962 42.3253 Q123.448 42.3253 121.162 46.7813 Q118.905 51.2084 118.905 60.1204 Q118.905 69.0034 121.162 73.4594 Q123.448 77.8865 127.962 77.8865 Q132.504 77.8865 134.761 73.4594 Q137.047 69.0034 137.047 60.1204 Q137.047 51.2084 134.761 46.7813 Q132.504 42.3253 127.962 42.3253 M127.962 37.6957 Q135.224 37.6957 139.044 43.4538 Q142.892 49.1829 142.892 60.1204 Q142.892 71.0289 139.044 76.787 Q135.224 82.5161 127.962 82.5161 Q120.699 82.5161 116.851 76.787 Q113.031 71.0289 113.031 60.1204 Q113.031 49.1829 116.851 43.4538 Q120.699 37.6957 127.962 37.6957 Z" fill="#000000" fill-rule="evenodd" fill-opacity="1" /><path clip-path="url(#clip840)" d="M165.664 42.3253 Q161.15 42.3253 158.864 46.7813 Q156.607 51.2084 156.607 60.1204 Q156.607 69.0034 158.864 73.4594 Q161.15 77.8865 165.664 77.8865 Q170.207 77.8865 172.464 73.4594 Q174.75 69.0034 174.75 60.1204 Q174.75 51.2084 172.464 46.7813 Q170.207 42.3253 165.664 42.3253 M165.664 37.6957 Q172.927 37.6957 176.746 43.4538 Q180.594 49.1829 180.594 60.1204 Q180.594 71.0289 176.746 76.787 Q172.927 82.5161 165.664 82.5161 Q158.401 82.5161 154.553 76.787 Q150.734 71.0289 150.734 60.1204 Q150.734 49.1829 154.553 43.4538 Q158.401 37.6957 165.664 37.6957 Z" fill="#000000" fill-rule="evenodd" fill-opacity="1" /><polyline clip-path="url(#clip842)" style="stroke:#2000d4; stroke-linecap:butt; stroke-linejoin:round; stroke-width:16; stroke-opacity:1; fill:none" stroke-dasharray="8, 16" points="
  210.517,487.84 220.939,487.84 231.362,487.84 241.784,487.84 252.206,487.84 262.629,487.84 273.051,487.84 283.474,487.84 293.896,487.84 304.318,487.84 
  314.741,487.84 325.163,487.84 335.586,487.84 346.008,487.84 356.43,487.84 366.853,487.84 377.275,487.84 387.697,487.84 398.12,487.84 408.542,487.84 
  418.965,487.84 429.387,487.84 439.809,487.84 450.232,487.84 460.654,487.84 471.077,487.84 481.499,487.84 491.921,487.84 502.344,487.84 512.766,487.84 
  523.189,487.84 533.611,487.84 544.033,487.84 554.456,487.84 564.878,487.84 575.301,487.84 585.723,487.84 596.145,487.84 606.568,487.84 616.99,487.84 
  627.412,487.84 637.835,487.84 648.257,487.84 658.68,487.84 669.102,487.84 679.524,487.84 689.947,487.84 700.369,487.84 710.792,487.84 721.214,487.84 
  731.636,487.84 742.059,487.84 752.481,487.84 762.904,487.84 773.326,487.84 783.748,487.84 794.171,487.84 804.593,487.84 815.016,487.84 825.438,487.84 
  835.86,487.84 846.283,487.84 856.705,487.84 867.127,487.84 877.55,487.84 887.972,487.84 898.395,487.84 908.817,487.84 919.239,487.84 929.662,487.84 
  940.084,487.84 950.507,487.84 960.929,487.84 971.351,487.84 981.774,487.84 992.196,487.84 1002.62,487.84 1013.04,487.84 1023.46,487.84 1033.89,487.84 
  1044.31,487.84 1054.73,487.84 1065.15,487.84 1075.58,487.84 1086,487.84 1096.42,487.84 1106.84,487.84 1117.26,487.84 1127.69,487.84 1138.11,487.84 
  1148.53,487.84 1158.95,487.84 1169.38,487.84 1179.8,487.84 1190.22,487.84 1200.64,487.84 1211.07,487.84 1221.49,487.84 1231.91,487.84 1242.33,487.84 
  1252.76,487.84 
  "/>
<polyline clip-path="url(#clip842)" style="stroke:#008900; stroke-linecap:butt; stroke-linejoin:round; stroke-width:16; stroke-opacity:1; fill:none" stroke-dasharray="64, 40" points="
  210.517,487.84 220.939,487.84 231.362,487.84 241.784,487.84 252.206,487.84 262.629,487.84 273.051,487.84 283.474,487.84 293.896,487.84 304.318,487.84 
  314.741,487.84 325.163,487.84 335.586,487.84 346.008,487.84 356.43,487.84 366.853,487.84 377.275,487.84 387.697,487.84 398.12,487.84 408.542,487.84 
  418.965,487.84 429.387,487.84 439.809,487.84 450.232,487.84 460.654,487.84 471.077,487.84 481.499,487.84 491.921,487.84 502.344,487.84 512.766,487.84 
  523.189,487.84 533.611,487.84 544.033,487.84 554.456,487.84 564.878,487.84 575.301,487.84 585.723,487.84 596.145,487.84 606.568,487.84 616.99,487.84 
  627.412,487.84 637.835,487.84 648.257,487.84 658.68,487.84 669.102,487.84 679.524,487.84 689.947,487.84 700.369,487.84 710.792,487.84 721.214,487.84 
  731.636,487.84 742.059,487.84 752.481,487.84 762.904,487.84 773.326,487.84 783.748,487.84 794.171,487.84 804.593,487.84 815.016,487.84 825.438,487.84 
  835.86,487.84 846.283,487.84 856.705,487.84 867.127,487.84 877.55,487.84 887.972,487.84 898.395,487.84 908.817,487.84 919.239,487.84 929.662,487.84 
  940.084,487.84 950.507,487.84 960.929,487.84 971.351,487.84 981.774,487.84 992.196,487.84 1002.62,487.84 1013.04,487.84 1023.46,487.84 1033.89,487.84 
  1044.31,487.84 1054.73,487.84 1065.15,487.84 1075.58,487.84 1086,487.84 1096.42,487.84 1106.84,487.84 1117.26,487.84 1127.69,487.84 1138.11,487.84 
  1148.53,487.84 1158.95,487.84 1169.38,487.84 1179.8,487.84 1190.22,487.84 1200.64,487.84 1211.07,487.84 1221.49,487.84 1231.91,487.84 1242.33,487.84 
  1252.76,487.84 
  "/>
<polyline clip-path="url(#clip842)" style="stroke:#008900; stroke-linecap:butt; stroke-linejoin:round; stroke-width:16; stroke-opacity:1; fill:none" stroke-dasharray="8, 16" points="
  210.517,487.84 220.939,487.84 231.362,487.84 241.784,487.84 252.206,487.84 262.629,487.84 273.051,487.84 283.474,487.84 293.896,487.84 304.318,487.84 
  314.741,487.84 325.163,487.84 335.586,487.84 346.008,487.84 356.43,487.84 366.853,487.84 377.275,487.84 387.697,487.84 398.12,487.84 408.542,487.84 
  418.965,487.84 429.387,487.84 439.809,487.84 450.232,487.84 460.654,487.84 471.077,487.84 481.499,487.84 491.921,487.84 502.344,487.84 512.766,487.84 
  523.189,487.84 533.611,487.84 544.033,487.84 554.456,487.84 564.878,487.84 575.301,487.84 585.723,487.84 596.145,487.84 606.568,487.84 616.99,487.84 
  627.412,487.84 637.835,487.84 648.257,487.84 658.68,487.84 669.102,487.84 679.524,487.84 689.947,487.84 700.369,487.84 710.792,487.84 721.214,487.84 
  731.636,487.84 742.059,487.84 752.481,487.84 762.904,487.84 773.326,487.84 783.748,487.84 794.171,487.84 804.593,487.84 815.016,487.84 825.438,487.84 
  835.86,487.84 846.283,487.84 856.705,487.84 867.127,487.84 877.55,487.84 887.972,487.84 898.395,487.84 908.817,487.84 919.239,487.84 929.662,487.84 
  940.084,487.84 950.507,487.84 960.929,487.84 971.351,487.84 981.774,487.84 992.196,487.84 1002.62,487.84 1013.04,487.84 1023.46,487.84 1033.89,487.84 
  1044.31,487.84 1054.73,487.84 1065.15,487.84 1075.58,487.84 1086,487.84 1096.42,487.84 1106.84,487.84 1117.26,487.84 1127.69,487.84 1138.11,487.84 
  1148.53,487.84 1158.95,487.84 1169.38,487.84 1179.8,487.84 1190.22,487.84 1200.64,487.84 1211.07,487.84 1221.49,487.84 1231.91,487.84 1242.33,487.84 
  1252.76,487.84 
  "/>
<polyline clip-path="url(#clip842)" style="stroke:#2000d4; stroke-linecap:butt; stroke-linejoin:round; stroke-width:16; stroke-opacity:1; fill:none" points="
  210.517,487.412 220.939,487.063 231.362,486.446 241.784,485.356 252.206,483.438 262.629,480.079 273.051,474.255 283.474,464.319 293.896,447.835 304.318,421.705 
  314.741,383.147 325.163,331.858 335.586,272.3 346.008,213.137 356.43,162.813 366.853,125.353 377.275,100.148 387.697,84.3192 398.12,74.8036 408.542,69.2305 
  418.965,66.0125 429.387,64.1649 439.809,63.1023 450.232,62.4864 460.654,62.1259 471.077,61.9137 481.499,61.7895 491.921,61.7183 502.344,61.6788 512.766,61.6579 
  523.189,61.6473 533.611,61.6422 544.033,61.6398 554.456,61.6387 564.878,61.6382 575.301,61.638 585.723,61.6379 596.145,61.6379 606.568,61.6379 616.99,61.6379 
  627.412,61.6379 637.835,61.6379 648.257,61.6379 658.68,61.6379 669.102,61.6379 679.524,61.6379 689.947,61.6379 700.369,61.6379 710.792,61.6379 721.214,61.6379 
  731.636,61.6379 742.059,61.6379 752.481,61.6379 762.904,61.6379 773.326,61.6379 783.748,61.6379 794.171,61.6379 804.593,61.6379 815.016,61.6379 825.438,61.6379 
  835.86,61.6379 846.283,61.6379 856.705,61.6379 867.127,61.6379 877.55,61.6379 887.972,61.6379 898.395,61.6379 908.817,61.6379 919.239,61.6379 929.662,61.6379 
  940.084,61.6379 950.507,61.6379 960.929,61.6379 971.351,61.6379 981.774,61.6379 992.196,61.6379 1002.62,61.6379 1013.04,61.6379 1023.46,61.6379 1033.89,61.6379 
  1044.31,61.6379 1054.73,61.6379 1065.15,61.6379 1075.58,61.6379 1086,61.6379 1096.42,61.6379 1106.84,61.6379 1117.26,61.6379 1127.69,61.6379 1138.11,61.6379 
  1148.53,61.6379 1158.95,61.6379 1169.38,61.6379 1179.8,61.6379 1190.22,61.6379 1200.64,61.6379 1211.07,61.6379 1221.49,61.6379 1231.91,61.6379 1242.33,61.6379 
  1252.76,61.6379 
  "/>
<polyline clip-path="url(#clip842)" style="stroke:#008900; stroke-linecap:butt; stroke-linejoin:round; stroke-width:16; stroke-opacity:1; fill:none" points="
  210.517,487.626 220.939,487.461 231.362,487.169 241.784,486.652 252.206,485.742 262.629,484.15 273.051,481.388 283.474,476.675 293.896,468.856 304.318,456.458 
  314.741,438.152 325.163,413.775 335.586,385.402 346.008,357.07 356.43,332.662 366.853,313.895 377.275,300.159 387.697,289.576 398.12,279.925 408.542,269.062 
  418.965,255.184 429.387,237.243 439.809,215.399 450.232,191.024 460.654,166.089 471.077,142.466 481.499,121.57 491.921,104.241 502.344,90.7114 512.766,80.7077 
  523.189,73.6475 533.611,68.85 544.033,65.6833 554.456,63.6361 564.878,62.33 575.301,61.5027 585.723,60.9803 596.145,60.6503 606.568,60.4415 616.99,60.3092 
  627.412,60.2251 637.835,60.1716 648.257,60.1374 658.68,60.1156 669.102,60.1017 679.524,60.0928 689.947,60.0871 700.369,60.0835 710.792,60.0811 721.214,60.0796 
  731.636,60.0787 742.059,60.0781 752.481,60.0777 762.904,60.0774 773.326,60.0773 783.748,60.0772 794.171,60.0771 804.593,60.077 815.016,60.077 825.438,60.077 
  835.86,60.077 846.283,60.077 856.705,60.077 867.127,60.077 877.55,60.077 887.972,60.077 898.395,60.077 908.817,60.077 919.239,60.077 929.662,60.077 
  940.084,60.077 950.507,60.077 960.929,60.077 971.351,60.077 981.774,60.077 992.196,60.077 1002.62,60.077 1013.04,60.077 1023.46,60.077 1033.89,60.077 
  1044.31,60.077 1054.73,60.077 1065.15,60.077 1075.58,60.077 1086,60.077 1096.42,60.077 1106.84,60.077 1117.26,60.077 1127.69,60.077 1138.11,60.077 
  1148.53,60.077 1158.95,60.077 1169.38,60.077 1179.8,60.077 1190.22,60.077 1200.64,60.077 1211.07,60.077 1221.49,60.077 1231.91,60.077 1242.33,60.077 
  1252.76,60.077 
  "/>
<polyline clip-path="url(#clip842)" style="stroke:#7f7f7f; stroke-linecap:butt; stroke-linejoin:round; stroke-width:16; stroke-opacity:1; fill:none" points="
  210.517,60.077 220.939,65.4674 231.362,68.7279 241.784,70.6275 252.206,71.7439 262.629,72.4424 273.051,72.9571 283.474,73.461 293.896,74.1226 304.318,75.1603 
  314.741,76.9101 325.163,79.9195 335.586,85.0762 346.008,93.7497 356.43,107.847 366.853,129.54 377.275,160.371 387.697,199.867 398.12,244.787 408.542,290.135 
  418.965,331.31 429.387,365.571 439.809,392.226 450.232,412.122 460.654,426.919 471.077,438.357 481.499,447.75 491.921,455.833 502.344,462.874 512.766,468.899 
  523.189,473.877 533.611,477.824 544.033,480.828 554.456,483.031 564.878,484.597 575.301,485.682 585.723,486.418 596.145,486.911 606.568,487.236 616.99,487.449 
  627.412,487.588 637.835,487.677 648.257,487.735 658.68,487.773 669.102,487.797 679.524,487.812 689.947,487.822 700.369,487.828 710.792,487.832 721.214,487.835 
  731.636,487.837 742.059,487.838 752.481,487.838 762.904,487.839 773.326,487.839 783.748,487.839 794.171,487.839 804.593,487.839 815.016,487.839 825.438,487.839 
  835.86,487.84 846.283,487.84 856.705,487.84 867.127,487.84 877.55,487.84 887.972,487.84 898.395,487.84 908.817,487.84 919.239,487.84 929.662,487.84 
  940.084,487.84 950.507,487.84 960.929,487.84 971.351,487.84 981.774,487.84 992.196,487.84 1002.62,487.84 1013.04,487.84 1023.46,487.84 1033.89,487.84 
  1044.31,487.84 1054.73,487.84 1065.15,487.84 1075.58,487.84 1086,487.84 1096.42,487.84 1106.84,487.84 1117.26,487.84 1127.69,487.84 1138.11,487.84 
  1148.53,487.84 1158.95,487.84 1169.38,487.84 1179.8,487.84 1190.22,487.84 1200.64,487.84 1211.07,487.84 1221.49,487.84 1231.91,487.84 1242.33,487.84 
  1252.76,487.84 
  "/>
<polyline clip-path="url(#clip842)" style="stroke:#2000d4; stroke-linecap:butt; stroke-linejoin:round; stroke-width:16; stroke-opacity:1; fill:none" stroke-dasharray="64, 40" points="
  210.517,487.84 220.939,487.84 231.362,487.84 241.784,487.84 252.206,487.84 262.629,487.84 273.051,487.84 283.474,487.84 293.896,487.84 304.318,487.84 
  314.741,487.84 325.163,487.84 335.586,487.84 346.008,487.84 356.43,487.84 366.853,487.84 377.275,487.84 387.697,487.84 398.12,487.84 408.542,487.84 
  418.965,487.84 429.387,487.84 439.809,487.84 450.232,487.84 460.654,487.84 471.077,487.84 481.499,487.84 491.921,487.84 502.344,487.84 512.766,487.84 
  523.189,487.84 533.611,487.84 544.033,487.84 554.456,487.84 564.878,487.84 575.301,487.84 585.723,487.84 596.145,487.84 606.568,487.84 616.99,487.84 
  627.412,487.84 637.835,487.84 648.257,487.84 658.68,487.84 669.102,487.84 679.524,487.84 689.947,487.84 700.369,487.84 710.792,487.84 721.214,487.84 
  731.636,487.84 742.059,487.84 752.481,487.84 762.904,487.84 773.326,487.84 783.748,487.84 794.171,487.84 804.593,487.84 815.016,487.84 825.438,487.84 
  835.86,487.84 846.283,487.84 856.705,487.84 867.127,487.84 877.55,487.84 887.972,487.84 898.395,487.84 908.817,487.84 919.239,487.84 929.662,487.84 
  940.084,487.84 950.507,487.84 960.929,487.84 971.351,487.84 981.774,487.84 992.196,487.84 1002.62,487.84 1013.04,487.84 1023.46,487.84 1033.89,487.84 
  1044.31,487.84 1054.73,487.84 1065.15,487.84 1075.58,487.84 1086,487.84 1096.42,487.84 1106.84,487.84 1117.26,487.84 1127.69,487.84 1138.11,487.84 
  1148.53,487.84 1158.95,487.84 1169.38,487.84 1179.8,487.84 1190.22,487.84 1200.64,487.84 1211.07,487.84 1221.49,487.84 1231.91,487.84 1242.33,487.84 
  1252.76,487.84 
  "/>
<polyline clip-path="url(#clip842)" style="stroke:#000000; stroke-linecap:butt; stroke-linejoin:round; stroke-width:16; stroke-opacity:1; fill:none" stroke-dasharray="8, 16" points="
  210.517,60.077 220.939,60.5004 231.362,60.916 241.784,61.5969 252.206,62.7908 262.629,64.891 273.051,68.5675 283.474,74.9426 293.896,85.8164 304.318,103.853 
  314.741,132.426 325.163,174.548 335.586,230.466 346.008,295.131 356.43,358.788 366.853,411.805 377.275,449.327 387.697,471.75 398.12,482.621 408.542,486.598 
  418.965,487.626 429.387,487.812 439.809,487.837 450.232,487.839 460.654,487.84 471.077,487.84 481.499,487.84 491.921,487.84 502.344,487.84 512.766,487.84 
  523.189,487.84 533.611,487.84 544.033,487.84 554.456,487.84 564.878,487.84 575.301,487.84 585.723,487.84 596.145,487.84 606.568,487.84 616.99,487.84 
  627.412,487.84 637.835,487.84 648.257,487.84 658.68,487.84 669.102,487.84 679.524,487.84 689.947,487.84 700.369,487.84 710.792,487.84 721.214,487.84 
  731.636,487.84 742.059,487.84 752.481,487.84 762.904,487.84 773.326,487.84 783.748,487.84 794.171,487.84 804.593,487.84 815.016,487.84 825.438,487.84 
  835.86,487.84 846.283,487.84 856.705,487.84 867.127,487.84 877.55,487.84 887.972,487.84 898.395,487.84 908.817,487.84 919.239,487.84 929.662,487.84 
  940.084,487.84 950.507,487.84 960.929,487.84 971.351,487.84 981.774,487.84 992.196,487.84 1002.62,487.84 1013.04,487.84 1023.46,487.84 1033.89,487.84 
  1044.31,487.84 1054.73,487.84 1065.15,487.84 1075.58,487.84 1086,487.84 1096.42,487.84 1106.84,487.84 1117.26,487.84 1127.69,487.84 1138.11,487.84 
  1148.53,487.84 1158.95,487.84 1169.38,487.84 1179.8,487.84 1190.22,487.84 1200.64,487.84 1211.07,487.84 1221.49,487.84 1231.91,487.84 1242.33,487.84 
  1252.76,487.84 
  "/>
</svg>
