<?xml version="1.0" encoding="utf-8"?>
<svg xmlns="http://www.w3.org/2000/svg" xmlns:xlink="http://www.w3.org/1999/xlink" width="300" height="180" viewBox="0 0 1200 720">
<defs>
  <clipPath id="clip540">
    <rect x="0" y="0" width="1200" height="720"/>
  </clipPath>
</defs>
<path clip-path="url(#clip540)" d="
M0 720 L1200 720 L1200 0 L0 0  Z
  " fill="#ffffff" fill-rule="evenodd" fill-opacity="1"/>
<defs>
  <clipPath id="clip541">
    <rect x="240" y="0" width="841" height="720"/>
  </clipPath>
</defs>
<path clip-path="url(#clip540)" d="
M264.915 603.152 L1152.76 603.152 L1152.76 47.2441 L264.915 47.2441  Z
  " fill="#ffffff" fill-rule="evenodd" fill-opacity="1"/>
<defs>
  <clipPath id="clip542">
    <rect x="264" y="47" width="889" height="557"/>
  </clipPath>
</defs>
<polyline clip-path="url(#clip540)" style="stroke:#000000; stroke-linecap:butt; stroke-linejoin:round; stroke-width:4; stroke-opacity:1; fill:none" points="
  264.915,603.152 1152.76,603.152 
  "/>
<polyline clip-path="url(#clip540)" style="stroke:#000000; stroke-linecap:butt; stroke-linejoin:round; stroke-width:4; stroke-opacity:1; fill:none" points="
  448.505,603.152 448.505,584.254 
  "/>
<polyline clip-path="url(#clip540)" style="stroke:#000000; stroke-linecap:butt; stroke-linejoin:round; stroke-width:4; stroke-opacity:1; fill:none" points="
  674.879,603.152 674.879,584.254 
  "/>
<polyline clip-path="url(#clip540)" style="stroke:#000000; stroke-linecap:butt; stroke-linejoin:round; stroke-width:4; stroke-opacity:1; fill:none" points="
  901.254,603.152 901.254,584.254 
  "/>
<polyline clip-path="url(#clip540)" style="stroke:#000000; stroke-linecap:butt; stroke-linejoin:round; stroke-width:4; stroke-opacity:1; fill:none" points="
  1127.63,603.152 1127.63,584.254 
  "/>
<path clip-path="url(#clip540)" d="M410.536 671.649 L421.995 671.649 L421.995 632.101 L409.529 634.601 L409.529 628.212 L421.925 625.712 L428.939 625.712 L428.939 671.649 L440.397 671.649 L440.397 677.552 L410.536 677.552 L410.536 671.649 Z" fill="#000000" fill-rule="evenodd" fill-opacity="1" /><path clip-path="url(#clip540)" d="M469.564 630.33 Q464.147 630.33 461.404 635.677 Q458.696 640.99 458.696 651.684 Q458.696 662.344 461.404 667.691 Q464.147 673.003 469.564 673.003 Q475.015 673.003 477.723 667.691 Q480.466 662.344 480.466 651.684 Q480.466 640.99 477.723 635.677 Q475.015 630.33 469.564 630.33 M469.564 624.774 Q478.279 624.774 482.862 631.684 Q487.48 638.559 487.48 651.684 Q487.48 664.774 482.862 671.684 Q478.279 678.559 469.564 678.559 Q460.849 678.559 456.231 671.684 Q451.647 664.774 451.647 651.684 Q451.647 638.559 456.231 631.684 Q460.849 624.774 469.564 624.774 Z" fill="#000000" fill-rule="evenodd" fill-opacity="1" /><path clip-path="url(#clip540)" d="M643.039 671.649 L667.518 671.649 L667.518 677.552 L634.602 677.552 L634.602 671.649 Q638.595 667.517 645.47 660.573 Q652.379 653.594 654.15 651.58 Q657.518 647.795 658.838 645.191 Q660.192 642.552 660.192 640.017 Q660.192 635.885 657.275 633.281 Q654.393 630.677 649.741 630.677 Q646.442 630.677 642.761 631.823 Q639.116 632.969 634.949 635.295 L634.949 628.212 Q639.185 626.51 642.866 625.642 Q646.546 624.774 649.602 624.774 Q657.657 624.774 662.449 628.802 Q667.241 632.83 667.241 639.566 Q667.241 642.76 666.025 645.642 Q664.845 648.49 661.685 652.378 Q660.817 653.385 656.164 658.212 Q651.511 663.003 643.039 671.649 Z" fill="#000000" fill-rule="evenodd" fill-opacity="1" /><path clip-path="url(#clip540)" d="M697.24 630.33 Q691.824 630.33 689.081 635.677 Q686.372 640.99 686.372 651.684 Q686.372 662.344 689.081 667.691 Q691.824 673.003 697.24 673.003 Q702.692 673.003 705.4 667.691 Q708.143 662.344 708.143 651.684 Q708.143 640.99 705.4 635.677 Q702.692 630.33 697.24 630.33 M697.24 624.774 Q705.956 624.774 710.539 631.684 Q715.157 638.559 715.157 651.684 Q715.157 664.774 710.539 671.684 Q705.956 678.559 697.24 678.559 Q688.525 678.559 683.907 671.684 Q679.324 664.774 679.324 651.684 Q679.324 638.559 683.907 631.684 Q688.525 624.774 697.24 624.774 Z" fill="#000000" fill-rule="evenodd" fill-opacity="1" /><path clip-path="url(#clip540)" d="M884.518 649.601 Q889.553 650.677 892.365 654.08 Q895.212 657.483 895.212 662.483 Q895.212 670.156 889.934 674.357 Q884.657 678.559 874.935 678.559 Q871.671 678.559 868.198 677.899 Q864.761 677.274 861.08 675.989 L861.08 669.219 Q863.997 670.92 867.469 671.788 Q870.942 672.656 874.726 672.656 Q881.323 672.656 884.761 670.052 Q888.233 667.448 888.233 662.483 Q888.233 657.899 885.004 655.33 Q881.81 652.726 876.08 652.726 L870.039 652.726 L870.039 646.962 L876.358 646.962 Q881.532 646.962 884.275 644.913 Q887.018 642.83 887.018 638.941 Q887.018 634.948 884.171 632.83 Q881.358 630.677 876.08 630.677 Q873.198 630.677 869.9 631.302 Q866.601 631.927 862.643 633.247 L862.643 626.997 Q866.636 625.885 870.108 625.33 Q873.615 624.774 876.705 624.774 Q884.691 624.774 889.344 628.42 Q893.997 632.031 893.997 638.212 Q893.997 642.517 891.532 645.503 Q889.066 648.455 884.518 649.601 Z" fill="#000000" fill-rule="evenodd" fill-opacity="1" /><path clip-path="url(#clip540)" d="M923.511 630.33 Q918.094 630.33 915.351 635.677 Q912.643 640.99 912.643 651.684 Q912.643 662.344 915.351 667.691 Q918.094 673.003 923.511 673.003 Q928.962 673.003 931.67 667.691 Q934.413 662.344 934.413 651.684 Q934.413 640.99 931.67 635.677 Q928.962 630.33 923.511 630.33 M923.511 624.774 Q932.226 624.774 936.809 631.684 Q941.427 638.559 941.427 651.684 Q941.427 664.774 936.809 671.684 Q932.226 678.559 923.511 678.559 Q914.795 678.559 910.177 671.684 Q905.594 664.774 905.594 651.684 Q905.594 638.559 910.177 631.684 Q914.795 624.774 923.511 624.774 Z" fill="#000000" fill-rule="evenodd" fill-opacity="1" /><path clip-path="url(#clip540)" d="M1109.89 631.823 L1092.18 659.496 L1109.89 659.496 L1109.89 631.823 M1108.05 625.712 L1116.86 625.712 L1116.86 659.496 L1124.26 659.496 L1124.26 665.33 L1116.86 665.33 L1116.86 677.552 L1109.89 677.552 L1109.89 665.33 L1086.48 665.33 L1086.48 658.559 L1108.05 625.712 Z" fill="#000000" fill-rule="evenodd" fill-opacity="1" /><path clip-path="url(#clip540)" d="M1150.86 630.33 Q1145.44 630.33 1142.7 635.677 Q1139.99 640.99 1139.99 651.684 Q1139.99 662.344 1142.7 667.691 Q1145.44 673.003 1150.86 673.003 Q1156.31 673.003 1159.02 667.691 Q1161.76 662.344 1161.76 651.684 Q1161.76 640.99 1159.02 635.677 Q1156.31 630.33 1150.86 630.33 M1150.86 624.774 Q1159.57 624.774 1164.16 631.684 Q1168.77 638.559 1168.77 651.684 Q1168.77 664.774 1164.16 671.684 Q1159.57 678.559 1150.86 678.559 Q1142.14 678.559 1137.52 671.684 Q1132.94 664.774 1132.94 651.684 Q1132.94 638.559 1137.52 631.684 Q1142.14 624.774 1150.86 624.774 Z" fill="#000000" fill-rule="evenodd" fill-opacity="1" /><polyline clip-path="url(#clip540)" style="stroke:#000000; stroke-linecap:butt; stroke-linejoin:round; stroke-width:4; stroke-opacity:1; fill:none" points="
  264.915,603.152 264.915,47.2441 
  "/>
<polyline clip-path="url(#clip540)" style="stroke:#000000; stroke-linecap:butt; stroke-linejoin:round; stroke-width:4; stroke-opacity:1; fill:none" points="
  264.915,603.152 283.813,603.152 
  "/>
<polyline clip-path="url(#clip540)" style="stroke:#000000; stroke-linecap:butt; stroke-linejoin:round; stroke-width:4; stroke-opacity:1; fill:none" points="
  264.915,343.357 283.813,343.357 
  "/>
<polyline clip-path="url(#clip540)" style="stroke:#000000; stroke-linecap:butt; stroke-linejoin:round; stroke-width:4; stroke-opacity:1; fill:none" points="
  264.915,83.5619 283.813,83.5619 
  "/>
<path clip-path="url(#clip540)" d="M57.9991 632.841 L69.4573 632.841 L69.4573 593.292 L56.9921 595.792 L56.9921 589.403 L69.3879 586.903 L76.4017 586.903 L76.4017 632.841 L87.86 632.841 L87.86 638.743 L57.9991 638.743 L57.9991 632.841 Z" fill="#000000" fill-rule="evenodd" fill-opacity="1" /><path clip-path="url(#clip540)" d="M117.027 591.521 Q111.61 591.521 108.867 596.868 Q106.159 602.181 106.159 612.875 Q106.159 623.535 108.867 628.882 Q111.61 634.195 117.027 634.195 Q122.478 634.195 125.186 628.882 Q127.929 623.535 127.929 612.875 Q127.929 602.181 125.186 596.868 Q122.478 591.521 117.027 591.521 M117.027 585.966 Q125.742 585.966 130.325 592.875 Q134.943 599.75 134.943 612.875 Q134.943 625.966 130.325 632.875 Q125.742 639.75 117.027 639.75 Q108.311 639.75 103.693 632.875 Q99.11 625.966 99.11 612.875 Q99.11 599.75 103.693 592.875 Q108.311 585.966 117.027 585.966 Z" fill="#000000" fill-rule="evenodd" fill-opacity="1" /><path clip-path="url(#clip540)" d="M134.943 577.118 L171.11 577.118 L171.11 581.914 L134.943 581.914 L134.943 577.118 Z" fill="#000000" fill-rule="evenodd" fill-opacity="1" /><path clip-path="url(#clip540)" d="M184.398 592.832 L193.708 592.832 L193.708 560.699 L183.58 562.73 L183.58 557.539 L193.652 555.508 L199.35 555.508 L199.35 592.832 L208.66 592.832 L208.66 597.628 L184.398 597.628 L184.398 592.832 Z" fill="#000000" fill-rule="evenodd" fill-opacity="1" /><path clip-path="url(#clip540)" d="M232.358 559.26 Q227.957 559.26 225.728 563.604 Q223.528 567.921 223.528 576.61 Q223.528 585.271 225.728 589.616 Q227.957 593.932 232.358 593.932 Q236.787 593.932 238.988 589.616 Q241.216 585.271 241.216 576.61 Q241.216 567.921 238.988 563.604 Q236.787 559.26 232.358 559.26 M232.358 554.746 Q239.439 554.746 243.163 560.36 Q246.915 565.946 246.915 576.61 Q246.915 587.246 243.163 592.86 Q239.439 598.446 232.358 598.446 Q225.277 598.446 221.525 592.86 Q217.801 587.246 217.801 576.61 Q217.801 565.946 221.525 560.36 Q225.277 554.746 232.358 554.746 Z" fill="#000000" fill-rule="evenodd" fill-opacity="1" /><path clip-path="url(#clip540)" d="M95.972 373.046 L107.43 373.046 L107.43 333.497 L94.965 335.997 L94.965 329.608 L107.361 327.108 L114.375 327.108 L114.375 373.046 L125.833 373.046 L125.833 378.948 L95.972 378.948 L95.972 373.046 Z" fill="#000000" fill-rule="evenodd" fill-opacity="1" /><path clip-path="url(#clip540)" d="M154.999 331.726 Q149.583 331.726 146.84 337.073 Q144.131 342.386 144.131 353.08 Q144.131 363.74 146.84 369.087 Q149.583 374.4 154.999 374.4 Q160.451 374.4 163.159 369.087 Q165.902 363.74 165.902 353.08 Q165.902 342.386 163.159 337.073 Q160.451 331.726 154.999 331.726 M154.999 326.171 Q163.715 326.171 168.298 333.08 Q172.916 339.955 172.916 353.08 Q172.916 366.171 168.298 373.08 Q163.715 379.955 154.999 379.955 Q146.284 379.955 141.666 373.08 Q137.083 366.171 137.083 353.08 Q137.083 339.955 141.666 333.08 Q146.284 326.171 154.999 326.171 Z" fill="#000000" fill-rule="evenodd" fill-opacity="1" /><path clip-path="url(#clip540)" d="M172.916 317.323 L209.083 317.323 L209.083 322.119 L172.916 322.119 L172.916 317.323 Z" fill="#000000" fill-rule="evenodd" fill-opacity="1" /><path clip-path="url(#clip540)" d="M221.44 295.713 L243.812 295.713 L243.812 300.509 L226.659 300.509 L226.659 310.834 Q227.9 310.411 229.142 310.213 Q230.383 309.988 231.624 309.988 Q238.677 309.988 242.796 313.853 Q246.915 317.718 246.915 324.319 Q246.915 331.118 242.683 334.899 Q238.452 338.651 230.75 338.651 Q228.098 338.651 225.333 338.199 Q222.597 337.748 219.663 336.845 L219.663 331.118 Q222.202 332.501 224.91 333.178 Q227.618 333.855 230.637 333.855 Q235.518 333.855 238.367 331.288 Q241.216 328.72 241.216 324.319 Q241.216 319.918 238.367 317.351 Q235.518 314.784 230.637 314.784 Q228.352 314.784 226.067 315.292 Q223.81 315.799 221.44 316.871 L221.44 295.713 Z" fill="#000000" fill-rule="evenodd" fill-opacity="1" /><path clip-path="url(#clip540)" d="M140.857 113.251 L152.315 113.251 L152.315 73.7021 L139.85 76.2021 L139.85 69.8133 L152.246 67.3133 L159.259 67.3133 L159.259 113.251 L170.718 113.251 L170.718 119.153 L140.857 119.153 L140.857 113.251 Z" fill="#000000" fill-rule="evenodd" fill-opacity="1" /><path clip-path="url(#clip540)" d="M199.884 71.9313 Q194.468 71.9313 191.724 77.2785 Q189.016 82.591 189.016 93.2854 Q189.016 103.945 191.724 109.292 Q194.468 114.605 199.884 114.605 Q205.336 114.605 208.044 109.292 Q210.787 103.945 210.787 93.2854 Q210.787 82.591 208.044 77.2785 Q205.336 71.9313 199.884 71.9313 M199.884 66.3758 Q208.599 66.3758 213.183 73.2855 Q217.801 80.1604 217.801 93.2854 Q217.801 106.376 213.183 113.285 Q208.599 120.16 199.884 120.16 Q191.169 120.16 186.551 113.285 Q181.968 106.376 181.968 93.2854 Q181.968 80.1604 186.551 73.2855 Q191.169 66.3758 199.884 66.3758 Z" fill="#000000" fill-rule="evenodd" fill-opacity="1" /><path clip-path="url(#clip540)" d="M232.358 39.6698 Q227.957 39.6698 225.728 44.0144 Q223.528 48.3308 223.528 57.02 Q223.528 65.681 225.728 70.0256 Q227.957 74.342 232.358 74.342 Q236.787 74.342 238.988 70.0256 Q241.216 65.681 241.216 57.02 Q241.216 48.3308 238.988 44.0144 Q236.787 39.6698 232.358 39.6698 M232.358 35.156 Q239.439 35.156 243.163 40.7701 Q246.915 46.356 246.915 57.02 Q246.915 67.6558 243.163 73.2699 Q239.439 78.8558 232.358 78.8558 Q225.277 78.8558 221.525 73.2699 Q217.801 67.6558 217.801 57.02 Q217.801 46.356 221.525 40.7701 Q225.277 35.156 232.358 35.156 Z" fill="#000000" fill-rule="evenodd" fill-opacity="1" /><polyline clip-path="url(#clip542)" style="stroke:#000000; stroke-linecap:butt; stroke-linejoin:round; stroke-width:16; stroke-opacity:1; fill:none" stroke-dasharray="8, 16" points="
  290.043,6142.57 301.361,5677.85 312.68,5276.42 323.999,4923.19 335.318,4607.87 346.636,4323.18 357.955,4063.71 369.274,3825.4 380.593,3605.07 391.911,3400.22 
  403.23,3208.84 414.549,3029.28 425.867,2860.18 437.186,2700.39 448.505,2548.95 459.824,2405.04 471.142,2267.95 482.461,2137.08 493.78,2011.88 505.098,1891.9 
  516.417,1776.72 527.736,1665.97 539.055,1559.33 550.373,1456.51 561.692,1357.25 573.011,1262.35 584.33,1177.43 595.648,1103 606.967,1038.64 618.286,983.837 
  629.604,937.824 640.923,899.409 652.242,867.092 663.561,839.325 674.879,814.887 686.198,792.911 697.517,772.842 708.836,754.234 720.154,736.942 731.473,720.659 
  742.792,705.266 754.11,690.636 765.429,676.707 776.748,663.484 788.067,650.695 799.385,638.581 810.704,626.76 822.023,615.596 833.341,604.67 844.66,594.199 
  855.979,584.128 867.298,574.262 878.616,564.784 889.935,555.692 901.254,546.778 912.573,538.036 923.891,529.734 935.21,521.681 946.529,513.777 957.847,506.02 
  969.166,498.474 980.485,491.334 991.804,484.321 1003.12,477.432 1014.44,470.664 1025.76,464.012 1037.08,457.711 1048.4,451.596 1059.72,445.584 1071.03,439.673 
  1082.35,433.861 1093.67,428.144 1104.99,422.605 1116.31,417.36 1127.63,412.201 
  "/>
<polyline clip-path="url(#clip542)" style="stroke:#000000; stroke-linecap:butt; stroke-linejoin:round; stroke-width:16; stroke-opacity:1; fill:none" stroke-dasharray="64, 40" points="
  290.043,4854.55 301.361,4449.94 312.68,4102.91 323.999,3799.44 335.318,3530.07 346.636,3288.11 357.955,3068.66 369.274,2868.02 380.593,2683.33 391.911,2512.35 
  403.23,2353.27 414.549,2204.61 425.867,2065.17 437.186,1933.92 448.505,1810.03 459.824,1692.77 471.142,1581.5 482.461,1475.71 493.78,1374.93 505.098,1278.74 
  516.417,1186.8 527.736,1098.8 539.055,1014.45 550.373,933.518 561.692,855.786 573.011,781.065 584.33,709.189 595.648,640.015 606.967,573.423 618.286,509.322 
  629.604,447.654 640.923,388.437 652.242,336.064 663.561,298.075 674.879,271.692 686.198,253.246 697.517,239.92 708.836,229.931 720.154,222.183 731.473,216.002 
  742.792,210.944 754.11,206.733 765.429,203.159 776.748,200.086 788.067,197.408 799.385,195.048 810.704,192.967 822.023,191.09 833.341,189.415 844.66,187.888 
  855.979,186.494 867.298,185.228 878.616,184.059 889.935,182.976 901.254,181.971 912.573,181.046 923.891,180.182 935.21,179.372 946.529,178.612 957.847,177.897 
  969.166,177.223 980.485,176.587 991.804,175.99 1003.12,175.425 1014.44,174.888 1025.76,174.378 1037.08,173.893 1048.4,173.43 1059.72,172.988 1071.03,172.567 
  1082.35,172.163 1093.67,171.777 1104.99,171.407 1116.31,171.052 1127.63,170.711 
  "/>
</svg>
