<?xml version="1.0" encoding="utf-8"?>
<svg xmlns="http://www.w3.org/2000/svg" xmlns:xlink="http://www.w3.org/1999/xlink" width="325" height="200" viewBox="0 0 1300 800">
<defs>
  <clipPath id="clip600">
    <rect x="0" y="0" width="1300" height="800"/>
  </clipPath>
</defs>
<path clip-path="url(#clip600)" d="
M0 800 L1300 800 L1300 0 L0 0  Z
  " fill="#ffffff" fill-rule="evenodd" fill-opacity="1"/>
<defs>
  <clipPath id="clip601">
    <rect x="260" y="0" width="911" height="800"/>
  </clipPath>
</defs>
<path clip-path="url(#clip600)" d="
M297.569 673.18 L1252.76 673.18 L1252.76 47.2441 L297.569 47.2441  Z
  " fill="#ffffff" fill-rule="evenodd" fill-opacity="1"/>
<defs>
  <clipPath id="clip602">
    <rect x="297" y="47" width="956" height="627"/>
  </clipPath>
</defs>
<polyline clip-path="url(#clip600)" style="stroke:#000000; stroke-linecap:butt; stroke-linejoin:round; stroke-width:4; stroke-opacity:1; fill:none" points="
  297.569,673.18 1252.76,673.18 
  "/>
<polyline clip-path="url(#clip600)" style="stroke:#000000; stroke-linecap:butt; stroke-linejoin:round; stroke-width:4; stroke-opacity:1; fill:none" points="
  495.085,673.18 495.085,654.283 
  "/>
<polyline clip-path="url(#clip600)" style="stroke:#000000; stroke-linecap:butt; stroke-linejoin:round; stroke-width:4; stroke-opacity:1; fill:none" points="
  738.631,673.18 738.631,654.283 
  "/>
<polyline clip-path="url(#clip600)" style="stroke:#000000; stroke-linecap:butt; stroke-linejoin:round; stroke-width:4; stroke-opacity:1; fill:none" points="
  982.176,673.18 982.176,654.283 
  "/>
<polyline clip-path="url(#clip600)" style="stroke:#000000; stroke-linecap:butt; stroke-linejoin:round; stroke-width:4; stroke-opacity:1; fill:none" points="
  1225.72,673.18 1225.72,654.283 
  "/>
<path clip-path="url(#clip600)" d="M450.788 752.294 L464.156 752.294 L464.156 706.154 L449.613 709.07 L449.613 701.617 L464.075 698.7 L472.258 698.7 L472.258 752.294 L485.626 752.294 L485.626 759.18 L450.788 759.18 L450.788 752.294 Z" fill="#000000" fill-rule="evenodd" fill-opacity="1" /><path clip-path="url(#clip600)" d="M519.653 704.088 Q513.334 704.088 510.134 710.326 Q506.974 716.524 506.974 729.001 Q506.974 741.437 510.134 747.676 Q513.334 753.873 519.653 753.873 Q526.013 753.873 529.173 747.676 Q532.373 741.437 532.373 729.001 Q532.373 716.524 529.173 710.326 Q526.013 704.088 519.653 704.088 M519.653 697.606 Q529.821 697.606 535.168 705.668 Q540.556 713.689 540.556 729.001 Q540.556 744.273 535.168 752.334 Q529.821 760.355 519.653 760.355 Q509.486 760.355 504.098 752.334 Q498.751 744.273 498.751 729.001 Q498.751 713.689 504.098 705.668 Q509.486 697.606 519.653 697.606 Z" fill="#000000" fill-rule="evenodd" fill-opacity="1" /><path clip-path="url(#clip600)" d="M701.484 752.294 L730.043 752.294 L730.043 759.18 L691.64 759.18 L691.64 752.294 Q696.299 747.473 704.319 739.371 Q712.381 731.229 714.447 728.879 Q718.376 724.464 719.915 721.426 Q721.495 718.347 721.495 715.39 Q721.495 710.569 718.092 707.531 Q714.73 704.493 709.302 704.493 Q705.454 704.493 701.16 705.83 Q696.906 707.167 692.045 709.881 L692.045 701.617 Q696.987 699.632 701.281 698.619 Q705.575 697.606 709.14 697.606 Q718.538 697.606 724.128 702.305 Q729.719 707.005 729.719 714.863 Q729.719 718.59 728.301 721.952 Q726.923 725.274 723.237 729.811 Q722.224 730.986 716.796 736.617 Q711.368 742.207 701.484 752.294 Z" fill="#000000" fill-rule="evenodd" fill-opacity="1" /><path clip-path="url(#clip600)" d="M764.718 704.088 Q758.399 704.088 755.199 710.326 Q752.039 716.524 752.039 729.001 Q752.039 741.437 755.199 747.676 Q758.399 753.873 764.718 753.873 Q771.078 753.873 774.238 747.676 Q777.438 741.437 777.438 729.001 Q777.438 716.524 774.238 710.326 Q771.078 704.088 764.718 704.088 M764.718 697.606 Q774.886 697.606 780.233 705.668 Q785.621 713.689 785.621 729.001 Q785.621 744.273 780.233 752.334 Q774.886 760.355 764.718 760.355 Q754.551 760.355 749.163 752.334 Q743.816 744.273 743.816 729.001 Q743.816 713.689 749.163 705.668 Q754.551 697.606 764.718 697.606 Z" fill="#000000" fill-rule="evenodd" fill-opacity="1" /><path clip-path="url(#clip600)" d="M962.651 726.57 Q968.525 727.826 971.806 731.796 Q975.128 735.766 975.128 741.599 Q975.128 750.552 968.97 755.453 Q962.813 760.355 951.471 760.355 Q947.663 760.355 943.612 759.585 Q939.601 758.856 935.307 757.357 L935.307 749.458 Q938.71 751.443 942.761 752.456 Q946.812 753.468 951.228 753.468 Q958.924 753.468 962.935 750.43 Q966.986 747.392 966.986 741.599 Q966.986 736.252 963.218 733.254 Q959.491 730.216 952.807 730.216 L945.759 730.216 L945.759 723.492 L953.131 723.492 Q959.167 723.492 962.368 721.102 Q965.568 718.671 965.568 714.134 Q965.568 709.476 962.246 707.005 Q958.965 704.493 952.807 704.493 Q949.445 704.493 945.597 705.222 Q941.748 705.951 937.13 707.491 L937.13 700.199 Q941.789 698.903 945.84 698.255 Q949.931 697.606 953.537 697.606 Q962.854 697.606 968.282 701.86 Q973.71 706.073 973.71 713.283 Q973.71 718.307 970.834 721.79 Q967.958 725.234 962.651 726.57 Z" fill="#000000" fill-rule="evenodd" fill-opacity="1" /><path clip-path="url(#clip600)" d="M1008.14 704.088 Q1001.82 704.088 998.623 710.326 Q995.463 716.524 995.463 729.001 Q995.463 741.437 998.623 747.676 Q1001.82 753.873 1008.14 753.873 Q1014.5 753.873 1017.66 747.676 Q1020.86 741.437 1020.86 729.001 Q1020.86 716.524 1017.66 710.326 Q1014.5 704.088 1008.14 704.088 M1008.14 697.606 Q1018.31 697.606 1023.66 705.668 Q1029.05 713.689 1029.05 729.001 Q1029.05 744.273 1023.66 752.334 Q1018.31 760.355 1008.14 760.355 Q997.975 760.355 992.587 752.334 Q987.24 744.273 987.24 729.001 Q987.24 713.689 992.587 705.668 Q997.975 697.606 1008.14 697.606 Z" fill="#000000" fill-rule="evenodd" fill-opacity="1" /><path clip-path="url(#clip600)" d="M1205.02 705.83 L1184.36 738.115 L1205.02 738.115 L1205.02 705.83 M1202.88 698.7 L1213.16 698.7 L1213.16 738.115 L1221.79 738.115 L1221.79 744.921 L1213.16 744.921 L1213.16 759.18 L1205.02 759.18 L1205.02 744.921 L1177.72 744.921 L1177.72 737.022 L1202.88 698.7 Z" fill="#000000" fill-rule="evenodd" fill-opacity="1" /><path clip-path="url(#clip600)" d="M1252.82 704.088 Q1246.5 704.088 1243.3 710.326 Q1240.14 716.524 1240.14 729.001 Q1240.14 741.437 1243.3 747.676 Q1246.5 753.873 1252.82 753.873 Q1259.18 753.873 1262.34 747.676 Q1265.54 741.437 1265.54 729.001 Q1265.54 716.524 1262.34 710.326 Q1259.18 704.088 1252.82 704.088 M1252.82 697.606 Q1262.99 697.606 1268.34 705.668 Q1273.73 713.689 1273.73 729.001 Q1273.73 744.273 1268.34 752.334 Q1262.99 760.355 1252.82 760.355 Q1242.66 760.355 1237.27 752.334 Q1231.92 744.273 1231.92 729.001 Q1231.92 713.689 1237.27 705.668 Q1242.66 697.606 1252.82 697.606 Z" fill="#000000" fill-rule="evenodd" fill-opacity="1" /><polyline clip-path="url(#clip600)" style="stroke:#000000; stroke-linecap:butt; stroke-linejoin:round; stroke-width:4; stroke-opacity:1; fill:none" points="
  297.569,673.18 297.569,47.2441 
  "/>
<polyline clip-path="url(#clip600)" style="stroke:#000000; stroke-linecap:butt; stroke-linejoin:round; stroke-width:4; stroke-opacity:1; fill:none" points="
  297.569,673.18 316.467,673.18 
  "/>
<polyline clip-path="url(#clip600)" style="stroke:#000000; stroke-linecap:butt; stroke-linejoin:round; stroke-width:4; stroke-opacity:1; fill:none" points="
  297.569,380.659 316.467,380.659 
  "/>
<polyline clip-path="url(#clip600)" style="stroke:#000000; stroke-linecap:butt; stroke-linejoin:round; stroke-width:4; stroke-opacity:1; fill:none" points="
  297.569,88.1369 316.467,88.1369 
  "/>
<path clip-path="url(#clip600)" d="M57.6669 707.817 L71.0349 707.817 L71.0349 661.677 L56.4921 664.594 L56.4921 657.14 L70.9539 654.223 L79.1367 654.223 L79.1367 707.817 L92.5047 707.817 L92.5047 714.703 L57.6669 714.703 L57.6669 707.817 Z" fill="#000000" fill-rule="evenodd" fill-opacity="1" /><path clip-path="url(#clip600)" d="M126.532 659.611 Q120.213 659.611 117.013 665.85 Q113.853 672.047 113.853 684.524 Q113.853 696.961 117.013 703.199 Q120.213 709.397 126.532 709.397 Q132.892 709.397 136.052 703.199 Q139.252 696.961 139.252 684.524 Q139.252 672.047 136.052 665.85 Q132.892 659.611 126.532 659.611 M126.532 653.13 Q136.7 653.13 142.047 661.191 Q147.435 669.212 147.435 684.524 Q147.435 699.796 142.047 707.857 Q136.7 715.878 126.532 715.878 Q116.364 715.878 110.977 707.857 Q105.63 699.796 105.63 684.524 Q105.63 669.212 110.977 661.191 Q116.364 653.13 126.532 653.13 Z" fill="#000000" fill-rule="evenodd" fill-opacity="1" /><path clip-path="url(#clip600)" d="M147.435 642.807 L189.63 642.807 L189.63 648.402 L147.435 648.402 L147.435 642.807 Z" fill="#000000" fill-rule="evenodd" fill-opacity="1" /><path clip-path="url(#clip600)" d="M205.132 661.14 L215.994 661.14 L215.994 623.651 L204.178 626.021 L204.178 619.965 L215.928 617.595 L222.577 617.595 L222.577 661.14 L233.438 661.14 L233.438 666.735 L205.132 666.735 L205.132 661.14 Z" fill="#000000" fill-rule="evenodd" fill-opacity="1" /><path clip-path="url(#clip600)" d="M261.086 621.973 Q255.951 621.973 253.351 627.041 Q250.784 632.077 250.784 642.215 Q250.784 652.319 253.351 657.388 Q255.951 662.424 261.086 662.424 Q266.253 662.424 268.82 657.388 Q271.42 652.319 271.42 642.215 Q271.42 632.077 268.82 627.041 Q266.253 621.973 261.086 621.973 M261.086 616.707 Q269.347 616.707 273.691 623.256 Q278.069 629.773 278.069 642.215 Q278.069 654.623 273.691 661.173 Q269.347 667.69 261.086 667.69 Q252.824 667.69 248.447 661.173 Q244.102 654.623 244.102 642.215 Q244.102 629.773 248.447 623.256 Q252.824 616.707 261.086 616.707 Z" fill="#000000" fill-rule="evenodd" fill-opacity="1" /><path clip-path="url(#clip600)" d="M101.969 415.295 L115.337 415.295 L115.337 369.155 L100.794 372.072 L100.794 364.618 L115.256 361.702 L123.438 361.702 L123.438 415.295 L136.806 415.295 L136.806 422.182 L101.969 422.182 L101.969 415.295 Z" fill="#000000" fill-rule="evenodd" fill-opacity="1" /><path clip-path="url(#clip600)" d="M170.834 367.09 Q164.515 367.09 161.314 373.328 Q158.155 379.526 158.155 392.003 Q158.155 404.439 161.314 410.677 Q164.515 416.875 170.834 416.875 Q177.194 416.875 180.354 410.677 Q183.554 404.439 183.554 392.003 Q183.554 379.526 180.354 373.328 Q177.194 367.09 170.834 367.09 M170.834 360.608 Q181.002 360.608 186.349 368.669 Q191.737 376.69 191.737 392.003 Q191.737 407.274 186.349 415.336 Q181.002 423.357 170.834 423.357 Q160.666 423.357 155.278 415.336 Q149.931 407.274 149.931 392.003 Q149.931 376.69 155.278 368.669 Q160.666 360.608 170.834 360.608 Z" fill="#000000" fill-rule="evenodd" fill-opacity="1" /><path clip-path="url(#clip600)" d="M191.737 350.285 L233.932 350.285 L233.932 355.881 L191.737 355.881 L191.737 350.285 Z" fill="#000000" fill-rule="evenodd" fill-opacity="1" /><path clip-path="url(#clip600)" d="M248.348 325.074 L274.448 325.074 L274.448 330.669 L254.437 330.669 L254.437 342.715 Q255.885 342.222 257.333 341.991 Q258.782 341.728 260.23 341.728 Q268.458 341.728 273.264 346.237 Q278.069 350.746 278.069 358.448 Q278.069 366.38 273.132 370.791 Q268.195 375.168 259.21 375.168 Q256.116 375.168 252.89 374.642 Q249.697 374.115 246.274 373.062 L246.274 366.38 Q249.237 367.993 252.396 368.783 Q255.556 369.573 259.078 369.573 Q264.772 369.573 268.096 366.578 Q271.42 363.583 271.42 358.448 Q271.42 353.313 268.096 350.318 Q264.772 347.323 259.078 347.323 Q256.412 347.323 253.746 347.916 Q251.113 348.508 248.348 349.759 L248.348 325.074 Z" fill="#000000" fill-rule="evenodd" fill-opacity="1" /><path clip-path="url(#clip600)" d="M154.334 122.774 L167.702 122.774 L167.702 76.6338 L153.159 79.5505 L153.159 72.0968 L167.621 69.1802 L175.804 69.1802 L175.804 122.774 L189.172 122.774 L189.172 129.66 L154.334 129.66 L154.334 122.774 Z" fill="#000000" fill-rule="evenodd" fill-opacity="1" /><path clip-path="url(#clip600)" d="M223.199 74.5679 Q216.88 74.5679 213.68 80.8063 Q210.52 87.0041 210.52 99.4809 Q210.52 111.917 213.68 118.156 Q216.88 124.353 223.199 124.353 Q229.559 124.353 232.719 118.156 Q235.919 111.917 235.919 99.4809 Q235.919 87.0041 232.719 80.8063 Q229.559 74.5679 223.199 74.5679 M223.199 68.0864 Q233.367 68.0864 238.714 76.1477 Q244.102 84.1685 244.102 99.4809 Q244.102 114.753 238.714 122.814 Q233.367 130.835 223.199 130.835 Q213.032 130.835 207.644 122.814 Q202.297 114.753 202.297 99.4809 Q202.297 84.1685 207.644 76.1477 Q213.032 68.0864 223.199 68.0864 Z" fill="#000000" fill-rule="evenodd" fill-opacity="1" /><path clip-path="url(#clip600)" d="M261.086 36.9295 Q255.951 36.9295 253.351 41.9982 Q250.784 47.0339 250.784 57.1713 Q250.784 67.2758 253.351 72.3445 Q255.951 77.3803 261.086 77.3803 Q266.253 77.3803 268.82 72.3445 Q271.42 67.2758 271.42 57.1713 Q271.42 47.0339 268.82 41.9982 Q266.253 36.9295 261.086 36.9295 M261.086 31.6633 Q269.347 31.6633 273.691 38.2131 Q278.069 44.73 278.069 57.1713 Q278.069 69.5798 273.691 76.1296 Q269.347 82.6465 261.086 82.6465 Q252.824 82.6465 248.447 76.1296 Q244.102 69.5798 244.102 57.1713 Q244.102 44.73 248.447 38.2131 Q252.824 31.6633 261.086 31.6633 Z" fill="#000000" fill-rule="evenodd" fill-opacity="1" /><polyline clip-path="url(#clip602)" style="stroke:#000000; stroke-linecap:butt; stroke-linejoin:round; stroke-width:16; stroke-opacity:1; fill:none" points="
  324.603,6910.4 336.78,6387.14 348.957,5935.14 361.134,5537.41 373.312,5182.38 385.489,4861.82 397.666,4569.67 409.844,4301.33 422.021,4053.25 434.198,3822.6 
  446.376,3607.11 458.553,3404.93 470.73,3214.52 482.907,3034.6 495.085,2864.09 507.262,2702.05 519.439,2547.7 531.617,2400.34 543.794,2259.37 555.971,2124.28 
  568.148,1994.58 580.326,1869.88 592.503,1749.81 604.68,1634.04 616.858,1522.28 629.035,1415.42 641.212,1319.8 653.39,1235.99 665.567,1163.52 677.744,1101.82 
  689.921,1050.01 702.099,1006.76 714.276,970.369 726.453,939.104 738.631,911.588 750.808,886.844 762.985,864.246 775.162,843.294 787.34,823.824 799.517,805.489 
  811.694,788.158 823.872,771.685 836.049,756.001 848.226,741.112 860.404,726.712 872.581,713.072 884.758,699.762 896.935,687.192 909.113,674.889 921.29,663.1 
  933.467,651.76 945.645,640.651 957.822,629.979 969.999,619.741 982.176,609.705 994.354,599.862 1006.53,590.514 1018.71,581.446 1030.89,572.547 1043.06,563.812 
  1055.24,555.316 1067.42,547.276 1079.59,539.38 1091.77,531.623 1103.95,524.002 1116.13,516.513 1128.3,509.418 1140.48,502.533 1152.66,495.764 1164.84,489.108 
  1177.01,482.563 1189.19,476.126 1201.37,469.889 1213.55,463.984 1225.72,458.174 
  "/>
<polyline clip-path="url(#clip602)" style="stroke:#000000; stroke-linecap:butt; stroke-linejoin:round; stroke-width:16; stroke-opacity:1; fill:none" points="
  324.603,5460.14 336.78,5004.55 348.957,4613.81 361.134,4272.11 373.312,3968.81 385.489,3696.37 397.666,3449.27 409.844,3223.35 422.021,3015.4 434.198,2822.88 
  446.376,2643.76 458.553,2476.37 470.73,2319.37 482.907,2171.59 495.085,2032.09 507.262,1900.05 519.439,1774.78 531.617,1655.66 543.794,1542.18 555.971,1433.88 
  568.148,1330.35 580.326,1231.26 592.503,1136.29 604.68,1045.16 616.858,957.639 629.035,873.505 641.212,792.574 653.39,714.687 665.567,639.707 677.744,567.53 
  689.921,498.094 702.099,431.417 714.276,372.447 726.453,329.672 738.631,299.966 750.808,279.196 762.985,264.192 775.162,252.944 787.34,244.22 799.517,237.26 
  811.694,231.566 823.872,226.824 836.049,222.799 848.226,219.339 860.404,216.325 872.581,213.667 884.758,211.324 896.935,209.21 909.113,207.324 921.29,205.605 
  933.467,204.035 945.645,202.61 957.822,201.294 969.999,200.074 982.176,198.943 994.354,197.901 1006.53,196.928 1018.71,196.016 1030.89,195.16 1043.06,194.355 
  1055.24,193.597 1067.42,192.88 1079.59,192.208 1091.77,191.572 1103.95,190.968 1116.13,190.393 1128.3,189.847 1140.48,189.326 1152.66,188.828 1164.84,188.354 
  1177.01,187.899 1189.19,187.464 1201.37,187.048 1213.55,186.648 1225.72,186.264 
  "/>
</svg>
