<?xml version="1.0" encoding="utf-8"?>
<svg xmlns="http://www.w3.org/2000/svg" xmlns:xlink="http://www.w3.org/1999/xlink" width="325" height="150" viewBox="0 0 1300 600">
<defs>
  <clipPath id="clip620">
    <rect x="0" y="0" width="1300" height="600"/>
  </clipPath>
</defs>
<path clip-path="url(#clip620)" d="
M0 600 L1300 600 L1300 0 L0 0  Z
  " fill="#ffffff" fill-rule="evenodd" fill-opacity="1"/>
<defs>
  <clipPath id="clip621">
    <rect x="260" y="0" width="911" height="600"/>
  </clipPath>
</defs>
<path clip-path="url(#clip620)" d="
M200.094 501.1 L1252.76 501.1 L1252.76 47.2441 L200.094 47.2441  Z
  " fill="#ffffff" fill-rule="evenodd" fill-opacity="1"/>
<defs>
  <clipPath id="clip622">
    <rect x="200" y="47" width="1054" height="455"/>
  </clipPath>
</defs>
<polyline clip-path="url(#clip620)" style="stroke:#000000; stroke-linecap:butt; stroke-linejoin:round; stroke-width:4; stroke-opacity:1; fill:none" points="
  200.094,501.1 1252.76,501.1 
  "/>
<polyline clip-path="url(#clip620)" style="stroke:#000000; stroke-linecap:butt; stroke-linejoin:round; stroke-width:4; stroke-opacity:1; fill:none" points="
  200.094,501.1 200.094,482.203 
  "/>
<polyline clip-path="url(#clip620)" style="stroke:#000000; stroke-linecap:butt; stroke-linejoin:round; stroke-width:4; stroke-opacity:1; fill:none" points="
  548.658,501.1 548.658,482.203 
  "/>
<polyline clip-path="url(#clip620)" style="stroke:#000000; stroke-linecap:butt; stroke-linejoin:round; stroke-width:4; stroke-opacity:1; fill:none" points="
  897.221,501.1 897.221,482.203 
  "/>
<polyline clip-path="url(#clip620)" style="stroke:#000000; stroke-linecap:butt; stroke-linejoin:round; stroke-width:4; stroke-opacity:1; fill:none" points="
  1245.78,501.1 1245.78,482.203 
  "/>
<path clip-path="url(#clip620)" d="M200.094 526.149 Q195.581 526.149 193.295 530.605 Q191.038 535.032 191.038 543.944 Q191.038 552.827 193.295 557.283 Q195.581 561.71 200.094 561.71 Q204.637 561.71 206.894 557.283 Q209.18 552.827 209.18 543.944 Q209.18 535.032 206.894 530.605 Q204.637 526.149 200.094 526.149 M200.094 521.519 Q207.357 521.519 211.177 527.277 Q215.025 533.006 215.025 543.944 Q215.025 554.852 211.177 560.61 Q207.357 566.339 200.094 566.339 Q192.832 566.339 188.983 560.61 Q185.164 554.852 185.164 543.944 Q185.164 533.006 188.983 527.277 Q192.832 521.519 200.094 521.519 Z" fill="#000000" fill-rule="evenodd" fill-opacity="1" /><path clip-path="url(#clip620)" d="M517.032 522.3 L539.977 522.3 L539.977 527.219 L522.385 527.219 L522.385 537.809 Q523.658 537.375 524.931 537.173 Q526.204 536.941 527.477 536.941 Q534.711 536.941 538.936 540.905 Q543.16 544.87 543.16 551.64 Q543.16 558.614 538.82 562.491 Q534.48 566.339 526.58 566.339 Q523.861 566.339 521.025 565.876 Q518.218 565.413 515.209 564.487 L515.209 558.614 Q517.813 560.031 520.591 560.726 Q523.369 561.42 526.465 561.42 Q531.47 561.42 534.393 558.787 Q537.315 556.154 537.315 551.64 Q537.315 547.126 534.393 544.493 Q531.47 541.86 526.465 541.86 Q524.121 541.86 521.777 542.381 Q519.462 542.902 517.032 544.001 L517.032 522.3 Z" fill="#000000" fill-rule="evenodd" fill-opacity="1" /><path clip-path="url(#clip620)" d="M567.176 526.149 Q562.662 526.149 560.377 530.605 Q558.12 535.032 558.12 543.944 Q558.12 552.827 560.377 557.283 Q562.662 561.71 567.176 561.71 Q571.719 561.71 573.976 557.283 Q576.262 552.827 576.262 543.944 Q576.262 535.032 573.976 530.605 Q571.719 526.149 567.176 526.149 M567.176 521.519 Q574.439 521.519 578.258 527.277 Q582.107 533.006 582.107 543.944 Q582.107 554.852 578.258 560.61 Q574.439 566.339 567.176 566.339 Q559.914 566.339 556.065 560.61 Q552.246 554.852 552.246 543.944 Q552.246 533.006 556.065 527.277 Q559.914 521.519 567.176 521.519 Z" fill="#000000" fill-rule="evenodd" fill-opacity="1" /><path clip-path="url(#clip620)" d="M846.73 560.581 L856.278 560.581 L856.278 527.624 L845.891 529.708 L845.891 524.384 L856.22 522.3 L862.065 522.3 L862.065 560.581 L871.614 560.581 L871.614 565.5 L846.73 565.5 L846.73 560.581 Z" fill="#000000" fill-rule="evenodd" fill-opacity="1" /><path clip-path="url(#clip620)" d="M895.919 526.149 Q891.405 526.149 889.119 530.605 Q886.863 535.032 886.863 543.944 Q886.863 552.827 889.119 557.283 Q891.405 561.71 895.919 561.71 Q900.462 561.71 902.719 557.283 Q905.005 552.827 905.005 543.944 Q905.005 535.032 902.719 530.605 Q900.462 526.149 895.919 526.149 M895.919 521.519 Q903.182 521.519 907.001 527.277 Q910.85 533.006 910.85 543.944 Q910.85 554.852 907.001 560.61 Q903.182 566.339 895.919 566.339 Q888.656 566.339 884.808 560.61 Q880.989 554.852 880.989 543.944 Q880.989 533.006 884.808 527.277 Q888.656 521.519 895.919 521.519 Z" fill="#000000" fill-rule="evenodd" fill-opacity="1" /><path clip-path="url(#clip620)" d="M933.622 526.149 Q929.108 526.149 926.822 530.605 Q924.565 535.032 924.565 543.944 Q924.565 552.827 926.822 557.283 Q929.108 561.71 933.622 561.71 Q938.164 561.71 940.421 557.283 Q942.707 552.827 942.707 543.944 Q942.707 535.032 940.421 530.605 Q938.164 526.149 933.622 526.149 M933.622 521.519 Q940.884 521.519 944.704 527.277 Q948.552 533.006 948.552 543.944 Q948.552 554.852 944.704 560.61 Q940.884 566.339 933.622 566.339 Q926.359 566.339 922.51 560.61 Q918.691 554.852 918.691 543.944 Q918.691 533.006 922.51 527.277 Q926.359 521.519 933.622 521.519 Z" fill="#000000" fill-rule="evenodd" fill-opacity="1" /><path clip-path="url(#clip620)" d="M1195.29 560.581 L1204.84 560.581 L1204.84 527.624 L1194.45 529.708 L1194.45 524.384 L1204.78 522.3 L1210.63 522.3 L1210.63 560.581 L1220.18 560.581 L1220.18 565.5 L1195.29 565.5 L1195.29 560.581 Z" fill="#000000" fill-rule="evenodd" fill-opacity="1" /><path clip-path="url(#clip620)" d="M1232.04 522.3 L1254.99 522.3 L1254.99 527.219 L1237.39 527.219 L1237.39 537.809 Q1238.67 537.375 1239.94 537.173 Q1241.21 536.941 1242.49 536.941 Q1249.72 536.941 1253.94 540.905 Q1258.17 544.87 1258.17 551.64 Q1258.17 558.614 1253.83 562.491 Q1249.49 566.339 1241.59 566.339 Q1238.87 566.339 1236.03 565.876 Q1233.23 565.413 1230.22 564.487 L1230.22 558.614 Q1232.82 560.031 1235.6 560.726 Q1238.38 561.42 1241.47 561.42 Q1246.48 561.42 1249.4 558.787 Q1252.32 556.154 1252.32 551.64 Q1252.32 547.126 1249.4 544.493 Q1246.48 541.86 1241.47 541.86 Q1239.13 541.86 1236.79 542.381 Q1234.47 542.902 1232.04 544.001 L1232.04 522.3 Z" fill="#000000" fill-rule="evenodd" fill-opacity="1" /><path clip-path="url(#clip620)" d="M1282.18 526.149 Q1277.67 526.149 1275.39 530.605 Q1273.13 535.032 1273.13 543.944 Q1273.13 552.827 1275.39 557.283 Q1277.67 561.71 1282.18 561.71 Q1286.73 561.71 1288.98 557.283 Q1291.27 552.827 1291.27 543.944 Q1291.27 535.032 1288.98 530.605 Q1286.73 526.149 1282.18 526.149 M1282.18 521.519 Q1289.45 521.519 1293.27 527.277 Q1297.12 533.006 1297.12 543.944 Q1297.12 554.852 1293.27 560.61 Q1289.45 566.339 1282.18 566.339 Q1274.92 566.339 1271.07 560.61 Q1267.25 554.852 1267.25 543.944 Q1267.25 533.006 1271.07 527.277 Q1274.92 521.519 1282.18 521.519 Z" fill="#000000" fill-rule="evenodd" fill-opacity="1" /><polyline clip-path="url(#clip620)" style="stroke:#000000; stroke-linecap:butt; stroke-linejoin:round; stroke-width:4; stroke-opacity:1; fill:none" points="
  200.094,501.1 200.094,47.2441 
  "/>
<polyline clip-path="url(#clip620)" style="stroke:#000000; stroke-linecap:butt; stroke-linejoin:round; stroke-width:4; stroke-opacity:1; fill:none" points="
  200.094,487.84 218.992,487.84 
  "/>
<polyline clip-path="url(#clip620)" style="stroke:#000000; stroke-linecap:butt; stroke-linejoin:round; stroke-width:4; stroke-opacity:1; fill:none" points="
  200.094,380.899 218.992,380.899 
  "/>
<polyline clip-path="url(#clip620)" style="stroke:#000000; stroke-linecap:butt; stroke-linejoin:round; stroke-width:4; stroke-opacity:1; fill:none" points="
  200.094,273.958 218.992,273.958 
  "/>
<polyline clip-path="url(#clip620)" style="stroke:#000000; stroke-linecap:butt; stroke-linejoin:round; stroke-width:4; stroke-opacity:1; fill:none" points="
  200.094,167.018 218.992,167.018 
  "/>
<polyline clip-path="url(#clip620)" style="stroke:#000000; stroke-linecap:butt; stroke-linejoin:round; stroke-width:4; stroke-opacity:1; fill:none" points="
  200.094,60.077 218.992,60.077 
  "/>
<path clip-path="url(#clip620)" d="M71.4226 470.088 Q66.9087 470.088 64.6229 474.544 Q62.3659 478.971 62.3659 487.883 Q62.3659 496.766 64.6229 501.222 Q66.9087 505.649 71.4226 505.649 Q75.9654 505.649 78.2223 501.222 Q80.5082 496.766 80.5082 487.883 Q80.5082 478.971 78.2223 474.544 Q75.9654 470.088 71.4226 470.088 M71.4226 465.458 Q78.6853 465.458 82.5047 471.216 Q86.3531 476.946 86.3531 487.883 Q86.3531 498.791 82.5047 504.55 Q78.6853 510.279 71.4226 510.279 Q64.1599 510.279 60.3115 504.55 Q56.4921 498.791 56.4921 487.883 Q56.4921 476.946 60.3115 471.216 Q64.1599 465.458 71.4226 465.458 Z" fill="#000000" fill-rule="evenodd" fill-opacity="1" /><path clip-path="url(#clip620)" d="M96.625 502.09 L102.73 502.09 L102.73 509.44 L96.625 509.44 L96.625 502.09 Z" fill="#000000" fill-rule="evenodd" fill-opacity="1" /><path clip-path="url(#clip620)" d="M127.962 470.088 Q123.448 470.088 121.162 474.544 Q118.905 478.971 118.905 487.883 Q118.905 496.766 121.162 501.222 Q123.448 505.649 127.962 505.649 Q132.504 505.649 134.761 501.222 Q137.047 496.766 137.047 487.883 Q137.047 478.971 134.761 474.544 Q132.504 470.088 127.962 470.088 M127.962 465.458 Q135.224 465.458 139.044 471.216 Q142.892 476.946 142.892 487.883 Q142.892 498.791 139.044 504.55 Q135.224 510.279 127.962 510.279 Q120.699 510.279 116.851 504.55 Q113.031 498.791 113.031 487.883 Q113.031 476.946 116.851 471.216 Q120.699 465.458 127.962 465.458 Z" fill="#000000" fill-rule="evenodd" fill-opacity="1" /><path clip-path="url(#clip620)" d="M165.664 470.088 Q161.15 470.088 158.864 474.544 Q156.607 478.971 156.607 487.883 Q156.607 496.766 158.864 501.222 Q161.15 505.649 165.664 505.649 Q170.207 505.649 172.464 501.222 Q174.75 496.766 174.75 487.883 Q174.75 478.971 172.464 474.544 Q170.207 470.088 165.664 470.088 M165.664 465.458 Q172.927 465.458 176.746 471.216 Q180.594 476.946 180.594 487.883 Q180.594 498.791 176.746 504.55 Q172.927 510.279 165.664 510.279 Q158.401 510.279 154.553 504.55 Q150.734 498.791 150.734 487.883 Q150.734 476.946 154.553 471.216 Q158.401 465.458 165.664 465.458 Z" fill="#000000" fill-rule="evenodd" fill-opacity="1" /><path clip-path="url(#clip620)" d="M72.6668 363.147 Q68.1529 363.147 65.8671 367.603 Q63.6101 372.03 63.6101 380.942 Q63.6101 389.825 65.8671 394.281 Q68.1529 398.708 72.6668 398.708 Q77.2096 398.708 79.4665 394.281 Q81.7524 389.825 81.7524 380.942 Q81.7524 372.03 79.4665 367.603 Q77.2096 363.147 72.6668 363.147 M72.6668 358.518 Q79.9295 358.518 83.7489 364.276 Q87.5973 370.005 87.5973 380.942 Q87.5973 391.851 83.7489 397.609 Q79.9295 403.338 72.6668 403.338 Q65.4041 403.338 61.5558 397.609 Q57.7363 391.851 57.7363 380.942 Q57.7363 370.005 61.5558 364.276 Q65.4041 358.518 72.6668 358.518 Z" fill="#000000" fill-rule="evenodd" fill-opacity="1" /><path clip-path="url(#clip620)" d="M97.8692 395.149 L103.975 395.149 L103.975 402.499 L97.8692 402.499 L97.8692 395.149 Z" fill="#000000" fill-rule="evenodd" fill-opacity="1" /><path clip-path="url(#clip620)" d="M121.741 397.58 L142.14 397.58 L142.14 402.499 L114.709 402.499 L114.709 397.58 Q118.037 394.137 123.766 388.35 Q129.524 382.534 131 380.855 Q133.807 377.702 134.906 375.531 Q136.035 373.332 136.035 371.22 Q136.035 367.777 133.604 365.607 Q131.202 363.437 127.325 363.437 Q124.576 363.437 121.509 364.391 Q118.471 365.346 114.999 367.285 L114.999 361.382 Q118.529 359.964 121.596 359.241 Q124.663 358.518 127.209 358.518 Q133.922 358.518 137.915 361.874 Q141.908 365.231 141.908 370.844 Q141.908 373.506 140.896 375.908 Q139.912 378.28 137.279 381.521 Q136.555 382.36 132.678 386.382 Q128.801 390.375 121.741 397.58 Z" fill="#000000" fill-rule="evenodd" fill-opacity="1" /><path clip-path="url(#clip620)" d="M154.466 359.299 L177.412 359.299 L177.412 364.218 L159.819 364.218 L159.819 374.808 Q161.092 374.374 162.365 374.172 Q163.639 373.94 164.912 373.94 Q172.145 373.94 176.37 377.904 Q180.594 381.868 180.594 388.639 Q180.594 395.612 176.254 399.49 Q171.914 403.338 164.015 403.338 Q161.295 403.338 158.459 402.875 Q155.652 402.412 152.643 401.486 L152.643 395.612 Q155.247 397.03 158.025 397.725 Q160.803 398.419 163.899 398.419 Q168.905 398.419 171.827 395.786 Q174.75 393.153 174.75 388.639 Q174.75 384.125 171.827 381.492 Q168.905 378.859 163.899 378.859 Q161.555 378.859 159.211 379.38 Q156.897 379.901 154.466 381 L154.466 359.299 Z" fill="#000000" fill-rule="evenodd" fill-opacity="1" /><path clip-path="url(#clip620)" d="M71.4226 256.207 Q66.9087 256.207 64.6229 260.663 Q62.3659 265.09 62.3659 274.002 Q62.3659 282.885 64.6229 287.341 Q66.9087 291.768 71.4226 291.768 Q75.9654 291.768 78.2223 287.341 Q80.5082 282.885 80.5082 274.002 Q80.5082 265.09 78.2223 260.663 Q75.9654 256.207 71.4226 256.207 M71.4226 251.577 Q78.6853 251.577 82.5047 257.335 Q86.3531 263.064 86.3531 274.002 Q86.3531 284.91 82.5047 290.668 Q78.6853 296.397 71.4226 296.397 Q64.1599 296.397 60.3115 290.668 Q56.4921 284.91 56.4921 274.002 Q56.4921 263.064 60.3115 257.335 Q64.1599 251.577 71.4226 251.577 Z" fill="#000000" fill-rule="evenodd" fill-opacity="1" /><path clip-path="url(#clip620)" d="M96.625 288.209 L102.73 288.209 L102.73 295.558 L96.625 295.558 L96.625 288.209 Z" fill="#000000" fill-rule="evenodd" fill-opacity="1" /><path clip-path="url(#clip620)" d="M115.52 252.358 L138.465 252.358 L138.465 257.277 L120.873 257.277 L120.873 267.867 Q122.146 267.433 123.419 267.231 Q124.692 266.999 125.965 266.999 Q133.199 266.999 137.423 270.963 Q141.648 274.928 141.648 281.698 Q141.648 288.672 137.308 292.549 Q132.967 296.397 125.068 296.397 Q122.348 296.397 119.513 295.934 Q116.706 295.471 113.697 294.546 L113.697 288.672 Q116.301 290.09 119.079 290.784 Q121.856 291.478 124.952 291.478 Q129.958 291.478 132.881 288.845 Q135.803 286.212 135.803 281.698 Q135.803 277.185 132.881 274.551 Q129.958 271.918 124.952 271.918 Q122.609 271.918 120.265 272.439 Q117.95 272.96 115.52 274.06 L115.52 252.358 Z" fill="#000000" fill-rule="evenodd" fill-opacity="1" /><path clip-path="url(#clip620)" d="M165.664 256.207 Q161.15 256.207 158.864 260.663 Q156.607 265.09 156.607 274.002 Q156.607 282.885 158.864 287.341 Q161.15 291.768 165.664 291.768 Q170.207 291.768 172.464 287.341 Q174.75 282.885 174.75 274.002 Q174.75 265.09 172.464 260.663 Q170.207 256.207 165.664 256.207 M165.664 251.577 Q172.927 251.577 176.746 257.335 Q180.594 263.064 180.594 274.002 Q180.594 284.91 176.746 290.668 Q172.927 296.397 165.664 296.397 Q158.401 296.397 154.553 290.668 Q150.734 284.91 150.734 274.002 Q150.734 263.064 154.553 257.335 Q158.401 251.577 165.664 251.577 Z" fill="#000000" fill-rule="evenodd" fill-opacity="1" /><path clip-path="url(#clip620)" d="M72.6668 149.266 Q68.1529 149.266 65.8671 153.722 Q63.6101 158.149 63.6101 167.061 Q63.6101 175.944 65.8671 180.4 Q68.1529 184.827 72.6668 184.827 Q77.2096 184.827 79.4665 180.4 Q81.7524 175.944 81.7524 167.061 Q81.7524 158.149 79.4665 153.722 Q77.2096 149.266 72.6668 149.266 M72.6668 144.636 Q79.9295 144.636 83.7489 150.394 Q87.5973 156.124 87.5973 167.061 Q87.5973 177.97 83.7489 183.728 Q79.9295 189.457 72.6668 189.457 Q65.4041 189.457 61.5558 183.728 Q57.7363 177.97 57.7363 167.061 Q57.7363 156.124 61.5558 150.394 Q65.4041 144.636 72.6668 144.636 Z" fill="#000000" fill-rule="evenodd" fill-opacity="1" /><path clip-path="url(#clip620)" d="M97.8692 181.268 L103.975 181.268 L103.975 188.618 L97.8692 188.618 L97.8692 181.268 Z" fill="#000000" fill-rule="evenodd" fill-opacity="1" /><path clip-path="url(#clip620)" d="M115.23 145.418 L143.008 145.418 L143.008 147.906 L127.325 188.618 L121.22 188.618 L135.977 150.337 L115.23 150.337 L115.23 145.418 Z" fill="#000000" fill-rule="evenodd" fill-opacity="1" /><path clip-path="url(#clip620)" d="M154.466 145.418 L177.412 145.418 L177.412 150.337 L159.819 150.337 L159.819 160.927 Q161.092 160.493 162.365 160.29 Q163.639 160.059 164.912 160.059 Q172.145 160.059 176.37 164.023 Q180.594 167.987 180.594 174.758 Q180.594 181.731 176.254 185.608 Q171.914 189.457 164.015 189.457 Q161.295 189.457 158.459 188.994 Q155.652 188.531 152.643 187.605 L152.643 181.731 Q155.247 183.149 158.025 183.843 Q160.803 184.538 163.899 184.538 Q168.905 184.538 171.827 181.905 Q174.75 179.272 174.75 174.758 Q174.75 170.244 171.827 167.611 Q168.905 164.978 163.899 164.978 Q161.555 164.978 159.211 165.499 Q156.897 166.019 154.466 167.119 L154.466 145.418 Z" fill="#000000" fill-rule="evenodd" fill-opacity="1" /><path clip-path="url(#clip620)" d="M59.9354 76.758 L69.484 76.758 L69.484 43.801 L59.0963 45.8843 L59.0963 40.5603 L69.4261 38.477 L75.271 38.477 L75.271 76.758 L84.8195 76.758 L84.8195 81.677 L59.9354 81.677 L59.9354 76.758 Z" fill="#000000" fill-rule="evenodd" fill-opacity="1" /><path clip-path="url(#clip620)" d="M96.625 74.3275 L102.73 74.3275 L102.73 81.677 L96.625 81.677 L96.625 74.3275 Z" fill="#000000" fill-rule="evenodd" fill-opacity="1" /><path clip-path="url(#clip620)" d="M127.962 42.3253 Q123.448 42.3253 121.162 46.7813 Q118.905 51.2084 118.905 60.1204 Q118.905 69.0034 121.162 73.4594 Q123.448 77.8865 127.962 77.8865 Q132.504 77.8865 134.761 73.4594 Q137.047 69.0034 137.047 60.1204 Q137.047 51.2084 134.761 46.7813 Q132.504 42.3253 127.962 42.3253 M127.962 37.6957 Q135.224 37.6957 139.044 43.4538 Q142.892 49.1829 142.892 60.1204 Q142.892 71.0289 139.044 76.787 Q135.224 82.5161 127.962 82.5161 Q120.699 82.5161 116.851 76.787 Q113.031 71.0289 113.031 60.1204 Q113.031 49.1829 116.851 43.4538 Q120.699 37.6957 127.962 37.6957 Z" fill="#000000" fill-rule="evenodd" fill-opacity="1" /><path clip-path="url(#clip620)" d="M165.664 42.3253 Q161.15 42.3253 158.864 46.7813 Q156.607 51.2084 156.607 60.1204 Q156.607 69.0034 158.864 73.4594 Q161.15 77.8865 165.664 77.8865 Q170.207 77.8865 172.464 73.4594 Q174.75 69.0034 174.75 60.1204 Q174.75 51.2084 172.464 46.7813 Q170.207 42.3253 165.664 42.3253 M165.664 37.6957 Q172.927 37.6957 176.746 43.4538 Q180.594 49.1829 180.594 60.1204 Q180.594 71.0289 176.746 76.787 Q172.927 82.5161 165.664 82.5161 Q158.401 82.5161 154.553 76.787 Q150.734 71.0289 150.734 60.1204 Q150.734 49.1829 154.553 43.4538 Q158.401 37.6957 165.664 37.6957 Z" fill="#000000" fill-rule="evenodd" fill-opacity="1" /><polyline clip-path="url(#clip622)" style="stroke:#ff00ff; stroke-linecap:butt; stroke-linejoin:round; stroke-width:16; stroke-opacity:1; fill:none" points="
  207.066,274.065 214.037,274.146 221.008,274.132 227.98,274.128 234.951,274.123 241.922,274.119 248.893,274.115 255.865,274.112 262.836,274.108 269.807,274.105 
  276.778,274.102 283.75,274.099 290.721,274.096 297.692,274.093 304.663,274.091 311.635,274.088 318.606,274.086 325.577,274.084 332.549,274.081 339.52,274.079 
  346.491,274.077 353.462,274.076 360.434,274.074 367.405,274.072 374.376,274.07 381.347,274.069 388.319,274.067 395.29,274.066 402.261,274.064 409.233,274.063 
  416.204,274.061 423.175,274.06 430.146,274.059 437.118,274.058 444.089,274.056 451.06,274.055 458.031,274.054 465.003,274.053 471.974,274.052 478.945,274.051 
  485.916,274.049 492.888,274.048 499.859,274.047 506.83,274.046 513.802,274.045 520.773,274.044 527.744,274.043 534.715,274.043 541.687,274.042 548.658,274.041 
  555.629,274.04 562.6,274.039 569.572,274.038 576.543,274.037 583.514,274.036 590.485,274.036 597.457,274.035 604.428,274.034 611.399,274.033 618.371,274.032 
  625.342,274.032 632.313,274.031 639.284,274.03 646.256,274.029 653.227,274.029 660.198,274.028 667.169,274.027 674.141,274.026 681.112,274.026 688.083,274.025 
  695.054,274.024 702.026,274.024 708.997,274.023 715.968,274.022 722.94,274.022 729.911,274.021 736.882,274.02 743.853,274.02 750.825,274.019 757.796,274.019 
  764.767,274.018 771.738,274.017 778.71,274.017 785.681,274.016 792.652,274.016 799.623,274.015 806.595,274.014 813.566,274.014 820.537,274.013 827.509,274.013 
  834.48,274.012 841.451,274.012 848.422,274.011 855.394,274.011 862.365,274.01 869.336,274.009 876.307,274.009 883.279,274.008 890.25,274.008 897.221,274.007 
  904.193,274.007 911.164,274.006 918.135,274.006 925.106,274.005 932.078,274.005 939.049,274.005 946.02,274.004 952.991,274.004 959.963,274.003 966.934,274.003 
  973.905,274.002 980.876,274.002 987.848,274.001 994.819,274.001 1001.79,274.001 1008.76,274 1015.73,274 1022.7,273.999 1029.68,273.999 1036.65,273.998 
  1043.62,273.998 1050.59,273.998 1057.56,273.997 1064.53,273.997 1071.5,273.996 1078.47,273.996 1085.45,273.996 1092.42,273.995 1099.39,273.995 1106.36,273.995 
  1113.33,273.994 1120.3,273.994 1127.27,273.994 1134.24,273.993 1141.22,273.993 1148.19,273.992 1155.16,273.992 1162.13,273.992 1169.1,273.991 1176.07,273.991 
  1183.04,273.991 1190.01,273.99 1196.99,273.99 1203.96,273.99 1210.93,273.99 1217.9,273.989 1224.87,273.989 1231.84,273.989 1238.81,273.988 1245.78,273.988 
  1252.76,273.988 
  "/>
<polyline clip-path="url(#clip622)" style="stroke:#2000d4; stroke-linecap:butt; stroke-linejoin:round; stroke-width:16; stroke-opacity:1; fill:none" stroke-dasharray="8, 16" points="
  207.066,487.84 214.037,487.84 221.008,487.84 227.98,487.84 234.951,487.84 241.922,487.84 248.893,487.84 255.865,487.84 262.836,487.84 269.807,487.84 
  276.778,487.84 283.75,487.84 290.721,487.84 297.692,487.84 304.663,487.84 311.635,487.84 318.606,487.84 325.577,487.84 332.549,487.84 339.52,487.84 
  346.491,487.84 353.462,487.84 360.434,487.84 367.405,487.84 374.376,487.84 381.347,487.84 388.319,487.84 395.29,487.84 402.261,487.84 409.233,487.84 
  416.204,487.84 423.175,487.84 430.146,487.84 437.118,487.84 444.089,487.84 451.06,487.84 458.031,487.84 465.003,487.84 471.974,487.84 478.945,487.84 
  485.916,487.84 492.888,487.84 499.859,487.84 506.83,487.84 513.802,487.84 520.773,487.84 527.744,487.84 534.715,487.84 541.687,487.84 548.658,487.84 
  555.629,487.84 562.6,487.84 569.572,487.84 576.543,487.84 583.514,487.84 590.485,487.84 597.457,487.84 604.428,487.84 611.399,487.84 618.371,487.84 
  625.342,487.84 632.313,487.84 639.284,487.84 646.256,487.84 653.227,487.84 660.198,487.84 667.169,487.84 674.141,487.84 681.112,487.84 688.083,487.84 
  695.054,487.84 702.026,487.84 708.997,487.84 715.968,487.84 722.94,487.84 729.911,487.84 736.882,487.84 743.853,487.84 750.825,487.84 757.796,487.84 
  764.767,487.84 771.738,487.84 778.71,487.84 785.681,487.84 792.652,487.84 799.623,487.84 806.595,487.84 813.566,487.84 820.537,487.84 827.509,487.84 
  834.48,487.84 841.451,487.84 848.422,487.84 855.394,487.84 862.365,487.84 869.336,487.84 876.307,487.84 883.279,487.84 890.25,487.84 897.221,487.84 
  904.193,487.84 911.164,487.84 918.135,487.84 925.106,487.84 932.078,487.84 939.049,487.84 946.02,487.84 952.991,487.84 959.963,487.84 966.934,487.84 
  973.905,487.84 980.876,487.84 987.848,487.84 994.819,487.84 1001.79,487.84 1008.76,487.84 1015.73,487.84 1022.7,487.84 1029.68,487.84 1036.65,487.84 
  1043.62,487.84 1050.59,487.84 1057.56,487.84 1064.53,487.84 1071.5,487.84 1078.47,487.84 1085.45,487.84 1092.42,487.84 1099.39,487.84 1106.36,487.84 
  1113.33,487.84 1120.3,487.84 1127.27,487.84 1134.24,487.84 1141.22,487.84 1148.19,487.84 1155.16,487.84 1162.13,487.84 1169.1,487.84 1176.07,487.839 
  1183.04,487.839 1190.01,487.839 1196.99,487.839 1203.96,487.839 1210.93,487.839 1217.9,487.839 1224.87,487.839 1231.84,487.839 1238.81,487.839 1245.78,487.839 
  1252.76,487.839 
  "/>
<polyline clip-path="url(#clip622)" style="stroke:#008900; stroke-linecap:butt; stroke-linejoin:round; stroke-width:16; stroke-opacity:1; fill:none" stroke-dasharray="64, 40" points="
  207.066,487.84 214.037,487.839 221.008,487.839 227.98,487.839 234.951,487.839 241.922,487.839 248.893,487.839 255.865,487.839 262.836,487.839 269.807,487.839 
  276.778,487.839 283.75,487.839 290.721,487.839 297.692,487.839 304.663,487.839 311.635,487.839 318.606,487.839 325.577,487.839 332.549,487.839 339.52,487.839 
  346.491,487.839 353.462,487.839 360.434,487.839 367.405,487.839 374.376,487.839 381.347,487.839 388.319,487.839 395.29,487.839 402.261,487.839 409.233,487.839 
  416.204,487.839 423.175,487.839 430.146,487.839 437.118,487.839 444.089,487.839 451.06,487.839 458.031,487.839 465.003,487.839 471.974,487.839 478.945,487.839 
  485.916,487.839 492.888,487.839 499.859,487.839 506.83,487.839 513.802,487.839 520.773,487.839 527.744,487.839 534.715,487.839 541.687,487.839 548.658,487.839 
  555.629,487.839 562.6,487.839 569.572,487.839 576.543,487.839 583.514,487.839 590.485,487.839 597.457,487.839 604.428,487.839 611.399,487.839 618.371,487.839 
  625.342,487.839 632.313,487.839 639.284,487.839 646.256,487.839 653.227,487.839 660.198,487.839 667.169,487.839 674.141,487.839 681.112,487.839 688.083,487.839 
  695.054,487.839 702.026,487.839 708.997,487.839 715.968,487.839 722.94,487.839 729.911,487.839 736.882,487.839 743.853,487.839 750.825,487.839 757.796,487.839 
  764.767,487.839 771.738,487.839 778.71,487.839 785.681,487.839 792.652,487.839 799.623,487.839 806.595,487.839 813.566,487.839 820.537,487.839 827.509,487.839 
  834.48,487.839 841.451,487.839 848.422,487.839 855.394,487.839 862.365,487.839 869.336,487.839 876.307,487.839 883.279,487.839 890.25,487.839 897.221,487.839 
  904.193,487.839 911.164,487.839 918.135,487.839 925.106,487.839 932.078,487.839 939.049,487.839 946.02,487.839 952.991,487.839 959.963,487.839 966.934,487.839 
  973.905,487.839 980.876,487.839 987.848,487.839 994.819,487.839 1001.79,487.839 1008.76,487.839 1015.73,487.839 1022.7,487.839 1029.68,487.839 1036.65,487.839 
  1043.62,487.839 1050.59,487.839 1057.56,487.839 1064.53,487.839 1071.5,487.839 1078.47,487.839 1085.45,487.839 1092.42,487.839 1099.39,487.839 1106.36,487.839 
  1113.33,487.839 1120.3,487.839 1127.27,487.839 1134.24,487.839 1141.22,487.839 1148.19,487.839 1155.16,487.839 1162.13,487.839 1169.1,487.839 1176.07,487.839 
  1183.04,487.839 1190.01,487.839 1196.99,487.839 1203.96,487.839 1210.93,487.839 1217.9,487.839 1224.87,487.839 1231.84,487.839 1238.81,487.839 1245.78,487.839 
  1252.76,487.839 
  "/>
<polyline clip-path="url(#clip622)" style="stroke:#008900; stroke-linecap:butt; stroke-linejoin:round; stroke-width:16; stroke-opacity:1; fill:none" stroke-dasharray="8, 16" points="
  207.066,487.84 214.037,487.839 221.008,487.839 227.98,487.839 234.951,487.839 241.922,487.839 248.893,487.839 255.865,487.839 262.836,487.839 269.807,487.839 
  276.778,487.839 283.75,487.839 290.721,487.839 297.692,487.839 304.663,487.839 311.635,487.839 318.606,487.839 325.577,487.839 332.549,487.839 339.52,487.839 
  346.491,487.839 353.462,487.839 360.434,487.839 367.405,487.839 374.376,487.839 381.347,487.839 388.319,487.839 395.29,487.839 402.261,487.839 409.233,487.839 
  416.204,487.839 423.175,487.839 430.146,487.839 437.118,487.839 444.089,487.839 451.06,487.839 458.031,487.839 465.003,487.839 471.974,487.839 478.945,487.839 
  485.916,487.839 492.888,487.839 499.859,487.839 506.83,487.839 513.802,487.839 520.773,487.839 527.744,487.839 534.715,487.839 541.687,487.839 548.658,487.839 
  555.629,487.839 562.6,487.839 569.572,487.839 576.543,487.839 583.514,487.839 590.485,487.839 597.457,487.839 604.428,487.839 611.399,487.839 618.371,487.839 
  625.342,487.839 632.313,487.839 639.284,487.839 646.256,487.839 653.227,487.839 660.198,487.839 667.169,487.839 674.141,487.839 681.112,487.839 688.083,487.839 
  695.054,487.839 702.026,487.839 708.997,487.839 715.968,487.839 722.94,487.839 729.911,487.839 736.882,487.839 743.853,487.839 750.825,487.839 757.796,487.839 
  764.767,487.839 771.738,487.839 778.71,487.839 785.681,487.839 792.652,487.839 799.623,487.839 806.595,487.839 813.566,487.839 820.537,487.839 827.509,487.839 
  834.48,487.839 841.451,487.839 848.422,487.839 855.394,487.839 862.365,487.839 869.336,487.839 876.307,487.839 883.279,487.839 890.25,487.839 897.221,487.839 
  904.193,487.839 911.164,487.839 918.135,487.839 925.106,487.839 932.078,487.839 939.049,487.839 946.02,487.839 952.991,487.839 959.963,487.839 966.934,487.839 
  973.905,487.839 980.876,487.839 987.848,487.839 994.819,487.839 1001.79,487.839 1008.76,487.839 1015.73,487.839 1022.7,487.839 1029.68,487.839 1036.65,487.839 
  1043.62,487.839 1050.59,487.84 1057.56,487.84 1064.53,487.84 1071.5,487.84 1078.47,487.84 1085.45,487.84 1092.42,487.84 1099.39,487.84 1106.36,487.84 
  1113.33,487.84 1120.3,487.84 1127.27,487.84 1134.24,487.84 1141.22,487.84 1148.19,487.84 1155.16,487.84 1162.13,487.84 1169.1,487.84 1176.07,487.84 
  1183.04,487.84 1190.01,487.84 1196.99,487.84 1203.96,487.84 1210.93,487.84 1217.9,487.84 1224.87,487.84 1231.84,487.84 1238.81,487.84 1245.78,487.84 
  1252.76,487.84 
  "/>
<polyline clip-path="url(#clip622)" style="stroke:#2000d4; stroke-linecap:butt; stroke-linejoin:round; stroke-width:16; stroke-opacity:1; fill:none" points="
  207.066,487.412 214.037,487.085 221.008,487.106 227.98,487.126 234.951,487.145 241.922,487.162 248.893,487.178 255.865,487.194 262.836,487.209 269.807,487.223 
  276.778,487.236 283.75,487.248 290.721,487.26 297.692,487.272 304.663,487.282 311.635,487.293 318.606,487.302 325.577,487.312 332.549,487.321 339.52,487.329 
  346.491,487.337 353.462,487.345 360.434,487.353 367.405,487.36 374.376,487.367 381.347,487.374 388.319,487.381 395.29,487.387 402.261,487.393 409.233,487.399 
  416.204,487.405 423.175,487.411 430.146,487.416 437.118,487.422 444.089,487.427 451.06,487.432 458.031,487.437 465.003,487.442 471.974,487.446 478.945,487.451 
  485.916,487.455 492.888,487.46 499.859,487.464 506.83,487.469 513.802,487.473 520.773,487.477 527.744,487.481 534.715,487.485 541.687,487.489 548.658,487.492 
  555.629,487.496 562.6,487.5 569.572,487.504 576.543,487.507 583.514,487.511 590.485,487.514 597.457,487.518 604.428,487.521 611.399,487.524 618.371,487.528 
  625.342,487.531 632.313,487.534 639.284,487.537 646.256,487.54 653.227,487.544 660.198,487.547 667.169,487.55 674.141,487.553 681.112,487.556 688.083,487.558 
  695.054,487.561 702.026,487.564 708.997,487.567 715.968,487.57 722.94,487.572 729.911,487.575 736.882,487.578 743.853,487.581 750.825,487.583 757.796,487.586 
  764.767,487.588 771.738,487.591 778.71,487.593 785.681,487.596 792.652,487.598 799.623,487.601 806.595,487.603 813.566,487.606 820.537,487.608 827.509,487.61 
  834.48,487.613 841.451,487.615 848.422,487.617 855.394,487.619 862.365,487.622 869.336,487.624 876.307,487.626 883.279,487.628 890.25,487.63 897.221,487.632 
  904.193,487.634 911.164,487.637 918.135,487.639 925.106,487.641 932.078,487.643 939.049,487.645 946.02,487.647 952.991,487.648 959.963,487.65 966.934,487.652 
  973.905,487.654 980.876,487.656 987.848,487.658 994.819,487.66 1001.79,487.661 1008.76,487.663 1015.73,487.665 1022.7,487.667 1029.68,487.669 1036.65,487.67 
  1043.62,487.672 1050.59,487.674 1057.56,487.675 1064.53,487.677 1071.5,487.679 1078.47,487.68 1085.45,487.682 1092.42,487.683 1099.39,487.685 1106.36,487.686 
  1113.33,487.688 1120.3,487.69 1127.27,487.691 1134.24,487.693 1141.22,487.694 1148.19,487.695 1155.16,487.697 1162.13,487.698 1169.1,487.7 1176.07,487.701 
  1183.04,487.703 1190.01,487.704 1196.99,487.705 1203.96,487.707 1210.93,487.708 1217.9,487.709 1224.87,487.711 1231.84,487.712 1238.81,487.713 1245.78,487.714 
  1252.76,487.716 
  "/>
<polyline clip-path="url(#clip622)" style="stroke:#008900; stroke-linecap:butt; stroke-linejoin:round; stroke-width:16; stroke-opacity:1; fill:none" points="
  207.066,487.626 214.037,487.482 221.008,487.509 227.98,487.526 234.951,487.542 241.922,487.557 248.893,487.571 255.865,487.584 262.836,487.596 269.807,487.607 
  276.778,487.617 283.75,487.626 290.721,487.635 297.692,487.644 304.663,487.651 311.635,487.658 318.606,487.665 325.577,487.671 332.549,487.677 339.52,487.683 
  346.491,487.688 353.462,487.693 360.434,487.697 367.405,487.701 374.376,487.705 381.347,487.709 388.319,487.712 395.29,487.716 402.261,487.719 409.233,487.722 
  416.204,487.724 423.175,487.727 430.146,487.729 437.118,487.732 444.089,487.734 451.06,487.736 458.031,487.738 465.003,487.74 471.974,487.742 478.945,487.743 
  485.916,487.745 492.888,487.747 499.859,487.748 506.83,487.75 513.802,487.751 520.773,487.752 527.744,487.754 534.715,487.755 541.687,487.756 548.658,487.757 
  555.629,487.758 562.6,487.759 569.572,487.76 576.543,487.761 583.514,487.762 590.485,487.763 597.457,487.764 604.428,487.765 611.399,487.766 618.371,487.767 
  625.342,487.768 632.313,487.769 639.284,487.77 646.256,487.77 653.227,487.771 660.198,487.772 667.169,487.773 674.141,487.773 681.112,487.774 688.083,487.775 
  695.054,487.776 702.026,487.776 708.997,487.777 715.968,487.778 722.94,487.778 729.911,487.779 736.882,487.78 743.853,487.78 750.825,487.781 757.796,487.781 
  764.767,487.782 771.738,487.783 778.71,487.783 785.681,487.784 792.652,487.784 799.623,487.785 806.595,487.785 813.566,487.786 820.537,487.787 827.509,487.787 
  834.48,487.788 841.451,487.788 848.422,487.789 855.394,487.789 862.365,487.79 869.336,487.79 876.307,487.791 883.279,487.791 890.25,487.792 897.221,487.792 
  904.193,487.793 911.164,487.793 918.135,487.794 925.106,487.794 932.078,487.795 939.049,487.795 946.02,487.795 952.991,487.796 959.963,487.796 966.934,487.797 
  973.905,487.797 980.876,487.798 987.848,487.798 994.819,487.798 1001.79,487.799 1008.76,487.799 1015.73,487.8 1022.7,487.8 1029.68,487.8 1036.65,487.801 
  1043.62,487.801 1050.59,487.802 1057.56,487.802 1064.53,487.802 1071.5,487.803 1078.47,487.803 1085.45,487.803 1092.42,487.804 1099.39,487.804 1106.36,487.805 
  1113.33,487.805 1120.3,487.805 1127.27,487.806 1134.24,487.806 1141.22,487.806 1148.19,487.807 1155.16,487.807 1162.13,487.807 1169.1,487.808 1176.07,487.808 
  1183.04,487.808 1190.01,487.808 1196.99,487.809 1203.96,487.809 1210.93,487.809 1217.9,487.81 1224.87,487.81 1231.84,487.81 1238.81,487.811 1245.78,487.811 
  1252.76,487.811 
  "/>
<polyline clip-path="url(#clip622)" style="stroke:#7f7f7f; stroke-linecap:butt; stroke-linejoin:round; stroke-width:16; stroke-opacity:1; fill:none" points="
  207.066,60.077 214.037,71.0592 221.008,82.5102 227.98,98.7298 234.951,114.502 241.922,130.066 248.893,145.344 255.865,160.306 262.836,174.93 269.807,189.195 
  276.778,203.086 283.75,216.589 290.721,229.693 297.692,242.386 304.663,254.663 311.635,266.517 318.606,277.944 325.577,288.944 332.549,299.515 339.52,309.661 
  346.491,319.383 353.462,328.687 360.434,337.579 367.405,346.066 374.376,354.156 381.347,361.858 388.319,369.184 395.29,376.142 402.261,382.745 409.233,389.004 
  416.204,394.932 423.175,400.54 430.146,405.841 437.118,410.848 444.089,415.573 451.06,420.029 458.031,424.228 465.003,428.181 471.974,431.902 478.945,435.401 
  485.916,438.69 492.888,441.779 499.859,444.68 506.83,447.402 513.802,449.956 520.773,452.351 527.744,454.595 534.715,456.698 541.687,458.667 548.658,460.512 
  555.629,462.238 562.6,463.853 569.572,465.365 576.543,466.778 583.514,468.1 590.485,469.336 597.457,470.492 604.428,471.572 611.399,472.581 618.371,473.524 
  625.342,474.405 632.313,475.229 639.284,475.998 646.256,476.716 653.227,477.387 660.198,478.013 667.169,478.599 674.141,479.145 681.112,479.656 688.083,480.133 
  695.054,480.578 702.026,480.994 708.997,481.382 715.968,481.745 722.94,482.084 729.911,482.401 736.882,482.697 743.853,482.974 750.825,483.232 757.796,483.474 
  764.767,483.699 771.738,483.91 778.71,484.108 785.681,484.292 792.652,484.465 799.623,484.627 806.595,484.778 813.566,484.92 820.537,485.052 827.509,485.176 
  834.48,485.293 841.451,485.402 848.422,485.504 855.394,485.6 862.365,485.69 869.336,485.774 876.307,485.853 883.279,485.927 890.25,485.997 897.221,486.063 
  904.193,486.125 911.164,486.183 918.135,486.238 925.106,486.289 932.078,486.338 939.049,486.384 946.02,486.427 952.991,486.468 959.963,486.507 966.934,486.543 
  973.905,486.578 980.876,486.611 987.848,486.642 994.819,486.671 1001.79,486.699 1008.76,486.726 1015.73,486.751 1022.7,486.775 1029.68,486.798 1036.65,486.819 
  1043.62,486.84 1050.59,486.86 1057.56,486.879 1064.53,486.897 1071.5,486.915 1078.47,486.931 1085.45,486.947 1092.42,486.963 1099.39,486.977 1106.36,486.992 
  1113.33,487.005 1120.3,487.018 1127.27,487.031 1134.24,487.043 1141.22,487.055 1148.19,487.067 1155.16,487.078 1162.13,487.088 1169.1,487.099 1176.07,487.109 
  1183.04,487.119 1190.01,487.128 1196.99,487.138 1203.96,487.147 1210.93,487.156 1217.9,487.164 1224.87,487.173 1231.84,487.181 1238.81,487.189 1245.78,487.197 
  1252.76,487.204 
  "/>
<polyline clip-path="url(#clip622)" style="stroke:#895f55; stroke-linecap:butt; stroke-linejoin:round; stroke-width:16; stroke-opacity:1; fill:none" points="
  214.037,487.416 221.008,487.123 227.98,487.142 234.951,487.161 241.922,487.179 248.893,487.195 255.865,487.211 262.836,487.225 269.807,487.239 276.778,487.252 
  283.75,487.265 290.721,487.277 297.692,487.288 304.663,487.299 311.635,487.309 318.606,487.318 325.577,487.328 332.549,487.337 339.52,487.345 346.491,487.353 
  353.462,487.361 360.434,487.368 367.405,487.376 374.376,487.383 381.347,487.389 388.319,487.396 395.29,487.402 402.261,487.408 409.233,487.414 416.204,487.42 
  423.175,487.425 430.146,487.431 437.118,487.436 444.089,487.441 451.06,487.446 458.031,487.451 465.003,487.455 471.974,487.46 478.945,487.464 485.916,487.469 
  492.888,487.473 499.859,487.477 506.83,487.481 513.802,487.485 520.773,487.489 527.744,487.493 534.715,487.497 541.687,487.501 548.658,487.505 555.629,487.508 
  562.6,487.512 569.572,487.515 576.543,487.519 583.514,487.522 590.485,487.526 597.457,487.529 604.428,487.532 611.399,487.536 618.371,487.539 625.342,487.542 
  632.313,487.545 639.284,487.548 646.256,487.551 653.227,487.554 660.198,487.557 667.169,487.56 674.141,487.563 681.112,487.566 688.083,487.568 695.054,487.571 
  702.026,487.574 708.997,487.577 715.968,487.579 722.94,487.582 729.911,487.585 736.882,487.587 743.853,487.59 750.825,487.592 757.796,487.595 764.767,487.597 
  771.738,487.6 778.71,487.602 785.681,487.605 792.652,487.607 799.623,487.609 806.595,487.612 813.566,487.614 820.537,487.616 827.509,487.618 834.48,487.621 
  841.451,487.623 848.422,487.625 855.394,487.627 862.365,487.629 869.336,487.632 876.307,487.634 883.279,487.636 890.25,487.638 897.221,487.64 904.193,487.642 
  911.164,487.644 918.135,487.646 925.106,487.648 932.078,487.65 939.049,487.652 946.02,487.653 952.991,487.655 959.963,487.657 966.934,487.659 973.905,487.661 
  980.876,487.663 987.848,487.664 994.819,487.666 1001.79,487.668 1008.76,487.67 1015.73,487.671 1022.7,487.673 1029.68,487.675 1036.65,487.676 1043.62,487.678 
  1050.59,487.68 1057.56,487.681 1064.53,487.683 1071.5,487.684 1078.47,487.686 1085.45,487.687 1092.42,487.689 1099.39,487.69 1106.36,487.692 1113.33,487.693 
  1120.3,487.695 1127.27,487.696 1134.24,487.698 1141.22,487.699 1148.19,487.701 1155.16,487.702 1162.13,487.703 1169.1,487.705 1176.07,487.706 1183.04,487.707 
  1190.01,487.709 1196.99,487.71 1203.96,487.711 1210.93,487.713 1217.9,487.714 1224.87,487.715 1231.84,487.716 1238.81,487.718 1245.78,487.719 1252.76,487.72 
  
  "/>
<polyline clip-path="url(#clip622)" style="stroke:#2000d4; stroke-linecap:butt; stroke-linejoin:round; stroke-width:16; stroke-opacity:1; fill:none" stroke-dasharray="64, 40" points="
  207.066,487.84 214.037,487.84 221.008,487.84 227.98,487.84 234.951,487.84 241.922,487.84 248.893,487.84 255.865,487.84 262.836,487.84 269.807,487.84 
  276.778,487.84 283.75,487.84 290.721,487.84 297.692,487.84 304.663,487.84 311.635,487.84 318.606,487.84 325.577,487.84 332.549,487.84 339.52,487.84 
  346.491,487.84 353.462,487.84 360.434,487.84 367.405,487.84 374.376,487.84 381.347,487.84 388.319,487.84 395.29,487.84 402.261,487.84 409.233,487.84 
  416.204,487.84 423.175,487.84 430.146,487.84 437.118,487.84 444.089,487.84 451.06,487.84 458.031,487.84 465.003,487.84 471.974,487.84 478.945,487.84 
  485.916,487.84 492.888,487.84 499.859,487.84 506.83,487.84 513.802,487.84 520.773,487.84 527.744,487.84 534.715,487.84 541.687,487.84 548.658,487.84 
  555.629,487.84 562.6,487.84 569.572,487.84 576.543,487.84 583.514,487.84 590.485,487.84 597.457,487.84 604.428,487.84 611.399,487.84 618.371,487.84 
  625.342,487.84 632.313,487.84 639.284,487.84 646.256,487.84 653.227,487.84 660.198,487.84 667.169,487.84 674.141,487.84 681.112,487.84 688.083,487.84 
  695.054,487.84 702.026,487.84 708.997,487.84 715.968,487.84 722.94,487.84 729.911,487.84 736.882,487.84 743.853,487.84 750.825,487.84 757.796,487.84 
  764.767,487.84 771.738,487.84 778.71,487.84 785.681,487.84 792.652,487.84 799.623,487.84 806.595,487.84 813.566,487.84 820.537,487.84 827.509,487.84 
  834.48,487.84 841.451,487.84 848.422,487.84 855.394,487.84 862.365,487.84 869.336,487.84 876.307,487.84 883.279,487.84 890.25,487.84 897.221,487.84 
  904.193,487.84 911.164,487.84 918.135,487.84 925.106,487.84 932.078,487.84 939.049,487.84 946.02,487.84 952.991,487.84 959.963,487.84 966.934,487.84 
  973.905,487.84 980.876,487.84 987.848,487.84 994.819,487.84 1001.79,487.84 1008.76,487.84 1015.73,487.84 1022.7,487.84 1029.68,487.84 1036.65,487.84 
  1043.62,487.84 1050.59,487.839 1057.56,487.839 1064.53,487.839 1071.5,487.839 1078.47,487.839 1085.45,487.839 1092.42,487.839 1099.39,487.839 1106.36,487.839 
  1113.33,487.839 1120.3,487.839 1127.27,487.839 1134.24,487.839 1141.22,487.839 1148.19,487.839 1155.16,487.839 1162.13,487.839 1169.1,487.839 1176.07,487.839 
  1183.04,487.839 1190.01,487.839 1196.99,487.839 1203.96,487.839 1210.93,487.839 1217.9,487.839 1224.87,487.839 1231.84,487.839 1238.81,487.839 1245.78,487.839 
  1252.76,487.839 
  "/>
<polyline clip-path="url(#clip622)" style="stroke:#ff221c; stroke-linecap:butt; stroke-linejoin:round; stroke-width:16; stroke-opacity:1; fill:none" points="
  207.066,60.2195 214.037,60.0783 221.008,60.0782 227.98,60.078 234.951,60.0779 241.922,60.0779 248.893,60.0779 255.865,60.0779 262.836,60.0779 269.807,60.0779 
  276.778,60.0779 283.75,60.0779 290.721,60.0779 297.692,60.0779 304.663,60.0779 311.635,60.0779 318.606,60.0779 325.577,60.0779 332.549,60.0779 339.52,60.0779 
  346.491,60.0779 353.462,60.0779 360.434,60.0779 367.405,60.0779 374.376,60.0779 381.347,60.0779 388.319,60.0779 395.29,60.0779 402.261,60.0779 409.233,60.0779 
  416.204,60.0779 423.175,60.0779 430.146,60.0779 437.118,60.0779 444.089,60.0779 451.06,60.0779 458.031,60.0779 465.003,60.0779 471.974,60.0779 478.945,60.0779 
  485.916,60.0779 492.888,60.0779 499.859,60.0779 506.83,60.0779 513.802,60.0779 520.773,60.0779 527.744,60.0779 534.715,60.0779 541.687,60.0779 548.658,60.0779 
  555.629,60.0779 562.6,60.0779 569.572,60.0779 576.543,60.0779 583.514,60.0779 590.485,60.0779 597.457,60.0779 604.428,60.0779 611.399,60.0779 618.371,60.0779 
  625.342,60.0779 632.313,60.0779 639.284,60.0779 646.256,60.0779 653.227,60.0779 660.198,60.0779 667.169,60.0779 674.141,60.0779 681.112,60.0779 688.083,60.0779 
  695.054,60.0779 702.026,60.0779 708.997,60.0779 715.968,60.0779 722.94,60.0779 729.911,60.0779 736.882,60.0779 743.853,60.0779 750.825,60.0779 757.796,60.0779 
  764.767,60.0779 771.738,60.0779 778.71,60.0779 785.681,60.0779 792.652,60.0779 799.623,60.0779 806.595,60.0779 813.566,60.0779 820.537,60.0779 827.509,60.0779 
  834.48,60.0779 841.451,60.0779 848.422,60.0779 855.394,60.0779 862.365,60.0779 869.336,60.0779 876.307,60.0779 883.279,60.0779 890.25,60.0779 897.221,60.0779 
  904.193,60.0779 911.164,60.0779 918.135,60.0779 925.106,60.0779 932.078,60.0779 939.049,60.0779 946.02,60.0779 952.991,60.0779 959.963,60.0779 966.934,60.0779 
  973.905,60.0779 980.876,60.0779 987.848,60.0779 994.819,60.0779 1001.79,60.0779 1008.76,60.0779 1015.73,60.0779 1022.7,60.0779 1029.68,60.0779 1036.65,60.0779 
  1043.62,60.0779 1050.59,60.0779 1057.56,60.0779 1064.53,60.0779 1071.5,60.0779 1078.47,60.0779 1085.45,60.0779 1092.42,60.0779 1099.39,60.0779 1106.36,60.0779 
  1113.33,60.0779 1120.3,60.0779 1127.27,60.0779 1134.24,60.0779 1141.22,60.0779 1148.19,60.0779 1155.16,60.0779 1162.13,60.0779 1169.1,60.0779 1176.07,60.0779 
  1183.04,60.0779 1190.01,60.0779 1196.99,60.0779 1203.96,60.0779 1210.93,60.0779 1217.9,60.0779 1224.87,60.0779 1231.84,60.0779 1238.81,60.0779 1245.78,60.0779 
  1252.76,60.0779 
  "/>
<polyline clip-path="url(#clip622)" style="stroke:#000000; stroke-linecap:butt; stroke-linejoin:round; stroke-width:16; stroke-opacity:1; fill:none" stroke-dasharray="8, 16" points="
  207.066,60.077 214.037,60.5005 221.008,60.8642 227.98,60.9059 234.951,60.8937 241.922,60.8741 248.893,60.8543 255.865,60.8355 262.836,60.8177 269.807,60.8008 
  276.778,60.7848 283.75,60.7697 290.721,60.7554 297.692,60.7418 304.663,60.7288 311.635,60.7165 318.606,60.7047 325.577,60.6935 332.549,60.6827 339.52,60.6725 
  346.491,60.6626 353.462,60.6532 360.434,60.6441 367.405,60.6354 374.376,60.6269 381.347,60.6188 388.319,60.611 395.29,60.6035 402.261,60.5962 409.233,60.5891 
  416.204,60.5822 423.175,60.5755 430.146,60.5691 437.118,60.5628 444.089,60.5567 451.06,60.5507 458.031,60.5449 465.003,60.5392 471.974,60.5336 478.945,60.5282 
  485.916,60.5229 492.888,60.5177 499.859,60.5127 506.83,60.5077 513.802,60.5028 520.773,60.498 527.744,60.4933 534.715,60.4887 541.687,60.4842 548.658,60.4797 
  555.629,60.4753 562.6,60.471 569.572,60.4667 576.543,60.4626 583.514,60.4584 590.485,60.4544 597.457,60.4504 604.428,60.4464 611.399,60.4425 618.371,60.4387 
  625.342,60.4349 632.313,60.4312 639.284,60.4275 646.256,60.4239 653.227,60.4203 660.198,60.4167 667.169,60.4132 674.141,60.4098 681.112,60.4063 688.083,60.403 
  695.054,60.3996 702.026,60.3963 708.997,60.393 715.968,60.3898 722.94,60.3866 729.911,60.3835 736.882,60.3804 743.853,60.3773 750.825,60.3742 757.796,60.3712 
  764.767,60.3682 771.738,60.3653 778.71,60.3624 785.681,60.3595 792.652,60.3566 799.623,60.3538 806.595,60.351 813.566,60.3482 820.537,60.3455 827.509,60.3428 
  834.48,60.3401 841.451,60.3374 848.422,60.3348 855.394,60.3322 862.365,60.3296 869.336,60.3271 876.307,60.3246 883.279,60.3221 890.25,60.3196 897.221,60.3172 
  904.193,60.3148 911.164,60.3124 918.135,60.31 925.106,60.3077 932.078,60.3054 939.049,60.3031 946.02,60.3008 952.991,60.2985 959.963,60.2963 966.934,60.2941 
  973.905,60.2919 980.876,60.2898 987.848,60.2876 994.819,60.2855 1001.79,60.2834 1008.76,60.2814 1015.73,60.2793 1022.7,60.2773 1029.68,60.2753 1036.65,60.2733 
  1043.62,60.2713 1050.59,60.2694 1057.56,60.2674 1064.53,60.2655 1071.5,60.2636 1078.47,60.2617 1085.45,60.2599 1092.42,60.2581 1099.39,60.2562 1106.36,60.2544 
  1113.33,60.2527 1120.3,60.2509 1127.27,60.2492 1134.24,60.2474 1141.22,60.2457 1148.19,60.244 1155.16,60.2424 1162.13,60.2407 1169.1,60.2391 1176.07,60.2374 
  1183.04,60.2358 1190.01,60.2342 1196.99,60.2327 1203.96,60.2311 1210.93,60.2296 1217.9,60.228 1224.87,60.2265 1231.84,60.225 1238.81,60.2235 1245.78,60.2221 
  1252.76,60.2206 
  "/>
</svg>
