<?xml version="1.0" encoding="utf-8"?>
<svg xmlns="http://www.w3.org/2000/svg" xmlns:xlink="http://www.w3.org/1999/xlink" width="325" height="150" viewBox="0 0 1300 600">
<defs>
  <clipPath id="clip480">
    <rect x="0" y="0" width="1300" height="600"/>
  </clipPath>
</defs>
<path clip-path="url(#clip480)" d="
M0 600 L1300 600 L1300 0 L0 0  Z
  " fill="#ffffff" fill-rule="evenodd" fill-opacity="1"/>
<defs>
  <clipPath id="clip481">
    <rect x="260" y="0" width="911" height="600"/>
  </clipPath>
</defs>
<path clip-path="url(#clip480)" d="
M200.094 501.1 L1252.76 501.1 L1252.76 47.2441 L200.094 47.2441  Z
  " fill="#ffffff" fill-rule="evenodd" fill-opacity="1"/>
<defs>
  <clipPath id="clip482">
    <rect x="200" y="47" width="1054" height="455"/>
  </clipPath>
</defs>
<polyline clip-path="url(#clip480)" style="stroke:#000000; stroke-linecap:butt; stroke-linejoin:round; stroke-width:4; stroke-opacity:1; fill:none" points="
  200.094,501.1 1252.76,501.1 
  "/>
<polyline clip-path="url(#clip480)" style="stroke:#000000; stroke-linecap:butt; stroke-linejoin:round; stroke-width:4; stroke-opacity:1; fill:none" points="
  200.094,501.1 200.094,482.203 
  "/>
<polyline clip-path="url(#clip480)" style="stroke:#000000; stroke-linecap:butt; stroke-linejoin:round; stroke-width:4; stroke-opacity:1; fill:none" points="
  548.658,501.1 548.658,482.203 
  "/>
<polyline clip-path="url(#clip480)" style="stroke:#000000; stroke-linecap:butt; stroke-linejoin:round; stroke-width:4; stroke-opacity:1; fill:none" points="
  897.221,501.1 897.221,482.203 
  "/>
<polyline clip-path="url(#clip480)" style="stroke:#000000; stroke-linecap:butt; stroke-linejoin:round; stroke-width:4; stroke-opacity:1; fill:none" points="
  1245.78,501.1 1245.78,482.203 
  "/>
<path clip-path="url(#clip480)" d="M200.094 526.149 Q195.581 526.149 193.295 530.605 Q191.038 535.032 191.038 543.944 Q191.038 552.827 193.295 557.283 Q195.581 561.71 200.094 561.71 Q204.637 561.71 206.894 557.283 Q209.18 552.827 209.18 543.944 Q209.18 535.032 206.894 530.605 Q204.637 526.149 200.094 526.149 M200.094 521.519 Q207.357 521.519 211.177 527.277 Q215.025 533.006 215.025 543.944 Q215.025 554.852 211.177 560.61 Q207.357 566.339 200.094 566.339 Q192.832 566.339 188.983 560.61 Q185.164 554.852 185.164 543.944 Q185.164 533.006 188.983 527.277 Q192.832 521.519 200.094 521.519 Z" fill="#000000" fill-rule="evenodd" fill-opacity="1" /><path clip-path="url(#clip480)" d="M517.032 522.3 L539.977 522.3 L539.977 527.219 L522.385 527.219 L522.385 537.809 Q523.658 537.375 524.931 537.173 Q526.204 536.941 527.477 536.941 Q534.711 536.941 538.936 540.905 Q543.16 544.87 543.16 551.64 Q543.16 558.614 538.82 562.491 Q534.48 566.339 526.58 566.339 Q523.861 566.339 521.025 565.876 Q518.218 565.413 515.209 564.487 L515.209 558.614 Q517.813 560.031 520.591 560.726 Q523.369 561.42 526.465 561.42 Q531.47 561.42 534.393 558.787 Q537.315 556.154 537.315 551.64 Q537.315 547.126 534.393 544.493 Q531.47 541.86 526.465 541.86 Q524.121 541.86 521.777 542.381 Q519.462 542.902 517.032 544.001 L517.032 522.3 Z" fill="#000000" fill-rule="evenodd" fill-opacity="1" /><path clip-path="url(#clip480)" d="M567.176 526.149 Q562.662 526.149 560.377 530.605 Q558.12 535.032 558.12 543.944 Q558.12 552.827 560.377 557.283 Q562.662 561.71 567.176 561.71 Q571.719 561.71 573.976 557.283 Q576.262 552.827 576.262 543.944 Q576.262 535.032 573.976 530.605 Q571.719 526.149 567.176 526.149 M567.176 521.519 Q574.439 521.519 578.258 527.277 Q582.107 533.006 582.107 543.944 Q582.107 554.852 578.258 560.61 Q574.439 566.339 567.176 566.339 Q559.914 566.339 556.065 560.61 Q552.246 554.852 552.246 543.944 Q552.246 533.006 556.065 527.277 Q559.914 521.519 567.176 521.519 Z" fill="#000000" fill-rule="evenodd" fill-opacity="1" /><path clip-path="url(#clip480)" d="M846.73 560.581 L856.278 560.581 L856.278 527.624 L845.891 529.708 L845.891 524.384 L856.22 522.3 L862.065 522.3 L862.065 560.581 L871.614 560.581 L871.614 565.5 L846.73 565.5 L846.73 560.581 Z" fill="#000000" fill-rule="evenodd" fill-opacity="1" /><path clip-path="url(#clip480)" d="M895.919 526.149 Q891.405 526.149 889.119 530.605 Q886.863 535.032 886.863 543.944 Q886.863 552.827 889.119 557.283 Q891.405 561.71 895.919 561.71 Q900.462 561.71 902.719 557.283 Q905.005 552.827 905.005 543.944 Q905.005 535.032 902.719 530.605 Q900.462 526.149 895.919 526.149 M895.919 521.519 Q903.182 521.519 907.001 527.277 Q910.85 533.006 910.85 543.944 Q910.85 554.852 907.001 560.61 Q903.182 566.339 895.919 566.339 Q888.656 566.339 884.808 560.61 Q880.989 554.852 880.989 543.944 Q880.989 533.006 884.808 527.277 Q888.656 521.519 895.919 521.519 Z" fill="#000000" fill-rule="evenodd" fill-opacity="1" /><path clip-path="url(#clip480)" d="M933.622 526.149 Q929.108 526.149 926.822 530.605 Q924.565 535.032 924.565 543.944 Q924.565 552.827 926.822 557.283 Q929.108 561.71 933.622 561.71 Q938.164 561.71 940.421 557.283 Q942.707 552.827 942.707 543.944 Q942.707 535.032 940.421 530.605 Q938.164 526.149 933.622 526.149 M933.622 521.519 Q940.884 521.519 944.704 527.277 Q948.552 533.006 948.552 543.944 Q948.552 554.852 944.704 560.61 Q940.884 566.339 933.622 566.339 Q926.359 566.339 922.51 560.61 Q918.691 554.852 918.691 543.944 Q918.691 533.006 922.51 527.277 Q926.359 521.519 933.622 521.519 Z" fill="#000000" fill-rule="evenodd" fill-opacity="1" /><path clip-path="url(#clip480)" d="M1195.29 560.581 L1204.84 560.581 L1204.84 527.624 L1194.45 529.708 L1194.45 524.384 L1204.78 522.3 L1210.63 522.3 L1210.63 560.581 L1220.18 560.581 L1220.18 565.5 L1195.29 565.5 L1195.29 560.581 Z" fill="#000000" fill-rule="evenodd" fill-opacity="1" /><path clip-path="url(#clip480)" d="M1232.04 522.3 L1254.99 522.3 L1254.99 527.219 L1237.39 527.219 L1237.39 537.809 Q1238.67 537.375 1239.94 537.173 Q1241.21 536.941 1242.49 536.941 Q1249.72 536.941 1253.94 540.905 Q1258.17 544.87 1258.17 551.64 Q1258.17 558.614 1253.83 562.491 Q1249.49 566.339 1241.59 566.339 Q1238.87 566.339 1236.03 565.876 Q1233.23 565.413 1230.22 564.487 L1230.22 558.614 Q1232.82 560.031 1235.6 560.726 Q1238.38 561.42 1241.47 561.42 Q1246.48 561.42 1249.4 558.787 Q1252.32 556.154 1252.32 551.64 Q1252.32 547.126 1249.4 544.493 Q1246.48 541.86 1241.47 541.86 Q1239.13 541.86 1236.79 542.381 Q1234.47 542.902 1232.04 544.001 L1232.04 522.3 Z" fill="#000000" fill-rule="evenodd" fill-opacity="1" /><path clip-path="url(#clip480)" d="M1282.18 526.149 Q1277.67 526.149 1275.39 530.605 Q1273.13 535.032 1273.13 543.944 Q1273.13 552.827 1275.39 557.283 Q1277.67 561.71 1282.18 561.71 Q1286.73 561.71 1288.98 557.283 Q1291.27 552.827 1291.27 543.944 Q1291.27 535.032 1288.98 530.605 Q1286.73 526.149 1282.18 526.149 M1282.18 521.519 Q1289.45 521.519 1293.27 527.277 Q1297.12 533.006 1297.12 543.944 Q1297.12 554.852 1293.27 560.61 Q1289.45 566.339 1282.18 566.339 Q1274.92 566.339 1271.07 560.61 Q1267.25 554.852 1267.25 543.944 Q1267.25 533.006 1271.07 527.277 Q1274.92 521.519 1282.18 521.519 Z" fill="#000000" fill-rule="evenodd" fill-opacity="1" /><polyline clip-path="url(#clip480)" style="stroke:#000000; stroke-linecap:butt; stroke-linejoin:round; stroke-width:4; stroke-opacity:1; fill:none" points="
  200.094,501.1 200.094,47.2441 
  "/>
<polyline clip-path="url(#clip480)" style="stroke:#000000; stroke-linecap:butt; stroke-linejoin:round; stroke-width:4; stroke-opacity:1; fill:none" points="
  200.094,487.84 218.992,487.84 
  "/>
<polyline clip-path="url(#clip480)" style="stroke:#000000; stroke-linecap:butt; stroke-linejoin:round; stroke-width:4; stroke-opacity:1; fill:none" points="
  200.094,380.899 218.992,380.899 
  "/>
<polyline clip-path="url(#clip480)" style="stroke:#000000; stroke-linecap:butt; stroke-linejoin:round; stroke-width:4; stroke-opacity:1; fill:none" points="
  200.094,273.958 218.992,273.958 
  "/>
<polyline clip-path="url(#clip480)" style="stroke:#000000; stroke-linecap:butt; stroke-linejoin:round; stroke-width:4; stroke-opacity:1; fill:none" points="
  200.094,167.018 218.992,167.018 
  "/>
<polyline clip-path="url(#clip480)" style="stroke:#000000; stroke-linecap:butt; stroke-linejoin:round; stroke-width:4; stroke-opacity:1; fill:none" points="
  200.094,60.077 218.992,60.077 
  "/>
<path clip-path="url(#clip480)" d="M71.4226 470.088 Q66.9087 470.088 64.6229 474.544 Q62.3659 478.971 62.3659 487.883 Q62.3659 496.766 64.6229 501.222 Q66.9087 505.649 71.4226 505.649 Q75.9654 505.649 78.2223 501.222 Q80.5082 496.766 80.5082 487.883 Q80.5082 478.971 78.2223 474.544 Q75.9654 470.088 71.4226 470.088 M71.4226 465.458 Q78.6853 465.458 82.5047 471.216 Q86.3531 476.946 86.3531 487.883 Q86.3531 498.791 82.5047 504.55 Q78.6853 510.279 71.4226 510.279 Q64.1599 510.279 60.3115 504.55 Q56.4921 498.791 56.4921 487.883 Q56.4921 476.946 60.3115 471.216 Q64.1599 465.458 71.4226 465.458 Z" fill="#000000" fill-rule="evenodd" fill-opacity="1" /><path clip-path="url(#clip480)" d="M96.625 502.09 L102.73 502.09 L102.73 509.44 L96.625 509.44 L96.625 502.09 Z" fill="#000000" fill-rule="evenodd" fill-opacity="1" /><path clip-path="url(#clip480)" d="M127.962 470.088 Q123.448 470.088 121.162 474.544 Q118.905 478.971 118.905 487.883 Q118.905 496.766 121.162 501.222 Q123.448 505.649 127.962 505.649 Q132.504 505.649 134.761 501.222 Q137.047 496.766 137.047 487.883 Q137.047 478.971 134.761 474.544 Q132.504 470.088 127.962 470.088 M127.962 465.458 Q135.224 465.458 139.044 471.216 Q142.892 476.946 142.892 487.883 Q142.892 498.791 139.044 504.55 Q135.224 510.279 127.962 510.279 Q120.699 510.279 116.851 504.55 Q113.031 498.791 113.031 487.883 Q113.031 476.946 116.851 471.216 Q120.699 465.458 127.962 465.458 Z" fill="#000000" fill-rule="evenodd" fill-opacity="1" /><path clip-path="url(#clip480)" d="M165.664 470.088 Q161.15 470.088 158.864 474.544 Q156.607 478.971 156.607 487.883 Q156.607 496.766 158.864 501.222 Q161.15 505.649 165.664 505.649 Q170.207 505.649 172.464 501.222 Q174.75 496.766 174.75 487.883 Q174.75 478.971 172.464 474.544 Q170.207 470.088 165.664 470.088 M165.664 465.458 Q172.927 465.458 176.746 471.216 Q180.594 476.946 180.594 487.883 Q180.594 498.791 176.746 504.55 Q172.927 510.279 165.664 510.279 Q158.401 510.279 154.553 504.55 Q150.734 498.791 150.734 487.883 Q150.734 476.946 154.553 471.216 Q158.401 465.458 165.664 465.458 Z" fill="#000000" fill-rule="evenodd" fill-opacity="1" /><path clip-path="url(#clip480)" d="M72.6668 363.147 Q68.1529 363.147 65.8671 367.603 Q63.6101 372.03 63.6101 380.942 Q63.6101 389.825 65.8671 394.281 Q68.1529 398.708 72.6668 398.708 Q77.2096 398.708 79.4665 394.281 Q81.7524 389.825 81.7524 380.942 Q81.7524 372.03 79.4665 367.603 Q77.2096 363.147 72.6668 363.147 M72.6668 358.518 Q79.9295 358.518 83.7489 364.276 Q87.5973 370.005 87.5973 380.942 Q87.5973 391.851 83.7489 397.609 Q79.9295 403.338 72.6668 403.338 Q65.4041 403.338 61.5558 397.609 Q57.7363 391.851 57.7363 380.942 Q57.7363 370.005 61.5558 364.276 Q65.4041 358.518 72.6668 358.518 Z" fill="#000000" fill-rule="evenodd" fill-opacity="1" /><path clip-path="url(#clip480)" d="M97.8692 395.149 L103.975 395.149 L103.975 402.499 L97.8692 402.499 L97.8692 395.149 Z" fill="#000000" fill-rule="evenodd" fill-opacity="1" /><path clip-path="url(#clip480)" d="M121.741 397.58 L142.14 397.58 L142.14 402.499 L114.709 402.499 L114.709 397.58 Q118.037 394.137 123.766 388.35 Q129.524 382.534 131 380.855 Q133.807 377.702 134.906 375.531 Q136.035 373.332 136.035 371.22 Q136.035 367.777 133.604 365.607 Q131.202 363.437 127.325 363.437 Q124.576 363.437 121.509 364.391 Q118.471 365.346 114.999 367.285 L114.999 361.382 Q118.529 359.964 121.596 359.241 Q124.663 358.518 127.209 358.518 Q133.922 358.518 137.915 361.874 Q141.908 365.231 141.908 370.844 Q141.908 373.506 140.896 375.908 Q139.912 378.28 137.279 381.521 Q136.555 382.36 132.678 386.382 Q128.801 390.375 121.741 397.58 Z" fill="#000000" fill-rule="evenodd" fill-opacity="1" /><path clip-path="url(#clip480)" d="M154.466 359.299 L177.412 359.299 L177.412 364.218 L159.819 364.218 L159.819 374.808 Q161.092 374.374 162.365 374.172 Q163.639 373.94 164.912 373.94 Q172.145 373.94 176.37 377.904 Q180.594 381.868 180.594 388.639 Q180.594 395.612 176.254 399.49 Q171.914 403.338 164.015 403.338 Q161.295 403.338 158.459 402.875 Q155.652 402.412 152.643 401.486 L152.643 395.612 Q155.247 397.03 158.025 397.725 Q160.803 398.419 163.899 398.419 Q168.905 398.419 171.827 395.786 Q174.75 393.153 174.75 388.639 Q174.75 384.125 171.827 381.492 Q168.905 378.859 163.899 378.859 Q161.555 378.859 159.211 379.38 Q156.897 379.901 154.466 381 L154.466 359.299 Z" fill="#000000" fill-rule="evenodd" fill-opacity="1" /><path clip-path="url(#clip480)" d="M71.4226 256.207 Q66.9087 256.207 64.6229 260.663 Q62.3659 265.09 62.3659 274.002 Q62.3659 282.885 64.6229 287.341 Q66.9087 291.768 71.4226 291.768 Q75.9654 291.768 78.2223 287.341 Q80.5082 282.885 80.5082 274.002 Q80.5082 265.09 78.2223 260.663 Q75.9654 256.207 71.4226 256.207 M71.4226 251.577 Q78.6853 251.577 82.5047 257.335 Q86.3531 263.064 86.3531 274.002 Q86.3531 284.91 82.5047 290.668 Q78.6853 296.397 71.4226 296.397 Q64.1599 296.397 60.3115 290.668 Q56.4921 284.91 56.4921 274.002 Q56.4921 263.064 60.3115 257.335 Q64.1599 251.577 71.4226 251.577 Z" fill="#000000" fill-rule="evenodd" fill-opacity="1" /><path clip-path="url(#clip480)" d="M96.625 288.209 L102.73 288.209 L102.73 295.558 L96.625 295.558 L96.625 288.209 Z" fill="#000000" fill-rule="evenodd" fill-opacity="1" /><path clip-path="url(#clip480)" d="M115.52 252.358 L138.465 252.358 L138.465 257.277 L120.873 257.277 L120.873 267.867 Q122.146 267.433 123.419 267.231 Q124.692 266.999 125.965 266.999 Q133.199 266.999 137.423 270.963 Q141.648 274.928 141.648 281.698 Q141.648 288.672 137.308 292.549 Q132.967 296.397 125.068 296.397 Q122.348 296.397 119.513 295.934 Q116.706 295.471 113.697 294.546 L113.697 288.672 Q116.301 290.09 119.079 290.784 Q121.856 291.478 124.952 291.478 Q129.958 291.478 132.881 288.845 Q135.803 286.212 135.803 281.698 Q135.803 277.185 132.881 274.551 Q129.958 271.918 124.952 271.918 Q122.609 271.918 120.265 272.439 Q117.95 272.96 115.52 274.06 L115.52 252.358 Z" fill="#000000" fill-rule="evenodd" fill-opacity="1" /><path clip-path="url(#clip480)" d="M165.664 256.207 Q161.15 256.207 158.864 260.663 Q156.607 265.09 156.607 274.002 Q156.607 282.885 158.864 287.341 Q161.15 291.768 165.664 291.768 Q170.207 291.768 172.464 287.341 Q174.75 282.885 174.75 274.002 Q174.75 265.09 172.464 260.663 Q170.207 256.207 165.664 256.207 M165.664 251.577 Q172.927 251.577 176.746 257.335 Q180.594 263.064 180.594 274.002 Q180.594 284.91 176.746 290.668 Q172.927 296.397 165.664 296.397 Q158.401 296.397 154.553 290.668 Q150.734 284.91 150.734 274.002 Q150.734 263.064 154.553 257.335 Q158.401 251.577 165.664 251.577 Z" fill="#000000" fill-rule="evenodd" fill-opacity="1" /><path clip-path="url(#clip480)" d="M72.6668 149.266 Q68.1529 149.266 65.8671 153.722 Q63.6101 158.149 63.6101 167.061 Q63.6101 175.944 65.8671 180.4 Q68.1529 184.827 72.6668 184.827 Q77.2096 184.827 79.4665 180.4 Q81.7524 175.944 81.7524 167.061 Q81.7524 158.149 79.4665 153.722 Q77.2096 149.266 72.6668 149.266 M72.6668 144.636 Q79.9295 144.636 83.7489 150.394 Q87.5973 156.124 87.5973 167.061 Q87.5973 177.97 83.7489 183.728 Q79.9295 189.457 72.6668 189.457 Q65.4041 189.457 61.5558 183.728 Q57.7363 177.97 57.7363 167.061 Q57.7363 156.124 61.5558 150.394 Q65.4041 144.636 72.6668 144.636 Z" fill="#000000" fill-rule="evenodd" fill-opacity="1" /><path clip-path="url(#clip480)" d="M97.8692 181.268 L103.975 181.268 L103.975 188.618 L97.8692 188.618 L97.8692 181.268 Z" fill="#000000" fill-rule="evenodd" fill-opacity="1" /><path clip-path="url(#clip480)" d="M115.23 145.418 L143.008 145.418 L143.008 147.906 L127.325 188.618 L121.22 188.618 L135.977 150.337 L115.23 150.337 L115.23 145.418 Z" fill="#000000" fill-rule="evenodd" fill-opacity="1" /><path clip-path="url(#clip480)" d="M154.466 145.418 L177.412 145.418 L177.412 150.337 L159.819 150.337 L159.819 160.927 Q161.092 160.493 162.365 160.29 Q163.639 160.059 164.912 160.059 Q172.145 160.059 176.37 164.023 Q180.594 167.987 180.594 174.758 Q180.594 181.731 176.254 185.608 Q171.914 189.457 164.015 189.457 Q161.295 189.457 158.459 188.994 Q155.652 188.531 152.643 187.605 L152.643 181.731 Q155.247 183.149 158.025 183.843 Q160.803 184.538 163.899 184.538 Q168.905 184.538 171.827 181.905 Q174.75 179.272 174.75 174.758 Q174.75 170.244 171.827 167.611 Q168.905 164.978 163.899 164.978 Q161.555 164.978 159.211 165.499 Q156.897 166.019 154.466 167.119 L154.466 145.418 Z" fill="#000000" fill-rule="evenodd" fill-opacity="1" /><path clip-path="url(#clip480)" d="M59.9354 76.758 L69.484 76.758 L69.484 43.801 L59.0963 45.8843 L59.0963 40.5603 L69.4261 38.477 L75.271 38.477 L75.271 76.758 L84.8195 76.758 L84.8195 81.677 L59.9354 81.677 L59.9354 76.758 Z" fill="#000000" fill-rule="evenodd" fill-opacity="1" /><path clip-path="url(#clip480)" d="M96.625 74.3275 L102.73 74.3275 L102.73 81.677 L96.625 81.677 L96.625 74.3275 Z" fill="#000000" fill-rule="evenodd" fill-opacity="1" /><path clip-path="url(#clip480)" d="M127.962 42.3253 Q123.448 42.3253 121.162 46.7813 Q118.905 51.2084 118.905 60.1204 Q118.905 69.0034 121.162 73.4594 Q123.448 77.8865 127.962 77.8865 Q132.504 77.8865 134.761 73.4594 Q137.047 69.0034 137.047 60.1204 Q137.047 51.2084 134.761 46.7813 Q132.504 42.3253 127.962 42.3253 M127.962 37.6957 Q135.224 37.6957 139.044 43.4538 Q142.892 49.1829 142.892 60.1204 Q142.892 71.0289 139.044 76.787 Q135.224 82.5161 127.962 82.5161 Q120.699 82.5161 116.851 76.787 Q113.031 71.0289 113.031 60.1204 Q113.031 49.1829 116.851 43.4538 Q120.699 37.6957 127.962 37.6957 Z" fill="#000000" fill-rule="evenodd" fill-opacity="1" /><path clip-path="url(#clip480)" d="M165.664 42.3253 Q161.15 42.3253 158.864 46.7813 Q156.607 51.2084 156.607 60.1204 Q156.607 69.0034 158.864 73.4594 Q161.15 77.8865 165.664 77.8865 Q170.207 77.8865 172.464 73.4594 Q174.75 69.0034 174.75 60.1204 Q174.75 51.2084 172.464 46.7813 Q170.207 42.3253 165.664 42.3253 M165.664 37.6957 Q172.927 37.6957 176.746 43.4538 Q180.594 49.1829 180.594 60.1204 Q180.594 71.0289 176.746 76.787 Q172.927 82.5161 165.664 82.5161 Q158.401 82.5161 154.553 76.787 Q150.734 71.0289 150.734 60.1204 Q150.734 49.1829 154.553 43.4538 Q158.401 37.6957 165.664 37.6957 Z" fill="#000000" fill-rule="evenodd" fill-opacity="1" /><polyline clip-path="url(#clip482)" style="stroke:#2000d4; stroke-linecap:butt; stroke-linejoin:round; stroke-width:16; stroke-opacity:1; fill:none" stroke-dasharray="8, 16" points="
  207.066,487.84 214.037,487.84 221.008,487.84 227.98,487.84 234.951,487.84 241.922,487.84 248.893,487.84 255.865,487.84 262.836,487.84 269.807,487.84 
  276.778,487.839 283.75,487.839 290.721,487.839 297.692,487.839 304.663,487.839 311.635,487.839 318.606,487.839 325.577,487.839 332.549,487.839 339.52,487.839 
  346.491,487.839 353.462,487.839 360.434,487.839 367.405,487.839 374.376,487.839 381.347,487.839 388.319,487.839 395.29,487.838 402.261,487.838 409.233,487.838 
  416.204,487.838 423.175,487.838 430.146,487.837 437.118,487.837 444.089,487.837 451.06,487.837 458.031,487.836 465.003,487.836 471.974,487.835 478.945,487.835 
  485.916,487.834 492.888,487.834 499.859,487.833 506.83,487.832 513.802,487.832 520.773,487.831 527.744,487.83 534.715,487.829 541.687,487.828 548.658,487.827 
  555.629,487.826 562.6,487.825 569.572,487.824 576.543,487.823 583.514,487.822 590.485,487.821 597.457,487.819 604.428,487.818 611.399,487.817 618.371,487.816 
  625.342,487.814 632.313,487.813 639.284,487.812 646.256,487.811 653.227,487.81 660.198,487.808 667.169,487.807 674.141,487.806 681.112,487.805 688.083,487.803 
  695.054,487.802 702.026,487.801 708.997,487.8 715.968,487.799 722.94,487.798 729.911,487.796 736.882,487.795 743.853,487.794 750.825,487.793 757.796,487.792 
  764.767,487.791 771.738,487.79 778.71,487.789 785.681,487.788 792.652,487.786 799.623,487.785 806.595,487.784 813.566,487.783 820.537,487.782 827.509,487.781 
  834.48,487.78 841.451,487.779 848.422,487.778 855.394,487.777 862.365,487.776 869.336,487.774 876.307,487.773 883.279,487.772 890.25,487.771 897.221,487.77 
  904.193,487.769 911.164,487.768 918.135,487.767 925.106,487.765 932.078,487.764 939.049,487.763 946.02,487.762 952.991,487.761 959.963,487.76 966.934,487.758 
  973.905,487.757 980.876,487.756 987.848,487.755 994.819,487.754 1001.79,487.752 1008.76,487.751 1015.73,487.75 1022.7,487.749 1029.68,487.747 1036.65,487.746 
  1043.62,487.745 1050.59,487.743 1057.56,487.742 1064.53,487.741 1071.5,487.74 1078.47,487.738 1085.45,487.737 1092.42,487.735 1099.39,487.734 1106.36,487.733 
  1113.33,487.731 1120.3,487.73 1127.27,487.729 1134.24,487.727 1141.22,487.726 1148.19,487.724 1155.16,487.723 1162.13,487.721 1169.1,487.72 1176.07,487.718 
  1183.04,487.717 1190.01,487.715 1196.99,487.714 1203.96,487.712 1210.93,487.711 1217.9,487.709 1224.87,487.708 1231.84,487.706 1238.81,487.704 1245.78,487.703 
  1252.76,487.701 
  "/>
<polyline clip-path="url(#clip482)" style="stroke:#008900; stroke-linecap:butt; stroke-linejoin:round; stroke-width:16; stroke-opacity:1; fill:none" stroke-dasharray="64, 40" points="
  207.066,487.84 214.037,487.84 221.008,487.839 227.98,487.839 234.951,487.839 241.922,487.839 248.893,487.839 255.865,487.839 262.836,487.839 269.807,487.839 
  276.778,487.839 283.75,487.839 290.721,487.839 297.692,487.839 304.663,487.839 311.635,487.839 318.606,487.839 325.577,487.839 332.549,487.839 339.52,487.839 
  346.491,487.839 353.462,487.839 360.434,487.839 367.405,487.838 374.376,487.838 381.347,487.838 388.319,487.838 395.29,487.838 402.261,487.838 409.233,487.837 
  416.204,487.837 423.175,487.837 430.146,487.837 437.118,487.836 444.089,487.836 451.06,487.836 458.031,487.835 465.003,487.835 471.974,487.835 478.945,487.834 
  485.916,487.834 492.888,487.833 499.859,487.832 506.83,487.832 513.802,487.831 520.773,487.83 527.744,487.829 534.715,487.828 541.687,487.828 548.658,487.826 
  555.629,487.825 562.6,487.824 569.572,487.823 576.543,487.822 583.514,487.82 590.485,487.819 597.457,487.817 604.428,487.815 611.399,487.813 618.371,487.811 
  625.342,487.809 632.313,487.807 639.284,487.805 646.256,487.802 653.227,487.799 660.198,487.796 667.169,487.793 674.141,487.79 681.112,487.786 688.083,487.782 
  695.054,487.778 702.026,487.773 708.997,487.768 715.968,487.763 722.94,487.757 729.911,487.751 736.882,487.744 743.853,487.737 750.825,487.729 757.796,487.721 
  764.767,487.712 771.738,487.702 778.71,487.692 785.681,487.681 792.652,487.67 799.623,487.657 806.595,487.644 813.566,487.631 820.537,487.617 827.509,487.602 
  834.48,487.586 841.451,487.57 848.422,487.553 855.394,487.536 862.365,487.519 869.336,487.501 876.307,487.483 883.279,487.464 890.25,487.446 897.221,487.427 
  904.193,487.408 911.164,487.389 918.135,487.371 925.106,487.352 932.078,487.334 939.049,487.316 946.02,487.298 952.991,487.281 959.963,487.264 966.934,487.247 
  973.905,487.231 980.876,487.215 987.848,487.2 994.819,487.186 1001.79,487.172 1008.76,487.158 1015.73,487.145 1022.7,487.132 1029.68,487.12 1036.65,487.108 
  1043.62,487.097 1050.59,487.086 1057.56,487.076 1064.53,487.066 1071.5,487.056 1078.47,487.047 1085.45,487.038 1092.42,487.03 1099.39,487.022 1106.36,487.014 
  1113.33,487.007 1120.3,486.999 1127.27,486.993 1134.24,486.986 1141.22,486.98 1148.19,486.974 1155.16,486.968 1162.13,486.962 1169.1,486.957 1176.07,486.951 
  1183.04,486.946 1190.01,486.942 1196.99,486.937 1203.96,486.932 1210.93,486.928 1217.9,486.924 1224.87,486.92 1231.84,486.916 1238.81,486.912 1245.78,486.908 
  1252.76,486.905 
  "/>
<polyline clip-path="url(#clip482)" style="stroke:#008900; stroke-linecap:butt; stroke-linejoin:round; stroke-width:16; stroke-opacity:1; fill:none" stroke-dasharray="8, 16" points="
  207.066,487.84 214.037,487.84 221.008,487.839 227.98,487.839 234.951,487.839 241.922,487.839 248.893,487.839 255.865,487.839 262.836,487.839 269.807,487.839 
  276.778,487.839 283.75,487.839 290.721,487.839 297.692,487.839 304.663,487.839 311.635,487.839 318.606,487.839 325.577,487.839 332.549,487.839 339.52,487.839 
  346.491,487.839 353.462,487.838 360.434,487.838 367.405,487.838 374.376,487.838 381.347,487.838 388.319,487.838 395.29,487.838 402.261,487.837 409.233,487.837 
  416.204,487.837 423.175,487.837 430.146,487.836 437.118,487.836 444.089,487.836 451.06,487.835 458.031,487.835 465.003,487.834 471.974,487.834 478.945,487.833 
  485.916,487.833 492.888,487.832 499.859,487.832 506.83,487.831 513.802,487.83 520.773,487.829 527.744,487.828 534.715,487.828 541.687,487.827 548.658,487.826 
  555.629,487.825 562.6,487.823 569.572,487.822 576.543,487.821 583.514,487.82 590.485,487.819 597.457,487.817 604.428,487.816 611.399,487.815 618.371,487.813 
  625.342,487.812 632.313,487.811 639.284,487.809 646.256,487.808 653.227,487.806 660.198,487.805 667.169,487.803 674.141,487.802 681.112,487.8 688.083,487.799 
  695.054,487.797 702.026,487.796 708.997,487.794 715.968,487.793 722.94,487.791 729.911,487.79 736.882,487.788 743.853,487.786 750.825,487.785 757.796,487.783 
  764.767,487.782 771.738,487.78 778.71,487.778 785.681,487.777 792.652,487.775 799.623,487.773 806.595,487.772 813.566,487.77 820.537,487.768 827.509,487.767 
  834.48,487.765 841.451,487.764 848.422,487.762 855.394,487.76 862.365,487.759 869.336,487.757 876.307,487.756 883.279,487.754 890.25,487.753 897.221,487.751 
  904.193,487.75 911.164,487.748 918.135,487.747 925.106,487.745 932.078,487.744 939.049,487.743 946.02,487.741 952.991,487.74 959.963,487.739 966.934,487.738 
  973.905,487.737 980.876,487.736 987.848,487.735 994.819,487.734 1001.79,487.733 1008.76,487.732 1015.73,487.731 1022.7,487.731 1029.68,487.73 1036.65,487.729 
  1043.62,487.729 1050.59,487.728 1057.56,487.728 1064.53,487.727 1071.5,487.727 1078.47,487.726 1085.45,487.726 1092.42,487.726 1099.39,487.725 1106.36,487.725 
  1113.33,487.725 1120.3,487.725 1127.27,487.725 1134.24,487.725 1141.22,487.725 1148.19,487.725 1155.16,487.725 1162.13,487.725 1169.1,487.725 1176.07,487.725 
  1183.04,487.725 1190.01,487.725 1196.99,487.725 1203.96,487.725 1210.93,487.726 1217.9,487.726 1224.87,487.726 1231.84,487.726 1238.81,487.726 1245.78,487.727 
  1252.76,487.727 
  "/>
<polyline clip-path="url(#clip482)" style="stroke:#2000d4; stroke-linecap:butt; stroke-linejoin:round; stroke-width:16; stroke-opacity:1; fill:none" points="
  207.066,487.412 214.037,487.081 221.008,486.765 227.98,486.417 234.951,486.035 241.922,485.615 248.893,485.153 255.865,484.646 262.836,484.087 269.807,483.473 
  276.778,482.797 283.75,482.053 290.721,481.235 297.692,480.335 304.663,479.346 311.635,478.258 318.606,477.062 325.577,475.748 332.549,474.306 339.52,472.723 
  346.491,470.986 353.462,469.083 360.434,466.999 367.405,464.719 374.376,462.227 381.347,459.507 388.319,456.541 395.29,453.312 402.261,449.801 409.233,445.991 
  416.204,441.863 423.175,437.399 430.146,432.584 437.118,427.4 444.089,421.835 451.06,415.876 458.031,409.513 465.003,402.74 471.974,395.554 478.945,387.958 
  485.916,379.957 492.888,371.562 499.859,362.79 506.83,353.663 513.802,344.21 520.773,334.463 527.744,324.462 534.715,314.25 541.687,303.874 548.658,293.385 
  555.629,282.836 562.6,272.282 569.572,261.776 576.543,251.373 583.514,241.124 590.485,231.077 597.457,221.276 604.428,211.762 611.399,202.568 618.371,193.724 
  625.342,185.255 632.313,177.176 639.284,169.502 646.256,162.239 653.227,155.39 660.198,148.953 667.169,142.923 674.141,137.291 681.112,132.045 688.083,127.173 
  695.054,122.658 702.026,118.484 708.997,114.634 715.968,111.09 722.94,107.834 729.911,104.849 736.882,102.117 743.853,99.6212 750.825,97.3449 757.796,95.2726 
  764.767,93.3896 771.738,91.6818 778.71,90.1361 785.681,88.7401 792.652,87.4824 799.623,86.3524 806.595,85.3401 813.566,84.4364 820.537,83.6329 827.509,82.9219 
  834.48,82.2962 841.451,81.7493 848.422,81.2749 855.394,80.8677 862.365,80.5224 869.336,80.2343 876.307,79.9989 883.279,79.8122 890.25,79.6705 897.221,79.5702 
  904.193,79.5081 911.164,79.4811 918.135,79.4864 925.106,79.5214 932.078,79.5838 939.049,79.6711 946.02,79.7814 952.991,79.9128 959.963,80.0633 966.934,80.2315 
  973.905,80.4158 980.876,80.6149 987.848,80.8276 994.819,81.0527 1001.79,81.2892 1008.76,81.5362 1015.73,81.793 1022.7,82.0588 1029.68,82.333 1036.65,82.615 
  1043.62,82.9044 1050.59,83.2006 1057.56,83.5035 1064.53,83.8125 1071.5,84.1276 1078.47,84.4483 1085.45,84.7745 1092.42,85.1061 1099.39,85.4428 1106.36,85.7846 
  1113.33,86.1314 1120.3,86.483 1127.27,86.8395 1134.24,87.2006 1141.22,87.5665 1148.19,87.937 1155.16,88.3122 1162.13,88.692 1169.1,89.0763 1176.07,89.4653 
  1183.04,89.8588 1190.01,90.257 1196.99,90.6597 1203.96,91.067 1210.93,91.4789 1217.9,91.8954 1224.87,92.3166 1231.84,92.7424 1238.81,93.1728 1245.78,93.6079 
  1252.76,94.0478 
  "/>
<polyline clip-path="url(#clip482)" style="stroke:#008900; stroke-linecap:butt; stroke-linejoin:round; stroke-width:16; stroke-opacity:1; fill:none" points="
  207.066,487.626 214.037,487.58 221.008,487.552 227.98,487.519 234.951,487.483 241.922,487.444 248.893,487.4 255.865,487.351 262.836,487.298 269.807,487.239 
  276.778,487.173 283.75,487.101 290.721,487.022 297.692,486.934 304.663,486.838 311.635,486.732 318.606,486.614 325.577,486.486 332.549,486.344 339.52,486.188 
  346.491,486.017 353.462,485.83 360.434,485.624 367.405,485.399 374.376,485.152 381.347,484.882 388.319,484.588 395.29,484.267 402.261,483.917 409.233,483.538 
  416.204,483.126 423.175,482.679 430.146,482.197 437.118,481.677 444.089,481.118 451.06,480.517 458.031,479.874 465.003,479.188 471.974,478.458 478.945,477.684 
  485.916,476.865 492.888,476.003 499.859,475.097 506.83,474.15 513.802,473.164 520.773,472.14 527.744,471.081 534.715,469.99 541.687,468.872 548.658,467.729 
  555.629,466.565 562.6,465.384 569.572,464.19 576.543,462.986 583.514,461.776 590.485,460.562 597.457,459.347 604.428,458.133 611.399,456.921 618.371,455.711 
  625.342,454.506 632.313,453.303 639.284,452.103 646.256,450.903 653.227,449.704 660.198,448.502 667.169,447.296 674.141,446.084 681.112,444.863 688.083,443.633 
  695.054,442.39 702.026,441.134 708.997,439.863 715.968,438.577 722.94,437.274 729.911,435.955 736.882,434.621 743.853,433.271 750.825,431.908 757.796,430.533 
  764.767,429.147 771.738,427.752 778.71,426.35 785.681,424.945 792.652,423.537 799.623,422.129 806.595,420.723 813.566,419.321 820.537,417.925 827.509,416.537 
  834.48,415.157 841.451,413.789 848.422,412.434 855.394,411.092 862.365,409.767 869.336,408.458 876.307,407.169 883.279,405.902 890.25,404.657 897.221,403.437 
  904.193,402.245 911.164,401.083 918.135,399.952 925.106,398.856 932.078,397.796 939.049,396.775 946.02,395.795 952.991,394.857 959.963,393.963 966.934,393.115 
  973.905,392.313 980.876,391.559 987.848,390.854 994.819,390.197 1001.79,389.589 1008.76,389.029 1015.73,388.519 1022.7,388.056 1029.68,387.64 1036.65,387.271 
  1043.62,386.947 1050.59,386.667 1057.56,386.43 1064.53,386.234 1071.5,386.079 1078.47,385.963 1085.45,385.884 1092.42,385.841 1099.39,385.832 1106.36,385.856 
  1113.33,385.912 1120.3,385.997 1127.27,386.111 1134.24,386.253 1141.22,386.42 1148.19,386.611 1155.16,386.826 1162.13,387.062 1169.1,387.32 1176.07,387.597 
  1183.04,387.892 1190.01,388.205 1196.99,388.535 1203.96,388.88 1210.93,389.239 1217.9,389.613 1224.87,389.999 1231.84,390.398 1238.81,390.807 1245.78,391.228 
  1252.76,391.658 
  "/>
<polyline clip-path="url(#clip482)" style="stroke:#7f7f7f; stroke-linecap:butt; stroke-linejoin:round; stroke-width:16; stroke-opacity:1; fill:none" points="
  207.066,60.077 214.037,133.824 221.008,175.569 227.98,203.207 234.951,222.843 241.922,237.561 248.893,248.984 255.865,258.09 262.836,265.5 269.807,271.63 
  276.778,276.772 283.75,281.135 290.721,284.875 297.692,288.111 304.663,290.935 311.635,293.42 318.606,295.625 325.577,297.597 332.549,299.378 339.52,300.998 
  346.491,302.489 353.462,303.873 360.434,305.172 367.405,306.405 374.376,307.589 381.347,308.739 388.319,309.87 395.29,310.993 402.261,312.121 409.233,313.266 
  416.204,314.437 423.175,315.646 430.146,316.902 437.118,318.214 444.089,319.592 451.06,321.044 458.031,322.578 465.003,324.203 471.974,325.926 478.945,327.753 
  485.916,329.691 492.888,331.744 499.859,333.918 506.83,336.215 513.802,338.638 520.773,341.188 527.744,343.865 534.715,346.666 541.687,349.589 548.658,352.63 
  555.629,355.781 562.6,359.037 569.572,362.387 576.543,365.823 583.514,369.333 590.485,372.905 597.457,376.528 604.428,380.188 611.399,383.872 618.371,387.567 
  625.342,391.26 632.313,394.937 639.284,398.588 646.256,402.2 653.227,405.763 660.198,409.267 667.169,412.703 674.141,416.063 681.112,419.34 688.083,422.527 
  695.054,425.621 702.026,428.618 708.997,431.513 715.968,434.306 722.94,436.995 729.911,439.579 736.882,442.058 743.853,444.434 750.825,446.708 757.796,448.881 
  764.767,450.956 771.738,452.935 778.71,454.821 785.681,456.618 792.652,458.327 799.623,459.953 806.595,461.498 813.566,462.966 820.537,464.359 827.509,465.681 
  834.48,466.936 841.451,468.124 848.422,469.25 855.394,470.317 862.365,471.326 869.336,472.28 876.307,473.182 883.279,474.033 890.25,474.838 897.221,475.596 
  904.193,476.311 911.164,476.985 918.135,477.619 925.106,478.216 932.078,478.777 939.049,479.305 946.02,479.802 952.991,480.268 959.963,480.706 966.934,481.118 
  973.905,481.504 980.876,481.868 987.848,482.209 994.819,482.531 1001.79,482.833 1008.76,483.117 1015.73,483.385 1022.7,483.637 1029.68,483.875 1036.65,484.1 
  1043.62,484.312 1050.59,484.512 1057.56,484.702 1064.53,484.881 1071.5,485.051 1078.47,485.212 1085.45,485.365 1092.42,485.51 1099.39,485.647 1106.36,485.778 
  1113.33,485.903 1120.3,486.021 1127.27,486.134 1134.24,486.241 1141.22,486.344 1148.19,486.441 1155.16,486.534 1162.13,486.623 1169.1,486.708 1176.07,486.79 
  1183.04,486.867 1190.01,486.942 1196.99,487.013 1203.96,487.081 1210.93,487.146 1217.9,487.208 1224.87,487.268 1231.84,487.326 1238.81,487.381 1245.78,487.434 
  1252.76,487.485 
  "/>
<polyline clip-path="url(#clip482)" style="stroke:#2000d4; stroke-linecap:butt; stroke-linejoin:round; stroke-width:16; stroke-opacity:1; fill:none" stroke-dasharray="64, 40" points="
  207.066,487.84 214.037,487.84 221.008,487.84 227.98,487.84 234.951,487.84 241.922,487.84 248.893,487.84 255.865,487.84 262.836,487.84 269.807,487.84 
  276.778,487.84 283.75,487.839 290.721,487.839 297.692,487.839 304.663,487.839 311.635,487.839 318.606,487.839 325.577,487.839 332.549,487.839 339.52,487.839 
  346.491,487.839 353.462,487.839 360.434,487.839 367.405,487.839 374.376,487.839 381.347,487.839 388.319,487.839 395.29,487.839 402.261,487.839 409.233,487.839 
  416.204,487.839 423.175,487.839 430.146,487.839 437.118,487.839 444.089,487.839 451.06,487.839 458.031,487.839 465.003,487.838 471.974,487.838 478.945,487.838 
  485.916,487.838 492.888,487.838 499.859,487.838 506.83,487.838 513.802,487.838 520.773,487.837 527.744,487.837 534.715,487.837 541.687,487.837 548.658,487.837 
  555.629,487.837 562.6,487.837 569.572,487.836 576.543,487.836 583.514,487.836 590.485,487.836 597.457,487.836 604.428,487.836 611.399,487.836 618.371,487.835 
  625.342,487.835 632.313,487.835 639.284,487.835 646.256,487.835 653.227,487.835 660.198,487.835 667.169,487.835 674.141,487.835 681.112,487.834 688.083,487.834 
  695.054,487.834 702.026,487.834 708.997,487.834 715.968,487.834 722.94,487.834 729.911,487.834 736.882,487.834 743.853,487.834 750.825,487.833 757.796,487.833 
  764.767,487.833 771.738,487.833 778.71,487.833 785.681,487.833 792.652,487.833 799.623,487.832 806.595,487.832 813.566,487.832 820.537,487.832 827.509,487.832 
  834.48,487.831 841.451,487.831 848.422,487.831 855.394,487.831 862.365,487.83 869.336,487.83 876.307,487.83 883.279,487.829 890.25,487.829 897.221,487.829 
  904.193,487.828 911.164,487.828 918.135,487.828 925.106,487.827 932.078,487.827 939.049,487.826 946.02,487.826 952.991,487.825 959.963,487.825 966.934,487.824 
  973.905,487.824 980.876,487.823 987.848,487.822 994.819,487.822 1001.79,487.821 1008.76,487.821 1015.73,487.82 1022.7,487.819 1029.68,487.819 1036.65,487.818 
  1043.62,487.817 1050.59,487.817 1057.56,487.816 1064.53,487.815 1071.5,487.814 1078.47,487.814 1085.45,487.813 1092.42,487.812 1099.39,487.811 1106.36,487.81 
  1113.33,487.81 1120.3,487.809 1127.27,487.808 1134.24,487.807 1141.22,487.806 1148.19,487.806 1155.16,487.805 1162.13,487.804 1169.1,487.803 1176.07,487.802 
  1183.04,487.801 1190.01,487.8 1196.99,487.799 1203.96,487.798 1210.93,487.797 1217.9,487.796 1224.87,487.795 1231.84,487.794 1238.81,487.793 1245.78,487.792 
  1252.76,487.791 
  "/>
<polyline clip-path="url(#clip482)" style="stroke:#ff221c; stroke-linecap:butt; stroke-linejoin:round; stroke-width:16; stroke-opacity:1; fill:none" points="
  207.066,402.316 214.037,402.287 221.008,402.286 227.98,402.285 234.951,402.283 241.922,402.281 248.893,402.279 255.865,402.277 262.836,402.273 269.807,402.27 
  276.778,402.266 283.75,402.261 290.721,402.256 297.692,402.249 304.663,402.242 311.635,402.235 318.606,402.226 325.577,402.216 332.549,402.205 339.52,402.192 
  346.491,402.178 353.462,402.162 360.434,402.145 367.405,402.125 374.376,402.103 381.347,402.079 388.319,402.052 395.29,402.022 402.261,401.989 409.233,401.952 
  416.204,401.911 423.175,401.866 430.146,401.815 437.118,401.759 444.089,401.697 451.06,401.629 458.031,401.553 465.003,401.468 471.974,401.375 478.945,401.272 
  485.916,401.158 492.888,401.032 499.859,400.892 506.83,400.738 513.802,400.567 520.773,400.379 527.744,400.171 534.715,399.941 541.687,399.687 548.658,399.407 
  555.629,399.098 562.6,398.757 569.572,398.381 576.543,397.967 583.514,397.51 590.485,397.007 597.457,396.453 604.428,395.844 611.399,395.172 618.371,394.434 
  625.342,393.623 632.313,392.731 639.284,391.751 646.256,390.675 653.227,389.495 660.198,388.201 667.169,386.782 674.141,385.23 681.112,383.531 688.083,381.675 
  695.054,379.649 702.026,377.438 708.997,375.031 715.968,372.412 722.94,369.568 729.911,366.483 736.882,363.142 743.853,359.533 750.825,355.639 757.796,351.449 
  764.767,346.949 771.738,342.13 778.71,336.98 785.681,331.495 792.652,325.668 799.623,319.499 806.595,312.99 813.566,306.146 820.537,298.977 827.509,291.498 
  834.48,283.728 841.451,275.689 848.422,267.41 855.394,258.924 862.365,250.267 869.336,241.48 876.307,232.604 883.279,223.686 890.25,214.773 897.221,205.91 
  904.193,197.145 911.164,188.524 918.135,180.087 925.106,171.876 932.078,163.926 939.049,156.269 946.02,148.929 952.991,141.93 959.963,135.286 966.934,129.01 
  973.905,123.107 980.876,117.578 987.848,112.421 994.819,107.629 1001.79,103.193 1008.76,99.101 1015.73,95.3382 1022.7,91.8888 1029.68,88.7358 1036.65,85.8613 
  1043.62,83.2473 1050.59,80.8755 1057.56,78.728 1064.53,76.7874 1071.5,75.0368 1078.47,73.4603 1085.45,72.0426 1092.42,70.7694 1099.39,69.6273 1106.36,68.604 
  1113.33,67.6879 1120.3,66.8687 1127.27,66.1365 1134.24,65.4825 1141.22,64.8988 1148.19,64.378 1155.16,63.9135 1162.13,63.4995 1169.1,63.1305 1176.07,62.8016 
  1183.04,62.5087 1190.01,62.2477 1196.99,62.0152 1203.96,61.808 1210.93,61.6235 1217.9,61.4591 1224.87,61.3127 1231.84,61.1821 1238.81,61.0658 1245.78,60.9621 
  1252.76,60.8695 
  "/>
<polyline clip-path="url(#clip482)" style="stroke:#000000; stroke-linecap:butt; stroke-linejoin:round; stroke-width:16; stroke-opacity:1; fill:none" stroke-dasharray="8, 16" points="
  207.066,60.077 214.037,60.5004 221.008,60.8847 227.98,61.2524 234.951,61.6477 241.922,62.0813 248.893,62.5578 255.865,63.0819 262.836,63.6582 269.807,64.2921 
  276.778,64.9894 283.75,65.7565 290.721,66.6004 297.692,67.5287 304.663,68.5497 311.635,69.6725 318.606,70.9068 325.577,72.2634 332.549,73.7538 339.52,75.3903 
  346.491,77.1862 353.462,79.1559 360.434,81.3145 367.405,83.6783 374.376,86.2643 381.347,89.0905 388.319,92.1758 395.29,95.5396 402.261,99.202 409.233,103.183 
  416.204,107.504 423.175,112.185 430.146,117.246 437.118,122.706 444.089,128.582 451.06,134.891 458.031,141.646 465.003,148.859 471.974,156.534 478.945,164.677 
  485.916,173.284 492.888,182.349 499.859,191.858 506.83,201.792 513.802,212.125 520.773,222.826 527.744,233.855 534.715,245.169 541.687,256.718 548.658,268.446 
  555.629,280.295 562.6,292.205 569.572,304.112 576.543,315.954 583.514,327.668 590.485,339.194 597.457,350.477 604.428,361.463 611.399,372.106 618.371,382.362 
  625.342,392.196 632.313,401.578 639.284,410.483 646.256,418.892 653.227,426.791 660.198,434.173 667.169,441.03 674.141,447.363 681.112,453.173 688.083,458.464 
  695.054,463.241 702.026,467.514 708.997,471.293 715.968,474.591 722.94,477.426 729.911,479.82 736.882,481.801 743.853,483.401 750.825,484.66 757.796,485.623 
  764.767,486.337 771.738,486.85 778.71,487.206 785.681,487.445 792.652,487.6 799.623,487.698 806.595,487.758 813.566,487.793 820.537,487.814 827.509,487.826 
  834.48,487.832 841.451,487.836 848.422,487.837 855.394,487.838 862.365,487.839 869.336,487.839 876.307,487.839 883.279,487.839 890.25,487.84 897.221,487.84 
  904.193,487.84 911.164,487.84 918.135,487.84 925.106,487.84 932.078,487.84 939.049,487.84 946.02,487.84 952.991,487.84 959.963,487.84 966.934,487.84 
  973.905,487.84 980.876,487.84 987.848,487.84 994.819,487.84 1001.79,487.84 1008.76,487.84 1015.73,487.84 1022.7,487.84 1029.68,487.84 1036.65,487.84 
  1043.62,487.84 1050.59,487.84 1057.56,487.84 1064.53,487.84 1071.5,487.84 1078.47,487.84 1085.45,487.84 1092.42,487.84 1099.39,487.84 1106.36,487.84 
  1113.33,487.84 1120.3,487.84 1127.27,487.84 1134.24,487.84 1141.22,487.84 1148.19,487.84 1155.16,487.84 1162.13,487.84 1169.1,487.84 1176.07,487.84 
  1183.04,487.84 1190.01,487.84 1196.99,487.84 1203.96,487.84 1210.93,487.84 1217.9,487.84 1224.87,487.84 1231.84,487.84 1238.81,487.84 1245.78,487.84 
  1252.76,487.84 
  "/>
</svg>
