<?xml version="1.0" encoding="utf-8"?>
<svg xmlns="http://www.w3.org/2000/svg" xmlns:xlink="http://www.w3.org/1999/xlink" width="325" height="150" viewBox="0 0 1300 600">
<defs>
  <clipPath id="clip930">
    <rect x="0" y="0" width="1300" height="600"/>
  </clipPath>
</defs>
<path clip-path="url(#clip930)" d="
M0 600 L1300 600 L1300 0 L0 0  Z
  " fill="#ffffff" fill-rule="evenodd" fill-opacity="1"/>
<defs>
  <clipPath id="clip931">
    <rect x="260" y="0" width="911" height="600"/>
  </clipPath>
</defs>
<path clip-path="url(#clip930)" d="
M200.094 501.1 L1252.76 501.1 L1252.76 47.2441 L200.094 47.2441  Z
  " fill="#ffffff" fill-rule="evenodd" fill-opacity="1"/>
<defs>
  <clipPath id="clip932">
    <rect x="200" y="47" width="1054" height="455"/>
  </clipPath>
</defs>
<polyline clip-path="url(#clip930)" style="stroke:#000000; stroke-linecap:butt; stroke-linejoin:round; stroke-width:4; stroke-opacity:1; fill:none" points="
  200.094,501.1 1252.76,501.1 
  "/>
<polyline clip-path="url(#clip930)" style="stroke:#000000; stroke-linecap:butt; stroke-linejoin:round; stroke-width:4; stroke-opacity:1; fill:none" points="
  200.094,501.1 200.094,482.203 
  "/>
<polyline clip-path="url(#clip930)" style="stroke:#000000; stroke-linecap:butt; stroke-linejoin:round; stroke-width:4; stroke-opacity:1; fill:none" points="
  548.658,501.1 548.658,482.203 
  "/>
<polyline clip-path="url(#clip930)" style="stroke:#000000; stroke-linecap:butt; stroke-linejoin:round; stroke-width:4; stroke-opacity:1; fill:none" points="
  897.221,501.1 897.221,482.203 
  "/>
<polyline clip-path="url(#clip930)" style="stroke:#000000; stroke-linecap:butt; stroke-linejoin:round; stroke-width:4; stroke-opacity:1; fill:none" points="
  1245.78,501.1 1245.78,482.203 
  "/>
<path clip-path="url(#clip930)" d="M200.094 526.149 Q195.581 526.149 193.295 530.605 Q191.038 535.032 191.038 543.944 Q191.038 552.827 193.295 557.283 Q195.581 561.71 200.094 561.71 Q204.637 561.71 206.894 557.283 Q209.18 552.827 209.18 543.944 Q209.18 535.032 206.894 530.605 Q204.637 526.149 200.094 526.149 M200.094 521.519 Q207.357 521.519 211.177 527.277 Q215.025 533.006 215.025 543.944 Q215.025 554.852 211.177 560.61 Q207.357 566.339 200.094 566.339 Q192.832 566.339 188.983 560.61 Q185.164 554.852 185.164 543.944 Q185.164 533.006 188.983 527.277 Q192.832 521.519 200.094 521.519 Z" fill="#000000" fill-rule="evenodd" fill-opacity="1" /><path clip-path="url(#clip930)" d="M517.032 522.3 L539.977 522.3 L539.977 527.219 L522.385 527.219 L522.385 537.809 Q523.658 537.375 524.931 537.173 Q526.204 536.941 527.477 536.941 Q534.711 536.941 538.936 540.905 Q543.16 544.87 543.16 551.64 Q543.16 558.614 538.82 562.491 Q534.48 566.339 526.58 566.339 Q523.861 566.339 521.025 565.876 Q518.218 565.413 515.209 564.487 L515.209 558.614 Q517.813 560.031 520.591 560.726 Q523.369 561.42 526.465 561.42 Q531.47 561.42 534.393 558.787 Q537.315 556.154 537.315 551.64 Q537.315 547.126 534.393 544.493 Q531.47 541.86 526.465 541.86 Q524.121 541.86 521.777 542.381 Q519.462 542.902 517.032 544.001 L517.032 522.3 Z" fill="#000000" fill-rule="evenodd" fill-opacity="1" /><path clip-path="url(#clip930)" d="M567.176 526.149 Q562.662 526.149 560.377 530.605 Q558.12 535.032 558.12 543.944 Q558.12 552.827 560.377 557.283 Q562.662 561.71 567.176 561.71 Q571.719 561.71 573.976 557.283 Q576.262 552.827 576.262 543.944 Q576.262 535.032 573.976 530.605 Q571.719 526.149 567.176 526.149 M567.176 521.519 Q574.439 521.519 578.258 527.277 Q582.107 533.006 582.107 543.944 Q582.107 554.852 578.258 560.61 Q574.439 566.339 567.176 566.339 Q559.914 566.339 556.065 560.61 Q552.246 554.852 552.246 543.944 Q552.246 533.006 556.065 527.277 Q559.914 521.519 567.176 521.519 Z" fill="#000000" fill-rule="evenodd" fill-opacity="1" /><path clip-path="url(#clip930)" d="M846.73 560.581 L856.278 560.581 L856.278 527.624 L845.891 529.708 L845.891 524.384 L856.22 522.3 L862.065 522.3 L862.065 560.581 L871.614 560.581 L871.614 565.5 L846.73 565.5 L846.73 560.581 Z" fill="#000000" fill-rule="evenodd" fill-opacity="1" /><path clip-path="url(#clip930)" d="M895.919 526.149 Q891.405 526.149 889.119 530.605 Q886.863 535.032 886.863 543.944 Q886.863 552.827 889.119 557.283 Q891.405 561.71 895.919 561.71 Q900.462 561.71 902.719 557.283 Q905.005 552.827 905.005 543.944 Q905.005 535.032 902.719 530.605 Q900.462 526.149 895.919 526.149 M895.919 521.519 Q903.182 521.519 907.001 527.277 Q910.85 533.006 910.85 543.944 Q910.85 554.852 907.001 560.61 Q903.182 566.339 895.919 566.339 Q888.656 566.339 884.808 560.61 Q880.989 554.852 880.989 543.944 Q880.989 533.006 884.808 527.277 Q888.656 521.519 895.919 521.519 Z" fill="#000000" fill-rule="evenodd" fill-opacity="1" /><path clip-path="url(#clip930)" d="M933.622 526.149 Q929.108 526.149 926.822 530.605 Q924.565 535.032 924.565 543.944 Q924.565 552.827 926.822 557.283 Q929.108 561.71 933.622 561.71 Q938.164 561.71 940.421 557.283 Q942.707 552.827 942.707 543.944 Q942.707 535.032 940.421 530.605 Q938.164 526.149 933.622 526.149 M933.622 521.519 Q940.884 521.519 944.704 527.277 Q948.552 533.006 948.552 543.944 Q948.552 554.852 944.704 560.61 Q940.884 566.339 933.622 566.339 Q926.359 566.339 922.51 560.61 Q918.691 554.852 918.691 543.944 Q918.691 533.006 922.51 527.277 Q926.359 521.519 933.622 521.519 Z" fill="#000000" fill-rule="evenodd" fill-opacity="1" /><path clip-path="url(#clip930)" d="M1195.29 560.581 L1204.84 560.581 L1204.84 527.624 L1194.45 529.708 L1194.45 524.384 L1204.78 522.3 L1210.63 522.3 L1210.63 560.581 L1220.18 560.581 L1220.18 565.5 L1195.29 565.5 L1195.29 560.581 Z" fill="#000000" fill-rule="evenodd" fill-opacity="1" /><path clip-path="url(#clip930)" d="M1232.04 522.3 L1254.99 522.3 L1254.99 527.219 L1237.39 527.219 L1237.39 537.809 Q1238.67 537.375 1239.94 537.173 Q1241.21 536.941 1242.49 536.941 Q1249.72 536.941 1253.94 540.905 Q1258.17 544.87 1258.17 551.64 Q1258.17 558.614 1253.83 562.491 Q1249.49 566.339 1241.59 566.339 Q1238.87 566.339 1236.03 565.876 Q1233.23 565.413 1230.22 564.487 L1230.22 558.614 Q1232.82 560.031 1235.6 560.726 Q1238.38 561.42 1241.47 561.42 Q1246.48 561.42 1249.4 558.787 Q1252.32 556.154 1252.32 551.64 Q1252.32 547.126 1249.4 544.493 Q1246.48 541.86 1241.47 541.86 Q1239.13 541.86 1236.79 542.381 Q1234.47 542.902 1232.04 544.001 L1232.04 522.3 Z" fill="#000000" fill-rule="evenodd" fill-opacity="1" /><path clip-path="url(#clip930)" d="M1282.18 526.149 Q1277.67 526.149 1275.39 530.605 Q1273.13 535.032 1273.13 543.944 Q1273.13 552.827 1275.39 557.283 Q1277.67 561.71 1282.18 561.71 Q1286.73 561.71 1288.98 557.283 Q1291.27 552.827 1291.27 543.944 Q1291.27 535.032 1288.98 530.605 Q1286.73 526.149 1282.18 526.149 M1282.18 521.519 Q1289.45 521.519 1293.27 527.277 Q1297.12 533.006 1297.12 543.944 Q1297.12 554.852 1293.27 560.61 Q1289.45 566.339 1282.18 566.339 Q1274.92 566.339 1271.07 560.61 Q1267.25 554.852 1267.25 543.944 Q1267.25 533.006 1271.07 527.277 Q1274.92 521.519 1282.18 521.519 Z" fill="#000000" fill-rule="evenodd" fill-opacity="1" /><polyline clip-path="url(#clip930)" style="stroke:#000000; stroke-linecap:butt; stroke-linejoin:round; stroke-width:4; stroke-opacity:1; fill:none" points="
  200.094,501.1 200.094,47.2441 
  "/>
<polyline clip-path="url(#clip930)" style="stroke:#000000; stroke-linecap:butt; stroke-linejoin:round; stroke-width:4; stroke-opacity:1; fill:none" points="
  200.094,487.84 218.992,487.84 
  "/>
<polyline clip-path="url(#clip930)" style="stroke:#000000; stroke-linecap:butt; stroke-linejoin:round; stroke-width:4; stroke-opacity:1; fill:none" points="
  200.094,380.899 218.992,380.899 
  "/>
<polyline clip-path="url(#clip930)" style="stroke:#000000; stroke-linecap:butt; stroke-linejoin:round; stroke-width:4; stroke-opacity:1; fill:none" points="
  200.094,273.958 218.992,273.958 
  "/>
<polyline clip-path="url(#clip930)" style="stroke:#000000; stroke-linecap:butt; stroke-linejoin:round; stroke-width:4; stroke-opacity:1; fill:none" points="
  200.094,167.018 218.992,167.018 
  "/>
<polyline clip-path="url(#clip930)" style="stroke:#000000; stroke-linecap:butt; stroke-linejoin:round; stroke-width:4; stroke-opacity:1; fill:none" points="
  200.094,60.077 218.992,60.077 
  "/>
<path clip-path="url(#clip930)" d="M71.4226 470.088 Q66.9087 470.088 64.6229 474.544 Q62.3659 478.971 62.3659 487.883 Q62.3659 496.766 64.6229 501.222 Q66.9087 505.649 71.4226 505.649 Q75.9654 505.649 78.2223 501.222 Q80.5082 496.766 80.5082 487.883 Q80.5082 478.971 78.2223 474.544 Q75.9654 470.088 71.4226 470.088 M71.4226 465.458 Q78.6853 465.458 82.5047 471.216 Q86.3531 476.946 86.3531 487.883 Q86.3531 498.791 82.5047 504.55 Q78.6853 510.279 71.4226 510.279 Q64.1599 510.279 60.3115 504.55 Q56.4921 498.791 56.4921 487.883 Q56.4921 476.946 60.3115 471.216 Q64.1599 465.458 71.4226 465.458 Z" fill="#000000" fill-rule="evenodd" fill-opacity="1" /><path clip-path="url(#clip930)" d="M96.625 502.09 L102.73 502.09 L102.73 509.44 L96.625 509.44 L96.625 502.09 Z" fill="#000000" fill-rule="evenodd" fill-opacity="1" /><path clip-path="url(#clip930)" d="M127.962 470.088 Q123.448 470.088 121.162 474.544 Q118.905 478.971 118.905 487.883 Q118.905 496.766 121.162 501.222 Q123.448 505.649 127.962 505.649 Q132.504 505.649 134.761 501.222 Q137.047 496.766 137.047 487.883 Q137.047 478.971 134.761 474.544 Q132.504 470.088 127.962 470.088 M127.962 465.458 Q135.224 465.458 139.044 471.216 Q142.892 476.946 142.892 487.883 Q142.892 498.791 139.044 504.55 Q135.224 510.279 127.962 510.279 Q120.699 510.279 116.851 504.55 Q113.031 498.791 113.031 487.883 Q113.031 476.946 116.851 471.216 Q120.699 465.458 127.962 465.458 Z" fill="#000000" fill-rule="evenodd" fill-opacity="1" /><path clip-path="url(#clip930)" d="M165.664 470.088 Q161.15 470.088 158.864 474.544 Q156.607 478.971 156.607 487.883 Q156.607 496.766 158.864 501.222 Q161.15 505.649 165.664 505.649 Q170.207 505.649 172.464 501.222 Q174.75 496.766 174.75 487.883 Q174.75 478.971 172.464 474.544 Q170.207 470.088 165.664 470.088 M165.664 465.458 Q172.927 465.458 176.746 471.216 Q180.594 476.946 180.594 487.883 Q180.594 498.791 176.746 504.55 Q172.927 510.279 165.664 510.279 Q158.401 510.279 154.553 504.55 Q150.734 498.791 150.734 487.883 Q150.734 476.946 154.553 471.216 Q158.401 465.458 165.664 465.458 Z" fill="#000000" fill-rule="evenodd" fill-opacity="1" /><path clip-path="url(#clip930)" d="M72.6668 363.147 Q68.1529 363.147 65.8671 367.603 Q63.6101 372.03 63.6101 380.942 Q63.6101 389.825 65.8671 394.281 Q68.1529 398.708 72.6668 398.708 Q77.2096 398.708 79.4665 394.281 Q81.7524 389.825 81.7524 380.942 Q81.7524 372.03 79.4665 367.603 Q77.2096 363.147 72.6668 363.147 M72.6668 358.518 Q79.9295 358.518 83.7489 364.276 Q87.5973 370.005 87.5973 380.942 Q87.5973 391.851 83.7489 397.609 Q79.9295 403.338 72.6668 403.338 Q65.4041 403.338 61.5558 397.609 Q57.7363 391.851 57.7363 380.942 Q57.7363 370.005 61.5558 364.276 Q65.4041 358.518 72.6668 358.518 Z" fill="#000000" fill-rule="evenodd" fill-opacity="1" /><path clip-path="url(#clip930)" d="M97.8692 395.149 L103.975 395.149 L103.975 402.499 L97.8692 402.499 L97.8692 395.149 Z" fill="#000000" fill-rule="evenodd" fill-opacity="1" /><path clip-path="url(#clip930)" d="M121.741 397.58 L142.14 397.58 L142.14 402.499 L114.709 402.499 L114.709 397.58 Q118.037 394.137 123.766 388.35 Q129.524 382.534 131 380.855 Q133.807 377.702 134.906 375.531 Q136.035 373.332 136.035 371.22 Q136.035 367.777 133.604 365.607 Q131.202 363.437 127.325 363.437 Q124.576 363.437 121.509 364.391 Q118.471 365.346 114.999 367.285 L114.999 361.382 Q118.529 359.964 121.596 359.241 Q124.663 358.518 127.209 358.518 Q133.922 358.518 137.915 361.874 Q141.908 365.231 141.908 370.844 Q141.908 373.506 140.896 375.908 Q139.912 378.28 137.279 381.521 Q136.555 382.36 132.678 386.382 Q128.801 390.375 121.741 397.58 Z" fill="#000000" fill-rule="evenodd" fill-opacity="1" /><path clip-path="url(#clip930)" d="M154.466 359.299 L177.412 359.299 L177.412 364.218 L159.819 364.218 L159.819 374.808 Q161.092 374.374 162.365 374.172 Q163.639 373.94 164.912 373.94 Q172.145 373.94 176.37 377.904 Q180.594 381.868 180.594 388.639 Q180.594 395.612 176.254 399.49 Q171.914 403.338 164.015 403.338 Q161.295 403.338 158.459 402.875 Q155.652 402.412 152.643 401.486 L152.643 395.612 Q155.247 397.03 158.025 397.725 Q160.803 398.419 163.899 398.419 Q168.905 398.419 171.827 395.786 Q174.75 393.153 174.75 388.639 Q174.75 384.125 171.827 381.492 Q168.905 378.859 163.899 378.859 Q161.555 378.859 159.211 379.38 Q156.897 379.901 154.466 381 L154.466 359.299 Z" fill="#000000" fill-rule="evenodd" fill-opacity="1" /><path clip-path="url(#clip930)" d="M71.4226 256.207 Q66.9087 256.207 64.6229 260.663 Q62.3659 265.09 62.3659 274.002 Q62.3659 282.885 64.6229 287.341 Q66.9087 291.768 71.4226 291.768 Q75.9654 291.768 78.2223 287.341 Q80.5082 282.885 80.5082 274.002 Q80.5082 265.09 78.2223 260.663 Q75.9654 256.207 71.4226 256.207 M71.4226 251.577 Q78.6853 251.577 82.5047 257.335 Q86.3531 263.064 86.3531 274.002 Q86.3531 284.91 82.5047 290.668 Q78.6853 296.397 71.4226 296.397 Q64.1599 296.397 60.3115 290.668 Q56.4921 284.91 56.4921 274.002 Q56.4921 263.064 60.3115 257.335 Q64.1599 251.577 71.4226 251.577 Z" fill="#000000" fill-rule="evenodd" fill-opacity="1" /><path clip-path="url(#clip930)" d="M96.625 288.209 L102.73 288.209 L102.73 295.558 L96.625 295.558 L96.625 288.209 Z" fill="#000000" fill-rule="evenodd" fill-opacity="1" /><path clip-path="url(#clip930)" d="M115.52 252.358 L138.465 252.358 L138.465 257.277 L120.873 257.277 L120.873 267.867 Q122.146 267.433 123.419 267.231 Q124.692 266.999 125.965 266.999 Q133.199 266.999 137.423 270.963 Q141.648 274.928 141.648 281.698 Q141.648 288.672 137.308 292.549 Q132.967 296.397 125.068 296.397 Q122.348 296.397 119.513 295.934 Q116.706 295.471 113.697 294.546 L113.697 288.672 Q116.301 290.09 119.079 290.784 Q121.856 291.478 124.952 291.478 Q129.958 291.478 132.881 288.845 Q135.803 286.212 135.803 281.698 Q135.803 277.185 132.881 274.551 Q129.958 271.918 124.952 271.918 Q122.609 271.918 120.265 272.439 Q117.95 272.96 115.52 274.06 L115.52 252.358 Z" fill="#000000" fill-rule="evenodd" fill-opacity="1" /><path clip-path="url(#clip930)" d="M165.664 256.207 Q161.15 256.207 158.864 260.663 Q156.607 265.09 156.607 274.002 Q156.607 282.885 158.864 287.341 Q161.15 291.768 165.664 291.768 Q170.207 291.768 172.464 287.341 Q174.75 282.885 174.75 274.002 Q174.75 265.09 172.464 260.663 Q170.207 256.207 165.664 256.207 M165.664 251.577 Q172.927 251.577 176.746 257.335 Q180.594 263.064 180.594 274.002 Q180.594 284.91 176.746 290.668 Q172.927 296.397 165.664 296.397 Q158.401 296.397 154.553 290.668 Q150.734 284.91 150.734 274.002 Q150.734 263.064 154.553 257.335 Q158.401 251.577 165.664 251.577 Z" fill="#000000" fill-rule="evenodd" fill-opacity="1" /><path clip-path="url(#clip930)" d="M72.6668 149.266 Q68.1529 149.266 65.8671 153.722 Q63.6101 158.149 63.6101 167.061 Q63.6101 175.944 65.8671 180.4 Q68.1529 184.827 72.6668 184.827 Q77.2096 184.827 79.4665 180.4 Q81.7524 175.944 81.7524 167.061 Q81.7524 158.149 79.4665 153.722 Q77.2096 149.266 72.6668 149.266 M72.6668 144.636 Q79.9295 144.636 83.7489 150.394 Q87.5973 156.124 87.5973 167.061 Q87.5973 177.97 83.7489 183.728 Q79.9295 189.457 72.6668 189.457 Q65.4041 189.457 61.5558 183.728 Q57.7363 177.97 57.7363 167.061 Q57.7363 156.124 61.5558 150.394 Q65.4041 144.636 72.6668 144.636 Z" fill="#000000" fill-rule="evenodd" fill-opacity="1" /><path clip-path="url(#clip930)" d="M97.8692 181.268 L103.975 181.268 L103.975 188.618 L97.8692 188.618 L97.8692 181.268 Z" fill="#000000" fill-rule="evenodd" fill-opacity="1" /><path clip-path="url(#clip930)" d="M115.23 145.418 L143.008 145.418 L143.008 147.906 L127.325 188.618 L121.22 188.618 L135.977 150.337 L115.23 150.337 L115.23 145.418 Z" fill="#000000" fill-rule="evenodd" fill-opacity="1" /><path clip-path="url(#clip930)" d="M154.466 145.418 L177.412 145.418 L177.412 150.337 L159.819 150.337 L159.819 160.927 Q161.092 160.493 162.365 160.29 Q163.639 160.059 164.912 160.059 Q172.145 160.059 176.37 164.023 Q180.594 167.987 180.594 174.758 Q180.594 181.731 176.254 185.608 Q171.914 189.457 164.015 189.457 Q161.295 189.457 158.459 188.994 Q155.652 188.531 152.643 187.605 L152.643 181.731 Q155.247 183.149 158.025 183.843 Q160.803 184.538 163.899 184.538 Q168.905 184.538 171.827 181.905 Q174.75 179.272 174.75 174.758 Q174.75 170.244 171.827 167.611 Q168.905 164.978 163.899 164.978 Q161.555 164.978 159.211 165.499 Q156.897 166.019 154.466 167.119 L154.466 145.418 Z" fill="#000000" fill-rule="evenodd" fill-opacity="1" /><path clip-path="url(#clip930)" d="M59.9354 76.758 L69.484 76.758 L69.484 43.801 L59.0963 45.8843 L59.0963 40.5603 L69.4261 38.477 L75.271 38.477 L75.271 76.758 L84.8195 76.758 L84.8195 81.677 L59.9354 81.677 L59.9354 76.758 Z" fill="#000000" fill-rule="evenodd" fill-opacity="1" /><path clip-path="url(#clip930)" d="M96.625 74.3275 L102.73 74.3275 L102.73 81.677 L96.625 81.677 L96.625 74.3275 Z" fill="#000000" fill-rule="evenodd" fill-opacity="1" /><path clip-path="url(#clip930)" d="M127.962 42.3253 Q123.448 42.3253 121.162 46.7813 Q118.905 51.2084 118.905 60.1204 Q118.905 69.0034 121.162 73.4594 Q123.448 77.8865 127.962 77.8865 Q132.504 77.8865 134.761 73.4594 Q137.047 69.0034 137.047 60.1204 Q137.047 51.2084 134.761 46.7813 Q132.504 42.3253 127.962 42.3253 M127.962 37.6957 Q135.224 37.6957 139.044 43.4538 Q142.892 49.1829 142.892 60.1204 Q142.892 71.0289 139.044 76.787 Q135.224 82.5161 127.962 82.5161 Q120.699 82.5161 116.851 76.787 Q113.031 71.0289 113.031 60.1204 Q113.031 49.1829 116.851 43.4538 Q120.699 37.6957 127.962 37.6957 Z" fill="#000000" fill-rule="evenodd" fill-opacity="1" /><path clip-path="url(#clip930)" d="M165.664 42.3253 Q161.15 42.3253 158.864 46.7813 Q156.607 51.2084 156.607 60.1204 Q156.607 69.0034 158.864 73.4594 Q161.15 77.8865 165.664 77.8865 Q170.207 77.8865 172.464 73.4594 Q174.75 69.0034 174.75 60.1204 Q174.75 51.2084 172.464 46.7813 Q170.207 42.3253 165.664 42.3253 M165.664 37.6957 Q172.927 37.6957 176.746 43.4538 Q180.594 49.1829 180.594 60.1204 Q180.594 71.0289 176.746 76.787 Q172.927 82.5161 165.664 82.5161 Q158.401 82.5161 154.553 76.787 Q150.734 71.0289 150.734 60.1204 Q150.734 49.1829 154.553 43.4538 Q158.401 37.6957 165.664 37.6957 Z" fill="#000000" fill-rule="evenodd" fill-opacity="1" /><polyline clip-path="url(#clip932)" style="stroke:#ff00ff; stroke-linecap:butt; stroke-linejoin:round; stroke-width:16; stroke-opacity:1; fill:none" points="
  207.066,274.065 214.037,274.146 221.008,274.192 227.98,274.254 234.951,274.33 241.922,274.423 248.893,274.537 255.865,274.677 262.836,274.847 269.807,275.055 
  276.778,275.309 283.75,275.619 290.721,275.996 297.692,276.456 304.663,277.015 311.635,277.695 318.606,278.519 325.577,279.518 332.549,280.724 339.52,282.178 
  346.491,283.924 353.462,286.013 360.434,288.499 367.405,291.442 374.376,294.902 381.347,298.937 388.319,303.601 395.29,308.932 402.261,314.953 409.233,321.659 
  416.204,329.012 423.175,336.939 430.146,345.327 437.118,354.031 444.089,362.878 451.06,371.681 458.031,380.252 465.003,388.418 471.974,396.032 478.945,402.977 
  485.916,409.176 492.888,414.586 499.859,419.194 506.83,423.012 513.802,426.072 520.773,428.422 527.744,430.115 534.715,431.217 541.687,431.797 548.658,431.927 
  555.629,431.683 562.6,431.143 569.572,430.382 576.543,429.467 583.514,428.459 590.485,427.406 597.457,426.346 604.428,425.303 611.399,424.292 618.371,423.321 
  625.342,422.388 632.313,421.492 639.284,420.628 646.256,419.788 653.227,418.967 660.198,418.161 667.169,417.364 674.141,416.573 681.112,415.784 688.083,414.995 
  695.054,414.205 702.026,413.412 708.997,412.615 715.968,411.814 722.94,411.008 729.911,410.196 736.882,409.379 743.853,408.556 750.825,407.728 757.796,406.893 
  764.767,406.053 771.738,405.207 778.71,404.356 785.681,403.499 792.652,402.636 799.623,401.768 806.595,400.894 813.566,400.015 820.537,399.131 827.509,398.242 
  834.48,397.347 841.451,396.448 848.422,395.545 855.394,394.636 862.365,393.724 869.336,392.807 876.307,391.886 883.279,390.961 890.25,390.032 897.221,389.099 
  904.193,388.163 911.164,387.223 918.135,386.281 925.106,385.335 932.078,384.386 939.049,383.435 946.02,382.481 952.991,381.525 959.963,380.567 966.934,379.607 
  973.905,378.645 980.876,377.681 987.848,376.717 994.819,375.75 1001.79,374.783 1008.76,373.815 1015.73,372.847 1022.7,371.878 1029.68,370.909 1036.65,369.939 
  1043.62,368.97 1050.59,368.001 1057.56,367.033 1064.53,366.066 1071.5,365.099 1078.47,364.133 1085.45,363.169 1092.42,362.207 1099.39,361.245 1106.36,360.286 
  1113.33,359.329 1120.3,358.374 1127.27,357.422 1134.24,356.472 1141.22,355.525 1148.19,354.581 1155.16,353.64 1162.13,352.702 1169.1,351.768 1176.07,350.837 
  1183.04,349.911 1190.01,348.988 1196.99,348.069 1203.96,347.155 1210.93,346.245 1217.9,345.34 1224.87,344.439 1231.84,343.544 1238.81,342.653 1245.78,341.767 
  1252.76,340.887 
  "/>
<polyline clip-path="url(#clip932)" style="stroke:#2000d4; stroke-linecap:butt; stroke-linejoin:round; stroke-width:16; stroke-opacity:1; fill:none" stroke-dasharray="8, 16" points="
  207.066,487.84 214.037,487.84 221.008,487.84 227.98,487.84 234.951,487.84 241.922,487.84 248.893,487.84 255.865,487.84 262.836,487.84 269.807,487.84 
  276.778,487.839 283.75,487.839 290.721,487.839 297.692,487.839 304.663,487.839 311.635,487.839 318.606,487.839 325.577,487.839 332.549,487.839 339.52,487.839 
  346.491,487.839 353.462,487.838 360.434,487.838 367.405,487.838 374.376,487.837 381.347,487.837 388.319,487.836 395.29,487.836 402.261,487.835 409.233,487.834 
  416.204,487.833 423.175,487.832 430.146,487.831 437.118,487.83 444.089,487.829 451.06,487.828 458.031,487.827 465.003,487.826 471.974,487.825 478.945,487.824 
  485.916,487.823 492.888,487.822 499.859,487.821 506.83,487.82 513.802,487.819 520.773,487.819 527.744,487.818 534.715,487.817 541.687,487.816 548.658,487.816 
  555.629,487.815 562.6,487.814 569.572,487.814 576.543,487.813 583.514,487.813 590.485,487.812 597.457,487.811 604.428,487.811 611.399,487.81 618.371,487.81 
  625.342,487.809 632.313,487.808 639.284,487.808 646.256,487.807 653.227,487.807 660.198,487.806 667.169,487.805 674.141,487.805 681.112,487.804 688.083,487.804 
  695.054,487.803 702.026,487.802 708.997,487.802 715.968,487.801 722.94,487.801 729.911,487.8 736.882,487.799 743.853,487.799 750.825,487.798 757.796,487.798 
  764.767,487.797 771.738,487.796 778.71,487.796 785.681,487.795 792.652,487.795 799.623,487.794 806.595,487.793 813.566,487.793 820.537,487.792 827.509,487.792 
  834.48,487.791 841.451,487.79 848.422,487.79 855.394,487.789 862.365,487.789 869.336,487.788 876.307,487.787 883.279,487.787 890.25,487.786 897.221,487.786 
  904.193,487.785 911.164,487.785 918.135,487.784 925.106,487.783 932.078,487.783 939.049,487.782 946.02,487.782 952.991,487.781 959.963,487.781 966.934,487.78 
  973.905,487.78 980.876,487.779 987.848,487.779 994.819,487.778 1001.79,487.778 1008.76,487.777 1015.73,487.777 1022.7,487.776 1029.68,487.776 1036.65,487.775 
  1043.62,487.775 1050.59,487.774 1057.56,487.774 1064.53,487.773 1071.5,487.773 1078.47,487.772 1085.45,487.772 1092.42,487.771 1099.39,487.771 1106.36,487.771 
  1113.33,487.77 1120.3,487.77 1127.27,487.769 1134.24,487.769 1141.22,487.769 1148.19,487.768 1155.16,487.768 1162.13,487.768 1169.1,487.767 1176.07,487.767 
  1183.04,487.767 1190.01,487.766 1196.99,487.766 1203.96,487.766 1210.93,487.765 1217.9,487.765 1224.87,487.765 1231.84,487.765 1238.81,487.764 1245.78,487.764 
  1252.76,487.764 
  "/>
<polyline clip-path="url(#clip932)" style="stroke:#008900; stroke-linecap:butt; stroke-linejoin:round; stroke-width:16; stroke-opacity:1; fill:none" stroke-dasharray="64, 40" points="
  207.066,487.84 214.037,487.839 221.008,487.839 227.98,487.839 234.951,487.839 241.922,487.839 248.893,487.839 255.865,487.838 262.836,487.838 269.807,487.838 
  276.778,487.837 283.75,487.836 290.721,487.836 297.692,487.835 304.663,487.834 311.635,487.832 318.606,487.831 325.577,487.829 332.549,487.826 339.52,487.823 
  346.491,487.82 353.462,487.816 360.434,487.811 367.405,487.805 374.376,487.797 381.347,487.789 388.319,487.779 395.29,487.768 402.261,487.754 409.233,487.739 
  416.204,487.722 423.175,487.703 430.146,487.682 437.118,487.658 444.089,487.633 451.06,487.605 458.031,487.574 465.003,487.542 471.974,487.506 478.945,487.467 
  485.916,487.425 492.888,487.379 499.859,487.329 506.83,487.274 513.802,487.215 520.773,487.151 527.744,487.082 534.715,487.011 541.687,486.936 548.658,486.86 
  555.629,486.783 562.6,486.707 569.572,486.633 576.543,486.562 583.514,486.495 590.485,486.432 597.457,486.373 604.428,486.319 611.399,486.269 618.371,486.222 
  625.342,486.18 632.313,486.14 639.284,486.104 646.256,486.07 653.227,486.038 660.198,486.009 667.169,485.981 674.141,485.955 681.112,485.931 688.083,485.908 
  695.054,485.886 702.026,485.865 708.997,485.846 715.968,485.827 722.94,485.81 729.911,485.793 736.882,485.777 743.853,485.762 750.825,485.748 757.796,485.734 
  764.767,485.721 771.738,485.709 778.71,485.697 785.681,485.685 792.652,485.674 799.623,485.664 806.595,485.654 813.566,485.644 820.537,485.635 827.509,485.626 
  834.48,485.617 841.451,485.608 848.422,485.6 855.394,485.593 862.365,485.585 869.336,485.578 876.307,485.571 883.279,485.564 890.25,485.557 897.221,485.551 
  904.193,485.544 911.164,485.538 918.135,485.532 925.106,485.527 932.078,485.521 939.049,485.516 946.02,485.51 952.991,485.505 959.963,485.5 966.934,485.495 
  973.905,485.49 980.876,485.485 987.848,485.481 994.819,485.476 1001.79,485.471 1008.76,485.467 1015.73,485.463 1022.7,485.458 1029.68,485.454 1036.65,485.45 
  1043.62,485.446 1050.59,485.442 1057.56,485.438 1064.53,485.434 1071.5,485.431 1078.47,485.427 1085.45,485.423 1092.42,485.419 1099.39,485.416 1106.36,485.412 
  1113.33,485.409 1120.3,485.405 1127.27,485.402 1134.24,485.398 1141.22,485.395 1148.19,485.392 1155.16,485.388 1162.13,485.385 1169.1,485.382 1176.07,485.379 
  1183.04,485.375 1190.01,485.372 1196.99,485.369 1203.96,485.366 1210.93,485.363 1217.9,485.36 1224.87,485.357 1231.84,485.354 1238.81,485.351 1245.78,485.348 
  1252.76,485.345 
  "/>
<polyline clip-path="url(#clip932)" style="stroke:#008900; stroke-linecap:butt; stroke-linejoin:round; stroke-width:16; stroke-opacity:1; fill:none" stroke-dasharray="8, 16" points="
  207.066,487.84 214.037,487.839 221.008,487.839 227.98,487.839 234.951,487.839 241.922,487.839 248.893,487.839 255.865,487.839 262.836,487.839 269.807,487.839 
  276.778,487.838 283.75,487.838 290.721,487.838 297.692,487.837 304.663,487.837 311.635,487.836 318.606,487.835 325.577,487.834 332.549,487.833 339.52,487.832 
  346.491,487.83 353.462,487.828 360.434,487.826 367.405,487.823 374.376,487.82 381.347,487.816 388.319,487.812 395.29,487.807 402.261,487.801 409.233,487.795 
  416.204,487.788 423.175,487.78 430.146,487.771 437.118,487.762 444.089,487.753 451.06,487.743 458.031,487.733 465.003,487.723 471.974,487.713 478.945,487.703 
  485.916,487.692 492.888,487.682 499.859,487.672 506.83,487.661 513.802,487.651 520.773,487.64 527.744,487.63 534.715,487.619 541.687,487.608 548.658,487.598 
  555.629,487.588 562.6,487.578 569.572,487.569 576.543,487.56 583.514,487.552 590.485,487.545 597.457,487.537 604.428,487.531 611.399,487.525 618.371,487.519 
  625.342,487.513 632.313,487.508 639.284,487.504 646.256,487.499 653.227,487.495 660.198,487.491 667.169,487.488 674.141,487.484 681.112,487.481 688.083,487.478 
  695.054,487.475 702.026,487.473 708.997,487.47 715.968,487.468 722.94,487.465 729.911,487.463 736.882,487.461 743.853,487.459 750.825,487.457 757.796,487.456 
  764.767,487.454 771.738,487.452 778.71,487.451 785.681,487.449 792.652,487.448 799.623,487.447 806.595,487.445 813.566,487.444 820.537,487.443 827.509,487.442 
  834.48,487.44 841.451,487.439 848.422,487.438 855.394,487.437 862.365,487.436 869.336,487.435 876.307,487.434 883.279,487.434 890.25,487.433 897.221,487.432 
  904.193,487.431 911.164,487.43 918.135,487.429 925.106,487.429 932.078,487.428 939.049,487.427 946.02,487.426 952.991,487.426 959.963,487.425 966.934,487.424 
  973.905,487.424 980.876,487.423 987.848,487.422 994.819,487.422 1001.79,487.421 1008.76,487.42 1015.73,487.42 1022.7,487.419 1029.68,487.419 1036.65,487.418 
  1043.62,487.417 1050.59,487.417 1057.56,487.416 1064.53,487.416 1071.5,487.415 1078.47,487.415 1085.45,487.414 1092.42,487.414 1099.39,487.413 1106.36,487.413 
  1113.33,487.412 1120.3,487.412 1127.27,487.411 1134.24,487.411 1141.22,487.41 1148.19,487.41 1155.16,487.409 1162.13,487.409 1169.1,487.408 1176.07,487.408 
  1183.04,487.407 1190.01,487.407 1196.99,487.406 1203.96,487.406 1210.93,487.405 1217.9,487.405 1224.87,487.405 1231.84,487.404 1238.81,487.404 1245.78,487.403 
  1252.76,487.403 
  "/>
<polyline clip-path="url(#clip932)" style="stroke:#2000d4; stroke-linecap:butt; stroke-linejoin:round; stroke-width:16; stroke-opacity:1; fill:none" points="
  207.066,487.412 214.037,487.085 221.008,486.879 227.98,486.627 234.951,486.32 241.922,485.944 248.893,485.486 255.865,484.927 262.836,484.246 269.807,483.415 
  276.778,482.404 283.75,481.173 290.721,479.678 297.692,477.863 304.663,475.666 311.635,473.011 318.606,469.812 325.577,465.97 332.549,461.374 339.52,455.902 
  346.491,449.425 353.462,441.807 360.434,432.921 367.405,422.648 374.376,410.899 381.347,397.625 388.319,382.831 395.29,366.595 402.261,349.074 409.233,330.506 
  416.204,311.204 423.175,291.537 430.146,271.904 437.118,252.703 444.089,234.301 451.06,217.004 458.031,201.046 465.003,186.579 471.974,173.676 478.945,162.343 
  485.916,152.533 492.888,144.157 499.859,137.106 506.83,131.256 513.802,126.481 520.773,122.656 527.744,119.665 534.715,117.399 541.687,115.759 548.658,114.652 
  555.629,113.997 562.6,113.719 569.572,113.75 576.543,114.031 583.514,114.51 590.485,115.144 597.457,115.897 604.428,116.742 611.399,117.654 618.371,118.619 
  625.342,119.624 632.313,120.661 639.284,121.722 646.256,122.805 653.227,123.907 660.198,125.026 667.169,126.16 674.141,127.31 681.112,128.475 688.083,129.655 
  695.054,130.85 702.026,132.06 708.997,133.285 715.968,134.525 722.94,135.78 729.911,137.051 736.882,138.337 743.853,139.639 750.825,140.957 757.796,142.29 
  764.767,143.64 771.738,145.005 778.71,146.387 785.681,147.785 792.652,149.199 799.623,150.629 806.595,152.075 813.566,153.538 820.537,155.017 827.509,156.512 
  834.48,158.024 841.451,159.552 848.422,161.096 855.394,162.656 862.365,164.233 869.336,165.826 876.307,167.434 883.279,169.059 890.25,170.7 897.221,172.356 
  904.193,174.028 911.164,175.716 918.135,177.419 925.106,179.138 932.078,180.872 939.049,182.621 946.02,184.385 952.991,186.164 959.963,187.957 966.934,189.765 
  973.905,191.587 980.876,193.423 987.848,195.273 994.819,197.137 1001.79,199.014 1008.76,200.904 1015.73,202.807 1022.7,204.723 1029.68,206.651 1036.65,208.592 
  1043.62,210.544 1050.59,212.508 1057.56,214.483 1064.53,216.469 1071.5,218.466 1078.47,220.474 1085.45,222.491 1092.42,224.518 1099.39,226.555 1106.36,228.6 
  1113.33,230.654 1120.3,232.717 1127.27,234.787 1134.24,236.865 1141.22,238.951 1148.19,241.043 1155.16,243.141 1162.13,245.246 1169.1,247.356 1176.07,249.472 
  1183.04,251.592 1190.01,253.717 1196.99,255.846 1203.96,257.978 1210.93,260.114 1217.9,262.252 1224.87,264.393 1231.84,266.536 1238.81,268.68 1245.78,270.825 
  1252.76,272.97 
  "/>
<polyline clip-path="url(#clip932)" style="stroke:#008900; stroke-linecap:butt; stroke-linejoin:round; stroke-width:16; stroke-opacity:1; fill:none" points="
  207.066,487.626 214.037,487.482 221.008,487.401 227.98,487.297 234.951,487.17 241.922,487.015 248.893,486.826 255.865,486.594 262.836,486.312 269.807,485.967 
  276.778,485.548 283.75,485.038 290.721,484.417 297.692,483.664 304.663,482.752 311.635,481.649 318.606,480.319 325.577,478.72 332.549,476.806 339.52,474.525 
  346.491,471.82 353.462,468.635 360.434,464.911 367.405,460.595 374.376,455.642 381.347,450.024 388.319,443.73 395.29,436.778 402.261,429.212 409.233,421.107 
  416.204,412.565 423.175,403.704 430.146,394.652 437.118,385.528 444.089,376.437 451.06,367.452 458.031,358.615 465.003,349.931 471.974,341.373 478.945,332.889 
  485.916,324.412 492.888,315.868 499.859,307.194 506.83,298.34 513.802,289.284 520.773,280.031 527.744,270.623 534.715,261.127 541.687,251.636 548.658,242.256 
  555.629,233.095 562.6,224.252 569.572,215.81 576.543,207.826 583.514,200.337 590.485,193.353 597.457,186.869 604.428,180.866 611.399,175.316 618.371,170.187 
  625.342,165.446 632.313,161.06 639.284,156.999 646.256,153.236 653.227,149.744 660.198,146.499 667.169,143.482 674.141,140.674 681.112,138.057 688.083,135.615 
  695.054,133.336 702.026,131.206 708.997,129.215 715.968,127.351 722.94,125.605 729.911,123.968 736.882,122.432 743.853,120.991 750.825,119.636 757.796,118.363 
  764.767,117.166 771.738,116.039 778.71,114.977 785.681,113.976 792.652,113.033 799.623,112.143 806.595,111.302 813.566,110.508 820.537,109.758 827.509,109.048 
  834.48,108.377 841.451,107.741 848.422,107.14 855.394,106.569 862.365,106.029 869.336,105.516 876.307,105.03 883.279,104.569 890.25,104.131 897.221,103.714 
  904.193,103.319 911.164,102.943 918.135,102.586 925.106,102.246 932.078,101.922 939.049,101.614 946.02,101.321 952.991,101.042 959.963,100.776 966.934,100.523 
  973.905,100.281 980.876,100.051 987.848,99.832 994.819,99.6228 1001.79,99.4234 1008.76,99.2331 1015.73,99.0516 1022.7,98.8784 1029.68,98.7131 1036.65,98.5554 
  1043.62,98.405 1050.59,98.2614 1057.56,98.1243 1064.53,97.9935 1071.5,97.8687 1078.47,97.7495 1085.45,97.6359 1092.42,97.5274 1099.39,97.4239 1106.36,97.3252 
  1113.33,97.231 1120.3,97.1412 1127.27,97.0556 1134.24,96.9739 1141.22,96.8962 1148.19,96.8221 1155.16,96.7515 1162.13,96.6843 1169.1,96.6204 1176.07,96.5596 
  1183.04,96.5018 1190.01,96.4469 1196.99,96.3947 1203.96,96.3452 1210.93,96.2983 1217.9,96.2538 1224.87,96.2117 1231.84,96.1719 1238.81,96.1343 1245.78,96.0988 
  1252.76,96.0653 
  "/>
<polyline clip-path="url(#clip932)" style="stroke:#7f7f7f; stroke-linecap:butt; stroke-linejoin:round; stroke-width:16; stroke-opacity:1; fill:none" points="
  207.066,60.077 214.037,71.0592 221.008,79.8023 227.98,88.2976 234.951,94.9706 241.922,100.295 248.893,104.52 255.865,107.894 262.836,110.608 269.807,112.809 
  276.778,114.613 283.75,116.112 290.721,117.379 297.692,118.476 304.663,119.454 311.635,120.357 318.606,121.226 325.577,122.097 332.549,123.006 339.52,123.992 
  346.491,125.091 353.462,126.346 360.434,127.801 367.405,129.508 374.376,131.521 381.347,133.903 388.319,136.722 395.29,140.051 402.261,143.966 409.233,148.546 
  416.204,153.864 423.175,159.987 430.146,166.966 437.118,174.827 444.089,183.571 451.06,193.16 458.031,203.516 465.003,214.524 471.974,226.034 478.945,237.87 
  485.916,249.841 492.888,261.76 499.859,273.452 506.83,284.77 513.802,295.604 520.773,305.881 527.744,315.572 534.715,324.681 541.687,333.242 548.658,341.308 
  555.629,348.94 562.6,356.2 569.572,363.138 576.543,369.794 583.514,376.189 590.485,382.334 597.457,388.228 604.428,393.864 611.399,399.234 618.371,404.332 
  625.342,409.154 632.313,413.701 639.284,417.976 646.256,421.988 653.227,425.745 660.198,429.259 667.169,432.543 674.141,435.609 681.112,438.471 688.083,441.142 
  695.054,443.634 702.026,445.959 708.997,448.13 715.968,450.156 722.94,452.048 729.911,453.816 736.882,455.469 743.853,457.014 750.825,458.46 757.796,459.814 
  764.767,461.082 771.738,462.271 778.71,463.386 785.681,464.433 792.652,465.416 799.623,466.34 806.595,467.209 813.566,468.027 820.537,468.797 827.509,469.523 
  834.48,470.207 841.451,470.854 848.422,471.464 855.394,472.041 862.365,472.586 869.336,473.102 876.307,473.591 883.279,474.055 890.25,474.494 897.221,474.911 
  904.193,475.307 911.164,475.683 918.135,476.041 925.106,476.381 932.078,476.705 939.049,477.014 946.02,477.308 952.991,477.588 959.963,477.856 966.934,478.112 
  973.905,478.356 980.876,478.59 987.848,478.813 994.819,479.027 1001.79,479.232 1008.76,479.428 1015.73,479.617 1022.7,479.797 1029.68,479.971 1036.65,480.137 
  1043.62,480.297 1050.59,480.451 1057.56,480.599 1064.53,480.741 1071.5,480.878 1078.47,481.01 1085.45,481.138 1092.42,481.26 1099.39,481.379 1106.36,481.493 
  1113.33,481.603 1120.3,481.71 1127.27,481.813 1134.24,481.913 1141.22,482.009 1148.19,482.103 1155.16,482.193 1162.13,482.281 1169.1,482.366 1176.07,482.448 
  1183.04,482.528 1190.01,482.606 1196.99,482.681 1203.96,482.754 1210.93,482.825 1217.9,482.894 1224.87,482.962 1231.84,483.027 1238.81,483.091 1245.78,483.153 
  1252.76,483.213 
  "/>
<polyline clip-path="url(#clip932)" style="stroke:#895f55; stroke-linecap:butt; stroke-linejoin:round; stroke-width:16; stroke-opacity:1; fill:none" points="
  214.037,487.416 221.008,487.111 227.98,486.911 234.951,486.667 241.922,486.366 248.893,485.999 255.865,485.552 262.836,485.005 269.807,484.339 276.778,483.527 
  283.75,482.539 290.721,481.336 297.692,479.875 304.663,478.102 311.635,475.954 318.606,473.36 325.577,470.234 332.549,466.48 339.52,461.989 346.491,456.642 
  353.462,450.312 360.434,442.87 367.405,434.187 374.376,424.151 381.347,412.673 388.319,399.706 395.29,385.256 402.261,369.401 409.233,352.292 416.204,334.165 
  423.175,315.328 430.146,296.141 437.118,276.998 444.089,258.29 451.06,240.376 458.031,223.561 465.003,208.075 471.974,194.071 478.945,181.625 485.916,170.747 
  492.888,161.394 499.859,153.486 506.83,146.918 513.802,141.571 520.773,137.323 527.744,134.051 534.715,131.635 541.687,129.962 548.658,128.921 555.629,128.411 
  562.6,128.334 569.572,128.602 576.543,129.135 583.514,129.864 590.485,130.731 597.457,131.689 604.428,132.705 611.399,133.752 618.371,134.816 625.342,135.885 
  632.313,136.956 639.284,138.026 646.256,139.096 653.227,140.166 660.198,141.24 667.169,142.319 674.141,143.405 681.112,144.499 688.083,145.603 695.054,146.718 
  702.026,147.844 708.997,148.984 715.968,150.136 722.94,151.303 729.911,152.483 736.882,153.677 743.853,154.886 750.825,156.11 757.796,157.348 764.767,158.601 
  771.738,159.87 778.71,161.153 785.681,162.452 792.652,163.765 799.623,165.095 806.595,166.439 813.566,167.799 820.537,169.174 827.509,170.564 834.48,171.97 
  841.451,173.391 848.422,174.828 855.394,176.28 862.365,177.747 869.336,179.229 876.307,180.727 883.279,182.24 890.25,183.767 897.221,185.31 904.193,186.868 
  911.164,188.44 918.135,190.027 925.106,191.629 932.078,193.245 939.049,194.876 946.02,196.521 952.991,198.18 959.963,199.852 966.934,201.539 973.905,203.239 
  980.876,204.953 987.848,206.68 994.819,208.419 1001.79,210.172 1008.76,211.937 1015.73,213.715 1022.7,215.505 1029.68,217.307 1036.65,219.12 1043.62,220.945 
  1050.59,222.781 1057.56,224.628 1064.53,226.486 1071.5,228.354 1078.47,230.232 1085.45,232.12 1092.42,234.018 1099.39,235.924 1106.36,237.84 1113.33,239.763 
  1120.3,241.695 1127.27,243.635 1134.24,245.583 1141.22,247.537 1148.19,249.498 1155.16,251.466 1162.13,253.44 1169.1,255.419 1176.07,257.404 1183.04,259.394 
  1190.01,261.388 1196.99,263.387 1203.96,265.389 1210.93,267.394 1217.9,269.403 1224.87,271.414 1231.84,273.428 1238.81,275.443 1245.78,277.459 1252.76,279.477 
  
  "/>
<polyline clip-path="url(#clip932)" style="stroke:#2000d4; stroke-linecap:butt; stroke-linejoin:round; stroke-width:16; stroke-opacity:1; fill:none" stroke-dasharray="64, 40" points="
  207.066,487.84 214.037,487.84 221.008,487.84 227.98,487.84 234.951,487.84 241.922,487.84 248.893,487.84 255.865,487.84 262.836,487.84 269.807,487.84 
  276.778,487.84 283.75,487.84 290.721,487.839 297.692,487.839 304.663,487.839 311.635,487.839 318.606,487.839 325.577,487.839 332.549,487.839 339.52,487.839 
  346.491,487.839 353.462,487.839 360.434,487.839 367.405,487.839 374.376,487.839 381.347,487.839 388.319,487.839 395.29,487.839 402.261,487.839 409.233,487.838 
  416.204,487.838 423.175,487.838 430.146,487.838 437.118,487.838 444.089,487.838 451.06,487.838 458.031,487.837 465.003,487.837 471.974,487.837 478.945,487.837 
  485.916,487.837 492.888,487.837 499.859,487.837 506.83,487.836 513.802,487.836 520.773,487.836 527.744,487.836 534.715,487.835 541.687,487.835 548.658,487.835 
  555.629,487.835 562.6,487.834 569.572,487.834 576.543,487.833 583.514,487.833 590.485,487.832 597.457,487.832 604.428,487.831 611.399,487.831 618.371,487.83 
  625.342,487.83 632.313,487.829 639.284,487.829 646.256,487.828 653.227,487.828 660.198,487.827 667.169,487.826 674.141,487.826 681.112,487.825 688.083,487.825 
  695.054,487.824 702.026,487.823 708.997,487.823 715.968,487.822 722.94,487.822 729.911,487.821 736.882,487.82 743.853,487.82 750.825,487.819 757.796,487.818 
  764.767,487.817 771.738,487.817 778.71,487.816 785.681,487.815 792.652,487.815 799.623,487.814 806.595,487.813 813.566,487.812 820.537,487.811 827.509,487.811 
  834.48,487.81 841.451,487.809 848.422,487.808 855.394,487.808 862.365,487.807 869.336,487.806 876.307,487.805 883.279,487.804 890.25,487.803 897.221,487.802 
  904.193,487.802 911.164,487.801 918.135,487.8 925.106,487.799 932.078,487.798 939.049,487.797 946.02,487.796 952.991,487.795 959.963,487.794 966.934,487.793 
  973.905,487.792 980.876,487.791 987.848,487.79 994.819,487.79 1001.79,487.789 1008.76,487.788 1015.73,487.787 1022.7,487.786 1029.68,487.785 1036.65,487.784 
  1043.62,487.783 1050.59,487.781 1057.56,487.78 1064.53,487.779 1071.5,487.778 1078.47,487.777 1085.45,487.776 1092.42,487.775 1099.39,487.774 1106.36,487.773 
  1113.33,487.772 1120.3,487.771 1127.27,487.77 1134.24,487.769 1141.22,487.768 1148.19,487.767 1155.16,487.765 1162.13,487.764 1169.1,487.763 1176.07,487.762 
  1183.04,487.761 1190.01,487.76 1196.99,487.759 1203.96,487.758 1210.93,487.757 1217.9,487.756 1224.87,487.754 1231.84,487.753 1238.81,487.752 1245.78,487.751 
  1252.76,487.75 
  "/>
<polyline clip-path="url(#clip932)" style="stroke:#ff221c; stroke-linecap:butt; stroke-linejoin:round; stroke-width:16; stroke-opacity:1; fill:none" points="
  207.066,231.268 214.037,231.183 221.008,231.18 227.98,231.177 234.951,231.173 241.922,231.168 248.893,231.16 255.865,231.15 262.836,231.137 269.807,231.12 
  276.778,231.099 283.75,231.072 290.721,231.039 297.692,230.998 304.663,230.947 311.635,230.883 318.606,230.805 325.577,230.709 332.549,230.592 339.52,230.447 
  346.491,230.27 353.462,230.053 360.434,229.789 367.405,229.466 374.376,229.073 381.347,228.594 388.319,228.013 395.29,227.309 402.261,226.457 409.233,225.429 
  416.204,224.191 423.175,222.706 430.146,220.929 437.118,218.811 444.089,216.297 451.06,213.326 458.031,209.836 465.003,205.761 471.974,201.039 478.945,195.614 
  485.916,189.446 492.888,182.516 499.859,174.838 506.83,166.464 513.802,157.495 520.773,148.076 527.744,138.401 534.715,128.693 541.687,119.193 548.658,110.135 
  555.629,101.727 562.6,94.1269 569.572,87.4364 576.543,81.6951 583.514,76.887 590.485,72.9518 597.457,69.799 604.428,67.3222 611.399,65.4112 618.371,63.9606 
  625.342,62.8757 632.313,62.0751 639.284,61.4914 646.256,61.0704 653.227,60.7699 660.198,60.5571 667.169,60.4078 674.141,60.3036 681.112,60.2316 688.083,60.1819 
  695.054,60.1479 702.026,60.1248 708.997,60.1091 715.968,60.0985 722.94,60.0913 729.911,60.0865 736.882,60.0833 743.853,60.0812 750.825,60.0798 757.796,60.0788 
  764.767,60.0782 771.738,60.0778 778.71,60.0775 785.681,60.0773 792.652,60.0772 799.623,60.0771 806.595,60.0771 813.566,60.077 820.537,60.077 827.509,60.077 
  834.48,60.077 841.451,60.077 848.422,60.077 855.394,60.077 862.365,60.077 869.336,60.077 876.307,60.077 883.279,60.077 890.25,60.077 897.221,60.077 
  904.193,60.077 911.164,60.077 918.135,60.077 925.106,60.077 932.078,60.077 939.049,60.077 946.02,60.077 952.991,60.077 959.963,60.077 966.934,60.077 
  973.905,60.077 980.876,60.077 987.848,60.077 994.819,60.077 1001.79,60.077 1008.76,60.077 1015.73,60.077 1022.7,60.077 1029.68,60.077 1036.65,60.077 
  1043.62,60.077 1050.59,60.077 1057.56,60.077 1064.53,60.077 1071.5,60.077 1078.47,60.077 1085.45,60.077 1092.42,60.077 1099.39,60.077 1106.36,60.077 
  1113.33,60.077 1120.3,60.077 1127.27,60.077 1134.24,60.077 1141.22,60.077 1148.19,60.077 1155.16,60.077 1162.13,60.077 1169.1,60.077 1176.07,60.077 
  1183.04,60.077 1190.01,60.077 1196.99,60.077 1203.96,60.077 1210.93,60.077 1217.9,60.077 1224.87,60.077 1231.84,60.077 1238.81,60.077 1245.78,60.077 
  1252.76,60.077 
  "/>
<polyline clip-path="url(#clip932)" style="stroke:#000000; stroke-linecap:butt; stroke-linejoin:round; stroke-width:16; stroke-opacity:1; fill:none" stroke-dasharray="8, 16" points="
  207.066,60.077 214.037,60.5005 221.008,60.8758 227.98,61.1381 234.951,61.4266 241.922,61.775 248.893,62.1998 255.865,62.7182 262.836,63.3507 269.807,64.1219 
  276.778,65.0618 283.75,66.2064 290.721,67.5988 297.692,69.2905 304.663,71.343 311.635,73.8286 318.606,76.8317 325.577,80.4503 332.549,84.7961 339.52,89.9946 
  346.491,96.1833 353.462,103.509 360.434,112.123 367.405,122.172 374.376,133.786 381.347,147.067 388.319,162.071 395.29,178.787 402.261,197.127 409.233,216.912 
  416.204,237.868 423.175,259.64 430.146,281.805 437.118,303.909 444.089,325.496 451.06,346.149 458.031,365.517 465.003,383.333 471.974,399.425 478.945,413.711 
  485.916,426.188 492.888,436.92 499.859,446.017 506.83,453.623 513.802,459.901 520.773,465.021 527.744,469.148 534.715,472.443 541.687,475.049 548.658,477.095 
  555.629,478.69 562.6,479.926 569.572,480.877 576.543,481.603 583.514,482.15 590.485,482.552 597.457,482.838 604.428,483.026 611.399,483.13 618.371,483.16 
  625.342,483.122 632.313,483.018 639.284,482.849 646.256,482.613 653.227,482.306 660.198,481.923 667.169,481.456 674.141,480.897 681.112,480.235 688.083,479.462 
  695.054,478.567 702.026,477.54 708.997,476.376 715.968,475.069 722.94,473.622 729.911,472.037 736.882,470.328 743.853,468.509 750.825,466.6 757.796,464.624 
  764.767,462.605 771.738,460.563 778.71,458.517 785.681,456.482 792.652,454.466 799.623,452.475 806.595,450.51 813.566,448.571 820.537,446.653 827.509,444.753 
  834.48,442.867 841.451,440.988 848.422,439.114 855.394,437.239 862.365,435.362 869.336,433.479 876.307,431.588 883.279,429.687 890.25,427.776 897.221,425.852 
  904.193,423.916 911.164,421.966 918.135,420.002 925.106,418.024 932.078,416.031 939.049,414.024 946.02,412.003 952.991,409.966 959.963,407.915 966.934,405.849 
  973.905,403.768 980.876,401.673 987.848,399.564 994.819,397.44 1001.79,395.301 1008.76,393.149 1015.73,390.983 1022.7,388.804 1029.68,386.611 1036.65,384.405 
  1043.62,382.185 1050.59,379.954 1057.56,377.71 1064.53,375.454 1071.5,373.186 1078.47,370.906 1085.45,368.616 1092.42,366.315 1099.39,364.003 1106.36,361.681 
  1113.33,359.349 1120.3,357.009 1127.27,354.659 1134.24,352.3 1141.22,349.934 1148.19,347.559 1155.16,345.178 1162.13,342.789 1169.1,340.394 1176.07,337.993 
  1183.04,335.586 1190.01,333.174 1196.99,330.757 1203.96,328.336 1210.93,325.912 1217.9,323.484 1224.87,321.053 1231.84,318.619 1238.81,316.184 1245.78,313.748 
  1252.76,311.31 
  "/>
</svg>
