<?xml version="1.0" encoding="utf-8"?>
<svg xmlns="http://www.w3.org/2000/svg" xmlns:xlink="http://www.w3.org/1999/xlink" width="325" height="150" viewBox="0 0 1300 600">
<defs>
  <clipPath id="clip520">
    <rect x="0" y="0" width="1300" height="600"/>
  </clipPath>
</defs>
<path clip-path="url(#clip520)" d="
M0 600 L1300 600 L1300 0 L0 0  Z
  " fill="#ffffff" fill-rule="evenodd" fill-opacity="1"/>
<defs>
  <clipPath id="clip521">
    <rect x="260" y="0" width="911" height="600"/>
  </clipPath>
</defs>
<path clip-path="url(#clip520)" d="
M200.094 501.1 L1252.76 501.1 L1252.76 47.2441 L200.094 47.2441  Z
  " fill="#ffffff" fill-rule="evenodd" fill-opacity="1"/>
<defs>
  <clipPath id="clip522">
    <rect x="200" y="47" width="1054" height="455"/>
  </clipPath>
</defs>
<polyline clip-path="url(#clip520)" style="stroke:#000000; stroke-linecap:butt; stroke-linejoin:round; stroke-width:4; stroke-opacity:1; fill:none" points="
  200.094,501.1 1252.76,501.1 
  "/>
<polyline clip-path="url(#clip520)" style="stroke:#000000; stroke-linecap:butt; stroke-linejoin:round; stroke-width:4; stroke-opacity:1; fill:none" points="
  200.094,501.1 200.094,482.203 
  "/>
<polyline clip-path="url(#clip520)" style="stroke:#000000; stroke-linecap:butt; stroke-linejoin:round; stroke-width:4; stroke-opacity:1; fill:none" points="
  548.658,501.1 548.658,482.203 
  "/>
<polyline clip-path="url(#clip520)" style="stroke:#000000; stroke-linecap:butt; stroke-linejoin:round; stroke-width:4; stroke-opacity:1; fill:none" points="
  897.221,501.1 897.221,482.203 
  "/>
<polyline clip-path="url(#clip520)" style="stroke:#000000; stroke-linecap:butt; stroke-linejoin:round; stroke-width:4; stroke-opacity:1; fill:none" points="
  1245.78,501.1 1245.78,482.203 
  "/>
<path clip-path="url(#clip520)" d="M200.094 526.149 Q195.581 526.149 193.295 530.605 Q191.038 535.032 191.038 543.944 Q191.038 552.827 193.295 557.283 Q195.581 561.71 200.094 561.71 Q204.637 561.71 206.894 557.283 Q209.18 552.827 209.18 543.944 Q209.18 535.032 206.894 530.605 Q204.637 526.149 200.094 526.149 M200.094 521.519 Q207.357 521.519 211.177 527.277 Q215.025 533.006 215.025 543.944 Q215.025 554.852 211.177 560.61 Q207.357 566.339 200.094 566.339 Q192.832 566.339 188.983 560.61 Q185.164 554.852 185.164 543.944 Q185.164 533.006 188.983 527.277 Q192.832 521.519 200.094 521.519 Z" fill="#000000" fill-rule="evenodd" fill-opacity="1" /><path clip-path="url(#clip520)" d="M517.032 522.3 L539.977 522.3 L539.977 527.219 L522.385 527.219 L522.385 537.809 Q523.658 537.375 524.931 537.173 Q526.204 536.941 527.477 536.941 Q534.711 536.941 538.936 540.905 Q543.16 544.87 543.16 551.64 Q543.16 558.614 538.82 562.491 Q534.48 566.339 526.58 566.339 Q523.861 566.339 521.025 565.876 Q518.218 565.413 515.209 564.487 L515.209 558.614 Q517.813 560.031 520.591 560.726 Q523.369 561.42 526.465 561.42 Q531.47 561.42 534.393 558.787 Q537.315 556.154 537.315 551.64 Q537.315 547.126 534.393 544.493 Q531.47 541.86 526.465 541.86 Q524.121 541.86 521.777 542.381 Q519.462 542.902 517.032 544.001 L517.032 522.3 Z" fill="#000000" fill-rule="evenodd" fill-opacity="1" /><path clip-path="url(#clip520)" d="M567.176 526.149 Q562.662 526.149 560.377 530.605 Q558.12 535.032 558.12 543.944 Q558.12 552.827 560.377 557.283 Q562.662 561.71 567.176 561.71 Q571.719 561.71 573.976 557.283 Q576.262 552.827 576.262 543.944 Q576.262 535.032 573.976 530.605 Q571.719 526.149 567.176 526.149 M567.176 521.519 Q574.439 521.519 578.258 527.277 Q582.107 533.006 582.107 543.944 Q582.107 554.852 578.258 560.61 Q574.439 566.339 567.176 566.339 Q559.914 566.339 556.065 560.61 Q552.246 554.852 552.246 543.944 Q552.246 533.006 556.065 527.277 Q559.914 521.519 567.176 521.519 Z" fill="#000000" fill-rule="evenodd" fill-opacity="1" /><path clip-path="url(#clip520)" d="M846.73 560.581 L856.278 560.581 L856.278 527.624 L845.891 529.708 L845.891 524.384 L856.22 522.3 L862.065 522.3 L862.065 560.581 L871.614 560.581 L871.614 565.5 L846.73 565.5 L846.73 560.581 Z" fill="#000000" fill-rule="evenodd" fill-opacity="1" /><path clip-path="url(#clip520)" d="M895.919 526.149 Q891.405 526.149 889.119 530.605 Q886.863 535.032 886.863 543.944 Q886.863 552.827 889.119 557.283 Q891.405 561.71 895.919 561.71 Q900.462 561.71 902.719 557.283 Q905.005 552.827 905.005 543.944 Q905.005 535.032 902.719 530.605 Q900.462 526.149 895.919 526.149 M895.919 521.519 Q903.182 521.519 907.001 527.277 Q910.85 533.006 910.85 543.944 Q910.85 554.852 907.001 560.61 Q903.182 566.339 895.919 566.339 Q888.656 566.339 884.808 560.61 Q880.989 554.852 880.989 543.944 Q880.989 533.006 884.808 527.277 Q888.656 521.519 895.919 521.519 Z" fill="#000000" fill-rule="evenodd" fill-opacity="1" /><path clip-path="url(#clip520)" d="M933.622 526.149 Q929.108 526.149 926.822 530.605 Q924.565 535.032 924.565 543.944 Q924.565 552.827 926.822 557.283 Q929.108 561.71 933.622 561.71 Q938.164 561.71 940.421 557.283 Q942.707 552.827 942.707 543.944 Q942.707 535.032 940.421 530.605 Q938.164 526.149 933.622 526.149 M933.622 521.519 Q940.884 521.519 944.704 527.277 Q948.552 533.006 948.552 543.944 Q948.552 554.852 944.704 560.61 Q940.884 566.339 933.622 566.339 Q926.359 566.339 922.51 560.61 Q918.691 554.852 918.691 543.944 Q918.691 533.006 922.51 527.277 Q926.359 521.519 933.622 521.519 Z" fill="#000000" fill-rule="evenodd" fill-opacity="1" /><path clip-path="url(#clip520)" d="M1195.29 560.581 L1204.84 560.581 L1204.84 527.624 L1194.45 529.708 L1194.45 524.384 L1204.78 522.3 L1210.63 522.3 L1210.63 560.581 L1220.18 560.581 L1220.18 565.5 L1195.29 565.5 L1195.29 560.581 Z" fill="#000000" fill-rule="evenodd" fill-opacity="1" /><path clip-path="url(#clip520)" d="M1232.04 522.3 L1254.99 522.3 L1254.99 527.219 L1237.39 527.219 L1237.39 537.809 Q1238.67 537.375 1239.94 537.173 Q1241.21 536.941 1242.49 536.941 Q1249.72 536.941 1253.94 540.905 Q1258.17 544.87 1258.17 551.64 Q1258.17 558.614 1253.83 562.491 Q1249.49 566.339 1241.59 566.339 Q1238.87 566.339 1236.03 565.876 Q1233.23 565.413 1230.22 564.487 L1230.22 558.614 Q1232.82 560.031 1235.6 560.726 Q1238.38 561.42 1241.47 561.42 Q1246.48 561.42 1249.4 558.787 Q1252.32 556.154 1252.32 551.64 Q1252.32 547.126 1249.4 544.493 Q1246.48 541.86 1241.47 541.86 Q1239.13 541.86 1236.79 542.381 Q1234.47 542.902 1232.04 544.001 L1232.04 522.3 Z" fill="#000000" fill-rule="evenodd" fill-opacity="1" /><path clip-path="url(#clip520)" d="M1282.18 526.149 Q1277.67 526.149 1275.39 530.605 Q1273.13 535.032 1273.13 543.944 Q1273.13 552.827 1275.39 557.283 Q1277.67 561.71 1282.18 561.71 Q1286.73 561.71 1288.98 557.283 Q1291.27 552.827 1291.27 543.944 Q1291.27 535.032 1288.98 530.605 Q1286.73 526.149 1282.18 526.149 M1282.18 521.519 Q1289.45 521.519 1293.27 527.277 Q1297.12 533.006 1297.12 543.944 Q1297.12 554.852 1293.27 560.61 Q1289.45 566.339 1282.18 566.339 Q1274.92 566.339 1271.07 560.61 Q1267.25 554.852 1267.25 543.944 Q1267.25 533.006 1271.07 527.277 Q1274.92 521.519 1282.18 521.519 Z" fill="#000000" fill-rule="evenodd" fill-opacity="1" /><polyline clip-path="url(#clip520)" style="stroke:#000000; stroke-linecap:butt; stroke-linejoin:round; stroke-width:4; stroke-opacity:1; fill:none" points="
  200.094,501.1 200.094,47.2441 
  "/>
<polyline clip-path="url(#clip520)" style="stroke:#000000; stroke-linecap:butt; stroke-linejoin:round; stroke-width:4; stroke-opacity:1; fill:none" points="
  200.094,487.84 218.992,487.84 
  "/>
<polyline clip-path="url(#clip520)" style="stroke:#000000; stroke-linecap:butt; stroke-linejoin:round; stroke-width:4; stroke-opacity:1; fill:none" points="
  200.094,380.899 218.992,380.899 
  "/>
<polyline clip-path="url(#clip520)" style="stroke:#000000; stroke-linecap:butt; stroke-linejoin:round; stroke-width:4; stroke-opacity:1; fill:none" points="
  200.094,273.958 218.992,273.958 
  "/>
<polyline clip-path="url(#clip520)" style="stroke:#000000; stroke-linecap:butt; stroke-linejoin:round; stroke-width:4; stroke-opacity:1; fill:none" points="
  200.094,167.018 218.992,167.018 
  "/>
<polyline clip-path="url(#clip520)" style="stroke:#000000; stroke-linecap:butt; stroke-linejoin:round; stroke-width:4; stroke-opacity:1; fill:none" points="
  200.094,60.077 218.992,60.077 
  "/>
<path clip-path="url(#clip520)" d="M71.4226 470.088 Q66.9087 470.088 64.6229 474.544 Q62.3659 478.971 62.3659 487.883 Q62.3659 496.766 64.6229 501.222 Q66.9087 505.649 71.4226 505.649 Q75.9654 505.649 78.2223 501.222 Q80.5082 496.766 80.5082 487.883 Q80.5082 478.971 78.2223 474.544 Q75.9654 470.088 71.4226 470.088 M71.4226 465.458 Q78.6853 465.458 82.5047 471.216 Q86.3531 476.946 86.3531 487.883 Q86.3531 498.791 82.5047 504.55 Q78.6853 510.279 71.4226 510.279 Q64.1599 510.279 60.3115 504.55 Q56.4921 498.791 56.4921 487.883 Q56.4921 476.946 60.3115 471.216 Q64.1599 465.458 71.4226 465.458 Z" fill="#000000" fill-rule="evenodd" fill-opacity="1" /><path clip-path="url(#clip520)" d="M96.625 502.09 L102.73 502.09 L102.73 509.44 L96.625 509.44 L96.625 502.09 Z" fill="#000000" fill-rule="evenodd" fill-opacity="1" /><path clip-path="url(#clip520)" d="M127.962 470.088 Q123.448 470.088 121.162 474.544 Q118.905 478.971 118.905 487.883 Q118.905 496.766 121.162 501.222 Q123.448 505.649 127.962 505.649 Q132.504 505.649 134.761 501.222 Q137.047 496.766 137.047 487.883 Q137.047 478.971 134.761 474.544 Q132.504 470.088 127.962 470.088 M127.962 465.458 Q135.224 465.458 139.044 471.216 Q142.892 476.946 142.892 487.883 Q142.892 498.791 139.044 504.55 Q135.224 510.279 127.962 510.279 Q120.699 510.279 116.851 504.55 Q113.031 498.791 113.031 487.883 Q113.031 476.946 116.851 471.216 Q120.699 465.458 127.962 465.458 Z" fill="#000000" fill-rule="evenodd" fill-opacity="1" /><path clip-path="url(#clip520)" d="M165.664 470.088 Q161.15 470.088 158.864 474.544 Q156.607 478.971 156.607 487.883 Q156.607 496.766 158.864 501.222 Q161.15 505.649 165.664 505.649 Q170.207 505.649 172.464 501.222 Q174.75 496.766 174.75 487.883 Q174.75 478.971 172.464 474.544 Q170.207 470.088 165.664 470.088 M165.664 465.458 Q172.927 465.458 176.746 471.216 Q180.594 476.946 180.594 487.883 Q180.594 498.791 176.746 504.55 Q172.927 510.279 165.664 510.279 Q158.401 510.279 154.553 504.55 Q150.734 498.791 150.734 487.883 Q150.734 476.946 154.553 471.216 Q158.401 465.458 165.664 465.458 Z" fill="#000000" fill-rule="evenodd" fill-opacity="1" /><path clip-path="url(#clip520)" d="M72.6668 363.147 Q68.1529 363.147 65.8671 367.603 Q63.6101 372.03 63.6101 380.942 Q63.6101 389.825 65.8671 394.281 Q68.1529 398.708 72.6668 398.708 Q77.2096 398.708 79.4665 394.281 Q81.7524 389.825 81.7524 380.942 Q81.7524 372.03 79.4665 367.603 Q77.2096 363.147 72.6668 363.147 M72.6668 358.518 Q79.9295 358.518 83.7489 364.276 Q87.5973 370.005 87.5973 380.942 Q87.5973 391.851 83.7489 397.609 Q79.9295 403.338 72.6668 403.338 Q65.4041 403.338 61.5558 397.609 Q57.7363 391.851 57.7363 380.942 Q57.7363 370.005 61.5558 364.276 Q65.4041 358.518 72.6668 358.518 Z" fill="#000000" fill-rule="evenodd" fill-opacity="1" /><path clip-path="url(#clip520)" d="M97.8692 395.149 L103.975 395.149 L103.975 402.499 L97.8692 402.499 L97.8692 395.149 Z" fill="#000000" fill-rule="evenodd" fill-opacity="1" /><path clip-path="url(#clip520)" d="M121.741 397.58 L142.14 397.58 L142.14 402.499 L114.709 402.499 L114.709 397.58 Q118.037 394.137 123.766 388.35 Q129.524 382.534 131 380.855 Q133.807 377.702 134.906 375.531 Q136.035 373.332 136.035 371.22 Q136.035 367.777 133.604 365.607 Q131.202 363.437 127.325 363.437 Q124.576 363.437 121.509 364.391 Q118.471 365.346 114.999 367.285 L114.999 361.382 Q118.529 359.964 121.596 359.241 Q124.663 358.518 127.209 358.518 Q133.922 358.518 137.915 361.874 Q141.908 365.231 141.908 370.844 Q141.908 373.506 140.896 375.908 Q139.912 378.28 137.279 381.521 Q136.555 382.36 132.678 386.382 Q128.801 390.375 121.741 397.58 Z" fill="#000000" fill-rule="evenodd" fill-opacity="1" /><path clip-path="url(#clip520)" d="M154.466 359.299 L177.412 359.299 L177.412 364.218 L159.819 364.218 L159.819 374.808 Q161.092 374.374 162.365 374.172 Q163.639 373.94 164.912 373.94 Q172.145 373.94 176.37 377.904 Q180.594 381.868 180.594 388.639 Q180.594 395.612 176.254 399.49 Q171.914 403.338 164.015 403.338 Q161.295 403.338 158.459 402.875 Q155.652 402.412 152.643 401.486 L152.643 395.612 Q155.247 397.03 158.025 397.725 Q160.803 398.419 163.899 398.419 Q168.905 398.419 171.827 395.786 Q174.75 393.153 174.75 388.639 Q174.75 384.125 171.827 381.492 Q168.905 378.859 163.899 378.859 Q161.555 378.859 159.211 379.38 Q156.897 379.901 154.466 381 L154.466 359.299 Z" fill="#000000" fill-rule="evenodd" fill-opacity="1" /><path clip-path="url(#clip520)" d="M71.4226 256.207 Q66.9087 256.207 64.6229 260.663 Q62.3659 265.09 62.3659 274.002 Q62.3659 282.885 64.6229 287.341 Q66.9087 291.768 71.4226 291.768 Q75.9654 291.768 78.2223 287.341 Q80.5082 282.885 80.5082 274.002 Q80.5082 265.09 78.2223 260.663 Q75.9654 256.207 71.4226 256.207 M71.4226 251.577 Q78.6853 251.577 82.5047 257.335 Q86.3531 263.064 86.3531 274.002 Q86.3531 284.91 82.5047 290.668 Q78.6853 296.397 71.4226 296.397 Q64.1599 296.397 60.3115 290.668 Q56.4921 284.91 56.4921 274.002 Q56.4921 263.064 60.3115 257.335 Q64.1599 251.577 71.4226 251.577 Z" fill="#000000" fill-rule="evenodd" fill-opacity="1" /><path clip-path="url(#clip520)" d="M96.625 288.209 L102.73 288.209 L102.73 295.558 L96.625 295.558 L96.625 288.209 Z" fill="#000000" fill-rule="evenodd" fill-opacity="1" /><path clip-path="url(#clip520)" d="M115.52 252.358 L138.465 252.358 L138.465 257.277 L120.873 257.277 L120.873 267.867 Q122.146 267.433 123.419 267.231 Q124.692 266.999 125.965 266.999 Q133.199 266.999 137.423 270.963 Q141.648 274.928 141.648 281.698 Q141.648 288.672 137.308 292.549 Q132.967 296.397 125.068 296.397 Q122.348 296.397 119.513 295.934 Q116.706 295.471 113.697 294.546 L113.697 288.672 Q116.301 290.09 119.079 290.784 Q121.856 291.478 124.952 291.478 Q129.958 291.478 132.881 288.845 Q135.803 286.212 135.803 281.698 Q135.803 277.185 132.881 274.551 Q129.958 271.918 124.952 271.918 Q122.609 271.918 120.265 272.439 Q117.95 272.96 115.52 274.06 L115.52 252.358 Z" fill="#000000" fill-rule="evenodd" fill-opacity="1" /><path clip-path="url(#clip520)" d="M165.664 256.207 Q161.15 256.207 158.864 260.663 Q156.607 265.09 156.607 274.002 Q156.607 282.885 158.864 287.341 Q161.15 291.768 165.664 291.768 Q170.207 291.768 172.464 287.341 Q174.75 282.885 174.75 274.002 Q174.75 265.09 172.464 260.663 Q170.207 256.207 165.664 256.207 M165.664 251.577 Q172.927 251.577 176.746 257.335 Q180.594 263.064 180.594 274.002 Q180.594 284.91 176.746 290.668 Q172.927 296.397 165.664 296.397 Q158.401 296.397 154.553 290.668 Q150.734 284.91 150.734 274.002 Q150.734 263.064 154.553 257.335 Q158.401 251.577 165.664 251.577 Z" fill="#000000" fill-rule="evenodd" fill-opacity="1" /><path clip-path="url(#clip520)" d="M72.6668 149.266 Q68.1529 149.266 65.8671 153.722 Q63.6101 158.149 63.6101 167.061 Q63.6101 175.944 65.8671 180.4 Q68.1529 184.827 72.6668 184.827 Q77.2096 184.827 79.4665 180.4 Q81.7524 175.944 81.7524 167.061 Q81.7524 158.149 79.4665 153.722 Q77.2096 149.266 72.6668 149.266 M72.6668 144.636 Q79.9295 144.636 83.7489 150.394 Q87.5973 156.124 87.5973 167.061 Q87.5973 177.97 83.7489 183.728 Q79.9295 189.457 72.6668 189.457 Q65.4041 189.457 61.5558 183.728 Q57.7363 177.97 57.7363 167.061 Q57.7363 156.124 61.5558 150.394 Q65.4041 144.636 72.6668 144.636 Z" fill="#000000" fill-rule="evenodd" fill-opacity="1" /><path clip-path="url(#clip520)" d="M97.8692 181.268 L103.975 181.268 L103.975 188.618 L97.8692 188.618 L97.8692 181.268 Z" fill="#000000" fill-rule="evenodd" fill-opacity="1" /><path clip-path="url(#clip520)" d="M115.23 145.418 L143.008 145.418 L143.008 147.906 L127.325 188.618 L121.22 188.618 L135.977 150.337 L115.23 150.337 L115.23 145.418 Z" fill="#000000" fill-rule="evenodd" fill-opacity="1" /><path clip-path="url(#clip520)" d="M154.466 145.418 L177.412 145.418 L177.412 150.337 L159.819 150.337 L159.819 160.927 Q161.092 160.493 162.365 160.29 Q163.639 160.059 164.912 160.059 Q172.145 160.059 176.37 164.023 Q180.594 167.987 180.594 174.758 Q180.594 181.731 176.254 185.608 Q171.914 189.457 164.015 189.457 Q161.295 189.457 158.459 188.994 Q155.652 188.531 152.643 187.605 L152.643 181.731 Q155.247 183.149 158.025 183.843 Q160.803 184.538 163.899 184.538 Q168.905 184.538 171.827 181.905 Q174.75 179.272 174.75 174.758 Q174.75 170.244 171.827 167.611 Q168.905 164.978 163.899 164.978 Q161.555 164.978 159.211 165.499 Q156.897 166.019 154.466 167.119 L154.466 145.418 Z" fill="#000000" fill-rule="evenodd" fill-opacity="1" /><path clip-path="url(#clip520)" d="M59.9354 76.758 L69.484 76.758 L69.484 43.801 L59.0963 45.8843 L59.0963 40.5603 L69.4261 38.477 L75.271 38.477 L75.271 76.758 L84.8195 76.758 L84.8195 81.677 L59.9354 81.677 L59.9354 76.758 Z" fill="#000000" fill-rule="evenodd" fill-opacity="1" /><path clip-path="url(#clip520)" d="M96.625 74.3275 L102.73 74.3275 L102.73 81.677 L96.625 81.677 L96.625 74.3275 Z" fill="#000000" fill-rule="evenodd" fill-opacity="1" /><path clip-path="url(#clip520)" d="M127.962 42.3253 Q123.448 42.3253 121.162 46.7813 Q118.905 51.2084 118.905 60.1204 Q118.905 69.0034 121.162 73.4594 Q123.448 77.8865 127.962 77.8865 Q132.504 77.8865 134.761 73.4594 Q137.047 69.0034 137.047 60.1204 Q137.047 51.2084 134.761 46.7813 Q132.504 42.3253 127.962 42.3253 M127.962 37.6957 Q135.224 37.6957 139.044 43.4538 Q142.892 49.1829 142.892 60.1204 Q142.892 71.0289 139.044 76.787 Q135.224 82.5161 127.962 82.5161 Q120.699 82.5161 116.851 76.787 Q113.031 71.0289 113.031 60.1204 Q113.031 49.1829 116.851 43.4538 Q120.699 37.6957 127.962 37.6957 Z" fill="#000000" fill-rule="evenodd" fill-opacity="1" /><path clip-path="url(#clip520)" d="M165.664 42.3253 Q161.15 42.3253 158.864 46.7813 Q156.607 51.2084 156.607 60.1204 Q156.607 69.0034 158.864 73.4594 Q161.15 77.8865 165.664 77.8865 Q170.207 77.8865 172.464 73.4594 Q174.75 69.0034 174.75 60.1204 Q174.75 51.2084 172.464 46.7813 Q170.207 42.3253 165.664 42.3253 M165.664 37.6957 Q172.927 37.6957 176.746 43.4538 Q180.594 49.1829 180.594 60.1204 Q180.594 71.0289 176.746 76.787 Q172.927 82.5161 165.664 82.5161 Q158.401 82.5161 154.553 76.787 Q150.734 71.0289 150.734 60.1204 Q150.734 49.1829 154.553 43.4538 Q158.401 37.6957 165.664 37.6957 Z" fill="#000000" fill-rule="evenodd" fill-opacity="1" /><polyline clip-path="url(#clip522)" style="stroke:#2000d4; stroke-linecap:butt; stroke-linejoin:round; stroke-width:16; stroke-opacity:1; fill:none" stroke-dasharray="8, 16" points="
  207.066,487.84 214.037,487.84 221.008,487.84 227.98,487.84 234.951,487.84 241.922,487.84 248.893,487.84 255.865,487.839 262.836,487.839 269.807,487.839 
  276.778,487.839 283.75,487.839 290.721,487.839 297.692,487.838 304.663,487.837 311.635,487.837 318.606,487.836 325.577,487.835 332.549,487.834 339.52,487.832 
  346.491,487.831 353.462,487.831 360.434,487.83 367.405,487.829 374.376,487.828 381.347,487.828 388.319,487.827 395.29,487.827 402.261,487.826 409.233,487.825 
  416.204,487.825 423.175,487.824 430.146,487.824 437.118,487.823 444.089,487.822 451.06,487.822 458.031,487.821 465.003,487.821 471.974,487.82 478.945,487.819 
  485.916,487.819 492.888,487.818 499.859,487.818 506.83,487.817 513.802,487.816 520.773,487.816 527.744,487.815 534.715,487.814 541.687,487.814 548.658,487.813 
  555.629,487.812 562.6,487.812 569.572,487.811 576.543,487.81 583.514,487.81 590.485,487.809 597.457,487.808 604.428,487.807 611.399,487.807 618.371,487.806 
  625.342,487.805 632.313,487.804 639.284,487.804 646.256,487.803 653.227,487.802 660.198,487.801 667.169,487.801 674.141,487.8 681.112,487.799 688.083,487.798 
  695.054,487.797 702.026,487.797 708.997,487.796 715.968,487.795 722.94,487.794 729.911,487.793 736.882,487.792 743.853,487.792 750.825,487.791 757.796,487.79 
  764.767,487.789 771.738,487.788 778.71,487.787 785.681,487.786 792.652,487.785 799.623,487.785 806.595,487.784 813.566,487.783 820.537,487.782 827.509,487.781 
  834.48,487.78 841.451,487.779 848.422,487.778 855.394,487.777 862.365,487.776 869.336,487.775 876.307,487.774 883.279,487.773 890.25,487.772 897.221,487.771 
  904.193,487.77 911.164,487.769 918.135,487.768 925.106,487.767 932.078,487.766 939.049,487.765 946.02,487.764 952.991,487.763 959.963,487.762 966.934,487.761 
  973.905,487.76 980.876,487.759 987.848,487.758 994.819,487.756 1001.79,487.755 1008.76,487.754 1015.73,487.753 1022.7,487.752 1029.68,487.751 1036.65,487.75 
  1043.62,487.749 1050.59,487.748 1057.56,487.746 1064.53,487.745 1071.5,487.744 1078.47,487.743 1085.45,487.742 1092.42,487.741 1099.39,487.739 1106.36,487.738 
  1113.33,487.737 1120.3,487.736 1127.27,487.735 1134.24,487.734 1141.22,487.732 1148.19,487.731 1155.16,487.73 1162.13,487.729 1169.1,487.727 1176.07,487.726 
  1183.04,487.725 1190.01,487.724 1196.99,487.723 1203.96,487.721 1210.93,487.72 1217.9,487.719 1224.87,487.718 1231.84,487.716 1238.81,487.715 1245.78,487.714 
  1252.76,487.713 
  "/>
<polyline clip-path="url(#clip522)" style="stroke:#008900; stroke-linecap:butt; stroke-linejoin:round; stroke-width:16; stroke-opacity:1; fill:none" stroke-dasharray="64, 40" points="
  207.066,487.84 214.037,487.839 221.008,487.839 227.98,487.839 234.951,487.839 241.922,487.838 248.893,487.838 255.865,487.837 262.836,487.835 269.807,487.833 
  276.778,487.829 283.75,487.824 290.721,487.816 297.692,487.806 304.663,487.791 311.635,487.772 318.606,487.749 325.577,487.721 332.549,487.69 339.52,487.658 
  346.491,487.623 353.462,487.585 360.434,487.541 367.405,487.486 374.376,487.416 381.347,487.326 388.319,487.214 395.29,487.079 402.261,486.928 409.233,486.771 
  416.204,486.62 423.175,486.486 430.146,486.375 437.118,486.288 444.089,486.224 451.06,486.176 458.031,486.141 465.003,486.115 471.974,486.095 478.945,486.08 
  485.916,486.068 492.888,486.058 499.859,486.05 506.83,486.044 513.802,486.038 520.773,486.034 527.744,486.03 534.715,486.026 541.687,486.023 548.658,486.021 
  555.629,486.018 562.6,486.016 569.572,486.014 576.543,486.012 583.514,486.01 590.485,486.008 597.457,486.006 604.428,486.004 611.399,486.003 618.371,486.001 
  625.342,485.999 632.313,485.998 639.284,485.996 646.256,485.995 653.227,485.993 660.198,485.991 667.169,485.99 674.141,485.988 681.112,485.987 688.083,485.985 
  695.054,485.983 702.026,485.982 708.997,485.98 715.968,485.979 722.94,485.977 729.911,485.975 736.882,485.974 743.853,485.972 750.825,485.971 757.796,485.969 
  764.767,485.967 771.738,485.966 778.71,485.964 785.681,485.963 792.652,485.961 799.623,485.959 806.595,485.958 813.566,485.956 820.537,485.955 827.509,485.953 
  834.48,485.951 841.451,485.95 848.422,485.948 855.394,485.946 862.365,485.945 869.336,485.943 876.307,485.942 883.279,485.94 890.25,485.938 897.221,485.937 
  904.193,485.935 911.164,485.933 918.135,485.932 925.106,485.93 932.078,485.928 939.049,485.927 946.02,485.925 952.991,485.923 959.963,485.922 966.934,485.92 
  973.905,485.918 980.876,485.917 987.848,485.915 994.819,485.913 1001.79,485.912 1008.76,485.91 1015.73,485.908 1022.7,485.907 1029.68,485.905 1036.65,485.903 
  1043.62,485.902 1050.59,485.9 1057.56,485.898 1064.53,485.897 1071.5,485.895 1078.47,485.893 1085.45,485.892 1092.42,485.89 1099.39,485.888 1106.36,485.886 
  1113.33,485.885 1120.3,485.883 1127.27,485.881 1134.24,485.88 1141.22,485.878 1148.19,485.876 1155.16,485.874 1162.13,485.873 1169.1,485.871 1176.07,485.869 
  1183.04,485.868 1190.01,485.866 1196.99,485.864 1203.96,485.862 1210.93,485.861 1217.9,485.859 1224.87,485.857 1231.84,485.855 1238.81,485.854 1245.78,485.852 
  1252.76,485.85 
  "/>
<polyline clip-path="url(#clip522)" style="stroke:#008900; stroke-linecap:butt; stroke-linejoin:round; stroke-width:16; stroke-opacity:1; fill:none" stroke-dasharray="8, 16" points="
  207.066,487.84 214.037,487.839 221.008,487.839 227.98,487.839 234.951,487.839 241.922,487.839 248.893,487.838 255.865,487.837 262.836,487.836 269.807,487.834 
  276.778,487.831 283.75,487.827 290.721,487.822 297.692,487.814 304.663,487.802 311.635,487.788 318.606,487.771 325.577,487.751 332.549,487.73 339.52,487.71 
  346.491,487.692 353.462,487.675 360.434,487.66 367.405,487.646 374.376,487.632 381.347,487.616 388.319,487.598 395.29,487.577 402.261,487.556 409.233,487.534 
  416.204,487.514 423.175,487.496 430.146,487.481 437.118,487.47 444.089,487.46 451.06,487.453 458.031,487.447 465.003,487.443 471.974,487.44 478.945,487.437 
  485.916,487.435 492.888,487.433 499.859,487.431 506.83,487.43 513.802,487.429 520.773,487.428 527.744,487.427 534.715,487.426 541.687,487.425 548.658,487.425 
  555.629,487.424 562.6,487.423 569.572,487.423 576.543,487.422 583.514,487.422 590.485,487.421 597.457,487.421 604.428,487.42 611.399,487.42 618.371,487.419 
  625.342,487.419 632.313,487.418 639.284,487.418 646.256,487.417 653.227,487.417 660.198,487.417 667.169,487.416 674.141,487.416 681.112,487.415 688.083,487.415 
  695.054,487.414 702.026,487.414 708.997,487.413 715.968,487.413 722.94,487.412 729.911,487.412 736.882,487.411 743.853,487.411 750.825,487.411 757.796,487.41 
  764.767,487.41 771.738,487.409 778.71,487.409 785.681,487.408 792.652,487.408 799.623,487.407 806.595,487.407 813.566,487.407 820.537,487.406 827.509,487.406 
  834.48,487.405 841.451,487.405 848.422,487.404 855.394,487.404 862.365,487.403 869.336,487.403 876.307,487.403 883.279,487.402 890.25,487.402 897.221,487.401 
  904.193,487.401 911.164,487.4 918.135,487.4 925.106,487.399 932.078,487.399 939.049,487.399 946.02,487.398 952.991,487.398 959.963,487.397 966.934,487.397 
  973.905,487.396 980.876,487.396 987.848,487.396 994.819,487.395 1001.79,487.395 1008.76,487.394 1015.73,487.394 1022.7,487.393 1029.68,487.393 1036.65,487.393 
  1043.62,487.392 1050.59,487.392 1057.56,487.391 1064.53,487.391 1071.5,487.39 1078.47,487.39 1085.45,487.39 1092.42,487.389 1099.39,487.389 1106.36,487.388 
  1113.33,487.388 1120.3,487.388 1127.27,487.387 1134.24,487.387 1141.22,487.386 1148.19,487.386 1155.16,487.385 1162.13,487.385 1169.1,487.385 1176.07,487.384 
  1183.04,487.384 1190.01,487.383 1196.99,487.383 1203.96,487.383 1210.93,487.382 1217.9,487.382 1224.87,487.381 1231.84,487.381 1238.81,487.381 1245.78,487.38 
  1252.76,487.38 
  "/>
<polyline clip-path="url(#clip522)" style="stroke:#2000d4; stroke-linecap:butt; stroke-linejoin:round; stroke-width:16; stroke-opacity:1; fill:none" points="
  207.066,487.412 214.037,487.085 221.008,486.652 227.98,485.993 234.951,484.992 241.922,483.474 248.893,481.179 255.865,477.725 262.836,472.566 269.807,464.94 
  276.778,453.84 283.75,438.046 290.721,416.282 297.692,387.579 304.663,351.841 311.635,310.397 318.606,266.121 325.577,222.778 332.549,183.83 339.52,151.434 
  346.491,126.178 353.462,107.466 360.434,94.1227 367.405,84.8686 374.376,78.5813 381.347,74.3787 388.319,71.6138 395.29,69.8316 402.261,68.7193 409.233,68.0638 
  416.204,67.7174 423.175,67.5756 430.146,67.5635 437.118,67.6291 444.089,67.7388 451.06,67.8724 458.031,68.0193 465.003,68.174 471.974,68.3339 478.945,68.4979 
  485.916,68.6655 492.888,68.8365 499.859,69.0109 506.83,69.1887 513.802,69.37 520.773,69.5547 527.744,69.743 534.715,69.935 541.687,70.1307 548.658,70.3301 
  555.629,70.5333 562.6,70.7405 569.572,70.9516 576.543,71.1668 583.514,71.3861 590.485,71.6096 597.457,71.8374 604.428,72.0695 611.399,72.3061 618.371,72.5471 
  625.342,72.7928 632.313,73.0431 639.284,73.2981 646.256,73.5581 653.227,73.8229 660.198,74.0927 667.169,74.3676 674.141,74.6478 681.112,74.9332 688.083,75.2239 
  695.054,75.5201 702.026,75.8219 708.997,76.1293 715.968,76.4425 722.94,76.7615 729.911,77.0865 736.882,77.4175 743.853,77.7546 750.825,78.098 757.796,78.4478 
  764.767,78.804 771.738,79.1668 778.71,79.5363 785.681,79.9125 792.652,80.2957 799.623,80.6859 806.595,81.0831 813.566,81.4877 820.537,81.8996 827.509,82.3189 
  834.48,82.7459 841.451,83.1805 848.422,83.623 855.394,84.0735 862.365,84.532 869.336,84.9988 876.307,85.4738 883.279,85.9574 890.25,86.4495 897.221,86.9503 
  904.193,87.46 911.164,87.9787 918.135,88.5065 925.106,89.0435 932.078,89.5899 939.049,90.1458 946.02,90.7114 952.991,91.2868 959.963,91.8721 966.934,92.4674 
  973.905,93.073 980.876,93.6889 987.848,94.3153 994.819,94.9523 1001.79,95.6001 1008.76,96.2588 1015.73,96.9286 1022.7,97.6095 1029.68,98.3018 1036.65,99.0056 
  1043.62,99.721 1050.59,100.448 1057.56,101.187 1064.53,101.938 1071.5,102.702 1078.47,103.477 1085.45,104.266 1092.42,105.066 1099.39,105.88 1106.36,106.706 
  1113.33,107.546 1120.3,108.399 1127.27,109.265 1134.24,110.144 1141.22,111.037 1148.19,111.944 1155.16,112.865 1162.13,113.799 1169.1,114.748 1176.07,115.711 
  1183.04,116.689 1190.01,117.681 1196.99,118.687 1203.96,119.709 1210.93,120.745 1217.9,121.796 1224.87,122.862 1231.84,123.944 1238.81,125.04 1245.78,126.152 
  1252.76,127.28 
  "/>
<polyline clip-path="url(#clip522)" style="stroke:#008900; stroke-linecap:butt; stroke-linejoin:round; stroke-width:16; stroke-opacity:1; fill:none" points="
  207.066,487.626 214.037,487.482 221.008,487.293 227.98,487.004 234.951,486.565 241.922,485.899 248.893,484.892 255.865,483.376 262.836,481.111 269.807,477.762 
  276.778,472.887 283.75,465.945 290.721,456.372 297.692,443.73 304.663,427.955 311.635,409.593 318.606,389.848 325.577,370.286 332.549,352.305 339.52,336.683 
  346.491,323.442 353.462,312 360.434,301.42 367.405,290.636 374.376,278.622 381.347,264.561 388.319,248.032 395.29,229.189 402.261,208.821 409.233,188.216 
  416.204,168.806 423.175,151.733 430.146,137.575 437.118,126.345 444.089,117.685 451.06,111.098 458.031,106.105 465.003,102.312 471.974,99.4163 478.945,97.197 
  485.916,95.4897 492.888,94.1728 499.859,93.1549 506.83,92.3674 513.802,91.7577 520.773,91.2858 527.744,90.9208 534.715,90.6391 541.687,90.4222 548.658,90.2562 
  555.629,90.1299 562.6,90.0349 569.572,89.9644 576.543,89.9134 583.514,89.8776 590.485,89.854 597.457,89.8399 604.428,89.8336 611.399,89.8333 618.371,89.8379 
  625.342,89.8464 632.313,89.858 639.284,89.8721 646.256,89.8883 653.227,89.906 660.198,89.9251 667.169,89.9453 674.141,89.9663 681.112,89.988 688.083,90.0103 
  695.054,90.033 702.026,90.0561 708.997,90.0796 715.968,90.1033 722.94,90.1272 729.911,90.1512 736.882,90.1754 743.853,90.1997 750.825,90.2242 757.796,90.2486 
  764.767,90.2732 771.738,90.2978 778.71,90.3224 785.681,90.3471 792.652,90.3718 799.623,90.3965 806.595,90.4212 813.566,90.446 820.537,90.4708 827.509,90.4955 
  834.48,90.5203 841.451,90.5451 848.422,90.5698 855.394,90.5946 862.365,90.6194 869.336,90.6441 876.307,90.6689 883.279,90.6936 890.25,90.7184 897.221,90.7431 
  904.193,90.7679 911.164,90.7926 918.135,90.8173 925.106,90.842 932.078,90.8668 939.049,90.8915 946.02,90.9162 952.991,90.9408 959.963,90.9655 966.934,90.9902 
  973.905,91.0149 980.876,91.0395 987.848,91.0642 994.819,91.0888 1001.79,91.1134 1008.76,91.1381 1015.73,91.1627 1022.7,91.1873 1029.68,91.2119 1036.65,91.2365 
  1043.62,91.2611 1050.59,91.2856 1057.56,91.3102 1064.53,91.3348 1071.5,91.3593 1078.47,91.3839 1085.45,91.4084 1092.42,91.433 1099.39,91.4575 1106.36,91.482 
  1113.33,91.5066 1120.3,91.5311 1127.27,91.5556 1134.24,91.5801 1141.22,91.6046 1148.19,91.6291 1155.16,91.6536 1162.13,91.6781 1169.1,91.7026 1176.07,91.727 
  1183.04,91.7515 1190.01,91.776 1196.99,91.8005 1203.96,91.8249 1210.93,91.8494 1217.9,91.8738 1224.87,91.8983 1231.84,91.9228 1238.81,91.9472 1245.78,91.9717 
  1252.76,91.9961 
  "/>
<polyline clip-path="url(#clip522)" style="stroke:#7f7f7f; stroke-linecap:butt; stroke-linejoin:round; stroke-width:16; stroke-opacity:1; fill:none" points="
  207.066,60.077 214.037,71.0592 221.008,78.143 227.98,83.0523 234.951,86.2552 241.922,88.3962 248.893,89.8723 255.865,90.9667 262.836,91.8864 269.807,92.8026 
  276.778,93.8816 283.75,95.3136 290.721,97.3428 297.692,100.3 304.663,104.636 311.635,110.954 318.606,120.01 325.577,132.66 332.549,149.708 339.52,171.632 
  346.491,198.277 353.462,228.659 360.434,261.088 367.405,293.579 374.376,324.351 381.347,352.161 388.319,376.404 395.29,397.028 402.261,414.353 409.233,428.859 
  416.204,441.003 423.175,451.123 430.146,459.447 437.118,466.155 444.089,471.433 451.06,475.498 458.031,478.574 465.003,480.877 471.974,482.59 478.945,483.864 
  485.916,484.813 492.888,485.524 499.859,486.06 506.83,486.466 513.802,486.776 520.773,487.014 527.744,487.198 534.715,487.341 541.687,487.453 548.658,487.54 
  555.629,487.61 562.6,487.665 569.572,487.708 576.543,487.743 583.514,487.771 590.485,487.793 597.457,487.811 604.428,487.826 611.399,487.838 618.371,487.848 
  625.342,487.856 632.313,487.862 639.284,487.868 646.256,487.872 653.227,487.876 660.198,487.879 667.169,487.882 674.141,487.884 681.112,487.887 688.083,487.888 
  695.054,487.89 702.026,487.891 708.997,487.893 715.968,487.894 722.94,487.895 729.911,487.896 736.882,487.897 743.853,487.898 750.825,487.899 757.796,487.9 
  764.767,487.9 771.738,487.901 778.71,487.902 785.681,487.903 792.652,487.903 799.623,487.904 806.595,487.905 813.566,487.905 820.537,487.906 827.509,487.907 
  834.48,487.908 841.451,487.908 848.422,487.909 855.394,487.91 862.365,487.91 869.336,487.911 876.307,487.912 883.279,487.913 890.25,487.913 897.221,487.914 
  904.193,487.915 911.164,487.916 918.135,487.916 925.106,487.917 932.078,487.918 939.049,487.919 946.02,487.919 952.991,487.92 959.963,487.921 966.934,487.922 
  973.905,487.922 980.876,487.923 987.848,487.924 994.819,487.925 1001.79,487.926 1008.76,487.926 1015.73,487.927 1022.7,487.928 1029.68,487.929 1036.65,487.93 
  1043.62,487.93 1050.59,487.931 1057.56,487.932 1064.53,487.933 1071.5,487.934 1078.47,487.935 1085.45,487.935 1092.42,487.936 1099.39,487.937 1106.36,487.938 
  1113.33,487.939 1120.3,487.94 1127.27,487.941 1134.24,487.941 1141.22,487.942 1148.19,487.943 1155.16,487.944 1162.13,487.945 1169.1,487.946 1176.07,487.947 
  1183.04,487.948 1190.01,487.948 1196.99,487.949 1203.96,487.95 1210.93,487.951 1217.9,487.952 1224.87,487.953 1231.84,487.954 1238.81,487.955 1245.78,487.956 
  1252.76,487.957 
  "/>
<polyline clip-path="url(#clip522)" style="stroke:#2000d4; stroke-linecap:butt; stroke-linejoin:round; stroke-width:16; stroke-opacity:1; fill:none" stroke-dasharray="64, 40" points="
  207.066,487.84 214.037,487.84 221.008,487.84 227.98,487.84 234.951,487.84 241.922,487.84 248.893,487.84 255.865,487.84 262.836,487.839 269.807,487.839 
  276.778,487.839 283.75,487.839 290.721,487.839 297.692,487.839 304.663,487.839 311.635,487.839 318.606,487.839 325.577,487.838 332.549,487.838 339.52,487.838 
  346.491,487.838 353.462,487.838 360.434,487.838 367.405,487.838 374.376,487.838 381.347,487.838 388.319,487.837 395.29,487.837 402.261,487.837 409.233,487.837 
  416.204,487.836 423.175,487.836 430.146,487.836 437.118,487.835 444.089,487.835 451.06,487.834 458.031,487.834 465.003,487.833 471.974,487.832 478.945,487.832 
  485.916,487.831 492.888,487.831 499.859,487.83 506.83,487.83 513.802,487.829 520.773,487.828 527.744,487.828 534.715,487.827 541.687,487.826 548.658,487.826 
  555.629,487.825 562.6,487.824 569.572,487.823 576.543,487.823 583.514,487.822 590.485,487.821 597.457,487.82 604.428,487.82 611.399,487.819 618.371,487.818 
  625.342,487.817 632.313,487.816 639.284,487.815 646.256,487.814 653.227,487.814 660.198,487.813 667.169,487.812 674.141,487.811 681.112,487.81 688.083,487.809 
  695.054,487.808 702.026,487.807 708.997,487.806 715.968,487.804 722.94,487.803 729.911,487.802 736.882,487.801 743.853,487.8 750.825,487.799 757.796,487.798 
  764.767,487.796 771.738,487.795 778.71,487.794 785.681,487.792 792.652,487.791 799.623,487.79 806.595,487.788 813.566,487.787 820.537,487.786 827.509,487.784 
  834.48,487.783 841.451,487.781 848.422,487.78 855.394,487.778 862.365,487.777 869.336,487.775 876.307,487.773 883.279,487.772 890.25,487.77 897.221,487.768 
  904.193,487.766 911.164,487.765 918.135,487.763 925.106,487.761 932.078,487.759 939.049,487.757 946.02,487.755 952.991,487.753 959.963,487.751 966.934,487.749 
  973.905,487.747 980.876,487.745 987.848,487.743 994.819,487.74 1001.79,487.738 1008.76,487.736 1015.73,487.734 1022.7,487.731 1029.68,487.729 1036.65,487.726 
  1043.62,487.724 1050.59,487.721 1057.56,487.719 1064.53,487.716 1071.5,487.714 1078.47,487.711 1085.45,487.708 1092.42,487.705 1099.39,487.703 1106.36,487.7 
  1113.33,487.697 1120.3,487.694 1127.27,487.691 1134.24,487.688 1141.22,487.685 1148.19,487.682 1155.16,487.679 1162.13,487.675 1169.1,487.672 1176.07,487.669 
  1183.04,487.665 1190.01,487.662 1196.99,487.658 1203.96,487.655 1210.93,487.651 1217.9,487.648 1224.87,487.644 1231.84,487.64 1238.81,487.636 1245.78,487.633 
  1252.76,487.629 
  "/>
<polyline clip-path="url(#clip522)" style="stroke:#ff221c; stroke-linecap:butt; stroke-linejoin:round; stroke-width:16; stroke-opacity:1; fill:none" points="
  207.066,402.316 214.037,402.287 221.008,402.286 227.98,402.283 234.951,402.279 241.922,402.273 248.893,402.264 255.865,402.249 262.836,402.225 269.807,402.19 
  276.778,402.136 283.75,402.053 290.721,401.928 297.692,401.74 304.663,401.458 311.635,401.039 318.606,400.419 325.577,399.509 332.549,398.179 339.52,396.236 
  346.491,393.393 353.462,389.231 360.434,383.16 367.405,374.394 374.376,361.973 381.347,344.872 388.319,322.261 395.29,293.925 402.261,260.732 409.233,224.826 
  416.204,189.242 423.175,156.96 430.146,129.973 437.118,108.934 444.089,93.4125 451.06,82.4268 458.031,74.8777 465.003,69.7954 471.974,66.4212 478.945,64.2022 
  485.916,62.752 492.888,61.8083 499.859,61.1961 506.83,60.7997 513.802,60.5433 520.773,60.3778 527.744,60.2709 534.715,60.202 541.687,60.1576 548.658,60.1289 
  555.629,60.1104 562.6,60.0985 569.572,60.0909 576.543,60.0859 583.514,60.0827 590.485,60.0807 597.457,60.0794 604.428,60.0785 611.399,60.078 618.371,60.0776 
  625.342,60.0774 632.313,60.0772 639.284,60.0771 646.256,60.0771 653.227,60.077 660.198,60.077 667.169,60.077 674.141,60.077 681.112,60.077 688.083,60.077 
  695.054,60.077 702.026,60.077 708.997,60.077 715.968,60.077 722.94,60.077 729.911,60.077 736.882,60.077 743.853,60.077 750.825,60.077 757.796,60.077 
  764.767,60.077 771.738,60.077 778.71,60.077 785.681,60.077 792.652,60.077 799.623,60.077 806.595,60.077 813.566,60.077 820.537,60.077 827.509,60.077 
  834.48,60.077 841.451,60.077 848.422,60.077 855.394,60.077 862.365,60.077 869.336,60.077 876.307,60.077 883.279,60.077 890.25,60.077 897.221,60.077 
  904.193,60.077 911.164,60.077 918.135,60.077 925.106,60.077 932.078,60.077 939.049,60.077 946.02,60.077 952.991,60.077 959.963,60.077 966.934,60.077 
  973.905,60.077 980.876,60.077 987.848,60.077 994.819,60.077 1001.79,60.077 1008.76,60.077 1015.73,60.077 1022.7,60.077 1029.68,60.077 1036.65,60.077 
  1043.62,60.077 1050.59,60.077 1057.56,60.077 1064.53,60.077 1071.5,60.077 1078.47,60.077 1085.45,60.077 1092.42,60.077 1099.39,60.077 1106.36,60.077 
  1113.33,60.077 1120.3,60.077 1127.27,60.077 1134.24,60.077 1141.22,60.077 1148.19,60.077 1155.16,60.077 1162.13,60.077 1169.1,60.077 1176.07,60.077 
  1183.04,60.077 1190.01,60.077 1196.99,60.077 1203.96,60.077 1210.93,60.077 1217.9,60.077 1224.87,60.077 1231.84,60.077 1238.81,60.077 1245.78,60.077 
  1252.76,60.077 
  "/>
<polyline clip-path="url(#clip522)" style="stroke:#000000; stroke-linecap:butt; stroke-linejoin:round; stroke-width:16; stroke-opacity:1; fill:none" stroke-dasharray="8, 16" points="
  207.066,60.077 214.037,60.5005 221.008,60.8874 227.98,61.3771 234.951,62.1066 241.922,63.2136 248.893,64.8921 255.865,67.4296 262.836,71.2474 269.807,76.9507 
  276.778,85.3807 283.75,97.6476 290.721,115.096 297.692,139.129 304.663,170.798 311.635,210.178 318.606,255.742 325.577,304.227 332.549,351.349 339.52,393.12 
  346.491,426.963 353.462,452.042 360.434,468.921 367.405,479.042 374.376,484.299 381.347,486.607 388.319,487.46 395.29,487.732 402.261,487.81 409.233,487.831 
  416.204,487.837 423.175,487.839 430.146,487.839 437.118,487.839 444.089,487.84 451.06,487.84 458.031,487.84 465.003,487.84 471.974,487.84 478.945,487.84 
  485.916,487.84 492.888,487.84 499.859,487.84 506.83,487.84 513.802,487.84 520.773,487.84 527.744,487.84 534.715,487.84 541.687,487.84 548.658,487.84 
  555.629,487.84 562.6,487.84 569.572,487.84 576.543,487.84 583.514,487.84 590.485,487.84 597.457,487.84 604.428,487.84 611.399,487.84 618.371,487.84 
  625.342,487.84 632.313,487.84 639.284,487.84 646.256,487.84 653.227,487.84 660.198,487.84 667.169,487.84 674.141,487.84 681.112,487.84 688.083,487.84 
  695.054,487.84 702.026,487.84 708.997,487.84 715.968,487.84 722.94,487.84 729.911,487.84 736.882,487.84 743.853,487.84 750.825,487.84 757.796,487.84 
  764.767,487.84 771.738,487.84 778.71,487.84 785.681,487.84 792.652,487.84 799.623,487.84 806.595,487.84 813.566,487.84 820.537,487.84 827.509,487.84 
  834.48,487.84 841.451,487.84 848.422,487.84 855.394,487.84 862.365,487.84 869.336,487.84 876.307,487.84 883.279,487.84 890.25,487.84 897.221,487.84 
  904.193,487.84 911.164,487.84 918.135,487.84 925.106,487.84 932.078,487.84 939.049,487.84 946.02,487.84 952.991,487.84 959.963,487.84 966.934,487.84 
  973.905,487.84 980.876,487.84 987.848,487.84 994.819,487.84 1001.79,487.84 1008.76,487.84 1015.73,487.84 1022.7,487.84 1029.68,487.84 1036.65,487.84 
  1043.62,487.84 1050.59,487.84 1057.56,487.84 1064.53,487.84 1071.5,487.84 1078.47,487.84 1085.45,487.84 1092.42,487.84 1099.39,487.84 1106.36,487.84 
  1113.33,487.84 1120.3,487.84 1127.27,487.84 1134.24,487.84 1141.22,487.84 1148.19,487.84 1155.16,487.84 1162.13,487.84 1169.1,487.84 1176.07,487.84 
  1183.04,487.84 1190.01,487.84 1196.99,487.84 1203.96,487.84 1210.93,487.84 1217.9,487.84 1224.87,487.84 1231.84,487.84 1238.81,487.84 1245.78,487.84 
  1252.76,487.84 
  "/>
</svg>
