<?xml version="1.0" encoding="utf-8"?>
<svg xmlns="http://www.w3.org/2000/svg" xmlns:xlink="http://www.w3.org/1999/xlink" width="325" height="150" viewBox="0 0 1300 600">
<defs>
  <clipPath id="clip890">
    <rect x="0" y="0" width="1300" height="600"/>
  </clipPath>
</defs>
<path clip-path="url(#clip890)" d="
M0 600 L1300 600 L1300 0 L0 0  Z
  " fill="#ffffff" fill-rule="evenodd" fill-opacity="1"/>
<defs>
  <clipPath id="clip891">
    <rect x="260" y="0" width="911" height="600"/>
  </clipPath>
</defs>
<path clip-path="url(#clip890)" d="
M200.094 501.1 L1252.76 501.1 L1252.76 47.2441 L200.094 47.2441  Z
  " fill="#ffffff" fill-rule="evenodd" fill-opacity="1"/>
<defs>
  <clipPath id="clip892">
    <rect x="200" y="47" width="1054" height="455"/>
  </clipPath>
</defs>
<polyline clip-path="url(#clip890)" style="stroke:#000000; stroke-linecap:butt; stroke-linejoin:round; stroke-width:4; stroke-opacity:1; fill:none" points="
  200.094,501.1 1252.76,501.1 
  "/>
<polyline clip-path="url(#clip890)" style="stroke:#000000; stroke-linecap:butt; stroke-linejoin:round; stroke-width:4; stroke-opacity:1; fill:none" points="
  200.094,501.1 200.094,482.203 
  "/>
<polyline clip-path="url(#clip890)" style="stroke:#000000; stroke-linecap:butt; stroke-linejoin:round; stroke-width:4; stroke-opacity:1; fill:none" points="
  548.658,501.1 548.658,482.203 
  "/>
<polyline clip-path="url(#clip890)" style="stroke:#000000; stroke-linecap:butt; stroke-linejoin:round; stroke-width:4; stroke-opacity:1; fill:none" points="
  897.221,501.1 897.221,482.203 
  "/>
<polyline clip-path="url(#clip890)" style="stroke:#000000; stroke-linecap:butt; stroke-linejoin:round; stroke-width:4; stroke-opacity:1; fill:none" points="
  1245.78,501.1 1245.78,482.203 
  "/>
<path clip-path="url(#clip890)" d="M200.094 526.149 Q195.581 526.149 193.295 530.605 Q191.038 535.032 191.038 543.944 Q191.038 552.827 193.295 557.283 Q195.581 561.71 200.094 561.71 Q204.637 561.71 206.894 557.283 Q209.18 552.827 209.18 543.944 Q209.18 535.032 206.894 530.605 Q204.637 526.149 200.094 526.149 M200.094 521.519 Q207.357 521.519 211.177 527.277 Q215.025 533.006 215.025 543.944 Q215.025 554.852 211.177 560.61 Q207.357 566.339 200.094 566.339 Q192.832 566.339 188.983 560.61 Q185.164 554.852 185.164 543.944 Q185.164 533.006 188.983 527.277 Q192.832 521.519 200.094 521.519 Z" fill="#000000" fill-rule="evenodd" fill-opacity="1" /><path clip-path="url(#clip890)" d="M517.032 522.3 L539.977 522.3 L539.977 527.219 L522.385 527.219 L522.385 537.809 Q523.658 537.375 524.931 537.173 Q526.204 536.941 527.477 536.941 Q534.711 536.941 538.936 540.905 Q543.16 544.87 543.16 551.64 Q543.16 558.614 538.82 562.491 Q534.48 566.339 526.58 566.339 Q523.861 566.339 521.025 565.876 Q518.218 565.413 515.209 564.487 L515.209 558.614 Q517.813 560.031 520.591 560.726 Q523.369 561.42 526.465 561.42 Q531.47 561.42 534.393 558.787 Q537.315 556.154 537.315 551.64 Q537.315 547.126 534.393 544.493 Q531.47 541.86 526.465 541.86 Q524.121 541.86 521.777 542.381 Q519.462 542.902 517.032 544.001 L517.032 522.3 Z" fill="#000000" fill-rule="evenodd" fill-opacity="1" /><path clip-path="url(#clip890)" d="M567.176 526.149 Q562.662 526.149 560.377 530.605 Q558.12 535.032 558.12 543.944 Q558.12 552.827 560.377 557.283 Q562.662 561.71 567.176 561.71 Q571.719 561.71 573.976 557.283 Q576.262 552.827 576.262 543.944 Q576.262 535.032 573.976 530.605 Q571.719 526.149 567.176 526.149 M567.176 521.519 Q574.439 521.519 578.258 527.277 Q582.107 533.006 582.107 543.944 Q582.107 554.852 578.258 560.61 Q574.439 566.339 567.176 566.339 Q559.914 566.339 556.065 560.61 Q552.246 554.852 552.246 543.944 Q552.246 533.006 556.065 527.277 Q559.914 521.519 567.176 521.519 Z" fill="#000000" fill-rule="evenodd" fill-opacity="1" /><path clip-path="url(#clip890)" d="M846.73 560.581 L856.278 560.581 L856.278 527.624 L845.891 529.708 L845.891 524.384 L856.22 522.3 L862.065 522.3 L862.065 560.581 L871.614 560.581 L871.614 565.5 L846.73 565.5 L846.73 560.581 Z" fill="#000000" fill-rule="evenodd" fill-opacity="1" /><path clip-path="url(#clip890)" d="M895.919 526.149 Q891.405 526.149 889.119 530.605 Q886.863 535.032 886.863 543.944 Q886.863 552.827 889.119 557.283 Q891.405 561.71 895.919 561.71 Q900.462 561.71 902.719 557.283 Q905.005 552.827 905.005 543.944 Q905.005 535.032 902.719 530.605 Q900.462 526.149 895.919 526.149 M895.919 521.519 Q903.182 521.519 907.001 527.277 Q910.85 533.006 910.85 543.944 Q910.85 554.852 907.001 560.61 Q903.182 566.339 895.919 566.339 Q888.656 566.339 884.808 560.61 Q880.989 554.852 880.989 543.944 Q880.989 533.006 884.808 527.277 Q888.656 521.519 895.919 521.519 Z" fill="#000000" fill-rule="evenodd" fill-opacity="1" /><path clip-path="url(#clip890)" d="M933.622 526.149 Q929.108 526.149 926.822 530.605 Q924.565 535.032 924.565 543.944 Q924.565 552.827 926.822 557.283 Q929.108 561.71 933.622 561.71 Q938.164 561.71 940.421 557.283 Q942.707 552.827 942.707 543.944 Q942.707 535.032 940.421 530.605 Q938.164 526.149 933.622 526.149 M933.622 521.519 Q940.884 521.519 944.704 527.277 Q948.552 533.006 948.552 543.944 Q948.552 554.852 944.704 560.61 Q940.884 566.339 933.622 566.339 Q926.359 566.339 922.51 560.61 Q918.691 554.852 918.691 543.944 Q918.691 533.006 922.51 527.277 Q926.359 521.519 933.622 521.519 Z" fill="#000000" fill-rule="evenodd" fill-opacity="1" /><path clip-path="url(#clip890)" d="M1195.29 560.581 L1204.84 560.581 L1204.84 527.624 L1194.45 529.708 L1194.45 524.384 L1204.78 522.3 L1210.63 522.3 L1210.63 560.581 L1220.18 560.581 L1220.18 565.5 L1195.29 565.5 L1195.29 560.581 Z" fill="#000000" fill-rule="evenodd" fill-opacity="1" /><path clip-path="url(#clip890)" d="M1232.04 522.3 L1254.99 522.3 L1254.99 527.219 L1237.39 527.219 L1237.39 537.809 Q1238.67 537.375 1239.94 537.173 Q1241.21 536.941 1242.49 536.941 Q1249.72 536.941 1253.94 540.905 Q1258.17 544.87 1258.17 551.64 Q1258.17 558.614 1253.83 562.491 Q1249.49 566.339 1241.59 566.339 Q1238.87 566.339 1236.03 565.876 Q1233.23 565.413 1230.22 564.487 L1230.22 558.614 Q1232.82 560.031 1235.6 560.726 Q1238.38 561.42 1241.47 561.42 Q1246.48 561.42 1249.4 558.787 Q1252.32 556.154 1252.32 551.64 Q1252.32 547.126 1249.4 544.493 Q1246.48 541.86 1241.47 541.86 Q1239.13 541.86 1236.79 542.381 Q1234.47 542.902 1232.04 544.001 L1232.04 522.3 Z" fill="#000000" fill-rule="evenodd" fill-opacity="1" /><path clip-path="url(#clip890)" d="M1282.18 526.149 Q1277.67 526.149 1275.39 530.605 Q1273.13 535.032 1273.13 543.944 Q1273.13 552.827 1275.39 557.283 Q1277.67 561.71 1282.18 561.71 Q1286.73 561.71 1288.98 557.283 Q1291.27 552.827 1291.27 543.944 Q1291.27 535.032 1288.98 530.605 Q1286.73 526.149 1282.18 526.149 M1282.18 521.519 Q1289.45 521.519 1293.27 527.277 Q1297.12 533.006 1297.12 543.944 Q1297.12 554.852 1293.27 560.61 Q1289.45 566.339 1282.18 566.339 Q1274.92 566.339 1271.07 560.61 Q1267.25 554.852 1267.25 543.944 Q1267.25 533.006 1271.07 527.277 Q1274.92 521.519 1282.18 521.519 Z" fill="#000000" fill-rule="evenodd" fill-opacity="1" /><polyline clip-path="url(#clip890)" style="stroke:#000000; stroke-linecap:butt; stroke-linejoin:round; stroke-width:4; stroke-opacity:1; fill:none" points="
  200.094,501.1 200.094,47.2441 
  "/>
<polyline clip-path="url(#clip890)" style="stroke:#000000; stroke-linecap:butt; stroke-linejoin:round; stroke-width:4; stroke-opacity:1; fill:none" points="
  200.094,487.84 218.992,487.84 
  "/>
<polyline clip-path="url(#clip890)" style="stroke:#000000; stroke-linecap:butt; stroke-linejoin:round; stroke-width:4; stroke-opacity:1; fill:none" points="
  200.094,380.899 218.992,380.899 
  "/>
<polyline clip-path="url(#clip890)" style="stroke:#000000; stroke-linecap:butt; stroke-linejoin:round; stroke-width:4; stroke-opacity:1; fill:none" points="
  200.094,273.958 218.992,273.958 
  "/>
<polyline clip-path="url(#clip890)" style="stroke:#000000; stroke-linecap:butt; stroke-linejoin:round; stroke-width:4; stroke-opacity:1; fill:none" points="
  200.094,167.018 218.992,167.018 
  "/>
<polyline clip-path="url(#clip890)" style="stroke:#000000; stroke-linecap:butt; stroke-linejoin:round; stroke-width:4; stroke-opacity:1; fill:none" points="
  200.094,60.077 218.992,60.077 
  "/>
<path clip-path="url(#clip890)" d="M71.4226 470.088 Q66.9087 470.088 64.6229 474.544 Q62.3659 478.971 62.3659 487.883 Q62.3659 496.766 64.6229 501.222 Q66.9087 505.649 71.4226 505.649 Q75.9654 505.649 78.2223 501.222 Q80.5082 496.766 80.5082 487.883 Q80.5082 478.971 78.2223 474.544 Q75.9654 470.088 71.4226 470.088 M71.4226 465.458 Q78.6853 465.458 82.5047 471.216 Q86.3531 476.946 86.3531 487.883 Q86.3531 498.791 82.5047 504.55 Q78.6853 510.279 71.4226 510.279 Q64.1599 510.279 60.3115 504.55 Q56.4921 498.791 56.4921 487.883 Q56.4921 476.946 60.3115 471.216 Q64.1599 465.458 71.4226 465.458 Z" fill="#000000" fill-rule="evenodd" fill-opacity="1" /><path clip-path="url(#clip890)" d="M96.625 502.09 L102.73 502.09 L102.73 509.44 L96.625 509.44 L96.625 502.09 Z" fill="#000000" fill-rule="evenodd" fill-opacity="1" /><path clip-path="url(#clip890)" d="M127.962 470.088 Q123.448 470.088 121.162 474.544 Q118.905 478.971 118.905 487.883 Q118.905 496.766 121.162 501.222 Q123.448 505.649 127.962 505.649 Q132.504 505.649 134.761 501.222 Q137.047 496.766 137.047 487.883 Q137.047 478.971 134.761 474.544 Q132.504 470.088 127.962 470.088 M127.962 465.458 Q135.224 465.458 139.044 471.216 Q142.892 476.946 142.892 487.883 Q142.892 498.791 139.044 504.55 Q135.224 510.279 127.962 510.279 Q120.699 510.279 116.851 504.55 Q113.031 498.791 113.031 487.883 Q113.031 476.946 116.851 471.216 Q120.699 465.458 127.962 465.458 Z" fill="#000000" fill-rule="evenodd" fill-opacity="1" /><path clip-path="url(#clip890)" d="M165.664 470.088 Q161.15 470.088 158.864 474.544 Q156.607 478.971 156.607 487.883 Q156.607 496.766 158.864 501.222 Q161.15 505.649 165.664 505.649 Q170.207 505.649 172.464 501.222 Q174.75 496.766 174.75 487.883 Q174.75 478.971 172.464 474.544 Q170.207 470.088 165.664 470.088 M165.664 465.458 Q172.927 465.458 176.746 471.216 Q180.594 476.946 180.594 487.883 Q180.594 498.791 176.746 504.55 Q172.927 510.279 165.664 510.279 Q158.401 510.279 154.553 504.55 Q150.734 498.791 150.734 487.883 Q150.734 476.946 154.553 471.216 Q158.401 465.458 165.664 465.458 Z" fill="#000000" fill-rule="evenodd" fill-opacity="1" /><path clip-path="url(#clip890)" d="M72.6668 363.147 Q68.1529 363.147 65.8671 367.603 Q63.6101 372.03 63.6101 380.942 Q63.6101 389.825 65.8671 394.281 Q68.1529 398.708 72.6668 398.708 Q77.2096 398.708 79.4665 394.281 Q81.7524 389.825 81.7524 380.942 Q81.7524 372.03 79.4665 367.603 Q77.2096 363.147 72.6668 363.147 M72.6668 358.518 Q79.9295 358.518 83.7489 364.276 Q87.5973 370.005 87.5973 380.942 Q87.5973 391.851 83.7489 397.609 Q79.9295 403.338 72.6668 403.338 Q65.4041 403.338 61.5558 397.609 Q57.7363 391.851 57.7363 380.942 Q57.7363 370.005 61.5558 364.276 Q65.4041 358.518 72.6668 358.518 Z" fill="#000000" fill-rule="evenodd" fill-opacity="1" /><path clip-path="url(#clip890)" d="M97.8692 395.149 L103.975 395.149 L103.975 402.499 L97.8692 402.499 L97.8692 395.149 Z" fill="#000000" fill-rule="evenodd" fill-opacity="1" /><path clip-path="url(#clip890)" d="M121.741 397.58 L142.14 397.58 L142.14 402.499 L114.709 402.499 L114.709 397.58 Q118.037 394.137 123.766 388.35 Q129.524 382.534 131 380.855 Q133.807 377.702 134.906 375.531 Q136.035 373.332 136.035 371.22 Q136.035 367.777 133.604 365.607 Q131.202 363.437 127.325 363.437 Q124.576 363.437 121.509 364.391 Q118.471 365.346 114.999 367.285 L114.999 361.382 Q118.529 359.964 121.596 359.241 Q124.663 358.518 127.209 358.518 Q133.922 358.518 137.915 361.874 Q141.908 365.231 141.908 370.844 Q141.908 373.506 140.896 375.908 Q139.912 378.28 137.279 381.521 Q136.555 382.36 132.678 386.382 Q128.801 390.375 121.741 397.58 Z" fill="#000000" fill-rule="evenodd" fill-opacity="1" /><path clip-path="url(#clip890)" d="M154.466 359.299 L177.412 359.299 L177.412 364.218 L159.819 364.218 L159.819 374.808 Q161.092 374.374 162.365 374.172 Q163.639 373.94 164.912 373.94 Q172.145 373.94 176.37 377.904 Q180.594 381.868 180.594 388.639 Q180.594 395.612 176.254 399.49 Q171.914 403.338 164.015 403.338 Q161.295 403.338 158.459 402.875 Q155.652 402.412 152.643 401.486 L152.643 395.612 Q155.247 397.03 158.025 397.725 Q160.803 398.419 163.899 398.419 Q168.905 398.419 171.827 395.786 Q174.75 393.153 174.75 388.639 Q174.75 384.125 171.827 381.492 Q168.905 378.859 163.899 378.859 Q161.555 378.859 159.211 379.38 Q156.897 379.901 154.466 381 L154.466 359.299 Z" fill="#000000" fill-rule="evenodd" fill-opacity="1" /><path clip-path="url(#clip890)" d="M71.4226 256.207 Q66.9087 256.207 64.6229 260.663 Q62.3659 265.09 62.3659 274.002 Q62.3659 282.885 64.6229 287.341 Q66.9087 291.768 71.4226 291.768 Q75.9654 291.768 78.2223 287.341 Q80.5082 282.885 80.5082 274.002 Q80.5082 265.09 78.2223 260.663 Q75.9654 256.207 71.4226 256.207 M71.4226 251.577 Q78.6853 251.577 82.5047 257.335 Q86.3531 263.064 86.3531 274.002 Q86.3531 284.91 82.5047 290.668 Q78.6853 296.397 71.4226 296.397 Q64.1599 296.397 60.3115 290.668 Q56.4921 284.91 56.4921 274.002 Q56.4921 263.064 60.3115 257.335 Q64.1599 251.577 71.4226 251.577 Z" fill="#000000" fill-rule="evenodd" fill-opacity="1" /><path clip-path="url(#clip890)" d="M96.625 288.209 L102.73 288.209 L102.73 295.558 L96.625 295.558 L96.625 288.209 Z" fill="#000000" fill-rule="evenodd" fill-opacity="1" /><path clip-path="url(#clip890)" d="M115.52 252.358 L138.465 252.358 L138.465 257.277 L120.873 257.277 L120.873 267.867 Q122.146 267.433 123.419 267.231 Q124.692 266.999 125.965 266.999 Q133.199 266.999 137.423 270.963 Q141.648 274.928 141.648 281.698 Q141.648 288.672 137.308 292.549 Q132.967 296.397 125.068 296.397 Q122.348 296.397 119.513 295.934 Q116.706 295.471 113.697 294.546 L113.697 288.672 Q116.301 290.09 119.079 290.784 Q121.856 291.478 124.952 291.478 Q129.958 291.478 132.881 288.845 Q135.803 286.212 135.803 281.698 Q135.803 277.185 132.881 274.551 Q129.958 271.918 124.952 271.918 Q122.609 271.918 120.265 272.439 Q117.95 272.96 115.52 274.06 L115.52 252.358 Z" fill="#000000" fill-rule="evenodd" fill-opacity="1" /><path clip-path="url(#clip890)" d="M165.664 256.207 Q161.15 256.207 158.864 260.663 Q156.607 265.09 156.607 274.002 Q156.607 282.885 158.864 287.341 Q161.15 291.768 165.664 291.768 Q170.207 291.768 172.464 287.341 Q174.75 282.885 174.75 274.002 Q174.75 265.09 172.464 260.663 Q170.207 256.207 165.664 256.207 M165.664 251.577 Q172.927 251.577 176.746 257.335 Q180.594 263.064 180.594 274.002 Q180.594 284.91 176.746 290.668 Q172.927 296.397 165.664 296.397 Q158.401 296.397 154.553 290.668 Q150.734 284.91 150.734 274.002 Q150.734 263.064 154.553 257.335 Q158.401 251.577 165.664 251.577 Z" fill="#000000" fill-rule="evenodd" fill-opacity="1" /><path clip-path="url(#clip890)" d="M72.6668 149.266 Q68.1529 149.266 65.8671 153.722 Q63.6101 158.149 63.6101 167.061 Q63.6101 175.944 65.8671 180.4 Q68.1529 184.827 72.6668 184.827 Q77.2096 184.827 79.4665 180.4 Q81.7524 175.944 81.7524 167.061 Q81.7524 158.149 79.4665 153.722 Q77.2096 149.266 72.6668 149.266 M72.6668 144.636 Q79.9295 144.636 83.7489 150.394 Q87.5973 156.124 87.5973 167.061 Q87.5973 177.97 83.7489 183.728 Q79.9295 189.457 72.6668 189.457 Q65.4041 189.457 61.5558 183.728 Q57.7363 177.97 57.7363 167.061 Q57.7363 156.124 61.5558 150.394 Q65.4041 144.636 72.6668 144.636 Z" fill="#000000" fill-rule="evenodd" fill-opacity="1" /><path clip-path="url(#clip890)" d="M97.8692 181.268 L103.975 181.268 L103.975 188.618 L97.8692 188.618 L97.8692 181.268 Z" fill="#000000" fill-rule="evenodd" fill-opacity="1" /><path clip-path="url(#clip890)" d="M115.23 145.418 L143.008 145.418 L143.008 147.906 L127.325 188.618 L121.22 188.618 L135.977 150.337 L115.23 150.337 L115.23 145.418 Z" fill="#000000" fill-rule="evenodd" fill-opacity="1" /><path clip-path="url(#clip890)" d="M154.466 145.418 L177.412 145.418 L177.412 150.337 L159.819 150.337 L159.819 160.927 Q161.092 160.493 162.365 160.29 Q163.639 160.059 164.912 160.059 Q172.145 160.059 176.37 164.023 Q180.594 167.987 180.594 174.758 Q180.594 181.731 176.254 185.608 Q171.914 189.457 164.015 189.457 Q161.295 189.457 158.459 188.994 Q155.652 188.531 152.643 187.605 L152.643 181.731 Q155.247 183.149 158.025 183.843 Q160.803 184.538 163.899 184.538 Q168.905 184.538 171.827 181.905 Q174.75 179.272 174.75 174.758 Q174.75 170.244 171.827 167.611 Q168.905 164.978 163.899 164.978 Q161.555 164.978 159.211 165.499 Q156.897 166.019 154.466 167.119 L154.466 145.418 Z" fill="#000000" fill-rule="evenodd" fill-opacity="1" /><path clip-path="url(#clip890)" d="M59.9354 76.758 L69.484 76.758 L69.484 43.801 L59.0963 45.8843 L59.0963 40.5603 L69.4261 38.477 L75.271 38.477 L75.271 76.758 L84.8195 76.758 L84.8195 81.677 L59.9354 81.677 L59.9354 76.758 Z" fill="#000000" fill-rule="evenodd" fill-opacity="1" /><path clip-path="url(#clip890)" d="M96.625 74.3275 L102.73 74.3275 L102.73 81.677 L96.625 81.677 L96.625 74.3275 Z" fill="#000000" fill-rule="evenodd" fill-opacity="1" /><path clip-path="url(#clip890)" d="M127.962 42.3253 Q123.448 42.3253 121.162 46.7813 Q118.905 51.2084 118.905 60.1204 Q118.905 69.0034 121.162 73.4594 Q123.448 77.8865 127.962 77.8865 Q132.504 77.8865 134.761 73.4594 Q137.047 69.0034 137.047 60.1204 Q137.047 51.2084 134.761 46.7813 Q132.504 42.3253 127.962 42.3253 M127.962 37.6957 Q135.224 37.6957 139.044 43.4538 Q142.892 49.1829 142.892 60.1204 Q142.892 71.0289 139.044 76.787 Q135.224 82.5161 127.962 82.5161 Q120.699 82.5161 116.851 76.787 Q113.031 71.0289 113.031 60.1204 Q113.031 49.1829 116.851 43.4538 Q120.699 37.6957 127.962 37.6957 Z" fill="#000000" fill-rule="evenodd" fill-opacity="1" /><path clip-path="url(#clip890)" d="M165.664 42.3253 Q161.15 42.3253 158.864 46.7813 Q156.607 51.2084 156.607 60.1204 Q156.607 69.0034 158.864 73.4594 Q161.15 77.8865 165.664 77.8865 Q170.207 77.8865 172.464 73.4594 Q174.75 69.0034 174.75 60.1204 Q174.75 51.2084 172.464 46.7813 Q170.207 42.3253 165.664 42.3253 M165.664 37.6957 Q172.927 37.6957 176.746 43.4538 Q180.594 49.1829 180.594 60.1204 Q180.594 71.0289 176.746 76.787 Q172.927 82.5161 165.664 82.5161 Q158.401 82.5161 154.553 76.787 Q150.734 71.0289 150.734 60.1204 Q150.734 49.1829 154.553 43.4538 Q158.401 37.6957 165.664 37.6957 Z" fill="#000000" fill-rule="evenodd" fill-opacity="1" /><polyline clip-path="url(#clip892)" style="stroke:#ff00ff; stroke-linecap:butt; stroke-linejoin:round; stroke-width:16; stroke-opacity:1; fill:none" points="
  207.066,274.065 214.037,274.147 221.008,274.178 227.98,274.21 234.951,274.237 241.922,274.261 248.893,274.282 255.865,274.3 262.836,274.316 269.807,274.329 
  276.778,274.34 283.75,274.35 290.721,274.358 297.692,274.364 304.663,274.369 311.635,274.374 318.606,274.377 325.577,274.379 332.549,274.381 339.52,274.382 
  346.491,274.382 353.462,274.382 360.434,274.381 367.405,274.38 374.376,274.379 381.347,274.377 388.319,274.375 395.29,274.373 402.261,274.371 409.233,274.368 
  416.204,274.365 423.175,274.363 430.146,274.36 437.118,274.357 444.089,274.354 451.06,274.35 458.031,274.347 465.003,274.344 471.974,274.341 478.945,274.337 
  485.916,274.334 492.888,274.331 499.859,274.327 506.83,274.324 513.802,274.321 520.773,274.317 527.744,274.314 534.715,274.311 541.687,274.307 548.658,274.304 
  555.629,274.301 562.6,274.297 569.572,274.294 576.543,274.291 583.514,274.288 590.485,274.284 597.457,274.281 604.428,274.278 611.399,274.275 618.371,274.272 
  625.342,274.269 632.313,274.266 639.284,274.263 646.256,274.26 653.227,274.257 660.198,274.254 667.169,274.251 674.141,274.248 681.112,274.245 688.083,274.242 
  695.054,274.24 702.026,274.237 708.997,274.234 715.968,274.231 722.94,274.229 729.911,274.226 736.882,274.223 743.853,274.221 750.825,274.218 757.796,274.215 
  764.767,274.213 771.738,274.21 778.71,274.208 785.681,274.205 792.652,274.203 799.623,274.201 806.595,274.198 813.566,274.196 820.537,274.193 827.509,274.191 
  834.48,274.189 841.451,274.186 848.422,274.184 855.394,274.182 862.365,274.18 869.336,274.177 876.307,274.175 883.279,274.173 890.25,274.171 897.221,274.169 
  904.193,274.167 911.164,274.165 918.135,274.163 925.106,274.161 932.078,274.159 939.049,274.157 946.02,274.155 952.991,274.153 959.963,274.151 966.934,274.149 
  973.905,274.147 980.876,274.145 987.848,274.143 994.819,274.141 1001.79,274.14 1008.76,274.138 1015.73,274.136 1022.7,274.134 1029.68,274.132 1036.65,274.131 
  1043.62,274.129 1050.59,274.127 1057.56,274.126 1064.53,274.124 1071.5,274.122 1078.47,274.121 1085.45,274.119 1092.42,274.117 1099.39,274.116 1106.36,274.114 
  1113.33,274.113 1120.3,274.111 1127.27,274.11 1134.24,274.108 1141.22,274.107 1148.19,274.105 1155.16,274.104 1162.13,274.102 1169.1,274.101 1176.07,274.099 
  1183.04,274.098 1190.01,274.097 1196.99,274.095 1203.96,274.094 1210.93,274.093 1217.9,274.091 1224.87,274.09 1231.84,274.089 1238.81,274.087 1245.78,274.086 
  1252.76,274.085 
  "/>
<polyline clip-path="url(#clip892)" style="stroke:#2000d4; stroke-linecap:butt; stroke-linejoin:round; stroke-width:16; stroke-opacity:1; fill:none" stroke-dasharray="8, 16" points="
  207.066,487.84 214.037,487.84 221.008,487.84 227.98,487.84 234.951,487.84 241.922,487.84 248.893,487.84 255.865,487.84 262.836,487.84 269.807,487.84 
  276.778,487.84 283.75,487.84 290.721,487.84 297.692,487.84 304.663,487.84 311.635,487.84 318.606,487.84 325.577,487.84 332.549,487.84 339.52,487.84 
  346.491,487.84 353.462,487.84 360.434,487.839 367.405,487.839 374.376,487.839 381.347,487.839 388.319,487.839 395.29,487.839 402.261,487.839 409.233,487.839 
  416.204,487.839 423.175,487.839 430.146,487.839 437.118,487.839 444.089,487.839 451.06,487.839 458.031,487.839 465.003,487.839 471.974,487.839 478.945,487.839 
  485.916,487.839 492.888,487.839 499.859,487.839 506.83,487.839 513.802,487.839 520.773,487.839 527.744,487.839 534.715,487.839 541.687,487.839 548.658,487.839 
  555.629,487.839 562.6,487.839 569.572,487.839 576.543,487.839 583.514,487.839 590.485,487.839 597.457,487.839 604.428,487.839 611.399,487.839 618.371,487.839 
  625.342,487.839 632.313,487.839 639.284,487.839 646.256,487.839 653.227,487.839 660.198,487.839 667.169,487.839 674.141,487.839 681.112,487.839 688.083,487.839 
  695.054,487.839 702.026,487.839 708.997,487.839 715.968,487.839 722.94,487.839 729.911,487.839 736.882,487.839 743.853,487.839 750.825,487.839 757.796,487.839 
  764.767,487.839 771.738,487.839 778.71,487.839 785.681,487.839 792.652,487.839 799.623,487.839 806.595,487.839 813.566,487.839 820.537,487.839 827.509,487.839 
  834.48,487.839 841.451,487.839 848.422,487.839 855.394,487.839 862.365,487.839 869.336,487.839 876.307,487.839 883.279,487.839 890.25,487.839 897.221,487.839 
  904.193,487.839 911.164,487.839 918.135,487.839 925.106,487.839 932.078,487.839 939.049,487.839 946.02,487.839 952.991,487.839 959.963,487.839 966.934,487.839 
  973.905,487.839 980.876,487.839 987.848,487.839 994.819,487.839 1001.79,487.839 1008.76,487.839 1015.73,487.839 1022.7,487.839 1029.68,487.839 1036.65,487.839 
  1043.62,487.839 1050.59,487.839 1057.56,487.839 1064.53,487.839 1071.5,487.839 1078.47,487.839 1085.45,487.839 1092.42,487.839 1099.39,487.839 1106.36,487.839 
  1113.33,487.839 1120.3,487.839 1127.27,487.839 1134.24,487.839 1141.22,487.839 1148.19,487.839 1155.16,487.839 1162.13,487.839 1169.1,487.839 1176.07,487.839 
  1183.04,487.839 1190.01,487.839 1196.99,487.839 1203.96,487.839 1210.93,487.839 1217.9,487.839 1224.87,487.839 1231.84,487.839 1238.81,487.839 1245.78,487.839 
  1252.76,487.839 
  "/>
<polyline clip-path="url(#clip892)" style="stroke:#008900; stroke-linecap:butt; stroke-linejoin:round; stroke-width:16; stroke-opacity:1; fill:none" stroke-dasharray="64, 40" points="
  207.066,487.84 214.037,487.84 221.008,487.839 227.98,487.839 234.951,487.839 241.922,487.839 248.893,487.839 255.865,487.839 262.836,487.839 269.807,487.839 
  276.778,487.839 283.75,487.839 290.721,487.839 297.692,487.839 304.663,487.839 311.635,487.839 318.606,487.839 325.577,487.839 332.549,487.839 339.52,487.839 
  346.491,487.839 353.462,487.839 360.434,487.839 367.405,487.839 374.376,487.839 381.347,487.839 388.319,487.839 395.29,487.839 402.261,487.839 409.233,487.839 
  416.204,487.839 423.175,487.839 430.146,487.839 437.118,487.839 444.089,487.839 451.06,487.839 458.031,487.839 465.003,487.839 471.974,487.839 478.945,487.839 
  485.916,487.839 492.888,487.839 499.859,487.839 506.83,487.839 513.802,487.839 520.773,487.839 527.744,487.839 534.715,487.839 541.687,487.839 548.658,487.839 
  555.629,487.839 562.6,487.839 569.572,487.839 576.543,487.839 583.514,487.839 590.485,487.839 597.457,487.839 604.428,487.839 611.399,487.839 618.371,487.839 
  625.342,487.839 632.313,487.839 639.284,487.839 646.256,487.839 653.227,487.839 660.198,487.839 667.169,487.839 674.141,487.839 681.112,487.839 688.083,487.839 
  695.054,487.839 702.026,487.839 708.997,487.839 715.968,487.839 722.94,487.839 729.911,487.839 736.882,487.839 743.853,487.839 750.825,487.839 757.796,487.839 
  764.767,487.839 771.738,487.839 778.71,487.839 785.681,487.839 792.652,487.839 799.623,487.839 806.595,487.839 813.566,487.839 820.537,487.839 827.509,487.839 
  834.48,487.839 841.451,487.839 848.422,487.839 855.394,487.839 862.365,487.839 869.336,487.839 876.307,487.839 883.279,487.839 890.25,487.839 897.221,487.839 
  904.193,487.839 911.164,487.839 918.135,487.839 925.106,487.839 932.078,487.839 939.049,487.839 946.02,487.839 952.991,487.839 959.963,487.839 966.934,487.839 
  973.905,487.839 980.876,487.839 987.848,487.839 994.819,487.839 1001.79,487.839 1008.76,487.839 1015.73,487.839 1022.7,487.839 1029.68,487.839 1036.65,487.839 
  1043.62,487.839 1050.59,487.839 1057.56,487.839 1064.53,487.839 1071.5,487.839 1078.47,487.839 1085.45,487.839 1092.42,487.839 1099.39,487.839 1106.36,487.839 
  1113.33,487.839 1120.3,487.839 1127.27,487.839 1134.24,487.839 1141.22,487.839 1148.19,487.839 1155.16,487.839 1162.13,487.839 1169.1,487.839 1176.07,487.839 
  1183.04,487.839 1190.01,487.839 1196.99,487.839 1203.96,487.839 1210.93,487.839 1217.9,487.839 1224.87,487.839 1231.84,487.839 1238.81,487.839 1245.78,487.839 
  1252.76,487.839 
  "/>
<polyline clip-path="url(#clip892)" style="stroke:#008900; stroke-linecap:butt; stroke-linejoin:round; stroke-width:16; stroke-opacity:1; fill:none" stroke-dasharray="8, 16" points="
  207.066,487.84 214.037,487.84 221.008,487.839 227.98,487.839 234.951,487.839 241.922,487.839 248.893,487.839 255.865,487.839 262.836,487.839 269.807,487.839 
  276.778,487.839 283.75,487.839 290.721,487.839 297.692,487.839 304.663,487.839 311.635,487.839 318.606,487.84 325.577,487.84 332.549,487.84 339.52,487.84 
  346.491,487.84 353.462,487.84 360.434,487.84 367.405,487.84 374.376,487.84 381.347,487.84 388.319,487.84 395.29,487.84 402.261,487.84 409.233,487.84 
  416.204,487.84 423.175,487.84 430.146,487.84 437.118,487.84 444.089,487.84 451.06,487.84 458.031,487.84 465.003,487.84 471.974,487.84 478.945,487.84 
  485.916,487.84 492.888,487.84 499.859,487.84 506.83,487.84 513.802,487.84 520.773,487.84 527.744,487.84 534.715,487.84 541.687,487.84 548.658,487.84 
  555.629,487.84 562.6,487.84 569.572,487.84 576.543,487.84 583.514,487.84 590.485,487.84 597.457,487.84 604.428,487.84 611.399,487.84 618.371,487.84 
  625.342,487.84 632.313,487.84 639.284,487.84 646.256,487.84 653.227,487.84 660.198,487.84 667.169,487.84 674.141,487.84 681.112,487.84 688.083,487.84 
  695.054,487.84 702.026,487.84 708.997,487.84 715.968,487.84 722.94,487.84 729.911,487.84 736.882,487.84 743.853,487.84 750.825,487.84 757.796,487.84 
  764.767,487.84 771.738,487.84 778.71,487.84 785.681,487.84 792.652,487.84 799.623,487.84 806.595,487.84 813.566,487.84 820.537,487.84 827.509,487.84 
  834.48,487.84 841.451,487.84 848.422,487.84 855.394,487.84 862.365,487.84 869.336,487.84 876.307,487.84 883.279,487.84 890.25,487.84 897.221,487.84 
  904.193,487.84 911.164,487.84 918.135,487.84 925.106,487.84 932.078,487.84 939.049,487.84 946.02,487.84 952.991,487.84 959.963,487.84 966.934,487.84 
  973.905,487.84 980.876,487.84 987.848,487.84 994.819,487.84 1001.79,487.84 1008.76,487.84 1015.73,487.84 1022.7,487.84 1029.68,487.84 1036.65,487.84 
  1043.62,487.84 1050.59,487.84 1057.56,487.84 1064.53,487.84 1071.5,487.84 1078.47,487.84 1085.45,487.84 1092.42,487.84 1099.39,487.84 1106.36,487.84 
  1113.33,487.84 1120.3,487.84 1127.27,487.84 1134.24,487.84 1141.22,487.84 1148.19,487.84 1155.16,487.84 1162.13,487.84 1169.1,487.84 1176.07,487.84 
  1183.04,487.84 1190.01,487.84 1196.99,487.84 1203.96,487.84 1210.93,487.84 1217.9,487.84 1224.87,487.84 1231.84,487.84 1238.81,487.84 1245.78,487.84 
  1252.76,487.84 
  "/>
<polyline clip-path="url(#clip892)" style="stroke:#2000d4; stroke-linecap:butt; stroke-linejoin:round; stroke-width:16; stroke-opacity:1; fill:none" points="
  207.066,487.412 214.037,487.081 221.008,486.93 227.98,486.799 234.951,486.684 241.922,486.585 248.893,486.498 255.865,486.424 262.836,486.361 269.807,486.307 
  276.778,486.261 283.75,486.222 290.721,486.19 297.692,486.163 304.663,486.142 311.635,486.125 318.606,486.112 325.577,486.103 332.549,486.096 339.52,486.092 
  346.491,486.091 353.462,486.092 360.434,486.095 367.405,486.099 374.376,486.104 381.347,486.111 388.319,486.119 395.29,486.128 402.261,486.138 409.233,486.148 
  416.204,486.159 423.175,486.171 430.146,486.183 437.118,486.195 444.089,486.208 451.06,486.221 458.031,486.234 465.003,486.248 471.974,486.261 478.945,486.275 
  485.916,486.289 492.888,486.303 499.859,486.316 506.83,486.33 513.802,486.344 520.773,486.358 527.744,486.372 534.715,486.386 541.687,486.399 548.658,486.413 
  555.629,486.427 562.6,486.44 569.572,486.454 576.543,486.467 583.514,486.48 590.485,486.493 597.457,486.506 604.428,486.519 611.399,486.532 618.371,486.545 
  625.342,486.558 632.313,486.57 639.284,486.583 646.256,486.595 653.227,486.607 660.198,486.619 667.169,486.631 674.141,486.643 681.112,486.655 688.083,486.667 
  695.054,486.678 702.026,486.69 708.997,486.701 715.968,486.712 722.94,486.724 729.911,486.735 736.882,486.746 743.853,486.756 750.825,486.767 757.796,486.778 
  764.767,486.788 771.738,486.799 778.71,486.809 785.681,486.819 792.652,486.829 799.623,486.839 806.595,486.849 813.566,486.859 820.537,486.869 827.509,486.878 
  834.48,486.888 841.451,486.897 848.422,486.907 855.394,486.916 862.365,486.925 869.336,486.934 876.307,486.943 883.279,486.952 890.25,486.961 897.221,486.97 
  904.193,486.978 911.164,486.987 918.135,486.995 925.106,487.004 932.078,487.012 939.049,487.02 946.02,487.028 952.991,487.036 959.963,487.044 966.934,487.052 
  973.905,487.06 980.876,487.068 987.848,487.076 994.819,487.083 1001.79,487.091 1008.76,487.098 1015.73,487.106 1022.7,487.113 1029.68,487.12 1036.65,487.127 
  1043.62,487.134 1050.59,487.141 1057.56,487.148 1064.53,487.155 1071.5,487.162 1078.47,487.169 1085.45,487.175 1092.42,487.182 1099.39,487.189 1106.36,487.195 
  1113.33,487.201 1120.3,487.208 1127.27,487.214 1134.24,487.22 1141.22,487.226 1148.19,487.233 1155.16,487.239 1162.13,487.245 1169.1,487.251 1176.07,487.256 
  1183.04,487.262 1190.01,487.268 1196.99,487.274 1203.96,487.279 1210.93,487.285 1217.9,487.29 1224.87,487.296 1231.84,487.301 1238.81,487.307 1245.78,487.312 
  1252.76,487.317 
  "/>
<polyline clip-path="url(#clip892)" style="stroke:#008900; stroke-linecap:butt; stroke-linejoin:round; stroke-width:16; stroke-opacity:1; fill:none" points="
  207.066,487.626 214.037,487.58 221.008,487.608 227.98,487.631 234.951,487.651 241.922,487.669 248.893,487.684 255.865,487.698 262.836,487.711 269.807,487.722 
  276.778,487.732 283.75,487.741 290.721,487.748 297.692,487.755 304.663,487.762 311.635,487.767 318.606,487.772 325.577,487.777 332.549,487.781 339.52,487.784 
  346.491,487.787 353.462,487.79 360.434,487.793 367.405,487.795 374.376,487.797 381.347,487.799 388.319,487.801 395.29,487.802 402.261,487.804 409.233,487.805 
  416.204,487.806 423.175,487.807 430.146,487.808 437.118,487.809 444.089,487.81 451.06,487.81 458.031,487.811 465.003,487.812 471.974,487.812 478.945,487.813 
  485.916,487.813 492.888,487.814 499.859,487.814 506.83,487.815 513.802,487.815 520.773,487.815 527.744,487.816 534.715,487.816 541.687,487.817 548.658,487.817 
  555.629,487.817 562.6,487.817 569.572,487.818 576.543,487.818 583.514,487.818 590.485,487.818 597.457,487.819 604.428,487.819 611.399,487.819 618.371,487.819 
  625.342,487.82 632.313,487.82 639.284,487.82 646.256,487.82 653.227,487.82 660.198,487.821 667.169,487.821 674.141,487.821 681.112,487.821 688.083,487.821 
  695.054,487.822 702.026,487.822 708.997,487.822 715.968,487.822 722.94,487.822 729.911,487.823 736.882,487.823 743.853,487.823 750.825,487.823 757.796,487.823 
  764.767,487.823 771.738,487.824 778.71,487.824 785.681,487.824 792.652,487.824 799.623,487.824 806.595,487.824 813.566,487.825 820.537,487.825 827.509,487.825 
  834.48,487.825 841.451,487.825 848.422,487.825 855.394,487.825 862.365,487.826 869.336,487.826 876.307,487.826 883.279,487.826 890.25,487.826 897.221,487.826 
  904.193,487.826 911.164,487.826 918.135,487.827 925.106,487.827 932.078,487.827 939.049,487.827 946.02,487.827 952.991,487.827 959.963,487.827 966.934,487.827 
  973.905,487.828 980.876,487.828 987.848,487.828 994.819,487.828 1001.79,487.828 1008.76,487.828 1015.73,487.828 1022.7,487.828 1029.68,487.829 1036.65,487.829 
  1043.62,487.829 1050.59,487.829 1057.56,487.829 1064.53,487.829 1071.5,487.829 1078.47,487.829 1085.45,487.829 1092.42,487.829 1099.39,487.83 1106.36,487.83 
  1113.33,487.83 1120.3,487.83 1127.27,487.83 1134.24,487.83 1141.22,487.83 1148.19,487.83 1155.16,487.83 1162.13,487.83 1169.1,487.831 1176.07,487.831 
  1183.04,487.831 1190.01,487.831 1196.99,487.831 1203.96,487.831 1210.93,487.831 1217.9,487.831 1224.87,487.831 1231.84,487.831 1238.81,487.831 1245.78,487.831 
  1252.76,487.832 
  "/>
<polyline clip-path="url(#clip892)" style="stroke:#7f7f7f; stroke-linecap:butt; stroke-linejoin:round; stroke-width:16; stroke-opacity:1; fill:none" points="
  207.066,60.077 214.037,133.824 221.008,183.756 227.98,222.191 234.951,252.394 241.922,277.145 248.893,297.94 255.865,315.783 262.836,331.341 269.807,345.083 
  276.778,357.345 283.75,368.377 290.721,378.367 297.692,387.461 304.663,395.773 311.635,403.395 318.606,410.4 325.577,416.85 332.549,422.795 339.52,428.278 
  346.491,433.336 353.462,438.002 360.434,442.304 367.405,446.268 374.376,449.918 381.347,453.274 388.319,456.358 395.29,459.187 402.261,461.779 409.233,464.152 
  416.204,466.322 423.175,468.302 430.146,470.107 437.118,471.752 444.089,473.248 451.06,474.607 458.031,475.841 465.003,476.96 471.974,477.975 478.945,478.893 
  485.916,479.724 492.888,480.475 499.859,481.153 506.83,481.766 513.802,482.32 520.773,482.819 527.744,483.269 534.715,483.675 541.687,484.041 548.658,484.371 
  555.629,484.668 562.6,484.936 569.572,485.177 576.543,485.394 583.514,485.59 590.485,485.766 597.457,485.925 604.428,486.068 611.399,486.198 618.371,486.314 
  625.342,486.419 632.313,486.514 639.284,486.6 646.256,486.677 653.227,486.747 660.198,486.81 667.169,486.867 674.141,486.919 681.112,486.966 688.083,487.008 
  695.054,487.047 702.026,487.082 708.997,487.114 715.968,487.143 722.94,487.17 729.911,487.194 736.882,487.216 743.853,487.236 750.825,487.255 757.796,487.272 
  764.767,487.288 771.738,487.303 778.71,487.316 785.681,487.329 792.652,487.341 799.623,487.351 806.595,487.362 813.566,487.371 820.537,487.38 827.509,487.388 
  834.48,487.396 841.451,487.404 848.422,487.411 855.394,487.418 862.365,487.424 869.336,487.43 876.307,487.436 883.279,487.442 890.25,487.447 897.221,487.452 
  904.193,487.457 911.164,487.462 918.135,487.467 925.106,487.471 932.078,487.476 939.049,487.48 946.02,487.484 952.991,487.488 959.963,487.492 966.934,487.496 
  973.905,487.5 980.876,487.503 987.848,487.507 994.819,487.511 1001.79,487.514 1008.76,487.518 1015.73,487.521 1022.7,487.524 1029.68,487.528 1036.65,487.531 
  1043.62,487.534 1050.59,487.537 1057.56,487.54 1064.53,487.543 1071.5,487.546 1078.47,487.549 1085.45,487.552 1092.42,487.555 1099.39,487.558 1106.36,487.561 
  1113.33,487.564 1120.3,487.567 1127.27,487.569 1134.24,487.572 1141.22,487.575 1148.19,487.577 1155.16,487.58 1162.13,487.583 1169.1,487.585 1176.07,487.588 
  1183.04,487.59 1190.01,487.593 1196.99,487.595 1203.96,487.598 1210.93,487.6 1217.9,487.602 1224.87,487.605 1231.84,487.607 1238.81,487.609 1245.78,487.612 
  1252.76,487.614 
  "/>
<polyline clip-path="url(#clip892)" style="stroke:#895f55; stroke-linecap:butt; stroke-linejoin:round; stroke-width:16; stroke-opacity:1; fill:none" points="
  214.037,487.416 221.008,487.111 227.98,486.967 234.951,486.842 241.922,486.732 248.893,486.637 255.865,486.554 262.836,486.483 269.807,486.422 276.778,486.37 
  283.75,486.325 290.721,486.288 297.692,486.257 304.663,486.232 311.635,486.211 318.606,486.195 325.577,486.183 332.549,486.174 339.52,486.167 346.491,486.164 
  353.462,486.163 360.434,486.163 367.405,486.166 374.376,486.17 381.347,486.175 388.319,486.182 395.29,486.189 402.261,486.198 409.233,486.207 416.204,486.217 
  423.175,486.228 430.146,486.239 437.118,486.251 444.089,486.262 451.06,486.275 458.031,486.287 465.003,486.3 471.974,486.313 478.945,486.326 485.916,486.339 
  492.888,486.352 499.859,486.365 506.83,486.378 513.802,486.392 520.773,486.405 527.744,486.418 534.715,486.432 541.687,486.445 548.658,486.458 555.629,486.471 
  562.6,486.484 569.572,486.497 576.543,486.51 583.514,486.523 590.485,486.536 597.457,486.548 604.428,486.561 611.399,486.573 618.371,486.585 625.342,486.598 
  632.313,486.61 639.284,486.622 646.256,486.634 653.227,486.646 660.198,486.657 667.169,486.669 674.141,486.681 681.112,486.692 688.083,486.703 695.054,486.715 
  702.026,486.726 708.997,486.737 715.968,486.748 722.94,486.758 729.911,486.769 736.882,486.78 743.853,486.79 750.825,486.8 757.796,486.811 764.767,486.821 
  771.738,486.831 778.71,486.841 785.681,486.851 792.652,486.861 799.623,486.87 806.595,486.88 813.566,486.89 820.537,486.899 827.509,486.908 834.48,486.918 
  841.451,486.927 848.422,486.936 855.394,486.945 862.365,486.954 869.336,486.962 876.307,486.971 883.279,486.98 890.25,486.988 897.221,486.997 904.193,487.005 
  911.164,487.013 918.135,487.022 925.106,487.03 932.078,487.038 939.049,487.046 946.02,487.054 952.991,487.061 959.963,487.069 966.934,487.077 973.905,487.084 
  980.876,487.092 987.848,487.099 994.819,487.107 1001.79,487.114 1008.76,487.121 1015.73,487.128 1022.7,487.135 1029.68,487.142 1036.65,487.149 1043.62,487.156 
  1050.59,487.163 1057.56,487.17 1064.53,487.176 1071.5,487.183 1078.47,487.19 1085.45,487.196 1092.42,487.202 1099.39,487.209 1106.36,487.215 1113.33,487.221 
  1120.3,487.227 1127.27,487.234 1134.24,487.24 1141.22,487.246 1148.19,487.251 1155.16,487.257 1162.13,487.263 1169.1,487.269 1176.07,487.275 1183.04,487.28 
  1190.01,487.286 1196.99,487.291 1203.96,487.297 1210.93,487.302 1217.9,487.307 1224.87,487.313 1231.84,487.318 1238.81,487.323 1245.78,487.328 1252.76,487.333 
  
  "/>
<polyline clip-path="url(#clip892)" style="stroke:#2000d4; stroke-linecap:butt; stroke-linejoin:round; stroke-width:16; stroke-opacity:1; fill:none" stroke-dasharray="64, 40" points="
  207.066,487.84 214.037,487.84 221.008,487.84 227.98,487.84 234.951,487.84 241.922,487.84 248.893,487.84 255.865,487.84 262.836,487.84 269.807,487.84 
  276.778,487.84 283.75,487.84 290.721,487.84 297.692,487.84 304.663,487.84 311.635,487.84 318.606,487.84 325.577,487.84 332.549,487.84 339.52,487.84 
  346.491,487.84 353.462,487.84 360.434,487.84 367.405,487.84 374.376,487.84 381.347,487.84 388.319,487.839 395.29,487.839 402.261,487.839 409.233,487.839 
  416.204,487.839 423.175,487.839 430.146,487.839 437.118,487.839 444.089,487.839 451.06,487.839 458.031,487.839 465.003,487.839 471.974,487.839 478.945,487.839 
  485.916,487.839 492.888,487.839 499.859,487.839 506.83,487.839 513.802,487.839 520.773,487.839 527.744,487.839 534.715,487.839 541.687,487.839 548.658,487.839 
  555.629,487.839 562.6,487.839 569.572,487.839 576.543,487.839 583.514,487.839 590.485,487.839 597.457,487.839 604.428,487.839 611.399,487.839 618.371,487.839 
  625.342,487.839 632.313,487.839 639.284,487.839 646.256,487.839 653.227,487.839 660.198,487.839 667.169,487.839 674.141,487.839 681.112,487.839 688.083,487.839 
  695.054,487.839 702.026,487.839 708.997,487.839 715.968,487.839 722.94,487.839 729.911,487.839 736.882,487.839 743.853,487.839 750.825,487.839 757.796,487.839 
  764.767,487.839 771.738,487.839 778.71,487.839 785.681,487.839 792.652,487.839 799.623,487.839 806.595,487.839 813.566,487.839 820.537,487.839 827.509,487.839 
  834.48,487.839 841.451,487.839 848.422,487.839 855.394,487.839 862.365,487.839 869.336,487.839 876.307,487.839 883.279,487.839 890.25,487.839 897.221,487.839 
  904.193,487.839 911.164,487.839 918.135,487.839 925.106,487.839 932.078,487.839 939.049,487.839 946.02,487.839 952.991,487.839 959.963,487.839 966.934,487.839 
  973.905,487.839 980.876,487.839 987.848,487.839 994.819,487.839 1001.79,487.839 1008.76,487.839 1015.73,487.839 1022.7,487.839 1029.68,487.839 1036.65,487.839 
  1043.62,487.839 1050.59,487.839 1057.56,487.839 1064.53,487.839 1071.5,487.839 1078.47,487.839 1085.45,487.839 1092.42,487.839 1099.39,487.839 1106.36,487.839 
  1113.33,487.839 1120.3,487.839 1127.27,487.839 1134.24,487.839 1141.22,487.839 1148.19,487.839 1155.16,487.839 1162.13,487.839 1169.1,487.839 1176.07,487.839 
  1183.04,487.839 1190.01,487.839 1196.99,487.839 1203.96,487.839 1210.93,487.839 1217.9,487.839 1224.87,487.839 1231.84,487.839 1238.81,487.839 1245.78,487.839 
  1252.76,487.839 
  "/>
<polyline clip-path="url(#clip892)" style="stroke:#ff221c; stroke-linecap:butt; stroke-linejoin:round; stroke-width:16; stroke-opacity:1; fill:none" points="
  207.066,231.268 214.037,231.183 221.008,231.181 227.98,231.179 234.951,231.178 241.922,231.176 248.893,231.174 255.865,231.172 262.836,231.169 269.807,231.167 
  276.778,231.164 283.75,231.161 290.721,231.158 297.692,231.156 304.663,231.153 311.635,231.15 318.606,231.147 325.577,231.143 332.549,231.14 339.52,231.137 
  346.491,231.134 353.462,231.131 360.434,231.128 367.405,231.125 374.376,231.122 381.347,231.119 388.319,231.116 395.29,231.112 402.261,231.109 409.233,231.106 
  416.204,231.103 423.175,231.1 430.146,231.097 437.118,231.094 444.089,231.091 451.06,231.088 458.031,231.086 465.003,231.083 471.974,231.08 478.945,231.077 
  485.916,231.074 492.888,231.071 499.859,231.069 506.83,231.066 513.802,231.063 520.773,231.06 527.744,231.058 534.715,231.055 541.687,231.053 548.658,231.05 
  555.629,231.047 562.6,231.045 569.572,231.042 576.543,231.04 583.514,231.037 590.485,231.035 597.457,231.032 604.428,231.03 611.399,231.028 618.371,231.025 
  625.342,231.023 632.313,231.021 639.284,231.018 646.256,231.016 653.227,231.014 660.198,231.012 667.169,231.01 674.141,231.007 681.112,231.005 688.083,231.003 
  695.054,231.001 702.026,230.999 708.997,230.997 715.968,230.995 722.94,230.993 729.911,230.991 736.882,230.989 743.853,230.987 750.825,230.985 757.796,230.983 
  764.767,230.981 771.738,230.979 778.71,230.977 785.681,230.975 792.652,230.973 799.623,230.972 806.595,230.97 813.566,230.968 820.537,230.966 827.509,230.965 
  834.48,230.963 841.451,230.961 848.422,230.959 855.394,230.958 862.365,230.956 869.336,230.954 876.307,230.953 883.279,230.951 890.25,230.95 897.221,230.948 
  904.193,230.946 911.164,230.945 918.135,230.943 925.106,230.942 932.078,230.94 939.049,230.939 946.02,230.937 952.991,230.936 959.963,230.934 966.934,230.933 
  973.905,230.932 980.876,230.93 987.848,230.929 994.819,230.927 1001.79,230.926 1008.76,230.925 1015.73,230.923 1022.7,230.922 1029.68,230.921 1036.65,230.92 
  1043.62,230.918 1050.59,230.917 1057.56,230.916 1064.53,230.914 1071.5,230.913 1078.47,230.912 1085.45,230.911 1092.42,230.91 1099.39,230.908 1106.36,230.907 
  1113.33,230.906 1120.3,230.905 1127.27,230.904 1134.24,230.903 1141.22,230.902 1148.19,230.9 1155.16,230.899 1162.13,230.898 1169.1,230.897 1176.07,230.896 
  1183.04,230.895 1190.01,230.894 1196.99,230.893 1203.96,230.892 1210.93,230.891 1217.9,230.89 1224.87,230.889 1231.84,230.888 1238.81,230.887 1245.78,230.886 
  1252.76,230.885 
  "/>
<polyline clip-path="url(#clip892)" style="stroke:#000000; stroke-linecap:butt; stroke-linejoin:round; stroke-width:16; stroke-opacity:1; fill:none" stroke-dasharray="8, 16" points="
  207.066,60.077 214.037,60.5004 221.008,60.8763 227.98,61.0823 234.951,61.2421 241.922,61.3786 248.893,61.4968 255.865,61.5992 262.836,61.6874 269.807,61.7632 
  276.778,61.8279 283.75,61.8828 290.721,61.9291 297.692,61.9678 304.663,61.9996 311.635,62.0255 318.606,62.0461 325.577,62.062 332.549,62.0738 339.52,62.0819 
  346.491,62.0869 353.462,62.089 360.434,62.0886 367.405,62.086 374.376,62.0816 381.347,62.0754 388.319,62.0678 395.29,62.0589 402.261,62.0489 409.233,62.0379 
  416.204,62.026 423.175,62.0134 430.146,62.0002 437.118,61.9865 444.089,61.9723 451.06,61.9577 458.031,61.9428 465.003,61.9277 471.974,61.9123 478.945,61.8967 
  485.916,61.881 492.888,61.8652 499.859,61.8493 506.83,61.8334 513.802,61.8175 520.773,61.8015 527.744,61.7856 534.715,61.7697 541.687,61.7538 548.658,61.738 
  555.629,61.7223 562.6,61.7066 569.572,61.6911 576.543,61.6756 583.514,61.6602 590.485,61.6449 597.457,61.6297 604.428,61.6146 611.399,61.5997 618.371,61.5848 
  625.342,61.5701 632.313,61.5555 639.284,61.541 646.256,61.5267 653.227,61.5125 660.198,61.4984 667.169,61.4844 674.141,61.4705 681.112,61.4568 688.083,61.4432 
  695.054,61.4297 702.026,61.4164 708.997,61.4031 715.968,61.39 722.94,61.3771 729.911,61.3642 736.882,61.3515 743.853,61.3388 750.825,61.3264 757.796,61.314 
  764.767,61.3017 771.738,61.2896 778.71,61.2776 785.681,61.2657 792.652,61.2539 799.623,61.2422 806.595,61.2307 813.566,61.2192 820.537,61.2079 827.509,61.1967 
  834.48,61.1856 841.451,61.1746 848.422,61.1637 855.394,61.1529 862.365,61.1422 869.336,61.1316 876.307,61.1212 883.279,61.1108 890.25,61.1005 897.221,61.0904 
  904.193,61.0803 911.164,61.0703 918.135,61.0605 925.106,61.0507 932.078,61.041 939.049,61.0314 946.02,61.0219 952.991,61.0126 959.963,61.0033 966.934,60.994 
  973.905,60.9849 980.876,60.9759 987.848,60.967 994.819,60.9581 1001.79,60.9494 1008.76,60.9407 1015.73,60.9321 1022.7,60.9236 1029.68,60.9152 1036.65,60.9068 
  1043.62,60.8986 1050.59,60.8904 1057.56,60.8823 1064.53,60.8743 1071.5,60.8664 1078.47,60.8585 1085.45,60.8507 1092.42,60.843 1099.39,60.8354 1106.36,60.8279 
  1113.33,60.8204 1120.3,60.813 1127.27,60.8057 1134.24,60.7984 1141.22,60.7912 1148.19,60.7841 1155.16,60.7771 1162.13,60.7701 1169.1,60.7632 1176.07,60.7564 
  1183.04,60.7496 1190.01,60.7429 1196.99,60.7363 1203.96,60.7297 1210.93,60.7232 1217.9,60.7168 1224.87,60.7104 1231.84,60.7041 1238.81,60.6979 1245.78,60.6917 
  1252.76,60.6855 
  "/>
</svg>
