<?xml version="1.0" encoding="utf-8"?>
<svg xmlns="http://www.w3.org/2000/svg" xmlns:xlink="http://www.w3.org/1999/xlink" width="325" height="150" viewBox="0 0 1300 600">
<defs>
  <clipPath id="clip380">
    <rect x="0" y="0" width="1300" height="600"/>
  </clipPath>
</defs>
<path clip-path="url(#clip380)" d="
M0 600 L1300 600 L1300 0 L0 0  Z
  " fill="#ffffff" fill-rule="evenodd" fill-opacity="1"/>
<defs>
  <clipPath id="clip381">
    <rect x="260" y="0" width="911" height="600"/>
  </clipPath>
</defs>
<path clip-path="url(#clip380)" d="
M200.094 501.1 L1252.76 501.1 L1252.76 47.2441 L200.094 47.2441  Z
  " fill="#ffffff" fill-rule="evenodd" fill-opacity="1"/>
<defs>
  <clipPath id="clip382">
    <rect x="200" y="47" width="1054" height="455"/>
  </clipPath>
</defs>
<polyline clip-path="url(#clip380)" style="stroke:#000000; stroke-linecap:butt; stroke-linejoin:round; stroke-width:4; stroke-opacity:1; fill:none" points="
  200.094,501.1 1252.76,501.1 
  "/>
<polyline clip-path="url(#clip380)" style="stroke:#000000; stroke-linecap:butt; stroke-linejoin:round; stroke-width:4; stroke-opacity:1; fill:none" points="
  200.094,501.1 200.094,482.203 
  "/>
<polyline clip-path="url(#clip380)" style="stroke:#000000; stroke-linecap:butt; stroke-linejoin:round; stroke-width:4; stroke-opacity:1; fill:none" points="
  406.499,501.1 406.499,482.203 
  "/>
<polyline clip-path="url(#clip380)" style="stroke:#000000; stroke-linecap:butt; stroke-linejoin:round; stroke-width:4; stroke-opacity:1; fill:none" points="
  612.903,501.1 612.903,482.203 
  "/>
<polyline clip-path="url(#clip380)" style="stroke:#000000; stroke-linecap:butt; stroke-linejoin:round; stroke-width:4; stroke-opacity:1; fill:none" points="
  819.307,501.1 819.307,482.203 
  "/>
<polyline clip-path="url(#clip380)" style="stroke:#000000; stroke-linecap:butt; stroke-linejoin:round; stroke-width:4; stroke-opacity:1; fill:none" points="
  1025.71,501.1 1025.71,482.203 
  "/>
<polyline clip-path="url(#clip380)" style="stroke:#000000; stroke-linecap:butt; stroke-linejoin:round; stroke-width:4; stroke-opacity:1; fill:none" points="
  1232.12,501.1 1232.12,482.203 
  "/>
<path clip-path="url(#clip380)" d="M200.094 526.149 Q195.581 526.149 193.295 530.605 Q191.038 535.032 191.038 543.944 Q191.038 552.827 193.295 557.283 Q195.581 561.71 200.094 561.71 Q204.637 561.71 206.894 557.283 Q209.18 552.827 209.18 543.944 Q209.18 535.032 206.894 530.605 Q204.637 526.149 200.094 526.149 M200.094 521.519 Q207.357 521.519 211.177 527.277 Q215.025 533.006 215.025 543.944 Q215.025 554.852 211.177 560.61 Q207.357 566.339 200.094 566.339 Q192.832 566.339 188.983 560.61 Q185.164 554.852 185.164 543.944 Q185.164 533.006 188.983 527.277 Q192.832 521.519 200.094 521.519 Z" fill="#000000" fill-rule="evenodd" fill-opacity="1" /><path clip-path="url(#clip380)" d="M374.858 560.581 L384.407 560.581 L384.407 527.624 L374.019 529.708 L374.019 524.384 L384.349 522.3 L390.194 522.3 L390.194 560.581 L399.742 560.581 L399.742 565.5 L374.858 565.5 L374.858 560.581 Z" fill="#000000" fill-rule="evenodd" fill-opacity="1" /><path clip-path="url(#clip380)" d="M424.048 526.149 Q419.534 526.149 417.248 530.605 Q414.991 535.032 414.991 543.944 Q414.991 552.827 417.248 557.283 Q419.534 561.71 424.048 561.71 Q428.591 561.71 430.848 557.283 Q433.133 552.827 433.133 543.944 Q433.133 535.032 430.848 530.605 Q428.591 526.149 424.048 526.149 M424.048 521.519 Q431.31 521.519 435.13 527.277 Q438.978 533.006 438.978 543.944 Q438.978 554.852 435.13 560.61 Q431.31 566.339 424.048 566.339 Q416.785 566.339 412.937 560.61 Q409.117 554.852 409.117 543.944 Q409.117 533.006 412.937 527.277 Q416.785 521.519 424.048 521.519 Z" fill="#000000" fill-rule="evenodd" fill-opacity="1" /><path clip-path="url(#clip380)" d="M586.369 560.581 L606.769 560.581 L606.769 565.5 L579.338 565.5 L579.338 560.581 Q582.666 557.138 588.395 551.351 Q594.153 545.535 595.629 543.857 Q598.435 540.703 599.535 538.533 Q600.663 536.334 600.663 534.221 Q600.663 530.778 598.233 528.608 Q595.831 526.438 591.954 526.438 Q589.205 526.438 586.138 527.393 Q583.1 528.348 579.628 530.286 L579.628 524.384 Q583.158 522.966 586.225 522.242 Q589.292 521.519 591.838 521.519 Q598.551 521.519 602.544 524.875 Q606.537 528.232 606.537 533.845 Q606.537 536.507 605.524 538.909 Q604.541 541.282 601.908 544.522 Q601.184 545.361 597.307 549.383 Q593.43 553.376 586.369 560.581 Z" fill="#000000" fill-rule="evenodd" fill-opacity="1" /><path clip-path="url(#clip380)" d="M631.537 526.149 Q627.023 526.149 624.737 530.605 Q622.48 535.032 622.48 543.944 Q622.48 552.827 624.737 557.283 Q627.023 561.71 631.537 561.71 Q636.08 561.71 638.337 557.283 Q640.623 552.827 640.623 543.944 Q640.623 535.032 638.337 530.605 Q636.08 526.149 631.537 526.149 M631.537 521.519 Q638.8 521.519 642.619 527.277 Q646.468 533.006 646.468 543.944 Q646.468 554.852 642.619 560.61 Q638.8 566.339 631.537 566.339 Q624.274 566.339 620.426 560.61 Q616.607 554.852 616.607 543.944 Q616.607 533.006 620.426 527.277 Q624.274 521.519 631.537 521.519 Z" fill="#000000" fill-rule="evenodd" fill-opacity="1" /><path clip-path="url(#clip380)" d="M805.36 542.207 Q809.556 543.104 811.9 545.94 Q814.272 548.776 814.272 552.942 Q814.272 559.337 809.874 562.838 Q805.476 566.339 797.374 566.339 Q794.654 566.339 791.761 565.79 Q788.896 565.269 785.829 564.198 L785.829 558.556 Q788.26 559.974 791.153 560.697 Q794.047 561.42 797.201 561.42 Q802.698 561.42 805.563 559.25 Q808.456 557.08 808.456 552.942 Q808.456 549.123 805.765 546.982 Q803.103 544.812 798.329 544.812 L793.294 544.812 L793.294 540.008 L798.561 540.008 Q802.872 540.008 805.158 538.301 Q807.444 536.565 807.444 533.324 Q807.444 529.997 805.071 528.232 Q802.727 526.438 798.329 526.438 Q795.928 526.438 793.179 526.959 Q790.43 527.48 787.131 528.579 L787.131 523.371 Q790.459 522.445 793.352 521.982 Q796.275 521.519 798.85 521.519 Q805.505 521.519 809.382 524.557 Q813.26 527.566 813.26 532.717 Q813.26 536.305 811.205 538.793 Q809.151 541.253 805.36 542.207 Z" fill="#000000" fill-rule="evenodd" fill-opacity="1" /><path clip-path="url(#clip380)" d="M837.854 526.149 Q833.341 526.149 831.055 530.605 Q828.798 535.032 828.798 543.944 Q828.798 552.827 831.055 557.283 Q833.341 561.71 837.854 561.71 Q842.397 561.71 844.654 557.283 Q846.94 552.827 846.94 543.944 Q846.94 535.032 844.654 530.605 Q842.397 526.149 837.854 526.149 M837.854 521.519 Q845.117 521.519 848.937 527.277 Q852.785 533.006 852.785 543.944 Q852.785 554.852 848.937 560.61 Q845.117 566.339 837.854 566.339 Q830.592 566.339 826.743 560.61 Q822.924 554.852 822.924 543.944 Q822.924 533.006 826.743 527.277 Q830.592 521.519 837.854 521.519 Z" fill="#000000" fill-rule="evenodd" fill-opacity="1" /><path clip-path="url(#clip380)" d="M1010.93 527.393 L996.169 550.454 L1010.93 550.454 L1010.93 527.393 M1009.39 522.3 L1016.74 522.3 L1016.74 550.454 L1022.9 550.454 L1022.9 555.315 L1016.74 555.315 L1016.74 565.5 L1010.93 565.5 L1010.93 555.315 L991.423 555.315 L991.423 549.673 L1009.39 522.3 Z" fill="#000000" fill-rule="evenodd" fill-opacity="1" /><path clip-path="url(#clip380)" d="M1045.07 526.149 Q1040.55 526.149 1038.27 530.605 Q1036.01 535.032 1036.01 543.944 Q1036.01 552.827 1038.27 557.283 Q1040.55 561.71 1045.07 561.71 Q1049.61 561.71 1051.87 557.283 Q1054.15 552.827 1054.15 543.944 Q1054.15 535.032 1051.87 530.605 Q1049.61 526.149 1045.07 526.149 M1045.07 521.519 Q1052.33 521.519 1056.15 527.277 Q1060 533.006 1060 543.944 Q1060 554.852 1056.15 560.61 Q1052.33 566.339 1045.07 566.339 Q1037.81 566.339 1033.96 560.61 Q1030.14 554.852 1030.14 543.944 Q1030.14 533.006 1033.96 527.277 Q1037.81 521.519 1045.07 521.519 Z" fill="#000000" fill-rule="evenodd" fill-opacity="1" /><path clip-path="url(#clip380)" d="M1200.49 522.3 L1223.43 522.3 L1223.43 527.219 L1205.84 527.219 L1205.84 537.809 Q1207.12 537.375 1208.39 537.173 Q1209.66 536.941 1210.94 536.941 Q1218.17 536.941 1222.39 540.905 Q1226.62 544.87 1226.62 551.64 Q1226.62 558.614 1222.28 562.491 Q1217.94 566.339 1210.04 566.339 Q1207.32 566.339 1204.48 565.876 Q1201.68 565.413 1198.67 564.487 L1198.67 558.614 Q1201.27 560.031 1204.05 560.726 Q1206.83 561.42 1209.92 561.42 Q1214.93 561.42 1217.85 558.787 Q1220.77 556.154 1220.77 551.64 Q1220.77 547.126 1217.85 544.493 Q1214.93 541.86 1209.92 541.86 Q1207.58 541.86 1205.23 542.381 Q1202.92 542.902 1200.49 544.001 L1200.49 522.3 Z" fill="#000000" fill-rule="evenodd" fill-opacity="1" /><path clip-path="url(#clip380)" d="M1250.63 526.149 Q1246.12 526.149 1243.83 530.605 Q1241.58 535.032 1241.58 543.944 Q1241.58 552.827 1243.83 557.283 Q1246.12 561.71 1250.63 561.71 Q1255.18 561.71 1257.43 557.283 Q1259.72 552.827 1259.72 543.944 Q1259.72 535.032 1257.43 530.605 Q1255.18 526.149 1250.63 526.149 M1250.63 521.519 Q1257.9 521.519 1261.72 527.277 Q1265.56 533.006 1265.56 543.944 Q1265.56 554.852 1261.72 560.61 Q1257.9 566.339 1250.63 566.339 Q1243.37 566.339 1239.52 560.61 Q1235.7 554.852 1235.7 543.944 Q1235.7 533.006 1239.52 527.277 Q1243.37 521.519 1250.63 521.519 Z" fill="#000000" fill-rule="evenodd" fill-opacity="1" /><polyline clip-path="url(#clip380)" style="stroke:#000000; stroke-linecap:butt; stroke-linejoin:round; stroke-width:4; stroke-opacity:1; fill:none" points="
  200.094,501.1 200.094,47.2441 
  "/>
<polyline clip-path="url(#clip380)" style="stroke:#000000; stroke-linecap:butt; stroke-linejoin:round; stroke-width:4; stroke-opacity:1; fill:none" points="
  200.094,487.84 218.992,487.84 
  "/>
<polyline clip-path="url(#clip380)" style="stroke:#000000; stroke-linecap:butt; stroke-linejoin:round; stroke-width:4; stroke-opacity:1; fill:none" points="
  200.094,380.899 218.992,380.899 
  "/>
<polyline clip-path="url(#clip380)" style="stroke:#000000; stroke-linecap:butt; stroke-linejoin:round; stroke-width:4; stroke-opacity:1; fill:none" points="
  200.094,273.958 218.992,273.958 
  "/>
<polyline clip-path="url(#clip380)" style="stroke:#000000; stroke-linecap:butt; stroke-linejoin:round; stroke-width:4; stroke-opacity:1; fill:none" points="
  200.094,167.018 218.992,167.018 
  "/>
<polyline clip-path="url(#clip380)" style="stroke:#000000; stroke-linecap:butt; stroke-linejoin:round; stroke-width:4; stroke-opacity:1; fill:none" points="
  200.094,60.077 218.992,60.077 
  "/>
<path clip-path="url(#clip380)" d="M71.4226 470.088 Q66.9087 470.088 64.6229 474.544 Q62.3659 478.971 62.3659 487.883 Q62.3659 496.766 64.6229 501.222 Q66.9087 505.649 71.4226 505.649 Q75.9654 505.649 78.2223 501.222 Q80.5082 496.766 80.5082 487.883 Q80.5082 478.971 78.2223 474.544 Q75.9654 470.088 71.4226 470.088 M71.4226 465.458 Q78.6853 465.458 82.5047 471.216 Q86.3531 476.946 86.3531 487.883 Q86.3531 498.791 82.5047 504.55 Q78.6853 510.279 71.4226 510.279 Q64.1599 510.279 60.3115 504.55 Q56.4921 498.791 56.4921 487.883 Q56.4921 476.946 60.3115 471.216 Q64.1599 465.458 71.4226 465.458 Z" fill="#000000" fill-rule="evenodd" fill-opacity="1" /><path clip-path="url(#clip380)" d="M96.625 502.09 L102.73 502.09 L102.73 509.44 L96.625 509.44 L96.625 502.09 Z" fill="#000000" fill-rule="evenodd" fill-opacity="1" /><path clip-path="url(#clip380)" d="M127.962 470.088 Q123.448 470.088 121.162 474.544 Q118.905 478.971 118.905 487.883 Q118.905 496.766 121.162 501.222 Q123.448 505.649 127.962 505.649 Q132.504 505.649 134.761 501.222 Q137.047 496.766 137.047 487.883 Q137.047 478.971 134.761 474.544 Q132.504 470.088 127.962 470.088 M127.962 465.458 Q135.224 465.458 139.044 471.216 Q142.892 476.946 142.892 487.883 Q142.892 498.791 139.044 504.55 Q135.224 510.279 127.962 510.279 Q120.699 510.279 116.851 504.55 Q113.031 498.791 113.031 487.883 Q113.031 476.946 116.851 471.216 Q120.699 465.458 127.962 465.458 Z" fill="#000000" fill-rule="evenodd" fill-opacity="1" /><path clip-path="url(#clip380)" d="M165.664 470.088 Q161.15 470.088 158.864 474.544 Q156.607 478.971 156.607 487.883 Q156.607 496.766 158.864 501.222 Q161.15 505.649 165.664 505.649 Q170.207 505.649 172.464 501.222 Q174.75 496.766 174.75 487.883 Q174.75 478.971 172.464 474.544 Q170.207 470.088 165.664 470.088 M165.664 465.458 Q172.927 465.458 176.746 471.216 Q180.594 476.946 180.594 487.883 Q180.594 498.791 176.746 504.55 Q172.927 510.279 165.664 510.279 Q158.401 510.279 154.553 504.55 Q150.734 498.791 150.734 487.883 Q150.734 476.946 154.553 471.216 Q158.401 465.458 165.664 465.458 Z" fill="#000000" fill-rule="evenodd" fill-opacity="1" /><path clip-path="url(#clip380)" d="M72.6668 363.147 Q68.1529 363.147 65.8671 367.603 Q63.6101 372.03 63.6101 380.942 Q63.6101 389.825 65.8671 394.281 Q68.1529 398.708 72.6668 398.708 Q77.2096 398.708 79.4665 394.281 Q81.7524 389.825 81.7524 380.942 Q81.7524 372.03 79.4665 367.603 Q77.2096 363.147 72.6668 363.147 M72.6668 358.518 Q79.9295 358.518 83.7489 364.276 Q87.5973 370.005 87.5973 380.942 Q87.5973 391.851 83.7489 397.609 Q79.9295 403.338 72.6668 403.338 Q65.4041 403.338 61.5558 397.609 Q57.7363 391.851 57.7363 380.942 Q57.7363 370.005 61.5558 364.276 Q65.4041 358.518 72.6668 358.518 Z" fill="#000000" fill-rule="evenodd" fill-opacity="1" /><path clip-path="url(#clip380)" d="M97.8692 395.149 L103.975 395.149 L103.975 402.499 L97.8692 402.499 L97.8692 395.149 Z" fill="#000000" fill-rule="evenodd" fill-opacity="1" /><path clip-path="url(#clip380)" d="M121.741 397.58 L142.14 397.58 L142.14 402.499 L114.709 402.499 L114.709 397.58 Q118.037 394.137 123.766 388.35 Q129.524 382.534 131 380.855 Q133.807 377.702 134.906 375.531 Q136.035 373.332 136.035 371.22 Q136.035 367.777 133.604 365.607 Q131.202 363.437 127.325 363.437 Q124.576 363.437 121.509 364.391 Q118.471 365.346 114.999 367.285 L114.999 361.382 Q118.529 359.964 121.596 359.241 Q124.663 358.518 127.209 358.518 Q133.922 358.518 137.915 361.874 Q141.908 365.231 141.908 370.844 Q141.908 373.506 140.896 375.908 Q139.912 378.28 137.279 381.521 Q136.555 382.36 132.678 386.382 Q128.801 390.375 121.741 397.58 Z" fill="#000000" fill-rule="evenodd" fill-opacity="1" /><path clip-path="url(#clip380)" d="M154.466 359.299 L177.412 359.299 L177.412 364.218 L159.819 364.218 L159.819 374.808 Q161.092 374.374 162.365 374.172 Q163.639 373.94 164.912 373.94 Q172.145 373.94 176.37 377.904 Q180.594 381.868 180.594 388.639 Q180.594 395.612 176.254 399.49 Q171.914 403.338 164.015 403.338 Q161.295 403.338 158.459 402.875 Q155.652 402.412 152.643 401.486 L152.643 395.612 Q155.247 397.03 158.025 397.725 Q160.803 398.419 163.899 398.419 Q168.905 398.419 171.827 395.786 Q174.75 393.153 174.75 388.639 Q174.75 384.125 171.827 381.492 Q168.905 378.859 163.899 378.859 Q161.555 378.859 159.211 379.38 Q156.897 379.901 154.466 381 L154.466 359.299 Z" fill="#000000" fill-rule="evenodd" fill-opacity="1" /><path clip-path="url(#clip380)" d="M71.4226 256.207 Q66.9087 256.207 64.6229 260.663 Q62.3659 265.09 62.3659 274.002 Q62.3659 282.885 64.6229 287.341 Q66.9087 291.768 71.4226 291.768 Q75.9654 291.768 78.2223 287.341 Q80.5082 282.885 80.5082 274.002 Q80.5082 265.09 78.2223 260.663 Q75.9654 256.207 71.4226 256.207 M71.4226 251.577 Q78.6853 251.577 82.5047 257.335 Q86.3531 263.064 86.3531 274.002 Q86.3531 284.91 82.5047 290.668 Q78.6853 296.397 71.4226 296.397 Q64.1599 296.397 60.3115 290.668 Q56.4921 284.91 56.4921 274.002 Q56.4921 263.064 60.3115 257.335 Q64.1599 251.577 71.4226 251.577 Z" fill="#000000" fill-rule="evenodd" fill-opacity="1" /><path clip-path="url(#clip380)" d="M96.625 288.209 L102.73 288.209 L102.73 295.558 L96.625 295.558 L96.625 288.209 Z" fill="#000000" fill-rule="evenodd" fill-opacity="1" /><path clip-path="url(#clip380)" d="M115.52 252.358 L138.465 252.358 L138.465 257.277 L120.873 257.277 L120.873 267.867 Q122.146 267.433 123.419 267.231 Q124.692 266.999 125.965 266.999 Q133.199 266.999 137.423 270.963 Q141.648 274.928 141.648 281.698 Q141.648 288.672 137.308 292.549 Q132.967 296.397 125.068 296.397 Q122.348 296.397 119.513 295.934 Q116.706 295.471 113.697 294.546 L113.697 288.672 Q116.301 290.09 119.079 290.784 Q121.856 291.478 124.952 291.478 Q129.958 291.478 132.881 288.845 Q135.803 286.212 135.803 281.698 Q135.803 277.185 132.881 274.551 Q129.958 271.918 124.952 271.918 Q122.609 271.918 120.265 272.439 Q117.95 272.96 115.52 274.06 L115.52 252.358 Z" fill="#000000" fill-rule="evenodd" fill-opacity="1" /><path clip-path="url(#clip380)" d="M165.664 256.207 Q161.15 256.207 158.864 260.663 Q156.607 265.09 156.607 274.002 Q156.607 282.885 158.864 287.341 Q161.15 291.768 165.664 291.768 Q170.207 291.768 172.464 287.341 Q174.75 282.885 174.75 274.002 Q174.75 265.09 172.464 260.663 Q170.207 256.207 165.664 256.207 M165.664 251.577 Q172.927 251.577 176.746 257.335 Q180.594 263.064 180.594 274.002 Q180.594 284.91 176.746 290.668 Q172.927 296.397 165.664 296.397 Q158.401 296.397 154.553 290.668 Q150.734 284.91 150.734 274.002 Q150.734 263.064 154.553 257.335 Q158.401 251.577 165.664 251.577 Z" fill="#000000" fill-rule="evenodd" fill-opacity="1" /><path clip-path="url(#clip380)" d="M72.6668 149.266 Q68.1529 149.266 65.8671 153.722 Q63.6101 158.149 63.6101 167.061 Q63.6101 175.944 65.8671 180.4 Q68.1529 184.827 72.6668 184.827 Q77.2096 184.827 79.4665 180.4 Q81.7524 175.944 81.7524 167.061 Q81.7524 158.149 79.4665 153.722 Q77.2096 149.266 72.6668 149.266 M72.6668 144.636 Q79.9295 144.636 83.7489 150.394 Q87.5973 156.124 87.5973 167.061 Q87.5973 177.97 83.7489 183.728 Q79.9295 189.457 72.6668 189.457 Q65.4041 189.457 61.5558 183.728 Q57.7363 177.97 57.7363 167.061 Q57.7363 156.124 61.5558 150.394 Q65.4041 144.636 72.6668 144.636 Z" fill="#000000" fill-rule="evenodd" fill-opacity="1" /><path clip-path="url(#clip380)" d="M97.8692 181.268 L103.975 181.268 L103.975 188.618 L97.8692 188.618 L97.8692 181.268 Z" fill="#000000" fill-rule="evenodd" fill-opacity="1" /><path clip-path="url(#clip380)" d="M115.23 145.418 L143.008 145.418 L143.008 147.906 L127.325 188.618 L121.22 188.618 L135.977 150.337 L115.23 150.337 L115.23 145.418 Z" fill="#000000" fill-rule="evenodd" fill-opacity="1" /><path clip-path="url(#clip380)" d="M154.466 145.418 L177.412 145.418 L177.412 150.337 L159.819 150.337 L159.819 160.927 Q161.092 160.493 162.365 160.29 Q163.639 160.059 164.912 160.059 Q172.145 160.059 176.37 164.023 Q180.594 167.987 180.594 174.758 Q180.594 181.731 176.254 185.608 Q171.914 189.457 164.015 189.457 Q161.295 189.457 158.459 188.994 Q155.652 188.531 152.643 187.605 L152.643 181.731 Q155.247 183.149 158.025 183.843 Q160.803 184.538 163.899 184.538 Q168.905 184.538 171.827 181.905 Q174.75 179.272 174.75 174.758 Q174.75 170.244 171.827 167.611 Q168.905 164.978 163.899 164.978 Q161.555 164.978 159.211 165.499 Q156.897 166.019 154.466 167.119 L154.466 145.418 Z" fill="#000000" fill-rule="evenodd" fill-opacity="1" /><path clip-path="url(#clip380)" d="M59.9354 76.758 L69.484 76.758 L69.484 43.801 L59.0963 45.8843 L59.0963 40.5603 L69.4261 38.477 L75.271 38.477 L75.271 76.758 L84.8195 76.758 L84.8195 81.677 L59.9354 81.677 L59.9354 76.758 Z" fill="#000000" fill-rule="evenodd" fill-opacity="1" /><path clip-path="url(#clip380)" d="M96.625 74.3275 L102.73 74.3275 L102.73 81.677 L96.625 81.677 L96.625 74.3275 Z" fill="#000000" fill-rule="evenodd" fill-opacity="1" /><path clip-path="url(#clip380)" d="M127.962 42.3253 Q123.448 42.3253 121.162 46.7813 Q118.905 51.2084 118.905 60.1204 Q118.905 69.0034 121.162 73.4594 Q123.448 77.8865 127.962 77.8865 Q132.504 77.8865 134.761 73.4594 Q137.047 69.0034 137.047 60.1204 Q137.047 51.2084 134.761 46.7813 Q132.504 42.3253 127.962 42.3253 M127.962 37.6957 Q135.224 37.6957 139.044 43.4538 Q142.892 49.1829 142.892 60.1204 Q142.892 71.0289 139.044 76.787 Q135.224 82.5161 127.962 82.5161 Q120.699 82.5161 116.851 76.787 Q113.031 71.0289 113.031 60.1204 Q113.031 49.1829 116.851 43.4538 Q120.699 37.6957 127.962 37.6957 Z" fill="#000000" fill-rule="evenodd" fill-opacity="1" /><path clip-path="url(#clip380)" d="M165.664 42.3253 Q161.15 42.3253 158.864 46.7813 Q156.607 51.2084 156.607 60.1204 Q156.607 69.0034 158.864 73.4594 Q161.15 77.8865 165.664 77.8865 Q170.207 77.8865 172.464 73.4594 Q174.75 69.0034 174.75 60.1204 Q174.75 51.2084 172.464 46.7813 Q170.207 42.3253 165.664 42.3253 M165.664 37.6957 Q172.927 37.6957 176.746 43.4538 Q180.594 49.1829 180.594 60.1204 Q180.594 71.0289 176.746 76.787 Q172.927 82.5161 165.664 82.5161 Q158.401 82.5161 154.553 76.787 Q150.734 71.0289 150.734 60.1204 Q150.734 49.1829 154.553 43.4538 Q158.401 37.6957 165.664 37.6957 Z" fill="#000000" fill-rule="evenodd" fill-opacity="1" /><polyline clip-path="url(#clip382)" style="stroke:#2000d4; stroke-linecap:butt; stroke-linejoin:round; stroke-width:16; stroke-opacity:1; fill:none" points="
  220.735,448.952 241.375,422.03 262.016,381.563 282.656,351.925 303.297,329.386 323.937,311.757 344.577,297.664 365.218,286.2 385.858,276.744 406.499,268.852 
  427.139,262.201 447.78,256.552 468.42,251.719 489.06,247.56 509.701,243.963 530.341,240.838 550.982,238.113 571.622,235.728 592.262,233.636 612.903,231.794 
  633.543,230.171 654.184,228.736 674.824,227.466 695.465,226.34 716.105,225.34 736.745,224.451 757.386,223.661 778.026,222.956 798.667,222.328 819.307,221.767 
  839.947,221.266 860.588,220.819 881.228,220.419 901.869,220.061 922.509,219.741 943.15,219.454 963.79,219.197 984.43,218.967 1005.07,218.76 1025.71,218.575 
  1046.35,218.409 1066.99,218.26 1087.63,218.127 1108.27,218.007 1128.91,217.899 1149.55,217.803 1170.19,217.716 1190.83,217.638 1211.48,217.568 1232.12,217.505 
  1252.76,217.449 
  "/>
<polyline clip-path="url(#clip382)" style="stroke:#008900; stroke-linecap:butt; stroke-linejoin:round; stroke-width:16; stroke-opacity:1; fill:none" points="
  220.735,448.952 241.375,454.935 262.016,461.173 282.656,465.704 303.297,469.134 323.937,471.811 344.577,473.949 365.218,475.688 385.858,477.123 406.499,478.32 
  427.139,479.331 447.78,480.189 468.42,480.925 489.06,481.558 509.701,482.107 530.341,482.584 550.982,483.001 571.622,483.367 592.262,483.688 612.903,483.972 
  633.543,484.222 654.184,484.445 674.824,484.642 695.465,484.817 716.105,484.974 736.745,485.114 757.386,485.239 778.026,485.351 798.667,485.452 819.307,485.542 
  839.947,485.623 860.588,485.696 881.228,485.763 901.869,485.822 922.509,485.876 943.15,485.925 963.79,485.97 984.43,486.01 1005.07,486.047 1025.71,486.081 
  1046.35,486.111 1066.99,486.14 1087.63,486.165 1108.27,486.189 1128.91,486.211 1149.55,486.231 1170.19,486.25 1190.83,486.267 1211.48,486.283 1232.12,486.298 
  1252.76,486.312 
  "/>
<polyline clip-path="url(#clip382)" style="stroke:#7f7f7f; stroke-linecap:butt; stroke-linejoin:round; stroke-width:16; stroke-opacity:1; fill:none" points="
  220.735,60.077 241.375,60.077 262.016,208.149 282.656,277.104 303.297,318.555 323.937,346.715 344.577,367.306 365.218,383.135 385.858,395.751 406.499,406.089 
  427.139,414.746 447.78,422.124 468.42,428.502 489.06,434.081 509.701,439.008 530.341,443.395 550.982,447.328 571.622,450.872 592.262,454.082 612.903,456.999 
  633.543,459.658 654.184,462.088 674.824,464.311 695.465,466.348 716.105,468.217 736.745,469.931 757.386,471.504 778.026,472.947 798.667,474.271 819.307,475.485 
  839.947,476.598 860.588,477.617 881.228,478.549 901.869,479.401 922.509,480.18 943.15,480.891 963.79,481.539 984.43,482.129 1005.07,482.667 1025.71,483.156 
  1046.35,483.601 1066.99,484.005 1087.63,484.371 1108.27,484.704 1128.91,485.006 1149.55,485.279 1170.19,485.527 1190.83,485.751 1211.48,485.954 1232.12,486.137 
  1252.76,486.303 
  "/>
<polyline clip-path="url(#clip382)" style="stroke:#000000; stroke-linecap:butt; stroke-linejoin:round; stroke-width:16; stroke-opacity:1; fill:none" stroke-dasharray="8, 16" points="
  220.735,60.077 241.375,98.611 262.016,131.173 282.656,173.768 303.297,208.12 323.937,234.806 344.577,255.811 365.218,272.651 385.858,286.375 406.499,297.715 
  427.139,307.195 447.78,315.195 468.42,322.002 489.06,327.833 509.701,332.858 530.341,337.21 550.982,340.995 571.622,344.3 592.262,347.195 612.903,349.738 
  633.543,351.977 654.184,353.953 674.824,355.7 695.465,357.248 716.105,358.621 736.745,359.84 757.386,360.924 778.026,361.889 798.667,362.748 819.307,363.514 
  839.947,364.198 860.588,364.808 881.228,365.353 901.869,365.84 922.509,366.276 943.15,366.665 963.79,367.013 984.43,367.325 1005.07,367.604 1025.71,367.853 
  1046.35,368.076 1066.99,368.276 1087.63,368.455 1108.27,368.615 1128.91,368.758 1149.55,368.886 1170.19,369.001 1190.83,369.103 1211.48,369.195 1232.12,369.277 
  1252.76,369.35 
  "/>
</svg>
