<?xml version="1.0" encoding="utf-8"?>
<svg xmlns="http://www.w3.org/2000/svg" xmlns:xlink="http://www.w3.org/1999/xlink" width="975" height="450" viewBox="0 0 3900 1800">
<defs>
  <clipPath id="clip8300">
    <rect x="0" y="0" width="3900" height="1800"/>
  </clipPath>
</defs>
<path clip-path="url(#clip8300)" d="
M0 1800 L3900 1800 L3900 0 L0 0  Z
  " fill="#ffffff" fill-rule="evenodd" fill-opacity="1"/>
<defs>
  <clipPath id="clip8301">
    <rect x="780" y="0" width="2731" height="1800"/>
  </clipPath>
</defs>
<path clip-path="url(#clip8300)" d="
M579.232 1505.97 L3758.27 1505.97 L3758.27 141.732 L579.232 141.732  Z
  " fill="#ffffff" fill-rule="evenodd" fill-opacity="1"/>
<defs>
  <clipPath id="clip8302">
    <rect x="579" y="141" width="3180" height="1365"/>
  </clipPath>
</defs>
<polyline clip-path="url(#clip8300)" style="stroke:#000000; stroke-width:12; stroke-opacity:1; fill:none" points="
  579.232,1505.97 3758.27,1505.97 
  "/>
<polyline clip-path="url(#clip8300)" style="stroke:#000000; stroke-width:12; stroke-opacity:1; fill:none" points="
  579.232,1505.97 579.232,141.732 
  "/>
<polyline clip-path="url(#clip8300)" style="stroke:#000000; stroke-width:12; stroke-opacity:1; fill:none" points="
  579.232,1505.97 579.232,1489.6 
  "/>
<polyline clip-path="url(#clip8300)" style="stroke:#000000; stroke-width:12; stroke-opacity:1; fill:none" points="
  1366.12,1505.97 1366.12,1489.6 
  "/>
<polyline clip-path="url(#clip8300)" style="stroke:#000000; stroke-width:12; stroke-opacity:1; fill:none" points="
  2153.01,1505.97 2153.01,1489.6 
  "/>
<polyline clip-path="url(#clip8300)" style="stroke:#000000; stroke-width:12; stroke-opacity:1; fill:none" points="
  2939.9,1505.97 2939.9,1489.6 
  "/>
<polyline clip-path="url(#clip8300)" style="stroke:#000000; stroke-width:12; stroke-opacity:1; fill:none" points="
  3726.79,1505.97 3726.79,1489.6 
  "/>
<polyline clip-path="url(#clip8300)" style="stroke:#000000; stroke-width:12; stroke-opacity:1; fill:none" points="
  579.232,1466.11 617.381,1466.11 
  "/>
<polyline clip-path="url(#clip8300)" style="stroke:#000000; stroke-width:12; stroke-opacity:1; fill:none" points="
  579.232,1144.66 617.381,1144.66 
  "/>
<polyline clip-path="url(#clip8300)" style="stroke:#000000; stroke-width:12; stroke-opacity:1; fill:none" points="
  579.232,823.206 617.381,823.206 
  "/>
<polyline clip-path="url(#clip8300)" style="stroke:#000000; stroke-width:12; stroke-opacity:1; fill:none" points="
  579.232,501.756 617.381,501.756 
  "/>
<polyline clip-path="url(#clip8300)" style="stroke:#000000; stroke-width:12; stroke-opacity:1; fill:none" points="
  579.232,180.306 617.381,180.306 
  "/>
<g clip-path="url(#clip8300)">
<text style="fill:#000000; fill-opacity:1; font-family:Arial,Helvetica Neue,Helvetica,sans-serif; font-size:178px; text-anchor:middle;" transform="rotate(0, 579.232, 1681.47)" x="579.232" y="1681.47">0</text>
</g>
<g clip-path="url(#clip8300)">
<text style="fill:#000000; fill-opacity:1; font-family:Arial,Helvetica Neue,Helvetica,sans-serif; font-size:178px; text-anchor:middle;" transform="rotate(0, 1366.12, 1681.47)" x="1366.12" y="1681.47">25</text>
</g>
<g clip-path="url(#clip8300)">
<text style="fill:#000000; fill-opacity:1; font-family:Arial,Helvetica Neue,Helvetica,sans-serif; font-size:178px; text-anchor:middle;" transform="rotate(0, 2153.01, 1681.47)" x="2153.01" y="1681.47">50</text>
</g>
<g clip-path="url(#clip8300)">
<text style="fill:#000000; fill-opacity:1; font-family:Arial,Helvetica Neue,Helvetica,sans-serif; font-size:178px; text-anchor:middle;" transform="rotate(0, 2939.9, 1681.47)" x="2939.9" y="1681.47">75</text>
</g>
<g clip-path="url(#clip8300)">
<text style="fill:#000000; fill-opacity:1; font-family:Arial,Helvetica Neue,Helvetica,sans-serif; font-size:178px; text-anchor:middle;" transform="rotate(0, 3726.79, 1681.47)" x="3726.79" y="1681.47">100</text>
</g>
<g clip-path="url(#clip8300)">
<text style="fill:#000000; fill-opacity:1; font-family:Arial,Helvetica Neue,Helvetica,sans-serif; font-size:178px; text-anchor:end;" transform="rotate(0, 540.232, 1531.11)" x="540.232" y="1531.11">0.00</text>
</g>
<g clip-path="url(#clip8300)">
<text style="fill:#000000; fill-opacity:1; font-family:Arial,Helvetica Neue,Helvetica,sans-serif; font-size:178px; text-anchor:end;" transform="rotate(0, 540.232, 1209.66)" x="540.232" y="1209.66">0.25</text>
</g>
<g clip-path="url(#clip8300)">
<text style="fill:#000000; fill-opacity:1; font-family:Arial,Helvetica Neue,Helvetica,sans-serif; font-size:178px; text-anchor:end;" transform="rotate(0, 540.232, 888.206)" x="540.232" y="888.206">0.50</text>
</g>
<g clip-path="url(#clip8300)">
<text style="fill:#000000; fill-opacity:1; font-family:Arial,Helvetica Neue,Helvetica,sans-serif; font-size:178px; text-anchor:end;" transform="rotate(0, 540.232, 566.756)" x="540.232" y="566.756">0.75</text>
</g>
<g clip-path="url(#clip8300)">
<text style="fill:#000000; fill-opacity:1; font-family:Arial,Helvetica Neue,Helvetica,sans-serif; font-size:178px; text-anchor:end;" transform="rotate(0, 540.232, 245.306)" x="540.232" y="245.306">1.00</text>
</g>
<polyline clip-path="url(#clip8302)" style="stroke:#ff00ff; stroke-width:48; stroke-opacity:1; fill:none" points="
  610.708,823.528 642.183,823.787 673.659,824.012 705.134,824.217 736.61,824.403 768.086,824.573 799.561,824.727 831.037,824.867 862.512,824.995 893.988,825.111 
  925.464,825.216 956.939,825.312 988.415,825.399 1019.89,825.478 1051.37,825.549 1082.84,825.615 1114.32,825.674 1145.79,825.728 1177.27,825.777 1208.74,825.821 
  1240.22,825.862 1271.7,825.898 1303.17,825.932 1334.65,825.962 1366.12,825.99 1397.6,826.015 1429.07,826.038 1460.55,826.059 1492.02,826.077 1523.5,826.095 
  1554.98,826.11 1586.45,826.124 1617.93,826.137 1649.4,826.149 1680.88,826.159 1712.35,826.169 1743.83,826.178 1775.3,826.186 1806.78,826.193 1838.26,826.2 
  1869.73,826.206 1901.21,826.211 1932.68,826.216 1964.16,826.221 1995.63,826.225 2027.11,826.228 2058.59,826.232 2090.06,826.235 2121.54,826.238 2153.01,826.24 
  2184.49,826.243 2215.96,826.245 2247.44,826.247 2278.91,826.248 2310.39,826.25 2341.87,826.251 2373.34,826.253 2404.82,826.254 2436.29,826.255 2467.77,826.256 
  2499.24,826.257 2530.72,826.258 2562.19,826.258 2593.67,826.259 2625.15,826.26 2656.62,826.26 2688.1,826.261 2719.57,826.261 2751.05,826.262 2782.52,826.262 
  2814,826.262 2845.48,826.263 2876.95,826.263 2908.43,826.263 2939.9,826.263 2971.38,826.264 3002.85,826.264 3034.33,826.264 3065.8,826.264 3097.28,826.264 
  3128.76,826.264 3160.23,826.264 3191.71,826.265 3223.18,826.265 3254.66,826.265 3286.13,826.265 3317.61,826.265 3349.08,826.265 3380.56,826.265 3412.04,826.265 
  3443.51,826.265 3474.99,826.265 3506.46,826.265 3537.94,826.265 3569.41,826.265 3600.89,826.265 3632.37,826.265 3663.84,826.265 3695.32,826.265 3726.79,826.265 
  3758.27,826.265 
  "/>
<polyline clip-path="url(#clip8302)" style="stroke:#2000d4; stroke-width:48; stroke-opacity:1; fill:none" stroke-dasharray="24, 48" points="
  610.708,1466.11 642.183,1466.11 673.659,1466.11 705.134,1466.11 736.61,1466.11 768.086,1466.11 799.561,1466.11 831.037,1466.11 862.512,1466.11 893.988,1466.11 
  925.464,1466.11 956.939,1466.11 988.415,1466.11 1019.89,1466.11 1051.37,1466.11 1082.84,1466.11 1114.32,1466.11 1145.79,1466.11 1177.27,1466.11 1208.74,1466.11 
  1240.22,1466.11 1271.7,1466.11 1303.17,1466.11 1334.65,1466.11 1366.12,1466.11 1397.6,1466.11 1429.07,1466.11 1460.55,1466.11 1492.02,1466.11 1523.5,1466.11 
  1554.98,1466.11 1586.45,1466.11 1617.93,1466.11 1649.4,1466.11 1680.88,1466.11 1712.35,1466.11 1743.83,1466.11 1775.3,1466.11 1806.78,1466.11 1838.26,1466.11 
  1869.73,1466.11 1901.21,1466.11 1932.68,1466.11 1964.16,1466.11 1995.63,1466.11 2027.11,1466.11 2058.59,1466.11 2090.06,1466.11 2121.54,1466.11 2153.01,1466.11 
  2184.49,1466.11 2215.96,1466.11 2247.44,1466.11 2278.91,1466.11 2310.39,1466.11 2341.87,1466.11 2373.34,1466.11 2404.82,1466.11 2436.29,1466.11 2467.77,1466.11 
  2499.24,1466.11 2530.72,1466.11 2562.19,1466.11 2593.67,1466.11 2625.15,1466.11 2656.62,1466.11 2688.1,1466.11 2719.57,1466.11 2751.05,1466.11 2782.52,1466.11 
  2814,1466.11 2845.48,1466.11 2876.95,1466.11 2908.43,1466.11 2939.9,1466.11 2971.38,1466.11 3002.85,1466.11 3034.33,1466.11 3065.8,1466.11 3097.28,1466.11 
  3128.76,1466.11 3160.23,1466.11 3191.71,1466.11 3223.18,1466.11 3254.66,1466.11 3286.13,1466.11 3317.61,1466.11 3349.08,1466.11 3380.56,1466.11 3412.04,1466.11 
  3443.51,1466.11 3474.99,1466.11 3506.46,1466.11 3537.94,1466.11 3569.41,1466.11 3600.89,1466.11 3632.37,1466.11 3663.84,1466.11 3695.32,1466.11 3726.79,1466.11 
  3758.27,1466.11 
  "/>
<polyline clip-path="url(#clip8302)" style="stroke:#008900; stroke-width:48; stroke-opacity:1; fill:none" stroke-dasharray="192, 120" points="
  610.708,1466.11 642.183,1466.11 673.659,1466.11 705.134,1466.11 736.61,1466.11 768.086,1466.11 799.561,1466.11 831.037,1466.11 862.512,1466.11 893.988,1466.11 
  925.464,1466.11 956.939,1466.11 988.415,1466.11 1019.89,1466.11 1051.37,1466.11 1082.84,1466.11 1114.32,1466.11 1145.79,1466.11 1177.27,1466.11 1208.74,1466.11 
  1240.22,1466.11 1271.7,1466.11 1303.17,1466.11 1334.65,1466.11 1366.12,1466.11 1397.6,1466.11 1429.07,1466.11 1460.55,1466.11 1492.02,1466.11 1523.5,1466.11 
  1554.98,1466.11 1586.45,1466.11 1617.93,1466.11 1649.4,1466.11 1680.88,1466.11 1712.35,1466.11 1743.83,1466.11 1775.3,1466.11 1806.78,1466.11 1838.26,1466.11 
  1869.73,1466.11 1901.21,1466.11 1932.68,1466.11 1964.16,1466.11 1995.63,1466.11 2027.11,1466.11 2058.59,1466.11 2090.06,1466.11 2121.54,1466.11 2153.01,1466.11 
  2184.49,1466.11 2215.96,1466.11 2247.44,1466.11 2278.91,1466.11 2310.39,1466.11 2341.87,1466.11 2373.34,1466.11 2404.82,1466.11 2436.29,1466.11 2467.77,1466.11 
  2499.24,1466.11 2530.72,1466.11 2562.19,1466.11 2593.67,1466.11 2625.15,1466.11 2656.62,1466.11 2688.1,1466.11 2719.57,1466.11 2751.05,1466.11 2782.52,1466.11 
  2814,1466.11 2845.48,1466.11 2876.95,1466.11 2908.43,1466.11 2939.9,1466.11 2971.38,1466.11 3002.85,1466.11 3034.33,1466.11 3065.8,1466.11 3097.28,1466.11 
  3128.76,1466.11 3160.23,1466.11 3191.71,1466.11 3223.18,1466.11 3254.66,1466.11 3286.13,1466.11 3317.61,1466.11 3349.08,1466.11 3380.56,1466.11 3412.04,1466.11 
  3443.51,1466.11 3474.99,1466.11 3506.46,1466.11 3537.94,1466.11 3569.41,1466.11 3600.89,1466.11 3632.37,1466.11 3663.84,1466.11 3695.32,1466.11 3726.79,1466.11 
  3758.27,1466.11 
  "/>
<polyline clip-path="url(#clip8302)" style="stroke:#008900; stroke-width:48; stroke-opacity:1; fill:none" stroke-dasharray="24, 48" points="
  610.708,1466.11 642.183,1466.11 673.659,1466.11 705.134,1466.11 736.61,1466.11 768.086,1466.11 799.561,1466.11 831.037,1466.11 862.512,1466.11 893.988,1466.11 
  925.464,1466.11 956.939,1466.11 988.415,1466.11 1019.89,1466.11 1051.37,1466.11 1082.84,1466.11 1114.32,1466.11 1145.79,1466.11 1177.27,1466.11 1208.74,1466.11 
  1240.22,1466.11 1271.7,1466.11 1303.17,1466.11 1334.65,1466.11 1366.12,1466.11 1397.6,1466.11 1429.07,1466.11 1460.55,1466.11 1492.02,1466.11 1523.5,1466.11 
  1554.98,1466.11 1586.45,1466.11 1617.93,1466.11 1649.4,1466.11 1680.88,1466.11 1712.35,1466.11 1743.83,1466.11 1775.3,1466.11 1806.78,1466.11 1838.26,1466.11 
  1869.73,1466.11 1901.21,1466.11 1932.68,1466.11 1964.16,1466.11 1995.63,1466.11 2027.11,1466.11 2058.59,1466.11 2090.06,1466.11 2121.54,1466.11 2153.01,1466.11 
  2184.49,1466.11 2215.96,1466.11 2247.44,1466.11 2278.91,1466.11 2310.39,1466.11 2341.87,1466.11 2373.34,1466.11 2404.82,1466.11 2436.29,1466.11 2467.77,1466.11 
  2499.24,1466.11 2530.72,1466.11 2562.19,1466.11 2593.67,1466.11 2625.15,1466.11 2656.62,1466.11 2688.1,1466.11 2719.57,1466.11 2751.05,1466.11 2782.52,1466.11 
  2814,1466.11 2845.48,1466.11 2876.95,1466.11 2908.43,1466.11 2939.9,1466.11 2971.38,1466.11 3002.85,1466.11 3034.33,1466.11 3065.8,1466.11 3097.28,1466.11 
  3128.76,1466.11 3160.23,1466.11 3191.71,1466.11 3223.18,1466.11 3254.66,1466.11 3286.13,1466.11 3317.61,1466.11 3349.08,1466.11 3380.56,1466.11 3412.04,1466.11 
  3443.51,1466.11 3474.99,1466.11 3506.46,1466.11 3537.94,1466.11 3569.41,1466.11 3600.89,1466.11 3632.37,1466.11 3663.84,1466.11 3695.32,1466.11 3726.79,1466.11 
  3758.27,1466.11 
  "/>
<polyline clip-path="url(#clip8302)" style="stroke:#2000d4; stroke-width:48; stroke-opacity:1; fill:none" points="
  610.708,1464.82 642.183,1463.77 673.659,1462.82 705.134,1461.96 736.61,1461.17 768.086,1460.46 799.561,1459.81 831.037,1459.22 862.512,1458.69 893.988,1458.21 
  925.464,1457.76 956.939,1457.36 988.415,1457 1019.89,1456.67 1051.37,1456.37 1082.84,1456.1 1114.32,1455.85 1145.79,1455.63 1177.27,1455.42 1208.74,1455.23 
  1240.22,1455.07 1271.7,1454.91 1303.17,1454.77 1334.65,1454.65 1366.12,1454.53 1397.6,1454.43 1429.07,1454.33 1460.55,1454.24 1492.02,1454.16 1523.5,1454.09 
  1554.98,1454.03 1586.45,1453.97 1617.93,1453.92 1649.4,1453.87 1680.88,1453.82 1712.35,1453.78 1743.83,1453.75 1775.3,1453.71 1806.78,1453.68 1838.26,1453.65 
  1869.73,1453.63 1901.21,1453.61 1932.68,1453.59 1964.16,1453.57 1995.63,1453.55 2027.11,1453.53 2058.59,1453.52 2090.06,1453.51 2121.54,1453.5 2153.01,1453.49 
  2184.49,1453.48 2215.96,1453.47 2247.44,1453.46 2278.91,1453.45 2310.39,1453.45 2341.87,1453.44 2373.34,1453.43 2404.82,1453.43 2436.29,1453.42 2467.77,1453.42 
  2499.24,1453.42 2530.72,1453.41 2562.19,1453.41 2593.67,1453.41 2625.15,1453.4 2656.62,1453.4 2688.1,1453.4 2719.57,1453.4 2751.05,1453.4 2782.52,1453.4 
  2814,1453.39 2845.48,1453.39 2876.95,1453.39 2908.43,1453.39 2939.9,1453.39 2971.38,1453.39 3002.85,1453.39 3034.33,1453.39 3065.8,1453.39 3097.28,1453.39 
  3128.76,1453.38 3160.23,1453.38 3191.71,1453.38 3223.18,1453.38 3254.66,1453.38 3286.13,1453.38 3317.61,1453.38 3349.08,1453.38 3380.56,1453.38 3412.04,1453.38 
  3443.51,1453.38 3474.99,1453.38 3506.46,1453.38 3537.94,1453.38 3569.41,1453.38 3600.89,1453.38 3632.37,1453.38 3663.84,1453.38 3695.32,1453.38 3726.79,1453.38 
  3758.27,1453.38 
  "/>
<polyline clip-path="url(#clip8302)" style="stroke:#008900; stroke-width:48; stroke-opacity:1; fill:none" points="
  610.708,1465.46 642.183,1465.52 673.659,1465.58 705.134,1465.62 736.61,1465.66 768.086,1465.7 799.561,1465.74 831.037,1465.77 862.512,1465.8 893.988,1465.82 
  925.464,1465.85 956.939,1465.87 988.415,1465.89 1019.89,1465.9 1051.37,1465.92 1082.84,1465.93 1114.32,1465.95 1145.79,1465.96 1177.27,1465.97 1208.74,1465.98 
  1240.22,1465.99 1271.7,1466 1303.17,1466.01 1334.65,1466.01 1366.12,1466.02 1397.6,1466.02 1429.07,1466.03 1460.55,1466.03 1492.02,1466.04 1523.5,1466.04 
  1554.98,1466.04 1586.45,1466.05 1617.93,1466.05 1649.4,1466.05 1680.88,1466.06 1712.35,1466.06 1743.83,1466.06 1775.3,1466.06 1806.78,1466.06 1838.26,1466.06 
  1869.73,1466.07 1901.21,1466.07 1932.68,1466.07 1964.16,1466.07 1995.63,1466.07 2027.11,1466.07 2058.59,1466.07 2090.06,1466.07 2121.54,1466.07 2153.01,1466.07 
  2184.49,1466.07 2215.96,1466.07 2247.44,1466.08 2278.91,1466.08 2310.39,1466.08 2341.87,1466.08 2373.34,1466.08 2404.82,1466.08 2436.29,1466.08 2467.77,1466.08 
  2499.24,1466.08 2530.72,1466.08 2562.19,1466.08 2593.67,1466.08 2625.15,1466.08 2656.62,1466.08 2688.1,1466.08 2719.57,1466.08 2751.05,1466.08 2782.52,1466.08 
  2814,1466.08 2845.48,1466.08 2876.95,1466.08 2908.43,1466.08 2939.9,1466.08 2971.38,1466.08 3002.85,1466.08 3034.33,1466.08 3065.8,1466.08 3097.28,1466.08 
  3128.76,1466.08 3160.23,1466.08 3191.71,1466.08 3223.18,1466.08 3254.66,1466.08 3286.13,1466.08 3317.61,1466.08 3349.08,1466.08 3380.56,1466.08 3412.04,1466.08 
  3443.51,1466.08 3474.99,1466.08 3506.46,1466.08 3537.94,1466.08 3569.41,1466.08 3600.89,1466.08 3632.37,1466.08 3663.84,1466.08 3695.32,1466.08 3726.79,1466.08 
  3758.27,1466.08 
  "/>
<polyline clip-path="url(#clip8302)" style="stroke:#7f7f7f; stroke-width:48; stroke-opacity:1; fill:none" points="
  610.708,180.306 642.183,557.321 673.659,737.458 705.134,849.692 736.61,928.887 768.086,989.002 799.561,1036.88 831.037,1076.34 862.512,1109.69 893.988,1138.44 
  925.464,1163.61 956.939,1185.93 988.415,1205.91 1019.89,1223.96 1051.37,1240.39 1082.84,1255.43 1114.32,1269.28 1145.79,1282.07 1177.27,1293.95 1208.74,1305 
  1240.22,1315.32 1271.7,1324.98 1303.17,1334.04 1334.65,1342.55 1366.12,1350.55 1397.6,1358.09 1429.07,1365.18 1460.55,1371.87 1492.02,1378.18 1523.5,1384.13 
  1554.98,1389.74 1586.45,1395.02 1617.93,1400 1649.4,1404.69 1680.88,1409.1 1712.35,1413.24 1743.83,1417.13 1775.3,1420.77 1806.78,1424.19 1838.26,1427.38 
  1869.73,1430.37 1901.21,1433.15 1932.68,1435.75 1964.16,1438.16 1995.63,1440.4 2027.11,1442.48 2058.59,1444.41 2090.06,1446.2 2121.54,1447.85 2153.01,1449.38 
  2184.49,1450.78 2215.96,1452.08 2247.44,1453.28 2278.91,1454.37 2310.39,1455.38 2341.87,1456.31 2373.34,1457.16 2404.82,1457.94 2436.29,1458.65 2467.77,1459.31 
  2499.24,1459.91 2530.72,1460.45 2562.19,1460.95 2593.67,1461.41 2625.15,1461.83 2656.62,1462.21 2688.1,1462.56 2719.57,1462.87 2751.05,1463.16 2782.52,1463.43 
  2814,1463.67 2845.48,1463.89 2876.95,1464.09 2908.43,1464.27 2939.9,1464.43 2971.38,1464.59 3002.85,1464.72 3034.33,1464.85 3065.8,1464.96 3097.28,1465.07 
  3128.76,1465.16 3160.23,1465.25 3191.71,1465.32 3223.18,1465.39 3254.66,1465.46 3286.13,1465.52 3317.61,1465.57 3349.08,1465.62 3380.56,1465.66 3412.04,1465.7 
  3443.51,1465.74 3474.99,1465.77 3506.46,1465.8 3537.94,1465.83 3569.41,1465.86 3600.89,1465.88 3632.37,1465.9 3663.84,1465.92 3695.32,1465.94 3726.79,1465.95 
  3758.27,1465.97 
  "/>
<polyline clip-path="url(#clip8302)" style="stroke:#895f55; stroke-width:48; stroke-opacity:1; fill:none" points="
  610.708,1466.11 642.183,1464.83 673.659,1463.84 705.134,1462.94 736.61,1462.12 768.086,1461.37 799.561,1460.7 831.037,1460.08 862.512,1459.52 893.988,1459.02 
  925.464,1458.56 956.939,1458.14 988.415,1457.76 1019.89,1457.41 1051.37,1457.1 1082.84,1456.81 1114.32,1456.55 1145.79,1456.32 1177.27,1456.11 1208.74,1455.91 
  1240.22,1455.73 1271.7,1455.57 1303.17,1455.43 1334.65,1455.3 1366.12,1455.17 1397.6,1455.06 1429.07,1454.97 1460.55,1454.87 1492.02,1454.79 1523.5,1454.72 
  1554.98,1454.65 1586.45,1454.59 1617.93,1454.53 1649.4,1454.48 1680.88,1454.43 1712.35,1454.39 1743.83,1454.35 1775.3,1454.32 1806.78,1454.29 1838.26,1454.26 
  1869.73,1454.23 1901.21,1454.21 1932.68,1454.19 1964.16,1454.17 1995.63,1454.15 2027.11,1454.13 2058.59,1454.12 2090.06,1454.11 2121.54,1454.09 2153.01,1454.08 
  2184.49,1454.07 2215.96,1454.06 2247.44,1454.05 2278.91,1454.05 2310.39,1454.04 2341.87,1454.03 2373.34,1454.03 2404.82,1454.02 2436.29,1454.02 2467.77,1454.01 
  2499.24,1454.01 2530.72,1454.01 2562.19,1454 2593.67,1454 2625.15,1454 2656.62,1454 2688.1,1453.99 2719.57,1453.99 2751.05,1453.99 2782.52,1453.99 
  2814,1453.99 2845.48,1453.99 2876.95,1453.98 2908.43,1453.98 2939.9,1453.98 2971.38,1453.98 3002.85,1453.98 3034.33,1453.98 3065.8,1453.98 3097.28,1453.98 
  3128.76,1453.98 3160.23,1453.98 3191.71,1453.98 3223.18,1453.98 3254.66,1453.98 3286.13,1453.98 3317.61,1453.97 3349.08,1453.97 3380.56,1453.97 3412.04,1453.97 
  3443.51,1453.97 3474.99,1453.97 3506.46,1453.97 3537.94,1453.97 3569.41,1453.97 3600.89,1453.97 3632.37,1453.97 3663.84,1453.97 3695.32,1453.97 3726.79,1453.97 
  3758.27,1453.97 
  "/>
<polyline clip-path="url(#clip8302)" style="stroke:#2000d4; stroke-width:48; stroke-opacity:1; fill:none" stroke-dasharray="192, 120" points="
  610.708,1466.11 642.183,1466.11 673.659,1466.11 705.134,1466.11 736.61,1466.11 768.086,1466.11 799.561,1466.11 831.037,1466.11 862.512,1466.11 893.988,1466.11 
  925.464,1466.11 956.939,1466.11 988.415,1466.11 1019.89,1466.11 1051.37,1466.11 1082.84,1466.11 1114.32,1466.11 1145.79,1466.11 1177.27,1466.11 1208.74,1466.11 
  1240.22,1466.11 1271.7,1466.11 1303.17,1466.11 1334.65,1466.11 1366.12,1466.11 1397.6,1466.11 1429.07,1466.11 1460.55,1466.11 1492.02,1466.11 1523.5,1466.11 
  1554.98,1466.11 1586.45,1466.11 1617.93,1466.11 1649.4,1466.11 1680.88,1466.11 1712.35,1466.11 1743.83,1466.11 1775.3,1466.11 1806.78,1466.11 1838.26,1466.11 
  1869.73,1466.11 1901.21,1466.11 1932.68,1466.11 1964.16,1466.11 1995.63,1466.11 2027.11,1466.11 2058.59,1466.11 2090.06,1466.11 2121.54,1466.11 2153.01,1466.11 
  2184.49,1466.11 2215.96,1466.11 2247.44,1466.11 2278.91,1466.11 2310.39,1466.11 2341.87,1466.11 2373.34,1466.11 2404.82,1466.11 2436.29,1466.11 2467.77,1466.11 
  2499.24,1466.11 2530.72,1466.11 2562.19,1466.11 2593.67,1466.11 2625.15,1466.11 2656.62,1466.11 2688.1,1466.11 2719.57,1466.11 2751.05,1466.11 2782.52,1466.11 
  2814,1466.11 2845.48,1466.11 2876.95,1466.11 2908.43,1466.11 2939.9,1466.11 2971.38,1466.11 3002.85,1466.11 3034.33,1466.11 3065.8,1466.11 3097.28,1466.11 
  3128.76,1466.11 3160.23,1466.11 3191.71,1466.11 3223.18,1466.11 3254.66,1466.11 3286.13,1466.11 3317.61,1466.11 3349.08,1466.11 3380.56,1466.11 3412.04,1466.11 
  3443.51,1466.11 3474.99,1466.11 3506.46,1466.11 3537.94,1466.11 3569.41,1466.11 3600.89,1466.11 3632.37,1466.11 3663.84,1466.11 3695.32,1466.11 3726.79,1466.11 
  3758.27,1466.11 
  "/>
<polyline clip-path="url(#clip8302)" style="stroke:#000000; stroke-width:48; stroke-opacity:1; fill:none" stroke-dasharray="24, 48" points="
  610.708,180.306 642.183,181.579 673.659,182.783 705.134,183.886 736.61,184.89 768.086,185.803 799.561,186.631 831.037,187.384 862.512,188.068 893.988,188.689 
  925.464,189.253 956.939,189.766 988.415,190.231 1019.89,190.654 1051.37,191.039 1082.84,191.388 1114.32,191.705 1145.79,191.993 1177.27,192.255 1208.74,192.493 
  1240.22,192.71 1271.7,192.906 1303.17,193.085 1334.65,193.247 1366.12,193.395 1397.6,193.529 1429.07,193.651 1460.55,193.762 1492.02,193.863 1523.5,193.954 
  1554.98,194.037 1586.45,194.113 1617.93,194.182 1649.4,194.244 1680.88,194.301 1712.35,194.353 1743.83,194.4 1775.3,194.442 1806.78,194.481 1838.26,194.516 
  1869.73,194.548 1901.21,194.577 1932.68,194.604 1964.16,194.628 1995.63,194.65 2027.11,194.67 2058.59,194.688 2090.06,194.704 2121.54,194.719 2153.01,194.733 
  2184.49,194.745 2215.96,194.756 2247.44,194.766 2278.91,194.776 2310.39,194.784 2341.87,194.792 2373.34,194.799 2404.82,194.805 2436.29,194.811 2467.77,194.816 
  2499.24,194.821 2530.72,194.825 2562.19,194.829 2593.67,194.833 2625.15,194.836 2656.62,194.839 2688.1,194.841 2719.57,194.844 2751.05,194.846 2782.52,194.848 
  2814,194.85 2845.48,194.852 2876.95,194.853 2908.43,194.854 2939.9,194.856 2971.38,194.857 3002.85,194.858 3034.33,194.859 3065.8,194.86 3097.28,194.86 
  3128.76,194.861 3160.23,194.862 3191.71,194.862 3223.18,194.863 3254.66,194.863 3286.13,194.864 3317.61,194.864 3349.08,194.865 3380.56,194.865 3412.04,194.865 
  3443.51,194.865 3474.99,194.866 3506.46,194.866 3537.94,194.866 3569.41,194.866 3600.89,194.867 3632.37,194.867 3663.84,194.867 3695.32,194.867 3726.79,194.867 
  3758.27,194.867 
  "/>
</svg>
