<?xml version="1.0" encoding="utf-8"?>
<svg xmlns="http://www.w3.org/2000/svg" xmlns:xlink="http://www.w3.org/1999/xlink" width="325" height="150" viewBox="0 0 1300 600">
<defs>
  <clipPath id="clip250">
    <rect x="0" y="0" width="1300" height="600"/>
  </clipPath>
</defs>
<path clip-path="url(#clip250)" d="
M0 600 L1300 600 L1300 0 L0 0  Z
  " fill="#ffffff" fill-rule="evenodd" fill-opacity="1"/>
<defs>
  <clipPath id="clip251">
    <rect x="260" y="0" width="911" height="600"/>
  </clipPath>
</defs>
<path clip-path="url(#clip250)" d="
M202.617 501.1 L1252.76 501.1 L1252.76 47.2441 L202.617 47.2441  Z
  " fill="#ffffff" fill-rule="evenodd" fill-opacity="1"/>
<defs>
  <clipPath id="clip252">
    <rect x="202" y="47" width="1051" height="455"/>
  </clipPath>
</defs>
<polyline clip-path="url(#clip250)" style="stroke:#000000; stroke-linecap:butt; stroke-linejoin:round; stroke-width:4; stroke-opacity:1; fill:none" points="
  202.617,501.1 1252.76,501.1 
  "/>
<polyline clip-path="url(#clip250)" style="stroke:#000000; stroke-linecap:butt; stroke-linejoin:round; stroke-width:4; stroke-opacity:1; fill:none" points="
  202.617,501.1 202.617,482.203 
  "/>
<polyline clip-path="url(#clip250)" style="stroke:#000000; stroke-linecap:butt; stroke-linejoin:round; stroke-width:4; stroke-opacity:1; fill:none" points="
  551.501,501.1 551.501,482.203 
  "/>
<polyline clip-path="url(#clip250)" style="stroke:#000000; stroke-linecap:butt; stroke-linejoin:round; stroke-width:4; stroke-opacity:1; fill:none" points="
  900.384,501.1 900.384,482.203 
  "/>
<polyline clip-path="url(#clip250)" style="stroke:#000000; stroke-linecap:butt; stroke-linejoin:round; stroke-width:4; stroke-opacity:1; fill:none" points="
  1249.27,501.1 1249.27,482.203 
  "/>
<path clip-path="url(#clip250)" d="M202.617 526.149 Q198.103 526.149 195.818 530.605 Q193.561 535.032 193.561 543.944 Q193.561 552.827 195.818 557.283 Q198.103 561.71 202.617 561.71 Q207.16 561.71 209.417 557.283 Q211.703 552.827 211.703 543.944 Q211.703 535.032 209.417 530.605 Q207.16 526.149 202.617 526.149 M202.617 521.519 Q209.88 521.519 213.699 527.277 Q217.548 533.006 217.548 543.944 Q217.548 554.852 213.699 560.61 Q209.88 566.339 202.617 566.339 Q195.355 566.339 191.506 560.61 Q187.687 554.852 187.687 543.944 Q187.687 533.006 191.506 527.277 Q195.355 521.519 202.617 521.519 Z" fill="#000000" fill-rule="evenodd" fill-opacity="1" /><path clip-path="url(#clip250)" d="M501.009 560.581 L510.557 560.581 L510.557 527.624 L500.17 529.708 L500.17 524.384 L510.5 522.3 L516.344 522.3 L516.344 560.581 L525.893 560.581 L525.893 565.5 L501.009 565.5 L501.009 560.581 Z" fill="#000000" fill-rule="evenodd" fill-opacity="1" /><path clip-path="url(#clip250)" d="M550.198 526.149 Q545.685 526.149 543.399 530.605 Q541.142 535.032 541.142 543.944 Q541.142 552.827 543.399 557.283 Q545.685 561.71 550.198 561.71 Q554.741 561.71 556.998 557.283 Q559.284 552.827 559.284 543.944 Q559.284 535.032 556.998 530.605 Q554.741 526.149 550.198 526.149 M550.198 521.519 Q557.461 521.519 561.281 527.277 Q565.129 533.006 565.129 543.944 Q565.129 554.852 561.281 560.61 Q557.461 566.339 550.198 566.339 Q542.936 566.339 539.087 560.61 Q535.268 554.852 535.268 543.944 Q535.268 533.006 539.087 527.277 Q542.936 521.519 550.198 521.519 Z" fill="#000000" fill-rule="evenodd" fill-opacity="1" /><path clip-path="url(#clip250)" d="M587.901 526.149 Q583.387 526.149 581.101 530.605 Q578.844 535.032 578.844 543.944 Q578.844 552.827 581.101 557.283 Q583.387 561.71 587.901 561.71 Q592.444 561.71 594.701 557.283 Q596.986 552.827 596.986 543.944 Q596.986 535.032 594.701 530.605 Q592.444 526.149 587.901 526.149 M587.901 521.519 Q595.163 521.519 598.983 527.277 Q602.831 533.006 602.831 543.944 Q602.831 554.852 598.983 560.61 Q595.163 566.339 587.901 566.339 Q580.638 566.339 576.79 560.61 Q572.97 554.852 572.97 543.944 Q572.97 533.006 576.79 527.277 Q580.638 521.519 587.901 521.519 Z" fill="#000000" fill-rule="evenodd" fill-opacity="1" /><path clip-path="url(#clip250)" d="M854.999 560.581 L875.398 560.581 L875.398 565.5 L847.968 565.5 L847.968 560.581 Q851.296 557.138 857.025 551.351 Q862.783 545.535 864.258 543.857 Q867.065 540.703 868.165 538.533 Q869.293 536.334 869.293 534.221 Q869.293 530.778 866.863 528.608 Q864.461 526.438 860.584 526.438 Q857.835 526.438 854.768 527.393 Q851.73 528.348 848.257 530.286 L848.257 524.384 Q851.787 522.966 854.855 522.242 Q857.922 521.519 860.468 521.519 Q867.181 521.519 871.174 524.875 Q875.167 528.232 875.167 533.845 Q875.167 536.507 874.154 538.909 Q873.17 541.282 870.537 544.522 Q869.814 545.361 865.937 549.383 Q862.059 553.376 854.999 560.581 Z" fill="#000000" fill-rule="evenodd" fill-opacity="1" /><path clip-path="url(#clip250)" d="M900.167 526.149 Q895.653 526.149 893.367 530.605 Q891.11 535.032 891.11 543.944 Q891.11 552.827 893.367 557.283 Q895.653 561.71 900.167 561.71 Q904.71 561.71 906.967 557.283 Q909.252 552.827 909.252 543.944 Q909.252 535.032 906.967 530.605 Q904.71 526.149 900.167 526.149 M900.167 521.519 Q907.429 521.519 911.249 527.277 Q915.097 533.006 915.097 543.944 Q915.097 554.852 911.249 560.61 Q907.429 566.339 900.167 566.339 Q892.904 566.339 889.056 560.61 Q885.236 554.852 885.236 543.944 Q885.236 533.006 889.056 527.277 Q892.904 521.519 900.167 521.519 Z" fill="#000000" fill-rule="evenodd" fill-opacity="1" /><path clip-path="url(#clip250)" d="M937.869 526.149 Q933.355 526.149 931.069 530.605 Q928.812 535.032 928.812 543.944 Q928.812 552.827 931.069 557.283 Q933.355 561.71 937.869 561.71 Q942.412 561.71 944.669 557.283 Q946.955 552.827 946.955 543.944 Q946.955 535.032 944.669 530.605 Q942.412 526.149 937.869 526.149 M937.869 521.519 Q945.132 521.519 948.951 527.277 Q952.8 533.006 952.8 543.944 Q952.8 554.852 948.951 560.61 Q945.132 566.339 937.869 566.339 Q930.606 566.339 926.758 560.61 Q922.939 554.852 922.939 543.944 Q922.939 533.006 926.758 527.277 Q930.606 521.519 937.869 521.519 Z" fill="#000000" fill-rule="evenodd" fill-opacity="1" /><path clip-path="url(#clip250)" d="M1216.47 542.207 Q1220.66 543.104 1223.01 545.94 Q1225.38 548.776 1225.38 552.942 Q1225.38 559.337 1220.98 562.838 Q1216.58 566.339 1208.48 566.339 Q1205.76 566.339 1202.87 565.79 Q1200.01 565.269 1196.94 564.198 L1196.94 558.556 Q1199.37 559.974 1202.26 560.697 Q1205.16 561.42 1208.31 561.42 Q1213.81 561.42 1216.67 559.25 Q1219.57 557.08 1219.57 552.942 Q1219.57 549.123 1216.87 546.982 Q1214.21 544.812 1209.44 544.812 L1204.4 544.812 L1204.4 540.008 L1209.67 540.008 Q1213.98 540.008 1216.27 538.301 Q1218.55 536.565 1218.55 533.324 Q1218.55 529.997 1216.18 528.232 Q1213.84 526.438 1209.44 526.438 Q1207.04 526.438 1204.29 526.959 Q1201.54 527.48 1198.24 528.579 L1198.24 523.371 Q1201.57 522.445 1204.46 521.982 Q1207.38 521.519 1209.96 521.519 Q1216.61 521.519 1220.49 524.557 Q1224.37 527.566 1224.37 532.717 Q1224.37 536.305 1222.31 538.793 Q1220.26 541.253 1216.47 542.207 Z" fill="#000000" fill-rule="evenodd" fill-opacity="1" /><path clip-path="url(#clip250)" d="M1248.96 526.149 Q1244.45 526.149 1242.16 530.605 Q1239.91 535.032 1239.91 543.944 Q1239.91 552.827 1242.16 557.283 Q1244.45 561.71 1248.96 561.71 Q1253.51 561.71 1255.76 557.283 Q1258.05 552.827 1258.05 543.944 Q1258.05 535.032 1255.76 530.605 Q1253.51 526.149 1248.96 526.149 M1248.96 521.519 Q1256.23 521.519 1260.05 527.277 Q1263.89 533.006 1263.89 543.944 Q1263.89 554.852 1260.05 560.61 Q1256.23 566.339 1248.96 566.339 Q1241.7 566.339 1237.85 560.61 Q1234.03 554.852 1234.03 543.944 Q1234.03 533.006 1237.85 527.277 Q1241.7 521.519 1248.96 521.519 Z" fill="#000000" fill-rule="evenodd" fill-opacity="1" /><path clip-path="url(#clip250)" d="M1286.67 526.149 Q1282.15 526.149 1279.87 530.605 Q1277.61 535.032 1277.61 543.944 Q1277.61 552.827 1279.87 557.283 Q1282.15 561.71 1286.67 561.71 Q1291.21 561.71 1293.47 557.283 Q1295.75 552.827 1295.75 543.944 Q1295.75 535.032 1293.47 530.605 Q1291.21 526.149 1286.67 526.149 M1286.67 521.519 Q1293.93 521.519 1297.75 527.277 Q1301.6 533.006 1301.6 543.944 Q1301.6 554.852 1297.75 560.61 Q1293.93 566.339 1286.67 566.339 Q1279.4 566.339 1275.55 560.61 Q1271.74 554.852 1271.74 543.944 Q1271.74 533.006 1275.55 527.277 Q1279.4 521.519 1286.67 521.519 Z" fill="#000000" fill-rule="evenodd" fill-opacity="1" /><polyline clip-path="url(#clip250)" style="stroke:#000000; stroke-linecap:butt; stroke-linejoin:round; stroke-width:4; stroke-opacity:1; fill:none" points="
  202.617,501.1 202.617,47.2441 
  "/>
<polyline clip-path="url(#clip250)" style="stroke:#000000; stroke-linecap:butt; stroke-linejoin:round; stroke-width:4; stroke-opacity:1; fill:none" points="
  202.617,334.57 221.515,334.57 
  "/>
<polyline clip-path="url(#clip250)" style="stroke:#000000; stroke-linecap:butt; stroke-linejoin:round; stroke-width:4; stroke-opacity:1; fill:none" points="
  202.617,57.0189 221.515,57.0189 
  "/>
<path clip-path="url(#clip250)" d="M57.3312 359.31 L66.8798 359.31 L66.8798 326.353 L56.4921 328.437 L56.4921 323.113 L66.8219 321.029 L72.6668 321.029 L72.6668 359.31 L82.2154 359.31 L82.2154 364.229 L57.3312 364.229 L57.3312 359.31 Z" fill="#000000" fill-rule="evenodd" fill-opacity="1" /><path clip-path="url(#clip250)" d="M106.521 324.878 Q102.007 324.878 99.7211 329.334 Q97.4641 333.761 97.4641 342.673 Q97.4641 351.556 99.7211 356.012 Q102.007 360.439 106.521 360.439 Q111.064 360.439 113.321 356.012 Q115.606 351.556 115.606 342.673 Q115.606 333.761 113.321 329.334 Q111.064 324.878 106.521 324.878 M106.521 320.248 Q113.783 320.248 117.603 326.006 Q121.451 331.735 121.451 342.673 Q121.451 353.581 117.603 359.339 Q113.783 365.068 106.521 365.068 Q99.2581 365.068 95.4097 359.339 Q91.5903 353.581 91.5903 342.673 Q91.5903 331.735 95.4097 326.006 Q99.2581 320.248 106.521 320.248 Z" fill="#000000" fill-rule="evenodd" fill-opacity="1" /><path clip-path="url(#clip250)" d="M121.451 312.875 L151.591 312.875 L151.591 316.871 L121.451 316.871 L121.451 312.875 Z" fill="#000000" fill-rule="evenodd" fill-opacity="1" /><path clip-path="url(#clip250)" d="M161.888 294.866 L180.531 294.866 L180.531 298.863 L166.237 298.863 L166.237 307.467 Q167.272 307.115 168.306 306.95 Q169.341 306.762 170.375 306.762 Q176.252 306.762 179.685 309.983 Q183.117 313.204 183.117 318.705 Q183.117 324.371 179.591 327.521 Q176.064 330.648 169.646 330.648 Q167.436 330.648 165.132 330.272 Q162.852 329.896 160.407 329.143 L160.407 324.371 Q162.523 325.523 164.78 326.087 Q167.037 326.651 169.552 326.651 Q173.619 326.651 175.994 324.512 Q178.368 322.373 178.368 318.705 Q178.368 315.038 175.994 312.898 Q173.619 310.759 169.552 310.759 Q167.648 310.759 165.744 311.182 Q163.863 311.605 161.888 312.499 L161.888 294.866 Z" fill="#000000" fill-rule="evenodd" fill-opacity="1" /><path clip-path="url(#clip250)" d="M94.7352 81.7595 L104.284 81.7595 L104.284 48.8025 L93.8961 50.8858 L93.8961 45.5618 L104.226 43.4784 L110.071 43.4784 L110.071 81.7595 L119.619 81.7595 L119.619 86.6784 L94.7352 86.6784 L94.7352 81.7595 Z" fill="#000000" fill-rule="evenodd" fill-opacity="1" /><path clip-path="url(#clip250)" d="M143.925 47.3268 Q139.411 47.3268 137.125 51.7828 Q134.868 56.2099 134.868 65.1218 Q134.868 74.0049 137.125 78.4609 Q139.411 82.888 143.925 82.888 Q148.468 82.888 150.724 78.4609 Q153.01 74.0049 153.01 65.1218 Q153.01 56.2099 150.724 51.7828 Q148.468 47.3268 143.925 47.3268 M143.925 42.6972 Q151.187 42.6972 155.007 48.4553 Q158.855 54.1844 158.855 65.1218 Q158.855 76.0304 155.007 81.7884 Q151.187 87.5176 143.925 87.5176 Q136.662 87.5176 132.814 81.7884 Q128.994 76.0304 128.994 65.1218 Q128.994 54.1844 132.814 48.4553 Q136.662 42.6972 143.925 42.6972 Z" fill="#000000" fill-rule="evenodd" fill-opacity="1" /><path clip-path="url(#clip250)" d="M170.986 20.4422 Q167.319 20.4422 165.461 24.0627 Q163.628 27.6597 163.628 34.9007 Q163.628 42.1182 165.461 45.7387 Q167.319 49.3357 170.986 49.3357 Q174.677 49.3357 176.511 45.7387 Q178.368 42.1182 178.368 34.9007 Q178.368 27.6597 176.511 24.0627 Q174.677 20.4422 170.986 20.4422 M170.986 16.6807 Q176.887 16.6807 179.99 21.3591 Q183.117 26.014 183.117 34.9007 Q183.117 43.7639 179.99 48.4423 Q176.887 53.0972 170.986 53.0972 Q165.085 53.0972 161.959 48.4423 Q158.855 43.7639 158.855 34.9007 Q158.855 26.014 161.959 21.3591 Q165.085 16.6807 170.986 16.6807 Z" fill="#000000" fill-rule="evenodd" fill-opacity="1" /><polyline clip-path="url(#clip252)" style="stroke:#2000d4; stroke-linecap:butt; stroke-linejoin:round; stroke-width:16; stroke-opacity:1; fill:none" stroke-dasharray="8, 16" points="
  209.595,376.92 213.084,347.944 216.573,326.085 220.061,307.19 223.55,289.945 227.039,273.778 230.528,258.399 234.017,243.671 237.506,229.547 240.994,216.057 
  244.483,203.299 247.972,191.432 251.461,180.651 254.95,171.147 258.439,163.04 261.927,156.331 265.416,150.896 268.905,146.521 272.394,142.966 275.883,140.015 
  279.372,137.491 282.86,135.266 286.349,133.249 289.838,131.379 293.327,129.617 296.816,127.935 300.305,126.317 303.793,124.751 307.282,123.232 310.771,121.753 
  314.26,120.312 317.749,118.905 321.238,117.533 324.726,116.192 328.215,114.882 331.704,113.603 335.193,112.354 338.682,111.136 342.171,109.947 345.659,108.789 
  349.148,107.661 352.637,106.565 356.126,105.501 359.615,104.469 363.104,103.47 366.592,102.505 370.081,101.575 373.57,100.681 377.059,99.8241 380.548,99.005 
  384.037,98.225 387.525,97.485 391.014,96.7861 394.503,96.1295 397.992,95.516 401.481,94.9464 404.97,94.4216 408.458,93.9421 411.947,93.5084 415.436,93.1207 
  418.925,92.7792 422.414,92.4838 425.903,92.2341 429.391,92.0298 432.88,91.8701 436.369,91.7542 439.858,91.681 443.347,91.6493 446.836,91.6576 450.324,91.7045 
  453.813,91.7883 457.302,91.907 460.791,92.0589 464.28,92.2418 467.769,92.4537 471.257,92.6926 474.746,92.9561 478.235,93.2422 481.724,93.5488 485.213,93.8735 
  488.702,94.2145 492.19,94.5694 495.679,94.9365 499.168,95.3136 502.657,95.6989 506.146,96.0906 509.635,96.4871 513.123,96.8865 516.612,97.2875 520.101,97.6885 
  523.59,98.0882 527.079,98.4853 530.568,98.8786 534.056,99.2672 537.545,99.6499 541.034,100.026 544.523,100.394 548.012,100.755 551.501,101.106 554.989,101.448 
  558.478,101.78 561.967,102.102 565.456,102.413 568.945,102.713 572.434,103.002 575.922,103.279 579.411,103.545 582.9,103.8 586.389,104.043 589.878,104.274 
  593.367,104.494 596.855,104.703 600.344,104.9 603.833,105.086 607.322,105.262 610.811,105.426 614.3,105.581 617.788,105.725 621.277,105.859 624.766,105.983 
  628.255,106.098 631.744,106.204 635.233,106.301 638.721,106.389 642.21,106.47 645.699,106.542 649.188,106.606 652.677,106.664 656.166,106.714 659.654,106.757 
  663.143,106.794 666.632,106.824 670.121,106.849 673.61,106.868 677.098,106.881 680.587,106.89 684.076,106.893 687.565,106.892 691.054,106.886 694.543,106.876 
  698.031,106.862 701.52,106.844 705.009,106.822 708.498,106.797 711.987,106.769 715.476,106.738 718.964,106.703 722.453,106.666 725.942,106.627 729.431,106.585 
  732.92,106.54 736.409,106.494 739.897,106.445 743.386,106.395 746.875,106.342 750.364,106.288 753.853,106.233 757.342,106.176 760.83,106.117 764.319,106.057 
  767.808,105.996 771.297,105.934 774.786,105.871 778.275,105.807 781.763,105.742 785.252,105.676 788.741,105.609 792.23,105.542 795.719,105.473 799.208,105.405 
  802.696,105.335 806.185,105.266 809.674,105.195 813.163,105.125 816.652,105.053 820.141,104.982 823.629,104.91 827.118,104.838 830.607,104.766 834.096,104.693 
  837.585,104.621 841.074,104.548 844.562,104.475 848.051,104.402 851.54,104.329 855.029,104.255 858.518,104.182 862.007,104.109 865.495,104.035 868.984,103.962 
  872.473,103.889 875.962,103.815 879.451,103.742 882.94,103.669 886.428,103.596 889.917,103.523 893.406,103.45 896.895,103.377 900.384,103.304 903.873,103.232 
  907.361,103.159 910.85,103.087 914.339,103.015 917.828,102.943 921.317,102.871 924.806,102.799 928.294,102.728 931.783,102.656 935.272,102.585 938.761,102.514 
  942.25,102.443 945.739,102.373 949.227,102.302 952.716,102.232 956.205,102.162 959.694,102.092 963.183,102.022 966.672,101.953 970.16,101.884 973.649,101.815 
  977.138,101.746 980.627,101.677 984.116,101.609 987.605,101.541 991.093,101.473 994.582,101.405 998.071,101.338 1001.56,101.27 1005.05,101.203 1008.54,101.137 
  1012.03,101.07 1015.52,101.004 1019,100.937 1022.49,100.871 1025.98,100.806 1029.47,100.74 1032.96,100.675 1036.45,100.61 1039.94,100.545 1043.43,100.48 
  1046.91,100.416 1050.4,100.352 1053.89,100.288 1057.38,100.224 1060.87,100.16 1064.36,100.097 1067.85,100.034 1071.34,99.9711 1074.83,99.9084 1078.31,99.846 
  1081.8,99.7837 1085.29,99.7217 1088.78,99.6599 1092.27,99.5982 1095.76,99.5368 1099.25,99.4756 1102.74,99.4146 1106.22,99.3539 1109.71,99.2933 1113.2,99.2329 
  1116.69,99.1728 1120.18,99.1128 1123.67,99.053 1127.16,98.9935 1130.65,98.9341 1134.14,98.875 1137.62,98.816 1141.11,98.7573 1144.6,98.6987 1148.09,98.6403 
  1151.58,98.5822 1155.07,98.5242 1158.56,98.4664 1162.05,98.4088 1165.54,98.3515 1169.02,98.2942 1172.51,98.2372 1176,98.1804 1179.49,98.1238 1182.98,98.0673 
  1186.47,98.0111 1189.96,97.955 1193.45,97.8991 1196.93,97.8434 1200.42,97.7878 1203.91,97.7325 1207.4,97.6773 1210.89,97.6223 1214.38,97.5675 1217.87,97.5129 
  1221.36,97.4585 1224.85,97.4042 1228.33,97.3501 1231.82,97.2961 1235.31,97.2424 1238.8,97.1888 1242.29,97.1354 1245.78,97.0821 1249.27,97.0291 1252.76,96.9762 
  
  "/>
<polyline clip-path="url(#clip252)" style="stroke:#008900; stroke-linecap:butt; stroke-linejoin:round; stroke-width:16; stroke-opacity:1; fill:none" stroke-dasharray="64, 40" points="
  209.595,410.574 213.084,388.178 216.573,372.157 220.061,358.465 223.55,345.875 227.039,333.879 230.528,322.238 234.017,310.842 237.506,299.654 240.994,288.688 
  244.483,278.005 247.972,267.706 251.461,257.938 254.95,248.869 258.439,240.653 261.927,233.366 265.416,226.932 268.905,221.095 272.394,215.459 275.883,209.6 
  279.372,203.193 282.86,196.118 286.349,188.466 289.838,180.462 293.327,172.363 296.816,164.382 300.305,156.679 303.793,149.366 307.282,142.524 310.771,136.204 
  314.26,130.427 317.749,125.186 321.238,120.445 324.726,116.148 328.215,112.227 331.704,108.605 335.193,105.212 338.682,101.981 342.171,98.8581 345.659,95.8023 
  349.148,92.7851 352.637,89.7922 356.126,86.8232 359.615,83.891 363.104,81.0209 366.592,78.2478 370.081,75.6127 373.57,73.1565 377.059,70.9141 380.548,68.9092 
  384.037,67.1518 387.525,65.6378 391.014,64.3523 394.503,63.2728 397.992,62.373 401.481,61.6263 404.97,61.0077 408.458,60.4949 411.947,60.0685 415.436,59.7128 
  418.925,59.4144 422.414,59.1628 425.903,58.9493 429.391,58.767 432.88,58.6105 436.369,58.4753 439.858,58.3578 443.347,58.2551 446.836,58.1649 450.324,58.0853 
  453.813,58.0146 457.302,57.9516 460.791,57.8953 464.28,57.8447 467.769,57.799 471.257,57.7577 474.746,57.7202 478.235,57.686 481.724,57.6547 485.213,57.6261 
  488.702,57.5997 492.19,57.5755 495.679,57.5531 499.168,57.5323 502.657,57.513 506.146,57.4951 509.635,57.4784 513.123,57.4628 516.612,57.4482 520.101,57.4345 
  523.59,57.4216 527.079,57.4095 530.568,57.3981 534.056,57.3873 537.545,57.3772 541.034,57.3675 544.523,57.3584 548.012,57.3497 551.501,57.3415 554.989,57.3336 
  558.478,57.3261 561.967,57.319 565.456,57.3122 568.945,57.3057 572.434,57.2995 575.922,57.2935 579.411,57.2878 582.9,57.2823 586.389,57.2771 589.878,57.272 
  593.367,57.2671 596.855,57.2625 600.344,57.2579 603.833,57.2536 607.322,57.2494 610.811,57.2454 614.3,57.2415 617.788,57.2377 621.277,57.234 624.766,57.2305 
  628.255,57.2271 631.744,57.2238 635.233,57.2206 638.721,57.2175 642.21,57.2145 645.699,57.2115 649.188,57.2087 652.677,57.2059 656.166,57.2033 659.654,57.2007 
  663.143,57.1981 666.632,57.1957 670.121,57.1933 673.61,57.191 677.098,57.1887 680.587,57.1865 684.076,57.1843 687.565,57.1822 691.054,57.1802 694.543,57.1782 
  698.031,57.1762 701.52,57.1743 705.009,57.1725 708.498,57.1707 711.987,57.1689 715.476,57.1672 718.964,57.1655 722.453,57.1638 725.942,57.1622 729.431,57.1606 
  732.92,57.1591 736.409,57.1576 739.897,57.1561 743.386,57.1546 746.875,57.1532 750.364,57.1518 753.853,57.1505 757.342,57.1491 760.83,57.1478 764.319,57.1465 
  767.808,57.1453 771.297,57.144 774.786,57.1428 778.275,57.1417 781.763,57.1405 785.252,57.1394 788.741,57.1382 792.23,57.1371 795.719,57.1361 799.208,57.135 
  802.696,57.134 806.185,57.1329 809.674,57.1319 813.163,57.1309 816.652,57.13 820.141,57.129 823.629,57.1281 827.118,57.1272 830.607,57.1263 834.096,57.1254 
  837.585,57.1245 841.074,57.1236 844.562,57.1228 848.051,57.1219 851.54,57.1211 855.029,57.1203 858.518,57.1195 862.007,57.1187 865.495,57.118 868.984,57.1172 
  872.473,57.1165 875.962,57.1157 879.451,57.115 882.94,57.1143 886.428,57.1136 889.917,57.1129 893.406,57.1122 896.895,57.1115 900.384,57.1109 903.873,57.1102 
  907.361,57.1096 910.85,57.1089 914.339,57.1083 917.828,57.1077 921.317,57.1071 924.806,57.1065 928.294,57.1059 931.783,57.1053 935.272,57.1047 938.761,57.1042 
  942.25,57.1036 945.739,57.103 949.227,57.1025 952.716,57.102 956.205,57.1014 959.694,57.1009 963.183,57.1004 966.672,57.0999 970.16,57.0994 973.649,57.0989 
  977.138,57.0984 980.627,57.0979 984.116,57.0974 987.605,57.0969 991.093,57.0964 994.582,57.096 998.071,57.0955 1001.56,57.0951 1005.05,57.0946 1008.54,57.0942 
  1012.03,57.0937 1015.52,57.0933 1019,57.0929 1022.49,57.0924 1025.98,57.092 1029.47,57.0916 1032.96,57.0912 1036.45,57.0908 1039.94,57.0904 1043.43,57.09 
  1046.91,57.0896 1050.4,57.0892 1053.89,57.0888 1057.38,57.0885 1060.87,57.0881 1064.36,57.0877 1067.85,57.0874 1071.34,57.087 1074.83,57.0866 1078.31,57.0863 
  1081.8,57.0859 1085.29,57.0856 1088.78,57.0852 1092.27,57.0849 1095.76,57.0846 1099.25,57.0842 1102.74,57.0839 1106.22,57.0836 1109.71,57.0833 1113.2,57.0829 
  1116.69,57.0826 1120.18,57.0823 1123.67,57.082 1127.16,57.0817 1130.65,57.0814 1134.14,57.0811 1137.62,57.0808 1141.11,57.0805 1144.6,57.0802 1148.09,57.0799 
  1151.58,57.0796 1155.07,57.0793 1158.56,57.0791 1162.05,57.0788 1165.54,57.0785 1169.02,57.0782 1172.51,57.078 1176,57.0777 1179.49,57.0774 1182.98,57.0772 
  1186.47,57.0769 1189.96,57.0766 1193.45,57.0764 1196.93,57.0761 1200.42,57.0759 1203.91,57.0756 1207.4,57.0754 1210.89,57.0751 1214.38,57.0749 1217.87,57.0746 
  1221.36,57.0744 1224.85,57.0742 1228.33,57.0739 1231.82,57.0737 1235.31,57.0735 1238.8,57.0732 1242.29,57.073 1245.78,57.0728 1249.27,57.0726 1252.76,57.0723 
  
  "/>
<polyline clip-path="url(#clip252)" style="stroke:#008900; stroke-linecap:butt; stroke-linejoin:round; stroke-width:16; stroke-opacity:1; fill:none" stroke-dasharray="8, 16" points="
  209.595,410.856 213.084,389.076 216.573,373.553 220.061,360.255 223.55,347.972 227.039,336.216 230.528,324.765 234.017,313.528 237.506,302.48 240.994,291.652 
  244.483,281.119 247.972,271.002 251.461,261.474 254.95,252.743 258.439,245.021 261.927,238.467 265.416,233.121 268.905,228.87 272.394,225.467 275.883,222.579 
  279.372,219.863 282.86,217.019 286.349,213.855 289.838,210.316 293.327,206.472 296.816,202.459 300.305,198.418 303.793,194.458 307.282,190.652 310.771,187.042 
  314.26,183.651 317.749,180.488 321.238,177.551 324.726,174.828 328.215,172.307 331.704,169.971 335.193,167.802 338.682,165.784 342.171,163.903 345.659,162.143 
  349.148,160.493 352.637,158.942 356.126,157.479 359.615,156.096 363.104,154.784 366.592,153.536 370.081,152.346 373.57,151.206 377.059,150.113 380.548,149.061 
  384.037,148.048 387.525,147.07 391.014,146.125 394.503,145.211 397.992,144.327 401.481,143.472 404.97,142.644 408.458,141.841 411.947,141.064 415.436,140.31 
  418.925,139.579 422.414,138.87 425.903,138.18 429.391,137.51 432.88,136.858 436.369,136.224 439.858,135.606 443.347,135.004 446.836,134.418 450.324,133.845 
  453.813,133.287 457.302,132.741 460.791,132.208 464.28,131.687 467.769,131.178 471.257,130.679 474.746,130.191 478.235,129.714 481.724,129.246 485.213,128.787 
  488.702,128.338 492.19,127.897 495.679,127.464 499.168,127.04 502.657,126.623 506.146,126.214 509.635,125.812 513.123,125.418 516.612,125.03 520.101,124.648 
  523.59,124.273 527.079,123.904 530.568,123.541 534.056,123.184 537.545,122.833 541.034,122.487 544.523,122.146 548.012,121.81 551.501,121.48 554.989,121.154 
  558.478,120.833 561.967,120.516 565.456,120.204 568.945,119.897 572.434,119.593 575.922,119.294 579.411,118.999 582.9,118.707 586.389,118.42 589.878,118.136 
  593.367,117.856 596.855,117.579 600.344,117.306 603.833,117.036 607.322,116.77 610.811,116.506 614.3,116.246 617.788,115.989 621.277,115.735 624.766,115.484 
  628.255,115.235 631.744,114.99 635.233,114.747 638.721,114.507 642.21,114.27 645.699,114.035 649.188,113.803 652.677,113.573 656.166,113.346 659.654,113.121 
  663.143,112.898 666.632,112.678 670.121,112.459 673.61,112.243 677.098,112.03 680.587,111.818 684.076,111.608 687.565,111.401 691.054,111.195 694.543,110.992 
  698.031,110.79 701.52,110.59 705.009,110.392 708.498,110.196 711.987,110.002 715.476,109.809 718.964,109.618 722.453,109.429 725.942,109.242 729.431,109.056 
  732.92,108.872 736.409,108.689 739.897,108.508 743.386,108.328 746.875,108.15 750.364,107.974 753.853,107.799 757.342,107.625 760.83,107.453 764.319,107.282 
  767.808,107.113 771.297,106.945 774.786,106.778 778.275,106.613 781.763,106.449 785.252,106.286 788.741,106.125 792.23,105.964 795.719,105.805 799.208,105.647 
  802.696,105.491 806.185,105.335 809.674,105.181 813.163,105.028 816.652,104.875 820.141,104.724 823.629,104.575 827.118,104.426 830.607,104.278 834.096,104.131 
  837.585,103.986 841.074,103.841 844.562,103.697 848.051,103.555 851.54,103.413 855.029,103.272 858.518,103.133 862.007,102.994 865.495,102.856 868.984,102.719 
  872.473,102.583 875.962,102.448 879.451,102.314 882.94,102.181 886.428,102.048 889.917,101.916 893.406,101.786 896.895,101.656 900.384,101.527 903.873,101.398 
  907.361,101.271 910.85,101.144 914.339,101.018 917.828,100.893 921.317,100.769 924.806,100.645 928.294,100.523 931.783,100.4 935.272,100.279 938.761,100.158 
  942.25,100.039 945.739,99.9194 949.227,99.801 952.716,99.6832 956.205,99.5661 959.694,99.4497 963.183,99.334 966.672,99.2189 970.16,99.1045 973.649,98.9908 
  977.138,98.8777 980.627,98.7653 984.116,98.6534 987.605,98.5423 991.093,98.4317 994.582,98.3217 998.071,98.2124 1001.56,98.1037 1005.05,97.9955 1008.54,97.888 
  1012.03,97.781 1015.52,97.6746 1019,97.5688 1022.49,97.4635 1025.98,97.3588 1029.47,97.2547 1032.96,97.1511 1036.45,97.0481 1039.94,96.9456 1043.43,96.8437 
  1046.91,96.7422 1050.4,96.6414 1053.89,96.541 1057.38,96.4411 1060.87,96.3418 1064.36,96.2429 1067.85,96.1446 1071.34,96.0467 1074.83,95.9494 1078.31,95.8525 
  1081.8,95.7562 1085.29,95.6603 1088.78,95.5648 1092.27,95.4699 1095.76,95.3754 1099.25,95.2814 1102.74,95.1878 1106.22,95.0947 1109.71,95.0021 1113.2,94.9098 
  1116.69,94.8181 1120.18,94.7268 1123.67,94.6359 1127.16,94.5454 1130.65,94.4554 1134.14,94.3658 1137.62,94.2766 1141.11,94.1878 1144.6,94.0995 1148.09,94.0115 
  1151.58,93.924 1155.07,93.8368 1158.56,93.7501 1162.05,93.6638 1165.54,93.5778 1169.02,93.4923 1172.51,93.4071 1176,93.3223 1179.49,93.238 1182.98,93.1539 
  1186.47,93.0703 1189.96,92.987 1193.45,92.9041 1196.93,92.8216 1200.42,92.7394 1203.91,92.6576 1207.4,92.5762 1210.89,92.4951 1214.38,92.4143 1217.87,92.3339 
  1221.36,92.2539 1224.85,92.1742 1228.33,92.0948 1231.82,92.0158 1235.31,91.9371 1238.8,91.8588 1242.29,91.7807 1245.78,91.7031 1249.27,91.6257 1252.76,91.5487 
  
  "/>
<polyline clip-path="url(#clip252)" style="stroke:#2000d4; stroke-linecap:butt; stroke-linejoin:round; stroke-width:16; stroke-opacity:1; fill:none" stroke-dasharray="64, 40" points="
  209.595,375.718 213.084,349.027 216.573,330.071 220.061,314.364 223.55,300.412 227.039,287.534 230.528,275.38 234.017,263.773 237.506,252.649 240.994,242.029 
  244.483,232.011 247.972,222.756 251.461,214.467 254.95,207.34 258.439,201.5 261.927,196.952 265.416,193.568 268.905,191.128 272.394,189.376 275.883,188.062 
  279.372,186.965 282.86,185.891 286.349,184.672 289.838,183.173 293.327,181.307 296.816,179.046 300.305,176.42 303.793,173.496 307.282,170.359 310.771,167.09 
  314.26,163.761 317.749,160.428 321.238,157.133 324.726,153.904 328.215,150.758 331.704,147.702 335.193,144.739 338.682,141.866 342.171,139.082 345.659,136.381 
  349.148,133.76 352.637,131.214 356.126,128.741 359.615,126.336 363.104,123.998 366.592,121.723 370.081,119.511 373.57,117.358 377.059,115.264 380.548,113.227 
  384.037,111.247 387.525,109.321 391.014,107.45 394.503,105.634 397.992,103.872 401.481,102.164 404.97,100.511 408.458,98.9131 411.947,97.3703 415.436,95.883 
  418.925,94.4513 422.414,93.0753 425.903,91.755 429.391,90.49 432.88,89.28 436.369,88.1243 439.858,87.0224 443.347,85.9732 446.836,84.9757 450.324,84.0288 
  453.813,83.131 457.302,82.2811 460.791,81.4773 464.28,80.7182 467.769,80.0021 471.257,79.3271 474.746,78.6917 478.235,78.0939 481.724,77.532 485.213,77.0043 
  488.702,76.5089 492.19,76.0443 495.679,75.6086 499.168,75.2003 502.657,74.8178 506.146,74.4596 509.635,74.1243 513.123,73.8103 516.612,73.5165 520.101,73.2415 
  523.59,72.9841 527.079,72.7433 530.568,72.5179 534.056,72.3069 537.545,72.1094 541.034,71.9245 544.523,71.7514 548.012,71.5893 551.501,71.4374 554.989,71.295 
  558.478,71.1616 561.967,71.0366 565.456,70.9193 568.945,70.8093 572.434,70.7061 575.922,70.6092 579.411,70.5182 582.9,70.4328 586.389,70.3525 589.878,70.277 
  593.367,70.2061 596.855,70.1394 600.344,70.0766 603.833,70.0176 607.322,69.962 610.811,69.9096 614.3,69.8603 617.788,69.8138 621.277,69.7701 624.766,69.7288 
  628.255,69.6898 631.744,69.6531 635.233,69.6185 638.721,69.5858 642.21,69.5549 645.699,69.5257 649.188,69.4982 652.677,69.4722 656.166,69.4476 659.654,69.4244 
  663.143,69.4025 666.632,69.3817 670.121,69.3621 673.61,69.3435 677.098,69.3259 680.587,69.3093 684.076,69.2936 687.565,69.2787 691.054,69.2646 694.543,69.2513 
  698.031,69.2387 701.52,69.2267 705.009,69.2154 708.498,69.2046 711.987,69.1945 715.476,69.1848 718.964,69.1757 722.453,69.1671 725.942,69.1589 729.431,69.1511 
  732.92,69.1437 736.409,69.1367 739.897,69.1301 743.386,69.1238 746.875,69.1179 750.364,69.1122 753.853,69.1069 757.342,69.1018 760.83,69.097 764.319,69.0924 
  767.808,69.0881 771.297,69.084 774.786,69.08 778.275,69.0763 781.763,69.0728 785.252,69.0695 788.741,69.0663 792.23,69.0633 795.719,69.0605 799.208,69.0578 
  802.696,69.0552 806.185,69.0528 809.674,69.0504 813.163,69.0482 816.652,69.0462 820.141,69.0442 823.629,69.0423 827.118,69.0405 830.607,69.0388 834.096,69.0372 
  837.585,69.0357 841.074,69.0342 844.562,69.0329 848.051,69.0315 851.54,69.0303 855.029,69.0291 858.518,69.028 862.007,69.0269 865.495,69.0259 868.984,69.025 
  872.473,69.0241 875.962,69.0232 879.451,69.0224 882.94,69.0216 886.428,69.0208 889.917,69.0201 893.406,69.0195 896.895,69.0188 900.384,69.0182 903.873,69.0177 
  907.361,69.0171 910.85,69.0166 914.339,69.0161 917.828,69.0156 921.317,69.0152 924.806,69.0148 928.294,69.0144 931.783,69.014 935.272,69.0136 938.761,69.0133 
  942.25,69.013 945.739,69.0126 949.227,69.0124 952.716,69.0121 956.205,69.0118 959.694,69.0116 963.183,69.0113 966.672,69.0111 970.16,69.0109 973.649,69.0107 
  977.138,69.0105 980.627,69.0103 984.116,69.0101 987.605,69.0099 991.093,69.0098 994.582,69.0096 998.071,69.0095 1001.56,69.0093 1005.05,69.0092 1008.54,69.0091 
  1012.03,69.009 1015.52,69.0089 1019,69.0087 1022.49,69.0086 1025.98,69.0086 1029.47,69.0085 1032.96,69.0084 1036.45,69.0083 1039.94,69.0082 1043.43,69.0081 
  1046.91,69.0081 1050.4,69.008 1053.89,69.0079 1057.38,69.0079 1060.87,69.0078 1064.36,69.0078 1067.85,69.0077 1071.34,69.0077 1074.83,69.0076 1078.31,69.0076 
  1081.8,69.0075 1085.29,69.0075 1088.78,69.0074 1092.27,69.0074 1095.76,69.0074 1099.25,69.0073 1102.74,69.0073 1106.22,69.0073 1109.71,69.0072 1113.2,69.0072 
  1116.69,69.0072 1120.18,69.0072 1123.67,69.0071 1127.16,69.0071 1130.65,69.0071 1134.14,69.0071 1137.62,69.0071 1141.11,69.007 1144.6,69.007 1148.09,69.007 
  1151.58,69.007 1155.07,69.007 1158.56,69.007 1162.05,69.007 1165.54,69.0069 1169.02,69.0069 1172.51,69.0069 1176,69.0069 1179.49,69.0069 1182.98,69.0069 
  1186.47,69.0069 1189.96,69.0069 1193.45,69.0069 1196.93,69.0069 1200.42,69.0068 1203.91,69.0068 1207.4,69.0068 1210.89,69.0068 1214.38,69.0068 1217.87,69.0068 
  1221.36,69.0068 1224.85,69.0068 1228.33,69.0068 1231.82,69.0068 1235.31,69.0068 1238.8,69.0068 1242.29,69.0068 1245.78,69.0068 1249.27,69.0068 1252.76,69.0068 
  
  "/>
<polyline clip-path="url(#clip252)" style="stroke:#000000; stroke-linecap:butt; stroke-linejoin:round; stroke-width:16; stroke-opacity:1; fill:none" stroke-dasharray="8, 16" points="
  206.106,57.0189 209.595,57.0428 213.084,57.062 216.573,57.0896 220.061,57.1329 223.55,57.2017 227.039,57.311 230.528,57.4844 234.017,57.7585 237.506,58.1902 
  240.994,58.8653 244.483,59.9103 247.972,61.5031 251.461,63.8778 254.95,67.3155 258.439,72.1127 261.927,78.5391 265.416,86.8131 268.905,97.1324 272.394,109.759 
  275.883,125.113 279.372,143.791 282.86,166.418 286.349,193.346 289.838,224.418 293.327,259.026 296.816,296.362 300.305,335.638 303.793,376.165 307.282,417.373 
  310.771,458.794 314.26,500.053 317.749,540.848 321.238,580.942 324.726,620.143 328.215,658.29 331.704,695.244 335.193,730.872 338.682,765.049 342.171,797.639 
  345.659,828.495 349.148,857.452 352.637,884.323 356.126,908.893 359.615,930.929 363.104,950.184 366.592,966.413 370.081,979.4 373.57,988.98 377.059,995.065 
  380.548,997.653 384.037,996.829 387.525,992.749 391.014,985.619 394.503,975.672 397.992,963.147 401.481,948.274 404.97,931.268 408.458,912.321 411.947,891.605 
  415.436,869.272 418.925,845.453 422.414,820.267 425.903,793.818 429.391,766.198 432.88,737.492 436.369,707.775 439.858,677.118 443.347,645.583 446.836,613.231 
  450.324,580.116 453.813,546.291 457.302,511.803 460.791,476.698 464.28,441.019 467.769,404.806 471.257,368.096 474.746,330.925 478.235,293.327 481.724,255.338 
  485.213,217.008 488.702,178.463 492.19,140.216 495.679,104.457 499.168,77.6575 502.657,65.2969 506.146,61.7557 509.635,60.8101 513.123,60.4341 516.612,60.1849 
  520.101,59.9742 523.59,59.784 527.079,59.61 530.568,59.4502 534.056,59.3035 537.545,59.1686 541.034,59.0447 544.523,58.9307 548.012,58.826 551.501,58.7296 
  554.989,58.6409 558.478,58.5592 561.967,58.4839 565.456,58.4146 568.945,58.3506 572.434,58.2915 575.922,58.2369 579.411,58.1864 582.9,58.1397 586.389,58.0964 
  589.878,58.0562 593.367,58.019 596.855,57.9843 600.344,57.9521 603.833,57.922 607.322,57.894 610.811,57.8678 614.3,57.8433 617.788,57.8204 621.277,57.7989 
  624.766,57.7787 628.255,57.7597 631.744,57.7418 635.233,57.7249 638.721,57.7089 642.21,57.6939 645.699,57.6796 649.188,57.666 652.677,57.6531 656.166,57.6409 
  659.654,57.6292 663.143,57.618 666.632,57.6074 670.121,57.5972 673.61,57.5875 677.098,57.5781 680.587,57.5691 684.076,57.5605 687.565,57.5522 691.054,57.5442 
  694.543,57.5365 698.031,57.5291 701.52,57.5219 705.009,57.5149 708.498,57.5082 711.987,57.5017 715.476,57.4954 718.964,57.4892 722.453,57.4833 725.942,57.4775 
  729.431,57.4718 732.92,57.4664 736.409,57.461 739.897,57.4558 743.386,57.4508 746.875,57.4458 750.364,57.441 753.853,57.4363 757.342,57.4317 760.83,57.4272 
  764.319,57.4228 767.808,57.4185 771.297,57.4143 774.786,57.4102 778.275,57.4062 781.763,57.4023 785.252,57.3984 788.741,57.3946 792.23,57.3909 795.719,57.3873 
  799.208,57.3837 802.696,57.3802 806.185,57.3768 809.674,57.3734 813.163,57.3701 816.652,57.3668 820.141,57.3636 823.629,57.3605 827.118,57.3574 830.607,57.3544 
  834.096,57.3514 837.585,57.3485 841.074,57.3456 844.562,57.3428 848.051,57.34 851.54,57.3373 855.029,57.3346 858.518,57.3319 862.007,57.3293 865.495,57.3267 
  868.984,57.3242 872.473,57.3217 875.962,57.3193 879.451,57.3168 882.94,57.3145 886.428,57.3121 889.917,57.3098 893.406,57.3075 896.895,57.3053 900.384,57.3031 
  903.873,57.3009 907.361,57.2988 910.85,57.2966 914.339,57.2946 917.828,57.2925 921.317,57.2905 924.806,57.2885 928.294,57.2865 931.783,57.2845 935.272,57.2826 
  938.761,57.2807 942.25,57.2789 945.739,57.277 949.227,57.2752 952.716,57.2734 956.205,57.2716 959.694,57.2699 963.183,57.2681 966.672,57.2664 970.16,57.2647 
  973.649,57.2631 977.138,57.2614 980.627,57.2598 984.116,57.2582 987.605,57.2566 991.093,57.2551 994.582,57.2535 998.071,57.252 1001.56,57.2505 1005.05,57.249 
  1008.54,57.2475 1012.03,57.246 1015.52,57.2446 1019,57.2432 1022.49,57.2418 1025.98,57.2404 1029.47,57.239 1032.96,57.2376 1036.45,57.2363 1039.94,57.235 
  1043.43,57.2337 1046.91,57.2324 1050.4,57.2311 1053.89,57.2298 1057.38,57.2285 1060.87,57.2273 1064.36,57.2261 1067.85,57.2248 1071.34,57.2236 1074.83,57.2224 
  1078.31,57.2213 1081.8,57.2201 1085.29,57.2189 1088.78,57.2178 1092.27,57.2167 1095.76,57.2156 1099.25,57.2144 1102.74,57.2133 1106.22,57.2123 1109.71,57.2112 
  1113.2,57.2101 1116.69,57.2091 1120.18,57.208 1123.67,57.207 1127.16,57.206 1130.65,57.205 1134.14,57.204 1137.62,57.203 1141.11,57.202 1144.6,57.201 
  1148.09,57.2 1151.58,57.1991 1155.07,57.1981 1158.56,57.1972 1162.05,57.1963 1165.54,57.1954 1169.02,57.1944 1172.51,57.1935 1176,57.1926 1179.49,57.1918 
  1182.98,57.1909 1186.47,57.19 1189.96,57.1892 1193.45,57.1883 1196.93,57.1874 1200.42,57.1866 1203.91,57.1858 1207.4,57.185 1210.89,57.1841 1214.38,57.1833 
  1217.87,57.1825 1221.36,57.1817 1224.85,57.1809 1228.33,57.1802 1231.82,57.1794 1235.31,57.1786 1238.8,57.1778 1242.29,57.1771 1245.78,57.1763 1249.27,57.1756 
  1252.76,57.1749 
  "/>
</svg>
