<?xml version="1.0" encoding="utf-8"?>
<svg xmlns="http://www.w3.org/2000/svg" xmlns:xlink="http://www.w3.org/1999/xlink" width="325" height="200" viewBox="0 0 1300 800">
<defs>
  <clipPath id="clip210">
    <rect x="0" y="0" width="1300" height="800"/>
  </clipPath>
</defs>
<path clip-path="url(#clip210)" d="
M0 800 L1300 800 L1300 0 L0 0  Z
  " fill="#ffffff" fill-rule="evenodd" fill-opacity="1"/>
<defs>
  <clipPath id="clip211">
    <rect x="260" y="0" width="911" height="800"/>
  </clipPath>
</defs>
<path clip-path="url(#clip210)" d="
M297.569 673.18 L1252.76 673.18 L1252.76 47.2441 L297.569 47.2441  Z
  " fill="#ffffff" fill-rule="evenodd" fill-opacity="1"/>
<defs>
  <clipPath id="clip212">
    <rect x="297" y="47" width="956" height="627"/>
  </clipPath>
</defs>
<polyline clip-path="url(#clip210)" style="stroke:#000000; stroke-linecap:butt; stroke-linejoin:round; stroke-width:4; stroke-opacity:1; fill:none" points="
  297.569,673.18 1252.76,673.18 
  "/>
<polyline clip-path="url(#clip210)" style="stroke:#000000; stroke-linecap:butt; stroke-linejoin:round; stroke-width:4; stroke-opacity:1; fill:none" points="
  324.603,673.18 324.603,654.283 
  "/>
<polyline clip-path="url(#clip210)" style="stroke:#000000; stroke-linecap:butt; stroke-linejoin:round; stroke-width:4; stroke-opacity:1; fill:none" points="
  549.883,673.18 549.883,654.283 
  "/>
<polyline clip-path="url(#clip210)" style="stroke:#000000; stroke-linecap:butt; stroke-linejoin:round; stroke-width:4; stroke-opacity:1; fill:none" points="
  775.162,673.18 775.162,654.283 
  "/>
<polyline clip-path="url(#clip210)" style="stroke:#000000; stroke-linecap:butt; stroke-linejoin:round; stroke-width:4; stroke-opacity:1; fill:none" points="
  1000.44,673.18 1000.44,654.283 
  "/>
<polyline clip-path="url(#clip210)" style="stroke:#000000; stroke-linecap:butt; stroke-linejoin:round; stroke-width:4; stroke-opacity:1; fill:none" points="
  1225.72,673.18 1225.72,654.283 
  "/>
<path clip-path="url(#clip210)" d="M258.634 704.088 Q252.314 704.088 249.114 710.326 Q245.954 716.524 245.954 729.001 Q245.954 741.437 249.114 747.676 Q252.314 753.873 258.634 753.873 Q264.994 753.873 268.153 747.676 Q271.353 741.437 271.353 729.001 Q271.353 716.524 268.153 710.326 Q264.994 704.088 258.634 704.088 M258.634 697.606 Q268.801 697.606 274.149 705.668 Q279.536 713.689 279.536 729.001 Q279.536 744.273 274.149 752.334 Q268.801 760.355 258.634 760.355 Q248.466 760.355 243.078 752.334 Q237.731 744.273 237.731 729.001 Q237.731 713.689 243.078 705.668 Q248.466 697.606 258.634 697.606 Z" fill="#000000" fill-rule="evenodd" fill-opacity="1" /><path clip-path="url(#clip210)" d="M293.917 748.891 L302.464 748.891 L302.464 759.18 L293.917 759.18 L293.917 748.891 Z" fill="#000000" fill-rule="evenodd" fill-opacity="1" /><path clip-path="url(#clip210)" d="M337.788 704.088 Q331.469 704.088 328.269 710.326 Q325.109 716.524 325.109 729.001 Q325.109 741.437 328.269 747.676 Q331.469 753.873 337.788 753.873 Q344.148 753.873 347.308 747.676 Q350.508 741.437 350.508 729.001 Q350.508 716.524 347.308 710.326 Q344.148 704.088 337.788 704.088 M337.788 697.606 Q347.956 697.606 353.303 705.668 Q358.691 713.689 358.691 729.001 Q358.691 744.273 353.303 752.334 Q347.956 760.355 337.788 760.355 Q327.621 760.355 322.233 752.334 Q316.886 744.273 316.886 729.001 Q316.886 713.689 322.233 705.668 Q327.621 697.606 337.788 697.606 Z" fill="#000000" fill-rule="evenodd" fill-opacity="1" /><path clip-path="url(#clip210)" d="M390.572 704.088 Q384.252 704.088 381.052 710.326 Q377.892 716.524 377.892 729.001 Q377.892 741.437 381.052 747.676 Q384.252 753.873 390.572 753.873 Q396.931 753.873 400.091 747.676 Q403.291 741.437 403.291 729.001 Q403.291 716.524 400.091 710.326 Q396.931 704.088 390.572 704.088 M390.572 697.606 Q400.739 697.606 406.087 705.668 Q411.474 713.689 411.474 729.001 Q411.474 744.273 406.087 752.334 Q400.739 760.355 390.572 760.355 Q380.404 760.355 375.016 752.334 Q369.669 744.273 369.669 729.001 Q369.669 713.689 375.016 705.668 Q380.404 697.606 390.572 697.606 Z" fill="#000000" fill-rule="evenodd" fill-opacity="1" /><path clip-path="url(#clip210)" d="M484.784 704.088 Q478.465 704.088 475.265 710.326 Q472.105 716.524 472.105 729.001 Q472.105 741.437 475.265 747.676 Q478.465 753.873 484.784 753.873 Q491.144 753.873 494.304 747.676 Q497.504 741.437 497.504 729.001 Q497.504 716.524 494.304 710.326 Q491.144 704.088 484.784 704.088 M484.784 697.606 Q494.952 697.606 500.299 705.668 Q505.687 713.689 505.687 729.001 Q505.687 744.273 500.299 752.334 Q494.952 760.355 484.784 760.355 Q474.617 760.355 469.229 752.334 Q463.882 744.273 463.882 729.001 Q463.882 713.689 469.229 705.668 Q474.617 697.606 484.784 697.606 Z" fill="#000000" fill-rule="evenodd" fill-opacity="1" /><path clip-path="url(#clip210)" d="M520.068 748.891 L528.615 748.891 L528.615 759.18 L520.068 759.18 L520.068 748.891 Z" fill="#000000" fill-rule="evenodd" fill-opacity="1" /><path clip-path="url(#clip210)" d="M553.488 752.294 L582.047 752.294 L582.047 759.18 L543.644 759.18 L543.644 752.294 Q548.303 747.473 556.323 739.371 Q564.385 731.229 566.451 728.879 Q570.38 724.464 571.919 721.426 Q573.499 718.347 573.499 715.39 Q573.499 710.569 570.097 707.531 Q566.734 704.493 561.306 704.493 Q557.458 704.493 553.164 705.83 Q548.91 707.167 544.049 709.881 L544.049 701.617 Q548.991 699.632 553.285 698.619 Q557.579 697.606 561.144 697.606 Q570.542 697.606 576.132 702.305 Q581.723 707.005 581.723 714.863 Q581.723 718.59 580.305 721.952 Q578.927 725.274 575.241 729.811 Q574.228 730.986 568.8 736.617 Q563.372 742.207 553.488 752.294 Z" fill="#000000" fill-rule="evenodd" fill-opacity="1" /><path clip-path="url(#clip210)" d="M599.304 698.7 L631.427 698.7 L631.427 705.587 L606.798 705.587 L606.798 720.413 Q608.58 719.805 610.363 719.522 Q612.145 719.198 613.927 719.198 Q624.055 719.198 629.969 724.747 Q635.883 730.297 635.883 739.776 Q635.883 749.539 629.807 754.967 Q623.73 760.355 612.672 760.355 Q608.864 760.355 604.894 759.707 Q600.964 759.059 596.751 757.762 L596.751 749.539 Q600.397 751.524 604.286 752.496 Q608.175 753.468 612.509 753.468 Q619.518 753.468 623.609 749.782 Q627.7 746.096 627.7 739.776 Q627.7 733.457 623.609 729.771 Q619.518 726.084 612.509 726.084 Q609.228 726.084 605.947 726.813 Q602.706 727.543 599.304 729.082 L599.304 698.7 Z" fill="#000000" fill-rule="evenodd" fill-opacity="1" /><path clip-path="url(#clip210)" d="M709.193 704.088 Q702.874 704.088 699.674 710.326 Q696.514 716.524 696.514 729.001 Q696.514 741.437 699.674 747.676 Q702.874 753.873 709.193 753.873 Q715.553 753.873 718.713 747.676 Q721.913 741.437 721.913 729.001 Q721.913 716.524 718.713 710.326 Q715.553 704.088 709.193 704.088 M709.193 697.606 Q719.361 697.606 724.708 705.668 Q730.096 713.689 730.096 729.001 Q730.096 744.273 724.708 752.334 Q719.361 760.355 709.193 760.355 Q699.026 760.355 693.638 752.334 Q688.291 744.273 688.291 729.001 Q688.291 713.689 693.638 705.668 Q699.026 697.606 709.193 697.606 Z" fill="#000000" fill-rule="evenodd" fill-opacity="1" /><path clip-path="url(#clip210)" d="M744.477 748.891 L753.024 748.891 L753.024 759.18 L744.477 759.18 L744.477 748.891 Z" fill="#000000" fill-rule="evenodd" fill-opacity="1" /><path clip-path="url(#clip210)" d="M770.929 698.7 L803.053 698.7 L803.053 705.587 L778.423 705.587 L778.423 720.413 Q780.206 719.805 781.988 719.522 Q783.771 719.198 785.553 719.198 Q795.68 719.198 801.595 724.747 Q807.509 730.297 807.509 739.776 Q807.509 749.539 801.433 754.967 Q795.356 760.355 784.297 760.355 Q780.489 760.355 776.52 759.707 Q772.59 759.059 768.377 757.762 L768.377 749.539 Q772.023 751.524 775.912 752.496 Q779.801 753.468 784.135 753.468 Q791.143 753.468 795.235 749.782 Q799.326 746.096 799.326 739.776 Q799.326 733.457 795.235 729.771 Q791.143 726.084 784.135 726.084 Q780.854 726.084 777.573 726.813 Q774.332 727.543 770.929 729.082 L770.929 698.7 Z" fill="#000000" fill-rule="evenodd" fill-opacity="1" /><path clip-path="url(#clip210)" d="M841.131 704.088 Q834.812 704.088 831.612 710.326 Q828.452 716.524 828.452 729.001 Q828.452 741.437 831.612 747.676 Q834.812 753.873 841.131 753.873 Q847.491 753.873 850.651 747.676 Q853.851 741.437 853.851 729.001 Q853.851 716.524 850.651 710.326 Q847.491 704.088 841.131 704.088 M841.131 697.606 Q851.299 697.606 856.646 705.668 Q862.034 713.689 862.034 729.001 Q862.034 744.273 856.646 752.334 Q851.299 760.355 841.131 760.355 Q830.964 760.355 825.576 752.334 Q820.229 744.273 820.229 729.001 Q820.229 713.689 825.576 705.668 Q830.964 697.606 841.131 697.606 Z" fill="#000000" fill-rule="evenodd" fill-opacity="1" /><path clip-path="url(#clip210)" d="M935.344 704.088 Q929.025 704.088 925.825 710.326 Q922.665 716.524 922.665 729.001 Q922.665 741.437 925.825 747.676 Q929.025 753.873 935.344 753.873 Q941.704 753.873 944.864 747.676 Q948.064 741.437 948.064 729.001 Q948.064 716.524 944.864 710.326 Q941.704 704.088 935.344 704.088 M935.344 697.606 Q945.512 697.606 950.859 705.668 Q956.247 713.689 956.247 729.001 Q956.247 744.273 950.859 752.334 Q945.512 760.355 935.344 760.355 Q925.177 760.355 919.789 752.334 Q914.442 744.273 914.442 729.001 Q914.442 713.689 919.789 705.668 Q925.177 697.606 935.344 697.606 Z" fill="#000000" fill-rule="evenodd" fill-opacity="1" /><path clip-path="url(#clip210)" d="M970.628 748.891 L979.175 748.891 L979.175 759.18 L970.628 759.18 L970.628 748.891 Z" fill="#000000" fill-rule="evenodd" fill-opacity="1" /><path clip-path="url(#clip210)" d="M994.933 698.7 L1033.82 698.7 L1033.82 702.184 L1011.87 759.18 L1003.32 759.18 L1023.98 705.587 L994.933 705.587 L994.933 698.7 Z" fill="#000000" fill-rule="evenodd" fill-opacity="1" /><path clip-path="url(#clip210)" d="M1049.86 698.7 L1081.99 698.7 L1081.99 705.587 L1057.36 705.587 L1057.36 720.413 Q1059.14 719.805 1060.92 719.522 Q1062.7 719.198 1064.49 719.198 Q1074.61 719.198 1080.53 724.747 Q1086.44 730.297 1086.44 739.776 Q1086.44 749.539 1080.37 754.967 Q1074.29 760.355 1063.23 760.355 Q1059.42 760.355 1055.45 759.707 Q1051.52 759.059 1047.31 757.762 L1047.31 749.539 Q1050.96 751.524 1054.85 752.496 Q1058.73 753.468 1063.07 753.468 Q1070.08 753.468 1074.17 749.782 Q1078.26 746.096 1078.26 739.776 Q1078.26 733.457 1074.17 729.771 Q1070.08 726.084 1063.07 726.084 Q1059.79 726.084 1056.51 726.813 Q1053.27 727.543 1049.86 729.082 L1049.86 698.7 Z" fill="#000000" fill-rule="evenodd" fill-opacity="1" /><path clip-path="url(#clip210)" d="M1141.85 752.294 L1155.22 752.294 L1155.22 706.154 L1140.67 709.07 L1140.67 701.617 L1155.14 698.7 L1163.32 698.7 L1163.32 752.294 L1176.69 752.294 L1176.69 759.18 L1141.85 759.18 L1141.85 752.294 Z" fill="#000000" fill-rule="evenodd" fill-opacity="1" /><path clip-path="url(#clip210)" d="M1193.21 748.891 L1201.76 748.891 L1201.76 759.18 L1193.21 759.18 L1193.21 748.891 Z" fill="#000000" fill-rule="evenodd" fill-opacity="1" /><path clip-path="url(#clip210)" d="M1237.09 704.088 Q1230.77 704.088 1227.57 710.326 Q1224.41 716.524 1224.41 729.001 Q1224.41 741.437 1227.57 747.676 Q1230.77 753.873 1237.09 753.873 Q1243.45 753.873 1246.6 747.676 Q1249.8 741.437 1249.8 729.001 Q1249.8 716.524 1246.6 710.326 Q1243.45 704.088 1237.09 704.088 M1237.09 697.606 Q1247.25 697.606 1252.6 705.668 Q1257.99 713.689 1257.99 729.001 Q1257.99 744.273 1252.6 752.334 Q1247.25 760.355 1237.09 760.355 Q1226.92 760.355 1221.53 752.334 Q1216.18 744.273 1216.18 729.001 Q1216.18 713.689 1221.53 705.668 Q1226.92 697.606 1237.09 697.606 Z" fill="#000000" fill-rule="evenodd" fill-opacity="1" /><path clip-path="url(#clip210)" d="M1289.87 704.088 Q1283.55 704.088 1280.35 710.326 Q1277.19 716.524 1277.19 729.001 Q1277.19 741.437 1280.35 747.676 Q1283.55 753.873 1289.87 753.873 Q1296.23 753.873 1299.39 747.676 Q1302.59 741.437 1302.59 729.001 Q1302.59 716.524 1299.39 710.326 Q1296.23 704.088 1289.87 704.088 M1289.87 697.606 Q1300.04 697.606 1305.38 705.668 Q1310.77 713.689 1310.77 729.001 Q1310.77 744.273 1305.38 752.334 Q1300.04 760.355 1289.87 760.355 Q1279.7 760.355 1274.31 752.334 Q1268.97 744.273 1268.97 729.001 Q1268.97 713.689 1274.31 705.668 Q1279.7 697.606 1289.87 697.606 Z" fill="#000000" fill-rule="evenodd" fill-opacity="1" /><polyline clip-path="url(#clip210)" style="stroke:#000000; stroke-linecap:butt; stroke-linejoin:round; stroke-width:4; stroke-opacity:1; fill:none" points="
  297.569,673.18 297.569,47.2441 
  "/>
<polyline clip-path="url(#clip210)" style="stroke:#000000; stroke-linecap:butt; stroke-linejoin:round; stroke-width:4; stroke-opacity:1; fill:none" points="
  297.569,673.18 316.467,673.18 
  "/>
<polyline clip-path="url(#clip210)" style="stroke:#000000; stroke-linecap:butt; stroke-linejoin:round; stroke-width:4; stroke-opacity:1; fill:none" points="
  297.569,380.659 316.467,380.659 
  "/>
<polyline clip-path="url(#clip210)" style="stroke:#000000; stroke-linecap:butt; stroke-linejoin:round; stroke-width:4; stroke-opacity:1; fill:none" points="
  297.569,88.1369 316.467,88.1369 
  "/>
<path clip-path="url(#clip210)" d="M57.6669 707.817 L71.0349 707.817 L71.0349 661.677 L56.4921 664.594 L56.4921 657.14 L70.9539 654.223 L79.1367 654.223 L79.1367 707.817 L92.5047 707.817 L92.5047 714.703 L57.6669 714.703 L57.6669 707.817 Z" fill="#000000" fill-rule="evenodd" fill-opacity="1" /><path clip-path="url(#clip210)" d="M126.532 659.611 Q120.213 659.611 117.013 665.85 Q113.853 672.047 113.853 684.524 Q113.853 696.961 117.013 703.199 Q120.213 709.397 126.532 709.397 Q132.892 709.397 136.052 703.199 Q139.252 696.961 139.252 684.524 Q139.252 672.047 136.052 665.85 Q132.892 659.611 126.532 659.611 M126.532 653.13 Q136.7 653.13 142.047 661.191 Q147.435 669.212 147.435 684.524 Q147.435 699.796 142.047 707.857 Q136.7 715.878 126.532 715.878 Q116.364 715.878 110.977 707.857 Q105.63 699.796 105.63 684.524 Q105.63 669.212 110.977 661.191 Q116.364 653.13 126.532 653.13 Z" fill="#000000" fill-rule="evenodd" fill-opacity="1" /><path clip-path="url(#clip210)" d="M147.435 642.807 L189.63 642.807 L189.63 648.402 L147.435 648.402 L147.435 642.807 Z" fill="#000000" fill-rule="evenodd" fill-opacity="1" /><path clip-path="url(#clip210)" d="M205.132 661.14 L215.994 661.14 L215.994 623.651 L204.178 626.021 L204.178 619.965 L215.928 617.595 L222.577 617.595 L222.577 661.14 L233.438 661.14 L233.438 666.735 L205.132 666.735 L205.132 661.14 Z" fill="#000000" fill-rule="evenodd" fill-opacity="1" /><path clip-path="url(#clip210)" d="M261.086 621.973 Q255.951 621.973 253.351 627.041 Q250.784 632.077 250.784 642.215 Q250.784 652.319 253.351 657.388 Q255.951 662.424 261.086 662.424 Q266.253 662.424 268.82 657.388 Q271.42 652.319 271.42 642.215 Q271.42 632.077 268.82 627.041 Q266.253 621.973 261.086 621.973 M261.086 616.707 Q269.347 616.707 273.691 623.256 Q278.069 629.773 278.069 642.215 Q278.069 654.623 273.691 661.173 Q269.347 667.69 261.086 667.69 Q252.824 667.69 248.447 661.173 Q244.102 654.623 244.102 642.215 Q244.102 629.773 248.447 623.256 Q252.824 616.707 261.086 616.707 Z" fill="#000000" fill-rule="evenodd" fill-opacity="1" /><path clip-path="url(#clip210)" d="M101.969 415.295 L115.337 415.295 L115.337 369.155 L100.794 372.072 L100.794 364.618 L115.256 361.702 L123.438 361.702 L123.438 415.295 L136.806 415.295 L136.806 422.182 L101.969 422.182 L101.969 415.295 Z" fill="#000000" fill-rule="evenodd" fill-opacity="1" /><path clip-path="url(#clip210)" d="M170.834 367.09 Q164.515 367.09 161.314 373.328 Q158.155 379.526 158.155 392.003 Q158.155 404.439 161.314 410.677 Q164.515 416.875 170.834 416.875 Q177.194 416.875 180.354 410.677 Q183.554 404.439 183.554 392.003 Q183.554 379.526 180.354 373.328 Q177.194 367.09 170.834 367.09 M170.834 360.608 Q181.002 360.608 186.349 368.669 Q191.737 376.69 191.737 392.003 Q191.737 407.274 186.349 415.336 Q181.002 423.357 170.834 423.357 Q160.666 423.357 155.278 415.336 Q149.931 407.274 149.931 392.003 Q149.931 376.69 155.278 368.669 Q160.666 360.608 170.834 360.608 Z" fill="#000000" fill-rule="evenodd" fill-opacity="1" /><path clip-path="url(#clip210)" d="M191.737 350.285 L233.932 350.285 L233.932 355.881 L191.737 355.881 L191.737 350.285 Z" fill="#000000" fill-rule="evenodd" fill-opacity="1" /><path clip-path="url(#clip210)" d="M248.348 325.074 L274.448 325.074 L274.448 330.669 L254.437 330.669 L254.437 342.715 Q255.885 342.222 257.333 341.991 Q258.782 341.728 260.23 341.728 Q268.458 341.728 273.264 346.237 Q278.069 350.746 278.069 358.448 Q278.069 366.38 273.132 370.791 Q268.195 375.168 259.21 375.168 Q256.116 375.168 252.89 374.642 Q249.697 374.115 246.274 373.062 L246.274 366.38 Q249.237 367.993 252.396 368.783 Q255.556 369.573 259.078 369.573 Q264.772 369.573 268.096 366.578 Q271.42 363.583 271.42 358.448 Q271.42 353.313 268.096 350.318 Q264.772 347.323 259.078 347.323 Q256.412 347.323 253.746 347.916 Q251.113 348.508 248.348 349.759 L248.348 325.074 Z" fill="#000000" fill-rule="evenodd" fill-opacity="1" /><path clip-path="url(#clip210)" d="M154.334 122.774 L167.702 122.774 L167.702 76.6338 L153.159 79.5505 L153.159 72.0968 L167.621 69.1802 L175.804 69.1802 L175.804 122.774 L189.172 122.774 L189.172 129.66 L154.334 129.66 L154.334 122.774 Z" fill="#000000" fill-rule="evenodd" fill-opacity="1" /><path clip-path="url(#clip210)" d="M223.199 74.5679 Q216.88 74.5679 213.68 80.8063 Q210.52 87.0041 210.52 99.4809 Q210.52 111.917 213.68 118.156 Q216.88 124.353 223.199 124.353 Q229.559 124.353 232.719 118.156 Q235.919 111.917 235.919 99.4809 Q235.919 87.0041 232.719 80.8063 Q229.559 74.5679 223.199 74.5679 M223.199 68.0864 Q233.367 68.0864 238.714 76.1477 Q244.102 84.1685 244.102 99.4809 Q244.102 114.753 238.714 122.814 Q233.367 130.835 223.199 130.835 Q213.032 130.835 207.644 122.814 Q202.297 114.753 202.297 99.4809 Q202.297 84.1685 207.644 76.1477 Q213.032 68.0864 223.199 68.0864 Z" fill="#000000" fill-rule="evenodd" fill-opacity="1" /><path clip-path="url(#clip210)" d="M261.086 36.9295 Q255.951 36.9295 253.351 41.9982 Q250.784 47.0339 250.784 57.1713 Q250.784 67.2758 253.351 72.3445 Q255.951 77.3803 261.086 77.3803 Q266.253 77.3803 268.82 72.3445 Q271.42 67.2758 271.42 57.1713 Q271.42 47.0339 268.82 41.9982 Q266.253 36.9295 261.086 36.9295 M261.086 31.6633 Q269.347 31.6633 273.691 38.2131 Q278.069 44.73 278.069 57.1713 Q278.069 69.5798 273.691 76.1296 Q269.347 82.6465 261.086 82.6465 Q252.824 82.6465 248.447 76.1296 Q244.102 69.5798 244.102 57.1713 Q244.102 44.73 248.447 38.2131 Q252.824 31.6633 261.086 31.6633 Z" fill="#000000" fill-rule="evenodd" fill-opacity="1" /><polyline clip-path="url(#clip212)" style="stroke:#000000; stroke-linecap:butt; stroke-linejoin:round; stroke-width:16; stroke-opacity:1; fill:none" stroke-dasharray="8, 16" points="
  1216.71,9789.47 1207.7,7562.99 1198.69,6243.75 1189.68,5302.29 1180.67,4569.67 1171.66,3969.93 1162.64,3462.29 1153.63,3022.29 1144.62,2634.11 1135.61,2286.9 
  1126.6,1972.91 1117.59,1686.39 1108.58,1423 1099.57,1201.88 1090.55,1046.11 1081.54,944.539 1072.53,874.599 1063.52,819.852 1054.51,773.662 1045.5,733.256 
  1036.49,697.174 1027.48,664.353 1018.46,634.369 1009.45,606.813 1000.44,581.29 991.431,557.418 982.42,535.212 973.409,514.468 964.398,494.836 955.386,476.561 
  946.375,459.189 937.364,442.819 928.353,427.451 919.342,412.568 910.33,398.931 901.319,385.768 892.308,373.064 883.297,361.455 874.286,350.188 865.274,339.251 
  856.263,329.305 847.252,319.694 838.241,310.365 829.23,301.658 820.218,293.513 811.207,285.612 802.196,277.952 793.185,271.051 784.174,264.426 775.162,258.014 
  766.151,251.831 757.14,246.339 748.129,241.034 739.118,235.913 730.106,230.974 721.095,226.587 712.084,222.402 703.073,218.372 694.062,214.492 685.05,210.868 
  676.039,207.6 667.028,204.454 658.017,201.428 649.006,198.518 639.994,195.736 630.983,193.283 621.972,190.919 612.961,188.643 603.95,186.451 594.939,184.34 
  585.927,182.306 576.916,180.457 567.905,178.723 558.894,177.048 549.883,175.429 540.871,173.865 531.86,172.353 522.849,170.891 513.838,169.476 504.827,168.151 
  495.815,166.924 486.804,165.733 477.793,164.577 468.782,163.454 459.771,162.364 450.759,161.304 441.748,160.274 432.737,159.272 423.726,158.298 414.715,157.35 
  405.703,156.427 396.692,155.586 387.681,154.765 378.67,153.964 369.659,153.181 360.647,152.417 351.636,151.67 342.625,150.94 333.614,150.227 324.603,149.529 
  
  "/>
<polyline clip-path="url(#clip212)" style="stroke:#000000; stroke-linecap:butt; stroke-linejoin:round; stroke-width:16; stroke-opacity:1; fill:none" stroke-dasharray="64, 40" points="
  1225.72,16390.8 1216.71,7595.52 1207.7,5850.96 1198.69,4799.7 1189.68,4042.3 1180.67,3449.27 1171.66,2961.78 1162.64,2548.03 1153.63,2188.86 1144.62,1871.81 
  1135.61,1588.34 1126.6,1332.36 1117.59,1099.38 1108.58,886.058 1099.57,689.885 1090.55,509.097 1081.54,348.54 1072.53,262.807 1063.52,223.998 1054.51,202.704 
  1045.5,189.069 1036.49,179.418 1027.48,172.076 1018.46,166.226 1009.45,161.392 1000.44,157.294 991.431,153.742 982.42,150.618 973.409,147.839 964.398,145.325 
  955.386,143.05 946.375,140.958 937.364,139.03 928.353,137.246 919.342,135.576 910.33,134.019 901.319,132.557 892.308,131.174 883.297,129.867 874.286,128.633 
  865.274,127.456 856.263,126.332 847.252,125.263 838.241,124.243 829.23,123.263 820.218,122.319 811.207,121.415 802.196,120.549 793.185,119.712 784.174,118.902 
  775.162,118.118 766.151,117.367 757.14,116.64 748.129,115.933 739.118,115.246 730.106,114.578 721.095,113.937 712.084,113.312 703.073,112.703 694.062,112.109 
  685.05,111.53 676.039,110.97 667.028,110.425 658.017,109.892 649.006,109.371 639.994,108.861 630.983,108.364 621.972,107.882 612.961,107.411 603.95,106.949 
  594.939,106.495 585.927,106.051 576.916,105.617 567.905,105.196 558.894,104.783 549.883,104.376 540.871,103.977 531.86,103.585 522.849,103.202 513.838,102.83 
  504.827,102.463 495.815,102.102 486.804,101.747 477.793,101.397 468.782,101.056 459.771,100.724 450.759,100.396 441.748,100.073 432.737,99.755 423.726,99.4412 
  414.715,99.1341 405.703,98.8357 396.692,98.5412 387.681,98.2506 378.67,97.9637 369.659,97.6805 360.647,97.4028 351.636,97.1334 342.625,96.8674 333.614,96.6046 
  324.603,96.3449 
  "/>
<polyline clip-path="url(#clip212)" style="stroke:#808080; stroke-linecap:butt; stroke-linejoin:round; stroke-width:16; stroke-opacity:1; fill:none" stroke-dasharray="8, 16" points="
  1216.71,11149.1 1207.7,8923.97 1198.69,7605.36 1189.68,6664.23 1180.67,5931.77 1171.66,5332.08 1162.64,4824.42 1153.63,4384.35 1144.62,3996.04 1135.61,3648.66 
  1126.6,3334.47 1117.59,3047.74 1108.58,2784.09 1099.57,2540.14 1090.55,2313.18 1081.54,2101.04 1072.53,1901.94 1063.52,1714.39 1054.51,1537.16 1045.5,1369.19 
  1036.49,1220.82 1027.48,1102.58 1018.46,1012.72 1009.45,946.378 1000.44,895.656 991.431,854.164 982.42,818.348 973.409,786.53 964.398,757.595 955.386,731.094 
  946.375,706.469 937.364,683.486 928.353,661.908 919.342,641.486 910.33,622.375 901.319,604.157 892.308,586.839 883.297,570.391 874.286,554.692 865.274,539.604 
  856.263,525.377 847.252,511.497 838.241,498.378 829.23,485.797 820.218,473.507 811.207,461.843 802.196,450.711 793.185,439.823 784.174,429.17 775.162,419.323 
  766.151,409.683 757.14,400.243 748.129,390.995 739.118,382.451 730.106,374.1 721.095,365.916 712.084,357.893 703.073,350.243 694.062,343.022 685.05,335.94 
  676.039,328.995 667.028,322.183 658.017,315.714 649.006,309.611 639.994,303.625 630.983,297.755 621.972,291.997 612.961,286.394 603.95,281.268 594.939,276.243 
  585.927,271.317 576.916,266.491 567.905,261.761 558.894,257.268 549.883,253.091 540.871,249.002 531.86,244.999 522.849,241.082 513.838,237.25 504.827,233.596 
  495.815,230.242 486.804,226.962 477.793,223.757 468.782,220.626 459.771,217.568 450.759,214.582 441.748,211.857 432.737,209.262 423.726,206.73 414.715,204.258 
  405.703,201.847 396.692,199.494 387.681,197.201 378.67,195.056 369.659,193.07 360.647,191.131 351.636,189.241 342.625,187.396 333.614,185.598 324.603,183.843 
  
  "/>
<polyline clip-path="url(#clip212)" style="stroke:#808080; stroke-linecap:butt; stroke-linejoin:round; stroke-width:16; stroke-opacity:1; fill:none" stroke-dasharray="64, 40" points="
  1216.71,8620.46 1207.7,6906.32 1198.69,5871.64 1189.68,5125.02 1180.67,4539.49 1171.66,4057.33 1162.64,3647.35 1153.63,3290.68 1144.62,2975.09 1135.61,2692.14 
  1126.6,2435.77 1117.59,2201.51 1108.58,1985.94 1099.57,1786.38 1090.55,1600.72 1081.54,1427.25 1072.53,1264.58 1063.52,1111.56 1054.51,967.241 1045.5,830.838 
  1036.49,701.701 1027.48,579.317 1018.46,463.329 1009.45,355.703 1000.44,283.907 991.431,242.862 982.42,217.712 973.409,200.908 964.398,188.849 955.386,179.73 
  946.375,172.517 937.364,166.623 928.353,161.68 919.342,157.457 910.33,153.786 901.319,150.548 892.308,147.648 883.297,145.035 874.286,142.663 865.274,140.486 
  856.263,138.482 847.252,136.628 838.241,134.89 829.23,133.283 820.218,131.766 811.207,130.33 802.196,128.989 793.185,127.713 784.174,126.496 775.162,125.342 
  766.151,124.246 757.14,123.194 748.129,122.183 739.118,121.219 730.106,120.297 721.095,119.407 712.084,118.547 703.073,117.717 694.062,116.925 685.05,116.157 
  676.039,115.412 667.028,114.688 658.017,113.989 649.006,113.317 639.994,112.662 630.983,112.025 621.972,111.403 612.961,110.799 603.95,110.217 594.939,109.65 
  585.927,109.095 576.916,108.553 567.905,108.022 558.894,107.51 549.883,107.012 540.871,106.523 531.86,106.044 522.849,105.575 513.838,105.115 504.827,104.673 
  495.815,104.238 486.804,103.812 477.793,103.393 468.782,102.981 459.771,102.578 450.759,102.189 441.748,101.806 432.737,101.43 423.726,101.059 414.715,100.695 
  405.703,100.338 396.692,99.9931 387.681,99.653 378.67,99.3178 369.659,98.9874 360.647,98.6618 351.636,98.3441 342.625,98.0355 333.614,97.7311 324.603,97.4308 
  
  "/>
<polyline clip-path="url(#clip212)" style="stroke:#0000ff; stroke-linecap:butt; stroke-linejoin:round; stroke-width:16; stroke-opacity:1; fill:none" stroke-dasharray="8, 16" points="
  1216.71,8819.74 1207.7,6595.35 1198.69,5277.5 1189.68,4337.14 1180.67,3605.48 1171.66,3006.59 1162.64,2499.75 1153.63,2060.52 1144.62,1673.07 1135.61,1330.93 
  1126.6,1088.14 1117.59,945.882 1108.58,857.761 1099.57,791.421 1090.55,736.562 1081.54,689.276 1072.53,647.453 1063.52,610.263 1054.51,576.592 1045.5,545.857 
  1036.49,517.984 1027.48,492.305 1018.46,468.339 1009.45,446.561 1000.44,426.042 991.431,407.209 982.42,389.409 973.409,373.133 964.398,357.499 955.386,343.459 
  946.375,329.98 937.364,317.515 928.353,305.962 919.342,294.872 910.33,284.97 901.319,275.559 892.308,266.63 883.297,258.728 874.286,251.182 865.274,244.063 
  856.263,237.807 847.252,231.855 838.241,226.198 829.23,221.243 820.218,216.601 811.207,212.196 802.196,208.08 793.185,204.471 784.174,201.043 775.162,197.789 
  766.151,194.699 757.14,191.948 748.129,189.391 739.118,186.954 730.106,184.631 721.095,182.416 712.084,180.32 703.073,178.457 694.062,176.671 685.05,174.958 
  676.039,173.315 667.028,171.738 658.017,170.223 649.006,168.767 639.994,167.408 630.983,166.148 621.972,164.931 612.961,163.755 603.95,162.618 594.939,161.518 
  585.927,160.454 576.916,159.422 567.905,158.423 558.894,157.454 549.883,156.514 540.871,155.614 531.86,154.776 522.849,153.961 513.838,153.166 504.827,152.392 
  495.815,151.638 486.804,150.902 477.793,150.184 468.782,149.484 459.771,148.8 450.759,148.131 441.748,147.479 432.737,146.84 423.726,146.216 414.715,145.605 
  405.703,145.008 396.692,144.423 387.681,143.85 378.67,143.309 369.659,142.783 360.647,142.267 351.636,141.761 342.625,141.264 333.614,140.776 324.603,140.297 
  
  "/>
<polyline clip-path="url(#clip212)" style="stroke:#0000ff; stroke-linecap:butt; stroke-linejoin:round; stroke-width:16; stroke-opacity:1; fill:none" stroke-dasharray="64, 40" points="
  1225.72,15241.5 1216.71,6658.85 1207.7,4950.35 1198.69,3921.67 1189.68,3181.46 1180.67,2602.81 1171.66,2128.11 1162.64,1726.23 1153.63,1378.5 1144.62,1072.87 
  1135.61,801.259 1126.6,558.273 1117.59,347.352 1108.58,251.063 1099.57,214.771 1090.55,195.929 1081.54,183.976 1072.53,175.459 1063.52,168.924 1054.51,163.667 
  1045.5,159.291 1036.49,155.549 1027.48,152.279 1018.46,149.388 1009.45,146.794 1000.44,144.447 991.431,142.297 982.42,140.329 973.409,138.501 964.398,136.802 
  955.386,135.217 946.375,133.725 937.364,132.32 928.353,130.999 919.342,129.743 910.33,128.547 901.319,127.414 892.308,126.333 883.297,125.297 874.286,124.302 
  865.274,123.353 856.263,122.442 847.252,121.563 838.241,120.714 829.23,119.897 820.218,119.112 811.207,118.352 802.196,117.614 793.185,116.898 784.174,116.208 
  775.162,115.54 766.151,114.89 757.14,114.257 748.129,113.64 739.118,113.043 730.106,112.464 721.095,111.899 712.084,111.346 703.073,110.806 694.062,110.28 
  685.05,109.771 676.039,109.272 667.028,108.784 658.017,108.306 649.006,107.837 639.994,107.382 630.983,106.938 621.972,106.503 612.961,106.075 603.95,105.655 
  594.939,105.243 585.927,104.843 576.916,104.451 567.905,104.066 558.894,103.688 549.883,103.315 540.871,102.949 531.86,102.593 522.849,102.244 513.838,101.901 
  504.827,101.562 495.815,101.229 486.804,100.901 477.793,100.581 468.782,100.269 459.771,99.96 450.759,99.6558 441.748,99.3556 432.737,99.0595 423.726,98.7705 
  414.715,98.4883 405.703,98.2098 396.692,97.9347 387.681,97.663 378.67,97.3947 369.659,97.132 360.647,96.8764 351.636,96.6238 342.625,96.3741 333.614,96.1273 
  324.603,95.8832 
  "/>
</svg>
