<?xml version="1.0" encoding="utf-8"?>
<svg xmlns="http://www.w3.org/2000/svg" xmlns:xlink="http://www.w3.org/1999/xlink" width="300" height="180" viewBox="0 0 1200 720">
<defs>
  <clipPath id="clip800">
    <rect x="0" y="0" width="1200" height="720"/>
  </clipPath>
</defs>
<path clip-path="url(#clip800)" d="
M0 720 L1200 720 L1200 0 L0 0  Z
  " fill="#ffffff" fill-rule="evenodd" fill-opacity="1"/>
<defs>
  <clipPath id="clip801">
    <rect x="240" y="0" width="841" height="720"/>
  </clipPath>
</defs>
<path clip-path="url(#clip800)" d="
M264.915 603.152 L1152.76 603.152 L1152.76 47.2441 L264.915 47.2441  Z
  " fill="#ffffff" fill-rule="evenodd" fill-opacity="1"/>
<defs>
  <clipPath id="clip802">
    <rect x="264" y="47" width="889" height="557"/>
  </clipPath>
</defs>
<polyline clip-path="url(#clip800)" style="stroke:#000000; stroke-linecap:butt; stroke-linejoin:round; stroke-width:4; stroke-opacity:1; fill:none" points="
  264.915,603.152 1152.76,603.152 
  "/>
<polyline clip-path="url(#clip800)" style="stroke:#000000; stroke-linecap:butt; stroke-linejoin:round; stroke-width:4; stroke-opacity:1; fill:none" points="
  290.043,603.152 290.043,584.254 
  "/>
<polyline clip-path="url(#clip800)" style="stroke:#000000; stroke-linecap:butt; stroke-linejoin:round; stroke-width:4; stroke-opacity:1; fill:none" points="
  499.439,603.152 499.439,584.254 
  "/>
<polyline clip-path="url(#clip800)" style="stroke:#000000; stroke-linecap:butt; stroke-linejoin:round; stroke-width:4; stroke-opacity:1; fill:none" points="
  708.836,603.152 708.836,584.254 
  "/>
<polyline clip-path="url(#clip800)" style="stroke:#000000; stroke-linecap:butt; stroke-linejoin:round; stroke-width:4; stroke-opacity:1; fill:none" points="
  918.232,603.152 918.232,584.254 
  "/>
<polyline clip-path="url(#clip800)" style="stroke:#000000; stroke-linecap:butt; stroke-linejoin:round; stroke-width:4; stroke-opacity:1; fill:none" points="
  1127.63,603.152 1127.63,584.254 
  "/>
<path clip-path="url(#clip800)" d="M233.498 630.33 Q228.081 630.33 225.338 635.677 Q222.63 640.99 222.63 651.684 Q222.63 662.344 225.338 667.691 Q228.081 673.003 233.498 673.003 Q238.949 673.003 241.658 667.691 Q244.401 662.344 244.401 651.684 Q244.401 640.99 241.658 635.677 Q238.949 630.33 233.498 630.33 M233.498 624.774 Q242.213 624.774 246.796 631.684 Q251.414 638.559 251.414 651.684 Q251.414 664.774 246.796 671.684 Q242.213 678.559 233.498 678.559 Q224.783 678.559 220.165 671.684 Q215.581 664.774 215.581 651.684 Q215.581 638.559 220.165 631.684 Q224.783 624.774 233.498 624.774 Z" fill="#000000" fill-rule="evenodd" fill-opacity="1" /><path clip-path="url(#clip800)" d="M263.741 668.732 L271.067 668.732 L271.067 677.552 L263.741 677.552 L263.741 668.732 Z" fill="#000000" fill-rule="evenodd" fill-opacity="1" /><path clip-path="url(#clip800)" d="M301.345 630.33 Q295.928 630.33 293.185 635.677 Q290.477 640.99 290.477 651.684 Q290.477 662.344 293.185 667.691 Q295.928 673.003 301.345 673.003 Q306.796 673.003 309.504 667.691 Q312.247 662.344 312.247 651.684 Q312.247 640.99 309.504 635.677 Q306.796 630.33 301.345 630.33 M301.345 624.774 Q310.06 624.774 314.643 631.684 Q319.261 638.559 319.261 651.684 Q319.261 664.774 314.643 671.684 Q310.06 678.559 301.345 678.559 Q292.63 678.559 288.011 671.684 Q283.428 664.774 283.428 651.684 Q283.428 638.559 288.011 631.684 Q292.63 624.774 301.345 624.774 Z" fill="#000000" fill-rule="evenodd" fill-opacity="1" /><path clip-path="url(#clip800)" d="M346.588 630.33 Q341.171 630.33 338.428 635.677 Q335.72 640.99 335.72 651.684 Q335.72 662.344 338.428 667.691 Q341.171 673.003 346.588 673.003 Q352.039 673.003 354.747 667.691 Q357.49 662.344 357.49 651.684 Q357.49 640.99 354.747 635.677 Q352.039 630.33 346.588 630.33 M346.588 624.774 Q355.303 624.774 359.886 631.684 Q364.504 638.559 364.504 651.684 Q364.504 664.774 359.886 671.684 Q355.303 678.559 346.588 678.559 Q337.872 678.559 333.254 671.684 Q328.671 664.774 328.671 651.684 Q328.671 638.559 333.254 631.684 Q337.872 624.774 346.588 624.774 Z" fill="#000000" fill-rule="evenodd" fill-opacity="1" /><path clip-path="url(#clip800)" d="M443.641 630.33 Q438.224 630.33 435.481 635.677 Q432.773 640.99 432.773 651.684 Q432.773 662.344 435.481 667.691 Q438.224 673.003 443.641 673.003 Q449.092 673.003 451.8 667.691 Q454.544 662.344 454.544 651.684 Q454.544 640.99 451.8 635.677 Q449.092 630.33 443.641 630.33 M443.641 624.774 Q452.356 624.774 456.939 631.684 Q461.557 638.559 461.557 651.684 Q461.557 664.774 456.939 671.684 Q452.356 678.559 443.641 678.559 Q434.926 678.559 430.308 671.684 Q425.724 664.774 425.724 651.684 Q425.724 638.559 430.308 631.684 Q434.926 624.774 443.641 624.774 Z" fill="#000000" fill-rule="evenodd" fill-opacity="1" /><path clip-path="url(#clip800)" d="M473.884 668.732 L481.21 668.732 L481.21 677.552 L473.884 677.552 L473.884 668.732 Z" fill="#000000" fill-rule="evenodd" fill-opacity="1" /><path clip-path="url(#clip800)" d="M502.529 671.649 L527.008 671.649 L527.008 677.552 L494.092 677.552 L494.092 671.649 Q498.085 667.517 504.96 660.573 Q511.87 653.594 513.64 651.58 Q517.008 647.795 518.328 645.191 Q519.682 642.552 519.682 640.017 Q519.682 635.885 516.765 633.281 Q513.883 630.677 509.231 630.677 Q505.932 630.677 502.252 631.823 Q498.606 632.969 494.439 635.295 L494.439 628.212 Q498.675 626.51 502.356 625.642 Q506.036 624.774 509.092 624.774 Q517.147 624.774 521.939 628.802 Q526.731 632.83 526.731 639.566 Q526.731 642.76 525.515 645.642 Q524.335 648.49 521.175 652.378 Q520.307 653.385 515.654 658.212 Q511.002 663.003 502.529 671.649 Z" fill="#000000" fill-rule="evenodd" fill-opacity="1" /><path clip-path="url(#clip800)" d="M541.8 625.712 L569.335 625.712 L569.335 631.615 L548.224 631.615 L548.224 644.323 Q549.751 643.802 551.279 643.559 Q552.807 643.281 554.335 643.281 Q563.015 643.281 568.085 648.038 Q573.154 652.795 573.154 660.92 Q573.154 669.288 567.946 673.941 Q562.737 678.559 553.258 678.559 Q549.994 678.559 546.592 678.003 Q543.224 677.448 539.613 676.337 L539.613 669.288 Q542.738 670.989 546.071 671.823 Q549.404 672.656 553.119 672.656 Q559.126 672.656 562.633 669.496 Q566.14 666.337 566.14 660.92 Q566.14 655.503 562.633 652.344 Q559.126 649.184 553.119 649.184 Q550.307 649.184 547.494 649.809 Q544.717 650.434 541.8 651.753 L541.8 625.712 Z" fill="#000000" fill-rule="evenodd" fill-opacity="1" /><path clip-path="url(#clip800)" d="M652.291 630.33 Q646.874 630.33 644.131 635.677 Q641.423 640.99 641.423 651.684 Q641.423 662.344 644.131 667.691 Q646.874 673.003 652.291 673.003 Q657.742 673.003 660.45 667.691 Q663.193 662.344 663.193 651.684 Q663.193 640.99 660.45 635.677 Q657.742 630.33 652.291 630.33 M652.291 624.774 Q661.006 624.774 665.589 631.684 Q670.207 638.559 670.207 651.684 Q670.207 664.774 665.589 671.684 Q661.006 678.559 652.291 678.559 Q643.575 678.559 638.957 671.684 Q634.374 664.774 634.374 651.684 Q634.374 638.559 638.957 631.684 Q643.575 624.774 652.291 624.774 Z" fill="#000000" fill-rule="evenodd" fill-opacity="1" /><path clip-path="url(#clip800)" d="M682.534 668.732 L689.86 668.732 L689.86 677.552 L682.534 677.552 L682.534 668.732 Z" fill="#000000" fill-rule="evenodd" fill-opacity="1" /><path clip-path="url(#clip800)" d="M705.207 625.712 L732.742 625.712 L732.742 631.615 L711.631 631.615 L711.631 644.323 Q713.158 643.802 714.686 643.559 Q716.214 643.281 717.742 643.281 Q726.422 643.281 731.492 648.038 Q736.561 652.795 736.561 660.92 Q736.561 669.288 731.353 673.941 Q726.144 678.559 716.665 678.559 Q713.401 678.559 709.999 678.003 Q706.631 677.448 703.02 676.337 L703.02 669.288 Q706.145 670.989 709.478 671.823 Q712.811 672.656 716.526 672.656 Q722.533 672.656 726.04 669.496 Q729.547 666.337 729.547 660.92 Q729.547 655.503 726.04 652.344 Q722.533 649.184 716.526 649.184 Q713.714 649.184 710.901 649.809 Q708.124 650.434 705.207 651.753 L705.207 625.712 Z" fill="#000000" fill-rule="evenodd" fill-opacity="1" /><path clip-path="url(#clip800)" d="M765.38 630.33 Q759.964 630.33 757.221 635.677 Q754.512 640.99 754.512 651.684 Q754.512 662.344 757.221 667.691 Q759.964 673.003 765.38 673.003 Q770.832 673.003 773.54 667.691 Q776.283 662.344 776.283 651.684 Q776.283 640.99 773.54 635.677 Q770.832 630.33 765.38 630.33 M765.38 624.774 Q774.096 624.774 778.679 631.684 Q783.297 638.559 783.297 651.684 Q783.297 664.774 778.679 671.684 Q774.096 678.559 765.38 678.559 Q756.665 678.559 752.047 671.684 Q747.464 664.774 747.464 651.684 Q747.464 638.559 752.047 631.684 Q756.665 624.774 765.38 624.774 Z" fill="#000000" fill-rule="evenodd" fill-opacity="1" /><path clip-path="url(#clip800)" d="M862.434 630.33 Q857.017 630.33 854.274 635.677 Q851.566 640.99 851.566 651.684 Q851.566 662.344 854.274 667.691 Q857.017 673.003 862.434 673.003 Q867.885 673.003 870.593 667.691 Q873.336 662.344 873.336 651.684 Q873.336 640.99 870.593 635.677 Q867.885 630.33 862.434 630.33 M862.434 624.774 Q871.149 624.774 875.732 631.684 Q880.35 638.559 880.35 651.684 Q880.35 664.774 875.732 671.684 Q871.149 678.559 862.434 678.559 Q853.718 678.559 849.1 671.684 Q844.517 664.774 844.517 651.684 Q844.517 638.559 849.1 631.684 Q853.718 624.774 862.434 624.774 Z" fill="#000000" fill-rule="evenodd" fill-opacity="1" /><path clip-path="url(#clip800)" d="M892.677 668.732 L900.003 668.732 L900.003 677.552 L892.677 677.552 L892.677 668.732 Z" fill="#000000" fill-rule="evenodd" fill-opacity="1" /><path clip-path="url(#clip800)" d="M913.51 625.712 L946.843 625.712 L946.843 628.698 L928.024 677.552 L920.697 677.552 L938.405 631.615 L913.51 631.615 L913.51 625.712 Z" fill="#000000" fill-rule="evenodd" fill-opacity="1" /><path clip-path="url(#clip800)" d="M960.593 625.712 L988.127 625.712 L988.127 631.615 L967.016 631.615 L967.016 644.323 Q968.544 643.802 970.072 643.559 Q971.6 643.281 973.127 643.281 Q981.808 643.281 986.877 648.038 Q991.947 652.795 991.947 660.92 Q991.947 669.288 986.739 673.941 Q981.53 678.559 972.051 678.559 Q968.787 678.559 965.384 678.003 Q962.016 677.448 958.405 676.337 L958.405 669.288 Q961.53 670.989 964.864 671.823 Q968.197 672.656 971.912 672.656 Q977.919 672.656 981.426 669.496 Q984.933 666.337 984.933 660.92 Q984.933 655.503 981.426 652.344 Q977.919 649.184 971.912 649.184 Q969.1 649.184 966.287 649.809 Q963.509 650.434 960.593 651.753 L960.593 625.712 Z" fill="#000000" fill-rule="evenodd" fill-opacity="1" /><path clip-path="url(#clip800)" d="M1055.74 671.649 L1067.19 671.649 L1067.19 632.101 L1054.73 634.601 L1054.73 628.212 L1067.13 625.712 L1074.14 625.712 L1074.14 671.649 L1085.6 671.649 L1085.6 677.552 L1055.74 677.552 L1055.74 671.649 Z" fill="#000000" fill-rule="evenodd" fill-opacity="1" /><path clip-path="url(#clip800)" d="M1099.76 668.732 L1107.09 668.732 L1107.09 677.552 L1099.76 677.552 L1099.76 668.732 Z" fill="#000000" fill-rule="evenodd" fill-opacity="1" /><path clip-path="url(#clip800)" d="M1137.37 630.33 Q1131.95 630.33 1129.21 635.677 Q1126.5 640.99 1126.5 651.684 Q1126.5 662.344 1129.21 667.691 Q1131.95 673.003 1137.37 673.003 Q1142.82 673.003 1145.53 667.691 Q1148.27 662.344 1148.27 651.684 Q1148.27 640.99 1145.53 635.677 Q1142.82 630.33 1137.37 630.33 M1137.37 624.774 Q1146.08 624.774 1150.67 631.684 Q1155.28 638.559 1155.28 651.684 Q1155.28 664.774 1150.67 671.684 Q1146.08 678.559 1137.37 678.559 Q1128.65 678.559 1124.03 671.684 Q1119.45 664.774 1119.45 651.684 Q1119.45 638.559 1124.03 631.684 Q1128.65 624.774 1137.37 624.774 Z" fill="#000000" fill-rule="evenodd" fill-opacity="1" /><path clip-path="url(#clip800)" d="M1182.61 630.33 Q1177.19 630.33 1174.45 635.677 Q1171.74 640.99 1171.74 651.684 Q1171.74 662.344 1174.45 667.691 Q1177.19 673.003 1182.61 673.003 Q1188.06 673.003 1190.77 667.691 Q1193.51 662.344 1193.51 651.684 Q1193.51 640.99 1190.77 635.677 Q1188.06 630.33 1182.61 630.33 M1182.61 624.774 Q1191.33 624.774 1195.91 631.684 Q1200.53 638.559 1200.53 651.684 Q1200.53 664.774 1195.91 671.684 Q1191.33 678.559 1182.61 678.559 Q1173.9 678.559 1169.28 671.684 Q1164.69 664.774 1164.69 651.684 Q1164.69 638.559 1169.28 631.684 Q1173.9 624.774 1182.61 624.774 Z" fill="#000000" fill-rule="evenodd" fill-opacity="1" /><polyline clip-path="url(#clip800)" style="stroke:#000000; stroke-linecap:butt; stroke-linejoin:round; stroke-width:4; stroke-opacity:1; fill:none" points="
  264.915,603.152 264.915,47.2441 
  "/>
<polyline clip-path="url(#clip800)" style="stroke:#000000; stroke-linecap:butt; stroke-linejoin:round; stroke-width:4; stroke-opacity:1; fill:none" points="
  264.915,603.152 283.813,603.152 
  "/>
<polyline clip-path="url(#clip800)" style="stroke:#000000; stroke-linecap:butt; stroke-linejoin:round; stroke-width:4; stroke-opacity:1; fill:none" points="
  264.915,343.357 283.813,343.357 
  "/>
<polyline clip-path="url(#clip800)" style="stroke:#000000; stroke-linecap:butt; stroke-linejoin:round; stroke-width:4; stroke-opacity:1; fill:none" points="
  264.915,83.5619 283.813,83.5619 
  "/>
<path clip-path="url(#clip800)" d="M57.9991 632.841 L69.4573 632.841 L69.4573 593.292 L56.9921 595.792 L56.9921 589.403 L69.3879 586.903 L76.4017 586.903 L76.4017 632.841 L87.86 632.841 L87.86 638.743 L57.9991 638.743 L57.9991 632.841 Z" fill="#000000" fill-rule="evenodd" fill-opacity="1" /><path clip-path="url(#clip800)" d="M117.027 591.521 Q111.61 591.521 108.867 596.868 Q106.159 602.181 106.159 612.875 Q106.159 623.535 108.867 628.882 Q111.61 634.195 117.027 634.195 Q122.478 634.195 125.186 628.882 Q127.929 623.535 127.929 612.875 Q127.929 602.181 125.186 596.868 Q122.478 591.521 117.027 591.521 M117.027 585.966 Q125.742 585.966 130.325 592.875 Q134.943 599.75 134.943 612.875 Q134.943 625.966 130.325 632.875 Q125.742 639.75 117.027 639.75 Q108.311 639.75 103.693 632.875 Q99.11 625.966 99.11 612.875 Q99.11 599.75 103.693 592.875 Q108.311 585.966 117.027 585.966 Z" fill="#000000" fill-rule="evenodd" fill-opacity="1" /><path clip-path="url(#clip800)" d="M134.943 577.118 L171.11 577.118 L171.11 581.914 L134.943 581.914 L134.943 577.118 Z" fill="#000000" fill-rule="evenodd" fill-opacity="1" /><path clip-path="url(#clip800)" d="M184.398 592.832 L193.708 592.832 L193.708 560.699 L183.58 562.73 L183.58 557.539 L193.652 555.508 L199.35 555.508 L199.35 592.832 L208.66 592.832 L208.66 597.628 L184.398 597.628 L184.398 592.832 Z" fill="#000000" fill-rule="evenodd" fill-opacity="1" /><path clip-path="url(#clip800)" d="M232.358 559.26 Q227.957 559.26 225.728 563.604 Q223.528 567.921 223.528 576.61 Q223.528 585.271 225.728 589.616 Q227.957 593.932 232.358 593.932 Q236.787 593.932 238.988 589.616 Q241.216 585.271 241.216 576.61 Q241.216 567.921 238.988 563.604 Q236.787 559.26 232.358 559.26 M232.358 554.746 Q239.439 554.746 243.163 560.36 Q246.915 565.946 246.915 576.61 Q246.915 587.246 243.163 592.86 Q239.439 598.446 232.358 598.446 Q225.277 598.446 221.525 592.86 Q217.801 587.246 217.801 576.61 Q217.801 565.946 221.525 560.36 Q225.277 554.746 232.358 554.746 Z" fill="#000000" fill-rule="evenodd" fill-opacity="1" /><path clip-path="url(#clip800)" d="M95.972 373.046 L107.43 373.046 L107.43 333.497 L94.965 335.997 L94.965 329.608 L107.361 327.108 L114.375 327.108 L114.375 373.046 L125.833 373.046 L125.833 378.948 L95.972 378.948 L95.972 373.046 Z" fill="#000000" fill-rule="evenodd" fill-opacity="1" /><path clip-path="url(#clip800)" d="M154.999 331.726 Q149.583 331.726 146.84 337.073 Q144.131 342.386 144.131 353.08 Q144.131 363.74 146.84 369.087 Q149.583 374.4 154.999 374.4 Q160.451 374.4 163.159 369.087 Q165.902 363.74 165.902 353.08 Q165.902 342.386 163.159 337.073 Q160.451 331.726 154.999 331.726 M154.999 326.171 Q163.715 326.171 168.298 333.08 Q172.916 339.955 172.916 353.08 Q172.916 366.171 168.298 373.08 Q163.715 379.955 154.999 379.955 Q146.284 379.955 141.666 373.08 Q137.083 366.171 137.083 353.08 Q137.083 339.955 141.666 333.08 Q146.284 326.171 154.999 326.171 Z" fill="#000000" fill-rule="evenodd" fill-opacity="1" /><path clip-path="url(#clip800)" d="M172.916 317.323 L209.083 317.323 L209.083 322.119 L172.916 322.119 L172.916 317.323 Z" fill="#000000" fill-rule="evenodd" fill-opacity="1" /><path clip-path="url(#clip800)" d="M221.44 295.713 L243.812 295.713 L243.812 300.509 L226.659 300.509 L226.659 310.834 Q227.9 310.411 229.142 310.213 Q230.383 309.988 231.624 309.988 Q238.677 309.988 242.796 313.853 Q246.915 317.718 246.915 324.319 Q246.915 331.118 242.683 334.899 Q238.452 338.651 230.75 338.651 Q228.098 338.651 225.333 338.199 Q222.597 337.748 219.663 336.845 L219.663 331.118 Q222.202 332.501 224.91 333.178 Q227.618 333.855 230.637 333.855 Q235.518 333.855 238.367 331.288 Q241.216 328.72 241.216 324.319 Q241.216 319.918 238.367 317.351 Q235.518 314.784 230.637 314.784 Q228.352 314.784 226.067 315.292 Q223.81 315.799 221.44 316.871 L221.44 295.713 Z" fill="#000000" fill-rule="evenodd" fill-opacity="1" /><path clip-path="url(#clip800)" d="M140.857 113.251 L152.315 113.251 L152.315 73.7021 L139.85 76.2021 L139.85 69.8133 L152.246 67.3133 L159.259 67.3133 L159.259 113.251 L170.718 113.251 L170.718 119.153 L140.857 119.153 L140.857 113.251 Z" fill="#000000" fill-rule="evenodd" fill-opacity="1" /><path clip-path="url(#clip800)" d="M199.884 71.9313 Q194.468 71.9313 191.724 77.2785 Q189.016 82.591 189.016 93.2854 Q189.016 103.945 191.724 109.292 Q194.468 114.605 199.884 114.605 Q205.336 114.605 208.044 109.292 Q210.787 103.945 210.787 93.2854 Q210.787 82.591 208.044 77.2785 Q205.336 71.9313 199.884 71.9313 M199.884 66.3758 Q208.599 66.3758 213.183 73.2855 Q217.801 80.1604 217.801 93.2854 Q217.801 106.376 213.183 113.285 Q208.599 120.16 199.884 120.16 Q191.169 120.16 186.551 113.285 Q181.968 106.376 181.968 93.2854 Q181.968 80.1604 186.551 73.2855 Q191.169 66.3758 199.884 66.3758 Z" fill="#000000" fill-rule="evenodd" fill-opacity="1" /><path clip-path="url(#clip800)" d="M232.358 39.6698 Q227.957 39.6698 225.728 44.0144 Q223.528 48.3308 223.528 57.02 Q223.528 65.681 225.728 70.0256 Q227.957 74.342 232.358 74.342 Q236.787 74.342 238.988 70.0256 Q241.216 65.681 241.216 57.02 Q241.216 48.3308 238.988 44.0144 Q236.787 39.6698 232.358 39.6698 M232.358 35.156 Q239.439 35.156 243.163 40.7701 Q246.915 46.356 246.915 57.02 Q246.915 67.6558 243.163 73.2699 Q239.439 78.8558 232.358 78.8558 Q225.277 78.8558 221.525 73.2699 Q217.801 67.6558 217.801 57.02 Q217.801 46.356 221.525 40.7701 Q225.277 35.156 232.358 35.156 Z" fill="#000000" fill-rule="evenodd" fill-opacity="1" /><polyline clip-path="url(#clip802)" style="stroke:#000000; stroke-linecap:butt; stroke-linejoin:round; stroke-width:16; stroke-opacity:1; fill:none" stroke-dasharray="8, 16" points="
  1119.25,8699.53 1110.88,6722.15 1102.5,5550.5 1094.12,4714.37 1085.75,4063.71 1077.37,3531.07 1069,3080.22 1060.62,2689.45 1052.25,2344.7 1043.87,2036.33 
  1035.49,1757.47 1027.12,1503.01 1018.74,1269.08 1010.37,1072.7 1001.99,934.363 993.615,844.151 985.239,782.036 976.863,733.414 968.487,692.392 960.111,656.507 
  951.735,624.461 943.36,595.312 934.984,568.683 926.608,544.21 918.232,521.543 909.856,500.341 901.48,480.619 893.104,462.196 884.729,444.76 876.353,428.53 
  867.977,413.102 859.601,398.563 851.225,384.914 842.849,371.697 834.473,359.585 826.098,347.895 817.722,336.612 809.346,326.301 800.97,316.295 792.594,306.582 
  784.218,297.748 775.842,289.213 767.467,280.927 759.091,273.195 750.715,265.961 742.339,258.944 733.963,252.141 725.587,246.012 717.211,240.128 708.836,234.434 
  700.46,228.942 692.084,224.065 683.708,219.353 675.332,214.805 666.956,210.419 658.58,206.522 650.205,202.806 641.829,199.226 633.453,195.781 625.077,192.562 
  616.701,189.659 608.325,186.866 599.949,184.179 591.574,181.594 583.198,179.123 574.822,176.944 566.446,174.845 558.07,172.824 549.694,170.877 541.318,169.002 
  532.943,167.196 524.567,165.553 516.191,164.013 507.815,162.526 499.439,161.088 491.063,159.699 482.687,158.356 474.312,157.057 465.936,155.801 457.56,154.624 
  449.184,153.534 440.808,152.477 432.432,151.45 424.056,150.453 415.681,149.484 407.305,148.543 398.929,147.629 390.553,146.739 382.177,145.874 373.801,145.032 
  365.425,144.212 357.05,143.465 348.674,142.736 340.298,142.024 331.922,141.329 323.546,140.65 315.17,139.987 306.794,139.339 298.419,138.705 290.043,138.086 
  
  "/>
<polyline clip-path="url(#clip802)" style="stroke:#000000; stroke-linecap:butt; stroke-linejoin:round; stroke-width:16; stroke-opacity:1; fill:none" stroke-dasharray="64, 40" points="
  1127.63,14562.3 1119.25,6751.04 1110.88,5201.65 1102.5,4268 1094.12,3595.34 1085.75,3068.66 1077.37,2635.71 1069,2268.25 1060.62,1949.26 1052.25,1667.68 
  1043.87,1415.93 1035.49,1188.58 1027.12,981.67 1018.74,792.214 1010.37,617.988 1001.99,457.426 993.615,314.831 985.239,238.691 976.863,204.224 968.487,185.312 
  960.111,173.202 951.735,164.631 943.36,158.11 934.984,152.915 926.608,148.621 918.232,144.982 909.856,141.828 901.48,139.053 893.104,136.585 884.729,134.352 
  876.353,132.331 867.977,130.473 859.601,128.761 851.225,127.177 842.849,125.694 834.473,124.311 826.098,123.013 817.722,121.784 809.346,120.623 800.97,119.527 
  792.594,118.482 784.218,117.484 775.842,116.535 767.467,115.629 759.091,114.758 750.715,113.92 742.339,113.117 733.963,112.348 725.587,111.604 717.211,110.885 
  708.836,110.189 700.46,109.522 692.084,108.876 683.708,108.248 675.332,107.638 666.956,107.045 658.58,106.475 650.205,105.921 641.829,105.38 633.453,104.852 
  625.077,104.338 616.701,103.84 608.325,103.356 599.949,102.883 591.574,102.421 583.198,101.968 574.822,101.526 566.446,101.098 558.07,100.68 549.694,100.269 
  541.318,99.8666 532.943,99.4716 524.567,99.0868 516.191,98.7128 507.815,98.3455 499.439,97.9846 491.063,97.63 482.687,97.2813 474.312,96.9417 465.936,96.6108 
  457.56,96.2853 449.184,95.9648 440.808,95.6494 432.432,95.3388 424.056,95.0357 415.681,94.7405 407.305,94.4496 398.929,94.1629 390.553,93.8802 382.177,93.6015 
  373.801,93.3288 365.425,93.0637 357.05,92.8022 348.674,92.5441 340.298,92.2893 331.922,92.0378 323.546,91.7911 315.17,91.5519 306.794,91.3157 298.419,91.0822 
  290.043,90.8516 
  "/>
<polyline clip-path="url(#clip802)" style="stroke:#e38512; stroke-linecap:butt; stroke-linejoin:round; stroke-width:16; stroke-opacity:1; fill:none" stroke-dasharray="8, 16" points="
  1119.25,12002.4 1110.88,10025.9 1102.5,8854.53 1094.12,8018.37 1085.75,7367.54 1077.37,6834.62 1069,6383.43 1060.62,5992.26 1052.25,5647.06 1043.87,5338.22 
  1035.49,5058.84 1027.12,4803.84 1018.74,4569.35 1010.37,4352.34 1001.99,4150.42 993.615,3961.66 985.239,3784.47 976.863,3617.55 968.487,3459.78 960.111,3310.23 
  951.735,3168.12 943.36,3032.74 934.984,2903.51 926.608,2779.91 918.232,2661.48 909.856,2547.82 901.48,2438.56 893.104,2333.4 884.729,2232.04 876.353,2134.24 
  867.977,2039.75 859.601,1948.37 851.225,1859.9 842.849,1774.18 834.473,1691.05 826.098,1610.36 817.722,1531.98 809.346,1455.78 800.97,1381.66 792.594,1309.5 
  784.218,1239.22 775.842,1170.72 767.467,1103.95 759.091,1042.29 750.715,987.9 742.339,940.821 733.963,900.833 725.587,867.303 717.211,839.099 708.836,814.933 
  700.46,793.71 692.084,774.641 683.708,757.191 675.332,741.029 666.956,725.938 658.58,711.661 650.205,698.172 641.829,685.306 633.453,672.981 625.077,661.236 
  616.701,649.929 608.325,638.955 599.949,628.498 591.574,618.269 583.198,608.491 574.822,598.864 566.446,589.706 558.07,580.707 549.694,571.933 541.318,563.528 
  532.943,555.244 524.567,547.113 516.191,539.383 507.815,531.759 499.439,524.239 491.063,516.926 482.687,509.915 474.312,502.996 465.936,496.167 457.56,489.425 
  449.184,483.026 440.808,476.747 432.432,470.545 424.056,464.419 415.681,458.368 407.305,452.554 398.929,446.926 390.553,441.364 382.177,435.867 373.801,430.433 
  365.425,425.061 357.05,419.854 348.674,414.866 340.298,409.934 331.922,405.056 323.546,400.232 315.17,395.46 306.794,390.739 298.419,386.116 290.043,381.742 
  
  "/>
<polyline clip-path="url(#clip802)" style="stroke:#e38512; stroke-linecap:butt; stroke-linejoin:round; stroke-width:16; stroke-opacity:1; fill:none" stroke-dasharray="64, 40" points="
  1119.25,9478.81 1110.88,7954.17 1102.5,7032.9 1094.12,6367.4 1085.75,5844.89 1077.37,5414.11 1069,5047.34 1060.62,4727.84 1052.25,4444.72 1043.87,4190.48 
  1035.49,3959.75 1027.12,3748.52 1018.74,3553.75 1010.37,3373.06 1001.99,3204.55 993.615,3046.69 985.239,2898.22 976.863,2758.09 968.487,2625.42 960.111,2499.47 
  951.735,2379.61 943.36,2265.27 934.984,2155.99 926.608,2051.34 918.232,1950.96 909.856,1854.52 901.48,1761.74 893.104,1672.36 884.729,1586.15 876.353,1502.9 
  867.977,1422.42 859.601,1344.56 851.225,1269.15 842.849,1196.06 834.473,1125.16 826.098,1056.33 817.722,989.465 809.346,924.475 800.97,861.267 792.594,799.761 
  784.218,739.882 775.842,681.562 767.467,624.74 759.091,569.36 750.715,515.373 742.339,462.738 733.963,411.422 725.587,361.409 717.211,314.043 708.836,276.867 
  700.46,248.894 692.084,227.504 683.708,210.746 675.332,197.317 666.956,186.362 658.58,177.287 650.205,169.643 641.829,163.14 633.453,157.542 625.077,152.671 
  616.701,148.384 608.325,144.579 599.949,141.18 591.574,138.124 583.198,135.353 574.822,132.819 566.446,130.5 558.07,128.374 549.694,126.386 541.318,124.566 
  532.943,122.843 524.567,121.257 516.191,119.748 507.815,118.342 499.439,117.01 491.063,115.74 482.687,114.555 474.312,113.418 465.936,112.33 457.56,111.31 
  449.184,110.326 440.808,109.377 432.432,108.481 424.056,107.62 415.681,106.787 407.305,105.98 398.929,105.22 390.553,104.482 382.177,103.764 373.801,103.067 
  365.425,102.407 357.05,101.766 348.674,101.14 340.298,100.531 331.922,99.9453 323.546,99.3817 315.17,98.831 306.794,98.2928 298.419,97.7666 290.043,97.2655 
  
  "/>
<polyline clip-path="url(#clip802)" style="stroke:#7a4c8f; stroke-linecap:butt; stroke-linejoin:round; stroke-width:16; stroke-opacity:1; fill:none" stroke-dasharray="8, 16" points="
  1119.25,6639.34 1110.88,4664.5 1102.5,3494.8 1094.12,2660.38 1085.75,2011.33 1077.37,1480.24 1069,1063.41 1060.62,849.187 1052.25,741.169 1043.87,664.9 
  1035.49,604.044 1027.12,553.073 1018.74,509.203 1010.37,471.05 1001.99,437.442 993.615,407.659 985.239,381.162 976.863,357.314 968.487,335.664 960.111,316.471 
  951.735,299.068 943.36,283.265 934.984,269.342 926.608,256.492 918.232,245.446 909.856,235.22 901.48,226.477 893.104,218.374 884.729,211.54 876.353,205.238 
  867.977,199.741 859.601,194.854 851.225,190.34 842.849,186.457 834.473,182.921 826.098,179.637 817.722,176.65 809.346,174.027 800.97,171.571 792.594,169.269 
  784.218,167.108 775.842,165.142 767.467,163.353 759.091,161.659 750.715,160.051 742.339,158.524 733.963,157.072 725.587,155.689 717.211,154.408 708.836,153.216 
  700.46,152.073 692.084,150.976 683.708,149.921 675.332,148.907 666.956,147.93 658.58,146.988 650.205,146.079 641.829,145.201 633.453,144.352 625.077,143.555 
  616.701,142.795 608.325,142.057 599.949,141.341 591.574,140.645 583.198,139.968 574.822,139.309 566.446,138.668 558.07,138.043 549.694,137.435 541.318,136.841 
  532.943,136.262 524.567,135.696 516.191,135.144 507.815,134.605 499.439,134.078 491.063,133.562 482.687,133.057 474.312,132.577 465.936,132.111 457.56,131.654 
  449.184,131.206 440.808,130.767 432.432,130.336 424.056,129.913 415.681,129.498 407.305,129.09 398.929,128.69 390.553,128.296 382.177,127.909 373.801,127.529 
  365.425,127.155 357.05,126.788 348.674,126.426 340.298,126.07 331.922,125.72 323.546,125.375 315.17,125.036 306.794,124.701 298.419,124.372 290.043,124.048 
  
  "/>
<polyline clip-path="url(#clip802)" style="stroke:#7a4c8f; stroke-linecap:butt; stroke-linejoin:round; stroke-width:16; stroke-opacity:1; fill:none" stroke-dasharray="64, 40" points="
  1127.63,12549.2 1119.25,4931.65 1110.88,3419.73 1102.5,2512.23 1094.12,1861.77 1085.75,1355.91 1077.37,943.958 1069,599.246 1060.62,315.229 1052.25,216.565 
  1043.87,188.032 1035.49,173.762 1027.12,164.645 1018.74,158.041 1010.37,152.903 1001.99,148.715 993.615,145.184 985.239,142.13 976.863,139.45 968.487,137.057 
  960.111,134.902 951.735,132.935 943.36,131.138 934.984,129.473 926.608,127.929 918.232,126.49 909.856,125.138 901.48,123.868 893.104,122.672 884.729,121.537 
  876.353,120.457 867.977,119.436 859.601,118.461 851.225,117.526 842.849,116.632 834.473,115.779 826.098,114.958 817.722,114.166 809.346,113.403 800.97,112.672 
  792.594,111.965 784.218,111.281 775.842,110.617 767.467,109.977 759.091,109.359 750.715,108.757 742.339,108.173 733.963,107.603 725.587,107.053 717.211,106.519 
  708.836,105.998 700.46,105.489 692.084,104.992 683.708,104.51 675.332,104.042 666.956,103.583 658.58,103.135 650.205,102.696 641.829,102.266 633.453,101.851 
  625.077,101.443 616.701,101.043 608.325,100.651 599.949,100.267 591.574,99.8911 583.198,99.5257 574.822,99.1666 566.446,98.8138 558.07,98.467 549.694,98.1259 
  541.318,97.7933 532.943,97.4687 524.567,97.1492 516.191,96.8347 507.815,96.525 499.439,96.2201 491.063,95.9221 482.687,95.6314 474.312,95.3449 465.936,95.0625 
  457.56,94.7841 449.184,94.5095 440.808,94.2402 432.432,93.9782 424.056,93.7198 415.681,93.4647 407.305,93.2129 398.929,92.9643 390.553,92.7192 382.177,92.482 
  373.801,92.2477 365.425,92.0162 357.05,91.7875 348.674,91.5615 340.298,91.3381 331.922,91.1219 323.546,90.9087 315.17,90.698 306.794,90.4896 298.419,90.2834 
  290.043,90.0795 
  "/>
</svg>
