<?xml version="1.0" encoding="utf-8"?>
<svg xmlns="http://www.w3.org/2000/svg" xmlns:xlink="http://www.w3.org/1999/xlink" width="325" height="200" viewBox="0 0 1300 800">
<defs>
  <clipPath id="clip610">
    <rect x="0" y="0" width="1300" height="800"/>
  </clipPath>
</defs>
<path clip-path="url(#clip610)" d="
M0 800 L1300 800 L1300 0 L0 0  Z
  " fill="#ffffff" fill-rule="evenodd" fill-opacity="1"/>
<defs>
  <clipPath id="clip611">
    <rect x="260" y="0" width="911" height="800"/>
  </clipPath>
</defs>
<path clip-path="url(#clip610)" d="
M297.569 673.18 L1252.76 673.18 L1252.76 47.2441 L297.569 47.2441  Z
  " fill="#ffffff" fill-rule="evenodd" fill-opacity="1"/>
<defs>
  <clipPath id="clip612">
    <rect x="297" y="47" width="956" height="627"/>
  </clipPath>
</defs>
<polyline clip-path="url(#clip610)" style="stroke:#000000; stroke-linecap:butt; stroke-linejoin:round; stroke-width:4; stroke-opacity:1; fill:none" points="
  297.569,673.18 1252.76,673.18 
  "/>
<polyline clip-path="url(#clip610)" style="stroke:#000000; stroke-linecap:butt; stroke-linejoin:round; stroke-width:4; stroke-opacity:1; fill:none" points="
  324.603,673.18 324.603,654.283 
  "/>
<polyline clip-path="url(#clip610)" style="stroke:#000000; stroke-linecap:butt; stroke-linejoin:round; stroke-width:4; stroke-opacity:1; fill:none" points="
  549.883,673.18 549.883,654.283 
  "/>
<polyline clip-path="url(#clip610)" style="stroke:#000000; stroke-linecap:butt; stroke-linejoin:round; stroke-width:4; stroke-opacity:1; fill:none" points="
  775.162,673.18 775.162,654.283 
  "/>
<polyline clip-path="url(#clip610)" style="stroke:#000000; stroke-linecap:butt; stroke-linejoin:round; stroke-width:4; stroke-opacity:1; fill:none" points="
  1000.44,673.18 1000.44,654.283 
  "/>
<polyline clip-path="url(#clip610)" style="stroke:#000000; stroke-linecap:butt; stroke-linejoin:round; stroke-width:4; stroke-opacity:1; fill:none" points="
  1225.72,673.18 1225.72,654.283 
  "/>
<path clip-path="url(#clip610)" d="M258.634 704.088 Q252.314 704.088 249.114 710.326 Q245.954 716.524 245.954 729.001 Q245.954 741.437 249.114 747.676 Q252.314 753.873 258.634 753.873 Q264.994 753.873 268.153 747.676 Q271.353 741.437 271.353 729.001 Q271.353 716.524 268.153 710.326 Q264.994 704.088 258.634 704.088 M258.634 697.606 Q268.801 697.606 274.149 705.668 Q279.536 713.689 279.536 729.001 Q279.536 744.273 274.149 752.334 Q268.801 760.355 258.634 760.355 Q248.466 760.355 243.078 752.334 Q237.731 744.273 237.731 729.001 Q237.731 713.689 243.078 705.668 Q248.466 697.606 258.634 697.606 Z" fill="#000000" fill-rule="evenodd" fill-opacity="1" /><path clip-path="url(#clip610)" d="M293.917 748.891 L302.464 748.891 L302.464 759.18 L293.917 759.18 L293.917 748.891 Z" fill="#000000" fill-rule="evenodd" fill-opacity="1" /><path clip-path="url(#clip610)" d="M337.788 704.088 Q331.469 704.088 328.269 710.326 Q325.109 716.524 325.109 729.001 Q325.109 741.437 328.269 747.676 Q331.469 753.873 337.788 753.873 Q344.148 753.873 347.308 747.676 Q350.508 741.437 350.508 729.001 Q350.508 716.524 347.308 710.326 Q344.148 704.088 337.788 704.088 M337.788 697.606 Q347.956 697.606 353.303 705.668 Q358.691 713.689 358.691 729.001 Q358.691 744.273 353.303 752.334 Q347.956 760.355 337.788 760.355 Q327.621 760.355 322.233 752.334 Q316.886 744.273 316.886 729.001 Q316.886 713.689 322.233 705.668 Q327.621 697.606 337.788 697.606 Z" fill="#000000" fill-rule="evenodd" fill-opacity="1" /><path clip-path="url(#clip610)" d="M390.572 704.088 Q384.252 704.088 381.052 710.326 Q377.892 716.524 377.892 729.001 Q377.892 741.437 381.052 747.676 Q384.252 753.873 390.572 753.873 Q396.931 753.873 400.091 747.676 Q403.291 741.437 403.291 729.001 Q403.291 716.524 400.091 710.326 Q396.931 704.088 390.572 704.088 M390.572 697.606 Q400.739 697.606 406.087 705.668 Q411.474 713.689 411.474 729.001 Q411.474 744.273 406.087 752.334 Q400.739 760.355 390.572 760.355 Q380.404 760.355 375.016 752.334 Q369.669 744.273 369.669 729.001 Q369.669 713.689 375.016 705.668 Q380.404 697.606 390.572 697.606 Z" fill="#000000" fill-rule="evenodd" fill-opacity="1" /><path clip-path="url(#clip610)" d="M484.784 704.088 Q478.465 704.088 475.265 710.326 Q472.105 716.524 472.105 729.001 Q472.105 741.437 475.265 747.676 Q478.465 753.873 484.784 753.873 Q491.144 753.873 494.304 747.676 Q497.504 741.437 497.504 729.001 Q497.504 716.524 494.304 710.326 Q491.144 704.088 484.784 704.088 M484.784 697.606 Q494.952 697.606 500.299 705.668 Q505.687 713.689 505.687 729.001 Q505.687 744.273 500.299 752.334 Q494.952 760.355 484.784 760.355 Q474.617 760.355 469.229 752.334 Q463.882 744.273 463.882 729.001 Q463.882 713.689 469.229 705.668 Q474.617 697.606 484.784 697.606 Z" fill="#000000" fill-rule="evenodd" fill-opacity="1" /><path clip-path="url(#clip610)" d="M520.068 748.891 L528.615 748.891 L528.615 759.18 L520.068 759.18 L520.068 748.891 Z" fill="#000000" fill-rule="evenodd" fill-opacity="1" /><path clip-path="url(#clip610)" d="M553.488 752.294 L582.047 752.294 L582.047 759.18 L543.644 759.18 L543.644 752.294 Q548.303 747.473 556.323 739.371 Q564.385 731.229 566.451 728.879 Q570.38 724.464 571.919 721.426 Q573.499 718.347 573.499 715.39 Q573.499 710.569 570.097 707.531 Q566.734 704.493 561.306 704.493 Q557.458 704.493 553.164 705.83 Q548.91 707.167 544.049 709.881 L544.049 701.617 Q548.991 699.632 553.285 698.619 Q557.579 697.606 561.144 697.606 Q570.542 697.606 576.132 702.305 Q581.723 707.005 581.723 714.863 Q581.723 718.59 580.305 721.952 Q578.927 725.274 575.241 729.811 Q574.228 730.986 568.8 736.617 Q563.372 742.207 553.488 752.294 Z" fill="#000000" fill-rule="evenodd" fill-opacity="1" /><path clip-path="url(#clip610)" d="M599.304 698.7 L631.427 698.7 L631.427 705.587 L606.798 705.587 L606.798 720.413 Q608.58 719.805 610.363 719.522 Q612.145 719.198 613.927 719.198 Q624.055 719.198 629.969 724.747 Q635.883 730.297 635.883 739.776 Q635.883 749.539 629.807 754.967 Q623.73 760.355 612.672 760.355 Q608.864 760.355 604.894 759.707 Q600.964 759.059 596.751 757.762 L596.751 749.539 Q600.397 751.524 604.286 752.496 Q608.175 753.468 612.509 753.468 Q619.518 753.468 623.609 749.782 Q627.7 746.096 627.7 739.776 Q627.7 733.457 623.609 729.771 Q619.518 726.084 612.509 726.084 Q609.228 726.084 605.947 726.813 Q602.706 727.543 599.304 729.082 L599.304 698.7 Z" fill="#000000" fill-rule="evenodd" fill-opacity="1" /><path clip-path="url(#clip610)" d="M709.193 704.088 Q702.874 704.088 699.674 710.326 Q696.514 716.524 696.514 729.001 Q696.514 741.437 699.674 747.676 Q702.874 753.873 709.193 753.873 Q715.553 753.873 718.713 747.676 Q721.913 741.437 721.913 729.001 Q721.913 716.524 718.713 710.326 Q715.553 704.088 709.193 704.088 M709.193 697.606 Q719.361 697.606 724.708 705.668 Q730.096 713.689 730.096 729.001 Q730.096 744.273 724.708 752.334 Q719.361 760.355 709.193 760.355 Q699.026 760.355 693.638 752.334 Q688.291 744.273 688.291 729.001 Q688.291 713.689 693.638 705.668 Q699.026 697.606 709.193 697.606 Z" fill="#000000" fill-rule="evenodd" fill-opacity="1" /><path clip-path="url(#clip610)" d="M744.477 748.891 L753.024 748.891 L753.024 759.18 L744.477 759.18 L744.477 748.891 Z" fill="#000000" fill-rule="evenodd" fill-opacity="1" /><path clip-path="url(#clip610)" d="M770.929 698.7 L803.053 698.7 L803.053 705.587 L778.423 705.587 L778.423 720.413 Q780.206 719.805 781.988 719.522 Q783.771 719.198 785.553 719.198 Q795.68 719.198 801.595 724.747 Q807.509 730.297 807.509 739.776 Q807.509 749.539 801.433 754.967 Q795.356 760.355 784.297 760.355 Q780.489 760.355 776.52 759.707 Q772.59 759.059 768.377 757.762 L768.377 749.539 Q772.023 751.524 775.912 752.496 Q779.801 753.468 784.135 753.468 Q791.143 753.468 795.235 749.782 Q799.326 746.096 799.326 739.776 Q799.326 733.457 795.235 729.771 Q791.143 726.084 784.135 726.084 Q780.854 726.084 777.573 726.813 Q774.332 727.543 770.929 729.082 L770.929 698.7 Z" fill="#000000" fill-rule="evenodd" fill-opacity="1" /><path clip-path="url(#clip610)" d="M841.131 704.088 Q834.812 704.088 831.612 710.326 Q828.452 716.524 828.452 729.001 Q828.452 741.437 831.612 747.676 Q834.812 753.873 841.131 753.873 Q847.491 753.873 850.651 747.676 Q853.851 741.437 853.851 729.001 Q853.851 716.524 850.651 710.326 Q847.491 704.088 841.131 704.088 M841.131 697.606 Q851.299 697.606 856.646 705.668 Q862.034 713.689 862.034 729.001 Q862.034 744.273 856.646 752.334 Q851.299 760.355 841.131 760.355 Q830.964 760.355 825.576 752.334 Q820.229 744.273 820.229 729.001 Q820.229 713.689 825.576 705.668 Q830.964 697.606 841.131 697.606 Z" fill="#000000" fill-rule="evenodd" fill-opacity="1" /><path clip-path="url(#clip610)" d="M935.344 704.088 Q929.025 704.088 925.825 710.326 Q922.665 716.524 922.665 729.001 Q922.665 741.437 925.825 747.676 Q929.025 753.873 935.344 753.873 Q941.704 753.873 944.864 747.676 Q948.064 741.437 948.064 729.001 Q948.064 716.524 944.864 710.326 Q941.704 704.088 935.344 704.088 M935.344 697.606 Q945.512 697.606 950.859 705.668 Q956.247 713.689 956.247 729.001 Q956.247 744.273 950.859 752.334 Q945.512 760.355 935.344 760.355 Q925.177 760.355 919.789 752.334 Q914.442 744.273 914.442 729.001 Q914.442 713.689 919.789 705.668 Q925.177 697.606 935.344 697.606 Z" fill="#000000" fill-rule="evenodd" fill-opacity="1" /><path clip-path="url(#clip610)" d="M970.628 748.891 L979.175 748.891 L979.175 759.18 L970.628 759.18 L970.628 748.891 Z" fill="#000000" fill-rule="evenodd" fill-opacity="1" /><path clip-path="url(#clip610)" d="M994.933 698.7 L1033.82 698.7 L1033.82 702.184 L1011.87 759.18 L1003.32 759.18 L1023.98 705.587 L994.933 705.587 L994.933 698.7 Z" fill="#000000" fill-rule="evenodd" fill-opacity="1" /><path clip-path="url(#clip610)" d="M1049.86 698.7 L1081.99 698.7 L1081.99 705.587 L1057.36 705.587 L1057.36 720.413 Q1059.14 719.805 1060.92 719.522 Q1062.7 719.198 1064.49 719.198 Q1074.61 719.198 1080.53 724.747 Q1086.44 730.297 1086.44 739.776 Q1086.44 749.539 1080.37 754.967 Q1074.29 760.355 1063.23 760.355 Q1059.42 760.355 1055.45 759.707 Q1051.52 759.059 1047.31 757.762 L1047.31 749.539 Q1050.96 751.524 1054.85 752.496 Q1058.73 753.468 1063.07 753.468 Q1070.08 753.468 1074.17 749.782 Q1078.26 746.096 1078.26 739.776 Q1078.26 733.457 1074.17 729.771 Q1070.08 726.084 1063.07 726.084 Q1059.79 726.084 1056.51 726.813 Q1053.27 727.543 1049.86 729.082 L1049.86 698.7 Z" fill="#000000" fill-rule="evenodd" fill-opacity="1" /><path clip-path="url(#clip610)" d="M1141.85 752.294 L1155.22 752.294 L1155.22 706.154 L1140.67 709.07 L1140.67 701.617 L1155.14 698.7 L1163.32 698.7 L1163.32 752.294 L1176.69 752.294 L1176.69 759.18 L1141.85 759.18 L1141.85 752.294 Z" fill="#000000" fill-rule="evenodd" fill-opacity="1" /><path clip-path="url(#clip610)" d="M1193.21 748.891 L1201.76 748.891 L1201.76 759.18 L1193.21 759.18 L1193.21 748.891 Z" fill="#000000" fill-rule="evenodd" fill-opacity="1" /><path clip-path="url(#clip610)" d="M1237.09 704.088 Q1230.77 704.088 1227.57 710.326 Q1224.41 716.524 1224.41 729.001 Q1224.41 741.437 1227.57 747.676 Q1230.77 753.873 1237.09 753.873 Q1243.45 753.873 1246.6 747.676 Q1249.8 741.437 1249.8 729.001 Q1249.8 716.524 1246.6 710.326 Q1243.45 704.088 1237.09 704.088 M1237.09 697.606 Q1247.25 697.606 1252.6 705.668 Q1257.99 713.689 1257.99 729.001 Q1257.99 744.273 1252.6 752.334 Q1247.25 760.355 1237.09 760.355 Q1226.92 760.355 1221.53 752.334 Q1216.18 744.273 1216.18 729.001 Q1216.18 713.689 1221.53 705.668 Q1226.92 697.606 1237.09 697.606 Z" fill="#000000" fill-rule="evenodd" fill-opacity="1" /><path clip-path="url(#clip610)" d="M1289.87 704.088 Q1283.55 704.088 1280.35 710.326 Q1277.19 716.524 1277.19 729.001 Q1277.19 741.437 1280.35 747.676 Q1283.55 753.873 1289.87 753.873 Q1296.23 753.873 1299.39 747.676 Q1302.59 741.437 1302.59 729.001 Q1302.59 716.524 1299.39 710.326 Q1296.23 704.088 1289.87 704.088 M1289.87 697.606 Q1300.04 697.606 1305.38 705.668 Q1310.77 713.689 1310.77 729.001 Q1310.77 744.273 1305.38 752.334 Q1300.04 760.355 1289.87 760.355 Q1279.7 760.355 1274.31 752.334 Q1268.97 744.273 1268.97 729.001 Q1268.97 713.689 1274.31 705.668 Q1279.7 697.606 1289.87 697.606 Z" fill="#000000" fill-rule="evenodd" fill-opacity="1" /><polyline clip-path="url(#clip610)" style="stroke:#000000; stroke-linecap:butt; stroke-linejoin:round; stroke-width:4; stroke-opacity:1; fill:none" points="
  297.569,673.18 297.569,47.2441 
  "/>
<polyline clip-path="url(#clip610)" style="stroke:#000000; stroke-linecap:butt; stroke-linejoin:round; stroke-width:4; stroke-opacity:1; fill:none" points="
  297.569,673.18 316.467,673.18 
  "/>
<polyline clip-path="url(#clip610)" style="stroke:#000000; stroke-linecap:butt; stroke-linejoin:round; stroke-width:4; stroke-opacity:1; fill:none" points="
  297.569,380.659 316.467,380.659 
  "/>
<polyline clip-path="url(#clip610)" style="stroke:#000000; stroke-linecap:butt; stroke-linejoin:round; stroke-width:4; stroke-opacity:1; fill:none" points="
  297.569,88.1369 316.467,88.1369 
  "/>
<path clip-path="url(#clip610)" d="M57.6669 707.817 L71.0349 707.817 L71.0349 661.677 L56.4921 664.594 L56.4921 657.14 L70.9539 654.223 L79.1367 654.223 L79.1367 707.817 L92.5047 707.817 L92.5047 714.703 L57.6669 714.703 L57.6669 707.817 Z" fill="#000000" fill-rule="evenodd" fill-opacity="1" /><path clip-path="url(#clip610)" d="M126.532 659.611 Q120.213 659.611 117.013 665.85 Q113.853 672.047 113.853 684.524 Q113.853 696.961 117.013 703.199 Q120.213 709.397 126.532 709.397 Q132.892 709.397 136.052 703.199 Q139.252 696.961 139.252 684.524 Q139.252 672.047 136.052 665.85 Q132.892 659.611 126.532 659.611 M126.532 653.13 Q136.7 653.13 142.047 661.191 Q147.435 669.212 147.435 684.524 Q147.435 699.796 142.047 707.857 Q136.7 715.878 126.532 715.878 Q116.364 715.878 110.977 707.857 Q105.63 699.796 105.63 684.524 Q105.63 669.212 110.977 661.191 Q116.364 653.13 126.532 653.13 Z" fill="#000000" fill-rule="evenodd" fill-opacity="1" /><path clip-path="url(#clip610)" d="M147.435 642.807 L189.63 642.807 L189.63 648.402 L147.435 648.402 L147.435 642.807 Z" fill="#000000" fill-rule="evenodd" fill-opacity="1" /><path clip-path="url(#clip610)" d="M205.132 661.14 L215.994 661.14 L215.994 623.651 L204.178 626.021 L204.178 619.965 L215.928 617.595 L222.577 617.595 L222.577 661.14 L233.438 661.14 L233.438 666.735 L205.132 666.735 L205.132 661.14 Z" fill="#000000" fill-rule="evenodd" fill-opacity="1" /><path clip-path="url(#clip610)" d="M261.086 621.973 Q255.951 621.973 253.351 627.041 Q250.784 632.077 250.784 642.215 Q250.784 652.319 253.351 657.388 Q255.951 662.424 261.086 662.424 Q266.253 662.424 268.82 657.388 Q271.42 652.319 271.42 642.215 Q271.42 632.077 268.82 627.041 Q266.253 621.973 261.086 621.973 M261.086 616.707 Q269.347 616.707 273.691 623.256 Q278.069 629.773 278.069 642.215 Q278.069 654.623 273.691 661.173 Q269.347 667.69 261.086 667.69 Q252.824 667.69 248.447 661.173 Q244.102 654.623 244.102 642.215 Q244.102 629.773 248.447 623.256 Q252.824 616.707 261.086 616.707 Z" fill="#000000" fill-rule="evenodd" fill-opacity="1" /><path clip-path="url(#clip610)" d="M101.969 415.295 L115.337 415.295 L115.337 369.155 L100.794 372.072 L100.794 364.618 L115.256 361.702 L123.438 361.702 L123.438 415.295 L136.806 415.295 L136.806 422.182 L101.969 422.182 L101.969 415.295 Z" fill="#000000" fill-rule="evenodd" fill-opacity="1" /><path clip-path="url(#clip610)" d="M170.834 367.09 Q164.515 367.09 161.314 373.328 Q158.155 379.526 158.155 392.003 Q158.155 404.439 161.314 410.677 Q164.515 416.875 170.834 416.875 Q177.194 416.875 180.354 410.677 Q183.554 404.439 183.554 392.003 Q183.554 379.526 180.354 373.328 Q177.194 367.09 170.834 367.09 M170.834 360.608 Q181.002 360.608 186.349 368.669 Q191.737 376.69 191.737 392.003 Q191.737 407.274 186.349 415.336 Q181.002 423.357 170.834 423.357 Q160.666 423.357 155.278 415.336 Q149.931 407.274 149.931 392.003 Q149.931 376.69 155.278 368.669 Q160.666 360.608 170.834 360.608 Z" fill="#000000" fill-rule="evenodd" fill-opacity="1" /><path clip-path="url(#clip610)" d="M191.737 350.285 L233.932 350.285 L233.932 355.881 L191.737 355.881 L191.737 350.285 Z" fill="#000000" fill-rule="evenodd" fill-opacity="1" /><path clip-path="url(#clip610)" d="M248.348 325.074 L274.448 325.074 L274.448 330.669 L254.437 330.669 L254.437 342.715 Q255.885 342.222 257.333 341.991 Q258.782 341.728 260.23 341.728 Q268.458 341.728 273.264 346.237 Q278.069 350.746 278.069 358.448 Q278.069 366.38 273.132 370.791 Q268.195 375.168 259.21 375.168 Q256.116 375.168 252.89 374.642 Q249.697 374.115 246.274 373.062 L246.274 366.38 Q249.237 367.993 252.396 368.783 Q255.556 369.573 259.078 369.573 Q264.772 369.573 268.096 366.578 Q271.42 363.583 271.42 358.448 Q271.42 353.313 268.096 350.318 Q264.772 347.323 259.078 347.323 Q256.412 347.323 253.746 347.916 Q251.113 348.508 248.348 349.759 L248.348 325.074 Z" fill="#000000" fill-rule="evenodd" fill-opacity="1" /><path clip-path="url(#clip610)" d="M154.334 122.774 L167.702 122.774 L167.702 76.6338 L153.159 79.5505 L153.159 72.0968 L167.621 69.1802 L175.804 69.1802 L175.804 122.774 L189.172 122.774 L189.172 129.66 L154.334 129.66 L154.334 122.774 Z" fill="#000000" fill-rule="evenodd" fill-opacity="1" /><path clip-path="url(#clip610)" d="M223.199 74.5679 Q216.88 74.5679 213.68 80.8063 Q210.52 87.0041 210.52 99.4809 Q210.52 111.917 213.68 118.156 Q216.88 124.353 223.199 124.353 Q229.559 124.353 232.719 118.156 Q235.919 111.917 235.919 99.4809 Q235.919 87.0041 232.719 80.8063 Q229.559 74.5679 223.199 74.5679 M223.199 68.0864 Q233.367 68.0864 238.714 76.1477 Q244.102 84.1685 244.102 99.4809 Q244.102 114.753 238.714 122.814 Q233.367 130.835 223.199 130.835 Q213.032 130.835 207.644 122.814 Q202.297 114.753 202.297 99.4809 Q202.297 84.1685 207.644 76.1477 Q213.032 68.0864 223.199 68.0864 Z" fill="#000000" fill-rule="evenodd" fill-opacity="1" /><path clip-path="url(#clip610)" d="M261.086 36.9295 Q255.951 36.9295 253.351 41.9982 Q250.784 47.0339 250.784 57.1713 Q250.784 67.2758 253.351 72.3445 Q255.951 77.3803 261.086 77.3803 Q266.253 77.3803 268.82 72.3445 Q271.42 67.2758 271.42 57.1713 Q271.42 47.0339 268.82 41.9982 Q266.253 36.9295 261.086 36.9295 M261.086 31.6633 Q269.347 31.6633 273.691 38.2131 Q278.069 44.73 278.069 57.1713 Q278.069 69.5798 273.691 76.1296 Q269.347 82.6465 261.086 82.6465 Q252.824 82.6465 248.447 76.1296 Q244.102 69.5798 244.102 57.1713 Q244.102 44.73 248.447 38.2131 Q252.824 31.6633 261.086 31.6633 Z" fill="#000000" fill-rule="evenodd" fill-opacity="1" /><polyline clip-path="url(#clip612)" style="stroke:#000000; stroke-linecap:butt; stroke-linejoin:round; stroke-width:16; stroke-opacity:1; fill:none" stroke-dasharray="8, 16" points="
  1225.72,4525.07 1216.71,4534.2 1207.7,4543.24 1198.69,4552.18 1189.68,4560.99 1180.67,4569.67 1171.66,4578.19 1162.64,4586.52 1153.63,4594.66 1144.62,4602.56 
  1135.61,4610.21 1126.6,4617.58 1117.59,4624.64 1108.58,4631.37 1099.57,4637.73 1090.55,4643.71 1081.54,4649.26 1072.53,4654.35 1063.52,4658.97 1054.51,4663.09 
  1045.5,4666.66 1036.49,4669.67 1027.48,4672.09 1018.46,4673.9 1009.45,4675.06 1000.44,4675.56 991.431,4675.38 982.42,4674.48 973.409,4672.86 964.398,4670.49 
  955.386,4667.35 946.375,4663.42 937.364,4658.69 928.353,4653.14 919.342,4646.74 910.33,4639.49 901.319,4631.36 892.308,4622.34 883.297,4612.4 874.286,4601.52 
  865.274,4589.68 856.263,4576.85 847.252,4563 838.241,4548.1 829.23,4532.11 820.218,4514.99 811.207,4496.71 802.196,4477.19 793.185,4456.4 784.174,4434.26 
  775.162,4410.7 766.151,4385.63 757.14,4358.96 748.129,4330.58 739.118,4300.37 730.106,4268.18 721.095,4233.86 712.084,4197.22 703.073,4158.04 694.062,4116.06 
  685.05,4071.01 676.039,4022.54 667.028,3970.25 658.017,3913.64 649.006,3852.13 639.994,3785.01 630.983,3711.36 621.972,3630.03 612.961,3539.49 603.95,3437.66 
  594.939,3321.68 585.927,3187.76 576.916,3031.45 567.905,2848.59 558.894,2636.26 549.883,2392.18 540.871,2113.37 531.86,1795.66 522.849,1435.41 513.838,1035.68 
  504.827,623.811 495.815,288.885 486.804,156.722 477.793,119.771 468.782,102.659 459.771,94.6202 450.759,91.1284 441.748,89.712 432.737,89.2533 423.726,89.0231 
  414.715,88.8798 405.703,88.7807 396.692,88.7076 387.681,88.6513 378.67,88.6064 369.659,88.5697 360.647,88.5392 351.636,88.5133 342.625,88.491 333.614,88.4718 
  324.603,88.4549 
  "/>
<polyline clip-path="url(#clip612)" style="stroke:#000000; stroke-linecap:butt; stroke-linejoin:round; stroke-width:16; stroke-opacity:1; fill:none" stroke-dasharray="64, 40" points="
  1225.72,3515.67 1216.71,3503.47 1207.7,3490.76 1198.69,3477.5 1189.68,3463.68 1180.67,3449.27 1171.66,3434.24 1162.64,3418.57 1153.63,3402.23 1144.62,3385.18 
  1135.61,3367.4 1126.6,3348.84 1117.59,3329.47 1108.58,3309.24 1099.57,3288.11 1090.55,3266.04 1081.54,3242.97 1072.53,3218.85 1063.52,3193.63 1054.51,3167.23 
  1045.5,3139.58 1036.49,3110.63 1027.48,3080.28 1018.46,3048.45 1009.45,3015.04 1000.44,2979.96 991.431,2943.1 982.42,2904.32 973.409,2863.51 964.398,2820.52 
  955.386,2775.19 946.375,2727.35 937.364,2676.81 928.353,2623.36 919.342,2566.78 910.33,2506.81 901.319,2443.18 892.308,2375.59 883.297,2303.69 874.286,2227.12 
  865.274,2145.49 856.263,2058.36 847.252,1965.26 838.241,1865.7 829.23,1759.2 820.218,1645.25 811.207,1523.45 802.196,1393.52 793.185,1255.43 784.174,1109.62 
  775.162,957.313 766.151,800.902 757.14,644.58 748.129,495.028 739.118,362.096 730.106,258.809 721.095,194.662 712.084,160.259 703.073,139.891 694.062,125.995 
  685.05,115.808 676.039,108.193 667.028,102.54 658.017,98.4157 649.006,95.4614 639.994,93.376 630.983,91.9173 621.972,90.9007 612.961,90.1913 603.95,89.7495 
  594.939,89.4949 585.927,89.3215 576.916,89.1934 567.905,89.0939 558.894,89.0139 549.883,88.9478 540.871,88.8923 531.86,88.8448 522.849,88.8037 513.838,88.7677 
  504.827,88.7359 495.815,88.7076 486.804,88.6822 477.793,88.6593 468.782,88.6385 459.771,88.6195 450.759,88.6022 441.748,88.5862 432.737,88.5715 423.726,88.5578 
  414.715,88.5452 405.703,88.5333 396.692,88.5223 387.681,88.512 378.67,88.5024 369.659,88.4932 360.647,88.4847 351.636,88.4766 342.625,88.469 333.614,88.4617 
  324.603,88.4549 
  "/>
<polyline clip-path="url(#clip612)" style="stroke:#808080; stroke-linecap:butt; stroke-linejoin:round; stroke-width:16; stroke-opacity:1; fill:none" stroke-dasharray="8, 16" points="
  1225.72,5895.03 1216.71,5902.66 1207.7,5910.17 1198.69,5917.54 1189.68,5924.74 1180.67,5931.77 1171.66,5938.59 1162.64,5945.19 1153.63,5951.54 1144.62,5957.61 
  1135.61,5963.38 1126.6,5968.82 1117.59,5973.9 1108.58,5978.59 1099.57,5982.85 1090.55,5986.67 1081.54,5990 1072.53,5992.82 1063.52,5995.09 1054.51,5996.78 
  1045.5,5997.87 1036.49,5998.32 1027.48,5998.09 1018.46,5997.18 1009.45,5995.53 1000.44,5993.13 991.431,5989.96 982.42,5985.97 973.409,5981.16 964.398,5975.49 
  955.386,5968.94 946.375,5961.49 937.364,5953.11 928.353,5943.77 919.342,5933.46 910.33,5922.14 901.319,5909.8 892.308,5896.39 883.297,5881.9 874.286,5866.29 
  865.274,5849.52 856.263,5831.55 847.252,5812.35 838.241,5791.86 829.23,5770.03 820.218,5746.81 811.207,5722.12 802.196,5695.91 793.185,5668.07 784.174,5638.53 
  775.162,5607.18 766.151,5573.91 757.14,5538.57 748.129,5501.03 739.118,5461.11 730.106,5418.63 721.095,5373.35 712.084,5325.03 703.073,5273.38 694.062,5218.05 
  685.05,5158.66 676.039,5094.74 667.028,5025.75 658.017,4951.04 649.006,4869.81 639.994,4781.1 630.983,4683.67 621.972,4575.97 612.961,4455.91 603.95,4320.67 
  594.939,4166.47 585.927,3988.53 576.916,3781.82 567.905,3542.14 558.894,3266.24 549.883,2950.47 540.871,2589.64 531.86,2177.42 522.849,1709.65 513.838,1194.8 
  504.827,679.534 495.815,285.347 486.804,144.895 477.793,111.341 468.782,97.9113 459.771,92.2963 450.759,90.0152 441.748,89.1324 432.737,88.8446 423.726,88.6984 
  414.715,88.6073 405.703,88.5443 396.692,88.4978 387.681,88.462 378.67,88.4336 369.659,88.4103 360.647,88.3909 351.636,88.3745 342.625,88.3605 333.614,88.3482 
  324.603,88.3375 
  "/>
<polyline clip-path="url(#clip612)" style="stroke:#808080; stroke-linecap:butt; stroke-linejoin:round; stroke-width:16; stroke-opacity:1; fill:none" stroke-dasharray="64, 40" points="
  1225.72,4634.9 1216.71,4617.24 1207.7,4598.9 1198.69,4579.85 1189.68,4560.05 1180.67,4539.49 1171.66,4518.11 1162.64,4495.89 1153.63,4472.79 1144.62,4448.75 
  1135.61,4423.74 1126.6,4397.72 1117.59,4370.61 1108.58,4342.38 1099.57,4312.96 1090.55,4282.29 1081.54,4250.3 1072.53,4216.92 1063.52,4182.07 1054.51,4145.66 
  1045.5,4107.6 1036.49,4067.79 1027.48,4026.13 1018.46,3982.49 1009.45,3936.75 1000.44,3888.77 991.431,3838.41 982.42,3785.49 973.409,3729.85 964.398,3671.27 
  955.386,3609.55 946.375,3544.46 937.364,3475.72 928.353,3403.06 919.342,3326.16 910.33,3244.68 901.319,3158.23 892.308,3066.39 883.297,2968.69 874.286,2864.63 
  865.274,2753.66 856.263,2635.18 847.252,2508.54 838.241,2373.1 829.23,2228.2 820.218,2073.23 811.207,1907.73 802.196,1731.5 793.185,1544.84 784.174,1348.81 
  775.162,1145.75 766.151,939.781 757.14,737.419 748.129,548.072 739.118,384.093 730.106,260.1 721.095,186.189 712.084,149.558 703.073,129.584 694.062,116.899 
  685.05,108.21 676.039,102.123 667.028,97.8621 658.017,94.9055 649.006,92.8708 639.994,91.4777 630.983,90.5249 621.972,89.8715 612.961,89.4209 603.95,89.1558 
  594.939,88.9972 585.927,88.8879 576.916,88.8066 567.905,88.7434 558.894,88.6925 549.883,88.6505 540.871,88.6152 531.86,88.585 522.849,88.5589 513.838,88.536 
  504.827,88.5158 495.815,88.4978 486.804,88.4817 477.793,88.4672 468.782,88.4539 459.771,88.4419 450.759,88.4309 441.748,88.4208 432.737,88.4114 423.726,88.4028 
  414.715,88.3947 405.703,88.3873 396.692,88.3803 387.681,88.3737 378.67,88.3676 369.659,88.3619 360.647,88.3564 351.636,88.3513 342.625,88.3465 333.614,88.3419 
  324.603,88.3375 
  "/>
<polyline clip-path="url(#clip612)" style="stroke:#0000ff; stroke-linecap:butt; stroke-linejoin:round; stroke-width:16; stroke-opacity:1; fill:none" stroke-dasharray="8, 16" points="
  1225.72,3557.04 1216.71,3566.91 1207.7,3576.7 1198.69,3586.41 1189.68,3596.01 1180.67,3605.48 1171.66,3614.8 1162.64,3623.96 1153.63,3632.93 1144.62,3641.68 
  1135.61,3650.2 1126.6,3658.45 1117.59,3666.42 1108.58,3674.07 1099.57,3681.37 1090.55,3688.3 1081.54,3694.83 1072.53,3700.93 1063.52,3706.57 1054.51,3711.73 
  1045.5,3716.38 1036.49,3720.5 1027.48,3724.05 1018.46,3727.01 1009.45,3729.36 1000.44,3731.09 991.431,3732.16 982.42,3732.56 973.409,3732.27 964.398,3731.27 
  955.386,3729.55 946.375,3727.08 937.364,3723.86 928.353,3719.87 919.342,3715.09 910.33,3709.51 901.319,3703.12 892.308,3695.89 883.297,3687.81 874.286,3678.87 
  865.274,3669.04 856.263,3658.3 847.252,3646.63 838.241,3634 829.23,3620.38 820.218,3605.74 811.207,3590.05 802.196,3573.24 793.185,3555.29 784.174,3536.12 
  775.162,3515.69 766.151,3493.91 757.14,3470.7 748.129,3445.97 739.118,3419.61 730.106,3391.5 721.095,3361.5 712.084,3329.43 703.073,3295.11 694.062,3258.32 
  685.05,3218.79 676.039,3176.21 667.028,3130.22 658.017,3080.36 649.006,3026.09 639.994,2966.72 630.983,2901.36 621.972,2828.85 612.961,2747.6 603.95,2655.39 
  594.939,2549.17 585.927,2425.1 576.916,2279.32 567.905,2109.11 558.894,1913.21 549.883,1690.57 540.871,1439.59 531.86,1158.89 522.849,851.5 513.838,536.62 
  504.827,277.438 495.815,165.144 486.804,126.734 477.793,106.628 468.782,96.3005 459.771,91.6663 450.759,89.7392 441.748,88.9878 432.737,88.7423 423.726,88.6174 
  414.715,88.5395 405.703,88.4857 396.692,88.446 387.681,88.4154 378.67,88.391 369.659,88.3711 360.647,88.3545 351.636,88.3405 342.625,88.3284 333.614,88.318 
  324.603,88.3088 
  "/>
<polyline clip-path="url(#clip612)" style="stroke:#0000ff; stroke-linecap:butt; stroke-linejoin:round; stroke-width:16; stroke-opacity:1; fill:none" stroke-dasharray="64, 40" points="
  1225.72,2657.72 1216.71,2647.7 1207.7,2637.21 1198.69,2626.25 1189.68,2614.79 1180.67,2602.81 1171.66,2590.29 1162.64,2577.19 1153.63,2563.5 1144.62,2549.19 
  1135.61,2534.22 1126.6,2518.57 1117.59,2502.19 1108.58,2485.07 1099.57,2467.14 1090.55,2448.38 1081.54,2428.74 1072.53,2408.17 1063.52,2386.61 1054.51,2364.02 
  1045.5,2340.33 1036.49,2315.47 1027.48,2289.38 1018.46,2261.98 1009.45,2233.18 1000.44,2202.9 991.431,2171.04 982.42,2137.49 973.409,2102.12 964.398,2064.83 
  955.386,2025.46 946.375,1983.87 937.364,1939.89 928.353,1893.34 919.342,1844.01 910.33,1791.69 901.319,1736.14 892.308,1677.1 883.297,1614.29 874.286,1547.41 
  865.274,1476.15 856.263,1400.16 847.252,1319.13 838.241,1232.75 829.23,1140.78 820.218,1043.09 811.207,939.786 802.196,831.33 793.185,718.799 784.174,604.219 
  775.162,491.051 766.151,384.804 757.14,293.58 748.129,226.492 739.118,184.841 730.106,159.375 721.095,141.952 712.084,128.855 703.073,118.597 694.062,110.539 
  685.05,104.324 676.039,99.661 667.028,96.2604 658.017,93.8401 649.006,92.1479 639.994,90.9775 630.983,90.1718 621.972,89.617 612.961,89.2334 603.95,89.0078 
  594.939,88.8725 585.927,88.7792 576.916,88.7099 567.905,88.6559 558.894,88.6124 549.883,88.5765 540.871,88.5464 531.86,88.5205 522.849,88.4982 513.838,88.4786 
  504.827,88.4614 495.815,88.446 486.804,88.4322 477.793,88.4197 468.782,88.4084 459.771,88.3981 450.759,88.3887 441.748,88.3801 432.737,88.3721 423.726,88.3647 
  414.715,88.3578 405.703,88.3514 396.692,88.3454 387.681,88.3398 378.67,88.3346 369.659,88.3296 360.647,88.325 351.636,88.3206 342.625,88.3164 333.614,88.3125 
  324.603,88.3088 
  "/>
</svg>
