<?xml version="1.0" encoding="utf-8"?>
<svg xmlns="http://www.w3.org/2000/svg" xmlns:xlink="http://www.w3.org/1999/xlink" width="300" height="180" viewBox="0 0 1200 720">
<defs>
  <clipPath id="clip560">
    <rect x="0" y="0" width="1200" height="720"/>
  </clipPath>
</defs>
<path clip-path="url(#clip560)" d="
M0 720 L1200 720 L1200 0 L0 0  Z
  " fill="#ffffff" fill-rule="evenodd" fill-opacity="1"/>
<defs>
  <clipPath id="clip561">
    <rect x="240" y="0" width="841" height="720"/>
  </clipPath>
</defs>
<path clip-path="url(#clip560)" d="
M264.915 603.152 L1152.76 603.152 L1152.76 47.2441 L264.915 47.2441  Z
  " fill="#ffffff" fill-rule="evenodd" fill-opacity="1"/>
<defs>
  <clipPath id="clip562">
    <rect x="264" y="47" width="889" height="557"/>
  </clipPath>
</defs>
<polyline clip-path="url(#clip560)" style="stroke:#000000; stroke-linecap:butt; stroke-linejoin:round; stroke-width:4; stroke-opacity:1; fill:none" points="
  264.915,603.152 1152.76,603.152 
  "/>
<polyline clip-path="url(#clip560)" style="stroke:#000000; stroke-linecap:butt; stroke-linejoin:round; stroke-width:4; stroke-opacity:1; fill:none" points="
  290.043,603.152 290.043,584.254 
  "/>
<polyline clip-path="url(#clip560)" style="stroke:#000000; stroke-linecap:butt; stroke-linejoin:round; stroke-width:4; stroke-opacity:1; fill:none" points="
  499.439,603.152 499.439,584.254 
  "/>
<polyline clip-path="url(#clip560)" style="stroke:#000000; stroke-linecap:butt; stroke-linejoin:round; stroke-width:4; stroke-opacity:1; fill:none" points="
  708.836,603.152 708.836,584.254 
  "/>
<polyline clip-path="url(#clip560)" style="stroke:#000000; stroke-linecap:butt; stroke-linejoin:round; stroke-width:4; stroke-opacity:1; fill:none" points="
  918.232,603.152 918.232,584.254 
  "/>
<polyline clip-path="url(#clip560)" style="stroke:#000000; stroke-linecap:butt; stroke-linejoin:round; stroke-width:4; stroke-opacity:1; fill:none" points="
  1127.63,603.152 1127.63,584.254 
  "/>
<path clip-path="url(#clip560)" d="M233.498 630.33 Q228.081 630.33 225.338 635.677 Q222.63 640.99 222.63 651.684 Q222.63 662.344 225.338 667.691 Q228.081 673.003 233.498 673.003 Q238.949 673.003 241.658 667.691 Q244.401 662.344 244.401 651.684 Q244.401 640.99 241.658 635.677 Q238.949 630.33 233.498 630.33 M233.498 624.774 Q242.213 624.774 246.796 631.684 Q251.414 638.559 251.414 651.684 Q251.414 664.774 246.796 671.684 Q242.213 678.559 233.498 678.559 Q224.783 678.559 220.165 671.684 Q215.581 664.774 215.581 651.684 Q215.581 638.559 220.165 631.684 Q224.783 624.774 233.498 624.774 Z" fill="#000000" fill-rule="evenodd" fill-opacity="1" /><path clip-path="url(#clip560)" d="M263.741 668.732 L271.067 668.732 L271.067 677.552 L263.741 677.552 L263.741 668.732 Z" fill="#000000" fill-rule="evenodd" fill-opacity="1" /><path clip-path="url(#clip560)" d="M301.345 630.33 Q295.928 630.33 293.185 635.677 Q290.477 640.99 290.477 651.684 Q290.477 662.344 293.185 667.691 Q295.928 673.003 301.345 673.003 Q306.796 673.003 309.504 667.691 Q312.247 662.344 312.247 651.684 Q312.247 640.99 309.504 635.677 Q306.796 630.33 301.345 630.33 M301.345 624.774 Q310.06 624.774 314.643 631.684 Q319.261 638.559 319.261 651.684 Q319.261 664.774 314.643 671.684 Q310.06 678.559 301.345 678.559 Q292.63 678.559 288.011 671.684 Q283.428 664.774 283.428 651.684 Q283.428 638.559 288.011 631.684 Q292.63 624.774 301.345 624.774 Z" fill="#000000" fill-rule="evenodd" fill-opacity="1" /><path clip-path="url(#clip560)" d="M346.588 630.33 Q341.171 630.33 338.428 635.677 Q335.72 640.99 335.72 651.684 Q335.72 662.344 338.428 667.691 Q341.171 673.003 346.588 673.003 Q352.039 673.003 354.747 667.691 Q357.49 662.344 357.49 651.684 Q357.49 640.99 354.747 635.677 Q352.039 630.33 346.588 630.33 M346.588 624.774 Q355.303 624.774 359.886 631.684 Q364.504 638.559 364.504 651.684 Q364.504 664.774 359.886 671.684 Q355.303 678.559 346.588 678.559 Q337.872 678.559 333.254 671.684 Q328.671 664.774 328.671 651.684 Q328.671 638.559 333.254 631.684 Q337.872 624.774 346.588 624.774 Z" fill="#000000" fill-rule="evenodd" fill-opacity="1" /><path clip-path="url(#clip560)" d="M443.641 630.33 Q438.224 630.33 435.481 635.677 Q432.773 640.99 432.773 651.684 Q432.773 662.344 435.481 667.691 Q438.224 673.003 443.641 673.003 Q449.092 673.003 451.8 667.691 Q454.544 662.344 454.544 651.684 Q454.544 640.99 451.8 635.677 Q449.092 630.33 443.641 630.33 M443.641 624.774 Q452.356 624.774 456.939 631.684 Q461.557 638.559 461.557 651.684 Q461.557 664.774 456.939 671.684 Q452.356 678.559 443.641 678.559 Q434.926 678.559 430.308 671.684 Q425.724 664.774 425.724 651.684 Q425.724 638.559 430.308 631.684 Q434.926 624.774 443.641 624.774 Z" fill="#000000" fill-rule="evenodd" fill-opacity="1" /><path clip-path="url(#clip560)" d="M473.884 668.732 L481.21 668.732 L481.21 677.552 L473.884 677.552 L473.884 668.732 Z" fill="#000000" fill-rule="evenodd" fill-opacity="1" /><path clip-path="url(#clip560)" d="M502.529 671.649 L527.008 671.649 L527.008 677.552 L494.092 677.552 L494.092 671.649 Q498.085 667.517 504.96 660.573 Q511.87 653.594 513.64 651.58 Q517.008 647.795 518.328 645.191 Q519.682 642.552 519.682 640.017 Q519.682 635.885 516.765 633.281 Q513.883 630.677 509.231 630.677 Q505.932 630.677 502.252 631.823 Q498.606 632.969 494.439 635.295 L494.439 628.212 Q498.675 626.51 502.356 625.642 Q506.036 624.774 509.092 624.774 Q517.147 624.774 521.939 628.802 Q526.731 632.83 526.731 639.566 Q526.731 642.76 525.515 645.642 Q524.335 648.49 521.175 652.378 Q520.307 653.385 515.654 658.212 Q511.002 663.003 502.529 671.649 Z" fill="#000000" fill-rule="evenodd" fill-opacity="1" /><path clip-path="url(#clip560)" d="M541.8 625.712 L569.335 625.712 L569.335 631.615 L548.224 631.615 L548.224 644.323 Q549.751 643.802 551.279 643.559 Q552.807 643.281 554.335 643.281 Q563.015 643.281 568.085 648.038 Q573.154 652.795 573.154 660.92 Q573.154 669.288 567.946 673.941 Q562.737 678.559 553.258 678.559 Q549.994 678.559 546.592 678.003 Q543.224 677.448 539.613 676.337 L539.613 669.288 Q542.738 670.989 546.071 671.823 Q549.404 672.656 553.119 672.656 Q559.126 672.656 562.633 669.496 Q566.14 666.337 566.14 660.92 Q566.14 655.503 562.633 652.344 Q559.126 649.184 553.119 649.184 Q550.307 649.184 547.494 649.809 Q544.717 650.434 541.8 651.753 L541.8 625.712 Z" fill="#000000" fill-rule="evenodd" fill-opacity="1" /><path clip-path="url(#clip560)" d="M652.291 630.33 Q646.874 630.33 644.131 635.677 Q641.423 640.99 641.423 651.684 Q641.423 662.344 644.131 667.691 Q646.874 673.003 652.291 673.003 Q657.742 673.003 660.45 667.691 Q663.193 662.344 663.193 651.684 Q663.193 640.99 660.45 635.677 Q657.742 630.33 652.291 630.33 M652.291 624.774 Q661.006 624.774 665.589 631.684 Q670.207 638.559 670.207 651.684 Q670.207 664.774 665.589 671.684 Q661.006 678.559 652.291 678.559 Q643.575 678.559 638.957 671.684 Q634.374 664.774 634.374 651.684 Q634.374 638.559 638.957 631.684 Q643.575 624.774 652.291 624.774 Z" fill="#000000" fill-rule="evenodd" fill-opacity="1" /><path clip-path="url(#clip560)" d="M682.534 668.732 L689.86 668.732 L689.86 677.552 L682.534 677.552 L682.534 668.732 Z" fill="#000000" fill-rule="evenodd" fill-opacity="1" /><path clip-path="url(#clip560)" d="M705.207 625.712 L732.742 625.712 L732.742 631.615 L711.631 631.615 L711.631 644.323 Q713.158 643.802 714.686 643.559 Q716.214 643.281 717.742 643.281 Q726.422 643.281 731.492 648.038 Q736.561 652.795 736.561 660.92 Q736.561 669.288 731.353 673.941 Q726.144 678.559 716.665 678.559 Q713.401 678.559 709.999 678.003 Q706.631 677.448 703.02 676.337 L703.02 669.288 Q706.145 670.989 709.478 671.823 Q712.811 672.656 716.526 672.656 Q722.533 672.656 726.04 669.496 Q729.547 666.337 729.547 660.92 Q729.547 655.503 726.04 652.344 Q722.533 649.184 716.526 649.184 Q713.714 649.184 710.901 649.809 Q708.124 650.434 705.207 651.753 L705.207 625.712 Z" fill="#000000" fill-rule="evenodd" fill-opacity="1" /><path clip-path="url(#clip560)" d="M765.38 630.33 Q759.964 630.33 757.221 635.677 Q754.512 640.99 754.512 651.684 Q754.512 662.344 757.221 667.691 Q759.964 673.003 765.38 673.003 Q770.832 673.003 773.54 667.691 Q776.283 662.344 776.283 651.684 Q776.283 640.99 773.54 635.677 Q770.832 630.33 765.38 630.33 M765.38 624.774 Q774.096 624.774 778.679 631.684 Q783.297 638.559 783.297 651.684 Q783.297 664.774 778.679 671.684 Q774.096 678.559 765.38 678.559 Q756.665 678.559 752.047 671.684 Q747.464 664.774 747.464 651.684 Q747.464 638.559 752.047 631.684 Q756.665 624.774 765.38 624.774 Z" fill="#000000" fill-rule="evenodd" fill-opacity="1" /><path clip-path="url(#clip560)" d="M862.434 630.33 Q857.017 630.33 854.274 635.677 Q851.566 640.99 851.566 651.684 Q851.566 662.344 854.274 667.691 Q857.017 673.003 862.434 673.003 Q867.885 673.003 870.593 667.691 Q873.336 662.344 873.336 651.684 Q873.336 640.99 870.593 635.677 Q867.885 630.33 862.434 630.33 M862.434 624.774 Q871.149 624.774 875.732 631.684 Q880.35 638.559 880.35 651.684 Q880.35 664.774 875.732 671.684 Q871.149 678.559 862.434 678.559 Q853.718 678.559 849.1 671.684 Q844.517 664.774 844.517 651.684 Q844.517 638.559 849.1 631.684 Q853.718 624.774 862.434 624.774 Z" fill="#000000" fill-rule="evenodd" fill-opacity="1" /><path clip-path="url(#clip560)" d="M892.677 668.732 L900.003 668.732 L900.003 677.552 L892.677 677.552 L892.677 668.732 Z" fill="#000000" fill-rule="evenodd" fill-opacity="1" /><path clip-path="url(#clip560)" d="M913.51 625.712 L946.843 625.712 L946.843 628.698 L928.024 677.552 L920.697 677.552 L938.405 631.615 L913.51 631.615 L913.51 625.712 Z" fill="#000000" fill-rule="evenodd" fill-opacity="1" /><path clip-path="url(#clip560)" d="M960.593 625.712 L988.127 625.712 L988.127 631.615 L967.016 631.615 L967.016 644.323 Q968.544 643.802 970.072 643.559 Q971.6 643.281 973.127 643.281 Q981.808 643.281 986.877 648.038 Q991.947 652.795 991.947 660.92 Q991.947 669.288 986.739 673.941 Q981.53 678.559 972.051 678.559 Q968.787 678.559 965.384 678.003 Q962.016 677.448 958.405 676.337 L958.405 669.288 Q961.53 670.989 964.864 671.823 Q968.197 672.656 971.912 672.656 Q977.919 672.656 981.426 669.496 Q984.933 666.337 984.933 660.92 Q984.933 655.503 981.426 652.344 Q977.919 649.184 971.912 649.184 Q969.1 649.184 966.287 649.809 Q963.509 650.434 960.593 651.753 L960.593 625.712 Z" fill="#000000" fill-rule="evenodd" fill-opacity="1" /><path clip-path="url(#clip560)" d="M1055.74 671.649 L1067.19 671.649 L1067.19 632.101 L1054.73 634.601 L1054.73 628.212 L1067.13 625.712 L1074.14 625.712 L1074.14 671.649 L1085.6 671.649 L1085.6 677.552 L1055.74 677.552 L1055.74 671.649 Z" fill="#000000" fill-rule="evenodd" fill-opacity="1" /><path clip-path="url(#clip560)" d="M1099.76 668.732 L1107.09 668.732 L1107.09 677.552 L1099.76 677.552 L1099.76 668.732 Z" fill="#000000" fill-rule="evenodd" fill-opacity="1" /><path clip-path="url(#clip560)" d="M1137.37 630.33 Q1131.95 630.33 1129.21 635.677 Q1126.5 640.99 1126.5 651.684 Q1126.5 662.344 1129.21 667.691 Q1131.95 673.003 1137.37 673.003 Q1142.82 673.003 1145.53 667.691 Q1148.27 662.344 1148.27 651.684 Q1148.27 640.99 1145.53 635.677 Q1142.82 630.33 1137.37 630.33 M1137.37 624.774 Q1146.08 624.774 1150.67 631.684 Q1155.28 638.559 1155.28 651.684 Q1155.28 664.774 1150.67 671.684 Q1146.08 678.559 1137.37 678.559 Q1128.65 678.559 1124.03 671.684 Q1119.45 664.774 1119.45 651.684 Q1119.45 638.559 1124.03 631.684 Q1128.65 624.774 1137.37 624.774 Z" fill="#000000" fill-rule="evenodd" fill-opacity="1" /><path clip-path="url(#clip560)" d="M1182.61 630.33 Q1177.19 630.33 1174.45 635.677 Q1171.74 640.99 1171.74 651.684 Q1171.74 662.344 1174.45 667.691 Q1177.19 673.003 1182.61 673.003 Q1188.06 673.003 1190.77 667.691 Q1193.51 662.344 1193.51 651.684 Q1193.51 640.99 1190.77 635.677 Q1188.06 630.33 1182.61 630.33 M1182.61 624.774 Q1191.33 624.774 1195.91 631.684 Q1200.53 638.559 1200.53 651.684 Q1200.53 664.774 1195.91 671.684 Q1191.33 678.559 1182.61 678.559 Q1173.9 678.559 1169.28 671.684 Q1164.69 664.774 1164.69 651.684 Q1164.69 638.559 1169.28 631.684 Q1173.9 624.774 1182.61 624.774 Z" fill="#000000" fill-rule="evenodd" fill-opacity="1" /><polyline clip-path="url(#clip560)" style="stroke:#000000; stroke-linecap:butt; stroke-linejoin:round; stroke-width:4; stroke-opacity:1; fill:none" points="
  264.915,603.152 264.915,47.2441 
  "/>
<polyline clip-path="url(#clip560)" style="stroke:#000000; stroke-linecap:butt; stroke-linejoin:round; stroke-width:4; stroke-opacity:1; fill:none" points="
  264.915,603.152 283.813,603.152 
  "/>
<polyline clip-path="url(#clip560)" style="stroke:#000000; stroke-linecap:butt; stroke-linejoin:round; stroke-width:4; stroke-opacity:1; fill:none" points="
  264.915,343.357 283.813,343.357 
  "/>
<polyline clip-path="url(#clip560)" style="stroke:#000000; stroke-linecap:butt; stroke-linejoin:round; stroke-width:4; stroke-opacity:1; fill:none" points="
  264.915,83.5619 283.813,83.5619 
  "/>
<path clip-path="url(#clip560)" d="M57.9991 632.841 L69.4573 632.841 L69.4573 593.292 L56.9921 595.792 L56.9921 589.403 L69.3879 586.903 L76.4017 586.903 L76.4017 632.841 L87.86 632.841 L87.86 638.743 L57.9991 638.743 L57.9991 632.841 Z" fill="#000000" fill-rule="evenodd" fill-opacity="1" /><path clip-path="url(#clip560)" d="M117.027 591.521 Q111.61 591.521 108.867 596.868 Q106.159 602.181 106.159 612.875 Q106.159 623.535 108.867 628.882 Q111.61 634.195 117.027 634.195 Q122.478 634.195 125.186 628.882 Q127.929 623.535 127.929 612.875 Q127.929 602.181 125.186 596.868 Q122.478 591.521 117.027 591.521 M117.027 585.966 Q125.742 585.966 130.325 592.875 Q134.943 599.75 134.943 612.875 Q134.943 625.966 130.325 632.875 Q125.742 639.75 117.027 639.75 Q108.311 639.75 103.693 632.875 Q99.11 625.966 99.11 612.875 Q99.11 599.75 103.693 592.875 Q108.311 585.966 117.027 585.966 Z" fill="#000000" fill-rule="evenodd" fill-opacity="1" /><path clip-path="url(#clip560)" d="M134.943 577.118 L171.11 577.118 L171.11 581.914 L134.943 581.914 L134.943 577.118 Z" fill="#000000" fill-rule="evenodd" fill-opacity="1" /><path clip-path="url(#clip560)" d="M184.398 592.832 L193.708 592.832 L193.708 560.699 L183.58 562.73 L183.58 557.539 L193.652 555.508 L199.35 555.508 L199.35 592.832 L208.66 592.832 L208.66 597.628 L184.398 597.628 L184.398 592.832 Z" fill="#000000" fill-rule="evenodd" fill-opacity="1" /><path clip-path="url(#clip560)" d="M232.358 559.26 Q227.957 559.26 225.728 563.604 Q223.528 567.921 223.528 576.61 Q223.528 585.271 225.728 589.616 Q227.957 593.932 232.358 593.932 Q236.787 593.932 238.988 589.616 Q241.216 585.271 241.216 576.61 Q241.216 567.921 238.988 563.604 Q236.787 559.26 232.358 559.26 M232.358 554.746 Q239.439 554.746 243.163 560.36 Q246.915 565.946 246.915 576.61 Q246.915 587.246 243.163 592.86 Q239.439 598.446 232.358 598.446 Q225.277 598.446 221.525 592.86 Q217.801 587.246 217.801 576.61 Q217.801 565.946 221.525 560.36 Q225.277 554.746 232.358 554.746 Z" fill="#000000" fill-rule="evenodd" fill-opacity="1" /><path clip-path="url(#clip560)" d="M95.972 373.046 L107.43 373.046 L107.43 333.497 L94.965 335.997 L94.965 329.608 L107.361 327.108 L114.375 327.108 L114.375 373.046 L125.833 373.046 L125.833 378.948 L95.972 378.948 L95.972 373.046 Z" fill="#000000" fill-rule="evenodd" fill-opacity="1" /><path clip-path="url(#clip560)" d="M154.999 331.726 Q149.583 331.726 146.84 337.073 Q144.131 342.386 144.131 353.08 Q144.131 363.74 146.84 369.087 Q149.583 374.4 154.999 374.4 Q160.451 374.4 163.159 369.087 Q165.902 363.74 165.902 353.08 Q165.902 342.386 163.159 337.073 Q160.451 331.726 154.999 331.726 M154.999 326.171 Q163.715 326.171 168.298 333.08 Q172.916 339.955 172.916 353.08 Q172.916 366.171 168.298 373.08 Q163.715 379.955 154.999 379.955 Q146.284 379.955 141.666 373.08 Q137.083 366.171 137.083 353.08 Q137.083 339.955 141.666 333.08 Q146.284 326.171 154.999 326.171 Z" fill="#000000" fill-rule="evenodd" fill-opacity="1" /><path clip-path="url(#clip560)" d="M172.916 317.323 L209.083 317.323 L209.083 322.119 L172.916 322.119 L172.916 317.323 Z" fill="#000000" fill-rule="evenodd" fill-opacity="1" /><path clip-path="url(#clip560)" d="M221.44 295.713 L243.812 295.713 L243.812 300.509 L226.659 300.509 L226.659 310.834 Q227.9 310.411 229.142 310.213 Q230.383 309.988 231.624 309.988 Q238.677 309.988 242.796 313.853 Q246.915 317.718 246.915 324.319 Q246.915 331.118 242.683 334.899 Q238.452 338.651 230.75 338.651 Q228.098 338.651 225.333 338.199 Q222.597 337.748 219.663 336.845 L219.663 331.118 Q222.202 332.501 224.91 333.178 Q227.618 333.855 230.637 333.855 Q235.518 333.855 238.367 331.288 Q241.216 328.72 241.216 324.319 Q241.216 319.918 238.367 317.351 Q235.518 314.784 230.637 314.784 Q228.352 314.784 226.067 315.292 Q223.81 315.799 221.44 316.871 L221.44 295.713 Z" fill="#000000" fill-rule="evenodd" fill-opacity="1" /><path clip-path="url(#clip560)" d="M140.857 113.251 L152.315 113.251 L152.315 73.7021 L139.85 76.2021 L139.85 69.8133 L152.246 67.3133 L159.259 67.3133 L159.259 113.251 L170.718 113.251 L170.718 119.153 L140.857 119.153 L140.857 113.251 Z" fill="#000000" fill-rule="evenodd" fill-opacity="1" /><path clip-path="url(#clip560)" d="M199.884 71.9313 Q194.468 71.9313 191.724 77.2785 Q189.016 82.591 189.016 93.2854 Q189.016 103.945 191.724 109.292 Q194.468 114.605 199.884 114.605 Q205.336 114.605 208.044 109.292 Q210.787 103.945 210.787 93.2854 Q210.787 82.591 208.044 77.2785 Q205.336 71.9313 199.884 71.9313 M199.884 66.3758 Q208.599 66.3758 213.183 73.2855 Q217.801 80.1604 217.801 93.2854 Q217.801 106.376 213.183 113.285 Q208.599 120.16 199.884 120.16 Q191.169 120.16 186.551 113.285 Q181.968 106.376 181.968 93.2854 Q181.968 80.1604 186.551 73.2855 Q191.169 66.3758 199.884 66.3758 Z" fill="#000000" fill-rule="evenodd" fill-opacity="1" /><path clip-path="url(#clip560)" d="M232.358 39.6698 Q227.957 39.6698 225.728 44.0144 Q223.528 48.3308 223.528 57.02 Q223.528 65.681 225.728 70.0256 Q227.957 74.342 232.358 74.342 Q236.787 74.342 238.988 70.0256 Q241.216 65.681 241.216 57.02 Q241.216 48.3308 238.988 44.0144 Q236.787 39.6698 232.358 39.6698 M232.358 35.156 Q239.439 35.156 243.163 40.7701 Q246.915 46.356 246.915 57.02 Q246.915 67.6558 243.163 73.2699 Q239.439 78.8558 232.358 78.8558 Q225.277 78.8558 221.525 73.2699 Q217.801 67.6558 217.801 57.02 Q217.801 46.356 221.525 40.7701 Q225.277 35.156 232.358 35.156 Z" fill="#000000" fill-rule="evenodd" fill-opacity="1" /><polyline clip-path="url(#clip562)" style="stroke:#000000; stroke-linecap:butt; stroke-linejoin:round; stroke-width:16; stroke-opacity:1; fill:none" stroke-dasharray="8, 16" points="
  1127.63,4024.1 1119.25,4032.21 1110.88,4040.24 1102.5,4048.17 1094.12,4056 1085.75,4063.71 1077.37,4071.28 1069,4078.68 1060.62,4085.9 1052.25,4092.92 
  1043.87,4099.72 1035.49,4106.26 1027.12,4112.53 1018.74,4118.51 1010.37,4124.16 1001.99,4129.46 993.615,4134.39 985.239,4138.92 976.863,4143.02 968.487,4146.68 
  960.111,4149.85 951.735,4152.52 943.36,4154.68 934.984,4156.28 926.608,4157.31 918.232,4157.76 909.856,4157.59 901.48,4156.8 893.104,4155.36 884.729,4153.25 
  876.353,4150.46 867.977,4146.97 859.601,4142.77 851.225,4137.84 842.849,4132.16 834.473,4125.72 826.098,4118.5 817.722,4110.49 809.346,4101.66 800.97,4092 
  792.594,4081.48 784.218,4070.08 775.842,4057.78 767.467,4044.55 759.091,4030.35 750.715,4015.15 742.339,3998.91 733.963,3981.58 725.587,3963.11 717.211,3943.45 
  708.836,3922.52 700.46,3900.26 692.084,3876.57 683.708,3851.37 675.332,3824.54 666.956,3795.96 658.58,3765.47 650.205,3732.93 641.829,3698.13 633.453,3660.85 
  625.077,3620.84 616.701,3577.8 608.325,3531.35 599.949,3481.07 591.574,3426.45 583.198,3366.83 574.822,3301.43 566.446,3229.2 558.07,3148.79 549.694,3058.35 
  541.318,2955.35 532.943,2836.41 524.567,2697.58 516.191,2535.18 507.815,2346.61 499.439,2129.84 491.063,1882.21 482.687,1600.05 474.312,1280.1 465.936,925.098 
  457.56,559.306 449.184,261.851 440.808,144.474 432.432,111.657 424.056,96.4589 415.681,89.3199 407.305,86.2188 398.929,84.9608 390.553,84.5534 382.177,84.3489 
  373.801,84.2217 365.425,84.1337 357.05,84.0688 348.674,84.0187 340.298,83.9789 331.922,83.9463 323.546,83.9192 315.17,83.8962 306.794,83.8764 298.419,83.8593 
  290.043,83.8443 
  "/>
<polyline clip-path="url(#clip562)" style="stroke:#000000; stroke-linecap:butt; stroke-linejoin:round; stroke-width:16; stroke-opacity:1; fill:none" stroke-dasharray="64, 40" points="
  1127.63,3127.63 1119.25,3116.8 1110.88,3105.5 1102.5,3093.73 1094.12,3081.46 1085.75,3068.66 1077.37,3055.31 1069,3041.4 1060.62,3026.88 1052.25,3011.74 
  1043.87,2995.95 1035.49,2979.46 1027.12,2962.26 1018.74,2944.29 1010.37,2925.53 1001.99,2905.93 993.615,2885.44 985.239,2864.02 976.863,2841.62 968.487,2818.17 
  960.111,2793.62 951.735,2767.9 943.36,2740.95 934.984,2712.68 926.608,2683.01 918.232,2651.86 909.856,2619.11 901.48,2584.68 893.104,2548.43 884.729,2510.25 
  876.353,2469.99 867.977,2427.51 859.601,2382.62 851.225,2335.15 842.849,2284.9 834.473,2231.64 826.098,2175.13 817.722,2115.1 809.346,2051.24 800.97,1983.24 
  792.594,1910.74 784.218,1833.36 775.842,1750.67 767.467,1662.26 759.091,1567.67 750.715,1466.47 742.339,1358.3 733.963,1242.9 725.587,1120.26 717.211,990.766 
  708.836,855.497 700.46,716.585 692.084,577.752 683.708,444.931 675.332,326.871 666.956,235.14 658.58,178.169 650.205,147.615 641.829,129.526 633.453,117.185 
  625.077,108.137 616.701,101.374 608.325,96.3536 599.949,92.6907 591.574,90.0669 583.198,88.2148 574.822,86.9194 566.446,86.0165 558.07,85.3864 549.694,84.9941 
  541.318,84.768 532.943,84.614 524.567,84.5002 516.191,84.4118 507.815,84.3407 499.439,84.2821 491.063,84.2328 482.687,84.1906 474.312,84.1541 465.936,84.1222 
  457.56,84.0939 449.184,84.0688 440.808,84.0462 432.432,84.0259 424.056,84.0074 415.681,83.9906 407.305,83.9751 398.929,83.961 390.553,83.9479 382.177,83.9358 
  373.801,83.9245 365.425,83.914 357.05,83.9042 348.674,83.8951 340.298,83.8865 331.922,83.8784 323.546,83.8708 315.17,83.8636 306.794,83.8568 298.419,83.8504 
  290.043,83.8443 
  "/>
<polyline clip-path="url(#clip562)" style="stroke:#e38512; stroke-linecap:butt; stroke-linejoin:round; stroke-width:16; stroke-opacity:1; fill:none" stroke-dasharray="8, 16" points="
  1127.63,7343.67 1119.25,7348.77 1110.88,7353.73 1102.5,7358.52 1094.12,7363.13 1085.75,7367.54 1077.37,7371.73 1069,7375.67 1060.62,7379.35 1052.25,7382.74 
  1043.87,7385.81 1035.49,7388.53 1027.12,7390.89 1018.74,7392.84 1010.37,7394.36 1001.99,7395.42 993.615,7396 985.239,7396.05 976.863,7395.55 968.487,7394.47 
  960.111,7392.78 951.735,7390.44 943.36,7387.43 934.984,7383.72 926.608,7379.29 918.232,7374.09 909.856,7368.1 901.48,7361.31 893.104,7353.67 884.729,7345.16 
  876.353,7335.75 867.977,7325.43 859.601,7314.15 851.225,7301.89 842.849,7288.63 834.473,7274.32 826.098,7258.95 817.722,7242.47 809.346,7224.84 800.97,7206.04 
  792.594,7186 784.218,7164.7 775.842,7142.07 767.467,7118.07 759.091,7092.62 750.715,7065.65 742.339,7037.1 733.963,7006.87 725.587,6974.88 717.211,6941 
  708.836,6905.12 700.46,6867.11 692.084,6826.82 683.708,6784.07 675.332,6738.66 666.956,6690.38 658.58,6638.98 650.205,6584.16 641.829,6525.61 633.453,6462.92 
  625.077,6395.67 616.701,6323.33 608.325,6245.29 599.949,6160.83 591.574,6069.07 583.198,5968.95 574.822,5859.14 566.446,5737.96 558.07,5603.2 549.694,5451.93 
  541.318,5280.26 532.943,5083.3 524.567,4855.72 516.191,4592.69 507.815,4289.92 499.439,3942.26 491.063,3542.47 482.687,3081.23 474.312,2549.5 465.936,1946.65 
  457.56,1301.17 449.184,699.092 440.808,275.718 432.432,125.894 424.056,97.9075 415.681,89.3064 407.305,86.1069 398.929,84.9013 390.553,84.5112 382.177,84.3139 
  373.801,84.1913 365.425,84.1066 357.05,84.0443 348.674,83.9963 340.298,83.9581 331.922,83.9269 323.546,83.9009 315.17,83.879 306.794,83.8601 298.419,83.8438 
  290.043,83.8294 
  "/>
<polyline clip-path="url(#clip562)" style="stroke:#e38512; stroke-linecap:butt; stroke-linejoin:round; stroke-width:16; stroke-opacity:1; fill:none" stroke-dasharray="64, 40" points="
  1127.63,5959.13 1119.25,5937.87 1110.88,5915.86 1102.5,5893.04 1094.12,5869.4 1085.75,5844.89 1077.37,5819.47 1069,5793.1 1060.62,5765.74 1052.25,5737.33 
  1043.87,5707.83 1035.49,5677.19 1027.12,5645.33 1018.74,5612.21 1010.37,5577.75 1001.99,5541.89 993.615,5504.53 985.239,5465.62 976.863,5425.04 968.487,5382.71 
  960.111,5338.53 951.735,5292.37 943.36,5244.12 934.984,5193.65 926.608,5140.81 918.232,5085.44 909.856,5027.38 901.48,4966.44 893.104,4902.41 884.729,4835.07 
  876.353,4764.17 867.977,4689.46 859.601,4610.62 851.225,4527.33 842.849,4439.22 834.473,4345.91 826.098,4246.94 817.722,4141.83 809.346,4030.02 800.97,3910.92 
  792.594,3783.87 784.218,3648.13 775.842,3502.93 767.467,3347.41 759.091,3180.68 750.715,3001.87 742.339,2810.13 733.963,2604.8 725.587,2385.54 717.211,2152.6 
  708.836,1907.17 700.46,1651.85 692.084,1391.12 683.708,1131.65 675.332,882.31 666.956,653.523 658.58,456.31 650.205,301.204 641.829,197.061 633.453,142.843 
  625.077,118.048 616.701,105.289 608.325,97.8281 599.949,93.1584 591.574,90.1356 583.198,88.142 574.822,86.81 566.446,85.9098 558.07,85.2947 549.694,84.9332 
  541.318,84.7178 532.943,84.5697 524.567,84.46 516.191,84.3747 507.815,84.3061 499.439,84.2495 491.063,84.202 482.687,84.1614 474.312,84.1263 465.936,84.0955 
  457.56,84.0684 449.184,84.0443 440.808,84.0226 432.432,84.0031 424.056,83.9854 415.681,83.9693 407.305,83.9545 398.929,83.9409 390.553,83.9284 382.177,83.9168 
  373.801,83.906 365.425,83.896 357.05,83.8866 348.674,83.8779 340.298,83.8697 331.922,83.862 323.546,83.8547 315.17,83.8478 306.794,83.8414 298.419,83.8352 
  290.043,83.8294 
  "/>
<polyline clip-path="url(#clip562)" style="stroke:#7a4c8f; stroke-linecap:butt; stroke-linejoin:round; stroke-width:16; stroke-opacity:1; fill:none" stroke-dasharray="8, 16" points="
  1127.63,1961.42 1119.25,1971.5 1110.88,1981.55 1102.5,1991.55 1094.12,2001.48 1085.75,2011.33 1077.37,2021.09 1069,2030.73 1060.62,2040.24 1052.25,2049.6 
  1043.87,2058.79 1035.49,2067.78 1027.12,2076.56 1018.74,2085.1 1010.37,2093.38 1001.99,2101.38 993.615,2109.07 985.239,2116.43 976.863,2123.44 968.487,2130.07 
  960.111,2136.31 951.735,2142.13 943.36,2147.52 934.984,2152.45 926.608,2156.91 918.232,2160.88 909.856,2164.35 901.48,2167.31 893.104,2169.73 884.729,2171.62 
  876.353,2172.95 867.977,2173.72 859.601,2173.93 851.225,2173.55 842.849,2172.6 834.473,2171.05 826.098,2168.91 817.722,2166.16 809.346,2162.81 800.97,2158.83 
  792.594,2154.24 784.218,2149 775.842,2143.13 767.467,2136.6 759.091,2129.4 750.715,2121.52 742.339,2112.94 733.963,2103.64 725.587,2093.59 717.211,2082.77 
  708.836,2071.14 700.46,2058.67 692.084,2045.32 683.708,2031.02 675.332,2015.73 666.956,1999.38 658.58,1981.88 650.205,1963.15 641.829,1943.07 633.453,1921.51 
  625.077,1898.33 616.701,1873.33 608.325,1846.3 599.949,1816.96 591.574,1784.97 583.198,1749.89 574.822,1711.13 566.446,1667.9 558.07,1619.09 549.694,1563.08 
  541.318,1497.6 532.943,1419.79 524.567,1326.9 516.191,1217.41 507.815,1091.33 499.439,949.27 491.063,791.82 482.687,620.61 474.312,442.38 465.936,280.045 
  457.56,181.63 449.184,139.381 440.808,114.64 432.432,98.9477 424.056,90.4347 415.681,86.5458 407.305,84.9185 398.929,84.2827 390.553,84.0748 382.177,83.9691 
  373.801,83.9031 365.425,83.8575 357.05,83.8239 348.674,83.7979 340.298,83.7773 331.922,83.7604 323.546,83.7464 315.17,83.7345 306.794,83.7242 298.419,83.7154 
  290.043,83.7076 
  "/>
<polyline clip-path="url(#clip562)" style="stroke:#7a4c8f; stroke-linecap:butt; stroke-linejoin:round; stroke-width:16; stroke-opacity:1; fill:none" stroke-dasharray="64, 40" points="
  1127.63,1380.17 1119.25,1375.89 1110.88,1371.33 1102.5,1366.49 1094.12,1361.36 1085.75,1355.91 1077.37,1350.14 1069,1344.04 1060.62,1337.58 1052.25,1330.76 
  1043.87,1323.54 1035.49,1315.93 1027.12,1307.89 1018.74,1299.41 1010.37,1290.46 1001.99,1281.03 993.615,1271.07 985.239,1260.57 976.863,1249.5 968.487,1237.82 
  960.111,1225.49 951.735,1212.49 943.36,1198.78 934.984,1184.3 926.608,1169 918.232,1152.85 909.856,1135.78 901.48,1117.74 893.104,1098.65 884.729,1078.44 
  876.353,1057.05 867.977,1034.37 859.601,1010.33 851.225,984.809 842.849,957.712 834.473,928.918 826.098,898.3 817.722,865.722 809.346,831.044 800.97,794.117 
  792.594,754.799 784.218,712.951 775.842,668.463 767.467,621.27 759.091,571.392 750.715,518.995 742.339,464.486 733.963,408.656 725.587,352.902 717.211,299.515 
  708.836,251.835 700.46,213.337 692.084,185.005 683.708,164.511 675.332,148.865 666.956,136.138 658.58,125.382 650.205,116.201 641.829,108.458 633.453,102.103 
  625.077,97.0697 616.701,93.2302 608.325,90.4013 599.949,88.3746 591.574,86.9516 583.198,85.9647 574.822,85.2843 566.446,84.8151 558.07,84.4906 549.694,84.2996 
  541.318,84.1851 532.943,84.1061 524.567,84.0474 516.191,84.0017 507.815,83.9649 499.439,83.9345 491.063,83.9089 482.687,83.887 474.312,83.8681 465.936,83.8515 
  457.56,83.8369 449.184,83.8239 440.808,83.8122 432.432,83.8016 424.056,83.792 415.681,83.7833 407.305,83.7753 398.929,83.768 390.553,83.7612 382.177,83.755 
  373.801,83.7491 365.425,83.7437 357.05,83.7386 348.674,83.7339 340.298,83.7294 331.922,83.7252 323.546,83.7213 315.17,83.7176 306.794,83.7141 298.419,83.7108 
  290.043,83.7076 
  "/>
</svg>
