<?xml version="1.0" encoding="utf-8"?>
<svg xmlns="http://www.w3.org/2000/svg" xmlns:xlink="http://www.w3.org/1999/xlink" width="300" height="200" viewBox="0 0 1200 800">
<defs>
  <clipPath id="clip500">
    <rect x="0" y="0" width="1200" height="800"/>
  </clipPath>
</defs>
<path clip-path="url(#clip500)" d="
M0 800 L1200 800 L1200 0 L0 0  Z
  " fill="#ffffff" fill-rule="evenodd" fill-opacity="1"/>
<defs>
  <clipPath id="clip501">
    <rect x="240" y="0" width="841" height="800"/>
  </clipPath>
</defs>
<path clip-path="url(#clip500)" d="
M233.261 685.808 L1152.76 685.808 L1152.76 47.2441 L233.261 47.2441  Z
  " fill="#ffffff" fill-rule="evenodd" fill-opacity="1"/>
<defs>
  <clipPath id="clip502">
    <rect x="233" y="47" width="920" height="640"/>
  </clipPath>
</defs>
<polyline clip-path="url(#clip500)" style="stroke:#000000; stroke-linecap:butt; stroke-linejoin:round; stroke-width:4; stroke-opacity:1; fill:none" points="
  233.261,685.808 1152.76,685.808 
  "/>
<polyline clip-path="url(#clip500)" style="stroke:#000000; stroke-linecap:butt; stroke-linejoin:round; stroke-width:4; stroke-opacity:1; fill:none" points="
  233.261,685.808 233.261,666.91 
  "/>
<polyline clip-path="url(#clip500)" style="stroke:#000000; stroke-linecap:butt; stroke-linejoin:round; stroke-width:4; stroke-opacity:1; fill:none" points="
  386.51,685.808 386.51,666.91 
  "/>
<polyline clip-path="url(#clip500)" style="stroke:#000000; stroke-linecap:butt; stroke-linejoin:round; stroke-width:4; stroke-opacity:1; fill:none" points="
  539.76,685.808 539.76,666.91 
  "/>
<polyline clip-path="url(#clip500)" style="stroke:#000000; stroke-linecap:butt; stroke-linejoin:round; stroke-width:4; stroke-opacity:1; fill:none" points="
  693.009,685.808 693.009,666.91 
  "/>
<polyline clip-path="url(#clip500)" style="stroke:#000000; stroke-linecap:butt; stroke-linejoin:round; stroke-width:4; stroke-opacity:1; fill:none" points="
  846.258,685.808 846.258,666.91 
  "/>
<polyline clip-path="url(#clip500)" style="stroke:#000000; stroke-linecap:butt; stroke-linejoin:round; stroke-width:4; stroke-opacity:1; fill:none" points="
  999.507,685.808 999.507,666.91 
  "/>
<polyline clip-path="url(#clip500)" style="stroke:#000000; stroke-linecap:butt; stroke-linejoin:round; stroke-width:4; stroke-opacity:1; fill:none" points="
  1152.76,685.808 1152.76,666.91 
  "/>
<path clip-path="url(#clip500)" d="M194.59 728.372 L231.684 728.372 L231.684 733.291 L194.59 733.291 L194.59 728.372 Z" fill="#000000" fill-rule="evenodd" fill-opacity="1" /><path clip-path="url(#clip500)" d="M257.523 725.479 Q253.588 725.479 251.273 728.17 Q248.988 730.861 248.988 735.548 Q248.988 740.207 251.273 742.926 Q253.588 745.617 257.523 745.617 Q261.459 745.617 263.744 742.926 Q266.059 740.207 266.059 735.548 Q266.059 730.861 263.744 728.17 Q261.459 725.479 257.523 725.479 M269.126 707.163 L269.126 712.487 Q266.927 711.445 264.67 710.895 Q262.442 710.346 260.243 710.346 Q254.456 710.346 251.389 714.252 Q248.351 718.158 247.917 726.057 Q249.624 723.54 252.199 722.209 Q254.775 720.849 257.871 720.849 Q264.381 720.849 268.142 724.813 Q271.933 728.748 271.933 735.548 Q271.933 742.203 267.998 746.225 Q264.063 750.247 257.523 750.247 Q250.029 750.247 246.065 744.518 Q242.101 738.76 242.101 727.851 Q242.101 717.608 246.962 711.532 Q251.823 705.427 260.012 705.427 Q262.211 705.427 264.439 705.861 Q266.696 706.295 269.126 707.163 Z" fill="#000000" fill-rule="evenodd" fill-opacity="1" /><path clip-path="url(#clip500)" d="M348.562 728.372 L385.657 728.372 L385.657 733.291 L348.562 733.291 L348.562 728.372 Z" fill="#000000" fill-rule="evenodd" fill-opacity="1" /><path clip-path="url(#clip500)" d="M398.33 706.208 L421.276 706.208 L421.276 711.127 L403.683 711.127 L403.683 721.717 Q404.956 721.283 406.23 721.08 Q407.503 720.849 408.776 720.849 Q416.01 720.849 420.234 724.813 Q424.459 728.777 424.459 735.548 Q424.459 742.521 420.118 746.399 Q415.778 750.247 407.879 750.247 Q405.159 750.247 402.323 749.784 Q399.517 749.321 396.507 748.395 L396.507 742.521 Q399.112 743.939 401.889 744.634 Q404.667 745.328 407.763 745.328 Q412.769 745.328 415.691 742.695 Q418.614 740.062 418.614 735.548 Q418.614 731.034 415.691 728.401 Q412.769 725.768 407.763 725.768 Q405.419 725.768 403.076 726.289 Q400.761 726.81 398.33 727.909 L398.33 706.208 Z" fill="#000000" fill-rule="evenodd" fill-opacity="1" /><path clip-path="url(#clip500)" d="M500.885 728.372 L537.98 728.372 L537.98 733.291 L500.885 733.291 L500.885 728.372 Z" fill="#000000" fill-rule="evenodd" fill-opacity="1" /><path clip-path="url(#clip500)" d="M566.655 711.3 L551.898 734.362 L566.655 734.362 L566.655 711.3 M565.121 706.208 L572.471 706.208 L572.471 734.362 L578.634 734.362 L578.634 739.223 L572.471 739.223 L572.471 749.408 L566.655 749.408 L566.655 739.223 L547.152 739.223 L547.152 733.58 L565.121 706.208 Z" fill="#000000" fill-rule="evenodd" fill-opacity="1" /><path clip-path="url(#clip500)" d="M654.843 728.372 L691.938 728.372 L691.938 733.291 L654.843 733.291 L654.843 728.372 Z" fill="#000000" fill-rule="evenodd" fill-opacity="1" /><path clip-path="url(#clip500)" d="M722.262 726.115 Q726.458 727.012 728.801 729.848 Q731.174 732.683 731.174 736.85 Q731.174 743.245 726.776 746.746 Q722.378 750.247 714.276 750.247 Q711.556 750.247 708.662 749.697 Q705.798 749.176 702.731 748.106 L702.731 742.463 Q705.161 743.881 708.055 744.605 Q710.948 745.328 714.102 745.328 Q719.6 745.328 722.464 743.158 Q725.358 740.988 725.358 736.85 Q725.358 733.031 722.667 730.889 Q720.005 728.719 715.231 728.719 L710.196 728.719 L710.196 723.916 L715.462 723.916 Q719.774 723.916 722.059 722.209 Q724.345 720.473 724.345 717.232 Q724.345 713.905 721.973 712.14 Q719.629 710.346 715.231 710.346 Q712.829 710.346 710.08 710.866 Q707.331 711.387 704.033 712.487 L704.033 707.278 Q707.36 706.353 710.254 705.89 Q713.176 705.427 715.752 705.427 Q722.407 705.427 726.284 708.465 Q730.161 711.474 730.161 716.624 Q730.161 720.212 728.107 722.701 Q726.052 725.16 722.262 726.115 Z" fill="#000000" fill-rule="evenodd" fill-opacity="1" /><path clip-path="url(#clip500)" d="M808.686 728.372 L845.78 728.372 L845.78 733.291 L808.686 733.291 L808.686 728.372 Z" fill="#000000" fill-rule="evenodd" fill-opacity="1" /><path clip-path="url(#clip500)" d="M863.431 744.489 L883.83 744.489 L883.83 749.408 L856.399 749.408 L856.399 744.489 Q859.727 741.046 865.456 735.259 Q871.214 729.443 872.69 727.764 Q875.497 724.611 876.596 722.44 Q877.725 720.241 877.725 718.129 Q877.725 714.686 875.294 712.516 Q872.892 710.346 869.015 710.346 Q866.266 710.346 863.199 711.3 Q860.161 712.255 856.689 714.194 L856.689 708.291 Q860.219 706.873 863.286 706.15 Q866.353 705.427 868.899 705.427 Q875.612 705.427 879.605 708.783 Q883.598 712.14 883.598 717.753 Q883.598 720.415 882.586 722.817 Q881.602 725.189 878.969 728.43 Q878.245 729.269 874.368 733.291 Q870.491 737.284 863.431 744.489 Z" fill="#000000" fill-rule="evenodd" fill-opacity="1" /><path clip-path="url(#clip500)" d="M961.703 728.372 L998.798 728.372 L998.798 733.291 L961.703 733.291 L961.703 728.372 Z" fill="#000000" fill-rule="evenodd" fill-opacity="1" /><path clip-path="url(#clip500)" d="M1012.43 744.489 L1021.97 744.489 L1021.97 711.532 L1011.59 713.615 L1011.59 708.291 L1021.92 706.208 L1027.76 706.208 L1027.76 744.489 L1037.31 744.489 L1037.31 749.408 L1012.43 749.408 L1012.43 744.489 Z" fill="#000000" fill-rule="evenodd" fill-opacity="1" /><path clip-path="url(#clip500)" d="M1152.76 710.056 Q1148.24 710.056 1145.96 714.512 Q1143.7 718.939 1143.7 727.851 Q1143.7 736.734 1145.96 741.19 Q1148.24 745.617 1152.76 745.617 Q1157.3 745.617 1159.56 741.19 Q1161.84 736.734 1161.84 727.851 Q1161.84 718.939 1159.56 714.512 Q1157.3 710.056 1152.76 710.056 M1152.76 705.427 Q1160.02 705.427 1163.84 711.185 Q1167.69 716.914 1167.69 727.851 Q1167.69 738.76 1163.84 744.518 Q1160.02 750.247 1152.76 750.247 Q1145.49 750.247 1141.64 744.518 Q1137.83 738.76 1137.83 727.851 Q1137.83 716.914 1141.64 711.185 Q1145.49 705.427 1152.76 705.427 Z" fill="#000000" fill-rule="evenodd" fill-opacity="1" /><polyline clip-path="url(#clip500)" style="stroke:#000000; stroke-linecap:butt; stroke-linejoin:round; stroke-width:4; stroke-opacity:1; fill:none" points="
  233.261,685.808 233.261,47.2441 
  "/>
<polyline clip-path="url(#clip500)" style="stroke:#000000; stroke-linecap:butt; stroke-linejoin:round; stroke-width:4; stroke-opacity:1; fill:none" points="
  233.261,685.808 252.159,685.808 
  "/>
<polyline clip-path="url(#clip500)" style="stroke:#000000; stroke-linecap:butt; stroke-linejoin:round; stroke-width:4; stroke-opacity:1; fill:none" points="
  233.261,387.385 252.159,387.385 
  "/>
<polyline clip-path="url(#clip500)" style="stroke:#000000; stroke-linecap:butt; stroke-linejoin:round; stroke-width:4; stroke-opacity:1; fill:none" points="
  233.261,88.9618 252.159,88.9618 
  "/>
<path clip-path="url(#clip500)" d="M57.8312 710.548 L67.3798 710.548 L67.3798 677.591 L56.9921 679.675 L56.9921 674.351 L67.3219 672.267 L73.1668 672.267 L73.1668 710.548 L82.7154 710.548 L82.7154 715.467 L57.8312 715.467 L57.8312 710.548 Z" fill="#000000" fill-rule="evenodd" fill-opacity="1" /><path clip-path="url(#clip500)" d="M107.021 676.116 Q102.507 676.116 100.221 680.572 Q97.9641 684.999 97.9641 693.911 Q97.9641 702.794 100.221 707.25 Q102.507 711.677 107.021 711.677 Q111.564 711.677 113.821 707.25 Q116.106 702.794 116.106 693.911 Q116.106 684.999 113.821 680.572 Q111.564 676.116 107.021 676.116 M107.021 671.486 Q114.283 671.486 118.103 677.244 Q121.951 682.973 121.951 693.911 Q121.951 704.819 118.103 710.577 Q114.283 716.306 107.021 716.306 Q99.7581 716.306 95.9097 710.577 Q92.0903 704.819 92.0903 693.911 Q92.0903 682.973 95.9097 677.244 Q99.7581 671.486 107.021 671.486 Z" fill="#000000" fill-rule="evenodd" fill-opacity="1" /><path clip-path="url(#clip500)" d="M121.951 664.113 L152.091 664.113 L152.091 668.109 L121.951 668.109 L121.951 664.113 Z" fill="#000000" fill-rule="evenodd" fill-opacity="1" /><path clip-path="url(#clip500)" d="M163.164 677.208 L170.922 677.208 L170.922 650.43 L162.482 652.123 L162.482 647.797 L170.875 646.104 L175.624 646.104 L175.624 677.208 L183.382 677.208 L183.382 681.204 L163.164 681.204 L163.164 677.208 Z" fill="#000000" fill-rule="evenodd" fill-opacity="1" /><path clip-path="url(#clip500)" d="M203.13 649.231 Q199.463 649.231 197.606 652.852 Q195.772 656.449 195.772 663.69 Q195.772 670.907 197.606 674.528 Q199.463 678.125 203.13 678.125 Q206.821 678.125 208.655 674.528 Q210.512 670.907 210.512 663.69 Q210.512 656.449 208.655 652.852 Q206.821 649.231 203.13 649.231 M203.13 645.47 Q209.031 645.47 212.135 650.148 Q215.261 654.803 215.261 663.69 Q215.261 672.553 212.135 677.231 Q209.031 681.886 203.13 681.886 Q197.229 681.886 194.103 677.231 Q190.999 672.553 190.999 663.69 Q190.999 654.803 194.103 650.148 Q197.229 645.47 203.13 645.47 Z" fill="#000000" fill-rule="evenodd" fill-opacity="1" /><path clip-path="url(#clip500)" d="M89.4753 412.125 L99.0239 412.125 L99.0239 379.168 L88.6362 381.252 L88.6362 375.928 L98.966 373.844 L104.811 373.844 L104.811 412.125 L114.359 412.125 L114.359 417.044 L89.4753 417.044 L89.4753 412.125 Z" fill="#000000" fill-rule="evenodd" fill-opacity="1" /><path clip-path="url(#clip500)" d="M138.665 377.693 Q134.151 377.693 131.865 382.149 Q129.608 386.576 129.608 395.488 Q129.608 404.371 131.865 408.827 Q134.151 413.254 138.665 413.254 Q143.208 413.254 145.465 408.827 Q147.75 404.371 147.75 395.488 Q147.75 386.576 145.465 382.149 Q143.208 377.693 138.665 377.693 M138.665 373.063 Q145.928 373.063 149.747 378.821 Q153.595 384.55 153.595 395.488 Q153.595 406.396 149.747 412.154 Q145.928 417.883 138.665 417.883 Q131.402 417.883 127.554 412.154 Q123.734 406.396 123.734 395.488 Q123.734 384.55 127.554 378.821 Q131.402 373.063 138.665 373.063 Z" fill="#000000" fill-rule="evenodd" fill-opacity="1" /><path clip-path="url(#clip500)" d="M153.595 365.69 L183.735 365.69 L183.735 369.686 L153.595 369.686 L153.595 365.69 Z" fill="#000000" fill-rule="evenodd" fill-opacity="1" /><path clip-path="url(#clip500)" d="M194.032 347.681 L212.675 347.681 L212.675 351.678 L198.381 351.678 L198.381 360.283 Q199.416 359.93 200.45 359.765 Q201.485 359.577 202.519 359.577 Q208.396 359.577 211.829 362.798 Q215.261 366.019 215.261 371.52 Q215.261 377.186 211.735 380.336 Q208.208 383.463 201.79 383.463 Q199.58 383.463 197.276 383.087 Q194.996 382.711 192.551 381.959 L192.551 377.186 Q194.667 378.338 196.924 378.902 Q199.181 379.466 201.696 379.466 Q205.763 379.466 208.138 377.327 Q210.512 375.188 210.512 371.52 Q210.512 367.853 208.138 365.713 Q205.763 363.574 201.696 363.574 Q199.792 363.574 197.888 363.997 Q196.007 364.42 194.032 365.314 L194.032 347.681 Z" fill="#000000" fill-rule="evenodd" fill-opacity="1" /><path clip-path="url(#clip500)" d="M126.879 113.702 L136.428 113.702 L136.428 80.7454 L126.04 82.8287 L126.04 77.5047 L136.37 75.4213 L142.215 75.4213 L142.215 113.702 L151.763 113.702 L151.763 118.621 L126.879 118.621 L126.879 113.702 Z" fill="#000000" fill-rule="evenodd" fill-opacity="1" /><path clip-path="url(#clip500)" d="M176.069 79.2697 Q171.555 79.2697 169.269 83.7257 Q167.012 88.1528 167.012 97.0647 Q167.012 105.948 169.269 110.404 Q171.555 114.831 176.069 114.831 Q180.612 114.831 182.869 110.404 Q185.154 105.948 185.154 97.0647 Q185.154 88.1528 182.869 83.7257 Q180.612 79.2697 176.069 79.2697 M176.069 74.6401 Q183.332 74.6401 187.151 80.3982 Q190.999 86.1273 190.999 97.0647 Q190.999 107.973 187.151 113.731 Q183.332 119.46 176.069 119.46 Q168.806 119.46 164.958 113.731 Q161.138 107.973 161.138 97.0647 Q161.138 86.1273 164.958 80.3982 Q168.806 74.6401 176.069 74.6401 Z" fill="#000000" fill-rule="evenodd" fill-opacity="1" /><path clip-path="url(#clip500)" d="M203.13 52.3851 Q199.463 52.3851 197.606 56.0056 Q195.772 59.6026 195.772 66.8436 Q195.772 74.0611 197.606 77.6816 Q199.463 81.2786 203.13 81.2786 Q206.821 81.2786 208.655 77.6816 Q210.512 74.0611 210.512 66.8436 Q210.512 59.6026 208.655 56.0056 Q206.821 52.3851 203.13 52.3851 M203.13 48.6236 Q209.031 48.6236 212.135 53.302 Q215.261 57.9569 215.261 66.8436 Q215.261 75.7068 212.135 80.3852 Q209.031 85.0401 203.13 85.0401 Q197.229 85.0401 194.103 80.3852 Q190.999 75.7068 190.999 66.8436 Q190.999 57.9569 194.103 53.302 Q197.229 48.6236 203.13 48.6236 Z" fill="#000000" fill-rule="evenodd" fill-opacity="1" /><polyline clip-path="url(#clip502)" style="stroke:#000000; stroke-linecap:butt; stroke-linejoin:round; stroke-width:16; stroke-opacity:1; fill:none" stroke-dasharray="8, 16" points="
  233.261,840.209 240.924,833.847 248.586,827.722 256.249,821.531 263.911,815.279 271.574,808.97 279.236,802.607 286.898,796.194 294.561,789.732 302.223,783.226 
  309.886,776.678 317.548,770.09 325.211,763.466 332.873,757.066 340.536,750.831 348.198,744.539 355.861,738.192 363.523,731.793 371.186,725.346 378.848,718.853 
  386.51,712.317 394.173,705.742 401.835,699.129 409.498,692.48 417.16,685.799 424.823,679.511 432.485,673.177 440.148,666.792 447.81,660.357 455.473,653.875 
  463.135,647.351 470.797,640.786 478.46,634.183 486.122,627.543 493.785,620.871 501.447,614.167 509.11,607.771 516.772,601.395 524.435,594.969 532.097,588.497 
  539.76,581.981 547.422,575.425 555.084,568.829 562.747,562.198 570.409,555.532 578.072,548.835 585.734,542.162 593.397,535.793 601.059,529.374 608.722,522.908 
  616.384,516.398 624.047,509.847 631.709,503.257 639.371,496.631 647.034,489.971 654.696,483.279 662.359,476.557 670.021,470.174 677.684,463.758 685.346,457.295 
  693.009,450.789 700.671,444.242 708.334,437.656 715.996,431.036 723.658,424.382 731.321,417.697 738.983,411.114 746.646,404.75 754.308,398.338 761.971,391.882 
  769.633,385.385 777.296,378.849 784.958,372.279 792.621,365.676 800.283,359.045 807.945,352.514 815.608,346.221 823.27,339.884 830.933,333.508 838.595,327.096 
  846.258,320.655 853.92,314.187 861.583,307.7 869.245,301.198 876.908,295.076 884.57,288.948 892.232,282.797 899.895,276.633 907.557,270.466 915.22,264.305 
  922.882,258.163 930.545,252.114 938.207,246.442 945.87,240.793 953.532,235.182 961.195,229.627 968.857,224.147 976.519,218.765 984.182,213.5 991.844,208.39 
  999.507,203.666 1007.17,199.065 1014.83,194.607 1022.49,190.312 1030.16,186.197 1037.82,182.278 1045.48,178.566 1053.14,175.067 1060.81,171.787 1068.47,168.82 
  1076.13,166.193 1083.79,163.782 1091.46,161.817 1099.12,160.068 1106.78,158.606 1114.44,157.242 1122.11,155.976 1129.77,154.846 1137.43,153.746 1145.09,152.665 
  1152.76,151.593 
  "/>
<polyline clip-path="url(#clip502)" style="stroke:#000000; stroke-linecap:butt; stroke-linejoin:round; stroke-width:16; stroke-opacity:1; fill:none" stroke-dasharray="64, 40" points="
  233.261,300.382 240.924,297.237 248.586,293.919 256.249,290.43 263.911,287.616 271.574,285.247 279.236,282.717 286.898,280.02 294.561,277.156 302.223,274.121 
  309.886,270.915 317.548,267.539 325.211,265.042 332.873,262.747 340.536,260.293 348.198,257.675 355.861,254.893 363.523,251.943 371.186,248.825 378.848,245.826 
  386.51,243.731 394.173,241.483 401.835,239.08 409.498,236.517 417.16,233.794 424.823,230.908 432.485,227.861 440.148,225.912 447.81,223.838 455.473,221.616 
  463.135,219.244 470.797,216.72 478.46,214.042 486.122,211.259 493.785,209.463 501.447,207.533 509.11,205.465 516.772,203.258 524.435,200.908 532.097,198.417 
  539.76,196.153 547.422,194.465 555.084,192.653 562.747,190.715 570.409,188.648 578.072,186.452 585.734,184.129 593.397,182.497 601.059,180.895 608.722,179.179 
  616.384,177.348 624.047,175.402 631.709,173.343 639.371,171.613 647.034,170.177 654.696,168.64 662.359,167.001 670.021,165.26 677.684,163.42 685.346,161.724 
  693.009,160.415 700.671,159.017 708.334,157.529 715.996,155.953 723.658,154.291 731.321,152.701 738.983,151.486 746.646,150.192 754.308,148.82 761.971,147.373 
  769.633,145.853 777.296,144.402 784.958,143.254 792.621,142.037 800.283,140.754 807.945,139.408 815.608,138.002 823.27,136.695 830.933,135.594 838.595,134.434 
  846.258,133.22 853.92,131.956 861.583,130.646 869.245,129.471 876.908,128.403 884.57,127.29 892.232,126.135 899.895,124.944 907.557,123.723 915.22,122.65 
  922.882,121.615 930.545,120.547 938.207,119.452 945.87,118.336 953.532,117.205 961.195,116.194 968.857,115.2 976.519,114.188 984.182,113.165 991.844,112.135 
  999.507,111.105 1007.17,110.113 1014.83,109.179 1022.49,108.243 1030.16,107.309 1037.82,106.383 1045.48,105.469 1053.14,104.573 1060.81,103.697 1068.47,102.846 
  1076.13,102.022 1083.79,101.228 1091.46,100.465 1099.12,99.7341 1106.78,99.0884 1114.44,98.5233 1122.11,98.119 1129.77,97.8668 1137.43,97.671 1145.09,97.4975 
  1152.76,97.3355 
  "/>
</svg>
