<?xml version="1.0" encoding="utf-8"?>
<svg xmlns="http://www.w3.org/2000/svg" xmlns:xlink="http://www.w3.org/1999/xlink" width="300" height="200" viewBox="0 0 1200 800">
<defs>
  <clipPath id="clip880">
    <rect x="0" y="0" width="1200" height="800"/>
  </clipPath>
</defs>
<path clip-path="url(#clip880)" d="
M0 800 L1200 800 L1200 0 L0 0  Z
  " fill="#ffffff" fill-rule="evenodd" fill-opacity="1"/>
<defs>
  <clipPath id="clip881">
    <rect x="240" y="0" width="841" height="800"/>
  </clipPath>
</defs>
<path clip-path="url(#clip880)" d="
M233.261 685.808 L1152.76 685.808 L1152.76 47.2441 L233.261 47.2441  Z
  " fill="#ffffff" fill-rule="evenodd" fill-opacity="1"/>
<defs>
  <clipPath id="clip882">
    <rect x="233" y="47" width="920" height="640"/>
  </clipPath>
</defs>
<polyline clip-path="url(#clip880)" style="stroke:#000000; stroke-linecap:butt; stroke-linejoin:round; stroke-width:4; stroke-opacity:1; fill:none" points="
  233.261,685.808 1152.76,685.808 
  "/>
<polyline clip-path="url(#clip880)" style="stroke:#000000; stroke-linecap:butt; stroke-linejoin:round; stroke-width:4; stroke-opacity:1; fill:none" points="
  233.261,685.808 233.261,666.91 
  "/>
<polyline clip-path="url(#clip880)" style="stroke:#000000; stroke-linecap:butt; stroke-linejoin:round; stroke-width:4; stroke-opacity:1; fill:none" points="
  417.16,685.808 417.16,666.91 
  "/>
<polyline clip-path="url(#clip880)" style="stroke:#000000; stroke-linecap:butt; stroke-linejoin:round; stroke-width:4; stroke-opacity:1; fill:none" points="
  601.059,685.808 601.059,666.91 
  "/>
<polyline clip-path="url(#clip880)" style="stroke:#000000; stroke-linecap:butt; stroke-linejoin:round; stroke-width:4; stroke-opacity:1; fill:none" points="
  784.958,685.808 784.958,666.91 
  "/>
<polyline clip-path="url(#clip880)" style="stroke:#000000; stroke-linecap:butt; stroke-linejoin:round; stroke-width:4; stroke-opacity:1; fill:none" points="
  968.857,685.808 968.857,666.91 
  "/>
<polyline clip-path="url(#clip880)" style="stroke:#000000; stroke-linecap:butt; stroke-linejoin:round; stroke-width:4; stroke-opacity:1; fill:none" points="
  1152.76,685.808 1152.76,666.91 
  "/>
<path clip-path="url(#clip880)" d="M204.992 710.056 Q200.478 710.056 198.192 714.512 Q195.935 718.939 195.935 727.851 Q195.935 736.734 198.192 741.19 Q200.478 745.617 204.992 745.617 Q209.535 745.617 211.792 741.19 Q214.077 736.734 214.077 727.851 Q214.077 718.939 211.792 714.512 Q209.535 710.056 204.992 710.056 M204.992 705.427 Q212.254 705.427 216.074 711.185 Q219.922 716.914 219.922 727.851 Q219.922 738.76 216.074 744.518 Q212.254 750.247 204.992 750.247 Q197.729 750.247 193.881 744.518 Q190.061 738.76 190.061 727.851 Q190.061 716.914 193.881 711.185 Q197.729 705.427 204.992 705.427 Z" fill="#000000" fill-rule="evenodd" fill-opacity="1" /><path clip-path="url(#clip880)" d="M230.194 742.058 L236.299 742.058 L236.299 749.408 L230.194 749.408 L230.194 742.058 Z" fill="#000000" fill-rule="evenodd" fill-opacity="1" /><path clip-path="url(#clip880)" d="M261.531 710.056 Q257.017 710.056 254.731 714.512 Q252.474 718.939 252.474 727.851 Q252.474 736.734 254.731 741.19 Q257.017 745.617 261.531 745.617 Q266.074 745.617 268.331 741.19 Q270.616 736.734 270.616 727.851 Q270.616 718.939 268.331 714.512 Q266.074 710.056 261.531 710.056 M261.531 705.427 Q268.794 705.427 272.613 711.185 Q276.461 716.914 276.461 727.851 Q276.461 738.76 272.613 744.518 Q268.794 750.247 261.531 750.247 Q254.268 750.247 250.42 744.518 Q246.6 738.76 246.6 727.851 Q246.6 716.914 250.42 711.185 Q254.268 705.427 261.531 705.427 Z" fill="#000000" fill-rule="evenodd" fill-opacity="1" /><path clip-path="url(#clip880)" d="M389.889 710.056 Q385.375 710.056 383.089 714.512 Q380.832 718.939 380.832 727.851 Q380.832 736.734 383.089 741.19 Q385.375 745.617 389.889 745.617 Q394.432 745.617 396.689 741.19 Q398.975 736.734 398.975 727.851 Q398.975 718.939 396.689 714.512 Q394.432 710.056 389.889 710.056 M389.889 705.427 Q397.152 705.427 400.971 711.185 Q404.819 716.914 404.819 727.851 Q404.819 738.76 400.971 744.518 Q397.152 750.247 389.889 750.247 Q382.626 750.247 378.778 744.518 Q374.958 738.76 374.958 727.851 Q374.958 716.914 378.778 711.185 Q382.626 705.427 389.889 705.427 Z" fill="#000000" fill-rule="evenodd" fill-opacity="1" /><path clip-path="url(#clip880)" d="M415.091 742.058 L421.197 742.058 L421.197 749.408 L415.091 749.408 L415.091 742.058 Z" fill="#000000" fill-rule="evenodd" fill-opacity="1" /><path clip-path="url(#clip880)" d="M438.963 744.489 L459.362 744.489 L459.362 749.408 L431.932 749.408 L431.932 744.489 Q435.259 741.046 440.988 735.259 Q446.746 729.443 448.222 727.764 Q451.029 724.611 452.128 722.44 Q453.257 720.241 453.257 718.129 Q453.257 714.686 450.826 712.516 Q448.425 710.346 444.547 710.346 Q441.798 710.346 438.731 711.3 Q435.693 712.255 432.221 714.194 L432.221 708.291 Q435.751 706.873 438.818 706.15 Q441.885 705.427 444.431 705.427 Q451.144 705.427 455.137 708.783 Q459.13 712.14 459.13 717.753 Q459.13 720.415 458.118 722.817 Q457.134 725.189 454.501 728.43 Q453.778 729.269 449.9 733.291 Q446.023 737.284 438.963 744.489 Z" fill="#000000" fill-rule="evenodd" fill-opacity="1" /><path clip-path="url(#clip880)" d="M572.486 710.056 Q567.972 710.056 565.686 714.512 Q563.429 718.939 563.429 727.851 Q563.429 736.734 565.686 741.19 Q567.972 745.617 572.486 745.617 Q577.029 745.617 579.286 741.19 Q581.571 736.734 581.571 727.851 Q581.571 718.939 579.286 714.512 Q577.029 710.056 572.486 710.056 M572.486 705.427 Q579.749 705.427 583.568 711.185 Q587.416 716.914 587.416 727.851 Q587.416 738.76 583.568 744.518 Q579.749 750.247 572.486 750.247 Q565.223 750.247 561.375 744.518 Q557.555 738.76 557.555 727.851 Q557.555 716.914 561.375 711.185 Q565.223 705.427 572.486 705.427 Z" fill="#000000" fill-rule="evenodd" fill-opacity="1" /><path clip-path="url(#clip880)" d="M597.688 742.058 L603.794 742.058 L603.794 749.408 L597.688 749.408 L597.688 742.058 Z" fill="#000000" fill-rule="evenodd" fill-opacity="1" /><path clip-path="url(#clip880)" d="M632.584 711.3 L617.827 734.362 L632.584 734.362 L632.584 711.3 M631.05 706.208 L638.4 706.208 L638.4 734.362 L644.563 734.362 L644.563 739.223 L638.4 739.223 L638.4 749.408 L632.584 749.408 L632.584 739.223 L613.082 739.223 L613.082 733.58 L631.05 706.208 Z" fill="#000000" fill-rule="evenodd" fill-opacity="1" /><path clip-path="url(#clip880)" d="M756.587 710.056 Q752.073 710.056 749.788 714.512 Q747.531 718.939 747.531 727.851 Q747.531 736.734 749.788 741.19 Q752.073 745.617 756.587 745.617 Q761.13 745.617 763.387 741.19 Q765.673 736.734 765.673 727.851 Q765.673 718.939 763.387 714.512 Q761.13 710.056 756.587 710.056 M756.587 705.427 Q763.85 705.427 767.669 711.185 Q771.518 716.914 771.518 727.851 Q771.518 738.76 767.669 744.518 Q763.85 750.247 756.587 750.247 Q749.325 750.247 745.476 744.518 Q741.657 738.76 741.657 727.851 Q741.657 716.914 745.476 711.185 Q749.325 705.427 756.587 705.427 Z" fill="#000000" fill-rule="evenodd" fill-opacity="1" /><path clip-path="url(#clip880)" d="M781.79 742.058 L787.895 742.058 L787.895 749.408 L781.79 749.408 L781.79 742.058 Z" fill="#000000" fill-rule="evenodd" fill-opacity="1" /><path clip-path="url(#clip880)" d="M813.85 725.479 Q809.915 725.479 807.6 728.17 Q805.314 730.861 805.314 735.548 Q805.314 740.207 807.6 742.926 Q809.915 745.617 813.85 745.617 Q817.785 745.617 820.071 742.926 Q822.386 740.207 822.386 735.548 Q822.386 730.861 820.071 728.17 Q817.785 725.479 813.85 725.479 M825.453 707.163 L825.453 712.487 Q823.254 711.445 820.997 710.895 Q818.769 710.346 816.57 710.346 Q810.783 710.346 807.715 714.252 Q804.677 718.158 804.243 726.057 Q805.95 723.54 808.526 722.209 Q811.101 720.849 814.197 720.849 Q820.707 720.849 824.469 724.813 Q828.259 728.748 828.259 735.548 Q828.259 742.203 824.324 746.225 Q820.389 750.247 813.85 750.247 Q806.356 750.247 802.391 744.518 Q798.427 738.76 798.427 727.851 Q798.427 717.608 803.288 711.532 Q808.149 705.427 816.338 705.427 Q818.537 705.427 820.765 705.861 Q823.022 706.295 825.453 707.163 Z" fill="#000000" fill-rule="evenodd" fill-opacity="1" /><path clip-path="url(#clip880)" d="M940.645 710.056 Q936.131 710.056 933.846 714.512 Q931.589 718.939 931.589 727.851 Q931.589 736.734 933.846 741.19 Q936.131 745.617 940.645 745.617 Q945.188 745.617 947.445 741.19 Q949.731 736.734 949.731 727.851 Q949.731 718.939 947.445 714.512 Q945.188 710.056 940.645 710.056 M940.645 705.427 Q947.908 705.427 951.727 711.185 Q955.576 716.914 955.576 727.851 Q955.576 738.76 951.727 744.518 Q947.908 750.247 940.645 750.247 Q933.383 750.247 929.534 744.518 Q925.715 738.76 925.715 727.851 Q925.715 716.914 929.534 711.185 Q933.383 705.427 940.645 705.427 Z" fill="#000000" fill-rule="evenodd" fill-opacity="1" /><path clip-path="url(#clip880)" d="M965.848 742.058 L971.953 742.058 L971.953 749.408 L965.848 749.408 L965.848 742.058 Z" fill="#000000" fill-rule="evenodd" fill-opacity="1" /><path clip-path="url(#clip880)" d="M997.184 728.893 Q993.018 728.893 990.616 731.121 Q988.243 733.349 988.243 737.255 Q988.243 741.161 990.616 743.389 Q993.018 745.617 997.184 745.617 Q1001.35 745.617 1003.75 743.389 Q1006.15 741.132 1006.15 737.255 Q1006.15 733.349 1003.75 731.121 Q1001.38 728.893 997.184 728.893 M991.34 726.405 Q987.578 725.479 985.466 722.903 Q983.382 720.328 983.382 716.624 Q983.382 711.445 987.057 708.436 Q990.761 705.427 997.184 705.427 Q1003.64 705.427 1007.31 708.436 Q1010.99 711.445 1010.99 716.624 Q1010.99 720.328 1008.87 722.903 Q1006.79 725.479 1003.06 726.405 Q1007.28 727.388 1009.63 730.253 Q1012 733.117 1012 737.255 Q1012 743.534 1008.15 746.891 Q1004.33 750.247 997.184 750.247 Q990.037 750.247 986.189 746.891 Q982.37 743.534 982.37 737.255 Q982.37 733.117 984.742 730.253 Q987.115 727.388 991.34 726.405 M989.198 717.174 Q989.198 720.531 991.282 722.411 Q993.394 724.292 997.184 724.292 Q1000.95 724.292 1003.06 722.411 Q1005.2 720.531 1005.2 717.174 Q1005.2 713.818 1003.06 711.937 Q1000.95 710.056 997.184 710.056 Q993.394 710.056 991.282 711.937 Q989.198 713.818 989.198 717.174 Z" fill="#000000" fill-rule="evenodd" fill-opacity="1" /><path clip-path="url(#clip880)" d="M1111.7 744.489 L1121.25 744.489 L1121.25 711.532 L1110.86 713.615 L1110.86 708.291 L1121.19 706.208 L1127.03 706.208 L1127.03 744.489 L1136.58 744.489 L1136.58 749.408 L1111.7 749.408 L1111.7 744.489 Z" fill="#000000" fill-rule="evenodd" fill-opacity="1" /><path clip-path="url(#clip880)" d="M1148.39 742.058 L1154.49 742.058 L1154.49 749.408 L1148.39 749.408 L1148.39 742.058 Z" fill="#000000" fill-rule="evenodd" fill-opacity="1" /><path clip-path="url(#clip880)" d="M1179.72 710.056 Q1175.21 710.056 1172.92 714.512 Q1170.67 718.939 1170.67 727.851 Q1170.67 736.734 1172.92 741.19 Q1175.21 745.617 1179.72 745.617 Q1184.27 745.617 1186.52 741.19 Q1188.81 736.734 1188.81 727.851 Q1188.81 718.939 1186.52 714.512 Q1184.27 710.056 1179.72 710.056 M1179.72 705.427 Q1186.99 705.427 1190.81 711.185 Q1194.65 716.914 1194.65 727.851 Q1194.65 738.76 1190.81 744.518 Q1186.99 750.247 1179.72 750.247 Q1172.46 750.247 1168.61 744.518 Q1164.79 738.76 1164.79 727.851 Q1164.79 716.914 1168.61 711.185 Q1172.46 705.427 1179.72 705.427 Z" fill="#000000" fill-rule="evenodd" fill-opacity="1" /><polyline clip-path="url(#clip880)" style="stroke:#000000; stroke-linecap:butt; stroke-linejoin:round; stroke-width:4; stroke-opacity:1; fill:none" points="
  233.261,685.808 233.261,47.2441 
  "/>
<polyline clip-path="url(#clip880)" style="stroke:#000000; stroke-linecap:butt; stroke-linejoin:round; stroke-width:4; stroke-opacity:1; fill:none" points="
  233.261,685.808 252.159,685.808 
  "/>
<polyline clip-path="url(#clip880)" style="stroke:#000000; stroke-linecap:butt; stroke-linejoin:round; stroke-width:4; stroke-opacity:1; fill:none" points="
  233.261,387.385 252.159,387.385 
  "/>
<polyline clip-path="url(#clip880)" style="stroke:#000000; stroke-linecap:butt; stroke-linejoin:round; stroke-width:4; stroke-opacity:1; fill:none" points="
  233.261,88.9618 252.159,88.9618 
  "/>
<path clip-path="url(#clip880)" d="M57.8312 710.548 L67.3798 710.548 L67.3798 677.591 L56.9921 679.675 L56.9921 674.351 L67.3219 672.267 L73.1668 672.267 L73.1668 710.548 L82.7154 710.548 L82.7154 715.467 L57.8312 715.467 L57.8312 710.548 Z" fill="#000000" fill-rule="evenodd" fill-opacity="1" /><path clip-path="url(#clip880)" d="M107.021 676.116 Q102.507 676.116 100.221 680.572 Q97.9641 684.999 97.9641 693.911 Q97.9641 702.794 100.221 707.25 Q102.507 711.677 107.021 711.677 Q111.564 711.677 113.821 707.25 Q116.106 702.794 116.106 693.911 Q116.106 684.999 113.821 680.572 Q111.564 676.116 107.021 676.116 M107.021 671.486 Q114.283 671.486 118.103 677.244 Q121.951 682.973 121.951 693.911 Q121.951 704.819 118.103 710.577 Q114.283 716.306 107.021 716.306 Q99.7581 716.306 95.9097 710.577 Q92.0903 704.819 92.0903 693.911 Q92.0903 682.973 95.9097 677.244 Q99.7581 671.486 107.021 671.486 Z" fill="#000000" fill-rule="evenodd" fill-opacity="1" /><path clip-path="url(#clip880)" d="M121.951 664.113 L152.091 664.113 L152.091 668.109 L121.951 668.109 L121.951 664.113 Z" fill="#000000" fill-rule="evenodd" fill-opacity="1" /><path clip-path="url(#clip880)" d="M163.164 677.208 L170.922 677.208 L170.922 650.43 L162.482 652.123 L162.482 647.797 L170.875 646.104 L175.624 646.104 L175.624 677.208 L183.382 677.208 L183.382 681.204 L163.164 681.204 L163.164 677.208 Z" fill="#000000" fill-rule="evenodd" fill-opacity="1" /><path clip-path="url(#clip880)" d="M203.13 649.231 Q199.463 649.231 197.606 652.852 Q195.772 656.449 195.772 663.69 Q195.772 670.907 197.606 674.528 Q199.463 678.125 203.13 678.125 Q206.821 678.125 208.655 674.528 Q210.512 670.907 210.512 663.69 Q210.512 656.449 208.655 652.852 Q206.821 649.231 203.13 649.231 M203.13 645.47 Q209.031 645.47 212.135 650.148 Q215.261 654.803 215.261 663.69 Q215.261 672.553 212.135 677.231 Q209.031 681.886 203.13 681.886 Q197.229 681.886 194.103 677.231 Q190.999 672.553 190.999 663.69 Q190.999 654.803 194.103 650.148 Q197.229 645.47 203.13 645.47 Z" fill="#000000" fill-rule="evenodd" fill-opacity="1" /><path clip-path="url(#clip880)" d="M89.4753 412.125 L99.0239 412.125 L99.0239 379.168 L88.6362 381.252 L88.6362 375.928 L98.966 373.844 L104.811 373.844 L104.811 412.125 L114.359 412.125 L114.359 417.044 L89.4753 417.044 L89.4753 412.125 Z" fill="#000000" fill-rule="evenodd" fill-opacity="1" /><path clip-path="url(#clip880)" d="M138.665 377.693 Q134.151 377.693 131.865 382.149 Q129.608 386.576 129.608 395.488 Q129.608 404.371 131.865 408.827 Q134.151 413.254 138.665 413.254 Q143.208 413.254 145.465 408.827 Q147.75 404.371 147.75 395.488 Q147.75 386.576 145.465 382.149 Q143.208 377.693 138.665 377.693 M138.665 373.063 Q145.928 373.063 149.747 378.821 Q153.595 384.55 153.595 395.488 Q153.595 406.396 149.747 412.154 Q145.928 417.883 138.665 417.883 Q131.402 417.883 127.554 412.154 Q123.734 406.396 123.734 395.488 Q123.734 384.55 127.554 378.821 Q131.402 373.063 138.665 373.063 Z" fill="#000000" fill-rule="evenodd" fill-opacity="1" /><path clip-path="url(#clip880)" d="M153.595 365.69 L183.735 365.69 L183.735 369.686 L153.595 369.686 L153.595 365.69 Z" fill="#000000" fill-rule="evenodd" fill-opacity="1" /><path clip-path="url(#clip880)" d="M194.032 347.681 L212.675 347.681 L212.675 351.678 L198.381 351.678 L198.381 360.283 Q199.416 359.93 200.45 359.765 Q201.485 359.577 202.519 359.577 Q208.396 359.577 211.829 362.798 Q215.261 366.019 215.261 371.52 Q215.261 377.186 211.735 380.336 Q208.208 383.463 201.79 383.463 Q199.58 383.463 197.276 383.087 Q194.996 382.711 192.551 381.959 L192.551 377.186 Q194.667 378.338 196.924 378.902 Q199.181 379.466 201.696 379.466 Q205.763 379.466 208.138 377.327 Q210.512 375.188 210.512 371.52 Q210.512 367.853 208.138 365.713 Q205.763 363.574 201.696 363.574 Q199.792 363.574 197.888 363.997 Q196.007 364.42 194.032 365.314 L194.032 347.681 Z" fill="#000000" fill-rule="evenodd" fill-opacity="1" /><path clip-path="url(#clip880)" d="M126.879 113.702 L136.428 113.702 L136.428 80.7454 L126.04 82.8287 L126.04 77.5047 L136.37 75.4213 L142.215 75.4213 L142.215 113.702 L151.763 113.702 L151.763 118.621 L126.879 118.621 L126.879 113.702 Z" fill="#000000" fill-rule="evenodd" fill-opacity="1" /><path clip-path="url(#clip880)" d="M176.069 79.2697 Q171.555 79.2697 169.269 83.7257 Q167.012 88.1528 167.012 97.0647 Q167.012 105.948 169.269 110.404 Q171.555 114.831 176.069 114.831 Q180.612 114.831 182.869 110.404 Q185.154 105.948 185.154 97.0647 Q185.154 88.1528 182.869 83.7257 Q180.612 79.2697 176.069 79.2697 M176.069 74.6401 Q183.332 74.6401 187.151 80.3982 Q190.999 86.1273 190.999 97.0647 Q190.999 107.973 187.151 113.731 Q183.332 119.46 176.069 119.46 Q168.806 119.46 164.958 113.731 Q161.138 107.973 161.138 97.0647 Q161.138 86.1273 164.958 80.3982 Q168.806 74.6401 176.069 74.6401 Z" fill="#000000" fill-rule="evenodd" fill-opacity="1" /><path clip-path="url(#clip880)" d="M203.13 52.3851 Q199.463 52.3851 197.606 56.0056 Q195.772 59.6026 195.772 66.8436 Q195.772 74.0611 197.606 77.6816 Q199.463 81.2786 203.13 81.2786 Q206.821 81.2786 208.655 77.6816 Q210.512 74.0611 210.512 66.8436 Q210.512 59.6026 208.655 56.0056 Q206.821 52.3851 203.13 52.3851 M203.13 48.6236 Q209.031 48.6236 212.135 53.302 Q215.261 57.9569 215.261 66.8436 Q215.261 75.7068 212.135 80.3852 Q209.031 85.0401 203.13 85.0401 Q197.229 85.0401 194.103 80.3852 Q190.999 75.7068 190.999 66.8436 Q190.999 57.9569 194.103 53.302 Q197.229 48.6236 203.13 48.6236 Z" fill="#000000" fill-rule="evenodd" fill-opacity="1" /><polyline clip-path="url(#clip882)" style="stroke:#000000; stroke-linecap:butt; stroke-linejoin:round; stroke-width:16; stroke-opacity:1; fill:none" stroke-dasharray="8, 16" points="
  233.261,4660.9 242.456,3484.18 251.651,3262.77 260.846,3083.13 270.041,2922.7 279.236,2773.76 288.431,2632.64 297.626,2497.28 306.821,2366.4 316.016,2240.27 
  325.211,2121.85 334.406,2010.37 343.601,1904.97 352.796,1804.92 361.991,1709.7 371.186,1618.89 380.38,1532.07 389.575,1448.94 398.77,1369.25 407.965,1292.76 
  417.16,1219.28 426.355,1148.73 435.55,1080.89 444.745,1015.63 453.94,952.963 463.135,892.694 472.33,834.848 481.525,779.301 490.72,726.103 499.915,675.131 
  509.11,626.479 518.305,580.08 527.5,535.934 536.695,494.158 545.889,454.73 555.084,417.708 564.279,383.192 573.474,351.365 582.669,322.315 591.864,296.22 
  601.059,273.229 610.254,253.36 619.449,236.508 628.644,222.289 637.839,210.275 647.034,200.088 656.229,191.315 665.424,183.653 674.619,176.983 683.814,171.004 
  693.009,165.633 702.204,160.775 711.399,156.335 720.593,152.225 729.788,148.389 738.983,144.821 748.178,141.451 757.373,138.253 766.568,135.211 775.763,132.301 
  784.958,129.497 794.153,126.817 803.348,124.217 812.543,121.702 821.738,119.264 830.933,116.896 840.128,114.596 849.323,112.365 858.518,110.196 867.713,108.093 
  876.908,106.056 886.102,104.089 895.297,102.195 904.492,100.379 913.687,98.6383 922.882,96.538 932.077,94.28 941.272,92.3697 950.467,91.0113 959.662,90.1512 
  968.857,89.6436 978.052,89.355 987.247,89.1932 996.442,89.1023 1005.64,89.054 1014.83,89.0323 1024.03,89.0198 1033.22,89.0115 1042.42,89.0056 1051.61,89.0011 
  1060.81,88.9978 1070,88.9951 1079.2,88.9932 1088.39,88.9919 1097.59,88.9913 1106.78,88.9909 1115.98,88.9907 1125.17,88.9904 1134.37,88.9902 1143.56,88.99 
  1152.76,88.9898 
  "/>
<polyline clip-path="url(#clip882)" style="stroke:#000000; stroke-linecap:butt; stroke-linejoin:round; stroke-width:16; stroke-opacity:1; fill:none" stroke-dasharray="64, 40" points="
  233.261,3517.9 242.456,3230.66 251.651,2979.22 260.846,2755.58 270.041,2548.23 279.236,2351.79 288.431,2163.62 297.626,1982.25 306.821,1806.86 316.016,1636.95 
  325.211,1472.27 334.406,1312.72 343.601,1158.31 352.796,1009.16 361.991,865.48 371.186,727.576 380.38,595.848 389.575,470.965 398.77,355.076 407.965,256.982 
  417.16,191.333 426.355,152.085 435.55,126.154 444.745,109.053 453.94,99.0391 463.135,93.8883 472.33,91.4266 481.525,90.2664 490.72,89.7264 499.915,89.5211 
  509.11,89.4106 518.305,89.3386 527.5,89.2873 536.695,89.2485 545.889,89.2181 555.084,89.1935 564.279,89.1731 573.474,89.156 582.669,89.1414 591.864,89.1287 
  601.059,89.1176 610.254,89.1079 619.449,89.0992 628.644,89.0915 637.839,89.0845 647.034,89.0782 656.229,89.0725 665.424,89.0672 674.619,89.0624 683.814,89.058 
  693.009,89.054 702.204,89.0502 711.399,89.0467 720.593,89.0434 729.788,89.0404 738.983,89.0375 748.178,89.0348 757.373,89.0323 766.568,89.03 775.763,89.0278 
  784.958,89.0257 794.153,89.0237 803.348,89.0218 812.543,89.02 821.738,89.0183 830.933,89.0167 840.128,89.0152 849.323,89.0138 858.518,89.0124 867.713,89.0111 
  876.908,89.0098 886.102,89.0086 895.297,89.0074 904.492,89.0063 913.687,89.0053 922.882,89.0043 932.077,89.0033 941.272,89.0024 950.467,89.0015 959.662,89.0006 
  968.857,88.9998 978.052,88.999 987.247,88.9982 996.442,88.9975 1005.64,88.9968 1014.83,88.9961 1024.03,88.9955 1033.22,88.9949 1042.42,88.9943 1051.61,88.9937 
  1060.81,88.9932 1070,88.9927 1079.2,88.9922 1088.39,88.9918 1097.59,88.9914 1106.78,88.9911 1115.98,88.9908 1125.17,88.9906 1134.37,88.9903 1143.56,88.9901 
  1152.76,88.9898 
  "/>
</svg>
