<?xml version="1.0" encoding="utf-8"?>
<svg xmlns="http://www.w3.org/2000/svg" xmlns:xlink="http://www.w3.org/1999/xlink" width="300" height="180" viewBox="0 0 1200 720">
<defs>
  <clipPath id="clip310">
    <rect x="0" y="0" width="1200" height="720"/>
  </clipPath>
</defs>
<path clip-path="url(#clip310)" d="
M0 720 L1200 720 L1200 0 L0 0  Z
  " fill="#ffffff" fill-rule="evenodd" fill-opacity="1"/>
<defs>
  <clipPath id="clip311">
    <rect x="240" y="0" width="841" height="720"/>
  </clipPath>
</defs>
<path clip-path="url(#clip310)" d="
M264.915 603.152 L1152.76 603.152 L1152.76 47.2441 L264.915 47.2441  Z
  " fill="#ffffff" fill-rule="evenodd" fill-opacity="1"/>
<defs>
  <clipPath id="clip312">
    <rect x="264" y="47" width="889" height="557"/>
  </clipPath>
</defs>
<polyline clip-path="url(#clip310)" style="stroke:#000000; stroke-linecap:round; stroke-linejoin:round; stroke-width:4; stroke-opacity:1; fill:none" points="
  264.915,603.152 1152.76,603.152 
  "/>
<polyline clip-path="url(#clip310)" style="stroke:#000000; stroke-linecap:round; stroke-linejoin:round; stroke-width:4; stroke-opacity:1; fill:none" points="
  290.043,603.152 290.043,584.254 
  "/>
<polyline clip-path="url(#clip310)" style="stroke:#000000; stroke-linecap:round; stroke-linejoin:round; stroke-width:4; stroke-opacity:1; fill:none" points="
  499.439,603.152 499.439,584.254 
  "/>
<polyline clip-path="url(#clip310)" style="stroke:#000000; stroke-linecap:round; stroke-linejoin:round; stroke-width:4; stroke-opacity:1; fill:none" points="
  708.836,603.152 708.836,584.254 
  "/>
<polyline clip-path="url(#clip310)" style="stroke:#000000; stroke-linecap:round; stroke-linejoin:round; stroke-width:4; stroke-opacity:1; fill:none" points="
  918.232,603.152 918.232,584.254 
  "/>
<polyline clip-path="url(#clip310)" style="stroke:#000000; stroke-linecap:round; stroke-linejoin:round; stroke-width:4; stroke-opacity:1; fill:none" points="
  1127.63,603.152 1127.63,584.254 
  "/>
<path clip-path="url(#clip310)" d="M233.498 630.33 Q228.081 630.33 225.338 635.677 Q222.63 640.99 222.63 651.684 Q222.63 662.344 225.338 667.691 Q228.081 673.003 233.498 673.003 Q238.949 673.003 241.658 667.691 Q244.401 662.344 244.401 651.684 Q244.401 640.99 241.658 635.677 Q238.949 630.33 233.498 630.33 M233.498 624.774 Q242.213 624.774 246.796 631.684 Q251.414 638.559 251.414 651.684 Q251.414 664.774 246.796 671.684 Q242.213 678.559 233.498 678.559 Q224.783 678.559 220.165 671.684 Q215.581 664.774 215.581 651.684 Q215.581 638.559 220.165 631.684 Q224.783 624.774 233.498 624.774 Z" fill="#000000" fill-rule="evenodd" fill-opacity="1" /><path clip-path="url(#clip310)" d="M263.741 668.732 L271.067 668.732 L271.067 677.552 L263.741 677.552 L263.741 668.732 Z" fill="#000000" fill-rule="evenodd" fill-opacity="1" /><path clip-path="url(#clip310)" d="M301.345 630.33 Q295.928 630.33 293.185 635.677 Q290.477 640.99 290.477 651.684 Q290.477 662.344 293.185 667.691 Q295.928 673.003 301.345 673.003 Q306.796 673.003 309.504 667.691 Q312.247 662.344 312.247 651.684 Q312.247 640.99 309.504 635.677 Q306.796 630.33 301.345 630.33 M301.345 624.774 Q310.06 624.774 314.643 631.684 Q319.261 638.559 319.261 651.684 Q319.261 664.774 314.643 671.684 Q310.06 678.559 301.345 678.559 Q292.63 678.559 288.011 671.684 Q283.428 664.774 283.428 651.684 Q283.428 638.559 288.011 631.684 Q292.63 624.774 301.345 624.774 Z" fill="#000000" fill-rule="evenodd" fill-opacity="1" /><path clip-path="url(#clip310)" d="M346.588 630.33 Q341.171 630.33 338.428 635.677 Q335.72 640.99 335.72 651.684 Q335.72 662.344 338.428 667.691 Q341.171 673.003 346.588 673.003 Q352.039 673.003 354.747 667.691 Q357.49 662.344 357.49 651.684 Q357.49 640.99 354.747 635.677 Q352.039 630.33 346.588 630.33 M346.588 624.774 Q355.303 624.774 359.886 631.684 Q364.504 638.559 364.504 651.684 Q364.504 664.774 359.886 671.684 Q355.303 678.559 346.588 678.559 Q337.872 678.559 333.254 671.684 Q328.671 664.774 328.671 651.684 Q328.671 638.559 333.254 631.684 Q337.872 624.774 346.588 624.774 Z" fill="#000000" fill-rule="evenodd" fill-opacity="1" /><path clip-path="url(#clip310)" d="M443.641 630.33 Q438.224 630.33 435.481 635.677 Q432.773 640.99 432.773 651.684 Q432.773 662.344 435.481 667.691 Q438.224 673.003 443.641 673.003 Q449.092 673.003 451.8 667.691 Q454.544 662.344 454.544 651.684 Q454.544 640.99 451.8 635.677 Q449.092 630.33 443.641 630.33 M443.641 624.774 Q452.356 624.774 456.939 631.684 Q461.557 638.559 461.557 651.684 Q461.557 664.774 456.939 671.684 Q452.356 678.559 443.641 678.559 Q434.926 678.559 430.308 671.684 Q425.724 664.774 425.724 651.684 Q425.724 638.559 430.308 631.684 Q434.926 624.774 443.641 624.774 Z" fill="#000000" fill-rule="evenodd" fill-opacity="1" /><path clip-path="url(#clip310)" d="M473.884 668.732 L481.21 668.732 L481.21 677.552 L473.884 677.552 L473.884 668.732 Z" fill="#000000" fill-rule="evenodd" fill-opacity="1" /><path clip-path="url(#clip310)" d="M502.529 671.649 L527.008 671.649 L527.008 677.552 L494.092 677.552 L494.092 671.649 Q498.085 667.517 504.96 660.573 Q511.87 653.594 513.64 651.58 Q517.008 647.795 518.328 645.191 Q519.682 642.552 519.682 640.017 Q519.682 635.885 516.765 633.281 Q513.883 630.677 509.231 630.677 Q505.932 630.677 502.252 631.823 Q498.606 632.969 494.439 635.295 L494.439 628.212 Q498.675 626.51 502.356 625.642 Q506.036 624.774 509.092 624.774 Q517.147 624.774 521.939 628.802 Q526.731 632.83 526.731 639.566 Q526.731 642.76 525.515 645.642 Q524.335 648.49 521.175 652.378 Q520.307 653.385 515.654 658.212 Q511.002 663.003 502.529 671.649 Z" fill="#000000" fill-rule="evenodd" fill-opacity="1" /><path clip-path="url(#clip310)" d="M541.8 625.712 L569.335 625.712 L569.335 631.615 L548.224 631.615 L548.224 644.323 Q549.751 643.802 551.279 643.559 Q552.807 643.281 554.335 643.281 Q563.015 643.281 568.085 648.038 Q573.154 652.795 573.154 660.92 Q573.154 669.288 567.946 673.941 Q562.737 678.559 553.258 678.559 Q549.994 678.559 546.592 678.003 Q543.224 677.448 539.613 676.337 L539.613 669.288 Q542.738 670.989 546.071 671.823 Q549.404 672.656 553.119 672.656 Q559.126 672.656 562.633 669.496 Q566.14 666.337 566.14 660.92 Q566.14 655.503 562.633 652.344 Q559.126 649.184 553.119 649.184 Q550.307 649.184 547.494 649.809 Q544.717 650.434 541.8 651.753 L541.8 625.712 Z" fill="#000000" fill-rule="evenodd" fill-opacity="1" /><path clip-path="url(#clip310)" d="M652.291 630.33 Q646.874 630.33 644.131 635.677 Q641.423 640.99 641.423 651.684 Q641.423 662.344 644.131 667.691 Q646.874 673.003 652.291 673.003 Q657.742 673.003 660.45 667.691 Q663.193 662.344 663.193 651.684 Q663.193 640.99 660.45 635.677 Q657.742 630.33 652.291 630.33 M652.291 624.774 Q661.006 624.774 665.589 631.684 Q670.207 638.559 670.207 651.684 Q670.207 664.774 665.589 671.684 Q661.006 678.559 652.291 678.559 Q643.575 678.559 638.957 671.684 Q634.374 664.774 634.374 651.684 Q634.374 638.559 638.957 631.684 Q643.575 624.774 652.291 624.774 Z" fill="#000000" fill-rule="evenodd" fill-opacity="1" /><path clip-path="url(#clip310)" d="M682.534 668.732 L689.86 668.732 L689.86 677.552 L682.534 677.552 L682.534 668.732 Z" fill="#000000" fill-rule="evenodd" fill-opacity="1" /><path clip-path="url(#clip310)" d="M705.207 625.712 L732.742 625.712 L732.742 631.615 L711.631 631.615 L711.631 644.323 Q713.158 643.802 714.686 643.559 Q716.214 643.281 717.742 643.281 Q726.422 643.281 731.492 648.038 Q736.561 652.795 736.561 660.92 Q736.561 669.288 731.353 673.941 Q726.144 678.559 716.665 678.559 Q713.401 678.559 709.999 678.003 Q706.631 677.448 703.02 676.337 L703.02 669.288 Q706.145 670.989 709.478 671.823 Q712.811 672.656 716.526 672.656 Q722.533 672.656 726.04 669.496 Q729.547 666.337 729.547 660.92 Q729.547 655.503 726.04 652.344 Q722.533 649.184 716.526 649.184 Q713.714 649.184 710.901 649.809 Q708.124 650.434 705.207 651.753 L705.207 625.712 Z" fill="#000000" fill-rule="evenodd" fill-opacity="1" /><path clip-path="url(#clip310)" d="M765.38 630.33 Q759.964 630.33 757.221 635.677 Q754.512 640.99 754.512 651.684 Q754.512 662.344 757.221 667.691 Q759.964 673.003 765.38 673.003 Q770.832 673.003 773.54 667.691 Q776.283 662.344 776.283 651.684 Q776.283 640.99 773.54 635.677 Q770.832 630.33 765.38 630.33 M765.38 624.774 Q774.096 624.774 778.679 631.684 Q783.297 638.559 783.297 651.684 Q783.297 664.774 778.679 671.684 Q774.096 678.559 765.38 678.559 Q756.665 678.559 752.047 671.684 Q747.464 664.774 747.464 651.684 Q747.464 638.559 752.047 631.684 Q756.665 624.774 765.38 624.774 Z" fill="#000000" fill-rule="evenodd" fill-opacity="1" /><path clip-path="url(#clip310)" d="M862.434 630.33 Q857.017 630.33 854.274 635.677 Q851.566 640.99 851.566 651.684 Q851.566 662.344 854.274 667.691 Q857.017 673.003 862.434 673.003 Q867.885 673.003 870.593 667.691 Q873.336 662.344 873.336 651.684 Q873.336 640.99 870.593 635.677 Q867.885 630.33 862.434 630.33 M862.434 624.774 Q871.149 624.774 875.732 631.684 Q880.35 638.559 880.35 651.684 Q880.35 664.774 875.732 671.684 Q871.149 678.559 862.434 678.559 Q853.718 678.559 849.1 671.684 Q844.517 664.774 844.517 651.684 Q844.517 638.559 849.1 631.684 Q853.718 624.774 862.434 624.774 Z" fill="#000000" fill-rule="evenodd" fill-opacity="1" /><path clip-path="url(#clip310)" d="M892.677 668.732 L900.003 668.732 L900.003 677.552 L892.677 677.552 L892.677 668.732 Z" fill="#000000" fill-rule="evenodd" fill-opacity="1" /><path clip-path="url(#clip310)" d="M913.51 625.712 L946.843 625.712 L946.843 628.698 L928.024 677.552 L920.697 677.552 L938.405 631.615 L913.51 631.615 L913.51 625.712 Z" fill="#000000" fill-rule="evenodd" fill-opacity="1" /><path clip-path="url(#clip310)" d="M960.593 625.712 L988.127 625.712 L988.127 631.615 L967.016 631.615 L967.016 644.323 Q968.544 643.802 970.072 643.559 Q971.6 643.281 973.127 643.281 Q981.808 643.281 986.877 648.038 Q991.947 652.795 991.947 660.92 Q991.947 669.288 986.739 673.941 Q981.53 678.559 972.051 678.559 Q968.787 678.559 965.384 678.003 Q962.016 677.448 958.405 676.337 L958.405 669.288 Q961.53 670.989 964.864 671.823 Q968.197 672.656 971.912 672.656 Q977.919 672.656 981.426 669.496 Q984.933 666.337 984.933 660.92 Q984.933 655.503 981.426 652.344 Q977.919 649.184 971.912 649.184 Q969.1 649.184 966.287 649.809 Q963.509 650.434 960.593 651.753 L960.593 625.712 Z" fill="#000000" fill-rule="evenodd" fill-opacity="1" /><path clip-path="url(#clip310)" d="M1055.74 671.649 L1067.19 671.649 L1067.19 632.101 L1054.73 634.601 L1054.73 628.212 L1067.13 625.712 L1074.14 625.712 L1074.14 671.649 L1085.6 671.649 L1085.6 677.552 L1055.74 677.552 L1055.74 671.649 Z" fill="#000000" fill-rule="evenodd" fill-opacity="1" /><path clip-path="url(#clip310)" d="M1099.76 668.732 L1107.09 668.732 L1107.09 677.552 L1099.76 677.552 L1099.76 668.732 Z" fill="#000000" fill-rule="evenodd" fill-opacity="1" /><path clip-path="url(#clip310)" d="M1137.37 630.33 Q1131.95 630.33 1129.21 635.677 Q1126.5 640.99 1126.5 651.684 Q1126.5 662.344 1129.21 667.691 Q1131.95 673.003 1137.37 673.003 Q1142.82 673.003 1145.53 667.691 Q1148.27 662.344 1148.27 651.684 Q1148.27 640.99 1145.53 635.677 Q1142.82 630.33 1137.37 630.33 M1137.37 624.774 Q1146.08 624.774 1150.67 631.684 Q1155.28 638.559 1155.28 651.684 Q1155.28 664.774 1150.67 671.684 Q1146.08 678.559 1137.37 678.559 Q1128.65 678.559 1124.03 671.684 Q1119.45 664.774 1119.45 651.684 Q1119.45 638.559 1124.03 631.684 Q1128.65 624.774 1137.37 624.774 Z" fill="#000000" fill-rule="evenodd" fill-opacity="1" /><path clip-path="url(#clip310)" d="M1182.61 630.33 Q1177.19 630.33 1174.45 635.677 Q1171.74 640.99 1171.74 651.684 Q1171.74 662.344 1174.45 667.691 Q1177.19 673.003 1182.61 673.003 Q1188.06 673.003 1190.77 667.691 Q1193.51 662.344 1193.51 651.684 Q1193.51 640.99 1190.77 635.677 Q1188.06 630.33 1182.61 630.33 M1182.61 624.774 Q1191.33 624.774 1195.91 631.684 Q1200.53 638.559 1200.53 651.684 Q1200.53 664.774 1195.91 671.684 Q1191.33 678.559 1182.61 678.559 Q1173.9 678.559 1169.28 671.684 Q1164.69 664.774 1164.69 651.684 Q1164.69 638.559 1169.28 631.684 Q1173.9 624.774 1182.61 624.774 Z" fill="#000000" fill-rule="evenodd" fill-opacity="1" /><polyline clip-path="url(#clip310)" style="stroke:#000000; stroke-linecap:round; stroke-linejoin:round; stroke-width:4; stroke-opacity:1; fill:none" points="
  264.915,603.152 264.915,47.2441 
  "/>
<polyline clip-path="url(#clip310)" style="stroke:#000000; stroke-linecap:round; stroke-linejoin:round; stroke-width:4; stroke-opacity:1; fill:none" points="
  264.915,603.152 283.813,603.152 
  "/>
<polyline clip-path="url(#clip310)" style="stroke:#000000; stroke-linecap:round; stroke-linejoin:round; stroke-width:4; stroke-opacity:1; fill:none" points="
  264.915,343.357 283.813,343.357 
  "/>
<polyline clip-path="url(#clip310)" style="stroke:#000000; stroke-linecap:round; stroke-linejoin:round; stroke-width:4; stroke-opacity:1; fill:none" points="
  264.915,83.5619 283.813,83.5619 
  "/>
<path clip-path="url(#clip310)" d="M57.9991 632.841 L69.4573 632.841 L69.4573 593.292 L56.9921 595.792 L56.9921 589.403 L69.3879 586.903 L76.4017 586.903 L76.4017 632.841 L87.86 632.841 L87.86 638.743 L57.9991 638.743 L57.9991 632.841 Z" fill="#000000" fill-rule="evenodd" fill-opacity="1" /><path clip-path="url(#clip310)" d="M117.027 591.521 Q111.61 591.521 108.867 596.868 Q106.159 602.181 106.159 612.875 Q106.159 623.535 108.867 628.882 Q111.61 634.195 117.027 634.195 Q122.478 634.195 125.186 628.882 Q127.929 623.535 127.929 612.875 Q127.929 602.181 125.186 596.868 Q122.478 591.521 117.027 591.521 M117.027 585.966 Q125.742 585.966 130.325 592.875 Q134.943 599.75 134.943 612.875 Q134.943 625.966 130.325 632.875 Q125.742 639.75 117.027 639.75 Q108.311 639.75 103.693 632.875 Q99.11 625.966 99.11 612.875 Q99.11 599.75 103.693 592.875 Q108.311 585.966 117.027 585.966 Z" fill="#000000" fill-rule="evenodd" fill-opacity="1" /><path clip-path="url(#clip310)" d="M134.943 577.118 L171.11 577.118 L171.11 581.914 L134.943 581.914 L134.943 577.118 Z" fill="#000000" fill-rule="evenodd" fill-opacity="1" /><path clip-path="url(#clip310)" d="M184.398 592.832 L193.708 592.832 L193.708 560.699 L183.58 562.73 L183.58 557.539 L193.652 555.508 L199.35 555.508 L199.35 592.832 L208.66 592.832 L208.66 597.628 L184.398 597.628 L184.398 592.832 Z" fill="#000000" fill-rule="evenodd" fill-opacity="1" /><path clip-path="url(#clip310)" d="M232.358 559.26 Q227.957 559.26 225.728 563.604 Q223.528 567.921 223.528 576.61 Q223.528 585.271 225.728 589.616 Q227.957 593.932 232.358 593.932 Q236.787 593.932 238.988 589.616 Q241.216 585.271 241.216 576.61 Q241.216 567.921 238.988 563.604 Q236.787 559.26 232.358 559.26 M232.358 554.746 Q239.439 554.746 243.163 560.36 Q246.915 565.946 246.915 576.61 Q246.915 587.246 243.163 592.86 Q239.439 598.446 232.358 598.446 Q225.277 598.446 221.525 592.86 Q217.801 587.246 217.801 576.61 Q217.801 565.946 221.525 560.36 Q225.277 554.746 232.358 554.746 Z" fill="#000000" fill-rule="evenodd" fill-opacity="1" /><path clip-path="url(#clip310)" d="M95.972 373.046 L107.43 373.046 L107.43 333.497 L94.965 335.997 L94.965 329.608 L107.361 327.108 L114.375 327.108 L114.375 373.046 L125.833 373.046 L125.833 378.948 L95.972 378.948 L95.972 373.046 Z" fill="#000000" fill-rule="evenodd" fill-opacity="1" /><path clip-path="url(#clip310)" d="M154.999 331.726 Q149.583 331.726 146.84 337.073 Q144.131 342.386 144.131 353.08 Q144.131 363.74 146.84 369.087 Q149.583 374.4 154.999 374.4 Q160.451 374.4 163.159 369.087 Q165.902 363.74 165.902 353.08 Q165.902 342.386 163.159 337.073 Q160.451 331.726 154.999 331.726 M154.999 326.171 Q163.715 326.171 168.298 333.08 Q172.916 339.955 172.916 353.08 Q172.916 366.171 168.298 373.08 Q163.715 379.955 154.999 379.955 Q146.284 379.955 141.666 373.08 Q137.083 366.171 137.083 353.08 Q137.083 339.955 141.666 333.08 Q146.284 326.171 154.999 326.171 Z" fill="#000000" fill-rule="evenodd" fill-opacity="1" /><path clip-path="url(#clip310)" d="M172.916 317.323 L209.083 317.323 L209.083 322.119 L172.916 322.119 L172.916 317.323 Z" fill="#000000" fill-rule="evenodd" fill-opacity="1" /><path clip-path="url(#clip310)" d="M221.44 295.713 L243.812 295.713 L243.812 300.509 L226.659 300.509 L226.659 310.834 Q227.9 310.411 229.142 310.213 Q230.383 309.988 231.624 309.988 Q238.677 309.988 242.796 313.853 Q246.915 317.718 246.915 324.319 Q246.915 331.118 242.683 334.899 Q238.452 338.651 230.75 338.651 Q228.098 338.651 225.333 338.199 Q222.597 337.748 219.663 336.845 L219.663 331.118 Q222.202 332.501 224.91 333.178 Q227.618 333.855 230.637 333.855 Q235.518 333.855 238.367 331.288 Q241.216 328.72 241.216 324.319 Q241.216 319.918 238.367 317.351 Q235.518 314.784 230.637 314.784 Q228.352 314.784 226.067 315.292 Q223.81 315.799 221.44 316.871 L221.44 295.713 Z" fill="#000000" fill-rule="evenodd" fill-opacity="1" /><path clip-path="url(#clip310)" d="M140.857 113.251 L152.315 113.251 L152.315 73.7021 L139.85 76.2021 L139.85 69.8133 L152.246 67.3133 L159.259 67.3133 L159.259 113.251 L170.718 113.251 L170.718 119.153 L140.857 119.153 L140.857 113.251 Z" fill="#000000" fill-rule="evenodd" fill-opacity="1" /><path clip-path="url(#clip310)" d="M199.884 71.9313 Q194.468 71.9313 191.724 77.2785 Q189.016 82.591 189.016 93.2854 Q189.016 103.945 191.724 109.292 Q194.468 114.605 199.884 114.605 Q205.336 114.605 208.044 109.292 Q210.787 103.945 210.787 93.2854 Q210.787 82.591 208.044 77.2785 Q205.336 71.9313 199.884 71.9313 M199.884 66.3758 Q208.599 66.3758 213.183 73.2855 Q217.801 80.1604 217.801 93.2854 Q217.801 106.376 213.183 113.285 Q208.599 120.16 199.884 120.16 Q191.169 120.16 186.551 113.285 Q181.968 106.376 181.968 93.2854 Q181.968 80.1604 186.551 73.2855 Q191.169 66.3758 199.884 66.3758 Z" fill="#000000" fill-rule="evenodd" fill-opacity="1" /><path clip-path="url(#clip310)" d="M232.358 39.6698 Q227.957 39.6698 225.728 44.0144 Q223.528 48.3308 223.528 57.02 Q223.528 65.681 225.728 70.0256 Q227.957 74.342 232.358 74.342 Q236.787 74.342 238.988 70.0256 Q241.216 65.681 241.216 57.02 Q241.216 48.3308 238.988 44.0144 Q236.787 39.6698 232.358 39.6698 M232.358 35.156 Q239.439 35.156 243.163 40.7701 Q246.915 46.356 246.915 57.02 Q246.915 67.6558 243.163 73.2699 Q239.439 78.8558 232.358 78.8558 Q225.277 78.8558 221.525 73.2699 Q217.801 67.6558 217.801 57.02 Q217.801 46.356 221.525 40.7701 Q225.277 35.156 232.358 35.156 Z" fill="#000000" fill-rule="evenodd" fill-opacity="1" /><polyline clip-path="url(#clip312)" style="stroke:#000000; stroke-linecap:round; stroke-linejoin:round; stroke-width:16; stroke-opacity:1; fill:none" stroke-dasharray="8, 16" points="
  1127.63,4327.39 1119.25,4333.58 1110.88,4335.81 1102.5,4331.55 1094.12,4318.71 1085.75,4296.14 1077.37,4263.76 1069,4222.52 1060.62,4174.11 1052.25,4120.53 
  1043.87,4063.71 1035.49,4005.26 1027.12,3946.29 1018.74,3887.46 1010.37,3829.03 1001.99,3771.05 993.615,3713.37 985.239,3655.86 976.863,3598.36 968.487,3540.76 
  960.111,3483.02 951.735,3425.13 943.36,3367.16 934.984,3309.19 926.608,3251.33 918.232,3193.71 909.856,3136.44 901.48,3079.6 893.104,3023.23 884.729,2967.24 
  876.353,2911.39 867.977,2855.4 859.601,2798.73 851.225,2739.2 842.849,2674.86 834.473,2604.04 826.098,2525.76 817.722,2438.93 809.346,2344.46 800.97,2244.44 
  792.594,2141.15 784.218,2036.45 775.842,1931.66 767.467,1827.66 759.091,1725.49 750.715,1626.31 742.339,1530.39 733.963,1437.83 725.587,1348.65 717.211,1262.8 
  708.836,1180.21 700.46,1100.78 692.084,1024.42 683.708,950.997 675.332,880.508 666.956,812.787 658.58,747.846 650.205,685.566 641.829,625.937 633.453,568.957 
  625.077,514.639 616.701,463.017 608.325,414.217 599.949,368.444 591.574,326.022 583.198,287.483 574.822,253.685 566.446,225.559 558.07,203.542 549.694,186.937 
  541.318,174.398 532.943,164.703 524.567,156.917 516.191,150.445 507.815,144.513 499.439,135.122 491.063,122.059 482.687,108.202 474.312,97.1188 465.936,90.2797 
  457.56,86.7521 449.184,85.0798 440.808,84.3028 432.432,83.9376 424.056,83.7617 415.681,83.6742 407.305,83.6336 398.929,83.617 390.553,83.6075 382.177,83.6011 
  373.801,83.5966 365.425,83.5932 357.05,83.5907 348.674,83.5889 340.298,83.5878 331.922,83.5874 323.546,83.5871 315.17,83.5869 306.794,83.5866 298.419,83.5864 
  290.043,83.5863 
  "/>
<polyline clip-path="url(#clip312)" style="stroke:#000000; stroke-linecap:round; stroke-linejoin:round; stroke-width:16; stroke-opacity:1; fill:none" stroke-dasharray="64, 40" points="
  1127.63,3653.96 1119.25,3616.83 1110.88,3575.4 1102.5,3529.36 1094.12,3478.48 1085.75,3422.63 1077.37,3361.76 1069,3295.88 1060.62,3225.02 1052.25,3149.26 
  1043.87,3068.66 1035.49,2983.28 1027.12,2893.18 1018.74,2798.35 1010.37,2698.75 1001.99,2594.27 993.615,2484.7 985.239,2369.74 976.863,2248.93 968.487,2121.63 
  960.111,1986.96 951.735,1843.71 943.36,1690.23 934.984,1524.26 926.608,1342.73 918.232,1141.61 909.856,916.321 901.48,665.004 893.104,402.853 884.729,201.58 
  876.353,129.108 867.977,103.087 859.601,91.6577 851.225,86.9821 842.849,85.1181 834.473,84.3464 826.098,84.0698 817.722,83.9551 809.346,83.8856 800.97,83.8378 
  792.594,83.8026 784.218,83.7754 775.842,83.7537 767.467,83.7359 759.091,83.7211 750.715,83.7085 742.339,83.6977 733.963,83.6883 725.587,83.6801 717.211,83.6728 
  708.836,83.6663 700.46,83.6605 692.084,83.6553 683.708,83.6505 675.332,83.6462 666.956,83.6422 658.58,83.6385 650.205,83.6352 641.829,83.6321 633.453,83.6292 
  625.077,83.6265 616.701,83.6241 608.325,83.6217 599.949,83.6196 591.574,83.6175 583.198,83.6156 574.822,83.6138 566.446,83.6121 558.07,83.6105 549.694,83.609 
  541.318,83.6075 532.943,83.6062 524.567,83.6049 516.191,83.6037 507.815,83.6025 499.439,83.6014 491.063,83.6003 482.687,83.5993 474.312,83.5984 465.936,83.5975 
  457.56,83.5966 449.184,83.5957 440.808,83.5949 432.432,83.5942 424.056,83.5934 415.681,83.5927 407.305,83.5921 398.929,83.5914 390.553,83.5908 382.177,83.5902 
  373.801,83.5897 365.425,83.5892 357.05,83.5887 348.674,83.5882 340.298,83.5878 331.922,83.5875 323.546,83.5872 315.17,83.587 306.794,83.5867 298.419,83.5865 
  290.043,83.5863 
  "/>
<polyline clip-path="url(#clip312)" style="stroke:#e38512; stroke-linecap:round; stroke-linejoin:round; stroke-width:16; stroke-opacity:1; fill:none" stroke-dasharray="8, 16" points="
  1127.63,7690.02 1119.25,7690.88 1110.88,7687.67 1102.5,7677.85 1094.12,7659.34 1085.75,7630.97 1077.37,7592.67 1069,7545.38 1060.62,7490.78 1052.25,7430.85 
  1043.87,7367.54 1035.49,7302.42 1027.12,7236.61 1018.74,7170.75 1010.37,7105.11 1001.99,7039.7 993.615,6974.4 985.239,6909.03 976.863,6843.45 968.487,6777.53 
  960.111,6711.21 951.735,6644.49 943.36,6577.41 934.984,6510.03 926.608,6442.46 918.232,6374.8 909.856,6307.16 901.48,6239.59 893.104,6172.11 884.729,6104.6 
  876.353,6036.8 867.977,5968.2 859.601,5897.94 851.225,5824.72 842.849,5746.74 834.473,5661.91 826.098,5568.43 817.722,5465.69 809.346,5354.66 800.97,5237.4 
  792.594,5116.16 784.218,4992.72 775.842,4868.34 767.467,4743.82 759.091,4619.65 750.715,4496.09 742.339,4373.31 733.963,4251.37 725.587,4130.29 717.211,4010.05 
  708.836,3890.6 700.46,3771.87 692.084,3653.78 683.708,3536.23 675.332,3419.11 666.956,3302.28 658.58,3185.61 650.205,3068.92 641.829,2952.02 633.453,2834.68 
  625.077,2716.65 616.701,2597.62 608.325,2477.23 599.949,2355.02 591.574,2230.48 583.198,2102.96 574.822,1971.68 566.446,1835.65 558.07,1693.71 549.694,1544.41 
  541.318,1386.05 532.943,1216.71 524.567,1034.59 516.191,838.857 507.815,632.079 499.439,425.87 491.063,249.902 482.687,147.31 474.312,109.359 465.936,94.8514 
  457.56,88.6757 449.184,85.9554 440.808,84.7256 432.432,84.1528 424.056,83.8772 415.681,83.7399 407.305,83.6764 398.929,83.6505 390.553,83.6355 382.177,83.6255 
  373.801,83.6185 365.425,83.6132 357.05,83.6094 348.674,83.6066 340.298,83.6049 331.922,83.6037 323.546,83.6027 315.17,83.6019 306.794,83.6011 298.419,83.6005 
  290.043,83.6 
  "/>
<polyline clip-path="url(#clip312)" style="stroke:#e38512; stroke-linecap:round; stroke-linejoin:round; stroke-width:16; stroke-opacity:1; fill:none" stroke-dasharray="64, 40" points="
  1127.63,6706.69 1119.25,6648.79 1110.88,6585.43 1102.5,6516.17 1094.12,6440.68 1085.75,6358.71 1077.37,6270.03 1069,6174.49 1060.62,6071.9 1052.25,5962.1 
  1043.87,5844.89 1035.49,5719.99 1027.12,5587.08 1018.74,5445.71 1010.37,5295.31 1001.99,5135.14 993.615,4964.24 985.239,4781.38 976.863,4585.01 968.487,4373.11 
  960.111,4143.1 951.735,3891.62 943.36,3614.3 934.984,3305.34 926.608,2957.09 918.232,2559.65 909.856,2101.64 901.48,1576.46 893.104,1006.25 884.729,488.331 
  876.353,183.293 867.977,108.914 859.601,92.6187 851.225,87.2652 842.849,85.2519 834.473,84.4276 826.098,84.1523 817.722,84.0247 809.346,83.9461 800.97,83.8918 
  792.594,83.8517 784.218,83.8208 775.842,83.796 767.467,83.7758 759.091,83.7589 750.715,83.7446 742.339,83.7322 733.963,83.7215 725.587,83.7121 717.211,83.7037 
  708.836,83.6963 700.46,83.6896 692.084,83.6836 683.708,83.6781 675.332,83.6731 666.956,83.6686 658.58,83.6644 650.205,83.6605 641.829,83.6569 633.453,83.6536 
  625.077,83.6505 616.701,83.6476 608.325,83.6449 599.949,83.6423 591.574,83.64 583.198,83.6377 574.822,83.6356 566.446,83.6336 558.07,83.6317 549.694,83.63 
  541.318,83.6283 532.943,83.6267 524.567,83.6251 516.191,83.6237 507.815,83.6223 499.439,83.621 491.063,83.6197 482.687,83.6185 474.312,83.6173 465.936,83.6163 
  457.56,83.6152 449.184,83.6142 440.808,83.6132 432.432,83.6123 424.056,83.6114 415.681,83.6105 407.305,83.6097 398.929,83.6089 390.553,83.6082 382.177,83.6075 
  373.801,83.6067 365.425,83.6061 357.05,83.6054 348.674,83.6048 340.298,83.6042 331.922,83.6036 323.546,83.6031 315.17,83.6026 306.794,83.6021 298.419,83.6016 
  290.043,83.6011 
  "/>
<polyline clip-path="url(#clip312)" style="stroke:#7a4c8f; stroke-linecap:round; stroke-linejoin:round; stroke-width:16; stroke-opacity:1; fill:none" stroke-dasharray="8, 16" points="
  1127.63,2230.05 1119.25,2240.21 1110.88,2246.5 1102.5,2246.42 1094.12,2237.88 1085.75,2219.72 1077.37,2191.88 1069,2155.32 1060.62,2111.71 1052.25,2063.07 
  1043.87,2011.33 1035.49,1958.1 1027.12,1904.49 1018.74,1851.18 1010.37,1798.44 1001.99,1746.35 993.615,1700.69 985.239,1664.04 976.863,1634.75 968.487,1611.36 
  960.111,1592.4 951.735,1576.38 943.36,1561.76 934.984,1547.03 926.608,1530.61 918.232,1511.26 909.856,1487.73 901.48,1459.18 893.104,1424.65 884.729,1383.76 
  876.353,1336 867.977,1281.3 859.601,1220.04 851.225,1152.97 842.849,1081.45 834.473,1007.4 826.098,932.887 817.722,859.773 809.346,789.385 800.97,722.455 
  792.594,659.408 784.218,600.429 775.842,545.504 767.467,494.597 759.091,447.708 750.715,404.758 742.339,365.712 733.963,330.649 725.587,299.629 717.211,272.799 
  708.836,250.276 700.46,231.887 692.084,217.128 683.708,205.302 675.332,195.777 666.956,187.962 658.58,181.383 650.205,175.765 641.829,170.86 633.453,166.516 
  625.077,162.605 616.701,159.041 608.325,155.754 599.949,152.694 591.574,149.827 583.198,147.119 574.822,144.528 566.446,142.048 558.07,139.649 549.694,137.325 
  541.318,135.065 532.943,132.843 524.567,130.662 516.191,128.508 507.815,126.322 499.439,122.037 491.063,114.087 482.687,103.929 474.312,95.002 465.936,89.2835 
  457.56,86.2921 449.184,84.8647 440.808,84.1991 432.432,83.8855 424.056,83.7343 415.681,83.6589 407.305,83.6242 398.929,83.6102 390.553,83.602 382.177,83.5966 
  373.801,83.5927 365.425,83.5899 357.05,83.5878 348.674,83.5863 340.298,83.5854 331.922,83.5851 323.546,83.5849 315.17,83.5848 306.794,83.5847 298.419,83.5846 
  290.043,83.5845 
  "/>
<polyline clip-path="url(#clip312)" style="stroke:#7a4c8f; stroke-linecap:round; stroke-linejoin:round; stroke-width:16; stroke-opacity:1; fill:none" stroke-dasharray="64, 40" points="
  1127.63,1743.48 1119.25,1720.67 1110.88,1694.47 1102.5,1664.67 1094.12,1631.13 1085.75,1593.85 1077.37,1552.89 1069,1508.41 1060.62,1460.58 1052.25,1409.66 
  1043.87,1355.91 1035.49,1299.62 1027.12,1241.09 1018.74,1180.61 1010.37,1118.48 1001.99,1054.98 993.615,990.357 985.239,924.847 976.863,858.625 968.487,791.805 
  960.111,724.412 951.735,656.34 943.36,587.303 934.984,516.773 926.608,443.968 918.232,368.169 909.856,290.474 901.48,219.188 893.104,167.567 884.729,132.76 
  876.353,108.66 867.977,94.6434 859.601,88.1689 851.225,85.5314 842.849,84.4726 834.473,84.03 826.098,83.8821 817.722,83.8132 809.346,83.7707 800.97,83.7413 
  792.594,83.7196 784.218,83.7028 775.842,83.6894 767.467,83.6784 759.091,83.6692 750.715,83.6614 742.339,83.6547 733.963,83.6489 725.587,83.6438 717.211,83.6392 
  708.836,83.6352 700.46,83.6316 692.084,83.6283 683.708,83.6253 675.332,83.6226 666.956,83.6201 658.58,83.6178 650.205,83.6157 641.829,83.6138 633.453,83.6119 
  625.077,83.6103 616.701,83.6087 608.325,83.6072 599.949,83.6058 591.574,83.6045 583.198,83.6033 574.822,83.6022 566.446,83.6011 558.07,83.6001 549.694,83.5991 
  541.318,83.5982 532.943,83.5973 524.567,83.5965 516.191,83.5957 507.815,83.5949 499.439,83.5942 491.063,83.5935 482.687,83.5929 474.312,83.5923 465.936,83.5917 
  457.56,83.5911 449.184,83.5905 440.808,83.59 432.432,83.5895 424.056,83.589 415.681,83.5886 407.305,83.5881 398.929,83.5877 390.553,83.5873 382.177,83.587 
  373.801,83.5866 365.425,83.5863 357.05,83.586 348.674,83.5857 340.298,83.5855 331.922,83.5853 323.546,83.5851 315.17,83.5849 306.794,83.5848 298.419,83.5847 
  290.043,83.5846 
  "/>
</svg>
