<?xml version="1.0" encoding="utf-8"?>
<svg xmlns="http://www.w3.org/2000/svg" xmlns:xlink="http://www.w3.org/1999/xlink" width="325" height="200" viewBox="0 0 1300 800">
<defs>
  <clipPath id="clip690">
    <rect x="0" y="0" width="1300" height="800"/>
  </clipPath>
</defs>
<path clip-path="url(#clip690)" d="
M0 800 L1300 800 L1300 0 L0 0  Z
  " fill="#ffffff" fill-rule="evenodd" fill-opacity="1"/>
<defs>
  <clipPath id="clip691">
    <rect x="260" y="0" width="911" height="800"/>
  </clipPath>
</defs>
<path clip-path="url(#clip690)" d="
M297.569 673.18 L1252.76 673.18 L1252.76 47.2441 L297.569 47.2441  Z
  " fill="#ffffff" fill-rule="evenodd" fill-opacity="1"/>
<defs>
  <clipPath id="clip692">
    <rect x="297" y="47" width="956" height="627"/>
  </clipPath>
</defs>
<polyline clip-path="url(#clip690)" style="stroke:#000000; stroke-linecap:butt; stroke-linejoin:round; stroke-width:4; stroke-opacity:1; fill:none" points="
  297.569,673.18 1252.76,673.18 
  "/>
<polyline clip-path="url(#clip690)" style="stroke:#000000; stroke-linecap:butt; stroke-linejoin:round; stroke-width:4; stroke-opacity:1; fill:none" points="
  324.603,673.18 324.603,654.283 
  "/>
<polyline clip-path="url(#clip690)" style="stroke:#000000; stroke-linecap:butt; stroke-linejoin:round; stroke-width:4; stroke-opacity:1; fill:none" points="
  549.883,673.18 549.883,654.283 
  "/>
<polyline clip-path="url(#clip690)" style="stroke:#000000; stroke-linecap:butt; stroke-linejoin:round; stroke-width:4; stroke-opacity:1; fill:none" points="
  775.162,673.18 775.162,654.283 
  "/>
<polyline clip-path="url(#clip690)" style="stroke:#000000; stroke-linecap:butt; stroke-linejoin:round; stroke-width:4; stroke-opacity:1; fill:none" points="
  1000.44,673.18 1000.44,654.283 
  "/>
<polyline clip-path="url(#clip690)" style="stroke:#000000; stroke-linecap:butt; stroke-linejoin:round; stroke-width:4; stroke-opacity:1; fill:none" points="
  1225.72,673.18 1225.72,654.283 
  "/>
<path clip-path="url(#clip690)" d="M258.634 704.088 Q252.314 704.088 249.114 710.326 Q245.954 716.524 245.954 729.001 Q245.954 741.437 249.114 747.676 Q252.314 753.873 258.634 753.873 Q264.994 753.873 268.153 747.676 Q271.353 741.437 271.353 729.001 Q271.353 716.524 268.153 710.326 Q264.994 704.088 258.634 704.088 M258.634 697.606 Q268.801 697.606 274.149 705.668 Q279.536 713.689 279.536 729.001 Q279.536 744.273 274.149 752.334 Q268.801 760.355 258.634 760.355 Q248.466 760.355 243.078 752.334 Q237.731 744.273 237.731 729.001 Q237.731 713.689 243.078 705.668 Q248.466 697.606 258.634 697.606 Z" fill="#000000" fill-rule="evenodd" fill-opacity="1" /><path clip-path="url(#clip690)" d="M293.917 748.891 L302.464 748.891 L302.464 759.18 L293.917 759.18 L293.917 748.891 Z" fill="#000000" fill-rule="evenodd" fill-opacity="1" /><path clip-path="url(#clip690)" d="M337.788 704.088 Q331.469 704.088 328.269 710.326 Q325.109 716.524 325.109 729.001 Q325.109 741.437 328.269 747.676 Q331.469 753.873 337.788 753.873 Q344.148 753.873 347.308 747.676 Q350.508 741.437 350.508 729.001 Q350.508 716.524 347.308 710.326 Q344.148 704.088 337.788 704.088 M337.788 697.606 Q347.956 697.606 353.303 705.668 Q358.691 713.689 358.691 729.001 Q358.691 744.273 353.303 752.334 Q347.956 760.355 337.788 760.355 Q327.621 760.355 322.233 752.334 Q316.886 744.273 316.886 729.001 Q316.886 713.689 322.233 705.668 Q327.621 697.606 337.788 697.606 Z" fill="#000000" fill-rule="evenodd" fill-opacity="1" /><path clip-path="url(#clip690)" d="M390.572 704.088 Q384.252 704.088 381.052 710.326 Q377.892 716.524 377.892 729.001 Q377.892 741.437 381.052 747.676 Q384.252 753.873 390.572 753.873 Q396.931 753.873 400.091 747.676 Q403.291 741.437 403.291 729.001 Q403.291 716.524 400.091 710.326 Q396.931 704.088 390.572 704.088 M390.572 697.606 Q400.739 697.606 406.087 705.668 Q411.474 713.689 411.474 729.001 Q411.474 744.273 406.087 752.334 Q400.739 760.355 390.572 760.355 Q380.404 760.355 375.016 752.334 Q369.669 744.273 369.669 729.001 Q369.669 713.689 375.016 705.668 Q380.404 697.606 390.572 697.606 Z" fill="#000000" fill-rule="evenodd" fill-opacity="1" /><path clip-path="url(#clip690)" d="M484.784 704.088 Q478.465 704.088 475.265 710.326 Q472.105 716.524 472.105 729.001 Q472.105 741.437 475.265 747.676 Q478.465 753.873 484.784 753.873 Q491.144 753.873 494.304 747.676 Q497.504 741.437 497.504 729.001 Q497.504 716.524 494.304 710.326 Q491.144 704.088 484.784 704.088 M484.784 697.606 Q494.952 697.606 500.299 705.668 Q505.687 713.689 505.687 729.001 Q505.687 744.273 500.299 752.334 Q494.952 760.355 484.784 760.355 Q474.617 760.355 469.229 752.334 Q463.882 744.273 463.882 729.001 Q463.882 713.689 469.229 705.668 Q474.617 697.606 484.784 697.606 Z" fill="#000000" fill-rule="evenodd" fill-opacity="1" /><path clip-path="url(#clip690)" d="M520.068 748.891 L528.615 748.891 L528.615 759.18 L520.068 759.18 L520.068 748.891 Z" fill="#000000" fill-rule="evenodd" fill-opacity="1" /><path clip-path="url(#clip690)" d="M553.488 752.294 L582.047 752.294 L582.047 759.18 L543.644 759.18 L543.644 752.294 Q548.303 747.473 556.323 739.371 Q564.385 731.229 566.451 728.879 Q570.38 724.464 571.919 721.426 Q573.499 718.347 573.499 715.39 Q573.499 710.569 570.097 707.531 Q566.734 704.493 561.306 704.493 Q557.458 704.493 553.164 705.83 Q548.91 707.167 544.049 709.881 L544.049 701.617 Q548.991 699.632 553.285 698.619 Q557.579 697.606 561.144 697.606 Q570.542 697.606 576.132 702.305 Q581.723 707.005 581.723 714.863 Q581.723 718.59 580.305 721.952 Q578.927 725.274 575.241 729.811 Q574.228 730.986 568.8 736.617 Q563.372 742.207 553.488 752.294 Z" fill="#000000" fill-rule="evenodd" fill-opacity="1" /><path clip-path="url(#clip690)" d="M599.304 698.7 L631.427 698.7 L631.427 705.587 L606.798 705.587 L606.798 720.413 Q608.58 719.805 610.363 719.522 Q612.145 719.198 613.927 719.198 Q624.055 719.198 629.969 724.747 Q635.883 730.297 635.883 739.776 Q635.883 749.539 629.807 754.967 Q623.73 760.355 612.672 760.355 Q608.864 760.355 604.894 759.707 Q600.964 759.059 596.751 757.762 L596.751 749.539 Q600.397 751.524 604.286 752.496 Q608.175 753.468 612.509 753.468 Q619.518 753.468 623.609 749.782 Q627.7 746.096 627.7 739.776 Q627.7 733.457 623.609 729.771 Q619.518 726.084 612.509 726.084 Q609.228 726.084 605.947 726.813 Q602.706 727.543 599.304 729.082 L599.304 698.7 Z" fill="#000000" fill-rule="evenodd" fill-opacity="1" /><path clip-path="url(#clip690)" d="M709.193 704.088 Q702.874 704.088 699.674 710.326 Q696.514 716.524 696.514 729.001 Q696.514 741.437 699.674 747.676 Q702.874 753.873 709.193 753.873 Q715.553 753.873 718.713 747.676 Q721.913 741.437 721.913 729.001 Q721.913 716.524 718.713 710.326 Q715.553 704.088 709.193 704.088 M709.193 697.606 Q719.361 697.606 724.708 705.668 Q730.096 713.689 730.096 729.001 Q730.096 744.273 724.708 752.334 Q719.361 760.355 709.193 760.355 Q699.026 760.355 693.638 752.334 Q688.291 744.273 688.291 729.001 Q688.291 713.689 693.638 705.668 Q699.026 697.606 709.193 697.606 Z" fill="#000000" fill-rule="evenodd" fill-opacity="1" /><path clip-path="url(#clip690)" d="M744.477 748.891 L753.024 748.891 L753.024 759.18 L744.477 759.18 L744.477 748.891 Z" fill="#000000" fill-rule="evenodd" fill-opacity="1" /><path clip-path="url(#clip690)" d="M770.929 698.7 L803.053 698.7 L803.053 705.587 L778.423 705.587 L778.423 720.413 Q780.206 719.805 781.988 719.522 Q783.771 719.198 785.553 719.198 Q795.68 719.198 801.595 724.747 Q807.509 730.297 807.509 739.776 Q807.509 749.539 801.433 754.967 Q795.356 760.355 784.297 760.355 Q780.489 760.355 776.52 759.707 Q772.59 759.059 768.377 757.762 L768.377 749.539 Q772.023 751.524 775.912 752.496 Q779.801 753.468 784.135 753.468 Q791.143 753.468 795.235 749.782 Q799.326 746.096 799.326 739.776 Q799.326 733.457 795.235 729.771 Q791.143 726.084 784.135 726.084 Q780.854 726.084 777.573 726.813 Q774.332 727.543 770.929 729.082 L770.929 698.7 Z" fill="#000000" fill-rule="evenodd" fill-opacity="1" /><path clip-path="url(#clip690)" d="M841.131 704.088 Q834.812 704.088 831.612 710.326 Q828.452 716.524 828.452 729.001 Q828.452 741.437 831.612 747.676 Q834.812 753.873 841.131 753.873 Q847.491 753.873 850.651 747.676 Q853.851 741.437 853.851 729.001 Q853.851 716.524 850.651 710.326 Q847.491 704.088 841.131 704.088 M841.131 697.606 Q851.299 697.606 856.646 705.668 Q862.034 713.689 862.034 729.001 Q862.034 744.273 856.646 752.334 Q851.299 760.355 841.131 760.355 Q830.964 760.355 825.576 752.334 Q820.229 744.273 820.229 729.001 Q820.229 713.689 825.576 705.668 Q830.964 697.606 841.131 697.606 Z" fill="#000000" fill-rule="evenodd" fill-opacity="1" /><path clip-path="url(#clip690)" d="M935.344 704.088 Q929.025 704.088 925.825 710.326 Q922.665 716.524 922.665 729.001 Q922.665 741.437 925.825 747.676 Q929.025 753.873 935.344 753.873 Q941.704 753.873 944.864 747.676 Q948.064 741.437 948.064 729.001 Q948.064 716.524 944.864 710.326 Q941.704 704.088 935.344 704.088 M935.344 697.606 Q945.512 697.606 950.859 705.668 Q956.247 713.689 956.247 729.001 Q956.247 744.273 950.859 752.334 Q945.512 760.355 935.344 760.355 Q925.177 760.355 919.789 752.334 Q914.442 744.273 914.442 729.001 Q914.442 713.689 919.789 705.668 Q925.177 697.606 935.344 697.606 Z" fill="#000000" fill-rule="evenodd" fill-opacity="1" /><path clip-path="url(#clip690)" d="M970.628 748.891 L979.175 748.891 L979.175 759.18 L970.628 759.18 L970.628 748.891 Z" fill="#000000" fill-rule="evenodd" fill-opacity="1" /><path clip-path="url(#clip690)" d="M994.933 698.7 L1033.82 698.7 L1033.82 702.184 L1011.87 759.18 L1003.32 759.18 L1023.98 705.587 L994.933 705.587 L994.933 698.7 Z" fill="#000000" fill-rule="evenodd" fill-opacity="1" /><path clip-path="url(#clip690)" d="M1049.86 698.7 L1081.99 698.7 L1081.99 705.587 L1057.36 705.587 L1057.36 720.413 Q1059.14 719.805 1060.92 719.522 Q1062.7 719.198 1064.49 719.198 Q1074.61 719.198 1080.53 724.747 Q1086.44 730.297 1086.44 739.776 Q1086.44 749.539 1080.37 754.967 Q1074.29 760.355 1063.23 760.355 Q1059.42 760.355 1055.45 759.707 Q1051.52 759.059 1047.31 757.762 L1047.31 749.539 Q1050.96 751.524 1054.85 752.496 Q1058.73 753.468 1063.07 753.468 Q1070.08 753.468 1074.17 749.782 Q1078.26 746.096 1078.26 739.776 Q1078.26 733.457 1074.17 729.771 Q1070.08 726.084 1063.07 726.084 Q1059.79 726.084 1056.51 726.813 Q1053.27 727.543 1049.86 729.082 L1049.86 698.7 Z" fill="#000000" fill-rule="evenodd" fill-opacity="1" /><path clip-path="url(#clip690)" d="M1141.85 752.294 L1155.22 752.294 L1155.22 706.154 L1140.67 709.07 L1140.67 701.617 L1155.14 698.7 L1163.32 698.7 L1163.32 752.294 L1176.69 752.294 L1176.69 759.18 L1141.85 759.18 L1141.85 752.294 Z" fill="#000000" fill-rule="evenodd" fill-opacity="1" /><path clip-path="url(#clip690)" d="M1193.21 748.891 L1201.76 748.891 L1201.76 759.18 L1193.21 759.18 L1193.21 748.891 Z" fill="#000000" fill-rule="evenodd" fill-opacity="1" /><path clip-path="url(#clip690)" d="M1237.09 704.088 Q1230.77 704.088 1227.57 710.326 Q1224.41 716.524 1224.41 729.001 Q1224.41 741.437 1227.57 747.676 Q1230.77 753.873 1237.09 753.873 Q1243.45 753.873 1246.6 747.676 Q1249.8 741.437 1249.8 729.001 Q1249.8 716.524 1246.6 710.326 Q1243.45 704.088 1237.09 704.088 M1237.09 697.606 Q1247.25 697.606 1252.6 705.668 Q1257.99 713.689 1257.99 729.001 Q1257.99 744.273 1252.6 752.334 Q1247.25 760.355 1237.09 760.355 Q1226.92 760.355 1221.53 752.334 Q1216.18 744.273 1216.18 729.001 Q1216.18 713.689 1221.53 705.668 Q1226.92 697.606 1237.09 697.606 Z" fill="#000000" fill-rule="evenodd" fill-opacity="1" /><path clip-path="url(#clip690)" d="M1289.87 704.088 Q1283.55 704.088 1280.35 710.326 Q1277.19 716.524 1277.19 729.001 Q1277.19 741.437 1280.35 747.676 Q1283.55 753.873 1289.87 753.873 Q1296.23 753.873 1299.39 747.676 Q1302.59 741.437 1302.59 729.001 Q1302.59 716.524 1299.39 710.326 Q1296.23 704.088 1289.87 704.088 M1289.87 697.606 Q1300.04 697.606 1305.38 705.668 Q1310.77 713.689 1310.77 729.001 Q1310.77 744.273 1305.38 752.334 Q1300.04 760.355 1289.87 760.355 Q1279.7 760.355 1274.31 752.334 Q1268.97 744.273 1268.97 729.001 Q1268.97 713.689 1274.31 705.668 Q1279.7 697.606 1289.87 697.606 Z" fill="#000000" fill-rule="evenodd" fill-opacity="1" /><polyline clip-path="url(#clip690)" style="stroke:#000000; stroke-linecap:butt; stroke-linejoin:round; stroke-width:4; stroke-opacity:1; fill:none" points="
  297.569,673.18 297.569,47.2441 
  "/>
<polyline clip-path="url(#clip690)" style="stroke:#000000; stroke-linecap:butt; stroke-linejoin:round; stroke-width:4; stroke-opacity:1; fill:none" points="
  297.569,673.18 316.467,673.18 
  "/>
<polyline clip-path="url(#clip690)" style="stroke:#000000; stroke-linecap:butt; stroke-linejoin:round; stroke-width:4; stroke-opacity:1; fill:none" points="
  297.569,380.659 316.467,380.659 
  "/>
<polyline clip-path="url(#clip690)" style="stroke:#000000; stroke-linecap:butt; stroke-linejoin:round; stroke-width:4; stroke-opacity:1; fill:none" points="
  297.569,88.1369 316.467,88.1369 
  "/>
<path clip-path="url(#clip690)" d="M57.6669 707.817 L71.0349 707.817 L71.0349 661.677 L56.4921 664.594 L56.4921 657.14 L70.9539 654.223 L79.1367 654.223 L79.1367 707.817 L92.5047 707.817 L92.5047 714.703 L57.6669 714.703 L57.6669 707.817 Z" fill="#000000" fill-rule="evenodd" fill-opacity="1" /><path clip-path="url(#clip690)" d="M126.532 659.611 Q120.213 659.611 117.013 665.85 Q113.853 672.047 113.853 684.524 Q113.853 696.961 117.013 703.199 Q120.213 709.397 126.532 709.397 Q132.892 709.397 136.052 703.199 Q139.252 696.961 139.252 684.524 Q139.252 672.047 136.052 665.85 Q132.892 659.611 126.532 659.611 M126.532 653.13 Q136.7 653.13 142.047 661.191 Q147.435 669.212 147.435 684.524 Q147.435 699.796 142.047 707.857 Q136.7 715.878 126.532 715.878 Q116.364 715.878 110.977 707.857 Q105.63 699.796 105.63 684.524 Q105.63 669.212 110.977 661.191 Q116.364 653.13 126.532 653.13 Z" fill="#000000" fill-rule="evenodd" fill-opacity="1" /><path clip-path="url(#clip690)" d="M147.435 642.807 L189.63 642.807 L189.63 648.402 L147.435 648.402 L147.435 642.807 Z" fill="#000000" fill-rule="evenodd" fill-opacity="1" /><path clip-path="url(#clip690)" d="M205.132 661.14 L215.994 661.14 L215.994 623.651 L204.178 626.021 L204.178 619.965 L215.928 617.595 L222.577 617.595 L222.577 661.14 L233.438 661.14 L233.438 666.735 L205.132 666.735 L205.132 661.14 Z" fill="#000000" fill-rule="evenodd" fill-opacity="1" /><path clip-path="url(#clip690)" d="M261.086 621.973 Q255.951 621.973 253.351 627.041 Q250.784 632.077 250.784 642.215 Q250.784 652.319 253.351 657.388 Q255.951 662.424 261.086 662.424 Q266.253 662.424 268.82 657.388 Q271.42 652.319 271.42 642.215 Q271.42 632.077 268.82 627.041 Q266.253 621.973 261.086 621.973 M261.086 616.707 Q269.347 616.707 273.691 623.256 Q278.069 629.773 278.069 642.215 Q278.069 654.623 273.691 661.173 Q269.347 667.69 261.086 667.69 Q252.824 667.69 248.447 661.173 Q244.102 654.623 244.102 642.215 Q244.102 629.773 248.447 623.256 Q252.824 616.707 261.086 616.707 Z" fill="#000000" fill-rule="evenodd" fill-opacity="1" /><path clip-path="url(#clip690)" d="M101.969 415.295 L115.337 415.295 L115.337 369.155 L100.794 372.072 L100.794 364.618 L115.256 361.702 L123.438 361.702 L123.438 415.295 L136.806 415.295 L136.806 422.182 L101.969 422.182 L101.969 415.295 Z" fill="#000000" fill-rule="evenodd" fill-opacity="1" /><path clip-path="url(#clip690)" d="M170.834 367.09 Q164.515 367.09 161.314 373.328 Q158.155 379.526 158.155 392.003 Q158.155 404.439 161.314 410.677 Q164.515 416.875 170.834 416.875 Q177.194 416.875 180.354 410.677 Q183.554 404.439 183.554 392.003 Q183.554 379.526 180.354 373.328 Q177.194 367.09 170.834 367.09 M170.834 360.608 Q181.002 360.608 186.349 368.669 Q191.737 376.69 191.737 392.003 Q191.737 407.274 186.349 415.336 Q181.002 423.357 170.834 423.357 Q160.666 423.357 155.278 415.336 Q149.931 407.274 149.931 392.003 Q149.931 376.69 155.278 368.669 Q160.666 360.608 170.834 360.608 Z" fill="#000000" fill-rule="evenodd" fill-opacity="1" /><path clip-path="url(#clip690)" d="M191.737 350.285 L233.932 350.285 L233.932 355.881 L191.737 355.881 L191.737 350.285 Z" fill="#000000" fill-rule="evenodd" fill-opacity="1" /><path clip-path="url(#clip690)" d="M248.348 325.074 L274.448 325.074 L274.448 330.669 L254.437 330.669 L254.437 342.715 Q255.885 342.222 257.333 341.991 Q258.782 341.728 260.23 341.728 Q268.458 341.728 273.264 346.237 Q278.069 350.746 278.069 358.448 Q278.069 366.38 273.132 370.791 Q268.195 375.168 259.21 375.168 Q256.116 375.168 252.89 374.642 Q249.697 374.115 246.274 373.062 L246.274 366.38 Q249.237 367.993 252.396 368.783 Q255.556 369.573 259.078 369.573 Q264.772 369.573 268.096 366.578 Q271.42 363.583 271.42 358.448 Q271.42 353.313 268.096 350.318 Q264.772 347.323 259.078 347.323 Q256.412 347.323 253.746 347.916 Q251.113 348.508 248.348 349.759 L248.348 325.074 Z" fill="#000000" fill-rule="evenodd" fill-opacity="1" /><path clip-path="url(#clip690)" d="M154.334 122.774 L167.702 122.774 L167.702 76.6338 L153.159 79.5505 L153.159 72.0968 L167.621 69.1802 L175.804 69.1802 L175.804 122.774 L189.172 122.774 L189.172 129.66 L154.334 129.66 L154.334 122.774 Z" fill="#000000" fill-rule="evenodd" fill-opacity="1" /><path clip-path="url(#clip690)" d="M223.199 74.5679 Q216.88 74.5679 213.68 80.8063 Q210.52 87.0041 210.52 99.4809 Q210.52 111.917 213.68 118.156 Q216.88 124.353 223.199 124.353 Q229.559 124.353 232.719 118.156 Q235.919 111.917 235.919 99.4809 Q235.919 87.0041 232.719 80.8063 Q229.559 74.5679 223.199 74.5679 M223.199 68.0864 Q233.367 68.0864 238.714 76.1477 Q244.102 84.1685 244.102 99.4809 Q244.102 114.753 238.714 122.814 Q233.367 130.835 223.199 130.835 Q213.032 130.835 207.644 122.814 Q202.297 114.753 202.297 99.4809 Q202.297 84.1685 207.644 76.1477 Q213.032 68.0864 223.199 68.0864 Z" fill="#000000" fill-rule="evenodd" fill-opacity="1" /><path clip-path="url(#clip690)" d="M261.086 36.9295 Q255.951 36.9295 253.351 41.9982 Q250.784 47.0339 250.784 57.1713 Q250.784 67.2758 253.351 72.3445 Q255.951 77.3803 261.086 77.3803 Q266.253 77.3803 268.82 72.3445 Q271.42 67.2758 271.42 57.1713 Q271.42 47.0339 268.82 41.9982 Q266.253 36.9295 261.086 36.9295 M261.086 31.6633 Q269.347 31.6633 273.691 38.2131 Q278.069 44.73 278.069 57.1713 Q278.069 69.5798 273.691 76.1296 Q269.347 82.6465 261.086 82.6465 Q252.824 82.6465 248.447 76.1296 Q244.102 69.5798 244.102 57.1713 Q244.102 44.73 248.447 38.2131 Q252.824 31.6633 261.086 31.6633 Z" fill="#000000" fill-rule="evenodd" fill-opacity="1" /><polyline clip-path="url(#clip692)" style="stroke:#000000; stroke-linecap:butt; stroke-linejoin:round; stroke-width:16; stroke-opacity:1; fill:none" stroke-dasharray="8, 16" points="
  1225.72,4866.57 1216.71,4873.53 1207.7,4876.04 1198.69,4871.24 1189.68,4856.8 1180.67,4831.38 1171.66,4794.91 1162.64,4748.48 1153.63,4693.97 1144.62,4633.64 
  1135.61,4569.67 1126.6,4503.85 1117.59,4437.45 1108.58,4371.21 1099.57,4305.43 1090.55,4240.14 1081.54,4175.2 1072.53,4110.44 1063.52,4045.69 1054.51,3980.84 
  1045.5,3915.83 1036.49,3850.65 1027.48,3785.38 1018.46,3720.1 1009.45,3654.95 1000.44,3590.07 991.431,3525.58 982.42,3461.59 973.409,3398.12 964.398,3335.08 
  955.386,3272.19 946.375,3209.14 937.364,3145.34 928.353,3078.31 919.342,3005.86 910.33,2926.12 901.319,2837.98 892.308,2740.22 883.297,2633.84 874.286,2521.22 
  865.274,2404.92 856.263,2287.03 847.252,2169.04 838.241,2051.94 829.23,1936.9 820.218,1825.23 811.207,1717.22 802.196,1613 793.185,1512.59 784.174,1415.92 
  775.162,1322.93 766.151,1233.5 757.14,1147.51 748.129,1064.84 739.118,985.475 730.106,909.224 721.095,836.101 712.084,765.976 703.073,698.836 694.062,634.678 
  685.05,573.517 676.039,515.393 667.028,460.445 658.017,408.905 649.006,361.14 639.994,317.747 630.983,279.691 621.972,248.022 612.961,223.231 603.95,204.534 
  594.939,190.416 585.927,179.499 576.916,170.732 567.905,163.446 558.894,156.766 549.883,146.192 540.871,131.484 531.86,115.881 522.849,103.402 513.838,95.701 
  504.827,91.729 495.815,89.846 486.804,88.9711 477.793,88.56 468.782,88.3619 459.771,88.2633 450.759,88.2176 441.748,88.199 432.737,88.1882 423.726,88.1811 
  414.715,88.1759 405.703,88.1722 396.692,88.1693 387.681,88.1673 378.67,88.166 369.659,88.1656 360.647,88.1653 351.636,88.165 342.625,88.1647 333.614,88.1645 
  324.603,88.1643 
  "/>
<polyline clip-path="url(#clip692)" style="stroke:#000000; stroke-linecap:butt; stroke-linejoin:round; stroke-width:16; stroke-opacity:1; fill:none" stroke-dasharray="64, 40" points="
  1225.72,4108.31 1216.71,4066.49 1207.7,4019.85 1198.69,3968 1189.68,3910.71 1180.67,3847.83 1171.66,3779.3 1162.64,3705.12 1153.63,3625.33 1144.62,3540.02 
  1135.61,3449.27 1126.6,3353.14 1117.59,3251.68 1108.58,3144.91 1099.57,3032.76 1090.55,2915.12 1081.54,2791.75 1072.53,2662.31 1063.52,2526.28 1054.51,2382.95 
  1045.5,2231.31 1036.49,2070.02 1027.48,1897.2 1018.46,1710.32 1009.45,1505.92 1000.44,1279.47 991.431,1025.8 982.42,742.823 973.409,447.65 964.398,221.022 
  955.386,139.421 946.375,110.122 937.364,97.2525 928.353,91.9879 919.342,89.8892 910.33,89.0202 901.319,88.7088 892.308,88.5796 883.297,88.5014 874.286,88.4475 
  865.274,88.4079 856.263,88.3773 847.252,88.3528 838.241,88.3328 829.23,88.3162 820.218,88.302 811.207,88.2899 802.196,88.2793 793.185,88.27 784.174,88.2618 
  775.162,88.2545 766.151,88.2479 757.14,88.242 748.129,88.2366 739.118,88.2318 730.106,88.2273 721.095,88.2232 712.084,88.2194 703.073,88.2159 694.062,88.2127 
  685.05,88.2097 676.039,88.2069 667.028,88.2043 658.017,88.2018 649.006,88.1995 639.994,88.1974 630.983,88.1953 621.972,88.1934 612.961,88.1916 603.95,88.1899 
  594.939,88.1883 585.927,88.1868 576.916,88.1853 567.905,88.1839 558.894,88.1826 549.883,88.1814 540.871,88.1802 531.86,88.179 522.849,88.178 513.838,88.1769 
  504.827,88.1759 495.815,88.175 486.804,88.1741 477.793,88.1732 468.782,88.1724 459.771,88.1716 450.759,88.1709 441.748,88.1701 432.737,88.1695 423.726,88.1688 
  414.715,88.1682 405.703,88.1676 396.692,88.167 387.681,88.1666 378.67,88.1661 369.659,88.1657 360.647,88.1654 351.636,88.1651 342.625,88.1648 333.614,88.1646 
  324.603,88.1643 
  "/>
<polyline clip-path="url(#clip692)" style="stroke:#808080; stroke-linecap:butt; stroke-linejoin:round; stroke-width:16; stroke-opacity:1; fill:none" stroke-dasharray="8, 16" points="
  1225.72,6254.84 1216.71,6259.4 1207.7,6259.46 1198.69,6252.17 1189.68,6235.18 1180.67,6207.18 1171.66,6168.08 1162.64,6118.97 1153.63,6061.73 1144.62,5998.6 
  1135.61,5931.77 1126.6,5863.02 1117.59,5793.61 1108.58,5724.28 1099.57,5655.32 1090.55,5586.76 1081.54,5518.46 1072.53,5450.24 1063.52,5381.94 1054.51,5313.42 
  1045.5,5244.63 1036.49,5175.56 1027.48,5106.27 1018.46,5036.84 1009.45,4967.41 1000.44,4898.1 991.431,4829.03 982.42,4760.3 973.409,4691.9 964.398,4623.75 
  955.386,4555.56 946.375,4486.76 937.364,4416.41 928.353,4343.07 919.342,4264.72 910.33,4179.03 901.319,4084 892.308,3978.97 883.297,3865.05 874.286,3744.61 
  865.274,3620.19 856.263,3493.85 847.252,3367.04 838.241,3240.7 829.23,3115.41 820.218,2991.56 811.207,2869.35 802.196,2748.94 793.185,2630.41 784.174,2513.81 
  775.162,2399.17 766.151,2286.5 757.14,2175.83 748.129,2067.15 739.118,1960.46 730.106,1855.78 721.095,1753.11 712.084,1652.45 703.073,1553.79 694.062,1457.14 
  685.05,1362.5 676.039,1269.84 667.028,1179.15 658.017,1090.38 649.006,1003.48 639.994,918.349 630.983,834.854 621.972,752.818 612.961,672.014 603.95,592.185 
  594.939,513.115 585.927,434.821 576.916,358.067 567.905,285.541 558.894,223.129 549.883,176.307 540.871,143.31 531.86,119.996 522.849,104.75 513.838,96.1706 
  504.827,91.917 495.815,89.9311 486.804,89.0129 477.793,88.5818 468.782,88.374 459.771,88.2705 450.759,88.2227 441.748,88.2033 432.737,88.1921 423.726,88.1846 
  414.715,88.1793 405.703,88.1754 396.692,88.1725 387.681,88.1705 378.67,88.1692 369.659,88.1687 360.647,88.1682 351.636,88.1678 342.625,88.1676 333.614,88.1673 
  324.603,88.167 
  "/>
<polyline clip-path="url(#clip692)" style="stroke:#808080; stroke-linecap:butt; stroke-linejoin:round; stroke-width:16; stroke-opacity:1; fill:none" stroke-dasharray="64, 40" points="
  1225.72,5333.53 1216.71,5281.47 1207.7,5224.02 1198.69,5160.76 1189.68,5091.4 1180.67,5015.73 1171.66,4933.63 1162.64,4845 1153.63,4749.8 1144.62,4647.98 
  1135.61,4539.49 1126.6,4424.23 1117.59,4302.08 1108.58,4172.8 1099.57,4036.09 1090.55,3891.51 1081.54,3738.46 1072.53,3576.13 1063.52,3403.47 1054.51,3219.06 
  1045.5,3021.09 1036.49,2807.11 1027.48,2573.92 1018.46,2317.23 1009.45,2031.36 1000.44,1709.11 991.431,1343.09 982.42,933.555 973.409,516.813 964.398,218.708 
  955.386,129.486 946.375,104.254 937.364,94.5949 928.353,90.8657 919.342,89.3942 910.33,88.7825 901.319,88.5782 892.308,88.4831 883.297,88.4245 874.286,88.384 
  865.274,88.3541 856.263,88.3309 847.252,88.3124 838.241,88.2973 829.23,88.2846 820.218,88.2739 811.207,88.2647 802.196,88.2566 793.185,88.2496 784.174,88.2434 
  775.162,88.2378 766.151,88.2328 757.14,88.2283 748.129,88.2242 739.118,88.2204 730.106,88.217 721.095,88.2138 712.084,88.2109 703.073,88.2083 694.062,88.2058 
  685.05,88.2034 676.039,88.2013 667.028,88.1992 658.017,88.1974 649.006,88.1956 639.994,88.1939 630.983,88.1923 621.972,88.1908 612.961,88.1894 603.95,88.1881 
  594.939,88.1868 585.927,88.1856 576.916,88.1845 567.905,88.1834 558.894,88.1823 549.883,88.1814 540.871,88.1804 531.86,88.1795 522.849,88.1786 513.838,88.1778 
  504.827,88.177 495.815,88.1763 486.804,88.1756 477.793,88.1749 468.782,88.1742 459.771,88.1736 450.759,88.173 441.748,88.1724 432.737,88.1719 423.726,88.1714 
  414.715,88.1709 405.703,88.1704 396.692,88.17 387.681,88.1696 378.67,88.1692 369.659,88.1688 360.647,88.1685 351.636,88.1682 342.625,88.1679 333.614,88.1676 
  324.603,88.1674 
  "/>
<polyline clip-path="url(#clip692)" style="stroke:#0000ff; stroke-linecap:butt; stroke-linejoin:round; stroke-width:16; stroke-opacity:1; fill:none" stroke-dasharray="8, 16" points="
  1225.72,3882.14 1216.71,3890.86 1207.7,3895.17 1198.69,3892.23 1189.68,3879.7 1180.67,3856.27 1171.66,3821.85 1162.64,3777.54 1153.63,3725.21 1144.62,3667.13 
  1135.61,3605.48 1126.6,3542.04 1117.59,3478.09 1108.58,3414.37 1099.57,3351.17 1090.55,3288.54 1081.54,3226.34 1072.53,3164.41 1063.52,3102.57 1054.51,3040.71 
  1045.5,2978.79 1036.49,2916.81 1027.48,2854.83 1018.46,2792.96 1009.45,2732.5 1000.44,2678.15 991.431,2629.08 982.42,2583.44 973.409,2539.13 964.398,2493.9 
  955.386,2445.5 946.375,2391.95 937.364,2331.65 928.353,2263.44 919.342,2186.96 910.33,2101.95 901.319,2009.29 892.308,1910.45 883.297,1807.39 874.286,1702.61 
  865.274,1598.29 856.263,1496.1 847.252,1397.09 838.241,1301.78 829.23,1210.44 820.218,1123.2 811.207,1039.99 802.196,960.746 793.185,885.421 784.174,813.908 
  775.162,746.095 766.151,681.9 757.14,621.291 748.129,564.206 739.118,510.591 730.106,460.511 721.095,414.023 712.084,371.307 703.073,332.601 694.062,298.368 
  685.05,269.134 676.039,245.145 667.028,226.071 658.017,211.122 649.006,199.295 639.994,189.773 630.983,181.903 621.972,175.228 612.961,169.43 603.95,164.29 
  594.939,159.66 585.927,155.42 576.916,151.483 567.905,147.787 558.894,144.133 549.883,137.295 540.871,125.998 531.86,112.791 522.849,101.785 513.838,94.9152 
  504.827,91.3616 495.815,89.6739 486.804,88.8883 477.793,88.5186 468.782,88.3402 459.771,88.2514 450.759,88.2104 441.748,88.1938 432.737,88.1842 423.726,88.1778 
  414.715,88.1733 405.703,88.1699 396.692,88.1674 387.681,88.1657 378.67,88.1646 369.659,88.1643 360.647,88.164 351.636,88.1637 342.625,88.1636 333.614,88.1635 
  324.603,88.1633 
  "/>
<polyline clip-path="url(#clip692)" style="stroke:#0000ff; stroke-linecap:butt; stroke-linejoin:round; stroke-width:16; stroke-opacity:1; fill:none" stroke-dasharray="64, 40" points="
  1225.72,3184.05 1216.71,3147.73 1207.7,3106.95 1198.69,3061.39 1189.68,3010.85 1180.67,2955.24 1171.66,2894.54 1162.64,2828.83 1153.63,2758.21 1144.62,2682.81 
  1135.61,2602.81 1126.6,2518.36 1117.59,2429.61 1108.58,2336.67 1099.57,2239.62 1090.55,2138.49 1081.54,2033.23 1072.53,1923.68 1063.52,1809.56 1054.51,1690.43 
  1045.5,1565.61 1036.49,1434.13 1027.48,1294.57 1018.46,1144.95 1009.45,982.587 1000.44,804.276 991.431,608.074 982.42,401.957 973.409,231.438 964.398,153.137 
  955.386,118.805 946.375,101.361 937.364,93.5927 928.353,90.4634 919.342,89.2119 910.33,88.6893 901.319,88.5147 892.308,88.4334 883.297,88.3832 874.286,88.3486 
  865.274,88.3229 856.263,88.3031 847.252,88.2873 838.241,88.2743 829.23,88.2635 820.218,88.2543 811.207,88.2464 802.196,88.2395 793.185,88.2335 784.174,88.2281 
  775.162,88.2234 766.151,88.2191 757.14,88.2152 748.129,88.2117 739.118,88.2085 730.106,88.2056 721.095,88.2029 712.084,88.2004 703.073,88.1981 694.062,88.1959 
  685.05,88.1939 676.039,88.1921 667.028,88.1903 658.017,88.1887 649.006,88.1872 639.994,88.1858 630.983,88.1844 621.972,88.1831 612.961,88.1819 603.95,88.1808 
  594.939,88.1797 585.927,88.1787 576.916,88.1777 567.905,88.1767 558.894,88.1759 549.883,88.175 540.871,88.1742 531.86,88.1734 522.849,88.1727 513.838,88.172 
  504.827,88.1713 495.815,88.1707 486.804,88.1701 477.793,88.1695 468.782,88.1689 459.771,88.1684 450.759,88.1679 441.748,88.1674 432.737,88.1669 423.726,88.1665 
  414.715,88.166 405.703,88.1656 396.692,88.1653 387.681,88.165 378.67,88.1647 369.659,88.1644 360.647,88.1642 351.636,88.164 342.625,88.1637 333.614,88.1636 
  324.603,88.1635 
  "/>
</svg>
