<?xml version="1.0" encoding="utf-8"?>
<svg xmlns="http://www.w3.org/2000/svg" xmlns:xlink="http://www.w3.org/1999/xlink" width="325" height="200" viewBox="0 0 1300 800">
<defs>
  <clipPath id="clip650">
    <rect x="0" y="0" width="1300" height="800"/>
  </clipPath>
</defs>
<path clip-path="url(#clip650)" d="
M0 800 L1300 800 L1300 0 L0 0  Z
  " fill="#ffffff" fill-rule="evenodd" fill-opacity="1"/>
<defs>
  <clipPath id="clip651">
    <rect x="260" y="0" width="911" height="800"/>
  </clipPath>
</defs>
<path clip-path="url(#clip650)" d="
M297.569 673.18 L1252.76 673.18 L1252.76 47.2441 L297.569 47.2441  Z
  " fill="#ffffff" fill-rule="evenodd" fill-opacity="1"/>
<defs>
  <clipPath id="clip652">
    <rect x="297" y="47" width="956" height="627"/>
  </clipPath>
</defs>
<polyline clip-path="url(#clip650)" style="stroke:#000000; stroke-linecap:butt; stroke-linejoin:round; stroke-width:4; stroke-opacity:1; fill:none" points="
  297.569,673.18 1252.76,673.18 
  "/>
<polyline clip-path="url(#clip650)" style="stroke:#000000; stroke-linecap:butt; stroke-linejoin:round; stroke-width:4; stroke-opacity:1; fill:none" points="
  324.603,673.18 324.603,654.283 
  "/>
<polyline clip-path="url(#clip650)" style="stroke:#000000; stroke-linecap:butt; stroke-linejoin:round; stroke-width:4; stroke-opacity:1; fill:none" points="
  549.883,673.18 549.883,654.283 
  "/>
<polyline clip-path="url(#clip650)" style="stroke:#000000; stroke-linecap:butt; stroke-linejoin:round; stroke-width:4; stroke-opacity:1; fill:none" points="
  775.162,673.18 775.162,654.283 
  "/>
<polyline clip-path="url(#clip650)" style="stroke:#000000; stroke-linecap:butt; stroke-linejoin:round; stroke-width:4; stroke-opacity:1; fill:none" points="
  1000.44,673.18 1000.44,654.283 
  "/>
<polyline clip-path="url(#clip650)" style="stroke:#000000; stroke-linecap:butt; stroke-linejoin:round; stroke-width:4; stroke-opacity:1; fill:none" points="
  1225.72,673.18 1225.72,654.283 
  "/>
<path clip-path="url(#clip650)" d="M258.634 704.088 Q252.314 704.088 249.114 710.326 Q245.954 716.524 245.954 729.001 Q245.954 741.437 249.114 747.676 Q252.314 753.873 258.634 753.873 Q264.994 753.873 268.153 747.676 Q271.353 741.437 271.353 729.001 Q271.353 716.524 268.153 710.326 Q264.994 704.088 258.634 704.088 M258.634 697.606 Q268.801 697.606 274.149 705.668 Q279.536 713.689 279.536 729.001 Q279.536 744.273 274.149 752.334 Q268.801 760.355 258.634 760.355 Q248.466 760.355 243.078 752.334 Q237.731 744.273 237.731 729.001 Q237.731 713.689 243.078 705.668 Q248.466 697.606 258.634 697.606 Z" fill="#000000" fill-rule="evenodd" fill-opacity="1" /><path clip-path="url(#clip650)" d="M293.917 748.891 L302.464 748.891 L302.464 759.18 L293.917 759.18 L293.917 748.891 Z" fill="#000000" fill-rule="evenodd" fill-opacity="1" /><path clip-path="url(#clip650)" d="M337.788 704.088 Q331.469 704.088 328.269 710.326 Q325.109 716.524 325.109 729.001 Q325.109 741.437 328.269 747.676 Q331.469 753.873 337.788 753.873 Q344.148 753.873 347.308 747.676 Q350.508 741.437 350.508 729.001 Q350.508 716.524 347.308 710.326 Q344.148 704.088 337.788 704.088 M337.788 697.606 Q347.956 697.606 353.303 705.668 Q358.691 713.689 358.691 729.001 Q358.691 744.273 353.303 752.334 Q347.956 760.355 337.788 760.355 Q327.621 760.355 322.233 752.334 Q316.886 744.273 316.886 729.001 Q316.886 713.689 322.233 705.668 Q327.621 697.606 337.788 697.606 Z" fill="#000000" fill-rule="evenodd" fill-opacity="1" /><path clip-path="url(#clip650)" d="M390.572 704.088 Q384.252 704.088 381.052 710.326 Q377.892 716.524 377.892 729.001 Q377.892 741.437 381.052 747.676 Q384.252 753.873 390.572 753.873 Q396.931 753.873 400.091 747.676 Q403.291 741.437 403.291 729.001 Q403.291 716.524 400.091 710.326 Q396.931 704.088 390.572 704.088 M390.572 697.606 Q400.739 697.606 406.087 705.668 Q411.474 713.689 411.474 729.001 Q411.474 744.273 406.087 752.334 Q400.739 760.355 390.572 760.355 Q380.404 760.355 375.016 752.334 Q369.669 744.273 369.669 729.001 Q369.669 713.689 375.016 705.668 Q380.404 697.606 390.572 697.606 Z" fill="#000000" fill-rule="evenodd" fill-opacity="1" /><path clip-path="url(#clip650)" d="M484.784 704.088 Q478.465 704.088 475.265 710.326 Q472.105 716.524 472.105 729.001 Q472.105 741.437 475.265 747.676 Q478.465 753.873 484.784 753.873 Q491.144 753.873 494.304 747.676 Q497.504 741.437 497.504 729.001 Q497.504 716.524 494.304 710.326 Q491.144 704.088 484.784 704.088 M484.784 697.606 Q494.952 697.606 500.299 705.668 Q505.687 713.689 505.687 729.001 Q505.687 744.273 500.299 752.334 Q494.952 760.355 484.784 760.355 Q474.617 760.355 469.229 752.334 Q463.882 744.273 463.882 729.001 Q463.882 713.689 469.229 705.668 Q474.617 697.606 484.784 697.606 Z" fill="#000000" fill-rule="evenodd" fill-opacity="1" /><path clip-path="url(#clip650)" d="M520.068 748.891 L528.615 748.891 L528.615 759.18 L520.068 759.18 L520.068 748.891 Z" fill="#000000" fill-rule="evenodd" fill-opacity="1" /><path clip-path="url(#clip650)" d="M553.488 752.294 L582.047 752.294 L582.047 759.18 L543.644 759.18 L543.644 752.294 Q548.303 747.473 556.323 739.371 Q564.385 731.229 566.451 728.879 Q570.38 724.464 571.919 721.426 Q573.499 718.347 573.499 715.39 Q573.499 710.569 570.097 707.531 Q566.734 704.493 561.306 704.493 Q557.458 704.493 553.164 705.83 Q548.91 707.167 544.049 709.881 L544.049 701.617 Q548.991 699.632 553.285 698.619 Q557.579 697.606 561.144 697.606 Q570.542 697.606 576.132 702.305 Q581.723 707.005 581.723 714.863 Q581.723 718.59 580.305 721.952 Q578.927 725.274 575.241 729.811 Q574.228 730.986 568.8 736.617 Q563.372 742.207 553.488 752.294 Z" fill="#000000" fill-rule="evenodd" fill-opacity="1" /><path clip-path="url(#clip650)" d="M599.304 698.7 L631.427 698.7 L631.427 705.587 L606.798 705.587 L606.798 720.413 Q608.58 719.805 610.363 719.522 Q612.145 719.198 613.927 719.198 Q624.055 719.198 629.969 724.747 Q635.883 730.297 635.883 739.776 Q635.883 749.539 629.807 754.967 Q623.73 760.355 612.672 760.355 Q608.864 760.355 604.894 759.707 Q600.964 759.059 596.751 757.762 L596.751 749.539 Q600.397 751.524 604.286 752.496 Q608.175 753.468 612.509 753.468 Q619.518 753.468 623.609 749.782 Q627.7 746.096 627.7 739.776 Q627.7 733.457 623.609 729.771 Q619.518 726.084 612.509 726.084 Q609.228 726.084 605.947 726.813 Q602.706 727.543 599.304 729.082 L599.304 698.7 Z" fill="#000000" fill-rule="evenodd" fill-opacity="1" /><path clip-path="url(#clip650)" d="M709.193 704.088 Q702.874 704.088 699.674 710.326 Q696.514 716.524 696.514 729.001 Q696.514 741.437 699.674 747.676 Q702.874 753.873 709.193 753.873 Q715.553 753.873 718.713 747.676 Q721.913 741.437 721.913 729.001 Q721.913 716.524 718.713 710.326 Q715.553 704.088 709.193 704.088 M709.193 697.606 Q719.361 697.606 724.708 705.668 Q730.096 713.689 730.096 729.001 Q730.096 744.273 724.708 752.334 Q719.361 760.355 709.193 760.355 Q699.026 760.355 693.638 752.334 Q688.291 744.273 688.291 729.001 Q688.291 713.689 693.638 705.668 Q699.026 697.606 709.193 697.606 Z" fill="#000000" fill-rule="evenodd" fill-opacity="1" /><path clip-path="url(#clip650)" d="M744.477 748.891 L753.024 748.891 L753.024 759.18 L744.477 759.18 L744.477 748.891 Z" fill="#000000" fill-rule="evenodd" fill-opacity="1" /><path clip-path="url(#clip650)" d="M770.929 698.7 L803.053 698.7 L803.053 705.587 L778.423 705.587 L778.423 720.413 Q780.206 719.805 781.988 719.522 Q783.771 719.198 785.553 719.198 Q795.68 719.198 801.595 724.747 Q807.509 730.297 807.509 739.776 Q807.509 749.539 801.433 754.967 Q795.356 760.355 784.297 760.355 Q780.489 760.355 776.52 759.707 Q772.59 759.059 768.377 757.762 L768.377 749.539 Q772.023 751.524 775.912 752.496 Q779.801 753.468 784.135 753.468 Q791.143 753.468 795.235 749.782 Q799.326 746.096 799.326 739.776 Q799.326 733.457 795.235 729.771 Q791.143 726.084 784.135 726.084 Q780.854 726.084 777.573 726.813 Q774.332 727.543 770.929 729.082 L770.929 698.7 Z" fill="#000000" fill-rule="evenodd" fill-opacity="1" /><path clip-path="url(#clip650)" d="M841.131 704.088 Q834.812 704.088 831.612 710.326 Q828.452 716.524 828.452 729.001 Q828.452 741.437 831.612 747.676 Q834.812 753.873 841.131 753.873 Q847.491 753.873 850.651 747.676 Q853.851 741.437 853.851 729.001 Q853.851 716.524 850.651 710.326 Q847.491 704.088 841.131 704.088 M841.131 697.606 Q851.299 697.606 856.646 705.668 Q862.034 713.689 862.034 729.001 Q862.034 744.273 856.646 752.334 Q851.299 760.355 841.131 760.355 Q830.964 760.355 825.576 752.334 Q820.229 744.273 820.229 729.001 Q820.229 713.689 825.576 705.668 Q830.964 697.606 841.131 697.606 Z" fill="#000000" fill-rule="evenodd" fill-opacity="1" /><path clip-path="url(#clip650)" d="M935.344 704.088 Q929.025 704.088 925.825 710.326 Q922.665 716.524 922.665 729.001 Q922.665 741.437 925.825 747.676 Q929.025 753.873 935.344 753.873 Q941.704 753.873 944.864 747.676 Q948.064 741.437 948.064 729.001 Q948.064 716.524 944.864 710.326 Q941.704 704.088 935.344 704.088 M935.344 697.606 Q945.512 697.606 950.859 705.668 Q956.247 713.689 956.247 729.001 Q956.247 744.273 950.859 752.334 Q945.512 760.355 935.344 760.355 Q925.177 760.355 919.789 752.334 Q914.442 744.273 914.442 729.001 Q914.442 713.689 919.789 705.668 Q925.177 697.606 935.344 697.606 Z" fill="#000000" fill-rule="evenodd" fill-opacity="1" /><path clip-path="url(#clip650)" d="M970.628 748.891 L979.175 748.891 L979.175 759.18 L970.628 759.18 L970.628 748.891 Z" fill="#000000" fill-rule="evenodd" fill-opacity="1" /><path clip-path="url(#clip650)" d="M994.933 698.7 L1033.82 698.7 L1033.82 702.184 L1011.87 759.18 L1003.32 759.18 L1023.98 705.587 L994.933 705.587 L994.933 698.7 Z" fill="#000000" fill-rule="evenodd" fill-opacity="1" /><path clip-path="url(#clip650)" d="M1049.86 698.7 L1081.99 698.7 L1081.99 705.587 L1057.36 705.587 L1057.36 720.413 Q1059.14 719.805 1060.92 719.522 Q1062.7 719.198 1064.49 719.198 Q1074.61 719.198 1080.53 724.747 Q1086.44 730.297 1086.44 739.776 Q1086.44 749.539 1080.37 754.967 Q1074.29 760.355 1063.23 760.355 Q1059.42 760.355 1055.45 759.707 Q1051.52 759.059 1047.31 757.762 L1047.31 749.539 Q1050.96 751.524 1054.85 752.496 Q1058.73 753.468 1063.07 753.468 Q1070.08 753.468 1074.17 749.782 Q1078.26 746.096 1078.26 739.776 Q1078.26 733.457 1074.17 729.771 Q1070.08 726.084 1063.07 726.084 Q1059.79 726.084 1056.51 726.813 Q1053.27 727.543 1049.86 729.082 L1049.86 698.7 Z" fill="#000000" fill-rule="evenodd" fill-opacity="1" /><path clip-path="url(#clip650)" d="M1141.85 752.294 L1155.22 752.294 L1155.22 706.154 L1140.67 709.07 L1140.67 701.617 L1155.14 698.7 L1163.32 698.7 L1163.32 752.294 L1176.69 752.294 L1176.69 759.18 L1141.85 759.18 L1141.85 752.294 Z" fill="#000000" fill-rule="evenodd" fill-opacity="1" /><path clip-path="url(#clip650)" d="M1193.21 748.891 L1201.76 748.891 L1201.76 759.18 L1193.21 759.18 L1193.21 748.891 Z" fill="#000000" fill-rule="evenodd" fill-opacity="1" /><path clip-path="url(#clip650)" d="M1237.09 704.088 Q1230.77 704.088 1227.57 710.326 Q1224.41 716.524 1224.41 729.001 Q1224.41 741.437 1227.57 747.676 Q1230.77 753.873 1237.09 753.873 Q1243.45 753.873 1246.6 747.676 Q1249.8 741.437 1249.8 729.001 Q1249.8 716.524 1246.6 710.326 Q1243.45 704.088 1237.09 704.088 M1237.09 697.606 Q1247.25 697.606 1252.6 705.668 Q1257.99 713.689 1257.99 729.001 Q1257.99 744.273 1252.6 752.334 Q1247.25 760.355 1237.09 760.355 Q1226.92 760.355 1221.53 752.334 Q1216.18 744.273 1216.18 729.001 Q1216.18 713.689 1221.53 705.668 Q1226.92 697.606 1237.09 697.606 Z" fill="#000000" fill-rule="evenodd" fill-opacity="1" /><path clip-path="url(#clip650)" d="M1289.87 704.088 Q1283.55 704.088 1280.35 710.326 Q1277.19 716.524 1277.19 729.001 Q1277.19 741.437 1280.35 747.676 Q1283.55 753.873 1289.87 753.873 Q1296.23 753.873 1299.39 747.676 Q1302.59 741.437 1302.59 729.001 Q1302.59 716.524 1299.39 710.326 Q1296.23 704.088 1289.87 704.088 M1289.87 697.606 Q1300.04 697.606 1305.38 705.668 Q1310.77 713.689 1310.77 729.001 Q1310.77 744.273 1305.38 752.334 Q1300.04 760.355 1289.87 760.355 Q1279.7 760.355 1274.31 752.334 Q1268.97 744.273 1268.97 729.001 Q1268.97 713.689 1274.31 705.668 Q1279.7 697.606 1289.87 697.606 Z" fill="#000000" fill-rule="evenodd" fill-opacity="1" /><polyline clip-path="url(#clip650)" style="stroke:#000000; stroke-linecap:butt; stroke-linejoin:round; stroke-width:4; stroke-opacity:1; fill:none" points="
  297.569,673.18 297.569,47.2441 
  "/>
<polyline clip-path="url(#clip650)" style="stroke:#000000; stroke-linecap:butt; stroke-linejoin:round; stroke-width:4; stroke-opacity:1; fill:none" points="
  297.569,673.18 316.467,673.18 
  "/>
<polyline clip-path="url(#clip650)" style="stroke:#000000; stroke-linecap:butt; stroke-linejoin:round; stroke-width:4; stroke-opacity:1; fill:none" points="
  297.569,380.659 316.467,380.659 
  "/>
<polyline clip-path="url(#clip650)" style="stroke:#000000; stroke-linecap:butt; stroke-linejoin:round; stroke-width:4; stroke-opacity:1; fill:none" points="
  297.569,88.1369 316.467,88.1369 
  "/>
<path clip-path="url(#clip650)" d="M57.6669 707.817 L71.0349 707.817 L71.0349 661.677 L56.4921 664.594 L56.4921 657.14 L70.9539 654.223 L79.1367 654.223 L79.1367 707.817 L92.5047 707.817 L92.5047 714.703 L57.6669 714.703 L57.6669 707.817 Z" fill="#000000" fill-rule="evenodd" fill-opacity="1" /><path clip-path="url(#clip650)" d="M126.532 659.611 Q120.213 659.611 117.013 665.85 Q113.853 672.047 113.853 684.524 Q113.853 696.961 117.013 703.199 Q120.213 709.397 126.532 709.397 Q132.892 709.397 136.052 703.199 Q139.252 696.961 139.252 684.524 Q139.252 672.047 136.052 665.85 Q132.892 659.611 126.532 659.611 M126.532 653.13 Q136.7 653.13 142.047 661.191 Q147.435 669.212 147.435 684.524 Q147.435 699.796 142.047 707.857 Q136.7 715.878 126.532 715.878 Q116.364 715.878 110.977 707.857 Q105.63 699.796 105.63 684.524 Q105.63 669.212 110.977 661.191 Q116.364 653.13 126.532 653.13 Z" fill="#000000" fill-rule="evenodd" fill-opacity="1" /><path clip-path="url(#clip650)" d="M147.435 642.807 L189.63 642.807 L189.63 648.402 L147.435 648.402 L147.435 642.807 Z" fill="#000000" fill-rule="evenodd" fill-opacity="1" /><path clip-path="url(#clip650)" d="M205.132 661.14 L215.994 661.14 L215.994 623.651 L204.178 626.021 L204.178 619.965 L215.928 617.595 L222.577 617.595 L222.577 661.14 L233.438 661.14 L233.438 666.735 L205.132 666.735 L205.132 661.14 Z" fill="#000000" fill-rule="evenodd" fill-opacity="1" /><path clip-path="url(#clip650)" d="M261.086 621.973 Q255.951 621.973 253.351 627.041 Q250.784 632.077 250.784 642.215 Q250.784 652.319 253.351 657.388 Q255.951 662.424 261.086 662.424 Q266.253 662.424 268.82 657.388 Q271.42 652.319 271.42 642.215 Q271.42 632.077 268.82 627.041 Q266.253 621.973 261.086 621.973 M261.086 616.707 Q269.347 616.707 273.691 623.256 Q278.069 629.773 278.069 642.215 Q278.069 654.623 273.691 661.173 Q269.347 667.69 261.086 667.69 Q252.824 667.69 248.447 661.173 Q244.102 654.623 244.102 642.215 Q244.102 629.773 248.447 623.256 Q252.824 616.707 261.086 616.707 Z" fill="#000000" fill-rule="evenodd" fill-opacity="1" /><path clip-path="url(#clip650)" d="M101.969 415.295 L115.337 415.295 L115.337 369.155 L100.794 372.072 L100.794 364.618 L115.256 361.702 L123.438 361.702 L123.438 415.295 L136.806 415.295 L136.806 422.182 L101.969 422.182 L101.969 415.295 Z" fill="#000000" fill-rule="evenodd" fill-opacity="1" /><path clip-path="url(#clip650)" d="M170.834 367.09 Q164.515 367.09 161.314 373.328 Q158.155 379.526 158.155 392.003 Q158.155 404.439 161.314 410.677 Q164.515 416.875 170.834 416.875 Q177.194 416.875 180.354 410.677 Q183.554 404.439 183.554 392.003 Q183.554 379.526 180.354 373.328 Q177.194 367.09 170.834 367.09 M170.834 360.608 Q181.002 360.608 186.349 368.669 Q191.737 376.69 191.737 392.003 Q191.737 407.274 186.349 415.336 Q181.002 423.357 170.834 423.357 Q160.666 423.357 155.278 415.336 Q149.931 407.274 149.931 392.003 Q149.931 376.69 155.278 368.669 Q160.666 360.608 170.834 360.608 Z" fill="#000000" fill-rule="evenodd" fill-opacity="1" /><path clip-path="url(#clip650)" d="M191.737 350.285 L233.932 350.285 L233.932 355.881 L191.737 355.881 L191.737 350.285 Z" fill="#000000" fill-rule="evenodd" fill-opacity="1" /><path clip-path="url(#clip650)" d="M248.348 325.074 L274.448 325.074 L274.448 330.669 L254.437 330.669 L254.437 342.715 Q255.885 342.222 257.333 341.991 Q258.782 341.728 260.23 341.728 Q268.458 341.728 273.264 346.237 Q278.069 350.746 278.069 358.448 Q278.069 366.38 273.132 370.791 Q268.195 375.168 259.21 375.168 Q256.116 375.168 252.89 374.642 Q249.697 374.115 246.274 373.062 L246.274 366.38 Q249.237 367.993 252.396 368.783 Q255.556 369.573 259.078 369.573 Q264.772 369.573 268.096 366.578 Q271.42 363.583 271.42 358.448 Q271.42 353.313 268.096 350.318 Q264.772 347.323 259.078 347.323 Q256.412 347.323 253.746 347.916 Q251.113 348.508 248.348 349.759 L248.348 325.074 Z" fill="#000000" fill-rule="evenodd" fill-opacity="1" /><path clip-path="url(#clip650)" d="M154.334 122.774 L167.702 122.774 L167.702 76.6338 L153.159 79.5505 L153.159 72.0968 L167.621 69.1802 L175.804 69.1802 L175.804 122.774 L189.172 122.774 L189.172 129.66 L154.334 129.66 L154.334 122.774 Z" fill="#000000" fill-rule="evenodd" fill-opacity="1" /><path clip-path="url(#clip650)" d="M223.199 74.5679 Q216.88 74.5679 213.68 80.8063 Q210.52 87.0041 210.52 99.4809 Q210.52 111.917 213.68 118.156 Q216.88 124.353 223.199 124.353 Q229.559 124.353 232.719 118.156 Q235.919 111.917 235.919 99.4809 Q235.919 87.0041 232.719 80.8063 Q229.559 74.5679 223.199 74.5679 M223.199 68.0864 Q233.367 68.0864 238.714 76.1477 Q244.102 84.1685 244.102 99.4809 Q244.102 114.753 238.714 122.814 Q233.367 130.835 223.199 130.835 Q213.032 130.835 207.644 122.814 Q202.297 114.753 202.297 99.4809 Q202.297 84.1685 207.644 76.1477 Q213.032 68.0864 223.199 68.0864 Z" fill="#000000" fill-rule="evenodd" fill-opacity="1" /><path clip-path="url(#clip650)" d="M261.086 36.9295 Q255.951 36.9295 253.351 41.9982 Q250.784 47.0339 250.784 57.1713 Q250.784 67.2758 253.351 72.3445 Q255.951 77.3803 261.086 77.3803 Q266.253 77.3803 268.82 72.3445 Q271.42 67.2758 271.42 57.1713 Q271.42 47.0339 268.82 41.9982 Q266.253 36.9295 261.086 36.9295 M261.086 31.6633 Q269.347 31.6633 273.691 38.2131 Q278.069 44.73 278.069 57.1713 Q278.069 69.5798 273.691 76.1296 Q269.347 82.6465 261.086 82.6465 Q252.824 82.6465 248.447 76.1296 Q244.102 69.5798 244.102 57.1713 Q244.102 44.73 248.447 38.2131 Q252.824 31.6633 261.086 31.6633 Z" fill="#000000" fill-rule="evenodd" fill-opacity="1" /><polyline clip-path="url(#clip652)" style="stroke:#000000; stroke-linecap:butt; stroke-linejoin:round; stroke-width:16; stroke-opacity:1; fill:none" stroke-dasharray="8, 16" points="
  1225.72,4569.67 1216.71,4474.99 1207.7,4343.29 1198.69,4183.56 1189.68,4005.4 1180.67,3817.07 1171.66,3624.76 1162.64,3432.71 1153.63,3243.65 1144.62,3059.23 
  1135.61,2880.35 1126.6,2707.47 1117.59,2540.73 1108.58,2380.08 1099.57,2225.37 1090.55,2076.36 1081.54,1932.8 1072.53,1794.43 1063.52,1660.96 1054.51,1532.13 
  1045.5,1407.8 1036.49,1294.09 1027.48,1194.44 1018.46,1108.72 1009.45,1036.66 1000.44,977.454 991.431,929.347 982.42,889.75 973.409,856.118 964.398,826.654 
  955.386,800.189 946.375,775.991 937.364,753.556 928.353,732.676 919.342,713.037 910.33,694.455 901.319,676.809 892.308,660.137 883.297,644.137 874.286,628.819 
  865.274,614.219 856.263,600.11 847.252,586.616 838.241,573.63 829.23,560.947 820.218,549.008 811.207,537.291 802.196,525.88 793.185,515.117 784.174,504.545 
  775.162,494.158 766.151,484.332 757.14,474.8 748.129,465.429 739.118,456.215 730.106,447.527 721.095,439.085 712.084,430.78 703.073,422.609 694.062,414.671 
  685.05,407.204 676.039,399.854 667.028,392.617 658.017,385.493 649.006,378.518 639.994,372.029 630.983,365.639 621.972,359.347 612.961,353.15 603.95,347.047 
  594.939,341.188 585.927,335.655 576.916,330.206 567.905,324.84 558.894,319.556 549.883,314.354 540.871,309.291 531.86,304.603 522.849,299.989 513.838,295.448 
  504.827,290.98 495.815,286.584 486.804,282.259 477.793,278.161 468.782,274.296 459.771,270.497 450.759,266.762 441.748,263.093 432.737,259.489 423.726,255.949 
  414.715,252.569 405.703,249.435 396.692,246.359 387.681,243.341 378.67,240.381 369.659,237.479 360.647,234.635 351.636,231.847 342.625,229.259 333.614,226.812 
  324.603,224.415 
  "/>
<polyline clip-path="url(#clip652)" style="stroke:#000000; stroke-linecap:butt; stroke-linejoin:round; stroke-width:16; stroke-opacity:1; fill:none" stroke-dasharray="64, 40" points="
  1225.72,3449.27 1216.71,3391.05 1207.7,3298.14 1198.69,3178.02 1189.68,3039.31 1180.67,2889.61 1171.66,2734.76 1162.64,2578.82 1153.63,2424.44 1144.62,2273.26 
  1135.61,2126.23 1126.6,1983.87 1117.59,1846.4 1108.58,1713.85 1099.57,1586.17 1090.55,1463.2 1081.54,1344.79 1072.53,1230.74 1063.52,1120.86 1054.51,1014.98 
  1045.5,912.9 1036.49,814.473 1027.48,719.551 1018.46,628.016 1009.45,539.783 1000.44,454.829 991.431,374.293 982.42,313.22 973.409,273.012 964.398,246.677 
  955.386,228.543 946.375,215.35 937.364,205.263 928.353,197.28 919.342,190.742 910.33,185.258 901.319,180.569 892.308,176.499 883.297,172.912 874.286,169.721 
  865.274,166.842 856.263,164.225 847.252,161.841 838.241,159.639 829.23,157.606 820.218,155.717 811.207,153.944 802.196,152.291 793.185,150.734 784.174,149.259 
  775.162,147.861 766.151,146.544 757.14,145.287 748.129,144.086 739.118,142.936 730.106,141.837 721.095,140.788 712.084,139.779 703.073,138.807 694.062,137.869 
  685.05,136.963 676.039,136.088 667.028,135.247 658.017,134.434 649.006,133.645 639.994,132.879 630.983,132.135 621.972,131.412 612.961,130.708 603.95,130.024 
  594.939,129.359 585.927,128.713 576.916,128.084 567.905,127.47 558.894,126.87 549.883,126.284 540.871,125.711 531.86,125.15 522.849,124.602 513.838,124.066 
  504.827,123.541 495.815,123.026 486.804,122.525 477.793,122.034 468.782,121.552 459.771,121.08 450.759,120.616 441.748,120.16 432.737,119.713 423.726,119.273 
  414.715,118.842 405.703,118.417 396.692,118 387.681,117.589 378.67,117.186 369.659,116.789 360.647,116.399 351.636,116.017 342.625,115.64 333.614,115.269 
  324.603,114.904 
  "/>
<polyline clip-path="url(#clip652)" style="stroke:#808080; stroke-linecap:butt; stroke-linejoin:round; stroke-width:16; stroke-opacity:1; fill:none" stroke-dasharray="8, 16" points="
  1225.72,5931.77 1216.71,5836.98 1207.7,5705.19 1198.69,5545.38 1189.68,5367.15 1180.67,5178.75 1171.66,4986.37 1162.64,4794.25 1153.63,4605.11 1144.62,4420.6 
  1135.61,4241.64 1126.6,4068.66 1117.59,3901.82 1108.58,3741.06 1099.57,3586.22 1090.55,3437.09 1081.54,3293.41 1072.53,3154.89 1063.52,3021.28 1054.51,2892.3 
  1045.5,2767.7 1036.49,2647.22 1027.48,2530.65 1018.46,2417.76 1009.45,2308.35 1000.44,2202.23 991.431,2099.23 982.42,1999.17 973.409,1901.92 964.398,1807.32 
  955.386,1715.25 946.375,1625.57 937.364,1538.18 928.353,1452.96 919.342,1369.82 910.33,1290.77 901.319,1218.71 892.308,1153.64 883.297,1095.49 874.286,1044.18 
  865.274,999.438 856.263,960.804 847.252,927.525 838.241,898.643 829.23,873.198 820.218,850.395 811.207,829.625 802.196,810.435 793.185,792.567 784.174,775.735 
  775.162,759.859 766.151,744.75 757.14,730.319 748.129,716.467 739.118,703.246 730.106,690.511 721.095,678.132 712.084,666.343 703.073,654.757 694.062,643.733 
  685.05,632.898 676.039,622.447 667.028,612.323 658.017,602.342 649.006,592.792 639.994,583.474 630.983,574.282 621.972,565.368 612.961,556.796 603.95,548.338 
  594.939,539.99 585.927,531.913 576.916,524.138 567.905,516.461 558.894,508.881 549.883,501.394 540.871,494.274 531.86,487.312 522.849,480.433 513.838,473.638 
  504.827,466.923 495.815,460.402 486.804,454.17 477.793,448.01 468.782,441.922 459.771,435.904 450.759,429.955 441.748,424.087 432.737,418.579 423.726,413.133 
  414.715,407.748 405.703,402.424 396.692,397.158 387.681,391.951 378.67,386.802 369.659,381.948 360.647,377.195 351.636,372.494 342.625,367.844 333.614,363.245 
  324.603,358.697 
  "/>
<polyline clip-path="url(#clip652)" style="stroke:#808080; stroke-linecap:butt; stroke-linejoin:round; stroke-width:16; stroke-opacity:1; fill:none" stroke-dasharray="64, 40" points="
  1225.72,4539.49 1216.71,4481.27 1207.7,4389 1198.69,4270.03 1189.68,4132.76 1180.67,3984.66 1171.66,3831.46 1162.64,3677.13 1153.63,3524.25 1144.62,3374.45 
  1135.61,3228.65 1126.6,3087.35 1117.59,2950.77 1108.58,2818.93 1099.57,2691.75 1090.55,2569.11 1081.54,2450.83 1072.53,2336.7 1063.52,2226.52 1054.51,2120.1 
  1045.5,2017.25 1036.49,1917.77 1027.48,1821.49 1018.46,1728.24 1009.45,1637.87 1000.44,1550.23 991.431,1465.19 982.42,1382.62 973.409,1302.4 964.398,1224.42 
  955.386,1148.6 946.375,1074.82 937.364,1003.01 928.353,933.091 919.342,864.987 910.33,798.635 901.319,733.976 892.308,670.959 883.297,609.541 874.286,549.688 
  865.274,491.38 856.263,434.618 847.252,379.479 838.241,331.884 829.23,295.497 820.218,268.316 811.207,247.911 802.196,232.269 793.185,219.965 784.174,210.038 
  775.162,201.87 766.151,195.007 757.14,189.158 748.129,184.094 739.118,179.656 730.106,175.722 721.095,172.204 712.084,169.031 703.073,166.14 694.062,163.517 
  685.05,161.092 676.039,158.856 667.028,156.775 658.017,154.842 649.006,153.019 639.994,151.324 630.983,149.72 621.972,148.196 612.961,146.766 603.95,145.406 
  594.939,144.106 585.927,142.862 576.916,141.685 567.905,140.557 558.894,139.472 549.883,138.429 540.871,137.423 531.86,136.46 522.849,135.534 513.838,134.639 
  504.827,133.773 495.815,132.933 486.804,132.12 477.793,131.33 468.782,130.569 459.771,129.831 450.759,129.113 441.748,128.415 432.737,127.735 423.726,127.072 
  414.715,126.426 405.703,125.795 396.692,125.18 387.681,124.58 378.67,123.998 369.659,123.429 360.647,122.872 351.636,122.327 342.625,121.794 333.614,121.271 
  324.603,120.759 
  "/>
<polyline clip-path="url(#clip652)" style="stroke:#0000ff; stroke-linecap:butt; stroke-linejoin:round; stroke-width:16; stroke-opacity:1; fill:none" stroke-dasharray="8, 16" points="
  1225.72,3605.48 1216.71,3511.09 1207.7,3379.72 1198.69,3220.32 1189.68,3042.51 1180.67,2854.54 1171.66,2662.59 1162.64,2470.9 1153.63,2282.2 1144.62,2098.13 
  1135.61,1919.62 1126.6,1747.09 1117.59,1580.7 1108.58,1421.18 1099.57,1279.55 1090.55,1159.57 1081.54,1061.13 1072.53,983.3 1063.52,923.021 1054.51,875.304 
  1045.5,835.619 1036.49,801.204 1027.48,770.475 1018.46,742.524 1009.45,716.757 1000.44,692.801 991.431,670.451 982.42,649.491 973.409,629.696 964.398,610.829 
  955.386,593.128 946.375,576.147 937.364,560.062 928.353,544.574 919.342,529.965 910.33,515.697 901.319,502.34 892.308,489.385 883.297,476.727 874.286,464.986 
  865.274,453.497 856.263,442.249 847.252,431.703 838.241,421.523 829.23,411.55 820.218,401.809 811.207,392.809 802.196,383.987 793.185,375.339 784.174,366.862 
  775.162,359.041 766.151,351.417 757.14,343.943 748.129,336.615 739.118,329.617 730.106,323.064 721.095,316.641 712.084,310.347 703.073,304.18 694.062,298.354 
  685.05,292.881 676.039,287.524 667.028,282.28 658.017,277.15 649.006,272.234 639.994,267.725 630.983,263.318 621.972,259.014 612.961,254.811 603.95,250.71 
  594.939,246.935 585.927,243.368 576.916,239.891 567.905,236.503 558.894,233.203 549.883,229.99 540.871,227.018 531.86,224.247 522.849,221.549 513.838,218.925 
  504.827,216.373 495.815,213.893 486.804,211.483 477.793,209.268 468.782,207.192 459.771,205.173 450.759,203.211 441.748,201.302 432.737,199.447 423.726,197.644 
  414.715,195.892 405.703,194.22 396.692,192.703 387.681,191.225 378.67,189.787 369.659,188.386 360.647,187.022 351.636,185.694 342.625,184.4 333.614,183.14 
  324.603,181.913 
  "/>
<polyline clip-path="url(#clip652)" style="stroke:#0000ff; stroke-linecap:butt; stroke-linejoin:round; stroke-width:16; stroke-opacity:1; fill:none" stroke-dasharray="64, 40" points="
  1225.72,2602.81 1216.71,2546.51 1207.7,2456.28 1198.69,2339.47 1189.68,2204.49 1180.67,2058.84 1171.66,1908.24 1162.64,1756.68 1153.63,1606.77 1144.62,1460.14 
  1135.61,1317.74 1126.6,1180.11 1117.59,1047.48 1108.58,919.938 1099.57,797.474 1090.55,680.032 1081.54,567.569 1072.53,460.129 1063.52,360.747 1054.51,293.988 
  1045.5,255.705 1036.49,232.55 1027.48,217.119 1018.46,206.009 1009.45,197.518 1000.44,190.76 991.431,185.19 982.42,180.49 973.409,176.436 964.398,172.88 
  955.386,169.733 946.375,166.907 937.364,164.34 928.353,162.004 919.342,159.851 910.33,157.858 901.319,156.013 892.308,154.281 883.297,152.657 874.286,151.136 
  865.274,149.696 856.263,148.328 847.252,147.029 838.241,145.799 829.23,144.624 820.218,143.498 811.207,142.418 802.196,141.381 793.185,140.39 784.174,139.436 
  775.162,138.515 766.151,137.626 757.14,136.766 748.129,135.934 739.118,135.127 730.106,134.351 721.095,133.597 712.084,132.864 703.073,132.152 694.062,131.459 
  685.05,130.784 676.039,130.126 667.028,129.485 658.017,128.859 649.006,128.252 639.994,127.66 630.983,127.081 621.972,126.515 612.961,125.961 603.95,125.419 
  594.939,124.888 585.927,124.368 576.916,123.859 567.905,123.36 558.894,122.871 549.883,122.391 540.871,121.923 531.86,121.463 522.849,121.012 513.838,120.569 
  504.827,120.133 495.815,119.705 486.804,119.284 477.793,118.87 468.782,118.463 459.771,118.062 450.759,117.668 441.748,117.28 432.737,116.898 423.726,116.522 
  414.715,116.153 405.703,115.79 396.692,115.432 387.681,115.08 378.67,114.733 369.659,114.39 360.647,114.052 351.636,113.719 342.625,113.391 333.614,113.066 
  324.603,112.747 
  "/>
</svg>
