<?xml version="1.0" encoding="utf-8"?>
<svg xmlns="http://www.w3.org/2000/svg" xmlns:xlink="http://www.w3.org/1999/xlink" width="325" height="150" viewBox="0 0 1300 600">
<defs>
  <clipPath id="clip480">
    <rect x="0" y="0" width="1300" height="600"/>
  </clipPath>
</defs>
<path clip-path="url(#clip480)" d="
M0 600 L1300 600 L1300 0 L0 0  Z
  " fill="#ffffff" fill-rule="evenodd" fill-opacity="1"/>
<defs>
  <clipPath id="clip481">
    <rect x="260" y="0" width="911" height="600"/>
  </clipPath>
</defs>
<path clip-path="url(#clip480)" d="
M200.094 501.1 L1252.76 501.1 L1252.76 47.2441 L200.094 47.2441  Z
  " fill="#ffffff" fill-rule="evenodd" fill-opacity="1"/>
<defs>
  <clipPath id="clip482">
    <rect x="200" y="47" width="1054" height="455"/>
  </clipPath>
</defs>
<polyline clip-path="url(#clip480)" style="stroke:#000000; stroke-linecap:butt; stroke-linejoin:round; stroke-width:4; stroke-opacity:1; fill:none" points="
  200.094,501.1 1252.76,501.1 
  "/>
<polyline clip-path="url(#clip480)" style="stroke:#000000; stroke-linecap:butt; stroke-linejoin:round; stroke-width:4; stroke-opacity:1; fill:none" points="
  200.094,501.1 200.094,482.203 
  "/>
<polyline clip-path="url(#clip480)" style="stroke:#000000; stroke-linecap:butt; stroke-linejoin:round; stroke-width:4; stroke-opacity:1; fill:none" points="
  548.658,501.1 548.658,482.203 
  "/>
<polyline clip-path="url(#clip480)" style="stroke:#000000; stroke-linecap:butt; stroke-linejoin:round; stroke-width:4; stroke-opacity:1; fill:none" points="
  897.221,501.1 897.221,482.203 
  "/>
<polyline clip-path="url(#clip480)" style="stroke:#000000; stroke-linecap:butt; stroke-linejoin:round; stroke-width:4; stroke-opacity:1; fill:none" points="
  1245.78,501.1 1245.78,482.203 
  "/>
<path clip-path="url(#clip480)" d="M200.094 526.149 Q195.581 526.149 193.295 530.605 Q191.038 535.032 191.038 543.944 Q191.038 552.827 193.295 557.283 Q195.581 561.71 200.094 561.71 Q204.637 561.71 206.894 557.283 Q209.18 552.827 209.18 543.944 Q209.18 535.032 206.894 530.605 Q204.637 526.149 200.094 526.149 M200.094 521.519 Q207.357 521.519 211.177 527.277 Q215.025 533.006 215.025 543.944 Q215.025 554.852 211.177 560.61 Q207.357 566.339 200.094 566.339 Q192.832 566.339 188.983 560.61 Q185.164 554.852 185.164 543.944 Q185.164 533.006 188.983 527.277 Q192.832 521.519 200.094 521.519 Z" fill="#000000" fill-rule="evenodd" fill-opacity="1" /><path clip-path="url(#clip480)" d="M517.032 522.3 L539.977 522.3 L539.977 527.219 L522.385 527.219 L522.385 537.809 Q523.658 537.375 524.931 537.173 Q526.204 536.941 527.477 536.941 Q534.711 536.941 538.936 540.905 Q543.16 544.87 543.16 551.64 Q543.16 558.614 538.82 562.491 Q534.48 566.339 526.58 566.339 Q523.861 566.339 521.025 565.876 Q518.218 565.413 515.209 564.487 L515.209 558.614 Q517.813 560.031 520.591 560.726 Q523.369 561.42 526.465 561.42 Q531.47 561.42 534.393 558.787 Q537.315 556.154 537.315 551.64 Q537.315 547.126 534.393 544.493 Q531.47 541.86 526.465 541.86 Q524.121 541.86 521.777 542.381 Q519.462 542.902 517.032 544.001 L517.032 522.3 Z" fill="#000000" fill-rule="evenodd" fill-opacity="1" /><path clip-path="url(#clip480)" d="M567.176 526.149 Q562.662 526.149 560.377 530.605 Q558.12 535.032 558.12 543.944 Q558.12 552.827 560.377 557.283 Q562.662 561.71 567.176 561.71 Q571.719 561.71 573.976 557.283 Q576.262 552.827 576.262 543.944 Q576.262 535.032 573.976 530.605 Q571.719 526.149 567.176 526.149 M567.176 521.519 Q574.439 521.519 578.258 527.277 Q582.107 533.006 582.107 543.944 Q582.107 554.852 578.258 560.61 Q574.439 566.339 567.176 566.339 Q559.914 566.339 556.065 560.61 Q552.246 554.852 552.246 543.944 Q552.246 533.006 556.065 527.277 Q559.914 521.519 567.176 521.519 Z" fill="#000000" fill-rule="evenodd" fill-opacity="1" /><path clip-path="url(#clip480)" d="M846.73 560.581 L856.278 560.581 L856.278 527.624 L845.891 529.708 L845.891 524.384 L856.22 522.3 L862.065 522.3 L862.065 560.581 L871.614 560.581 L871.614 565.5 L846.73 565.5 L846.73 560.581 Z" fill="#000000" fill-rule="evenodd" fill-opacity="1" /><path clip-path="url(#clip480)" d="M895.919 526.149 Q891.405 526.149 889.119 530.605 Q886.863 535.032 886.863 543.944 Q886.863 552.827 889.119 557.283 Q891.405 561.71 895.919 561.71 Q900.462 561.71 902.719 557.283 Q905.005 552.827 905.005 543.944 Q905.005 535.032 902.719 530.605 Q900.462 526.149 895.919 526.149 M895.919 521.519 Q903.182 521.519 907.001 527.277 Q910.85 533.006 910.85 543.944 Q910.85 554.852 907.001 560.61 Q903.182 566.339 895.919 566.339 Q888.656 566.339 884.808 560.61 Q880.989 554.852 880.989 543.944 Q880.989 533.006 884.808 527.277 Q888.656 521.519 895.919 521.519 Z" fill="#000000" fill-rule="evenodd" fill-opacity="1" /><path clip-path="url(#clip480)" d="M933.622 526.149 Q929.108 526.149 926.822 530.605 Q924.565 535.032 924.565 543.944 Q924.565 552.827 926.822 557.283 Q929.108 561.71 933.622 561.71 Q938.164 561.71 940.421 557.283 Q942.707 552.827 942.707 543.944 Q942.707 535.032 940.421 530.605 Q938.164 526.149 933.622 526.149 M933.622 521.519 Q940.884 521.519 944.704 527.277 Q948.552 533.006 948.552 543.944 Q948.552 554.852 944.704 560.61 Q940.884 566.339 933.622 566.339 Q926.359 566.339 922.51 560.61 Q918.691 554.852 918.691 543.944 Q918.691 533.006 922.51 527.277 Q926.359 521.519 933.622 521.519 Z" fill="#000000" fill-rule="evenodd" fill-opacity="1" /><path clip-path="url(#clip480)" d="M1195.29 560.581 L1204.84 560.581 L1204.84 527.624 L1194.45 529.708 L1194.45 524.384 L1204.78 522.3 L1210.63 522.3 L1210.63 560.581 L1220.18 560.581 L1220.18 565.5 L1195.29 565.5 L1195.29 560.581 Z" fill="#000000" fill-rule="evenodd" fill-opacity="1" /><path clip-path="url(#clip480)" d="M1232.04 522.3 L1254.99 522.3 L1254.99 527.219 L1237.39 527.219 L1237.39 537.809 Q1238.67 537.375 1239.94 537.173 Q1241.21 536.941 1242.49 536.941 Q1249.72 536.941 1253.94 540.905 Q1258.17 544.87 1258.17 551.64 Q1258.17 558.614 1253.83 562.491 Q1249.49 566.339 1241.59 566.339 Q1238.87 566.339 1236.03 565.876 Q1233.23 565.413 1230.22 564.487 L1230.22 558.614 Q1232.82 560.031 1235.6 560.726 Q1238.38 561.42 1241.47 561.42 Q1246.48 561.42 1249.4 558.787 Q1252.32 556.154 1252.32 551.64 Q1252.32 547.126 1249.4 544.493 Q1246.48 541.86 1241.47 541.86 Q1239.13 541.86 1236.79 542.381 Q1234.47 542.902 1232.04 544.001 L1232.04 522.3 Z" fill="#000000" fill-rule="evenodd" fill-opacity="1" /><path clip-path="url(#clip480)" d="M1282.18 526.149 Q1277.67 526.149 1275.39 530.605 Q1273.13 535.032 1273.13 543.944 Q1273.13 552.827 1275.39 557.283 Q1277.67 561.71 1282.18 561.71 Q1286.73 561.71 1288.98 557.283 Q1291.27 552.827 1291.27 543.944 Q1291.27 535.032 1288.98 530.605 Q1286.73 526.149 1282.18 526.149 M1282.18 521.519 Q1289.45 521.519 1293.27 527.277 Q1297.12 533.006 1297.12 543.944 Q1297.12 554.852 1293.27 560.61 Q1289.45 566.339 1282.18 566.339 Q1274.92 566.339 1271.07 560.61 Q1267.25 554.852 1267.25 543.944 Q1267.25 533.006 1271.07 527.277 Q1274.92 521.519 1282.18 521.519 Z" fill="#000000" fill-rule="evenodd" fill-opacity="1" /><polyline clip-path="url(#clip480)" style="stroke:#000000; stroke-linecap:butt; stroke-linejoin:round; stroke-width:4; stroke-opacity:1; fill:none" points="
  200.094,501.1 200.094,47.2441 
  "/>
<polyline clip-path="url(#clip480)" style="stroke:#000000; stroke-linecap:butt; stroke-linejoin:round; stroke-width:4; stroke-opacity:1; fill:none" points="
  200.094,487.84 218.992,487.84 
  "/>
<polyline clip-path="url(#clip480)" style="stroke:#000000; stroke-linecap:butt; stroke-linejoin:round; stroke-width:4; stroke-opacity:1; fill:none" points="
  200.094,380.899 218.992,380.899 
  "/>
<polyline clip-path="url(#clip480)" style="stroke:#000000; stroke-linecap:butt; stroke-linejoin:round; stroke-width:4; stroke-opacity:1; fill:none" points="
  200.094,273.958 218.992,273.958 
  "/>
<polyline clip-path="url(#clip480)" style="stroke:#000000; stroke-linecap:butt; stroke-linejoin:round; stroke-width:4; stroke-opacity:1; fill:none" points="
  200.094,167.018 218.992,167.018 
  "/>
<polyline clip-path="url(#clip480)" style="stroke:#000000; stroke-linecap:butt; stroke-linejoin:round; stroke-width:4; stroke-opacity:1; fill:none" points="
  200.094,60.077 218.992,60.077 
  "/>
<path clip-path="url(#clip480)" d="M71.4226 470.088 Q66.9087 470.088 64.6229 474.544 Q62.3659 478.971 62.3659 487.883 Q62.3659 496.766 64.6229 501.222 Q66.9087 505.649 71.4226 505.649 Q75.9654 505.649 78.2223 501.222 Q80.5082 496.766 80.5082 487.883 Q80.5082 478.971 78.2223 474.544 Q75.9654 470.088 71.4226 470.088 M71.4226 465.458 Q78.6853 465.458 82.5047 471.216 Q86.3531 476.946 86.3531 487.883 Q86.3531 498.791 82.5047 504.55 Q78.6853 510.279 71.4226 510.279 Q64.1599 510.279 60.3115 504.55 Q56.4921 498.791 56.4921 487.883 Q56.4921 476.946 60.3115 471.216 Q64.1599 465.458 71.4226 465.458 Z" fill="#000000" fill-rule="evenodd" fill-opacity="1" /><path clip-path="url(#clip480)" d="M96.625 502.09 L102.73 502.09 L102.73 509.44 L96.625 509.44 L96.625 502.09 Z" fill="#000000" fill-rule="evenodd" fill-opacity="1" /><path clip-path="url(#clip480)" d="M127.962 470.088 Q123.448 470.088 121.162 474.544 Q118.905 478.971 118.905 487.883 Q118.905 496.766 121.162 501.222 Q123.448 505.649 127.962 505.649 Q132.504 505.649 134.761 501.222 Q137.047 496.766 137.047 487.883 Q137.047 478.971 134.761 474.544 Q132.504 470.088 127.962 470.088 M127.962 465.458 Q135.224 465.458 139.044 471.216 Q142.892 476.946 142.892 487.883 Q142.892 498.791 139.044 504.55 Q135.224 510.279 127.962 510.279 Q120.699 510.279 116.851 504.55 Q113.031 498.791 113.031 487.883 Q113.031 476.946 116.851 471.216 Q120.699 465.458 127.962 465.458 Z" fill="#000000" fill-rule="evenodd" fill-opacity="1" /><path clip-path="url(#clip480)" d="M165.664 470.088 Q161.15 470.088 158.864 474.544 Q156.607 478.971 156.607 487.883 Q156.607 496.766 158.864 501.222 Q161.15 505.649 165.664 505.649 Q170.207 505.649 172.464 501.222 Q174.75 496.766 174.75 487.883 Q174.75 478.971 172.464 474.544 Q170.207 470.088 165.664 470.088 M165.664 465.458 Q172.927 465.458 176.746 471.216 Q180.594 476.946 180.594 487.883 Q180.594 498.791 176.746 504.55 Q172.927 510.279 165.664 510.279 Q158.401 510.279 154.553 504.55 Q150.734 498.791 150.734 487.883 Q150.734 476.946 154.553 471.216 Q158.401 465.458 165.664 465.458 Z" fill="#000000" fill-rule="evenodd" fill-opacity="1" /><path clip-path="url(#clip480)" d="M72.6668 363.147 Q68.1529 363.147 65.8671 367.603 Q63.6101 372.03 63.6101 380.942 Q63.6101 389.825 65.8671 394.281 Q68.1529 398.708 72.6668 398.708 Q77.2096 398.708 79.4665 394.281 Q81.7524 389.825 81.7524 380.942 Q81.7524 372.03 79.4665 367.603 Q77.2096 363.147 72.6668 363.147 M72.6668 358.518 Q79.9295 358.518 83.7489 364.276 Q87.5973 370.005 87.5973 380.942 Q87.5973 391.851 83.7489 397.609 Q79.9295 403.338 72.6668 403.338 Q65.4041 403.338 61.5558 397.609 Q57.7363 391.851 57.7363 380.942 Q57.7363 370.005 61.5558 364.276 Q65.4041 358.518 72.6668 358.518 Z" fill="#000000" fill-rule="evenodd" fill-opacity="1" /><path clip-path="url(#clip480)" d="M97.8692 395.149 L103.975 395.149 L103.975 402.499 L97.8692 402.499 L97.8692 395.149 Z" fill="#000000" fill-rule="evenodd" fill-opacity="1" /><path clip-path="url(#clip480)" d="M121.741 397.58 L142.14 397.58 L142.14 402.499 L114.709 402.499 L114.709 397.58 Q118.037 394.137 123.766 388.35 Q129.524 382.534 131 380.855 Q133.807 377.702 134.906 375.531 Q136.035 373.332 136.035 371.22 Q136.035 367.777 133.604 365.607 Q131.202 363.437 127.325 363.437 Q124.576 363.437 121.509 364.391 Q118.471 365.346 114.999 367.285 L114.999 361.382 Q118.529 359.964 121.596 359.241 Q124.663 358.518 127.209 358.518 Q133.922 358.518 137.915 361.874 Q141.908 365.231 141.908 370.844 Q141.908 373.506 140.896 375.908 Q139.912 378.28 137.279 381.521 Q136.555 382.36 132.678 386.382 Q128.801 390.375 121.741 397.58 Z" fill="#000000" fill-rule="evenodd" fill-opacity="1" /><path clip-path="url(#clip480)" d="M154.466 359.299 L177.412 359.299 L177.412 364.218 L159.819 364.218 L159.819 374.808 Q161.092 374.374 162.365 374.172 Q163.639 373.94 164.912 373.94 Q172.145 373.94 176.37 377.904 Q180.594 381.868 180.594 388.639 Q180.594 395.612 176.254 399.49 Q171.914 403.338 164.015 403.338 Q161.295 403.338 158.459 402.875 Q155.652 402.412 152.643 401.486 L152.643 395.612 Q155.247 397.03 158.025 397.725 Q160.803 398.419 163.899 398.419 Q168.905 398.419 171.827 395.786 Q174.75 393.153 174.75 388.639 Q174.75 384.125 171.827 381.492 Q168.905 378.859 163.899 378.859 Q161.555 378.859 159.211 379.38 Q156.897 379.901 154.466 381 L154.466 359.299 Z" fill="#000000" fill-rule="evenodd" fill-opacity="1" /><path clip-path="url(#clip480)" d="M71.4226 256.207 Q66.9087 256.207 64.6229 260.663 Q62.3659 265.09 62.3659 274.002 Q62.3659 282.885 64.6229 287.341 Q66.9087 291.768 71.4226 291.768 Q75.9654 291.768 78.2223 287.341 Q80.5082 282.885 80.5082 274.002 Q80.5082 265.09 78.2223 260.663 Q75.9654 256.207 71.4226 256.207 M71.4226 251.577 Q78.6853 251.577 82.5047 257.335 Q86.3531 263.064 86.3531 274.002 Q86.3531 284.91 82.5047 290.668 Q78.6853 296.397 71.4226 296.397 Q64.1599 296.397 60.3115 290.668 Q56.4921 284.91 56.4921 274.002 Q56.4921 263.064 60.3115 257.335 Q64.1599 251.577 71.4226 251.577 Z" fill="#000000" fill-rule="evenodd" fill-opacity="1" /><path clip-path="url(#clip480)" d="M96.625 288.209 L102.73 288.209 L102.73 295.558 L96.625 295.558 L96.625 288.209 Z" fill="#000000" fill-rule="evenodd" fill-opacity="1" /><path clip-path="url(#clip480)" d="M115.52 252.358 L138.465 252.358 L138.465 257.277 L120.873 257.277 L120.873 267.867 Q122.146 267.433 123.419 267.231 Q124.692 266.999 125.965 266.999 Q133.199 266.999 137.423 270.963 Q141.648 274.928 141.648 281.698 Q141.648 288.672 137.308 292.549 Q132.967 296.397 125.068 296.397 Q122.348 296.397 119.513 295.934 Q116.706 295.471 113.697 294.546 L113.697 288.672 Q116.301 290.09 119.079 290.784 Q121.856 291.478 124.952 291.478 Q129.958 291.478 132.881 288.845 Q135.803 286.212 135.803 281.698 Q135.803 277.185 132.881 274.551 Q129.958 271.918 124.952 271.918 Q122.609 271.918 120.265 272.439 Q117.95 272.96 115.52 274.06 L115.52 252.358 Z" fill="#000000" fill-rule="evenodd" fill-opacity="1" /><path clip-path="url(#clip480)" d="M165.664 256.207 Q161.15 256.207 158.864 260.663 Q156.607 265.09 156.607 274.002 Q156.607 282.885 158.864 287.341 Q161.15 291.768 165.664 291.768 Q170.207 291.768 172.464 287.341 Q174.75 282.885 174.75 274.002 Q174.75 265.09 172.464 260.663 Q170.207 256.207 165.664 256.207 M165.664 251.577 Q172.927 251.577 176.746 257.335 Q180.594 263.064 180.594 274.002 Q180.594 284.91 176.746 290.668 Q172.927 296.397 165.664 296.397 Q158.401 296.397 154.553 290.668 Q150.734 284.91 150.734 274.002 Q150.734 263.064 154.553 257.335 Q158.401 251.577 165.664 251.577 Z" fill="#000000" fill-rule="evenodd" fill-opacity="1" /><path clip-path="url(#clip480)" d="M72.6668 149.266 Q68.1529 149.266 65.8671 153.722 Q63.6101 158.149 63.6101 167.061 Q63.6101 175.944 65.8671 180.4 Q68.1529 184.827 72.6668 184.827 Q77.2096 184.827 79.4665 180.4 Q81.7524 175.944 81.7524 167.061 Q81.7524 158.149 79.4665 153.722 Q77.2096 149.266 72.6668 149.266 M72.6668 144.636 Q79.9295 144.636 83.7489 150.394 Q87.5973 156.124 87.5973 167.061 Q87.5973 177.97 83.7489 183.728 Q79.9295 189.457 72.6668 189.457 Q65.4041 189.457 61.5558 183.728 Q57.7363 177.97 57.7363 167.061 Q57.7363 156.124 61.5558 150.394 Q65.4041 144.636 72.6668 144.636 Z" fill="#000000" fill-rule="evenodd" fill-opacity="1" /><path clip-path="url(#clip480)" d="M97.8692 181.268 L103.975 181.268 L103.975 188.618 L97.8692 188.618 L97.8692 181.268 Z" fill="#000000" fill-rule="evenodd" fill-opacity="1" /><path clip-path="url(#clip480)" d="M115.23 145.418 L143.008 145.418 L143.008 147.906 L127.325 188.618 L121.22 188.618 L135.977 150.337 L115.23 150.337 L115.23 145.418 Z" fill="#000000" fill-rule="evenodd" fill-opacity="1" /><path clip-path="url(#clip480)" d="M154.466 145.418 L177.412 145.418 L177.412 150.337 L159.819 150.337 L159.819 160.927 Q161.092 160.493 162.365 160.29 Q163.639 160.059 164.912 160.059 Q172.145 160.059 176.37 164.023 Q180.594 167.987 180.594 174.758 Q180.594 181.731 176.254 185.608 Q171.914 189.457 164.015 189.457 Q161.295 189.457 158.459 188.994 Q155.652 188.531 152.643 187.605 L152.643 181.731 Q155.247 183.149 158.025 183.843 Q160.803 184.538 163.899 184.538 Q168.905 184.538 171.827 181.905 Q174.75 179.272 174.75 174.758 Q174.75 170.244 171.827 167.611 Q168.905 164.978 163.899 164.978 Q161.555 164.978 159.211 165.499 Q156.897 166.019 154.466 167.119 L154.466 145.418 Z" fill="#000000" fill-rule="evenodd" fill-opacity="1" /><path clip-path="url(#clip480)" d="M59.9354 76.758 L69.484 76.758 L69.484 43.801 L59.0963 45.8843 L59.0963 40.5603 L69.4261 38.477 L75.271 38.477 L75.271 76.758 L84.8195 76.758 L84.8195 81.677 L59.9354 81.677 L59.9354 76.758 Z" fill="#000000" fill-rule="evenodd" fill-opacity="1" /><path clip-path="url(#clip480)" d="M96.625 74.3275 L102.73 74.3275 L102.73 81.677 L96.625 81.677 L96.625 74.3275 Z" fill="#000000" fill-rule="evenodd" fill-opacity="1" /><path clip-path="url(#clip480)" d="M127.962 42.3253 Q123.448 42.3253 121.162 46.7813 Q118.905 51.2084 118.905 60.1204 Q118.905 69.0034 121.162 73.4594 Q123.448 77.8865 127.962 77.8865 Q132.504 77.8865 134.761 73.4594 Q137.047 69.0034 137.047 60.1204 Q137.047 51.2084 134.761 46.7813 Q132.504 42.3253 127.962 42.3253 M127.962 37.6957 Q135.224 37.6957 139.044 43.4538 Q142.892 49.1829 142.892 60.1204 Q142.892 71.0289 139.044 76.787 Q135.224 82.5161 127.962 82.5161 Q120.699 82.5161 116.851 76.787 Q113.031 71.0289 113.031 60.1204 Q113.031 49.1829 116.851 43.4538 Q120.699 37.6957 127.962 37.6957 Z" fill="#000000" fill-rule="evenodd" fill-opacity="1" /><path clip-path="url(#clip480)" d="M165.664 42.3253 Q161.15 42.3253 158.864 46.7813 Q156.607 51.2084 156.607 60.1204 Q156.607 69.0034 158.864 73.4594 Q161.15 77.8865 165.664 77.8865 Q170.207 77.8865 172.464 73.4594 Q174.75 69.0034 174.75 60.1204 Q174.75 51.2084 172.464 46.7813 Q170.207 42.3253 165.664 42.3253 M165.664 37.6957 Q172.927 37.6957 176.746 43.4538 Q180.594 49.1829 180.594 60.1204 Q180.594 71.0289 176.746 76.787 Q172.927 82.5161 165.664 82.5161 Q158.401 82.5161 154.553 76.787 Q150.734 71.0289 150.734 60.1204 Q150.734 49.1829 154.553 43.4538 Q158.401 37.6957 165.664 37.6957 Z" fill="#000000" fill-rule="evenodd" fill-opacity="1" /><polyline clip-path="url(#clip482)" style="stroke:#ff00ff; stroke-linecap:butt; stroke-linejoin:round; stroke-width:16; stroke-opacity:1; fill:none" points="
  207.066,274.065 214.037,274.147 221.008,274.244 227.98,274.362 234.951,274.504 241.922,274.677 248.893,274.887 255.865,275.141 262.836,275.448 269.807,275.82 
  276.778,276.27 283.75,276.815 290.721,277.473 297.692,278.267 304.663,279.224 311.635,280.375 318.606,281.757 325.577,283.411 332.549,285.384 339.52,287.73 
  346.491,290.505 353.462,293.77 360.434,297.588 367.405,302.018 374.376,307.113 381.347,312.916 388.319,319.448 395.29,326.707 402.261,334.66 409.233,343.238 
  416.204,352.335 423.175,361.81 430.146,371.499 437.118,381.219 444.089,390.785 451.06,400.027 458.031,408.793 465.003,416.969 471.974,424.472 478.945,431.26 
  485.916,437.32 492.888,442.669 499.859,447.342 506.83,451.391 513.802,454.872 520.773,457.848 527.744,460.379 534.715,462.522 541.687,464.33 548.658,465.851 
  555.629,467.126 562.6,468.191 569.572,469.077 576.543,469.81 583.514,470.412 590.485,470.903 597.457,471.298 604.428,471.61 611.399,471.852 618.371,472.032 
  625.342,472.16 632.313,472.243 639.284,472.287 646.256,472.299 653.227,472.282 660.198,472.242 667.169,472.181 674.141,472.105 681.112,472.015 688.083,471.914 
  695.054,471.804 702.026,471.688 708.997,471.567 715.968,471.443 722.94,471.317 729.911,471.189 736.882,471.061 743.853,470.933 750.825,470.807 757.796,470.682 
  764.767,470.559 771.738,470.438 778.71,470.32 785.681,470.204 792.652,470.092 799.623,469.982 806.595,469.874 813.566,469.77 820.537,469.669 827.509,469.57 
  834.48,469.475 841.451,469.382 848.422,469.292 855.394,469.204 862.365,469.119 869.336,469.036 876.307,468.956 883.279,468.878 890.25,468.802 897.221,468.728 
  904.193,468.657 911.164,468.587 918.135,468.519 925.106,468.453 932.078,468.388 939.049,468.325 946.02,468.264 952.991,468.204 959.963,468.146 966.934,468.088 
  973.905,468.033 980.876,467.978 987.848,467.925 994.819,467.872 1001.79,467.821 1008.76,467.771 1015.73,467.722 1022.7,467.673 1029.68,467.626 1036.65,467.579 
  1043.62,467.533 1050.59,467.488 1057.56,467.444 1064.53,467.4 1071.5,467.357 1078.47,467.315 1085.45,467.273 1092.42,467.232 1099.39,467.191 1106.36,467.151 
  1113.33,467.112 1120.3,467.072 1127.27,467.034 1134.24,466.995 1141.22,466.957 1148.19,466.92 1155.16,466.883 1162.13,466.846 1169.1,466.809 1176.07,466.773 
  1183.04,466.737 1190.01,466.701 1196.99,466.665 1203.96,466.63 1210.93,466.595 1217.9,466.56 1224.87,466.525 1231.84,466.491 1238.81,466.456 1245.78,466.422 
  1252.76,466.388 
  "/>
<polyline clip-path="url(#clip482)" style="stroke:#2000d4; stroke-linecap:butt; stroke-linejoin:round; stroke-width:16; stroke-opacity:1; fill:none" stroke-dasharray="8, 16" points="
  207.066,487.84 214.037,487.84 221.008,487.84 227.98,487.84 234.951,487.84 241.922,487.84 248.893,487.84 255.865,487.84 262.836,487.839 269.807,487.839 
  276.778,487.839 283.75,487.839 290.721,487.839 297.692,487.839 304.663,487.839 311.635,487.839 318.606,487.839 325.577,487.839 332.549,487.839 339.52,487.838 
  346.491,487.838 353.462,487.838 360.434,487.837 367.405,487.837 374.376,487.836 381.347,487.836 388.319,487.835 395.29,487.834 402.261,487.833 409.233,487.832 
  416.204,487.831 423.175,487.83 430.146,487.829 437.118,487.828 444.089,487.827 451.06,487.826 458.031,487.825 465.003,487.824 471.974,487.823 478.945,487.822 
  485.916,487.821 492.888,487.82 499.859,487.819 506.83,487.818 513.802,487.817 520.773,487.816 527.744,487.816 534.715,487.815 541.687,487.814 548.658,487.813 
  555.629,487.812 562.6,487.812 569.572,487.811 576.543,487.81 583.514,487.809 590.485,487.808 597.457,487.808 604.428,487.807 611.399,487.806 618.371,487.805 
  625.342,487.804 632.313,487.804 639.284,487.803 646.256,487.802 653.227,487.801 660.198,487.8 667.169,487.8 674.141,487.799 681.112,487.798 688.083,487.797 
  695.054,487.796 702.026,487.795 708.997,487.794 715.968,487.793 722.94,487.793 729.911,487.792 736.882,487.791 743.853,487.79 750.825,487.789 757.796,487.788 
  764.767,487.787 771.738,487.786 778.71,487.785 785.681,487.784 792.652,487.783 799.623,487.782 806.595,487.781 813.566,487.78 820.537,487.779 827.509,487.778 
  834.48,487.777 841.451,487.776 848.422,487.775 855.394,487.774 862.365,487.773 869.336,487.771 876.307,487.77 883.279,487.769 890.25,487.768 897.221,487.767 
  904.193,487.766 911.164,487.765 918.135,487.763 925.106,487.762 932.078,487.761 939.049,487.76 946.02,487.759 952.991,487.757 959.963,487.756 966.934,487.755 
  973.905,487.753 980.876,487.752 987.848,487.751 994.819,487.75 1001.79,487.748 1008.76,487.747 1015.73,487.745 1022.7,487.744 1029.68,487.743 1036.65,487.741 
  1043.62,487.74 1050.59,487.738 1057.56,487.737 1064.53,487.736 1071.5,487.734 1078.47,487.733 1085.45,487.731 1092.42,487.73 1099.39,487.728 1106.36,487.726 
  1113.33,487.725 1120.3,487.723 1127.27,487.722 1134.24,487.72 1141.22,487.718 1148.19,487.717 1155.16,487.715 1162.13,487.713 1169.1,487.712 1176.07,487.71 
  1183.04,487.708 1190.01,487.707 1196.99,487.705 1203.96,487.703 1210.93,487.701 1217.9,487.699 1224.87,487.697 1231.84,487.696 1238.81,487.694 1245.78,487.692 
  1252.76,487.69 
  "/>
<polyline clip-path="url(#clip482)" style="stroke:#008900; stroke-linecap:butt; stroke-linejoin:round; stroke-width:16; stroke-opacity:1; fill:none" stroke-dasharray="64, 40" points="
  207.066,487.84 214.037,487.84 221.008,487.839 227.98,487.839 234.951,487.839 241.922,487.839 248.893,487.839 255.865,487.839 262.836,487.839 269.807,487.839 
  276.778,487.839 283.75,487.839 290.721,487.839 297.692,487.839 304.663,487.838 311.635,487.838 318.606,487.838 325.577,487.837 332.549,487.837 339.52,487.836 
  346.491,487.836 353.462,487.835 360.434,487.834 367.405,487.833 374.376,487.832 381.347,487.831 388.319,487.829 395.29,487.828 402.261,487.826 409.233,487.823 
  416.204,487.821 423.175,487.819 430.146,487.816 437.118,487.813 444.089,487.81 451.06,487.807 458.031,487.803 465.003,487.799 471.974,487.795 478.945,487.791 
  485.916,487.786 492.888,487.78 499.859,487.774 506.83,487.767 513.802,487.76 520.773,487.751 527.744,487.742 534.715,487.731 541.687,487.719 548.658,487.705 
  555.629,487.69 562.6,487.674 569.572,487.656 576.543,487.637 583.514,487.616 590.485,487.594 597.457,487.57 604.428,487.544 611.399,487.518 618.371,487.49 
  625.342,487.46 632.313,487.43 639.284,487.398 646.256,487.366 653.227,487.332 660.198,487.298 667.169,487.263 674.141,487.227 681.112,487.191 688.083,487.154 
  695.054,487.117 702.026,487.08 708.997,487.042 715.968,487.005 722.94,486.967 729.911,486.929 736.882,486.891 743.853,486.853 750.825,486.815 757.796,486.777 
  764.767,486.739 771.738,486.702 778.71,486.664 785.681,486.627 792.652,486.59 799.623,486.553 806.595,486.517 813.566,486.48 820.537,486.444 827.509,486.409 
  834.48,486.373 841.451,486.338 848.422,486.303 855.394,486.268 862.365,486.233 869.336,486.199 876.307,486.165 883.279,486.132 890.25,486.098 897.221,486.065 
  904.193,486.033 911.164,486 918.135,485.968 925.106,485.936 932.078,485.904 939.049,485.873 946.02,485.842 952.991,485.811 959.963,485.781 966.934,485.751 
  973.905,485.721 980.876,485.691 987.848,485.662 994.819,485.633 1001.79,485.604 1008.76,485.576 1015.73,485.548 1022.7,485.52 1029.68,485.492 1036.65,485.465 
  1043.62,485.438 1050.59,485.411 1057.56,485.384 1064.53,485.358 1071.5,485.332 1078.47,485.306 1085.45,485.281 1092.42,485.256 1099.39,485.231 1106.36,485.206 
  1113.33,485.181 1120.3,485.157 1127.27,485.133 1134.24,485.11 1141.22,485.086 1148.19,485.063 1155.16,485.04 1162.13,485.017 1169.1,484.995 1176.07,484.973 
  1183.04,484.951 1190.01,484.929 1196.99,484.907 1203.96,484.886 1210.93,484.865 1217.9,484.844 1224.87,484.824 1231.84,484.804 1238.81,484.784 1245.78,484.764 
  1252.76,484.744 
  "/>
<polyline clip-path="url(#clip482)" style="stroke:#008900; stroke-linecap:butt; stroke-linejoin:round; stroke-width:16; stroke-opacity:1; fill:none" stroke-dasharray="8, 16" points="
  207.066,487.84 214.037,487.84 221.008,487.839 227.98,487.839 234.951,487.839 241.922,487.839 248.893,487.839 255.865,487.839 262.836,487.839 269.807,487.839 
  276.778,487.839 283.75,487.839 290.721,487.838 297.692,487.838 304.663,487.838 311.635,487.837 318.606,487.837 325.577,487.837 332.549,487.836 339.52,487.835 
  346.491,487.834 353.462,487.833 360.434,487.832 367.405,487.831 374.376,487.829 381.347,487.827 388.319,487.825 395.29,487.823 402.261,487.82 409.233,487.817 
  416.204,487.815 423.175,487.811 430.146,487.808 437.118,487.805 444.089,487.802 451.06,487.799 458.031,487.796 465.003,487.793 471.974,487.79 478.945,487.788 
  485.916,487.785 492.888,487.783 499.859,487.781 506.83,487.779 513.802,487.778 520.773,487.776 527.744,487.775 534.715,487.773 541.687,487.772 548.658,487.771 
  555.629,487.77 562.6,487.769 569.572,487.769 576.543,487.769 583.514,487.769 590.485,487.769 597.457,487.769 604.428,487.77 611.399,487.77 618.371,487.771 
  625.342,487.772 632.313,487.773 639.284,487.775 646.256,487.776 653.227,487.778 660.198,487.779 667.169,487.781 674.141,487.782 681.112,487.784 688.083,487.785 
  695.054,487.787 702.026,487.788 708.997,487.79 715.968,487.791 722.94,487.793 729.911,487.794 736.882,487.796 743.853,487.797 750.825,487.798 757.796,487.799 
  764.767,487.8 771.738,487.802 778.71,487.803 785.681,487.804 792.652,487.805 799.623,487.805 806.595,487.806 813.566,487.807 820.537,487.808 827.509,487.809 
  834.48,487.81 841.451,487.81 848.422,487.811 855.394,487.812 862.365,487.812 869.336,487.813 876.307,487.813 883.279,487.814 890.25,487.814 897.221,487.815 
  904.193,487.815 911.164,487.816 918.135,487.816 925.106,487.817 932.078,487.817 939.049,487.818 946.02,487.818 952.991,487.818 959.963,487.819 966.934,487.819 
  973.905,487.819 980.876,487.82 987.848,487.82 994.819,487.82 1001.79,487.82 1008.76,487.821 1015.73,487.821 1022.7,487.821 1029.68,487.822 1036.65,487.822 
  1043.62,487.822 1050.59,487.822 1057.56,487.822 1064.53,487.823 1071.5,487.823 1078.47,487.823 1085.45,487.823 1092.42,487.823 1099.39,487.824 1106.36,487.824 
  1113.33,487.824 1120.3,487.824 1127.27,487.824 1134.24,487.824 1141.22,487.824 1148.19,487.825 1155.16,487.825 1162.13,487.825 1169.1,487.825 1176.07,487.825 
  1183.04,487.825 1190.01,487.825 1196.99,487.825 1203.96,487.826 1210.93,487.826 1217.9,487.826 1224.87,487.826 1231.84,487.826 1238.81,487.826 1245.78,487.826 
  1252.76,487.826 
  "/>
<polyline clip-path="url(#clip482)" style="stroke:#2000d4; stroke-linecap:butt; stroke-linejoin:round; stroke-width:16; stroke-opacity:1; fill:none" points="
  207.066,487.412 214.037,487.081 221.008,486.682 227.98,486.199 234.951,485.616 241.922,484.91 248.893,484.057 255.865,483.026 262.836,481.781 269.807,480.278 
  276.778,478.466 283.75,476.285 290.721,473.664 297.692,470.523 304.663,466.767 311.635,462.292 318.606,456.983 325.577,450.714 332.549,443.354 339.52,434.771 
  346.491,424.843 353.462,413.464 360.434,400.556 367.405,386.089 374.376,370.091 381.347,352.658 388.319,333.966 395.29,314.268 402.261,293.882 409.233,273.179 
  416.204,252.552 423.175,232.387 430.146,213.038 437.118,194.8 444.089,177.896 451.06,162.471 458.031,148.593 465.003,136.265 471.974,125.437 478.945,116.018 
  485.916,107.894 492.888,100.936 499.859,95.0121 506.83,89.9914 513.802,85.752 520.773,82.1816 527.744,79.1797 534.715,76.6579 541.687,74.5393 548.658,72.758 
  555.629,71.2581 562.6,69.9925 569.572,68.9217 576.543,68.0129 583.514,67.239 590.485,66.5775 597.457,66.0099 604.428,65.521 611.399,65.0981 618.371,64.731 
  625.342,64.411 632.313,64.131 639.284,63.8852 646.256,63.6686 653.227,63.4772 660.198,63.3075 667.169,63.1565 674.141,63.022 681.112,62.9017 688.083,62.7939 
  695.054,62.6971 702.026,62.61 708.997,62.5315 715.968,62.4606 722.94,62.3966 729.911,62.3386 736.882,62.2861 743.853,62.2385 750.825,62.1953 757.796,62.1561 
  764.767,62.1205 771.738,62.0882 778.71,62.0589 785.681,62.0324 792.652,62.0084 799.623,61.9867 806.595,61.9671 813.566,61.9495 820.537,61.9337 827.509,61.9195 
  834.48,61.907 841.451,61.8958 848.422,61.8861 855.394,61.8776 862.365,61.8702 869.336,61.864 876.307,61.8589 883.279,61.8547 890.25,61.8515 897.221,61.8491 
  904.193,61.8476 911.164,61.8468 918.135,61.8469 925.106,61.8476 932.078,61.849 939.049,61.8511 946.02,61.8538 952.991,61.8571 959.963,61.861 966.934,61.8654 
  973.905,61.8704 980.876,61.8759 987.848,61.8818 994.819,61.8883 1001.79,61.8953 1008.76,61.9027 1015.73,61.9105 1022.7,61.9188 1029.68,61.9275 1036.65,61.9366 
  1043.62,61.9461 1050.59,61.956 1057.56,61.9662 1064.53,61.9769 1071.5,61.9879 1078.47,61.9993 1085.45,62.0111 1092.42,62.0232 1099.39,62.0356 1106.36,62.0484 
  1113.33,62.0615 1120.3,62.075 1127.27,62.0888 1134.24,62.1029 1141.22,62.1174 1148.19,62.1321 1155.16,62.1472 1162.13,62.1626 1169.1,62.1784 1176.07,62.1944 
  1183.04,62.2108 1190.01,62.2274 1196.99,62.2444 1203.96,62.2617 1210.93,62.2793 1217.9,62.2972 1224.87,62.3154 1231.84,62.3339 1238.81,62.3527 1245.78,62.3718 
  1252.76,62.3913 
  "/>
<polyline clip-path="url(#clip482)" style="stroke:#008900; stroke-linecap:butt; stroke-linejoin:round; stroke-width:16; stroke-opacity:1; fill:none" points="
  207.066,487.626 214.037,487.58 221.008,487.523 227.98,487.454 234.951,487.37 241.922,487.269 248.893,487.145 255.865,486.996 262.836,486.815 269.807,486.597 
  276.778,486.333 283.75,486.015 290.721,485.633 297.692,485.175 304.663,484.626 311.635,483.973 318.606,483.197 325.577,482.28 332.549,481.203 339.52,479.947 
  346.491,478.493 353.462,476.825 360.434,474.932 367.405,472.808 374.376,470.456 381.347,467.89 388.319,465.134 395.29,462.223 402.261,459.201 409.233,456.122 
  416.204,453.038 423.175,450.004 430.146,447.068 437.118,444.269 444.089,441.637 451.06,439.187 458.031,436.927 465.003,434.851 471.974,432.949 478.945,431.204 
  485.916,429.599 492.888,428.114 499.859,426.734 506.83,425.444 513.802,424.238 520.773,423.113 527.744,422.071 534.715,421.122 541.687,420.278 548.658,419.556 
  555.629,418.972 562.6,418.544 569.572,418.287 576.543,418.213 583.514,418.329 590.485,418.639 597.457,419.141 604.428,419.827 611.399,420.686 618.371,421.706 
  625.342,422.868 632.313,424.154 639.284,425.546 646.256,427.024 653.227,428.568 660.198,430.163 667.169,431.789 674.141,433.434 681.112,435.083 688.083,436.724 
  695.054,438.349 702.026,439.949 708.997,441.516 715.968,443.046 722.94,444.535 729.911,445.979 736.882,447.377 743.853,448.726 750.825,450.027 757.796,451.279 
  764.767,452.483 771.738,453.64 778.71,454.75 785.681,455.814 792.652,456.834 799.623,457.812 806.595,458.749 813.566,459.647 820.537,460.507 827.509,461.331 
  834.48,462.12 841.451,462.877 848.422,463.602 855.394,464.297 862.365,464.964 869.336,465.604 876.307,466.218 883.279,466.807 890.25,467.373 897.221,467.917 
  904.193,468.44 911.164,468.943 918.135,469.427 925.106,469.893 932.078,470.341 939.049,470.773 946.02,471.19 952.991,471.591 959.963,471.979 966.934,472.352 
  973.905,472.713 980.876,473.062 987.848,473.399 994.819,473.724 1001.79,474.039 1008.76,474.344 1015.73,474.639 1022.7,474.924 1029.68,475.201 1036.65,475.469 
  1043.62,475.728 1050.59,475.98 1057.56,476.225 1064.53,476.462 1071.5,476.692 1078.47,476.916 1085.45,477.133 1092.42,477.344 1099.39,477.549 1106.36,477.748 
  1113.33,477.942 1120.3,478.131 1127.27,478.315 1134.24,478.494 1141.22,478.668 1148.19,478.837 1155.16,479.003 1162.13,479.164 1169.1,479.321 1176.07,479.474 
  1183.04,479.623 1190.01,479.769 1196.99,479.911 1203.96,480.05 1210.93,480.185 1217.9,480.318 1224.87,480.447 1231.84,480.573 1238.81,480.697 1245.78,480.817 
  1252.76,480.935 
  "/>
<polyline clip-path="url(#clip482)" style="stroke:#7f7f7f; stroke-linecap:butt; stroke-linejoin:round; stroke-width:16; stroke-opacity:1; fill:none" points="
  207.066,60.077 214.037,133.824 221.008,172.416 227.98,196.202 234.951,212.2 241.922,223.567 248.893,231.956 255.865,238.332 262.836,243.297 269.807,247.252 
  276.778,250.475 283.75,253.171 290.721,255.492 297.692,257.56 304.663,259.474 311.635,261.318 318.606,263.167 325.577,265.09 332.549,267.155 339.52,269.426 
  346.491,271.966 353.462,274.839 360.434,278.108 367.405,281.83 374.376,286.061 381.347,290.845 388.319,296.213 395.29,302.182 402.261,308.747 409.233,315.88 
  416.204,323.529 423.175,331.622 430.146,340.065 437.118,348.753 444.089,357.573 451.06,366.41 458.031,375.156 465.003,383.715 471.974,392.004 478.945,399.953 
  485.916,407.512 492.888,414.643 499.859,421.321 506.83,427.534 513.802,433.278 520.773,438.558 527.744,443.385 534.715,447.775 541.687,451.75 548.658,455.332 
  555.629,458.55 562.6,461.431 569.572,464.004 576.543,466.298 583.514,468.34 590.485,470.156 597.457,471.772 604.428,473.209 611.399,474.489 618.371,475.628 
  625.342,476.645 632.313,477.553 639.284,478.364 646.256,479.091 653.227,479.743 660.198,480.329 667.169,480.857 674.141,481.333 681.112,481.763 688.083,482.152 
  695.054,482.506 702.026,482.827 708.997,483.12 715.968,483.387 722.94,483.631 729.911,483.855 736.882,484.061 743.853,484.25 750.825,484.425 757.796,484.586 
  764.767,484.735 771.738,484.874 778.71,485.002 785.681,485.122 792.652,485.234 799.623,485.338 806.595,485.435 813.566,485.527 820.537,485.612 827.509,485.693 
  834.48,485.768 841.451,485.84 848.422,485.907 855.394,485.971 862.365,486.031 869.336,486.088 876.307,486.142 883.279,486.194 890.25,486.242 897.221,486.289 
  904.193,486.333 911.164,486.375 918.135,486.416 925.106,486.454 932.078,486.491 939.049,486.526 946.02,486.56 952.991,486.592 959.963,486.624 966.934,486.653 
  973.905,486.682 980.876,486.71 987.848,486.736 994.819,486.762 1001.79,486.787 1008.76,486.81 1015.73,486.833 1022.7,486.855 1029.68,486.877 1036.65,486.898 
  1043.62,486.918 1050.59,486.937 1057.56,486.956 1064.53,486.974 1071.5,486.992 1078.47,487.009 1085.45,487.026 1092.42,487.042 1099.39,487.057 1106.36,487.073 
  1113.33,487.087 1120.3,487.102 1127.27,487.116 1134.24,487.13 1141.22,487.143 1148.19,487.156 1155.16,487.169 1162.13,487.181 1169.1,487.193 1176.07,487.205 
  1183.04,487.216 1190.01,487.227 1196.99,487.238 1203.96,487.249 1210.93,487.26 1217.9,487.27 1224.87,487.28 1231.84,487.29 1238.81,487.299 1245.78,487.309 
  1252.76,487.318 
  "/>
<polyline clip-path="url(#clip482)" style="stroke:#895f55; stroke-linecap:butt; stroke-linejoin:round; stroke-width:16; stroke-opacity:1; fill:none" points="
  214.037,487.416 221.008,487.098 227.98,486.713 234.951,486.247 241.922,485.684 248.893,485.003 255.865,484.179 262.836,483.183 269.807,481.981 276.778,480.529 
  283.75,478.779 290.721,476.673 297.692,474.142 304.663,471.108 311.635,467.481 318.606,463.159 325.577,458.032 332.549,451.977 339.52,444.869 346.491,436.58 
  353.462,426.992 360.434,416.002 367.405,403.536 374.376,389.564 381.347,374.113 388.319,357.276 395.29,339.224 402.261,320.199 409.233,300.51 416.204,280.514 
  423.175,260.591 430.146,241.115 437.118,222.426 444.089,204.81 451.06,188.482 458.031,173.581 465.003,160.174 471.974,148.264 478.945,137.801 485.916,128.7 
  492.888,120.848 499.859,114.123 506.83,108.397 513.802,103.545 520.773,99.4495 527.744,96.0027 534.715,93.1088 541.687,90.6837 548.658,88.6542 555.629,86.958 
  562.6,85.5423 569.572,84.3626 576.543,83.3816 583.514,82.5683 590.485,81.8966 597.457,81.3448 604.428,80.8947 611.399,80.531 618.371,80.2407 625.342,80.0127 
  632.313,79.8378 639.284,79.7077 646.256,79.6156 653.227,79.5554 660.198,79.5221 667.169,79.5111 674.141,79.5185 681.112,79.5412 688.083,79.5761 695.054,79.621 
  702.026,79.6737 708.997,79.7326 715.968,79.796 722.94,79.8628 729.911,79.932 736.882,80.0027 743.853,80.0742 750.825,80.1459 757.796,80.2174 764.767,80.2883 
  771.738,80.3584 778.71,80.4273 785.681,80.495 792.652,80.5613 799.623,80.6261 806.595,80.6894 813.566,80.7512 820.537,80.8114 827.509,80.87 834.48,80.9272 
  841.451,80.9828 848.422,81.037 855.394,81.0897 862.365,81.1411 869.336,81.1911 876.307,81.2399 883.279,81.2875 890.25,81.3338 897.221,81.3791 904.193,81.4233 
  911.164,81.4665 918.135,81.5087 925.106,81.55 932.078,81.5904 939.049,81.63 946.02,81.6688 952.991,81.7069 959.963,81.7443 966.934,81.7809 973.905,81.817 
  980.876,81.8525 987.848,81.8874 994.819,81.9217 1001.79,81.9556 1008.76,81.989 1015.73,82.022 1022.7,82.0545 1029.68,82.0867 1036.65,82.1185 1043.62,82.1499 
  1050.59,82.181 1057.56,82.2119 1064.53,82.2424 1071.5,82.2727 1078.47,82.3027 1085.45,82.3326 1092.42,82.3622 1099.39,82.3916 1106.36,82.4209 1113.33,82.45 
  1120.3,82.4789 1127.27,82.5078 1134.24,82.5365 1141.22,82.5651 1148.19,82.5936 1155.16,82.622 1162.13,82.6504 1169.1,82.6787 1176.07,82.707 1183.04,82.7352 
  1190.01,82.7635 1196.99,82.7917 1203.96,82.8199 1210.93,82.8481 1217.9,82.8763 1224.87,82.9045 1231.84,82.9328 1238.81,82.9611 1245.78,82.9894 1252.76,83.0178 
  
  "/>
<polyline clip-path="url(#clip482)" style="stroke:#2000d4; stroke-linecap:butt; stroke-linejoin:round; stroke-width:16; stroke-opacity:1; fill:none" stroke-dasharray="64, 40" points="
  207.066,487.84 214.037,487.84 221.008,487.84 227.98,487.84 234.951,487.84 241.922,487.84 248.893,487.84 255.865,487.84 262.836,487.84 269.807,487.839 
  276.778,487.839 283.75,487.839 290.721,487.839 297.692,487.839 304.663,487.839 311.635,487.839 318.606,487.839 325.577,487.839 332.549,487.839 339.52,487.839 
  346.491,487.839 353.462,487.839 360.434,487.839 367.405,487.839 374.376,487.839 381.347,487.838 388.319,487.838 395.29,487.838 402.261,487.838 409.233,487.838 
  416.204,487.837 423.175,487.837 430.146,487.837 437.118,487.837 444.089,487.837 451.06,487.837 458.031,487.837 465.003,487.836 471.974,487.836 478.945,487.836 
  485.916,487.836 492.888,487.836 499.859,487.836 506.83,487.836 513.802,487.836 520.773,487.836 527.744,487.836 534.715,487.836 541.687,487.836 548.658,487.835 
  555.629,487.835 562.6,487.835 569.572,487.835 576.543,487.835 583.514,487.835 590.485,487.835 597.457,487.835 604.428,487.835 611.399,487.835 618.371,487.834 
  625.342,487.834 632.313,487.834 639.284,487.834 646.256,487.834 653.227,487.834 660.198,487.833 667.169,487.833 674.141,487.833 681.112,487.833 688.083,487.833 
  695.054,487.832 702.026,487.832 708.997,487.832 715.968,487.832 722.94,487.831 729.911,487.831 736.882,487.831 743.853,487.831 750.825,487.83 757.796,487.83 
  764.767,487.83 771.738,487.829 778.71,487.829 785.681,487.829 792.652,487.828 799.623,487.828 806.595,487.828 813.566,487.827 820.537,487.827 827.509,487.827 
  834.48,487.826 841.451,487.826 848.422,487.826 855.394,487.825 862.365,487.825 869.336,487.824 876.307,487.824 883.279,487.824 890.25,487.823 897.221,487.823 
  904.193,487.822 911.164,487.822 918.135,487.822 925.106,487.821 932.078,487.821 939.049,487.82 946.02,487.82 952.991,487.819 959.963,487.819 966.934,487.818 
  973.905,487.818 980.876,487.817 987.848,487.817 994.819,487.816 1001.79,487.816 1008.76,487.815 1015.73,487.815 1022.7,487.814 1029.68,487.814 1036.65,487.813 
  1043.62,487.813 1050.59,487.812 1057.56,487.811 1064.53,487.811 1071.5,487.81 1078.47,487.81 1085.45,487.809 1092.42,487.808 1099.39,487.808 1106.36,487.807 
  1113.33,487.807 1120.3,487.806 1127.27,487.805 1134.24,487.805 1141.22,487.804 1148.19,487.803 1155.16,487.803 1162.13,487.802 1169.1,487.801 1176.07,487.8 
  1183.04,487.8 1190.01,487.799 1196.99,487.798 1203.96,487.797 1210.93,487.797 1217.9,487.796 1224.87,487.795 1231.84,487.794 1238.81,487.794 1245.78,487.793 
  1252.76,487.792 
  "/>
<polyline clip-path="url(#clip482)" style="stroke:#ff221c; stroke-linecap:butt; stroke-linejoin:round; stroke-width:16; stroke-opacity:1; fill:none" points="
  207.066,487.84 214.037,487.784 221.008,487.744 227.98,487.707 234.951,487.67 241.922,487.627 248.893,487.576 255.865,487.516 262.836,487.443 269.807,487.355 
  276.778,487.248 283.75,487.119 290.721,486.962 297.692,486.773 304.663,486.545 311.635,486.271 318.606,485.941 325.577,485.545 332.549,485.071 339.52,484.507 
  346.491,483.838 353.462,483.048 360.434,482.121 367.405,481.04 374.376,479.788 381.347,478.352 388.319,476.721 395.29,474.886 402.261,472.845 409.233,470.604 
  416.204,468.172 423.175,465.563 430.146,462.796 437.118,459.889 444.089,456.858 451.06,453.713 458.031,450.455 465.003,447.075 471.974,443.554 478.945,439.863 
  485.916,435.963 492.888,431.813 499.859,427.368 506.83,422.586 513.802,417.429 520.773,411.868 527.744,405.886 534.715,399.478 541.687,392.651 548.658,385.426 
  555.629,377.836 562.6,369.923 569.572,361.736 576.543,353.33 583.514,344.762 590.485,336.09 597.457,327.369 604.428,318.655 611.399,309.996 618.371,301.438 
  625.342,293.02 632.313,284.778 639.284,276.74 646.256,268.93 653.227,261.367 660.198,254.064 667.169,247.032 674.141,240.276 681.112,233.798 688.083,227.599 
  695.054,221.674 702.026,216.02 708.997,210.629 715.968,205.494 722.94,200.605 729.911,195.954 736.882,191.531 743.853,187.325 750.825,183.326 757.796,179.524 
  764.767,175.909 771.738,172.471 778.71,169.2 785.681,166.088 792.652,163.125 799.623,160.304 806.595,157.616 813.566,155.053 820.537,152.609 827.509,150.277 
  834.48,148.051 841.451,145.924 848.422,143.89 855.394,141.946 862.365,140.084 869.336,138.302 876.307,136.594 883.279,134.957 890.25,133.386 897.221,131.878 
  904.193,130.43 911.164,129.038 918.135,127.7 925.106,126.412 932.078,125.173 939.049,123.979 946.02,122.828 952.991,121.718 959.963,120.648 966.934,119.614 
  973.905,118.616 980.876,117.652 987.848,116.72 994.819,115.818 1001.79,114.946 1008.76,114.101 1015.73,113.283 1022.7,112.491 1029.68,111.722 1036.65,110.977 
  1043.62,110.254 1050.59,109.553 1057.56,108.872 1064.53,108.21 1071.5,107.567 1078.47,106.942 1085.45,106.334 1092.42,105.743 1099.39,105.167 1106.36,104.607 
  1113.33,104.061 1120.3,103.53 1127.27,103.012 1134.24,102.508 1141.22,102.015 1148.19,101.535 1155.16,101.067 1162.13,100.61 1169.1,100.164 1176.07,99.7279 
  1183.04,99.3023 1190.01,98.8865 1196.99,98.4801 1203.96,98.0828 1210.93,97.6944 1217.9,97.3144 1224.87,96.9428 1231.84,96.5791 1238.81,96.2231 1245.78,95.8746 
  1252.76,95.5334 
  "/>
<polyline clip-path="url(#clip482)" style="stroke:#000000; stroke-linecap:butt; stroke-linejoin:round; stroke-width:16; stroke-opacity:1; fill:none" stroke-dasharray="8, 16" points="
  207.066,60.077 214.037,60.5004 221.008,60.8889 227.98,61.3387 234.951,61.8794 241.922,62.5327 248.893,63.3225 255.865,64.2774 262.836,65.4314 269.807,66.8253 
  276.778,68.5075 283.75,70.5354 290.721,72.9764 297.692,75.9092 304.663,79.4249 311.635,83.6274 318.606,88.6338 325.577,94.5736 332.549,101.587 339.52,109.819 
  346.491,119.416 353.462,130.516 360.434,143.237 367.405,157.661 374.376,173.821 381.347,191.683 388.319,211.134 395.29,231.973 402.261,253.911 409.233,276.581 
  416.204,299.561 423.175,322.398 430.146,344.643 437.118,365.883 444.089,385.765 451.06,404.013 458.031,420.431 465.003,434.905 471.974,447.39 478.945,457.898 
  485.916,466.491 492.888,473.276 499.859,478.405 506.83,482.08 513.802,484.55 520.773,486.09 527.744,486.976 534.715,487.443 541.687,487.67 548.658,487.772 
  555.629,487.814 562.6,487.83 569.572,487.836 576.543,487.839 583.514,487.839 590.485,487.839 597.457,487.84 604.428,487.84 611.399,487.84 618.371,487.84 
  625.342,487.84 632.313,487.84 639.284,487.84 646.256,487.84 653.227,487.84 660.198,487.84 667.169,487.84 674.141,487.84 681.112,487.84 688.083,487.84 
  695.054,487.84 702.026,487.84 708.997,487.84 715.968,487.84 722.94,487.84 729.911,487.84 736.882,487.84 743.853,487.84 750.825,487.84 757.796,487.84 
  764.767,487.84 771.738,487.84 778.71,487.84 785.681,487.84 792.652,487.84 799.623,487.84 806.595,487.84 813.566,487.84 820.537,487.84 827.509,487.84 
  834.48,487.84 841.451,487.84 848.422,487.84 855.394,487.84 862.365,487.84 869.336,487.84 876.307,487.84 883.279,487.84 890.25,487.84 897.221,487.84 
  904.193,487.84 911.164,487.84 918.135,487.84 925.106,487.84 932.078,487.84 939.049,487.84 946.02,487.84 952.991,487.84 959.963,487.84 966.934,487.84 
  973.905,487.84 980.876,487.84 987.848,487.84 994.819,487.84 1001.79,487.84 1008.76,487.84 1015.73,487.84 1022.7,487.84 1029.68,487.84 1036.65,487.84 
  1043.62,487.84 1050.59,487.84 1057.56,487.84 1064.53,487.84 1071.5,487.84 1078.47,487.84 1085.45,487.84 1092.42,487.84 1099.39,487.84 1106.36,487.84 
  1113.33,487.84 1120.3,487.84 1127.27,487.84 1134.24,487.84 1141.22,487.84 1148.19,487.84 1155.16,487.84 1162.13,487.84 1169.1,487.84 1176.07,487.84 
  1183.04,487.84 1190.01,487.84 1196.99,487.84 1203.96,487.84 1210.93,487.84 1217.9,487.84 1224.87,487.84 1231.84,487.84 1238.81,487.84 1245.78,487.84 
  1252.76,487.84 
  "/>
</svg>
