<?xml version="1.0" encoding="utf-8"?>
<svg xmlns="http://www.w3.org/2000/svg" xmlns:xlink="http://www.w3.org/1999/xlink" width="325" height="150" viewBox="0 0 1300 600">
<defs>
  <clipPath id="clip920">
    <rect x="0" y="0" width="1300" height="600"/>
  </clipPath>
</defs>
<path clip-path="url(#clip920)" d="
M0 600 L1300 600 L1300 0 L0 0  Z
  " fill="#ffffff" fill-rule="evenodd" fill-opacity="1"/>
<defs>
  <clipPath id="clip921">
    <rect x="260" y="0" width="911" height="600"/>
  </clipPath>
</defs>
<path clip-path="url(#clip920)" d="
M200.094 501.1 L1252.76 501.1 L1252.76 47.2441 L200.094 47.2441  Z
  " fill="#ffffff" fill-rule="evenodd" fill-opacity="1"/>
<defs>
  <clipPath id="clip922">
    <rect x="200" y="47" width="1054" height="455"/>
  </clipPath>
</defs>
<polyline clip-path="url(#clip920)" style="stroke:#000000; stroke-linecap:butt; stroke-linejoin:round; stroke-width:4; stroke-opacity:1; fill:none" points="
  200.094,501.1 1252.76,501.1 
  "/>
<polyline clip-path="url(#clip920)" style="stroke:#000000; stroke-linecap:butt; stroke-linejoin:round; stroke-width:4; stroke-opacity:1; fill:none" points="
  200.094,501.1 200.094,482.203 
  "/>
<polyline clip-path="url(#clip920)" style="stroke:#000000; stroke-linecap:butt; stroke-linejoin:round; stroke-width:4; stroke-opacity:1; fill:none" points="
  548.658,501.1 548.658,482.203 
  "/>
<polyline clip-path="url(#clip920)" style="stroke:#000000; stroke-linecap:butt; stroke-linejoin:round; stroke-width:4; stroke-opacity:1; fill:none" points="
  897.221,501.1 897.221,482.203 
  "/>
<polyline clip-path="url(#clip920)" style="stroke:#000000; stroke-linecap:butt; stroke-linejoin:round; stroke-width:4; stroke-opacity:1; fill:none" points="
  1245.78,501.1 1245.78,482.203 
  "/>
<path clip-path="url(#clip920)" d="M200.094 526.149 Q195.581 526.149 193.295 530.605 Q191.038 535.032 191.038 543.944 Q191.038 552.827 193.295 557.283 Q195.581 561.71 200.094 561.71 Q204.637 561.71 206.894 557.283 Q209.18 552.827 209.18 543.944 Q209.18 535.032 206.894 530.605 Q204.637 526.149 200.094 526.149 M200.094 521.519 Q207.357 521.519 211.177 527.277 Q215.025 533.006 215.025 543.944 Q215.025 554.852 211.177 560.61 Q207.357 566.339 200.094 566.339 Q192.832 566.339 188.983 560.61 Q185.164 554.852 185.164 543.944 Q185.164 533.006 188.983 527.277 Q192.832 521.519 200.094 521.519 Z" fill="#000000" fill-rule="evenodd" fill-opacity="1" /><path clip-path="url(#clip920)" d="M517.032 522.3 L539.977 522.3 L539.977 527.219 L522.385 527.219 L522.385 537.809 Q523.658 537.375 524.931 537.173 Q526.204 536.941 527.477 536.941 Q534.711 536.941 538.936 540.905 Q543.16 544.87 543.16 551.64 Q543.16 558.614 538.82 562.491 Q534.48 566.339 526.58 566.339 Q523.861 566.339 521.025 565.876 Q518.218 565.413 515.209 564.487 L515.209 558.614 Q517.813 560.031 520.591 560.726 Q523.369 561.42 526.465 561.42 Q531.47 561.42 534.393 558.787 Q537.315 556.154 537.315 551.64 Q537.315 547.126 534.393 544.493 Q531.47 541.86 526.465 541.86 Q524.121 541.86 521.777 542.381 Q519.462 542.902 517.032 544.001 L517.032 522.3 Z" fill="#000000" fill-rule="evenodd" fill-opacity="1" /><path clip-path="url(#clip920)" d="M567.176 526.149 Q562.662 526.149 560.377 530.605 Q558.12 535.032 558.12 543.944 Q558.12 552.827 560.377 557.283 Q562.662 561.71 567.176 561.71 Q571.719 561.71 573.976 557.283 Q576.262 552.827 576.262 543.944 Q576.262 535.032 573.976 530.605 Q571.719 526.149 567.176 526.149 M567.176 521.519 Q574.439 521.519 578.258 527.277 Q582.107 533.006 582.107 543.944 Q582.107 554.852 578.258 560.61 Q574.439 566.339 567.176 566.339 Q559.914 566.339 556.065 560.61 Q552.246 554.852 552.246 543.944 Q552.246 533.006 556.065 527.277 Q559.914 521.519 567.176 521.519 Z" fill="#000000" fill-rule="evenodd" fill-opacity="1" /><path clip-path="url(#clip920)" d="M846.73 560.581 L856.278 560.581 L856.278 527.624 L845.891 529.708 L845.891 524.384 L856.22 522.3 L862.065 522.3 L862.065 560.581 L871.614 560.581 L871.614 565.5 L846.73 565.5 L846.73 560.581 Z" fill="#000000" fill-rule="evenodd" fill-opacity="1" /><path clip-path="url(#clip920)" d="M895.919 526.149 Q891.405 526.149 889.119 530.605 Q886.863 535.032 886.863 543.944 Q886.863 552.827 889.119 557.283 Q891.405 561.71 895.919 561.71 Q900.462 561.71 902.719 557.283 Q905.005 552.827 905.005 543.944 Q905.005 535.032 902.719 530.605 Q900.462 526.149 895.919 526.149 M895.919 521.519 Q903.182 521.519 907.001 527.277 Q910.85 533.006 910.85 543.944 Q910.85 554.852 907.001 560.61 Q903.182 566.339 895.919 566.339 Q888.656 566.339 884.808 560.61 Q880.989 554.852 880.989 543.944 Q880.989 533.006 884.808 527.277 Q888.656 521.519 895.919 521.519 Z" fill="#000000" fill-rule="evenodd" fill-opacity="1" /><path clip-path="url(#clip920)" d="M933.622 526.149 Q929.108 526.149 926.822 530.605 Q924.565 535.032 924.565 543.944 Q924.565 552.827 926.822 557.283 Q929.108 561.71 933.622 561.71 Q938.164 561.71 940.421 557.283 Q942.707 552.827 942.707 543.944 Q942.707 535.032 940.421 530.605 Q938.164 526.149 933.622 526.149 M933.622 521.519 Q940.884 521.519 944.704 527.277 Q948.552 533.006 948.552 543.944 Q948.552 554.852 944.704 560.61 Q940.884 566.339 933.622 566.339 Q926.359 566.339 922.51 560.61 Q918.691 554.852 918.691 543.944 Q918.691 533.006 922.51 527.277 Q926.359 521.519 933.622 521.519 Z" fill="#000000" fill-rule="evenodd" fill-opacity="1" /><path clip-path="url(#clip920)" d="M1195.29 560.581 L1204.84 560.581 L1204.84 527.624 L1194.45 529.708 L1194.45 524.384 L1204.78 522.3 L1210.63 522.3 L1210.63 560.581 L1220.18 560.581 L1220.18 565.5 L1195.29 565.5 L1195.29 560.581 Z" fill="#000000" fill-rule="evenodd" fill-opacity="1" /><path clip-path="url(#clip920)" d="M1232.04 522.3 L1254.99 522.3 L1254.99 527.219 L1237.39 527.219 L1237.39 537.809 Q1238.67 537.375 1239.94 537.173 Q1241.21 536.941 1242.49 536.941 Q1249.72 536.941 1253.94 540.905 Q1258.17 544.87 1258.17 551.64 Q1258.17 558.614 1253.83 562.491 Q1249.49 566.339 1241.59 566.339 Q1238.87 566.339 1236.03 565.876 Q1233.23 565.413 1230.22 564.487 L1230.22 558.614 Q1232.82 560.031 1235.6 560.726 Q1238.38 561.42 1241.47 561.42 Q1246.48 561.42 1249.4 558.787 Q1252.32 556.154 1252.32 551.64 Q1252.32 547.126 1249.4 544.493 Q1246.48 541.86 1241.47 541.86 Q1239.13 541.86 1236.79 542.381 Q1234.47 542.902 1232.04 544.001 L1232.04 522.3 Z" fill="#000000" fill-rule="evenodd" fill-opacity="1" /><path clip-path="url(#clip920)" d="M1282.18 526.149 Q1277.67 526.149 1275.39 530.605 Q1273.13 535.032 1273.13 543.944 Q1273.13 552.827 1275.39 557.283 Q1277.67 561.71 1282.18 561.71 Q1286.73 561.71 1288.98 557.283 Q1291.27 552.827 1291.27 543.944 Q1291.27 535.032 1288.98 530.605 Q1286.73 526.149 1282.18 526.149 M1282.18 521.519 Q1289.45 521.519 1293.27 527.277 Q1297.12 533.006 1297.12 543.944 Q1297.12 554.852 1293.27 560.61 Q1289.45 566.339 1282.18 566.339 Q1274.92 566.339 1271.07 560.61 Q1267.25 554.852 1267.25 543.944 Q1267.25 533.006 1271.07 527.277 Q1274.92 521.519 1282.18 521.519 Z" fill="#000000" fill-rule="evenodd" fill-opacity="1" /><polyline clip-path="url(#clip920)" style="stroke:#000000; stroke-linecap:butt; stroke-linejoin:round; stroke-width:4; stroke-opacity:1; fill:none" points="
  200.094,501.1 200.094,47.2441 
  "/>
<polyline clip-path="url(#clip920)" style="stroke:#000000; stroke-linecap:butt; stroke-linejoin:round; stroke-width:4; stroke-opacity:1; fill:none" points="
  200.094,487.84 218.992,487.84 
  "/>
<polyline clip-path="url(#clip920)" style="stroke:#000000; stroke-linecap:butt; stroke-linejoin:round; stroke-width:4; stroke-opacity:1; fill:none" points="
  200.094,380.899 218.992,380.899 
  "/>
<polyline clip-path="url(#clip920)" style="stroke:#000000; stroke-linecap:butt; stroke-linejoin:round; stroke-width:4; stroke-opacity:1; fill:none" points="
  200.094,273.958 218.992,273.958 
  "/>
<polyline clip-path="url(#clip920)" style="stroke:#000000; stroke-linecap:butt; stroke-linejoin:round; stroke-width:4; stroke-opacity:1; fill:none" points="
  200.094,167.018 218.992,167.018 
  "/>
<polyline clip-path="url(#clip920)" style="stroke:#000000; stroke-linecap:butt; stroke-linejoin:round; stroke-width:4; stroke-opacity:1; fill:none" points="
  200.094,60.077 218.992,60.077 
  "/>
<path clip-path="url(#clip920)" d="M71.4226 470.088 Q66.9087 470.088 64.6229 474.544 Q62.3659 478.971 62.3659 487.883 Q62.3659 496.766 64.6229 501.222 Q66.9087 505.649 71.4226 505.649 Q75.9654 505.649 78.2223 501.222 Q80.5082 496.766 80.5082 487.883 Q80.5082 478.971 78.2223 474.544 Q75.9654 470.088 71.4226 470.088 M71.4226 465.458 Q78.6853 465.458 82.5047 471.216 Q86.3531 476.946 86.3531 487.883 Q86.3531 498.791 82.5047 504.55 Q78.6853 510.279 71.4226 510.279 Q64.1599 510.279 60.3115 504.55 Q56.4921 498.791 56.4921 487.883 Q56.4921 476.946 60.3115 471.216 Q64.1599 465.458 71.4226 465.458 Z" fill="#000000" fill-rule="evenodd" fill-opacity="1" /><path clip-path="url(#clip920)" d="M96.625 502.09 L102.73 502.09 L102.73 509.44 L96.625 509.44 L96.625 502.09 Z" fill="#000000" fill-rule="evenodd" fill-opacity="1" /><path clip-path="url(#clip920)" d="M127.962 470.088 Q123.448 470.088 121.162 474.544 Q118.905 478.971 118.905 487.883 Q118.905 496.766 121.162 501.222 Q123.448 505.649 127.962 505.649 Q132.504 505.649 134.761 501.222 Q137.047 496.766 137.047 487.883 Q137.047 478.971 134.761 474.544 Q132.504 470.088 127.962 470.088 M127.962 465.458 Q135.224 465.458 139.044 471.216 Q142.892 476.946 142.892 487.883 Q142.892 498.791 139.044 504.55 Q135.224 510.279 127.962 510.279 Q120.699 510.279 116.851 504.55 Q113.031 498.791 113.031 487.883 Q113.031 476.946 116.851 471.216 Q120.699 465.458 127.962 465.458 Z" fill="#000000" fill-rule="evenodd" fill-opacity="1" /><path clip-path="url(#clip920)" d="M165.664 470.088 Q161.15 470.088 158.864 474.544 Q156.607 478.971 156.607 487.883 Q156.607 496.766 158.864 501.222 Q161.15 505.649 165.664 505.649 Q170.207 505.649 172.464 501.222 Q174.75 496.766 174.75 487.883 Q174.75 478.971 172.464 474.544 Q170.207 470.088 165.664 470.088 M165.664 465.458 Q172.927 465.458 176.746 471.216 Q180.594 476.946 180.594 487.883 Q180.594 498.791 176.746 504.55 Q172.927 510.279 165.664 510.279 Q158.401 510.279 154.553 504.55 Q150.734 498.791 150.734 487.883 Q150.734 476.946 154.553 471.216 Q158.401 465.458 165.664 465.458 Z" fill="#000000" fill-rule="evenodd" fill-opacity="1" /><path clip-path="url(#clip920)" d="M72.6668 363.147 Q68.1529 363.147 65.8671 367.603 Q63.6101 372.03 63.6101 380.942 Q63.6101 389.825 65.8671 394.281 Q68.1529 398.708 72.6668 398.708 Q77.2096 398.708 79.4665 394.281 Q81.7524 389.825 81.7524 380.942 Q81.7524 372.03 79.4665 367.603 Q77.2096 363.147 72.6668 363.147 M72.6668 358.518 Q79.9295 358.518 83.7489 364.276 Q87.5973 370.005 87.5973 380.942 Q87.5973 391.851 83.7489 397.609 Q79.9295 403.338 72.6668 403.338 Q65.4041 403.338 61.5558 397.609 Q57.7363 391.851 57.7363 380.942 Q57.7363 370.005 61.5558 364.276 Q65.4041 358.518 72.6668 358.518 Z" fill="#000000" fill-rule="evenodd" fill-opacity="1" /><path clip-path="url(#clip920)" d="M97.8692 395.149 L103.975 395.149 L103.975 402.499 L97.8692 402.499 L97.8692 395.149 Z" fill="#000000" fill-rule="evenodd" fill-opacity="1" /><path clip-path="url(#clip920)" d="M121.741 397.58 L142.14 397.58 L142.14 402.499 L114.709 402.499 L114.709 397.58 Q118.037 394.137 123.766 388.35 Q129.524 382.534 131 380.855 Q133.807 377.702 134.906 375.531 Q136.035 373.332 136.035 371.22 Q136.035 367.777 133.604 365.607 Q131.202 363.437 127.325 363.437 Q124.576 363.437 121.509 364.391 Q118.471 365.346 114.999 367.285 L114.999 361.382 Q118.529 359.964 121.596 359.241 Q124.663 358.518 127.209 358.518 Q133.922 358.518 137.915 361.874 Q141.908 365.231 141.908 370.844 Q141.908 373.506 140.896 375.908 Q139.912 378.28 137.279 381.521 Q136.555 382.36 132.678 386.382 Q128.801 390.375 121.741 397.58 Z" fill="#000000" fill-rule="evenodd" fill-opacity="1" /><path clip-path="url(#clip920)" d="M154.466 359.299 L177.412 359.299 L177.412 364.218 L159.819 364.218 L159.819 374.808 Q161.092 374.374 162.365 374.172 Q163.639 373.94 164.912 373.94 Q172.145 373.94 176.37 377.904 Q180.594 381.868 180.594 388.639 Q180.594 395.612 176.254 399.49 Q171.914 403.338 164.015 403.338 Q161.295 403.338 158.459 402.875 Q155.652 402.412 152.643 401.486 L152.643 395.612 Q155.247 397.03 158.025 397.725 Q160.803 398.419 163.899 398.419 Q168.905 398.419 171.827 395.786 Q174.75 393.153 174.75 388.639 Q174.75 384.125 171.827 381.492 Q168.905 378.859 163.899 378.859 Q161.555 378.859 159.211 379.38 Q156.897 379.901 154.466 381 L154.466 359.299 Z" fill="#000000" fill-rule="evenodd" fill-opacity="1" /><path clip-path="url(#clip920)" d="M71.4226 256.207 Q66.9087 256.207 64.6229 260.663 Q62.3659 265.09 62.3659 274.002 Q62.3659 282.885 64.6229 287.341 Q66.9087 291.768 71.4226 291.768 Q75.9654 291.768 78.2223 287.341 Q80.5082 282.885 80.5082 274.002 Q80.5082 265.09 78.2223 260.663 Q75.9654 256.207 71.4226 256.207 M71.4226 251.577 Q78.6853 251.577 82.5047 257.335 Q86.3531 263.064 86.3531 274.002 Q86.3531 284.91 82.5047 290.668 Q78.6853 296.397 71.4226 296.397 Q64.1599 296.397 60.3115 290.668 Q56.4921 284.91 56.4921 274.002 Q56.4921 263.064 60.3115 257.335 Q64.1599 251.577 71.4226 251.577 Z" fill="#000000" fill-rule="evenodd" fill-opacity="1" /><path clip-path="url(#clip920)" d="M96.625 288.209 L102.73 288.209 L102.73 295.558 L96.625 295.558 L96.625 288.209 Z" fill="#000000" fill-rule="evenodd" fill-opacity="1" /><path clip-path="url(#clip920)" d="M115.52 252.358 L138.465 252.358 L138.465 257.277 L120.873 257.277 L120.873 267.867 Q122.146 267.433 123.419 267.231 Q124.692 266.999 125.965 266.999 Q133.199 266.999 137.423 270.963 Q141.648 274.928 141.648 281.698 Q141.648 288.672 137.308 292.549 Q132.967 296.397 125.068 296.397 Q122.348 296.397 119.513 295.934 Q116.706 295.471 113.697 294.546 L113.697 288.672 Q116.301 290.09 119.079 290.784 Q121.856 291.478 124.952 291.478 Q129.958 291.478 132.881 288.845 Q135.803 286.212 135.803 281.698 Q135.803 277.185 132.881 274.551 Q129.958 271.918 124.952 271.918 Q122.609 271.918 120.265 272.439 Q117.95 272.96 115.52 274.06 L115.52 252.358 Z" fill="#000000" fill-rule="evenodd" fill-opacity="1" /><path clip-path="url(#clip920)" d="M165.664 256.207 Q161.15 256.207 158.864 260.663 Q156.607 265.09 156.607 274.002 Q156.607 282.885 158.864 287.341 Q161.15 291.768 165.664 291.768 Q170.207 291.768 172.464 287.341 Q174.75 282.885 174.75 274.002 Q174.75 265.09 172.464 260.663 Q170.207 256.207 165.664 256.207 M165.664 251.577 Q172.927 251.577 176.746 257.335 Q180.594 263.064 180.594 274.002 Q180.594 284.91 176.746 290.668 Q172.927 296.397 165.664 296.397 Q158.401 296.397 154.553 290.668 Q150.734 284.91 150.734 274.002 Q150.734 263.064 154.553 257.335 Q158.401 251.577 165.664 251.577 Z" fill="#000000" fill-rule="evenodd" fill-opacity="1" /><path clip-path="url(#clip920)" d="M72.6668 149.266 Q68.1529 149.266 65.8671 153.722 Q63.6101 158.149 63.6101 167.061 Q63.6101 175.944 65.8671 180.4 Q68.1529 184.827 72.6668 184.827 Q77.2096 184.827 79.4665 180.4 Q81.7524 175.944 81.7524 167.061 Q81.7524 158.149 79.4665 153.722 Q77.2096 149.266 72.6668 149.266 M72.6668 144.636 Q79.9295 144.636 83.7489 150.394 Q87.5973 156.124 87.5973 167.061 Q87.5973 177.97 83.7489 183.728 Q79.9295 189.457 72.6668 189.457 Q65.4041 189.457 61.5558 183.728 Q57.7363 177.97 57.7363 167.061 Q57.7363 156.124 61.5558 150.394 Q65.4041 144.636 72.6668 144.636 Z" fill="#000000" fill-rule="evenodd" fill-opacity="1" /><path clip-path="url(#clip920)" d="M97.8692 181.268 L103.975 181.268 L103.975 188.618 L97.8692 188.618 L97.8692 181.268 Z" fill="#000000" fill-rule="evenodd" fill-opacity="1" /><path clip-path="url(#clip920)" d="M115.23 145.418 L143.008 145.418 L143.008 147.906 L127.325 188.618 L121.22 188.618 L135.977 150.337 L115.23 150.337 L115.23 145.418 Z" fill="#000000" fill-rule="evenodd" fill-opacity="1" /><path clip-path="url(#clip920)" d="M154.466 145.418 L177.412 145.418 L177.412 150.337 L159.819 150.337 L159.819 160.927 Q161.092 160.493 162.365 160.29 Q163.639 160.059 164.912 160.059 Q172.145 160.059 176.37 164.023 Q180.594 167.987 180.594 174.758 Q180.594 181.731 176.254 185.608 Q171.914 189.457 164.015 189.457 Q161.295 189.457 158.459 188.994 Q155.652 188.531 152.643 187.605 L152.643 181.731 Q155.247 183.149 158.025 183.843 Q160.803 184.538 163.899 184.538 Q168.905 184.538 171.827 181.905 Q174.75 179.272 174.75 174.758 Q174.75 170.244 171.827 167.611 Q168.905 164.978 163.899 164.978 Q161.555 164.978 159.211 165.499 Q156.897 166.019 154.466 167.119 L154.466 145.418 Z" fill="#000000" fill-rule="evenodd" fill-opacity="1" /><path clip-path="url(#clip920)" d="M59.9354 76.758 L69.484 76.758 L69.484 43.801 L59.0963 45.8843 L59.0963 40.5603 L69.4261 38.477 L75.271 38.477 L75.271 76.758 L84.8195 76.758 L84.8195 81.677 L59.9354 81.677 L59.9354 76.758 Z" fill="#000000" fill-rule="evenodd" fill-opacity="1" /><path clip-path="url(#clip920)" d="M96.625 74.3275 L102.73 74.3275 L102.73 81.677 L96.625 81.677 L96.625 74.3275 Z" fill="#000000" fill-rule="evenodd" fill-opacity="1" /><path clip-path="url(#clip920)" d="M127.962 42.3253 Q123.448 42.3253 121.162 46.7813 Q118.905 51.2084 118.905 60.1204 Q118.905 69.0034 121.162 73.4594 Q123.448 77.8865 127.962 77.8865 Q132.504 77.8865 134.761 73.4594 Q137.047 69.0034 137.047 60.1204 Q137.047 51.2084 134.761 46.7813 Q132.504 42.3253 127.962 42.3253 M127.962 37.6957 Q135.224 37.6957 139.044 43.4538 Q142.892 49.1829 142.892 60.1204 Q142.892 71.0289 139.044 76.787 Q135.224 82.5161 127.962 82.5161 Q120.699 82.5161 116.851 76.787 Q113.031 71.0289 113.031 60.1204 Q113.031 49.1829 116.851 43.4538 Q120.699 37.6957 127.962 37.6957 Z" fill="#000000" fill-rule="evenodd" fill-opacity="1" /><path clip-path="url(#clip920)" d="M165.664 42.3253 Q161.15 42.3253 158.864 46.7813 Q156.607 51.2084 156.607 60.1204 Q156.607 69.0034 158.864 73.4594 Q161.15 77.8865 165.664 77.8865 Q170.207 77.8865 172.464 73.4594 Q174.75 69.0034 174.75 60.1204 Q174.75 51.2084 172.464 46.7813 Q170.207 42.3253 165.664 42.3253 M165.664 37.6957 Q172.927 37.6957 176.746 43.4538 Q180.594 49.1829 180.594 60.1204 Q180.594 71.0289 176.746 76.787 Q172.927 82.5161 165.664 82.5161 Q158.401 82.5161 154.553 76.787 Q150.734 71.0289 150.734 60.1204 Q150.734 49.1829 154.553 43.4538 Q158.401 37.6957 165.664 37.6957 Z" fill="#000000" fill-rule="evenodd" fill-opacity="1" /><polyline clip-path="url(#clip922)" style="stroke:#ff00ff; stroke-linecap:butt; stroke-linejoin:round; stroke-width:16; stroke-opacity:1; fill:none" points="
  207.066,274.065 214.037,274.147 221.008,274.244 227.98,274.355 234.951,274.482 241.922,274.626 248.893,274.792 255.865,274.982 262.836,275.199 269.807,275.447 
  276.778,275.731 283.75,276.055 290.721,276.427 297.692,276.852 304.663,277.337 311.635,277.891 318.606,278.524 325.577,279.246 332.549,280.069 339.52,281.005 
  346.491,282.07 353.462,283.279 360.434,284.649 367.405,286.2 374.376,287.95 381.347,289.92 388.319,292.134 395.29,294.611 402.261,297.375 409.233,300.446 
  416.204,303.844 423.175,307.585 430.146,311.683 437.118,316.144 444.089,320.971 451.06,326.159 458.031,331.692 465.003,337.548 471.974,343.694 478.945,350.09 
  485.916,356.683 492.888,363.419 499.859,370.233 506.83,377.062 513.802,383.839 520.773,390.5 527.744,396.987 534.715,403.246 541.687,409.232 548.658,414.91 
  555.629,420.252 562.6,425.242 569.572,429.871 576.543,434.138 583.514,438.048 590.485,441.613 597.457,444.847 604.428,447.77 611.399,450.4 618.371,452.761 
  625.342,454.872 632.313,456.756 639.284,458.433 646.256,459.922 653.227,461.243 660.198,462.411 667.169,463.443 674.141,464.352 681.112,465.152 688.083,465.854 
  695.054,466.467 702.026,467.003 708.997,467.468 715.968,467.87 722.94,468.216 729.911,468.512 736.882,468.764 743.853,468.975 750.825,469.151 757.796,469.295 
  764.767,469.411 771.738,469.502 778.71,469.571 785.681,469.621 792.652,469.653 799.623,469.67 806.595,469.674 813.566,469.666 820.537,469.648 827.509,469.622 
  834.48,469.587 841.451,469.547 848.422,469.501 855.394,469.451 862.365,469.397 869.336,469.339 876.307,469.279 883.279,469.217 890.25,469.154 897.221,469.089 
  904.193,469.023 911.164,468.957 918.135,468.89 925.106,468.823 932.078,468.756 939.049,468.69 946.02,468.624 952.991,468.558 959.963,468.493 966.934,468.429 
  973.905,468.365 980.876,468.302 987.848,468.24 994.819,468.178 1001.79,468.118 1008.76,468.058 1015.73,467.999 1022.7,467.941 1029.68,467.883 1036.65,467.827 
  1043.62,467.771 1050.59,467.716 1057.56,467.662 1064.53,467.609 1071.5,467.556 1078.47,467.505 1085.45,467.454 1092.42,467.403 1099.39,467.353 1106.36,467.304 
  1113.33,467.256 1120.3,467.208 1127.27,467.161 1134.24,467.114 1141.22,467.068 1148.19,467.022 1155.16,466.977 1162.13,466.932 1169.1,466.887 1176.07,466.844 
  1183.04,466.8 1190.01,466.757 1196.99,466.714 1203.96,466.672 1210.93,466.63 1217.9,466.588 1224.87,466.547 1231.84,466.506 1238.81,466.465 1245.78,466.424 
  1252.76,466.384 
  "/>
<polyline clip-path="url(#clip922)" style="stroke:#2000d4; stroke-linecap:butt; stroke-linejoin:round; stroke-width:16; stroke-opacity:1; fill:none" stroke-dasharray="8, 16" points="
  207.066,487.84 214.037,487.84 221.008,487.84 227.98,487.84 234.951,487.84 241.922,487.84 248.893,487.84 255.865,487.84 262.836,487.839 269.807,487.839 
  276.778,487.839 283.75,487.839 290.721,487.839 297.692,487.839 304.663,487.839 311.635,487.839 318.606,487.839 325.577,487.839 332.549,487.839 339.52,487.839 
  346.491,487.839 353.462,487.839 360.434,487.839 367.405,487.838 374.376,487.838 381.347,487.838 388.319,487.837 395.29,487.837 402.261,487.837 409.233,487.836 
  416.204,487.836 423.175,487.835 430.146,487.835 437.118,487.834 444.089,487.833 451.06,487.832 458.031,487.831 465.003,487.83 471.974,487.829 478.945,487.828 
  485.916,487.827 492.888,487.826 499.859,487.825 506.83,487.824 513.802,487.823 520.773,487.822 527.744,487.821 534.715,487.819 541.687,487.818 548.658,487.817 
  555.629,487.816 562.6,487.815 569.572,487.814 576.543,487.813 583.514,487.812 590.485,487.811 597.457,487.81 604.428,487.809 611.399,487.808 618.371,487.807 
  625.342,487.806 632.313,487.805 639.284,487.804 646.256,487.803 653.227,487.802 660.198,487.801 667.169,487.801 674.141,487.8 681.112,487.799 688.083,487.798 
  695.054,487.797 702.026,487.796 708.997,487.795 715.968,487.794 722.94,487.793 729.911,487.792 736.882,487.791 743.853,487.79 750.825,487.789 757.796,487.788 
  764.767,487.787 771.738,487.786 778.71,487.785 785.681,487.784 792.652,487.783 799.623,487.782 806.595,487.781 813.566,487.78 820.537,487.779 827.509,487.778 
  834.48,487.777 841.451,487.776 848.422,487.775 855.394,487.774 862.365,487.773 869.336,487.772 876.307,487.771 883.279,487.769 890.25,487.768 897.221,487.767 
  904.193,487.766 911.164,487.765 918.135,487.764 925.106,487.762 932.078,487.761 939.049,487.76 946.02,487.759 952.991,487.757 959.963,487.756 966.934,487.755 
  973.905,487.754 980.876,487.752 987.848,487.751 994.819,487.75 1001.79,487.748 1008.76,487.747 1015.73,487.746 1022.7,487.744 1029.68,487.743 1036.65,487.741 
  1043.62,487.74 1050.59,487.739 1057.56,487.737 1064.53,487.736 1071.5,487.734 1078.47,487.733 1085.45,487.731 1092.42,487.73 1099.39,487.728 1106.36,487.727 
  1113.33,487.725 1120.3,487.723 1127.27,487.722 1134.24,487.72 1141.22,487.719 1148.19,487.717 1155.16,487.715 1162.13,487.714 1169.1,487.712 1176.07,487.71 
  1183.04,487.708 1190.01,487.707 1196.99,487.705 1203.96,487.703 1210.93,487.701 1217.9,487.7 1224.87,487.698 1231.84,487.696 1238.81,487.694 1245.78,487.692 
  1252.76,487.69 
  "/>
<polyline clip-path="url(#clip922)" style="stroke:#008900; stroke-linecap:butt; stroke-linejoin:round; stroke-width:16; stroke-opacity:1; fill:none" stroke-dasharray="64, 40" points="
  207.066,487.84 214.037,487.84 221.008,487.839 227.98,487.839 234.951,487.839 241.922,487.839 248.893,487.839 255.865,487.839 262.836,487.839 269.807,487.839 
  276.778,487.839 283.75,487.839 290.721,487.839 297.692,487.839 304.663,487.839 311.635,487.839 318.606,487.839 325.577,487.839 332.549,487.839 339.52,487.839 
  346.491,487.838 353.462,487.838 360.434,487.838 367.405,487.838 374.376,487.838 381.347,487.837 388.319,487.837 395.29,487.837 402.261,487.836 409.233,487.836 
  416.204,487.835 423.175,487.835 430.146,487.834 437.118,487.833 444.089,487.833 451.06,487.832 458.031,487.831 465.003,487.83 471.974,487.829 478.945,487.828 
  485.916,487.827 492.888,487.825 499.859,487.824 506.83,487.823 513.802,487.821 520.773,487.82 527.744,487.818 534.715,487.816 541.687,487.814 548.658,487.812 
  555.629,487.81 562.6,487.807 569.572,487.805 576.543,487.802 583.514,487.799 590.485,487.795 597.457,487.792 604.428,487.788 611.399,487.783 618.371,487.778 
  625.342,487.773 632.313,487.768 639.284,487.761 646.256,487.755 653.227,487.747 660.198,487.739 667.169,487.731 674.141,487.722 681.112,487.712 688.083,487.702 
  695.054,487.691 702.026,487.679 708.997,487.667 715.968,487.654 722.94,487.64 729.911,487.626 736.882,487.611 743.853,487.596 750.825,487.58 757.796,487.564 
  764.767,487.547 771.738,487.53 778.71,487.512 785.681,487.493 792.652,487.475 799.623,487.456 806.595,487.436 813.566,487.417 820.537,487.397 827.509,487.377 
  834.48,487.356 841.451,487.336 848.422,487.315 855.394,487.294 862.365,487.273 869.336,487.251 876.307,487.23 883.279,487.208 890.25,487.187 897.221,487.165 
  904.193,487.144 911.164,487.122 918.135,487.1 925.106,487.078 932.078,487.057 939.049,487.035 946.02,487.013 952.991,486.992 959.963,486.97 966.934,486.948 
  973.905,486.927 980.876,486.905 987.848,486.884 994.819,486.862 1001.79,486.841 1008.76,486.82 1015.73,486.799 1022.7,486.777 1029.68,486.756 1036.65,486.735 
  1043.62,486.715 1050.59,486.694 1057.56,486.673 1064.53,486.653 1071.5,486.632 1078.47,486.612 1085.45,486.591 1092.42,486.571 1099.39,486.551 1106.36,486.531 
  1113.33,486.511 1120.3,486.491 1127.27,486.472 1134.24,486.452 1141.22,486.433 1148.19,486.413 1155.16,486.394 1162.13,486.375 1169.1,486.356 1176.07,486.337 
  1183.04,486.318 1190.01,486.3 1196.99,486.281 1203.96,486.263 1210.93,486.245 1217.9,486.226 1224.87,486.208 1231.84,486.19 1238.81,486.172 1245.78,486.155 
  1252.76,486.137 
  "/>
<polyline clip-path="url(#clip922)" style="stroke:#008900; stroke-linecap:butt; stroke-linejoin:round; stroke-width:16; stroke-opacity:1; fill:none" stroke-dasharray="8, 16" points="
  207.066,487.84 214.037,487.84 221.008,487.839 227.98,487.839 234.951,487.839 241.922,487.839 248.893,487.839 255.865,487.839 262.836,487.839 269.807,487.839 
  276.778,487.839 283.75,487.839 290.721,487.839 297.692,487.839 304.663,487.839 311.635,487.839 318.606,487.838 325.577,487.838 332.549,487.838 339.52,487.838 
  346.491,487.838 353.462,487.837 360.434,487.837 367.405,487.837 374.376,487.836 381.347,487.836 388.319,487.835 395.29,487.835 402.261,487.834 409.233,487.833 
  416.204,487.833 423.175,487.832 430.146,487.831 437.118,487.83 444.089,487.829 451.06,487.828 458.031,487.826 465.003,487.825 471.974,487.823 478.945,487.822 
  485.916,487.82 492.888,487.819 499.859,487.817 506.83,487.816 513.802,487.814 520.773,487.812 527.744,487.811 534.715,487.809 541.687,487.807 548.658,487.806 
  555.629,487.804 562.6,487.803 569.572,487.802 576.543,487.8 583.514,487.799 590.485,487.798 597.457,487.797 604.428,487.796 611.399,487.795 618.371,487.794 
  625.342,487.793 632.313,487.792 639.284,487.791 646.256,487.79 653.227,487.79 660.198,487.789 667.169,487.788 674.141,487.788 681.112,487.788 688.083,487.787 
  695.054,487.787 702.026,487.787 708.997,487.787 715.968,487.788 722.94,487.788 729.911,487.788 736.882,487.788 743.853,487.789 750.825,487.79 757.796,487.79 
  764.767,487.791 771.738,487.792 778.71,487.792 785.681,487.793 792.652,487.794 799.623,487.795 806.595,487.796 813.566,487.796 820.537,487.797 827.509,487.798 
  834.48,487.799 841.451,487.8 848.422,487.801 855.394,487.802 862.365,487.802 869.336,487.803 876.307,487.804 883.279,487.805 890.25,487.806 897.221,487.806 
  904.193,487.807 911.164,487.808 918.135,487.808 925.106,487.809 932.078,487.81 939.049,487.81 946.02,487.811 952.991,487.812 959.963,487.812 966.934,487.813 
  973.905,487.813 980.876,487.814 987.848,487.814 994.819,487.815 1001.79,487.815 1008.76,487.816 1015.73,487.816 1022.7,487.816 1029.68,487.817 1036.65,487.817 
  1043.62,487.818 1050.59,487.818 1057.56,487.818 1064.53,487.819 1071.5,487.819 1078.47,487.819 1085.45,487.82 1092.42,487.82 1099.39,487.82 1106.36,487.821 
  1113.33,487.821 1120.3,487.821 1127.27,487.821 1134.24,487.822 1141.22,487.822 1148.19,487.822 1155.16,487.822 1162.13,487.823 1169.1,487.823 1176.07,487.823 
  1183.04,487.823 1190.01,487.823 1196.99,487.824 1203.96,487.824 1210.93,487.824 1217.9,487.824 1224.87,487.824 1231.84,487.825 1238.81,487.825 1245.78,487.825 
  1252.76,487.825 
  "/>
<polyline clip-path="url(#clip922)" style="stroke:#2000d4; stroke-linecap:butt; stroke-linejoin:round; stroke-width:16; stroke-opacity:1; fill:none" points="
  207.066,487.412 214.037,487.081 221.008,486.681 227.98,486.225 234.951,485.704 241.922,485.11 248.893,484.432 255.865,483.657 262.836,482.772 269.807,481.763 
  276.778,480.611 283.75,479.296 290.721,477.798 297.692,476.091 304.663,474.148 311.635,471.94 318.606,469.433 325.577,466.59 332.549,463.374 339.52,459.742 
  346.491,455.649 353.462,451.05 360.434,445.896 367.405,440.142 374.376,433.74 381.347,426.647 388.319,418.826 395.29,410.245 402.261,400.884 409.233,390.735 
  416.204,379.805 423.175,368.117 430.146,355.714 437.118,342.662 444.089,329.042 451.06,314.957 458.031,300.526 465.003,285.879 471.974,271.158 478.945,256.503 
  485.916,242.054 492.888,227.944 499.859,214.291 506.83,201.2 513.802,188.754 520.773,177.017 527.744,166.034 534.715,155.831 541.687,146.414 548.658,137.775 
  555.629,129.895 562.6,122.743 569.572,116.28 576.543,110.464 583.514,105.248 590.485,100.584 597.457,96.425 604.428,92.7243 611.399,89.4373 618.371,86.5218 
  625.342,83.9386 632.313,81.6513 639.284,79.6269 646.256,77.8352 653.227,76.2494 660.198,74.845 667.169,73.6005 674.141,72.4968 681.112,71.5168 688.083,70.6457 
  695.054,69.8703 702.026,69.1791 708.997,68.5621 715.968,68.0103 722.94,67.516 729.911,67.0726 736.882,66.6741 743.853,66.3153 750.825,65.9918 757.796,65.6996 
  764.767,65.4352 771.738,65.1956 778.71,64.9782 785.681,64.7806 792.652,64.6007 799.623,64.4368 806.595,64.2872 813.566,64.1505 820.537,64.0254 827.509,63.9109 
  834.48,63.806 841.451,63.7097 848.422,63.6213 855.394,63.5401 862.365,63.4654 869.336,63.3968 876.307,63.3336 883.279,63.2755 890.25,63.2221 897.221,63.1729 
  904.193,63.1277 911.164,63.0862 918.135,63.048 925.106,63.013 932.078,62.9809 939.049,62.9515 946.02,62.9246 952.991,62.9001 959.963,62.8778 966.934,62.8576 
  973.905,62.8394 980.876,62.8229 987.848,62.8082 994.819,62.7951 1001.79,62.7836 1008.76,62.7735 1015.73,62.7648 1022.7,62.7573 1029.68,62.7511 1036.65,62.7461 
  1043.62,62.7423 1050.59,62.7395 1057.56,62.7377 1064.53,62.7369 1071.5,62.737 1078.47,62.7381 1085.45,62.74 1092.42,62.7427 1099.39,62.7463 1106.36,62.7506 
  1113.33,62.7556 1120.3,62.7614 1127.27,62.7679 1134.24,62.7751 1141.22,62.783 1148.19,62.7914 1155.16,62.8005 1162.13,62.8103 1169.1,62.8206 1176.07,62.8315 
  1183.04,62.8429 1190.01,62.8549 1196.99,62.8675 1203.96,62.8806 1210.93,62.8942 1217.9,62.9083 1224.87,62.9229 1231.84,62.9381 1238.81,62.9537 1245.78,62.9698 
  1252.76,62.9864 
  "/>
<polyline clip-path="url(#clip922)" style="stroke:#008900; stroke-linecap:butt; stroke-linejoin:round; stroke-width:16; stroke-opacity:1; fill:none" points="
  207.066,487.626 214.037,487.58 221.008,487.541 227.98,487.495 234.951,487.443 241.922,487.383 248.893,487.315 255.865,487.236 262.836,487.147 269.807,487.044 
  276.778,486.926 283.75,486.792 290.721,486.638 297.692,486.463 304.663,486.263 311.635,486.036 318.606,485.778 325.577,485.485 332.549,485.153 339.52,484.777 
  346.491,484.354 353.462,483.879 360.434,483.345 367.405,482.749 374.376,482.085 381.347,481.349 388.319,480.537 395.29,479.645 402.261,478.671 409.233,477.613 
  416.204,476.473 423.175,475.251 430.146,473.953 437.118,472.584 444.089,471.151 451.06,469.665 458.031,468.137 465.003,466.58 471.974,465.007 478.945,463.432 
  485.916,461.867 492.888,460.325 499.859,458.817 506.83,457.353 513.802,455.938 520.773,454.579 527.744,453.279 534.715,452.038 541.687,450.856 548.658,449.731 
  555.629,448.66 562.6,447.64 569.572,446.666 576.543,445.734 583.514,444.842 590.485,443.986 597.457,443.165 604.428,442.377 611.399,441.624 618.371,440.907 
  625.342,440.229 632.313,439.595 639.284,439.009 646.256,438.477 653.227,438.005 660.198,437.6 667.169,437.266 674.141,437.011 681.112,436.837 688.083,436.75 
  695.054,436.75 702.026,436.838 708.997,437.016 715.968,437.28 722.94,437.628 729.911,438.057 736.882,438.56 743.853,439.134 750.825,439.771 757.796,440.465 
  764.767,441.21 771.738,441.998 778.71,442.823 785.681,443.679 792.652,444.558 799.623,445.456 806.595,446.367 813.566,447.286 820.537,448.209 827.509,449.13 
  834.48,450.047 841.451,450.957 848.422,451.857 855.394,452.744 862.365,453.617 869.336,454.473 876.307,455.312 883.279,456.133 890.25,456.934 897.221,457.716 
  904.193,458.477 911.164,459.218 918.135,459.939 925.106,460.639 932.078,461.318 939.049,461.978 946.02,462.617 952.991,463.237 959.963,463.839 966.934,464.421 
  973.905,464.986 980.876,465.532 987.848,466.062 994.819,466.575 1001.79,467.072 1008.76,467.553 1015.73,468.019 1022.7,468.471 1029.68,468.908 1036.65,469.332 
  1043.62,469.743 1050.59,470.141 1057.56,470.527 1064.53,470.902 1071.5,471.264 1078.47,471.616 1085.45,471.958 1092.42,472.289 1099.39,472.611 1106.36,472.923 
  1113.33,473.226 1120.3,473.521 1127.27,473.807 1134.24,474.085 1141.22,474.355 1148.19,474.618 1155.16,474.873 1162.13,475.122 1169.1,475.364 1176.07,475.599 
  1183.04,475.828 1190.01,476.051 1196.99,476.268 1203.96,476.479 1210.93,476.685 1217.9,476.886 1224.87,477.082 1231.84,477.273 1238.81,477.459 1245.78,477.64 
  1252.76,477.817 
  "/>
<polyline clip-path="url(#clip922)" style="stroke:#7f7f7f; stroke-linecap:butt; stroke-linejoin:round; stroke-width:16; stroke-opacity:1; fill:none" points="
  207.066,60.077 214.037,133.824 221.008,181.336 227.98,210.125 234.951,229.52 241.922,243.455 248.893,253.909 255.865,262.003 262.836,268.423 269.807,273.616 
  276.778,277.888 283.75,281.457 290.721,284.482 297.692,287.084 304.663,289.359 311.635,291.379 318.606,293.208 325.577,294.895 332.549,296.484 339.52,298.012 
  346.491,299.514 353.462,301.02 360.434,302.558 367.405,304.156 374.376,305.838 381.347,307.628 388.319,309.549 395.29,311.625 402.261,313.874 409.233,316.318 
  416.204,318.972 423.175,321.852 430.146,324.97 437.118,328.334 444.089,331.947 451.06,335.811 458.031,339.918 465.003,344.258 471.974,348.815 478.945,353.568 
  485.916,358.492 492.888,363.558 499.859,368.734 506.83,373.985 513.802,379.277 520.773,384.577 527.744,389.85 534.715,395.065 541.687,400.193 548.658,405.21 
  555.629,410.092 562.6,414.821 569.572,419.38 576.543,423.757 583.514,427.943 590.485,431.93 597.457,435.716 604.428,439.297 611.399,442.673 618.371,445.848 
  625.342,448.824 632.313,451.606 639.284,454.2 646.256,456.613 653.227,458.854 660.198,460.93 667.169,462.851 674.141,464.625 681.112,466.262 688.083,467.771 
  695.054,469.161 702.026,470.441 708.997,471.619 715.968,472.702 722.94,473.699 729.911,474.615 736.882,475.459 743.853,476.236 750.825,476.951 757.796,477.609 
  764.767,478.216 771.738,478.776 778.71,479.292 785.681,479.769 792.652,480.21 799.623,480.617 806.595,480.995 813.566,481.344 820.537,481.669 827.509,481.97 
  834.48,482.25 841.451,482.51 848.422,482.752 855.394,482.978 862.365,483.189 869.336,483.387 876.307,483.571 883.279,483.744 890.25,483.906 897.221,484.058 
  904.193,484.201 911.164,484.335 918.135,484.462 925.106,484.581 932.078,484.693 939.049,484.8 946.02,484.9 952.991,484.996 959.963,485.086 966.934,485.171 
  973.905,485.252 980.876,485.33 987.848,485.403 994.819,485.473 1001.79,485.539 1008.76,485.603 1015.73,485.663 1022.7,485.721 1029.68,485.777 1036.65,485.83 
  1043.62,485.88 1050.59,485.929 1057.56,485.975 1064.53,486.02 1071.5,486.063 1078.47,486.104 1085.45,486.144 1092.42,486.182 1099.39,486.218 1106.36,486.254 
  1113.33,486.288 1120.3,486.321 1127.27,486.352 1134.24,486.383 1141.22,486.412 1148.19,486.441 1155.16,486.468 1162.13,486.495 1169.1,486.521 1176.07,486.546 
  1183.04,486.57 1190.01,486.594 1196.99,486.617 1203.96,486.639 1210.93,486.66 1217.9,486.681 1224.87,486.701 1231.84,486.721 1238.81,486.74 1245.78,486.759 
  1252.76,486.777 
  "/>
<polyline clip-path="url(#clip922)" style="stroke:#895f55; stroke-linecap:butt; stroke-linejoin:round; stroke-width:16; stroke-opacity:1; fill:none" points="
  214.037,487.416 221.008,487.098 227.98,486.714 234.951,486.275 241.922,485.774 248.893,485.202 255.865,484.549 262.836,483.804 269.807,482.953 276.778,481.981 
  283.75,480.873 290.721,479.608 297.692,478.166 304.663,476.523 311.635,474.654 318.606,472.529 325.577,470.116 332.549,467.381 339.52,464.285 346.491,460.79 
  353.462,456.851 360.434,452.425 367.405,447.466 374.376,441.927 381.347,435.766 388.319,428.941 395.29,421.414 402.261,413.156 409.233,404.147 416.204,394.38 
  423.175,383.86 430.146,372.612 437.118,360.676 444.089,348.114 451.06,335.006 458.031,321.45 465.003,307.561 471.974,293.465 478.945,279.296 485.916,265.191 
  492.888,251.285 499.859,237.704 506.83,224.563 513.802,211.962 520.773,199.982 527.744,188.684 534.715,178.112 541.687,168.289 548.658,159.223 555.629,150.906 
  562.6,143.318 569.572,136.431 576.543,130.207 583.514,124.606 590.485,119.583 597.457,115.092 604.428,111.088 611.399,107.525 618.371,104.363 625.342,101.559 
  632.313,99.0779 639.284,96.8841 646.256,94.9463 653.227,93.2361 660.198,91.728 667.169,90.3989 674.141,89.2284 681.112,88.1983 688.083,87.2926 695.054,86.497 
  702.026,85.7989 708.997,85.1871 715.968,84.6519 722.94,84.1846 729.911,83.7774 736.882,83.4234 743.853,83.1168 750.825,82.852 757.796,82.6242 764.767,82.4293 
  771.738,82.2634 778.71,82.1231 785.681,82.0055 792.652,81.9077 799.623,81.8276 806.595,81.7628 813.566,81.7115 820.537,81.6721 827.509,81.6431 834.48,81.6231 
  841.451,81.6109 848.422,81.6056 855.394,81.6062 862.365,81.6119 869.336,81.6221 876.307,81.636 883.279,81.6532 890.25,81.6732 897.221,81.6956 904.193,81.72 
  911.164,81.746 918.135,81.7735 925.106,81.8022 932.078,81.8319 939.049,81.8624 946.02,81.8935 952.991,81.9252 959.963,81.9572 966.934,81.9896 973.905,82.0222 
  980.876,82.055 987.848,82.0879 994.819,82.1208 1001.79,82.1538 1008.76,82.1867 1015.73,82.2196 1022.7,82.2524 1029.68,82.2852 1036.65,82.3178 1043.62,82.3504 
  1050.59,82.3828 1057.56,82.4151 1064.53,82.4472 1071.5,82.4793 1078.47,82.5112 1085.45,82.5431 1092.42,82.5747 1099.39,82.6063 1106.36,82.6378 1113.33,82.6692 
  1120.3,82.7005 1127.27,82.7317 1134.24,82.7628 1141.22,82.7939 1148.19,82.8249 1155.16,82.8558 1162.13,82.8867 1169.1,82.9175 1176.07,82.9484 1183.04,82.9791 
  1190.01,83.0099 1196.99,83.0407 1203.96,83.0715 1210.93,83.1023 1217.9,83.1331 1224.87,83.1639 1231.84,83.1948 1238.81,83.2257 1245.78,83.2567 1252.76,83.2877 
  
  "/>
<polyline clip-path="url(#clip922)" style="stroke:#2000d4; stroke-linecap:butt; stroke-linejoin:round; stroke-width:16; stroke-opacity:1; fill:none" stroke-dasharray="64, 40" points="
  207.066,487.84 214.037,487.84 221.008,487.84 227.98,487.84 234.951,487.84 241.922,487.84 248.893,487.84 255.865,487.84 262.836,487.84 269.807,487.84 
  276.778,487.839 283.75,487.839 290.721,487.839 297.692,487.839 304.663,487.839 311.635,487.839 318.606,487.839 325.577,487.839 332.549,487.839 339.52,487.839 
  346.491,487.839 353.462,487.839 360.434,487.839 367.405,487.839 374.376,487.839 381.347,487.839 388.319,487.839 395.29,487.839 402.261,487.839 409.233,487.838 
  416.204,487.838 423.175,487.838 430.146,487.838 437.118,487.838 444.089,487.838 451.06,487.838 458.031,487.837 465.003,487.837 471.974,487.837 478.945,487.837 
  485.916,487.837 492.888,487.837 499.859,487.836 506.83,487.836 513.802,487.836 520.773,487.836 527.744,487.836 534.715,487.836 541.687,487.835 548.658,487.835 
  555.629,487.835 562.6,487.835 569.572,487.835 576.543,487.835 583.514,487.835 590.485,487.835 597.457,487.835 604.428,487.835 611.399,487.835 618.371,487.835 
  625.342,487.834 632.313,487.834 639.284,487.834 646.256,487.834 653.227,487.834 660.198,487.834 667.169,487.834 674.141,487.834 681.112,487.834 688.083,487.834 
  695.054,487.834 702.026,487.834 708.997,487.833 715.968,487.833 722.94,487.833 729.911,487.833 736.882,487.833 743.853,487.833 750.825,487.833 757.796,487.833 
  764.767,487.832 771.738,487.832 778.71,487.832 785.681,487.832 792.652,487.832 799.623,487.831 806.595,487.831 813.566,487.831 820.537,487.831 827.509,487.831 
  834.48,487.83 841.451,487.83 848.422,487.83 855.394,487.83 862.365,487.829 869.336,487.829 876.307,487.829 883.279,487.829 890.25,487.828 897.221,487.828 
  904.193,487.828 911.164,487.827 918.135,487.827 925.106,487.827 932.078,487.827 939.049,487.826 946.02,487.826 952.991,487.826 959.963,487.825 966.934,487.825 
  973.905,487.824 980.876,487.824 987.848,487.824 994.819,487.823 1001.79,487.823 1008.76,487.823 1015.73,487.822 1022.7,487.822 1029.68,487.821 1036.65,487.821 
  1043.62,487.821 1050.59,487.82 1057.56,487.82 1064.53,487.819 1071.5,487.819 1078.47,487.818 1085.45,487.818 1092.42,487.818 1099.39,487.817 1106.36,487.817 
  1113.33,487.816 1120.3,487.816 1127.27,487.815 1134.24,487.815 1141.22,487.814 1148.19,487.814 1155.16,487.813 1162.13,487.813 1169.1,487.812 1176.07,487.812 
  1183.04,487.811 1190.01,487.81 1196.99,487.81 1203.96,487.809 1210.93,487.809 1217.9,487.808 1224.87,487.808 1231.84,487.807 1238.81,487.806 1245.78,487.806 
  1252.76,487.805 
  "/>
<polyline clip-path="url(#clip922)" style="stroke:#ff221c; stroke-linecap:butt; stroke-linejoin:round; stroke-width:16; stroke-opacity:1; fill:none" points="
  207.066,402.33 214.037,402.27 221.008,402.234 227.98,402.208 234.951,402.186 241.922,402.164 248.893,402.141 255.865,402.116 262.836,402.087 269.807,402.055 
  276.778,402.017 283.75,401.974 290.721,401.925 297.692,401.869 304.663,401.805 311.635,401.731 318.606,401.647 325.577,401.551 332.549,401.441 339.52,401.315 
  346.491,401.172 353.462,401.01 360.434,400.825 367.405,400.615 374.376,400.377 381.347,400.108 388.319,399.805 395.29,399.464 402.261,399.081 409.233,398.652 
  416.204,398.175 423.175,397.644 430.146,397.057 437.118,396.41 444.089,395.7 451.06,394.924 458.031,394.081 465.003,393.169 471.974,392.187 478.945,391.135 
  485.916,390.011 492.888,388.817 499.859,387.552 506.83,386.215 513.802,384.805 520.773,383.32 527.744,381.755 534.715,380.106 541.687,378.366 548.658,376.527 
  555.629,374.578 562.6,372.509 569.572,370.308 576.543,367.961 583.514,365.457 590.485,362.782 597.457,359.925 604.428,356.876 611.399,353.625 618.371,350.167 
  625.342,346.499 632.313,342.619 639.284,338.531 646.256,334.239 653.227,329.752 660.198,325.083 667.169,320.245 674.141,315.255 681.112,310.131 688.083,304.893 
  695.054,299.562 702.026,294.16 708.997,288.708 715.968,283.228 722.94,277.74 729.911,272.264 736.882,266.82 743.853,261.424 750.825,256.092 757.796,250.839 
  764.767,245.677 771.738,240.616 778.71,235.667 785.681,230.836 792.652,226.13 799.623,221.554 806.595,217.11 813.566,212.802 820.537,208.63 827.509,204.595 
  834.48,200.696 841.451,196.931 848.422,193.3 855.394,189.798 862.365,186.424 869.336,183.175 876.307,180.047 883.279,177.035 890.25,174.138 897.221,171.35 
  904.193,168.668 911.164,166.088 918.135,163.606 925.106,161.218 932.078,158.92 939.049,156.709 946.02,154.581 952.991,152.532 959.963,150.56 966.934,148.661 
  973.905,146.831 980.876,145.068 987.848,143.368 994.819,141.73 1001.79,140.15 1008.76,138.625 1015.73,137.154 1022.7,135.734 1029.68,134.362 1036.65,133.037 
  1043.62,131.757 1050.59,130.519 1057.56,129.321 1064.53,128.163 1071.5,127.042 1078.47,125.957 1085.45,124.907 1092.42,123.889 1099.39,122.902 1106.36,121.946 
  1113.33,121.019 1120.3,120.119 1127.27,119.246 1134.24,118.398 1141.22,117.576 1148.19,116.776 1155.16,115.999 1162.13,115.245 1169.1,114.511 1176.07,113.797 
  1183.04,113.102 1190.01,112.426 1196.99,111.768 1203.96,111.128 1210.93,110.504 1217.9,109.896 1224.87,109.304 1231.84,108.726 1238.81,108.163 1245.78,107.614 
  1252.76,107.078 
  "/>
<polyline clip-path="url(#clip922)" style="stroke:#000000; stroke-linecap:butt; stroke-linejoin:round; stroke-width:16; stroke-opacity:1; fill:none" stroke-dasharray="8, 16" points="
  207.066,60.077 214.037,60.5004 221.008,60.8889 227.98,61.338 234.951,61.8515 241.922,62.4378 248.893,63.107 255.865,63.8711 262.836,64.7435 269.807,65.7395 
  276.778,66.8764 283.75,68.1737 290.721,69.6535 297.692,71.3403 304.663,73.2618 311.635,75.4484 318.606,77.9342 325.577,80.7563 332.549,83.9553 339.52,87.5752 
  346.491,91.663 353.462,96.2686 360.434,101.444 367.405,107.242 374.376,113.716 381.347,120.918 388.319,128.896 395.29,137.692 402.261,147.34 409.233,157.864 
  416.204,169.271 423.175,181.554 430.146,194.683 437.118,208.609 444.089,223.259 451.06,238.537 458.031,254.326 465.003,270.489 471.974,286.876 478.945,303.326 
  485.916,319.674 492.888,335.759 499.859,351.426 506.83,366.534 513.802,380.957 520.773,394.592 527.744,407.354 534.715,419.18 541.687,430.025 548.658,439.861 
  555.629,448.677 562.6,456.473 569.572,463.259 576.543,469.057 583.514,473.899 590.485,477.834 597.457,480.927 604.428,483.264 611.399,484.949 618.371,486.103 
  625.342,486.849 632.313,487.304 639.284,487.565 646.256,487.706 653.227,487.777 660.198,487.812 667.169,487.828 674.141,487.835 681.112,487.838 688.083,487.839 
  695.054,487.839 702.026,487.839 708.997,487.84 715.968,487.84 722.94,487.84 729.911,487.84 736.882,487.84 743.853,487.84 750.825,487.84 757.796,487.84 
  764.767,487.84 771.738,487.84 778.71,487.84 785.681,487.84 792.652,487.84 799.623,487.84 806.595,487.84 813.566,487.84 820.537,487.84 827.509,487.84 
  834.48,487.84 841.451,487.84 848.422,487.84 855.394,487.84 862.365,487.84 869.336,487.84 876.307,487.84 883.279,487.84 890.25,487.84 897.221,487.84 
  904.193,487.84 911.164,487.84 918.135,487.84 925.106,487.84 932.078,487.84 939.049,487.84 946.02,487.84 952.991,487.84 959.963,487.84 966.934,487.84 
  973.905,487.84 980.876,487.84 987.848,487.84 994.819,487.84 1001.79,487.84 1008.76,487.84 1015.73,487.84 1022.7,487.84 1029.68,487.84 1036.65,487.84 
  1043.62,487.84 1050.59,487.84 1057.56,487.84 1064.53,487.84 1071.5,487.84 1078.47,487.84 1085.45,487.84 1092.42,487.84 1099.39,487.84 1106.36,487.84 
  1113.33,487.84 1120.3,487.84 1127.27,487.84 1134.24,487.84 1141.22,487.84 1148.19,487.84 1155.16,487.84 1162.13,487.84 1169.1,487.84 1176.07,487.84 
  1183.04,487.84 1190.01,487.84 1196.99,487.84 1203.96,487.84 1210.93,487.84 1217.9,487.84 1224.87,487.84 1231.84,487.84 1238.81,487.84 1245.78,487.84 
  1252.76,487.84 
  "/>
</svg>
