<?xml version="1.0" encoding="utf-8"?>
<svg xmlns="http://www.w3.org/2000/svg" xmlns:xlink="http://www.w3.org/1999/xlink" width="325" height="150" viewBox="0 0 1300 600">
<defs>
  <clipPath id="clip680">
    <rect x="0" y="0" width="1300" height="600"/>
  </clipPath>
</defs>
<path clip-path="url(#clip680)" d="
M0 600 L1300 600 L1300 0 L0 0  Z
  " fill="#ffffff" fill-rule="evenodd" fill-opacity="1"/>
<defs>
  <clipPath id="clip681">
    <rect x="260" y="0" width="911" height="600"/>
  </clipPath>
</defs>
<path clip-path="url(#clip680)" d="
M200.094 501.1 L1252.76 501.1 L1252.76 47.2441 L200.094 47.2441  Z
  " fill="#ffffff" fill-rule="evenodd" fill-opacity="1"/>
<defs>
  <clipPath id="clip682">
    <rect x="200" y="47" width="1054" height="455"/>
  </clipPath>
</defs>
<polyline clip-path="url(#clip680)" style="stroke:#000000; stroke-linecap:butt; stroke-linejoin:round; stroke-width:4; stroke-opacity:1; fill:none" points="
  200.094,501.1 1252.76,501.1 
  "/>
<polyline clip-path="url(#clip680)" style="stroke:#000000; stroke-linecap:butt; stroke-linejoin:round; stroke-width:4; stroke-opacity:1; fill:none" points="
  200.094,501.1 200.094,482.203 
  "/>
<polyline clip-path="url(#clip680)" style="stroke:#000000; stroke-linecap:butt; stroke-linejoin:round; stroke-width:4; stroke-opacity:1; fill:none" points="
  548.658,501.1 548.658,482.203 
  "/>
<polyline clip-path="url(#clip680)" style="stroke:#000000; stroke-linecap:butt; stroke-linejoin:round; stroke-width:4; stroke-opacity:1; fill:none" points="
  897.221,501.1 897.221,482.203 
  "/>
<polyline clip-path="url(#clip680)" style="stroke:#000000; stroke-linecap:butt; stroke-linejoin:round; stroke-width:4; stroke-opacity:1; fill:none" points="
  1245.78,501.1 1245.78,482.203 
  "/>
<path clip-path="url(#clip680)" d="M200.094 526.149 Q195.581 526.149 193.295 530.605 Q191.038 535.032 191.038 543.944 Q191.038 552.827 193.295 557.283 Q195.581 561.71 200.094 561.71 Q204.637 561.71 206.894 557.283 Q209.18 552.827 209.18 543.944 Q209.18 535.032 206.894 530.605 Q204.637 526.149 200.094 526.149 M200.094 521.519 Q207.357 521.519 211.177 527.277 Q215.025 533.006 215.025 543.944 Q215.025 554.852 211.177 560.61 Q207.357 566.339 200.094 566.339 Q192.832 566.339 188.983 560.61 Q185.164 554.852 185.164 543.944 Q185.164 533.006 188.983 527.277 Q192.832 521.519 200.094 521.519 Z" fill="#000000" fill-rule="evenodd" fill-opacity="1" /><path clip-path="url(#clip680)" d="M517.032 522.3 L539.977 522.3 L539.977 527.219 L522.385 527.219 L522.385 537.809 Q523.658 537.375 524.931 537.173 Q526.204 536.941 527.477 536.941 Q534.711 536.941 538.936 540.905 Q543.16 544.87 543.16 551.64 Q543.16 558.614 538.82 562.491 Q534.48 566.339 526.58 566.339 Q523.861 566.339 521.025 565.876 Q518.218 565.413 515.209 564.487 L515.209 558.614 Q517.813 560.031 520.591 560.726 Q523.369 561.42 526.465 561.42 Q531.47 561.42 534.393 558.787 Q537.315 556.154 537.315 551.64 Q537.315 547.126 534.393 544.493 Q531.47 541.86 526.465 541.86 Q524.121 541.86 521.777 542.381 Q519.462 542.902 517.032 544.001 L517.032 522.3 Z" fill="#000000" fill-rule="evenodd" fill-opacity="1" /><path clip-path="url(#clip680)" d="M567.176 526.149 Q562.662 526.149 560.377 530.605 Q558.12 535.032 558.12 543.944 Q558.12 552.827 560.377 557.283 Q562.662 561.71 567.176 561.71 Q571.719 561.71 573.976 557.283 Q576.262 552.827 576.262 543.944 Q576.262 535.032 573.976 530.605 Q571.719 526.149 567.176 526.149 M567.176 521.519 Q574.439 521.519 578.258 527.277 Q582.107 533.006 582.107 543.944 Q582.107 554.852 578.258 560.61 Q574.439 566.339 567.176 566.339 Q559.914 566.339 556.065 560.61 Q552.246 554.852 552.246 543.944 Q552.246 533.006 556.065 527.277 Q559.914 521.519 567.176 521.519 Z" fill="#000000" fill-rule="evenodd" fill-opacity="1" /><path clip-path="url(#clip680)" d="M846.73 560.581 L856.278 560.581 L856.278 527.624 L845.891 529.708 L845.891 524.384 L856.22 522.3 L862.065 522.3 L862.065 560.581 L871.614 560.581 L871.614 565.5 L846.73 565.5 L846.73 560.581 Z" fill="#000000" fill-rule="evenodd" fill-opacity="1" /><path clip-path="url(#clip680)" d="M895.919 526.149 Q891.405 526.149 889.119 530.605 Q886.863 535.032 886.863 543.944 Q886.863 552.827 889.119 557.283 Q891.405 561.71 895.919 561.71 Q900.462 561.71 902.719 557.283 Q905.005 552.827 905.005 543.944 Q905.005 535.032 902.719 530.605 Q900.462 526.149 895.919 526.149 M895.919 521.519 Q903.182 521.519 907.001 527.277 Q910.85 533.006 910.85 543.944 Q910.85 554.852 907.001 560.61 Q903.182 566.339 895.919 566.339 Q888.656 566.339 884.808 560.61 Q880.989 554.852 880.989 543.944 Q880.989 533.006 884.808 527.277 Q888.656 521.519 895.919 521.519 Z" fill="#000000" fill-rule="evenodd" fill-opacity="1" /><path clip-path="url(#clip680)" d="M933.622 526.149 Q929.108 526.149 926.822 530.605 Q924.565 535.032 924.565 543.944 Q924.565 552.827 926.822 557.283 Q929.108 561.71 933.622 561.71 Q938.164 561.71 940.421 557.283 Q942.707 552.827 942.707 543.944 Q942.707 535.032 940.421 530.605 Q938.164 526.149 933.622 526.149 M933.622 521.519 Q940.884 521.519 944.704 527.277 Q948.552 533.006 948.552 543.944 Q948.552 554.852 944.704 560.61 Q940.884 566.339 933.622 566.339 Q926.359 566.339 922.51 560.61 Q918.691 554.852 918.691 543.944 Q918.691 533.006 922.51 527.277 Q926.359 521.519 933.622 521.519 Z" fill="#000000" fill-rule="evenodd" fill-opacity="1" /><path clip-path="url(#clip680)" d="M1195.29 560.581 L1204.84 560.581 L1204.84 527.624 L1194.45 529.708 L1194.45 524.384 L1204.78 522.3 L1210.63 522.3 L1210.63 560.581 L1220.18 560.581 L1220.18 565.5 L1195.29 565.5 L1195.29 560.581 Z" fill="#000000" fill-rule="evenodd" fill-opacity="1" /><path clip-path="url(#clip680)" d="M1232.04 522.3 L1254.99 522.3 L1254.99 527.219 L1237.39 527.219 L1237.39 537.809 Q1238.67 537.375 1239.94 537.173 Q1241.21 536.941 1242.49 536.941 Q1249.72 536.941 1253.94 540.905 Q1258.17 544.87 1258.17 551.64 Q1258.17 558.614 1253.83 562.491 Q1249.49 566.339 1241.59 566.339 Q1238.87 566.339 1236.03 565.876 Q1233.23 565.413 1230.22 564.487 L1230.22 558.614 Q1232.82 560.031 1235.6 560.726 Q1238.38 561.42 1241.47 561.42 Q1246.48 561.42 1249.4 558.787 Q1252.32 556.154 1252.32 551.64 Q1252.32 547.126 1249.4 544.493 Q1246.48 541.86 1241.47 541.86 Q1239.13 541.86 1236.79 542.381 Q1234.47 542.902 1232.04 544.001 L1232.04 522.3 Z" fill="#000000" fill-rule="evenodd" fill-opacity="1" /><path clip-path="url(#clip680)" d="M1282.18 526.149 Q1277.67 526.149 1275.39 530.605 Q1273.13 535.032 1273.13 543.944 Q1273.13 552.827 1275.39 557.283 Q1277.67 561.71 1282.18 561.71 Q1286.73 561.71 1288.98 557.283 Q1291.27 552.827 1291.27 543.944 Q1291.27 535.032 1288.98 530.605 Q1286.73 526.149 1282.18 526.149 M1282.18 521.519 Q1289.45 521.519 1293.27 527.277 Q1297.12 533.006 1297.12 543.944 Q1297.12 554.852 1293.27 560.61 Q1289.45 566.339 1282.18 566.339 Q1274.92 566.339 1271.07 560.61 Q1267.25 554.852 1267.25 543.944 Q1267.25 533.006 1271.07 527.277 Q1274.92 521.519 1282.18 521.519 Z" fill="#000000" fill-rule="evenodd" fill-opacity="1" /><polyline clip-path="url(#clip680)" style="stroke:#000000; stroke-linecap:butt; stroke-linejoin:round; stroke-width:4; stroke-opacity:1; fill:none" points="
  200.094,501.1 200.094,47.2441 
  "/>
<polyline clip-path="url(#clip680)" style="stroke:#000000; stroke-linecap:butt; stroke-linejoin:round; stroke-width:4; stroke-opacity:1; fill:none" points="
  200.094,487.84 218.992,487.84 
  "/>
<polyline clip-path="url(#clip680)" style="stroke:#000000; stroke-linecap:butt; stroke-linejoin:round; stroke-width:4; stroke-opacity:1; fill:none" points="
  200.094,380.899 218.992,380.899 
  "/>
<polyline clip-path="url(#clip680)" style="stroke:#000000; stroke-linecap:butt; stroke-linejoin:round; stroke-width:4; stroke-opacity:1; fill:none" points="
  200.094,273.958 218.992,273.958 
  "/>
<polyline clip-path="url(#clip680)" style="stroke:#000000; stroke-linecap:butt; stroke-linejoin:round; stroke-width:4; stroke-opacity:1; fill:none" points="
  200.094,167.018 218.992,167.018 
  "/>
<polyline clip-path="url(#clip680)" style="stroke:#000000; stroke-linecap:butt; stroke-linejoin:round; stroke-width:4; stroke-opacity:1; fill:none" points="
  200.094,60.077 218.992,60.077 
  "/>
<path clip-path="url(#clip680)" d="M71.4226 470.088 Q66.9087 470.088 64.6229 474.544 Q62.3659 478.971 62.3659 487.883 Q62.3659 496.766 64.6229 501.222 Q66.9087 505.649 71.4226 505.649 Q75.9654 505.649 78.2223 501.222 Q80.5082 496.766 80.5082 487.883 Q80.5082 478.971 78.2223 474.544 Q75.9654 470.088 71.4226 470.088 M71.4226 465.458 Q78.6853 465.458 82.5047 471.216 Q86.3531 476.946 86.3531 487.883 Q86.3531 498.791 82.5047 504.55 Q78.6853 510.279 71.4226 510.279 Q64.1599 510.279 60.3115 504.55 Q56.4921 498.791 56.4921 487.883 Q56.4921 476.946 60.3115 471.216 Q64.1599 465.458 71.4226 465.458 Z" fill="#000000" fill-rule="evenodd" fill-opacity="1" /><path clip-path="url(#clip680)" d="M96.625 502.09 L102.73 502.09 L102.73 509.44 L96.625 509.44 L96.625 502.09 Z" fill="#000000" fill-rule="evenodd" fill-opacity="1" /><path clip-path="url(#clip680)" d="M127.962 470.088 Q123.448 470.088 121.162 474.544 Q118.905 478.971 118.905 487.883 Q118.905 496.766 121.162 501.222 Q123.448 505.649 127.962 505.649 Q132.504 505.649 134.761 501.222 Q137.047 496.766 137.047 487.883 Q137.047 478.971 134.761 474.544 Q132.504 470.088 127.962 470.088 M127.962 465.458 Q135.224 465.458 139.044 471.216 Q142.892 476.946 142.892 487.883 Q142.892 498.791 139.044 504.55 Q135.224 510.279 127.962 510.279 Q120.699 510.279 116.851 504.55 Q113.031 498.791 113.031 487.883 Q113.031 476.946 116.851 471.216 Q120.699 465.458 127.962 465.458 Z" fill="#000000" fill-rule="evenodd" fill-opacity="1" /><path clip-path="url(#clip680)" d="M165.664 470.088 Q161.15 470.088 158.864 474.544 Q156.607 478.971 156.607 487.883 Q156.607 496.766 158.864 501.222 Q161.15 505.649 165.664 505.649 Q170.207 505.649 172.464 501.222 Q174.75 496.766 174.75 487.883 Q174.75 478.971 172.464 474.544 Q170.207 470.088 165.664 470.088 M165.664 465.458 Q172.927 465.458 176.746 471.216 Q180.594 476.946 180.594 487.883 Q180.594 498.791 176.746 504.55 Q172.927 510.279 165.664 510.279 Q158.401 510.279 154.553 504.55 Q150.734 498.791 150.734 487.883 Q150.734 476.946 154.553 471.216 Q158.401 465.458 165.664 465.458 Z" fill="#000000" fill-rule="evenodd" fill-opacity="1" /><path clip-path="url(#clip680)" d="M72.6668 363.147 Q68.1529 363.147 65.8671 367.603 Q63.6101 372.03 63.6101 380.942 Q63.6101 389.825 65.8671 394.281 Q68.1529 398.708 72.6668 398.708 Q77.2096 398.708 79.4665 394.281 Q81.7524 389.825 81.7524 380.942 Q81.7524 372.03 79.4665 367.603 Q77.2096 363.147 72.6668 363.147 M72.6668 358.518 Q79.9295 358.518 83.7489 364.276 Q87.5973 370.005 87.5973 380.942 Q87.5973 391.851 83.7489 397.609 Q79.9295 403.338 72.6668 403.338 Q65.4041 403.338 61.5558 397.609 Q57.7363 391.851 57.7363 380.942 Q57.7363 370.005 61.5558 364.276 Q65.4041 358.518 72.6668 358.518 Z" fill="#000000" fill-rule="evenodd" fill-opacity="1" /><path clip-path="url(#clip680)" d="M97.8692 395.149 L103.975 395.149 L103.975 402.499 L97.8692 402.499 L97.8692 395.149 Z" fill="#000000" fill-rule="evenodd" fill-opacity="1" /><path clip-path="url(#clip680)" d="M121.741 397.58 L142.14 397.58 L142.14 402.499 L114.709 402.499 L114.709 397.58 Q118.037 394.137 123.766 388.35 Q129.524 382.534 131 380.855 Q133.807 377.702 134.906 375.531 Q136.035 373.332 136.035 371.22 Q136.035 367.777 133.604 365.607 Q131.202 363.437 127.325 363.437 Q124.576 363.437 121.509 364.391 Q118.471 365.346 114.999 367.285 L114.999 361.382 Q118.529 359.964 121.596 359.241 Q124.663 358.518 127.209 358.518 Q133.922 358.518 137.915 361.874 Q141.908 365.231 141.908 370.844 Q141.908 373.506 140.896 375.908 Q139.912 378.28 137.279 381.521 Q136.555 382.36 132.678 386.382 Q128.801 390.375 121.741 397.58 Z" fill="#000000" fill-rule="evenodd" fill-opacity="1" /><path clip-path="url(#clip680)" d="M154.466 359.299 L177.412 359.299 L177.412 364.218 L159.819 364.218 L159.819 374.808 Q161.092 374.374 162.365 374.172 Q163.639 373.94 164.912 373.94 Q172.145 373.94 176.37 377.904 Q180.594 381.868 180.594 388.639 Q180.594 395.612 176.254 399.49 Q171.914 403.338 164.015 403.338 Q161.295 403.338 158.459 402.875 Q155.652 402.412 152.643 401.486 L152.643 395.612 Q155.247 397.03 158.025 397.725 Q160.803 398.419 163.899 398.419 Q168.905 398.419 171.827 395.786 Q174.75 393.153 174.75 388.639 Q174.75 384.125 171.827 381.492 Q168.905 378.859 163.899 378.859 Q161.555 378.859 159.211 379.38 Q156.897 379.901 154.466 381 L154.466 359.299 Z" fill="#000000" fill-rule="evenodd" fill-opacity="1" /><path clip-path="url(#clip680)" d="M71.4226 256.207 Q66.9087 256.207 64.6229 260.663 Q62.3659 265.09 62.3659 274.002 Q62.3659 282.885 64.6229 287.341 Q66.9087 291.768 71.4226 291.768 Q75.9654 291.768 78.2223 287.341 Q80.5082 282.885 80.5082 274.002 Q80.5082 265.09 78.2223 260.663 Q75.9654 256.207 71.4226 256.207 M71.4226 251.577 Q78.6853 251.577 82.5047 257.335 Q86.3531 263.064 86.3531 274.002 Q86.3531 284.91 82.5047 290.668 Q78.6853 296.397 71.4226 296.397 Q64.1599 296.397 60.3115 290.668 Q56.4921 284.91 56.4921 274.002 Q56.4921 263.064 60.3115 257.335 Q64.1599 251.577 71.4226 251.577 Z" fill="#000000" fill-rule="evenodd" fill-opacity="1" /><path clip-path="url(#clip680)" d="M96.625 288.209 L102.73 288.209 L102.73 295.558 L96.625 295.558 L96.625 288.209 Z" fill="#000000" fill-rule="evenodd" fill-opacity="1" /><path clip-path="url(#clip680)" d="M115.52 252.358 L138.465 252.358 L138.465 257.277 L120.873 257.277 L120.873 267.867 Q122.146 267.433 123.419 267.231 Q124.692 266.999 125.965 266.999 Q133.199 266.999 137.423 270.963 Q141.648 274.928 141.648 281.698 Q141.648 288.672 137.308 292.549 Q132.967 296.397 125.068 296.397 Q122.348 296.397 119.513 295.934 Q116.706 295.471 113.697 294.546 L113.697 288.672 Q116.301 290.09 119.079 290.784 Q121.856 291.478 124.952 291.478 Q129.958 291.478 132.881 288.845 Q135.803 286.212 135.803 281.698 Q135.803 277.185 132.881 274.551 Q129.958 271.918 124.952 271.918 Q122.609 271.918 120.265 272.439 Q117.95 272.96 115.52 274.06 L115.52 252.358 Z" fill="#000000" fill-rule="evenodd" fill-opacity="1" /><path clip-path="url(#clip680)" d="M165.664 256.207 Q161.15 256.207 158.864 260.663 Q156.607 265.09 156.607 274.002 Q156.607 282.885 158.864 287.341 Q161.15 291.768 165.664 291.768 Q170.207 291.768 172.464 287.341 Q174.75 282.885 174.75 274.002 Q174.75 265.09 172.464 260.663 Q170.207 256.207 165.664 256.207 M165.664 251.577 Q172.927 251.577 176.746 257.335 Q180.594 263.064 180.594 274.002 Q180.594 284.91 176.746 290.668 Q172.927 296.397 165.664 296.397 Q158.401 296.397 154.553 290.668 Q150.734 284.91 150.734 274.002 Q150.734 263.064 154.553 257.335 Q158.401 251.577 165.664 251.577 Z" fill="#000000" fill-rule="evenodd" fill-opacity="1" /><path clip-path="url(#clip680)" d="M72.6668 149.266 Q68.1529 149.266 65.8671 153.722 Q63.6101 158.149 63.6101 167.061 Q63.6101 175.944 65.8671 180.4 Q68.1529 184.827 72.6668 184.827 Q77.2096 184.827 79.4665 180.4 Q81.7524 175.944 81.7524 167.061 Q81.7524 158.149 79.4665 153.722 Q77.2096 149.266 72.6668 149.266 M72.6668 144.636 Q79.9295 144.636 83.7489 150.394 Q87.5973 156.124 87.5973 167.061 Q87.5973 177.97 83.7489 183.728 Q79.9295 189.457 72.6668 189.457 Q65.4041 189.457 61.5558 183.728 Q57.7363 177.97 57.7363 167.061 Q57.7363 156.124 61.5558 150.394 Q65.4041 144.636 72.6668 144.636 Z" fill="#000000" fill-rule="evenodd" fill-opacity="1" /><path clip-path="url(#clip680)" d="M97.8692 181.268 L103.975 181.268 L103.975 188.618 L97.8692 188.618 L97.8692 181.268 Z" fill="#000000" fill-rule="evenodd" fill-opacity="1" /><path clip-path="url(#clip680)" d="M115.23 145.418 L143.008 145.418 L143.008 147.906 L127.325 188.618 L121.22 188.618 L135.977 150.337 L115.23 150.337 L115.23 145.418 Z" fill="#000000" fill-rule="evenodd" fill-opacity="1" /><path clip-path="url(#clip680)" d="M154.466 145.418 L177.412 145.418 L177.412 150.337 L159.819 150.337 L159.819 160.927 Q161.092 160.493 162.365 160.29 Q163.639 160.059 164.912 160.059 Q172.145 160.059 176.37 164.023 Q180.594 167.987 180.594 174.758 Q180.594 181.731 176.254 185.608 Q171.914 189.457 164.015 189.457 Q161.295 189.457 158.459 188.994 Q155.652 188.531 152.643 187.605 L152.643 181.731 Q155.247 183.149 158.025 183.843 Q160.803 184.538 163.899 184.538 Q168.905 184.538 171.827 181.905 Q174.75 179.272 174.75 174.758 Q174.75 170.244 171.827 167.611 Q168.905 164.978 163.899 164.978 Q161.555 164.978 159.211 165.499 Q156.897 166.019 154.466 167.119 L154.466 145.418 Z" fill="#000000" fill-rule="evenodd" fill-opacity="1" /><path clip-path="url(#clip680)" d="M59.9354 76.758 L69.484 76.758 L69.484 43.801 L59.0963 45.8843 L59.0963 40.5603 L69.4261 38.477 L75.271 38.477 L75.271 76.758 L84.8195 76.758 L84.8195 81.677 L59.9354 81.677 L59.9354 76.758 Z" fill="#000000" fill-rule="evenodd" fill-opacity="1" /><path clip-path="url(#clip680)" d="M96.625 74.3275 L102.73 74.3275 L102.73 81.677 L96.625 81.677 L96.625 74.3275 Z" fill="#000000" fill-rule="evenodd" fill-opacity="1" /><path clip-path="url(#clip680)" d="M127.962 42.3253 Q123.448 42.3253 121.162 46.7813 Q118.905 51.2084 118.905 60.1204 Q118.905 69.0034 121.162 73.4594 Q123.448 77.8865 127.962 77.8865 Q132.504 77.8865 134.761 73.4594 Q137.047 69.0034 137.047 60.1204 Q137.047 51.2084 134.761 46.7813 Q132.504 42.3253 127.962 42.3253 M127.962 37.6957 Q135.224 37.6957 139.044 43.4538 Q142.892 49.1829 142.892 60.1204 Q142.892 71.0289 139.044 76.787 Q135.224 82.5161 127.962 82.5161 Q120.699 82.5161 116.851 76.787 Q113.031 71.0289 113.031 60.1204 Q113.031 49.1829 116.851 43.4538 Q120.699 37.6957 127.962 37.6957 Z" fill="#000000" fill-rule="evenodd" fill-opacity="1" /><path clip-path="url(#clip680)" d="M165.664 42.3253 Q161.15 42.3253 158.864 46.7813 Q156.607 51.2084 156.607 60.1204 Q156.607 69.0034 158.864 73.4594 Q161.15 77.8865 165.664 77.8865 Q170.207 77.8865 172.464 73.4594 Q174.75 69.0034 174.75 60.1204 Q174.75 51.2084 172.464 46.7813 Q170.207 42.3253 165.664 42.3253 M165.664 37.6957 Q172.927 37.6957 176.746 43.4538 Q180.594 49.1829 180.594 60.1204 Q180.594 71.0289 176.746 76.787 Q172.927 82.5161 165.664 82.5161 Q158.401 82.5161 154.553 76.787 Q150.734 71.0289 150.734 60.1204 Q150.734 49.1829 154.553 43.4538 Q158.401 37.6957 165.664 37.6957 Z" fill="#000000" fill-rule="evenodd" fill-opacity="1" /><polyline clip-path="url(#clip682)" style="stroke:#ff00ff; stroke-linecap:butt; stroke-linejoin:round; stroke-width:16; stroke-opacity:1; fill:none" points="
  207.066,274.065 214.037,274.147 221.008,274.245 227.98,274.327 234.951,274.399 241.922,274.461 248.893,274.515 255.865,274.562 262.836,274.601 269.807,274.635 
  276.778,274.664 283.75,274.688 290.721,274.709 297.692,274.726 304.663,274.739 311.635,274.751 318.606,274.759 325.577,274.766 332.549,274.771 339.52,274.775 
  346.491,274.777 353.462,274.777 360.434,274.777 367.405,274.776 374.376,274.774 381.347,274.771 388.319,274.768 395.29,274.764 402.261,274.76 409.233,274.755 
  416.204,274.75 423.175,274.744 430.146,274.739 437.118,274.733 444.089,274.727 451.06,274.721 458.031,274.715 465.003,274.708 471.974,274.702 478.945,274.695 
  485.916,274.689 492.888,274.682 499.859,274.676 506.83,274.669 513.802,274.663 520.773,274.656 527.744,274.649 534.715,274.643 541.687,274.636 548.658,274.63 
  555.629,274.623 562.6,274.617 569.572,274.611 576.543,274.604 583.514,274.598 590.485,274.592 597.457,274.586 604.428,274.579 611.399,274.573 618.371,274.567 
  625.342,274.561 632.313,274.555 639.284,274.549 646.256,274.543 653.227,274.538 660.198,274.532 667.169,274.526 674.141,274.521 681.112,274.515 688.083,274.509 
  695.054,274.504 702.026,274.499 708.997,274.493 715.968,274.488 722.94,274.483 729.911,274.477 736.882,274.472 743.853,274.467 750.825,274.462 757.796,274.457 
  764.767,274.452 771.738,274.447 778.71,274.442 785.681,274.437 792.652,274.433 799.623,274.428 806.595,274.423 813.566,274.419 820.537,274.414 827.509,274.409 
  834.48,274.405 841.451,274.4 848.422,274.396 855.394,274.392 862.365,274.387 869.336,274.383 876.307,274.379 883.279,274.375 890.25,274.371 897.221,274.366 
  904.193,274.362 911.164,274.358 918.135,274.354 925.106,274.35 932.078,274.346 939.049,274.343 946.02,274.339 952.991,274.335 959.963,274.331 966.934,274.327 
  973.905,274.324 980.876,274.32 987.848,274.316 994.819,274.313 1001.79,274.309 1008.76,274.306 1015.73,274.302 1022.7,274.299 1029.68,274.296 1036.65,274.292 
  1043.62,274.289 1050.59,274.286 1057.56,274.282 1064.53,274.279 1071.5,274.276 1078.47,274.273 1085.45,274.27 1092.42,274.266 1099.39,274.263 1106.36,274.26 
  1113.33,274.257 1120.3,274.254 1127.27,274.251 1134.24,274.248 1141.22,274.246 1148.19,274.243 1155.16,274.24 1162.13,274.237 1169.1,274.234 1176.07,274.231 
  1183.04,274.229 1190.01,274.226 1196.99,274.223 1203.96,274.221 1210.93,274.218 1217.9,274.215 1224.87,274.213 1231.84,274.21 1238.81,274.208 1245.78,274.205 
  1252.76,274.203 
  "/>
<polyline clip-path="url(#clip682)" style="stroke:#2000d4; stroke-linecap:butt; stroke-linejoin:round; stroke-width:16; stroke-opacity:1; fill:none" stroke-dasharray="8, 16" points="
  207.066,487.84 214.037,487.84 221.008,487.84 227.98,487.84 234.951,487.84 241.922,487.84 248.893,487.84 255.865,487.84 262.836,487.84 269.807,487.84 
  276.778,487.84 283.75,487.84 290.721,487.84 297.692,487.839 304.663,487.839 311.635,487.839 318.606,487.839 325.577,487.839 332.549,487.839 339.52,487.839 
  346.491,487.839 353.462,487.839 360.434,487.839 367.405,487.839 374.376,487.839 381.347,487.839 388.319,487.839 395.29,487.839 402.261,487.839 409.233,487.839 
  416.204,487.839 423.175,487.839 430.146,487.839 437.118,487.839 444.089,487.839 451.06,487.839 458.031,487.839 465.003,487.839 471.974,487.839 478.945,487.839 
  485.916,487.839 492.888,487.839 499.859,487.839 506.83,487.839 513.802,487.839 520.773,487.839 527.744,487.839 534.715,487.839 541.687,487.839 548.658,487.839 
  555.629,487.839 562.6,487.839 569.572,487.839 576.543,487.839 583.514,487.839 590.485,487.839 597.457,487.839 604.428,487.839 611.399,487.839 618.371,487.839 
  625.342,487.839 632.313,487.839 639.284,487.839 646.256,487.839 653.227,487.839 660.198,487.839 667.169,487.839 674.141,487.839 681.112,487.839 688.083,487.839 
  695.054,487.839 702.026,487.839 708.997,487.839 715.968,487.839 722.94,487.839 729.911,487.839 736.882,487.839 743.853,487.839 750.825,487.839 757.796,487.839 
  764.767,487.839 771.738,487.839 778.71,487.839 785.681,487.839 792.652,487.839 799.623,487.839 806.595,487.839 813.566,487.839 820.537,487.839 827.509,487.839 
  834.48,487.839 841.451,487.839 848.422,487.839 855.394,487.839 862.365,487.839 869.336,487.839 876.307,487.839 883.279,487.839 890.25,487.839 897.221,487.839 
  904.193,487.839 911.164,487.839 918.135,487.839 925.106,487.839 932.078,487.839 939.049,487.839 946.02,487.839 952.991,487.839 959.963,487.839 966.934,487.839 
  973.905,487.839 980.876,487.839 987.848,487.839 994.819,487.839 1001.79,487.839 1008.76,487.839 1015.73,487.839 1022.7,487.839 1029.68,487.839 1036.65,487.839 
  1043.62,487.839 1050.59,487.839 1057.56,487.839 1064.53,487.839 1071.5,487.839 1078.47,487.839 1085.45,487.839 1092.42,487.839 1099.39,487.839 1106.36,487.839 
  1113.33,487.839 1120.3,487.839 1127.27,487.839 1134.24,487.839 1141.22,487.839 1148.19,487.839 1155.16,487.839 1162.13,487.839 1169.1,487.839 1176.07,487.839 
  1183.04,487.839 1190.01,487.839 1196.99,487.839 1203.96,487.839 1210.93,487.839 1217.9,487.839 1224.87,487.839 1231.84,487.839 1238.81,487.839 1245.78,487.839 
  1252.76,487.839 
  "/>
<polyline clip-path="url(#clip682)" style="stroke:#008900; stroke-linecap:butt; stroke-linejoin:round; stroke-width:16; stroke-opacity:1; fill:none" stroke-dasharray="64, 40" points="
  207.066,487.84 214.037,487.84 221.008,487.84 227.98,487.84 234.951,487.84 241.922,487.84 248.893,487.84 255.865,487.84 262.836,487.84 269.807,487.84 
  276.778,487.84 283.75,487.84 290.721,487.84 297.692,487.84 304.663,487.84 311.635,487.84 318.606,487.84 325.577,487.84 332.549,487.84 339.52,487.84 
  346.491,487.84 353.462,487.84 360.434,487.84 367.405,487.84 374.376,487.84 381.347,487.84 388.319,487.84 395.29,487.84 402.261,487.84 409.233,487.84 
  416.204,487.84 423.175,487.84 430.146,487.84 437.118,487.84 444.089,487.84 451.06,487.84 458.031,487.84 465.003,487.84 471.974,487.84 478.945,487.84 
  485.916,487.84 492.888,487.84 499.859,487.84 506.83,487.84 513.802,487.84 520.773,487.84 527.744,487.84 534.715,487.84 541.687,487.84 548.658,487.84 
  555.629,487.84 562.6,487.84 569.572,487.84 576.543,487.84 583.514,487.84 590.485,487.84 597.457,487.84 604.428,487.84 611.399,487.84 618.371,487.84 
  625.342,487.84 632.313,487.84 639.284,487.84 646.256,487.84 653.227,487.84 660.198,487.84 667.169,487.84 674.141,487.84 681.112,487.84 688.083,487.84 
  695.054,487.84 702.026,487.84 708.997,487.84 715.968,487.84 722.94,487.84 729.911,487.84 736.882,487.84 743.853,487.84 750.825,487.84 757.796,487.84 
  764.767,487.84 771.738,487.84 778.71,487.84 785.681,487.84 792.652,487.84 799.623,487.84 806.595,487.84 813.566,487.84 820.537,487.84 827.509,487.84 
  834.48,487.84 841.451,487.84 848.422,487.84 855.394,487.84 862.365,487.84 869.336,487.84 876.307,487.84 883.279,487.84 890.25,487.84 897.221,487.84 
  904.193,487.84 911.164,487.84 918.135,487.84 925.106,487.84 932.078,487.84 939.049,487.84 946.02,487.84 952.991,487.84 959.963,487.84 966.934,487.84 
  973.905,487.84 980.876,487.84 987.848,487.84 994.819,487.84 1001.79,487.84 1008.76,487.84 1015.73,487.84 1022.7,487.84 1029.68,487.84 1036.65,487.84 
  1043.62,487.84 1050.59,487.84 1057.56,487.84 1064.53,487.84 1071.5,487.84 1078.47,487.84 1085.45,487.84 1092.42,487.84 1099.39,487.84 1106.36,487.84 
  1113.33,487.84 1120.3,487.84 1127.27,487.84 1134.24,487.84 1141.22,487.84 1148.19,487.84 1155.16,487.84 1162.13,487.84 1169.1,487.84 1176.07,487.84 
  1183.04,487.84 1190.01,487.84 1196.99,487.84 1203.96,487.84 1210.93,487.84 1217.9,487.84 1224.87,487.84 1231.84,487.84 1238.81,487.84 1245.78,487.84 
  1252.76,487.84 
  "/>
<polyline clip-path="url(#clip682)" style="stroke:#008900; stroke-linecap:butt; stroke-linejoin:round; stroke-width:16; stroke-opacity:1; fill:none" stroke-dasharray="8, 16" points="
  207.066,487.84 214.037,487.84 221.008,487.84 227.98,487.84 234.951,487.84 241.922,487.84 248.893,487.84 255.865,487.84 262.836,487.84 269.807,487.84 
  276.778,487.84 283.75,487.84 290.721,487.84 297.692,487.84 304.663,487.84 311.635,487.84 318.606,487.84 325.577,487.84 332.549,487.84 339.52,487.84 
  346.491,487.84 353.462,487.84 360.434,487.84 367.405,487.84 374.376,487.84 381.347,487.84 388.319,487.84 395.29,487.84 402.261,487.84 409.233,487.84 
  416.204,487.84 423.175,487.84 430.146,487.84 437.118,487.84 444.089,487.84 451.06,487.84 458.031,487.84 465.003,487.84 471.974,487.84 478.945,487.84 
  485.916,487.84 492.888,487.84 499.859,487.84 506.83,487.84 513.802,487.84 520.773,487.84 527.744,487.84 534.715,487.84 541.687,487.84 548.658,487.84 
  555.629,487.84 562.6,487.84 569.572,487.84 576.543,487.84 583.514,487.84 590.485,487.84 597.457,487.84 604.428,487.84 611.399,487.84 618.371,487.84 
  625.342,487.84 632.313,487.84 639.284,487.84 646.256,487.84 653.227,487.84 660.198,487.84 667.169,487.84 674.141,487.84 681.112,487.84 688.083,487.84 
  695.054,487.84 702.026,487.84 708.997,487.84 715.968,487.84 722.94,487.84 729.911,487.84 736.882,487.84 743.853,487.84 750.825,487.84 757.796,487.84 
  764.767,487.84 771.738,487.84 778.71,487.84 785.681,487.84 792.652,487.84 799.623,487.84 806.595,487.84 813.566,487.84 820.537,487.84 827.509,487.84 
  834.48,487.84 841.451,487.84 848.422,487.84 855.394,487.84 862.365,487.84 869.336,487.84 876.307,487.84 883.279,487.84 890.25,487.84 897.221,487.84 
  904.193,487.84 911.164,487.84 918.135,487.84 925.106,487.84 932.078,487.84 939.049,487.84 946.02,487.84 952.991,487.84 959.963,487.84 966.934,487.84 
  973.905,487.84 980.876,487.84 987.848,487.84 994.819,487.84 1001.79,487.84 1008.76,487.84 1015.73,487.84 1022.7,487.84 1029.68,487.84 1036.65,487.84 
  1043.62,487.84 1050.59,487.84 1057.56,487.84 1064.53,487.84 1071.5,487.84 1078.47,487.84 1085.45,487.84 1092.42,487.84 1099.39,487.84 1106.36,487.84 
  1113.33,487.84 1120.3,487.84 1127.27,487.84 1134.24,487.84 1141.22,487.84 1148.19,487.84 1155.16,487.84 1162.13,487.84 1169.1,487.84 1176.07,487.84 
  1183.04,487.84 1190.01,487.84 1196.99,487.84 1203.96,487.84 1210.93,487.84 1217.9,487.84 1224.87,487.84 1231.84,487.84 1238.81,487.84 1245.78,487.84 
  1252.76,487.84 
  "/>
<polyline clip-path="url(#clip682)" style="stroke:#2000d4; stroke-linecap:butt; stroke-linejoin:round; stroke-width:16; stroke-opacity:1; fill:none" points="
  207.066,487.412 214.037,487.081 221.008,486.679 227.98,486.329 234.951,486.025 241.922,485.763 248.893,485.537 255.865,485.342 262.836,485.175 269.807,485.032 
  276.778,484.911 283.75,484.809 290.721,484.723 297.692,484.652 304.663,484.593 311.635,484.546 318.606,484.509 325.577,484.48 332.549,484.459 339.52,484.444 
  346.491,484.435 353.462,484.432 360.434,484.433 367.405,484.437 374.376,484.446 381.347,484.457 388.319,484.47 395.29,484.486 402.261,484.504 409.233,484.523 
  416.204,484.544 423.175,484.566 430.146,484.589 437.118,484.613 444.089,484.638 451.06,484.663 458.031,484.689 465.003,484.715 471.974,484.742 478.945,484.769 
  485.916,484.796 492.888,484.823 499.859,484.85 506.83,484.878 513.802,484.905 520.773,484.932 527.744,484.96 534.715,484.987 541.687,485.014 548.658,485.041 
  555.629,485.068 562.6,485.094 569.572,485.121 576.543,485.147 583.514,485.173 590.485,485.199 597.457,485.225 604.428,485.251 611.399,485.276 618.371,485.301 
  625.342,485.326 632.313,485.351 639.284,485.376 646.256,485.4 653.227,485.424 660.198,485.448 667.169,485.471 674.141,485.495 681.112,485.518 688.083,485.541 
  695.054,485.564 702.026,485.587 708.997,485.609 715.968,485.631 722.94,485.653 729.911,485.675 736.882,485.696 743.853,485.718 750.825,485.739 757.796,485.759 
  764.767,485.78 771.738,485.801 778.71,485.821 785.681,485.841 792.652,485.861 799.623,485.881 806.595,485.9 813.566,485.919 820.537,485.939 827.509,485.957 
  834.48,485.976 841.451,485.995 848.422,486.013 855.394,486.031 862.365,486.049 869.336,486.067 876.307,486.085 883.279,486.102 890.25,486.12 897.221,486.137 
  904.193,486.154 911.164,486.17 918.135,486.187 925.106,486.204 932.078,486.22 939.049,486.236 946.02,486.252 952.991,486.268 959.963,486.283 966.934,486.299 
  973.905,486.314 980.876,486.33 987.848,486.345 994.819,486.36 1001.79,486.374 1008.76,486.389 1015.73,486.403 1022.7,486.418 1029.68,486.432 1036.65,486.446 
  1043.62,486.46 1050.59,486.474 1057.56,486.487 1064.53,486.501 1071.5,486.514 1078.47,486.527 1085.45,486.54 1092.42,486.553 1099.39,486.566 1106.36,486.579 
  1113.33,486.591 1120.3,486.604 1127.27,486.616 1134.24,486.628 1141.22,486.64 1148.19,486.652 1155.16,486.664 1162.13,486.676 1169.1,486.688 1176.07,486.699 
  1183.04,486.71 1190.01,486.722 1196.99,486.733 1203.96,486.744 1210.93,486.755 1217.9,486.766 1224.87,486.776 1231.84,486.787 1238.81,486.797 1245.78,486.808 
  1252.76,486.818 
  "/>
<polyline clip-path="url(#clip682)" style="stroke:#008900; stroke-linecap:butt; stroke-linejoin:round; stroke-width:16; stroke-opacity:1; fill:none" points="
  207.066,487.626 214.037,487.58 221.008,487.61 227.98,487.636 234.951,487.659 241.922,487.68 248.893,487.698 255.865,487.713 262.836,487.727 269.807,487.739 
  276.778,487.75 283.75,487.76 290.721,487.768 297.692,487.776 304.663,487.782 311.635,487.788 318.606,487.793 325.577,487.798 332.549,487.802 339.52,487.805 
  346.491,487.808 353.462,487.811 360.434,487.814 367.405,487.816 374.376,487.818 381.347,487.819 388.319,487.821 395.29,487.822 402.261,487.823 409.233,487.824 
  416.204,487.825 423.175,487.826 430.146,487.827 437.118,487.828 444.089,487.828 451.06,487.829 458.031,487.829 465.003,487.83 471.974,487.83 478.945,487.83 
  485.916,487.831 492.888,487.831 499.859,487.831 506.83,487.832 513.802,487.832 520.773,487.832 527.744,487.832 534.715,487.832 541.687,487.832 548.658,487.833 
  555.629,487.833 562.6,487.833 569.572,487.833 576.543,487.833 583.514,487.833 590.485,487.833 597.457,487.833 604.428,487.833 611.399,487.834 618.371,487.834 
  625.342,487.834 632.313,487.834 639.284,487.834 646.256,487.834 653.227,487.834 660.198,487.834 667.169,487.834 674.141,487.834 681.112,487.834 688.083,487.834 
  695.054,487.834 702.026,487.834 708.997,487.834 715.968,487.835 722.94,487.835 729.911,487.835 736.882,487.835 743.853,487.835 750.825,487.835 757.796,487.835 
  764.767,487.835 771.738,487.835 778.71,487.835 785.681,487.835 792.652,487.835 799.623,487.835 806.595,487.835 813.566,487.835 820.537,487.835 827.509,487.835 
  834.48,487.835 841.451,487.835 848.422,487.835 855.394,487.835 862.365,487.836 869.336,487.836 876.307,487.836 883.279,487.836 890.25,487.836 897.221,487.836 
  904.193,487.836 911.164,487.836 918.135,487.836 925.106,487.836 932.078,487.836 939.049,487.836 946.02,487.836 952.991,487.836 959.963,487.836 966.934,487.836 
  973.905,487.836 980.876,487.836 987.848,487.836 994.819,487.836 1001.79,487.836 1008.76,487.836 1015.73,487.836 1022.7,487.836 1029.68,487.836 1036.65,487.836 
  1043.62,487.836 1050.59,487.836 1057.56,487.836 1064.53,487.837 1071.5,487.837 1078.47,487.837 1085.45,487.837 1092.42,487.837 1099.39,487.837 1106.36,487.837 
  1113.33,487.837 1120.3,487.837 1127.27,487.837 1134.24,487.837 1141.22,487.837 1148.19,487.837 1155.16,487.837 1162.13,487.837 1169.1,487.837 1176.07,487.837 
  1183.04,487.837 1190.01,487.837 1196.99,487.837 1203.96,487.837 1210.93,487.837 1217.9,487.837 1224.87,487.837 1231.84,487.837 1238.81,487.837 1245.78,487.837 
  1252.76,487.837 
  "/>
<polyline clip-path="url(#clip682)" style="stroke:#7f7f7f; stroke-linecap:butt; stroke-linejoin:round; stroke-width:16; stroke-opacity:1; fill:none" points="
  207.066,60.077 214.037,133.824 221.008,219.829 227.98,267.881 234.951,299.991 241.922,323.588 248.893,341.987 255.865,356.923 262.836,369.408 269.807,380.077 
  276.778,389.35 283.75,397.521 290.721,404.802 297.692,411.347 304.663,417.275 311.635,422.679 318.606,427.63 325.577,432.186 332.549,436.394 339.52,440.292 
  346.491,443.91 353.462,447.276 360.434,450.411 367.405,453.334 374.376,456.061 381.347,458.605 388.319,460.977 395.29,463.189 402.261,465.25 409.233,467.167 
  416.204,468.949 423.175,470.602 430.146,472.133 437.118,473.549 444.089,474.856 451.06,476.059 458.031,477.166 465.003,478.181 471.974,479.111 478.945,479.96 
  485.916,480.735 492.888,481.441 499.859,482.082 506.83,482.664 513.802,483.191 520.773,483.668 527.744,484.099 534.715,484.488 541.687,484.838 548.658,485.154 
  555.629,485.437 562.6,485.692 569.572,485.921 576.543,486.126 583.514,486.31 590.485,486.475 597.457,486.622 604.428,486.754 611.399,486.873 618.371,486.978 
  625.342,487.073 632.313,487.157 639.284,487.232 646.256,487.299 653.227,487.359 660.198,487.413 667.169,487.461 674.141,487.503 681.112,487.541 688.083,487.575 
  695.054,487.605 702.026,487.632 708.997,487.656 715.968,487.678 722.94,487.697 729.911,487.714 736.882,487.729 743.853,487.742 750.825,487.754 757.796,487.765 
  764.767,487.774 771.738,487.783 778.71,487.79 785.681,487.797 792.652,487.803 799.623,487.808 806.595,487.813 813.566,487.817 820.537,487.821 827.509,487.824 
  834.48,487.827 841.451,487.83 848.422,487.832 855.394,487.834 862.365,487.836 869.336,487.837 876.307,487.839 883.279,487.84 890.25,487.841 897.221,487.842 
  904.193,487.843 911.164,487.844 918.135,487.844 925.106,487.845 932.078,487.845 939.049,487.846 946.02,487.846 952.991,487.847 959.963,487.847 966.934,487.847 
  973.905,487.847 980.876,487.847 987.848,487.848 994.819,487.848 1001.79,487.848 1008.76,487.848 1015.73,487.848 1022.7,487.848 1029.68,487.848 1036.65,487.848 
  1043.62,487.848 1050.59,487.848 1057.56,487.848 1064.53,487.848 1071.5,487.848 1078.47,487.848 1085.45,487.848 1092.42,487.848 1099.39,487.848 1106.36,487.848 
  1113.33,487.848 1120.3,487.848 1127.27,487.848 1134.24,487.847 1141.22,487.847 1148.19,487.847 1155.16,487.847 1162.13,487.847 1169.1,487.847 1176.07,487.847 
  1183.04,487.847 1190.01,487.847 1196.99,487.847 1203.96,487.847 1210.93,487.847 1217.9,487.847 1224.87,487.847 1231.84,487.847 1238.81,487.846 1245.78,487.846 
  1252.76,487.846 
  "/>
<polyline clip-path="url(#clip682)" style="stroke:#895f55; stroke-linecap:butt; stroke-linejoin:round; stroke-width:16; stroke-opacity:1; fill:none" points="
  214.037,487.416 221.008,487.098 227.98,486.717 234.951,486.385 241.922,486.098 248.893,485.849 255.865,485.634 262.836,485.45 269.807,485.291 276.778,485.156 
  283.75,485.041 290.721,484.944 297.692,484.863 304.663,484.795 311.635,484.74 318.606,484.696 325.577,484.66 332.549,484.633 339.52,484.613 346.491,484.6 
  353.462,484.592 360.434,484.588 367.405,484.589 374.376,484.594 381.347,484.602 388.319,484.612 395.29,484.625 402.261,484.641 409.233,484.658 416.204,484.676 
  423.175,484.696 430.146,484.717 437.118,484.739 444.089,484.762 451.06,484.786 458.031,484.81 465.003,484.835 471.974,484.86 478.945,484.885 485.916,484.911 
  492.888,484.937 499.859,484.963 506.83,484.989 513.802,485.015 520.773,485.041 527.744,485.067 534.715,485.093 541.687,485.119 548.658,485.145 555.629,485.17 
  562.6,485.196 569.572,485.221 576.543,485.247 583.514,485.272 590.485,485.297 597.457,485.322 604.428,485.346 611.399,485.371 618.371,485.395 625.342,485.419 
  632.313,485.443 639.284,485.466 646.256,485.49 653.227,485.513 660.198,485.536 667.169,485.559 674.141,485.581 681.112,485.604 688.083,485.626 695.054,485.648 
  702.026,485.669 708.997,485.691 715.968,485.712 722.94,485.733 729.911,485.754 736.882,485.775 743.853,485.795 750.825,485.816 757.796,485.836 764.767,485.856 
  771.738,485.876 778.71,485.895 785.681,485.914 792.652,485.934 799.623,485.953 806.595,485.971 813.566,485.99 820.537,486.008 827.509,486.027 834.48,486.045 
  841.451,486.062 848.422,486.08 855.394,486.098 862.365,486.115 869.336,486.132 876.307,486.149 883.279,486.166 890.25,486.183 897.221,486.199 904.193,486.216 
  911.164,486.232 918.135,486.248 925.106,486.264 932.078,486.279 939.049,486.295 946.02,486.31 952.991,486.326 959.963,486.341 966.934,486.356 973.905,486.37 
  980.876,486.385 987.848,486.399 994.819,486.414 1001.79,486.428 1008.76,486.442 1015.73,486.456 1022.7,486.47 1029.68,486.484 1036.65,486.497 1043.62,486.51 
  1050.59,486.524 1057.56,486.537 1064.53,486.55 1071.5,486.563 1078.47,486.575 1085.45,486.588 1092.42,486.6 1099.39,486.613 1106.36,486.625 1113.33,486.637 
  1120.3,486.649 1127.27,486.661 1134.24,486.673 1141.22,486.684 1148.19,486.696 1155.16,486.707 1162.13,486.719 1169.1,486.73 1176.07,486.741 1183.04,486.752 
  1190.01,486.763 1196.99,486.773 1203.96,486.784 1210.93,486.795 1217.9,486.805 1224.87,486.815 1231.84,486.826 1238.81,486.836 1245.78,486.846 1252.76,486.856 
  
  "/>
<polyline clip-path="url(#clip682)" style="stroke:#2000d4; stroke-linecap:butt; stroke-linejoin:round; stroke-width:16; stroke-opacity:1; fill:none" stroke-dasharray="64, 40" points="
  207.066,487.84 214.037,487.84 221.008,487.84 227.98,487.84 234.951,487.84 241.922,487.84 248.893,487.84 255.865,487.84 262.836,487.84 269.807,487.84 
  276.778,487.84 283.75,487.84 290.721,487.84 297.692,487.839 304.663,487.839 311.635,487.839 318.606,487.839 325.577,487.839 332.549,487.839 339.52,487.839 
  346.491,487.839 353.462,487.839 360.434,487.839 367.405,487.839 374.376,487.839 381.347,487.839 388.319,487.839 395.29,487.839 402.261,487.839 409.233,487.839 
  416.204,487.839 423.175,487.839 430.146,487.839 437.118,487.839 444.089,487.839 451.06,487.839 458.031,487.839 465.003,487.839 471.974,487.839 478.945,487.839 
  485.916,487.839 492.888,487.839 499.859,487.839 506.83,487.839 513.802,487.839 520.773,487.839 527.744,487.839 534.715,487.839 541.687,487.839 548.658,487.839 
  555.629,487.839 562.6,487.839 569.572,487.839 576.543,487.839 583.514,487.839 590.485,487.839 597.457,487.839 604.428,487.839 611.399,487.839 618.371,487.839 
  625.342,487.839 632.313,487.839 639.284,487.839 646.256,487.839 653.227,487.839 660.198,487.839 667.169,487.839 674.141,487.839 681.112,487.839 688.083,487.839 
  695.054,487.839 702.026,487.839 708.997,487.839 715.968,487.839 722.94,487.839 729.911,487.839 736.882,487.839 743.853,487.839 750.825,487.839 757.796,487.839 
  764.767,487.839 771.738,487.839 778.71,487.839 785.681,487.839 792.652,487.839 799.623,487.839 806.595,487.839 813.566,487.839 820.537,487.839 827.509,487.839 
  834.48,487.839 841.451,487.839 848.422,487.839 855.394,487.839 862.365,487.839 869.336,487.839 876.307,487.839 883.279,487.839 890.25,487.839 897.221,487.839 
  904.193,487.839 911.164,487.839 918.135,487.839 925.106,487.839 932.078,487.839 939.049,487.839 946.02,487.839 952.991,487.839 959.963,487.839 966.934,487.839 
  973.905,487.839 980.876,487.839 987.848,487.839 994.819,487.839 1001.79,487.839 1008.76,487.839 1015.73,487.839 1022.7,487.839 1029.68,487.839 1036.65,487.839 
  1043.62,487.839 1050.59,487.839 1057.56,487.839 1064.53,487.839 1071.5,487.839 1078.47,487.839 1085.45,487.839 1092.42,487.839 1099.39,487.839 1106.36,487.839 
  1113.33,487.839 1120.3,487.839 1127.27,487.839 1134.24,487.839 1141.22,487.839 1148.19,487.839 1155.16,487.839 1162.13,487.839 1169.1,487.839 1176.07,487.839 
  1183.04,487.839 1190.01,487.839 1196.99,487.839 1203.96,487.839 1210.93,487.839 1217.9,487.839 1224.87,487.839 1231.84,487.839 1238.81,487.839 1245.78,487.839 
  1252.76,487.839 
  "/>
<polyline clip-path="url(#clip682)" style="stroke:#ff221c; stroke-linecap:butt; stroke-linejoin:round; stroke-width:16; stroke-opacity:1; fill:none" points="
  207.066,60.2907 214.037,60.2125 221.008,60.1954 227.98,60.1812 234.951,60.1691 241.922,60.1587 248.893,60.1496 255.865,60.1416 262.836,60.1346 269.807,60.1284 
  276.778,60.123 283.75,60.1182 290.721,60.1139 297.692,60.1102 304.663,60.1069 311.635,60.104 318.606,60.1014 325.577,60.0991 332.549,60.0971 339.52,60.0953 
  346.491,60.0937 353.462,60.0923 360.434,60.0911 367.405,60.09 374.376,60.089 381.347,60.0881 388.319,60.0874 395.29,60.0867 402.261,60.0861 409.233,60.0855 
  416.204,60.0851 423.175,60.0846 430.146,60.0842 437.118,60.0839 444.089,60.0836 451.06,60.0833 458.031,60.0831 465.003,60.0828 471.974,60.0826 478.945,60.0825 
  485.916,60.0823 492.888,60.0821 499.859,60.082 506.83,60.0819 513.802,60.0818 520.773,60.0817 527.744,60.0816 534.715,60.0815 541.687,60.0814 548.658,60.0813 
  555.629,60.0812 562.6,60.0812 569.572,60.0811 576.543,60.081 583.514,60.081 590.485,60.0809 597.457,60.0809 604.428,60.0808 611.399,60.0808 618.371,60.0807 
  625.342,60.0807 632.313,60.0806 639.284,60.0806 646.256,60.0806 653.227,60.0805 660.198,60.0805 667.169,60.0804 674.141,60.0804 681.112,60.0804 688.083,60.0803 
  695.054,60.0803 702.026,60.0803 708.997,60.0802 715.968,60.0802 722.94,60.0802 729.911,60.0801 736.882,60.0801 743.853,60.0801 750.825,60.0801 757.796,60.08 
  764.767,60.08 771.738,60.08 778.71,60.0799 785.681,60.0799 792.652,60.0799 799.623,60.0799 806.595,60.0798 813.566,60.0798 820.537,60.0798 827.509,60.0798 
  834.48,60.0797 841.451,60.0797 848.422,60.0797 855.394,60.0797 862.365,60.0796 869.336,60.0796 876.307,60.0796 883.279,60.0796 890.25,60.0795 897.221,60.0795 
  904.193,60.0795 911.164,60.0795 918.135,60.0794 925.106,60.0794 932.078,60.0794 939.049,60.0794 946.02,60.0794 952.991,60.0793 959.963,60.0793 966.934,60.0793 
  973.905,60.0793 980.876,60.0793 987.848,60.0792 994.819,60.0792 1001.79,60.0792 1008.76,60.0792 1015.73,60.0792 1022.7,60.0791 1029.68,60.0791 1036.65,60.0791 
  1043.62,60.0791 1050.59,60.0791 1057.56,60.079 1064.53,60.079 1071.5,60.079 1078.47,60.079 1085.45,60.079 1092.42,60.079 1099.39,60.0789 1106.36,60.0789 
  1113.33,60.0789 1120.3,60.0789 1127.27,60.0789 1134.24,60.0789 1141.22,60.0788 1148.19,60.0788 1155.16,60.0788 1162.13,60.0788 1169.1,60.0788 1176.07,60.0788 
  1183.04,60.0787 1190.01,60.0787 1196.99,60.0787 1203.96,60.0787 1210.93,60.0787 1217.9,60.0787 1224.87,60.0787 1231.84,60.0786 1238.81,60.0786 1245.78,60.0786 
  1252.76,60.0786 
  "/>
<polyline clip-path="url(#clip682)" style="stroke:#000000; stroke-linecap:butt; stroke-linejoin:round; stroke-width:16; stroke-opacity:1; fill:none" stroke-dasharray="8, 16" points="
  207.066,60.077 214.037,60.5004 221.008,60.8889 227.98,61.3349 234.951,61.7407 241.922,62.0959 248.893,62.4038 255.865,62.6698 262.836,62.8989 269.807,63.0955 
  276.778,63.2635 283.75,63.4063 290.721,63.5271 297.692,63.6285 304.663,63.7129 311.635,63.7822 318.606,63.8385 325.577,63.8831 332.549,63.9177 339.52,63.9434 
  346.491,63.9613 353.462,63.9723 360.434,63.9774 367.405,63.9773 374.376,63.9727 381.347,63.964 388.319,63.952 395.29,63.9369 402.261,63.9192 409.233,63.8992 
  416.204,63.8773 423.175,63.8537 430.146,63.8287 437.118,63.8025 444.089,63.7752 451.06,63.7471 458.031,63.7182 465.003,63.6887 471.974,63.6587 478.945,63.6283 
  485.916,63.5976 492.888,63.5667 499.859,63.5356 506.83,63.5043 513.802,63.4731 520.773,63.4418 527.744,63.4105 534.715,63.3793 541.687,63.3481 548.658,63.3171 
  555.629,63.2862 562.6,63.2554 569.572,63.2249 576.543,63.1945 583.514,63.1643 590.485,63.1343 597.457,63.1045 604.428,63.0749 611.399,63.0456 618.371,63.0165 
  625.342,62.9876 632.313,62.959 639.284,62.9306 646.256,62.9025 653.227,62.8746 660.198,62.847 667.169,62.8196 674.141,62.7925 681.112,62.7656 688.083,62.739 
  695.054,62.7126 702.026,62.6865 708.997,62.6606 715.968,62.6349 722.94,62.6095 729.911,62.5844 736.882,62.5595 743.853,62.5348 750.825,62.5104 757.796,62.4862 
  764.767,62.4622 771.738,62.4385 778.71,62.415 785.681,62.3918 792.652,62.3688 799.623,62.3459 806.595,62.3234 813.566,62.301 820.537,62.2789 827.509,62.2569 
  834.48,62.2352 841.451,62.2138 848.422,62.1925 855.394,62.1714 862.365,62.1506 869.336,62.1299 876.307,62.1095 883.279,62.0892 890.25,62.0692 897.221,62.0493 
  904.193,62.0297 911.164,62.0102 918.135,61.991 925.106,61.9719 932.078,61.953 939.049,61.9343 946.02,61.9158 952.991,61.8975 959.963,61.8793 966.934,61.8614 
  973.905,61.8436 980.876,61.826 987.848,61.8085 994.819,61.7913 1001.79,61.7742 1008.76,61.7573 1015.73,61.7405 1022.7,61.7239 1029.68,61.7075 1036.65,61.6913 
  1043.62,61.6752 1050.59,61.6592 1057.56,61.6434 1064.53,61.6278 1071.5,61.6124 1078.47,61.597 1085.45,61.5819 1092.42,61.5669 1099.39,61.552 1106.36,61.5373 
  1113.33,61.5227 1120.3,61.5083 1127.27,61.494 1134.24,61.4799 1141.22,61.4659 1148.19,61.4521 1155.16,61.4383 1162.13,61.4248 1169.1,61.4113 1176.07,61.398 
  1183.04,61.3848 1190.01,61.3718 1196.99,61.3589 1203.96,61.3461 1210.93,61.3334 1217.9,61.3209 1224.87,61.3085 1231.84,61.2962 1238.81,61.284 1245.78,61.272 
  1252.76,61.26 
  "/>
</svg>
