<?xml version="1.0" encoding="utf-8"?>
<svg xmlns="http://www.w3.org/2000/svg" xmlns:xlink="http://www.w3.org/1999/xlink" width="325" height="150" viewBox="0 0 1300 600">
<defs>
  <clipPath id="clip520">
    <rect x="0" y="0" width="1300" height="600"/>
  </clipPath>
</defs>
<path clip-path="url(#clip520)" d="
M0 600 L1300 600 L1300 0 L0 0  Z
  " fill="#ffffff" fill-rule="evenodd" fill-opacity="1"/>
<defs>
  <clipPath id="clip521">
    <rect x="260" y="0" width="911" height="600"/>
  </clipPath>
</defs>
<path clip-path="url(#clip520)" d="
M200.094 501.1 L1252.76 501.1 L1252.76 47.2441 L200.094 47.2441  Z
  " fill="#ffffff" fill-rule="evenodd" fill-opacity="1"/>
<defs>
  <clipPath id="clip522">
    <rect x="200" y="47" width="1054" height="455"/>
  </clipPath>
</defs>
<polyline clip-path="url(#clip520)" style="stroke:#000000; stroke-linecap:butt; stroke-linejoin:round; stroke-width:4; stroke-opacity:1; fill:none" points="
  200.094,501.1 1252.76,501.1 
  "/>
<polyline clip-path="url(#clip520)" style="stroke:#000000; stroke-linecap:butt; stroke-linejoin:round; stroke-width:4; stroke-opacity:1; fill:none" points="
  200.094,501.1 200.094,482.203 
  "/>
<polyline clip-path="url(#clip520)" style="stroke:#000000; stroke-linecap:butt; stroke-linejoin:round; stroke-width:4; stroke-opacity:1; fill:none" points="
  548.658,501.1 548.658,482.203 
  "/>
<polyline clip-path="url(#clip520)" style="stroke:#000000; stroke-linecap:butt; stroke-linejoin:round; stroke-width:4; stroke-opacity:1; fill:none" points="
  897.221,501.1 897.221,482.203 
  "/>
<polyline clip-path="url(#clip520)" style="stroke:#000000; stroke-linecap:butt; stroke-linejoin:round; stroke-width:4; stroke-opacity:1; fill:none" points="
  1245.78,501.1 1245.78,482.203 
  "/>
<path clip-path="url(#clip520)" d="M200.094 526.149 Q195.581 526.149 193.295 530.605 Q191.038 535.032 191.038 543.944 Q191.038 552.827 193.295 557.283 Q195.581 561.71 200.094 561.71 Q204.637 561.71 206.894 557.283 Q209.18 552.827 209.18 543.944 Q209.18 535.032 206.894 530.605 Q204.637 526.149 200.094 526.149 M200.094 521.519 Q207.357 521.519 211.177 527.277 Q215.025 533.006 215.025 543.944 Q215.025 554.852 211.177 560.61 Q207.357 566.339 200.094 566.339 Q192.832 566.339 188.983 560.61 Q185.164 554.852 185.164 543.944 Q185.164 533.006 188.983 527.277 Q192.832 521.519 200.094 521.519 Z" fill="#000000" fill-rule="evenodd" fill-opacity="1" /><path clip-path="url(#clip520)" d="M517.032 522.3 L539.977 522.3 L539.977 527.219 L522.385 527.219 L522.385 537.809 Q523.658 537.375 524.931 537.173 Q526.204 536.941 527.477 536.941 Q534.711 536.941 538.936 540.905 Q543.16 544.87 543.16 551.64 Q543.16 558.614 538.82 562.491 Q534.48 566.339 526.58 566.339 Q523.861 566.339 521.025 565.876 Q518.218 565.413 515.209 564.487 L515.209 558.614 Q517.813 560.031 520.591 560.726 Q523.369 561.42 526.465 561.42 Q531.47 561.42 534.393 558.787 Q537.315 556.154 537.315 551.64 Q537.315 547.126 534.393 544.493 Q531.47 541.86 526.465 541.86 Q524.121 541.86 521.777 542.381 Q519.462 542.902 517.032 544.001 L517.032 522.3 Z" fill="#000000" fill-rule="evenodd" fill-opacity="1" /><path clip-path="url(#clip520)" d="M567.176 526.149 Q562.662 526.149 560.377 530.605 Q558.12 535.032 558.12 543.944 Q558.12 552.827 560.377 557.283 Q562.662 561.71 567.176 561.71 Q571.719 561.71 573.976 557.283 Q576.262 552.827 576.262 543.944 Q576.262 535.032 573.976 530.605 Q571.719 526.149 567.176 526.149 M567.176 521.519 Q574.439 521.519 578.258 527.277 Q582.107 533.006 582.107 543.944 Q582.107 554.852 578.258 560.61 Q574.439 566.339 567.176 566.339 Q559.914 566.339 556.065 560.61 Q552.246 554.852 552.246 543.944 Q552.246 533.006 556.065 527.277 Q559.914 521.519 567.176 521.519 Z" fill="#000000" fill-rule="evenodd" fill-opacity="1" /><path clip-path="url(#clip520)" d="M846.73 560.581 L856.278 560.581 L856.278 527.624 L845.891 529.708 L845.891 524.384 L856.22 522.3 L862.065 522.3 L862.065 560.581 L871.614 560.581 L871.614 565.5 L846.73 565.5 L846.73 560.581 Z" fill="#000000" fill-rule="evenodd" fill-opacity="1" /><path clip-path="url(#clip520)" d="M895.919 526.149 Q891.405 526.149 889.119 530.605 Q886.863 535.032 886.863 543.944 Q886.863 552.827 889.119 557.283 Q891.405 561.71 895.919 561.71 Q900.462 561.71 902.719 557.283 Q905.005 552.827 905.005 543.944 Q905.005 535.032 902.719 530.605 Q900.462 526.149 895.919 526.149 M895.919 521.519 Q903.182 521.519 907.001 527.277 Q910.85 533.006 910.85 543.944 Q910.85 554.852 907.001 560.61 Q903.182 566.339 895.919 566.339 Q888.656 566.339 884.808 560.61 Q880.989 554.852 880.989 543.944 Q880.989 533.006 884.808 527.277 Q888.656 521.519 895.919 521.519 Z" fill="#000000" fill-rule="evenodd" fill-opacity="1" /><path clip-path="url(#clip520)" d="M933.622 526.149 Q929.108 526.149 926.822 530.605 Q924.565 535.032 924.565 543.944 Q924.565 552.827 926.822 557.283 Q929.108 561.71 933.622 561.71 Q938.164 561.71 940.421 557.283 Q942.707 552.827 942.707 543.944 Q942.707 535.032 940.421 530.605 Q938.164 526.149 933.622 526.149 M933.622 521.519 Q940.884 521.519 944.704 527.277 Q948.552 533.006 948.552 543.944 Q948.552 554.852 944.704 560.61 Q940.884 566.339 933.622 566.339 Q926.359 566.339 922.51 560.61 Q918.691 554.852 918.691 543.944 Q918.691 533.006 922.51 527.277 Q926.359 521.519 933.622 521.519 Z" fill="#000000" fill-rule="evenodd" fill-opacity="1" /><path clip-path="url(#clip520)" d="M1195.29 560.581 L1204.84 560.581 L1204.84 527.624 L1194.45 529.708 L1194.45 524.384 L1204.78 522.3 L1210.63 522.3 L1210.63 560.581 L1220.18 560.581 L1220.18 565.5 L1195.29 565.5 L1195.29 560.581 Z" fill="#000000" fill-rule="evenodd" fill-opacity="1" /><path clip-path="url(#clip520)" d="M1232.04 522.3 L1254.99 522.3 L1254.99 527.219 L1237.39 527.219 L1237.39 537.809 Q1238.67 537.375 1239.94 537.173 Q1241.21 536.941 1242.49 536.941 Q1249.72 536.941 1253.94 540.905 Q1258.17 544.87 1258.17 551.64 Q1258.17 558.614 1253.83 562.491 Q1249.49 566.339 1241.59 566.339 Q1238.87 566.339 1236.03 565.876 Q1233.23 565.413 1230.22 564.487 L1230.22 558.614 Q1232.82 560.031 1235.6 560.726 Q1238.38 561.42 1241.47 561.42 Q1246.48 561.42 1249.4 558.787 Q1252.32 556.154 1252.32 551.64 Q1252.32 547.126 1249.4 544.493 Q1246.48 541.86 1241.47 541.86 Q1239.13 541.86 1236.79 542.381 Q1234.47 542.902 1232.04 544.001 L1232.04 522.3 Z" fill="#000000" fill-rule="evenodd" fill-opacity="1" /><path clip-path="url(#clip520)" d="M1282.18 526.149 Q1277.67 526.149 1275.39 530.605 Q1273.13 535.032 1273.13 543.944 Q1273.13 552.827 1275.39 557.283 Q1277.67 561.71 1282.18 561.71 Q1286.73 561.71 1288.98 557.283 Q1291.27 552.827 1291.27 543.944 Q1291.27 535.032 1288.98 530.605 Q1286.73 526.149 1282.18 526.149 M1282.18 521.519 Q1289.45 521.519 1293.27 527.277 Q1297.12 533.006 1297.12 543.944 Q1297.12 554.852 1293.27 560.61 Q1289.45 566.339 1282.18 566.339 Q1274.92 566.339 1271.07 560.61 Q1267.25 554.852 1267.25 543.944 Q1267.25 533.006 1271.07 527.277 Q1274.92 521.519 1282.18 521.519 Z" fill="#000000" fill-rule="evenodd" fill-opacity="1" /><polyline clip-path="url(#clip520)" style="stroke:#000000; stroke-linecap:butt; stroke-linejoin:round; stroke-width:4; stroke-opacity:1; fill:none" points="
  200.094,501.1 200.094,47.2441 
  "/>
<polyline clip-path="url(#clip520)" style="stroke:#000000; stroke-linecap:butt; stroke-linejoin:round; stroke-width:4; stroke-opacity:1; fill:none" points="
  200.094,487.84 218.992,487.84 
  "/>
<polyline clip-path="url(#clip520)" style="stroke:#000000; stroke-linecap:butt; stroke-linejoin:round; stroke-width:4; stroke-opacity:1; fill:none" points="
  200.094,380.899 218.992,380.899 
  "/>
<polyline clip-path="url(#clip520)" style="stroke:#000000; stroke-linecap:butt; stroke-linejoin:round; stroke-width:4; stroke-opacity:1; fill:none" points="
  200.094,273.958 218.992,273.958 
  "/>
<polyline clip-path="url(#clip520)" style="stroke:#000000; stroke-linecap:butt; stroke-linejoin:round; stroke-width:4; stroke-opacity:1; fill:none" points="
  200.094,167.018 218.992,167.018 
  "/>
<polyline clip-path="url(#clip520)" style="stroke:#000000; stroke-linecap:butt; stroke-linejoin:round; stroke-width:4; stroke-opacity:1; fill:none" points="
  200.094,60.077 218.992,60.077 
  "/>
<path clip-path="url(#clip520)" d="M71.4226 470.088 Q66.9087 470.088 64.6229 474.544 Q62.3659 478.971 62.3659 487.883 Q62.3659 496.766 64.6229 501.222 Q66.9087 505.649 71.4226 505.649 Q75.9654 505.649 78.2223 501.222 Q80.5082 496.766 80.5082 487.883 Q80.5082 478.971 78.2223 474.544 Q75.9654 470.088 71.4226 470.088 M71.4226 465.458 Q78.6853 465.458 82.5047 471.216 Q86.3531 476.946 86.3531 487.883 Q86.3531 498.791 82.5047 504.55 Q78.6853 510.279 71.4226 510.279 Q64.1599 510.279 60.3115 504.55 Q56.4921 498.791 56.4921 487.883 Q56.4921 476.946 60.3115 471.216 Q64.1599 465.458 71.4226 465.458 Z" fill="#000000" fill-rule="evenodd" fill-opacity="1" /><path clip-path="url(#clip520)" d="M96.625 502.09 L102.73 502.09 L102.73 509.44 L96.625 509.44 L96.625 502.09 Z" fill="#000000" fill-rule="evenodd" fill-opacity="1" /><path clip-path="url(#clip520)" d="M127.962 470.088 Q123.448 470.088 121.162 474.544 Q118.905 478.971 118.905 487.883 Q118.905 496.766 121.162 501.222 Q123.448 505.649 127.962 505.649 Q132.504 505.649 134.761 501.222 Q137.047 496.766 137.047 487.883 Q137.047 478.971 134.761 474.544 Q132.504 470.088 127.962 470.088 M127.962 465.458 Q135.224 465.458 139.044 471.216 Q142.892 476.946 142.892 487.883 Q142.892 498.791 139.044 504.55 Q135.224 510.279 127.962 510.279 Q120.699 510.279 116.851 504.55 Q113.031 498.791 113.031 487.883 Q113.031 476.946 116.851 471.216 Q120.699 465.458 127.962 465.458 Z" fill="#000000" fill-rule="evenodd" fill-opacity="1" /><path clip-path="url(#clip520)" d="M165.664 470.088 Q161.15 470.088 158.864 474.544 Q156.607 478.971 156.607 487.883 Q156.607 496.766 158.864 501.222 Q161.15 505.649 165.664 505.649 Q170.207 505.649 172.464 501.222 Q174.75 496.766 174.75 487.883 Q174.75 478.971 172.464 474.544 Q170.207 470.088 165.664 470.088 M165.664 465.458 Q172.927 465.458 176.746 471.216 Q180.594 476.946 180.594 487.883 Q180.594 498.791 176.746 504.55 Q172.927 510.279 165.664 510.279 Q158.401 510.279 154.553 504.55 Q150.734 498.791 150.734 487.883 Q150.734 476.946 154.553 471.216 Q158.401 465.458 165.664 465.458 Z" fill="#000000" fill-rule="evenodd" fill-opacity="1" /><path clip-path="url(#clip520)" d="M72.6668 363.147 Q68.1529 363.147 65.8671 367.603 Q63.6101 372.03 63.6101 380.942 Q63.6101 389.825 65.8671 394.281 Q68.1529 398.708 72.6668 398.708 Q77.2096 398.708 79.4665 394.281 Q81.7524 389.825 81.7524 380.942 Q81.7524 372.03 79.4665 367.603 Q77.2096 363.147 72.6668 363.147 M72.6668 358.518 Q79.9295 358.518 83.7489 364.276 Q87.5973 370.005 87.5973 380.942 Q87.5973 391.851 83.7489 397.609 Q79.9295 403.338 72.6668 403.338 Q65.4041 403.338 61.5558 397.609 Q57.7363 391.851 57.7363 380.942 Q57.7363 370.005 61.5558 364.276 Q65.4041 358.518 72.6668 358.518 Z" fill="#000000" fill-rule="evenodd" fill-opacity="1" /><path clip-path="url(#clip520)" d="M97.8692 395.149 L103.975 395.149 L103.975 402.499 L97.8692 402.499 L97.8692 395.149 Z" fill="#000000" fill-rule="evenodd" fill-opacity="1" /><path clip-path="url(#clip520)" d="M121.741 397.58 L142.14 397.58 L142.14 402.499 L114.709 402.499 L114.709 397.58 Q118.037 394.137 123.766 388.35 Q129.524 382.534 131 380.855 Q133.807 377.702 134.906 375.531 Q136.035 373.332 136.035 371.22 Q136.035 367.777 133.604 365.607 Q131.202 363.437 127.325 363.437 Q124.576 363.437 121.509 364.391 Q118.471 365.346 114.999 367.285 L114.999 361.382 Q118.529 359.964 121.596 359.241 Q124.663 358.518 127.209 358.518 Q133.922 358.518 137.915 361.874 Q141.908 365.231 141.908 370.844 Q141.908 373.506 140.896 375.908 Q139.912 378.28 137.279 381.521 Q136.555 382.36 132.678 386.382 Q128.801 390.375 121.741 397.58 Z" fill="#000000" fill-rule="evenodd" fill-opacity="1" /><path clip-path="url(#clip520)" d="M154.466 359.299 L177.412 359.299 L177.412 364.218 L159.819 364.218 L159.819 374.808 Q161.092 374.374 162.365 374.172 Q163.639 373.94 164.912 373.94 Q172.145 373.94 176.37 377.904 Q180.594 381.868 180.594 388.639 Q180.594 395.612 176.254 399.49 Q171.914 403.338 164.015 403.338 Q161.295 403.338 158.459 402.875 Q155.652 402.412 152.643 401.486 L152.643 395.612 Q155.247 397.03 158.025 397.725 Q160.803 398.419 163.899 398.419 Q168.905 398.419 171.827 395.786 Q174.75 393.153 174.75 388.639 Q174.75 384.125 171.827 381.492 Q168.905 378.859 163.899 378.859 Q161.555 378.859 159.211 379.38 Q156.897 379.901 154.466 381 L154.466 359.299 Z" fill="#000000" fill-rule="evenodd" fill-opacity="1" /><path clip-path="url(#clip520)" d="M71.4226 256.207 Q66.9087 256.207 64.6229 260.663 Q62.3659 265.09 62.3659 274.002 Q62.3659 282.885 64.6229 287.341 Q66.9087 291.768 71.4226 291.768 Q75.9654 291.768 78.2223 287.341 Q80.5082 282.885 80.5082 274.002 Q80.5082 265.09 78.2223 260.663 Q75.9654 256.207 71.4226 256.207 M71.4226 251.577 Q78.6853 251.577 82.5047 257.335 Q86.3531 263.064 86.3531 274.002 Q86.3531 284.91 82.5047 290.668 Q78.6853 296.397 71.4226 296.397 Q64.1599 296.397 60.3115 290.668 Q56.4921 284.91 56.4921 274.002 Q56.4921 263.064 60.3115 257.335 Q64.1599 251.577 71.4226 251.577 Z" fill="#000000" fill-rule="evenodd" fill-opacity="1" /><path clip-path="url(#clip520)" d="M96.625 288.209 L102.73 288.209 L102.73 295.558 L96.625 295.558 L96.625 288.209 Z" fill="#000000" fill-rule="evenodd" fill-opacity="1" /><path clip-path="url(#clip520)" d="M115.52 252.358 L138.465 252.358 L138.465 257.277 L120.873 257.277 L120.873 267.867 Q122.146 267.433 123.419 267.231 Q124.692 266.999 125.965 266.999 Q133.199 266.999 137.423 270.963 Q141.648 274.928 141.648 281.698 Q141.648 288.672 137.308 292.549 Q132.967 296.397 125.068 296.397 Q122.348 296.397 119.513 295.934 Q116.706 295.471 113.697 294.546 L113.697 288.672 Q116.301 290.09 119.079 290.784 Q121.856 291.478 124.952 291.478 Q129.958 291.478 132.881 288.845 Q135.803 286.212 135.803 281.698 Q135.803 277.185 132.881 274.551 Q129.958 271.918 124.952 271.918 Q122.609 271.918 120.265 272.439 Q117.95 272.96 115.52 274.06 L115.52 252.358 Z" fill="#000000" fill-rule="evenodd" fill-opacity="1" /><path clip-path="url(#clip520)" d="M165.664 256.207 Q161.15 256.207 158.864 260.663 Q156.607 265.09 156.607 274.002 Q156.607 282.885 158.864 287.341 Q161.15 291.768 165.664 291.768 Q170.207 291.768 172.464 287.341 Q174.75 282.885 174.75 274.002 Q174.75 265.09 172.464 260.663 Q170.207 256.207 165.664 256.207 M165.664 251.577 Q172.927 251.577 176.746 257.335 Q180.594 263.064 180.594 274.002 Q180.594 284.91 176.746 290.668 Q172.927 296.397 165.664 296.397 Q158.401 296.397 154.553 290.668 Q150.734 284.91 150.734 274.002 Q150.734 263.064 154.553 257.335 Q158.401 251.577 165.664 251.577 Z" fill="#000000" fill-rule="evenodd" fill-opacity="1" /><path clip-path="url(#clip520)" d="M72.6668 149.266 Q68.1529 149.266 65.8671 153.722 Q63.6101 158.149 63.6101 167.061 Q63.6101 175.944 65.8671 180.4 Q68.1529 184.827 72.6668 184.827 Q77.2096 184.827 79.4665 180.4 Q81.7524 175.944 81.7524 167.061 Q81.7524 158.149 79.4665 153.722 Q77.2096 149.266 72.6668 149.266 M72.6668 144.636 Q79.9295 144.636 83.7489 150.394 Q87.5973 156.124 87.5973 167.061 Q87.5973 177.97 83.7489 183.728 Q79.9295 189.457 72.6668 189.457 Q65.4041 189.457 61.5558 183.728 Q57.7363 177.97 57.7363 167.061 Q57.7363 156.124 61.5558 150.394 Q65.4041 144.636 72.6668 144.636 Z" fill="#000000" fill-rule="evenodd" fill-opacity="1" /><path clip-path="url(#clip520)" d="M97.8692 181.268 L103.975 181.268 L103.975 188.618 L97.8692 188.618 L97.8692 181.268 Z" fill="#000000" fill-rule="evenodd" fill-opacity="1" /><path clip-path="url(#clip520)" d="M115.23 145.418 L143.008 145.418 L143.008 147.906 L127.325 188.618 L121.22 188.618 L135.977 150.337 L115.23 150.337 L115.23 145.418 Z" fill="#000000" fill-rule="evenodd" fill-opacity="1" /><path clip-path="url(#clip520)" d="M154.466 145.418 L177.412 145.418 L177.412 150.337 L159.819 150.337 L159.819 160.927 Q161.092 160.493 162.365 160.29 Q163.639 160.059 164.912 160.059 Q172.145 160.059 176.37 164.023 Q180.594 167.987 180.594 174.758 Q180.594 181.731 176.254 185.608 Q171.914 189.457 164.015 189.457 Q161.295 189.457 158.459 188.994 Q155.652 188.531 152.643 187.605 L152.643 181.731 Q155.247 183.149 158.025 183.843 Q160.803 184.538 163.899 184.538 Q168.905 184.538 171.827 181.905 Q174.75 179.272 174.75 174.758 Q174.75 170.244 171.827 167.611 Q168.905 164.978 163.899 164.978 Q161.555 164.978 159.211 165.499 Q156.897 166.019 154.466 167.119 L154.466 145.418 Z" fill="#000000" fill-rule="evenodd" fill-opacity="1" /><path clip-path="url(#clip520)" d="M59.9354 76.758 L69.484 76.758 L69.484 43.801 L59.0963 45.8843 L59.0963 40.5603 L69.4261 38.477 L75.271 38.477 L75.271 76.758 L84.8195 76.758 L84.8195 81.677 L59.9354 81.677 L59.9354 76.758 Z" fill="#000000" fill-rule="evenodd" fill-opacity="1" /><path clip-path="url(#clip520)" d="M96.625 74.3275 L102.73 74.3275 L102.73 81.677 L96.625 81.677 L96.625 74.3275 Z" fill="#000000" fill-rule="evenodd" fill-opacity="1" /><path clip-path="url(#clip520)" d="M127.962 42.3253 Q123.448 42.3253 121.162 46.7813 Q118.905 51.2084 118.905 60.1204 Q118.905 69.0034 121.162 73.4594 Q123.448 77.8865 127.962 77.8865 Q132.504 77.8865 134.761 73.4594 Q137.047 69.0034 137.047 60.1204 Q137.047 51.2084 134.761 46.7813 Q132.504 42.3253 127.962 42.3253 M127.962 37.6957 Q135.224 37.6957 139.044 43.4538 Q142.892 49.1829 142.892 60.1204 Q142.892 71.0289 139.044 76.787 Q135.224 82.5161 127.962 82.5161 Q120.699 82.5161 116.851 76.787 Q113.031 71.0289 113.031 60.1204 Q113.031 49.1829 116.851 43.4538 Q120.699 37.6957 127.962 37.6957 Z" fill="#000000" fill-rule="evenodd" fill-opacity="1" /><path clip-path="url(#clip520)" d="M165.664 42.3253 Q161.15 42.3253 158.864 46.7813 Q156.607 51.2084 156.607 60.1204 Q156.607 69.0034 158.864 73.4594 Q161.15 77.8865 165.664 77.8865 Q170.207 77.8865 172.464 73.4594 Q174.75 69.0034 174.75 60.1204 Q174.75 51.2084 172.464 46.7813 Q170.207 42.3253 165.664 42.3253 M165.664 37.6957 Q172.927 37.6957 176.746 43.4538 Q180.594 49.1829 180.594 60.1204 Q180.594 71.0289 176.746 76.787 Q172.927 82.5161 165.664 82.5161 Q158.401 82.5161 154.553 76.787 Q150.734 71.0289 150.734 60.1204 Q150.734 49.1829 154.553 43.4538 Q158.401 37.6957 165.664 37.6957 Z" fill="#000000" fill-rule="evenodd" fill-opacity="1" /><polyline clip-path="url(#clip522)" style="stroke:#ff00ff; stroke-linecap:butt; stroke-linejoin:round; stroke-width:16; stroke-opacity:1; fill:none" points="
  207.066,274.065 214.037,274.146 221.008,274.284 227.98,274.444 234.951,274.636 241.922,274.864 248.893,275.137 255.865,275.462 262.836,275.85 269.807,276.313 
  276.778,276.864 283.75,277.521 290.721,278.302 297.692,279.231 304.663,280.332 311.635,281.637 318.606,283.178 325.577,284.994 332.549,287.126 339.52,289.621 
  346.491,292.526 353.462,295.891 360.434,299.764 367.405,304.192 374.376,309.213 381.347,314.853 388.319,321.124 395.29,328.017 402.261,335.498 409.233,343.506 
  416.204,351.954 423.175,360.729 430.146,369.699 437.118,378.718 444.089,387.639 451.06,396.32 458.031,404.634 465.003,412.478 471.974,419.774 478.945,426.471 
  485.916,432.544 492.888,437.993 499.859,442.834 506.83,447.1 513.802,450.832 520.773,454.075 527.744,456.881 534.715,459.296 541.687,461.367 548.658,463.138 
  555.629,464.647 562.6,465.93 569.572,467.017 576.543,467.935 583.514,468.707 590.485,469.353 597.457,469.89 604.428,470.332 611.399,470.693 618.371,470.983 
  625.342,471.212 632.313,471.386 639.284,471.515 646.256,471.604 653.227,471.657 660.198,471.682 667.169,471.68 674.141,471.657 681.112,471.616 688.083,471.559 
  695.054,471.489 702.026,471.409 708.997,471.32 715.968,471.225 722.94,471.124 729.911,471.019 736.882,470.912 743.853,470.802 750.825,470.692 757.796,470.581 
  764.767,470.471 771.738,470.361 778.71,470.252 785.681,470.145 792.652,470.039 799.623,469.936 806.595,469.834 813.566,469.734 820.537,469.637 827.509,469.542 
  834.48,469.449 841.451,469.358 848.422,469.27 855.394,469.184 862.365,469.1 869.336,469.018 876.307,468.938 883.279,468.861 890.25,468.785 897.221,468.711 
  904.193,468.64 911.164,468.57 918.135,468.501 925.106,468.435 932.078,468.37 939.049,468.306 946.02,468.244 952.991,468.184 959.963,468.124 966.934,468.067 
  973.905,468.01 980.876,467.954 987.848,467.9 994.819,467.847 1001.79,467.795 1008.76,467.743 1015.73,467.693 1022.7,467.644 1029.68,467.595 1036.65,467.548 
  1043.62,467.501 1050.59,467.455 1057.56,467.41 1064.53,467.365 1071.5,467.321 1078.47,467.278 1085.45,467.235 1092.42,467.192 1099.39,467.151 1106.36,467.11 
  1113.33,467.069 1120.3,467.029 1127.27,466.989 1134.24,466.949 1141.22,466.91 1148.19,466.872 1155.16,466.834 1162.13,466.796 1169.1,466.758 1176.07,466.721 
  1183.04,466.684 1190.01,466.647 1196.99,466.61 1203.96,466.574 1210.93,466.538 1217.9,466.502 1224.87,466.466 1231.84,466.43 1238.81,466.395 1245.78,466.36 
  1252.76,466.325 
  "/>
<polyline clip-path="url(#clip522)" style="stroke:#2000d4; stroke-linecap:butt; stroke-linejoin:round; stroke-width:16; stroke-opacity:1; fill:none" stroke-dasharray="8, 16" points="
  207.066,487.84 214.037,487.84 221.008,487.84 227.98,487.84 234.951,487.84 241.922,487.84 248.893,487.84 255.865,487.839 262.836,487.839 269.807,487.839 
  276.778,487.839 283.75,487.839 290.721,487.839 297.692,487.839 304.663,487.839 311.635,487.839 318.606,487.839 325.577,487.839 332.549,487.839 339.52,487.838 
  346.491,487.838 353.462,487.838 360.434,487.837 367.405,487.837 374.376,487.836 381.347,487.836 388.319,487.835 395.29,487.834 402.261,487.833 409.233,487.832 
  416.204,487.831 423.175,487.83 430.146,487.829 437.118,487.828 444.089,487.827 451.06,487.826 458.031,487.825 465.003,487.824 471.974,487.823 478.945,487.822 
  485.916,487.821 492.888,487.82 499.859,487.819 506.83,487.818 513.802,487.817 520.773,487.817 527.744,487.816 534.715,487.815 541.687,487.814 548.658,487.813 
  555.629,487.813 562.6,487.812 569.572,487.811 576.543,487.81 583.514,487.809 590.485,487.809 597.457,487.808 604.428,487.807 611.399,487.806 618.371,487.805 
  625.342,487.805 632.313,487.804 639.284,487.803 646.256,487.802 653.227,487.801 660.198,487.8 667.169,487.8 674.141,487.799 681.112,487.798 688.083,487.797 
  695.054,487.796 702.026,487.795 708.997,487.794 715.968,487.794 722.94,487.793 729.911,487.792 736.882,487.791 743.853,487.79 750.825,487.789 757.796,487.788 
  764.767,487.787 771.738,487.786 778.71,487.785 785.681,487.784 792.652,487.783 799.623,487.782 806.595,487.781 813.566,487.78 820.537,487.779 827.509,487.778 
  834.48,487.777 841.451,487.776 848.422,487.775 855.394,487.774 862.365,487.773 869.336,487.771 876.307,487.77 883.279,487.769 890.25,487.768 897.221,487.767 
  904.193,487.766 911.164,487.765 918.135,487.763 925.106,487.762 932.078,487.761 939.049,487.76 946.02,487.759 952.991,487.757 959.963,487.756 966.934,487.755 
  973.905,487.753 980.876,487.752 987.848,487.751 994.819,487.75 1001.79,487.748 1008.76,487.747 1015.73,487.745 1022.7,487.744 1029.68,487.743 1036.65,487.741 
  1043.62,487.74 1050.59,487.738 1057.56,487.737 1064.53,487.736 1071.5,487.734 1078.47,487.733 1085.45,487.731 1092.42,487.73 1099.39,487.728 1106.36,487.726 
  1113.33,487.725 1120.3,487.723 1127.27,487.722 1134.24,487.72 1141.22,487.718 1148.19,487.717 1155.16,487.715 1162.13,487.713 1169.1,487.712 1176.07,487.71 
  1183.04,487.708 1190.01,487.707 1196.99,487.705 1203.96,487.703 1210.93,487.701 1217.9,487.699 1224.87,487.698 1231.84,487.696 1238.81,487.694 1245.78,487.692 
  1252.76,487.69 
  "/>
<polyline clip-path="url(#clip522)" style="stroke:#008900; stroke-linecap:butt; stroke-linejoin:round; stroke-width:16; stroke-opacity:1; fill:none" stroke-dasharray="64, 40" points="
  207.066,487.84 214.037,487.839 221.008,487.839 227.98,487.839 234.951,487.839 241.922,487.839 248.893,487.839 255.865,487.839 262.836,487.839 269.807,487.839 
  276.778,487.839 283.75,487.839 290.721,487.839 297.692,487.838 304.663,487.838 311.635,487.838 318.606,487.838 325.577,487.837 332.549,487.837 339.52,487.836 
  346.491,487.836 353.462,487.835 360.434,487.834 367.405,487.833 374.376,487.832 381.347,487.831 388.319,487.83 395.29,487.828 402.261,487.827 409.233,487.825 
  416.204,487.823 423.175,487.821 430.146,487.818 437.118,487.816 444.089,487.813 451.06,487.811 458.031,487.808 465.003,487.804 471.974,487.801 478.945,487.797 
  485.916,487.793 492.888,487.789 499.859,487.784 506.83,487.778 513.802,487.772 520.773,487.766 527.744,487.758 534.715,487.75 541.687,487.74 548.658,487.73 
  555.629,487.718 562.6,487.705 569.572,487.692 576.543,487.677 583.514,487.66 590.485,487.643 597.457,487.624 604.428,487.604 611.399,487.582 618.371,487.56 
  625.342,487.536 632.313,487.512 639.284,487.486 646.256,487.459 653.227,487.432 660.198,487.404 667.169,487.375 674.141,487.345 681.112,487.314 688.083,487.284 
  695.054,487.252 702.026,487.22 708.997,487.188 715.968,487.156 722.94,487.123 729.911,487.09 736.882,487.057 743.853,487.024 750.825,486.991 757.796,486.958 
  764.767,486.925 771.738,486.891 778.71,486.858 785.681,486.825 792.652,486.792 799.623,486.759 806.595,486.727 813.566,486.694 820.537,486.662 827.509,486.629 
  834.48,486.597 841.451,486.565 848.422,486.534 855.394,486.502 862.365,486.471 869.336,486.44 876.307,486.409 883.279,486.378 890.25,486.348 897.221,486.318 
  904.193,486.288 911.164,486.258 918.135,486.228 925.106,486.199 932.078,486.17 939.049,486.141 946.02,486.112 952.991,486.084 959.963,486.056 966.934,486.028 
  973.905,486 980.876,485.973 987.848,485.946 994.819,485.919 1001.79,485.892 1008.76,485.865 1015.73,485.839 1022.7,485.813 1029.68,485.787 1036.65,485.761 
  1043.62,485.736 1050.59,485.711 1057.56,485.686 1064.53,485.661 1071.5,485.637 1078.47,485.612 1085.45,485.588 1092.42,485.564 1099.39,485.541 1106.36,485.517 
  1113.33,485.494 1120.3,485.471 1127.27,485.448 1134.24,485.426 1141.22,485.403 1148.19,485.381 1155.16,485.359 1162.13,485.338 1169.1,485.316 1176.07,485.295 
  1183.04,485.274 1190.01,485.253 1196.99,485.232 1203.96,485.212 1210.93,485.192 1217.9,485.172 1224.87,485.152 1231.84,485.132 1238.81,485.113 1245.78,485.093 
  1252.76,485.074 
  "/>
<polyline clip-path="url(#clip522)" style="stroke:#008900; stroke-linecap:butt; stroke-linejoin:round; stroke-width:16; stroke-opacity:1; fill:none" stroke-dasharray="8, 16" points="
  207.066,487.84 214.037,487.839 221.008,487.839 227.98,487.839 234.951,487.839 241.922,487.839 248.893,487.839 255.865,487.839 262.836,487.839 269.807,487.839 
  276.778,487.839 283.75,487.838 290.721,487.838 297.692,487.838 304.663,487.838 311.635,487.837 318.606,487.837 325.577,487.836 332.549,487.836 339.52,487.835 
  346.491,487.834 353.462,487.833 360.434,487.832 367.405,487.831 374.376,487.829 381.347,487.827 388.319,487.826 395.29,487.823 402.261,487.821 409.233,487.819 
  416.204,487.816 423.175,487.814 430.146,487.811 437.118,487.808 444.089,487.805 451.06,487.803 458.031,487.8 465.003,487.798 471.974,487.795 478.945,487.793 
  485.916,487.791 492.888,487.789 499.859,487.787 506.83,487.785 513.802,487.783 520.773,487.782 527.744,487.78 534.715,487.779 541.687,487.778 548.658,487.777 
  555.629,487.776 562.6,487.775 569.572,487.774 576.543,487.774 583.514,487.774 590.485,487.773 597.457,487.773 604.428,487.774 611.399,487.774 618.371,487.775 
  625.342,487.775 632.313,487.776 639.284,487.777 646.256,487.778 653.227,487.779 660.198,487.78 667.169,487.782 674.141,487.783 681.112,487.784 688.083,487.786 
  695.054,487.787 702.026,487.788 708.997,487.79 715.968,487.791 722.94,487.792 729.911,487.794 736.882,487.795 743.853,487.796 750.825,487.797 757.796,487.799 
  764.767,487.8 771.738,487.801 778.71,487.802 785.681,487.803 792.652,487.804 799.623,487.805 806.595,487.806 813.566,487.807 820.537,487.807 827.509,487.808 
  834.48,487.809 841.451,487.81 848.422,487.81 855.394,487.811 862.365,487.812 869.336,487.812 876.307,487.813 883.279,487.813 890.25,487.814 897.221,487.814 
  904.193,487.815 911.164,487.815 918.135,487.816 925.106,487.816 932.078,487.817 939.049,487.817 946.02,487.818 952.991,487.818 959.963,487.818 966.934,487.819 
  973.905,487.819 980.876,487.819 987.848,487.82 994.819,487.82 1001.79,487.82 1008.76,487.821 1015.73,487.821 1022.7,487.821 1029.68,487.821 1036.65,487.822 
  1043.62,487.822 1050.59,487.822 1057.56,487.822 1064.53,487.822 1071.5,487.823 1078.47,487.823 1085.45,487.823 1092.42,487.823 1099.39,487.823 1106.36,487.824 
  1113.33,487.824 1120.3,487.824 1127.27,487.824 1134.24,487.824 1141.22,487.824 1148.19,487.825 1155.16,487.825 1162.13,487.825 1169.1,487.825 1176.07,487.825 
  1183.04,487.825 1190.01,487.825 1196.99,487.826 1203.96,487.826 1210.93,487.826 1217.9,487.826 1224.87,487.826 1231.84,487.826 1238.81,487.826 1245.78,487.826 
  1252.76,487.826 
  "/>
<polyline clip-path="url(#clip522)" style="stroke:#2000d4; stroke-linecap:butt; stroke-linejoin:round; stroke-width:16; stroke-opacity:1; fill:none" points="
  207.066,487.412 214.037,487.085 221.008,486.532 227.98,485.874 234.951,485.09 241.922,484.158 248.893,483.049 255.865,481.729 262.836,480.16 269.807,478.297 
  276.778,476.087 283.75,473.469 290.721,470.375 297.692,466.728 304.663,462.441 311.635,457.419 318.606,451.561 325.577,444.763 332.549,436.918 339.52,427.926 
  346.491,417.698 353.462,406.166 360.434,393.29 367.405,379.073 374.376,363.564 381.347,346.871 388.319,329.157 395.29,310.644 402.261,291.6 409.233,272.328 
  416.204,253.143 423.175,234.358 430.146,216.256 437.118,199.082 444.089,183.026 451.06,168.22 458.031,154.738 465.003,142.601 471.974,131.788 478.945,122.241 
  485.916,113.879 492.888,106.604 499.859,100.313 506.83,94.8972 513.802,90.2539 520.773,86.2849 527.744,82.8997 534.715,80.0166 541.687,77.5629 548.658,75.4749 
  555.629,73.697 562.6,72.1815 569.572,70.8875 576.543,69.7803 583.514,68.8307 590.485,68.0139 597.457,67.3094 604.428,66.6996 611.399,66.1703 618.371,65.7091 
  625.342,65.3061 632.313,64.9527 639.284,64.6419 646.256,64.3676 653.227,64.1248 660.198,63.9093 667.169,63.7175 674.141,63.5463 681.112,63.3932 688.083,63.2559 
  695.054,63.1324 702.026,63.0213 708.997,62.921 715.968,62.8304 722.94,62.7484 729.911,62.6741 736.882,62.6067 743.853,62.5454 750.825,62.4897 757.796,62.439 
  764.767,62.3929 771.738,62.351 778.71,62.3127 785.681,62.2779 792.652,62.2463 799.623,62.2175 806.595,62.1914 813.566,62.1677 820.537,62.1462 827.509,62.1268 
  834.48,62.1094 841.451,62.0937 848.422,62.0797 855.394,62.0672 862.365,62.0562 869.336,62.0465 876.307,62.0382 883.279,62.031 890.25,62.0249 897.221,62.0199 
  904.193,62.0159 911.164,62.0128 918.135,62.0107 925.106,62.0093 932.078,62.0089 939.049,62.0091 946.02,62.0102 952.991,62.0119 959.963,62.0143 966.934,62.0174 
  973.905,62.0211 980.876,62.0254 987.848,62.0302 994.819,62.0357 1001.79,62.0417 1008.76,62.0482 1015.73,62.0552 1022.7,62.0627 1029.68,62.0707 1036.65,62.0791 
  1043.62,62.088 1050.59,62.0974 1057.56,62.1071 1064.53,62.1174 1071.5,62.128 1078.47,62.139 1085.45,62.1504 1092.42,62.1623 1099.39,62.1745 1106.36,62.1871 
  1113.33,62.2 1120.3,62.2134 1127.27,62.2271 1134.24,62.2412 1141.22,62.2556 1148.19,62.2704 1155.16,62.2855 1162.13,62.301 1169.1,62.3168 1176.07,62.3329 
  1183.04,62.3494 1190.01,62.3663 1196.99,62.3834 1203.96,62.4009 1210.93,62.4188 1217.9,62.437 1224.87,62.4555 1231.84,62.4743 1238.81,62.4934 1245.78,62.5129 
  1252.76,62.5328 
  "/>
<polyline clip-path="url(#clip522)" style="stroke:#008900; stroke-linecap:butt; stroke-linejoin:round; stroke-width:16; stroke-opacity:1; fill:none" points="
  207.066,487.626 214.037,487.482 221.008,487.41 227.98,487.323 234.951,487.22 241.922,487.096 248.893,486.948 255.865,486.772 262.836,486.562 269.807,486.312 
  276.778,486.016 283.75,485.663 290.721,485.247 297.692,484.755 304.663,484.176 311.635,483.498 318.606,482.706 325.577,481.787 332.549,480.725 339.52,479.507 
  346.491,478.12 353.462,476.555 360.434,474.806 367.405,472.873 374.376,470.761 381.347,468.484 388.319,466.063 395.29,463.526 402.261,460.908 409.233,458.248 
  416.204,455.586 423.175,452.962 430.146,450.412 437.118,447.966 444.089,445.646 451.06,443.466 458.031,441.434 465.003,439.549 471.974,437.805 478.945,436.192 
  485.916,434.696 492.888,433.305 499.859,432.005 506.83,430.786 513.802,429.64 520.773,428.562 527.744,427.552 534.715,426.613 541.687,425.754 548.658,424.984 
  555.629,424.317 562.6,423.767 569.572,423.346 576.543,423.067 583.514,422.941 590.485,422.973 597.457,423.168 604.428,423.524 611.399,424.039 618.371,424.704 
  625.342,425.51 632.313,426.445 639.284,427.494 646.256,428.644 653.227,429.878 660.198,431.181 667.169,432.539 674.141,433.938 681.112,435.364 688.083,436.805 
  695.054,438.252 702.026,439.695 708.997,441.125 715.968,442.537 722.94,443.924 729.911,445.281 736.882,446.606 743.853,447.896 750.825,449.148 757.796,450.361 
  764.767,451.534 771.738,452.668 778.71,453.761 785.681,454.814 792.652,455.829 799.623,456.805 806.595,457.743 813.566,458.645 820.537,459.512 827.509,460.345 
  834.48,461.146 841.451,461.914 848.422,462.653 855.394,463.362 862.365,464.044 869.336,464.699 876.307,465.329 883.279,465.935 890.25,466.517 897.221,467.077 
  904.193,467.616 911.164,468.135 918.135,468.635 925.106,469.117 932.078,469.581 939.049,470.028 946.02,470.459 952.991,470.876 959.963,471.277 966.934,471.665 
  973.905,472.04 980.876,472.402 987.848,472.752 994.819,473.09 1001.79,473.417 1008.76,473.734 1015.73,474.041 1022.7,474.338 1029.68,474.626 1036.65,474.905 
  1043.62,475.175 1050.59,475.437 1057.56,475.692 1064.53,475.939 1071.5,476.178 1078.47,476.411 1085.45,476.637 1092.42,476.857 1099.39,477.071 1106.36,477.278 
  1113.33,477.48 1120.3,477.677 1127.27,477.868 1134.24,478.055 1141.22,478.236 1148.19,478.413 1155.16,478.585 1162.13,478.753 1169.1,478.916 1176.07,479.076 
  1183.04,479.231 1190.01,479.383 1196.99,479.531 1203.96,479.675 1210.93,479.817 1217.9,479.954 1224.87,480.089 1231.84,480.22 1238.81,480.349 1245.78,480.474 
  1252.76,480.597 
  "/>
<polyline clip-path="url(#clip522)" style="stroke:#7f7f7f; stroke-linecap:butt; stroke-linejoin:round; stroke-width:16; stroke-opacity:1; fill:none" points="
  207.066,60.077 214.037,71.0592 221.008,141.896 227.98,179.584 234.951,203.09 241.922,219.079 248.893,230.573 255.865,239.168 262.836,245.795 269.807,251.041 
  276.778,255.297 283.75,258.84 290.721,261.87 297.692,264.542 304.663,266.978 311.635,269.278 318.606,271.53 325.577,273.808 332.549,276.183 339.52,278.719 
  346.491,281.478 353.462,284.517 360.434,287.891 367.405,291.647 374.376,295.829 381.347,300.469 388.319,305.59 395.29,311.199 402.261,317.287 409.233,323.83 
  416.204,330.785 423.175,338.093 430.146,345.682 437.118,353.471 444.089,361.372 451.06,369.298 458.031,377.166 465.003,384.896 471.974,392.423 478.945,399.688 
  485.916,406.646 492.888,413.261 499.859,419.51 506.83,425.376 513.802,430.851 520.773,435.934 527.744,440.629 534.715,444.946 541.687,448.898 548.658,452.5 
  555.629,455.772 562.6,458.734 569.572,461.407 576.543,463.816 583.514,465.981 590.485,467.926 597.457,469.671 604.428,471.236 611.399,472.639 618.371,473.899 
  625.342,475.029 632.313,476.044 639.284,476.957 646.256,477.779 653.227,478.519 660.198,479.187 667.169,479.791 674.141,480.338 681.112,480.833 688.083,481.282 
  695.054,481.691 702.026,482.064 708.997,482.404 715.968,482.714 722.94,482.999 729.911,483.26 736.882,483.499 743.853,483.72 750.825,483.924 757.796,484.112 
  764.767,484.286 771.738,484.447 778.71,484.597 785.681,484.736 792.652,484.866 799.623,484.988 806.595,485.101 813.566,485.207 820.537,485.306 827.509,485.4 
  834.48,485.487 841.451,485.57 848.422,485.648 855.394,485.721 862.365,485.791 869.336,485.857 876.307,485.919 883.279,485.978 890.25,486.034 897.221,486.087 
  904.193,486.138 911.164,486.187 918.135,486.233 925.106,486.277 932.078,486.319 939.049,486.359 946.02,486.397 952.991,486.434 959.963,486.469 966.934,486.503 
  973.905,486.536 980.876,486.567 987.848,486.597 994.819,486.626 1001.79,486.654 1008.76,486.681 1015.73,486.706 1022.7,486.731 1029.68,486.756 1036.65,486.779 
  1043.62,486.801 1050.59,486.823 1057.56,486.844 1064.53,486.865 1071.5,486.884 1078.47,486.903 1085.45,486.922 1092.42,486.94 1099.39,486.957 1106.36,486.974 
  1113.33,486.991 1120.3,487.007 1127.27,487.023 1134.24,487.038 1141.22,487.053 1148.19,487.067 1155.16,487.081 1162.13,487.095 1169.1,487.108 1176.07,487.121 
  1183.04,487.133 1190.01,487.146 1196.99,487.158 1203.96,487.17 1210.93,487.181 1217.9,487.192 1224.87,487.203 1231.84,487.214 1238.81,487.225 1245.78,487.235 
  1252.76,487.245 
  "/>
<polyline clip-path="url(#clip522)" style="stroke:#895f55; stroke-linecap:butt; stroke-linejoin:round; stroke-width:16; stroke-opacity:1; fill:none" points="
  214.037,487.416 221.008,487.094 227.98,486.561 234.951,485.926 241.922,485.17 248.893,484.271 255.865,483.201 262.836,481.928 269.807,480.414 276.778,478.616 
  283.75,476.484 290.721,473.958 297.692,470.973 304.663,467.454 311.635,463.317 318.606,458.472 325.577,452.82 332.549,446.26 339.52,438.691 346.491,430.014 
  353.462,420.145 360.434,409.018 367.405,396.594 374.376,382.875 381.347,367.911 388.319,351.803 395.29,334.71 402.261,316.846 409.233,298.47 416.204,279.873 
  423.175,261.36 430.146,243.232 437.118,225.764 444.089,209.19 451.06,193.695 458.031,179.405 465.003,166.392 471.974,154.677 478.945,144.239 485.916,135.023 
  492.888,126.949 499.859,119.925 506.83,113.85 513.802,108.62 520.773,104.137 527.744,100.307 534.715,97.0425 541.687,94.2661 548.658,91.9086 555.629,89.9093 
  562.6,88.2157 569.572,86.7827 576.543,85.5717 583.514,84.5498 590.485,83.6893 597.457,82.9666 604.428,82.3619 611.399,81.8581 618.371,81.4408 625.342,81.0979 
  632.313,80.8187 639.284,80.5942 646.256,80.4167 653.227,80.2792 660.198,80.176 667.169,80.102 674.141,80.0527 681.112,80.0243 688.083,80.0135 695.054,80.0174 
  702.026,80.0334 708.997,80.0595 715.968,80.0937 722.94,80.1345 729.911,80.1806 736.882,80.2307 743.853,80.284 750.825,80.3396 757.796,80.3968 764.767,80.455 
  771.738,80.5139 778.71,80.5729 785.681,80.6319 792.652,80.6905 799.623,80.7486 806.595,80.8059 813.566,80.8624 820.537,80.918 827.509,80.9726 834.48,81.0262 
  841.451,81.0787 848.422,81.1301 855.394,81.1805 862.365,81.2298 869.336,81.278 876.307,81.3252 883.279,81.3714 890.25,81.4167 897.221,81.461 904.193,81.5044 
  911.164,81.5469 918.135,81.5885 925.106,81.6294 932.078,81.6694 939.049,81.7088 946.02,81.7474 952.991,81.7853 959.963,81.8227 966.934,81.8594 973.905,81.8955 
  980.876,81.9311 987.848,81.9661 994.819,82.0007 1001.79,82.0348 1008.76,82.0685 1015.73,82.1018 1022.7,82.1347 1029.68,82.1672 1036.65,82.1994 1043.62,82.2312 
  1050.59,82.2628 1057.56,82.2941 1064.53,82.3251 1071.5,82.3559 1078.47,82.3864 1085.45,82.4168 1092.42,82.447 1099.39,82.4769 1106.36,82.5068 1113.33,82.5365 
  1120.3,82.566 1127.27,82.5955 1134.24,82.6248 1141.22,82.654 1148.19,82.6832 1155.16,82.7123 1162.13,82.7413 1169.1,82.7703 1176.07,82.7993 1183.04,82.8282 
  1190.01,82.8571 1196.99,82.8861 1203.96,82.915 1210.93,82.9439 1217.9,82.9729 1224.87,83.0019 1231.84,83.0309 1238.81,83.06 1245.78,83.0891 1252.76,83.1183 
  
  "/>
<polyline clip-path="url(#clip522)" style="stroke:#2000d4; stroke-linecap:butt; stroke-linejoin:round; stroke-width:16; stroke-opacity:1; fill:none" stroke-dasharray="64, 40" points="
  207.066,487.84 214.037,487.84 221.008,487.84 227.98,487.84 234.951,487.84 241.922,487.84 248.893,487.84 255.865,487.84 262.836,487.839 269.807,487.839 
  276.778,487.839 283.75,487.839 290.721,487.839 297.692,487.839 304.663,487.839 311.635,487.839 318.606,487.839 325.577,487.839 332.549,487.839 339.52,487.839 
  346.491,487.839 353.462,487.839 360.434,487.839 367.405,487.839 374.376,487.838 381.347,487.838 388.319,487.838 395.29,487.838 402.261,487.838 409.233,487.838 
  416.204,487.837 423.175,487.837 430.146,487.837 437.118,487.837 444.089,487.837 451.06,487.837 458.031,487.836 465.003,487.836 471.974,487.836 478.945,487.836 
  485.916,487.836 492.888,487.836 499.859,487.836 506.83,487.836 513.802,487.836 520.773,487.836 527.744,487.836 534.715,487.835 541.687,487.835 548.658,487.835 
  555.629,487.835 562.6,487.835 569.572,487.835 576.543,487.835 583.514,487.835 590.485,487.835 597.457,487.835 604.428,487.835 611.399,487.834 618.371,487.834 
  625.342,487.834 632.313,487.834 639.284,487.834 646.256,487.834 653.227,487.834 660.198,487.833 667.169,487.833 674.141,487.833 681.112,487.833 688.083,487.833 
  695.054,487.832 702.026,487.832 708.997,487.832 715.968,487.832 722.94,487.832 729.911,487.831 736.882,487.831 743.853,487.831 750.825,487.831 757.796,487.83 
  764.767,487.83 771.738,487.83 778.71,487.829 785.681,487.829 792.652,487.829 799.623,487.828 806.595,487.828 813.566,487.828 820.537,487.827 827.509,487.827 
  834.48,487.827 841.451,487.826 848.422,487.826 855.394,487.826 862.365,487.825 869.336,487.825 876.307,487.825 883.279,487.824 890.25,487.824 897.221,487.823 
  904.193,487.823 911.164,487.823 918.135,487.822 925.106,487.822 932.078,487.821 939.049,487.821 946.02,487.82 952.991,487.82 959.963,487.819 966.934,487.819 
  973.905,487.819 980.876,487.818 987.848,487.818 994.819,487.817 1001.79,487.817 1008.76,487.816 1015.73,487.816 1022.7,487.815 1029.68,487.815 1036.65,487.814 
  1043.62,487.813 1050.59,487.813 1057.56,487.812 1064.53,487.812 1071.5,487.811 1078.47,487.811 1085.45,487.81 1092.42,487.809 1099.39,487.809 1106.36,487.808 
  1113.33,487.808 1120.3,487.807 1127.27,487.806 1134.24,487.806 1141.22,487.805 1148.19,487.804 1155.16,487.804 1162.13,487.803 1169.1,487.802 1176.07,487.802 
  1183.04,487.801 1190.01,487.8 1196.99,487.8 1203.96,487.799 1210.93,487.798 1217.9,487.797 1224.87,487.797 1231.84,487.796 1238.81,487.795 1245.78,487.794 
  1252.76,487.794 
  "/>
<polyline clip-path="url(#clip522)" style="stroke:#ff221c; stroke-linecap:butt; stroke-linejoin:round; stroke-width:16; stroke-opacity:1; fill:none" points="
  207.066,231.31 214.037,231.291 221.008,231.275 227.98,231.273 234.951,231.281 241.922,231.295 248.893,231.313 255.865,231.336 262.836,231.365 269.807,231.399 
  276.778,231.44 283.75,231.489 290.721,231.547 297.692,231.616 304.663,231.698 311.635,231.795 318.606,231.91 325.577,232.045 332.549,232.203 339.52,232.387 
  346.491,232.602 353.462,232.849 360.434,233.133 367.405,233.455 374.376,233.818 381.347,234.223 388.319,234.669 395.29,235.152 402.261,235.668 409.233,236.209 
  416.204,236.765 423.175,237.321 430.146,237.863 437.118,238.374 444.089,238.835 451.06,239.227 458.031,239.532 465.003,239.733 471.974,239.812 478.945,239.756 
  485.916,239.549 492.888,239.179 499.859,238.634 506.83,237.903 513.802,236.977 520.773,235.846 527.744,234.505 534.715,232.947 541.687,231.169 548.658,229.171 
  555.629,226.952 562.6,224.52 569.572,221.88 576.543,219.044 583.514,216.026 590.485,212.843 597.457,209.512 604.428,206.056 611.399,202.495 618.371,198.852 
  625.342,195.151 632.313,191.413 639.284,187.661 646.256,183.916 653.227,180.194 660.198,176.515 667.169,172.892 674.141,169.34 681.112,165.868 688.083,162.486 
  695.054,159.201 702.026,156.018 708.997,152.941 715.968,149.974 722.94,147.115 729.911,144.367 736.882,141.728 743.853,139.196 750.825,136.77 757.796,134.446 
  764.767,132.221 771.738,130.093 778.71,128.058 785.681,126.112 792.652,124.252 799.623,122.474 806.595,120.773 813.566,119.148 820.537,117.593 827.509,116.106 
  834.48,114.683 841.451,113.322 848.422,112.018 855.394,110.77 862.365,109.574 869.336,108.427 876.307,107.328 883.279,106.274 890.25,105.262 897.221,104.29 
  904.193,103.357 911.164,102.46 918.135,101.598 925.106,100.768 932.078,99.9698 939.049,99.2012 946.02,98.4608 952.991,97.7473 959.963,97.0594 966.934,96.3958 
  973.905,95.7554 980.876,95.1372 987.848,94.54 994.819,93.963 1001.79,93.4052 1008.76,92.8657 1015.73,92.3438 1022.7,91.8386 1029.68,91.3494 1036.65,90.8755 
  1043.62,90.4163 1050.59,89.9711 1057.56,89.5393 1064.53,89.1204 1071.5,88.7139 1078.47,88.3192 1085.45,87.9359 1092.42,87.5635 1099.39,87.2016 1106.36,86.8497 
  1113.33,86.5075 1120.3,86.1746 1127.27,85.8507 1134.24,85.5353 1141.22,85.2282 1148.19,84.9291 1155.16,84.6377 1162.13,84.3537 1169.1,84.0769 1176.07,83.8069 
  1183.04,83.5435 1190.01,83.2866 1196.99,83.0359 1203.96,82.7911 1210.93,82.5521 1217.9,82.3187 1224.87,82.0906 1231.84,81.8678 1238.81,81.65 1245.78,81.4371 
  1252.76,81.2289 
  "/>
<polyline clip-path="url(#clip522)" style="stroke:#000000; stroke-linecap:butt; stroke-linejoin:round; stroke-width:16; stroke-opacity:1; fill:none" stroke-dasharray="8, 16" points="
  207.066,60.077 214.037,60.5005 221.008,60.8932 227.98,61.4917 234.951,62.2259 241.922,63.1035 248.893,64.1485 255.865,65.3922 262.836,66.8716 269.807,68.6301 
  276.778,70.7186 283.75,73.1958 290.721,76.1293 297.692,79.5961 304.663,83.6832 311.635,88.487 318.606,94.1133 325.577,100.675 332.549,108.29 339.52,117.075 
  346.491,127.144 353.462,138.594 360.434,151.502 367.405,165.908 374.376,181.809 381.347,199.145 388.319,217.795 395.29,237.568 402.261,258.212 409.233,279.419 
  416.204,300.843 423.175,322.119 430.146,342.885 437.118,362.809 444.089,381.599 451.06,399.021 458.031,414.902 465.003,429.128 471.974,441.64 478.945,452.425 
  485.916,461.51 492.888,468.955 499.859,474.853 506.83,479.336 513.802,482.573 520.773,484.773 527.744,486.169 534.715,486.99 541.687,487.436 548.658,487.66 
  555.629,487.765 562.6,487.81 569.572,487.828 576.543,487.836 583.514,487.838 590.485,487.839 597.457,487.839 604.428,487.839 611.399,487.84 618.371,487.84 
  625.342,487.84 632.313,487.84 639.284,487.84 646.256,487.84 653.227,487.84 660.198,487.84 667.169,487.84 674.141,487.84 681.112,487.84 688.083,487.84 
  695.054,487.84 702.026,487.84 708.997,487.84 715.968,487.84 722.94,487.84 729.911,487.84 736.882,487.84 743.853,487.84 750.825,487.84 757.796,487.84 
  764.767,487.84 771.738,487.84 778.71,487.84 785.681,487.84 792.652,487.84 799.623,487.84 806.595,487.84 813.566,487.84 820.537,487.84 827.509,487.84 
  834.48,487.84 841.451,487.84 848.422,487.84 855.394,487.84 862.365,487.84 869.336,487.84 876.307,487.84 883.279,487.84 890.25,487.84 897.221,487.84 
  904.193,487.84 911.164,487.84 918.135,487.84 925.106,487.84 932.078,487.84 939.049,487.84 946.02,487.84 952.991,487.84 959.963,487.84 966.934,487.84 
  973.905,487.84 980.876,487.84 987.848,487.84 994.819,487.84 1001.79,487.84 1008.76,487.84 1015.73,487.84 1022.7,487.84 1029.68,487.84 1036.65,487.84 
  1043.62,487.84 1050.59,487.84 1057.56,487.84 1064.53,487.84 1071.5,487.84 1078.47,487.84 1085.45,487.84 1092.42,487.84 1099.39,487.84 1106.36,487.84 
  1113.33,487.84 1120.3,487.84 1127.27,487.84 1134.24,487.84 1141.22,487.84 1148.19,487.84 1155.16,487.84 1162.13,487.84 1169.1,487.84 1176.07,487.84 
  1183.04,487.84 1190.01,487.84 1196.99,487.84 1203.96,487.84 1210.93,487.84 1217.9,487.84 1224.87,487.84 1231.84,487.84 1238.81,487.84 1245.78,487.84 
  1252.76,487.84 
  "/>
</svg>
