<?xml version="1.0" encoding="utf-8"?>
<svg xmlns="http://www.w3.org/2000/svg" xmlns:xlink="http://www.w3.org/1999/xlink" width="325" height="150" viewBox="0 0 1300 600">
<defs>
  <clipPath id="clip600">
    <rect x="0" y="0" width="1300" height="600"/>
  </clipPath>
</defs>
<path clip-path="url(#clip600)" d="
M0 600 L1300 600 L1300 0 L0 0  Z
  " fill="#ffffff" fill-rule="evenodd" fill-opacity="1"/>
<defs>
  <clipPath id="clip601">
    <rect x="260" y="0" width="911" height="600"/>
  </clipPath>
</defs>
<path clip-path="url(#clip600)" d="
M200.094 501.1 L1252.76 501.1 L1252.76 47.2441 L200.094 47.2441  Z
  " fill="#ffffff" fill-rule="evenodd" fill-opacity="1"/>
<defs>
  <clipPath id="clip602">
    <rect x="200" y="47" width="1054" height="455"/>
  </clipPath>
</defs>
<polyline clip-path="url(#clip600)" style="stroke:#000000; stroke-linecap:butt; stroke-linejoin:round; stroke-width:4; stroke-opacity:1; fill:none" points="
  200.094,501.1 1252.76,501.1 
  "/>
<polyline clip-path="url(#clip600)" style="stroke:#000000; stroke-linecap:butt; stroke-linejoin:round; stroke-width:4; stroke-opacity:1; fill:none" points="
  200.094,501.1 200.094,482.203 
  "/>
<polyline clip-path="url(#clip600)" style="stroke:#000000; stroke-linecap:butt; stroke-linejoin:round; stroke-width:4; stroke-opacity:1; fill:none" points="
  548.658,501.1 548.658,482.203 
  "/>
<polyline clip-path="url(#clip600)" style="stroke:#000000; stroke-linecap:butt; stroke-linejoin:round; stroke-width:4; stroke-opacity:1; fill:none" points="
  897.221,501.1 897.221,482.203 
  "/>
<polyline clip-path="url(#clip600)" style="stroke:#000000; stroke-linecap:butt; stroke-linejoin:round; stroke-width:4; stroke-opacity:1; fill:none" points="
  1245.78,501.1 1245.78,482.203 
  "/>
<path clip-path="url(#clip600)" d="M200.094 526.149 Q195.581 526.149 193.295 530.605 Q191.038 535.032 191.038 543.944 Q191.038 552.827 193.295 557.283 Q195.581 561.71 200.094 561.71 Q204.637 561.71 206.894 557.283 Q209.18 552.827 209.18 543.944 Q209.18 535.032 206.894 530.605 Q204.637 526.149 200.094 526.149 M200.094 521.519 Q207.357 521.519 211.177 527.277 Q215.025 533.006 215.025 543.944 Q215.025 554.852 211.177 560.61 Q207.357 566.339 200.094 566.339 Q192.832 566.339 188.983 560.61 Q185.164 554.852 185.164 543.944 Q185.164 533.006 188.983 527.277 Q192.832 521.519 200.094 521.519 Z" fill="#000000" fill-rule="evenodd" fill-opacity="1" /><path clip-path="url(#clip600)" d="M517.032 522.3 L539.977 522.3 L539.977 527.219 L522.385 527.219 L522.385 537.809 Q523.658 537.375 524.931 537.173 Q526.204 536.941 527.477 536.941 Q534.711 536.941 538.936 540.905 Q543.16 544.87 543.16 551.64 Q543.16 558.614 538.82 562.491 Q534.48 566.339 526.58 566.339 Q523.861 566.339 521.025 565.876 Q518.218 565.413 515.209 564.487 L515.209 558.614 Q517.813 560.031 520.591 560.726 Q523.369 561.42 526.465 561.42 Q531.47 561.42 534.393 558.787 Q537.315 556.154 537.315 551.64 Q537.315 547.126 534.393 544.493 Q531.47 541.86 526.465 541.86 Q524.121 541.86 521.777 542.381 Q519.462 542.902 517.032 544.001 L517.032 522.3 Z" fill="#000000" fill-rule="evenodd" fill-opacity="1" /><path clip-path="url(#clip600)" d="M567.176 526.149 Q562.662 526.149 560.377 530.605 Q558.12 535.032 558.12 543.944 Q558.12 552.827 560.377 557.283 Q562.662 561.71 567.176 561.71 Q571.719 561.71 573.976 557.283 Q576.262 552.827 576.262 543.944 Q576.262 535.032 573.976 530.605 Q571.719 526.149 567.176 526.149 M567.176 521.519 Q574.439 521.519 578.258 527.277 Q582.107 533.006 582.107 543.944 Q582.107 554.852 578.258 560.61 Q574.439 566.339 567.176 566.339 Q559.914 566.339 556.065 560.61 Q552.246 554.852 552.246 543.944 Q552.246 533.006 556.065 527.277 Q559.914 521.519 567.176 521.519 Z" fill="#000000" fill-rule="evenodd" fill-opacity="1" /><path clip-path="url(#clip600)" d="M846.73 560.581 L856.278 560.581 L856.278 527.624 L845.891 529.708 L845.891 524.384 L856.22 522.3 L862.065 522.3 L862.065 560.581 L871.614 560.581 L871.614 565.5 L846.73 565.5 L846.73 560.581 Z" fill="#000000" fill-rule="evenodd" fill-opacity="1" /><path clip-path="url(#clip600)" d="M895.919 526.149 Q891.405 526.149 889.119 530.605 Q886.863 535.032 886.863 543.944 Q886.863 552.827 889.119 557.283 Q891.405 561.71 895.919 561.71 Q900.462 561.71 902.719 557.283 Q905.005 552.827 905.005 543.944 Q905.005 535.032 902.719 530.605 Q900.462 526.149 895.919 526.149 M895.919 521.519 Q903.182 521.519 907.001 527.277 Q910.85 533.006 910.85 543.944 Q910.85 554.852 907.001 560.61 Q903.182 566.339 895.919 566.339 Q888.656 566.339 884.808 560.61 Q880.989 554.852 880.989 543.944 Q880.989 533.006 884.808 527.277 Q888.656 521.519 895.919 521.519 Z" fill="#000000" fill-rule="evenodd" fill-opacity="1" /><path clip-path="url(#clip600)" d="M933.622 526.149 Q929.108 526.149 926.822 530.605 Q924.565 535.032 924.565 543.944 Q924.565 552.827 926.822 557.283 Q929.108 561.71 933.622 561.71 Q938.164 561.71 940.421 557.283 Q942.707 552.827 942.707 543.944 Q942.707 535.032 940.421 530.605 Q938.164 526.149 933.622 526.149 M933.622 521.519 Q940.884 521.519 944.704 527.277 Q948.552 533.006 948.552 543.944 Q948.552 554.852 944.704 560.61 Q940.884 566.339 933.622 566.339 Q926.359 566.339 922.51 560.61 Q918.691 554.852 918.691 543.944 Q918.691 533.006 922.51 527.277 Q926.359 521.519 933.622 521.519 Z" fill="#000000" fill-rule="evenodd" fill-opacity="1" /><path clip-path="url(#clip600)" d="M1195.29 560.581 L1204.84 560.581 L1204.84 527.624 L1194.45 529.708 L1194.45 524.384 L1204.78 522.3 L1210.63 522.3 L1210.63 560.581 L1220.18 560.581 L1220.18 565.5 L1195.29 565.5 L1195.29 560.581 Z" fill="#000000" fill-rule="evenodd" fill-opacity="1" /><path clip-path="url(#clip600)" d="M1232.04 522.3 L1254.99 522.3 L1254.99 527.219 L1237.39 527.219 L1237.39 537.809 Q1238.67 537.375 1239.94 537.173 Q1241.21 536.941 1242.49 536.941 Q1249.72 536.941 1253.94 540.905 Q1258.17 544.87 1258.17 551.64 Q1258.17 558.614 1253.83 562.491 Q1249.49 566.339 1241.59 566.339 Q1238.87 566.339 1236.03 565.876 Q1233.23 565.413 1230.22 564.487 L1230.22 558.614 Q1232.82 560.031 1235.6 560.726 Q1238.38 561.42 1241.47 561.42 Q1246.48 561.42 1249.4 558.787 Q1252.32 556.154 1252.32 551.64 Q1252.32 547.126 1249.4 544.493 Q1246.48 541.86 1241.47 541.86 Q1239.13 541.86 1236.79 542.381 Q1234.47 542.902 1232.04 544.001 L1232.04 522.3 Z" fill="#000000" fill-rule="evenodd" fill-opacity="1" /><path clip-path="url(#clip600)" d="M1282.18 526.149 Q1277.67 526.149 1275.39 530.605 Q1273.13 535.032 1273.13 543.944 Q1273.13 552.827 1275.39 557.283 Q1277.67 561.71 1282.18 561.71 Q1286.73 561.71 1288.98 557.283 Q1291.27 552.827 1291.27 543.944 Q1291.27 535.032 1288.98 530.605 Q1286.73 526.149 1282.18 526.149 M1282.18 521.519 Q1289.45 521.519 1293.27 527.277 Q1297.12 533.006 1297.12 543.944 Q1297.12 554.852 1293.27 560.61 Q1289.45 566.339 1282.18 566.339 Q1274.92 566.339 1271.07 560.61 Q1267.25 554.852 1267.25 543.944 Q1267.25 533.006 1271.07 527.277 Q1274.92 521.519 1282.18 521.519 Z" fill="#000000" fill-rule="evenodd" fill-opacity="1" /><polyline clip-path="url(#clip600)" style="stroke:#000000; stroke-linecap:butt; stroke-linejoin:round; stroke-width:4; stroke-opacity:1; fill:none" points="
  200.094,501.1 200.094,47.2441 
  "/>
<polyline clip-path="url(#clip600)" style="stroke:#000000; stroke-linecap:butt; stroke-linejoin:round; stroke-width:4; stroke-opacity:1; fill:none" points="
  200.094,487.84 218.992,487.84 
  "/>
<polyline clip-path="url(#clip600)" style="stroke:#000000; stroke-linecap:butt; stroke-linejoin:round; stroke-width:4; stroke-opacity:1; fill:none" points="
  200.094,380.899 218.992,380.899 
  "/>
<polyline clip-path="url(#clip600)" style="stroke:#000000; stroke-linecap:butt; stroke-linejoin:round; stroke-width:4; stroke-opacity:1; fill:none" points="
  200.094,273.958 218.992,273.958 
  "/>
<polyline clip-path="url(#clip600)" style="stroke:#000000; stroke-linecap:butt; stroke-linejoin:round; stroke-width:4; stroke-opacity:1; fill:none" points="
  200.094,167.018 218.992,167.018 
  "/>
<polyline clip-path="url(#clip600)" style="stroke:#000000; stroke-linecap:butt; stroke-linejoin:round; stroke-width:4; stroke-opacity:1; fill:none" points="
  200.094,60.077 218.992,60.077 
  "/>
<path clip-path="url(#clip600)" d="M71.4226 470.088 Q66.9087 470.088 64.6229 474.544 Q62.3659 478.971 62.3659 487.883 Q62.3659 496.766 64.6229 501.222 Q66.9087 505.649 71.4226 505.649 Q75.9654 505.649 78.2223 501.222 Q80.5082 496.766 80.5082 487.883 Q80.5082 478.971 78.2223 474.544 Q75.9654 470.088 71.4226 470.088 M71.4226 465.458 Q78.6853 465.458 82.5047 471.216 Q86.3531 476.946 86.3531 487.883 Q86.3531 498.791 82.5047 504.55 Q78.6853 510.279 71.4226 510.279 Q64.1599 510.279 60.3115 504.55 Q56.4921 498.791 56.4921 487.883 Q56.4921 476.946 60.3115 471.216 Q64.1599 465.458 71.4226 465.458 Z" fill="#000000" fill-rule="evenodd" fill-opacity="1" /><path clip-path="url(#clip600)" d="M96.625 502.09 L102.73 502.09 L102.73 509.44 L96.625 509.44 L96.625 502.09 Z" fill="#000000" fill-rule="evenodd" fill-opacity="1" /><path clip-path="url(#clip600)" d="M127.962 470.088 Q123.448 470.088 121.162 474.544 Q118.905 478.971 118.905 487.883 Q118.905 496.766 121.162 501.222 Q123.448 505.649 127.962 505.649 Q132.504 505.649 134.761 501.222 Q137.047 496.766 137.047 487.883 Q137.047 478.971 134.761 474.544 Q132.504 470.088 127.962 470.088 M127.962 465.458 Q135.224 465.458 139.044 471.216 Q142.892 476.946 142.892 487.883 Q142.892 498.791 139.044 504.55 Q135.224 510.279 127.962 510.279 Q120.699 510.279 116.851 504.55 Q113.031 498.791 113.031 487.883 Q113.031 476.946 116.851 471.216 Q120.699 465.458 127.962 465.458 Z" fill="#000000" fill-rule="evenodd" fill-opacity="1" /><path clip-path="url(#clip600)" d="M165.664 470.088 Q161.15 470.088 158.864 474.544 Q156.607 478.971 156.607 487.883 Q156.607 496.766 158.864 501.222 Q161.15 505.649 165.664 505.649 Q170.207 505.649 172.464 501.222 Q174.75 496.766 174.75 487.883 Q174.75 478.971 172.464 474.544 Q170.207 470.088 165.664 470.088 M165.664 465.458 Q172.927 465.458 176.746 471.216 Q180.594 476.946 180.594 487.883 Q180.594 498.791 176.746 504.55 Q172.927 510.279 165.664 510.279 Q158.401 510.279 154.553 504.55 Q150.734 498.791 150.734 487.883 Q150.734 476.946 154.553 471.216 Q158.401 465.458 165.664 465.458 Z" fill="#000000" fill-rule="evenodd" fill-opacity="1" /><path clip-path="url(#clip600)" d="M72.6668 363.147 Q68.1529 363.147 65.8671 367.603 Q63.6101 372.03 63.6101 380.942 Q63.6101 389.825 65.8671 394.281 Q68.1529 398.708 72.6668 398.708 Q77.2096 398.708 79.4665 394.281 Q81.7524 389.825 81.7524 380.942 Q81.7524 372.03 79.4665 367.603 Q77.2096 363.147 72.6668 363.147 M72.6668 358.518 Q79.9295 358.518 83.7489 364.276 Q87.5973 370.005 87.5973 380.942 Q87.5973 391.851 83.7489 397.609 Q79.9295 403.338 72.6668 403.338 Q65.4041 403.338 61.5558 397.609 Q57.7363 391.851 57.7363 380.942 Q57.7363 370.005 61.5558 364.276 Q65.4041 358.518 72.6668 358.518 Z" fill="#000000" fill-rule="evenodd" fill-opacity="1" /><path clip-path="url(#clip600)" d="M97.8692 395.149 L103.975 395.149 L103.975 402.499 L97.8692 402.499 L97.8692 395.149 Z" fill="#000000" fill-rule="evenodd" fill-opacity="1" /><path clip-path="url(#clip600)" d="M121.741 397.58 L142.14 397.58 L142.14 402.499 L114.709 402.499 L114.709 397.58 Q118.037 394.137 123.766 388.35 Q129.524 382.534 131 380.855 Q133.807 377.702 134.906 375.531 Q136.035 373.332 136.035 371.22 Q136.035 367.777 133.604 365.607 Q131.202 363.437 127.325 363.437 Q124.576 363.437 121.509 364.391 Q118.471 365.346 114.999 367.285 L114.999 361.382 Q118.529 359.964 121.596 359.241 Q124.663 358.518 127.209 358.518 Q133.922 358.518 137.915 361.874 Q141.908 365.231 141.908 370.844 Q141.908 373.506 140.896 375.908 Q139.912 378.28 137.279 381.521 Q136.555 382.36 132.678 386.382 Q128.801 390.375 121.741 397.58 Z" fill="#000000" fill-rule="evenodd" fill-opacity="1" /><path clip-path="url(#clip600)" d="M154.466 359.299 L177.412 359.299 L177.412 364.218 L159.819 364.218 L159.819 374.808 Q161.092 374.374 162.365 374.172 Q163.639 373.94 164.912 373.94 Q172.145 373.94 176.37 377.904 Q180.594 381.868 180.594 388.639 Q180.594 395.612 176.254 399.49 Q171.914 403.338 164.015 403.338 Q161.295 403.338 158.459 402.875 Q155.652 402.412 152.643 401.486 L152.643 395.612 Q155.247 397.03 158.025 397.725 Q160.803 398.419 163.899 398.419 Q168.905 398.419 171.827 395.786 Q174.75 393.153 174.75 388.639 Q174.75 384.125 171.827 381.492 Q168.905 378.859 163.899 378.859 Q161.555 378.859 159.211 379.38 Q156.897 379.901 154.466 381 L154.466 359.299 Z" fill="#000000" fill-rule="evenodd" fill-opacity="1" /><path clip-path="url(#clip600)" d="M71.4226 256.207 Q66.9087 256.207 64.6229 260.663 Q62.3659 265.09 62.3659 274.002 Q62.3659 282.885 64.6229 287.341 Q66.9087 291.768 71.4226 291.768 Q75.9654 291.768 78.2223 287.341 Q80.5082 282.885 80.5082 274.002 Q80.5082 265.09 78.2223 260.663 Q75.9654 256.207 71.4226 256.207 M71.4226 251.577 Q78.6853 251.577 82.5047 257.335 Q86.3531 263.064 86.3531 274.002 Q86.3531 284.91 82.5047 290.668 Q78.6853 296.397 71.4226 296.397 Q64.1599 296.397 60.3115 290.668 Q56.4921 284.91 56.4921 274.002 Q56.4921 263.064 60.3115 257.335 Q64.1599 251.577 71.4226 251.577 Z" fill="#000000" fill-rule="evenodd" fill-opacity="1" /><path clip-path="url(#clip600)" d="M96.625 288.209 L102.73 288.209 L102.73 295.558 L96.625 295.558 L96.625 288.209 Z" fill="#000000" fill-rule="evenodd" fill-opacity="1" /><path clip-path="url(#clip600)" d="M115.52 252.358 L138.465 252.358 L138.465 257.277 L120.873 257.277 L120.873 267.867 Q122.146 267.433 123.419 267.231 Q124.692 266.999 125.965 266.999 Q133.199 266.999 137.423 270.963 Q141.648 274.928 141.648 281.698 Q141.648 288.672 137.308 292.549 Q132.967 296.397 125.068 296.397 Q122.348 296.397 119.513 295.934 Q116.706 295.471 113.697 294.546 L113.697 288.672 Q116.301 290.09 119.079 290.784 Q121.856 291.478 124.952 291.478 Q129.958 291.478 132.881 288.845 Q135.803 286.212 135.803 281.698 Q135.803 277.185 132.881 274.551 Q129.958 271.918 124.952 271.918 Q122.609 271.918 120.265 272.439 Q117.95 272.96 115.52 274.06 L115.52 252.358 Z" fill="#000000" fill-rule="evenodd" fill-opacity="1" /><path clip-path="url(#clip600)" d="M165.664 256.207 Q161.15 256.207 158.864 260.663 Q156.607 265.09 156.607 274.002 Q156.607 282.885 158.864 287.341 Q161.15 291.768 165.664 291.768 Q170.207 291.768 172.464 287.341 Q174.75 282.885 174.75 274.002 Q174.75 265.09 172.464 260.663 Q170.207 256.207 165.664 256.207 M165.664 251.577 Q172.927 251.577 176.746 257.335 Q180.594 263.064 180.594 274.002 Q180.594 284.91 176.746 290.668 Q172.927 296.397 165.664 296.397 Q158.401 296.397 154.553 290.668 Q150.734 284.91 150.734 274.002 Q150.734 263.064 154.553 257.335 Q158.401 251.577 165.664 251.577 Z" fill="#000000" fill-rule="evenodd" fill-opacity="1" /><path clip-path="url(#clip600)" d="M72.6668 149.266 Q68.1529 149.266 65.8671 153.722 Q63.6101 158.149 63.6101 167.061 Q63.6101 175.944 65.8671 180.4 Q68.1529 184.827 72.6668 184.827 Q77.2096 184.827 79.4665 180.4 Q81.7524 175.944 81.7524 167.061 Q81.7524 158.149 79.4665 153.722 Q77.2096 149.266 72.6668 149.266 M72.6668 144.636 Q79.9295 144.636 83.7489 150.394 Q87.5973 156.124 87.5973 167.061 Q87.5973 177.97 83.7489 183.728 Q79.9295 189.457 72.6668 189.457 Q65.4041 189.457 61.5558 183.728 Q57.7363 177.97 57.7363 167.061 Q57.7363 156.124 61.5558 150.394 Q65.4041 144.636 72.6668 144.636 Z" fill="#000000" fill-rule="evenodd" fill-opacity="1" /><path clip-path="url(#clip600)" d="M97.8692 181.268 L103.975 181.268 L103.975 188.618 L97.8692 188.618 L97.8692 181.268 Z" fill="#000000" fill-rule="evenodd" fill-opacity="1" /><path clip-path="url(#clip600)" d="M115.23 145.418 L143.008 145.418 L143.008 147.906 L127.325 188.618 L121.22 188.618 L135.977 150.337 L115.23 150.337 L115.23 145.418 Z" fill="#000000" fill-rule="evenodd" fill-opacity="1" /><path clip-path="url(#clip600)" d="M154.466 145.418 L177.412 145.418 L177.412 150.337 L159.819 150.337 L159.819 160.927 Q161.092 160.493 162.365 160.29 Q163.639 160.059 164.912 160.059 Q172.145 160.059 176.37 164.023 Q180.594 167.987 180.594 174.758 Q180.594 181.731 176.254 185.608 Q171.914 189.457 164.015 189.457 Q161.295 189.457 158.459 188.994 Q155.652 188.531 152.643 187.605 L152.643 181.731 Q155.247 183.149 158.025 183.843 Q160.803 184.538 163.899 184.538 Q168.905 184.538 171.827 181.905 Q174.75 179.272 174.75 174.758 Q174.75 170.244 171.827 167.611 Q168.905 164.978 163.899 164.978 Q161.555 164.978 159.211 165.499 Q156.897 166.019 154.466 167.119 L154.466 145.418 Z" fill="#000000" fill-rule="evenodd" fill-opacity="1" /><path clip-path="url(#clip600)" d="M59.9354 76.758 L69.484 76.758 L69.484 43.801 L59.0963 45.8843 L59.0963 40.5603 L69.4261 38.477 L75.271 38.477 L75.271 76.758 L84.8195 76.758 L84.8195 81.677 L59.9354 81.677 L59.9354 76.758 Z" fill="#000000" fill-rule="evenodd" fill-opacity="1" /><path clip-path="url(#clip600)" d="M96.625 74.3275 L102.73 74.3275 L102.73 81.677 L96.625 81.677 L96.625 74.3275 Z" fill="#000000" fill-rule="evenodd" fill-opacity="1" /><path clip-path="url(#clip600)" d="M127.962 42.3253 Q123.448 42.3253 121.162 46.7813 Q118.905 51.2084 118.905 60.1204 Q118.905 69.0034 121.162 73.4594 Q123.448 77.8865 127.962 77.8865 Q132.504 77.8865 134.761 73.4594 Q137.047 69.0034 137.047 60.1204 Q137.047 51.2084 134.761 46.7813 Q132.504 42.3253 127.962 42.3253 M127.962 37.6957 Q135.224 37.6957 139.044 43.4538 Q142.892 49.1829 142.892 60.1204 Q142.892 71.0289 139.044 76.787 Q135.224 82.5161 127.962 82.5161 Q120.699 82.5161 116.851 76.787 Q113.031 71.0289 113.031 60.1204 Q113.031 49.1829 116.851 43.4538 Q120.699 37.6957 127.962 37.6957 Z" fill="#000000" fill-rule="evenodd" fill-opacity="1" /><path clip-path="url(#clip600)" d="M165.664 42.3253 Q161.15 42.3253 158.864 46.7813 Q156.607 51.2084 156.607 60.1204 Q156.607 69.0034 158.864 73.4594 Q161.15 77.8865 165.664 77.8865 Q170.207 77.8865 172.464 73.4594 Q174.75 69.0034 174.75 60.1204 Q174.75 51.2084 172.464 46.7813 Q170.207 42.3253 165.664 42.3253 M165.664 37.6957 Q172.927 37.6957 176.746 43.4538 Q180.594 49.1829 180.594 60.1204 Q180.594 71.0289 176.746 76.787 Q172.927 82.5161 165.664 82.5161 Q158.401 82.5161 154.553 76.787 Q150.734 71.0289 150.734 60.1204 Q150.734 49.1829 154.553 43.4538 Q158.401 37.6957 165.664 37.6957 Z" fill="#000000" fill-rule="evenodd" fill-opacity="1" /><polyline clip-path="url(#clip602)" style="stroke:#ff00ff; stroke-linecap:butt; stroke-linejoin:round; stroke-width:16; stroke-opacity:1; fill:none" points="
  207.066,274.065 214.037,274.147 221.008,274.244 227.98,274.341 234.951,274.439 241.922,274.537 248.893,274.635 255.865,274.735 262.836,274.835 269.807,274.935 
  276.778,275.036 283.75,275.138 290.721,275.24 297.692,275.343 304.663,275.447 311.635,275.552 318.606,275.657 325.577,275.763 332.549,275.87 339.52,275.977 
  346.491,276.086 353.462,276.195 360.434,276.305 367.405,276.416 374.376,276.528 381.347,276.64 388.319,276.754 395.29,276.869 402.261,276.984 409.233,277.101 
  416.204,277.219 423.175,277.337 430.146,277.457 437.118,277.578 444.089,277.7 451.06,277.823 458.031,277.947 465.003,278.072 471.974,278.199 478.945,278.327 
  485.916,278.456 492.888,278.586 499.859,278.718 506.83,278.851 513.802,278.985 520.773,279.121 527.744,279.258 534.715,279.397 541.687,279.537 548.658,279.678 
  555.629,279.821 562.6,279.966 569.572,280.112 576.543,280.26 583.514,280.409 590.485,280.561 597.457,280.713 604.428,280.868 611.399,281.024 618.371,281.182 
  625.342,281.342 632.313,281.504 639.284,281.668 646.256,281.833 653.227,282.001 660.198,282.171 667.169,282.342 674.141,282.516 681.112,282.692 688.083,282.869 
  695.054,283.049 702.026,283.232 708.997,283.416 715.968,283.603 722.94,283.792 729.911,283.983 736.882,284.177 743.853,284.373 750.825,284.572 757.796,284.773 
  764.767,284.977 771.738,285.183 778.71,285.392 785.681,285.604 792.652,285.819 799.623,286.036 806.595,286.256 813.566,286.478 820.537,286.704 827.509,286.933 
  834.48,287.164 841.451,287.399 848.422,287.637 855.394,287.877 862.365,288.121 869.336,288.368 876.307,288.619 883.279,288.873 890.25,289.13 897.221,289.39 
  904.193,289.654 911.164,289.922 918.135,290.193 925.106,290.467 932.078,290.746 939.049,291.028 946.02,291.313 952.991,291.603 959.963,291.896 966.934,292.194 
  973.905,292.495 980.876,292.8 987.848,293.11 994.819,293.423 1001.79,293.741 1008.76,294.063 1015.73,294.39 1022.7,294.72 1029.68,295.056 1036.65,295.395 
  1043.62,295.739 1050.59,296.088 1057.56,296.442 1064.53,296.8 1071.5,297.163 1078.47,297.531 1085.45,297.903 1092.42,298.281 1099.39,298.664 1106.36,299.052 
  1113.33,299.445 1120.3,299.843 1127.27,300.246 1134.24,300.655 1141.22,301.069 1148.19,301.488 1155.16,301.914 1162.13,302.344 1169.1,302.781 1176.07,303.223 
  1183.04,303.67 1190.01,304.124 1196.99,304.583 1203.96,305.049 1210.93,305.52 1217.9,305.998 1224.87,306.481 1231.84,306.971 1238.81,307.467 1245.78,307.97 
  1252.76,308.478 
  "/>
<polyline clip-path="url(#clip602)" style="stroke:#2000d4; stroke-linecap:butt; stroke-linejoin:round; stroke-width:16; stroke-opacity:1; fill:none" stroke-dasharray="8, 16" points="
  207.066,487.84 214.037,487.84 221.008,487.84 227.98,487.84 234.951,487.84 241.922,487.84 248.893,487.84 255.865,487.84 262.836,487.84 269.807,487.84 
  276.778,487.839 283.75,487.839 290.721,487.839 297.692,487.839 304.663,487.839 311.635,487.839 318.606,487.839 325.577,487.839 332.549,487.839 339.52,487.839 
  346.491,487.839 353.462,487.839 360.434,487.839 367.405,487.839 374.376,487.839 381.347,487.839 388.319,487.839 395.29,487.839 402.261,487.839 409.233,487.839 
  416.204,487.839 423.175,487.839 430.146,487.839 437.118,487.839 444.089,487.839 451.06,487.839 458.031,487.839 465.003,487.839 471.974,487.839 478.945,487.839 
  485.916,487.839 492.888,487.839 499.859,487.839 506.83,487.838 513.802,487.838 520.773,487.838 527.744,487.838 534.715,487.838 541.687,487.838 548.658,487.838 
  555.629,487.838 562.6,487.838 569.572,487.838 576.543,487.838 583.514,487.838 590.485,487.838 597.457,487.837 604.428,487.837 611.399,487.837 618.371,487.837 
  625.342,487.837 632.313,487.837 639.284,487.837 646.256,487.837 653.227,487.837 660.198,487.837 667.169,487.836 674.141,487.836 681.112,487.836 688.083,487.836 
  695.054,487.836 702.026,487.836 708.997,487.836 715.968,487.835 722.94,487.835 729.911,487.835 736.882,487.835 743.853,487.835 750.825,487.835 757.796,487.834 
  764.767,487.834 771.738,487.834 778.71,487.834 785.681,487.834 792.652,487.833 799.623,487.833 806.595,487.833 813.566,487.833 820.537,487.832 827.509,487.832 
  834.48,487.832 841.451,487.832 848.422,487.831 855.394,487.831 862.365,487.831 869.336,487.831 876.307,487.83 883.279,487.83 890.25,487.83 897.221,487.829 
  904.193,487.829 911.164,487.829 918.135,487.828 925.106,487.828 932.078,487.828 939.049,487.827 946.02,487.827 952.991,487.826 959.963,487.826 966.934,487.826 
  973.905,487.825 980.876,487.825 987.848,487.824 994.819,487.824 1001.79,487.823 1008.76,487.823 1015.73,487.822 1022.7,487.822 1029.68,487.821 1036.65,487.821 
  1043.62,487.82 1050.59,487.82 1057.56,487.819 1064.53,487.819 1071.5,487.818 1078.47,487.817 1085.45,487.817 1092.42,487.816 1099.39,487.815 1106.36,487.815 
  1113.33,487.814 1120.3,487.813 1127.27,487.813 1134.24,487.812 1141.22,487.811 1148.19,487.81 1155.16,487.809 1162.13,487.809 1169.1,487.808 1176.07,487.807 
  1183.04,487.806 1190.01,487.805 1196.99,487.804 1203.96,487.803 1210.93,487.802 1217.9,487.801 1224.87,487.8 1231.84,487.799 1238.81,487.798 1245.78,487.797 
  1252.76,487.796 
  "/>
<polyline clip-path="url(#clip602)" style="stroke:#008900; stroke-linecap:butt; stroke-linejoin:round; stroke-width:16; stroke-opacity:1; fill:none" stroke-dasharray="64, 40" points="
  207.066,487.84 214.037,487.84 221.008,487.84 227.98,487.84 234.951,487.839 241.922,487.839 248.893,487.839 255.865,487.839 262.836,487.839 269.807,487.839 
  276.778,487.839 283.75,487.839 290.721,487.839 297.692,487.839 304.663,487.839 311.635,487.839 318.606,487.839 325.577,487.839 332.549,487.839 339.52,487.839 
  346.491,487.839 353.462,487.839 360.434,487.839 367.405,487.839 374.376,487.839 381.347,487.839 388.319,487.839 395.29,487.839 402.261,487.839 409.233,487.839 
  416.204,487.839 423.175,487.839 430.146,487.839 437.118,487.839 444.089,487.839 451.06,487.839 458.031,487.839 465.003,487.839 471.974,487.839 478.945,487.839 
  485.916,487.839 492.888,487.839 499.859,487.839 506.83,487.839 513.802,487.839 520.773,487.839 527.744,487.839 534.715,487.839 541.687,487.839 548.658,487.839 
  555.629,487.839 562.6,487.839 569.572,487.839 576.543,487.839 583.514,487.839 590.485,487.839 597.457,487.839 604.428,487.839 611.399,487.839 618.371,487.839 
  625.342,487.839 632.313,487.839 639.284,487.839 646.256,487.839 653.227,487.839 660.198,487.839 667.169,487.839 674.141,487.839 681.112,487.839 688.083,487.839 
  695.054,487.839 702.026,487.839 708.997,487.839 715.968,487.839 722.94,487.839 729.911,487.839 736.882,487.839 743.853,487.839 750.825,487.839 757.796,487.839 
  764.767,487.839 771.738,487.839 778.71,487.839 785.681,487.839 792.652,487.839 799.623,487.839 806.595,487.839 813.566,487.839 820.537,487.839 827.509,487.839 
  834.48,487.839 841.451,487.839 848.422,487.839 855.394,487.839 862.365,487.839 869.336,487.839 876.307,487.839 883.279,487.839 890.25,487.839 897.221,487.839 
  904.193,487.839 911.164,487.839 918.135,487.839 925.106,487.839 932.078,487.839 939.049,487.839 946.02,487.839 952.991,487.839 959.963,487.839 966.934,487.839 
  973.905,487.839 980.876,487.839 987.848,487.839 994.819,487.839 1001.79,487.839 1008.76,487.839 1015.73,487.839 1022.7,487.839 1029.68,487.839 1036.65,487.839 
  1043.62,487.839 1050.59,487.839 1057.56,487.839 1064.53,487.839 1071.5,487.839 1078.47,487.839 1085.45,487.839 1092.42,487.839 1099.39,487.839 1106.36,487.839 
  1113.33,487.839 1120.3,487.839 1127.27,487.839 1134.24,487.839 1141.22,487.839 1148.19,487.839 1155.16,487.839 1162.13,487.839 1169.1,487.839 1176.07,487.839 
  1183.04,487.839 1190.01,487.838 1196.99,487.838 1203.96,487.838 1210.93,487.838 1217.9,487.838 1224.87,487.838 1231.84,487.838 1238.81,487.838 1245.78,487.838 
  1252.76,487.838 
  "/>
<polyline clip-path="url(#clip602)" style="stroke:#008900; stroke-linecap:butt; stroke-linejoin:round; stroke-width:16; stroke-opacity:1; fill:none" stroke-dasharray="8, 16" points="
  207.066,487.84 214.037,487.84 221.008,487.839 227.98,487.839 234.951,487.839 241.922,487.839 248.893,487.839 255.865,487.839 262.836,487.839 269.807,487.839 
  276.778,487.839 283.75,487.839 290.721,487.839 297.692,487.839 304.663,487.839 311.635,487.839 318.606,487.839 325.577,487.839 332.549,487.839 339.52,487.839 
  346.491,487.839 353.462,487.839 360.434,487.839 367.405,487.839 374.376,487.839 381.347,487.839 388.319,487.839 395.29,487.839 402.261,487.839 409.233,487.839 
  416.204,487.839 423.175,487.839 430.146,487.839 437.118,487.839 444.089,487.839 451.06,487.839 458.031,487.839 465.003,487.839 471.974,487.839 478.945,487.839 
  485.916,487.839 492.888,487.839 499.859,487.839 506.83,487.839 513.802,487.839 520.773,487.839 527.744,487.839 534.715,487.839 541.687,487.839 548.658,487.839 
  555.629,487.839 562.6,487.839 569.572,487.839 576.543,487.839 583.514,487.839 590.485,487.839 597.457,487.839 604.428,487.839 611.399,487.839 618.371,487.839 
  625.342,487.839 632.313,487.839 639.284,487.839 646.256,487.839 653.227,487.839 660.198,487.839 667.169,487.839 674.141,487.839 681.112,487.839 688.083,487.839 
  695.054,487.839 702.026,487.839 708.997,487.839 715.968,487.839 722.94,487.839 729.911,487.839 736.882,487.839 743.853,487.839 750.825,487.839 757.796,487.839 
  764.767,487.839 771.738,487.839 778.71,487.839 785.681,487.839 792.652,487.839 799.623,487.839 806.595,487.839 813.566,487.839 820.537,487.839 827.509,487.839 
  834.48,487.839 841.451,487.839 848.422,487.839 855.394,487.839 862.365,487.839 869.336,487.839 876.307,487.839 883.279,487.839 890.25,487.839 897.221,487.839 
  904.193,487.839 911.164,487.839 918.135,487.839 925.106,487.839 932.078,487.839 939.049,487.839 946.02,487.839 952.991,487.839 959.963,487.839 966.934,487.839 
  973.905,487.839 980.876,487.839 987.848,487.839 994.819,487.839 1001.79,487.839 1008.76,487.839 1015.73,487.839 1022.7,487.839 1029.68,487.839 1036.65,487.838 
  1043.62,487.838 1050.59,487.838 1057.56,487.838 1064.53,487.838 1071.5,487.838 1078.47,487.838 1085.45,487.838 1092.42,487.838 1099.39,487.838 1106.36,487.838 
  1113.33,487.838 1120.3,487.838 1127.27,487.838 1134.24,487.838 1141.22,487.838 1148.19,487.838 1155.16,487.838 1162.13,487.838 1169.1,487.838 1176.07,487.838 
  1183.04,487.838 1190.01,487.838 1196.99,487.838 1203.96,487.838 1210.93,487.838 1217.9,487.838 1224.87,487.838 1231.84,487.838 1238.81,487.838 1245.78,487.838 
  1252.76,487.838 
  "/>
<polyline clip-path="url(#clip602)" style="stroke:#2000d4; stroke-linecap:butt; stroke-linejoin:round; stroke-width:16; stroke-opacity:1; fill:none" points="
  207.066,487.412 214.037,487.081 221.008,486.68 227.98,486.277 234.951,485.872 241.922,485.465 248.893,485.056 255.865,484.645 262.836,484.232 269.807,483.817 
  276.778,483.399 283.75,482.98 290.721,482.558 297.692,482.133 304.663,481.707 311.635,481.277 318.606,480.846 325.577,480.411 332.549,479.974 339.52,479.534 
  346.491,479.091 353.462,478.645 360.434,478.196 367.405,477.744 374.376,477.289 381.347,476.831 388.319,476.369 395.29,475.904 402.261,475.436 409.233,474.964 
  416.204,474.488 423.175,474.009 430.146,473.526 437.118,473.039 444.089,472.548 451.06,472.053 458.031,471.554 465.003,471.051 471.974,470.544 478.945,470.032 
  485.916,469.516 492.888,468.996 499.859,468.471 506.83,467.941 513.802,467.406 520.773,466.867 527.744,466.323 534.715,465.773 541.687,465.219 548.658,464.659 
  555.629,464.094 562.6,463.524 569.572,462.948 576.543,462.367 583.514,461.78 590.485,461.187 597.457,460.588 604.428,459.984 611.399,459.373 618.371,458.757 
  625.342,458.134 632.313,457.505 639.284,456.869 646.256,456.227 653.227,455.578 660.198,454.923 667.169,454.261 674.141,453.592 681.112,452.915 688.083,452.232 
  695.054,451.542 702.026,450.844 708.997,450.139 715.968,449.426 722.94,448.706 729.911,447.978 736.882,447.242 743.853,446.498 750.825,445.747 757.796,444.987 
  764.767,444.219 771.738,443.442 778.71,442.657 785.681,441.864 792.652,441.061 799.623,440.25 806.595,439.431 813.566,438.602 820.537,437.764 827.509,436.917 
  834.48,436.061 841.451,435.195 848.422,434.32 855.394,433.435 862.365,432.54 869.336,431.636 876.307,430.722 883.279,429.797 890.25,428.863 897.221,427.918 
  904.193,426.963 911.164,425.998 918.135,425.021 925.106,424.035 932.078,423.037 939.049,422.029 946.02,421.01 952.991,419.98 959.963,418.938 966.934,417.886 
  973.905,416.822 980.876,415.746 987.848,414.659 994.819,413.561 1001.79,412.451 1008.76,411.329 1015.73,410.195 1022.7,409.049 1029.68,407.891 1036.65,406.721 
  1043.62,405.539 1050.59,404.344 1057.56,403.138 1064.53,401.918 1071.5,400.686 1078.47,399.442 1085.45,398.185 1092.42,396.915 1099.39,395.633 1106.36,394.337 
  1113.33,393.029 1120.3,391.708 1127.27,390.374 1134.24,389.026 1141.22,387.666 1148.19,386.292 1155.16,384.906 1162.13,383.506 1169.1,382.093 1176.07,380.666 
  1183.04,379.226 1190.01,377.773 1196.99,376.307 1203.96,374.827 1210.93,373.334 1217.9,371.827 1224.87,370.307 1231.84,368.774 1238.81,367.227 1245.78,365.667 
  1252.76,364.093 
  "/>
<polyline clip-path="url(#clip602)" style="stroke:#008900; stroke-linecap:butt; stroke-linejoin:round; stroke-width:16; stroke-opacity:1; fill:none" points="
  207.066,487.626 214.037,487.58 221.008,487.575 227.98,487.57 234.951,487.565 241.922,487.56 248.893,487.555 255.865,487.55 262.836,487.544 269.807,487.539 
  276.778,487.533 283.75,487.528 290.721,487.522 297.692,487.516 304.663,487.511 311.635,487.505 318.606,487.499 325.577,487.493 332.549,487.487 339.52,487.481 
  346.491,487.474 353.462,487.468 360.434,487.462 367.405,487.455 374.376,487.448 381.347,487.442 388.319,487.435 395.29,487.428 402.261,487.421 409.233,487.414 
  416.204,487.407 423.175,487.4 430.146,487.392 437.118,487.385 444.089,487.377 451.06,487.37 458.031,487.362 465.003,487.354 471.974,487.346 478.945,487.338 
  485.916,487.33 492.888,487.322 499.859,487.313 506.83,487.305 513.802,487.296 520.773,487.287 527.744,487.278 534.715,487.269 541.687,487.26 548.658,487.251 
  555.629,487.241 562.6,487.232 569.572,487.222 576.543,487.212 583.514,487.202 590.485,487.192 597.457,487.182 604.428,487.172 611.399,487.161 618.371,487.15 
  625.342,487.14 632.313,487.129 639.284,487.118 646.256,487.106 653.227,487.095 660.198,487.083 667.169,487.071 674.141,487.059 681.112,487.047 688.083,487.035 
  695.054,487.022 702.026,487.01 708.997,486.997 715.968,486.984 722.94,486.971 729.911,486.957 736.882,486.944 743.853,486.93 750.825,486.916 757.796,486.902 
  764.767,486.887 771.738,486.873 778.71,486.858 785.681,486.843 792.652,486.828 799.623,486.812 806.595,486.797 813.566,486.781 820.537,486.765 827.509,486.748 
  834.48,486.732 841.451,486.715 848.422,486.698 855.394,486.681 862.365,486.663 869.336,486.646 876.307,486.628 883.279,486.609 890.25,486.591 897.221,486.572 
  904.193,486.553 911.164,486.534 918.135,486.514 925.106,486.494 932.078,486.474 939.049,486.454 946.02,486.433 952.991,486.412 959.963,486.391 966.934,486.369 
  973.905,486.347 980.876,486.325 987.848,486.302 994.819,486.28 1001.79,486.256 1008.76,486.233 1015.73,486.209 1022.7,486.185 1029.68,486.161 1036.65,486.136 
  1043.62,486.111 1050.59,486.085 1057.56,486.06 1064.53,486.033 1071.5,486.007 1078.47,485.98 1085.45,485.953 1092.42,485.925 1099.39,485.897 1106.36,485.869 
  1113.33,485.84 1120.3,485.811 1127.27,485.782 1134.24,485.752 1141.22,485.721 1148.19,485.691 1155.16,485.66 1162.13,485.628 1169.1,485.596 1176.07,485.564 
  1183.04,485.531 1190.01,485.498 1196.99,485.464 1203.96,485.43 1210.93,485.396 1217.9,485.361 1224.87,485.325 1231.84,485.29 1238.81,485.253 1245.78,485.217 
  1252.76,485.179 
  "/>
<polyline clip-path="url(#clip602)" style="stroke:#7f7f7f; stroke-linecap:butt; stroke-linejoin:round; stroke-width:16; stroke-opacity:1; fill:none" points="
  207.066,60.077 214.037,133.824 221.008,199.965 227.98,238.571 234.951,264.572 241.922,283.573 248.893,298.214 255.865,309.927 262.836,319.559 269.807,327.653 
  276.778,334.572 283.75,340.568 290.721,345.826 297.692,350.481 304.663,354.636 311.635,358.373 318.606,361.754 325.577,364.83 332.549,367.642 339.52,370.225 
  346.491,372.606 353.462,374.809 360.434,376.854 367.405,378.758 374.376,380.534 381.347,382.197 388.319,383.756 395.29,385.221 402.261,386.601 409.233,387.903 
  416.204,389.133 423.175,390.298 430.146,391.401 437.118,392.449 444.089,393.445 451.06,394.392 458.031,395.295 465.003,396.156 471.974,396.978 478.945,397.764 
  485.916,398.516 492.888,399.236 499.859,399.927 506.83,400.589 513.802,401.224 520.773,401.835 527.744,402.422 534.715,402.988 541.687,403.532 548.658,404.056 
  555.629,404.561 562.6,405.049 569.572,405.52 576.543,405.975 583.514,406.415 590.485,406.84 597.457,407.251 604.428,407.65 611.399,408.036 618.371,408.41 
  625.342,408.773 632.313,409.125 639.284,409.466 646.256,409.798 653.227,410.121 660.198,410.435 667.169,410.74 674.141,411.037 681.112,411.326 688.083,411.607 
  695.054,411.882 702.026,412.15 708.997,412.411 715.968,412.666 722.94,412.915 729.911,413.158 736.882,413.396 743.853,413.628 750.825,413.856 757.796,414.079 
  764.767,414.297 771.738,414.511 778.71,414.72 785.681,414.926 792.652,415.127 799.623,415.326 806.595,415.52 813.566,415.711 820.537,415.899 827.509,416.084 
  834.48,416.266 841.451,416.446 848.422,416.622 855.394,416.796 862.365,416.968 869.336,417.138 876.307,417.305 883.279,417.47 890.25,417.634 897.221,417.795 
  904.193,417.955 911.164,418.113 918.135,418.27 925.106,418.425 932.078,418.579 939.049,418.731 946.02,418.883 952.991,419.033 959.963,419.182 966.934,419.33 
  973.905,419.478 980.876,419.624 987.848,419.77 994.819,419.915 1001.79,420.06 1008.76,420.204 1015.73,420.348 1022.7,420.491 1029.68,420.634 1036.65,420.777 
  1043.62,420.919 1050.59,421.062 1057.56,421.204 1064.53,421.346 1071.5,421.488 1078.47,421.631 1085.45,421.773 1092.42,421.916 1099.39,422.059 1106.36,422.202 
  1113.33,422.345 1120.3,422.489 1127.27,422.633 1134.24,422.778 1141.22,422.923 1148.19,423.069 1155.16,423.215 1162.13,423.362 1169.1,423.51 1176.07,423.659 
  1183.04,423.808 1190.01,423.958 1196.99,424.109 1203.96,424.26 1210.93,424.413 1217.9,424.567 1224.87,424.721 1231.84,424.877 1238.81,425.033 1245.78,425.191 
  1252.76,425.35 
  "/>
<polyline clip-path="url(#clip602)" style="stroke:#895f55; stroke-linecap:butt; stroke-linejoin:round; stroke-width:16; stroke-opacity:1; fill:none" points="
  214.037,487.416 221.008,487.098 227.98,486.715 234.951,486.33 241.922,485.943 248.893,485.555 255.865,485.164 262.836,484.771 269.807,484.377 276.778,483.98 
  283.75,483.582 290.721,483.181 297.692,482.778 304.663,482.372 311.635,481.965 318.606,481.555 325.577,481.142 332.549,480.727 339.52,480.309 346.491,479.889 
  353.462,479.466 360.434,479.04 367.405,478.611 374.376,478.179 381.347,477.744 388.319,477.306 395.29,476.865 402.261,476.421 409.233,475.973 416.204,475.522 
  423.175,475.068 430.146,474.61 437.118,474.149 444.089,473.683 451.06,473.214 458.031,472.742 465.003,472.265 471.974,471.784 478.945,471.3 485.916,470.811 
  492.888,470.318 499.859,469.82 506.83,469.318 513.802,468.812 520.773,468.301 527.744,467.786 534.715,467.266 541.687,466.741 548.658,466.211 555.629,465.676 
  562.6,465.137 569.572,464.592 576.543,464.041 583.514,463.486 590.485,462.925 597.457,462.359 604.428,461.787 611.399,461.209 618.371,460.626 625.342,460.036 
  632.313,459.441 639.284,458.84 646.256,458.233 653.227,457.619 660.198,456.999 667.169,456.373 674.141,455.74 681.112,455.101 688.083,454.454 695.054,453.802 
  702.026,453.142 708.997,452.475 715.968,451.801 722.94,451.12 729.911,450.432 736.882,449.736 743.853,449.033 750.825,448.322 757.796,447.604 764.767,446.877 
  771.738,446.143 778.71,445.401 785.681,444.651 792.652,443.893 799.623,443.126 806.595,442.351 813.566,441.568 820.537,440.776 827.509,439.975 834.48,439.166 
  841.451,438.347 848.422,437.52 855.394,436.683 862.365,435.838 869.336,434.983 876.307,434.118 883.279,433.245 890.25,432.361 897.221,431.468 904.193,430.565 
  911.164,429.653 918.135,428.73 925.106,427.797 932.078,426.854 939.049,425.901 946.02,424.937 952.991,423.963 959.963,422.978 966.934,421.983 973.905,420.977 
  980.876,419.96 987.848,418.933 994.819,417.894 1001.79,416.844 1008.76,415.783 1015.73,414.71 1022.7,413.627 1029.68,412.532 1036.65,411.425 1043.62,410.307 
  1050.59,409.177 1057.56,408.035 1064.53,406.882 1071.5,405.716 1078.47,404.539 1085.45,403.35 1092.42,402.148 1099.39,400.935 1106.36,399.709 1113.33,398.471 
  1120.3,397.22 1127.27,395.957 1134.24,394.682 1141.22,393.394 1148.19,392.094 1155.16,390.781 1162.13,389.456 1169.1,388.118 1176.07,386.767 1183.04,385.404 
  1190.01,384.027 1196.99,382.639 1203.96,381.237 1210.93,379.822 1217.9,378.395 1224.87,376.955 1231.84,375.502 1238.81,374.037 1245.78,372.558 1252.76,371.067 
  
  "/>
<polyline clip-path="url(#clip602)" style="stroke:#2000d4; stroke-linecap:butt; stroke-linejoin:round; stroke-width:16; stroke-opacity:1; fill:none" stroke-dasharray="64, 40" points="
  207.066,487.84 214.037,487.84 221.008,487.84 227.98,487.84 234.951,487.84 241.922,487.84 248.893,487.84 255.865,487.84 262.836,487.84 269.807,487.84 
  276.778,487.84 283.75,487.839 290.721,487.839 297.692,487.839 304.663,487.839 311.635,487.839 318.606,487.839 325.577,487.839 332.549,487.839 339.52,487.839 
  346.491,487.839 353.462,487.839 360.434,487.839 367.405,487.839 374.376,487.839 381.347,487.839 388.319,487.839 395.29,487.839 402.261,487.839 409.233,487.839 
  416.204,487.839 423.175,487.839 430.146,487.839 437.118,487.839 444.089,487.839 451.06,487.839 458.031,487.839 465.003,487.839 471.974,487.839 478.945,487.839 
  485.916,487.839 492.888,487.839 499.859,487.839 506.83,487.839 513.802,487.839 520.773,487.839 527.744,487.839 534.715,487.839 541.687,487.839 548.658,487.839 
  555.629,487.839 562.6,487.839 569.572,487.839 576.543,487.839 583.514,487.839 590.485,487.839 597.457,487.839 604.428,487.839 611.399,487.839 618.371,487.838 
  625.342,487.838 632.313,487.838 639.284,487.838 646.256,487.838 653.227,487.838 660.198,487.838 667.169,487.838 674.141,487.838 681.112,487.838 688.083,487.838 
  695.054,487.838 702.026,487.838 708.997,487.838 715.968,487.838 722.94,487.838 729.911,487.838 736.882,487.838 743.853,487.838 750.825,487.838 757.796,487.838 
  764.767,487.838 771.738,487.838 778.71,487.837 785.681,487.837 792.652,487.837 799.623,487.837 806.595,487.837 813.566,487.837 820.537,487.837 827.509,487.837 
  834.48,487.837 841.451,487.837 848.422,487.837 855.394,487.837 862.365,487.837 869.336,487.837 876.307,487.837 883.279,487.837 890.25,487.837 897.221,487.836 
  904.193,487.836 911.164,487.836 918.135,487.836 925.106,487.836 932.078,487.836 939.049,487.836 946.02,487.836 952.991,487.836 959.963,487.836 966.934,487.836 
  973.905,487.836 980.876,487.836 987.848,487.836 994.819,487.835 1001.79,487.835 1008.76,487.835 1015.73,487.835 1022.7,487.835 1029.68,487.835 1036.65,487.835 
  1043.62,487.835 1050.59,487.835 1057.56,487.835 1064.53,487.835 1071.5,487.835 1078.47,487.834 1085.45,487.834 1092.42,487.834 1099.39,487.834 1106.36,487.834 
  1113.33,487.834 1120.3,487.834 1127.27,487.834 1134.24,487.834 1141.22,487.834 1148.19,487.833 1155.16,487.833 1162.13,487.833 1169.1,487.833 1176.07,487.833 
  1183.04,487.833 1190.01,487.833 1196.99,487.833 1203.96,487.833 1210.93,487.833 1217.9,487.832 1224.87,487.832 1231.84,487.832 1238.81,487.832 1245.78,487.832 
  1252.76,487.832 
  "/>
<polyline clip-path="url(#clip602)" style="stroke:#ff221c; stroke-linecap:butt; stroke-linejoin:round; stroke-width:16; stroke-opacity:1; fill:none" points="
  207.066,231.31 214.037,231.241 221.008,231.215 227.98,231.201 234.951,231.193 241.922,231.188 248.893,231.185 255.865,231.183 262.836,231.181 269.807,231.179 
  276.778,231.177 283.75,231.175 290.721,231.173 297.692,231.172 304.663,231.17 311.635,231.168 318.606,231.166 325.577,231.164 332.549,231.162 339.52,231.16 
  346.491,231.158 353.462,231.156 360.434,231.154 367.405,231.152 374.376,231.149 381.347,231.147 388.319,231.145 395.29,231.143 402.261,231.14 409.233,231.138 
  416.204,231.135 423.175,231.133 430.146,231.13 437.118,231.128 444.089,231.125 451.06,231.123 458.031,231.12 465.003,231.117 471.974,231.114 478.945,231.112 
  485.916,231.109 492.888,231.106 499.859,231.103 506.83,231.1 513.802,231.097 520.773,231.093 527.744,231.09 534.715,231.087 541.687,231.084 548.658,231.08 
  555.629,231.077 562.6,231.073 569.572,231.07 576.543,231.066 583.514,231.063 590.485,231.059 597.457,231.055 604.428,231.051 611.399,231.047 618.371,231.043 
  625.342,231.039 632.313,231.035 639.284,231.031 646.256,231.027 653.227,231.022 660.198,231.018 667.169,231.013 674.141,231.009 681.112,231.004 688.083,230.999 
  695.054,230.995 702.026,230.99 708.997,230.985 715.968,230.98 722.94,230.974 729.911,230.969 736.882,230.964 743.853,230.958 750.825,230.953 757.796,230.947 
  764.767,230.942 771.738,230.936 778.71,230.93 785.681,230.924 792.652,230.918 799.623,230.912 806.595,230.905 813.566,230.899 820.537,230.892 827.509,230.886 
  834.48,230.879 841.451,230.872 848.422,230.865 855.394,230.858 862.365,230.85 869.336,230.843 876.307,230.835 883.279,230.828 890.25,230.82 897.221,230.812 
  904.193,230.804 911.164,230.796 918.135,230.787 925.106,230.779 932.078,230.77 939.049,230.761 946.02,230.752 952.991,230.743 959.963,230.734 966.934,230.725 
  973.905,230.715 980.876,230.705 987.848,230.695 994.819,230.685 1001.79,230.675 1008.76,230.664 1015.73,230.653 1022.7,230.642 1029.68,230.631 1036.65,230.62 
  1043.62,230.608 1050.59,230.597 1057.56,230.585 1064.53,230.572 1071.5,230.56 1078.47,230.547 1085.45,230.535 1092.42,230.521 1099.39,230.508 1106.36,230.495 
  1113.33,230.481 1120.3,230.467 1127.27,230.452 1134.24,230.438 1141.22,230.423 1148.19,230.407 1155.16,230.392 1162.13,230.376 1169.1,230.36 1176.07,230.344 
  1183.04,230.327 1190.01,230.31 1196.99,230.293 1203.96,230.275 1210.93,230.257 1217.9,230.239 1224.87,230.22 1231.84,230.201 1238.81,230.181 1245.78,230.162 
  1252.76,230.141 
  "/>
<polyline clip-path="url(#clip602)" style="stroke:#000000; stroke-linecap:butt; stroke-linejoin:round; stroke-width:16; stroke-opacity:1; fill:none" stroke-dasharray="8, 16" points="
  207.066,60.077 214.037,60.5004 221.008,60.8889 227.98,61.3365 234.951,61.7959 241.922,62.2593 248.893,62.7252 255.865,63.1934 262.836,63.6639 269.807,64.1368 
  276.778,64.6121 283.75,65.0899 290.721,65.5703 297.692,66.0533 304.663,66.539 311.635,67.0276 318.606,67.519 325.577,68.0134 332.549,68.5108 339.52,69.0113 
  346.491,69.515 353.462,70.022 360.434,70.5324 367.405,71.0461 374.376,71.5634 381.347,72.0843 388.319,72.6089 395.29,73.1372 402.261,73.6694 409.233,74.2055 
  416.204,74.7457 423.175,75.29 430.146,75.8385 437.118,76.3913 444.089,76.9485 451.06,77.5101 458.031,78.0763 465.003,78.6472 471.974,79.2229 478.945,79.8034 
  485.916,80.3888 492.888,80.9793 499.859,81.5749 506.83,82.1757 513.802,82.7819 520.773,83.3935 527.744,84.0106 534.715,84.6334 541.687,85.2619 548.658,85.8962 
  555.629,86.5364 562.6,87.1827 569.572,87.8351 576.543,88.4938 583.514,89.1588 590.485,89.8302 597.457,90.5083 604.428,91.1929 611.399,91.8844 618.371,92.5827 
  625.342,93.288 632.313,94.0005 639.284,94.7201 646.256,95.4471 653.227,96.1814 660.198,96.9234 667.169,97.673 674.141,98.4303 681.112,99.1956 688.083,99.9688 
  695.054,100.75 702.026,101.54 708.997,102.338 715.968,103.144 722.94,103.959 729.911,104.783 736.882,105.615 743.853,106.457 750.825,107.307 757.796,108.167 
  764.767,109.036 771.738,109.914 778.71,110.802 785.681,111.699 792.652,112.607 799.623,113.524 806.595,114.451 813.566,115.388 820.537,116.336 827.509,117.294 
  834.48,118.262 841.451,119.241 848.422,120.231 855.394,121.232 862.365,122.243 869.336,123.266 876.307,124.3 883.279,125.345 890.25,126.402 897.221,127.47 
  904.193,128.55 911.164,129.641 918.135,130.745 925.106,131.861 932.078,132.988 939.049,134.129 946.02,135.281 952.991,136.446 959.963,137.624 966.934,138.814 
  973.905,140.017 980.876,141.233 987.848,142.462 994.819,143.704 1001.79,144.96 1008.76,146.228 1015.73,147.511 1022.7,148.807 1029.68,150.116 1036.65,151.439 
  1043.62,152.776 1050.59,154.127 1057.56,155.492 1064.53,156.871 1071.5,158.265 1078.47,159.672 1085.45,161.094 1092.42,162.53 1099.39,163.981 1106.36,165.447 
  1113.33,166.927 1120.3,168.422 1127.27,169.931 1134.24,171.456 1141.22,172.995 1148.19,174.549 1155.16,176.118 1162.13,177.703 1169.1,179.302 1176.07,180.916 
  1183.04,182.546 1190.01,184.191 1196.99,185.85 1203.96,187.526 1210.93,189.216 1217.9,190.922 1224.87,192.642 1231.84,194.379 1238.81,196.13 1245.78,197.896 
  1252.76,199.678 
  "/>
</svg>
