<?xml version="1.0" encoding="utf-8"?>
<svg xmlns="http://www.w3.org/2000/svg" xmlns:xlink="http://www.w3.org/1999/xlink" width="325" height="150" viewBox="0 0 1300 600">
<defs>
  <clipPath id="clip390">
    <rect x="0" y="0" width="1300" height="600"/>
  </clipPath>
</defs>
<path clip-path="url(#clip390)" d="
M0 600 L1300 600 L1300 0 L0 0  Z
  " fill="#ffffff" fill-rule="evenodd" fill-opacity="1"/>
<defs>
  <clipPath id="clip391">
    <rect x="260" y="0" width="911" height="600"/>
  </clipPath>
</defs>
<path clip-path="url(#clip390)" d="
M200.094 501.1 L1252.76 501.1 L1252.76 47.2441 L200.094 47.2441  Z
  " fill="#ffffff" fill-rule="evenodd" fill-opacity="1"/>
<defs>
  <clipPath id="clip392">
    <rect x="200" y="47" width="1054" height="455"/>
  </clipPath>
</defs>
<polyline clip-path="url(#clip390)" style="stroke:#000000; stroke-linecap:round; stroke-linejoin:round; stroke-width:4; stroke-opacity:1; fill:none" points="
  200.094,501.1 1252.76,501.1 
  "/>
<polyline clip-path="url(#clip390)" style="stroke:#000000; stroke-linecap:round; stroke-linejoin:round; stroke-width:4; stroke-opacity:1; fill:none" points="
  200.094,501.1 200.094,482.203 
  "/>
<polyline clip-path="url(#clip390)" style="stroke:#000000; stroke-linecap:round; stroke-linejoin:round; stroke-width:4; stroke-opacity:1; fill:none" points="
  548.658,501.1 548.658,482.203 
  "/>
<polyline clip-path="url(#clip390)" style="stroke:#000000; stroke-linecap:round; stroke-linejoin:round; stroke-width:4; stroke-opacity:1; fill:none" points="
  897.221,501.1 897.221,482.203 
  "/>
<polyline clip-path="url(#clip390)" style="stroke:#000000; stroke-linecap:round; stroke-linejoin:round; stroke-width:4; stroke-opacity:1; fill:none" points="
  1245.78,501.1 1245.78,482.203 
  "/>
<path clip-path="url(#clip390)" d="M200.094 526.149 Q195.581 526.149 193.295 530.605 Q191.038 535.032 191.038 543.944 Q191.038 552.827 193.295 557.283 Q195.581 561.71 200.094 561.71 Q204.637 561.71 206.894 557.283 Q209.18 552.827 209.18 543.944 Q209.18 535.032 206.894 530.605 Q204.637 526.149 200.094 526.149 M200.094 521.519 Q207.357 521.519 211.177 527.277 Q215.025 533.006 215.025 543.944 Q215.025 554.852 211.177 560.61 Q207.357 566.339 200.094 566.339 Q192.832 566.339 188.983 560.61 Q185.164 554.852 185.164 543.944 Q185.164 533.006 188.983 527.277 Q192.832 521.519 200.094 521.519 Z" fill="#000000" fill-rule="evenodd" fill-opacity="1" /><path clip-path="url(#clip390)" d="M517.032 522.3 L539.977 522.3 L539.977 527.219 L522.385 527.219 L522.385 537.809 Q523.658 537.375 524.931 537.173 Q526.204 536.941 527.477 536.941 Q534.711 536.941 538.936 540.905 Q543.16 544.87 543.16 551.64 Q543.16 558.614 538.82 562.491 Q534.48 566.339 526.58 566.339 Q523.861 566.339 521.025 565.876 Q518.218 565.413 515.209 564.487 L515.209 558.614 Q517.813 560.031 520.591 560.726 Q523.369 561.42 526.465 561.42 Q531.47 561.42 534.393 558.787 Q537.315 556.154 537.315 551.64 Q537.315 547.126 534.393 544.493 Q531.47 541.86 526.465 541.86 Q524.121 541.86 521.777 542.381 Q519.462 542.902 517.032 544.001 L517.032 522.3 Z" fill="#000000" fill-rule="evenodd" fill-opacity="1" /><path clip-path="url(#clip390)" d="M567.176 526.149 Q562.662 526.149 560.377 530.605 Q558.12 535.032 558.12 543.944 Q558.12 552.827 560.377 557.283 Q562.662 561.71 567.176 561.71 Q571.719 561.71 573.976 557.283 Q576.262 552.827 576.262 543.944 Q576.262 535.032 573.976 530.605 Q571.719 526.149 567.176 526.149 M567.176 521.519 Q574.439 521.519 578.258 527.277 Q582.107 533.006 582.107 543.944 Q582.107 554.852 578.258 560.61 Q574.439 566.339 567.176 566.339 Q559.914 566.339 556.065 560.61 Q552.246 554.852 552.246 543.944 Q552.246 533.006 556.065 527.277 Q559.914 521.519 567.176 521.519 Z" fill="#000000" fill-rule="evenodd" fill-opacity="1" /><path clip-path="url(#clip390)" d="M846.73 560.581 L856.278 560.581 L856.278 527.624 L845.891 529.708 L845.891 524.384 L856.22 522.3 L862.065 522.3 L862.065 560.581 L871.614 560.581 L871.614 565.5 L846.73 565.5 L846.73 560.581 Z" fill="#000000" fill-rule="evenodd" fill-opacity="1" /><path clip-path="url(#clip390)" d="M895.919 526.149 Q891.405 526.149 889.119 530.605 Q886.863 535.032 886.863 543.944 Q886.863 552.827 889.119 557.283 Q891.405 561.71 895.919 561.71 Q900.462 561.71 902.719 557.283 Q905.005 552.827 905.005 543.944 Q905.005 535.032 902.719 530.605 Q900.462 526.149 895.919 526.149 M895.919 521.519 Q903.182 521.519 907.001 527.277 Q910.85 533.006 910.85 543.944 Q910.85 554.852 907.001 560.61 Q903.182 566.339 895.919 566.339 Q888.656 566.339 884.808 560.61 Q880.989 554.852 880.989 543.944 Q880.989 533.006 884.808 527.277 Q888.656 521.519 895.919 521.519 Z" fill="#000000" fill-rule="evenodd" fill-opacity="1" /><path clip-path="url(#clip390)" d="M933.622 526.149 Q929.108 526.149 926.822 530.605 Q924.565 535.032 924.565 543.944 Q924.565 552.827 926.822 557.283 Q929.108 561.71 933.622 561.71 Q938.164 561.71 940.421 557.283 Q942.707 552.827 942.707 543.944 Q942.707 535.032 940.421 530.605 Q938.164 526.149 933.622 526.149 M933.622 521.519 Q940.884 521.519 944.704 527.277 Q948.552 533.006 948.552 543.944 Q948.552 554.852 944.704 560.61 Q940.884 566.339 933.622 566.339 Q926.359 566.339 922.51 560.61 Q918.691 554.852 918.691 543.944 Q918.691 533.006 922.51 527.277 Q926.359 521.519 933.622 521.519 Z" fill="#000000" fill-rule="evenodd" fill-opacity="1" /><path clip-path="url(#clip390)" d="M1195.29 560.581 L1204.84 560.581 L1204.84 527.624 L1194.45 529.708 L1194.45 524.384 L1204.78 522.3 L1210.63 522.3 L1210.63 560.581 L1220.18 560.581 L1220.18 565.5 L1195.29 565.5 L1195.29 560.581 Z" fill="#000000" fill-rule="evenodd" fill-opacity="1" /><path clip-path="url(#clip390)" d="M1232.04 522.3 L1254.99 522.3 L1254.99 527.219 L1237.39 527.219 L1237.39 537.809 Q1238.67 537.375 1239.94 537.173 Q1241.21 536.941 1242.49 536.941 Q1249.72 536.941 1253.94 540.905 Q1258.17 544.87 1258.17 551.64 Q1258.17 558.614 1253.83 562.491 Q1249.49 566.339 1241.59 566.339 Q1238.87 566.339 1236.03 565.876 Q1233.23 565.413 1230.22 564.487 L1230.22 558.614 Q1232.82 560.031 1235.6 560.726 Q1238.38 561.42 1241.47 561.42 Q1246.48 561.42 1249.4 558.787 Q1252.32 556.154 1252.32 551.64 Q1252.32 547.126 1249.4 544.493 Q1246.48 541.86 1241.47 541.86 Q1239.13 541.86 1236.79 542.381 Q1234.47 542.902 1232.04 544.001 L1232.04 522.3 Z" fill="#000000" fill-rule="evenodd" fill-opacity="1" /><path clip-path="url(#clip390)" d="M1282.18 526.149 Q1277.67 526.149 1275.39 530.605 Q1273.13 535.032 1273.13 543.944 Q1273.13 552.827 1275.39 557.283 Q1277.67 561.71 1282.18 561.71 Q1286.73 561.71 1288.98 557.283 Q1291.27 552.827 1291.27 543.944 Q1291.27 535.032 1288.98 530.605 Q1286.73 526.149 1282.18 526.149 M1282.18 521.519 Q1289.45 521.519 1293.27 527.277 Q1297.12 533.006 1297.12 543.944 Q1297.12 554.852 1293.27 560.61 Q1289.45 566.339 1282.18 566.339 Q1274.92 566.339 1271.07 560.61 Q1267.25 554.852 1267.25 543.944 Q1267.25 533.006 1271.07 527.277 Q1274.92 521.519 1282.18 521.519 Z" fill="#000000" fill-rule="evenodd" fill-opacity="1" /><polyline clip-path="url(#clip390)" style="stroke:#000000; stroke-linecap:round; stroke-linejoin:round; stroke-width:4; stroke-opacity:1; fill:none" points="
  200.094,501.1 200.094,47.2441 
  "/>
<polyline clip-path="url(#clip390)" style="stroke:#000000; stroke-linecap:round; stroke-linejoin:round; stroke-width:4; stroke-opacity:1; fill:none" points="
  200.094,487.84 218.992,487.84 
  "/>
<polyline clip-path="url(#clip390)" style="stroke:#000000; stroke-linecap:round; stroke-linejoin:round; stroke-width:4; stroke-opacity:1; fill:none" points="
  200.094,380.899 218.992,380.899 
  "/>
<polyline clip-path="url(#clip390)" style="stroke:#000000; stroke-linecap:round; stroke-linejoin:round; stroke-width:4; stroke-opacity:1; fill:none" points="
  200.094,273.958 218.992,273.958 
  "/>
<polyline clip-path="url(#clip390)" style="stroke:#000000; stroke-linecap:round; stroke-linejoin:round; stroke-width:4; stroke-opacity:1; fill:none" points="
  200.094,167.018 218.992,167.018 
  "/>
<polyline clip-path="url(#clip390)" style="stroke:#000000; stroke-linecap:round; stroke-linejoin:round; stroke-width:4; stroke-opacity:1; fill:none" points="
  200.094,60.077 218.992,60.077 
  "/>
<path clip-path="url(#clip390)" d="M71.4226 470.088 Q66.9087 470.088 64.6229 474.544 Q62.3659 478.971 62.3659 487.883 Q62.3659 496.766 64.6229 501.222 Q66.9087 505.649 71.4226 505.649 Q75.9654 505.649 78.2223 501.222 Q80.5082 496.766 80.5082 487.883 Q80.5082 478.971 78.2223 474.544 Q75.9654 470.088 71.4226 470.088 M71.4226 465.458 Q78.6853 465.458 82.5047 471.216 Q86.3531 476.946 86.3531 487.883 Q86.3531 498.791 82.5047 504.55 Q78.6853 510.279 71.4226 510.279 Q64.1599 510.279 60.3115 504.55 Q56.4921 498.791 56.4921 487.883 Q56.4921 476.946 60.3115 471.216 Q64.1599 465.458 71.4226 465.458 Z" fill="#000000" fill-rule="evenodd" fill-opacity="1" /><path clip-path="url(#clip390)" d="M96.625 502.09 L102.73 502.09 L102.73 509.44 L96.625 509.44 L96.625 502.09 Z" fill="#000000" fill-rule="evenodd" fill-opacity="1" /><path clip-path="url(#clip390)" d="M127.962 470.088 Q123.448 470.088 121.162 474.544 Q118.905 478.971 118.905 487.883 Q118.905 496.766 121.162 501.222 Q123.448 505.649 127.962 505.649 Q132.504 505.649 134.761 501.222 Q137.047 496.766 137.047 487.883 Q137.047 478.971 134.761 474.544 Q132.504 470.088 127.962 470.088 M127.962 465.458 Q135.224 465.458 139.044 471.216 Q142.892 476.946 142.892 487.883 Q142.892 498.791 139.044 504.55 Q135.224 510.279 127.962 510.279 Q120.699 510.279 116.851 504.55 Q113.031 498.791 113.031 487.883 Q113.031 476.946 116.851 471.216 Q120.699 465.458 127.962 465.458 Z" fill="#000000" fill-rule="evenodd" fill-opacity="1" /><path clip-path="url(#clip390)" d="M165.664 470.088 Q161.15 470.088 158.864 474.544 Q156.607 478.971 156.607 487.883 Q156.607 496.766 158.864 501.222 Q161.15 505.649 165.664 505.649 Q170.207 505.649 172.464 501.222 Q174.75 496.766 174.75 487.883 Q174.75 478.971 172.464 474.544 Q170.207 470.088 165.664 470.088 M165.664 465.458 Q172.927 465.458 176.746 471.216 Q180.594 476.946 180.594 487.883 Q180.594 498.791 176.746 504.55 Q172.927 510.279 165.664 510.279 Q158.401 510.279 154.553 504.55 Q150.734 498.791 150.734 487.883 Q150.734 476.946 154.553 471.216 Q158.401 465.458 165.664 465.458 Z" fill="#000000" fill-rule="evenodd" fill-opacity="1" /><path clip-path="url(#clip390)" d="M72.6668 363.147 Q68.1529 363.147 65.8671 367.603 Q63.6101 372.03 63.6101 380.942 Q63.6101 389.825 65.8671 394.281 Q68.1529 398.708 72.6668 398.708 Q77.2096 398.708 79.4665 394.281 Q81.7524 389.825 81.7524 380.942 Q81.7524 372.03 79.4665 367.603 Q77.2096 363.147 72.6668 363.147 M72.6668 358.518 Q79.9295 358.518 83.7489 364.276 Q87.5973 370.005 87.5973 380.942 Q87.5973 391.851 83.7489 397.609 Q79.9295 403.338 72.6668 403.338 Q65.4041 403.338 61.5558 397.609 Q57.7363 391.851 57.7363 380.942 Q57.7363 370.005 61.5558 364.276 Q65.4041 358.518 72.6668 358.518 Z" fill="#000000" fill-rule="evenodd" fill-opacity="1" /><path clip-path="url(#clip390)" d="M97.8692 395.149 L103.975 395.149 L103.975 402.499 L97.8692 402.499 L97.8692 395.149 Z" fill="#000000" fill-rule="evenodd" fill-opacity="1" /><path clip-path="url(#clip390)" d="M121.741 397.58 L142.14 397.58 L142.14 402.499 L114.709 402.499 L114.709 397.58 Q118.037 394.137 123.766 388.35 Q129.524 382.534 131 380.855 Q133.807 377.702 134.906 375.531 Q136.035 373.332 136.035 371.22 Q136.035 367.777 133.604 365.607 Q131.202 363.437 127.325 363.437 Q124.576 363.437 121.509 364.391 Q118.471 365.346 114.999 367.285 L114.999 361.382 Q118.529 359.964 121.596 359.241 Q124.663 358.518 127.209 358.518 Q133.922 358.518 137.915 361.874 Q141.908 365.231 141.908 370.844 Q141.908 373.506 140.896 375.908 Q139.912 378.28 137.279 381.521 Q136.555 382.36 132.678 386.382 Q128.801 390.375 121.741 397.58 Z" fill="#000000" fill-rule="evenodd" fill-opacity="1" /><path clip-path="url(#clip390)" d="M154.466 359.299 L177.412 359.299 L177.412 364.218 L159.819 364.218 L159.819 374.808 Q161.092 374.374 162.365 374.172 Q163.639 373.94 164.912 373.94 Q172.145 373.94 176.37 377.904 Q180.594 381.868 180.594 388.639 Q180.594 395.612 176.254 399.49 Q171.914 403.338 164.015 403.338 Q161.295 403.338 158.459 402.875 Q155.652 402.412 152.643 401.486 L152.643 395.612 Q155.247 397.03 158.025 397.725 Q160.803 398.419 163.899 398.419 Q168.905 398.419 171.827 395.786 Q174.75 393.153 174.75 388.639 Q174.75 384.125 171.827 381.492 Q168.905 378.859 163.899 378.859 Q161.555 378.859 159.211 379.38 Q156.897 379.901 154.466 381 L154.466 359.299 Z" fill="#000000" fill-rule="evenodd" fill-opacity="1" /><path clip-path="url(#clip390)" d="M71.4226 256.207 Q66.9087 256.207 64.6229 260.663 Q62.3659 265.09 62.3659 274.002 Q62.3659 282.885 64.6229 287.341 Q66.9087 291.768 71.4226 291.768 Q75.9654 291.768 78.2223 287.341 Q80.5082 282.885 80.5082 274.002 Q80.5082 265.09 78.2223 260.663 Q75.9654 256.207 71.4226 256.207 M71.4226 251.577 Q78.6853 251.577 82.5047 257.335 Q86.3531 263.064 86.3531 274.002 Q86.3531 284.91 82.5047 290.668 Q78.6853 296.397 71.4226 296.397 Q64.1599 296.397 60.3115 290.668 Q56.4921 284.91 56.4921 274.002 Q56.4921 263.064 60.3115 257.335 Q64.1599 251.577 71.4226 251.577 Z" fill="#000000" fill-rule="evenodd" fill-opacity="1" /><path clip-path="url(#clip390)" d="M96.625 288.209 L102.73 288.209 L102.73 295.558 L96.625 295.558 L96.625 288.209 Z" fill="#000000" fill-rule="evenodd" fill-opacity="1" /><path clip-path="url(#clip390)" d="M115.52 252.358 L138.465 252.358 L138.465 257.277 L120.873 257.277 L120.873 267.867 Q122.146 267.433 123.419 267.231 Q124.692 266.999 125.965 266.999 Q133.199 266.999 137.423 270.963 Q141.648 274.928 141.648 281.698 Q141.648 288.672 137.308 292.549 Q132.967 296.397 125.068 296.397 Q122.348 296.397 119.513 295.934 Q116.706 295.471 113.697 294.546 L113.697 288.672 Q116.301 290.09 119.079 290.784 Q121.856 291.478 124.952 291.478 Q129.958 291.478 132.881 288.845 Q135.803 286.212 135.803 281.698 Q135.803 277.185 132.881 274.551 Q129.958 271.918 124.952 271.918 Q122.609 271.918 120.265 272.439 Q117.95 272.96 115.52 274.06 L115.52 252.358 Z" fill="#000000" fill-rule="evenodd" fill-opacity="1" /><path clip-path="url(#clip390)" d="M165.664 256.207 Q161.15 256.207 158.864 260.663 Q156.607 265.09 156.607 274.002 Q156.607 282.885 158.864 287.341 Q161.15 291.768 165.664 291.768 Q170.207 291.768 172.464 287.341 Q174.75 282.885 174.75 274.002 Q174.75 265.09 172.464 260.663 Q170.207 256.207 165.664 256.207 M165.664 251.577 Q172.927 251.577 176.746 257.335 Q180.594 263.064 180.594 274.002 Q180.594 284.91 176.746 290.668 Q172.927 296.397 165.664 296.397 Q158.401 296.397 154.553 290.668 Q150.734 284.91 150.734 274.002 Q150.734 263.064 154.553 257.335 Q158.401 251.577 165.664 251.577 Z" fill="#000000" fill-rule="evenodd" fill-opacity="1" /><path clip-path="url(#clip390)" d="M72.6668 149.266 Q68.1529 149.266 65.8671 153.722 Q63.6101 158.149 63.6101 167.061 Q63.6101 175.944 65.8671 180.4 Q68.1529 184.827 72.6668 184.827 Q77.2096 184.827 79.4665 180.4 Q81.7524 175.944 81.7524 167.061 Q81.7524 158.149 79.4665 153.722 Q77.2096 149.266 72.6668 149.266 M72.6668 144.636 Q79.9295 144.636 83.7489 150.394 Q87.5973 156.124 87.5973 167.061 Q87.5973 177.97 83.7489 183.728 Q79.9295 189.457 72.6668 189.457 Q65.4041 189.457 61.5558 183.728 Q57.7363 177.97 57.7363 167.061 Q57.7363 156.124 61.5558 150.394 Q65.4041 144.636 72.6668 144.636 Z" fill="#000000" fill-rule="evenodd" fill-opacity="1" /><path clip-path="url(#clip390)" d="M97.8692 181.268 L103.975 181.268 L103.975 188.618 L97.8692 188.618 L97.8692 181.268 Z" fill="#000000" fill-rule="evenodd" fill-opacity="1" /><path clip-path="url(#clip390)" d="M115.23 145.418 L143.008 145.418 L143.008 147.906 L127.325 188.618 L121.22 188.618 L135.977 150.337 L115.23 150.337 L115.23 145.418 Z" fill="#000000" fill-rule="evenodd" fill-opacity="1" /><path clip-path="url(#clip390)" d="M154.466 145.418 L177.412 145.418 L177.412 150.337 L159.819 150.337 L159.819 160.927 Q161.092 160.493 162.365 160.29 Q163.639 160.059 164.912 160.059 Q172.145 160.059 176.37 164.023 Q180.594 167.987 180.594 174.758 Q180.594 181.731 176.254 185.608 Q171.914 189.457 164.015 189.457 Q161.295 189.457 158.459 188.994 Q155.652 188.531 152.643 187.605 L152.643 181.731 Q155.247 183.149 158.025 183.843 Q160.803 184.538 163.899 184.538 Q168.905 184.538 171.827 181.905 Q174.75 179.272 174.75 174.758 Q174.75 170.244 171.827 167.611 Q168.905 164.978 163.899 164.978 Q161.555 164.978 159.211 165.499 Q156.897 166.019 154.466 167.119 L154.466 145.418 Z" fill="#000000" fill-rule="evenodd" fill-opacity="1" /><path clip-path="url(#clip390)" d="M59.9354 76.758 L69.484 76.758 L69.484 43.801 L59.0963 45.8843 L59.0963 40.5603 L69.4261 38.477 L75.271 38.477 L75.271 76.758 L84.8195 76.758 L84.8195 81.677 L59.9354 81.677 L59.9354 76.758 Z" fill="#000000" fill-rule="evenodd" fill-opacity="1" /><path clip-path="url(#clip390)" d="M96.625 74.3275 L102.73 74.3275 L102.73 81.677 L96.625 81.677 L96.625 74.3275 Z" fill="#000000" fill-rule="evenodd" fill-opacity="1" /><path clip-path="url(#clip390)" d="M127.962 42.3253 Q123.448 42.3253 121.162 46.7813 Q118.905 51.2084 118.905 60.1204 Q118.905 69.0034 121.162 73.4594 Q123.448 77.8865 127.962 77.8865 Q132.504 77.8865 134.761 73.4594 Q137.047 69.0034 137.047 60.1204 Q137.047 51.2084 134.761 46.7813 Q132.504 42.3253 127.962 42.3253 M127.962 37.6957 Q135.224 37.6957 139.044 43.4538 Q142.892 49.1829 142.892 60.1204 Q142.892 71.0289 139.044 76.787 Q135.224 82.5161 127.962 82.5161 Q120.699 82.5161 116.851 76.787 Q113.031 71.0289 113.031 60.1204 Q113.031 49.1829 116.851 43.4538 Q120.699 37.6957 127.962 37.6957 Z" fill="#000000" fill-rule="evenodd" fill-opacity="1" /><path clip-path="url(#clip390)" d="M165.664 42.3253 Q161.15 42.3253 158.864 46.7813 Q156.607 51.2084 156.607 60.1204 Q156.607 69.0034 158.864 73.4594 Q161.15 77.8865 165.664 77.8865 Q170.207 77.8865 172.464 73.4594 Q174.75 69.0034 174.75 60.1204 Q174.75 51.2084 172.464 46.7813 Q170.207 42.3253 165.664 42.3253 M165.664 37.6957 Q172.927 37.6957 176.746 43.4538 Q180.594 49.1829 180.594 60.1204 Q180.594 71.0289 176.746 76.787 Q172.927 82.5161 165.664 82.5161 Q158.401 82.5161 154.553 76.787 Q150.734 71.0289 150.734 60.1204 Q150.734 49.1829 154.553 43.4538 Q158.401 37.6957 165.664 37.6957 Z" fill="#000000" fill-rule="evenodd" fill-opacity="1" /><polyline clip-path="url(#clip392)" style="stroke:#ff00ff; stroke-linecap:round; stroke-linejoin:round; stroke-width:16; stroke-opacity:1; fill:none" points="
  207.066,274.065 214.037,274.147 221.008,274.244 227.98,274.348 234.951,274.46 241.922,274.58 248.893,274.709 255.865,274.848 262.836,274.997 269.807,275.158 
  276.778,275.331 283.75,275.517 290.721,275.717 297.692,275.933 304.663,276.166 311.635,276.416 318.606,276.686 325.577,276.976 332.549,277.289 339.52,277.626 
  346.491,277.989 353.462,278.38 360.434,278.8 367.405,279.253 374.376,279.74 381.347,280.264 388.319,280.827 395.29,281.433 402.261,282.083 409.233,282.782 
  416.204,283.532 423.175,284.337 430.146,285.2 437.118,286.125 444.089,287.116 451.06,288.175 458.031,289.308 465.003,290.518 471.974,291.81 478.945,293.187 
  485.916,294.653 492.888,296.212 499.859,297.869 506.83,299.627 513.802,301.489 520.773,303.459 527.744,305.539 534.715,307.732 541.687,310.041 548.658,312.466 
  555.629,315.008 562.6,317.669 569.572,320.446 576.543,323.339 583.514,326.345 590.485,329.462 597.457,332.684 604.428,336.007 611.399,339.425 618.371,342.931 
  625.342,346.516 632.313,350.172 639.284,353.889 646.256,357.657 653.227,361.464 660.198,365.298 667.169,369.149 674.141,373.004 681.112,376.851 688.083,380.678 
  695.054,384.472 702.026,388.224 708.997,391.922 715.968,395.555 722.94,399.114 729.911,402.592 736.882,405.979 743.853,409.27 750.825,412.459 757.796,415.54 
  764.767,418.51 771.738,421.367 778.71,424.107 785.681,426.731 792.652,429.237 799.623,431.627 806.595,433.901 813.566,436.06 820.537,438.108 827.509,440.046 
  834.48,441.878 841.451,443.607 848.422,445.236 855.394,446.769 862.365,448.21 869.336,449.563 876.307,450.831 883.279,452.019 890.25,453.131 897.221,454.169 
  904.193,455.139 911.164,456.043 918.135,456.886 925.106,457.67 932.078,458.4 939.049,459.078 946.02,459.707 952.991,460.29 959.963,460.83 966.934,461.33 
  973.905,461.792 980.876,462.218 987.848,462.611 994.819,462.973 1001.79,463.307 1008.76,463.612 1015.73,463.893 1022.7,464.15 1029.68,464.385 1036.65,464.599 
  1043.62,464.795 1050.59,464.972 1057.56,465.133 1064.53,465.279 1071.5,465.41 1078.47,465.528 1085.45,465.634 1092.42,465.729 1099.39,465.813 1106.36,465.887 
  1113.33,465.952 1120.3,466.009 1127.27,466.058 1134.24,466.1 1141.22,466.136 1148.19,466.165 1155.16,466.189 1162.13,466.208 1169.1,466.222 1176.07,466.231 
  1183.04,466.237 1190.01,466.239 1196.99,466.238 1203.96,466.233 1210.93,466.226 1217.9,466.215 1224.87,466.203 1231.84,466.188 1238.81,466.172 1245.78,466.153 
  1252.76,466.133 
  "/>
<polyline clip-path="url(#clip392)" style="stroke:#2000d4; stroke-linecap:round; stroke-linejoin:round; stroke-width:16; stroke-opacity:1; fill:none" stroke-dasharray="8, 16" points="
  207.066,487.84 214.037,487.84 221.008,487.84 227.98,487.84 234.951,487.84 241.922,487.84 248.893,487.84 255.865,487.84 262.836,487.84 269.807,487.839 
  276.778,487.839 283.75,487.839 290.721,487.839 297.692,487.839 304.663,487.839 311.635,487.839 318.606,487.839 325.577,487.839 332.549,487.839 339.52,487.839 
  346.491,487.839 353.462,487.839 360.434,487.839 367.405,487.839 374.376,487.839 381.347,487.839 388.319,487.839 395.29,487.839 402.261,487.838 409.233,487.838 
  416.204,487.838 423.175,487.838 430.146,487.838 437.118,487.838 444.089,487.837 451.06,487.837 458.031,487.837 465.003,487.837 471.974,487.836 478.945,487.836 
  485.916,487.836 492.888,487.835 499.859,487.835 506.83,487.834 513.802,487.834 520.773,487.833 527.744,487.833 534.715,487.832 541.687,487.832 548.658,487.831 
  555.629,487.83 562.6,487.829 569.572,487.829 576.543,487.828 583.514,487.827 590.485,487.826 597.457,487.825 604.428,487.824 611.399,487.823 618.371,487.822 
  625.342,487.821 632.313,487.82 639.284,487.819 646.256,487.818 653.227,487.816 660.198,487.815 667.169,487.814 674.141,487.813 681.112,487.811 688.083,487.81 
  695.054,487.809 702.026,487.807 708.997,487.806 715.968,487.805 722.94,487.803 729.911,487.802 736.882,487.801 743.853,487.799 750.825,487.798 757.796,487.797 
  764.767,487.795 771.738,487.794 778.71,487.793 785.681,487.791 792.652,487.79 799.623,487.789 806.595,487.787 813.566,487.786 820.537,487.785 827.509,487.784 
  834.48,487.782 841.451,487.781 848.422,487.78 855.394,487.778 862.365,487.777 869.336,487.776 876.307,487.774 883.279,487.773 890.25,487.772 897.221,487.77 
  904.193,487.769 911.164,487.768 918.135,487.767 925.106,487.765 932.078,487.764 939.049,487.763 946.02,487.761 952.991,487.76 959.963,487.758 966.934,487.757 
  973.905,487.756 980.876,487.754 987.848,487.753 994.819,487.752 1001.79,487.75 1008.76,487.749 1015.73,487.747 1022.7,487.746 1029.68,487.744 1036.65,487.743 
  1043.62,487.742 1050.59,487.74 1057.56,487.739 1064.53,487.737 1071.5,487.736 1078.47,487.734 1085.45,487.732 1092.42,487.731 1099.39,487.729 1106.36,487.728 
  1113.33,487.726 1120.3,487.725 1127.27,487.723 1134.24,487.721 1141.22,487.72 1148.19,487.718 1155.16,487.716 1162.13,487.715 1169.1,487.713 1176.07,487.711 
  1183.04,487.709 1190.01,487.708 1196.99,487.706 1203.96,487.704 1210.93,487.702 1217.9,487.7 1224.87,487.699 1231.84,487.697 1238.81,487.695 1245.78,487.693 
  1252.76,487.691 
  "/>
<polyline clip-path="url(#clip392)" style="stroke:#008900; stroke-linecap:round; stroke-linejoin:round; stroke-width:16; stroke-opacity:1; fill:none" stroke-dasharray="64, 40" points="
  207.066,487.84 214.037,487.84 221.008,487.839 227.98,487.839 234.951,487.839 241.922,487.839 248.893,487.839 255.865,487.839 262.836,487.839 269.807,487.839 
  276.778,487.839 283.75,487.839 290.721,487.839 297.692,487.839 304.663,487.839 311.635,487.839 318.606,487.839 325.577,487.839 332.549,487.839 339.52,487.839 
  346.491,487.839 353.462,487.839 360.434,487.839 367.405,487.839 374.376,487.839 381.347,487.839 388.319,487.839 395.29,487.839 402.261,487.839 409.233,487.839 
  416.204,487.839 423.175,487.839 430.146,487.839 437.118,487.839 444.089,487.839 451.06,487.838 458.031,487.838 465.003,487.838 471.974,487.838 478.945,487.838 
  485.916,487.838 492.888,487.838 499.859,487.838 506.83,487.838 513.802,487.837 520.773,487.837 527.744,487.837 534.715,487.837 541.687,487.837 548.658,487.837 
  555.629,487.836 562.6,487.836 569.572,487.836 576.543,487.836 583.514,487.835 590.485,487.835 597.457,487.835 604.428,487.834 611.399,487.834 618.371,487.834 
  625.342,487.833 632.313,487.833 639.284,487.833 646.256,487.832 653.227,487.832 660.198,487.831 667.169,487.831 674.141,487.83 681.112,487.83 688.083,487.829 
  695.054,487.828 702.026,487.828 708.997,487.827 715.968,487.826 722.94,487.825 729.911,487.825 736.882,487.824 743.853,487.823 750.825,487.822 757.796,487.821 
  764.767,487.82 771.738,487.819 778.71,487.818 785.681,487.816 792.652,487.815 799.623,487.814 806.595,487.812 813.566,487.81 820.537,487.809 827.509,487.807 
  834.48,487.805 841.451,487.803 848.422,487.801 855.394,487.798 862.365,487.796 869.336,487.793 876.307,487.791 883.279,487.788 890.25,487.785 897.221,487.781 
  904.193,487.778 911.164,487.774 918.135,487.771 925.106,487.767 932.078,487.763 939.049,487.758 946.02,487.754 952.991,487.749 959.963,487.744 966.934,487.739 
  973.905,487.733 980.876,487.728 987.848,487.722 994.819,487.716 1001.79,487.71 1008.76,487.703 1015.73,487.696 1022.7,487.69 1029.68,487.682 1036.65,487.675 
  1043.62,487.668 1050.59,487.66 1057.56,487.652 1064.53,487.644 1071.5,487.636 1078.47,487.627 1085.45,487.619 1092.42,487.61 1099.39,487.601 1106.36,487.592 
  1113.33,487.583 1120.3,487.574 1127.27,487.564 1134.24,487.554 1141.22,487.545 1148.19,487.535 1155.16,487.525 1162.13,487.515 1169.1,487.505 1176.07,487.494 
  1183.04,487.484 1190.01,487.473 1196.99,487.463 1203.96,487.452 1210.93,487.441 1217.9,487.43 1224.87,487.42 1231.84,487.409 1238.81,487.398 1245.78,487.386 
  1252.76,487.375 
  "/>
<polyline clip-path="url(#clip392)" style="stroke:#008900; stroke-linecap:round; stroke-linejoin:round; stroke-width:16; stroke-opacity:1; fill:none" stroke-dasharray="8, 16" points="
  207.066,487.84 214.037,487.84 221.008,487.839 227.98,487.839 234.951,487.839 241.922,487.839 248.893,487.839 255.865,487.839 262.836,487.839 269.807,487.839 
  276.778,487.839 283.75,487.839 290.721,487.839 297.692,487.839 304.663,487.839 311.635,487.839 318.606,487.839 325.577,487.839 332.549,487.839 339.52,487.839 
  346.491,487.839 353.462,487.839 360.434,487.839 367.405,487.839 374.376,487.839 381.347,487.839 388.319,487.839 395.29,487.838 402.261,487.838 409.233,487.838 
  416.204,487.838 423.175,487.838 430.146,487.838 437.118,487.838 444.089,487.838 451.06,487.838 458.031,487.837 465.003,487.837 471.974,487.837 478.945,487.837 
  485.916,487.837 492.888,487.836 499.859,487.836 506.83,487.836 513.802,487.836 520.773,487.835 527.744,487.835 534.715,487.835 541.687,487.834 548.658,487.834 
  555.629,487.834 562.6,487.833 569.572,487.833 576.543,487.833 583.514,487.832 590.485,487.832 597.457,487.831 604.428,487.831 611.399,487.83 618.371,487.83 
  625.342,487.829 632.313,487.829 639.284,487.828 646.256,487.828 653.227,487.827 660.198,487.826 667.169,487.826 674.141,487.825 681.112,487.825 688.083,487.824 
  695.054,487.823 702.026,487.823 708.997,487.822 715.968,487.821 722.94,487.821 729.911,487.82 736.882,487.82 743.853,487.819 750.825,487.818 757.796,487.818 
  764.767,487.817 771.738,487.817 778.71,487.816 785.681,487.815 792.652,487.815 799.623,487.814 806.595,487.814 813.566,487.813 820.537,487.813 827.509,487.812 
  834.48,487.811 841.451,487.811 848.422,487.81 855.394,487.81 862.365,487.809 869.336,487.809 876.307,487.809 883.279,487.808 890.25,487.808 897.221,487.807 
  904.193,487.807 911.164,487.807 918.135,487.806 925.106,487.806 932.078,487.806 939.049,487.806 946.02,487.806 952.991,487.805 959.963,487.805 966.934,487.805 
  973.905,487.805 980.876,487.805 987.848,487.805 994.819,487.805 1001.79,487.805 1008.76,487.805 1015.73,487.805 1022.7,487.806 1029.68,487.806 1036.65,487.806 
  1043.62,487.806 1050.59,487.806 1057.56,487.807 1064.53,487.807 1071.5,487.807 1078.47,487.807 1085.45,487.808 1092.42,487.808 1099.39,487.808 1106.36,487.809 
  1113.33,487.809 1120.3,487.81 1127.27,487.81 1134.24,487.81 1141.22,487.811 1148.19,487.811 1155.16,487.811 1162.13,487.812 1169.1,487.812 1176.07,487.812 
  1183.04,487.813 1190.01,487.813 1196.99,487.814 1203.96,487.814 1210.93,487.814 1217.9,487.815 1224.87,487.815 1231.84,487.815 1238.81,487.816 1245.78,487.816 
  1252.76,487.816 
  "/>
<polyline clip-path="url(#clip392)" style="stroke:#2000d4; stroke-linecap:round; stroke-linejoin:round; stroke-width:16; stroke-opacity:1; fill:none" points="
  207.066,487.412 214.037,487.081 221.008,486.681 227.98,486.251 234.951,485.79 241.922,485.295 248.893,484.763 255.865,484.192 262.836,483.579 269.807,482.921 
  276.778,482.213 283.75,481.452 290.721,480.634 297.692,479.755 304.663,478.811 311.635,477.796 318.606,476.706 325.577,475.534 332.549,474.276 339.52,472.925 
  346.491,471.475 353.462,469.919 360.434,468.251 367.405,466.462 374.376,464.546 381.347,462.494 388.319,460.298 395.29,457.95 402.261,455.442 409.233,452.764 
  416.204,449.908 423.175,446.866 430.146,443.627 437.118,440.184 444.089,436.529 451.06,432.652 458.031,428.547 465.003,424.208 471.974,419.626 478.945,414.798 
  485.916,409.719 492.888,404.386 499.859,398.797 506.83,392.952 513.802,386.852 520.773,380.502 527.744,373.906 534.715,367.071 541.687,360.007 548.658,352.726 
  555.629,345.241 562.6,337.567 569.572,329.723 576.543,321.729 583.514,313.605 590.485,305.375 597.457,297.063 604.428,288.694 611.399,280.295 618.371,271.891 
  625.342,263.509 632.313,255.175 639.284,246.916 646.256,238.754 653.227,230.714 660.198,222.818 667.169,215.086 674.141,207.537 681.112,200.187 688.083,193.051 
  695.054,186.14 702.026,179.465 708.997,173.034 715.968,166.852 722.94,160.925 729.911,155.253 736.882,149.837 743.853,144.677 750.825,139.769 757.796,135.109 
  764.767,130.693 771.738,126.514 778.71,122.566 785.681,118.841 792.652,115.331 799.623,112.029 806.595,108.924 813.566,106.01 820.537,103.276 827.509,100.714 
  834.48,98.3149 841.451,96.0704 848.422,93.9718 855.394,92.0109 862.365,90.1797 869.336,88.4705 876.307,86.8758 883.279,85.3886 890.25,84.002 897.221,82.7097 
  904.193,81.5054 911.164,80.3834 918.135,79.3381 925.106,78.3645 932.078,77.4575 939.049,76.6127 946.02,75.8258 952.991,75.0927 959.963,74.4097 966.934,73.7733 
  973.905,73.1801 980.876,72.6271 987.848,72.1116 994.819,71.6308 1001.79,71.1822 1008.76,70.7636 1015.73,70.3729 1022.7,70.0081 1029.68,69.6674 1036.65,69.349 
  1043.62,69.0515 1050.59,68.7733 1057.56,68.5131 1064.53,68.2697 1071.5,68.042 1078.47,67.8287 1085.45,67.6291 1092.42,67.4421 1099.39,67.2669 1106.36,67.1027 
  1113.33,66.9488 1120.3,66.8046 1127.27,66.6693 1134.24,66.5425 1141.22,66.4236 1148.19,66.3122 1155.16,66.2076 1162.13,66.1096 1169.1,66.0178 1176.07,65.9317 
  1183.04,65.851 1190.01,65.7755 1196.99,65.7047 1203.96,65.6386 1210.93,65.5767 1217.9,65.5189 1224.87,65.4649 1231.84,65.4146 1238.81,65.3677 1245.78,65.3242 
  1252.76,65.2837 
  "/>
<polyline clip-path="url(#clip392)" style="stroke:#008900; stroke-linecap:round; stroke-linejoin:round; stroke-width:16; stroke-opacity:1; fill:none" points="
  207.066,487.626 214.037,487.58 221.008,487.558 227.98,487.534 234.951,487.508 241.922,487.48 248.893,487.45 255.865,487.417 262.836,487.381 269.807,487.343 
  276.778,487.302 283.75,487.258 290.721,487.21 297.692,487.158 304.663,487.102 311.635,487.042 318.606,486.977 325.577,486.908 332.549,486.833 339.52,486.752 
  346.491,486.665 353.462,486.572 360.434,486.471 367.405,486.364 374.376,486.248 381.347,486.124 388.319,485.991 395.29,485.849 402.261,485.697 409.233,485.534 
  416.204,485.36 423.175,485.175 430.146,484.978 437.118,484.767 444.089,484.544 451.06,484.307 458.031,484.055 465.003,483.789 471.974,483.507 478.945,483.21 
  485.916,482.897 492.888,482.567 499.859,482.222 506.83,481.86 513.802,481.481 520.773,481.086 527.744,480.674 534.715,480.247 541.687,479.804 548.658,479.346 
  555.629,478.874 562.6,478.388 569.572,477.89 576.543,477.38 583.514,476.859 590.485,476.329 597.457,475.791 604.428,475.245 611.399,474.694 618.371,474.139 
  625.342,473.58 632.313,473.02 639.284,472.459 646.256,471.899 653.227,471.34 660.198,470.784 667.169,470.232 674.141,469.684 681.112,469.141 688.083,468.604 
  695.054,468.073 702.026,467.548 708.997,467.03 715.968,466.518 722.94,466.013 729.911,465.515 736.882,465.024 743.853,464.539 750.825,464.06 757.796,463.588 
  764.767,463.121 771.738,462.661 778.71,462.206 785.681,461.757 792.652,461.314 799.623,460.877 806.595,460.446 813.566,460.022 820.537,459.605 827.509,459.196 
  834.48,458.796 841.451,458.405 848.422,458.025 855.394,457.656 862.365,457.301 869.336,456.959 876.307,456.633 883.279,456.324 890.25,456.034 897.221,455.763 
  904.193,455.514 911.164,455.287 918.135,455.083 925.106,454.905 932.078,454.753 939.049,454.627 946.02,454.529 952.991,454.459 959.963,454.418 966.934,454.405 
  973.905,454.421 980.876,454.466 987.848,454.539 994.819,454.639 1001.79,454.766 1008.76,454.919 1015.73,455.098 1022.7,455.3 1029.68,455.526 1036.65,455.773 
  1043.62,456.04 1050.59,456.326 1057.56,456.629 1064.53,456.948 1071.5,457.282 1078.47,457.629 1085.45,457.988 1092.42,458.357 1099.39,458.734 1106.36,459.12 
  1113.33,459.512 1120.3,459.909 1127.27,460.311 1134.24,460.715 1141.22,461.122 1148.19,461.53 1155.16,461.938 1162.13,462.346 1169.1,462.752 1176.07,463.157 
  1183.04,463.559 1190.01,463.959 1196.99,464.355 1203.96,464.747 1210.93,465.135 1217.9,465.519 1224.87,465.898 1231.84,466.271 1238.81,466.64 1245.78,467.002 
  1252.76,467.36 
  "/>
<polyline clip-path="url(#clip392)" style="stroke:#7f7f7f; stroke-linecap:round; stroke-linejoin:round; stroke-width:16; stroke-opacity:1; fill:none" points="
  207.066,60.077 214.037,133.824 221.008,190.511 227.98,224.245 234.951,246.985 241.922,263.481 248.893,276.04 255.865,285.939 262.836,293.945 269.807,300.551 
  276.778,306.092 283.75,310.802 290.721,314.851 297.692,318.366 304.663,321.445 311.635,324.162 318.606,326.578 325.577,328.741 332.549,330.69 339.52,332.459 
  346.491,334.074 353.462,335.558 360.434,336.932 367.405,338.211 374.376,339.412 381.347,340.547 388.319,341.627 395.29,342.663 402.261,343.664 409.233,344.639 
  416.204,345.595 423.175,346.54 430.146,347.479 437.118,348.42 444.089,349.367 451.06,350.327 458.031,351.303 465.003,352.302 471.974,353.326 478.945,354.382 
  485.916,355.472 492.888,356.6 499.859,357.771 506.83,358.986 513.802,360.249 520.773,361.562 527.744,362.929 534.715,364.35 541.687,365.828 548.658,367.363 
  555.629,368.957 562.6,370.609 569.572,372.321 576.543,374.091 583.514,375.919 590.485,377.803 597.457,379.741 604.428,381.732 611.399,383.772 618.371,385.859 
  625.342,387.989 632.313,390.158 639.284,392.363 646.256,394.598 653.227,396.86 660.198,399.144 667.169,401.445 674.141,403.757 681.112,406.077 688.083,408.399 
  695.054,410.718 702.026,413.03 708.997,415.33 715.968,417.613 722.94,419.876 729.911,422.115 736.882,424.326 743.853,426.505 750.825,428.649 757.796,430.755 
  764.767,432.821 771.738,434.844 778.71,436.823 785.681,438.755 792.652,440.638 799.623,442.472 806.595,444.256 813.566,445.988 820.537,447.669 827.509,449.297 
  834.48,450.872 841.451,452.395 848.422,453.866 855.394,455.285 862.365,456.652 869.336,457.968 876.307,459.234 883.279,460.451 890.25,461.619 897.221,462.74 
  904.193,463.814 911.164,464.844 918.135,465.829 925.106,466.772 932.078,467.674 939.049,468.536 946.02,469.359 952.991,470.144 959.963,470.894 966.934,471.609 
  973.905,472.29 980.876,472.94 987.848,473.558 994.819,474.147 1001.79,474.708 1008.76,475.242 1015.73,475.75 1022.7,476.233 1029.68,476.693 1036.65,477.131 
  1043.62,477.547 1050.59,477.942 1057.56,478.318 1064.53,478.676 1071.5,479.016 1078.47,479.34 1085.45,479.648 1092.42,479.941 1099.39,480.22 1106.36,480.485 
  1113.33,480.738 1120.3,480.978 1127.27,481.207 1134.24,481.425 1141.22,481.633 1148.19,481.831 1155.16,482.02 1162.13,482.201 1169.1,482.373 1176.07,482.537 
  1183.04,482.694 1190.01,482.844 1196.99,482.987 1203.96,483.124 1210.93,483.255 1217.9,483.38 1224.87,483.5 1231.84,483.615 1238.81,483.725 1245.78,483.831 
  1252.76,483.932 
  "/>
<polyline clip-path="url(#clip392)" style="stroke:#895f55; stroke-linecap:round; stroke-linejoin:round; stroke-width:16; stroke-opacity:1; fill:none" points="
  214.037,487.416 221.008,487.098 227.98,486.714 234.951,486.303 241.922,485.861 248.893,485.386 255.865,484.877 262.836,484.329 269.807,483.742 276.778,483.11 
  283.75,482.431 290.721,481.702 297.692,480.918 304.663,480.075 311.635,479.169 318.606,478.196 325.577,477.151 332.549,476.027 339.52,474.821 346.491,473.525 
  353.462,472.135 360.434,470.643 367.405,469.043 374.376,467.328 381.347,465.49 388.319,463.522 395.29,461.417 402.261,459.165 409.233,456.76 416.204,454.192 
  423.175,451.453 430.146,448.535 437.118,445.429 444.089,442.128 451.06,438.622 458.031,434.904 465.003,430.968 471.974,426.806 478.945,422.412 485.916,417.782 
  492.888,412.911 499.859,407.797 506.83,402.437 513.802,396.831 520.773,390.982 527.744,384.891 534.715,378.565 541.687,372.011 548.658,365.236 555.629,358.253 
  562.6,351.074 569.572,343.715 576.543,336.192 583.514,328.524 590.485,320.733 597.457,312.84 604.428,304.868 611.399,296.841 618.371,288.785 625.342,280.725 
  632.313,272.686 639.284,264.693 646.256,256.77 653.227,248.942 660.198,241.23 667.169,233.656 674.141,226.24 681.112,218.998 688.083,211.947 695.054,205.101 
  702.026,198.472 708.997,192.068 715.968,185.898 722.94,179.968 729.911,174.281 736.882,168.839 743.853,163.643 750.825,158.692 757.796,153.982 764.767,149.511 
  771.738,145.273 778.71,141.263 785.681,137.475 792.652,133.9 799.623,130.533 806.595,127.364 813.566,124.385 820.537,121.589 827.509,118.967 834.48,116.51 
  841.451,114.211 848.422,112.06 855.394,110.049 862.365,108.172 869.336,106.42 876.307,104.786 883.279,103.264 890.25,101.845 897.221,100.525 904.193,99.2957 
  911.164,98.1529 918.135,97.0905 925.106,96.1034 932.078,95.1866 939.049,94.3355 946.02,93.5458 952.991,92.8134 959.963,92.1343 966.934,91.505 973.905,90.9222 
  980.876,90.3825 987.848,89.8831 994.819,89.4212 1001.79,88.9941 1008.76,88.5994 1015.73,88.2349 1022.7,87.8984 1029.68,87.588 1036.65,87.3018 1043.62,87.038 
  1050.59,86.7951 1057.56,86.5716 1064.53,86.366 1071.5,86.1771 1078.47,86.0037 1085.45,85.8446 1092.42,85.6988 1099.39,85.5653 1106.36,85.4433 1113.33,85.3318 
  1120.3,85.2302 1127.27,85.1376 1134.24,85.0535 1141.22,84.9772 1148.19,84.9081 1155.16,84.8458 1162.13,84.7897 1169.1,84.7393 1176.07,84.6944 1183.04,84.6544 
  1190.01,84.619 1196.99,84.5879 1203.96,84.5608 1210.93,84.5374 1217.9,84.5174 1224.87,84.5007 1231.84,84.4869 1238.81,84.476 1245.78,84.4676 1252.76,84.4617 
  
  "/>
<polyline clip-path="url(#clip392)" style="stroke:#2000d4; stroke-linecap:round; stroke-linejoin:round; stroke-width:16; stroke-opacity:1; fill:none" stroke-dasharray="64, 40" points="
  207.066,487.84 214.037,487.84 221.008,487.84 227.98,487.84 234.951,487.84 241.922,487.84 248.893,487.84 255.865,487.84 262.836,487.84 269.807,487.84 
  276.778,487.839 283.75,487.839 290.721,487.839 297.692,487.839 304.663,487.839 311.635,487.839 318.606,487.839 325.577,487.839 332.549,487.839 339.52,487.839 
  346.491,487.839 353.462,487.839 360.434,487.839 367.405,487.839 374.376,487.839 381.347,487.839 388.319,487.839 395.29,487.839 402.261,487.839 409.233,487.839 
  416.204,487.839 423.175,487.839 430.146,487.839 437.118,487.839 444.089,487.839 451.06,487.839 458.031,487.839 465.003,487.838 471.974,487.838 478.945,487.838 
  485.916,487.838 492.888,487.838 499.859,487.838 506.83,487.838 513.802,487.838 520.773,487.838 527.744,487.838 534.715,487.837 541.687,487.837 548.658,487.837 
  555.629,487.837 562.6,487.837 569.572,487.837 576.543,487.837 583.514,487.836 590.485,487.836 597.457,487.836 604.428,487.836 611.399,487.836 618.371,487.836 
  625.342,487.835 632.313,487.835 639.284,487.835 646.256,487.835 653.227,487.835 660.198,487.835 667.169,487.834 674.141,487.834 681.112,487.834 688.083,487.834 
  695.054,487.834 702.026,487.834 708.997,487.834 715.968,487.833 722.94,487.833 729.911,487.833 736.882,487.833 743.853,487.833 750.825,487.833 757.796,487.833 
  764.767,487.833 771.738,487.833 778.71,487.833 785.681,487.832 792.652,487.832 799.623,487.832 806.595,487.832 813.566,487.832 820.537,487.832 827.509,487.832 
  834.48,487.832 841.451,487.832 848.422,487.832 855.394,487.832 862.365,487.832 869.336,487.832 876.307,487.832 883.279,487.831 890.25,487.831 897.221,487.831 
  904.193,487.831 911.164,487.831 918.135,487.831 925.106,487.831 932.078,487.831 939.049,487.831 946.02,487.831 952.991,487.831 959.963,487.831 966.934,487.83 
  973.905,487.83 980.876,487.83 987.848,487.83 994.819,487.83 1001.79,487.83 1008.76,487.83 1015.73,487.83 1022.7,487.829 1029.68,487.829 1036.65,487.829 
  1043.62,487.829 1050.59,487.829 1057.56,487.829 1064.53,487.829 1071.5,487.828 1078.47,487.828 1085.45,487.828 1092.42,487.828 1099.39,487.828 1106.36,487.827 
  1113.33,487.827 1120.3,487.827 1127.27,487.827 1134.24,487.827 1141.22,487.826 1148.19,487.826 1155.16,487.826 1162.13,487.826 1169.1,487.825 1176.07,487.825 
  1183.04,487.825 1190.01,487.825 1196.99,487.824 1203.96,487.824 1210.93,487.824 1217.9,487.823 1224.87,487.823 1231.84,487.823 1238.81,487.823 1245.78,487.822 
  1252.76,487.822 
  "/>
<polyline clip-path="url(#clip392)" style="stroke:#ff221c; stroke-linecap:round; stroke-linejoin:round; stroke-width:16; stroke-opacity:1; fill:none" points="
  207.066,316.82 214.037,316.756 221.008,316.724 227.98,316.706 234.951,316.693 241.922,316.684 248.893,316.676 255.865,316.667 262.836,316.659 269.807,316.65 
  276.778,316.641 283.75,316.631 290.721,316.62 297.692,316.608 304.663,316.595 311.635,316.582 318.606,316.567 325.577,316.551 332.549,316.533 339.52,316.514 
  346.491,316.494 353.462,316.472 360.434,316.449 367.405,316.423 374.376,316.395 381.347,316.365 388.319,316.333 395.29,316.298 402.261,316.261 409.233,316.221 
  416.204,316.177 423.175,316.13 430.146,316.079 437.118,316.025 444.089,315.966 451.06,315.903 458.031,315.835 465.003,315.763 471.974,315.684 478.945,315.6 
  485.916,315.51 492.888,315.413 499.859,315.309 506.83,315.198 513.802,315.079 520.773,314.952 527.744,314.816 534.715,314.671 541.687,314.516 548.658,314.351 
  555.629,314.175 562.6,313.987 569.572,313.788 576.543,313.576 583.514,313.35 590.485,313.111 597.457,312.858 604.428,312.589 611.399,312.305 618.371,312.004 
  625.342,311.685 632.313,311.349 639.284,310.993 646.256,310.618 653.227,310.222 660.198,309.803 667.169,309.362 674.141,308.897 681.112,308.406 688.083,307.888 
  695.054,307.342 702.026,306.766 708.997,306.158 715.968,305.517 722.94,304.841 729.911,304.128 736.882,303.376 743.853,302.582 750.825,301.745 757.796,300.862 
  764.767,299.931 771.738,298.948 778.71,297.913 785.681,296.823 792.652,295.674 799.623,294.465 806.595,293.194 813.566,291.859 820.537,290.457 827.509,288.987 
  834.48,287.447 841.451,285.837 848.422,284.154 855.394,282.398 862.365,280.57 869.336,278.669 876.307,276.695 883.279,274.65 890.25,272.534 897.221,270.349 
  904.193,268.097 911.164,265.782 918.135,263.404 925.106,260.969 932.078,258.479 939.049,255.939 946.02,253.352 952.991,250.723 959.963,248.057 966.934,245.358 
  973.905,242.632 980.876,239.883 987.848,237.117 994.819,234.339 1001.79,231.553 1008.76,228.764 1015.73,225.978 1022.7,223.198 1029.68,220.429 1036.65,217.676 
  1043.62,214.942 1050.59,212.231 1057.56,209.546 1064.53,206.89 1071.5,204.266 1078.47,201.678 1085.45,199.126 1092.42,196.614 1099.39,194.143 1106.36,191.714 
  1113.33,189.329 1120.3,186.989 1127.27,184.695 1134.24,182.447 1141.22,180.246 1148.19,178.093 1155.16,175.986 1162.13,173.927 1169.1,171.915 1176.07,169.95 
  1183.04,168.031 1190.01,166.158 1196.99,164.331 1203.96,162.549 1210.93,160.811 1217.9,159.117 1224.87,157.465 1231.84,155.855 1238.81,154.286 1245.78,152.757 
  1252.76,151.267 
  "/>
<polyline clip-path="url(#clip392)" style="stroke:#000000; stroke-linecap:round; stroke-linejoin:round; stroke-width:16; stroke-opacity:1; fill:none" stroke-dasharray="8, 16" points="
  207.066,60.077 214.037,60.5004 221.008,60.8889 227.98,61.3372 234.951,61.8236 241.922,62.3466 248.893,62.9082 255.865,63.5111 262.836,64.1586 269.807,64.8542 
  276.778,65.6014 283.75,66.4044 290.721,67.2673 297.692,68.1947 304.663,69.1913 311.635,70.2623 318.606,71.4132 325.577,72.6497 332.549,73.978 339.52,75.4046 
  346.491,76.9362 353.462,78.5802 360.434,80.3441 367.405,82.2357 374.376,84.2634 381.347,86.4359 388.319,88.7619 395.29,91.2508 402.261,93.912 409.233,96.7551 
  416.204,99.7902 423.175,103.027 430.146,106.476 437.118,110.146 444.089,114.047 451.06,118.19 458.031,122.582 465.003,127.233 471.974,132.151 478.945,137.341 
  485.916,142.811 492.888,148.564 499.859,154.605 506.83,160.935 513.802,167.555 520.773,174.462 527.744,181.652 534.715,189.119 541.687,196.856 548.658,204.851 
  555.629,213.09 562.6,221.559 569.572,230.238 576.543,239.108 583.514,248.146 590.485,257.328 597.457,266.626 604.428,276.013 611.399,285.459 618.371,294.936 
  625.342,304.412 632.313,313.856 639.284,323.24 646.256,332.531 653.227,341.702 660.198,350.726 667.169,359.575 674.141,368.227 681.112,376.657 688.083,384.846 
  695.054,392.776 702.026,400.43 708.997,407.795 715.968,414.858 722.94,421.609 729.911,428.04 736.882,434.144 743.853,439.916 750.825,445.352 757.796,450.447 
  764.767,455.199 771.738,459.606 778.71,463.666 785.681,467.378 792.652,470.741 799.623,473.757 806.595,476.427 813.566,478.757 820.537,480.755 827.509,482.435 
  834.48,483.816 841.451,484.922 848.422,485.782 855.394,486.431 862.365,486.905 869.336,487.239 876.307,487.465 883.279,487.614 890.25,487.708 897.221,487.765 
  904.193,487.798 911.164,487.818 918.135,487.828 925.106,487.834 932.078,487.837 939.049,487.838 946.02,487.839 952.991,487.839 959.963,487.839 966.934,487.839 
  973.905,487.84 980.876,487.84 987.848,487.84 994.819,487.84 1001.79,487.84 1008.76,487.84 1015.73,487.84 1022.7,487.84 1029.68,487.84 1036.65,487.84 
  1043.62,487.84 1050.59,487.84 1057.56,487.84 1064.53,487.84 1071.5,487.84 1078.47,487.84 1085.45,487.84 1092.42,487.84 1099.39,487.84 1106.36,487.84 
  1113.33,487.84 1120.3,487.84 1127.27,487.84 1134.24,487.84 1141.22,487.84 1148.19,487.84 1155.16,487.84 1162.13,487.84 1169.1,487.84 1176.07,487.84 
  1183.04,487.84 1190.01,487.84 1196.99,487.84 1203.96,487.84 1210.93,487.84 1217.9,487.84 1224.87,487.84 1231.84,487.84 1238.81,487.84 1245.78,487.84 
  1252.76,487.84 
  "/>
</svg>
