<?xml version="1.0" encoding="utf-8"?>
<svg xmlns="http://www.w3.org/2000/svg" xmlns:xlink="http://www.w3.org/1999/xlink" width="325" height="150" viewBox="0 0 1300 600">
<defs>
  <clipPath id="clip330">
    <rect x="0" y="0" width="1300" height="600"/>
  </clipPath>
</defs>
<path clip-path="url(#clip330)" d="
M0 600 L1300 600 L1300 0 L0 0  Z
  " fill="#ffffff" fill-rule="evenodd" fill-opacity="1"/>
<defs>
  <clipPath id="clip331">
    <rect x="260" y="0" width="911" height="600"/>
  </clipPath>
</defs>
<path clip-path="url(#clip330)" d="
M200.094 501.1 L1252.76 501.1 L1252.76 47.2441 L200.094 47.2441  Z
  " fill="#ffffff" fill-rule="evenodd" fill-opacity="1"/>
<defs>
  <clipPath id="clip332">
    <rect x="200" y="47" width="1054" height="455"/>
  </clipPath>
</defs>
<polyline clip-path="url(#clip330)" style="stroke:#000000; stroke-linecap:butt; stroke-linejoin:round; stroke-width:4; stroke-opacity:1; fill:none" points="
  200.094,501.1 1252.76,501.1 
  "/>
<polyline clip-path="url(#clip330)" style="stroke:#000000; stroke-linecap:butt; stroke-linejoin:round; stroke-width:4; stroke-opacity:1; fill:none" points="
  200.094,501.1 200.094,482.203 
  "/>
<polyline clip-path="url(#clip330)" style="stroke:#000000; stroke-linecap:butt; stroke-linejoin:round; stroke-width:4; stroke-opacity:1; fill:none" points="
  548.658,501.1 548.658,482.203 
  "/>
<polyline clip-path="url(#clip330)" style="stroke:#000000; stroke-linecap:butt; stroke-linejoin:round; stroke-width:4; stroke-opacity:1; fill:none" points="
  897.221,501.1 897.221,482.203 
  "/>
<polyline clip-path="url(#clip330)" style="stroke:#000000; stroke-linecap:butt; stroke-linejoin:round; stroke-width:4; stroke-opacity:1; fill:none" points="
  1245.78,501.1 1245.78,482.203 
  "/>
<path clip-path="url(#clip330)" d="M200.094 526.149 Q195.581 526.149 193.295 530.605 Q191.038 535.032 191.038 543.944 Q191.038 552.827 193.295 557.283 Q195.581 561.71 200.094 561.71 Q204.637 561.71 206.894 557.283 Q209.18 552.827 209.18 543.944 Q209.18 535.032 206.894 530.605 Q204.637 526.149 200.094 526.149 M200.094 521.519 Q207.357 521.519 211.177 527.277 Q215.025 533.006 215.025 543.944 Q215.025 554.852 211.177 560.61 Q207.357 566.339 200.094 566.339 Q192.832 566.339 188.983 560.61 Q185.164 554.852 185.164 543.944 Q185.164 533.006 188.983 527.277 Q192.832 521.519 200.094 521.519 Z" fill="#000000" fill-rule="evenodd" fill-opacity="1" /><path clip-path="url(#clip330)" d="M517.032 522.3 L539.977 522.3 L539.977 527.219 L522.385 527.219 L522.385 537.809 Q523.658 537.375 524.931 537.173 Q526.204 536.941 527.477 536.941 Q534.711 536.941 538.936 540.905 Q543.16 544.87 543.16 551.64 Q543.16 558.614 538.82 562.491 Q534.48 566.339 526.58 566.339 Q523.861 566.339 521.025 565.876 Q518.218 565.413 515.209 564.487 L515.209 558.614 Q517.813 560.031 520.591 560.726 Q523.369 561.42 526.465 561.42 Q531.47 561.42 534.393 558.787 Q537.315 556.154 537.315 551.64 Q537.315 547.126 534.393 544.493 Q531.47 541.86 526.465 541.86 Q524.121 541.86 521.777 542.381 Q519.462 542.902 517.032 544.001 L517.032 522.3 Z" fill="#000000" fill-rule="evenodd" fill-opacity="1" /><path clip-path="url(#clip330)" d="M567.176 526.149 Q562.662 526.149 560.377 530.605 Q558.12 535.032 558.12 543.944 Q558.12 552.827 560.377 557.283 Q562.662 561.71 567.176 561.71 Q571.719 561.71 573.976 557.283 Q576.262 552.827 576.262 543.944 Q576.262 535.032 573.976 530.605 Q571.719 526.149 567.176 526.149 M567.176 521.519 Q574.439 521.519 578.258 527.277 Q582.107 533.006 582.107 543.944 Q582.107 554.852 578.258 560.61 Q574.439 566.339 567.176 566.339 Q559.914 566.339 556.065 560.61 Q552.246 554.852 552.246 543.944 Q552.246 533.006 556.065 527.277 Q559.914 521.519 567.176 521.519 Z" fill="#000000" fill-rule="evenodd" fill-opacity="1" /><path clip-path="url(#clip330)" d="M846.73 560.581 L856.278 560.581 L856.278 527.624 L845.891 529.708 L845.891 524.384 L856.22 522.3 L862.065 522.3 L862.065 560.581 L871.614 560.581 L871.614 565.5 L846.73 565.5 L846.73 560.581 Z" fill="#000000" fill-rule="evenodd" fill-opacity="1" /><path clip-path="url(#clip330)" d="M895.919 526.149 Q891.405 526.149 889.119 530.605 Q886.863 535.032 886.863 543.944 Q886.863 552.827 889.119 557.283 Q891.405 561.71 895.919 561.71 Q900.462 561.71 902.719 557.283 Q905.005 552.827 905.005 543.944 Q905.005 535.032 902.719 530.605 Q900.462 526.149 895.919 526.149 M895.919 521.519 Q903.182 521.519 907.001 527.277 Q910.85 533.006 910.85 543.944 Q910.85 554.852 907.001 560.61 Q903.182 566.339 895.919 566.339 Q888.656 566.339 884.808 560.61 Q880.989 554.852 880.989 543.944 Q880.989 533.006 884.808 527.277 Q888.656 521.519 895.919 521.519 Z" fill="#000000" fill-rule="evenodd" fill-opacity="1" /><path clip-path="url(#clip330)" d="M933.622 526.149 Q929.108 526.149 926.822 530.605 Q924.565 535.032 924.565 543.944 Q924.565 552.827 926.822 557.283 Q929.108 561.71 933.622 561.71 Q938.164 561.71 940.421 557.283 Q942.707 552.827 942.707 543.944 Q942.707 535.032 940.421 530.605 Q938.164 526.149 933.622 526.149 M933.622 521.519 Q940.884 521.519 944.704 527.277 Q948.552 533.006 948.552 543.944 Q948.552 554.852 944.704 560.61 Q940.884 566.339 933.622 566.339 Q926.359 566.339 922.51 560.61 Q918.691 554.852 918.691 543.944 Q918.691 533.006 922.51 527.277 Q926.359 521.519 933.622 521.519 Z" fill="#000000" fill-rule="evenodd" fill-opacity="1" /><path clip-path="url(#clip330)" d="M1195.29 560.581 L1204.84 560.581 L1204.84 527.624 L1194.45 529.708 L1194.45 524.384 L1204.78 522.3 L1210.63 522.3 L1210.63 560.581 L1220.18 560.581 L1220.18 565.5 L1195.29 565.5 L1195.29 560.581 Z" fill="#000000" fill-rule="evenodd" fill-opacity="1" /><path clip-path="url(#clip330)" d="M1232.04 522.3 L1254.99 522.3 L1254.99 527.219 L1237.39 527.219 L1237.39 537.809 Q1238.67 537.375 1239.94 537.173 Q1241.21 536.941 1242.49 536.941 Q1249.72 536.941 1253.94 540.905 Q1258.17 544.87 1258.17 551.64 Q1258.17 558.614 1253.83 562.491 Q1249.49 566.339 1241.59 566.339 Q1238.87 566.339 1236.03 565.876 Q1233.23 565.413 1230.22 564.487 L1230.22 558.614 Q1232.82 560.031 1235.6 560.726 Q1238.38 561.42 1241.47 561.42 Q1246.48 561.42 1249.4 558.787 Q1252.32 556.154 1252.32 551.64 Q1252.32 547.126 1249.4 544.493 Q1246.48 541.86 1241.47 541.86 Q1239.13 541.86 1236.79 542.381 Q1234.47 542.902 1232.04 544.001 L1232.04 522.3 Z" fill="#000000" fill-rule="evenodd" fill-opacity="1" /><path clip-path="url(#clip330)" d="M1282.18 526.149 Q1277.67 526.149 1275.39 530.605 Q1273.13 535.032 1273.13 543.944 Q1273.13 552.827 1275.39 557.283 Q1277.67 561.71 1282.18 561.71 Q1286.73 561.71 1288.98 557.283 Q1291.27 552.827 1291.27 543.944 Q1291.27 535.032 1288.98 530.605 Q1286.73 526.149 1282.18 526.149 M1282.18 521.519 Q1289.45 521.519 1293.27 527.277 Q1297.12 533.006 1297.12 543.944 Q1297.12 554.852 1293.27 560.61 Q1289.45 566.339 1282.18 566.339 Q1274.92 566.339 1271.07 560.61 Q1267.25 554.852 1267.25 543.944 Q1267.25 533.006 1271.07 527.277 Q1274.92 521.519 1282.18 521.519 Z" fill="#000000" fill-rule="evenodd" fill-opacity="1" /><polyline clip-path="url(#clip330)" style="stroke:#000000; stroke-linecap:butt; stroke-linejoin:round; stroke-width:4; stroke-opacity:1; fill:none" points="
  200.094,501.1 200.094,47.2441 
  "/>
<polyline clip-path="url(#clip330)" style="stroke:#000000; stroke-linecap:butt; stroke-linejoin:round; stroke-width:4; stroke-opacity:1; fill:none" points="
  200.094,487.84 218.992,487.84 
  "/>
<polyline clip-path="url(#clip330)" style="stroke:#000000; stroke-linecap:butt; stroke-linejoin:round; stroke-width:4; stroke-opacity:1; fill:none" points="
  200.094,380.899 218.992,380.899 
  "/>
<polyline clip-path="url(#clip330)" style="stroke:#000000; stroke-linecap:butt; stroke-linejoin:round; stroke-width:4; stroke-opacity:1; fill:none" points="
  200.094,273.958 218.992,273.958 
  "/>
<polyline clip-path="url(#clip330)" style="stroke:#000000; stroke-linecap:butt; stroke-linejoin:round; stroke-width:4; stroke-opacity:1; fill:none" points="
  200.094,167.018 218.992,167.018 
  "/>
<polyline clip-path="url(#clip330)" style="stroke:#000000; stroke-linecap:butt; stroke-linejoin:round; stroke-width:4; stroke-opacity:1; fill:none" points="
  200.094,60.077 218.992,60.077 
  "/>
<path clip-path="url(#clip330)" d="M71.4226 470.088 Q66.9087 470.088 64.6229 474.544 Q62.3659 478.971 62.3659 487.883 Q62.3659 496.766 64.6229 501.222 Q66.9087 505.649 71.4226 505.649 Q75.9654 505.649 78.2223 501.222 Q80.5082 496.766 80.5082 487.883 Q80.5082 478.971 78.2223 474.544 Q75.9654 470.088 71.4226 470.088 M71.4226 465.458 Q78.6853 465.458 82.5047 471.216 Q86.3531 476.946 86.3531 487.883 Q86.3531 498.791 82.5047 504.55 Q78.6853 510.279 71.4226 510.279 Q64.1599 510.279 60.3115 504.55 Q56.4921 498.791 56.4921 487.883 Q56.4921 476.946 60.3115 471.216 Q64.1599 465.458 71.4226 465.458 Z" fill="#000000" fill-rule="evenodd" fill-opacity="1" /><path clip-path="url(#clip330)" d="M96.625 502.09 L102.73 502.09 L102.73 509.44 L96.625 509.44 L96.625 502.09 Z" fill="#000000" fill-rule="evenodd" fill-opacity="1" /><path clip-path="url(#clip330)" d="M127.962 470.088 Q123.448 470.088 121.162 474.544 Q118.905 478.971 118.905 487.883 Q118.905 496.766 121.162 501.222 Q123.448 505.649 127.962 505.649 Q132.504 505.649 134.761 501.222 Q137.047 496.766 137.047 487.883 Q137.047 478.971 134.761 474.544 Q132.504 470.088 127.962 470.088 M127.962 465.458 Q135.224 465.458 139.044 471.216 Q142.892 476.946 142.892 487.883 Q142.892 498.791 139.044 504.55 Q135.224 510.279 127.962 510.279 Q120.699 510.279 116.851 504.55 Q113.031 498.791 113.031 487.883 Q113.031 476.946 116.851 471.216 Q120.699 465.458 127.962 465.458 Z" fill="#000000" fill-rule="evenodd" fill-opacity="1" /><path clip-path="url(#clip330)" d="M165.664 470.088 Q161.15 470.088 158.864 474.544 Q156.607 478.971 156.607 487.883 Q156.607 496.766 158.864 501.222 Q161.15 505.649 165.664 505.649 Q170.207 505.649 172.464 501.222 Q174.75 496.766 174.75 487.883 Q174.75 478.971 172.464 474.544 Q170.207 470.088 165.664 470.088 M165.664 465.458 Q172.927 465.458 176.746 471.216 Q180.594 476.946 180.594 487.883 Q180.594 498.791 176.746 504.55 Q172.927 510.279 165.664 510.279 Q158.401 510.279 154.553 504.55 Q150.734 498.791 150.734 487.883 Q150.734 476.946 154.553 471.216 Q158.401 465.458 165.664 465.458 Z" fill="#000000" fill-rule="evenodd" fill-opacity="1" /><path clip-path="url(#clip330)" d="M72.6668 363.147 Q68.1529 363.147 65.8671 367.603 Q63.6101 372.03 63.6101 380.942 Q63.6101 389.825 65.8671 394.281 Q68.1529 398.708 72.6668 398.708 Q77.2096 398.708 79.4665 394.281 Q81.7524 389.825 81.7524 380.942 Q81.7524 372.03 79.4665 367.603 Q77.2096 363.147 72.6668 363.147 M72.6668 358.518 Q79.9295 358.518 83.7489 364.276 Q87.5973 370.005 87.5973 380.942 Q87.5973 391.851 83.7489 397.609 Q79.9295 403.338 72.6668 403.338 Q65.4041 403.338 61.5558 397.609 Q57.7363 391.851 57.7363 380.942 Q57.7363 370.005 61.5558 364.276 Q65.4041 358.518 72.6668 358.518 Z" fill="#000000" fill-rule="evenodd" fill-opacity="1" /><path clip-path="url(#clip330)" d="M97.8692 395.149 L103.975 395.149 L103.975 402.499 L97.8692 402.499 L97.8692 395.149 Z" fill="#000000" fill-rule="evenodd" fill-opacity="1" /><path clip-path="url(#clip330)" d="M121.741 397.58 L142.14 397.58 L142.14 402.499 L114.709 402.499 L114.709 397.58 Q118.037 394.137 123.766 388.35 Q129.524 382.534 131 380.855 Q133.807 377.702 134.906 375.531 Q136.035 373.332 136.035 371.22 Q136.035 367.777 133.604 365.607 Q131.202 363.437 127.325 363.437 Q124.576 363.437 121.509 364.391 Q118.471 365.346 114.999 367.285 L114.999 361.382 Q118.529 359.964 121.596 359.241 Q124.663 358.518 127.209 358.518 Q133.922 358.518 137.915 361.874 Q141.908 365.231 141.908 370.844 Q141.908 373.506 140.896 375.908 Q139.912 378.28 137.279 381.521 Q136.555 382.36 132.678 386.382 Q128.801 390.375 121.741 397.58 Z" fill="#000000" fill-rule="evenodd" fill-opacity="1" /><path clip-path="url(#clip330)" d="M154.466 359.299 L177.412 359.299 L177.412 364.218 L159.819 364.218 L159.819 374.808 Q161.092 374.374 162.365 374.172 Q163.639 373.94 164.912 373.94 Q172.145 373.94 176.37 377.904 Q180.594 381.868 180.594 388.639 Q180.594 395.612 176.254 399.49 Q171.914 403.338 164.015 403.338 Q161.295 403.338 158.459 402.875 Q155.652 402.412 152.643 401.486 L152.643 395.612 Q155.247 397.03 158.025 397.725 Q160.803 398.419 163.899 398.419 Q168.905 398.419 171.827 395.786 Q174.75 393.153 174.75 388.639 Q174.75 384.125 171.827 381.492 Q168.905 378.859 163.899 378.859 Q161.555 378.859 159.211 379.38 Q156.897 379.901 154.466 381 L154.466 359.299 Z" fill="#000000" fill-rule="evenodd" fill-opacity="1" /><path clip-path="url(#clip330)" d="M71.4226 256.207 Q66.9087 256.207 64.6229 260.663 Q62.3659 265.09 62.3659 274.002 Q62.3659 282.885 64.6229 287.341 Q66.9087 291.768 71.4226 291.768 Q75.9654 291.768 78.2223 287.341 Q80.5082 282.885 80.5082 274.002 Q80.5082 265.09 78.2223 260.663 Q75.9654 256.207 71.4226 256.207 M71.4226 251.577 Q78.6853 251.577 82.5047 257.335 Q86.3531 263.064 86.3531 274.002 Q86.3531 284.91 82.5047 290.668 Q78.6853 296.397 71.4226 296.397 Q64.1599 296.397 60.3115 290.668 Q56.4921 284.91 56.4921 274.002 Q56.4921 263.064 60.3115 257.335 Q64.1599 251.577 71.4226 251.577 Z" fill="#000000" fill-rule="evenodd" fill-opacity="1" /><path clip-path="url(#clip330)" d="M96.625 288.209 L102.73 288.209 L102.73 295.558 L96.625 295.558 L96.625 288.209 Z" fill="#000000" fill-rule="evenodd" fill-opacity="1" /><path clip-path="url(#clip330)" d="M115.52 252.358 L138.465 252.358 L138.465 257.277 L120.873 257.277 L120.873 267.867 Q122.146 267.433 123.419 267.231 Q124.692 266.999 125.965 266.999 Q133.199 266.999 137.423 270.963 Q141.648 274.928 141.648 281.698 Q141.648 288.672 137.308 292.549 Q132.967 296.397 125.068 296.397 Q122.348 296.397 119.513 295.934 Q116.706 295.471 113.697 294.546 L113.697 288.672 Q116.301 290.09 119.079 290.784 Q121.856 291.478 124.952 291.478 Q129.958 291.478 132.881 288.845 Q135.803 286.212 135.803 281.698 Q135.803 277.185 132.881 274.551 Q129.958 271.918 124.952 271.918 Q122.609 271.918 120.265 272.439 Q117.95 272.96 115.52 274.06 L115.52 252.358 Z" fill="#000000" fill-rule="evenodd" fill-opacity="1" /><path clip-path="url(#clip330)" d="M165.664 256.207 Q161.15 256.207 158.864 260.663 Q156.607 265.09 156.607 274.002 Q156.607 282.885 158.864 287.341 Q161.15 291.768 165.664 291.768 Q170.207 291.768 172.464 287.341 Q174.75 282.885 174.75 274.002 Q174.75 265.09 172.464 260.663 Q170.207 256.207 165.664 256.207 M165.664 251.577 Q172.927 251.577 176.746 257.335 Q180.594 263.064 180.594 274.002 Q180.594 284.91 176.746 290.668 Q172.927 296.397 165.664 296.397 Q158.401 296.397 154.553 290.668 Q150.734 284.91 150.734 274.002 Q150.734 263.064 154.553 257.335 Q158.401 251.577 165.664 251.577 Z" fill="#000000" fill-rule="evenodd" fill-opacity="1" /><path clip-path="url(#clip330)" d="M72.6668 149.266 Q68.1529 149.266 65.8671 153.722 Q63.6101 158.149 63.6101 167.061 Q63.6101 175.944 65.8671 180.4 Q68.1529 184.827 72.6668 184.827 Q77.2096 184.827 79.4665 180.4 Q81.7524 175.944 81.7524 167.061 Q81.7524 158.149 79.4665 153.722 Q77.2096 149.266 72.6668 149.266 M72.6668 144.636 Q79.9295 144.636 83.7489 150.394 Q87.5973 156.124 87.5973 167.061 Q87.5973 177.97 83.7489 183.728 Q79.9295 189.457 72.6668 189.457 Q65.4041 189.457 61.5558 183.728 Q57.7363 177.97 57.7363 167.061 Q57.7363 156.124 61.5558 150.394 Q65.4041 144.636 72.6668 144.636 Z" fill="#000000" fill-rule="evenodd" fill-opacity="1" /><path clip-path="url(#clip330)" d="M97.8692 181.268 L103.975 181.268 L103.975 188.618 L97.8692 188.618 L97.8692 181.268 Z" fill="#000000" fill-rule="evenodd" fill-opacity="1" /><path clip-path="url(#clip330)" d="M115.23 145.418 L143.008 145.418 L143.008 147.906 L127.325 188.618 L121.22 188.618 L135.977 150.337 L115.23 150.337 L115.23 145.418 Z" fill="#000000" fill-rule="evenodd" fill-opacity="1" /><path clip-path="url(#clip330)" d="M154.466 145.418 L177.412 145.418 L177.412 150.337 L159.819 150.337 L159.819 160.927 Q161.092 160.493 162.365 160.29 Q163.639 160.059 164.912 160.059 Q172.145 160.059 176.37 164.023 Q180.594 167.987 180.594 174.758 Q180.594 181.731 176.254 185.608 Q171.914 189.457 164.015 189.457 Q161.295 189.457 158.459 188.994 Q155.652 188.531 152.643 187.605 L152.643 181.731 Q155.247 183.149 158.025 183.843 Q160.803 184.538 163.899 184.538 Q168.905 184.538 171.827 181.905 Q174.75 179.272 174.75 174.758 Q174.75 170.244 171.827 167.611 Q168.905 164.978 163.899 164.978 Q161.555 164.978 159.211 165.499 Q156.897 166.019 154.466 167.119 L154.466 145.418 Z" fill="#000000" fill-rule="evenodd" fill-opacity="1" /><path clip-path="url(#clip330)" d="M59.9354 76.758 L69.484 76.758 L69.484 43.801 L59.0963 45.8843 L59.0963 40.5603 L69.4261 38.477 L75.271 38.477 L75.271 76.758 L84.8195 76.758 L84.8195 81.677 L59.9354 81.677 L59.9354 76.758 Z" fill="#000000" fill-rule="evenodd" fill-opacity="1" /><path clip-path="url(#clip330)" d="M96.625 74.3275 L102.73 74.3275 L102.73 81.677 L96.625 81.677 L96.625 74.3275 Z" fill="#000000" fill-rule="evenodd" fill-opacity="1" /><path clip-path="url(#clip330)" d="M127.962 42.3253 Q123.448 42.3253 121.162 46.7813 Q118.905 51.2084 118.905 60.1204 Q118.905 69.0034 121.162 73.4594 Q123.448 77.8865 127.962 77.8865 Q132.504 77.8865 134.761 73.4594 Q137.047 69.0034 137.047 60.1204 Q137.047 51.2084 134.761 46.7813 Q132.504 42.3253 127.962 42.3253 M127.962 37.6957 Q135.224 37.6957 139.044 43.4538 Q142.892 49.1829 142.892 60.1204 Q142.892 71.0289 139.044 76.787 Q135.224 82.5161 127.962 82.5161 Q120.699 82.5161 116.851 76.787 Q113.031 71.0289 113.031 60.1204 Q113.031 49.1829 116.851 43.4538 Q120.699 37.6957 127.962 37.6957 Z" fill="#000000" fill-rule="evenodd" fill-opacity="1" /><path clip-path="url(#clip330)" d="M165.664 42.3253 Q161.15 42.3253 158.864 46.7813 Q156.607 51.2084 156.607 60.1204 Q156.607 69.0034 158.864 73.4594 Q161.15 77.8865 165.664 77.8865 Q170.207 77.8865 172.464 73.4594 Q174.75 69.0034 174.75 60.1204 Q174.75 51.2084 172.464 46.7813 Q170.207 42.3253 165.664 42.3253 M165.664 37.6957 Q172.927 37.6957 176.746 43.4538 Q180.594 49.1829 180.594 60.1204 Q180.594 71.0289 176.746 76.787 Q172.927 82.5161 165.664 82.5161 Q158.401 82.5161 154.553 76.787 Q150.734 71.0289 150.734 60.1204 Q150.734 49.1829 154.553 43.4538 Q158.401 37.6957 165.664 37.6957 Z" fill="#000000" fill-rule="evenodd" fill-opacity="1" /><polyline clip-path="url(#clip332)" style="stroke:#ff00ff; stroke-linecap:butt; stroke-linejoin:round; stroke-width:16; stroke-opacity:1; fill:none" points="
  207.066,274.065 214.037,274.146 221.008,274.282 227.98,274.51 234.951,274.891 241.922,275.528 248.893,276.587 255.865,278.338 262.836,281.208 269.807,285.844 
  276.778,293.16 283.75,304.284 290.721,320.285 297.692,341.552 304.663,367.032 311.635,394.024 318.606,419.136 325.577,439.829 332.549,455.245 339.52,465.891 
  346.491,472.869 353.462,477.298 360.434,480.061 367.405,481.782 374.376,482.864 381.347,483.558 388.319,484.011 395.29,484.308 402.261,484.502 409.233,484.621 
  416.204,484.686 423.175,484.708 430.146,484.691 437.118,484.638 444.089,484.545 451.06,484.408 458.031,484.22 465.003,483.97 471.974,483.647 478.945,483.24 
  485.916,482.739 492.888,482.138 499.859,481.438 506.83,480.651 513.802,479.792 520.773,478.887 527.744,477.961 534.715,477.041 541.687,476.148 548.658,475.299 
  555.629,474.505 562.6,473.771 569.572,473.099 576.543,472.488 583.514,471.934 590.485,471.432 597.457,470.978 604.428,470.567 611.399,470.194 618.371,469.855 
  625.342,469.546 632.313,469.263 639.284,469.004 646.256,468.765 653.227,468.544 660.198,468.339 667.169,468.149 674.141,467.97 681.112,467.804 688.083,467.647 
  695.054,467.499 702.026,467.359 708.997,467.227 715.968,467.101 722.94,466.981 729.911,466.866 736.882,466.756 743.853,466.65 750.825,466.548 757.796,466.45 
  764.767,466.355 771.738,466.263 778.71,466.174 785.681,466.087 792.652,466.002 799.623,465.92 806.595,465.839 813.566,465.76 820.537,465.683 827.509,465.607 
  834.48,465.532 841.451,465.459 848.422,465.387 855.394,465.316 862.365,465.245 869.336,465.176 876.307,465.107 883.279,465.039 890.25,464.971 897.221,464.904 
  904.193,464.838 911.164,464.772 918.135,464.706 925.106,464.64 932.078,464.575 939.049,464.511 946.02,464.446 952.991,464.381 959.963,464.317 966.934,464.253 
  973.905,464.189 980.876,464.124 987.848,464.06 994.819,463.996 1001.79,463.932 1008.76,463.867 1015.73,463.803 1022.7,463.738 1029.68,463.673 1036.65,463.608 
  1043.62,463.543 1050.59,463.478 1057.56,463.412 1064.53,463.346 1071.5,463.28 1078.47,463.214 1085.45,463.147 1092.42,463.08 1099.39,463.013 1106.36,462.945 
  1113.33,462.877 1120.3,462.808 1127.27,462.739 1134.24,462.67 1141.22,462.6 1148.19,462.53 1155.16,462.459 1162.13,462.388 1169.1,462.316 1176.07,462.244 
  1183.04,462.171 1190.01,462.098 1196.99,462.025 1203.96,461.95 1210.93,461.875 1217.9,461.8 1224.87,461.724 1231.84,461.647 1238.81,461.57 1245.78,461.493 
  1252.76,461.414 
  "/>
<polyline clip-path="url(#clip332)" style="stroke:#2000d4; stroke-linecap:butt; stroke-linejoin:round; stroke-width:16; stroke-opacity:1; fill:none" stroke-dasharray="8, 16" points="
  207.066,487.84 214.037,487.84 221.008,487.84 227.98,487.84 234.951,487.84 241.922,487.84 248.893,487.839 255.865,487.839 262.836,487.839 269.807,487.839 
  276.778,487.839 283.75,487.838 290.721,487.838 297.692,487.837 304.663,487.836 311.635,487.835 318.606,487.833 325.577,487.833 332.549,487.832 339.52,487.831 
  346.491,487.83 353.462,487.83 360.434,487.829 367.405,487.829 374.376,487.828 381.347,487.827 388.319,487.827 395.29,487.826 402.261,487.826 409.233,487.825 
  416.204,487.825 423.175,487.824 430.146,487.823 437.118,487.823 444.089,487.822 451.06,487.822 458.031,487.821 465.003,487.82 471.974,487.82 478.945,487.819 
  485.916,487.818 492.888,487.818 499.859,487.817 506.83,487.817 513.802,487.816 520.773,487.815 527.744,487.815 534.715,487.814 541.687,487.813 548.658,487.812 
  555.629,487.812 562.6,487.811 569.572,487.81 576.543,487.81 583.514,487.809 590.485,487.808 597.457,487.807 604.428,487.807 611.399,487.806 618.371,487.805 
  625.342,487.804 632.313,487.804 639.284,487.803 646.256,487.802 653.227,487.801 660.198,487.8 667.169,487.8 674.141,487.799 681.112,487.798 688.083,487.797 
  695.054,487.796 702.026,487.795 708.997,487.794 715.968,487.794 722.94,487.793 729.911,487.792 736.882,487.791 743.853,487.79 750.825,487.789 757.796,487.788 
  764.767,487.787 771.738,487.786 778.71,487.785 785.681,487.784 792.652,487.783 799.623,487.782 806.595,487.781 813.566,487.78 820.537,487.779 827.509,487.778 
  834.48,487.777 841.451,487.776 848.422,487.775 855.394,487.774 862.365,487.773 869.336,487.772 876.307,487.771 883.279,487.77 890.25,487.768 897.221,487.767 
  904.193,487.766 911.164,487.765 918.135,487.764 925.106,487.763 932.078,487.761 939.049,487.76 946.02,487.759 952.991,487.758 959.963,487.756 966.934,487.755 
  973.905,487.754 980.876,487.753 987.848,487.751 994.819,487.75 1001.79,487.749 1008.76,487.747 1015.73,487.746 1022.7,487.745 1029.68,487.743 1036.65,487.742 
  1043.62,487.741 1050.59,487.739 1057.56,487.738 1064.53,487.736 1071.5,487.735 1078.47,487.733 1085.45,487.732 1092.42,487.73 1099.39,487.729 1106.36,487.727 
  1113.33,487.726 1120.3,487.724 1127.27,487.723 1134.24,487.721 1141.22,487.72 1148.19,487.718 1155.16,487.716 1162.13,487.715 1169.1,487.713 1176.07,487.711 
  1183.04,487.71 1190.01,487.708 1196.99,487.706 1203.96,487.704 1210.93,487.703 1217.9,487.701 1224.87,487.699 1231.84,487.697 1238.81,487.695 1245.78,487.694 
  1252.76,487.692 
  "/>
<polyline clip-path="url(#clip332)" style="stroke:#008900; stroke-linecap:butt; stroke-linejoin:round; stroke-width:16; stroke-opacity:1; fill:none" stroke-dasharray="64, 40" points="
  207.066,487.84 214.037,487.839 221.008,487.839 227.98,487.839 234.951,487.839 241.922,487.838 248.893,487.837 255.865,487.835 262.836,487.832 269.807,487.827 
  276.778,487.82 283.75,487.808 290.721,487.791 297.692,487.768 304.663,487.74 311.635,487.709 318.606,487.676 325.577,487.642 332.549,487.605 339.52,487.559 
  346.491,487.496 353.462,487.404 360.434,487.268 367.405,487.072 374.376,486.8 381.347,486.435 388.319,485.959 395.29,485.36 402.261,484.63 409.233,483.764 
  416.204,482.763 423.175,481.626 430.146,480.352 437.118,478.934 444.089,477.364 451.06,475.63 458.031,473.725 465.003,471.651 471.974,469.421 478.945,467.066 
  485.916,464.635 492.888,462.19 499.859,459.797 506.83,457.52 513.802,455.406 520.773,453.489 527.744,451.782 534.715,450.285 541.687,448.987 548.658,447.87 
  555.629,446.914 562.6,446.099 569.572,445.407 576.543,444.818 583.514,444.32 590.485,443.898 597.457,443.542 604.428,443.242 611.399,442.991 618.371,442.782 
  625.342,442.609 632.313,442.467 639.284,442.353 646.256,442.264 653.227,442.196 660.198,442.147 667.169,442.115 674.141,442.097 681.112,442.094 688.083,442.102 
  695.054,442.121 702.026,442.149 708.997,442.187 715.968,442.233 722.94,442.285 729.911,442.345 736.882,442.41 743.853,442.481 750.825,442.556 757.796,442.637 
  764.767,442.721 771.738,442.809 778.71,442.901 785.681,442.996 792.652,443.093 799.623,443.194 806.595,443.297 813.566,443.402 820.537,443.509 827.509,443.618 
  834.48,443.729 841.451,443.841 848.422,443.955 855.394,444.07 862.365,444.186 869.336,444.303 876.307,444.421 883.279,444.541 890.25,444.661 897.221,444.781 
  904.193,444.902 911.164,445.024 918.135,445.147 925.106,445.269 932.078,445.393 939.049,445.516 946.02,445.64 952.991,445.764 959.963,445.888 966.934,446.012 
  973.905,446.136 980.876,446.261 987.848,446.385 994.819,446.51 1001.79,446.634 1008.76,446.758 1015.73,446.883 1022.7,447.007 1029.68,447.131 1036.65,447.254 
  1043.62,447.378 1050.59,447.501 1057.56,447.624 1064.53,447.747 1071.5,447.87 1078.47,447.992 1085.45,448.114 1092.42,448.236 1099.39,448.357 1106.36,448.478 
  1113.33,448.598 1120.3,448.719 1127.27,448.839 1134.24,448.958 1141.22,449.077 1148.19,449.196 1155.16,449.314 1162.13,449.432 1169.1,449.549 1176.07,449.666 
  1183.04,449.782 1190.01,449.898 1196.99,450.014 1203.96,450.129 1210.93,450.243 1217.9,450.358 1224.87,450.471 1231.84,450.584 1238.81,450.697 1245.78,450.809 
  1252.76,450.92 
  "/>
<polyline clip-path="url(#clip332)" style="stroke:#008900; stroke-linecap:butt; stroke-linejoin:round; stroke-width:16; stroke-opacity:1; fill:none" stroke-dasharray="8, 16" points="
  207.066,487.84 214.037,487.839 221.008,487.839 227.98,487.839 234.951,487.839 241.922,487.838 248.893,487.837 255.865,487.836 262.836,487.833 269.807,487.829 
  276.778,487.822 283.75,487.812 290.721,487.797 297.692,487.777 304.663,487.754 311.635,487.728 318.606,487.705 325.577,487.684 332.549,487.668 339.52,487.655 
  346.491,487.644 353.462,487.632 360.434,487.62 367.405,487.605 374.376,487.589 381.347,487.573 388.319,487.558 395.29,487.544 402.261,487.533 409.233,487.525 
  416.204,487.52 423.175,487.517 430.146,487.518 437.118,487.521 444.089,487.527 451.06,487.535 458.031,487.545 465.003,487.557 471.974,487.571 478.945,487.586 
  485.916,487.602 492.888,487.619 499.859,487.635 506.83,487.651 513.802,487.666 520.773,487.679 527.744,487.691 534.715,487.702 541.687,487.711 548.658,487.719 
  555.629,487.725 562.6,487.731 569.572,487.736 576.543,487.74 583.514,487.744 590.485,487.747 597.457,487.75 604.428,487.752 611.399,487.754 618.371,487.756 
  625.342,487.758 632.313,487.759 639.284,487.761 646.256,487.762 653.227,487.763 660.198,487.764 667.169,487.765 674.141,487.765 681.112,487.766 688.083,487.767 
  695.054,487.767 702.026,487.768 708.997,487.768 715.968,487.769 722.94,487.769 729.911,487.77 736.882,487.77 743.853,487.77 750.825,487.771 757.796,487.771 
  764.767,487.771 771.738,487.771 778.71,487.772 785.681,487.772 792.652,487.772 799.623,487.772 806.595,487.772 813.566,487.773 820.537,487.773 827.509,487.773 
  834.48,487.773 841.451,487.773 848.422,487.773 855.394,487.773 862.365,487.773 869.336,487.774 876.307,487.774 883.279,487.774 890.25,487.774 897.221,487.774 
  904.193,487.774 911.164,487.774 918.135,487.774 925.106,487.774 932.078,487.774 939.049,487.774 946.02,487.774 952.991,487.774 959.963,487.774 966.934,487.774 
  973.905,487.774 980.876,487.774 987.848,487.774 994.819,487.774 1001.79,487.774 1008.76,487.775 1015.73,487.775 1022.7,487.775 1029.68,487.775 1036.65,487.775 
  1043.62,487.775 1050.59,487.775 1057.56,487.775 1064.53,487.775 1071.5,487.775 1078.47,487.775 1085.45,487.775 1092.42,487.775 1099.39,487.775 1106.36,487.775 
  1113.33,487.775 1120.3,487.775 1127.27,487.775 1134.24,487.775 1141.22,487.775 1148.19,487.775 1155.16,487.775 1162.13,487.775 1169.1,487.775 1176.07,487.775 
  1183.04,487.775 1190.01,487.775 1196.99,487.775 1203.96,487.775 1210.93,487.775 1217.9,487.774 1224.87,487.774 1231.84,487.774 1238.81,487.774 1245.78,487.774 
  1252.76,487.774 
  "/>
<polyline clip-path="url(#clip332)" style="stroke:#2000d4; stroke-linecap:butt; stroke-linejoin:round; stroke-width:16; stroke-opacity:1; fill:none" points="
  207.066,487.412 214.037,487.085 221.008,486.539 227.98,485.626 234.951,484.104 241.922,481.577 248.893,477.407 255.865,470.6 262.836,459.675 269.807,442.613 
  276.778,417.072 283.75,381.168 290.721,334.908 297.692,281.565 304.663,227.388 311.635,179.012 318.606,140.539 325.577,112.662 332.549,93.7952 339.52,81.6077 
  346.491,73.9674 353.462,69.2636 360.434,66.3944 367.405,64.6477 374.376,63.5792 381.347,62.9181 388.319,62.5029 395.29,62.2382 402.261,62.0675 409.233,61.9571 
  416.204,61.8862 423.175,61.8415 430.146,61.8146 437.118,61.7999 444.089,61.7938 451.06,61.7938 458.031,61.7982 465.003,61.8059 471.974,61.8159 478.945,61.8279 
  485.916,61.8412 492.888,61.8557 499.859,61.8711 506.83,61.8874 513.802,61.9046 520.773,61.9226 527.744,61.9414 534.715,61.9611 541.687,61.9816 548.658,62.0031 
  555.629,62.0254 562.6,62.0486 569.572,62.0726 576.543,62.0974 583.514,62.123 590.485,62.1494 597.457,62.1765 604.428,62.2043 611.399,62.2327 618.371,62.2619 
  625.342,62.2916 632.313,62.322 639.284,62.353 646.256,62.3845 653.227,62.4166 660.198,62.4493 667.169,62.4826 674.141,62.5163 681.112,62.5506 688.083,62.5855 
  695.054,62.6208 702.026,62.6567 708.997,62.6931 715.968,62.73 722.94,62.7674 729.911,62.8053 736.882,62.8437 743.853,62.8826 750.825,62.922 757.796,62.962 
  764.767,63.0024 771.738,63.0433 778.71,63.0847 785.681,63.1267 792.652,63.1691 799.623,63.2121 806.595,63.2555 813.566,63.2995 820.537,63.344 827.509,63.389 
  834.48,63.4346 841.451,63.4806 848.422,63.5272 855.394,63.5744 862.365,63.622 869.336,63.6702 876.307,63.719 883.279,63.7683 890.25,63.8182 897.221,63.8686 
  904.193,63.9196 911.164,63.9712 918.135,64.0233 925.106,64.076 932.078,64.1293 939.049,64.1832 946.02,64.2377 952.991,64.2928 959.963,64.3486 966.934,64.4049 
  973.905,64.4618 980.876,64.5194 987.848,64.5776 994.819,64.6364 1001.79,64.6959 1008.76,64.7561 1015.73,64.8169 1022.7,64.8783 1029.68,64.9405 1036.65,65.0033 
  1043.62,65.0668 1050.59,65.131 1057.56,65.1959 1064.53,65.2614 1071.5,65.3278 1078.47,65.3948 1085.45,65.4626 1092.42,65.531 1099.39,65.6003 1106.36,65.6703 
  1113.33,65.741 1120.3,65.8126 1127.27,65.8848 1134.24,65.9579 1141.22,66.0318 1148.19,66.1065 1155.16,66.1819 1162.13,66.2582 1169.1,66.3353 1176.07,66.4133 
  1183.04,66.4921 1190.01,66.5717 1196.99,66.6522 1203.96,66.7336 1210.93,66.8158 1217.9,66.899 1224.87,66.983 1231.84,67.0679 1238.81,67.1538 1245.78,67.2405 
  1252.76,67.3282 
  "/>
<polyline clip-path="url(#clip332)" style="stroke:#008900; stroke-linecap:butt; stroke-linejoin:round; stroke-width:16; stroke-opacity:1; fill:none" points="
  207.066,487.626 214.037,487.482 221.008,487.239 227.98,486.834 234.951,486.158 241.922,485.036 248.893,483.185 255.865,480.162 262.836,475.309 269.807,467.729 
  276.778,456.379 283.75,440.414 290.721,419.82 297.692,396.022 304.663,371.744 311.635,349.853 318.606,332.047 325.577,318.446 332.549,308.062 339.52,299.449 
  346.491,291.13 353.462,281.823 360.434,270.653 367.405,257.381 374.376,242.531 381.347,227.201 388.319,212.67 395.29,200.046 402.261,190.097 409.233,183.23 
  416.204,179.552 423.175,178.969 430.146,181.298 437.118,186.341 444.089,193.932 451.06,203.932 458.031,216.202 465.003,230.564 471.974,246.755 478.945,264.394 
  485.916,282.979 492.888,301.919 499.859,320.602 506.83,338.475 513.802,355.108 520.773,370.229 527.744,383.718 534.715,395.582 541.687,405.913 548.658,414.853 
  555.629,422.563 562.6,429.208 569.572,434.939 576.543,439.894 583.514,444.192 590.485,447.934 597.457,451.206 604.428,454.081 611.399,456.617 618.371,458.865 
  625.342,460.867 632.313,462.657 639.284,464.264 646.256,465.714 653.227,467.025 660.198,468.216 667.169,469.302 674.141,470.294 681.112,471.205 688.083,472.042 
  695.054,472.814 702.026,473.528 708.997,474.189 715.968,474.804 722.94,475.376 729.911,475.91 736.882,476.409 743.853,476.876 750.825,477.314 757.796,477.726 
  764.767,478.113 771.738,478.479 778.71,478.823 785.681,479.149 792.652,479.457 799.623,479.749 806.595,480.026 813.566,480.289 820.537,480.539 827.509,480.777 
  834.48,481.004 841.451,481.22 848.422,481.426 855.394,481.623 862.365,481.811 869.336,481.991 876.307,482.163 883.279,482.329 890.25,482.487 897.221,482.639 
  904.193,482.785 911.164,482.925 918.135,483.059 925.106,483.189 932.078,483.314 939.049,483.434 946.02,483.549 952.991,483.661 959.963,483.768 966.934,483.872 
  973.905,483.972 980.876,484.069 987.848,484.162 994.819,484.252 1001.79,484.339 1008.76,484.424 1015.73,484.506 1022.7,484.585 1029.68,484.661 1036.65,484.735 
  1043.62,484.807 1050.59,484.877 1057.56,484.944 1064.53,485.01 1071.5,485.074 1078.47,485.135 1085.45,485.195 1092.42,485.253 1099.39,485.31 1106.36,485.365 
  1113.33,485.418 1120.3,485.47 1127.27,485.521 1134.24,485.57 1141.22,485.618 1148.19,485.664 1155.16,485.709 1162.13,485.753 1169.1,485.796 1176.07,485.838 
  1183.04,485.879 1190.01,485.918 1196.99,485.957 1203.96,485.995 1210.93,486.031 1217.9,486.067 1224.87,486.102 1231.84,486.136 1238.81,486.169 1245.78,486.202 
  1252.76,486.234 
  "/>
<polyline clip-path="url(#clip332)" style="stroke:#7f7f7f; stroke-linecap:butt; stroke-linejoin:round; stroke-width:16; stroke-opacity:1; fill:none" points="
  207.066,60.077 214.037,71.0592 221.008,77.5334 227.98,81.357 234.951,83.6568 241.922,85.105 248.893,86.1183 255.865,86.9828 262.836,87.9372 269.807,89.2387 
  276.778,91.2272 283.75,94.4007 290.721,99.5031 297.692,107.608 304.663,120.133 311.635,138.658 318.606,164.397 325.577,197.38 332.549,235.863 339.52,276.627 
  346.491,316.153 353.462,351.761 360.434,382.039 367.405,406.664 374.376,426.048 381.347,441.005 388.319,452.454 395.29,461.196 402.261,467.835 409.233,472.827 
  416.204,476.536 423.175,479.266 430.146,481.269 437.118,482.742 444.089,483.831 451.06,484.646 458.031,485.261 465.003,485.733 471.974,486.098 478.945,486.385 
  485.916,486.614 492.888,486.799 499.859,486.95 506.83,487.075 513.802,487.18 520.773,487.269 527.744,487.346 534.715,487.412 541.687,487.471 548.658,487.523 
  555.629,487.57 562.6,487.612 569.572,487.65 576.543,487.685 583.514,487.718 590.485,487.748 597.457,487.776 604.428,487.802 611.399,487.826 618.371,487.849 
  625.342,487.87 632.313,487.891 639.284,487.91 646.256,487.927 653.227,487.944 660.198,487.96 667.169,487.975 674.141,487.99 681.112,488.003 688.083,488.016 
  695.054,488.028 702.026,488.04 708.997,488.051 715.968,488.061 722.94,488.071 729.911,488.08 736.882,488.089 743.853,488.098 750.825,488.106 757.796,488.113 
  764.767,488.12 771.738,488.127 778.71,488.134 785.681,488.14 792.652,488.146 799.623,488.151 806.595,488.157 813.566,488.162 820.537,488.167 827.509,488.171 
  834.48,488.175 841.451,488.179 848.422,488.183 855.394,488.187 862.365,488.191 869.336,488.194 876.307,488.197 883.279,488.2 890.25,488.203 897.221,488.205 
  904.193,488.208 911.164,488.21 918.135,488.213 925.106,488.215 932.078,488.217 939.049,488.219 946.02,488.221 952.991,488.222 959.963,488.224 966.934,488.225 
  973.905,488.227 980.876,488.228 987.848,488.229 994.819,488.23 1001.79,488.232 1008.76,488.233 1015.73,488.234 1022.7,488.234 1029.68,488.235 1036.65,488.236 
  1043.62,488.237 1050.59,488.237 1057.56,488.238 1064.53,488.238 1071.5,488.239 1078.47,488.239 1085.45,488.24 1092.42,488.24 1099.39,488.241 1106.36,488.241 
  1113.33,488.241 1120.3,488.241 1127.27,488.241 1134.24,488.242 1141.22,488.242 1148.19,488.242 1155.16,488.242 1162.13,488.242 1169.1,488.242 1176.07,488.242 
  1183.04,488.242 1190.01,488.242 1196.99,488.242 1203.96,488.242 1210.93,488.241 1217.9,488.241 1224.87,488.241 1231.84,488.241 1238.81,488.241 1245.78,488.24 
  1252.76,488.24 
  "/>
<polyline clip-path="url(#clip332)" style="stroke:#895f55; stroke-linecap:butt; stroke-linejoin:round; stroke-width:16; stroke-opacity:1; fill:none" points="
  214.037,487.416 221.008,487.094 227.98,486.553 234.951,485.65 241.922,484.143 248.893,481.642 255.865,477.515 262.836,470.777 269.807,459.962 276.778,443.074 
  283.75,417.793 290.721,382.253 297.692,336.463 304.663,283.661 311.635,230.032 318.606,182.145 325.577,144.056 332.549,116.451 339.52,97.7588 346.491,85.6675 
  353.462,78.0628 360.434,73.3459 367.405,70.4242 374.376,68.5956 381.347,67.4296 388.319,66.6718 395.29,66.1746 402.261,65.8516 409.233,65.6506 416.204,65.5395 
  423.175,65.4994 430.146,65.5207 437.118,65.6003 444.089,65.7402 451.06,65.9467 458.031,66.229 465.003,66.5986 471.974,67.0675 478.945,67.6453 485.916,68.3361 
  492.888,69.1356 499.859,70.0285 506.83,70.9893 513.802,71.9858 520.773,72.9835 527.744,73.9516 534.715,74.8659 541.687,75.7109 548.658,76.4786 555.629,77.1678 
  562.6,77.7815 569.572,78.3254 576.543,78.8064 583.514,79.232 590.485,79.6092 597.457,79.9445 604.428,80.2437 611.399,80.5119 618.371,80.7535 625.342,80.9723 
  632.313,81.1714 639.284,81.3536 646.256,81.5211 653.227,81.6759 660.198,81.8196 667.169,81.9537 674.141,82.0793 681.112,82.1976 688.083,82.3093 695.054,82.4152 
  702.026,82.5161 708.997,82.6125 715.968,82.7048 722.94,82.7936 729.911,82.8792 736.882,82.962 743.853,83.0422 750.825,83.1202 757.796,83.1961 764.767,83.2702 
  771.738,83.3427 778.71,83.4137 785.681,83.4834 792.652,83.552 799.623,83.6195 806.595,83.686 813.566,83.7518 820.537,83.8168 827.509,83.8812 834.48,83.945 
  841.451,84.0083 848.422,84.0712 855.394,84.1338 862.365,84.196 869.336,84.258 876.307,84.3198 883.279,84.3815 890.25,84.443 897.221,84.5044 904.193,84.5659 
  911.164,84.6273 918.135,84.6888 925.106,84.7503 932.078,84.812 939.049,84.8738 946.02,84.9357 952.991,84.9978 959.963,85.0601 966.934,85.1227 973.905,85.1854 
  980.876,85.2485 987.848,85.3119 994.819,85.3756 1001.79,85.4396 1008.76,85.5039 1015.73,85.5686 1022.7,85.6337 1029.68,85.6993 1036.65,85.7652 1043.62,85.8315 
  1050.59,85.8984 1057.56,85.9656 1064.53,86.0334 1071.5,86.1016 1078.47,86.1704 1085.45,86.2396 1092.42,86.3095 1099.39,86.3798 1106.36,86.4507 1113.33,86.5222 
  1120.3,86.5943 1127.27,86.6669 1134.24,86.7402 1141.22,86.8141 1148.19,86.8886 1155.16,86.9638 1162.13,87.0396 1169.1,87.1161 1176.07,87.1933 1183.04,87.2712 
  1190.01,87.3498 1196.99,87.4291 1203.96,87.5091 1210.93,87.5898 1217.9,87.6713 1224.87,87.7536 1231.84,87.8366 1238.81,87.9205 1245.78,88.0051 1252.76,88.0905 
  
  "/>
<polyline clip-path="url(#clip332)" style="stroke:#2000d4; stroke-linecap:butt; stroke-linejoin:round; stroke-width:16; stroke-opacity:1; fill:none" stroke-dasharray="64, 40" points="
  207.066,487.84 214.037,487.84 221.008,487.84 227.98,487.84 234.951,487.84 241.922,487.84 248.893,487.84 255.865,487.839 262.836,487.839 269.807,487.839 
  276.778,487.839 283.75,487.839 290.721,487.839 297.692,487.839 304.663,487.839 311.635,487.838 318.606,487.838 325.577,487.838 332.549,487.838 339.52,487.838 
  346.491,487.838 353.462,487.838 360.434,487.838 367.405,487.838 374.376,487.838 381.347,487.837 388.319,487.837 395.29,487.837 402.261,487.837 409.233,487.836 
  416.204,487.836 423.175,487.836 430.146,487.835 437.118,487.835 444.089,487.835 451.06,487.834 458.031,487.834 465.003,487.833 471.974,487.833 478.945,487.832 
  485.916,487.832 492.888,487.831 499.859,487.831 506.83,487.83 513.802,487.83 520.773,487.829 527.744,487.829 534.715,487.828 541.687,487.828 548.658,487.827 
  555.629,487.826 562.6,487.826 569.572,487.825 576.543,487.825 583.514,487.824 590.485,487.823 597.457,487.823 604.428,487.822 611.399,487.821 618.371,487.821 
  625.342,487.82 632.313,487.819 639.284,487.819 646.256,487.818 653.227,487.817 660.198,487.816 667.169,487.816 674.141,487.815 681.112,487.814 688.083,487.813 
  695.054,487.813 702.026,487.812 708.997,487.811 715.968,487.81 722.94,487.809 729.911,487.809 736.882,487.808 743.853,487.807 750.825,487.806 757.796,487.805 
  764.767,487.804 771.738,487.803 778.71,487.802 785.681,487.801 792.652,487.8 799.623,487.799 806.595,487.798 813.566,487.797 820.537,487.796 827.509,487.795 
  834.48,487.794 841.451,487.793 848.422,487.792 855.394,487.791 862.365,487.79 869.336,487.789 876.307,487.788 883.279,487.787 890.25,487.786 897.221,487.785 
  904.193,487.783 911.164,487.782 918.135,487.781 925.106,487.78 932.078,487.779 939.049,487.778 946.02,487.776 952.991,487.775 959.963,487.774 966.934,487.772 
  973.905,487.771 980.876,487.77 987.848,487.769 994.819,487.767 1001.79,487.766 1008.76,487.764 1015.73,487.763 1022.7,487.762 1029.68,487.76 1036.65,487.759 
  1043.62,487.757 1050.59,487.756 1057.56,487.754 1064.53,487.753 1071.5,487.751 1078.47,487.75 1085.45,487.748 1092.42,487.747 1099.39,487.745 1106.36,487.743 
  1113.33,487.742 1120.3,487.74 1127.27,487.739 1134.24,487.737 1141.22,487.735 1148.19,487.733 1155.16,487.732 1162.13,487.73 1169.1,487.728 1176.07,487.726 
  1183.04,487.724 1190.01,487.723 1196.99,487.721 1203.96,487.719 1210.93,487.717 1217.9,487.715 1224.87,487.713 1231.84,487.711 1238.81,487.709 1245.78,487.707 
  1252.76,487.705 
  "/>
<polyline clip-path="url(#clip332)" style="stroke:#ff221c; stroke-linecap:butt; stroke-linejoin:round; stroke-width:16; stroke-opacity:1; fill:none" points="
  207.066,487.84 214.037,487.835 221.008,487.829 227.98,487.821 234.951,487.808 241.922,487.787 248.893,487.751 255.865,487.692 262.836,487.596 269.807,487.44 
  276.778,487.193 283.75,486.817 290.721,486.273 297.692,485.543 304.663,484.655 311.635,483.681 318.606,482.711 325.577,481.792 332.549,480.893 339.52,479.913 
  346.491,478.696 353.462,477.059 360.434,474.82 367.405,471.839 374.376,468.054 381.347,463.471 388.319,458.141 395.29,452.129 402.261,445.491 409.233,438.264 
  416.204,430.44 423.175,421.964 430.146,412.731 437.118,402.601 444.089,391.419 451.06,379.045 458.031,365.383 465.003,350.418 471.974,334.249 478.945,317.111 
  485.916,299.373 492.888,281.506 499.859,264.013 506.83,247.362 513.802,231.916 520.773,217.904 527.744,205.422 534.715,194.453 541.687,184.905 548.658,176.642 
  555.629,169.51 562.6,163.357 569.572,158.039 576.543,153.43 583.514,149.419 590.485,145.912 597.457,142.831 604.428,140.109 611.399,137.691 618.371,135.533 
  625.342,133.596 632.313,131.849 639.284,130.266 646.256,128.824 653.227,127.505 660.198,126.293 667.169,125.175 674.141,124.141 681.112,123.179 688.083,122.283 
  695.054,121.445 702.026,120.658 708.997,119.918 715.968,119.22 722.94,118.56 729.911,117.934 736.882,117.339 743.853,116.772 750.825,116.231 757.796,115.714 
  764.767,115.219 771.738,114.744 778.71,114.287 785.681,113.847 792.652,113.424 799.623,113.014 806.595,112.619 813.566,112.236 820.537,111.865 827.509,111.505 
  834.48,111.156 841.451,110.816 848.422,110.486 855.394,110.164 862.365,109.85 869.336,109.544 876.307,109.245 883.279,108.953 890.25,108.668 897.221,108.388 
  904.193,108.115 911.164,107.847 918.135,107.584 925.106,107.327 932.078,107.074 939.049,106.826 946.02,106.583 952.991,106.343 959.963,106.108 966.934,105.876 
  973.905,105.649 980.876,105.425 987.848,105.204 994.819,104.987 1001.79,104.772 1008.76,104.561 1015.73,104.353 1022.7,104.148 1029.68,103.946 1036.65,103.746 
  1043.62,103.549 1050.59,103.355 1057.56,103.163 1064.53,102.973 1071.5,102.786 1078.47,102.6 1085.45,102.418 1092.42,102.237 1099.39,102.058 1106.36,101.881 
  1113.33,101.707 1120.3,101.534 1127.27,101.363 1134.24,101.194 1141.22,101.026 1148.19,100.861 1155.16,100.697 1162.13,100.535 1169.1,100.374 1176.07,100.215 
  1183.04,100.058 1190.01,99.9022 1196.99,99.7479 1203.96,99.595 1210.93,99.4436 1217.9,99.2937 1224.87,99.1451 1231.84,98.9979 1238.81,98.8521 1245.78,98.7076 
  1252.76,98.5644 
  "/>
<polyline clip-path="url(#clip332)" style="stroke:#000000; stroke-linecap:butt; stroke-linejoin:round; stroke-width:16; stroke-opacity:1; fill:none" stroke-dasharray="8, 16" points="
  207.066,60.077 214.037,60.5005 221.008,60.8932 227.98,61.4991 234.951,62.5034 241.922,64.1761 248.893,66.9534 255.865,71.5353 262.836,79.0152 269.807,91.0179 
  276.778,109.756 283.75,137.789 290.721,177.158 297.692,227.788 304.663,285.955 311.635,344.596 318.606,396.131 325.577,435.702 332.549,462.224 339.52,477.42 
  346.491,484.506 353.462,487.03 360.434,487.69 367.405,487.818 374.376,487.837 381.347,487.839 388.319,487.84 395.29,487.84 402.261,487.84 409.233,487.84 
  416.204,487.84 423.175,487.84 430.146,487.84 437.118,487.84 444.089,487.84 451.06,487.84 458.031,487.84 465.003,487.84 471.974,487.84 478.945,487.84 
  485.916,487.84 492.888,487.84 499.859,487.84 506.83,487.84 513.802,487.84 520.773,487.84 527.744,487.84 534.715,487.84 541.687,487.84 548.658,487.84 
  555.629,487.84 562.6,487.84 569.572,487.84 576.543,487.84 583.514,487.84 590.485,487.84 597.457,487.84 604.428,487.84 611.399,487.84 618.371,487.84 
  625.342,487.84 632.313,487.84 639.284,487.84 646.256,487.84 653.227,487.84 660.198,487.84 667.169,487.84 674.141,487.84 681.112,487.84 688.083,487.84 
  695.054,487.84 702.026,487.84 708.997,487.84 715.968,487.84 722.94,487.84 729.911,487.84 736.882,487.84 743.853,487.84 750.825,487.84 757.796,487.84 
  764.767,487.84 771.738,487.84 778.71,487.84 785.681,487.84 792.652,487.84 799.623,487.84 806.595,487.84 813.566,487.84 820.537,487.84 827.509,487.84 
  834.48,487.84 841.451,487.84 848.422,487.84 855.394,487.84 862.365,487.84 869.336,487.84 876.307,487.84 883.279,487.84 890.25,487.84 897.221,487.84 
  904.193,487.84 911.164,487.84 918.135,487.84 925.106,487.84 932.078,487.84 939.049,487.84 946.02,487.84 952.991,487.84 959.963,487.84 966.934,487.84 
  973.905,487.84 980.876,487.84 987.848,487.84 994.819,487.84 1001.79,487.84 1008.76,487.84 1015.73,487.84 1022.7,487.84 1029.68,487.84 1036.65,487.84 
  1043.62,487.84 1050.59,487.84 1057.56,487.84 1064.53,487.84 1071.5,487.84 1078.47,487.84 1085.45,487.84 1092.42,487.84 1099.39,487.84 1106.36,487.84 
  1113.33,487.84 1120.3,487.84 1127.27,487.84 1134.24,487.84 1141.22,487.84 1148.19,487.84 1155.16,487.84 1162.13,487.84 1169.1,487.84 1176.07,487.84 
  1183.04,487.84 1190.01,487.84 1196.99,487.84 1203.96,487.84 1210.93,487.84 1217.9,487.84 1224.87,487.84 1231.84,487.84 1238.81,487.84 1245.78,487.84 
  1252.76,487.84 
  "/>
</svg>
