<?xml version="1.0" encoding="utf-8"?>
<svg xmlns="http://www.w3.org/2000/svg" xmlns:xlink="http://www.w3.org/1999/xlink" width="325" height="150" viewBox="0 0 1300 600">
<defs>
  <clipPath id="clip560">
    <rect x="0" y="0" width="1300" height="600"/>
  </clipPath>
</defs>
<path clip-path="url(#clip560)" d="
M0 600 L1300 600 L1300 0 L0 0  Z
  " fill="#ffffff" fill-rule="evenodd" fill-opacity="1"/>
<defs>
  <clipPath id="clip561">
    <rect x="260" y="0" width="911" height="600"/>
  </clipPath>
</defs>
<path clip-path="url(#clip560)" d="
M200.094 501.1 L1252.76 501.1 L1252.76 47.2441 L200.094 47.2441  Z
  " fill="#ffffff" fill-rule="evenodd" fill-opacity="1"/>
<defs>
  <clipPath id="clip562">
    <rect x="200" y="47" width="1054" height="455"/>
  </clipPath>
</defs>
<polyline clip-path="url(#clip560)" style="stroke:#000000; stroke-linecap:butt; stroke-linejoin:round; stroke-width:4; stroke-opacity:1; fill:none" points="
  200.094,501.1 1252.76,501.1 
  "/>
<polyline clip-path="url(#clip560)" style="stroke:#000000; stroke-linecap:butt; stroke-linejoin:round; stroke-width:4; stroke-opacity:1; fill:none" points="
  200.094,501.1 200.094,482.203 
  "/>
<polyline clip-path="url(#clip560)" style="stroke:#000000; stroke-linecap:butt; stroke-linejoin:round; stroke-width:4; stroke-opacity:1; fill:none" points="
  548.658,501.1 548.658,482.203 
  "/>
<polyline clip-path="url(#clip560)" style="stroke:#000000; stroke-linecap:butt; stroke-linejoin:round; stroke-width:4; stroke-opacity:1; fill:none" points="
  897.221,501.1 897.221,482.203 
  "/>
<polyline clip-path="url(#clip560)" style="stroke:#000000; stroke-linecap:butt; stroke-linejoin:round; stroke-width:4; stroke-opacity:1; fill:none" points="
  1245.78,501.1 1245.78,482.203 
  "/>
<path clip-path="url(#clip560)" d="M200.094 526.149 Q195.581 526.149 193.295 530.605 Q191.038 535.032 191.038 543.944 Q191.038 552.827 193.295 557.283 Q195.581 561.71 200.094 561.71 Q204.637 561.71 206.894 557.283 Q209.18 552.827 209.18 543.944 Q209.18 535.032 206.894 530.605 Q204.637 526.149 200.094 526.149 M200.094 521.519 Q207.357 521.519 211.177 527.277 Q215.025 533.006 215.025 543.944 Q215.025 554.852 211.177 560.61 Q207.357 566.339 200.094 566.339 Q192.832 566.339 188.983 560.61 Q185.164 554.852 185.164 543.944 Q185.164 533.006 188.983 527.277 Q192.832 521.519 200.094 521.519 Z" fill="#000000" fill-rule="evenodd" fill-opacity="1" /><path clip-path="url(#clip560)" d="M517.032 522.3 L539.977 522.3 L539.977 527.219 L522.385 527.219 L522.385 537.809 Q523.658 537.375 524.931 537.173 Q526.204 536.941 527.477 536.941 Q534.711 536.941 538.936 540.905 Q543.16 544.87 543.16 551.64 Q543.16 558.614 538.82 562.491 Q534.48 566.339 526.58 566.339 Q523.861 566.339 521.025 565.876 Q518.218 565.413 515.209 564.487 L515.209 558.614 Q517.813 560.031 520.591 560.726 Q523.369 561.42 526.465 561.42 Q531.47 561.42 534.393 558.787 Q537.315 556.154 537.315 551.64 Q537.315 547.126 534.393 544.493 Q531.47 541.86 526.465 541.86 Q524.121 541.86 521.777 542.381 Q519.462 542.902 517.032 544.001 L517.032 522.3 Z" fill="#000000" fill-rule="evenodd" fill-opacity="1" /><path clip-path="url(#clip560)" d="M567.176 526.149 Q562.662 526.149 560.377 530.605 Q558.12 535.032 558.12 543.944 Q558.12 552.827 560.377 557.283 Q562.662 561.71 567.176 561.71 Q571.719 561.71 573.976 557.283 Q576.262 552.827 576.262 543.944 Q576.262 535.032 573.976 530.605 Q571.719 526.149 567.176 526.149 M567.176 521.519 Q574.439 521.519 578.258 527.277 Q582.107 533.006 582.107 543.944 Q582.107 554.852 578.258 560.61 Q574.439 566.339 567.176 566.339 Q559.914 566.339 556.065 560.61 Q552.246 554.852 552.246 543.944 Q552.246 533.006 556.065 527.277 Q559.914 521.519 567.176 521.519 Z" fill="#000000" fill-rule="evenodd" fill-opacity="1" /><path clip-path="url(#clip560)" d="M846.73 560.581 L856.278 560.581 L856.278 527.624 L845.891 529.708 L845.891 524.384 L856.22 522.3 L862.065 522.3 L862.065 560.581 L871.614 560.581 L871.614 565.5 L846.73 565.5 L846.73 560.581 Z" fill="#000000" fill-rule="evenodd" fill-opacity="1" /><path clip-path="url(#clip560)" d="M895.919 526.149 Q891.405 526.149 889.119 530.605 Q886.863 535.032 886.863 543.944 Q886.863 552.827 889.119 557.283 Q891.405 561.71 895.919 561.71 Q900.462 561.71 902.719 557.283 Q905.005 552.827 905.005 543.944 Q905.005 535.032 902.719 530.605 Q900.462 526.149 895.919 526.149 M895.919 521.519 Q903.182 521.519 907.001 527.277 Q910.85 533.006 910.85 543.944 Q910.85 554.852 907.001 560.61 Q903.182 566.339 895.919 566.339 Q888.656 566.339 884.808 560.61 Q880.989 554.852 880.989 543.944 Q880.989 533.006 884.808 527.277 Q888.656 521.519 895.919 521.519 Z" fill="#000000" fill-rule="evenodd" fill-opacity="1" /><path clip-path="url(#clip560)" d="M933.622 526.149 Q929.108 526.149 926.822 530.605 Q924.565 535.032 924.565 543.944 Q924.565 552.827 926.822 557.283 Q929.108 561.71 933.622 561.71 Q938.164 561.71 940.421 557.283 Q942.707 552.827 942.707 543.944 Q942.707 535.032 940.421 530.605 Q938.164 526.149 933.622 526.149 M933.622 521.519 Q940.884 521.519 944.704 527.277 Q948.552 533.006 948.552 543.944 Q948.552 554.852 944.704 560.61 Q940.884 566.339 933.622 566.339 Q926.359 566.339 922.51 560.61 Q918.691 554.852 918.691 543.944 Q918.691 533.006 922.51 527.277 Q926.359 521.519 933.622 521.519 Z" fill="#000000" fill-rule="evenodd" fill-opacity="1" /><path clip-path="url(#clip560)" d="M1195.29 560.581 L1204.84 560.581 L1204.84 527.624 L1194.45 529.708 L1194.45 524.384 L1204.78 522.3 L1210.63 522.3 L1210.63 560.581 L1220.18 560.581 L1220.18 565.5 L1195.29 565.5 L1195.29 560.581 Z" fill="#000000" fill-rule="evenodd" fill-opacity="1" /><path clip-path="url(#clip560)" d="M1232.04 522.3 L1254.99 522.3 L1254.99 527.219 L1237.39 527.219 L1237.39 537.809 Q1238.67 537.375 1239.94 537.173 Q1241.21 536.941 1242.49 536.941 Q1249.72 536.941 1253.94 540.905 Q1258.17 544.87 1258.17 551.64 Q1258.17 558.614 1253.83 562.491 Q1249.49 566.339 1241.59 566.339 Q1238.87 566.339 1236.03 565.876 Q1233.23 565.413 1230.22 564.487 L1230.22 558.614 Q1232.82 560.031 1235.6 560.726 Q1238.38 561.42 1241.47 561.42 Q1246.48 561.42 1249.4 558.787 Q1252.32 556.154 1252.32 551.64 Q1252.32 547.126 1249.4 544.493 Q1246.48 541.86 1241.47 541.86 Q1239.13 541.86 1236.79 542.381 Q1234.47 542.902 1232.04 544.001 L1232.04 522.3 Z" fill="#000000" fill-rule="evenodd" fill-opacity="1" /><path clip-path="url(#clip560)" d="M1282.18 526.149 Q1277.67 526.149 1275.39 530.605 Q1273.13 535.032 1273.13 543.944 Q1273.13 552.827 1275.39 557.283 Q1277.67 561.71 1282.18 561.71 Q1286.73 561.71 1288.98 557.283 Q1291.27 552.827 1291.27 543.944 Q1291.27 535.032 1288.98 530.605 Q1286.73 526.149 1282.18 526.149 M1282.18 521.519 Q1289.45 521.519 1293.27 527.277 Q1297.12 533.006 1297.12 543.944 Q1297.12 554.852 1293.27 560.61 Q1289.45 566.339 1282.18 566.339 Q1274.92 566.339 1271.07 560.61 Q1267.25 554.852 1267.25 543.944 Q1267.25 533.006 1271.07 527.277 Q1274.92 521.519 1282.18 521.519 Z" fill="#000000" fill-rule="evenodd" fill-opacity="1" /><polyline clip-path="url(#clip560)" style="stroke:#000000; stroke-linecap:butt; stroke-linejoin:round; stroke-width:4; stroke-opacity:1; fill:none" points="
  200.094,501.1 200.094,47.2441 
  "/>
<polyline clip-path="url(#clip560)" style="stroke:#000000; stroke-linecap:butt; stroke-linejoin:round; stroke-width:4; stroke-opacity:1; fill:none" points="
  200.094,487.84 218.992,487.84 
  "/>
<polyline clip-path="url(#clip560)" style="stroke:#000000; stroke-linecap:butt; stroke-linejoin:round; stroke-width:4; stroke-opacity:1; fill:none" points="
  200.094,380.899 218.992,380.899 
  "/>
<polyline clip-path="url(#clip560)" style="stroke:#000000; stroke-linecap:butt; stroke-linejoin:round; stroke-width:4; stroke-opacity:1; fill:none" points="
  200.094,273.958 218.992,273.958 
  "/>
<polyline clip-path="url(#clip560)" style="stroke:#000000; stroke-linecap:butt; stroke-linejoin:round; stroke-width:4; stroke-opacity:1; fill:none" points="
  200.094,167.018 218.992,167.018 
  "/>
<polyline clip-path="url(#clip560)" style="stroke:#000000; stroke-linecap:butt; stroke-linejoin:round; stroke-width:4; stroke-opacity:1; fill:none" points="
  200.094,60.077 218.992,60.077 
  "/>
<path clip-path="url(#clip560)" d="M71.4226 470.088 Q66.9087 470.088 64.6229 474.544 Q62.3659 478.971 62.3659 487.883 Q62.3659 496.766 64.6229 501.222 Q66.9087 505.649 71.4226 505.649 Q75.9654 505.649 78.2223 501.222 Q80.5082 496.766 80.5082 487.883 Q80.5082 478.971 78.2223 474.544 Q75.9654 470.088 71.4226 470.088 M71.4226 465.458 Q78.6853 465.458 82.5047 471.216 Q86.3531 476.946 86.3531 487.883 Q86.3531 498.791 82.5047 504.55 Q78.6853 510.279 71.4226 510.279 Q64.1599 510.279 60.3115 504.55 Q56.4921 498.791 56.4921 487.883 Q56.4921 476.946 60.3115 471.216 Q64.1599 465.458 71.4226 465.458 Z" fill="#000000" fill-rule="evenodd" fill-opacity="1" /><path clip-path="url(#clip560)" d="M96.625 502.09 L102.73 502.09 L102.73 509.44 L96.625 509.44 L96.625 502.09 Z" fill="#000000" fill-rule="evenodd" fill-opacity="1" /><path clip-path="url(#clip560)" d="M127.962 470.088 Q123.448 470.088 121.162 474.544 Q118.905 478.971 118.905 487.883 Q118.905 496.766 121.162 501.222 Q123.448 505.649 127.962 505.649 Q132.504 505.649 134.761 501.222 Q137.047 496.766 137.047 487.883 Q137.047 478.971 134.761 474.544 Q132.504 470.088 127.962 470.088 M127.962 465.458 Q135.224 465.458 139.044 471.216 Q142.892 476.946 142.892 487.883 Q142.892 498.791 139.044 504.55 Q135.224 510.279 127.962 510.279 Q120.699 510.279 116.851 504.55 Q113.031 498.791 113.031 487.883 Q113.031 476.946 116.851 471.216 Q120.699 465.458 127.962 465.458 Z" fill="#000000" fill-rule="evenodd" fill-opacity="1" /><path clip-path="url(#clip560)" d="M165.664 470.088 Q161.15 470.088 158.864 474.544 Q156.607 478.971 156.607 487.883 Q156.607 496.766 158.864 501.222 Q161.15 505.649 165.664 505.649 Q170.207 505.649 172.464 501.222 Q174.75 496.766 174.75 487.883 Q174.75 478.971 172.464 474.544 Q170.207 470.088 165.664 470.088 M165.664 465.458 Q172.927 465.458 176.746 471.216 Q180.594 476.946 180.594 487.883 Q180.594 498.791 176.746 504.55 Q172.927 510.279 165.664 510.279 Q158.401 510.279 154.553 504.55 Q150.734 498.791 150.734 487.883 Q150.734 476.946 154.553 471.216 Q158.401 465.458 165.664 465.458 Z" fill="#000000" fill-rule="evenodd" fill-opacity="1" /><path clip-path="url(#clip560)" d="M72.6668 363.147 Q68.1529 363.147 65.8671 367.603 Q63.6101 372.03 63.6101 380.942 Q63.6101 389.825 65.8671 394.281 Q68.1529 398.708 72.6668 398.708 Q77.2096 398.708 79.4665 394.281 Q81.7524 389.825 81.7524 380.942 Q81.7524 372.03 79.4665 367.603 Q77.2096 363.147 72.6668 363.147 M72.6668 358.518 Q79.9295 358.518 83.7489 364.276 Q87.5973 370.005 87.5973 380.942 Q87.5973 391.851 83.7489 397.609 Q79.9295 403.338 72.6668 403.338 Q65.4041 403.338 61.5558 397.609 Q57.7363 391.851 57.7363 380.942 Q57.7363 370.005 61.5558 364.276 Q65.4041 358.518 72.6668 358.518 Z" fill="#000000" fill-rule="evenodd" fill-opacity="1" /><path clip-path="url(#clip560)" d="M97.8692 395.149 L103.975 395.149 L103.975 402.499 L97.8692 402.499 L97.8692 395.149 Z" fill="#000000" fill-rule="evenodd" fill-opacity="1" /><path clip-path="url(#clip560)" d="M121.741 397.58 L142.14 397.58 L142.14 402.499 L114.709 402.499 L114.709 397.58 Q118.037 394.137 123.766 388.35 Q129.524 382.534 131 380.855 Q133.807 377.702 134.906 375.531 Q136.035 373.332 136.035 371.22 Q136.035 367.777 133.604 365.607 Q131.202 363.437 127.325 363.437 Q124.576 363.437 121.509 364.391 Q118.471 365.346 114.999 367.285 L114.999 361.382 Q118.529 359.964 121.596 359.241 Q124.663 358.518 127.209 358.518 Q133.922 358.518 137.915 361.874 Q141.908 365.231 141.908 370.844 Q141.908 373.506 140.896 375.908 Q139.912 378.28 137.279 381.521 Q136.555 382.36 132.678 386.382 Q128.801 390.375 121.741 397.58 Z" fill="#000000" fill-rule="evenodd" fill-opacity="1" /><path clip-path="url(#clip560)" d="M154.466 359.299 L177.412 359.299 L177.412 364.218 L159.819 364.218 L159.819 374.808 Q161.092 374.374 162.365 374.172 Q163.639 373.94 164.912 373.94 Q172.145 373.94 176.37 377.904 Q180.594 381.868 180.594 388.639 Q180.594 395.612 176.254 399.49 Q171.914 403.338 164.015 403.338 Q161.295 403.338 158.459 402.875 Q155.652 402.412 152.643 401.486 L152.643 395.612 Q155.247 397.03 158.025 397.725 Q160.803 398.419 163.899 398.419 Q168.905 398.419 171.827 395.786 Q174.75 393.153 174.75 388.639 Q174.75 384.125 171.827 381.492 Q168.905 378.859 163.899 378.859 Q161.555 378.859 159.211 379.38 Q156.897 379.901 154.466 381 L154.466 359.299 Z" fill="#000000" fill-rule="evenodd" fill-opacity="1" /><path clip-path="url(#clip560)" d="M71.4226 256.207 Q66.9087 256.207 64.6229 260.663 Q62.3659 265.09 62.3659 274.002 Q62.3659 282.885 64.6229 287.341 Q66.9087 291.768 71.4226 291.768 Q75.9654 291.768 78.2223 287.341 Q80.5082 282.885 80.5082 274.002 Q80.5082 265.09 78.2223 260.663 Q75.9654 256.207 71.4226 256.207 M71.4226 251.577 Q78.6853 251.577 82.5047 257.335 Q86.3531 263.064 86.3531 274.002 Q86.3531 284.91 82.5047 290.668 Q78.6853 296.397 71.4226 296.397 Q64.1599 296.397 60.3115 290.668 Q56.4921 284.91 56.4921 274.002 Q56.4921 263.064 60.3115 257.335 Q64.1599 251.577 71.4226 251.577 Z" fill="#000000" fill-rule="evenodd" fill-opacity="1" /><path clip-path="url(#clip560)" d="M96.625 288.209 L102.73 288.209 L102.73 295.558 L96.625 295.558 L96.625 288.209 Z" fill="#000000" fill-rule="evenodd" fill-opacity="1" /><path clip-path="url(#clip560)" d="M115.52 252.358 L138.465 252.358 L138.465 257.277 L120.873 257.277 L120.873 267.867 Q122.146 267.433 123.419 267.231 Q124.692 266.999 125.965 266.999 Q133.199 266.999 137.423 270.963 Q141.648 274.928 141.648 281.698 Q141.648 288.672 137.308 292.549 Q132.967 296.397 125.068 296.397 Q122.348 296.397 119.513 295.934 Q116.706 295.471 113.697 294.546 L113.697 288.672 Q116.301 290.09 119.079 290.784 Q121.856 291.478 124.952 291.478 Q129.958 291.478 132.881 288.845 Q135.803 286.212 135.803 281.698 Q135.803 277.185 132.881 274.551 Q129.958 271.918 124.952 271.918 Q122.609 271.918 120.265 272.439 Q117.95 272.96 115.52 274.06 L115.52 252.358 Z" fill="#000000" fill-rule="evenodd" fill-opacity="1" /><path clip-path="url(#clip560)" d="M165.664 256.207 Q161.15 256.207 158.864 260.663 Q156.607 265.09 156.607 274.002 Q156.607 282.885 158.864 287.341 Q161.15 291.768 165.664 291.768 Q170.207 291.768 172.464 287.341 Q174.75 282.885 174.75 274.002 Q174.75 265.09 172.464 260.663 Q170.207 256.207 165.664 256.207 M165.664 251.577 Q172.927 251.577 176.746 257.335 Q180.594 263.064 180.594 274.002 Q180.594 284.91 176.746 290.668 Q172.927 296.397 165.664 296.397 Q158.401 296.397 154.553 290.668 Q150.734 284.91 150.734 274.002 Q150.734 263.064 154.553 257.335 Q158.401 251.577 165.664 251.577 Z" fill="#000000" fill-rule="evenodd" fill-opacity="1" /><path clip-path="url(#clip560)" d="M72.6668 149.266 Q68.1529 149.266 65.8671 153.722 Q63.6101 158.149 63.6101 167.061 Q63.6101 175.944 65.8671 180.4 Q68.1529 184.827 72.6668 184.827 Q77.2096 184.827 79.4665 180.4 Q81.7524 175.944 81.7524 167.061 Q81.7524 158.149 79.4665 153.722 Q77.2096 149.266 72.6668 149.266 M72.6668 144.636 Q79.9295 144.636 83.7489 150.394 Q87.5973 156.124 87.5973 167.061 Q87.5973 177.97 83.7489 183.728 Q79.9295 189.457 72.6668 189.457 Q65.4041 189.457 61.5558 183.728 Q57.7363 177.97 57.7363 167.061 Q57.7363 156.124 61.5558 150.394 Q65.4041 144.636 72.6668 144.636 Z" fill="#000000" fill-rule="evenodd" fill-opacity="1" /><path clip-path="url(#clip560)" d="M97.8692 181.268 L103.975 181.268 L103.975 188.618 L97.8692 188.618 L97.8692 181.268 Z" fill="#000000" fill-rule="evenodd" fill-opacity="1" /><path clip-path="url(#clip560)" d="M115.23 145.418 L143.008 145.418 L143.008 147.906 L127.325 188.618 L121.22 188.618 L135.977 150.337 L115.23 150.337 L115.23 145.418 Z" fill="#000000" fill-rule="evenodd" fill-opacity="1" /><path clip-path="url(#clip560)" d="M154.466 145.418 L177.412 145.418 L177.412 150.337 L159.819 150.337 L159.819 160.927 Q161.092 160.493 162.365 160.29 Q163.639 160.059 164.912 160.059 Q172.145 160.059 176.37 164.023 Q180.594 167.987 180.594 174.758 Q180.594 181.731 176.254 185.608 Q171.914 189.457 164.015 189.457 Q161.295 189.457 158.459 188.994 Q155.652 188.531 152.643 187.605 L152.643 181.731 Q155.247 183.149 158.025 183.843 Q160.803 184.538 163.899 184.538 Q168.905 184.538 171.827 181.905 Q174.75 179.272 174.75 174.758 Q174.75 170.244 171.827 167.611 Q168.905 164.978 163.899 164.978 Q161.555 164.978 159.211 165.499 Q156.897 166.019 154.466 167.119 L154.466 145.418 Z" fill="#000000" fill-rule="evenodd" fill-opacity="1" /><path clip-path="url(#clip560)" d="M59.9354 76.758 L69.484 76.758 L69.484 43.801 L59.0963 45.8843 L59.0963 40.5603 L69.4261 38.477 L75.271 38.477 L75.271 76.758 L84.8195 76.758 L84.8195 81.677 L59.9354 81.677 L59.9354 76.758 Z" fill="#000000" fill-rule="evenodd" fill-opacity="1" /><path clip-path="url(#clip560)" d="M96.625 74.3275 L102.73 74.3275 L102.73 81.677 L96.625 81.677 L96.625 74.3275 Z" fill="#000000" fill-rule="evenodd" fill-opacity="1" /><path clip-path="url(#clip560)" d="M127.962 42.3253 Q123.448 42.3253 121.162 46.7813 Q118.905 51.2084 118.905 60.1204 Q118.905 69.0034 121.162 73.4594 Q123.448 77.8865 127.962 77.8865 Q132.504 77.8865 134.761 73.4594 Q137.047 69.0034 137.047 60.1204 Q137.047 51.2084 134.761 46.7813 Q132.504 42.3253 127.962 42.3253 M127.962 37.6957 Q135.224 37.6957 139.044 43.4538 Q142.892 49.1829 142.892 60.1204 Q142.892 71.0289 139.044 76.787 Q135.224 82.5161 127.962 82.5161 Q120.699 82.5161 116.851 76.787 Q113.031 71.0289 113.031 60.1204 Q113.031 49.1829 116.851 43.4538 Q120.699 37.6957 127.962 37.6957 Z" fill="#000000" fill-rule="evenodd" fill-opacity="1" /><path clip-path="url(#clip560)" d="M165.664 42.3253 Q161.15 42.3253 158.864 46.7813 Q156.607 51.2084 156.607 60.1204 Q156.607 69.0034 158.864 73.4594 Q161.15 77.8865 165.664 77.8865 Q170.207 77.8865 172.464 73.4594 Q174.75 69.0034 174.75 60.1204 Q174.75 51.2084 172.464 46.7813 Q170.207 42.3253 165.664 42.3253 M165.664 37.6957 Q172.927 37.6957 176.746 43.4538 Q180.594 49.1829 180.594 60.1204 Q180.594 71.0289 176.746 76.787 Q172.927 82.5161 165.664 82.5161 Q158.401 82.5161 154.553 76.787 Q150.734 71.0289 150.734 60.1204 Q150.734 49.1829 154.553 43.4538 Q158.401 37.6957 165.664 37.6957 Z" fill="#000000" fill-rule="evenodd" fill-opacity="1" /><polyline clip-path="url(#clip562)" style="stroke:#ff00ff; stroke-linecap:butt; stroke-linejoin:round; stroke-width:16; stroke-opacity:1; fill:none" points="
  207.066,274.065 214.037,274.146 221.008,274.284 227.98,274.422 234.951,274.564 241.922,274.71 248.893,274.861 255.865,275.017 262.836,275.178 269.807,275.344 
  276.778,275.516 283.75,275.693 290.721,275.875 297.692,276.064 304.663,276.259 311.635,276.46 318.606,276.668 325.577,276.883 332.549,277.106 339.52,277.336 
  346.491,277.573 353.462,277.819 360.434,278.073 367.405,278.336 374.376,278.607 381.347,278.889 388.319,279.179 395.29,279.48 402.261,279.791 409.233,280.113 
  416.204,280.446 423.175,280.791 430.146,281.147 437.118,281.516 444.089,281.898 451.06,282.292 458.031,282.7 465.003,283.123 471.974,283.559 478.945,284.011 
  485.916,284.478 492.888,284.961 499.859,285.461 506.83,285.977 513.802,286.511 520.773,287.062 527.744,287.632 534.715,288.221 541.687,288.83 548.658,289.458 
  555.629,290.107 562.6,290.777 569.572,291.469 576.543,292.183 583.514,292.919 590.485,293.679 597.457,294.463 604.428,295.271 611.399,296.104 618.371,296.963 
  625.342,297.847 632.313,298.758 639.284,299.695 646.256,300.66 653.227,301.653 660.198,302.674 667.169,303.724 674.141,304.803 681.112,305.911 688.083,307.049 
  695.054,308.217 702.026,309.416 708.997,310.645 715.968,311.905 722.94,313.196 729.911,314.518 736.882,315.871 743.853,317.255 750.825,318.671 757.796,320.117 
  764.767,321.595 771.738,323.103 778.71,324.641 785.681,326.21 792.652,327.808 799.623,329.436 806.595,331.093 813.566,332.777 820.537,334.489 827.509,336.229 
  834.48,337.994 841.451,339.784 848.422,341.598 855.394,343.436 862.365,345.296 869.336,347.176 876.307,349.077 883.279,350.996 890.25,352.933 897.221,354.885 
  904.193,356.852 911.164,358.831 918.135,360.822 925.106,362.823 932.078,364.833 939.049,366.848 946.02,368.869 952.991,370.893 959.963,372.919 966.934,374.944 
  973.905,376.968 980.876,378.988 987.848,381.003 994.819,383.01 1001.79,385.009 1008.76,386.998 1015.73,388.974 1022.7,390.937 1029.68,392.884 1036.65,394.815 
  1043.62,396.727 1050.59,398.62 1057.56,400.492 1064.53,402.341 1071.5,404.166 1078.47,405.966 1085.45,407.741 1092.42,409.488 1099.39,411.207 1106.36,412.897 
  1113.33,414.557 1120.3,416.186 1127.27,417.783 1134.24,419.349 1141.22,420.882 1148.19,422.382 1155.16,423.848 1162.13,425.281 1169.1,426.679 1176.07,428.043 
  1183.04,429.372 1190.01,430.667 1196.99,431.927 1203.96,433.152 1210.93,434.344 1217.9,435.5 1224.87,436.623 1231.84,437.712 1238.81,438.767 1245.78,439.789 
  1252.76,440.779 
  "/>
<polyline clip-path="url(#clip562)" style="stroke:#2000d4; stroke-linecap:butt; stroke-linejoin:round; stroke-width:16; stroke-opacity:1; fill:none" stroke-dasharray="8, 16" points="
  207.066,487.84 214.037,487.84 221.008,487.84 227.98,487.84 234.951,487.84 241.922,487.84 248.893,487.84 255.865,487.84 262.836,487.84 269.807,487.839 
  276.778,487.839 283.75,487.839 290.721,487.839 297.692,487.839 304.663,487.839 311.635,487.839 318.606,487.839 325.577,487.839 332.549,487.839 339.52,487.839 
  346.491,487.839 353.462,487.839 360.434,487.839 367.405,487.839 374.376,487.839 381.347,487.839 388.319,487.839 395.29,487.839 402.261,487.839 409.233,487.839 
  416.204,487.839 423.175,487.839 430.146,487.838 437.118,487.838 444.089,487.838 451.06,487.838 458.031,487.838 465.003,487.838 471.974,487.838 478.945,487.838 
  485.916,487.837 492.888,487.837 499.859,487.837 506.83,487.837 513.802,487.837 520.773,487.837 527.744,487.836 534.715,487.836 541.687,487.836 548.658,487.836 
  555.629,487.835 562.6,487.835 569.572,487.835 576.543,487.835 583.514,487.834 590.485,487.834 597.457,487.834 604.428,487.833 611.399,487.833 618.371,487.833 
  625.342,487.832 632.313,487.832 639.284,487.831 646.256,487.831 653.227,487.83 660.198,487.83 667.169,487.829 674.141,487.829 681.112,487.828 688.083,487.828 
  695.054,487.827 702.026,487.826 708.997,487.826 715.968,487.825 722.94,487.824 729.911,487.824 736.882,487.823 743.853,487.822 750.825,487.821 757.796,487.82 
  764.767,487.82 771.738,487.819 778.71,487.818 785.681,487.817 792.652,487.816 799.623,487.815 806.595,487.814 813.566,487.813 820.537,487.812 827.509,487.811 
  834.48,487.809 841.451,487.808 848.422,487.807 855.394,487.806 862.365,487.805 869.336,487.803 876.307,487.802 883.279,487.801 890.25,487.799 897.221,487.798 
  904.193,487.797 911.164,487.795 918.135,487.794 925.106,487.792 932.078,487.791 939.049,487.789 946.02,487.788 952.991,487.786 959.963,487.784 966.934,487.783 
  973.905,487.781 980.876,487.78 987.848,487.778 994.819,487.776 1001.79,487.774 1008.76,487.773 1015.73,487.771 1022.7,487.769 1029.68,487.767 1036.65,487.766 
  1043.62,487.764 1050.59,487.762 1057.56,487.76 1064.53,487.758 1071.5,487.756 1078.47,487.754 1085.45,487.752 1092.42,487.75 1099.39,487.749 1106.36,487.747 
  1113.33,487.745 1120.3,487.743 1127.27,487.741 1134.24,487.739 1141.22,487.737 1148.19,487.735 1155.16,487.733 1162.13,487.73 1169.1,487.728 1176.07,487.726 
  1183.04,487.724 1190.01,487.722 1196.99,487.72 1203.96,487.718 1210.93,487.716 1217.9,487.714 1224.87,487.711 1231.84,487.709 1238.81,487.707 1245.78,487.705 
  1252.76,487.703 
  "/>
<polyline clip-path="url(#clip562)" style="stroke:#008900; stroke-linecap:butt; stroke-linejoin:round; stroke-width:16; stroke-opacity:1; fill:none" stroke-dasharray="64, 40" points="
  207.066,487.84 214.037,487.839 221.008,487.839 227.98,487.839 234.951,487.839 241.922,487.839 248.893,487.839 255.865,487.839 262.836,487.839 269.807,487.839 
  276.778,487.839 283.75,487.839 290.721,487.839 297.692,487.839 304.663,487.839 311.635,487.839 318.606,487.839 325.577,487.839 332.549,487.839 339.52,487.839 
  346.491,487.839 353.462,487.839 360.434,487.839 367.405,487.839 374.376,487.839 381.347,487.839 388.319,487.839 395.29,487.839 402.261,487.839 409.233,487.839 
  416.204,487.839 423.175,487.839 430.146,487.839 437.118,487.839 444.089,487.839 451.06,487.839 458.031,487.839 465.003,487.839 471.974,487.839 478.945,487.839 
  485.916,487.839 492.888,487.839 499.859,487.839 506.83,487.839 513.802,487.839 520.773,487.839 527.744,487.839 534.715,487.839 541.687,487.839 548.658,487.839 
  555.629,487.839 562.6,487.839 569.572,487.839 576.543,487.839 583.514,487.839 590.485,487.839 597.457,487.839 604.428,487.839 611.399,487.839 618.371,487.839 
  625.342,487.838 632.313,487.838 639.284,487.838 646.256,487.838 653.227,487.838 660.198,487.838 667.169,487.838 674.141,487.838 681.112,487.838 688.083,487.838 
  695.054,487.838 702.026,487.838 708.997,487.838 715.968,487.838 722.94,487.838 729.911,487.838 736.882,487.838 743.853,487.837 750.825,487.837 757.796,487.837 
  764.767,487.837 771.738,487.837 778.71,487.837 785.681,487.837 792.652,487.837 799.623,487.837 806.595,487.837 813.566,487.836 820.537,487.836 827.509,487.836 
  834.48,487.836 841.451,487.836 848.422,487.836 855.394,487.836 862.365,487.836 869.336,487.835 876.307,487.835 883.279,487.835 890.25,487.835 897.221,487.835 
  904.193,487.835 911.164,487.834 918.135,487.834 925.106,487.834 932.078,487.834 939.049,487.834 946.02,487.833 952.991,487.833 959.963,487.833 966.934,487.833 
  973.905,487.832 980.876,487.832 987.848,487.832 994.819,487.832 1001.79,487.831 1008.76,487.831 1015.73,487.831 1022.7,487.83 1029.68,487.83 1036.65,487.83 
  1043.62,487.829 1050.59,487.829 1057.56,487.829 1064.53,487.828 1071.5,487.828 1078.47,487.827 1085.45,487.827 1092.42,487.826 1099.39,487.826 1106.36,487.825 
  1113.33,487.825 1120.3,487.824 1127.27,487.824 1134.24,487.823 1141.22,487.822 1148.19,487.822 1155.16,487.821 1162.13,487.82 1169.1,487.819 1176.07,487.819 
  1183.04,487.818 1190.01,487.817 1196.99,487.816 1203.96,487.815 1210.93,487.814 1217.9,487.813 1224.87,487.812 1231.84,487.811 1238.81,487.81 1245.78,487.809 
  1252.76,487.807 
  "/>
<polyline clip-path="url(#clip562)" style="stroke:#008900; stroke-linecap:butt; stroke-linejoin:round; stroke-width:16; stroke-opacity:1; fill:none" stroke-dasharray="8, 16" points="
  207.066,487.84 214.037,487.839 221.008,487.839 227.98,487.839 234.951,487.839 241.922,487.839 248.893,487.839 255.865,487.839 262.836,487.839 269.807,487.839 
  276.778,487.839 283.75,487.839 290.721,487.839 297.692,487.839 304.663,487.839 311.635,487.839 318.606,487.839 325.577,487.839 332.549,487.839 339.52,487.839 
  346.491,487.839 353.462,487.839 360.434,487.839 367.405,487.839 374.376,487.839 381.347,487.839 388.319,487.839 395.29,487.839 402.261,487.839 409.233,487.839 
  416.204,487.839 423.175,487.839 430.146,487.839 437.118,487.839 444.089,487.839 451.06,487.839 458.031,487.839 465.003,487.839 471.974,487.839 478.945,487.839 
  485.916,487.839 492.888,487.839 499.859,487.839 506.83,487.838 513.802,487.838 520.773,487.838 527.744,487.838 534.715,487.838 541.687,487.838 548.658,487.838 
  555.629,487.838 562.6,487.838 569.572,487.838 576.543,487.838 583.514,487.838 590.485,487.838 597.457,487.838 604.428,487.838 611.399,487.838 618.371,487.838 
  625.342,487.838 632.313,487.837 639.284,487.837 646.256,487.837 653.227,487.837 660.198,487.837 667.169,487.837 674.141,487.837 681.112,487.837 688.083,487.837 
  695.054,487.837 702.026,487.837 708.997,487.836 715.968,487.836 722.94,487.836 729.911,487.836 736.882,487.836 743.853,487.836 750.825,487.836 757.796,487.836 
  764.767,487.835 771.738,487.835 778.71,487.835 785.681,487.835 792.652,487.835 799.623,487.835 806.595,487.835 813.566,487.834 820.537,487.834 827.509,487.834 
  834.48,487.834 841.451,487.834 848.422,487.834 855.394,487.833 862.365,487.833 869.336,487.833 876.307,487.833 883.279,487.833 890.25,487.833 897.221,487.832 
  904.193,487.832 911.164,487.832 918.135,487.832 925.106,487.832 932.078,487.831 939.049,487.831 946.02,487.831 952.991,487.831 959.963,487.83 966.934,487.83 
  973.905,487.83 980.876,487.83 987.848,487.83 994.819,487.829 1001.79,487.829 1008.76,487.829 1015.73,487.829 1022.7,487.828 1029.68,487.828 1036.65,487.828 
  1043.62,487.828 1050.59,487.827 1057.56,487.827 1064.53,487.827 1071.5,487.827 1078.47,487.826 1085.45,487.826 1092.42,487.826 1099.39,487.825 1106.36,487.825 
  1113.33,487.825 1120.3,487.825 1127.27,487.824 1134.24,487.824 1141.22,487.824 1148.19,487.824 1155.16,487.823 1162.13,487.823 1169.1,487.823 1176.07,487.822 
  1183.04,487.822 1190.01,487.822 1196.99,487.822 1203.96,487.821 1210.93,487.821 1217.9,487.821 1224.87,487.821 1231.84,487.82 1238.81,487.82 1245.78,487.82 
  1252.76,487.82 
  "/>
<polyline clip-path="url(#clip562)" style="stroke:#2000d4; stroke-linecap:butt; stroke-linejoin:round; stroke-width:16; stroke-opacity:1; fill:none" points="
  207.066,487.412 214.037,487.085 221.008,486.53 227.98,485.958 234.951,485.369 241.922,484.763 248.893,484.14 255.865,483.497 262.836,482.835 269.807,482.153 
  276.778,481.451 283.75,480.726 290.721,479.98 297.692,479.21 304.663,478.416 311.635,477.597 318.606,476.753 325.577,475.882 332.549,474.984 339.52,474.057 
  346.491,473.101 353.462,472.115 360.434,471.097 367.405,470.047 374.376,468.963 381.347,467.846 388.319,466.692 395.29,465.503 402.261,464.275 409.233,463.009 
  416.204,461.703 423.175,460.357 430.146,458.968 437.118,457.536 444.089,456.059 451.06,454.537 458.031,452.968 465.003,451.352 471.974,449.686 478.945,447.97 
  485.916,446.203 492.888,444.384 499.859,442.511 506.83,440.583 513.802,438.6 520.773,436.56 527.744,434.462 534.715,432.306 541.687,430.089 548.658,427.813 
  555.629,425.475 562.6,423.074 569.572,420.611 576.543,418.084 583.514,415.493 590.485,412.837 597.457,410.117 604.428,407.33 611.399,404.478 618.371,401.56 
  625.342,398.575 632.313,395.525 639.284,392.409 646.256,389.227 653.227,385.981 660.198,382.669 667.169,379.293 674.141,375.854 681.112,372.353 688.083,368.79 
  695.054,365.167 702.026,361.485 708.997,357.746 715.968,353.951 722.94,350.101 729.911,346.2 736.882,342.248 743.853,338.249 750.825,334.204 757.796,330.115 
  764.767,325.986 771.738,321.819 778.71,317.617 785.681,313.383 792.652,309.119 799.623,304.83 806.595,300.517 813.566,296.185 820.537,291.836 827.509,287.475 
  834.48,283.104 841.451,278.727 848.422,274.348 855.394,269.97 862.365,265.597 869.336,261.232 876.307,256.879 883.279,252.541 890.25,248.222 897.221,243.925 
  904.193,239.653 911.164,235.41 918.135,231.198 925.106,227.022 932.078,222.884 939.049,218.787 946.02,214.733 952.991,210.725 959.963,206.767 966.934,202.859 
  973.905,199.005 980.876,195.207 987.848,191.467 994.819,187.786 1001.79,184.166 1008.76,180.609 1015.73,177.116 1022.7,173.688 1029.68,170.328 1036.65,167.034 
  1043.62,163.809 1050.59,160.653 1057.56,157.567 1064.53,154.551 1071.5,151.606 1078.47,148.731 1085.45,145.926 1092.42,143.193 1099.39,140.529 1106.36,137.936 
  1113.33,135.413 1120.3,132.959 1127.27,130.574 1134.24,128.257 1141.22,126.008 1148.19,123.826 1155.16,121.709 1162.13,119.657 1169.1,117.67 1176.07,115.745 
  1183.04,113.882 1190.01,112.08 1196.99,110.338 1203.96,108.654 1210.93,107.027 1217.9,105.457 1224.87,103.941 1231.84,102.479 1238.81,101.068 1245.78,99.7092 
  1252.76,98.3995 
  "/>
<polyline clip-path="url(#clip562)" style="stroke:#008900; stroke-linecap:butt; stroke-linejoin:round; stroke-width:16; stroke-opacity:1; fill:none" points="
  207.066,487.626 214.037,487.482 221.008,487.466 227.98,487.45 234.951,487.434 241.922,487.416 248.893,487.398 255.865,487.379 262.836,487.36 269.807,487.339 
  276.778,487.318 283.75,487.297 290.721,487.274 297.692,487.25 304.663,487.226 311.635,487.201 318.606,487.175 325.577,487.148 332.549,487.119 339.52,487.09 
  346.491,487.06 353.462,487.029 360.434,486.996 367.405,486.963 374.376,486.928 381.347,486.892 388.319,486.855 395.29,486.816 402.261,486.776 409.233,486.735 
  416.204,486.692 423.175,486.647 430.146,486.602 437.118,486.554 444.089,486.505 451.06,486.454 458.031,486.402 465.003,486.348 471.974,486.292 478.945,486.234 
  485.916,486.174 492.888,486.113 499.859,486.049 506.83,485.983 513.802,485.915 520.773,485.846 527.744,485.774 534.715,485.699 541.687,485.623 548.658,485.544 
  555.629,485.463 562.6,485.38 569.572,485.294 576.543,485.205 583.514,485.115 590.485,485.021 597.457,484.925 604.428,484.827 611.399,484.726 618.371,484.622 
  625.342,484.515 632.313,484.406 639.284,484.295 646.256,484.18 653.227,484.063 660.198,483.943 667.169,483.82 674.141,483.695 681.112,483.566 688.083,483.435 
  695.054,483.302 702.026,483.165 708.997,483.026 715.968,482.884 722.94,482.74 729.911,482.592 736.882,482.443 743.853,482.29 750.825,482.135 757.796,481.978 
  764.767,481.818 771.738,481.655 778.71,481.491 785.681,481.324 792.652,481.154 799.623,480.983 806.595,480.809 813.566,480.633 820.537,480.455 827.509,480.275 
  834.48,480.093 841.451,479.909 848.422,479.724 855.394,479.536 862.365,479.347 869.336,479.157 876.307,478.964 883.279,478.771 890.25,478.575 897.221,478.379 
  904.193,478.181 911.164,477.982 918.135,477.781 925.106,477.579 932.078,477.377 939.049,477.173 946.02,476.968 952.991,476.762 959.963,476.555 966.934,476.347 
  973.905,476.138 980.876,475.928 987.848,475.717 994.819,475.506 1001.79,475.293 1008.76,475.08 1015.73,474.867 1022.7,474.652 1029.68,474.437 1036.65,474.221 
  1043.62,474.005 1050.59,473.787 1057.56,473.57 1064.53,473.352 1071.5,473.133 1078.47,472.914 1085.45,472.695 1092.42,472.475 1099.39,472.255 1106.36,472.035 
  1113.33,471.815 1120.3,471.596 1127.27,471.376 1134.24,471.156 1141.22,470.937 1148.19,470.719 1155.16,470.501 1162.13,470.284 1169.1,470.068 1176.07,469.854 
  1183.04,469.64 1190.01,469.429 1196.99,469.219 1203.96,469.012 1210.93,468.807 1217.9,468.604 1224.87,468.405 1231.84,468.208 1238.81,468.015 1245.78,467.826 
  1252.76,467.641 
  "/>
<polyline clip-path="url(#clip562)" style="stroke:#7f7f7f; stroke-linecap:butt; stroke-linejoin:round; stroke-width:16; stroke-opacity:1; fill:none" points="
  207.066,60.077 214.037,71.0592 221.008,165.995 227.98,214.672 234.951,245.335 241.922,266.806 248.893,282.848 255.865,295.376 262.836,305.477 269.807,313.821 
  276.778,320.846 283.75,326.852 290.721,332.053 297.692,336.604 304.663,340.623 311.635,344.2 318.606,347.406 325.577,350.296 332.549,352.916 339.52,355.302 
  346.491,357.486 353.462,359.492 360.434,361.342 367.405,363.053 374.376,364.643 381.347,366.123 388.319,367.506 395.29,368.802 402.261,370.019 409.233,371.165 
  416.204,372.248 423.175,373.273 430.146,374.245 437.118,375.171 444.089,376.054 451.06,376.898 458.031,377.707 465.003,378.484 471.974,379.232 478.945,379.955 
  485.916,380.654 492.888,381.332 499.859,381.99 506.83,382.632 513.802,383.259 520.773,383.872 527.744,384.474 534.715,385.065 541.687,385.648 548.658,386.223 
  555.629,386.791 562.6,387.355 569.572,387.914 576.543,388.47 583.514,389.025 590.485,389.578 597.457,390.13 604.428,390.684 611.399,391.238 618.371,391.795 
  625.342,392.354 632.313,392.916 639.284,393.483 646.256,394.053 653.227,394.629 660.198,395.211 667.169,395.798 674.141,396.392 681.112,396.993 688.083,397.601 
  695.054,398.216 702.026,398.84 708.997,399.471 715.968,400.111 722.94,400.76 729.911,401.418 736.882,402.084 743.853,402.76 750.825,403.445 757.796,404.139 
  764.767,404.843 771.738,405.556 778.71,406.279 785.681,407.011 792.652,407.752 799.623,408.503 806.595,409.263 813.566,410.032 820.537,410.809 827.509,411.596 
  834.48,412.391 841.451,413.194 848.422,414.006 855.394,414.825 862.365,415.652 869.336,416.485 876.307,417.326 883.279,418.173 890.25,419.026 897.221,419.886 
  904.193,420.75 911.164,421.62 918.135,422.494 925.106,423.372 932.078,424.254 939.049,425.139 946.02,426.027 952.991,426.918 959.963,427.81 966.934,428.704 
  973.905,429.599 980.876,430.495 987.848,431.391 994.819,432.286 1001.79,433.181 1008.76,434.075 1015.73,434.966 1022.7,435.856 1029.68,436.743 1036.65,437.628 
  1043.62,438.509 1050.59,439.386 1057.56,440.259 1064.53,441.127 1071.5,441.99 1078.47,442.849 1085.45,443.701 1092.42,444.547 1099.39,445.387 1106.36,446.221 
  1113.33,447.047 1120.3,447.866 1127.27,448.677 1134.24,449.48 1141.22,450.275 1148.19,451.062 1155.16,451.84 1162.13,452.609 1169.1,453.369 1176.07,454.119 
  1183.04,454.86 1190.01,455.591 1196.99,456.312 1203.96,457.023 1210.93,457.724 1217.9,458.414 1224.87,459.094 1231.84,459.763 1238.81,460.421 1245.78,461.068 
  1252.76,461.704 
  "/>
<polyline clip-path="url(#clip562)" style="stroke:#895f55; stroke-linecap:butt; stroke-linejoin:round; stroke-width:16; stroke-opacity:1; fill:none" points="
  214.037,487.416 221.008,487.094 227.98,486.563 234.951,486.017 241.922,485.454 248.893,484.874 255.865,484.278 262.836,483.663 269.807,483.03 276.778,482.378 
  283.75,481.705 290.721,481.013 297.692,480.298 304.663,479.562 311.635,478.802 318.606,478.019 325.577,477.212 332.549,476.378 339.52,475.519 346.491,474.632 
  353.462,473.717 360.434,472.774 367.405,471.8 374.376,470.795 381.347,469.759 388.319,468.689 395.29,467.586 402.261,466.448 409.233,465.273 416.204,464.062 
  423.175,462.813 430.146,461.524 437.118,460.195 444.089,458.825 451.06,457.412 458.031,455.956 465.003,454.455 471.974,452.908 478.945,451.314 485.916,449.673 
  492.888,447.982 499.859,446.241 506.83,444.449 513.802,442.604 520.773,440.706 527.744,438.754 534.715,436.747 541.687,434.683 548.658,432.563 555.629,430.384 
  562.6,428.147 569.572,425.85 576.543,423.493 583.514,421.075 590.485,418.596 597.457,416.054 604.428,413.451 611.399,410.784 618.371,408.055 625.342,405.262 
  632.313,402.407 639.284,399.488 646.256,396.506 653.227,393.461 660.198,390.354 667.169,387.185 674.141,383.955 681.112,380.664 688.083,377.313 695.054,373.903 
  702.026,370.436 708.997,366.913 715.968,363.334 722.94,359.702 729.911,356.019 736.882,352.285 743.853,348.504 750.825,344.676 757.796,340.805 764.767,336.892 
  771.738,332.941 778.71,328.953 785.681,324.931 792.652,320.879 799.623,316.798 806.595,312.693 813.566,308.565 820.537,304.419 827.509,300.257 834.48,296.083 
  841.451,291.9 848.422,287.711 855.394,283.52 862.365,279.33 869.336,275.144 876.307,270.966 883.279,266.8 890.25,262.648 897.221,258.514 904.193,254.4 
  911.164,250.312 918.135,246.25 925.106,242.219 932.078,238.222 939.049,234.26 946.02,230.338 952.991,226.458 959.963,222.622 966.934,218.832 973.905,215.092 
  980.876,211.403 987.848,207.767 994.819,204.186 1001.79,200.662 1008.76,197.196 1015.73,193.791 1022.7,190.447 1029.68,187.166 1036.65,183.948 1043.62,180.795 
  1050.59,177.707 1057.56,174.686 1064.53,171.731 1071.5,168.844 1078.47,166.023 1085.45,163.271 1092.42,160.586 1099.39,157.968 1106.36,155.418 1113.33,152.936 
  1120.3,150.52 1127.27,148.171 1134.24,145.888 1141.22,143.67 1148.19,141.516 1155.16,139.427 1162.13,137.401 1169.1,135.438 1176.07,133.535 1183.04,131.694 
  1190.01,129.911 1196.99,128.187 1203.96,126.521 1210.93,124.91 1217.9,123.355 1224.87,121.854 1231.84,120.405 1238.81,119.008 1245.78,117.661 1252.76,116.363 
  
  "/>
<polyline clip-path="url(#clip562)" style="stroke:#2000d4; stroke-linecap:butt; stroke-linejoin:round; stroke-width:16; stroke-opacity:1; fill:none" stroke-dasharray="64, 40" points="
  207.066,487.84 214.037,487.84 221.008,487.84 227.98,487.84 234.951,487.84 241.922,487.84 248.893,487.84 255.865,487.84 262.836,487.84 269.807,487.839 
  276.778,487.839 283.75,487.839 290.721,487.839 297.692,487.839 304.663,487.839 311.635,487.839 318.606,487.839 325.577,487.839 332.549,487.839 339.52,487.839 
  346.491,487.839 353.462,487.839 360.434,487.839 367.405,487.839 374.376,487.839 381.347,487.839 388.319,487.839 395.29,487.839 402.261,487.839 409.233,487.839 
  416.204,487.839 423.175,487.839 430.146,487.839 437.118,487.839 444.089,487.839 451.06,487.839 458.031,487.839 465.003,487.839 471.974,487.839 478.945,487.839 
  485.916,487.839 492.888,487.839 499.859,487.838 506.83,487.838 513.802,487.838 520.773,487.838 527.744,487.838 534.715,487.838 541.687,487.838 548.658,487.838 
  555.629,487.838 562.6,487.838 569.572,487.838 576.543,487.838 583.514,487.838 590.485,487.838 597.457,487.837 604.428,487.837 611.399,487.837 618.371,487.837 
  625.342,487.837 632.313,487.837 639.284,487.837 646.256,487.837 653.227,487.837 660.198,487.837 667.169,487.836 674.141,487.836 681.112,487.836 688.083,487.836 
  695.054,487.836 702.026,487.836 708.997,487.836 715.968,487.836 722.94,487.835 729.911,487.835 736.882,487.835 743.853,487.835 750.825,487.835 757.796,487.835 
  764.767,487.835 771.738,487.834 778.71,487.834 785.681,487.834 792.652,487.834 799.623,487.834 806.595,487.834 813.566,487.834 820.537,487.833 827.509,487.833 
  834.48,487.833 841.451,487.833 848.422,487.833 855.394,487.833 862.365,487.833 869.336,487.832 876.307,487.832 883.279,487.832 890.25,487.832 897.221,487.832 
  904.193,487.832 911.164,487.831 918.135,487.831 925.106,487.831 932.078,487.831 939.049,487.831 946.02,487.831 952.991,487.831 959.963,487.831 966.934,487.83 
  973.905,487.83 980.876,487.83 987.848,487.83 994.819,487.83 1001.79,487.83 1008.76,487.83 1015.73,487.83 1022.7,487.829 1029.68,487.829 1036.65,487.829 
  1043.62,487.829 1050.59,487.829 1057.56,487.829 1064.53,487.829 1071.5,487.829 1078.47,487.829 1085.45,487.828 1092.42,487.828 1099.39,487.828 1106.36,487.828 
  1113.33,487.828 1120.3,487.828 1127.27,487.828 1134.24,487.828 1141.22,487.828 1148.19,487.828 1155.16,487.828 1162.13,487.828 1169.1,487.828 1176.07,487.827 
  1183.04,487.827 1190.01,487.827 1196.99,487.827 1203.96,487.827 1210.93,487.827 1217.9,487.827 1224.87,487.827 1231.84,487.827 1238.81,487.827 1245.78,487.827 
  1252.76,487.827 
  "/>
<polyline clip-path="url(#clip562)" style="stroke:#ff221c; stroke-linecap:butt; stroke-linejoin:round; stroke-width:16; stroke-opacity:1; fill:none" points="
  207.066,145.801 214.037,145.777 221.008,145.757 227.98,145.749 234.951,145.747 241.922,145.748 248.893,145.751 255.865,145.754 262.836,145.758 269.807,145.762 
  276.778,145.767 283.75,145.772 290.721,145.777 297.692,145.782 304.663,145.787 311.635,145.793 318.606,145.798 325.577,145.804 332.549,145.81 339.52,145.817 
  346.491,145.824 353.462,145.831 360.434,145.838 367.405,145.845 374.376,145.853 381.347,145.861 388.319,145.869 395.29,145.878 402.261,145.887 409.233,145.896 
  416.204,145.905 423.175,145.915 430.146,145.926 437.118,145.936 444.089,145.947 451.06,145.959 458.031,145.971 465.003,145.983 471.974,145.996 478.945,146.009 
  485.916,146.022 492.888,146.037 499.859,146.051 506.83,146.066 513.802,146.082 520.773,146.098 527.744,146.115 534.715,146.132 541.687,146.15 548.658,146.168 
  555.629,146.187 562.6,146.207 569.572,146.227 576.543,146.248 583.514,146.269 590.485,146.291 597.457,146.314 604.428,146.338 611.399,146.362 618.371,146.387 
  625.342,146.413 632.313,146.439 639.284,146.467 646.256,146.495 653.227,146.523 660.198,146.553 667.169,146.583 674.141,146.614 681.112,146.646 688.083,146.679 
  695.054,146.712 702.026,146.746 708.997,146.781 715.968,146.817 722.94,146.854 729.911,146.891 736.882,146.929 743.853,146.968 750.825,147.007 757.796,147.047 
  764.767,147.088 771.738,147.13 778.71,147.172 785.681,147.214 792.652,147.258 799.623,147.301 806.595,147.346 813.566,147.39 820.537,147.435 827.509,147.48 
  834.48,147.526 841.451,147.571 848.422,147.617 855.394,147.663 862.365,147.709 869.336,147.754 876.307,147.8 883.279,147.845 890.25,147.889 897.221,147.933 
  904.193,147.977 911.164,148.02 918.135,148.062 925.106,148.102 932.078,148.142 939.049,148.181 946.02,148.218 952.991,148.253 959.963,148.287 966.934,148.319 
  973.905,148.349 980.876,148.377 987.848,148.402 994.819,148.425 1001.79,148.444 1008.76,148.461 1015.73,148.475 1022.7,148.485 1029.68,148.492 1036.65,148.495 
  1043.62,148.493 1050.59,148.488 1057.56,148.477 1064.53,148.462 1071.5,148.442 1078.47,148.416 1085.45,148.385 1092.42,148.347 1099.39,148.304 1106.36,148.254 
  1113.33,148.197 1120.3,148.132 1127.27,148.061 1134.24,147.981 1141.22,147.894 1148.19,147.798 1155.16,147.693 1162.13,147.579 1169.1,147.456 1176.07,147.322 
  1183.04,147.179 1190.01,147.025 1196.99,146.861 1203.96,146.685 1210.93,146.498 1217.9,146.299 1224.87,146.088 1231.84,145.865 1238.81,145.629 1245.78,145.38 
  1252.76,145.119 
  "/>
<polyline clip-path="url(#clip562)" style="stroke:#000000; stroke-linecap:butt; stroke-linejoin:round; stroke-width:16; stroke-opacity:1; fill:none" stroke-dasharray="8, 16" points="
  207.066,60.077 214.037,60.5005 221.008,60.8932 227.98,61.4892 234.951,62.1349 241.922,62.8052 248.893,63.4961 255.865,64.2078 262.836,64.9407 269.807,65.6957 
  276.778,66.4736 283.75,67.2752 290.721,68.1013 297.692,68.953 304.663,69.831 311.635,70.7363 318.606,71.6698 325.577,72.6327 332.549,73.6258 339.52,74.6502 
  346.491,75.7069 353.462,76.7971 360.434,77.9218 367.405,79.0822 374.376,80.2794 381.347,81.5145 388.319,82.7888 395.29,84.1035 402.261,85.4597 409.233,86.8588 
  416.204,88.3019 423.175,89.7904 430.146,91.3255 437.118,92.9086 444.089,94.5409 451.06,96.2237 458.031,97.9584 465.003,99.7463 471.974,101.589 478.945,103.487 
  485.916,105.442 492.888,107.456 499.859,109.529 506.83,111.663 513.802,113.86 520.773,116.12 527.744,118.444 534.715,120.834 541.687,123.291 548.658,125.816 
  555.629,128.41 562.6,131.074 569.572,133.809 576.543,136.615 583.514,139.493 590.485,142.445 597.457,145.47 604.428,148.569 611.399,151.743 618.371,154.992 
  625.342,158.315 632.313,161.714 639.284,165.188 646.256,168.736 653.227,172.36 660.198,176.057 667.169,179.828 674.141,183.671 681.112,187.587 688.083,191.573 
  695.054,195.629 702.026,199.753 708.997,203.945 715.968,208.201 722.94,212.52 729.911,216.901 736.882,221.34 743.853,225.837 750.825,230.387 757.796,234.989 
  764.767,239.64 771.738,244.337 778.71,249.076 785.681,253.855 792.652,258.67 799.623,263.517 806.595,268.393 813.566,273.295 820.537,278.218 827.509,283.159 
  834.48,288.114 841.451,293.078 848.422,298.048 855.394,303.019 862.365,307.988 869.336,312.951 876.307,317.902 883.279,322.839 890.25,327.757 897.221,332.652 
  904.193,337.52 911.164,342.357 918.135,347.16 925.106,351.924 932.078,356.646 939.049,361.322 946.02,365.95 952.991,370.524 959.963,375.043 966.934,379.503 
  973.905,383.901 980.876,388.234 987.848,392.5 994.819,396.696 1001.79,400.82 1008.76,404.868 1015.73,408.84 1022.7,412.733 1029.68,416.544 1036.65,420.273 
  1043.62,423.917 1050.59,427.474 1057.56,430.944 1064.53,434.324 1071.5,437.614 1078.47,440.811 1085.45,443.914 1092.42,446.922 1099.39,449.834 1106.36,452.648 
  1113.33,455.363 1120.3,457.976 1127.27,460.487 1134.24,462.893 1141.22,465.193 1148.19,467.385 1155.16,469.466 1162.13,471.435 1169.1,473.289 1176.07,475.027 
  1183.04,476.645 1190.01,478.143 1196.99,479.519 1203.96,480.772 1210.93,481.903 1217.9,482.912 1224.87,483.803 1231.84,484.578 1238.81,485.242 1245.78,485.803 
  1252.76,486.269 
  "/>
</svg>
