<?xml version="1.0" encoding="utf-8"?>
<svg xmlns="http://www.w3.org/2000/svg" xmlns:xlink="http://www.w3.org/1999/xlink" width="325" height="150" viewBox="0 0 1300 600">
<defs>
  <clipPath id="clip430">
    <rect x="0" y="0" width="1300" height="600"/>
  </clipPath>
</defs>
<path clip-path="url(#clip430)" d="
M0 600 L1300 600 L1300 0 L0 0  Z
  " fill="#ffffff" fill-rule="evenodd" fill-opacity="1"/>
<defs>
  <clipPath id="clip431">
    <rect x="260" y="0" width="911" height="600"/>
  </clipPath>
</defs>
<path clip-path="url(#clip430)" d="
M200.094 501.1 L1252.76 501.1 L1252.76 47.2441 L200.094 47.2441  Z
  " fill="#ffffff" fill-rule="evenodd" fill-opacity="1"/>
<defs>
  <clipPath id="clip432">
    <rect x="200" y="47" width="1054" height="455"/>
  </clipPath>
</defs>
<polyline clip-path="url(#clip430)" style="stroke:#000000; stroke-linecap:round; stroke-linejoin:round; stroke-width:4; stroke-opacity:1; fill:none" points="
  200.094,501.1 1252.76,501.1 
  "/>
<polyline clip-path="url(#clip430)" style="stroke:#000000; stroke-linecap:round; stroke-linejoin:round; stroke-width:4; stroke-opacity:1; fill:none" points="
  200.094,501.1 200.094,482.203 
  "/>
<polyline clip-path="url(#clip430)" style="stroke:#000000; stroke-linecap:round; stroke-linejoin:round; stroke-width:4; stroke-opacity:1; fill:none" points="
  548.658,501.1 548.658,482.203 
  "/>
<polyline clip-path="url(#clip430)" style="stroke:#000000; stroke-linecap:round; stroke-linejoin:round; stroke-width:4; stroke-opacity:1; fill:none" points="
  897.221,501.1 897.221,482.203 
  "/>
<polyline clip-path="url(#clip430)" style="stroke:#000000; stroke-linecap:round; stroke-linejoin:round; stroke-width:4; stroke-opacity:1; fill:none" points="
  1245.78,501.1 1245.78,482.203 
  "/>
<path clip-path="url(#clip430)" d="M200.094 526.149 Q195.581 526.149 193.295 530.605 Q191.038 535.032 191.038 543.944 Q191.038 552.827 193.295 557.283 Q195.581 561.71 200.094 561.71 Q204.637 561.71 206.894 557.283 Q209.18 552.827 209.18 543.944 Q209.18 535.032 206.894 530.605 Q204.637 526.149 200.094 526.149 M200.094 521.519 Q207.357 521.519 211.177 527.277 Q215.025 533.006 215.025 543.944 Q215.025 554.852 211.177 560.61 Q207.357 566.339 200.094 566.339 Q192.832 566.339 188.983 560.61 Q185.164 554.852 185.164 543.944 Q185.164 533.006 188.983 527.277 Q192.832 521.519 200.094 521.519 Z" fill="#000000" fill-rule="evenodd" fill-opacity="1" /><path clip-path="url(#clip430)" d="M517.032 522.3 L539.977 522.3 L539.977 527.219 L522.385 527.219 L522.385 537.809 Q523.658 537.375 524.931 537.173 Q526.204 536.941 527.477 536.941 Q534.711 536.941 538.936 540.905 Q543.16 544.87 543.16 551.64 Q543.16 558.614 538.82 562.491 Q534.48 566.339 526.58 566.339 Q523.861 566.339 521.025 565.876 Q518.218 565.413 515.209 564.487 L515.209 558.614 Q517.813 560.031 520.591 560.726 Q523.369 561.42 526.465 561.42 Q531.47 561.42 534.393 558.787 Q537.315 556.154 537.315 551.64 Q537.315 547.126 534.393 544.493 Q531.47 541.86 526.465 541.86 Q524.121 541.86 521.777 542.381 Q519.462 542.902 517.032 544.001 L517.032 522.3 Z" fill="#000000" fill-rule="evenodd" fill-opacity="1" /><path clip-path="url(#clip430)" d="M567.176 526.149 Q562.662 526.149 560.377 530.605 Q558.12 535.032 558.12 543.944 Q558.12 552.827 560.377 557.283 Q562.662 561.71 567.176 561.71 Q571.719 561.71 573.976 557.283 Q576.262 552.827 576.262 543.944 Q576.262 535.032 573.976 530.605 Q571.719 526.149 567.176 526.149 M567.176 521.519 Q574.439 521.519 578.258 527.277 Q582.107 533.006 582.107 543.944 Q582.107 554.852 578.258 560.61 Q574.439 566.339 567.176 566.339 Q559.914 566.339 556.065 560.61 Q552.246 554.852 552.246 543.944 Q552.246 533.006 556.065 527.277 Q559.914 521.519 567.176 521.519 Z" fill="#000000" fill-rule="evenodd" fill-opacity="1" /><path clip-path="url(#clip430)" d="M846.73 560.581 L856.278 560.581 L856.278 527.624 L845.891 529.708 L845.891 524.384 L856.22 522.3 L862.065 522.3 L862.065 560.581 L871.614 560.581 L871.614 565.5 L846.73 565.5 L846.73 560.581 Z" fill="#000000" fill-rule="evenodd" fill-opacity="1" /><path clip-path="url(#clip430)" d="M895.919 526.149 Q891.405 526.149 889.119 530.605 Q886.863 535.032 886.863 543.944 Q886.863 552.827 889.119 557.283 Q891.405 561.71 895.919 561.71 Q900.462 561.71 902.719 557.283 Q905.005 552.827 905.005 543.944 Q905.005 535.032 902.719 530.605 Q900.462 526.149 895.919 526.149 M895.919 521.519 Q903.182 521.519 907.001 527.277 Q910.85 533.006 910.85 543.944 Q910.85 554.852 907.001 560.61 Q903.182 566.339 895.919 566.339 Q888.656 566.339 884.808 560.61 Q880.989 554.852 880.989 543.944 Q880.989 533.006 884.808 527.277 Q888.656 521.519 895.919 521.519 Z" fill="#000000" fill-rule="evenodd" fill-opacity="1" /><path clip-path="url(#clip430)" d="M933.622 526.149 Q929.108 526.149 926.822 530.605 Q924.565 535.032 924.565 543.944 Q924.565 552.827 926.822 557.283 Q929.108 561.71 933.622 561.71 Q938.164 561.71 940.421 557.283 Q942.707 552.827 942.707 543.944 Q942.707 535.032 940.421 530.605 Q938.164 526.149 933.622 526.149 M933.622 521.519 Q940.884 521.519 944.704 527.277 Q948.552 533.006 948.552 543.944 Q948.552 554.852 944.704 560.61 Q940.884 566.339 933.622 566.339 Q926.359 566.339 922.51 560.61 Q918.691 554.852 918.691 543.944 Q918.691 533.006 922.51 527.277 Q926.359 521.519 933.622 521.519 Z" fill="#000000" fill-rule="evenodd" fill-opacity="1" /><path clip-path="url(#clip430)" d="M1195.29 560.581 L1204.84 560.581 L1204.84 527.624 L1194.45 529.708 L1194.45 524.384 L1204.78 522.3 L1210.63 522.3 L1210.63 560.581 L1220.18 560.581 L1220.18 565.5 L1195.29 565.5 L1195.29 560.581 Z" fill="#000000" fill-rule="evenodd" fill-opacity="1" /><path clip-path="url(#clip430)" d="M1232.04 522.3 L1254.99 522.3 L1254.99 527.219 L1237.39 527.219 L1237.39 537.809 Q1238.67 537.375 1239.94 537.173 Q1241.21 536.941 1242.49 536.941 Q1249.72 536.941 1253.94 540.905 Q1258.17 544.87 1258.17 551.64 Q1258.17 558.614 1253.83 562.491 Q1249.49 566.339 1241.59 566.339 Q1238.87 566.339 1236.03 565.876 Q1233.23 565.413 1230.22 564.487 L1230.22 558.614 Q1232.82 560.031 1235.6 560.726 Q1238.38 561.42 1241.47 561.42 Q1246.48 561.42 1249.4 558.787 Q1252.32 556.154 1252.32 551.64 Q1252.32 547.126 1249.4 544.493 Q1246.48 541.86 1241.47 541.86 Q1239.13 541.86 1236.79 542.381 Q1234.47 542.902 1232.04 544.001 L1232.04 522.3 Z" fill="#000000" fill-rule="evenodd" fill-opacity="1" /><path clip-path="url(#clip430)" d="M1282.18 526.149 Q1277.67 526.149 1275.39 530.605 Q1273.13 535.032 1273.13 543.944 Q1273.13 552.827 1275.39 557.283 Q1277.67 561.71 1282.18 561.71 Q1286.73 561.71 1288.98 557.283 Q1291.27 552.827 1291.27 543.944 Q1291.27 535.032 1288.98 530.605 Q1286.73 526.149 1282.18 526.149 M1282.18 521.519 Q1289.45 521.519 1293.27 527.277 Q1297.12 533.006 1297.12 543.944 Q1297.12 554.852 1293.27 560.61 Q1289.45 566.339 1282.18 566.339 Q1274.92 566.339 1271.07 560.61 Q1267.25 554.852 1267.25 543.944 Q1267.25 533.006 1271.07 527.277 Q1274.92 521.519 1282.18 521.519 Z" fill="#000000" fill-rule="evenodd" fill-opacity="1" /><polyline clip-path="url(#clip430)" style="stroke:#000000; stroke-linecap:round; stroke-linejoin:round; stroke-width:4; stroke-opacity:1; fill:none" points="
  200.094,501.1 200.094,47.2441 
  "/>
<polyline clip-path="url(#clip430)" style="stroke:#000000; stroke-linecap:round; stroke-linejoin:round; stroke-width:4; stroke-opacity:1; fill:none" points="
  200.094,487.84 218.992,487.84 
  "/>
<polyline clip-path="url(#clip430)" style="stroke:#000000; stroke-linecap:round; stroke-linejoin:round; stroke-width:4; stroke-opacity:1; fill:none" points="
  200.094,380.899 218.992,380.899 
  "/>
<polyline clip-path="url(#clip430)" style="stroke:#000000; stroke-linecap:round; stroke-linejoin:round; stroke-width:4; stroke-opacity:1; fill:none" points="
  200.094,273.958 218.992,273.958 
  "/>
<polyline clip-path="url(#clip430)" style="stroke:#000000; stroke-linecap:round; stroke-linejoin:round; stroke-width:4; stroke-opacity:1; fill:none" points="
  200.094,167.018 218.992,167.018 
  "/>
<polyline clip-path="url(#clip430)" style="stroke:#000000; stroke-linecap:round; stroke-linejoin:round; stroke-width:4; stroke-opacity:1; fill:none" points="
  200.094,60.077 218.992,60.077 
  "/>
<path clip-path="url(#clip430)" d="M71.4226 470.088 Q66.9087 470.088 64.6229 474.544 Q62.3659 478.971 62.3659 487.883 Q62.3659 496.766 64.6229 501.222 Q66.9087 505.649 71.4226 505.649 Q75.9654 505.649 78.2223 501.222 Q80.5082 496.766 80.5082 487.883 Q80.5082 478.971 78.2223 474.544 Q75.9654 470.088 71.4226 470.088 M71.4226 465.458 Q78.6853 465.458 82.5047 471.216 Q86.3531 476.946 86.3531 487.883 Q86.3531 498.791 82.5047 504.55 Q78.6853 510.279 71.4226 510.279 Q64.1599 510.279 60.3115 504.55 Q56.4921 498.791 56.4921 487.883 Q56.4921 476.946 60.3115 471.216 Q64.1599 465.458 71.4226 465.458 Z" fill="#000000" fill-rule="evenodd" fill-opacity="1" /><path clip-path="url(#clip430)" d="M96.625 502.09 L102.73 502.09 L102.73 509.44 L96.625 509.44 L96.625 502.09 Z" fill="#000000" fill-rule="evenodd" fill-opacity="1" /><path clip-path="url(#clip430)" d="M127.962 470.088 Q123.448 470.088 121.162 474.544 Q118.905 478.971 118.905 487.883 Q118.905 496.766 121.162 501.222 Q123.448 505.649 127.962 505.649 Q132.504 505.649 134.761 501.222 Q137.047 496.766 137.047 487.883 Q137.047 478.971 134.761 474.544 Q132.504 470.088 127.962 470.088 M127.962 465.458 Q135.224 465.458 139.044 471.216 Q142.892 476.946 142.892 487.883 Q142.892 498.791 139.044 504.55 Q135.224 510.279 127.962 510.279 Q120.699 510.279 116.851 504.55 Q113.031 498.791 113.031 487.883 Q113.031 476.946 116.851 471.216 Q120.699 465.458 127.962 465.458 Z" fill="#000000" fill-rule="evenodd" fill-opacity="1" /><path clip-path="url(#clip430)" d="M165.664 470.088 Q161.15 470.088 158.864 474.544 Q156.607 478.971 156.607 487.883 Q156.607 496.766 158.864 501.222 Q161.15 505.649 165.664 505.649 Q170.207 505.649 172.464 501.222 Q174.75 496.766 174.75 487.883 Q174.75 478.971 172.464 474.544 Q170.207 470.088 165.664 470.088 M165.664 465.458 Q172.927 465.458 176.746 471.216 Q180.594 476.946 180.594 487.883 Q180.594 498.791 176.746 504.55 Q172.927 510.279 165.664 510.279 Q158.401 510.279 154.553 504.55 Q150.734 498.791 150.734 487.883 Q150.734 476.946 154.553 471.216 Q158.401 465.458 165.664 465.458 Z" fill="#000000" fill-rule="evenodd" fill-opacity="1" /><path clip-path="url(#clip430)" d="M72.6668 363.147 Q68.1529 363.147 65.8671 367.603 Q63.6101 372.03 63.6101 380.942 Q63.6101 389.825 65.8671 394.281 Q68.1529 398.708 72.6668 398.708 Q77.2096 398.708 79.4665 394.281 Q81.7524 389.825 81.7524 380.942 Q81.7524 372.03 79.4665 367.603 Q77.2096 363.147 72.6668 363.147 M72.6668 358.518 Q79.9295 358.518 83.7489 364.276 Q87.5973 370.005 87.5973 380.942 Q87.5973 391.851 83.7489 397.609 Q79.9295 403.338 72.6668 403.338 Q65.4041 403.338 61.5558 397.609 Q57.7363 391.851 57.7363 380.942 Q57.7363 370.005 61.5558 364.276 Q65.4041 358.518 72.6668 358.518 Z" fill="#000000" fill-rule="evenodd" fill-opacity="1" /><path clip-path="url(#clip430)" d="M97.8692 395.149 L103.975 395.149 L103.975 402.499 L97.8692 402.499 L97.8692 395.149 Z" fill="#000000" fill-rule="evenodd" fill-opacity="1" /><path clip-path="url(#clip430)" d="M121.741 397.58 L142.14 397.58 L142.14 402.499 L114.709 402.499 L114.709 397.58 Q118.037 394.137 123.766 388.35 Q129.524 382.534 131 380.855 Q133.807 377.702 134.906 375.531 Q136.035 373.332 136.035 371.22 Q136.035 367.777 133.604 365.607 Q131.202 363.437 127.325 363.437 Q124.576 363.437 121.509 364.391 Q118.471 365.346 114.999 367.285 L114.999 361.382 Q118.529 359.964 121.596 359.241 Q124.663 358.518 127.209 358.518 Q133.922 358.518 137.915 361.874 Q141.908 365.231 141.908 370.844 Q141.908 373.506 140.896 375.908 Q139.912 378.28 137.279 381.521 Q136.555 382.36 132.678 386.382 Q128.801 390.375 121.741 397.58 Z" fill="#000000" fill-rule="evenodd" fill-opacity="1" /><path clip-path="url(#clip430)" d="M154.466 359.299 L177.412 359.299 L177.412 364.218 L159.819 364.218 L159.819 374.808 Q161.092 374.374 162.365 374.172 Q163.639 373.94 164.912 373.94 Q172.145 373.94 176.37 377.904 Q180.594 381.868 180.594 388.639 Q180.594 395.612 176.254 399.49 Q171.914 403.338 164.015 403.338 Q161.295 403.338 158.459 402.875 Q155.652 402.412 152.643 401.486 L152.643 395.612 Q155.247 397.03 158.025 397.725 Q160.803 398.419 163.899 398.419 Q168.905 398.419 171.827 395.786 Q174.75 393.153 174.75 388.639 Q174.75 384.125 171.827 381.492 Q168.905 378.859 163.899 378.859 Q161.555 378.859 159.211 379.38 Q156.897 379.901 154.466 381 L154.466 359.299 Z" fill="#000000" fill-rule="evenodd" fill-opacity="1" /><path clip-path="url(#clip430)" d="M71.4226 256.207 Q66.9087 256.207 64.6229 260.663 Q62.3659 265.09 62.3659 274.002 Q62.3659 282.885 64.6229 287.341 Q66.9087 291.768 71.4226 291.768 Q75.9654 291.768 78.2223 287.341 Q80.5082 282.885 80.5082 274.002 Q80.5082 265.09 78.2223 260.663 Q75.9654 256.207 71.4226 256.207 M71.4226 251.577 Q78.6853 251.577 82.5047 257.335 Q86.3531 263.064 86.3531 274.002 Q86.3531 284.91 82.5047 290.668 Q78.6853 296.397 71.4226 296.397 Q64.1599 296.397 60.3115 290.668 Q56.4921 284.91 56.4921 274.002 Q56.4921 263.064 60.3115 257.335 Q64.1599 251.577 71.4226 251.577 Z" fill="#000000" fill-rule="evenodd" fill-opacity="1" /><path clip-path="url(#clip430)" d="M96.625 288.209 L102.73 288.209 L102.73 295.558 L96.625 295.558 L96.625 288.209 Z" fill="#000000" fill-rule="evenodd" fill-opacity="1" /><path clip-path="url(#clip430)" d="M115.52 252.358 L138.465 252.358 L138.465 257.277 L120.873 257.277 L120.873 267.867 Q122.146 267.433 123.419 267.231 Q124.692 266.999 125.965 266.999 Q133.199 266.999 137.423 270.963 Q141.648 274.928 141.648 281.698 Q141.648 288.672 137.308 292.549 Q132.967 296.397 125.068 296.397 Q122.348 296.397 119.513 295.934 Q116.706 295.471 113.697 294.546 L113.697 288.672 Q116.301 290.09 119.079 290.784 Q121.856 291.478 124.952 291.478 Q129.958 291.478 132.881 288.845 Q135.803 286.212 135.803 281.698 Q135.803 277.185 132.881 274.551 Q129.958 271.918 124.952 271.918 Q122.609 271.918 120.265 272.439 Q117.95 272.96 115.52 274.06 L115.52 252.358 Z" fill="#000000" fill-rule="evenodd" fill-opacity="1" /><path clip-path="url(#clip430)" d="M165.664 256.207 Q161.15 256.207 158.864 260.663 Q156.607 265.09 156.607 274.002 Q156.607 282.885 158.864 287.341 Q161.15 291.768 165.664 291.768 Q170.207 291.768 172.464 287.341 Q174.75 282.885 174.75 274.002 Q174.75 265.09 172.464 260.663 Q170.207 256.207 165.664 256.207 M165.664 251.577 Q172.927 251.577 176.746 257.335 Q180.594 263.064 180.594 274.002 Q180.594 284.91 176.746 290.668 Q172.927 296.397 165.664 296.397 Q158.401 296.397 154.553 290.668 Q150.734 284.91 150.734 274.002 Q150.734 263.064 154.553 257.335 Q158.401 251.577 165.664 251.577 Z" fill="#000000" fill-rule="evenodd" fill-opacity="1" /><path clip-path="url(#clip430)" d="M72.6668 149.266 Q68.1529 149.266 65.8671 153.722 Q63.6101 158.149 63.6101 167.061 Q63.6101 175.944 65.8671 180.4 Q68.1529 184.827 72.6668 184.827 Q77.2096 184.827 79.4665 180.4 Q81.7524 175.944 81.7524 167.061 Q81.7524 158.149 79.4665 153.722 Q77.2096 149.266 72.6668 149.266 M72.6668 144.636 Q79.9295 144.636 83.7489 150.394 Q87.5973 156.124 87.5973 167.061 Q87.5973 177.97 83.7489 183.728 Q79.9295 189.457 72.6668 189.457 Q65.4041 189.457 61.5558 183.728 Q57.7363 177.97 57.7363 167.061 Q57.7363 156.124 61.5558 150.394 Q65.4041 144.636 72.6668 144.636 Z" fill="#000000" fill-rule="evenodd" fill-opacity="1" /><path clip-path="url(#clip430)" d="M97.8692 181.268 L103.975 181.268 L103.975 188.618 L97.8692 188.618 L97.8692 181.268 Z" fill="#000000" fill-rule="evenodd" fill-opacity="1" /><path clip-path="url(#clip430)" d="M115.23 145.418 L143.008 145.418 L143.008 147.906 L127.325 188.618 L121.22 188.618 L135.977 150.337 L115.23 150.337 L115.23 145.418 Z" fill="#000000" fill-rule="evenodd" fill-opacity="1" /><path clip-path="url(#clip430)" d="M154.466 145.418 L177.412 145.418 L177.412 150.337 L159.819 150.337 L159.819 160.927 Q161.092 160.493 162.365 160.29 Q163.639 160.059 164.912 160.059 Q172.145 160.059 176.37 164.023 Q180.594 167.987 180.594 174.758 Q180.594 181.731 176.254 185.608 Q171.914 189.457 164.015 189.457 Q161.295 189.457 158.459 188.994 Q155.652 188.531 152.643 187.605 L152.643 181.731 Q155.247 183.149 158.025 183.843 Q160.803 184.538 163.899 184.538 Q168.905 184.538 171.827 181.905 Q174.75 179.272 174.75 174.758 Q174.75 170.244 171.827 167.611 Q168.905 164.978 163.899 164.978 Q161.555 164.978 159.211 165.499 Q156.897 166.019 154.466 167.119 L154.466 145.418 Z" fill="#000000" fill-rule="evenodd" fill-opacity="1" /><path clip-path="url(#clip430)" d="M59.9354 76.758 L69.484 76.758 L69.484 43.801 L59.0963 45.8843 L59.0963 40.5603 L69.4261 38.477 L75.271 38.477 L75.271 76.758 L84.8195 76.758 L84.8195 81.677 L59.9354 81.677 L59.9354 76.758 Z" fill="#000000" fill-rule="evenodd" fill-opacity="1" /><path clip-path="url(#clip430)" d="M96.625 74.3275 L102.73 74.3275 L102.73 81.677 L96.625 81.677 L96.625 74.3275 Z" fill="#000000" fill-rule="evenodd" fill-opacity="1" /><path clip-path="url(#clip430)" d="M127.962 42.3253 Q123.448 42.3253 121.162 46.7813 Q118.905 51.2084 118.905 60.1204 Q118.905 69.0034 121.162 73.4594 Q123.448 77.8865 127.962 77.8865 Q132.504 77.8865 134.761 73.4594 Q137.047 69.0034 137.047 60.1204 Q137.047 51.2084 134.761 46.7813 Q132.504 42.3253 127.962 42.3253 M127.962 37.6957 Q135.224 37.6957 139.044 43.4538 Q142.892 49.1829 142.892 60.1204 Q142.892 71.0289 139.044 76.787 Q135.224 82.5161 127.962 82.5161 Q120.699 82.5161 116.851 76.787 Q113.031 71.0289 113.031 60.1204 Q113.031 49.1829 116.851 43.4538 Q120.699 37.6957 127.962 37.6957 Z" fill="#000000" fill-rule="evenodd" fill-opacity="1" /><path clip-path="url(#clip430)" d="M165.664 42.3253 Q161.15 42.3253 158.864 46.7813 Q156.607 51.2084 156.607 60.1204 Q156.607 69.0034 158.864 73.4594 Q161.15 77.8865 165.664 77.8865 Q170.207 77.8865 172.464 73.4594 Q174.75 69.0034 174.75 60.1204 Q174.75 51.2084 172.464 46.7813 Q170.207 42.3253 165.664 42.3253 M165.664 37.6957 Q172.927 37.6957 176.746 43.4538 Q180.594 49.1829 180.594 60.1204 Q180.594 71.0289 176.746 76.787 Q172.927 82.5161 165.664 82.5161 Q158.401 82.5161 154.553 76.787 Q150.734 71.0289 150.734 60.1204 Q150.734 49.1829 154.553 43.4538 Q158.401 37.6957 165.664 37.6957 Z" fill="#000000" fill-rule="evenodd" fill-opacity="1" /><polyline clip-path="url(#clip432)" style="stroke:#ff00ff; stroke-linecap:round; stroke-linejoin:round; stroke-width:16; stroke-opacity:1; fill:none" points="
  207.066,274.065 214.037,274.146 221.008,274.283 227.98,274.466 234.951,274.714 241.922,275.05 248.893,275.503 255.865,276.116 262.836,276.942 269.807,278.052 
  276.778,279.541 283.75,281.528 290.721,284.165 297.692,287.634 304.663,292.154 311.635,297.959 318.606,305.288 325.577,314.335 332.549,325.203 339.52,337.839 
  346.491,351.982 353.462,367.155 360.434,382.711 367.405,397.936 374.376,412.173 381.347,424.932 388.319,435.939 395.29,445.129 402.261,452.595 409.233,458.53 
  416.204,463.17 423.175,466.752 430.146,469.491 437.118,471.573 444.089,473.145 451.06,474.325 458.031,475.201 465.003,475.84 471.974,476.292 478.945,476.595 
  485.916,476.776 492.888,476.857 499.859,476.855 506.83,476.784 513.802,476.656 520.773,476.481 527.744,476.268 534.715,476.024 541.687,475.758 548.658,475.474 
  555.629,475.178 562.6,474.876 569.572,474.572 576.543,474.269 583.514,473.969 590.485,473.676 597.457,473.39 604.428,473.114 611.399,472.847 618.371,472.591 
  625.342,472.346 632.313,472.112 639.284,471.889 646.256,471.676 653.227,471.474 660.198,471.282 667.169,471.099 674.141,470.925 681.112,470.76 688.083,470.603 
  695.054,470.453 702.026,470.311 708.997,470.176 715.968,470.047 722.94,469.924 729.911,469.807 736.882,469.695 743.853,469.588 750.825,469.485 757.796,469.387 
  764.767,469.293 771.738,469.203 778.71,469.116 785.681,469.033 792.652,468.953 799.623,468.876 806.595,468.801 813.566,468.73 820.537,468.661 827.509,468.594 
  834.48,468.529 841.451,468.466 848.422,468.406 855.394,468.347 862.365,468.29 869.336,468.234 876.307,468.18 883.279,468.128 890.25,468.077 897.221,468.027 
  904.193,467.978 911.164,467.931 918.135,467.885 925.106,467.84 932.078,467.796 939.049,467.752 946.02,467.71 952.991,467.668 959.963,467.628 966.934,467.588 
  973.905,467.549 980.876,467.51 987.848,467.472 994.819,467.435 1001.79,467.399 1008.76,467.363 1015.73,467.327 1022.7,467.292 1029.68,467.258 1036.65,467.223 
  1043.62,467.19 1050.59,467.157 1057.56,467.124 1064.53,467.091 1071.5,467.059 1078.47,467.027 1085.45,466.996 1092.42,466.965 1099.39,466.934 1106.36,466.903 
  1113.33,466.873 1120.3,466.842 1127.27,466.812 1134.24,466.783 1141.22,466.753 1148.19,466.724 1155.16,466.695 1162.13,466.665 1169.1,466.637 1176.07,466.608 
  1183.04,466.579 1190.01,466.551 1196.99,466.522 1203.96,466.494 1210.93,466.465 1217.9,466.437 1224.87,466.409 1231.84,466.381 1238.81,466.353 1245.78,466.325 
  1252.76,466.297 
  "/>
<polyline clip-path="url(#clip432)" style="stroke:#2000d4; stroke-linecap:round; stroke-linejoin:round; stroke-width:16; stroke-opacity:1; fill:none" stroke-dasharray="8, 16" points="
  207.066,487.84 214.037,487.84 221.008,487.84 227.98,487.84 234.951,487.84 241.922,487.84 248.893,487.84 255.865,487.839 262.836,487.839 269.807,487.839 
  276.778,487.839 283.75,487.839 290.721,487.839 297.692,487.839 304.663,487.839 311.635,487.838 318.606,487.838 325.577,487.837 332.549,487.836 339.52,487.835 
  346.491,487.834 353.462,487.833 360.434,487.832 367.405,487.831 374.376,487.83 381.347,487.829 388.319,487.828 395.29,487.827 402.261,487.827 409.233,487.826 
  416.204,487.825 423.175,487.824 430.146,487.824 437.118,487.823 444.089,487.822 451.06,487.822 458.031,487.821 465.003,487.82 471.974,487.82 478.945,487.819 
  485.916,487.819 492.888,487.818 499.859,487.817 506.83,487.817 513.802,487.816 520.773,487.815 527.744,487.815 534.715,487.814 541.687,487.813 548.658,487.812 
  555.629,487.812 562.6,487.811 569.572,487.81 576.543,487.81 583.514,487.809 590.485,487.808 597.457,487.807 604.428,487.807 611.399,487.806 618.371,487.805 
  625.342,487.804 632.313,487.803 639.284,487.803 646.256,487.802 653.227,487.801 660.198,487.8 667.169,487.799 674.141,487.799 681.112,487.798 688.083,487.797 
  695.054,487.796 702.026,487.795 708.997,487.794 715.968,487.793 722.94,487.792 729.911,487.792 736.882,487.791 743.853,487.79 750.825,487.789 757.796,487.788 
  764.767,487.787 771.738,487.786 778.71,487.785 785.681,487.784 792.652,487.783 799.623,487.782 806.595,487.781 813.566,487.78 820.537,487.779 827.509,487.778 
  834.48,487.777 841.451,487.776 848.422,487.775 855.394,487.774 862.365,487.772 869.336,487.771 876.307,487.77 883.279,487.769 890.25,487.768 897.221,487.767 
  904.193,487.766 911.164,487.764 918.135,487.763 925.106,487.762 932.078,487.761 939.049,487.76 946.02,487.758 952.991,487.757 959.963,487.756 966.934,487.755 
  973.905,487.753 980.876,487.752 987.848,487.751 994.819,487.749 1001.79,487.748 1008.76,487.747 1015.73,487.745 1022.7,487.744 1029.68,487.743 1036.65,487.741 
  1043.62,487.74 1050.59,487.738 1057.56,487.737 1064.53,487.735 1071.5,487.734 1078.47,487.732 1085.45,487.731 1092.42,487.729 1099.39,487.728 1106.36,487.726 
  1113.33,487.725 1120.3,487.723 1127.27,487.722 1134.24,487.72 1141.22,487.718 1148.19,487.717 1155.16,487.715 1162.13,487.713 1169.1,487.712 1176.07,487.71 
  1183.04,487.708 1190.01,487.706 1196.99,487.705 1203.96,487.703 1210.93,487.701 1217.9,487.699 1224.87,487.697 1231.84,487.695 1238.81,487.694 1245.78,487.692 
  1252.76,487.69 
  "/>
<polyline clip-path="url(#clip432)" style="stroke:#008900; stroke-linecap:round; stroke-linejoin:round; stroke-width:16; stroke-opacity:1; fill:none" stroke-dasharray="64, 40" points="
  207.066,487.84 214.037,487.839 221.008,487.839 227.98,487.839 234.951,487.839 241.922,487.839 248.893,487.839 255.865,487.839 262.836,487.838 269.807,487.838 
  276.778,487.837 283.75,487.836 290.721,487.835 297.692,487.834 304.663,487.832 311.635,487.829 318.606,487.826 325.577,487.822 332.549,487.817 339.52,487.811 
  346.491,487.805 353.462,487.797 360.434,487.789 367.405,487.78 374.376,487.771 381.347,487.762 388.319,487.751 395.29,487.739 402.261,487.726 409.233,487.71 
  416.204,487.691 423.175,487.668 430.146,487.641 437.118,487.609 444.089,487.571 451.06,487.526 458.031,487.475 465.003,487.418 471.974,487.354 478.945,487.283 
  485.916,487.206 492.888,487.123 499.859,487.035 506.83,486.941 513.802,486.844 520.773,486.742 527.744,486.638 534.715,486.532 541.687,486.423 548.658,486.314 
  555.629,486.205 562.6,486.095 569.572,485.985 576.543,485.877 583.514,485.769 590.485,485.662 597.457,485.557 604.428,485.454 611.399,485.352 618.371,485.252 
  625.342,485.153 632.313,485.057 639.284,484.962 646.256,484.869 653.227,484.778 660.198,484.688 667.169,484.601 674.141,484.515 681.112,484.43 688.083,484.348 
  695.054,484.267 702.026,484.187 708.997,484.109 715.968,484.033 722.94,483.958 729.911,483.885 736.882,483.813 743.853,483.742 750.825,483.673 757.796,483.605 
  764.767,483.538 771.738,483.473 778.71,483.409 785.681,483.346 792.652,483.284 799.623,483.223 806.595,483.164 813.566,483.106 820.537,483.048 827.509,482.992 
  834.48,482.937 841.451,482.883 848.422,482.83 855.394,482.779 862.365,482.728 869.336,482.678 876.307,482.629 883.279,482.581 890.25,482.534 897.221,482.488 
  904.193,482.442 911.164,482.398 918.135,482.355 925.106,482.312 932.078,482.27 939.049,482.229 946.02,482.189 952.991,482.15 959.963,482.112 966.934,482.074 
  973.905,482.038 980.876,482.002 987.848,481.966 994.819,481.932 1001.79,481.898 1008.76,481.865 1015.73,481.833 1022.7,481.801 1029.68,481.771 1036.65,481.74 
  1043.62,481.711 1050.59,481.682 1057.56,481.654 1064.53,481.627 1071.5,481.6 1078.47,481.574 1085.45,481.549 1092.42,481.524 1099.39,481.5 1106.36,481.476 
  1113.33,481.453 1120.3,481.431 1127.27,481.409 1134.24,481.388 1141.22,481.367 1148.19,481.347 1155.16,481.328 1162.13,481.309 1169.1,481.291 1176.07,481.273 
  1183.04,481.256 1190.01,481.239 1196.99,481.223 1203.96,481.207 1210.93,481.192 1217.9,481.177 1224.87,481.163 1231.84,481.149 1238.81,481.136 1245.78,481.123 
  1252.76,481.111 
  "/>
<polyline clip-path="url(#clip432)" style="stroke:#008900; stroke-linecap:round; stroke-linejoin:round; stroke-width:16; stroke-opacity:1; fill:none" stroke-dasharray="8, 16" points="
  207.066,487.84 214.037,487.839 221.008,487.839 227.98,487.839 234.951,487.839 241.922,487.839 248.893,487.839 255.865,487.838 262.836,487.838 269.807,487.837 
  276.778,487.837 283.75,487.836 290.721,487.834 297.692,487.833 304.663,487.83 311.635,487.827 318.606,487.824 325.577,487.819 332.549,487.814 339.52,487.807 
  346.491,487.8 353.462,487.792 360.434,487.784 367.405,487.776 374.376,487.769 381.347,487.762 388.319,487.756 395.29,487.751 402.261,487.746 409.233,487.742 
  416.204,487.738 423.175,487.735 430.146,487.732 437.118,487.73 444.089,487.727 451.06,487.726 458.031,487.725 465.003,487.724 471.974,487.724 478.945,487.725 
  485.916,487.727 492.888,487.729 499.859,487.731 506.83,487.734 513.802,487.737 520.773,487.741 527.744,487.745 534.715,487.748 541.687,487.752 548.658,487.756 
  555.629,487.76 562.6,487.764 569.572,487.767 576.543,487.77 583.514,487.774 590.485,487.777 597.457,487.779 604.428,487.782 611.399,487.784 618.371,487.787 
  625.342,487.789 632.313,487.791 639.284,487.793 646.256,487.795 653.227,487.796 660.198,487.798 667.169,487.799 674.141,487.8 681.112,487.802 688.083,487.803 
  695.054,487.804 702.026,487.805 708.997,487.806 715.968,487.807 722.94,487.808 729.911,487.808 736.882,487.809 743.853,487.81 750.825,487.811 757.796,487.811 
  764.767,487.812 771.738,487.812 778.71,487.813 785.681,487.813 792.652,487.814 799.623,487.814 806.595,487.815 813.566,487.815 820.537,487.815 827.509,487.816 
  834.48,487.816 841.451,487.817 848.422,487.817 855.394,487.817 862.365,487.817 869.336,487.818 876.307,487.818 883.279,487.818 890.25,487.818 897.221,487.819 
  904.193,487.819 911.164,487.819 918.135,487.819 925.106,487.819 932.078,487.82 939.049,487.82 946.02,487.82 952.991,487.82 959.963,487.82 966.934,487.82 
  973.905,487.821 980.876,487.821 987.848,487.821 994.819,487.821 1001.79,487.821 1008.76,487.821 1015.73,487.821 1022.7,487.821 1029.68,487.822 1036.65,487.822 
  1043.62,487.822 1050.59,487.822 1057.56,487.822 1064.53,487.822 1071.5,487.822 1078.47,487.822 1085.45,487.822 1092.42,487.822 1099.39,487.822 1106.36,487.822 
  1113.33,487.823 1120.3,487.823 1127.27,487.823 1134.24,487.823 1141.22,487.823 1148.19,487.823 1155.16,487.823 1162.13,487.823 1169.1,487.823 1176.07,487.823 
  1183.04,487.823 1190.01,487.823 1196.99,487.823 1203.96,487.823 1210.93,487.823 1217.9,487.823 1224.87,487.823 1231.84,487.823 1238.81,487.823 1245.78,487.823 
  1252.76,487.824 
  "/>
<polyline clip-path="url(#clip432)" style="stroke:#2000d4; stroke-linecap:round; stroke-linejoin:round; stroke-width:16; stroke-opacity:1; fill:none" points="
  207.066,487.412 214.037,487.085 221.008,486.534 227.98,485.79 234.951,484.786 241.922,483.432 248.893,481.608 255.865,479.158 262.836,475.877 269.807,471.504 
  276.778,465.71 283.75,458.098 290.721,448.207 297.692,435.539 304.663,419.609 311.635,400.031 318.606,376.644 325.577,349.63 332.549,319.616 339.52,287.675 
  346.491,255.202 353.462,223.69 360.434,194.46 367.405,168.459 374.376,146.18 381.347,127.69 388.319,112.748 395.29,100.927 402.261,91.7289 409.233,84.6603 
  416.204,79.2756 423.175,75.1963 430.146,72.1137 437.118,69.7835 444.089,68.0168 451.06,66.67 458.031,65.6353 465.003,64.8329 471.974,64.2039 478.945,63.7053 
  485.916,63.3054 492.888,62.981 499.859,62.7151 506.83,62.4948 513.802,62.3107 520.773,62.1554 527.744,62.0235 534.715,61.9106 541.687,61.8135 548.658,61.7294 
  555.629,61.6563 562.6,61.5924 569.572,61.5365 576.543,61.4873 583.514,61.4439 590.485,61.4057 597.457,61.3718 604.428,61.3418 611.399,61.3152 618.371,61.2916 
  625.342,61.2706 632.313,61.2521 639.284,61.2357 646.256,61.2213 653.227,61.2085 660.198,61.1973 667.169,61.1876 674.141,61.1792 681.112,61.1719 688.083,61.1657 
  695.054,61.1606 702.026,61.1563 708.997,61.153 715.968,61.1504 722.94,61.1485 729.911,61.1474 736.882,61.1469 743.853,61.147 750.825,61.1477 757.796,61.1489 
  764.767,61.1506 771.738,61.1528 778.71,61.1555 785.681,61.1586 792.652,61.1621 799.623,61.1661 806.595,61.1704 813.566,61.175 820.537,61.1801 827.509,61.1854 
  834.48,61.1911 841.451,61.1972 848.422,61.2035 855.394,61.2101 862.365,61.217 869.336,61.2242 876.307,61.2317 883.279,61.2395 890.25,61.2475 897.221,61.2558 
  904.193,61.2643 911.164,61.2731 918.135,61.2821 925.106,61.2914 932.078,61.3009 939.049,61.3107 946.02,61.3207 952.991,61.3309 959.963,61.3413 966.934,61.352 
  973.905,61.3629 980.876,61.374 987.848,61.3854 994.819,61.3969 1001.79,61.4087 1008.76,61.4207 1015.73,61.4329 1022.7,61.4454 1029.68,61.458 1036.65,61.4709 
  1043.62,61.4839 1050.59,61.4972 1057.56,61.5107 1064.53,61.5245 1071.5,61.5384 1078.47,61.5525 1085.45,61.5669 1092.42,61.5815 1099.39,61.5963 1106.36,61.6113 
  1113.33,61.6265 1120.3,61.6419 1127.27,61.6576 1134.24,61.6735 1141.22,61.6896 1148.19,61.7059 1155.16,61.7224 1162.13,61.7392 1169.1,61.7562 1176.07,61.7734 
  1183.04,61.7908 1190.01,61.8085 1196.99,61.8263 1203.96,61.8444 1210.93,61.8628 1217.9,61.8814 1224.87,61.9002 1231.84,61.9192 1238.81,61.9385 1245.78,61.958 
  1252.76,61.9777 
  "/>
<polyline clip-path="url(#clip432)" style="stroke:#008900; stroke-linecap:round; stroke-linejoin:round; stroke-width:16; stroke-opacity:1; fill:none" points="
  207.066,487.626 214.037,487.482 221.008,487.353 227.98,487.178 234.951,486.942 241.922,486.622 248.893,486.191 255.865,485.611 262.836,484.834 269.807,483.797 
  276.778,482.423 283.75,480.617 290.721,478.269 297.692,475.261 304.663,471.476 311.635,466.823 318.606,461.259 325.577,454.826 332.549,447.667 339.52,440.031 
  346.491,432.241 353.462,424.641 360.434,417.531 367.405,411.122 374.376,405.511 381.347,400.694 388.319,396.59 395.29,393.077 402.261,390.019 409.233,387.294 
  416.204,384.809 423.175,382.511 430.146,380.395 437.118,378.503 444.089,376.906 451.06,375.696 458.031,374.966 465.003,374.792 471.974,375.224 478.945,376.279 
  485.916,377.942 492.888,380.17 499.859,382.898 506.83,386.048 513.802,389.532 520.773,393.264 527.744,397.157 534.715,401.136 541.687,405.134 548.658,409.093 
  555.629,412.969 562.6,416.726 569.572,420.339 576.543,423.789 583.514,427.068 590.485,430.169 597.457,433.093 604.428,435.843 611.399,438.422 618.371,440.84 
  625.342,443.103 632.313,445.22 639.284,447.201 646.256,449.054 653.227,450.788 660.198,452.411 667.169,453.931 674.141,455.357 681.112,456.694 688.083,457.949 
  695.054,459.13 702.026,460.24 708.997,461.286 715.968,462.272 722.94,463.203 729.911,464.082 736.882,464.914 743.853,465.702 750.825,466.448 757.796,467.156 
  764.767,467.828 771.738,468.468 778.71,469.076 785.681,469.655 792.652,470.208 799.623,470.734 806.595,471.238 813.566,471.719 820.537,472.179 827.509,472.619 
  834.48,473.041 841.451,473.445 848.422,473.833 855.394,474.206 862.365,474.564 869.336,474.908 876.307,475.239 883.279,475.558 890.25,475.865 897.221,476.161 
  904.193,476.446 911.164,476.721 918.135,476.987 925.106,477.244 932.078,477.492 939.049,477.731 946.02,477.963 952.991,478.188 959.963,478.405 966.934,478.616 
  973.905,478.82 980.876,479.018 987.848,479.209 994.819,479.396 1001.79,479.576 1008.76,479.752 1015.73,479.922 1022.7,480.087 1029.68,480.248 1036.65,480.405 
  1043.62,480.557 1050.59,480.705 1057.56,480.849 1064.53,480.989 1071.5,481.125 1078.47,481.258 1085.45,481.388 1092.42,481.514 1099.39,481.637 1106.36,481.757 
  1113.33,481.874 1120.3,481.988 1127.27,482.099 1134.24,482.207 1141.22,482.313 1148.19,482.417 1155.16,482.518 1162.13,482.617 1169.1,482.713 1176.07,482.807 
  1183.04,482.899 1190.01,482.989 1196.99,483.077 1203.96,483.163 1210.93,483.247 1217.9,483.33 1224.87,483.41 1231.84,483.489 1238.81,483.566 1245.78,483.641 
  1252.76,483.715 
  "/>
<polyline clip-path="url(#clip432)" style="stroke:#7f7f7f; stroke-linecap:round; stroke-linejoin:round; stroke-width:16; stroke-opacity:1; fill:none" points="
  207.066,60.077 214.037,71.0592 221.008,119.281 227.98,145.755 234.951,162.014 241.922,172.687 248.893,180.041 255.865,185.338 262.836,189.352 269.807,192.596 
  276.778,195.446 283.75,198.198 290.721,201.115 297.692,204.446 304.663,208.448 311.635,213.386 318.606,219.538 325.577,227.171 332.549,236.516 339.52,247.72 
  346.491,260.805 353.462,275.624 360.434,291.859 367.405,309.047 374.376,326.647 381.347,344.114 388.319,360.973 395.29,376.852 402.261,391.503 409.233,404.784 
  416.204,416.643 423.175,427.091 430.146,436.181 437.118,444.003 444.089,450.663 451.06,456.285 458.031,460.999 465.003,464.932 471.974,468.206 478.945,470.93 
  485.916,473.2 492.888,475.095 499.859,476.682 506.83,478.018 513.802,479.145 520.773,480.101 527.744,480.915 534.715,481.611 541.687,482.21 548.658,482.727 
  555.629,483.175 562.6,483.566 569.572,483.908 576.543,484.209 583.514,484.475 590.485,484.711 597.457,484.921 604.428,485.108 611.399,485.277 618.371,485.429 
  625.342,485.567 632.313,485.692 639.284,485.806 646.256,485.91 653.227,486.006 660.198,486.094 667.169,486.175 674.141,486.25 681.112,486.319 688.083,486.384 
  695.054,486.444 702.026,486.5 708.997,486.553 715.968,486.602 722.94,486.649 729.911,486.693 736.882,486.734 743.853,486.773 750.825,486.81 757.796,486.845 
  764.767,486.878 771.738,486.909 778.71,486.939 785.681,486.968 792.652,486.995 799.623,487.021 806.595,487.046 813.566,487.07 820.537,487.093 827.509,487.115 
  834.48,487.136 841.451,487.156 848.422,487.176 855.394,487.195 862.365,487.213 869.336,487.23 876.307,487.247 883.279,487.263 890.25,487.279 897.221,487.294 
  904.193,487.309 911.164,487.323 918.135,487.337 925.106,487.351 932.078,487.364 939.049,487.376 946.02,487.389 952.991,487.4 959.963,487.412 966.934,487.423 
  973.905,487.434 980.876,487.445 987.848,487.455 994.819,487.466 1001.79,487.476 1008.76,487.485 1015.73,487.495 1022.7,487.504 1029.68,487.513 1036.65,487.522 
  1043.62,487.53 1050.59,487.539 1057.56,487.547 1064.53,487.555 1071.5,487.563 1078.47,487.57 1085.45,487.578 1092.42,487.585 1099.39,487.593 1106.36,487.6 
  1113.33,487.607 1120.3,487.613 1127.27,487.62 1134.24,487.627 1141.22,487.633 1148.19,487.639 1155.16,487.645 1162.13,487.651 1169.1,487.657 1176.07,487.663 
  1183.04,487.669 1190.01,487.675 1196.99,487.68 1203.96,487.686 1210.93,487.691 1217.9,487.696 1224.87,487.701 1231.84,487.706 1238.81,487.711 1245.78,487.716 
  1252.76,487.721 
  "/>
<polyline clip-path="url(#clip432)" style="stroke:#895f55; stroke-linecap:round; stroke-linejoin:round; stroke-width:16; stroke-opacity:1; fill:none" points="
  214.037,487.416 221.008,487.094 227.98,486.558 234.951,485.835 241.922,484.858 248.893,483.54 255.865,481.766 262.836,479.382 269.807,476.189 276.778,471.933 
  283.75,466.295 290.721,458.888 297.692,449.264 304.663,436.937 311.635,421.435 318.606,402.385 325.577,379.626 332.549,353.339 339.52,324.132 346.491,293.05 
  353.462,261.45 360.434,230.783 367.405,202.337 374.376,177.032 381.347,155.347 388.319,137.349 395.29,122.8 402.261,111.288 409.233,102.327 416.204,95.4374 
  423.175,90.1881 430.146,86.2128 437.118,83.2148 444.089,80.9611 451.06,79.2726 458.031,78.0148 465.003,77.0873 471.974,76.4158 478.945,75.945 485.916,75.6334 
  492.888,75.4492 499.859,75.3674 506.83,75.3681 513.802,75.4348 520.773,75.5535 527.744,75.7126 534.715,75.9021 541.687,76.1134 548.658,76.3393 555.629,76.5738 
  562.6,76.8119 569.572,77.0497 576.543,77.2842 583.514,77.5129 590.485,77.7341 597.457,77.9468 604.428,78.1501 611.399,78.3436 618.371,78.5274 625.342,78.7013 
  632.313,78.8657 639.284,79.0209 646.256,79.1674 653.227,79.3054 660.198,79.4357 667.169,79.5585 674.141,79.6745 681.112,79.784 688.083,79.8875 695.054,79.9855 
  702.026,80.0782 708.997,80.1662 715.968,80.2497 722.94,80.329 729.911,80.4045 736.882,80.4765 743.853,80.5452 750.825,80.6107 757.796,80.6735 764.767,80.7336 
  771.738,80.7912 778.71,80.8466 785.681,80.8998 792.652,80.9511 799.623,81.0005 806.595,81.0482 813.566,81.0943 820.537,81.1388 827.509,81.182 834.48,81.2239 
  841.451,81.2645 848.422,81.304 855.394,81.3425 862.365,81.3799 869.336,81.4164 876.307,81.452 883.279,81.4868 890.25,81.5208 897.221,81.5541 904.193,81.5867 
  911.164,81.6187 918.135,81.6501 925.106,81.6809 932.078,81.7112 939.049,81.741 946.02,81.7703 952.991,81.7992 959.963,81.8277 966.934,81.8558 973.905,81.8836 
  980.876,81.911 987.848,81.9382 994.819,81.965 1001.79,81.9916 1008.76,82.0179 1015.73,82.044 1022.7,82.0699 1029.68,82.0955 1036.65,82.121 1043.62,82.1463 
  1050.59,82.1715 1057.56,82.1965 1064.53,82.2214 1071.5,82.2462 1078.47,82.2709 1085.45,82.2955 1092.42,82.32 1099.39,82.3444 1106.36,82.3688 1113.33,82.3931 
  1120.3,82.4174 1127.27,82.4416 1134.24,82.4658 1141.22,82.49 1148.19,82.5142 1155.16,82.5384 1162.13,82.5626 1169.1,82.5868 1176.07,82.611 1183.04,82.6353 
  1190.01,82.6596 1196.99,82.6839 1203.96,82.7083 1210.93,82.7327 1217.9,82.7572 1224.87,82.7818 1231.84,82.8064 1238.81,82.8311 1245.78,82.8559 1252.76,82.8808 
  
  "/>
<polyline clip-path="url(#clip432)" style="stroke:#2000d4; stroke-linecap:round; stroke-linejoin:round; stroke-width:16; stroke-opacity:1; fill:none" stroke-dasharray="64, 40" points="
  207.066,487.84 214.037,487.84 221.008,487.84 227.98,487.84 234.951,487.84 241.922,487.84 248.893,487.84 255.865,487.84 262.836,487.839 269.807,487.839 
  276.778,487.839 283.75,487.839 290.721,487.839 297.692,487.839 304.663,487.839 311.635,487.839 318.606,487.839 325.577,487.839 332.549,487.839 339.52,487.838 
  346.491,487.838 353.462,487.838 360.434,487.838 367.405,487.838 374.376,487.838 381.347,487.837 388.319,487.837 395.29,487.837 402.261,487.837 409.233,487.837 
  416.204,487.837 423.175,487.837 430.146,487.837 437.118,487.837 444.089,487.837 451.06,487.837 458.031,487.837 465.003,487.836 471.974,487.836 478.945,487.836 
  485.916,487.836 492.888,487.836 499.859,487.836 506.83,487.836 513.802,487.835 520.773,487.835 527.744,487.835 534.715,487.835 541.687,487.835 548.658,487.834 
  555.629,487.834 562.6,487.834 569.572,487.834 576.543,487.833 583.514,487.833 590.485,487.833 597.457,487.833 604.428,487.832 611.399,487.832 618.371,487.832 
  625.342,487.831 632.313,487.831 639.284,487.831 646.256,487.83 653.227,487.83 660.198,487.83 667.169,487.829 674.141,487.829 681.112,487.829 688.083,487.828 
  695.054,487.828 702.026,487.827 708.997,487.827 715.968,487.827 722.94,487.826 729.911,487.826 736.882,487.825 743.853,487.825 750.825,487.824 757.796,487.824 
  764.767,487.823 771.738,487.823 778.71,487.823 785.681,487.822 792.652,487.822 799.623,487.821 806.595,487.821 813.566,487.82 820.537,487.82 827.509,487.819 
  834.48,487.819 841.451,487.818 848.422,487.817 855.394,487.817 862.365,487.816 869.336,487.816 876.307,487.815 883.279,487.815 890.25,487.814 897.221,487.813 
  904.193,487.813 911.164,487.812 918.135,487.812 925.106,487.811 932.078,487.81 939.049,487.81 946.02,487.809 952.991,487.808 959.963,487.808 966.934,487.807 
  973.905,487.806 980.876,487.806 987.848,487.805 994.819,487.804 1001.79,487.803 1008.76,487.803 1015.73,487.802 1022.7,487.801 1029.68,487.8 1036.65,487.8 
  1043.62,487.799 1050.59,487.798 1057.56,487.797 1064.53,487.796 1071.5,487.796 1078.47,487.795 1085.45,487.794 1092.42,487.793 1099.39,487.792 1106.36,487.791 
  1113.33,487.79 1120.3,487.79 1127.27,487.789 1134.24,487.788 1141.22,487.787 1148.19,487.786 1155.16,487.785 1162.13,487.784 1169.1,487.783 1176.07,487.782 
  1183.04,487.781 1190.01,487.78 1196.99,487.779 1203.96,487.778 1210.93,487.777 1217.9,487.776 1224.87,487.775 1231.84,487.774 1238.81,487.773 1245.78,487.772 
  1252.76,487.77 
  "/>
<polyline clip-path="url(#clip432)" style="stroke:#ff221c; stroke-linecap:round; stroke-linejoin:round; stroke-width:16; stroke-opacity:1; fill:none" points="
  207.066,316.82 214.037,316.806 221.008,316.793 227.98,316.793 234.951,316.804 241.922,316.822 248.893,316.849 255.865,316.887 262.836,316.939 269.807,317.009 
  276.778,317.102 283.75,317.227 290.721,317.392 297.692,317.608 304.663,317.89 311.635,318.249 318.606,318.699 325.577,319.249 332.549,319.9 339.52,320.639 
  346.491,321.439 353.462,322.251 360.434,323.013 367.405,323.652 374.376,324.09 381.347,324.254 388.319,324.076 395.29,323.493 402.261,322.446 409.233,320.876 
  416.204,318.729 423.175,315.957 430.146,312.523 437.118,308.408 444.089,303.612 451.06,298.156 458.031,292.08 465.003,285.44 471.974,278.308 478.945,270.767 
  485.916,262.907 492.888,254.823 499.859,246.61 506.83,238.36 513.802,230.162 520.773,222.091 527.744,214.217 534.715,206.596 541.687,199.27 548.658,192.274 
  555.629,185.628 562.6,179.345 569.572,173.427 576.543,167.871 583.514,162.668 590.485,157.807 597.457,153.27 604.428,149.041 611.399,145.101 618.371,141.431 
  625.342,138.013 632.313,134.828 639.284,131.859 646.256,129.091 653.227,126.506 660.198,124.091 667.169,121.832 674.141,119.717 681.112,117.735 688.083,115.875 
  695.054,114.128 702.026,112.484 708.997,110.937 715.968,109.478 722.94,108.101 729.911,106.799 736.882,105.568 743.853,104.402 750.825,103.297 757.796,102.247 
  764.767,101.25 771.738,100.302 778.71,99.3989 785.681,98.5385 792.652,97.7177 799.623,96.934 806.595,96.185 813.566,95.4687 820.537,94.7829 827.509,94.1259 
  834.48,93.4959 841.451,92.8914 848.422,92.3108 855.394,91.7528 862.365,91.2162 869.336,90.6998 876.307,90.2024 883.279,89.7231 890.25,89.2609 897.221,88.8149 
  904.193,88.3843 911.164,87.9683 918.135,87.5662 925.106,87.1772 932.078,86.8009 939.049,86.4364 946.02,86.0834 952.991,85.7413 959.963,85.4095 966.934,85.0876 
  973.905,84.7752 980.876,84.4718 987.848,84.177 994.819,83.8905 1001.79,83.612 1008.76,83.341 1015.73,83.0773 1022.7,82.8206 1029.68,82.5706 1036.65,82.327 
  1043.62,82.0896 1050.59,81.8581 1057.56,81.6323 1064.53,81.4121 1071.5,81.1971 1078.47,80.9871 1085.45,80.7821 1092.42,80.5818 1099.39,80.3861 1106.36,80.1947 
  1113.33,80.0076 1120.3,79.8245 1127.27,79.6455 1134.24,79.4702 1141.22,79.2986 1148.19,79.1305 1155.16,78.9659 1162.13,78.8046 1169.1,78.6466 1176.07,78.4917 
  1183.04,78.3398 1190.01,78.1908 1196.99,78.0446 1203.96,77.9012 1210.93,77.7605 1217.9,77.6223 1224.87,77.4867 1231.84,77.3534 1238.81,77.2226 1245.78,77.094 
  1252.76,76.9677 
  "/>
<polyline clip-path="url(#clip432)" style="stroke:#000000; stroke-linecap:round; stroke-linejoin:round; stroke-width:16; stroke-opacity:1; fill:none" stroke-dasharray="8, 16" points="
  207.066,60.077 214.037,60.5005 221.008,60.8932 227.98,61.4942 234.951,62.3176 241.922,63.4313 248.893,64.9334 255.865,66.9563 262.836,69.6739 269.807,73.313 
  276.778,78.1635 283.75,84.5885 290.721,93.0279 297.692,103.992 304.663,118.031 311.635,135.679 318.606,157.357 325.577,183.234 332.549,213.092 339.52,246.212 
  346.491,281.375 353.462,316.988 360.434,351.342 367.405,382.9 374.376,410.525 381.347,433.569 388.319,451.849 395.29,465.552 402.261,475.139 409.233,481.286 
  416.204,484.82 423.175,486.608 430.146,487.394 437.118,487.696 444.089,487.798 451.06,487.828 458.031,487.837 465.003,487.839 471.974,487.839 478.945,487.84 
  485.916,487.84 492.888,487.84 499.859,487.84 506.83,487.84 513.802,487.84 520.773,487.84 527.744,487.84 534.715,487.84 541.687,487.84 548.658,487.84 
  555.629,487.84 562.6,487.84 569.572,487.84 576.543,487.84 583.514,487.84 590.485,487.84 597.457,487.84 604.428,487.84 611.399,487.84 618.371,487.84 
  625.342,487.84 632.313,487.84 639.284,487.84 646.256,487.84 653.227,487.84 660.198,487.84 667.169,487.84 674.141,487.84 681.112,487.84 688.083,487.84 
  695.054,487.84 702.026,487.84 708.997,487.84 715.968,487.84 722.94,487.84 729.911,487.84 736.882,487.84 743.853,487.84 750.825,487.84 757.796,487.84 
  764.767,487.84 771.738,487.84 778.71,487.84 785.681,487.84 792.652,487.84 799.623,487.84 806.595,487.84 813.566,487.84 820.537,487.84 827.509,487.84 
  834.48,487.84 841.451,487.84 848.422,487.84 855.394,487.84 862.365,487.84 869.336,487.84 876.307,487.84 883.279,487.84 890.25,487.84 897.221,487.84 
  904.193,487.84 911.164,487.84 918.135,487.84 925.106,487.84 932.078,487.84 939.049,487.84 946.02,487.84 952.991,487.84 959.963,487.84 966.934,487.84 
  973.905,487.84 980.876,487.84 987.848,487.84 994.819,487.84 1001.79,487.84 1008.76,487.84 1015.73,487.84 1022.7,487.84 1029.68,487.84 1036.65,487.84 
  1043.62,487.84 1050.59,487.84 1057.56,487.84 1064.53,487.84 1071.5,487.84 1078.47,487.84 1085.45,487.84 1092.42,487.84 1099.39,487.84 1106.36,487.84 
  1113.33,487.84 1120.3,487.84 1127.27,487.84 1134.24,487.84 1141.22,487.84 1148.19,487.84 1155.16,487.84 1162.13,487.84 1169.1,487.84 1176.07,487.84 
  1183.04,487.84 1190.01,487.84 1196.99,487.84 1203.96,487.84 1210.93,487.84 1217.9,487.84 1224.87,487.84 1231.84,487.84 1238.81,487.84 1245.78,487.84 
  1252.76,487.84 
  "/>
</svg>
