<?xml version="1.0" encoding="utf-8"?>
<svg xmlns="http://www.w3.org/2000/svg" xmlns:xlink="http://www.w3.org/1999/xlink" width="325" height="200" viewBox="0 0 1300 800">
<defs>
  <clipPath id="clip450">
    <rect x="0" y="0" width="1300" height="800"/>
  </clipPath>
</defs>
<path clip-path="url(#clip450)" d="
M0 800 L1300 800 L1300 0 L0 0  Z
  " fill="#ffffff" fill-rule="evenodd" fill-opacity="1"/>
<defs>
  <clipPath id="clip451">
    <rect x="260" y="0" width="911" height="800"/>
  </clipPath>
</defs>
<path clip-path="url(#clip450)" d="
M297.569 653.338 L1252.76 653.338 L1252.76 47.2441 L297.569 47.2441  Z
  " fill="#ffffff" fill-rule="evenodd" fill-opacity="1"/>
<defs>
  <clipPath id="clip452">
    <rect x="297" y="47" width="956" height="607"/>
  </clipPath>
</defs>
<polyline clip-path="url(#clip450)" style="stroke:#000000; stroke-linecap:butt; stroke-linejoin:round; stroke-width:4; stroke-opacity:1; fill:none" points="
  297.569,653.338 1252.76,653.338 
  "/>
<polyline clip-path="url(#clip450)" style="stroke:#000000; stroke-linecap:butt; stroke-linejoin:round; stroke-width:4; stroke-opacity:1; fill:none" points="
  297.569,653.338 297.569,634.44 
  "/>
<polyline clip-path="url(#clip450)" style="stroke:#000000; stroke-linecap:butt; stroke-linejoin:round; stroke-width:4; stroke-opacity:1; fill:none" points="
  615.965,653.338 615.965,634.44 
  "/>
<polyline clip-path="url(#clip450)" style="stroke:#000000; stroke-linecap:butt; stroke-linejoin:round; stroke-width:4; stroke-opacity:1; fill:none" points="
  934.36,653.338 934.36,634.44 
  "/>
<polyline clip-path="url(#clip450)" style="stroke:#000000; stroke-linecap:butt; stroke-linejoin:round; stroke-width:4; stroke-opacity:1; fill:none" points="
  1252.76,653.338 1252.76,634.44 
  "/>
<path clip-path="url(#clip450)" d="M209.859 759.857 L223.227 759.857 L223.227 713.717 L208.685 716.633 L208.685 709.18 L223.146 706.263 L231.329 706.263 L231.329 759.857 L244.697 759.857 L244.697 766.743 L209.859 766.743 L209.859 759.857 Z" fill="#000000" fill-rule="evenodd" fill-opacity="1" /><path clip-path="url(#clip450)" d="M278.725 711.651 Q272.405 711.651 269.205 717.889 Q266.045 724.087 266.045 736.564 Q266.045 749 269.205 755.239 Q272.405 761.436 278.725 761.436 Q285.085 761.436 288.244 755.239 Q291.445 749 291.445 736.564 Q291.445 724.087 288.244 717.889 Q285.085 711.651 278.725 711.651 M278.725 705.169 Q288.892 705.169 294.24 713.231 Q299.627 721.251 299.627 736.564 Q299.627 751.836 294.24 759.897 Q288.892 767.918 278.725 767.918 Q268.557 767.918 263.169 759.897 Q257.822 751.836 257.822 736.564 Q257.822 721.251 263.169 713.231 Q268.557 705.169 278.725 705.169 Z" fill="#000000" fill-rule="evenodd" fill-opacity="1" /><path clip-path="url(#clip450)" d="M299.627 694.847 L341.823 694.847 L341.823 700.442 L299.627 700.442 L299.627 694.847 Z" fill="#000000" fill-rule="evenodd" fill-opacity="1" /><path clip-path="url(#clip450)" d="M376.316 692.279 Q381.089 693.3 383.755 696.525 Q386.453 699.751 386.453 704.49 Q386.453 711.764 381.451 715.747 Q376.448 719.729 367.232 719.729 Q364.138 719.729 360.847 719.104 Q357.588 718.512 354.099 717.294 L354.099 710.876 Q356.864 712.488 360.155 713.311 Q363.447 714.134 367.034 714.134 Q373.288 714.134 376.546 711.666 Q379.838 709.197 379.838 704.49 Q379.838 700.146 376.777 697.71 Q373.749 695.242 368.318 695.242 L362.591 695.242 L362.591 689.778 L368.581 689.778 Q373.485 689.778 376.086 687.836 Q378.686 685.861 378.686 682.175 Q378.686 678.39 375.987 676.382 Q373.321 674.342 368.318 674.342 Q365.586 674.342 362.459 674.934 Q359.333 675.526 355.58 676.777 L355.58 670.853 Q359.366 669.799 362.657 669.273 Q365.981 668.746 368.91 668.746 Q376.481 668.746 380.891 672.202 Q385.301 675.625 385.301 681.484 Q385.301 685.565 382.965 688.396 Q380.628 691.193 376.316 692.279 Z" fill="#000000" fill-rule="evenodd" fill-opacity="1" /><path clip-path="url(#clip450)" d="M528.93 759.857 L542.298 759.857 L542.298 713.717 L527.755 716.633 L527.755 709.18 L542.217 706.263 L550.399 706.263 L550.399 759.857 L563.767 759.857 L563.767 766.743 L528.93 766.743 L528.93 759.857 Z" fill="#000000" fill-rule="evenodd" fill-opacity="1" /><path clip-path="url(#clip450)" d="M597.795 711.651 Q591.476 711.651 588.275 717.889 Q585.116 724.087 585.116 736.564 Q585.116 749 588.275 755.239 Q591.476 761.436 597.795 761.436 Q604.155 761.436 607.315 755.239 Q610.515 749 610.515 736.564 Q610.515 724.087 607.315 717.889 Q604.155 711.651 597.795 711.651 M597.795 705.169 Q607.963 705.169 613.31 713.231 Q618.698 721.251 618.698 736.564 Q618.698 751.836 613.31 759.897 Q607.963 767.918 597.795 767.918 Q587.627 767.918 582.24 759.897 Q576.892 751.836 576.892 736.564 Q576.892 721.251 582.24 713.231 Q587.627 705.169 597.795 705.169 Z" fill="#000000" fill-rule="evenodd" fill-opacity="1" /><path clip-path="url(#clip450)" d="M618.698 694.847 L660.893 694.847 L660.893 700.442 L618.698 700.442 L618.698 694.847 Z" fill="#000000" fill-rule="evenodd" fill-opacity="1" /><path clip-path="url(#clip450)" d="M680.97 713.18 L704.174 713.18 L704.174 718.775 L672.972 718.775 L672.972 713.18 Q676.757 709.263 683.274 702.68 Q689.824 696.065 691.503 694.156 Q694.695 690.568 695.946 688.099 Q697.23 685.598 697.23 683.195 Q697.23 679.279 694.465 676.81 Q691.733 674.342 687.323 674.342 Q684.196 674.342 680.707 675.428 Q677.251 676.514 673.301 678.719 L673.301 672.005 Q677.317 670.392 680.806 669.569 Q684.295 668.746 687.191 668.746 Q694.827 668.746 699.369 672.564 Q703.911 676.382 703.911 682.767 Q703.911 685.795 702.759 688.527 Q701.64 691.226 698.645 694.913 Q697.822 695.867 693.412 700.442 Q689.001 704.984 680.97 713.18 Z" fill="#000000" fill-rule="evenodd" fill-opacity="1" /><path clip-path="url(#clip450)" d="M847.062 759.857 L860.43 759.857 L860.43 713.717 L845.887 716.633 L845.887 709.18 L860.349 706.263 L868.532 706.263 L868.532 759.857 L881.9 759.857 L881.9 766.743 L847.062 766.743 L847.062 759.857 Z" fill="#000000" fill-rule="evenodd" fill-opacity="1" /><path clip-path="url(#clip450)" d="M915.927 711.651 Q909.608 711.651 906.408 717.889 Q903.248 724.087 903.248 736.564 Q903.248 749 906.408 755.239 Q909.608 761.436 915.927 761.436 Q922.287 761.436 925.447 755.239 Q928.647 749 928.647 736.564 Q928.647 724.087 925.447 717.889 Q922.287 711.651 915.927 711.651 M915.927 705.169 Q926.095 705.169 931.442 713.231 Q936.83 721.251 936.83 736.564 Q936.83 751.836 931.442 759.897 Q926.095 767.918 915.927 767.918 Q905.76 767.918 900.372 759.897 Q895.025 751.836 895.025 736.564 Q895.025 721.251 900.372 713.231 Q905.76 705.169 915.927 705.169 Z" fill="#000000" fill-rule="evenodd" fill-opacity="1" /><path clip-path="url(#clip450)" d="M936.83 694.847 L979.025 694.847 L979.025 700.442 L936.83 700.442 L936.83 694.847 Z" fill="#000000" fill-rule="evenodd" fill-opacity="1" /><path clip-path="url(#clip450)" d="M994.528 713.18 L1005.39 713.18 L1005.39 675.691 L993.573 678.061 L993.573 672.005 L1005.32 669.635 L1011.97 669.635 L1011.97 713.18 L1022.83 713.18 L1022.83 718.775 L994.528 718.775 L994.528 713.18 Z" fill="#000000" fill-rule="evenodd" fill-opacity="1" /><path clip-path="url(#clip450)" d="M1191.48 759.857 L1204.84 759.857 L1204.84 713.717 L1190.3 716.633 L1190.3 709.18 L1204.76 706.263 L1212.95 706.263 L1212.95 759.857 L1226.31 759.857 L1226.31 766.743 L1191.48 766.743 L1191.48 759.857 Z" fill="#000000" fill-rule="evenodd" fill-opacity="1" /><path clip-path="url(#clip450)" d="M1260.34 711.651 Q1254.02 711.651 1250.82 717.889 Q1247.66 724.087 1247.66 736.564 Q1247.66 749 1250.82 755.239 Q1254.02 761.436 1260.34 761.436 Q1266.7 761.436 1269.86 755.239 Q1273.06 749 1273.06 736.564 Q1273.06 724.087 1269.86 717.889 Q1266.7 711.651 1260.34 711.651 M1260.34 705.169 Q1270.51 705.169 1275.86 713.231 Q1281.24 721.251 1281.24 736.564 Q1281.24 751.836 1275.86 759.897 Q1270.51 767.918 1260.34 767.918 Q1250.17 767.918 1244.79 759.897 Q1239.44 751.836 1239.44 736.564 Q1239.44 721.251 1244.79 713.231 Q1250.17 705.169 1260.34 705.169 Z" fill="#000000" fill-rule="evenodd" fill-opacity="1" /><path clip-path="url(#clip450)" d="M1298.23 674.012 Q1293.09 674.012 1290.49 679.081 Q1287.93 684.117 1287.93 694.254 Q1287.93 704.359 1290.49 709.427 Q1293.09 714.463 1298.23 714.463 Q1303.39 714.463 1305.96 709.427 Q1308.56 704.359 1308.56 694.254 Q1308.56 684.117 1305.96 679.081 Q1303.39 674.012 1298.23 674.012 M1298.23 668.746 Q1306.49 668.746 1310.83 675.296 Q1315.21 681.813 1315.21 694.254 Q1315.21 706.663 1310.83 713.212 Q1306.49 719.729 1298.23 719.729 Q1289.97 719.729 1285.59 713.212 Q1281.24 706.663 1281.24 694.254 Q1281.24 681.813 1285.59 675.296 Q1289.97 668.746 1298.23 668.746 Z" fill="#000000" fill-rule="evenodd" fill-opacity="1" /><polyline clip-path="url(#clip450)" style="stroke:#000000; stroke-linecap:butt; stroke-linejoin:round; stroke-width:4; stroke-opacity:1; fill:none" points="
  297.569,653.338 297.569,47.2441 
  "/>
<polyline clip-path="url(#clip450)" style="stroke:#000000; stroke-linecap:butt; stroke-linejoin:round; stroke-width:4; stroke-opacity:1; fill:none" points="
  297.569,653.338 316.467,653.338 
  "/>
<polyline clip-path="url(#clip450)" style="stroke:#000000; stroke-linecap:butt; stroke-linejoin:round; stroke-width:4; stroke-opacity:1; fill:none" points="
  297.569,370.089 316.467,370.089 
  "/>
<polyline clip-path="url(#clip450)" style="stroke:#000000; stroke-linecap:butt; stroke-linejoin:round; stroke-width:4; stroke-opacity:1; fill:none" points="
  297.569,86.8406 316.467,86.8406 
  "/>
<path clip-path="url(#clip450)" d="M57.6669 687.975 L71.0349 687.975 L71.0349 641.835 L56.4921 644.752 L56.4921 637.298 L70.9539 634.381 L79.1367 634.381 L79.1367 687.975 L92.5047 687.975 L92.5047 694.861 L57.6669 694.861 L57.6669 687.975 Z" fill="#000000" fill-rule="evenodd" fill-opacity="1" /><path clip-path="url(#clip450)" d="M126.532 639.769 Q120.213 639.769 117.013 646.007 Q113.853 652.205 113.853 664.682 Q113.853 677.118 117.013 683.357 Q120.213 689.555 126.532 689.555 Q132.892 689.555 136.052 683.357 Q139.252 677.118 139.252 664.682 Q139.252 652.205 136.052 646.007 Q132.892 639.769 126.532 639.769 M126.532 633.288 Q136.7 633.288 142.047 641.349 Q147.435 649.37 147.435 664.682 Q147.435 679.954 142.047 688.015 Q136.7 696.036 126.532 696.036 Q116.364 696.036 110.977 688.015 Q105.63 679.954 105.63 664.682 Q105.63 649.37 110.977 641.349 Q116.364 633.288 126.532 633.288 Z" fill="#000000" fill-rule="evenodd" fill-opacity="1" /><path clip-path="url(#clip450)" d="M147.435 622.965 L189.63 622.965 L189.63 628.56 L147.435 628.56 L147.435 622.965 Z" fill="#000000" fill-rule="evenodd" fill-opacity="1" /><path clip-path="url(#clip450)" d="M205.132 641.298 L215.994 641.298 L215.994 603.809 L204.178 606.179 L204.178 600.123 L215.928 597.753 L222.577 597.753 L222.577 641.298 L233.438 641.298 L233.438 646.893 L205.132 646.893 L205.132 641.298 Z" fill="#000000" fill-rule="evenodd" fill-opacity="1" /><path clip-path="url(#clip450)" d="M261.086 602.131 Q255.951 602.131 253.351 607.199 Q250.784 612.235 250.784 622.373 Q250.784 632.477 253.351 637.546 Q255.951 642.582 261.086 642.582 Q266.253 642.582 268.82 637.546 Q271.42 632.477 271.42 622.373 Q271.42 612.235 268.82 607.199 Q266.253 602.131 261.086 602.131 M261.086 596.865 Q269.347 596.865 273.691 603.414 Q278.069 609.931 278.069 622.373 Q278.069 634.781 273.691 641.331 Q269.347 647.848 261.086 647.848 Q252.824 647.848 248.447 641.331 Q244.102 634.781 244.102 622.373 Q244.102 609.931 248.447 603.414 Q252.824 596.865 261.086 596.865 Z" fill="#000000" fill-rule="evenodd" fill-opacity="1" /><path clip-path="url(#clip450)" d="M101.969 404.726 L115.337 404.726 L115.337 358.586 L100.794 361.503 L100.794 354.049 L115.256 351.133 L123.438 351.133 L123.438 404.726 L136.806 404.726 L136.806 411.613 L101.969 411.613 L101.969 404.726 Z" fill="#000000" fill-rule="evenodd" fill-opacity="1" /><path clip-path="url(#clip450)" d="M170.834 356.52 Q164.515 356.52 161.314 362.759 Q158.155 368.957 158.155 381.433 Q158.155 393.87 161.314 400.108 Q164.515 406.306 170.834 406.306 Q177.194 406.306 180.354 400.108 Q183.554 393.87 183.554 381.433 Q183.554 368.957 180.354 362.759 Q177.194 356.52 170.834 356.52 M170.834 350.039 Q181.002 350.039 186.349 358.1 Q191.737 366.121 191.737 381.433 Q191.737 396.705 186.349 404.767 Q181.002 412.787 170.834 412.787 Q160.666 412.787 155.278 404.767 Q149.931 396.705 149.931 381.433 Q149.931 366.121 155.278 358.1 Q160.666 350.039 170.834 350.039 Z" fill="#000000" fill-rule="evenodd" fill-opacity="1" /><path clip-path="url(#clip450)" d="M191.737 339.716 L233.932 339.716 L233.932 345.312 L191.737 345.312 L191.737 339.716 Z" fill="#000000" fill-rule="evenodd" fill-opacity="1" /><path clip-path="url(#clip450)" d="M248.348 314.504 L274.448 314.504 L274.448 320.1 L254.437 320.1 L254.437 332.146 Q255.885 331.652 257.333 331.422 Q258.782 331.159 260.23 331.159 Q268.458 331.159 273.264 335.668 Q278.069 340.177 278.069 347.879 Q278.069 355.811 273.132 360.221 Q268.195 364.599 259.21 364.599 Q256.116 364.599 252.89 364.072 Q249.697 363.546 246.274 362.492 L246.274 355.811 Q249.237 357.424 252.396 358.214 Q255.556 359.004 259.078 359.004 Q264.772 359.004 268.096 356.008 Q271.42 353.013 271.42 347.879 Q271.42 342.744 268.096 339.749 Q264.772 336.754 259.078 336.754 Q256.412 336.754 253.746 337.346 Q251.113 337.939 248.348 339.19 L248.348 314.504 Z" fill="#000000" fill-rule="evenodd" fill-opacity="1" /><path clip-path="url(#clip450)" d="M154.334 121.477 L167.702 121.477 L167.702 75.3375 L153.159 78.2542 L153.159 70.8005 L167.621 67.8839 L175.804 67.8839 L175.804 121.477 L189.172 121.477 L189.172 128.364 L154.334 128.364 L154.334 121.477 Z" fill="#000000" fill-rule="evenodd" fill-opacity="1" /><path clip-path="url(#clip450)" d="M223.199 73.2716 Q216.88 73.2716 213.68 79.51 Q210.52 85.7079 210.52 98.1846 Q210.52 110.621 213.68 116.859 Q216.88 123.057 223.199 123.057 Q229.559 123.057 232.719 116.859 Q235.919 110.621 235.919 98.1846 Q235.919 85.7079 232.719 79.51 Q229.559 73.2716 223.199 73.2716 M223.199 66.7901 Q233.367 66.7901 238.714 74.8514 Q244.102 82.8722 244.102 98.1846 Q244.102 113.457 238.714 121.518 Q233.367 129.539 223.199 129.539 Q213.032 129.539 207.644 121.518 Q202.297 113.457 202.297 98.1846 Q202.297 82.8722 207.644 74.8514 Q213.032 66.7901 223.199 66.7901 Z" fill="#000000" fill-rule="evenodd" fill-opacity="1" /><path clip-path="url(#clip450)" d="M261.086 35.6332 Q255.951 35.6332 253.351 40.7019 Q250.784 45.7377 250.784 55.875 Q250.784 65.9795 253.351 71.0482 Q255.951 76.084 261.086 76.084 Q266.253 76.084 268.82 71.0482 Q271.42 65.9795 271.42 55.875 Q271.42 45.7377 268.82 40.7019 Q266.253 35.6332 261.086 35.6332 M261.086 30.367 Q269.347 30.367 273.691 36.9168 Q278.069 43.4337 278.069 55.875 Q278.069 68.2835 273.691 74.8333 Q269.347 81.3502 261.086 81.3502 Q252.824 81.3502 248.447 74.8333 Q244.102 68.2835 244.102 55.875 Q244.102 43.4337 248.447 36.9168 Q252.824 30.367 261.086 30.367 Z" fill="#000000" fill-rule="evenodd" fill-opacity="1" /><polyline clip-path="url(#clip452)" style="stroke:#000000; stroke-linecap:butt; stroke-linejoin:round; stroke-width:16; stroke-opacity:1; fill:none" stroke-dasharray="8, 16" points="
  297.569,4426.31 313.489,4417.54 329.409,4408.15 345.328,4398.1 361.248,4387.36 377.168,4375.93 393.088,4363.78 409.007,4350.9 424.927,4337.28 440.847,4322.93 
  456.767,4307.85 472.687,4292.06 488.606,4275.6 504.526,4258.49 520.446,4240.78 536.366,4222.52 552.286,4203.77 568.205,4184.59 584.125,4165.05 600.045,4145.2 
  615.965,4125.1 631.884,4104.81 647.804,4084.36 663.724,4063.8 679.644,4043.13 695.564,4022.36 711.483,4001.49 727.403,3980.48 743.323,3959.29 759.243,3937.85 
  775.162,3916.08 791.082,3893.87 807.002,3871.1 822.922,3847.6 838.842,3823.19 854.761,3797.65 870.681,3770.72 886.601,3742.09 902.521,3711.38 918.44,3678.15 
  934.36,3641.86 950.28,3601.85 966.2,3557.32 982.12,3507.25 998.039,3450.37 1013.96,3385.04 1029.88,3309.09 1045.8,3219.64 1061.72,3112.73 1077.64,2982.71 
  1093.56,2821.27 1109.48,2615.41 1125.4,2343.26 1141.32,1963.01 1157.24,1372.59 1173.16,275.218 1189.08,90.9094 1205,88.1615 1220.92,87.6199 1236.84,87.3472 
  1252.76,87.1485 
  "/>
<polyline clip-path="url(#clip452)" style="stroke:#000000; stroke-linecap:butt; stroke-linejoin:round; stroke-width:16; stroke-opacity:1; fill:none" stroke-dasharray="64, 40" points="
  297.569,3341.42 313.489,3340.25 329.409,3338.95 345.328,3337.49 361.248,3335.86 377.168,3334.05 393.088,3332.03 409.007,3329.78 424.927,3327.27 440.847,3324.48 
  456.767,3321.39 472.687,3317.95 488.606,3314.13 504.526,3309.9 520.446,3305.21 536.366,3300.02 552.286,3294.27 568.205,3287.92 584.125,3280.91 600.045,3273.17 
  615.965,3264.62 631.884,3255.2 647.804,3244.81 663.724,3233.35 679.644,3220.73 695.564,3206.81 711.483,3191.47 727.403,3174.54 743.323,3155.86 759.243,3135.22 
  775.162,3112.4 791.082,3087.13 807.002,3059.1 822.922,3027.94 838.842,2993.24 854.761,2954.48 870.681,2911.05 886.601,2862.2 902.521,2807.02 918.44,2744.37 
  934.36,2672.8 950.28,2590.42 966.2,2494.77 982.12,2382.49 998.039,2248.84 1013.96,2086.96 1029.88,1886.27 1045.8,1629.6 1061.72,1287.64 1077.64,816.486 
  1093.56,277.555 1109.48,121.274 1125.4,94.1033 1141.32,88.8691 1157.24,88.0677 1173.16,87.7331 1189.08,87.5397 1205,87.4088 1220.92,87.3095 1236.84,87.2259 
  1252.76,87.1485 
  "/>
<polyline clip-path="url(#clip452)" style="stroke:#808080; stroke-linecap:butt; stroke-linejoin:round; stroke-width:16; stroke-opacity:1; fill:none" stroke-dasharray="8, 16" points="
  297.569,5745.23 313.489,5736.44 329.409,5727.02 345.328,5716.93 361.248,5706.16 377.168,5694.69 393.088,5682.49 409.007,5669.55 424.927,5655.87 440.847,5641.45 
  456.767,5626.29 472.687,5610.42 488.606,5593.85 504.526,5576.62 520.446,5558.78 536.366,5540.37 552.286,5521.44 568.205,5502.07 584.125,5482.29 600.045,5462.19 
  615.965,5441.8 631.884,5421.17 647.804,5400.35 663.724,5379.36 679.644,5358.21 695.564,5336.89 711.483,5315.4 727.403,5293.68 743.323,5271.69 759.243,5249.34 
  775.162,5226.53 791.082,5203.14 807.002,5179.03 822.922,5154 838.842,5127.84 854.761,5100.3 870.681,5071.07 886.601,5039.79 902.521,5006.03 918.44,4969.25 
  934.36,4928.84 950.28,4884.01 966.2,4833.79 982.12,4776.97 998.039,4712.01 1013.96,4636.89 1029.88,4548.96 1045.8,4444.59 1061.72,4318.71 1077.64,4163.98 
  1093.56,3969.2 1109.48,3716.18 1125.4,3372.55 1141.32,2871.3 1157.24,2030.31 1173.16,305.768 1189.08,89.4071 1205,87.6808 1220.92,87.3344 1236.84,87.1609 
  1252.76,87.0349 
  "/>
<polyline clip-path="url(#clip452)" style="stroke:#808080; stroke-linecap:butt; stroke-linejoin:round; stroke-width:16; stroke-opacity:1; fill:none" stroke-dasharray="64, 40" points="
  297.569,4397.08 313.489,4395.81 329.409,4394.4 345.328,4392.81 361.248,4391.04 377.168,4389.07 393.088,4386.86 409.007,4384.4 424.927,4381.67 440.847,4378.62 
  456.767,4375.22 472.687,4371.44 488.606,4367.25 504.526,4362.58 520.446,4357.41 536.366,4351.66 552.286,4345.29 568.205,4338.23 584.125,4330.41 600.045,4321.75 
  615.965,4312.16 631.884,4301.55 647.804,4289.82 663.724,4276.83 679.644,4262.47 695.564,4246.57 711.483,4228.96 727.403,4209.46 743.323,4187.84 759.243,4163.83 
  775.162,4137.15 791.082,4107.45 807.002,4074.33 822.922,4037.31 838.842,3995.82 854.761,3949.19 870.681,3896.58 886.601,3837 902.521,3769.17 918.44,3691.51 
  934.36,3601.99 950.28,3497.95 966.2,3375.81 982.12,3230.65 998.039,3055.47 1013.96,2839.81 1029.88,2567.37 1045.8,2211.11 1061.72,1724.55 1077.64,1043.73 
  1093.56,298.2 1109.48,112.661 1125.4,91.4856 1141.32,88.1313 1157.24,87.6204 1173.16,87.4065 1189.08,87.2833 1205,87.2 1220.92,87.1369 1236.84,87.0839 
  1252.76,87.0349 
  "/>
<polyline clip-path="url(#clip452)" style="stroke:#0000ff; stroke-linecap:butt; stroke-linejoin:round; stroke-width:16; stroke-opacity:1; fill:none" stroke-dasharray="8, 16" points="
  297.569,3492.68 313.489,3483.94 329.409,3474.58 345.328,3464.56 361.248,3453.86 377.168,3442.47 393.088,3430.36 409.007,3417.53 424.927,3403.97 440.847,3389.67 
  456.767,3374.66 472.687,3358.95 488.606,3342.57 504.526,3325.55 520.446,3307.94 536.366,3289.79 552.286,3271.16 568.205,3252.12 584.125,3232.72 600.045,3213.03 
  615.965,3193.12 631.884,3173.03 647.804,3152.81 663.724,3132.49 679.644,3112.1 695.564,3091.65 711.483,3071.13 727.403,3050.52 743.323,3029.77 759.243,3008.83 
  775.162,2987.63 791.082,2966.07 807.002,2944.03 822.922,2921.36 838.842,2897.9 854.761,2873.45 870.681,2847.77 886.601,2820.58 902.521,2791.54 918.44,2760.25 
  934.36,2726.22 950.28,2688.89 966.2,2647.51 982.12,2601.22 998.039,2548.89 1013.96,2489.09 1029.88,2420 1045.8,2339.18 1061.72,2243.33 1077.64,2127.89 
  1093.56,1986.28 1109.48,1808.64 1125.4,1579.14 1141.32,1269.34 1157.24,812.648 1173.16,161.9 1189.08,89.0236 1205,87.5591 1220.92,87.2633 1236.84,87.1149 
  1252.76,87.0071 
  "/>
<polyline clip-path="url(#clip452)" style="stroke:#0000ff; stroke-linecap:butt; stroke-linejoin:round; stroke-width:16; stroke-opacity:1; fill:none" stroke-dasharray="64, 40" points="
  297.569,2521.8 313.489,2520.72 329.409,2519.51 345.328,2518.16 361.248,2516.65 377.168,2514.97 393.088,2513.1 409.007,2511.01 424.927,2508.69 440.847,2506.11 
  456.767,2503.25 472.687,2500.07 488.606,2496.54 504.526,2492.62 520.446,2488.29 536.366,2483.5 552.286,2478.2 568.205,2472.34 584.125,2465.87 600.045,2458.74 
  615.965,2450.88 631.884,2442.22 647.804,2432.68 663.724,2422.18 679.644,2410.62 695.564,2397.89 711.483,2383.89 727.403,2368.47 743.323,2351.49 759.243,2332.77 
  775.162,2312.11 791.082,2289.3 807.002,2264.06 822.922,2236.1 838.842,2205.05 854.761,2170.49 870.681,2131.92 886.601,2088.71 902.521,2040.11 918.44,1985.19 
  934.36,1922.78 950.28,1851.35 966.2,1768.93 982.12,1672.81 998.039,1559.24 1013.96,1422.73 1029.88,1254.89 1045.8,1042.17 1061.72,763.025 1077.64,405.438 
  1093.56,162.592 1109.48,107.097 1125.4,90.772 1141.32,87.9428 1157.24,87.5075 1173.16,87.3249 1189.08,87.2196 1205,87.1484 1220.92,87.0944 1236.84,87.049 
  1252.76,87.0071 
  "/>
</svg>
