<?xml version="1.0" encoding="utf-8"?>
<svg xmlns="http://www.w3.org/2000/svg" xmlns:xlink="http://www.w3.org/1999/xlink" width="300" height="180" viewBox="0 0 1200 720">
<defs>
  <clipPath id="clip630">
    <rect x="0" y="0" width="1200" height="720"/>
  </clipPath>
</defs>
<path clip-path="url(#clip630)" d="
M0 720 L1200 720 L1200 0 L0 0  Z
  " fill="#ffffff" fill-rule="evenodd" fill-opacity="1"/>
<defs>
  <clipPath id="clip631">
    <rect x="240" y="0" width="841" height="720"/>
  </clipPath>
</defs>
<path clip-path="url(#clip630)" d="
M264.915 586.57 L1152.76 586.57 L1152.76 47.2441 L264.915 47.2441  Z
  " fill="#ffffff" fill-rule="evenodd" fill-opacity="1"/>
<defs>
  <clipPath id="clip632">
    <rect x="264" y="47" width="889" height="540"/>
  </clipPath>
</defs>
<polyline clip-path="url(#clip630)" style="stroke:#000000; stroke-linecap:round; stroke-linejoin:round; stroke-width:4; stroke-opacity:1; fill:none" points="
  264.915,586.57 1152.76,586.57 
  "/>
<polyline clip-path="url(#clip630)" style="stroke:#000000; stroke-linecap:round; stroke-linejoin:round; stroke-width:4; stroke-opacity:1; fill:none" points="
  264.915,586.57 264.915,567.672 
  "/>
<polyline clip-path="url(#clip630)" style="stroke:#000000; stroke-linecap:round; stroke-linejoin:round; stroke-width:4; stroke-opacity:1; fill:none" points="
  560.862,586.57 560.862,567.672 
  "/>
<polyline clip-path="url(#clip630)" style="stroke:#000000; stroke-linecap:round; stroke-linejoin:round; stroke-width:4; stroke-opacity:1; fill:none" points="
  856.809,586.57 856.809,567.672 
  "/>
<polyline clip-path="url(#clip630)" style="stroke:#000000; stroke-linecap:round; stroke-linejoin:round; stroke-width:4; stroke-opacity:1; fill:none" points="
  1152.76,586.57 1152.76,567.672 
  "/>
<path clip-path="url(#clip630)" d="M189.735 678.557 L201.194 678.557 L201.194 639.008 L188.728 641.508 L188.728 635.12 L201.124 632.62 L208.138 632.62 L208.138 678.557 L219.596 678.557 L219.596 684.46 L189.735 684.46 L189.735 678.557 Z" fill="#000000" fill-rule="evenodd" fill-opacity="1" /><path clip-path="url(#clip630)" d="M248.763 637.238 Q243.346 637.238 240.603 642.585 Q237.895 647.897 237.895 658.592 Q237.895 669.251 240.603 674.598 Q243.346 679.911 248.763 679.911 Q254.214 679.911 256.923 674.598 Q259.666 669.251 259.666 658.592 Q259.666 647.897 256.923 642.585 Q254.214 637.238 248.763 637.238 M248.763 631.682 Q257.478 631.682 262.061 638.592 Q266.679 645.467 266.679 658.592 Q266.679 671.682 262.061 678.592 Q257.478 685.466 248.763 685.466 Q240.048 685.466 235.43 678.592 Q230.846 671.682 230.846 658.592 Q230.846 645.467 235.43 638.592 Q240.048 631.682 248.763 631.682 Z" fill="#000000" fill-rule="evenodd" fill-opacity="1" /><path clip-path="url(#clip630)" d="M266.679 622.834 L302.847 622.834 L302.847 627.63 L266.679 627.63 L266.679 622.834 Z" fill="#000000" fill-rule="evenodd" fill-opacity="1" /><path clip-path="url(#clip630)" d="M332.413 620.634 Q336.503 621.508 338.788 624.273 Q341.102 627.038 341.102 631.1 Q341.102 637.335 336.814 640.748 Q332.525 644.162 324.626 644.162 Q321.974 644.162 319.153 643.626 Q316.36 643.118 313.37 642.074 L313.37 636.573 Q315.74 637.956 318.561 638.661 Q321.382 639.366 324.457 639.366 Q329.817 639.366 332.61 637.25 Q335.431 635.134 335.431 631.1 Q335.431 627.376 332.808 625.288 Q330.212 623.173 325.557 623.173 L320.648 623.173 L320.648 618.489 L325.783 618.489 Q329.986 618.489 332.215 616.825 Q334.444 615.132 334.444 611.973 Q334.444 608.728 332.131 607.007 Q329.845 605.258 325.557 605.258 Q323.216 605.258 320.536 605.766 Q317.855 606.274 314.639 607.346 L314.639 602.268 Q317.884 601.365 320.705 600.914 Q323.554 600.462 326.065 600.462 Q332.554 600.462 336.334 603.424 Q340.114 606.358 340.114 611.38 Q340.114 614.878 338.111 617.305 Q336.108 619.703 332.413 620.634 Z" fill="#000000" fill-rule="evenodd" fill-opacity="1" /><path clip-path="url(#clip630)" d="M486.261 678.557 L497.719 678.557 L497.719 639.008 L485.254 641.508 L485.254 635.12 L497.65 632.62 L504.663 632.62 L504.663 678.557 L516.122 678.557 L516.122 684.46 L486.261 684.46 L486.261 678.557 Z" fill="#000000" fill-rule="evenodd" fill-opacity="1" /><path clip-path="url(#clip630)" d="M545.288 637.238 Q539.872 637.238 537.128 642.585 Q534.42 647.897 534.42 658.592 Q534.42 669.251 537.128 674.598 Q539.872 679.911 545.288 679.911 Q550.74 679.911 553.448 674.598 Q556.191 669.251 556.191 658.592 Q556.191 647.897 553.448 642.585 Q550.74 637.238 545.288 637.238 M545.288 631.682 Q554.003 631.682 558.587 638.592 Q563.205 645.467 563.205 658.592 Q563.205 671.682 558.587 678.592 Q554.003 685.466 545.288 685.466 Q536.573 685.466 531.955 678.592 Q527.372 671.682 527.372 658.592 Q527.372 645.467 531.955 638.592 Q536.573 631.682 545.288 631.682 Z" fill="#000000" fill-rule="evenodd" fill-opacity="1" /><path clip-path="url(#clip630)" d="M563.205 622.834 L599.372 622.834 L599.372 627.63 L563.205 627.63 L563.205 622.834 Z" fill="#000000" fill-rule="evenodd" fill-opacity="1" /><path clip-path="url(#clip630)" d="M616.581 638.548 L636.47 638.548 L636.47 643.344 L609.726 643.344 L609.726 638.548 Q612.97 635.191 618.556 629.548 Q624.17 623.878 625.609 622.242 Q628.345 619.167 629.417 617.051 Q630.518 614.907 630.518 612.847 Q630.518 609.49 628.148 607.374 Q625.806 605.258 622.026 605.258 Q619.346 605.258 616.355 606.189 Q613.393 607.12 610.008 609.01 L610.008 603.255 Q613.45 601.873 616.44 601.168 Q619.431 600.462 621.913 600.462 Q628.458 600.462 632.351 603.735 Q636.245 607.007 636.245 612.48 Q636.245 615.076 635.257 617.417 Q634.298 619.731 631.731 622.891 Q631.026 623.709 627.245 627.63 Q623.465 631.523 616.581 638.548 Z" fill="#000000" fill-rule="evenodd" fill-opacity="1" /><path clip-path="url(#clip630)" d="M781.982 678.557 L793.44 678.557 L793.44 639.008 L780.975 641.508 L780.975 635.12 L793.371 632.62 L800.385 632.62 L800.385 678.557 L811.843 678.557 L811.843 684.46 L781.982 684.46 L781.982 678.557 Z" fill="#000000" fill-rule="evenodd" fill-opacity="1" /><path clip-path="url(#clip630)" d="M841.009 637.238 Q835.593 637.238 832.85 642.585 Q830.141 647.897 830.141 658.592 Q830.141 669.251 832.85 674.598 Q835.593 679.911 841.009 679.911 Q846.461 679.911 849.169 674.598 Q851.912 669.251 851.912 658.592 Q851.912 647.897 849.169 642.585 Q846.461 637.238 841.009 637.238 M841.009 631.682 Q849.725 631.682 854.308 638.592 Q858.926 645.467 858.926 658.592 Q858.926 671.682 854.308 678.592 Q849.725 685.466 841.009 685.466 Q832.294 685.466 827.676 678.592 Q823.093 671.682 823.093 658.592 Q823.093 645.467 827.676 638.592 Q832.294 631.682 841.009 631.682 Z" fill="#000000" fill-rule="evenodd" fill-opacity="1" /><path clip-path="url(#clip630)" d="M858.926 622.834 L895.093 622.834 L895.093 627.63 L858.926 627.63 L858.926 622.834 Z" fill="#000000" fill-rule="evenodd" fill-opacity="1" /><path clip-path="url(#clip630)" d="M908.381 638.548 L917.691 638.548 L917.691 606.415 L907.563 608.446 L907.563 603.255 L917.634 601.224 L923.333 601.224 L923.333 638.548 L932.643 638.548 L932.643 643.344 L908.381 643.344 L908.381 638.548 Z" fill="#000000" fill-rule="evenodd" fill-opacity="1" /><path clip-path="url(#clip630)" d="M1100.23 678.557 L1111.69 678.557 L1111.69 639.008 L1099.22 641.508 L1099.22 635.12 L1111.62 632.62 L1118.63 632.62 L1118.63 678.557 L1130.09 678.557 L1130.09 684.46 L1100.23 684.46 L1100.23 678.557 Z" fill="#000000" fill-rule="evenodd" fill-opacity="1" /><path clip-path="url(#clip630)" d="M1159.26 637.238 Q1153.84 637.238 1151.1 642.585 Q1148.39 647.897 1148.39 658.592 Q1148.39 669.251 1151.1 674.598 Q1153.84 679.911 1159.26 679.911 Q1164.71 679.911 1167.42 674.598 Q1170.16 669.251 1170.16 658.592 Q1170.16 647.897 1167.42 642.585 Q1164.71 637.238 1159.26 637.238 M1159.26 631.682 Q1167.97 631.682 1172.56 638.592 Q1177.17 645.467 1177.17 658.592 Q1177.17 671.682 1172.56 678.592 Q1167.97 685.466 1159.26 685.466 Q1150.54 685.466 1145.92 678.592 Q1141.34 671.682 1141.34 658.592 Q1141.34 645.467 1145.92 638.592 Q1150.54 631.682 1159.26 631.682 Z" fill="#000000" fill-rule="evenodd" fill-opacity="1" /><path clip-path="url(#clip630)" d="M1191.73 604.976 Q1187.33 604.976 1185.1 609.321 Q1182.9 613.637 1182.9 622.326 Q1182.9 630.987 1185.1 635.332 Q1187.33 639.648 1191.73 639.648 Q1196.16 639.648 1198.36 635.332 Q1200.59 630.987 1200.59 622.326 Q1200.59 613.637 1198.36 609.321 Q1196.16 604.976 1191.73 604.976 M1191.73 600.462 Q1198.81 600.462 1202.54 606.076 Q1206.29 611.662 1206.29 622.326 Q1206.29 632.962 1202.54 638.576 Q1198.81 644.162 1191.73 644.162 Q1184.65 644.162 1180.9 638.576 Q1177.17 632.962 1177.17 622.326 Q1177.17 611.662 1180.9 606.076 Q1184.65 600.462 1191.73 600.462 Z" fill="#000000" fill-rule="evenodd" fill-opacity="1" /><polyline clip-path="url(#clip630)" style="stroke:#000000; stroke-linecap:round; stroke-linejoin:round; stroke-width:4; stroke-opacity:1; fill:none" points="
  264.915,586.57 264.915,47.2441 
  "/>
<polyline clip-path="url(#clip630)" style="stroke:#000000; stroke-linecap:round; stroke-linejoin:round; stroke-width:4; stroke-opacity:1; fill:none" points="
  264.915,586.57 283.813,586.57 
  "/>
<polyline clip-path="url(#clip630)" style="stroke:#000000; stroke-linecap:round; stroke-linejoin:round; stroke-width:4; stroke-opacity:1; fill:none" points="
  264.915,334.524 283.813,334.524 
  "/>
<polyline clip-path="url(#clip630)" style="stroke:#000000; stroke-linecap:round; stroke-linejoin:round; stroke-width:4; stroke-opacity:1; fill:none" points="
  264.915,82.4785 283.813,82.4785 
  "/>
<path clip-path="url(#clip630)" d="M57.9991 616.258 L69.4573 616.258 L69.4573 576.71 L56.9921 579.21 L56.9921 572.821 L69.3879 570.321 L76.4017 570.321 L76.4017 616.258 L87.86 616.258 L87.86 622.161 L57.9991 622.161 L57.9991 616.258 Z" fill="#000000" fill-rule="evenodd" fill-opacity="1" /><path clip-path="url(#clip630)" d="M117.027 574.939 Q111.61 574.939 108.867 580.286 Q106.159 585.599 106.159 596.293 Q106.159 606.953 108.867 612.3 Q111.61 617.612 117.027 617.612 Q122.478 617.612 125.186 612.3 Q127.929 606.953 127.929 596.293 Q127.929 585.599 125.186 580.286 Q122.478 574.939 117.027 574.939 M117.027 569.383 Q125.742 569.383 130.325 576.293 Q134.943 583.168 134.943 596.293 Q134.943 609.383 130.325 616.293 Q125.742 623.168 117.027 623.168 Q108.311 623.168 103.693 616.293 Q99.11 609.383 99.11 596.293 Q99.11 583.168 103.693 576.293 Q108.311 569.383 117.027 569.383 Z" fill="#000000" fill-rule="evenodd" fill-opacity="1" /><path clip-path="url(#clip630)" d="M134.943 560.535 L171.11 560.535 L171.11 565.331 L134.943 565.331 L134.943 560.535 Z" fill="#000000" fill-rule="evenodd" fill-opacity="1" /><path clip-path="url(#clip630)" d="M184.398 576.249 L193.708 576.249 L193.708 544.116 L183.58 546.148 L183.58 540.957 L193.652 538.925 L199.35 538.925 L199.35 576.249 L208.66 576.249 L208.66 581.045 L184.398 581.045 L184.398 576.249 Z" fill="#000000" fill-rule="evenodd" fill-opacity="1" /><path clip-path="url(#clip630)" d="M232.358 542.678 Q227.957 542.678 225.728 547.022 Q223.528 551.338 223.528 560.028 Q223.528 568.689 225.728 573.033 Q227.957 577.35 232.358 577.35 Q236.787 577.35 238.988 573.033 Q241.216 568.689 241.216 560.028 Q241.216 551.338 238.988 547.022 Q236.787 542.678 232.358 542.678 M232.358 538.164 Q239.439 538.164 243.163 543.778 Q246.915 549.364 246.915 560.028 Q246.915 570.663 243.163 576.278 Q239.439 581.863 232.358 581.863 Q225.277 581.863 221.525 576.278 Q217.801 570.663 217.801 560.028 Q217.801 549.364 221.525 543.778 Q225.277 538.164 232.358 538.164 Z" fill="#000000" fill-rule="evenodd" fill-opacity="1" /><path clip-path="url(#clip630)" d="M95.972 364.213 L107.43 364.213 L107.43 324.664 L94.965 327.164 L94.965 320.775 L107.361 318.275 L114.375 318.275 L114.375 364.213 L125.833 364.213 L125.833 370.115 L95.972 370.115 L95.972 364.213 Z" fill="#000000" fill-rule="evenodd" fill-opacity="1" /><path clip-path="url(#clip630)" d="M154.999 322.893 Q149.583 322.893 146.84 328.241 Q144.131 333.553 144.131 344.248 Q144.131 354.907 146.84 360.254 Q149.583 365.567 154.999 365.567 Q160.451 365.567 163.159 360.254 Q165.902 354.907 165.902 344.248 Q165.902 333.553 163.159 328.241 Q160.451 322.893 154.999 322.893 M154.999 317.338 Q163.715 317.338 168.298 324.248 Q172.916 331.123 172.916 344.248 Q172.916 357.338 168.298 364.247 Q163.715 371.122 154.999 371.122 Q146.284 371.122 141.666 364.247 Q137.083 357.338 137.083 344.248 Q137.083 331.123 141.666 324.248 Q146.284 317.338 154.999 317.338 Z" fill="#000000" fill-rule="evenodd" fill-opacity="1" /><path clip-path="url(#clip630)" d="M172.916 308.49 L209.083 308.49 L209.083 313.286 L172.916 313.286 L172.916 308.49 Z" fill="#000000" fill-rule="evenodd" fill-opacity="1" /><path clip-path="url(#clip630)" d="M221.44 286.88 L243.812 286.88 L243.812 291.676 L226.659 291.676 L226.659 302.001 Q227.9 301.578 229.142 301.381 Q230.383 301.155 231.624 301.155 Q238.677 301.155 242.796 305.02 Q246.915 308.885 246.915 315.486 Q246.915 322.285 242.683 326.066 Q238.452 329.818 230.75 329.818 Q228.098 329.818 225.333 329.367 Q222.597 328.915 219.663 328.012 L219.663 322.285 Q222.202 323.668 224.91 324.345 Q227.618 325.022 230.637 325.022 Q235.518 325.022 238.367 322.455 Q241.216 319.887 241.216 315.486 Q241.216 311.085 238.367 308.518 Q235.518 305.951 230.637 305.951 Q228.352 305.951 226.067 306.459 Q223.81 306.967 221.44 308.039 L221.44 286.88 Z" fill="#000000" fill-rule="evenodd" fill-opacity="1" /><path clip-path="url(#clip630)" d="M140.857 112.167 L152.315 112.167 L152.315 72.6188 L139.85 75.1188 L139.85 68.7299 L152.246 66.2299 L159.259 66.2299 L159.259 112.167 L170.718 112.167 L170.718 118.07 L140.857 118.07 L140.857 112.167 Z" fill="#000000" fill-rule="evenodd" fill-opacity="1" /><path clip-path="url(#clip630)" d="M199.884 70.848 Q194.468 70.848 191.724 76.1952 Q189.016 81.5076 189.016 92.202 Q189.016 102.862 191.724 108.209 Q194.468 113.521 199.884 113.521 Q205.336 113.521 208.044 108.209 Q210.787 102.862 210.787 92.202 Q210.787 81.5076 208.044 76.1952 Q205.336 70.848 199.884 70.848 M199.884 65.2924 Q208.599 65.2924 213.183 72.2021 Q217.801 79.0771 217.801 92.202 Q217.801 105.292 213.183 112.202 Q208.599 119.077 199.884 119.077 Q191.169 119.077 186.551 112.202 Q181.968 105.292 181.968 92.202 Q181.968 79.0771 186.551 72.2021 Q191.169 65.2924 199.884 65.2924 Z" fill="#000000" fill-rule="evenodd" fill-opacity="1" /><path clip-path="url(#clip630)" d="M232.358 38.5865 Q227.957 38.5865 225.728 42.9311 Q223.528 47.2475 223.528 55.9367 Q223.528 64.5976 225.728 68.9422 Q227.957 73.2586 232.358 73.2586 Q236.787 73.2586 238.988 68.9422 Q241.216 64.5976 241.216 55.9367 Q241.216 47.2475 238.988 42.9311 Q236.787 38.5865 232.358 38.5865 M232.358 34.0726 Q239.439 34.0726 243.163 39.6867 Q246.915 45.2727 246.915 55.9367 Q246.915 66.5725 243.163 72.1866 Q239.439 77.7725 232.358 77.7725 Q225.277 77.7725 221.525 72.1866 Q217.801 66.5725 217.801 55.9367 Q217.801 45.2727 221.525 39.6867 Q225.277 34.0726 232.358 34.0726 Z" fill="#000000" fill-rule="evenodd" fill-opacity="1" /><polyline clip-path="url(#clip632)" style="stroke:#000000; stroke-linecap:round; stroke-linejoin:round; stroke-width:16; stroke-opacity:1; fill:none" stroke-dasharray="8, 16" points="
  264.915,3943.9 279.712,3936.1 294.51,3927.74 309.307,3918.8 324.105,3909.25 338.902,3899.07 353.699,3888.26 368.497,3876.8 383.294,3864.68 398.091,3851.91 
  412.889,3838.49 427.686,3824.45 442.483,3809.79 457.281,3794.57 472.078,3778.81 486.875,3762.56 501.673,3745.88 516.47,3728.82 531.267,3711.42 546.065,3693.76 
  560.862,3675.88 575.659,3657.82 590.457,3639.63 605.254,3621.32 620.051,3602.93 634.849,3584.46 649.646,3565.88 664.443,3547.19 679.241,3528.33 694.038,3509.25 
  708.836,3489.88 723.633,3470.12 738.43,3449.85 753.228,3428.94 768.025,3407.23 782.822,3384.5 797.62,3360.54 812.417,3335.06 827.214,3307.73 842.012,3278.16 
  856.809,3245.87 871.606,3210.27 886.404,3170.64 901.201,3126.09 915.998,3075.48 930.796,3017.34 945.593,2949.76 960.39,2870.16 975.188,2775.03 989.985,2659.33 
  1004.78,2515.68 1019.58,2332.5 1034.38,2090.32 1049.17,1751.96 1063.97,1226.59 1078.77,250.104 1093.57,86.0992 1108.36,83.6539 1123.16,83.172 1137.96,82.9294 
  1152.76,82.7525 
  "/>
<polyline clip-path="url(#clip632)" style="stroke:#000000; stroke-linecap:round; stroke-linejoin:round; stroke-width:16; stroke-opacity:1; fill:none" stroke-dasharray="64, 40" points="
  264.915,2978.53 279.712,2977.49 294.51,2976.33 309.307,2975.03 324.105,2973.58 338.902,2971.97 353.699,2970.17 368.497,2968.17 383.294,2965.94 398.091,2963.46 
  412.889,2960.7 427.686,2957.64 442.483,2954.24 457.281,2950.48 472.078,2946.3 486.875,2941.68 501.673,2936.57 516.47,2930.92 531.267,2924.68 546.065,2917.79 
  560.862,2910.19 575.659,2901.8 590.457,2892.56 605.254,2882.37 620.051,2871.13 634.849,2858.75 649.646,2845.09 664.443,2830.03 679.241,2813.41 694.038,2795.05 
  708.836,2774.74 723.633,2752.25 738.43,2727.3 753.228,2699.58 768.025,2668.7 782.822,2634.21 797.62,2595.56 812.417,2552.1 827.214,2503 842.012,2447.25 
  856.809,2383.56 871.606,2310.26 886.404,2225.15 901.201,2125.23 915.998,2006.31 930.796,1862.26 945.593,1683.68 960.39,1455.29 975.188,1151 989.985,731.744 
  1004.78,252.183 1019.58,113.118 1034.38,88.9412 1049.17,84.2836 1063.97,83.5705 1078.77,83.2727 1093.57,83.1007 1108.36,82.9842 1123.16,82.8958 1137.96,82.8214 
  1152.76,82.7525 
  "/>
</svg>
