<?xml version="1.0" encoding="utf-8"?>
<svg xmlns="http://www.w3.org/2000/svg" xmlns:xlink="http://www.w3.org/1999/xlink" width="300" height="180" viewBox="0 0 1200 720">
<defs>
  <clipPath id="clip040">
    <rect x="0" y="0" width="1200" height="720"/>
  </clipPath>
</defs>
<path clip-path="url(#clip040)" d="
M0 720 L1200 720 L1200 0 L0 0  Z
  " fill="#ffffff" fill-rule="evenodd" fill-opacity="1"/>
<defs>
  <clipPath id="clip041">
    <rect x="240" y="0" width="841" height="720"/>
  </clipPath>
</defs>
<path clip-path="url(#clip040)" d="
M296.569 576.03 L1152.76 576.03 L1152.76 47.2441 L296.569 47.2441  Z
  " fill="#ffffff" fill-rule="evenodd" fill-opacity="1"/>
<defs>
  <clipPath id="clip042">
    <rect x="296" y="47" width="857" height="530"/>
  </clipPath>
</defs>
<polyline clip-path="url(#clip040)" style="stroke:#000000; stroke-linecap:butt; stroke-linejoin:round; stroke-width:4; stroke-opacity:1; fill:none" points="
  296.569,576.03 1152.76,576.03 
  "/>
<polyline clip-path="url(#clip040)" style="stroke:#000000; stroke-linecap:butt; stroke-linejoin:round; stroke-width:4; stroke-opacity:1; fill:none" points="
  296.569,576.03 296.569,557.132 
  "/>
<polyline clip-path="url(#clip040)" style="stroke:#000000; stroke-linecap:butt; stroke-linejoin:round; stroke-width:4; stroke-opacity:1; fill:none" points="
  581.965,576.03 581.965,557.132 
  "/>
<polyline clip-path="url(#clip040)" style="stroke:#000000; stroke-linecap:butt; stroke-linejoin:round; stroke-width:4; stroke-opacity:1; fill:none" points="
  867.36,576.03 867.36,557.132 
  "/>
<polyline clip-path="url(#clip040)" style="stroke:#000000; stroke-linecap:butt; stroke-linejoin:round; stroke-width:4; stroke-opacity:1; fill:none" points="
  1152.76,576.03 1152.76,557.132 
  "/>
<path clip-path="url(#clip040)" d="M208.859 681.748 L222.227 681.748 L222.227 635.608 L207.685 638.525 L207.685 631.071 L222.146 628.155 L230.329 628.155 L230.329 681.748 L243.697 681.748 L243.697 688.635 L208.859 688.635 L208.859 681.748 Z" fill="#000000" fill-rule="evenodd" fill-opacity="1" /><path clip-path="url(#clip040)" d="M277.725 633.543 Q271.405 633.543 268.205 639.781 Q265.045 645.979 265.045 658.456 Q265.045 670.892 268.205 677.13 Q271.405 683.328 277.725 683.328 Q284.085 683.328 287.244 677.13 Q290.445 670.892 290.445 658.456 Q290.445 645.979 287.244 639.781 Q284.085 633.543 277.725 633.543 M277.725 627.061 Q287.892 627.061 293.24 635.122 Q298.627 643.143 298.627 658.456 Q298.627 673.728 293.24 681.789 Q287.892 689.81 277.725 689.81 Q267.557 689.81 262.169 681.789 Q256.822 673.728 256.822 658.456 Q256.822 643.143 262.169 635.122 Q267.557 627.061 277.725 627.061 Z" fill="#000000" fill-rule="evenodd" fill-opacity="1" /><path clip-path="url(#clip040)" d="M298.627 616.738 L340.823 616.738 L340.823 622.334 L298.627 622.334 L298.627 616.738 Z" fill="#000000" fill-rule="evenodd" fill-opacity="1" /><path clip-path="url(#clip040)" d="M375.316 614.171 Q380.089 615.192 382.755 618.417 Q385.453 621.643 385.453 626.382 Q385.453 633.656 380.451 637.639 Q375.448 641.621 366.232 641.621 Q363.138 641.621 359.847 640.996 Q356.588 640.403 353.099 639.186 L353.099 632.767 Q355.864 634.38 359.155 635.203 Q362.447 636.026 366.034 636.026 Q372.288 636.026 375.546 633.557 Q378.838 631.089 378.838 626.382 Q378.838 622.038 375.777 619.602 Q372.749 617.133 367.318 617.133 L361.591 617.133 L361.591 611.67 L367.581 611.67 Q372.485 611.67 375.086 609.728 Q377.686 607.753 377.686 604.067 Q377.686 600.282 374.987 598.274 Q372.321 596.233 367.318 596.233 Q364.586 596.233 361.459 596.826 Q358.333 597.418 354.58 598.669 L354.58 592.744 Q358.366 591.691 361.657 591.165 Q364.981 590.638 367.91 590.638 Q375.481 590.638 379.891 594.094 Q384.301 597.517 384.301 603.376 Q384.301 607.457 381.965 610.287 Q379.628 613.085 375.316 614.171 Z" fill="#000000" fill-rule="evenodd" fill-opacity="1" /><path clip-path="url(#clip040)" d="M494.93 681.748 L508.298 681.748 L508.298 635.608 L493.755 638.525 L493.755 631.071 L508.217 628.155 L516.399 628.155 L516.399 681.748 L529.767 681.748 L529.767 688.635 L494.93 688.635 L494.93 681.748 Z" fill="#000000" fill-rule="evenodd" fill-opacity="1" /><path clip-path="url(#clip040)" d="M563.795 633.543 Q557.476 633.543 554.275 639.781 Q551.116 645.979 551.116 658.456 Q551.116 670.892 554.275 677.13 Q557.476 683.328 563.795 683.328 Q570.155 683.328 573.315 677.13 Q576.515 670.892 576.515 658.456 Q576.515 645.979 573.315 639.781 Q570.155 633.543 563.795 633.543 M563.795 627.061 Q573.963 627.061 579.31 635.122 Q584.698 643.143 584.698 658.456 Q584.698 673.728 579.31 681.789 Q573.963 689.81 563.795 689.81 Q553.627 689.81 548.24 681.789 Q542.892 673.728 542.892 658.456 Q542.892 643.143 548.24 635.122 Q553.627 627.061 563.795 627.061 Z" fill="#000000" fill-rule="evenodd" fill-opacity="1" /><path clip-path="url(#clip040)" d="M584.698 616.738 L626.893 616.738 L626.893 622.334 L584.698 622.334 L584.698 616.738 Z" fill="#000000" fill-rule="evenodd" fill-opacity="1" /><path clip-path="url(#clip040)" d="M646.97 635.071 L670.174 635.071 L670.174 640.667 L638.972 640.667 L638.972 635.071 Q642.757 631.155 649.274 624.572 Q655.824 617.956 657.503 616.047 Q660.695 612.46 661.946 609.991 Q663.23 607.49 663.23 605.087 Q663.23 601.17 660.465 598.702 Q657.733 596.233 653.323 596.233 Q650.196 596.233 646.707 597.319 Q643.251 598.406 639.301 600.611 L639.301 593.896 Q643.317 592.284 646.806 591.461 Q650.295 590.638 653.191 590.638 Q660.827 590.638 665.369 594.456 Q669.911 598.274 669.911 604.659 Q669.911 607.687 668.759 610.419 Q667.64 613.118 664.645 616.804 Q663.822 617.759 659.412 622.334 Q655.001 626.876 646.97 635.071 Z" fill="#000000" fill-rule="evenodd" fill-opacity="1" /><path clip-path="url(#clip040)" d="M780.062 681.748 L793.43 681.748 L793.43 635.608 L778.887 638.525 L778.887 631.071 L793.349 628.155 L801.532 628.155 L801.532 681.748 L814.9 681.748 L814.9 688.635 L780.062 688.635 L780.062 681.748 Z" fill="#000000" fill-rule="evenodd" fill-opacity="1" /><path clip-path="url(#clip040)" d="M848.927 633.543 Q842.608 633.543 839.408 639.781 Q836.248 645.979 836.248 658.456 Q836.248 670.892 839.408 677.13 Q842.608 683.328 848.927 683.328 Q855.287 683.328 858.447 677.13 Q861.647 670.892 861.647 658.456 Q861.647 645.979 858.447 639.781 Q855.287 633.543 848.927 633.543 M848.927 627.061 Q859.095 627.061 864.442 635.122 Q869.83 643.143 869.83 658.456 Q869.83 673.728 864.442 681.789 Q859.095 689.81 848.927 689.81 Q838.76 689.81 833.372 681.789 Q828.025 673.728 828.025 658.456 Q828.025 643.143 833.372 635.122 Q838.76 627.061 848.927 627.061 Z" fill="#000000" fill-rule="evenodd" fill-opacity="1" /><path clip-path="url(#clip040)" d="M869.83 616.738 L912.025 616.738 L912.025 622.334 L869.83 622.334 L869.83 616.738 Z" fill="#000000" fill-rule="evenodd" fill-opacity="1" /><path clip-path="url(#clip040)" d="M927.528 635.071 L938.389 635.071 L938.389 597.583 L926.573 599.953 L926.573 593.896 L938.323 591.527 L944.972 591.527 L944.972 635.071 L955.833 635.071 L955.833 640.667 L927.528 640.667 L927.528 635.071 Z" fill="#000000" fill-rule="evenodd" fill-opacity="1" /><path clip-path="url(#clip040)" d="M1091.48 681.748 L1104.84 681.748 L1104.84 635.608 L1090.3 638.525 L1090.3 631.071 L1104.76 628.155 L1112.95 628.155 L1112.95 681.748 L1126.31 681.748 L1126.31 688.635 L1091.48 688.635 L1091.48 681.748 Z" fill="#000000" fill-rule="evenodd" fill-opacity="1" /><path clip-path="url(#clip040)" d="M1160.34 633.543 Q1154.02 633.543 1150.82 639.781 Q1147.66 645.979 1147.66 658.456 Q1147.66 670.892 1150.82 677.13 Q1154.02 683.328 1160.34 683.328 Q1166.7 683.328 1169.86 677.13 Q1173.06 670.892 1173.06 658.456 Q1173.06 645.979 1169.86 639.781 Q1166.7 633.543 1160.34 633.543 M1160.34 627.061 Q1170.51 627.061 1175.86 635.122 Q1181.24 643.143 1181.24 658.456 Q1181.24 673.728 1175.86 681.789 Q1170.51 689.81 1160.34 689.81 Q1150.17 689.81 1144.79 681.789 Q1139.44 673.728 1139.44 658.456 Q1139.44 643.143 1144.79 635.122 Q1150.17 627.061 1160.34 627.061 Z" fill="#000000" fill-rule="evenodd" fill-opacity="1" /><path clip-path="url(#clip040)" d="M1198.23 595.904 Q1193.09 595.904 1190.49 600.973 Q1187.93 606.009 1187.93 616.146 Q1187.93 626.25 1190.49 631.319 Q1193.09 636.355 1198.23 636.355 Q1203.39 636.355 1205.96 631.319 Q1208.56 626.25 1208.56 616.146 Q1208.56 606.009 1205.96 600.973 Q1203.39 595.904 1198.23 595.904 M1198.23 590.638 Q1206.49 590.638 1210.83 597.188 Q1215.21 603.705 1215.21 616.146 Q1215.21 628.554 1210.83 635.104 Q1206.49 641.621 1198.23 641.621 Q1189.97 641.621 1185.59 635.104 Q1181.24 628.554 1181.24 616.146 Q1181.24 603.705 1185.59 597.188 Q1189.97 590.638 1198.23 590.638 Z" fill="#000000" fill-rule="evenodd" fill-opacity="1" /><polyline clip-path="url(#clip040)" style="stroke:#000000; stroke-linecap:butt; stroke-linejoin:round; stroke-width:4; stroke-opacity:1; fill:none" points="
  296.569,576.03 296.569,47.2441 
  "/>
<polyline clip-path="url(#clip040)" style="stroke:#000000; stroke-linecap:butt; stroke-linejoin:round; stroke-width:4; stroke-opacity:1; fill:none" points="
  296.569,576.03 315.467,576.03 
  "/>
<polyline clip-path="url(#clip040)" style="stroke:#000000; stroke-linecap:butt; stroke-linejoin:round; stroke-width:4; stroke-opacity:1; fill:none" points="
  296.569,328.91 315.467,328.91 
  "/>
<polyline clip-path="url(#clip040)" style="stroke:#000000; stroke-linecap:butt; stroke-linejoin:round; stroke-width:4; stroke-opacity:1; fill:none" points="
  296.569,81.79 315.467,81.79 
  "/>
<path clip-path="url(#clip040)" d="M58.1669 610.667 L71.5349 610.667 L71.5349 564.527 L56.9921 567.443 L56.9921 559.99 L71.4539 557.073 L79.6367 557.073 L79.6367 610.667 L93.0047 610.667 L93.0047 617.553 L58.1669 617.553 L58.1669 610.667 Z" fill="#000000" fill-rule="evenodd" fill-opacity="1" /><path clip-path="url(#clip040)" d="M127.032 562.461 Q120.713 562.461 117.513 568.699 Q114.353 574.897 114.353 587.374 Q114.353 599.81 117.513 606.049 Q120.713 612.246 127.032 612.246 Q133.392 612.246 136.552 606.049 Q139.752 599.81 139.752 587.374 Q139.752 574.897 136.552 568.699 Q133.392 562.461 127.032 562.461 M127.032 555.979 Q137.2 555.979 142.547 564.041 Q147.935 572.061 147.935 587.374 Q147.935 602.646 142.547 610.707 Q137.2 618.728 127.032 618.728 Q116.864 618.728 111.477 610.707 Q106.13 602.646 106.13 587.374 Q106.13 572.061 111.477 564.041 Q116.864 555.979 127.032 555.979 Z" fill="#000000" fill-rule="evenodd" fill-opacity="1" /><path clip-path="url(#clip040)" d="M147.935 545.657 L190.13 545.657 L190.13 551.252 L147.935 551.252 L147.935 545.657 Z" fill="#000000" fill-rule="evenodd" fill-opacity="1" /><path clip-path="url(#clip040)" d="M205.632 563.99 L216.494 563.99 L216.494 526.501 L204.678 528.871 L204.678 522.815 L216.428 520.445 L223.077 520.445 L223.077 563.99 L233.938 563.99 L233.938 569.585 L205.632 569.585 L205.632 563.99 Z" fill="#000000" fill-rule="evenodd" fill-opacity="1" /><path clip-path="url(#clip040)" d="M261.586 524.822 Q256.451 524.822 253.851 529.891 Q251.284 534.927 251.284 545.064 Q251.284 555.169 253.851 560.237 Q256.451 565.273 261.586 565.273 Q266.753 565.273 269.32 560.237 Q271.92 555.169 271.92 545.064 Q271.92 534.927 269.32 529.891 Q266.753 524.822 261.586 524.822 M261.586 519.556 Q269.847 519.556 274.191 526.106 Q278.569 532.623 278.569 545.064 Q278.569 557.473 274.191 564.023 Q269.847 570.539 261.586 570.539 Q253.324 570.539 248.947 564.023 Q244.602 557.473 244.602 545.064 Q244.602 532.623 248.947 526.106 Q253.324 519.556 261.586 519.556 Z" fill="#000000" fill-rule="evenodd" fill-opacity="1" /><path clip-path="url(#clip040)" d="M102.469 363.547 L115.837 363.547 L115.837 317.407 L101.294 320.324 L101.294 312.87 L115.756 309.953 L123.938 309.953 L123.938 363.547 L137.306 363.547 L137.306 370.433 L102.469 370.433 L102.469 363.547 Z" fill="#000000" fill-rule="evenodd" fill-opacity="1" /><path clip-path="url(#clip040)" d="M171.334 315.341 Q165.015 315.341 161.814 321.579 Q158.655 327.777 158.655 340.254 Q158.655 352.69 161.814 358.929 Q165.015 365.127 171.334 365.127 Q177.694 365.127 180.854 358.929 Q184.054 352.69 184.054 340.254 Q184.054 327.777 180.854 321.579 Q177.694 315.341 171.334 315.341 M171.334 308.859 Q181.502 308.859 186.849 316.921 Q192.237 324.942 192.237 340.254 Q192.237 355.526 186.849 363.587 Q181.502 371.608 171.334 371.608 Q161.166 371.608 155.778 363.587 Q150.431 355.526 150.431 340.254 Q150.431 324.942 155.778 316.921 Q161.166 308.859 171.334 308.859 Z" fill="#000000" fill-rule="evenodd" fill-opacity="1" /><path clip-path="url(#clip040)" d="M192.237 298.537 L234.432 298.537 L234.432 304.132 L192.237 304.132 L192.237 298.537 Z" fill="#000000" fill-rule="evenodd" fill-opacity="1" /><path clip-path="url(#clip040)" d="M248.848 273.325 L274.948 273.325 L274.948 278.92 L254.937 278.92 L254.937 290.967 Q256.385 290.473 257.833 290.243 Q259.282 289.979 260.73 289.979 Q268.958 289.979 273.764 294.488 Q278.569 298.998 278.569 306.699 Q278.569 314.632 273.632 319.042 Q268.695 323.42 259.71 323.42 Q256.616 323.42 253.39 322.893 Q250.197 322.366 246.774 321.313 L246.774 314.632 Q249.737 316.244 252.896 317.034 Q256.056 317.824 259.578 317.824 Q265.272 317.824 268.596 314.829 Q271.92 311.834 271.92 306.699 Q271.92 301.565 268.596 298.57 Q265.272 295.575 259.578 295.575 Q256.912 295.575 254.246 296.167 Q251.613 296.759 248.848 298.01 L248.848 273.325 Z" fill="#000000" fill-rule="evenodd" fill-opacity="1" /><path clip-path="url(#clip040)" d="M154.834 116.427 L168.202 116.427 L168.202 70.2869 L153.659 73.2036 L153.659 65.7499 L168.121 62.8333 L176.304 62.8333 L176.304 116.427 L189.672 116.427 L189.672 123.313 L154.834 123.313 L154.834 116.427 Z" fill="#000000" fill-rule="evenodd" fill-opacity="1" /><path clip-path="url(#clip040)" d="M223.699 68.221 Q217.38 68.221 214.18 74.4594 Q211.02 80.6573 211.02 93.134 Q211.02 105.57 214.18 111.809 Q217.38 118.007 223.699 118.007 Q230.059 118.007 233.219 111.809 Q236.419 105.57 236.419 93.134 Q236.419 80.6573 233.219 74.4594 Q230.059 68.221 223.699 68.221 M223.699 61.7395 Q233.867 61.7395 239.214 69.8008 Q244.602 77.8216 244.602 93.134 Q244.602 108.406 239.214 116.467 Q233.867 124.488 223.699 124.488 Q213.532 124.488 208.144 116.467 Q202.797 108.406 202.797 93.134 Q202.797 77.8216 208.144 69.8008 Q213.532 61.7395 223.699 61.7395 Z" fill="#000000" fill-rule="evenodd" fill-opacity="1" /><path clip-path="url(#clip040)" d="M261.586 30.5826 Q256.451 30.5826 253.851 35.6513 Q251.284 40.6871 251.284 50.8244 Q251.284 60.9289 253.851 65.9976 Q256.451 71.0334 261.586 71.0334 Q266.753 71.0334 269.32 65.9976 Q271.92 60.9289 271.92 50.8244 Q271.92 40.6871 269.32 35.6513 Q266.753 30.5826 261.586 30.5826 M261.586 25.3164 Q269.847 25.3164 274.191 31.8662 Q278.569 38.3831 278.569 50.8244 Q278.569 63.2329 274.191 69.7827 Q269.847 76.2996 261.586 76.2996 Q253.324 76.2996 248.947 69.7827 Q244.602 63.2329 244.602 50.8244 Q244.602 38.3831 248.947 31.8662 Q253.324 25.3164 261.586 25.3164 Z" fill="#000000" fill-rule="evenodd" fill-opacity="1" /><polyline clip-path="url(#clip042)" style="stroke:#000000; stroke-linecap:butt; stroke-linejoin:round; stroke-width:16; stroke-opacity:1; fill:none" stroke-dasharray="8, 16" points="
  296.569,3867.75 310.839,3860.1 325.109,3851.91 339.378,3843.14 353.648,3833.77 367.918,3823.8 382.188,3813.2 396.457,3801.96 410.727,3790.08 424.997,3777.56 
  439.267,3764.4 453.537,3750.63 467.806,3736.26 482.076,3721.34 496.346,3705.89 510.616,3689.96 524.886,3673.6 539.155,3656.87 553.425,3639.82 567.695,3622.5 
  581.965,3604.96 596.234,3587.26 610.504,3569.42 624.774,3551.48 639.044,3533.45 653.314,3515.33 667.583,3497.12 681.853,3478.79 696.123,3460.3 710.393,3441.6 
  724.662,3422.6 738.932,3403.23 753.202,3383.36 767.472,3362.86 781.742,3341.56 796.011,3319.28 810.281,3295.79 824.551,3270.8 838.821,3244.01 853.09,3215.02 
  867.36,3183.36 881.63,3148.46 895.9,3109.6 910.17,3065.92 924.439,3016.3 938.709,2959.3 952.979,2893.03 967.249,2815 981.519,2721.72 995.788,2608.29 
  1010.06,2467.44 1024.33,2287.84 1038.6,2050.4 1052.87,1718.65 1067.14,1203.54 1081.41,246.139 1095.68,85.3398 1109.95,82.9424 1124.22,82.4699 1138.49,82.232 
  1152.76,82.0586 
  "/>
<polyline clip-path="url(#clip042)" style="stroke:#000000; stroke-linecap:butt; stroke-linejoin:round; stroke-width:16; stroke-opacity:1; fill:none" stroke-dasharray="64, 40" points="
  296.569,2921.25 310.839,2920.23 325.109,2919.09 339.378,2917.81 353.648,2916.39 367.918,2914.81 382.188,2913.05 396.457,2911.08 410.727,2908.9 424.997,2906.47 
  439.267,2903.76 453.537,2900.76 467.806,2897.43 482.076,2893.74 496.346,2889.65 510.616,2885.12 524.886,2880.11 539.155,2874.57 553.425,2868.45 567.695,2861.69 
  581.965,2854.24 596.234,2846.02 610.504,2836.95 624.774,2826.96 639.044,2815.95 653.314,2803.8 667.583,2790.42 681.853,2775.65 696.123,2759.35 710.393,2741.35 
  724.662,2721.44 738.932,2699.39 753.202,2674.93 767.472,2647.75 781.742,2617.47 796.011,2583.66 810.281,2545.76 824.551,2503.15 838.821,2455.01 853.09,2400.35 
  867.36,2337.9 881.63,2266.04 895.9,2182.59 910.17,2084.62 924.439,1968.03 938.709,1826.79 952.979,1651.7 967.249,1427.77 981.519,1129.43 995.788,718.368 
  1010.06,248.178 1024.33,111.831 1038.6,88.1263 1052.87,83.5597 1067.14,82.8605 1081.41,82.5686 1095.68,82.3999 1109.95,82.2857 1124.22,82.1991 1138.49,82.1261 
  1152.76,82.0586 
  "/>
<polyline clip-path="url(#clip042)" style="stroke:#e38512; stroke-linecap:butt; stroke-linejoin:round; stroke-width:16; stroke-opacity:1; fill:none" stroke-dasharray="8, 16" points="
  296.569,7010.39 310.839,7002.69 325.109,6994.42 339.378,6985.58 353.648,6976.13 367.918,6966.06 382.188,6955.35 396.457,6943.99 410.727,6931.97 424.997,6919.29 
  439.267,6905.96 453.537,6891.99 467.806,6877.4 482.076,6862.22 496.346,6846.49 510.616,6830.23 524.886,6813.51 539.155,6796.36 553.425,6778.85 567.695,6761 
  581.965,6742.87 596.234,6724.49 610.504,6705.89 624.774,6687.09 639.044,6668.08 653.314,6648.86 667.583,6629.41 681.853,6609.66 696.123,6589.58 710.393,6569.06 
  724.662,6548.01 738.932,6526.29 753.202,6503.76 767.472,6480.22 781.742,6455.46 796.011,6429.21 810.281,6401.16 824.551,6370.93 838.821,6338.08 853.09,6302.07 
  867.36,6262.23 881.63,6217.75 895.9,6167.61 910.17,6110.53 924.439,6044.85 938.709,5968.42 952.979,5878.33 967.249,5770.62 981.519,5639.65 995.788,5477.1 
  1010.06,5270.07 1024.33,4997.14 1038.6,4619.06 1052.87,4052.08 1067.14,3062.02 1081.41,795.429 1095.68,85.2426 1109.95,82.8987 1124.22,82.4391 1138.49,82.2102 
  1152.76,82.0445 
  "/>
<polyline clip-path="url(#clip042)" style="stroke:#e38512; stroke-linecap:butt; stroke-linejoin:round; stroke-width:16; stroke-opacity:1; fill:none" stroke-dasharray="64, 40" points="
  296.569,5562.03 310.839,5560.79 325.109,5559.41 339.378,5557.86 353.648,5556.13 367.918,5554.2 382.188,5552.04 396.457,5549.64 410.727,5546.95 424.997,5543.96 
  439.267,5540.63 453.537,5536.92 467.806,5532.78 482.076,5528.19 496.346,5523.08 510.616,5517.4 524.886,5511.09 539.155,5504.08 553.425,5496.3 567.695,5487.68 
  581.965,5478.1 596.234,5467.48 610.504,5455.7 624.774,5442.64 639.044,5428.13 653.314,5412.04 667.583,5394.15 681.853,5374.28 696.123,5352.16 710.393,5327.52 
  724.662,5300.02 738.932,5269.3 753.202,5234.89 767.472,5196.26 781.742,5152.77 796.011,5103.66 810.281,5047.98 824.551,4984.59 838.821,4912.03 853.09,4828.48 
  867.36,4731.58 881.63,4618.22 895.9,4484.21 910.17,4323.75 924.439,4128.51 938.709,3886.04 952.979,3576.75 967.249,3167.94 981.519,2601.99 995.788,1787.3 
  1010.06,746.069 1024.33,132.764 1038.6,88.1545 1052.87,83.5019 1067.14,82.8184 1081.41,82.5346 1095.68,82.3716 1109.95,82.2618 1124.22,82.1787 1138.49,82.1089 
  1152.76,82.0445 
  "/>
<polyline clip-path="url(#clip042)" style="stroke:#7a4c8f; stroke-linecap:butt; stroke-linejoin:round; stroke-width:16; stroke-opacity:1; fill:none" stroke-dasharray="8, 16" points="
  296.569,1915.51 310.839,1907.91 325.109,1899.78 339.378,1891.07 353.648,1881.78 367.918,1871.89 382.188,1861.38 396.457,1850.25 410.727,1838.49 424.997,1826.09 
  439.267,1813.08 453.537,1799.47 467.806,1785.29 482.076,1770.56 496.346,1755.34 510.616,1739.66 524.886,1723.58 539.155,1707.16 553.425,1690.46 567.695,1673.53 
  581.965,1656.43 596.234,1639.22 610.504,1621.93 624.774,1604.61 639.044,1587.27 653.314,1569.94 667.583,1552.61 681.853,1535.27 696.123,1517.91 710.393,1500.48 
  724.662,1482.93 738.932,1465.19 753.202,1447.18 767.472,1428.81 781.742,1409.94 796.011,1390.43 810.281,1370.13 824.551,1348.82 838.821,1326.29 853.09,1302.24 
  867.36,1276.35 881.63,1248.23 895.9,1217.4 910.17,1183.28 924.439,1145.16 938.709,1102.46 952.979,1054.24 967.249,999.374 981.519,936.394 995.788,863.348 
  1010.06,777.762 1024.33,676.261 1038.6,554.539 1052.87,408.175 1067.14,246.398 1081.41,134.732 1095.68,83.6042 1109.95,82.388 1124.22,82.1419 1138.49,82.0184 
  1152.76,81.9286 
  "/>
<polyline clip-path="url(#clip042)" style="stroke:#7a4c8f; stroke-linecap:butt; stroke-linejoin:round; stroke-width:16; stroke-opacity:1; fill:none" stroke-dasharray="64, 40" points="
  296.569,1292.06 310.839,1291.23 325.109,1290.3 339.378,1289.26 353.648,1288.11 367.918,1286.82 382.188,1285.39 396.457,1283.8 410.727,1282.03 424.997,1280.06 
  439.267,1277.88 453.537,1275.46 467.806,1272.79 482.076,1269.83 496.346,1266.56 510.616,1262.96 524.886,1258.98 539.155,1254.6 553.425,1249.78 567.695,1244.48 
  581.965,1238.67 596.234,1232.29 610.504,1225.3 624.774,1217.64 639.044,1209.26 653.314,1200.08 667.583,1190.05 681.853,1179.07 696.123,1167.07 710.393,1153.94 
  724.662,1139.58 738.932,1123.86 753.202,1106.63 767.472,1087.74 781.742,1067.01 796.011,1044.21 810.281,1019.09 824.551,991.378 838.821,960.713 853.09,926.686 
  867.36,888.801 881.63,846.449 895.9,798.873 910.17,745.113 924.439,683.912 938.709,613.569 952.979,531.683 967.249,434.849 981.519,319.906 995.788,203.442 
  1010.06,135.25 1024.33,98.2878 1038.6,85.0529 1052.87,82.7069 1067.14,82.345 1081.41,82.1932 1095.68,82.1055 1109.95,82.0462 1124.22,82.0013 1138.49,81.9635 
  1152.76,81.9286 
  "/>
</svg>
