<?xml version="1.0" encoding="utf-8"?>
<svg xmlns="http://www.w3.org/2000/svg" xmlns:xlink="http://www.w3.org/1999/xlink" width="300" height="180" viewBox="0 0 1200 720">
<defs>
  <clipPath id="clip720">
    <rect x="0" y="0" width="1200" height="720"/>
  </clipPath>
</defs>
<path clip-path="url(#clip720)" d="
M0 720 L1200 720 L1200 0 L0 0  Z
  " fill="#ffffff" fill-rule="evenodd" fill-opacity="1"/>
<defs>
  <clipPath id="clip721">
    <rect x="240" y="0" width="841" height="720"/>
  </clipPath>
</defs>
<path clip-path="url(#clip720)" d="
M296.569 576.03 L1152.76 576.03 L1152.76 47.2441 L296.569 47.2441  Z
  " fill="#ffffff" fill-rule="evenodd" fill-opacity="1"/>
<defs>
  <clipPath id="clip722">
    <rect x="296" y="47" width="857" height="530"/>
  </clipPath>
</defs>
<polyline clip-path="url(#clip720)" style="stroke:#000000; stroke-linecap:butt; stroke-linejoin:round; stroke-width:4; stroke-opacity:1; fill:none" points="
  296.569,576.03 1152.76,576.03 
  "/>
<polyline clip-path="url(#clip720)" style="stroke:#000000; stroke-linecap:butt; stroke-linejoin:round; stroke-width:4; stroke-opacity:1; fill:none" points="
  296.569,576.03 296.569,557.132 
  "/>
<polyline clip-path="url(#clip720)" style="stroke:#000000; stroke-linecap:butt; stroke-linejoin:round; stroke-width:4; stroke-opacity:1; fill:none" points="
  581.965,576.03 581.965,557.132 
  "/>
<polyline clip-path="url(#clip720)" style="stroke:#000000; stroke-linecap:butt; stroke-linejoin:round; stroke-width:4; stroke-opacity:1; fill:none" points="
  867.36,576.03 867.36,557.132 
  "/>
<polyline clip-path="url(#clip720)" style="stroke:#000000; stroke-linecap:butt; stroke-linejoin:round; stroke-width:4; stroke-opacity:1; fill:none" points="
  1152.76,576.03 1152.76,557.132 
  "/>
<path clip-path="url(#clip720)" d="M208.859 681.748 L222.227 681.748 L222.227 635.608 L207.685 638.525 L207.685 631.071 L222.146 628.155 L230.329 628.155 L230.329 681.748 L243.697 681.748 L243.697 688.635 L208.859 688.635 L208.859 681.748 Z" fill="#000000" fill-rule="evenodd" fill-opacity="1" /><path clip-path="url(#clip720)" d="M277.725 633.543 Q271.405 633.543 268.205 639.781 Q265.045 645.979 265.045 658.456 Q265.045 670.892 268.205 677.13 Q271.405 683.328 277.725 683.328 Q284.085 683.328 287.244 677.13 Q290.445 670.892 290.445 658.456 Q290.445 645.979 287.244 639.781 Q284.085 633.543 277.725 633.543 M277.725 627.061 Q287.892 627.061 293.24 635.122 Q298.627 643.143 298.627 658.456 Q298.627 673.728 293.24 681.789 Q287.892 689.81 277.725 689.81 Q267.557 689.81 262.169 681.789 Q256.822 673.728 256.822 658.456 Q256.822 643.143 262.169 635.122 Q267.557 627.061 277.725 627.061 Z" fill="#000000" fill-rule="evenodd" fill-opacity="1" /><path clip-path="url(#clip720)" d="M298.627 616.738 L340.823 616.738 L340.823 622.334 L298.627 622.334 L298.627 616.738 Z" fill="#000000" fill-rule="evenodd" fill-opacity="1" /><path clip-path="url(#clip720)" d="M375.316 614.171 Q380.089 615.192 382.755 618.417 Q385.453 621.643 385.453 626.382 Q385.453 633.656 380.451 637.639 Q375.448 641.621 366.232 641.621 Q363.138 641.621 359.847 640.996 Q356.588 640.403 353.099 639.186 L353.099 632.767 Q355.864 634.38 359.155 635.203 Q362.447 636.026 366.034 636.026 Q372.288 636.026 375.546 633.557 Q378.838 631.089 378.838 626.382 Q378.838 622.038 375.777 619.602 Q372.749 617.133 367.318 617.133 L361.591 617.133 L361.591 611.67 L367.581 611.67 Q372.485 611.67 375.086 609.728 Q377.686 607.753 377.686 604.067 Q377.686 600.282 374.987 598.274 Q372.321 596.233 367.318 596.233 Q364.586 596.233 361.459 596.826 Q358.333 597.418 354.58 598.669 L354.58 592.744 Q358.366 591.691 361.657 591.165 Q364.981 590.638 367.91 590.638 Q375.481 590.638 379.891 594.094 Q384.301 597.517 384.301 603.376 Q384.301 607.457 381.965 610.287 Q379.628 613.085 375.316 614.171 Z" fill="#000000" fill-rule="evenodd" fill-opacity="1" /><path clip-path="url(#clip720)" d="M494.93 681.748 L508.298 681.748 L508.298 635.608 L493.755 638.525 L493.755 631.071 L508.217 628.155 L516.399 628.155 L516.399 681.748 L529.767 681.748 L529.767 688.635 L494.93 688.635 L494.93 681.748 Z" fill="#000000" fill-rule="evenodd" fill-opacity="1" /><path clip-path="url(#clip720)" d="M563.795 633.543 Q557.476 633.543 554.275 639.781 Q551.116 645.979 551.116 658.456 Q551.116 670.892 554.275 677.13 Q557.476 683.328 563.795 683.328 Q570.155 683.328 573.315 677.13 Q576.515 670.892 576.515 658.456 Q576.515 645.979 573.315 639.781 Q570.155 633.543 563.795 633.543 M563.795 627.061 Q573.963 627.061 579.31 635.122 Q584.698 643.143 584.698 658.456 Q584.698 673.728 579.31 681.789 Q573.963 689.81 563.795 689.81 Q553.627 689.81 548.24 681.789 Q542.892 673.728 542.892 658.456 Q542.892 643.143 548.24 635.122 Q553.627 627.061 563.795 627.061 Z" fill="#000000" fill-rule="evenodd" fill-opacity="1" /><path clip-path="url(#clip720)" d="M584.698 616.738 L626.893 616.738 L626.893 622.334 L584.698 622.334 L584.698 616.738 Z" fill="#000000" fill-rule="evenodd" fill-opacity="1" /><path clip-path="url(#clip720)" d="M646.97 635.071 L670.174 635.071 L670.174 640.667 L638.972 640.667 L638.972 635.071 Q642.757 631.155 649.274 624.572 Q655.824 617.956 657.503 616.047 Q660.695 612.46 661.946 609.991 Q663.23 607.49 663.23 605.087 Q663.23 601.17 660.465 598.702 Q657.733 596.233 653.323 596.233 Q650.196 596.233 646.707 597.319 Q643.251 598.406 639.301 600.611 L639.301 593.896 Q643.317 592.284 646.806 591.461 Q650.295 590.638 653.191 590.638 Q660.827 590.638 665.369 594.456 Q669.911 598.274 669.911 604.659 Q669.911 607.687 668.759 610.419 Q667.64 613.118 664.645 616.804 Q663.822 617.759 659.412 622.334 Q655.001 626.876 646.97 635.071 Z" fill="#000000" fill-rule="evenodd" fill-opacity="1" /><path clip-path="url(#clip720)" d="M780.062 681.748 L793.43 681.748 L793.43 635.608 L778.887 638.525 L778.887 631.071 L793.349 628.155 L801.532 628.155 L801.532 681.748 L814.9 681.748 L814.9 688.635 L780.062 688.635 L780.062 681.748 Z" fill="#000000" fill-rule="evenodd" fill-opacity="1" /><path clip-path="url(#clip720)" d="M848.927 633.543 Q842.608 633.543 839.408 639.781 Q836.248 645.979 836.248 658.456 Q836.248 670.892 839.408 677.13 Q842.608 683.328 848.927 683.328 Q855.287 683.328 858.447 677.13 Q861.647 670.892 861.647 658.456 Q861.647 645.979 858.447 639.781 Q855.287 633.543 848.927 633.543 M848.927 627.061 Q859.095 627.061 864.442 635.122 Q869.83 643.143 869.83 658.456 Q869.83 673.728 864.442 681.789 Q859.095 689.81 848.927 689.81 Q838.76 689.81 833.372 681.789 Q828.025 673.728 828.025 658.456 Q828.025 643.143 833.372 635.122 Q838.76 627.061 848.927 627.061 Z" fill="#000000" fill-rule="evenodd" fill-opacity="1" /><path clip-path="url(#clip720)" d="M869.83 616.738 L912.025 616.738 L912.025 622.334 L869.83 622.334 L869.83 616.738 Z" fill="#000000" fill-rule="evenodd" fill-opacity="1" /><path clip-path="url(#clip720)" d="M927.528 635.071 L938.389 635.071 L938.389 597.583 L926.573 599.953 L926.573 593.896 L938.323 591.527 L944.972 591.527 L944.972 635.071 L955.833 635.071 L955.833 640.667 L927.528 640.667 L927.528 635.071 Z" fill="#000000" fill-rule="evenodd" fill-opacity="1" /><path clip-path="url(#clip720)" d="M1091.48 681.748 L1104.84 681.748 L1104.84 635.608 L1090.3 638.525 L1090.3 631.071 L1104.76 628.155 L1112.95 628.155 L1112.95 681.748 L1126.31 681.748 L1126.31 688.635 L1091.48 688.635 L1091.48 681.748 Z" fill="#000000" fill-rule="evenodd" fill-opacity="1" /><path clip-path="url(#clip720)" d="M1160.34 633.543 Q1154.02 633.543 1150.82 639.781 Q1147.66 645.979 1147.66 658.456 Q1147.66 670.892 1150.82 677.13 Q1154.02 683.328 1160.34 683.328 Q1166.7 683.328 1169.86 677.13 Q1173.06 670.892 1173.06 658.456 Q1173.06 645.979 1169.86 639.781 Q1166.7 633.543 1160.34 633.543 M1160.34 627.061 Q1170.51 627.061 1175.86 635.122 Q1181.24 643.143 1181.24 658.456 Q1181.24 673.728 1175.86 681.789 Q1170.51 689.81 1160.34 689.81 Q1150.17 689.81 1144.79 681.789 Q1139.44 673.728 1139.44 658.456 Q1139.44 643.143 1144.79 635.122 Q1150.17 627.061 1160.34 627.061 Z" fill="#000000" fill-rule="evenodd" fill-opacity="1" /><path clip-path="url(#clip720)" d="M1198.23 595.904 Q1193.09 595.904 1190.49 600.973 Q1187.93 606.009 1187.93 616.146 Q1187.93 626.25 1190.49 631.319 Q1193.09 636.355 1198.23 636.355 Q1203.39 636.355 1205.96 631.319 Q1208.56 626.25 1208.56 616.146 Q1208.56 606.009 1205.96 600.973 Q1203.39 595.904 1198.23 595.904 M1198.23 590.638 Q1206.49 590.638 1210.83 597.188 Q1215.21 603.705 1215.21 616.146 Q1215.21 628.554 1210.83 635.104 Q1206.49 641.621 1198.23 641.621 Q1189.97 641.621 1185.59 635.104 Q1181.24 628.554 1181.24 616.146 Q1181.24 603.705 1185.59 597.188 Q1189.97 590.638 1198.23 590.638 Z" fill="#000000" fill-rule="evenodd" fill-opacity="1" /><polyline clip-path="url(#clip720)" style="stroke:#000000; stroke-linecap:butt; stroke-linejoin:round; stroke-width:4; stroke-opacity:1; fill:none" points="
  296.569,576.03 296.569,47.2441 
  "/>
<polyline clip-path="url(#clip720)" style="stroke:#000000; stroke-linecap:butt; stroke-linejoin:round; stroke-width:4; stroke-opacity:1; fill:none" points="
  296.569,576.03 315.467,576.03 
  "/>
<polyline clip-path="url(#clip720)" style="stroke:#000000; stroke-linecap:butt; stroke-linejoin:round; stroke-width:4; stroke-opacity:1; fill:none" points="
  296.569,328.91 315.467,328.91 
  "/>
<polyline clip-path="url(#clip720)" style="stroke:#000000; stroke-linecap:butt; stroke-linejoin:round; stroke-width:4; stroke-opacity:1; fill:none" points="
  296.569,81.79 315.467,81.79 
  "/>
<path clip-path="url(#clip720)" d="M58.1669 610.667 L71.5349 610.667 L71.5349 564.527 L56.9921 567.443 L56.9921 559.99 L71.4539 557.073 L79.6367 557.073 L79.6367 610.667 L93.0047 610.667 L93.0047 617.553 L58.1669 617.553 L58.1669 610.667 Z" fill="#000000" fill-rule="evenodd" fill-opacity="1" /><path clip-path="url(#clip720)" d="M127.032 562.461 Q120.713 562.461 117.513 568.699 Q114.353 574.897 114.353 587.374 Q114.353 599.81 117.513 606.049 Q120.713 612.246 127.032 612.246 Q133.392 612.246 136.552 606.049 Q139.752 599.81 139.752 587.374 Q139.752 574.897 136.552 568.699 Q133.392 562.461 127.032 562.461 M127.032 555.979 Q137.2 555.979 142.547 564.041 Q147.935 572.061 147.935 587.374 Q147.935 602.646 142.547 610.707 Q137.2 618.728 127.032 618.728 Q116.864 618.728 111.477 610.707 Q106.13 602.646 106.13 587.374 Q106.13 572.061 111.477 564.041 Q116.864 555.979 127.032 555.979 Z" fill="#000000" fill-rule="evenodd" fill-opacity="1" /><path clip-path="url(#clip720)" d="M147.935 545.657 L190.13 545.657 L190.13 551.252 L147.935 551.252 L147.935 545.657 Z" fill="#000000" fill-rule="evenodd" fill-opacity="1" /><path clip-path="url(#clip720)" d="M205.632 563.99 L216.494 563.99 L216.494 526.501 L204.678 528.871 L204.678 522.815 L216.428 520.445 L223.077 520.445 L223.077 563.99 L233.938 563.99 L233.938 569.585 L205.632 569.585 L205.632 563.99 Z" fill="#000000" fill-rule="evenodd" fill-opacity="1" /><path clip-path="url(#clip720)" d="M261.586 524.822 Q256.451 524.822 253.851 529.891 Q251.284 534.927 251.284 545.064 Q251.284 555.169 253.851 560.237 Q256.451 565.273 261.586 565.273 Q266.753 565.273 269.32 560.237 Q271.92 555.169 271.92 545.064 Q271.92 534.927 269.32 529.891 Q266.753 524.822 261.586 524.822 M261.586 519.556 Q269.847 519.556 274.191 526.106 Q278.569 532.623 278.569 545.064 Q278.569 557.473 274.191 564.023 Q269.847 570.539 261.586 570.539 Q253.324 570.539 248.947 564.023 Q244.602 557.473 244.602 545.064 Q244.602 532.623 248.947 526.106 Q253.324 519.556 261.586 519.556 Z" fill="#000000" fill-rule="evenodd" fill-opacity="1" /><path clip-path="url(#clip720)" d="M102.469 363.547 L115.837 363.547 L115.837 317.407 L101.294 320.324 L101.294 312.87 L115.756 309.953 L123.938 309.953 L123.938 363.547 L137.306 363.547 L137.306 370.433 L102.469 370.433 L102.469 363.547 Z" fill="#000000" fill-rule="evenodd" fill-opacity="1" /><path clip-path="url(#clip720)" d="M171.334 315.341 Q165.015 315.341 161.814 321.579 Q158.655 327.777 158.655 340.254 Q158.655 352.69 161.814 358.929 Q165.015 365.127 171.334 365.127 Q177.694 365.127 180.854 358.929 Q184.054 352.69 184.054 340.254 Q184.054 327.777 180.854 321.579 Q177.694 315.341 171.334 315.341 M171.334 308.859 Q181.502 308.859 186.849 316.921 Q192.237 324.942 192.237 340.254 Q192.237 355.526 186.849 363.587 Q181.502 371.608 171.334 371.608 Q161.166 371.608 155.778 363.587 Q150.431 355.526 150.431 340.254 Q150.431 324.942 155.778 316.921 Q161.166 308.859 171.334 308.859 Z" fill="#000000" fill-rule="evenodd" fill-opacity="1" /><path clip-path="url(#clip720)" d="M192.237 298.537 L234.432 298.537 L234.432 304.132 L192.237 304.132 L192.237 298.537 Z" fill="#000000" fill-rule="evenodd" fill-opacity="1" /><path clip-path="url(#clip720)" d="M248.848 273.325 L274.948 273.325 L274.948 278.92 L254.937 278.92 L254.937 290.967 Q256.385 290.473 257.833 290.243 Q259.282 289.979 260.73 289.979 Q268.958 289.979 273.764 294.488 Q278.569 298.998 278.569 306.699 Q278.569 314.632 273.632 319.042 Q268.695 323.42 259.71 323.42 Q256.616 323.42 253.39 322.893 Q250.197 322.366 246.774 321.313 L246.774 314.632 Q249.737 316.244 252.896 317.034 Q256.056 317.824 259.578 317.824 Q265.272 317.824 268.596 314.829 Q271.92 311.834 271.92 306.699 Q271.92 301.565 268.596 298.57 Q265.272 295.575 259.578 295.575 Q256.912 295.575 254.246 296.167 Q251.613 296.759 248.848 298.01 L248.848 273.325 Z" fill="#000000" fill-rule="evenodd" fill-opacity="1" /><path clip-path="url(#clip720)" d="M154.834 116.427 L168.202 116.427 L168.202 70.2869 L153.659 73.2036 L153.659 65.7499 L168.121 62.8333 L176.304 62.8333 L176.304 116.427 L189.672 116.427 L189.672 123.313 L154.834 123.313 L154.834 116.427 Z" fill="#000000" fill-rule="evenodd" fill-opacity="1" /><path clip-path="url(#clip720)" d="M223.699 68.221 Q217.38 68.221 214.18 74.4594 Q211.02 80.6573 211.02 93.134 Q211.02 105.57 214.18 111.809 Q217.38 118.007 223.699 118.007 Q230.059 118.007 233.219 111.809 Q236.419 105.57 236.419 93.134 Q236.419 80.6573 233.219 74.4594 Q230.059 68.221 223.699 68.221 M223.699 61.7395 Q233.867 61.7395 239.214 69.8008 Q244.602 77.8216 244.602 93.134 Q244.602 108.406 239.214 116.467 Q233.867 124.488 223.699 124.488 Q213.532 124.488 208.144 116.467 Q202.797 108.406 202.797 93.134 Q202.797 77.8216 208.144 69.8008 Q213.532 61.7395 223.699 61.7395 Z" fill="#000000" fill-rule="evenodd" fill-opacity="1" /><path clip-path="url(#clip720)" d="M261.586 30.5826 Q256.451 30.5826 253.851 35.6513 Q251.284 40.6871 251.284 50.8244 Q251.284 60.9289 253.851 65.9976 Q256.451 71.0334 261.586 71.0334 Q266.753 71.0334 269.32 65.9976 Q271.92 60.9289 271.92 50.8244 Q271.92 40.6871 269.32 35.6513 Q266.753 30.5826 261.586 30.5826 M261.586 25.3164 Q269.847 25.3164 274.191 31.8662 Q278.569 38.3831 278.569 50.8244 Q278.569 63.2329 274.191 69.7827 Q269.847 76.2996 261.586 76.2996 Q253.324 76.2996 248.947 69.7827 Q244.602 63.2329 244.602 50.8244 Q244.602 38.3831 248.947 31.8662 Q253.324 25.3164 261.586 25.3164 Z" fill="#000000" fill-rule="evenodd" fill-opacity="1" /><polyline clip-path="url(#clip722)" style="stroke:#000000; stroke-linecap:butt; stroke-linejoin:round; stroke-width:16; stroke-opacity:1; fill:none" stroke-dasharray="8, 16" points="
  296.569,1091.65 310.839,1029.71 325.109,970.276 339.378,913.108 353.648,857.893 367.918,804.479 382.188,752.662 396.457,702.302 410.727,653.46 424.997,606.058 
  439.267,560.146 453.537,515.596 467.806,472.886 482.076,431.947 496.346,392.833 510.616,355.727 524.886,320.832 539.155,288.384 553.425,258.702 567.695,232.353 
  581.965,209.435 596.234,190.144 610.504,174.354 624.774,161.568 639.044,151.267 653.314,142.879 667.583,135.665 681.853,129.59 696.123,124.252 710.393,119.455 
  724.662,115.122 738.932,111.179 753.202,107.558 767.472,104.195 781.742,101.063 796.011,98.2136 810.281,95.5561 824.551,93.1076 838.821,90.858 853.09,88.8341 
  867.36,87.0022 881.63,85.355 895.9,83.8836 910.17,82.6227 924.439,81.8517 938.709,81.8293 952.979,81.8232 967.249,81.8195 981.519,81.8165 995.788,81.8145 
  1010.06,81.8122 1024.33,81.8098 1038.6,81.8072 1052.87,81.8062 1067.14,81.8051 1081.41,81.8037 1095.68,81.802 1109.95,81.7998 1124.22,81.7971 1138.49,81.7938 
  1152.76,81.79 
  "/>
<polyline clip-path="url(#clip722)" style="stroke:#000000; stroke-linecap:butt; stroke-linejoin:round; stroke-width:16; stroke-opacity:1; fill:none" stroke-dasharray="64, 40" points="
  296.569,370.78 310.839,320.34 325.109,276.62 339.378,239.982 353.648,210.888 367.918,188.997 382.188,172.887 396.457,160.909 410.727,151.684 424.997,144.253 
  439.267,138.097 453.537,132.844 467.806,128.24 482.076,124.113 496.346,120.396 510.616,116.974 524.886,113.831 539.155,110.891 553.425,108.139 567.695,105.567 
  581.965,103.142 596.234,100.855 610.504,98.6983 624.774,96.6651 639.044,94.762 653.314,92.9779 667.583,91.3185 681.853,89.7839 696.123,88.3781 710.393,87.109 
  724.662,85.979 738.932,84.9913 753.202,84.1463 767.472,83.4332 781.742,82.8282 796.011,82.3063 810.281,81.9319 824.551,81.8996 838.821,81.8792 853.09,81.8645 
  867.36,81.8537 881.63,81.8452 895.9,81.8383 910.17,81.8331 924.439,81.8281 938.709,81.8248 952.979,81.8214 967.249,81.8184 981.519,81.8165 995.788,81.8145 
  1010.06,81.8122 1024.33,81.8098 1038.6,81.8072 1052.87,81.8062 1067.14,81.8051 1081.41,81.8037 1095.68,81.802 1109.95,81.7998 1124.22,81.7971 1138.49,81.7938 
  1152.76,81.79 
  "/>
<polyline clip-path="url(#clip722)" style="stroke:#e38512; stroke-linecap:butt; stroke-linejoin:round; stroke-width:16; stroke-opacity:1; fill:none" stroke-dasharray="8, 16" points="
  296.569,3067.95 310.839,2870.27 325.109,2682.03 339.378,2503.09 353.648,2333.24 367.918,2172.31 382.188,2020.05 396.457,1876.16 410.727,1740.43 424.997,1612.57 
  439.267,1492.25 453.537,1379.2 467.806,1273.13 482.076,1173.64 496.346,1080.46 510.616,993.171 524.886,911.55 539.155,835.108 553.425,763.569 567.695,696.538 
  581.965,633.856 596.234,575.116 610.504,520.122 624.774,468.612 639.044,420.672 653.314,375.82 667.583,334.442 681.853,296.18 696.123,261.139 710.393,229.485 
  724.662,201.479 738.932,177.428 753.202,157.482 767.472,141.352 781.742,128.828 796.011,118.874 810.281,110.884 824.551,104.502 838.821,99.2004 853.09,94.8234 
  867.36,91.1509 881.63,88.0353 895.9,85.381 910.17,83.1926 924.439,81.8896 938.709,81.8461 952.979,81.8346 967.249,81.8271 981.519,81.8213 995.788,81.817 
  1010.06,81.8128 1024.33,81.8102 1038.6,81.8075 1052.87,81.8048 1067.14,81.8021 1081.41,81.8002 1095.68,81.7984 1109.95,81.7964 1124.22,81.7943 1138.49,81.7921 
  1152.76,81.79 
  "/>
<polyline clip-path="url(#clip722)" style="stroke:#e38512; stroke-linecap:butt; stroke-linejoin:round; stroke-width:16; stroke-opacity:1; fill:none" stroke-dasharray="64, 40" points="
  296.569,2324.29 310.839,2148.49 325.109,1970.78 339.378,1791.76 353.648,1612.68 367.918,1442.82 382.188,1284.87 396.457,1138.57 410.727,1003.6 424.997,879.656 
  439.267,766.327 453.537,663.213 467.806,569.899 482.076,486.048 496.346,411.244 510.616,345.204 524.886,287.816 539.155,239.165 553.425,199.799 567.695,170.036 
  581.965,148.85 596.234,134.035 610.504,123.392 624.774,115.375 639.044,109.126 653.314,104.075 667.583,99.9033 681.853,96.4138 696.123,93.4745 710.393,90.9858 
  724.662,88.8908 738.932,87.1436 753.202,85.6994 767.472,84.5069 781.742,83.4983 796.011,82.6216 810.281,81.9766 824.551,81.9182 838.821,81.8945 853.09,81.8777 
  867.36,81.8649 881.63,81.8548 895.9,81.8465 910.17,81.8394 924.439,81.8339 938.709,81.8287 952.979,81.8245 967.249,81.8208 981.519,81.8172 995.788,81.8139 
  1010.06,81.8116 1024.33,81.8092 1038.6,81.8067 1052.87,81.8041 1067.14,81.8017 1081.41,81.8002 1095.68,81.7984 1109.95,81.7964 1124.22,81.7943 1138.49,81.7921 
  1152.76,81.79 
  "/>
<polyline clip-path="url(#clip722)" style="stroke:#7a4c8f; stroke-linecap:butt; stroke-linejoin:round; stroke-width:16; stroke-opacity:1; fill:none" stroke-dasharray="8, 16" points="
  296.569,599.262 310.839,566.954 325.109,534.548 339.378,502.166 353.648,469.95 367.918,438.061 382.188,406.682 396.457,376.02 410.727,346.309 424.997,317.815 
  439.267,290.843 453.537,265.747 467.806,242.918 482.076,222.737 496.346,205.458 510.616,191.068 524.886,179.252 539.155,169.491 553.425,161.23 567.695,154.206 
  581.965,148.15 596.234,142.744 610.504,137.823 624.774,133.456 639.044,129.343 653.314,125.467 667.583,121.815 681.853,118.435 696.123,115.198 710.393,112.094 
  724.662,109.113 738.932,106.241 753.202,103.543 767.472,100.957 781.742,98.4394 796.011,96.1091 810.281,93.8814 824.551,91.7994 838.821,89.8574 853.09,88.0895 
  867.36,86.4714 881.63,85.004 895.9,83.684 910.17,82.545 924.439,81.8443 938.709,81.8218 952.979,81.8161 967.249,81.8126 981.519,81.8103 995.788,81.8083 
  1010.06,81.8062 1024.33,81.8053 1038.6,81.8043 1052.87,81.8031 1067.14,81.8017 1081.41,81.8002 1095.68,81.7984 1109.95,81.7964 1124.22,81.7943 1138.49,81.7921 
  1152.76,81.79 
  "/>
<polyline clip-path="url(#clip722)" style="stroke:#7a4c8f; stroke-linecap:butt; stroke-linejoin:round; stroke-width:16; stroke-opacity:1; fill:none" stroke-dasharray="64, 40" points="
  296.569,153.385 310.839,149.155 325.109,145.268 339.378,141.647 353.648,138.24 367.918,135.056 382.188,132.011 396.457,129.118 410.727,126.339 424.997,123.673 
  439.267,121.094 453.537,118.617 467.806,116.203 482.076,113.879 496.346,111.622 510.616,109.425 524.886,107.301 539.155,105.246 553.425,103.252 567.695,101.323 
  581.965,99.4619 596.234,97.6701 610.504,95.9498 624.774,94.3022 639.044,92.7442 653.314,91.2638 667.583,89.8789 681.853,88.5918 696.123,87.41 710.393,86.3377 
  724.662,85.3837 738.932,84.5519 753.202,83.8381 767.472,83.2312 781.742,82.7057 796.011,82.2398 810.281,81.8916 824.551,81.8604 838.821,81.8478 853.09,81.839 
  867.36,81.8322 881.63,81.827 895.9,81.823 910.17,81.8194 924.439,81.8168 938.709,81.8141 952.979,81.8124 967.249,81.8107 981.519,81.8088 995.788,81.8069 
  1010.06,81.8062 1024.33,81.8053 1038.6,81.8043 1052.87,81.8031 1067.14,81.8017 1081.41,81.8002 1095.68,81.7984 1109.95,81.7964 1124.22,81.7943 1138.49,81.7921 
  1152.76,81.79 
  "/>
</svg>
