<?xml version="1.0" encoding="utf-8"?>
<svg xmlns="http://www.w3.org/2000/svg" xmlns:xlink="http://www.w3.org/1999/xlink" width="350" height="150" viewBox="0 0 1400 600">
<defs>
  <clipPath id="clip510">
    <rect x="0" y="0" width="1400" height="600"/>
  </clipPath>
</defs>
<path clip-path="url(#clip510)" d="
M0 600 L1400 600 L1400 0 L0 0  Z
  " fill="#ffffff" fill-rule="evenodd" fill-opacity="1"/>
<defs>
  <clipPath id="clip511">
    <rect x="280" y="0" width="981" height="600"/>
  </clipPath>
</defs>
<path clip-path="url(#clip510)" d="
M201.094 503.236 L1352.76 503.236 L1352.76 47.2441 L201.094 47.2441  Z
  " fill="#ffffff" fill-rule="evenodd" fill-opacity="1"/>
<defs>
  <clipPath id="clip512">
    <rect x="201" y="47" width="1153" height="457"/>
  </clipPath>
</defs>
<polyline clip-path="url(#clip510)" style="stroke:#000000; stroke-linecap:butt; stroke-linejoin:round; stroke-width:4; stroke-opacity:1; fill:none" points="
  201.094,503.236 1352.76,503.236 
  "/>
<polyline clip-path="url(#clip510)" style="stroke:#000000; stroke-linecap:butt; stroke-linejoin:round; stroke-width:4; stroke-opacity:1; fill:none" points="
  201.094,503.236 201.094,484.339 
  "/>
<polyline clip-path="url(#clip510)" style="stroke:#000000; stroke-linecap:butt; stroke-linejoin:round; stroke-width:4; stroke-opacity:1; fill:none" points="
  582.439,503.236 582.439,484.339 
  "/>
<polyline clip-path="url(#clip510)" style="stroke:#000000; stroke-linecap:butt; stroke-linejoin:round; stroke-width:4; stroke-opacity:1; fill:none" points="
  963.784,503.236 963.784,484.339 
  "/>
<polyline clip-path="url(#clip510)" style="stroke:#000000; stroke-linecap:butt; stroke-linejoin:round; stroke-width:4; stroke-opacity:1; fill:none" points="
  1345.13,503.236 1345.13,484.339 
  "/>
<path clip-path="url(#clip510)" d="M201.094 529.085 Q196.581 529.085 194.295 533.541 Q192.038 537.968 192.038 546.88 Q192.038 555.763 194.295 560.219 Q196.581 564.646 201.094 564.646 Q205.637 564.646 207.894 560.219 Q210.18 555.763 210.18 546.88 Q210.18 537.968 207.894 533.541 Q205.637 529.085 201.094 529.085 M201.094 524.455 Q208.357 524.455 212.177 530.213 Q216.025 535.942 216.025 546.88 Q216.025 557.788 212.177 563.546 Q208.357 569.276 201.094 569.276 Q193.832 569.276 189.983 563.546 Q186.164 557.788 186.164 546.88 Q186.164 535.942 189.983 530.213 Q193.832 524.455 201.094 524.455 Z" fill="#000000" fill-rule="evenodd" fill-opacity="1" /><path clip-path="url(#clip510)" d="M550.813 525.236 L573.759 525.236 L573.759 530.155 L556.166 530.155 L556.166 540.746 Q557.439 540.312 558.713 540.109 Q559.986 539.878 561.259 539.878 Q568.493 539.878 572.717 543.842 Q576.942 547.806 576.942 554.577 Q576.942 561.55 572.601 565.427 Q568.261 569.276 560.362 569.276 Q557.642 569.276 554.806 568.813 Q552 568.35 548.99 567.424 L548.99 561.55 Q551.595 562.968 554.372 563.662 Q557.15 564.357 560.246 564.357 Q565.252 564.357 568.174 561.724 Q571.097 559.09 571.097 554.577 Q571.097 550.063 568.174 547.43 Q565.252 544.797 560.246 544.797 Q557.902 544.797 555.559 545.317 Q553.244 545.838 550.813 546.938 L550.813 525.236 Z" fill="#000000" fill-rule="evenodd" fill-opacity="1" /><path clip-path="url(#clip510)" d="M600.958 529.085 Q596.444 529.085 594.158 533.541 Q591.901 537.968 591.901 546.88 Q591.901 555.763 594.158 560.219 Q596.444 564.646 600.958 564.646 Q605.501 564.646 607.757 560.219 Q610.043 555.763 610.043 546.88 Q610.043 537.968 607.757 533.541 Q605.501 529.085 600.958 529.085 M600.958 524.455 Q608.22 524.455 612.04 530.213 Q615.888 535.942 615.888 546.88 Q615.888 557.788 612.04 563.546 Q608.22 569.276 600.958 569.276 Q593.695 569.276 589.847 563.546 Q586.027 557.788 586.027 546.88 Q586.027 535.942 589.847 530.213 Q593.695 524.455 600.958 524.455 Z" fill="#000000" fill-rule="evenodd" fill-opacity="1" /><path clip-path="url(#clip510)" d="M913.293 563.517 L922.841 563.517 L922.841 530.56 L912.453 532.644 L912.453 527.32 L922.783 525.236 L928.628 525.236 L928.628 563.517 L938.177 563.517 L938.177 568.436 L913.293 568.436 L913.293 563.517 Z" fill="#000000" fill-rule="evenodd" fill-opacity="1" /><path clip-path="url(#clip510)" d="M962.482 529.085 Q957.968 529.085 955.682 533.541 Q953.425 537.968 953.425 546.88 Q953.425 555.763 955.682 560.219 Q957.968 564.646 962.482 564.646 Q967.025 564.646 969.282 560.219 Q971.568 555.763 971.568 546.88 Q971.568 537.968 969.282 533.541 Q967.025 529.085 962.482 529.085 M962.482 524.455 Q969.745 524.455 973.564 530.213 Q977.413 535.942 977.413 546.88 Q977.413 557.788 973.564 563.546 Q969.745 569.276 962.482 569.276 Q955.219 569.276 951.371 563.546 Q947.552 557.788 947.552 546.88 Q947.552 535.942 951.371 530.213 Q955.219 524.455 962.482 524.455 Z" fill="#000000" fill-rule="evenodd" fill-opacity="1" /><path clip-path="url(#clip510)" d="M1000.18 529.085 Q995.671 529.085 993.385 533.541 Q991.128 537.968 991.128 546.88 Q991.128 555.763 993.385 560.219 Q995.671 564.646 1000.18 564.646 Q1004.73 564.646 1006.98 560.219 Q1009.27 555.763 1009.27 546.88 Q1009.27 537.968 1006.98 533.541 Q1004.73 529.085 1000.18 529.085 M1000.18 524.455 Q1007.45 524.455 1011.27 530.213 Q1015.11 535.942 1015.11 546.88 Q1015.11 557.788 1011.27 563.546 Q1007.45 569.276 1000.18 569.276 Q992.922 569.276 989.073 563.546 Q985.254 557.788 985.254 546.88 Q985.254 535.942 989.073 530.213 Q992.922 524.455 1000.18 524.455 Z" fill="#000000" fill-rule="evenodd" fill-opacity="1" /><path clip-path="url(#clip510)" d="M1294.64 563.517 L1304.19 563.517 L1304.19 530.56 L1293.8 532.644 L1293.8 527.32 L1304.13 525.236 L1309.97 525.236 L1309.97 563.517 L1319.52 563.517 L1319.52 568.436 L1294.64 568.436 L1294.64 563.517 Z" fill="#000000" fill-rule="evenodd" fill-opacity="1" /><path clip-path="url(#clip510)" d="M1331.38 525.236 L1354.33 525.236 L1354.33 530.155 L1336.74 530.155 L1336.74 540.746 Q1338.01 540.312 1339.28 540.109 Q1340.56 539.878 1341.83 539.878 Q1349.06 539.878 1353.29 543.842 Q1357.51 547.806 1357.51 554.577 Q1357.51 561.55 1353.17 565.427 Q1348.83 569.276 1340.93 569.276 Q1338.21 569.276 1335.38 568.813 Q1332.57 568.35 1329.56 567.424 L1329.56 561.55 Q1332.17 562.968 1334.94 563.662 Q1337.72 564.357 1340.82 564.357 Q1345.82 564.357 1348.75 561.724 Q1351.67 559.09 1351.67 554.577 Q1351.67 550.063 1348.75 547.43 Q1345.82 544.797 1340.82 544.797 Q1338.47 544.797 1336.13 545.317 Q1333.82 545.838 1331.38 546.938 L1331.38 525.236 Z" fill="#000000" fill-rule="evenodd" fill-opacity="1" /><path clip-path="url(#clip510)" d="M1381.53 529.085 Q1377.02 529.085 1374.73 533.541 Q1372.47 537.968 1372.47 546.88 Q1372.47 555.763 1374.73 560.219 Q1377.02 564.646 1381.53 564.646 Q1386.07 564.646 1388.33 560.219 Q1390.61 555.763 1390.61 546.88 Q1390.61 537.968 1388.33 533.541 Q1386.07 529.085 1381.53 529.085 M1381.53 524.455 Q1388.79 524.455 1392.61 530.213 Q1396.46 535.942 1396.46 546.88 Q1396.46 557.788 1392.61 563.546 Q1388.79 569.276 1381.53 569.276 Q1374.27 569.276 1370.42 563.546 Q1366.6 557.788 1366.6 546.88 Q1366.6 535.942 1370.42 530.213 Q1374.27 524.455 1381.53 524.455 Z" fill="#000000" fill-rule="evenodd" fill-opacity="1" /><polyline clip-path="url(#clip510)" style="stroke:#000000; stroke-linecap:butt; stroke-linejoin:round; stroke-width:4; stroke-opacity:1; fill:none" points="
  201.094,503.236 201.094,47.2441 
  "/>
<polyline clip-path="url(#clip510)" style="stroke:#000000; stroke-linecap:butt; stroke-linejoin:round; stroke-width:4; stroke-opacity:1; fill:none" points="
  201.094,489.913 219.992,489.913 
  "/>
<polyline clip-path="url(#clip510)" style="stroke:#000000; stroke-linecap:butt; stroke-linejoin:round; stroke-width:4; stroke-opacity:1; fill:none" points="
  201.094,382.469 219.992,382.469 
  "/>
<polyline clip-path="url(#clip510)" style="stroke:#000000; stroke-linecap:butt; stroke-linejoin:round; stroke-width:4; stroke-opacity:1; fill:none" points="
  201.094,275.025 219.992,275.025 
  "/>
<polyline clip-path="url(#clip510)" style="stroke:#000000; stroke-linecap:butt; stroke-linejoin:round; stroke-width:4; stroke-opacity:1; fill:none" points="
  201.094,167.581 219.992,167.581 
  "/>
<polyline clip-path="url(#clip510)" style="stroke:#000000; stroke-linecap:butt; stroke-linejoin:round; stroke-width:4; stroke-opacity:1; fill:none" points="
  201.094,60.1374 219.992,60.1374 
  "/>
<path clip-path="url(#clip510)" d="M70.9226 472.162 Q66.4087 472.162 64.1229 476.618 Q61.8659 481.045 61.8659 489.957 Q61.8659 498.84 64.1229 503.296 Q66.4087 507.723 70.9226 507.723 Q75.4654 507.723 77.7223 503.296 Q80.0082 498.84 80.0082 489.957 Q80.0082 481.045 77.7223 476.618 Q75.4654 472.162 70.9226 472.162 M70.9226 467.532 Q78.1853 467.532 82.0047 473.29 Q85.8531 479.019 85.8531 489.957 Q85.8531 500.865 82.0047 506.623 Q78.1853 512.353 70.9226 512.353 Q63.6599 512.353 59.8115 506.623 Q55.9921 500.865 55.9921 489.957 Q55.9921 479.019 59.8115 473.29 Q63.6599 467.532 70.9226 467.532 Z" fill="#000000" fill-rule="evenodd" fill-opacity="1" /><path clip-path="url(#clip510)" d="M96.125 504.164 L102.23 504.164 L102.23 511.513 L96.125 511.513 L96.125 504.164 Z" fill="#000000" fill-rule="evenodd" fill-opacity="1" /><path clip-path="url(#clip510)" d="M127.462 472.162 Q122.948 472.162 120.662 476.618 Q118.405 481.045 118.405 489.957 Q118.405 498.84 120.662 503.296 Q122.948 507.723 127.462 507.723 Q132.004 507.723 134.261 503.296 Q136.547 498.84 136.547 489.957 Q136.547 481.045 134.261 476.618 Q132.004 472.162 127.462 472.162 M127.462 467.532 Q134.724 467.532 138.544 473.29 Q142.392 479.019 142.392 489.957 Q142.392 500.865 138.544 506.623 Q134.724 512.353 127.462 512.353 Q120.199 512.353 116.351 506.623 Q112.531 500.865 112.531 489.957 Q112.531 479.019 116.351 473.29 Q120.199 467.532 127.462 467.532 Z" fill="#000000" fill-rule="evenodd" fill-opacity="1" /><path clip-path="url(#clip510)" d="M165.164 472.162 Q160.65 472.162 158.364 476.618 Q156.107 481.045 156.107 489.957 Q156.107 498.84 158.364 503.296 Q160.65 507.723 165.164 507.723 Q169.707 507.723 171.964 503.296 Q174.25 498.84 174.25 489.957 Q174.25 481.045 171.964 476.618 Q169.707 472.162 165.164 472.162 M165.164 467.532 Q172.427 467.532 176.246 473.29 Q180.094 479.019 180.094 489.957 Q180.094 500.865 176.246 506.623 Q172.427 512.353 165.164 512.353 Q157.901 512.353 154.053 506.623 Q150.234 500.865 150.234 489.957 Q150.234 479.019 154.053 473.29 Q157.901 467.532 165.164 467.532 Z" fill="#000000" fill-rule="evenodd" fill-opacity="1" /><path clip-path="url(#clip510)" d="M72.1668 364.718 Q67.6529 364.718 65.3671 369.174 Q63.1101 373.601 63.1101 382.513 Q63.1101 391.396 65.3671 395.852 Q67.6529 400.279 72.1668 400.279 Q76.7096 400.279 78.9665 395.852 Q81.2524 391.396 81.2524 382.513 Q81.2524 373.601 78.9665 369.174 Q76.7096 364.718 72.1668 364.718 M72.1668 360.088 Q79.4295 360.088 83.2489 365.846 Q87.0973 371.575 87.0973 382.513 Q87.0973 393.421 83.2489 399.179 Q79.4295 404.909 72.1668 404.909 Q64.9041 404.909 61.0558 399.179 Q57.2363 393.421 57.2363 382.513 Q57.2363 371.575 61.0558 365.846 Q64.9041 360.088 72.1668 360.088 Z" fill="#000000" fill-rule="evenodd" fill-opacity="1" /><path clip-path="url(#clip510)" d="M97.3692 396.72 L103.475 396.72 L103.475 404.069 L97.3692 404.069 L97.3692 396.72 Z" fill="#000000" fill-rule="evenodd" fill-opacity="1" /><path clip-path="url(#clip510)" d="M121.241 399.15 L141.64 399.15 L141.64 404.069 L114.209 404.069 L114.209 399.15 Q117.537 395.707 123.266 389.92 Q129.024 384.104 130.5 382.426 Q133.307 379.272 134.406 377.102 Q135.535 374.903 135.535 372.791 Q135.535 369.347 133.104 367.177 Q130.702 365.007 126.825 365.007 Q124.076 365.007 121.009 365.962 Q117.971 366.917 114.499 368.855 L114.499 362.953 Q118.029 361.535 121.096 360.812 Q124.163 360.088 126.709 360.088 Q133.422 360.088 137.415 363.445 Q141.408 366.801 141.408 372.414 Q141.408 375.076 140.396 377.478 Q139.412 379.851 136.779 383.091 Q136.055 383.931 132.178 387.953 Q128.301 391.946 121.241 399.15 Z" fill="#000000" fill-rule="evenodd" fill-opacity="1" /><path clip-path="url(#clip510)" d="M153.966 360.869 L176.912 360.869 L176.912 365.788 L159.319 365.788 L159.319 376.379 Q160.592 375.945 161.865 375.742 Q163.139 375.511 164.412 375.511 Q171.645 375.511 175.87 379.475 Q180.094 383.439 180.094 390.21 Q180.094 397.183 175.754 401.06 Q171.414 404.909 163.515 404.909 Q160.795 404.909 157.959 404.446 Q155.152 403.983 152.143 403.057 L152.143 397.183 Q154.747 398.601 157.525 399.295 Q160.303 399.99 163.399 399.99 Q168.405 399.99 171.327 397.356 Q174.25 394.723 174.25 390.21 Q174.25 385.696 171.327 383.063 Q168.405 380.429 163.399 380.429 Q161.055 380.429 158.711 380.95 Q156.397 381.471 153.966 382.571 L153.966 360.869 Z" fill="#000000" fill-rule="evenodd" fill-opacity="1" /><path clip-path="url(#clip510)" d="M70.9226 257.274 Q66.4087 257.274 64.1229 261.73 Q61.8659 266.157 61.8659 275.069 Q61.8659 283.952 64.1229 288.408 Q66.4087 292.835 70.9226 292.835 Q75.4654 292.835 77.7223 288.408 Q80.0082 283.952 80.0082 275.069 Q80.0082 266.157 77.7223 261.73 Q75.4654 257.274 70.9226 257.274 M70.9226 252.644 Q78.1853 252.644 82.0047 258.402 Q85.8531 264.131 85.8531 275.069 Q85.8531 285.977 82.0047 291.735 Q78.1853 297.464 70.9226 297.464 Q63.6599 297.464 59.8115 291.735 Q55.9921 285.977 55.9921 275.069 Q55.9921 264.131 59.8115 258.402 Q63.6599 252.644 70.9226 252.644 Z" fill="#000000" fill-rule="evenodd" fill-opacity="1" /><path clip-path="url(#clip510)" d="M96.125 289.276 L102.23 289.276 L102.23 296.625 L96.125 296.625 L96.125 289.276 Z" fill="#000000" fill-rule="evenodd" fill-opacity="1" /><path clip-path="url(#clip510)" d="M115.02 253.425 L137.965 253.425 L137.965 258.344 L120.373 258.344 L120.373 268.935 Q121.646 268.501 122.919 268.298 Q124.192 268.067 125.465 268.067 Q132.699 268.067 136.923 272.031 Q141.148 275.995 141.148 282.766 Q141.148 289.739 136.808 293.616 Q132.467 297.464 124.568 297.464 Q121.848 297.464 119.013 297.002 Q116.206 296.539 113.197 295.613 L113.197 289.739 Q115.801 291.157 118.579 291.851 Q121.356 292.546 124.452 292.546 Q129.458 292.546 132.381 289.912 Q135.303 287.279 135.303 282.766 Q135.303 278.252 132.381 275.619 Q129.458 272.985 124.452 272.985 Q122.109 272.985 119.765 273.506 Q117.45 274.027 115.02 275.127 L115.02 253.425 Z" fill="#000000" fill-rule="evenodd" fill-opacity="1" /><path clip-path="url(#clip510)" d="M165.164 257.274 Q160.65 257.274 158.364 261.73 Q156.107 266.157 156.107 275.069 Q156.107 283.952 158.364 288.408 Q160.65 292.835 165.164 292.835 Q169.707 292.835 171.964 288.408 Q174.25 283.952 174.25 275.069 Q174.25 266.157 171.964 261.73 Q169.707 257.274 165.164 257.274 M165.164 252.644 Q172.427 252.644 176.246 258.402 Q180.094 264.131 180.094 275.069 Q180.094 285.977 176.246 291.735 Q172.427 297.464 165.164 297.464 Q157.901 297.464 154.053 291.735 Q150.234 285.977 150.234 275.069 Q150.234 264.131 154.053 258.402 Q157.901 252.644 165.164 252.644 Z" fill="#000000" fill-rule="evenodd" fill-opacity="1" /><path clip-path="url(#clip510)" d="M72.1668 149.83 Q67.6529 149.83 65.3671 154.286 Q63.1101 158.713 63.1101 167.625 Q63.1101 176.508 65.3671 180.964 Q67.6529 185.391 72.1668 185.391 Q76.7096 185.391 78.9665 180.964 Q81.2524 176.508 81.2524 167.625 Q81.2524 158.713 78.9665 154.286 Q76.7096 149.83 72.1668 149.83 M72.1668 145.2 Q79.4295 145.2 83.2489 150.958 Q87.0973 156.687 87.0973 167.625 Q87.0973 178.533 83.2489 184.291 Q79.4295 190.02 72.1668 190.02 Q64.9041 190.02 61.0558 184.291 Q57.2363 178.533 57.2363 167.625 Q57.2363 156.687 61.0558 150.958 Q64.9041 145.2 72.1668 145.2 Z" fill="#000000" fill-rule="evenodd" fill-opacity="1" /><path clip-path="url(#clip510)" d="M97.3692 181.832 L103.475 181.832 L103.475 189.181 L97.3692 189.181 L97.3692 181.832 Z" fill="#000000" fill-rule="evenodd" fill-opacity="1" /><path clip-path="url(#clip510)" d="M114.73 145.981 L142.508 145.981 L142.508 148.47 L126.825 189.181 L120.72 189.181 L135.477 150.9 L114.73 150.9 L114.73 145.981 Z" fill="#000000" fill-rule="evenodd" fill-opacity="1" /><path clip-path="url(#clip510)" d="M153.966 145.981 L176.912 145.981 L176.912 150.9 L159.319 150.9 L159.319 161.491 Q160.592 161.057 161.865 160.854 Q163.139 160.623 164.412 160.623 Q171.645 160.623 175.87 164.587 Q180.094 168.551 180.094 175.321 Q180.094 182.295 175.754 186.172 Q171.414 190.02 163.515 190.02 Q160.795 190.02 157.959 189.558 Q155.152 189.095 152.143 188.169 L152.143 182.295 Q154.747 183.713 157.525 184.407 Q160.303 185.102 163.399 185.102 Q168.405 185.102 171.327 182.468 Q174.25 179.835 174.25 175.321 Q174.25 170.808 171.327 168.175 Q168.405 165.541 163.399 165.541 Q161.055 165.541 158.711 166.062 Q156.397 166.583 153.966 167.683 L153.966 145.981 Z" fill="#000000" fill-rule="evenodd" fill-opacity="1" /><path clip-path="url(#clip510)" d="M59.4354 76.8184 L68.984 76.8184 L68.984 43.8614 L58.5963 45.9447 L58.5963 40.6207 L68.9261 38.5374 L74.771 38.5374 L74.771 76.8184 L84.3195 76.8184 L84.3195 81.7374 L59.4354 81.7374 L59.4354 76.8184 Z" fill="#000000" fill-rule="evenodd" fill-opacity="1" /><path clip-path="url(#clip510)" d="M96.125 74.3879 L102.23 74.3879 L102.23 81.7374 L96.125 81.7374 L96.125 74.3879 Z" fill="#000000" fill-rule="evenodd" fill-opacity="1" /><path clip-path="url(#clip510)" d="M127.462 42.3857 Q122.948 42.3857 120.662 46.8417 Q118.405 51.2688 118.405 60.1808 Q118.405 69.0638 120.662 73.5198 Q122.948 77.9469 127.462 77.9469 Q132.004 77.9469 134.261 73.5198 Q136.547 69.0638 136.547 60.1808 Q136.547 51.2688 134.261 46.8417 Q132.004 42.3857 127.462 42.3857 M127.462 37.7561 Q134.724 37.7561 138.544 43.5142 Q142.392 49.2433 142.392 60.1808 Q142.392 71.0893 138.544 76.8474 Q134.724 82.5765 127.462 82.5765 Q120.199 82.5765 116.351 76.8474 Q112.531 71.0893 112.531 60.1808 Q112.531 49.2433 116.351 43.5142 Q120.199 37.7561 127.462 37.7561 Z" fill="#000000" fill-rule="evenodd" fill-opacity="1" /><path clip-path="url(#clip510)" d="M165.164 42.3857 Q160.65 42.3857 158.364 46.8417 Q156.107 51.2688 156.107 60.1808 Q156.107 69.0638 158.364 73.5198 Q160.65 77.9469 165.164 77.9469 Q169.707 77.9469 171.964 73.5198 Q174.25 69.0638 174.25 60.1808 Q174.25 51.2688 171.964 46.8417 Q169.707 42.3857 165.164 42.3857 M165.164 37.7561 Q172.427 37.7561 176.246 43.5142 Q180.094 49.2433 180.094 60.1808 Q180.094 71.0893 176.246 76.8474 Q172.427 82.5765 165.164 82.5765 Q157.901 82.5765 154.053 76.8474 Q150.234 71.0893 150.234 60.1808 Q150.234 49.2433 154.053 43.5142 Q157.901 37.7561 165.164 37.7561 Z" fill="#000000" fill-rule="evenodd" fill-opacity="1" /><polyline clip-path="url(#clip512)" style="stroke:#ff00ff; stroke-linecap:butt; stroke-linejoin:round; stroke-width:16; stroke-opacity:1; fill:none" points="
  208.721,275.133 216.348,275.212 223.975,275.347 231.602,275.577 239.229,275.968 246.856,276.63 254.483,277.748 262.11,279.621 269.737,282.733 277.363,287.817 
  284.99,295.904 292.617,308.243 300.244,325.913 307.871,349.054 315.498,376.054 323.125,403.616 330.752,428.166 338.379,447.51 346.006,461.321 353.632,470.479 
  361.259,476.219 368.886,479.62 376.513,481.445 384.14,482.152 391.767,481.969 399.394,480.992 407.021,479.312 414.648,477.135 422.274,474.793 429.901,472.623 
  437.528,470.834 445.155,469.482 452.782,468.519 460.409,467.859 468.036,467.419 475.663,467.13 483.29,466.943 490.917,466.822 498.543,466.743 506.17,466.693 
  513.797,466.661 521.424,466.64 529.051,466.626 536.678,466.617 544.305,466.611 551.932,466.607 559.559,466.604 567.186,466.602 574.812,466.601 582.439,466.6 
  590.066,466.598 597.693,466.598 605.32,466.597 612.947,466.596 620.574,466.595 628.201,466.594 635.828,466.594 643.454,466.593 651.081,466.592 658.708,466.591 
  666.335,466.591 673.962,466.59 681.589,466.589 689.216,466.588 696.843,466.588 704.47,466.587 712.097,466.586 719.723,466.586 727.35,466.585 734.977,466.584 
  742.604,466.583 750.231,466.583 757.858,466.582 765.485,466.581 773.112,466.58 780.739,466.58 788.366,466.579 795.992,466.578 803.619,466.578 811.246,466.577 
  818.873,466.576 826.5,466.575 834.127,466.575 841.754,466.574 849.381,466.573 857.008,466.572 864.635,466.572 872.261,466.571 879.888,466.57 887.515,466.57 
  895.142,466.569 902.769,466.568 910.396,466.567 918.023,466.567 925.65,466.566 933.277,466.565 940.903,466.565 948.53,466.564 956.157,466.563 963.784,466.562 
  971.411,466.562 979.038,466.561 986.665,466.56 994.292,466.559 1001.92,466.559 1009.55,466.558 1017.17,466.557 1024.8,466.557 1032.43,466.556 1040.05,466.555 
  1047.68,466.554 1055.31,466.554 1062.93,466.553 1070.56,466.552 1078.19,466.551 1085.81,466.551 1093.44,466.55 1101.07,466.549 1108.7,466.549 1116.32,466.548 
  1123.95,466.547 1131.58,466.546 1139.2,466.546 1146.83,466.545 1154.46,466.544 1162.08,466.544 1169.71,466.543 1177.34,466.542 1184.96,466.541 1192.59,466.541 
  1200.22,466.54 1207.84,466.539 1215.47,466.538 1223.1,466.538 1230.73,466.537 1238.35,466.536 1245.98,466.536 1253.61,466.535 1261.23,466.534 1268.86,466.533 
  1276.49,466.533 1284.11,466.532 1291.74,466.531 1299.37,466.53 1306.99,466.53 1314.62,466.529 1322.25,466.528 1329.88,466.528 1337.5,466.527 1345.13,466.526 
  1352.76,466.525 
  "/>
<polyline clip-path="url(#clip512)" style="stroke:#2000d4; stroke-linecap:butt; stroke-linejoin:round; stroke-width:16; stroke-opacity:1; fill:none" stroke-dasharray="8, 16" points="
  208.721,489.913 216.348,489.913 223.975,489.913 231.602,489.913 239.229,489.913 246.856,489.913 254.483,489.913 262.11,489.913 269.737,489.913 277.363,489.913 
  284.99,489.913 292.617,489.912 300.244,489.911 307.871,489.911 315.498,489.91 323.125,489.909 330.752,489.908 338.379,489.907 346.006,489.906 353.632,489.906 
  361.259,489.905 368.886,489.905 376.513,489.904 384.14,489.904 391.767,489.903 399.394,489.903 407.021,489.902 414.648,489.902 422.274,489.901 429.901,489.901 
  437.528,489.901 445.155,489.9 452.782,489.9 460.409,489.899 468.036,489.899 475.663,489.898 483.29,489.898 490.917,489.898 498.543,489.897 506.17,489.897 
  513.797,489.896 521.424,489.896 529.051,489.895 536.678,489.895 544.305,489.895 551.932,489.894 559.559,489.894 567.186,489.893 574.812,489.893 582.439,489.892 
  590.066,489.892 597.693,489.892 605.32,489.891 612.947,489.891 620.574,489.89 628.201,489.89 635.828,489.89 643.454,489.889 651.081,489.889 658.708,489.888 
  666.335,489.888 673.962,489.887 681.589,489.887 689.216,489.887 696.843,489.886 704.47,489.886 712.097,489.885 719.723,489.885 727.35,489.884 734.977,489.884 
  742.604,489.884 750.231,489.883 757.858,489.883 765.485,489.882 773.112,489.882 780.739,489.881 788.366,489.881 795.992,489.881 803.619,489.88 811.246,489.88 
  818.873,489.879 826.5,489.879 834.127,489.878 841.754,489.878 849.381,489.878 857.008,489.877 864.635,489.877 872.261,489.876 879.888,489.876 887.515,489.875 
  895.142,489.875 902.769,489.875 910.396,489.874 918.023,489.874 925.65,489.873 933.277,489.873 940.903,489.872 948.53,489.872 956.157,489.872 963.784,489.871 
  971.411,489.871 979.038,489.87 986.665,489.87 994.292,489.869 1001.92,489.869 1009.55,489.869 1017.17,489.868 1024.8,489.868 1032.43,489.867 1040.05,489.867 
  1047.68,489.866 1055.31,489.866 1062.93,489.866 1070.56,489.865 1078.19,489.865 1085.81,489.864 1093.44,489.864 1101.07,489.863 1108.7,489.863 1116.32,489.863 
  1123.95,489.862 1131.58,489.862 1139.2,489.861 1146.83,489.861 1154.46,489.861 1162.08,489.86 1169.71,489.86 1177.34,489.859 1184.96,489.859 1192.59,489.858 
  1200.22,489.858 1207.84,489.858 1215.47,489.857 1223.1,489.857 1230.73,489.856 1238.35,489.856 1245.98,489.855 1253.61,489.855 1261.23,489.855 1268.86,489.854 
  1276.49,489.854 1284.11,489.853 1291.74,489.853 1299.37,489.852 1306.99,489.852 1314.62,489.852 1322.25,489.851 1329.88,489.851 1337.5,489.85 1345.13,489.85 
  1352.76,489.849 
  "/>
<polyline clip-path="url(#clip512)" style="stroke:#008900; stroke-linecap:butt; stroke-linejoin:round; stroke-width:16; stroke-opacity:1; fill:none" stroke-dasharray="64, 40" points="
  208.721,489.913 216.348,489.913 223.975,489.913 231.602,489.913 239.229,489.912 246.856,489.912 254.483,489.91 262.11,489.908 269.737,489.905 277.363,489.899 
  284.99,489.889 292.617,489.875 300.244,489.854 307.871,489.826 315.498,489.792 323.125,489.755 330.752,489.717 338.379,489.677 346.006,489.632 353.632,489.573 
  361.259,489.49 368.886,489.371 376.513,489.205 384.14,488.993 391.767,488.746 399.394,488.494 407.021,488.269 414.648,488.095 422.274,487.976 429.901,487.901 
  437.528,487.856 445.155,487.829 452.782,487.812 460.409,487.801 468.036,487.793 475.663,487.787 483.29,487.783 490.917,487.78 498.543,487.778 506.17,487.776 
  513.797,487.775 521.424,487.774 529.051,487.773 536.678,487.773 544.305,487.772 551.932,487.772 559.559,487.771 567.186,487.771 574.812,487.77 582.439,487.77 
  590.066,487.769 597.693,487.769 605.32,487.768 612.947,487.768 620.574,487.767 628.201,487.767 635.828,487.767 643.454,487.766 651.081,487.766 658.708,487.765 
  666.335,487.765 673.962,487.764 681.589,487.764 689.216,487.764 696.843,487.763 704.47,487.763 712.097,487.762 719.723,487.762 727.35,487.761 734.977,487.761 
  742.604,487.761 750.231,487.76 757.858,487.76 765.485,487.759 773.112,487.759 780.739,487.758 788.366,487.758 795.992,487.758 803.619,487.757 811.246,487.757 
  818.873,487.756 826.5,487.756 834.127,487.755 841.754,487.755 849.381,487.755 857.008,487.754 864.635,487.754 872.261,487.753 879.888,487.753 887.515,487.752 
  895.142,487.752 902.769,487.752 910.396,487.751 918.023,487.751 925.65,487.75 933.277,487.75 940.903,487.749 948.53,487.749 956.157,487.749 963.784,487.748 
  971.411,487.748 979.038,487.747 986.665,487.747 994.292,487.746 1001.92,487.746 1009.55,487.746 1017.17,487.745 1024.8,487.745 1032.43,487.744 1040.05,487.744 
  1047.68,487.743 1055.31,487.743 1062.93,487.743 1070.56,487.742 1078.19,487.742 1085.81,487.741 1093.44,487.741 1101.07,487.74 1108.7,487.74 1116.32,487.74 
  1123.95,487.739 1131.58,487.739 1139.2,487.738 1146.83,487.738 1154.46,487.737 1162.08,487.737 1169.71,487.737 1177.34,487.736 1184.96,487.736 1192.59,487.735 
  1200.22,487.735 1207.84,487.734 1215.47,487.734 1223.1,487.734 1230.73,487.733 1238.35,487.733 1245.98,487.732 1253.61,487.732 1261.23,487.731 1268.86,487.731 
  1276.49,487.731 1284.11,487.73 1291.74,487.73 1299.37,487.729 1306.99,487.729 1314.62,487.728 1322.25,487.728 1329.88,487.728 1337.5,487.727 1345.13,487.727 
  1352.76,487.726 
  "/>
<polyline clip-path="url(#clip512)" style="stroke:#008900; stroke-linecap:butt; stroke-linejoin:round; stroke-width:16; stroke-opacity:1; fill:none" stroke-dasharray="8, 16" points="
  208.721,489.913 216.348,489.913 223.975,489.913 231.602,489.913 239.229,489.913 246.856,489.912 254.483,489.911 262.11,489.909 269.737,489.906 277.363,489.901 
  284.99,489.893 292.617,489.881 300.244,489.864 307.871,489.842 315.498,489.816 323.125,489.788 330.752,489.764 338.379,489.743 346.006,489.725 353.632,489.71 
  361.259,489.694 368.886,489.676 376.513,489.654 384.14,489.628 391.767,489.598 399.394,489.57 407.021,489.544 414.648,489.525 422.274,489.51 429.901,489.5 
  437.528,489.494 445.155,489.489 452.782,489.486 460.409,489.484 468.036,489.482 475.663,489.481 483.29,489.479 490.917,489.479 498.543,489.478 506.17,489.477 
  513.797,489.477 521.424,489.476 529.051,489.476 536.678,489.475 544.305,489.475 551.932,489.474 559.559,489.474 567.186,489.473 574.812,489.473 582.439,489.473 
  590.066,489.472 597.693,489.472 605.32,489.471 612.947,489.471 620.574,489.47 628.201,489.47 635.828,489.47 643.454,489.469 651.081,489.469 658.708,489.468 
  666.335,489.468 673.962,489.467 681.589,489.467 689.216,489.467 696.843,489.466 704.47,489.466 712.097,489.465 719.723,489.465 727.35,489.464 734.977,489.464 
  742.604,489.464 750.231,489.463 757.858,489.463 765.485,489.462 773.112,489.462 780.739,489.461 788.366,489.461 795.992,489.461 803.619,489.46 811.246,489.46 
  818.873,489.459 826.5,489.459 834.127,489.458 841.754,489.458 849.381,489.458 857.008,489.457 864.635,489.457 872.261,489.456 879.888,489.456 887.515,489.455 
  895.142,489.455 902.769,489.455 910.396,489.454 918.023,489.454 925.65,489.453 933.277,489.453 940.903,489.452 948.53,489.452 956.157,489.452 963.784,489.451 
  971.411,489.451 979.038,489.45 986.665,489.45 994.292,489.449 1001.92,489.449 1009.55,489.449 1017.17,489.448 1024.8,489.448 1032.43,489.447 1040.05,489.447 
  1047.68,489.446 1055.31,489.446 1062.93,489.445 1070.56,489.445 1078.19,489.445 1085.81,489.444 1093.44,489.444 1101.07,489.443 1108.7,489.443 1116.32,489.442 
  1123.95,489.442 1131.58,489.442 1139.2,489.441 1146.83,489.441 1154.46,489.44 1162.08,489.44 1169.71,489.439 1177.34,489.439 1184.96,489.439 1192.59,489.438 
  1200.22,489.438 1207.84,489.437 1215.47,489.437 1223.1,489.436 1230.73,489.436 1238.35,489.436 1245.98,489.435 1253.61,489.435 1261.23,489.434 1268.86,489.434 
  1276.49,489.433 1284.11,489.433 1291.74,489.433 1299.37,489.432 1306.99,489.432 1314.62,489.431 1322.25,489.431 1329.88,489.43 1337.5,489.43 1345.13,489.43 
  1352.76,489.429 
  "/>
<polyline clip-path="url(#clip512)" style="stroke:#2000d4; stroke-linecap:butt; stroke-linejoin:round; stroke-width:16; stroke-opacity:1; fill:none" points="
  208.721,489.484 216.348,489.164 223.975,488.62 231.602,487.698 239.229,486.138 246.856,483.51 254.483,479.113 262.11,471.839 269.737,460.03 277.363,441.433 
  284.99,413.499 292.617,374.392 300.244,324.709 307.871,268.833 315.498,213.985 323.125,166.886 330.752,130.865 338.379,105.684 346.006,89.1667 353.632,78.7814 
  361.259,72.4264 368.886,68.6056 376.513,66.3381 384.14,65.0109 391.767,64.2511 399.394,63.8331 407.021,63.6179 414.648,63.517 422.274,63.4746 429.901,63.4589 
  437.528,63.4539 445.155,63.4528 452.782,63.453 460.409,63.4537 468.036,63.4545 475.663,63.4553 483.29,63.4561 490.917,63.457 498.543,63.4578 506.17,63.4587 
  513.797,63.4595 521.424,63.4604 529.051,63.4613 536.678,63.4621 544.305,63.463 551.932,63.4638 559.559,63.4647 567.186,63.4655 574.812,63.4664 582.439,63.4672 
  590.066,63.4681 597.693,63.4689 605.32,63.4698 612.947,63.4706 620.574,63.4715 628.201,63.4723 635.828,63.4732 643.454,63.474 651.081,63.4749 658.708,63.4757 
  666.335,63.4766 673.962,63.4775 681.589,63.4783 689.216,63.4792 696.843,63.48 704.47,63.4809 712.097,63.4817 719.723,63.4826 727.35,63.4834 734.977,63.4843 
  742.604,63.4851 750.231,63.486 757.858,63.4868 765.485,63.4877 773.112,63.4885 780.739,63.4894 788.366,63.4902 795.992,63.4911 803.619,63.492 811.246,63.4928 
  818.873,63.4937 826.5,63.4945 834.127,63.4954 841.754,63.4962 849.381,63.4971 857.008,63.4979 864.635,63.4988 872.261,63.4996 879.888,63.5005 887.515,63.5013 
  895.142,63.5022 902.769,63.503 910.396,63.5039 918.023,63.5047 925.65,63.5056 933.277,63.5065 940.903,63.5073 948.53,63.5082 956.157,63.509 963.784,63.5099 
  971.411,63.5107 979.038,63.5116 986.665,63.5124 994.292,63.5133 1001.92,63.5141 1009.55,63.515 1017.17,63.5158 1024.8,63.5167 1032.43,63.5175 1040.05,63.5184 
  1047.68,63.5192 1055.31,63.5201 1062.93,63.5209 1070.56,63.5218 1078.19,63.5227 1085.81,63.5235 1093.44,63.5244 1101.07,63.5252 1108.7,63.5261 1116.32,63.5269 
  1123.95,63.5278 1131.58,63.5286 1139.2,63.5295 1146.83,63.5303 1154.46,63.5312 1162.08,63.532 1169.71,63.5329 1177.34,63.5337 1184.96,63.5346 1192.59,63.5354 
  1200.22,63.5363 1207.84,63.5372 1215.47,63.538 1223.1,63.5389 1230.73,63.5397 1238.35,63.5406 1245.98,63.5414 1253.61,63.5423 1261.23,63.5431 1268.86,63.544 
  1276.49,63.5448 1284.11,63.5457 1291.74,63.5465 1299.37,63.5474 1306.99,63.5482 1314.62,63.5491 1322.25,63.5499 1329.88,63.5508 1337.5,63.5516 1345.13,63.5525 
  1352.76,63.5534 
  "/>
<polyline clip-path="url(#clip512)" style="stroke:#008900; stroke-linecap:butt; stroke-linejoin:round; stroke-width:16; stroke-opacity:1; fill:none" points="
  208.721,489.699 216.348,489.548 223.975,489.292 231.602,488.857 239.229,488.12 246.856,486.879 254.483,484.802 262.11,481.366 269.737,475.788 277.363,467 
  284.99,453.792 292.617,435.284 300.244,411.726 307.871,385.13 315.498,358.809 323.125,335.784 330.752,317.389 338.379,303.133 346.006,291.409 353.632,280.177 
  361.259,267.348 368.886,251.065 376.513,230.141 384.14,204.675 391.767,176.437 399.394,148.504 407.021,124.024 414.648,104.843 422.274,91.0759 429.901,81.7223 
  437.528,75.5148 445.155,71.4007 452.782,68.6489 460.409,66.7882 468.036,65.5189 475.663,64.6483 483.29,64.049 490.917,63.6359 498.543,63.3508 506.17,63.154 
  513.797,63.0183 521.424,62.9247 529.051,62.8603 536.678,62.816 544.305,62.7856 551.932,62.7649 559.559,62.7508 567.186,62.7413 574.812,62.7351 582.439,62.731 
  590.066,62.7284 597.693,62.7269 605.32,62.7261 612.947,62.7259 620.574,62.7259 628.201,62.7262 635.828,62.7267 643.454,62.7273 651.081,62.728 658.708,62.7287 
  666.335,62.7295 673.962,62.7303 681.589,62.7311 689.216,62.7319 696.843,62.7328 704.47,62.7336 712.097,62.7344 719.723,62.7353 727.35,62.7361 734.977,62.737 
  742.604,62.7378 750.231,62.7387 757.858,62.7396 765.485,62.7404 773.112,62.7413 780.739,62.7421 788.366,62.743 795.992,62.7438 803.619,62.7447 811.246,62.7455 
  818.873,62.7464 826.5,62.7472 834.127,62.7481 841.754,62.7489 849.381,62.7498 857.008,62.7507 864.635,62.7515 872.261,62.7524 879.888,62.7532 887.515,62.7541 
  895.142,62.7549 902.769,62.7558 910.396,62.7566 918.023,62.7575 925.65,62.7583 933.277,62.7592 940.903,62.7601 948.53,62.7609 956.157,62.7618 963.784,62.7626 
  971.411,62.7635 979.038,62.7643 986.665,62.7652 994.292,62.766 1001.92,62.7669 1009.55,62.7677 1017.17,62.7686 1024.8,62.7695 1032.43,62.7703 1040.05,62.7712 
  1047.68,62.772 1055.31,62.7729 1062.93,62.7737 1070.56,62.7746 1078.19,62.7754 1085.81,62.7763 1093.44,62.7771 1101.07,62.778 1108.7,62.7788 1116.32,62.7797 
  1123.95,62.7806 1131.58,62.7814 1139.2,62.7823 1146.83,62.7831 1154.46,62.784 1162.08,62.7848 1169.71,62.7857 1177.34,62.7865 1184.96,62.7874 1192.59,62.7882 
  1200.22,62.7891 1207.84,62.79 1215.47,62.7908 1223.1,62.7917 1230.73,62.7925 1238.35,62.7934 1245.98,62.7942 1253.61,62.7951 1261.23,62.7959 1268.86,62.7968 
  1276.49,62.7976 1284.11,62.7985 1291.74,62.7993 1299.37,62.8002 1306.99,62.8011 1314.62,62.8019 1322.25,62.8028 1329.88,62.8036 1337.5,62.8045 1345.13,62.8053 
  1352.76,62.8062 
  "/>
<polyline clip-path="url(#clip512)" style="stroke:#7f7f7f; stroke-linecap:butt; stroke-linejoin:round; stroke-width:16; stroke-opacity:1; fill:none" points="
  208.721,60.1374 216.348,65.7605 223.975,69.4676 231.602,71.7326 239.229,73.1201 246.856,73.9998 254.483,74.6181 262.11,75.15 269.737,75.7472 277.363,76.5788 
  284.99,77.8781 292.617,80.0005 300.244,83.5033 307.871,89.2449 315.498,98.4741 323.125,112.821 330.752,134.017 338.379,163.174 346.006,199.808 353.632,241.331 
  361.259,283.762 368.886,323.259 376.513,357.328 384.14,385.159 391.767,407.3 399.394,425.027 407.021,439.672 414.648,452.129 422.274,462.669 429.901,471.163 
  437.528,477.528 445.155,481.975 452.782,484.918 460.409,486.796 468.036,487.968 475.663,488.692 483.29,489.139 490.917,489.416 498.543,489.589 506.17,489.7 
  513.797,489.771 521.424,489.818 529.051,489.848 536.678,489.869 544.305,489.883 551.932,489.893 559.559,489.899 567.186,489.904 574.812,489.907 582.439,489.909 
  590.066,489.91 597.693,489.911 605.32,489.912 612.947,489.912 620.574,489.913 628.201,489.913 635.828,489.913 643.454,489.913 651.081,489.913 658.708,489.913 
  666.335,489.913 673.962,489.913 681.589,489.913 689.216,489.913 696.843,489.913 704.47,489.913 712.097,489.913 719.723,489.913 727.35,489.913 734.977,489.913 
  742.604,489.913 750.231,489.913 757.858,489.913 765.485,489.913 773.112,489.913 780.739,489.913 788.366,489.913 795.992,489.913 803.619,489.913 811.246,489.913 
  818.873,489.913 826.5,489.913 834.127,489.913 841.754,489.913 849.381,489.913 857.008,489.913 864.635,489.913 872.261,489.913 879.888,489.913 887.515,489.913 
  895.142,489.913 902.769,489.913 910.396,489.913 918.023,489.913 925.65,489.913 933.277,489.913 940.903,489.913 948.53,489.913 956.157,489.913 963.784,489.913 
  971.411,489.913 979.038,489.913 986.665,489.913 994.292,489.913 1001.92,489.913 1009.55,489.913 1017.17,489.913 1024.8,489.913 1032.43,489.913 1040.05,489.913 
  1047.68,489.913 1055.31,489.913 1062.93,489.913 1070.56,489.913 1078.19,489.913 1085.81,489.913 1093.44,489.913 1101.07,489.913 1108.7,489.913 1116.32,489.913 
  1123.95,489.913 1131.58,489.913 1139.2,489.913 1146.83,489.913 1154.46,489.913 1162.08,489.913 1169.71,489.913 1177.34,489.913 1184.96,489.913 1192.59,489.913 
  1200.22,489.913 1207.84,489.913 1215.47,489.913 1223.1,489.913 1230.73,489.913 1238.35,489.913 1245.98,489.913 1253.61,489.913 1261.23,489.913 1268.86,489.913 
  1276.49,489.913 1284.11,489.913 1291.74,489.913 1299.37,489.913 1306.99,489.913 1314.62,489.913 1322.25,489.913 1329.88,489.913 1337.5,489.913 1345.13,489.913 
  1352.76,489.913 
  "/>
<polyline clip-path="url(#clip512)" style="stroke:#895f55; stroke-linecap:butt; stroke-linejoin:round; stroke-width:16; stroke-opacity:1; fill:none" points="
  208.721,489.913 216.348,489.489 223.975,489.174 231.602,488.637 239.229,487.725 246.856,486.182 254.483,483.582 262.11,479.231 269.737,472.035 277.363,460.352 
  284.99,441.953 292.617,414.318 300.244,375.628 307.871,326.478 315.498,271.202 323.125,216.949 330.752,170.37 338.379,134.768 346.006,109.916 353.632,93.6779 
  361.259,83.5797 368.886,77.5902 376.513,74.3049 384.14,72.8592 391.767,72.762 399.394,73.7044 407.021,75.3764 414.648,77.3842 422.274,79.3329 429.901,80.9651 
  437.528,82.1999 445.155,83.0738 452.782,83.6674 460.409,84.0606 468.036,84.3173 475.663,84.4835 483.29,84.5906 490.917,84.6595 498.543,84.7039 506.17,84.7325 
  513.797,84.751 521.424,84.7632 529.051,84.7712 536.678,84.7766 544.305,84.7803 551.932,84.783 559.559,84.785 567.186,84.7866 574.812,84.7879 582.439,84.789 
  590.066,84.79 597.693,84.7909 605.32,84.7918 612.947,84.7927 620.574,84.7935 628.201,84.7944 635.828,84.7952 643.454,84.796 651.081,84.7968 658.708,84.7976 
  666.335,84.7984 673.962,84.7992 681.589,84.8001 689.216,84.8009 696.843,84.8017 704.47,84.8025 712.097,84.8033 719.723,84.8041 727.35,84.8049 734.977,84.8057 
  742.604,84.8065 750.231,84.8074 757.858,84.8082 765.485,84.809 773.112,84.8098 780.739,84.8106 788.366,84.8114 795.992,84.8122 803.619,84.813 811.246,84.8138 
  818.873,84.8146 826.5,84.8155 834.127,84.8163 841.754,84.8171 849.381,84.8179 857.008,84.8187 864.635,84.8195 872.261,84.8203 879.888,84.8211 887.515,84.8219 
  895.142,84.8227 902.769,84.8236 910.396,84.8244 918.023,84.8252 925.65,84.826 933.277,84.8268 940.903,84.8276 948.53,84.8284 956.157,84.8292 963.784,84.83 
  971.411,84.8308 979.038,84.8317 986.665,84.8325 994.292,84.8333 1001.92,84.8341 1009.55,84.8349 1017.17,84.8357 1024.8,84.8365 1032.43,84.8373 1040.05,84.8381 
  1047.68,84.839 1055.31,84.8398 1062.93,84.8406 1070.56,84.8414 1078.19,84.8422 1085.81,84.843 1093.44,84.8438 1101.07,84.8446 1108.7,84.8454 1116.32,84.8462 
  1123.95,84.8471 1131.58,84.8479 1139.2,84.8487 1146.83,84.8495 1154.46,84.8503 1162.08,84.8511 1169.71,84.8519 1177.34,84.8527 1184.96,84.8535 1192.59,84.8543 
  1200.22,84.8552 1207.84,84.856 1215.47,84.8568 1223.1,84.8576 1230.73,84.8584 1238.35,84.8592 1245.98,84.86 1253.61,84.8608 1261.23,84.8616 1268.86,84.8624 
  1276.49,84.8633 1284.11,84.8641 1291.74,84.8649 1299.37,84.8657 1306.99,84.8665 1314.62,84.8673 1322.25,84.8681 1329.88,84.8689 1337.5,84.8697 1345.13,84.8705 
  1352.76,84.8714 
  "/>
<polyline clip-path="url(#clip512)" style="stroke:#2000d4; stroke-linecap:butt; stroke-linejoin:round; stroke-width:16; stroke-opacity:1; fill:none" stroke-dasharray="64, 40" points="
  208.721,489.913 216.348,489.913 223.975,489.913 231.602,489.913 239.229,489.913 246.856,489.913 254.483,489.913 262.11,489.913 269.737,489.913 277.363,489.913 
  284.99,489.913 292.617,489.913 300.244,489.913 307.871,489.913 315.498,489.912 323.125,489.912 330.752,489.912 338.379,489.912 346.006,489.912 353.632,489.912 
  361.259,489.912 368.886,489.912 376.513,489.912 384.14,489.912 391.767,489.911 399.394,489.911 407.021,489.911 414.648,489.91 422.274,489.91 429.901,489.91 
  437.528,489.909 445.155,489.909 452.782,489.908 460.409,489.908 468.036,489.907 475.663,489.907 483.29,489.907 490.917,489.906 498.543,489.906 506.17,489.905 
  513.797,489.905 521.424,489.904 529.051,489.904 536.678,489.904 544.305,489.903 551.932,489.903 559.559,489.902 567.186,489.902 574.812,489.902 582.439,489.901 
  590.066,489.901 597.693,489.9 605.32,489.9 612.947,489.899 620.574,489.899 628.201,489.899 635.828,489.898 643.454,489.898 651.081,489.897 658.708,489.897 
  666.335,489.896 673.962,489.896 681.589,489.896 689.216,489.895 696.843,489.895 704.47,489.894 712.097,489.894 719.723,489.893 727.35,489.893 734.977,489.893 
  742.604,489.892 750.231,489.892 757.858,489.891 765.485,489.891 773.112,489.89 780.739,489.89 788.366,489.89 795.992,489.889 803.619,489.889 811.246,489.888 
  818.873,489.888 826.5,489.887 834.127,489.887 841.754,489.887 849.381,489.886 857.008,489.886 864.635,489.885 872.261,489.885 879.888,489.884 887.515,489.884 
  895.142,489.884 902.769,489.883 910.396,489.883 918.023,489.882 925.65,489.882 933.277,489.881 940.903,489.881 948.53,489.881 956.157,489.88 963.784,489.88 
  971.411,489.879 979.038,489.879 986.665,489.878 994.292,489.878 1001.92,489.878 1009.55,489.877 1017.17,489.877 1024.8,489.876 1032.43,489.876 1040.05,489.875 
  1047.68,489.875 1055.31,489.875 1062.93,489.874 1070.56,489.874 1078.19,489.873 1085.81,489.873 1093.44,489.873 1101.07,489.872 1108.7,489.872 1116.32,489.871 
  1123.95,489.871 1131.58,489.87 1139.2,489.87 1146.83,489.87 1154.46,489.869 1162.08,489.869 1169.71,489.868 1177.34,489.868 1184.96,489.867 1192.59,489.867 
  1200.22,489.867 1207.84,489.866 1215.47,489.866 1223.1,489.865 1230.73,489.865 1238.35,489.864 1245.98,489.864 1253.61,489.864 1261.23,489.863 1268.86,489.863 
  1276.49,489.862 1284.11,489.862 1291.74,489.861 1299.37,489.861 1306.99,489.861 1314.62,489.86 1322.25,489.86 1329.88,489.859 1337.5,489.859 1345.13,489.858 
  1352.76,489.858 
  "/>
<polyline clip-path="url(#clip512)" style="stroke:#ff221c; stroke-linecap:butt; stroke-linejoin:round; stroke-width:16; stroke-opacity:1; fill:none" points="
  208.721,489.913 216.348,489.913 223.975,489.912 231.602,489.91 239.229,489.907 246.856,489.902 254.483,489.893 262.11,489.878 269.737,489.853 277.363,489.809 
  284.99,489.736 292.617,489.615 300.244,489.415 307.871,489.09 315.498,488.568 323.125,487.731 330.752,486.386 338.379,484.197 346.006,480.6 353.632,474.677 
  361.259,465.013 368.886,449.58 376.513,425.856 384.14,391.511 391.767,345.998 399.394,292.373 407.021,237.256 414.648,187.78 422.274,148.18 429.901,119.061 
  437.528,98.8223 445.155,85.2383 452.782,76.3094 460.409,70.5122 468.036,66.7758 475.663,64.3782 483.29,62.8438 490.917,61.8635 498.543,61.2379 506.17,60.8388 
  513.797,60.5844 521.424,60.4222 529.051,60.3189 536.678,60.253 544.305,60.211 551.932,60.1843 559.559,60.1673 567.186,60.1564 574.812,60.1495 582.439,60.1451 
  590.066,60.1423 597.693,60.1405 605.32,60.1394 612.947,60.1386 620.574,60.1382 628.201,60.1379 635.828,60.1377 643.454,60.1376 651.081,60.1375 658.708,60.1375 
  666.335,60.1374 673.962,60.1374 681.589,60.1374 689.216,60.1374 696.843,60.1374 704.47,60.1374 712.097,60.1374 719.723,60.1374 727.35,60.1374 734.977,60.1374 
  742.604,60.1374 750.231,60.1374 757.858,60.1374 765.485,60.1374 773.112,60.1374 780.739,60.1374 788.366,60.1374 795.992,60.1374 803.619,60.1374 811.246,60.1374 
  818.873,60.1374 826.5,60.1374 834.127,60.1374 841.754,60.1374 849.381,60.1374 857.008,60.1374 864.635,60.1374 872.261,60.1374 879.888,60.1374 887.515,60.1374 
  895.142,60.1374 902.769,60.1374 910.396,60.1374 918.023,60.1374 925.65,60.1374 933.277,60.1374 940.903,60.1374 948.53,60.1374 956.157,60.1374 963.784,60.1374 
  971.411,60.1374 979.038,60.1374 986.665,60.1374 994.292,60.1374 1001.92,60.1374 1009.55,60.1374 1017.17,60.1374 1024.8,60.1374 1032.43,60.1374 1040.05,60.1374 
  1047.68,60.1374 1055.31,60.1374 1062.93,60.1374 1070.56,60.1374 1078.19,60.1374 1085.81,60.1374 1093.44,60.1374 1101.07,60.1374 1108.7,60.1374 1116.32,60.1374 
  1123.95,60.1374 1131.58,60.1374 1139.2,60.1374 1146.83,60.1374 1154.46,60.1374 1162.08,60.1374 1169.71,60.1374 1177.34,60.1374 1184.96,60.1374 1192.59,60.1374 
  1200.22,60.1374 1207.84,60.1374 1215.47,60.1374 1223.1,60.1374 1230.73,60.1374 1238.35,60.1374 1245.98,60.1374 1253.61,60.1374 1261.23,60.1374 1268.86,60.1374 
  1276.49,60.1374 1284.11,60.1374 1291.74,60.1374 1299.37,60.1374 1306.99,60.1374 1314.62,60.1374 1322.25,60.1374 1329.88,60.1374 1337.5,60.1374 1345.13,60.1374 
  1352.76,60.1374 
  "/>
<path clip-path="url(#clip510)" d="
M201.094 503.236 L1352.76 503.236 L1352.76 47.2441 L201.094 47.2441  Z
  " fill="#000000" fill-rule="evenodd" fill-opacity="0"/>
<path clip-path="url(#clip510)" d="M201.094 529.085 Q196.581 529.085 194.295 533.541 Q192.038 537.968 192.038 546.88 Q192.038 555.763 194.295 560.219 Q196.581 564.646 201.094 564.646 Q205.637 564.646 207.894 560.219 Q210.18 555.763 210.18 546.88 Q210.18 537.968 207.894 533.541 Q205.637 529.085 201.094 529.085 M201.094 524.455 Q208.357 524.455 212.177 530.213 Q216.025 535.942 216.025 546.88 Q216.025 557.788 212.177 563.546 Q208.357 569.276 201.094 569.276 Q193.832 569.276 189.983 563.546 Q186.164 557.788 186.164 546.88 Q186.164 535.942 189.983 530.213 Q193.832 524.455 201.094 524.455 Z" fill="#000000" fill-rule="evenodd" fill-opacity="1" /><path clip-path="url(#clip510)" d="M550.813 525.236 L573.759 525.236 L573.759 530.155 L556.166 530.155 L556.166 540.746 Q557.439 540.312 558.713 540.109 Q559.986 539.878 561.259 539.878 Q568.493 539.878 572.717 543.842 Q576.942 547.806 576.942 554.577 Q576.942 561.55 572.601 565.427 Q568.261 569.276 560.362 569.276 Q557.642 569.276 554.806 568.813 Q552 568.35 548.99 567.424 L548.99 561.55 Q551.595 562.968 554.372 563.662 Q557.15 564.357 560.246 564.357 Q565.252 564.357 568.174 561.724 Q571.097 559.09 571.097 554.577 Q571.097 550.063 568.174 547.43 Q565.252 544.797 560.246 544.797 Q557.902 544.797 555.559 545.317 Q553.244 545.838 550.813 546.938 L550.813 525.236 Z" fill="#000000" fill-rule="evenodd" fill-opacity="1" /><path clip-path="url(#clip510)" d="M600.958 529.085 Q596.444 529.085 594.158 533.541 Q591.901 537.968 591.901 546.88 Q591.901 555.763 594.158 560.219 Q596.444 564.646 600.958 564.646 Q605.501 564.646 607.757 560.219 Q610.043 555.763 610.043 546.88 Q610.043 537.968 607.757 533.541 Q605.501 529.085 600.958 529.085 M600.958 524.455 Q608.22 524.455 612.04 530.213 Q615.888 535.942 615.888 546.88 Q615.888 557.788 612.04 563.546 Q608.22 569.276 600.958 569.276 Q593.695 569.276 589.847 563.546 Q586.027 557.788 586.027 546.88 Q586.027 535.942 589.847 530.213 Q593.695 524.455 600.958 524.455 Z" fill="#000000" fill-rule="evenodd" fill-opacity="1" /><path clip-path="url(#clip510)" d="M913.293 563.517 L922.841 563.517 L922.841 530.56 L912.453 532.644 L912.453 527.32 L922.783 525.236 L928.628 525.236 L928.628 563.517 L938.177 563.517 L938.177 568.436 L913.293 568.436 L913.293 563.517 Z" fill="#000000" fill-rule="evenodd" fill-opacity="1" /><path clip-path="url(#clip510)" d="M962.482 529.085 Q957.968 529.085 955.682 533.541 Q953.425 537.968 953.425 546.88 Q953.425 555.763 955.682 560.219 Q957.968 564.646 962.482 564.646 Q967.025 564.646 969.282 560.219 Q971.568 555.763 971.568 546.88 Q971.568 537.968 969.282 533.541 Q967.025 529.085 962.482 529.085 M962.482 524.455 Q969.745 524.455 973.564 530.213 Q977.413 535.942 977.413 546.88 Q977.413 557.788 973.564 563.546 Q969.745 569.276 962.482 569.276 Q955.219 569.276 951.371 563.546 Q947.552 557.788 947.552 546.88 Q947.552 535.942 951.371 530.213 Q955.219 524.455 962.482 524.455 Z" fill="#000000" fill-rule="evenodd" fill-opacity="1" /><path clip-path="url(#clip510)" d="M1000.18 529.085 Q995.671 529.085 993.385 533.541 Q991.128 537.968 991.128 546.88 Q991.128 555.763 993.385 560.219 Q995.671 564.646 1000.18 564.646 Q1004.73 564.646 1006.98 560.219 Q1009.27 555.763 1009.27 546.88 Q1009.27 537.968 1006.98 533.541 Q1004.73 529.085 1000.18 529.085 M1000.18 524.455 Q1007.45 524.455 1011.27 530.213 Q1015.11 535.942 1015.11 546.88 Q1015.11 557.788 1011.27 563.546 Q1007.45 569.276 1000.18 569.276 Q992.922 569.276 989.073 563.546 Q985.254 557.788 985.254 546.88 Q985.254 535.942 989.073 530.213 Q992.922 524.455 1000.18 524.455 Z" fill="#000000" fill-rule="evenodd" fill-opacity="1" /><path clip-path="url(#clip510)" d="M1294.64 563.517 L1304.19 563.517 L1304.19 530.56 L1293.8 532.644 L1293.8 527.32 L1304.13 525.236 L1309.97 525.236 L1309.97 563.517 L1319.52 563.517 L1319.52 568.436 L1294.64 568.436 L1294.64 563.517 Z" fill="#000000" fill-rule="evenodd" fill-opacity="1" /><path clip-path="url(#clip510)" d="M1331.38 525.236 L1354.33 525.236 L1354.33 530.155 L1336.74 530.155 L1336.74 540.746 Q1338.01 540.312 1339.28 540.109 Q1340.56 539.878 1341.83 539.878 Q1349.06 539.878 1353.29 543.842 Q1357.51 547.806 1357.51 554.577 Q1357.51 561.55 1353.17 565.427 Q1348.83 569.276 1340.93 569.276 Q1338.21 569.276 1335.38 568.813 Q1332.57 568.35 1329.56 567.424 L1329.56 561.55 Q1332.17 562.968 1334.94 563.662 Q1337.72 564.357 1340.82 564.357 Q1345.82 564.357 1348.75 561.724 Q1351.67 559.09 1351.67 554.577 Q1351.67 550.063 1348.75 547.43 Q1345.82 544.797 1340.82 544.797 Q1338.47 544.797 1336.13 545.317 Q1333.82 545.838 1331.38 546.938 L1331.38 525.236 Z" fill="#000000" fill-rule="evenodd" fill-opacity="1" /><path clip-path="url(#clip510)" d="M1381.53 529.085 Q1377.02 529.085 1374.73 533.541 Q1372.47 537.968 1372.47 546.88 Q1372.47 555.763 1374.73 560.219 Q1377.02 564.646 1381.53 564.646 Q1386.07 564.646 1388.33 560.219 Q1390.61 555.763 1390.61 546.88 Q1390.61 537.968 1388.33 533.541 Q1386.07 529.085 1381.53 529.085 M1381.53 524.455 Q1388.79 524.455 1392.61 530.213 Q1396.46 535.942 1396.46 546.88 Q1396.46 557.788 1392.61 563.546 Q1388.79 569.276 1381.53 569.276 Q1374.27 569.276 1370.42 563.546 Q1366.6 557.788 1366.6 546.88 Q1366.6 535.942 1370.42 530.213 Q1374.27 524.455 1381.53 524.455 Z" fill="#000000" fill-rule="evenodd" fill-opacity="1" /><polyline clip-path="url(#clip510)" style="stroke:#000000; stroke-linecap:butt; stroke-linejoin:round; stroke-width:4; stroke-opacity:1; fill:none" points="
  1352.76,503.236 1352.76,47.2441 
  "/>
<polyline clip-path="url(#clip510)" style="stroke:#000000; stroke-linecap:butt; stroke-linejoin:round; stroke-width:4; stroke-opacity:1; fill:none" points="
  1352.76,69.4145 1333.86,69.4145 
  "/>
<polyline clip-path="url(#clip510)" style="stroke:#000000; stroke-linecap:butt; stroke-linejoin:round; stroke-width:4; stroke-opacity:1; fill:none" points="
  1352.76,174.644 1333.86,174.644 
  "/>
<polyline clip-path="url(#clip510)" style="stroke:#000000; stroke-linecap:butt; stroke-linejoin:round; stroke-width:4; stroke-opacity:1; fill:none" points="
  1352.76,279.873 1333.86,279.873 
  "/>
<polyline clip-path="url(#clip510)" style="stroke:#000000; stroke-linecap:butt; stroke-linejoin:round; stroke-width:4; stroke-opacity:1; fill:none" points="
  1352.76,385.102 1333.86,385.102 
  "/>
<polyline clip-path="url(#clip510)" style="stroke:#000000; stroke-linecap:butt; stroke-linejoin:round; stroke-width:4; stroke-opacity:1; fill:none" points="
  1352.76,490.331 1333.86,490.331 
  "/>
<path clip-path="url(#clip510)" d="M1374.6 94.155 L1384.14 94.155 L1384.14 61.198 L1373.76 63.2814 L1373.76 57.9573 L1384.09 55.874 L1389.93 55.874 L1389.93 94.155 L1399.48 94.155 L1399.48 99.074 L1374.6 99.074 L1374.6 94.155 Z" fill="#000000" fill-rule="evenodd" fill-opacity="1" /><path clip-path="url(#clip510)" d="M1423.78 59.7224 Q1419.27 59.7224 1416.98 64.1784 Q1414.73 68.6054 1414.73 77.5174 Q1414.73 86.4005 1416.98 90.8565 Q1419.27 95.2835 1423.78 95.2835 Q1428.33 95.2835 1430.58 90.8565 Q1432.87 86.4005 1432.87 77.5174 Q1432.87 68.6054 1430.58 64.1784 Q1428.33 59.7224 1423.78 59.7224 M1423.78 55.0928 Q1431.05 55.0928 1434.87 60.8508 Q1438.72 66.58 1438.72 77.5174 Q1438.72 88.4259 1434.87 94.184 Q1431.05 99.9131 1423.78 99.9131 Q1416.52 99.9131 1412.67 94.184 Q1408.85 88.4259 1408.85 77.5174 Q1408.85 66.58 1412.67 60.8508 Q1416.52 55.0928 1423.78 55.0928 Z" fill="#000000" fill-rule="evenodd" fill-opacity="1" /><path clip-path="url(#clip510)" d="M1450.85 32.8378 Q1447.18 32.8378 1445.32 36.4583 Q1443.49 40.0553 1443.49 47.2963 Q1443.49 54.5137 1445.32 58.1342 Q1447.18 61.7312 1450.85 61.7312 Q1454.54 61.7312 1456.37 58.1342 Q1458.23 54.5137 1458.23 47.2963 Q1458.23 40.0553 1456.37 36.4583 Q1454.54 32.8378 1450.85 32.8378 M1450.85 29.0762 Q1456.75 29.0762 1459.85 33.7547 Q1462.98 38.4096 1462.98 47.2963 Q1462.98 56.1594 1459.85 60.8379 Q1456.75 65.4928 1450.85 65.4928 Q1444.95 65.4928 1441.82 60.8379 Q1438.72 56.1594 1438.72 47.2963 Q1438.72 38.4096 1441.82 33.7547 Q1444.95 29.0762 1450.85 29.0762 Z" fill="#000000" fill-rule="evenodd" fill-opacity="1" /><path clip-path="url(#clip510)" d="M1374.6 199.384 L1384.14 199.384 L1384.14 166.427 L1373.76 168.51 L1373.76 163.186 L1384.09 161.103 L1389.93 161.103 L1389.93 199.384 L1399.48 199.384 L1399.48 204.303 L1374.6 204.303 L1374.6 199.384 Z" fill="#000000" fill-rule="evenodd" fill-opacity="1" /><path clip-path="url(#clip510)" d="M1423.78 164.951 Q1419.27 164.951 1416.98 169.407 Q1414.73 173.835 1414.73 182.747 Q1414.73 191.63 1416.98 196.086 Q1419.27 200.513 1423.78 200.513 Q1428.33 200.513 1430.58 196.086 Q1432.87 191.63 1432.87 182.747 Q1432.87 173.835 1430.58 169.407 Q1428.33 164.951 1423.78 164.951 M1423.78 160.322 Q1431.05 160.322 1434.87 166.08 Q1438.72 171.809 1438.72 182.747 Q1438.72 193.655 1434.87 199.413 Q1431.05 205.142 1423.78 205.142 Q1416.52 205.142 1412.67 199.413 Q1408.85 193.655 1408.85 182.747 Q1408.85 171.809 1412.67 166.08 Q1416.52 160.322 1423.78 160.322 Z" fill="#000000" fill-rule="evenodd" fill-opacity="1" /><path clip-path="url(#clip510)" d="M1438.72 152.949 L1468.85 152.949 L1468.85 156.945 L1438.72 156.945 L1438.72 152.949 Z" fill="#000000" fill-rule="evenodd" fill-opacity="1" /><path clip-path="url(#clip510)" d="M1483.2 166.043 L1499.77 166.043 L1499.77 170.04 L1477.48 170.04 L1477.48 166.043 Q1480.19 163.246 1484.84 158.544 Q1489.52 153.818 1490.72 152.455 Q1493 149.892 1493.89 148.129 Q1494.81 146.342 1494.81 144.626 Q1494.81 141.828 1492.83 140.065 Q1490.88 138.302 1487.73 138.302 Q1485.5 138.302 1483.01 139.078 Q1480.54 139.854 1477.72 141.429 L1477.72 136.633 Q1480.59 135.481 1483.08 134.893 Q1485.57 134.305 1487.64 134.305 Q1493.09 134.305 1496.34 137.032 Q1499.58 139.76 1499.58 144.321 Q1499.58 146.483 1498.76 148.435 Q1497.96 150.362 1495.82 152.996 Q1495.23 153.677 1492.08 156.945 Q1488.93 160.19 1483.2 166.043 Z" fill="#000000" fill-rule="evenodd" fill-opacity="1" /><path clip-path="url(#clip510)" d="M1374.6 304.613 L1384.14 304.613 L1384.14 271.656 L1373.76 273.74 L1373.76 268.416 L1384.09 266.332 L1389.93 266.332 L1389.93 304.613 L1399.48 304.613 L1399.48 309.532 L1374.6 309.532 L1374.6 304.613 Z" fill="#000000" fill-rule="evenodd" fill-opacity="1" /><path clip-path="url(#clip510)" d="M1423.78 270.181 Q1419.27 270.181 1416.98 274.637 Q1414.73 279.064 1414.73 287.976 Q1414.73 296.859 1416.98 301.315 Q1419.27 305.742 1423.78 305.742 Q1428.33 305.742 1430.58 301.315 Q1432.87 296.859 1432.87 287.976 Q1432.87 279.064 1430.58 274.637 Q1428.33 270.181 1423.78 270.181 M1423.78 265.551 Q1431.05 265.551 1434.87 271.309 Q1438.72 277.038 1438.72 287.976 Q1438.72 298.884 1434.87 304.642 Q1431.05 310.371 1423.78 310.371 Q1416.52 310.371 1412.67 304.642 Q1408.85 298.884 1408.85 287.976 Q1408.85 277.038 1412.67 271.309 Q1416.52 265.551 1423.78 265.551 Z" fill="#000000" fill-rule="evenodd" fill-opacity="1" /><path clip-path="url(#clip510)" d="M1438.72 258.178 L1468.85 258.178 L1468.85 262.174 L1438.72 262.174 L1438.72 258.178 Z" fill="#000000" fill-rule="evenodd" fill-opacity="1" /><path clip-path="url(#clip510)" d="M1492.15 244.307 L1480.16 263.044 L1492.15 263.044 L1492.15 244.307 M1490.91 240.169 L1496.88 240.169 L1496.88 263.044 L1501.89 263.044 L1501.89 266.994 L1496.88 266.994 L1496.88 275.269 L1492.15 275.269 L1492.15 266.994 L1476.31 266.994 L1476.31 262.409 L1490.91 240.169 Z" fill="#000000" fill-rule="evenodd" fill-opacity="1" /><path clip-path="url(#clip510)" d="M1374.6 409.842 L1384.14 409.842 L1384.14 376.885 L1373.76 378.969 L1373.76 373.645 L1384.09 371.561 L1389.93 371.561 L1389.93 409.842 L1399.48 409.842 L1399.48 414.761 L1374.6 414.761 L1374.6 409.842 Z" fill="#000000" fill-rule="evenodd" fill-opacity="1" /><path clip-path="url(#clip510)" d="M1423.78 375.41 Q1419.27 375.41 1416.98 379.866 Q1414.73 384.293 1414.73 393.205 Q1414.73 402.088 1416.98 406.544 Q1419.27 410.971 1423.78 410.971 Q1428.33 410.971 1430.58 406.544 Q1432.87 402.088 1432.87 393.205 Q1432.87 384.293 1430.58 379.866 Q1428.33 375.41 1423.78 375.41 M1423.78 370.78 Q1431.05 370.78 1434.87 376.538 Q1438.72 382.267 1438.72 393.205 Q1438.72 404.113 1434.87 409.871 Q1431.05 415.6 1423.78 415.6 Q1416.52 415.6 1412.67 409.871 Q1408.85 404.113 1408.85 393.205 Q1408.85 382.267 1412.67 376.538 Q1416.52 370.78 1423.78 370.78 Z" fill="#000000" fill-rule="evenodd" fill-opacity="1" /><path clip-path="url(#clip510)" d="M1438.72 363.407 L1468.85 363.407 L1468.85 367.403 L1438.72 367.403 L1438.72 363.407 Z" fill="#000000" fill-rule="evenodd" fill-opacity="1" /><path clip-path="url(#clip510)" d="M1489.85 361.056 Q1486.65 361.056 1484.77 363.242 Q1482.91 365.429 1482.91 369.237 Q1482.91 373.022 1484.77 375.232 Q1486.65 377.419 1489.85 377.419 Q1493.05 377.419 1494.9 375.232 Q1496.78 373.022 1496.78 369.237 Q1496.78 365.429 1494.9 363.242 Q1493.05 361.056 1489.85 361.056 M1499.28 346.174 L1499.28 350.5 Q1497.49 349.654 1495.66 349.207 Q1493.85 348.76 1492.06 348.76 Q1487.36 348.76 1484.86 351.934 Q1482.4 355.108 1482.04 361.526 Q1483.43 359.481 1485.52 358.399 Q1487.62 357.294 1490.13 357.294 Q1495.42 357.294 1498.48 360.515 Q1501.56 363.712 1501.56 369.237 Q1501.56 374.644 1498.36 377.912 Q1495.16 381.18 1489.85 381.18 Q1483.76 381.18 1480.54 376.525 Q1477.32 371.847 1477.32 362.984 Q1477.32 354.661 1481.27 349.724 Q1485.22 344.764 1491.87 344.764 Q1493.66 344.764 1495.47 345.116 Q1497.3 345.469 1499.28 346.174 Z" fill="#000000" fill-rule="evenodd" fill-opacity="1" /><path clip-path="url(#clip510)" d="M1374.6 515.072 L1384.14 515.072 L1384.14 482.115 L1373.76 484.198 L1373.76 478.874 L1384.09 476.791 L1389.93 476.791 L1389.93 515.072 L1399.48 515.072 L1399.48 519.991 L1374.6 519.991 L1374.6 515.072 Z" fill="#000000" fill-rule="evenodd" fill-opacity="1" /><path clip-path="url(#clip510)" d="M1423.78 480.639 Q1419.27 480.639 1416.98 485.095 Q1414.73 489.522 1414.73 498.434 Q1414.73 507.317 1416.98 511.773 Q1419.27 516.2 1423.78 516.2 Q1428.33 516.2 1430.58 511.773 Q1432.87 507.317 1432.87 498.434 Q1432.87 489.522 1430.58 485.095 Q1428.33 480.639 1423.78 480.639 M1423.78 476.009 Q1431.05 476.009 1434.87 481.767 Q1438.72 487.496 1438.72 498.434 Q1438.72 509.342 1434.87 515.1 Q1431.05 520.83 1423.78 520.83 Q1416.52 520.83 1412.67 515.1 Q1408.85 509.342 1408.85 498.434 Q1408.85 487.496 1412.67 481.767 Q1416.52 476.009 1423.78 476.009 Z" fill="#000000" fill-rule="evenodd" fill-opacity="1" /><path clip-path="url(#clip510)" d="M1438.72 468.636 L1468.85 468.636 L1468.85 472.633 L1438.72 472.633 L1438.72 468.636 Z" fill="#000000" fill-rule="evenodd" fill-opacity="1" /><path clip-path="url(#clip510)" d="M1489.26 469.059 Q1485.88 469.059 1483.92 470.869 Q1482 472.68 1482 475.853 Q1482 479.027 1483.92 480.837 Q1485.88 482.648 1489.26 482.648 Q1492.65 482.648 1494.6 480.837 Q1496.55 479.004 1496.55 475.853 Q1496.55 472.68 1494.6 470.869 Q1492.67 469.059 1489.26 469.059 M1484.51 467.037 Q1481.46 466.285 1479.74 464.193 Q1478.05 462.1 1478.05 459.091 Q1478.05 454.883 1481.03 452.438 Q1484.04 449.993 1489.26 449.993 Q1494.5 449.993 1497.49 452.438 Q1500.48 454.883 1500.48 459.091 Q1500.48 462.1 1498.76 464.193 Q1497.07 466.285 1494.03 467.037 Q1497.47 467.837 1499.37 470.164 Q1501.3 472.492 1501.3 475.853 Q1501.3 480.955 1498.17 483.682 Q1495.07 486.409 1489.26 486.409 Q1483.45 486.409 1480.33 483.682 Q1477.22 480.955 1477.22 475.853 Q1477.22 472.492 1479.15 470.164 Q1481.08 467.837 1484.51 467.037 M1482.77 459.538 Q1482.77 462.265 1484.46 463.793 Q1486.18 465.321 1489.26 465.321 Q1492.32 465.321 1494.03 463.793 Q1495.77 462.265 1495.77 459.538 Q1495.77 456.811 1494.03 455.282 Q1492.32 453.754 1489.26 453.754 Q1486.18 453.754 1484.46 455.282 Q1482.77 456.811 1482.77 459.538 Z" fill="#000000" fill-rule="evenodd" fill-opacity="1" /><polyline clip-path="url(#clip512)" style="stroke:#000000; stroke-linecap:butt; stroke-linejoin:round; stroke-width:16; stroke-opacity:1; fill:none" stroke-dasharray="8, 16" points="
  208.721,69.4145 216.348,69.4371 223.975,69.4576 231.602,69.4897 239.229,69.5437 246.856,69.6354 254.483,69.7906 262.11,70.0527 269.737,70.493 277.363,71.2262 
  284.99,72.4304 292.617,74.3662 300.244,77.3817 307.871,81.8841 315.498,88.2727 323.125,96.8791 330.752,107.994 338.379,122.011 346.006,139.598 353.632,161.698 
  361.259,189.151 368.886,222.013 376.513,259.186 384.14,298.704 391.767,338.373 399.394,376.394 407.021,411.758 414.648,444.294 422.274,474.384 429.901,502.609 
  437.528,529.518 445.155,555.539 452.782,580.977 460.409,606.035 468.036,630.85 475.663,655.509 483.29,680.067 490.917,704.561 498.543,729.013 506.17,753.439 
  513.797,777.848 521.424,802.245 529.051,826.635 536.678,851.02 544.305,875.401 551.932,899.78 559.559,924.158 567.186,948.533 574.812,972.908 582.439,997.281 
  590.066,1021.65 597.693,1046.03 605.32,1070.4 612.947,1094.77 620.574,1119.14 628.201,1143.5 635.828,1167.87 643.454,1192.24 651.081,1216.6 658.708,1240.97 
  666.335,1265.34 673.962,1289.7 681.589,1314.06 689.216,1338.42 696.843,1362.79 704.47,1387.15 712.097,1411.51 719.723,1435.87 727.35,1460.23 734.977,1484.58 
  742.604,1508.94 750.231,1533.3 757.858,1557.65 765.485,1582.01 773.112,1606.36 780.739,1630.72 788.366,1655.07 795.992,1679.42 803.619,1703.77 811.246,1728.12 
  818.873,1752.47 826.5,1776.82 834.127,1801.17 841.754,1825.52 849.381,1849.86 857.008,1874.21 864.635,1898.55 872.261,1922.9 879.888,1947.24 887.515,1971.59 
  895.142,1995.93 902.769,2020.27 910.396,2044.61 918.023,2068.95 925.65,2093.29 933.277,2117.63 940.903,2141.96 948.53,2166.3 956.157,2190.64 963.784,2214.97 
  971.411,2239.31 979.038,2263.64 986.665,2287.98 994.292,2312.31 1001.92,2336.64 1009.55,2360.97 1017.17,2385.3 1024.8,2409.63 1032.43,2433.96 1040.05,2458.29 
  1047.68,2482.61 1055.31,2506.94 1062.93,2531.27 1070.56,2555.59 1078.19,2579.91 1085.81,2604.24 1093.44,2628.56 1101.07,2652.88 1108.7,2677.2 1116.32,2701.52 
  1123.95,2725.84 1131.58,2750.16 1139.2,2774.48 1146.83,2798.8 1154.46,2823.12 1162.08,2847.43 1169.71,2871.75 1177.34,2896.06 1184.96,2920.38 1192.59,2944.69 
  1200.22,2969 1207.84,2993.31 1215.47,3017.62 1223.1,3041.93 1230.73,3066.24 1238.35,3090.55 1245.98,3114.86 1253.61,3139.16 1261.23,3163.47 1268.86,3187.78 
  1276.49,3212.08 1284.11,3236.39 1291.74,3260.69 1299.37,3284.99 1306.99,3309.29 1314.62,3333.59 1322.25,3357.89 1329.88,3382.19 1337.5,3406.49 1345.13,3430.79 
  1352.76,3455.09 
  "/>
</svg>
