<?xml version="1.0" encoding="utf-8"?>
<svg xmlns="http://www.w3.org/2000/svg" xmlns:xlink="http://www.w3.org/1999/xlink" width="325" height="150" viewBox="0 0 1300 600">
<defs>
  <clipPath id="clip480">
    <rect x="0" y="0" width="1300" height="600"/>
  </clipPath>
</defs>
<path clip-path="url(#clip480)" d="
M0 600 L1300 600 L1300 0 L0 0  Z
  " fill="#ffffff" fill-rule="evenodd" fill-opacity="1"/>
<defs>
  <clipPath id="clip481">
    <rect x="260" y="0" width="911" height="600"/>
  </clipPath>
</defs>
<path clip-path="url(#clip480)" d="
M204.122 501.1 L1252.76 501.1 L1252.76 47.2441 L204.122 47.2441  Z
  " fill="#ffffff" fill-rule="evenodd" fill-opacity="1"/>
<defs>
  <clipPath id="clip482">
    <rect x="204" y="47" width="1050" height="455"/>
  </clipPath>
</defs>
<polyline clip-path="url(#clip480)" style="stroke:#000000; stroke-linecap:butt; stroke-linejoin:round; stroke-width:4; stroke-opacity:1; fill:none" points="
  204.122,501.1 1252.76,501.1 
  "/>
<polyline clip-path="url(#clip480)" style="stroke:#000000; stroke-linecap:butt; stroke-linejoin:round; stroke-width:4; stroke-opacity:1; fill:none" points="
  204.122,501.1 204.122,482.203 
  "/>
<polyline clip-path="url(#clip480)" style="stroke:#000000; stroke-linecap:butt; stroke-linejoin:round; stroke-width:4; stroke-opacity:1; fill:none" points="
  551.352,501.1 551.352,482.203 
  "/>
<polyline clip-path="url(#clip480)" style="stroke:#000000; stroke-linecap:butt; stroke-linejoin:round; stroke-width:4; stroke-opacity:1; fill:none" points="
  898.581,501.1 898.581,482.203 
  "/>
<polyline clip-path="url(#clip480)" style="stroke:#000000; stroke-linecap:butt; stroke-linejoin:round; stroke-width:4; stroke-opacity:1; fill:none" points="
  1245.81,501.1 1245.81,482.203 
  "/>
<path clip-path="url(#clip480)" d="M204.122 526.149 Q199.608 526.149 197.322 530.605 Q195.065 535.032 195.065 543.944 Q195.065 552.827 197.322 557.283 Q199.608 561.71 204.122 561.71 Q208.665 561.71 210.922 557.283 Q213.207 552.827 213.207 543.944 Q213.207 535.032 210.922 530.605 Q208.665 526.149 204.122 526.149 M204.122 521.519 Q211.385 521.519 215.204 527.277 Q219.052 533.006 219.052 543.944 Q219.052 554.852 215.204 560.61 Q211.385 566.339 204.122 566.339 Q196.859 566.339 193.011 560.61 Q189.191 554.852 189.191 543.944 Q189.191 533.006 193.011 527.277 Q196.859 521.519 204.122 521.519 Z" fill="#000000" fill-rule="evenodd" fill-opacity="1" /><path clip-path="url(#clip480)" d="M519.726 522.3 L542.671 522.3 L542.671 527.219 L525.079 527.219 L525.079 537.809 Q526.352 537.375 527.625 537.173 Q528.898 536.941 530.171 536.941 Q537.405 536.941 541.63 540.905 Q545.854 544.87 545.854 551.64 Q545.854 558.614 541.514 562.491 Q537.174 566.339 529.274 566.339 Q526.554 566.339 523.719 565.876 Q520.912 565.413 517.903 564.487 L517.903 558.614 Q520.507 560.031 523.285 560.726 Q526.062 561.42 529.159 561.42 Q534.164 561.42 537.087 558.787 Q540.009 556.154 540.009 551.64 Q540.009 547.126 537.087 544.493 Q534.164 541.86 529.159 541.86 Q526.815 541.86 524.471 542.381 Q522.156 542.902 519.726 544.001 L519.726 522.3 Z" fill="#000000" fill-rule="evenodd" fill-opacity="1" /><path clip-path="url(#clip480)" d="M569.87 526.149 Q565.356 526.149 563.07 530.605 Q560.813 535.032 560.813 543.944 Q560.813 552.827 563.07 557.283 Q565.356 561.71 569.87 561.71 Q574.413 561.71 576.67 557.283 Q578.956 552.827 578.956 543.944 Q578.956 535.032 576.67 530.605 Q574.413 526.149 569.87 526.149 M569.87 521.519 Q577.133 521.519 580.952 527.277 Q584.801 533.006 584.801 543.944 Q584.801 554.852 580.952 560.61 Q577.133 566.339 569.87 566.339 Q562.607 566.339 558.759 560.61 Q554.94 554.852 554.94 543.944 Q554.94 533.006 558.759 527.277 Q562.607 521.519 569.87 521.519 Z" fill="#000000" fill-rule="evenodd" fill-opacity="1" /><path clip-path="url(#clip480)" d="M848.09 560.581 L857.638 560.581 L857.638 527.624 L847.251 529.708 L847.251 524.384 L857.581 522.3 L863.425 522.3 L863.425 560.581 L872.974 560.581 L872.974 565.5 L848.09 565.5 L848.09 560.581 Z" fill="#000000" fill-rule="evenodd" fill-opacity="1" /><path clip-path="url(#clip480)" d="M897.279 526.149 Q892.766 526.149 890.48 530.605 Q888.223 535.032 888.223 543.944 Q888.223 552.827 890.48 557.283 Q892.766 561.71 897.279 561.71 Q901.822 561.71 904.079 557.283 Q906.365 552.827 906.365 543.944 Q906.365 535.032 904.079 530.605 Q901.822 526.149 897.279 526.149 M897.279 521.519 Q904.542 521.519 908.362 527.277 Q912.21 533.006 912.21 543.944 Q912.21 554.852 908.362 560.61 Q904.542 566.339 897.279 566.339 Q890.017 566.339 886.168 560.61 Q882.349 554.852 882.349 543.944 Q882.349 533.006 886.168 527.277 Q890.017 521.519 897.279 521.519 Z" fill="#000000" fill-rule="evenodd" fill-opacity="1" /><path clip-path="url(#clip480)" d="M934.982 526.149 Q930.468 526.149 928.182 530.605 Q925.925 535.032 925.925 543.944 Q925.925 552.827 928.182 557.283 Q930.468 561.71 934.982 561.71 Q939.525 561.71 941.781 557.283 Q944.067 552.827 944.067 543.944 Q944.067 535.032 941.781 530.605 Q939.525 526.149 934.982 526.149 M934.982 521.519 Q942.244 521.519 946.064 527.277 Q949.912 533.006 949.912 543.944 Q949.912 554.852 946.064 560.61 Q942.244 566.339 934.982 566.339 Q927.719 566.339 923.871 560.61 Q920.051 554.852 920.051 543.944 Q920.051 533.006 923.871 527.277 Q927.719 521.519 934.982 521.519 Z" fill="#000000" fill-rule="evenodd" fill-opacity="1" /><path clip-path="url(#clip480)" d="M1195.32 560.581 L1204.87 560.581 L1204.87 527.624 L1194.48 529.708 L1194.48 524.384 L1204.81 522.3 L1210.66 522.3 L1210.66 560.581 L1220.2 560.581 L1220.2 565.5 L1195.32 565.5 L1195.32 560.581 Z" fill="#000000" fill-rule="evenodd" fill-opacity="1" /><path clip-path="url(#clip480)" d="M1232.07 522.3 L1255.01 522.3 L1255.01 527.219 L1237.42 527.219 L1237.42 537.809 Q1238.69 537.375 1239.97 537.173 Q1241.24 536.941 1242.51 536.941 Q1249.75 536.941 1253.97 540.905 Q1258.2 544.87 1258.2 551.64 Q1258.2 558.614 1253.86 562.491 Q1249.51 566.339 1241.62 566.339 Q1238.9 566.339 1236.06 565.876 Q1233.25 565.413 1230.24 564.487 L1230.24 558.614 Q1232.85 560.031 1235.63 560.726 Q1238.4 561.42 1241.5 561.42 Q1246.51 561.42 1249.43 558.787 Q1252.35 556.154 1252.35 551.64 Q1252.35 547.126 1249.43 544.493 Q1246.51 541.86 1241.5 541.86 Q1239.16 541.86 1236.81 542.381 Q1234.5 542.902 1232.07 544.001 L1232.07 522.3 Z" fill="#000000" fill-rule="evenodd" fill-opacity="1" /><path clip-path="url(#clip480)" d="M1282.21 526.149 Q1277.7 526.149 1275.41 530.605 Q1273.15 535.032 1273.15 543.944 Q1273.15 552.827 1275.41 557.283 Q1277.7 561.71 1282.21 561.71 Q1286.75 561.71 1289.01 557.283 Q1291.3 552.827 1291.3 543.944 Q1291.3 535.032 1289.01 530.605 Q1286.75 526.149 1282.21 526.149 M1282.21 521.519 Q1289.47 521.519 1293.29 527.277 Q1297.14 533.006 1297.14 543.944 Q1297.14 554.852 1293.29 560.61 Q1289.47 566.339 1282.21 566.339 Q1274.95 566.339 1271.1 560.61 Q1267.28 554.852 1267.28 543.944 Q1267.28 533.006 1271.1 527.277 Q1274.95 521.519 1282.21 521.519 Z" fill="#000000" fill-rule="evenodd" fill-opacity="1" /><polyline clip-path="url(#clip480)" style="stroke:#000000; stroke-linecap:butt; stroke-linejoin:round; stroke-width:4; stroke-opacity:1; fill:none" points="
  204.122,501.1 204.122,47.2441 
  "/>
<polyline clip-path="url(#clip480)" style="stroke:#000000; stroke-linecap:butt; stroke-linejoin:round; stroke-width:4; stroke-opacity:1; fill:none" points="
  204.122,57.0189 223.02,57.0189 
  "/>
<polyline clip-path="url(#clip480)" style="stroke:#000000; stroke-linecap:butt; stroke-linejoin:round; stroke-width:4; stroke-opacity:1; fill:none" points="
  204.122,168.039 223.02,168.039 
  "/>
<polyline clip-path="url(#clip480)" style="stroke:#000000; stroke-linecap:butt; stroke-linejoin:round; stroke-width:4; stroke-opacity:1; fill:none" points="
  204.122,279.06 223.02,279.06 
  "/>
<polyline clip-path="url(#clip480)" style="stroke:#000000; stroke-linecap:butt; stroke-linejoin:round; stroke-width:4; stroke-opacity:1; fill:none" points="
  204.122,390.08 223.02,390.08 
  "/>
<polyline clip-path="url(#clip480)" style="stroke:#000000; stroke-linecap:butt; stroke-linejoin:round; stroke-width:4; stroke-opacity:1; fill:none" points="
  204.122,501.1 223.02,501.1 
  "/>
<path clip-path="url(#clip480)" d="M96.2398 81.7595 L105.788 81.7595 L105.788 48.8025 L95.4007 50.8858 L95.4007 45.5618 L105.731 43.4784 L111.575 43.4784 L111.575 81.7595 L121.124 81.7595 L121.124 86.6784 L96.2398 86.6784 L96.2398 81.7595 Z" fill="#000000" fill-rule="evenodd" fill-opacity="1" /><path clip-path="url(#clip480)" d="M145.429 47.3268 Q140.916 47.3268 138.63 51.7828 Q136.373 56.2099 136.373 65.1218 Q136.373 74.0049 138.63 78.4609 Q140.916 82.888 145.429 82.888 Q149.972 82.888 152.229 78.4609 Q154.515 74.0049 154.515 65.1218 Q154.515 56.2099 152.229 51.7828 Q149.972 47.3268 145.429 47.3268 M145.429 42.6972 Q152.692 42.6972 156.511 48.4553 Q160.36 54.1844 160.36 65.1218 Q160.36 76.0304 156.511 81.7884 Q152.692 87.5176 145.429 87.5176 Q138.167 87.5176 134.318 81.7884 Q130.499 76.0304 130.499 65.1218 Q130.499 54.1844 134.318 48.4553 Q138.167 42.6972 145.429 42.6972 Z" fill="#000000" fill-rule="evenodd" fill-opacity="1" /><path clip-path="url(#clip480)" d="M172.491 20.4422 Q168.823 20.4422 166.966 24.0627 Q165.132 27.6597 165.132 34.9007 Q165.132 42.1182 166.966 45.7387 Q168.823 49.3357 172.491 49.3357 Q176.182 49.3357 178.016 45.7387 Q179.873 42.1182 179.873 34.9007 Q179.873 27.6597 178.016 24.0627 Q176.182 20.4422 172.491 20.4422 M172.491 16.6807 Q178.392 16.6807 181.495 21.3591 Q184.622 26.014 184.622 34.9007 Q184.622 43.7639 181.495 48.4423 Q178.392 53.0972 172.491 53.0972 Q166.59 53.0972 163.463 48.4423 Q160.36 43.7639 160.36 34.9007 Q160.36 26.014 163.463 21.3591 Q166.59 16.6807 172.491 16.6807 Z" fill="#000000" fill-rule="evenodd" fill-opacity="1" /><path clip-path="url(#clip480)" d="M59.4471 192.78 L68.9957 192.78 L68.9957 159.823 L58.608 161.906 L58.608 156.582 L68.9378 154.499 L74.7827 154.499 L74.7827 192.78 L84.3312 192.78 L84.3312 197.699 L59.4471 197.699 L59.4471 192.78 Z" fill="#000000" fill-rule="evenodd" fill-opacity="1" /><path clip-path="url(#clip480)" d="M108.637 158.347 Q104.123 158.347 101.837 162.803 Q99.58 167.23 99.58 176.142 Q99.58 185.025 101.837 189.481 Q104.123 193.908 108.637 193.908 Q113.179 193.908 115.436 189.481 Q117.722 185.025 117.722 176.142 Q117.722 167.23 115.436 162.803 Q113.179 158.347 108.637 158.347 M108.637 153.718 Q115.899 153.718 119.719 159.476 Q123.567 165.205 123.567 176.142 Q123.567 187.051 119.719 192.809 Q115.899 198.538 108.637 198.538 Q101.374 198.538 97.5256 192.809 Q93.7062 187.051 93.7062 176.142 Q93.7062 165.205 97.5256 159.476 Q101.374 153.718 108.637 153.718 Z" fill="#000000" fill-rule="evenodd" fill-opacity="1" /><path clip-path="url(#clip480)" d="M123.567 146.344 L153.707 146.344 L153.707 150.341 L123.567 150.341 L123.567 146.344 Z" fill="#000000" fill-rule="evenodd" fill-opacity="1" /><path clip-path="url(#clip480)" d="M168.048 159.439 L184.622 159.439 L184.622 163.436 L162.335 163.436 L162.335 159.439 Q165.038 156.641 169.693 151.94 Q174.372 147.214 175.571 145.85 Q177.851 143.288 178.744 141.525 Q179.661 139.738 179.661 138.022 Q179.661 135.224 177.686 133.461 Q175.735 131.698 172.585 131.698 Q170.351 131.698 167.859 132.473 Q165.391 133.249 162.57 134.824 L162.57 130.028 Q165.438 128.876 167.93 128.289 Q170.422 127.701 172.491 127.701 Q177.945 127.701 181.189 130.428 Q184.434 133.155 184.434 137.716 Q184.434 139.879 183.611 141.83 Q182.812 143.758 180.672 146.391 Q180.084 147.073 176.934 150.341 Q173.784 153.585 168.048 159.439 Z" fill="#000000" fill-rule="evenodd" fill-opacity="1" /><path clip-path="url(#clip480)" d="M57.3312 303.8 L66.8798 303.8 L66.8798 270.843 L56.4921 272.926 L56.4921 267.602 L66.8219 265.519 L72.6668 265.519 L72.6668 303.8 L82.2154 303.8 L82.2154 308.719 L57.3312 308.719 L57.3312 303.8 Z" fill="#000000" fill-rule="evenodd" fill-opacity="1" /><path clip-path="url(#clip480)" d="M106.521 269.367 Q102.007 269.367 99.7211 273.823 Q97.4641 278.25 97.4641 287.162 Q97.4641 296.046 99.7211 300.502 Q102.007 304.929 106.521 304.929 Q111.064 304.929 113.321 300.502 Q115.606 296.046 115.606 287.162 Q115.606 278.25 113.321 273.823 Q111.064 269.367 106.521 269.367 M106.521 264.738 Q113.783 264.738 117.603 270.496 Q121.451 276.225 121.451 287.162 Q121.451 298.071 117.603 303.829 Q113.783 309.558 106.521 309.558 Q99.2581 309.558 95.4097 303.829 Q91.5903 298.071 91.5903 287.162 Q91.5903 276.225 95.4097 270.496 Q99.2581 264.738 106.521 264.738 Z" fill="#000000" fill-rule="evenodd" fill-opacity="1" /><path clip-path="url(#clip480)" d="M121.451 257.365 L151.591 257.365 L151.591 261.361 L121.451 261.361 L121.451 257.365 Z" fill="#000000" fill-rule="evenodd" fill-opacity="1" /><path clip-path="url(#clip480)" d="M174.889 243.494 L162.899 262.231 L174.889 262.231 L174.889 243.494 M173.643 239.356 L179.614 239.356 L179.614 262.231 L184.622 262.231 L184.622 266.181 L179.614 266.181 L179.614 274.456 L174.889 274.456 L174.889 266.181 L159.043 266.181 L159.043 261.596 L173.643 239.356 Z" fill="#000000" fill-rule="evenodd" fill-opacity="1" /><path clip-path="url(#clip480)" d="M57.6604 414.82 L67.2089 414.82 L67.2089 381.863 L56.8213 383.947 L56.8213 378.623 L67.1511 376.539 L72.9959 376.539 L72.9959 414.82 L82.5445 414.82 L82.5445 419.739 L57.6604 419.739 L57.6604 414.82 Z" fill="#000000" fill-rule="evenodd" fill-opacity="1" /><path clip-path="url(#clip480)" d="M106.85 380.388 Q102.336 380.388 100.05 384.844 Q97.7933 389.271 97.7933 398.183 Q97.7933 407.066 100.05 411.522 Q102.336 415.949 106.85 415.949 Q111.393 415.949 113.65 411.522 Q115.936 407.066 115.936 398.183 Q115.936 389.271 113.65 384.844 Q111.393 380.388 106.85 380.388 M106.85 375.758 Q114.113 375.758 117.932 381.516 Q121.78 387.245 121.78 398.183 Q121.78 409.091 117.932 414.849 Q114.113 420.578 106.85 420.578 Q99.5872 420.578 95.7389 414.849 Q91.9195 409.091 91.9195 398.183 Q91.9195 387.245 95.7389 381.516 Q99.5872 375.758 106.85 375.758 Z" fill="#000000" fill-rule="evenodd" fill-opacity="1" /><path clip-path="url(#clip480)" d="M121.78 368.385 L151.92 368.385 L151.92 372.381 L121.78 372.381 L121.78 368.385 Z" fill="#000000" fill-rule="evenodd" fill-opacity="1" /><path clip-path="url(#clip480)" d="M172.914 366.034 Q169.717 366.034 167.836 368.22 Q165.979 370.407 165.979 374.215 Q165.979 378 167.836 380.21 Q169.717 382.397 172.914 382.397 Q176.111 382.397 177.969 380.21 Q179.849 378 179.849 374.215 Q179.849 370.407 177.969 368.22 Q176.111 366.034 172.914 366.034 M182.341 351.152 L182.341 355.478 Q180.555 354.632 178.721 354.185 Q176.911 353.738 175.124 353.738 Q170.422 353.738 167.93 356.912 Q165.461 360.086 165.109 366.504 Q166.496 364.459 168.588 363.377 Q170.681 362.272 173.196 362.272 Q178.486 362.272 181.542 365.493 Q184.622 368.69 184.622 374.215 Q184.622 379.622 181.425 382.89 Q178.227 386.158 172.914 386.158 Q166.825 386.158 163.604 381.503 Q160.383 376.825 160.383 367.962 Q160.383 359.639 164.333 354.702 Q168.283 349.742 174.936 349.742 Q176.723 349.742 178.533 350.094 Q180.367 350.447 182.341 351.152 Z" fill="#000000" fill-rule="evenodd" fill-opacity="1" /><path clip-path="url(#clip480)" d="M57.919 525.841 L67.4675 525.841 L67.4675 492.884 L57.0799 494.967 L57.0799 489.643 L67.4097 487.56 L73.2546 487.56 L73.2546 525.841 L82.8031 525.841 L82.8031 530.76 L57.919 530.76 L57.919 525.841 Z" fill="#000000" fill-rule="evenodd" fill-opacity="1" /><path clip-path="url(#clip480)" d="M107.109 491.408 Q102.595 491.408 100.309 495.864 Q98.0519 500.291 98.0519 509.203 Q98.0519 518.086 100.309 522.542 Q102.595 526.969 107.109 526.969 Q111.651 526.969 113.908 522.542 Q116.194 518.086 116.194 509.203 Q116.194 500.291 113.908 495.864 Q111.651 491.408 107.109 491.408 M107.109 486.778 Q114.371 486.778 118.191 492.537 Q122.039 498.266 122.039 509.203 Q122.039 520.112 118.191 525.87 Q114.371 531.599 107.109 531.599 Q99.8458 531.599 95.9975 525.87 Q92.1781 520.112 92.1781 509.203 Q92.1781 498.266 95.9975 492.537 Q99.8458 486.778 107.109 486.778 Z" fill="#000000" fill-rule="evenodd" fill-opacity="1" /><path clip-path="url(#clip480)" d="M122.039 479.405 L152.178 479.405 L152.178 483.402 L122.039 483.402 L122.039 479.405 Z" fill="#000000" fill-rule="evenodd" fill-opacity="1" /><path clip-path="url(#clip480)" d="M172.585 479.828 Q169.199 479.828 167.248 481.639 Q165.32 483.449 165.32 486.623 Q165.32 489.796 167.248 491.607 Q169.199 493.417 172.585 493.417 Q175.97 493.417 177.922 491.607 Q179.873 489.773 179.873 486.623 Q179.873 483.449 177.922 481.639 Q175.994 479.828 172.585 479.828 M167.836 477.806 Q164.78 477.054 163.063 474.962 Q161.371 472.869 161.371 469.86 Q161.371 465.652 164.356 463.207 Q167.366 460.762 172.585 460.762 Q177.828 460.762 180.813 463.207 Q183.799 465.652 183.799 469.86 Q183.799 472.869 182.083 474.962 Q180.39 477.054 177.357 477.806 Q180.79 478.606 182.694 480.933 Q184.622 483.261 184.622 486.623 Q184.622 491.724 181.495 494.451 Q178.392 497.178 172.585 497.178 Q166.778 497.178 163.651 494.451 Q160.548 491.724 160.548 486.623 Q160.548 483.261 162.476 480.933 Q164.404 478.606 167.836 477.806 M166.096 470.307 Q166.096 473.034 167.789 474.562 Q169.505 476.09 172.585 476.09 Q175.641 476.09 177.357 474.562 Q179.097 473.034 179.097 470.307 Q179.097 467.58 177.357 466.052 Q175.641 464.523 172.585 464.523 Q169.505 464.523 167.789 466.052 Q166.096 467.58 166.096 470.307 Z" fill="#000000" fill-rule="evenodd" fill-opacity="1" /><polyline clip-path="url(#clip482)" style="stroke:#2000d4; stroke-linecap:butt; stroke-linejoin:round; stroke-width:16; stroke-opacity:1; fill:none" stroke-dasharray="8, 16" points="
  218.011,542.242 224.956,511.432 231.9,487.739 238.845,467.02 245.789,447.988 252.734,430.114 259.679,413.183 266.623,397.176 273.568,382.23 280.512,368.622 
  287.457,356.708 294.402,346.8 301.346,339.003 308.291,333.14 315.235,328.828 322.18,325.638 329.125,323.202 336.069,321.255 343.014,319.624 349.958,318.201 
  356.903,316.918 363.848,315.735 370.792,314.628 377.737,313.581 384.681,312.584 391.626,311.632 398.571,310.717 405.515,309.838 412.46,308.991 419.404,308.173 
  426.349,307.382 433.294,306.617 440.238,305.875 447.183,305.155 454.127,304.456 461.072,303.777 468.017,303.116 474.961,302.474 481.906,301.847 488.85,301.237 
  495.795,300.642 502.74,300.061 509.684,299.493 516.629,298.939 523.573,298.398 530.518,297.868 537.462,297.349 544.407,296.842 551.352,296.345 558.296,295.858 
  565.241,295.38 572.185,294.912 579.13,294.453 586.075,294.002 593.019,293.56 599.964,293.126 606.908,292.699 613.853,292.28 620.798,291.868 627.742,291.462 
  634.687,291.064 641.631,290.672 648.576,290.286 655.521,289.907 662.465,289.533 669.41,289.165 676.354,288.802 683.299,288.445 690.244,288.093 697.188,287.746 
  704.133,287.404 711.077,287.067 718.022,286.735 724.967,286.407 731.911,286.083 738.856,285.764 745.8,285.449 752.745,285.138 759.69,284.83 766.634,284.527 
  773.579,284.228 780.523,283.932 787.468,283.64 794.413,283.351 801.357,283.066 808.302,282.784 815.246,282.505 822.191,282.23 829.136,281.957 836.08,281.688 
  843.025,281.421 849.969,281.158 856.914,280.897 863.859,280.64 870.803,280.384 877.748,280.132 884.692,279.882 891.637,279.635 898.581,279.39 905.526,279.148 
  912.471,278.908 919.415,278.671 926.36,278.435 933.304,278.202 940.249,277.972 947.194,277.743 954.138,277.517 961.083,277.293 968.027,277.071 974.972,276.85 
  981.917,276.632 988.861,276.416 995.806,276.202 1002.75,275.989 1009.7,275.779 1016.64,275.57 1023.58,275.363 1030.53,275.158 1037.47,274.955 1044.42,274.753 
  1051.36,274.553 1058.31,274.354 1065.25,274.158 1072.2,273.962 1079.14,273.769 1086.09,273.577 1093.03,273.386 1099.97,273.197 1106.92,273.009 1113.86,272.823 
  1120.81,272.639 1127.75,272.455 1134.7,272.273 1141.64,272.093 1148.59,271.914 1155.53,271.736 1162.48,271.559 1169.42,271.384 1176.37,271.21 1183.31,271.037 
  1190.25,270.865 1197.2,270.695 1204.14,270.526 1211.09,270.358 1218.03,270.191 1224.98,270.025 1231.92,269.861 1238.87,269.697 1245.81,269.535 1252.76,269.374 
  
  "/>
<polyline clip-path="url(#clip482)" style="stroke:#008900; stroke-linecap:butt; stroke-linejoin:round; stroke-width:16; stroke-opacity:1; fill:none" stroke-dasharray="64, 40" points="
  218.011,426.908 224.956,402.154 231.9,383.784 238.845,367.749 245.789,352.828 252.734,338.531 259.679,324.659 266.623,311.167 273.568,298.131 280.512,285.739 
  287.457,274.288 294.402,264.14 301.346,255.609 308.291,248.783 315.235,243.404 322.18,238.903 329.125,234.555 336.069,229.67 343.014,223.785 349.958,216.805 
  356.903,208.997 363.848,200.809 370.792,192.667 377.737,184.886 384.681,177.688 391.626,171.239 398.571,165.648 405.515,160.961 412.46,157.154 419.404,154.145 
  426.349,151.809 433.294,150.007 440.238,148.604 447.183,147.483 454.127,146.553 461.072,145.747 468.017,145.017 474.961,144.332 481.906,143.672 488.85,143.022 
  495.795,142.374 502.74,141.721 509.684,141.059 516.629,140.385 523.573,139.697 530.518,138.994 537.462,138.273 544.407,137.534 551.352,136.776 558.296,135.997 
  565.241,135.195 572.185,134.371 579.13,133.523 586.075,132.648 593.019,131.747 599.964,130.816 606.908,129.855 613.853,128.862 620.798,127.834 627.742,126.77 
  634.687,125.667 641.631,124.522 648.576,123.334 655.521,122.099 662.465,120.813 669.41,119.475 676.354,118.078 683.299,116.621 690.244,115.098 697.188,113.506 
  704.133,111.839 711.077,110.092 718.022,108.262 724.967,106.342 731.911,104.328 738.856,102.217 745.8,100.006 752.745,97.6942 759.69,95.2834 766.634,92.7797 
  773.579,90.1941 780.523,87.5444 787.468,84.8563 794.413,82.1639 801.357,79.5092 808.302,76.9396 815.246,74.5037 822.191,72.2452 829.136,70.1976 836.08,68.3803 
  843.025,66.7977 849.969,65.4407 856.914,64.2908 863.859,63.3243 870.803,62.5155 877.748,61.8399 884.692,61.275 891.637,60.8015 898.581,60.4029 905.526,60.0657 
  912.471,59.7789 919.415,59.5335 926.36,59.3222 933.304,59.1392 940.249,58.9798 947.194,58.84 954.138,58.7168 961.083,58.6077 968.027,58.5105 974.972,58.4235 
  981.917,58.3453 988.861,58.2748 995.806,58.2108 1002.75,58.1526 1009.7,58.0995 1016.64,58.0509 1023.58,58.0062 1030.53,57.965 1037.47,57.9269 1044.42,57.8916 
  1051.36,57.8589 1058.31,57.8283 1065.25,57.7999 1072.2,57.7733 1079.14,57.7483 1086.09,57.7249 1093.03,57.7029 1099.97,57.6822 1106.92,57.6627 1113.86,57.6442 
  1120.81,57.6267 1127.75,57.6102 1134.7,57.5945 1141.64,57.5796 1148.59,57.5654 1155.53,57.5519 1162.48,57.539 1169.42,57.5267 1176.37,57.515 1183.31,57.5038 
  1190.25,57.4931 1197.2,57.4828 1204.14,57.4729 1211.09,57.4635 1218.03,57.4544 1224.98,57.4457 1231.92,57.4373 1238.87,57.4292 1245.81,57.4215 1252.76,57.414 
  
  "/>
<polyline clip-path="url(#clip482)" style="stroke:#008900; stroke-linecap:butt; stroke-linejoin:round; stroke-width:16; stroke-opacity:1; fill:none" stroke-dasharray="8, 16" points="
  218.011,426.911 224.956,403.116 231.9,385.464 238.845,369.945 245.789,355.386 252.734,341.336 259.679,327.631 266.623,314.258 273.568,301.316 280.512,289.016 
  287.457,277.682 294.402,267.713 301.346,259.477 308.291,253.151 315.235,248.616 322.18,245.503 329.125,243.34 336.069,241.675 343.014,240.14 349.958,238.48 
  356.903,236.588 363.848,234.512 370.792,232.404 377.737,230.426 384.681,228.688 391.626,227.244 398.571,226.103 405.515,225.242 412.46,224.617 419.404,224.178 
  426.349,223.875 433.294,223.669 440.238,223.527 447.183,223.428 454.127,223.356 461.072,223.302 468.017,223.258 474.961,223.222 481.906,223.191 488.85,223.162 
  495.795,223.135 502.74,223.109 509.684,223.084 516.629,223.06 523.573,223.036 530.518,223.012 537.462,222.988 544.407,222.964 551.352,222.941 558.296,222.917 
  565.241,222.894 572.185,222.87 579.13,222.847 586.075,222.824 593.019,222.8 599.964,222.777 606.908,222.754 613.853,222.731 620.798,222.707 627.742,222.684 
  634.687,222.661 641.631,222.638 648.576,222.615 655.521,222.592 662.465,222.569 669.41,222.546 676.354,222.523 683.299,222.5 690.244,222.477 697.188,222.454 
  704.133,222.431 711.077,222.408 718.022,222.385 724.967,222.363 731.911,222.34 738.856,222.317 745.8,222.295 752.745,222.272 759.69,222.25 766.634,222.228 
  773.579,222.206 780.523,222.183 787.468,222.161 794.413,222.14 801.357,222.118 808.302,222.096 815.246,222.074 822.191,222.053 829.136,222.031 836.08,222.01 
  843.025,221.988 849.969,221.966 856.914,221.945 863.859,221.923 870.803,221.901 877.748,221.879 884.692,221.857 891.637,221.835 898.581,221.813 905.526,221.79 
  912.471,221.768 919.415,221.746 926.36,221.724 933.304,221.702 940.249,221.68 947.194,221.658 954.138,221.635 961.083,221.613 968.027,221.591 974.972,221.569 
  981.917,221.547 988.861,221.525 995.806,221.503 1002.75,221.481 1009.7,221.459 1016.64,221.437 1023.58,221.415 1030.53,221.393 1037.47,221.371 1044.42,221.349 
  1051.36,221.327 1058.31,221.305 1065.25,221.283 1072.2,221.261 1079.14,221.239 1086.09,221.217 1093.03,221.195 1099.97,221.174 1106.92,221.152 1113.86,221.13 
  1120.81,221.108 1127.75,221.087 1134.7,221.065 1141.64,221.043 1148.59,221.021 1155.53,221 1162.48,220.978 1169.42,220.957 1176.37,220.935 1183.31,220.913 
  1190.25,220.892 1197.2,220.87 1204.14,220.849 1211.09,220.827 1218.03,220.806 1224.98,220.784 1231.92,220.763 1238.87,220.741 1245.81,220.72 1252.76,220.698 
  
  "/>
<polyline clip-path="url(#clip482)" style="stroke:#2000d4; stroke-linecap:butt; stroke-linejoin:round; stroke-width:16; stroke-opacity:1; fill:none" stroke-dasharray="64, 40" points="
  218.011,542.242 224.956,514.187 231.9,493.722 238.845,476.363 245.789,460.647 252.734,445.948 259.679,432.005 266.623,418.781 273.568,406.414 280.512,395.188 
  287.457,385.476 294.402,377.603 301.346,371.688 308.291,367.564 315.235,364.855 322.18,363.127 329.125,361.998 336.069,361.168 343.014,360.405 349.958,359.517 
  356.903,358.338 363.848,356.75 370.792,354.711 377.737,352.273 384.681,349.551 391.626,346.682 398.571,343.792 405.515,340.977 412.46,338.302 419.404,335.799 
  426.349,333.477 433.294,331.328 440.238,329.34 447.183,327.494 454.127,325.775 461.072,324.167 468.017,322.659 474.961,321.238 481.906,319.896 488.85,318.624 
  495.795,317.416 502.74,316.265 509.684,315.166 516.629,314.116 523.573,313.109 530.518,312.142 537.462,311.213 544.407,310.318 551.352,309.456 558.296,308.623 
  565.241,307.818 572.185,307.038 579.13,306.284 586.075,305.552 593.019,304.842 599.964,304.152 606.908,303.481 613.853,302.828 620.798,302.193 627.742,301.574 
  634.687,300.971 641.631,300.382 648.576,299.807 655.521,299.246 662.465,298.697 669.41,298.161 676.354,297.636 683.299,297.122 690.244,296.619 697.188,296.127 
  704.133,295.644 711.077,295.171 718.022,294.707 724.967,294.252 731.911,293.805 738.856,293.366 745.8,292.935 752.745,292.512 759.69,292.096 766.634,291.687 
  773.579,291.284 780.523,290.889 787.468,290.5 794.413,290.117 801.357,289.74 808.302,289.368 815.246,289.003 822.191,288.643 829.136,288.288 836.08,287.938 
  843.025,287.594 849.969,287.254 856.914,286.919 863.859,286.588 870.803,286.262 877.748,285.941 884.692,285.623 891.637,285.31 898.581,285.001 905.526,284.695 
  912.471,284.394 919.415,284.096 926.36,283.802 933.304,283.511 940.249,283.224 947.194,282.94 954.138,282.66 961.083,282.382 968.027,282.108 974.972,281.837 
  981.917,281.569 988.861,281.304 995.806,281.042 1002.75,280.782 1009.7,280.526 1016.64,280.272 1023.58,280.021 1030.53,279.772 1037.47,279.526 1044.42,279.282 
  1051.36,279.041 1058.31,278.802 1065.25,278.566 1072.2,278.332 1079.14,278.1 1086.09,277.87 1093.03,277.642 1099.97,277.417 1106.92,277.194 1113.86,276.972 
  1120.81,276.753 1127.75,276.536 1134.7,276.321 1141.64,276.107 1148.59,275.896 1155.53,275.686 1162.48,275.478 1169.42,275.272 1176.37,275.067 1183.31,274.865 
  1190.25,274.664 1197.2,274.464 1204.14,274.267 1211.09,274.071 1218.03,273.876 1224.98,273.683 1231.92,273.492 1238.87,273.302 1245.81,273.113 1252.76,272.927 
  
  "/>
<polyline clip-path="url(#clip482)" style="stroke:#000000; stroke-linecap:butt; stroke-linejoin:round; stroke-width:16; stroke-opacity:1; fill:none" stroke-dasharray="8, 16" points="
  211.066,57.0189 218.011,57.0428 224.956,57.0663 231.9,57.1047 238.845,57.1723 245.789,57.2914 252.734,57.5013 259.679,57.8693 266.623,58.5096 273.568,59.6101 
  280.512,61.4627 287.457,64.4836 294.402,69.1911 301.346,76.1202 308.291,85.725 315.235,98.3996 322.18,114.693 329.125,135.588 336.069,162.531 343.014,196.886 
  349.958,239.074 356.903,288.331 363.848,343.265 370.792,402.475 377.737,464.796 384.681,529.313 391.626,595.318 398.571,662.288 405.515,729.855 412.46,797.78 
  419.404,865.915 426.349,934.171 433.294,1002.5 440.238,1070.87 447.183,1139.26 454.127,1207.67 461.072,1276.08 468.017,1344.5 474.961,1412.91 481.906,1481.33 
  488.85,1549.74 495.795,1618.15 502.74,1686.55 509.684,1754.95 516.629,1823.34 523.573,1891.73 530.518,1960.11 537.462,2028.48 544.407,2096.84 551.352,2165.19 
  558.296,2233.54 565.241,2301.87 572.185,2370.2 579.13,2438.51 586.075,2506.8 593.019,2575.09 599.964,2643.35 606.908,2711.6 613.853,2779.83 620.798,2848.03 
  627.742,2916.21 634.687,2984.36 641.631,3052.48 648.576,3120.56 655.521,3188.61 662.465,3256.6 669.41,3324.54 676.354,3392.42 683.299,3460.22 690.244,3527.94 
  697.188,3595.56 704.133,3663.06 711.077,3730.43 718.022,3797.62 724.967,3864.61 731.911,3931.36 738.856,3997.81 745.8,4063.9 752.745,4129.54 759.69,4194.63 
  766.634,4259.05 773.579,4322.63 780.523,4385.19 787.468,4446.51 794.413,4506.36 801.357,4564.49 808.302,4620.65 815.246,4674.64 822.191,4726.32 829.136,4775.62 
  836.08,4822.56 843.025,4867.26 849.969,4909.88 856.914,4950.62 863.859,4989.7 870.803,5027.35 877.748,5063.76 884.692,5099.12 891.637,5133.57 898.581,5167.27 
  905.526,5200.31 912.471,5232.8 919.415,5264.81 926.36,5296.42 933.304,5327.67 940.249,5358.62 947.194,5389.29 954.138,5419.73 961.083,5449.97 968.027,5480.01 
  974.972,5509.89 981.917,5539.62 988.861,5569.22 995.806,5598.7 1002.75,5628.07 1009.7,5657.34 1016.64,5686.52 1023.58,5715.61 1030.53,5744.63 1037.47,5773.58 
  1044.42,5802.46 1051.36,5831.28 1058.31,5860.04 1065.25,5888.75 1072.2,5917.41 1079.14,5946.03 1086.09,5974.6 1093.03,6003.13 1099.97,6031.62 1106.92,6060.08 
  1113.86,6088.5 1120.81,6116.89 1127.75,6145.25 1134.7,6173.58 1141.64,6201.88 1148.59,6230.16 1155.53,6258.41 1162.48,6286.64 1169.42,6314.84 1176.37,6343.02 
  1183.31,6371.18 1190.25,6399.33 1197.2,6427.45 1204.14,6455.55 1211.09,6483.64 1218.03,6511.71 1224.98,6539.76 1231.92,6567.8 1238.87,6595.82 1245.81,6623.83 
  1252.76,6651.82 
  "/>
</svg>
