<?xml version="1.0" encoding="utf-8"?>
<svg xmlns="http://www.w3.org/2000/svg" xmlns:xlink="http://www.w3.org/1999/xlink" width="350" height="150" viewBox="0 0 1400 600">
<defs>
  <clipPath id="clip310">
    <rect x="0" y="0" width="1400" height="600"/>
  </clipPath>
</defs>
<path clip-path="url(#clip310)" d="
M0 600 L1400 600 L1400 0 L0 0  Z
  " fill="#ffffff" fill-rule="evenodd" fill-opacity="1"/>
<defs>
  <clipPath id="clip311">
    <rect x="280" y="0" width="981" height="600"/>
  </clipPath>
</defs>
<path clip-path="url(#clip310)" d="
M201.094 503.236 L1352.76 503.236 L1352.76 47.2441 L201.094 47.2441  Z
  " fill="#ffffff" fill-rule="evenodd" fill-opacity="1"/>
<defs>
  <clipPath id="clip312">
    <rect x="201" y="47" width="1153" height="457"/>
  </clipPath>
</defs>
<polyline clip-path="url(#clip310)" style="stroke:#000000; stroke-linecap:butt; stroke-linejoin:round; stroke-width:4; stroke-opacity:1; fill:none" points="
  201.094,503.236 1352.76,503.236 
  "/>
<polyline clip-path="url(#clip310)" style="stroke:#000000; stroke-linecap:butt; stroke-linejoin:round; stroke-width:4; stroke-opacity:1; fill:none" points="
  201.094,503.236 201.094,484.339 
  "/>
<polyline clip-path="url(#clip310)" style="stroke:#000000; stroke-linecap:butt; stroke-linejoin:round; stroke-width:4; stroke-opacity:1; fill:none" points="
  582.439,503.236 582.439,484.339 
  "/>
<polyline clip-path="url(#clip310)" style="stroke:#000000; stroke-linecap:butt; stroke-linejoin:round; stroke-width:4; stroke-opacity:1; fill:none" points="
  963.784,503.236 963.784,484.339 
  "/>
<polyline clip-path="url(#clip310)" style="stroke:#000000; stroke-linecap:butt; stroke-linejoin:round; stroke-width:4; stroke-opacity:1; fill:none" points="
  1345.13,503.236 1345.13,484.339 
  "/>
<path clip-path="url(#clip310)" d="M201.094 529.085 Q196.581 529.085 194.295 533.541 Q192.038 537.968 192.038 546.88 Q192.038 555.763 194.295 560.219 Q196.581 564.646 201.094 564.646 Q205.637 564.646 207.894 560.219 Q210.18 555.763 210.18 546.88 Q210.18 537.968 207.894 533.541 Q205.637 529.085 201.094 529.085 M201.094 524.455 Q208.357 524.455 212.177 530.213 Q216.025 535.942 216.025 546.88 Q216.025 557.788 212.177 563.546 Q208.357 569.276 201.094 569.276 Q193.832 569.276 189.983 563.546 Q186.164 557.788 186.164 546.88 Q186.164 535.942 189.983 530.213 Q193.832 524.455 201.094 524.455 Z" fill="#000000" fill-rule="evenodd" fill-opacity="1" /><path clip-path="url(#clip310)" d="M550.813 525.236 L573.759 525.236 L573.759 530.155 L556.166 530.155 L556.166 540.746 Q557.439 540.312 558.713 540.109 Q559.986 539.878 561.259 539.878 Q568.493 539.878 572.717 543.842 Q576.942 547.806 576.942 554.577 Q576.942 561.55 572.601 565.427 Q568.261 569.276 560.362 569.276 Q557.642 569.276 554.806 568.813 Q552 568.35 548.99 567.424 L548.99 561.55 Q551.595 562.968 554.372 563.662 Q557.15 564.357 560.246 564.357 Q565.252 564.357 568.174 561.724 Q571.097 559.09 571.097 554.577 Q571.097 550.063 568.174 547.43 Q565.252 544.797 560.246 544.797 Q557.902 544.797 555.559 545.317 Q553.244 545.838 550.813 546.938 L550.813 525.236 Z" fill="#000000" fill-rule="evenodd" fill-opacity="1" /><path clip-path="url(#clip310)" d="M600.958 529.085 Q596.444 529.085 594.158 533.541 Q591.901 537.968 591.901 546.88 Q591.901 555.763 594.158 560.219 Q596.444 564.646 600.958 564.646 Q605.501 564.646 607.757 560.219 Q610.043 555.763 610.043 546.88 Q610.043 537.968 607.757 533.541 Q605.501 529.085 600.958 529.085 M600.958 524.455 Q608.22 524.455 612.04 530.213 Q615.888 535.942 615.888 546.88 Q615.888 557.788 612.04 563.546 Q608.22 569.276 600.958 569.276 Q593.695 569.276 589.847 563.546 Q586.027 557.788 586.027 546.88 Q586.027 535.942 589.847 530.213 Q593.695 524.455 600.958 524.455 Z" fill="#000000" fill-rule="evenodd" fill-opacity="1" /><path clip-path="url(#clip310)" d="M913.293 563.517 L922.841 563.517 L922.841 530.56 L912.453 532.644 L912.453 527.32 L922.783 525.236 L928.628 525.236 L928.628 563.517 L938.177 563.517 L938.177 568.436 L913.293 568.436 L913.293 563.517 Z" fill="#000000" fill-rule="evenodd" fill-opacity="1" /><path clip-path="url(#clip310)" d="M962.482 529.085 Q957.968 529.085 955.682 533.541 Q953.425 537.968 953.425 546.88 Q953.425 555.763 955.682 560.219 Q957.968 564.646 962.482 564.646 Q967.025 564.646 969.282 560.219 Q971.568 555.763 971.568 546.88 Q971.568 537.968 969.282 533.541 Q967.025 529.085 962.482 529.085 M962.482 524.455 Q969.745 524.455 973.564 530.213 Q977.413 535.942 977.413 546.88 Q977.413 557.788 973.564 563.546 Q969.745 569.276 962.482 569.276 Q955.219 569.276 951.371 563.546 Q947.552 557.788 947.552 546.88 Q947.552 535.942 951.371 530.213 Q955.219 524.455 962.482 524.455 Z" fill="#000000" fill-rule="evenodd" fill-opacity="1" /><path clip-path="url(#clip310)" d="M1000.18 529.085 Q995.671 529.085 993.385 533.541 Q991.128 537.968 991.128 546.88 Q991.128 555.763 993.385 560.219 Q995.671 564.646 1000.18 564.646 Q1004.73 564.646 1006.98 560.219 Q1009.27 555.763 1009.27 546.88 Q1009.27 537.968 1006.98 533.541 Q1004.73 529.085 1000.18 529.085 M1000.18 524.455 Q1007.45 524.455 1011.27 530.213 Q1015.11 535.942 1015.11 546.88 Q1015.11 557.788 1011.27 563.546 Q1007.45 569.276 1000.18 569.276 Q992.922 569.276 989.073 563.546 Q985.254 557.788 985.254 546.88 Q985.254 535.942 989.073 530.213 Q992.922 524.455 1000.18 524.455 Z" fill="#000000" fill-rule="evenodd" fill-opacity="1" /><path clip-path="url(#clip310)" d="M1294.64 563.517 L1304.19 563.517 L1304.19 530.56 L1293.8 532.644 L1293.8 527.32 L1304.13 525.236 L1309.97 525.236 L1309.97 563.517 L1319.52 563.517 L1319.52 568.436 L1294.64 568.436 L1294.64 563.517 Z" fill="#000000" fill-rule="evenodd" fill-opacity="1" /><path clip-path="url(#clip310)" d="M1331.38 525.236 L1354.33 525.236 L1354.33 530.155 L1336.74 530.155 L1336.74 540.746 Q1338.01 540.312 1339.28 540.109 Q1340.56 539.878 1341.83 539.878 Q1349.06 539.878 1353.29 543.842 Q1357.51 547.806 1357.51 554.577 Q1357.51 561.55 1353.17 565.427 Q1348.83 569.276 1340.93 569.276 Q1338.21 569.276 1335.38 568.813 Q1332.57 568.35 1329.56 567.424 L1329.56 561.55 Q1332.17 562.968 1334.94 563.662 Q1337.72 564.357 1340.82 564.357 Q1345.82 564.357 1348.75 561.724 Q1351.67 559.09 1351.67 554.577 Q1351.67 550.063 1348.75 547.43 Q1345.82 544.797 1340.82 544.797 Q1338.47 544.797 1336.13 545.317 Q1333.82 545.838 1331.38 546.938 L1331.38 525.236 Z" fill="#000000" fill-rule="evenodd" fill-opacity="1" /><path clip-path="url(#clip310)" d="M1381.53 529.085 Q1377.02 529.085 1374.73 533.541 Q1372.47 537.968 1372.47 546.88 Q1372.47 555.763 1374.73 560.219 Q1377.02 564.646 1381.53 564.646 Q1386.07 564.646 1388.33 560.219 Q1390.61 555.763 1390.61 546.88 Q1390.61 537.968 1388.33 533.541 Q1386.07 529.085 1381.53 529.085 M1381.53 524.455 Q1388.79 524.455 1392.61 530.213 Q1396.46 535.942 1396.46 546.88 Q1396.46 557.788 1392.61 563.546 Q1388.79 569.276 1381.53 569.276 Q1374.27 569.276 1370.42 563.546 Q1366.6 557.788 1366.6 546.88 Q1366.6 535.942 1370.42 530.213 Q1374.27 524.455 1381.53 524.455 Z" fill="#000000" fill-rule="evenodd" fill-opacity="1" /><polyline clip-path="url(#clip310)" style="stroke:#000000; stroke-linecap:butt; stroke-linejoin:round; stroke-width:4; stroke-opacity:1; fill:none" points="
  201.094,503.236 201.094,47.2441 
  "/>
<polyline clip-path="url(#clip310)" style="stroke:#000000; stroke-linecap:butt; stroke-linejoin:round; stroke-width:4; stroke-opacity:1; fill:none" points="
  201.094,489.913 219.992,489.913 
  "/>
<polyline clip-path="url(#clip310)" style="stroke:#000000; stroke-linecap:butt; stroke-linejoin:round; stroke-width:4; stroke-opacity:1; fill:none" points="
  201.094,382.469 219.992,382.469 
  "/>
<polyline clip-path="url(#clip310)" style="stroke:#000000; stroke-linecap:butt; stroke-linejoin:round; stroke-width:4; stroke-opacity:1; fill:none" points="
  201.094,275.025 219.992,275.025 
  "/>
<polyline clip-path="url(#clip310)" style="stroke:#000000; stroke-linecap:butt; stroke-linejoin:round; stroke-width:4; stroke-opacity:1; fill:none" points="
  201.094,167.581 219.992,167.581 
  "/>
<polyline clip-path="url(#clip310)" style="stroke:#000000; stroke-linecap:butt; stroke-linejoin:round; stroke-width:4; stroke-opacity:1; fill:none" points="
  201.094,60.1374 219.992,60.1374 
  "/>
<path clip-path="url(#clip310)" d="M70.9226 472.162 Q66.4087 472.162 64.1229 476.618 Q61.8659 481.045 61.8659 489.957 Q61.8659 498.84 64.1229 503.296 Q66.4087 507.723 70.9226 507.723 Q75.4654 507.723 77.7223 503.296 Q80.0082 498.84 80.0082 489.957 Q80.0082 481.045 77.7223 476.618 Q75.4654 472.162 70.9226 472.162 M70.9226 467.532 Q78.1853 467.532 82.0047 473.29 Q85.8531 479.019 85.8531 489.957 Q85.8531 500.865 82.0047 506.623 Q78.1853 512.353 70.9226 512.353 Q63.6599 512.353 59.8115 506.623 Q55.9921 500.865 55.9921 489.957 Q55.9921 479.019 59.8115 473.29 Q63.6599 467.532 70.9226 467.532 Z" fill="#000000" fill-rule="evenodd" fill-opacity="1" /><path clip-path="url(#clip310)" d="M96.125 504.164 L102.23 504.164 L102.23 511.513 L96.125 511.513 L96.125 504.164 Z" fill="#000000" fill-rule="evenodd" fill-opacity="1" /><path clip-path="url(#clip310)" d="M127.462 472.162 Q122.948 472.162 120.662 476.618 Q118.405 481.045 118.405 489.957 Q118.405 498.84 120.662 503.296 Q122.948 507.723 127.462 507.723 Q132.004 507.723 134.261 503.296 Q136.547 498.84 136.547 489.957 Q136.547 481.045 134.261 476.618 Q132.004 472.162 127.462 472.162 M127.462 467.532 Q134.724 467.532 138.544 473.29 Q142.392 479.019 142.392 489.957 Q142.392 500.865 138.544 506.623 Q134.724 512.353 127.462 512.353 Q120.199 512.353 116.351 506.623 Q112.531 500.865 112.531 489.957 Q112.531 479.019 116.351 473.29 Q120.199 467.532 127.462 467.532 Z" fill="#000000" fill-rule="evenodd" fill-opacity="1" /><path clip-path="url(#clip310)" d="M165.164 472.162 Q160.65 472.162 158.364 476.618 Q156.107 481.045 156.107 489.957 Q156.107 498.84 158.364 503.296 Q160.65 507.723 165.164 507.723 Q169.707 507.723 171.964 503.296 Q174.25 498.84 174.25 489.957 Q174.25 481.045 171.964 476.618 Q169.707 472.162 165.164 472.162 M165.164 467.532 Q172.427 467.532 176.246 473.29 Q180.094 479.019 180.094 489.957 Q180.094 500.865 176.246 506.623 Q172.427 512.353 165.164 512.353 Q157.901 512.353 154.053 506.623 Q150.234 500.865 150.234 489.957 Q150.234 479.019 154.053 473.29 Q157.901 467.532 165.164 467.532 Z" fill="#000000" fill-rule="evenodd" fill-opacity="1" /><path clip-path="url(#clip310)" d="M72.1668 364.718 Q67.6529 364.718 65.3671 369.174 Q63.1101 373.601 63.1101 382.513 Q63.1101 391.396 65.3671 395.852 Q67.6529 400.279 72.1668 400.279 Q76.7096 400.279 78.9665 395.852 Q81.2524 391.396 81.2524 382.513 Q81.2524 373.601 78.9665 369.174 Q76.7096 364.718 72.1668 364.718 M72.1668 360.088 Q79.4295 360.088 83.2489 365.846 Q87.0973 371.575 87.0973 382.513 Q87.0973 393.421 83.2489 399.179 Q79.4295 404.909 72.1668 404.909 Q64.9041 404.909 61.0558 399.179 Q57.2363 393.421 57.2363 382.513 Q57.2363 371.575 61.0558 365.846 Q64.9041 360.088 72.1668 360.088 Z" fill="#000000" fill-rule="evenodd" fill-opacity="1" /><path clip-path="url(#clip310)" d="M97.3692 396.72 L103.475 396.72 L103.475 404.069 L97.3692 404.069 L97.3692 396.72 Z" fill="#000000" fill-rule="evenodd" fill-opacity="1" /><path clip-path="url(#clip310)" d="M121.241 399.15 L141.64 399.15 L141.64 404.069 L114.209 404.069 L114.209 399.15 Q117.537 395.707 123.266 389.92 Q129.024 384.104 130.5 382.426 Q133.307 379.272 134.406 377.102 Q135.535 374.903 135.535 372.791 Q135.535 369.347 133.104 367.177 Q130.702 365.007 126.825 365.007 Q124.076 365.007 121.009 365.962 Q117.971 366.917 114.499 368.855 L114.499 362.953 Q118.029 361.535 121.096 360.812 Q124.163 360.088 126.709 360.088 Q133.422 360.088 137.415 363.445 Q141.408 366.801 141.408 372.414 Q141.408 375.076 140.396 377.478 Q139.412 379.851 136.779 383.091 Q136.055 383.931 132.178 387.953 Q128.301 391.946 121.241 399.15 Z" fill="#000000" fill-rule="evenodd" fill-opacity="1" /><path clip-path="url(#clip310)" d="M153.966 360.869 L176.912 360.869 L176.912 365.788 L159.319 365.788 L159.319 376.379 Q160.592 375.945 161.865 375.742 Q163.139 375.511 164.412 375.511 Q171.645 375.511 175.87 379.475 Q180.094 383.439 180.094 390.21 Q180.094 397.183 175.754 401.06 Q171.414 404.909 163.515 404.909 Q160.795 404.909 157.959 404.446 Q155.152 403.983 152.143 403.057 L152.143 397.183 Q154.747 398.601 157.525 399.295 Q160.303 399.99 163.399 399.99 Q168.405 399.99 171.327 397.356 Q174.25 394.723 174.25 390.21 Q174.25 385.696 171.327 383.063 Q168.405 380.429 163.399 380.429 Q161.055 380.429 158.711 380.95 Q156.397 381.471 153.966 382.571 L153.966 360.869 Z" fill="#000000" fill-rule="evenodd" fill-opacity="1" /><path clip-path="url(#clip310)" d="M70.9226 257.274 Q66.4087 257.274 64.1229 261.73 Q61.8659 266.157 61.8659 275.069 Q61.8659 283.952 64.1229 288.408 Q66.4087 292.835 70.9226 292.835 Q75.4654 292.835 77.7223 288.408 Q80.0082 283.952 80.0082 275.069 Q80.0082 266.157 77.7223 261.73 Q75.4654 257.274 70.9226 257.274 M70.9226 252.644 Q78.1853 252.644 82.0047 258.402 Q85.8531 264.131 85.8531 275.069 Q85.8531 285.977 82.0047 291.735 Q78.1853 297.464 70.9226 297.464 Q63.6599 297.464 59.8115 291.735 Q55.9921 285.977 55.9921 275.069 Q55.9921 264.131 59.8115 258.402 Q63.6599 252.644 70.9226 252.644 Z" fill="#000000" fill-rule="evenodd" fill-opacity="1" /><path clip-path="url(#clip310)" d="M96.125 289.276 L102.23 289.276 L102.23 296.625 L96.125 296.625 L96.125 289.276 Z" fill="#000000" fill-rule="evenodd" fill-opacity="1" /><path clip-path="url(#clip310)" d="M115.02 253.425 L137.965 253.425 L137.965 258.344 L120.373 258.344 L120.373 268.935 Q121.646 268.501 122.919 268.298 Q124.192 268.067 125.465 268.067 Q132.699 268.067 136.923 272.031 Q141.148 275.995 141.148 282.766 Q141.148 289.739 136.808 293.616 Q132.467 297.464 124.568 297.464 Q121.848 297.464 119.013 297.002 Q116.206 296.539 113.197 295.613 L113.197 289.739 Q115.801 291.157 118.579 291.851 Q121.356 292.546 124.452 292.546 Q129.458 292.546 132.381 289.912 Q135.303 287.279 135.303 282.766 Q135.303 278.252 132.381 275.619 Q129.458 272.985 124.452 272.985 Q122.109 272.985 119.765 273.506 Q117.45 274.027 115.02 275.127 L115.02 253.425 Z" fill="#000000" fill-rule="evenodd" fill-opacity="1" /><path clip-path="url(#clip310)" d="M165.164 257.274 Q160.65 257.274 158.364 261.73 Q156.107 266.157 156.107 275.069 Q156.107 283.952 158.364 288.408 Q160.65 292.835 165.164 292.835 Q169.707 292.835 171.964 288.408 Q174.25 283.952 174.25 275.069 Q174.25 266.157 171.964 261.73 Q169.707 257.274 165.164 257.274 M165.164 252.644 Q172.427 252.644 176.246 258.402 Q180.094 264.131 180.094 275.069 Q180.094 285.977 176.246 291.735 Q172.427 297.464 165.164 297.464 Q157.901 297.464 154.053 291.735 Q150.234 285.977 150.234 275.069 Q150.234 264.131 154.053 258.402 Q157.901 252.644 165.164 252.644 Z" fill="#000000" fill-rule="evenodd" fill-opacity="1" /><path clip-path="url(#clip310)" d="M72.1668 149.83 Q67.6529 149.83 65.3671 154.286 Q63.1101 158.713 63.1101 167.625 Q63.1101 176.508 65.3671 180.964 Q67.6529 185.391 72.1668 185.391 Q76.7096 185.391 78.9665 180.964 Q81.2524 176.508 81.2524 167.625 Q81.2524 158.713 78.9665 154.286 Q76.7096 149.83 72.1668 149.83 M72.1668 145.2 Q79.4295 145.2 83.2489 150.958 Q87.0973 156.687 87.0973 167.625 Q87.0973 178.533 83.2489 184.291 Q79.4295 190.02 72.1668 190.02 Q64.9041 190.02 61.0558 184.291 Q57.2363 178.533 57.2363 167.625 Q57.2363 156.687 61.0558 150.958 Q64.9041 145.2 72.1668 145.2 Z" fill="#000000" fill-rule="evenodd" fill-opacity="1" /><path clip-path="url(#clip310)" d="M97.3692 181.832 L103.475 181.832 L103.475 189.181 L97.3692 189.181 L97.3692 181.832 Z" fill="#000000" fill-rule="evenodd" fill-opacity="1" /><path clip-path="url(#clip310)" d="M114.73 145.981 L142.508 145.981 L142.508 148.47 L126.825 189.181 L120.72 189.181 L135.477 150.9 L114.73 150.9 L114.73 145.981 Z" fill="#000000" fill-rule="evenodd" fill-opacity="1" /><path clip-path="url(#clip310)" d="M153.966 145.981 L176.912 145.981 L176.912 150.9 L159.319 150.9 L159.319 161.491 Q160.592 161.057 161.865 160.854 Q163.139 160.623 164.412 160.623 Q171.645 160.623 175.87 164.587 Q180.094 168.551 180.094 175.321 Q180.094 182.295 175.754 186.172 Q171.414 190.02 163.515 190.02 Q160.795 190.02 157.959 189.558 Q155.152 189.095 152.143 188.169 L152.143 182.295 Q154.747 183.713 157.525 184.407 Q160.303 185.102 163.399 185.102 Q168.405 185.102 171.327 182.468 Q174.25 179.835 174.25 175.321 Q174.25 170.808 171.327 168.175 Q168.405 165.541 163.399 165.541 Q161.055 165.541 158.711 166.062 Q156.397 166.583 153.966 167.683 L153.966 145.981 Z" fill="#000000" fill-rule="evenodd" fill-opacity="1" /><path clip-path="url(#clip310)" d="M59.4354 76.8184 L68.984 76.8184 L68.984 43.8614 L58.5963 45.9447 L58.5963 40.6207 L68.9261 38.5374 L74.771 38.5374 L74.771 76.8184 L84.3195 76.8184 L84.3195 81.7374 L59.4354 81.7374 L59.4354 76.8184 Z" fill="#000000" fill-rule="evenodd" fill-opacity="1" /><path clip-path="url(#clip310)" d="M96.125 74.3879 L102.23 74.3879 L102.23 81.7374 L96.125 81.7374 L96.125 74.3879 Z" fill="#000000" fill-rule="evenodd" fill-opacity="1" /><path clip-path="url(#clip310)" d="M127.462 42.3857 Q122.948 42.3857 120.662 46.8417 Q118.405 51.2688 118.405 60.1808 Q118.405 69.0638 120.662 73.5198 Q122.948 77.9469 127.462 77.9469 Q132.004 77.9469 134.261 73.5198 Q136.547 69.0638 136.547 60.1808 Q136.547 51.2688 134.261 46.8417 Q132.004 42.3857 127.462 42.3857 M127.462 37.7561 Q134.724 37.7561 138.544 43.5142 Q142.392 49.2433 142.392 60.1808 Q142.392 71.0893 138.544 76.8474 Q134.724 82.5765 127.462 82.5765 Q120.199 82.5765 116.351 76.8474 Q112.531 71.0893 112.531 60.1808 Q112.531 49.2433 116.351 43.5142 Q120.199 37.7561 127.462 37.7561 Z" fill="#000000" fill-rule="evenodd" fill-opacity="1" /><path clip-path="url(#clip310)" d="M165.164 42.3857 Q160.65 42.3857 158.364 46.8417 Q156.107 51.2688 156.107 60.1808 Q156.107 69.0638 158.364 73.5198 Q160.65 77.9469 165.164 77.9469 Q169.707 77.9469 171.964 73.5198 Q174.25 69.0638 174.25 60.1808 Q174.25 51.2688 171.964 46.8417 Q169.707 42.3857 165.164 42.3857 M165.164 37.7561 Q172.427 37.7561 176.246 43.5142 Q180.094 49.2433 180.094 60.1808 Q180.094 71.0893 176.246 76.8474 Q172.427 82.5765 165.164 82.5765 Q157.901 82.5765 154.053 76.8474 Q150.234 71.0893 150.234 60.1808 Q150.234 49.2433 154.053 43.5142 Q157.901 37.7561 165.164 37.7561 Z" fill="#000000" fill-rule="evenodd" fill-opacity="1" /><polyline clip-path="url(#clip312)" style="stroke:#ff00ff; stroke-linecap:butt; stroke-linejoin:round; stroke-width:16; stroke-opacity:1; fill:none" points="
  208.721,275.133 216.348,275.219 223.975,275.372 231.602,275.645 239.229,276.127 246.856,276.975 254.483,278.461 262.11,281.04 269.737,285.454 277.363,292.817 
  284.99,304.601 292.617,322.258 300.244,346.269 307.871,374.939 315.498,404.289 323.125,429.927 330.752,449.311 338.379,462.244 346.006,469.793 353.632,473.114 
  361.259,472.92 368.886,469.769 376.513,464.921 384.14,460.189 391.767,456.604 399.394,454.229 407.021,452.769 414.648,451.913 422.274,451.424 429.901,451.15 
  437.528,450.996 445.155,450.911 452.782,450.863 460.409,450.836 468.036,450.82 475.663,450.811 483.29,450.806 490.917,450.802 498.543,450.799 506.17,450.797 
  513.797,450.795 521.424,450.793 529.051,450.792 536.678,450.79 544.305,450.788 551.932,450.786 559.559,450.784 567.186,450.782 574.812,450.78 582.439,450.778 
  590.066,450.775 597.693,450.773 605.32,450.77 612.947,450.767 620.574,450.764 628.201,450.761 635.828,450.758 643.454,450.754 651.081,450.751 658.708,450.747 
  666.335,450.742 673.962,450.738 681.589,450.733 689.216,450.728 696.843,450.722 704.47,450.716 712.097,450.71 719.723,450.703 727.35,450.696 734.977,450.688 
  742.604,450.679 750.231,450.67 757.858,450.66 765.485,450.649 773.112,450.637 780.739,450.624 788.366,450.61 795.992,450.595 803.619,450.578 811.246,450.559 
  818.873,450.538 826.5,450.516 834.127,450.49 841.754,450.462 849.381,450.431 857.008,450.396 864.635,450.357 872.261,450.312 879.888,450.262 887.515,450.204 
  895.142,450.139 902.769,450.063 910.396,449.977 918.023,449.876 925.65,449.759 933.277,449.621 940.903,449.459 948.53,449.266 956.157,449.035 963.784,448.758 
  971.411,448.421 979.038,448.01 986.665,447.504 994.292,446.877 1001.92,446.094 1009.55,445.109 1017.17,443.866 1024.8,442.287 1032.43,440.281 1040.05,437.733 
  1047.68,434.512 1055.31,430.48 1062.93,425.509 1070.56,419.507 1078.19,412.458 1085.81,404.443 1093.44,395.654 1101.07,386.377 1108.7,376.942 1116.32,367.674 
  1123.95,358.843 1131.58,350.64 1139.2,343.173 1146.83,336.481 1154.46,330.548 1162.08,325.325 1169.71,320.748 1177.34,316.744 1184.96,313.241 1192.59,310.171 
  1200.22,307.476 1207.84,305.101 1215.47,303.002 1223.1,301.14 1230.73,299.481 1238.35,297.997 1245.98,296.666 1253.61,295.465 1261.23,294.38 1268.86,293.394 
  1276.49,292.497 1284.11,291.676 1291.74,290.924 1299.37,290.233 1306.99,289.596 1314.62,289.007 1322.25,288.461 1329.88,287.953 1337.5,287.481 1345.13,287.041 
  1352.76,286.629 
  "/>
<polyline clip-path="url(#clip312)" style="stroke:#2000d4; stroke-linecap:butt; stroke-linejoin:round; stroke-width:16; stroke-opacity:1; fill:none" stroke-dasharray="8, 16" points="
  208.721,489.913 216.348,489.913 223.975,489.913 231.602,489.913 239.229,489.913 246.856,489.913 254.483,489.913 262.11,489.913 269.737,489.913 277.363,489.913 
  284.99,489.912 292.617,489.912 300.244,489.911 307.871,489.91 315.498,489.909 323.125,489.908 330.752,489.907 338.379,489.907 346.006,489.906 353.632,489.905 
  361.259,489.905 368.886,489.904 376.513,489.904 384.14,489.904 391.767,489.903 399.394,489.903 407.021,489.902 414.648,489.902 422.274,489.901 429.901,489.901 
  437.528,489.901 445.155,489.9 452.782,489.9 460.409,489.899 468.036,489.899 475.663,489.899 483.29,489.898 490.917,489.898 498.543,489.897 506.17,489.897 
  513.797,489.896 521.424,489.896 529.051,489.896 536.678,489.895 544.305,489.895 551.932,489.894 559.559,489.894 567.186,489.893 574.812,489.893 582.439,489.893 
  590.066,489.892 597.693,489.892 605.32,489.891 612.947,489.891 620.574,489.89 628.201,489.89 635.828,489.89 643.454,489.889 651.081,489.889 658.708,489.888 
  666.335,489.888 673.962,489.887 681.589,489.887 689.216,489.887 696.843,489.886 704.47,489.886 712.097,489.885 719.723,489.885 727.35,489.884 734.977,489.884 
  742.604,489.884 750.231,489.883 757.858,489.883 765.485,489.882 773.112,489.882 780.739,489.882 788.366,489.881 795.992,489.881 803.619,489.88 811.246,489.88 
  818.873,489.879 826.5,489.879 834.127,489.879 841.754,489.878 849.381,489.878 857.008,489.877 864.635,489.877 872.261,489.876 879.888,489.876 887.515,489.876 
  895.142,489.875 902.769,489.875 910.396,489.874 918.023,489.874 925.65,489.873 933.277,489.873 940.903,489.873 948.53,489.872 956.157,489.872 963.784,489.871 
  971.411,489.871 979.038,489.87 986.665,489.87 994.292,489.87 1001.92,489.869 1009.55,489.869 1017.17,489.868 1024.8,489.868 1032.43,489.867 1040.05,489.867 
  1047.68,489.867 1055.31,489.866 1062.93,489.866 1070.56,489.865 1078.19,489.865 1085.81,489.865 1093.44,489.864 1101.07,489.864 1108.7,489.863 1116.32,489.863 
  1123.95,489.862 1131.58,489.862 1139.2,489.862 1146.83,489.861 1154.46,489.861 1162.08,489.86 1169.71,489.86 1177.34,489.859 1184.96,489.859 1192.59,489.859 
  1200.22,489.858 1207.84,489.858 1215.47,489.857 1223.1,489.857 1230.73,489.856 1238.35,489.856 1245.98,489.856 1253.61,489.855 1261.23,489.855 1268.86,489.854 
  1276.49,489.854 1284.11,489.853 1291.74,489.853 1299.37,489.853 1306.99,489.852 1314.62,489.852 1322.25,489.851 1329.88,489.851 1337.5,489.85 1345.13,489.85 
  1352.76,489.85 
  "/>
<polyline clip-path="url(#clip312)" style="stroke:#008900; stroke-linecap:butt; stroke-linejoin:round; stroke-width:16; stroke-opacity:1; fill:none" stroke-dasharray="64, 40" points="
  208.721,489.913 216.348,489.913 223.975,489.913 231.602,489.913 239.229,489.912 246.856,489.911 254.483,489.91 262.11,489.907 269.737,489.901 277.363,489.893 
  284.99,489.879 292.617,489.857 300.244,489.828 307.871,489.79 315.498,489.746 323.125,489.698 330.752,489.64 338.379,489.559 346.006,489.432 353.632,489.222 
  361.259,488.885 368.886,488.397 376.513,487.776 384.14,487.067 391.767,486.331 399.394,485.642 407.021,485.055 414.648,484.594 422.274,484.25 429.901,483.998 
  437.528,483.809 445.155,483.66 452.782,483.535 460.409,483.422 468.036,483.315 475.663,483.21 483.29,483.105 490.917,482.999 498.543,482.891 506.17,482.78 
  513.797,482.666 521.424,482.548 529.051,482.427 536.678,482.302 544.305,482.173 551.932,482.04 559.559,481.902 567.186,481.76 574.812,481.612 582.439,481.46 
  590.066,481.302 597.693,481.138 605.32,480.968 612.947,480.792 620.574,480.609 628.201,480.419 635.828,480.222 643.454,480.016 651.081,479.802 658.708,479.579 
  666.335,479.347 673.962,479.104 681.589,478.851 689.216,478.586 696.843,478.309 704.47,478.018 712.097,477.714 719.723,477.395 727.35,477.059 734.977,476.707 
  742.604,476.335 750.231,475.944 757.858,475.531 765.485,475.094 773.112,474.633 780.739,474.143 788.366,473.624 795.992,473.072 803.619,472.485 811.246,471.858 
  818.873,471.189 826.5,470.473 834.127,469.705 841.754,468.88 849.381,467.992 857.008,467.033 864.635,465.996 872.261,464.871 879.888,463.648 887.515,462.314 
  895.142,460.855 902.769,459.255 910.396,457.494 918.023,455.549 925.65,453.394 933.277,450.997 940.903,448.32 948.53,445.319 956.157,441.941 963.784,438.122 
  971.411,433.788 979.038,428.848 986.665,423.198 994.292,416.711 1001.92,409.244 1009.55,400.634 1017.17,390.703 1024.8,379.265 1032.43,366.146 1040.05,351.212 
  1047.68,334.405 1055.31,315.79 1062.93,295.603 1070.56,274.268 1078.19,252.385 1085.81,230.657 1093.44,209.793 1101.07,190.395 1108.7,172.882 1116.32,157.462 
  1123.95,144.156 1131.58,132.843 1139.2,123.319 1146.83,115.347 1154.46,108.688 1162.08,103.121 1169.71,98.454 1177.34,94.524 1184.96,91.1967 1192.59,88.3627 
  1200.22,85.9336 1207.84,83.8382 1215.47,82.0191 1223.1,80.43 1230.73,79.0337 1238.35,77.7998 1245.98,76.7036 1253.61,75.7247 1261.23,74.8465 1268.86,74.055 
  1276.49,73.3387 1284.11,72.6879 1291.74,72.0945 1299.37,71.5515 1306.99,71.053 1314.62,70.594 1322.25,70.1702 1329.88,69.7778 1337.5,69.4135 1345.13,69.0746 
  1352.76,68.7585 
  "/>
<polyline clip-path="url(#clip312)" style="stroke:#008900; stroke-linecap:butt; stroke-linejoin:round; stroke-width:16; stroke-opacity:1; fill:none" stroke-dasharray="8, 16" points="
  208.721,489.913 216.348,489.913 223.975,489.913 231.602,489.913 239.229,489.912 246.856,489.912 254.483,489.91 262.11,489.908 269.737,489.903 277.363,489.896 
  284.99,489.885 292.617,489.867 300.244,489.844 307.871,489.816 315.498,489.786 323.125,489.759 330.752,489.736 338.379,489.717 346.006,489.697 353.632,489.673 
  361.259,489.642 368.886,489.605 376.513,489.57 384.14,489.541 391.767,489.519 399.394,489.504 407.021,489.495 414.648,489.488 422.274,489.485 429.901,489.482 
  437.528,489.481 445.155,489.48 452.782,489.479 460.409,489.478 468.036,489.478 475.663,489.477 483.29,489.477 490.917,489.476 498.543,489.476 506.17,489.476 
  513.797,489.475 521.424,489.475 529.051,489.474 536.678,489.474 544.305,489.473 551.932,489.473 559.559,489.473 567.186,489.472 574.812,489.472 582.439,489.471 
  590.066,489.471 597.693,489.47 605.32,489.47 612.947,489.47 620.574,489.469 628.201,489.469 635.828,489.468 643.454,489.468 651.081,489.467 658.708,489.467 
  666.335,489.467 673.962,489.466 681.589,489.466 689.216,489.465 696.843,489.465 704.47,489.464 712.097,489.464 719.723,489.464 727.35,489.463 734.977,489.463 
  742.604,489.462 750.231,489.462 757.858,489.461 765.485,489.461 773.112,489.461 780.739,489.46 788.366,489.46 795.992,489.459 803.619,489.459 811.246,489.458 
  818.873,489.458 826.5,489.458 834.127,489.457 841.754,489.457 849.381,489.456 857.008,489.456 864.635,489.455 872.261,489.455 879.888,489.455 887.515,489.454 
  895.142,489.454 902.769,489.453 910.396,489.453 918.023,489.452 925.65,489.452 933.277,489.452 940.903,489.451 948.53,489.451 956.157,489.45 963.784,489.45 
  971.411,489.449 979.038,489.449 986.665,489.449 994.292,489.448 1001.92,489.448 1009.55,489.447 1017.17,489.447 1024.8,489.446 1032.43,489.446 1040.05,489.446 
  1047.68,489.445 1055.31,489.445 1062.93,489.444 1070.56,489.444 1078.19,489.444 1085.81,489.443 1093.44,489.443 1101.07,489.442 1108.7,489.442 1116.32,489.442 
  1123.95,489.441 1131.58,489.441 1139.2,489.44 1146.83,489.44 1154.46,489.439 1162.08,489.439 1169.71,489.439 1177.34,489.438 1184.96,489.438 1192.59,489.437 
  1200.22,489.437 1207.84,489.436 1215.47,489.436 1223.1,489.436 1230.73,489.435 1238.35,489.435 1245.98,489.434 1253.61,489.434 1261.23,489.433 1268.86,489.433 
  1276.49,489.433 1284.11,489.432 1291.74,489.432 1299.37,489.431 1306.99,489.431 1314.62,489.43 1322.25,489.43 1329.88,489.43 1337.5,489.429 1345.13,489.429 
  1352.76,489.428 
  "/>
<polyline clip-path="url(#clip312)" style="stroke:#2000d4; stroke-linecap:butt; stroke-linejoin:round; stroke-width:16; stroke-opacity:1; fill:none" points="
  208.721,489.484 216.348,489.133 223.975,488.514 231.602,487.42 239.229,485.496 246.856,482.132 254.483,476.304 262.11,466.37 269.737,449.902 277.363,423.818 
  284.99,385.342 292.617,334.159 300.244,274.685 307.871,215.532 315.498,165.135 323.125,127.561 330.752,102.248 338.379,86.3486 346.006,76.817 353.632,71.2903 
  361.259,68.1845 368.886,66.5041 376.513,65.6316 384.14,65.1931 391.767,64.9788 399.394,64.878 407.021,64.8327 414.648,64.8131 422.274,64.8049 429.901,64.8016 
  437.528,64.8005 445.155,64.8004 452.782,64.8007 460.409,64.8012 468.036,64.8019 475.663,64.8026 483.29,64.8034 490.917,64.8042 498.543,64.8051 506.17,64.8059 
  513.797,64.8067 521.424,64.8076 529.051,64.8084 536.678,64.8093 544.305,64.8101 551.932,64.811 559.559,64.8118 567.186,64.8127 574.812,64.8135 582.439,64.8144 
  590.066,64.8152 597.693,64.8161 605.32,64.8169 612.947,64.8178 620.574,64.8186 628.201,64.8195 635.828,64.8203 643.454,64.8212 651.081,64.822 658.708,64.8229 
  666.335,64.8237 673.962,64.8246 681.589,64.8254 689.216,64.8263 696.843,64.8271 704.47,64.828 712.097,64.8288 719.723,64.8297 727.35,64.8305 734.977,64.8314 
  742.604,64.8322 750.231,64.8331 757.858,64.8339 765.485,64.8348 773.112,64.8356 780.739,64.8365 788.366,64.8373 795.992,64.8382 803.619,64.839 811.246,64.8399 
  818.873,64.8407 826.5,64.8416 834.127,64.8424 841.754,64.8433 849.381,64.8441 857.008,64.845 864.635,64.8458 872.261,64.8467 879.888,64.8475 887.515,64.8484 
  895.142,64.8492 902.769,64.8501 910.396,64.8509 918.023,64.8518 925.65,64.8526 933.277,64.8535 940.903,64.8543 948.53,64.8552 956.157,64.856 963.784,64.8569 
  971.411,64.8577 979.038,64.8586 986.665,64.8594 994.292,64.8603 1001.92,64.8611 1009.55,64.862 1017.17,64.8628 1024.8,64.8637 1032.43,64.8645 1040.05,64.8654 
  1047.68,64.8662 1055.31,64.8671 1062.93,64.8679 1070.56,64.8688 1078.19,64.8696 1085.81,64.8705 1093.44,64.8713 1101.07,64.8722 1108.7,64.873 1116.32,64.8739 
  1123.95,64.8747 1131.58,64.8756 1139.2,64.8764 1146.83,64.8773 1154.46,64.8781 1162.08,64.879 1169.71,64.8798 1177.34,64.8807 1184.96,64.8815 1192.59,64.8824 
  1200.22,64.8832 1207.84,64.8841 1215.47,64.8849 1223.1,64.8858 1230.73,64.8866 1238.35,64.8875 1245.98,64.8883 1253.61,64.8892 1261.23,64.89 1268.86,64.8909 
  1276.49,64.8917 1284.11,64.8926 1291.74,64.8934 1299.37,64.8943 1306.99,64.8951 1314.62,64.896 1322.25,64.8968 1329.88,64.8977 1337.5,64.8985 1345.13,64.8994 
  1352.76,64.9002 
  "/>
<polyline clip-path="url(#clip312)" style="stroke:#008900; stroke-linecap:butt; stroke-linejoin:round; stroke-width:16; stroke-opacity:1; fill:none" points="
  208.721,489.699 216.348,489.534 223.975,489.24 231.602,488.721 239.229,487.808 246.856,486.211 254.483,483.445 262.11,478.729 269.737,470.909 277.363,458.515 
  284.99,440.213 292.617,415.814 300.244,387.334 307.871,358.717 315.498,333.725 323.125,313.883 330.752,298.222 338.379,284.174 346.006,268.307 353.632,246.862 
  361.259,217.502 368.886,182.667 376.513,149.036 384.14,121.512 391.767,101.196 399.394,87.3681 407.021,78.6319 414.648,73.4343 422.274,70.4751 429.901,68.8462 
  437.528,67.9786 445.155,67.5384 452.782,67.3362 460.409,67.2668 468.036,67.272 475.663,67.3198 483.29,67.3926 490.917,67.4806 498.543,67.5786 506.17,67.6836 
  513.797,67.7941 521.424,67.9094 529.051,68.029 536.678,68.1528 544.305,68.2808 551.932,68.4131 559.559,68.55 567.186,68.6915 574.812,68.8379 582.439,68.9895 
  590.066,69.1464 597.693,69.309 605.32,69.4776 612.947,69.6524 620.574,69.834 628.201,70.0225 635.828,70.2185 643.454,70.4224 651.081,70.6346 658.708,70.8556 
  666.335,71.086 673.962,71.3264 681.589,71.5774 689.216,71.8397 696.843,72.114 704.47,72.4013 712.097,72.7023 719.723,73.0181 727.35,73.3497 734.977,73.6982 
  742.604,74.0651 750.231,74.4516 757.858,74.8594 765.485,75.2901 773.112,75.7456 780.739,76.2281 788.366,76.7399 795.992,77.2836 803.619,77.8621 811.246,78.4786 
  818.873,79.1368 826.5,79.8408 834.127,80.5953 841.754,81.4055 849.381,82.2773 857.008,83.2176 864.635,84.2341 872.261,85.3357 879.888,86.5325 887.515,87.8365 
  895.142,89.2613 902.769,90.8227 910.396,92.5393 918.023,94.4328 925.65,96.5287 933.277,98.857 940.903,101.453 948.53,104.359 956.157,107.625 963.784,111.311 
  971.411,115.486 979.038,120.233 986.665,125.653 994.292,131.858 1001.92,138.982 1009.55,147.172 1017.17,156.591 1024.8,167.402 1032.43,179.757 1040.05,193.771 
  1047.68,209.486 1055.31,226.83 1062.93,245.584 1070.56,265.364 1078.19,285.644 1085.81,305.817 1093.44,325.281 1101.07,343.533 1108.7,360.22 1116.32,375.158 
  1123.95,388.315 1131.58,399.766 1139.2,409.655 1146.83,418.158 1154.46,425.456 1162.08,431.723 1169.71,437.115 1177.34,441.769 1184.96,445.801 1192.59,449.31 
  1200.22,452.378 1207.84,455.073 1215.47,457.452 1223.1,459.561 1230.73,461.441 1238.35,463.123 1245.98,464.634 1253.61,465.998 1261.23,467.234 1268.86,468.357 
  1276.49,469.382 1284.11,470.32 1291.74,471.181 1299.37,471.974 1306.99,472.707 1314.62,473.385 1322.25,474.014 1329.88,474.6 1337.5,475.146 1345.13,475.656 
  1352.76,476.133 
  "/>
<polyline clip-path="url(#clip312)" style="stroke:#7f7f7f; stroke-linecap:butt; stroke-linejoin:round; stroke-width:16; stroke-opacity:1; fill:none" points="
  208.721,60.1374 216.348,65.7609 223.975,69.4785 231.602,71.7226 239.229,73.063 246.856,73.9051 254.483,74.5188 262.11,75.1049 269.737,75.8566 277.363,77.0198 
  284.99,78.968 292.617,82.3047 300.244,87.9998 307.871,97.5316 315.498,112.917 323.125,136.369 330.752,169.315 338.379,211.038 346.006,258.134 353.632,305.685 
  361.259,349.043 368.886,384.929 376.513,412.711 384.14,434.583 391.767,452.568 399.394,466.654 407.021,476.424 414.648,482.426 422.274,485.815 429.901,487.653 
  437.528,488.645 445.155,489.191 452.782,489.498 460.409,489.673 468.036,489.774 475.663,489.833 483.29,489.867 490.917,489.887 498.543,489.898 506.17,489.905 
  513.797,489.908 521.424,489.911 529.051,489.912 536.678,489.912 544.305,489.913 551.932,489.913 559.559,489.913 567.186,489.913 574.812,489.913 582.439,489.913 
  590.066,489.913 597.693,489.913 605.32,489.913 612.947,489.913 620.574,489.913 628.201,489.913 635.828,489.913 643.454,489.913 651.081,489.913 658.708,489.913 
  666.335,489.913 673.962,489.913 681.589,489.913 689.216,489.913 696.843,489.913 704.47,489.913 712.097,489.913 719.723,489.913 727.35,489.913 734.977,489.913 
  742.604,489.913 750.231,489.913 757.858,489.913 765.485,489.913 773.112,489.913 780.739,489.913 788.366,489.913 795.992,489.913 803.619,489.913 811.246,489.913 
  818.873,489.913 826.5,489.913 834.127,489.913 841.754,489.913 849.381,489.913 857.008,489.913 864.635,489.913 872.261,489.913 879.888,489.913 887.515,489.913 
  895.142,489.913 902.769,489.913 910.396,489.913 918.023,489.913 925.65,489.913 933.277,489.913 940.903,489.913 948.53,489.913 956.157,489.913 963.784,489.913 
  971.411,489.913 979.038,489.913 986.665,489.913 994.292,489.913 1001.92,489.913 1009.55,489.913 1017.17,489.913 1024.8,489.913 1032.43,489.913 1040.05,489.913 
  1047.68,489.913 1055.31,489.913 1062.93,489.913 1070.56,489.913 1078.19,489.913 1085.81,489.913 1093.44,489.913 1101.07,489.913 1108.7,489.913 1116.32,489.913 
  1123.95,489.913 1131.58,489.913 1139.2,489.913 1146.83,489.913 1154.46,489.913 1162.08,489.913 1169.71,489.913 1177.34,489.913 1184.96,489.913 1192.59,489.913 
  1200.22,489.913 1207.84,489.913 1215.47,489.913 1223.1,489.913 1230.73,489.913 1238.35,489.913 1245.98,489.913 1253.61,489.913 1261.23,489.913 1268.86,489.913 
  1276.49,489.913 1284.11,489.913 1291.74,489.913 1299.37,489.913 1306.99,489.913 1314.62,489.913 1322.25,489.913 1329.88,489.913 1337.5,489.913 1345.13,489.913 
  1352.76,489.913 
  "/>
<polyline clip-path="url(#clip312)" style="stroke:#895f55; stroke-linecap:butt; stroke-linejoin:round; stroke-width:16; stroke-opacity:1; fill:none" points="
  208.721,489.913 216.348,489.492 223.975,489.149 231.602,488.54 239.229,487.464 246.856,485.571 254.483,482.261 262.11,476.526 269.737,466.751 277.363,450.548 
  284.99,424.884 292.617,387.034 300.244,336.697 307.871,278.239 315.498,220.173 323.125,170.867 330.752,134.435 338.379,110.537 346.006,96.7694 353.632,90.849 
  361.259,91.5078 368.886,97.9122 376.513,107.886 384.14,117.875 391.767,125.605 399.394,130.794 407.021,134.005 414.648,135.897 422.274,136.98 429.901,137.589 
  437.528,137.929 445.155,138.119 452.782,138.225 460.409,138.285 468.036,138.319 475.663,138.339 483.29,138.352 490.917,138.36 498.543,138.365 506.17,138.37 
  513.797,138.374 521.424,138.377 529.051,138.381 536.678,138.384 544.305,138.388 551.932,138.392 559.559,138.395 567.186,138.4 574.812,138.404 582.439,138.409 
  590.066,138.413 597.693,138.418 605.32,138.424 612.947,138.429 620.574,138.435 628.201,138.442 635.828,138.448 643.454,138.455 651.081,138.463 658.708,138.471 
  666.335,138.48 673.962,138.489 681.589,138.498 689.216,138.509 696.843,138.52 704.47,138.532 712.097,138.544 719.723,138.558 727.35,138.573 734.977,138.589 
  742.604,138.606 750.231,138.624 757.858,138.644 765.485,138.666 773.112,138.69 780.739,138.716 788.366,138.744 795.992,138.775 803.619,138.809 811.246,138.846 
  818.873,138.887 826.5,138.933 834.127,138.983 841.754,139.039 849.381,139.102 857.008,139.172 864.635,139.251 872.261,139.34 879.888,139.441 887.515,139.556 
  895.142,139.687 902.769,139.837 910.396,140.011 918.023,140.212 925.65,140.447 933.277,140.722 940.903,141.047 948.53,141.432 956.157,141.894 963.784,142.449 
  971.411,143.122 979.038,143.944 986.665,144.956 994.292,146.211 1001.92,147.777 1009.55,149.746 1017.17,152.233 1024.8,155.39 1032.43,159.402 1040.05,164.498 
  1047.68,170.94 1055.31,179.004 1062.93,188.947 1070.56,200.949 1078.19,215.048 1085.81,231.079 1093.44,248.655 1101.07,267.21 1108.7,286.08 1116.32,304.617 
  1123.95,322.279 1131.58,338.685 1139.2,353.618 1146.83,367.002 1154.46,378.869 1162.08,389.313 1169.71,398.467 1177.34,406.476 1184.96,413.483 1192.59,419.622 
  1200.22,425.013 1207.84,429.762 1215.47,433.96 1223.1,437.684 1230.73,441.002 1238.35,443.969 1245.98,446.633 1253.61,449.033 1261.23,451.205 1268.86,453.176 
  1276.49,454.971 1284.11,456.612 1291.74,458.116 1299.37,459.498 1306.99,460.773 1314.62,461.951 1322.25,463.043 1329.88,464.057 1337.5,465.002 1345.13,465.883 
  1352.76,466.706 
  "/>
<polyline clip-path="url(#clip312)" style="stroke:#2000d4; stroke-linecap:butt; stroke-linejoin:round; stroke-width:16; stroke-opacity:1; fill:none" stroke-dasharray="64, 40" points="
  208.721,489.913 216.348,489.913 223.975,489.913 231.602,489.913 239.229,489.913 246.856,489.913 254.483,489.913 262.11,489.913 269.737,489.913 277.363,489.913 
  284.99,489.913 292.617,489.913 300.244,489.913 307.871,489.912 315.498,489.912 323.125,489.912 330.752,489.912 338.379,489.912 346.006,489.912 353.632,489.912 
  361.259,489.912 368.886,489.912 376.513,489.911 384.14,489.911 391.767,489.911 399.394,489.91 407.021,489.91 414.648,489.91 422.274,489.909 429.901,489.909 
  437.528,489.908 445.155,489.908 452.782,489.907 460.409,489.907 468.036,489.907 475.663,489.906 483.29,489.906 490.917,489.905 498.543,489.905 506.17,489.904 
  513.797,489.904 521.424,489.904 529.051,489.903 536.678,489.903 544.305,489.902 551.932,489.902 559.559,489.901 567.186,489.901 574.812,489.901 582.439,489.9 
  590.066,489.9 597.693,489.899 605.32,489.899 612.947,489.898 620.574,489.898 628.201,489.898 635.828,489.897 643.454,489.897 651.081,489.896 658.708,489.896 
  666.335,489.896 673.962,489.895 681.589,489.895 689.216,489.894 696.843,489.894 704.47,489.893 712.097,489.893 719.723,489.893 727.35,489.892 734.977,489.892 
  742.604,489.891 750.231,489.891 757.858,489.89 765.485,489.89 773.112,489.89 780.739,489.889 788.366,489.889 795.992,489.888 803.619,489.888 811.246,489.887 
  818.873,489.887 826.5,489.887 834.127,489.886 841.754,489.886 849.381,489.885 857.008,489.885 864.635,489.884 872.261,489.884 879.888,489.884 887.515,489.883 
  895.142,489.883 902.769,489.882 910.396,489.882 918.023,489.881 925.65,489.881 933.277,489.881 940.903,489.88 948.53,489.88 956.157,489.879 963.784,489.879 
  971.411,489.879 979.038,489.878 986.665,489.878 994.292,489.877 1001.92,489.877 1009.55,489.876 1017.17,489.876 1024.8,489.876 1032.43,489.875 1040.05,489.875 
  1047.68,489.874 1055.31,489.874 1062.93,489.873 1070.56,489.873 1078.19,489.873 1085.81,489.872 1093.44,489.872 1101.07,489.871 1108.7,489.871 1116.32,489.87 
  1123.95,489.87 1131.58,489.87 1139.2,489.869 1146.83,489.869 1154.46,489.868 1162.08,489.868 1169.71,489.867 1177.34,489.867 1184.96,489.867 1192.59,489.866 
  1200.22,489.866 1207.84,489.865 1215.47,489.865 1223.1,489.864 1230.73,489.864 1238.35,489.864 1245.98,489.863 1253.61,489.863 1261.23,489.862 1268.86,489.862 
  1276.49,489.862 1284.11,489.861 1291.74,489.861 1299.37,489.86 1306.99,489.86 1314.62,489.859 1322.25,489.859 1329.88,489.859 1337.5,489.858 1345.13,489.858 
  1352.76,489.857 
  "/>
<polyline clip-path="url(#clip312)" style="stroke:#ff221c; stroke-linecap:butt; stroke-linejoin:round; stroke-width:16; stroke-opacity:1; fill:none" points="
  208.721,489.913 216.348,489.912 223.975,489.91 231.602,489.905 239.229,489.897 246.856,489.882 254.483,489.855 262.11,489.808 269.737,489.724 277.363,489.578 
  284.99,489.323 292.617,488.883 300.244,488.138 307.871,486.884 315.498,484.776 323.125,481.171 330.752,474.83 338.379,463.363 346.006,442.378 353.632,405.121 
  361.259,346.068 368.886,271.044 376.513,198.951 384.14,144.451 391.767,109.076 399.394,87.8917 407.021,75.6977 414.648,68.8122 422.274,64.9602 429.901,62.815 
  437.528,61.6229 445.155,60.9613 452.782,60.5942 460.409,60.3907 468.036,60.2778 475.663,60.2152 483.29,60.1805 490.917,60.1613 498.543,60.1506 506.17,60.1447 
  513.797,60.1415 521.424,60.1396 529.051,60.1386 536.678,60.1381 544.305,60.1378 551.932,60.1376 559.559,60.1375 567.186,60.1374 574.812,60.1374 582.439,60.1374 
  590.066,60.1374 597.693,60.1374 605.32,60.1374 612.947,60.1374 620.574,60.1374 628.201,60.1374 635.828,60.1374 643.454,60.1374 651.081,60.1374 658.708,60.1374 
  666.335,60.1374 673.962,60.1374 681.589,60.1374 689.216,60.1374 696.843,60.1374 704.47,60.1374 712.097,60.1374 719.723,60.1374 727.35,60.1374 734.977,60.1374 
  742.604,60.1374 750.231,60.1374 757.858,60.1374 765.485,60.1374 773.112,60.1374 780.739,60.1374 788.366,60.1374 795.992,60.1374 803.619,60.1374 811.246,60.1374 
  818.873,60.1374 826.5,60.1374 834.127,60.1374 841.754,60.1374 849.381,60.1374 857.008,60.1374 864.635,60.1374 872.261,60.1374 879.888,60.1374 887.515,60.1374 
  895.142,60.1374 902.769,60.1374 910.396,60.1374 918.023,60.1374 925.65,60.1374 933.277,60.1374 940.903,60.1374 948.53,60.1374 956.157,60.1374 963.784,60.1374 
  971.411,60.1374 979.038,60.1374 986.665,60.1374 994.292,60.1374 1001.92,60.1374 1009.55,60.1374 1017.17,60.1374 1024.8,60.1374 1032.43,60.1374 1040.05,60.1374 
  1047.68,60.1374 1055.31,60.1374 1062.93,60.1374 1070.56,60.1374 1078.19,60.1374 1085.81,60.1374 1093.44,60.1374 1101.07,60.1374 1108.7,60.1374 1116.32,60.1374 
  1123.95,60.1374 1131.58,60.1374 1139.2,60.1374 1146.83,60.1374 1154.46,60.1374 1162.08,60.1374 1169.71,60.1374 1177.34,60.1374 1184.96,60.1374 1192.59,60.1374 
  1200.22,60.1374 1207.84,60.1374 1215.47,60.1374 1223.1,60.1374 1230.73,60.1374 1238.35,60.1374 1245.98,60.1374 1253.61,60.1374 1261.23,60.1374 1268.86,60.1374 
  1276.49,60.1374 1284.11,60.1374 1291.74,60.1374 1299.37,60.1374 1306.99,60.1374 1314.62,60.1374 1322.25,60.1374 1329.88,60.1374 1337.5,60.1374 1345.13,60.1374 
  1352.76,60.1374 
  "/>
<path clip-path="url(#clip310)" d="
M201.094 503.236 L1352.76 503.236 L1352.76 47.2441 L201.094 47.2441  Z
  " fill="#000000" fill-rule="evenodd" fill-opacity="0"/>
<path clip-path="url(#clip310)" d="M201.094 529.085 Q196.581 529.085 194.295 533.541 Q192.038 537.968 192.038 546.88 Q192.038 555.763 194.295 560.219 Q196.581 564.646 201.094 564.646 Q205.637 564.646 207.894 560.219 Q210.18 555.763 210.18 546.88 Q210.18 537.968 207.894 533.541 Q205.637 529.085 201.094 529.085 M201.094 524.455 Q208.357 524.455 212.177 530.213 Q216.025 535.942 216.025 546.88 Q216.025 557.788 212.177 563.546 Q208.357 569.276 201.094 569.276 Q193.832 569.276 189.983 563.546 Q186.164 557.788 186.164 546.88 Q186.164 535.942 189.983 530.213 Q193.832 524.455 201.094 524.455 Z" fill="#000000" fill-rule="evenodd" fill-opacity="1" /><path clip-path="url(#clip310)" d="M550.813 525.236 L573.759 525.236 L573.759 530.155 L556.166 530.155 L556.166 540.746 Q557.439 540.312 558.713 540.109 Q559.986 539.878 561.259 539.878 Q568.493 539.878 572.717 543.842 Q576.942 547.806 576.942 554.577 Q576.942 561.55 572.601 565.427 Q568.261 569.276 560.362 569.276 Q557.642 569.276 554.806 568.813 Q552 568.35 548.99 567.424 L548.99 561.55 Q551.595 562.968 554.372 563.662 Q557.15 564.357 560.246 564.357 Q565.252 564.357 568.174 561.724 Q571.097 559.09 571.097 554.577 Q571.097 550.063 568.174 547.43 Q565.252 544.797 560.246 544.797 Q557.902 544.797 555.559 545.317 Q553.244 545.838 550.813 546.938 L550.813 525.236 Z" fill="#000000" fill-rule="evenodd" fill-opacity="1" /><path clip-path="url(#clip310)" d="M600.958 529.085 Q596.444 529.085 594.158 533.541 Q591.901 537.968 591.901 546.88 Q591.901 555.763 594.158 560.219 Q596.444 564.646 600.958 564.646 Q605.501 564.646 607.757 560.219 Q610.043 555.763 610.043 546.88 Q610.043 537.968 607.757 533.541 Q605.501 529.085 600.958 529.085 M600.958 524.455 Q608.22 524.455 612.04 530.213 Q615.888 535.942 615.888 546.88 Q615.888 557.788 612.04 563.546 Q608.22 569.276 600.958 569.276 Q593.695 569.276 589.847 563.546 Q586.027 557.788 586.027 546.88 Q586.027 535.942 589.847 530.213 Q593.695 524.455 600.958 524.455 Z" fill="#000000" fill-rule="evenodd" fill-opacity="1" /><path clip-path="url(#clip310)" d="M913.293 563.517 L922.841 563.517 L922.841 530.56 L912.453 532.644 L912.453 527.32 L922.783 525.236 L928.628 525.236 L928.628 563.517 L938.177 563.517 L938.177 568.436 L913.293 568.436 L913.293 563.517 Z" fill="#000000" fill-rule="evenodd" fill-opacity="1" /><path clip-path="url(#clip310)" d="M962.482 529.085 Q957.968 529.085 955.682 533.541 Q953.425 537.968 953.425 546.88 Q953.425 555.763 955.682 560.219 Q957.968 564.646 962.482 564.646 Q967.025 564.646 969.282 560.219 Q971.568 555.763 971.568 546.88 Q971.568 537.968 969.282 533.541 Q967.025 529.085 962.482 529.085 M962.482 524.455 Q969.745 524.455 973.564 530.213 Q977.413 535.942 977.413 546.88 Q977.413 557.788 973.564 563.546 Q969.745 569.276 962.482 569.276 Q955.219 569.276 951.371 563.546 Q947.552 557.788 947.552 546.88 Q947.552 535.942 951.371 530.213 Q955.219 524.455 962.482 524.455 Z" fill="#000000" fill-rule="evenodd" fill-opacity="1" /><path clip-path="url(#clip310)" d="M1000.18 529.085 Q995.671 529.085 993.385 533.541 Q991.128 537.968 991.128 546.88 Q991.128 555.763 993.385 560.219 Q995.671 564.646 1000.18 564.646 Q1004.73 564.646 1006.98 560.219 Q1009.27 555.763 1009.27 546.88 Q1009.27 537.968 1006.98 533.541 Q1004.73 529.085 1000.18 529.085 M1000.18 524.455 Q1007.45 524.455 1011.27 530.213 Q1015.11 535.942 1015.11 546.88 Q1015.11 557.788 1011.27 563.546 Q1007.45 569.276 1000.18 569.276 Q992.922 569.276 989.073 563.546 Q985.254 557.788 985.254 546.88 Q985.254 535.942 989.073 530.213 Q992.922 524.455 1000.18 524.455 Z" fill="#000000" fill-rule="evenodd" fill-opacity="1" /><path clip-path="url(#clip310)" d="M1294.64 563.517 L1304.19 563.517 L1304.19 530.56 L1293.8 532.644 L1293.8 527.32 L1304.13 525.236 L1309.97 525.236 L1309.97 563.517 L1319.52 563.517 L1319.52 568.436 L1294.64 568.436 L1294.64 563.517 Z" fill="#000000" fill-rule="evenodd" fill-opacity="1" /><path clip-path="url(#clip310)" d="M1331.38 525.236 L1354.33 525.236 L1354.33 530.155 L1336.74 530.155 L1336.74 540.746 Q1338.01 540.312 1339.28 540.109 Q1340.56 539.878 1341.83 539.878 Q1349.06 539.878 1353.29 543.842 Q1357.51 547.806 1357.51 554.577 Q1357.51 561.55 1353.17 565.427 Q1348.83 569.276 1340.93 569.276 Q1338.21 569.276 1335.38 568.813 Q1332.57 568.35 1329.56 567.424 L1329.56 561.55 Q1332.17 562.968 1334.94 563.662 Q1337.72 564.357 1340.82 564.357 Q1345.82 564.357 1348.75 561.724 Q1351.67 559.09 1351.67 554.577 Q1351.67 550.063 1348.75 547.43 Q1345.82 544.797 1340.82 544.797 Q1338.47 544.797 1336.13 545.317 Q1333.82 545.838 1331.38 546.938 L1331.38 525.236 Z" fill="#000000" fill-rule="evenodd" fill-opacity="1" /><path clip-path="url(#clip310)" d="M1381.53 529.085 Q1377.02 529.085 1374.73 533.541 Q1372.47 537.968 1372.47 546.88 Q1372.47 555.763 1374.73 560.219 Q1377.02 564.646 1381.53 564.646 Q1386.07 564.646 1388.33 560.219 Q1390.61 555.763 1390.61 546.88 Q1390.61 537.968 1388.33 533.541 Q1386.07 529.085 1381.53 529.085 M1381.53 524.455 Q1388.79 524.455 1392.61 530.213 Q1396.46 535.942 1396.46 546.88 Q1396.46 557.788 1392.61 563.546 Q1388.79 569.276 1381.53 569.276 Q1374.27 569.276 1370.42 563.546 Q1366.6 557.788 1366.6 546.88 Q1366.6 535.942 1370.42 530.213 Q1374.27 524.455 1381.53 524.455 Z" fill="#000000" fill-rule="evenodd" fill-opacity="1" /><polyline clip-path="url(#clip310)" style="stroke:#000000; stroke-linecap:butt; stroke-linejoin:round; stroke-width:4; stroke-opacity:1; fill:none" points="
  1352.76,503.236 1352.76,47.2441 
  "/>
<polyline clip-path="url(#clip310)" style="stroke:#000000; stroke-linecap:butt; stroke-linejoin:round; stroke-width:4; stroke-opacity:1; fill:none" points="
  1352.76,69.4145 1333.86,69.4145 
  "/>
<polyline clip-path="url(#clip310)" style="stroke:#000000; stroke-linecap:butt; stroke-linejoin:round; stroke-width:4; stroke-opacity:1; fill:none" points="
  1352.76,174.644 1333.86,174.644 
  "/>
<polyline clip-path="url(#clip310)" style="stroke:#000000; stroke-linecap:butt; stroke-linejoin:round; stroke-width:4; stroke-opacity:1; fill:none" points="
  1352.76,279.873 1333.86,279.873 
  "/>
<polyline clip-path="url(#clip310)" style="stroke:#000000; stroke-linecap:butt; stroke-linejoin:round; stroke-width:4; stroke-opacity:1; fill:none" points="
  1352.76,385.102 1333.86,385.102 
  "/>
<polyline clip-path="url(#clip310)" style="stroke:#000000; stroke-linecap:butt; stroke-linejoin:round; stroke-width:4; stroke-opacity:1; fill:none" points="
  1352.76,490.331 1333.86,490.331 
  "/>
<path clip-path="url(#clip310)" d="M1374.6 94.155 L1384.14 94.155 L1384.14 61.198 L1373.76 63.2814 L1373.76 57.9573 L1384.09 55.874 L1389.93 55.874 L1389.93 94.155 L1399.48 94.155 L1399.48 99.074 L1374.6 99.074 L1374.6 94.155 Z" fill="#000000" fill-rule="evenodd" fill-opacity="1" /><path clip-path="url(#clip310)" d="M1423.78 59.7224 Q1419.27 59.7224 1416.98 64.1784 Q1414.73 68.6054 1414.73 77.5174 Q1414.73 86.4005 1416.98 90.8565 Q1419.27 95.2835 1423.78 95.2835 Q1428.33 95.2835 1430.58 90.8565 Q1432.87 86.4005 1432.87 77.5174 Q1432.87 68.6054 1430.58 64.1784 Q1428.33 59.7224 1423.78 59.7224 M1423.78 55.0928 Q1431.05 55.0928 1434.87 60.8508 Q1438.72 66.58 1438.72 77.5174 Q1438.72 88.4259 1434.87 94.184 Q1431.05 99.9131 1423.78 99.9131 Q1416.52 99.9131 1412.67 94.184 Q1408.85 88.4259 1408.85 77.5174 Q1408.85 66.58 1412.67 60.8508 Q1416.52 55.0928 1423.78 55.0928 Z" fill="#000000" fill-rule="evenodd" fill-opacity="1" /><path clip-path="url(#clip310)" d="M1450.85 32.8378 Q1447.18 32.8378 1445.32 36.4583 Q1443.49 40.0553 1443.49 47.2963 Q1443.49 54.5137 1445.32 58.1342 Q1447.18 61.7312 1450.85 61.7312 Q1454.54 61.7312 1456.37 58.1342 Q1458.23 54.5137 1458.23 47.2963 Q1458.23 40.0553 1456.37 36.4583 Q1454.54 32.8378 1450.85 32.8378 M1450.85 29.0762 Q1456.75 29.0762 1459.85 33.7547 Q1462.98 38.4096 1462.98 47.2963 Q1462.98 56.1594 1459.85 60.8379 Q1456.75 65.4928 1450.85 65.4928 Q1444.95 65.4928 1441.82 60.8379 Q1438.72 56.1594 1438.72 47.2963 Q1438.72 38.4096 1441.82 33.7547 Q1444.95 29.0762 1450.85 29.0762 Z" fill="#000000" fill-rule="evenodd" fill-opacity="1" /><path clip-path="url(#clip310)" d="M1374.6 199.384 L1384.14 199.384 L1384.14 166.427 L1373.76 168.51 L1373.76 163.186 L1384.09 161.103 L1389.93 161.103 L1389.93 199.384 L1399.48 199.384 L1399.48 204.303 L1374.6 204.303 L1374.6 199.384 Z" fill="#000000" fill-rule="evenodd" fill-opacity="1" /><path clip-path="url(#clip310)" d="M1423.78 164.951 Q1419.27 164.951 1416.98 169.407 Q1414.73 173.835 1414.73 182.747 Q1414.73 191.63 1416.98 196.086 Q1419.27 200.513 1423.78 200.513 Q1428.33 200.513 1430.58 196.086 Q1432.87 191.63 1432.87 182.747 Q1432.87 173.835 1430.58 169.407 Q1428.33 164.951 1423.78 164.951 M1423.78 160.322 Q1431.05 160.322 1434.87 166.08 Q1438.72 171.809 1438.72 182.747 Q1438.72 193.655 1434.87 199.413 Q1431.05 205.142 1423.78 205.142 Q1416.52 205.142 1412.67 199.413 Q1408.85 193.655 1408.85 182.747 Q1408.85 171.809 1412.67 166.08 Q1416.52 160.322 1423.78 160.322 Z" fill="#000000" fill-rule="evenodd" fill-opacity="1" /><path clip-path="url(#clip310)" d="M1438.72 152.949 L1468.85 152.949 L1468.85 156.945 L1438.72 156.945 L1438.72 152.949 Z" fill="#000000" fill-rule="evenodd" fill-opacity="1" /><path clip-path="url(#clip310)" d="M1483.2 166.043 L1499.77 166.043 L1499.77 170.04 L1477.48 170.04 L1477.48 166.043 Q1480.19 163.246 1484.84 158.544 Q1489.52 153.818 1490.72 152.455 Q1493 149.892 1493.89 148.129 Q1494.81 146.342 1494.81 144.626 Q1494.81 141.828 1492.83 140.065 Q1490.88 138.302 1487.73 138.302 Q1485.5 138.302 1483.01 139.078 Q1480.54 139.854 1477.72 141.429 L1477.72 136.633 Q1480.59 135.481 1483.08 134.893 Q1485.57 134.305 1487.64 134.305 Q1493.09 134.305 1496.34 137.032 Q1499.58 139.76 1499.58 144.321 Q1499.58 146.483 1498.76 148.435 Q1497.96 150.362 1495.82 152.996 Q1495.23 153.677 1492.08 156.945 Q1488.93 160.19 1483.2 166.043 Z" fill="#000000" fill-rule="evenodd" fill-opacity="1" /><path clip-path="url(#clip310)" d="M1374.6 304.613 L1384.14 304.613 L1384.14 271.656 L1373.76 273.74 L1373.76 268.416 L1384.09 266.332 L1389.93 266.332 L1389.93 304.613 L1399.48 304.613 L1399.48 309.532 L1374.6 309.532 L1374.6 304.613 Z" fill="#000000" fill-rule="evenodd" fill-opacity="1" /><path clip-path="url(#clip310)" d="M1423.78 270.181 Q1419.27 270.181 1416.98 274.637 Q1414.73 279.064 1414.73 287.976 Q1414.73 296.859 1416.98 301.315 Q1419.27 305.742 1423.78 305.742 Q1428.33 305.742 1430.58 301.315 Q1432.87 296.859 1432.87 287.976 Q1432.87 279.064 1430.58 274.637 Q1428.33 270.181 1423.78 270.181 M1423.78 265.551 Q1431.05 265.551 1434.87 271.309 Q1438.72 277.038 1438.72 287.976 Q1438.72 298.884 1434.87 304.642 Q1431.05 310.371 1423.78 310.371 Q1416.52 310.371 1412.67 304.642 Q1408.85 298.884 1408.85 287.976 Q1408.85 277.038 1412.67 271.309 Q1416.52 265.551 1423.78 265.551 Z" fill="#000000" fill-rule="evenodd" fill-opacity="1" /><path clip-path="url(#clip310)" d="M1438.72 258.178 L1468.85 258.178 L1468.85 262.174 L1438.72 262.174 L1438.72 258.178 Z" fill="#000000" fill-rule="evenodd" fill-opacity="1" /><path clip-path="url(#clip310)" d="M1492.15 244.307 L1480.16 263.044 L1492.15 263.044 L1492.15 244.307 M1490.91 240.169 L1496.88 240.169 L1496.88 263.044 L1501.89 263.044 L1501.89 266.994 L1496.88 266.994 L1496.88 275.269 L1492.15 275.269 L1492.15 266.994 L1476.31 266.994 L1476.31 262.409 L1490.91 240.169 Z" fill="#000000" fill-rule="evenodd" fill-opacity="1" /><path clip-path="url(#clip310)" d="M1374.6 409.842 L1384.14 409.842 L1384.14 376.885 L1373.76 378.969 L1373.76 373.645 L1384.09 371.561 L1389.93 371.561 L1389.93 409.842 L1399.48 409.842 L1399.48 414.761 L1374.6 414.761 L1374.6 409.842 Z" fill="#000000" fill-rule="evenodd" fill-opacity="1" /><path clip-path="url(#clip310)" d="M1423.78 375.41 Q1419.27 375.41 1416.98 379.866 Q1414.73 384.293 1414.73 393.205 Q1414.73 402.088 1416.98 406.544 Q1419.27 410.971 1423.78 410.971 Q1428.33 410.971 1430.58 406.544 Q1432.87 402.088 1432.87 393.205 Q1432.87 384.293 1430.58 379.866 Q1428.33 375.41 1423.78 375.41 M1423.78 370.78 Q1431.05 370.78 1434.87 376.538 Q1438.72 382.267 1438.72 393.205 Q1438.72 404.113 1434.87 409.871 Q1431.05 415.6 1423.78 415.6 Q1416.52 415.6 1412.67 409.871 Q1408.85 404.113 1408.85 393.205 Q1408.85 382.267 1412.67 376.538 Q1416.52 370.78 1423.78 370.78 Z" fill="#000000" fill-rule="evenodd" fill-opacity="1" /><path clip-path="url(#clip310)" d="M1438.72 363.407 L1468.85 363.407 L1468.85 367.403 L1438.72 367.403 L1438.72 363.407 Z" fill="#000000" fill-rule="evenodd" fill-opacity="1" /><path clip-path="url(#clip310)" d="M1489.85 361.056 Q1486.65 361.056 1484.77 363.242 Q1482.91 365.429 1482.91 369.237 Q1482.91 373.022 1484.77 375.232 Q1486.65 377.419 1489.85 377.419 Q1493.05 377.419 1494.9 375.232 Q1496.78 373.022 1496.78 369.237 Q1496.78 365.429 1494.9 363.242 Q1493.05 361.056 1489.85 361.056 M1499.28 346.174 L1499.28 350.5 Q1497.49 349.654 1495.66 349.207 Q1493.85 348.76 1492.06 348.76 Q1487.36 348.76 1484.86 351.934 Q1482.4 355.108 1482.04 361.526 Q1483.43 359.481 1485.52 358.399 Q1487.62 357.294 1490.13 357.294 Q1495.42 357.294 1498.48 360.515 Q1501.56 363.712 1501.56 369.237 Q1501.56 374.644 1498.36 377.912 Q1495.16 381.18 1489.85 381.18 Q1483.76 381.18 1480.54 376.525 Q1477.32 371.847 1477.32 362.984 Q1477.32 354.661 1481.27 349.724 Q1485.22 344.764 1491.87 344.764 Q1493.66 344.764 1495.47 345.116 Q1497.3 345.469 1499.28 346.174 Z" fill="#000000" fill-rule="evenodd" fill-opacity="1" /><path clip-path="url(#clip310)" d="M1374.6 515.072 L1384.14 515.072 L1384.14 482.115 L1373.76 484.198 L1373.76 478.874 L1384.09 476.791 L1389.93 476.791 L1389.93 515.072 L1399.48 515.072 L1399.48 519.991 L1374.6 519.991 L1374.6 515.072 Z" fill="#000000" fill-rule="evenodd" fill-opacity="1" /><path clip-path="url(#clip310)" d="M1423.78 480.639 Q1419.27 480.639 1416.98 485.095 Q1414.73 489.522 1414.73 498.434 Q1414.73 507.317 1416.98 511.773 Q1419.27 516.2 1423.78 516.2 Q1428.33 516.2 1430.58 511.773 Q1432.87 507.317 1432.87 498.434 Q1432.87 489.522 1430.58 485.095 Q1428.33 480.639 1423.78 480.639 M1423.78 476.009 Q1431.05 476.009 1434.87 481.767 Q1438.72 487.496 1438.72 498.434 Q1438.72 509.342 1434.87 515.1 Q1431.05 520.83 1423.78 520.83 Q1416.52 520.83 1412.67 515.1 Q1408.85 509.342 1408.85 498.434 Q1408.85 487.496 1412.67 481.767 Q1416.52 476.009 1423.78 476.009 Z" fill="#000000" fill-rule="evenodd" fill-opacity="1" /><path clip-path="url(#clip310)" d="M1438.72 468.636 L1468.85 468.636 L1468.85 472.633 L1438.72 472.633 L1438.72 468.636 Z" fill="#000000" fill-rule="evenodd" fill-opacity="1" /><path clip-path="url(#clip310)" d="M1489.26 469.059 Q1485.88 469.059 1483.92 470.869 Q1482 472.68 1482 475.853 Q1482 479.027 1483.92 480.837 Q1485.88 482.648 1489.26 482.648 Q1492.65 482.648 1494.6 480.837 Q1496.55 479.004 1496.55 475.853 Q1496.55 472.68 1494.6 470.869 Q1492.67 469.059 1489.26 469.059 M1484.51 467.037 Q1481.46 466.285 1479.74 464.193 Q1478.05 462.1 1478.05 459.091 Q1478.05 454.883 1481.03 452.438 Q1484.04 449.993 1489.26 449.993 Q1494.5 449.993 1497.49 452.438 Q1500.48 454.883 1500.48 459.091 Q1500.48 462.1 1498.76 464.193 Q1497.07 466.285 1494.03 467.037 Q1497.47 467.837 1499.37 470.164 Q1501.3 472.492 1501.3 475.853 Q1501.3 480.955 1498.17 483.682 Q1495.07 486.409 1489.26 486.409 Q1483.45 486.409 1480.33 483.682 Q1477.22 480.955 1477.22 475.853 Q1477.22 472.492 1479.15 470.164 Q1481.08 467.837 1484.51 467.037 M1482.77 459.538 Q1482.77 462.265 1484.46 463.793 Q1486.18 465.321 1489.26 465.321 Q1492.32 465.321 1494.03 463.793 Q1495.77 462.265 1495.77 459.538 Q1495.77 456.811 1494.03 455.282 Q1492.32 453.754 1489.26 453.754 Q1486.18 453.754 1484.46 455.282 Q1482.77 456.811 1482.77 459.538 Z" fill="#000000" fill-rule="evenodd" fill-opacity="1" /><polyline clip-path="url(#clip312)" style="stroke:#000000; stroke-linecap:butt; stroke-linejoin:round; stroke-width:16; stroke-opacity:1; fill:none" stroke-dasharray="8, 16" points="
  208.721,69.4145 216.348,69.4369 223.975,69.4589 231.602,69.4951 239.229,69.5586 246.856,69.6706 254.483,69.8679 262.11,70.2138 269.737,70.8156 277.363,71.8492 
  284.99,73.5875 292.617,76.4174 300.244,80.8143 307.871,87.2535 315.498,96.0994 323.125,107.583 330.752,121.9 338.379,139.24 346.006,159.394 353.632,180.87 
  361.259,200.59 368.886,215.575 376.513,225.032 384.14,230.084 391.767,232.24 399.394,232.644 407.021,232.031 414.648,230.842 422.274,229.335 429.901,227.653 
  437.528,225.879 445.155,224.059 452.782,222.217 460.409,220.369 468.036,218.523 475.663,216.684 483.29,214.855 490.917,213.039 498.543,211.237 506.17,209.451 
  513.797,207.683 521.424,205.933 529.051,204.204 536.678,202.496 544.305,200.811 551.932,199.151 559.559,197.516 567.186,195.908 574.812,194.329 582.439,192.781 
  590.066,191.264 597.693,189.78 605.32,188.331 612.947,186.918 620.574,185.542 628.201,184.205 635.828,182.907 643.454,181.649 651.081,180.433 658.708,179.258 
  666.335,178.126 673.962,177.037 681.589,175.991 689.216,174.988 696.843,174.028 704.47,173.11 712.097,172.235 719.723,171.4 727.35,170.606 734.977,169.852 
  742.604,169.135 750.231,168.456 757.858,167.812 765.485,167.201 773.112,166.623 780.739,166.075 788.366,165.556 795.992,165.063 803.619,164.595 811.246,164.149 
  818.873,163.724 826.5,163.318 834.127,162.927 841.754,162.549 849.381,162.183 857.008,161.826 864.635,161.474 872.261,161.125 879.888,160.776 887.515,160.423 
  895.142,160.062 902.769,159.689 910.396,159.298 918.023,158.885 925.65,158.442 933.277,157.961 940.903,157.433 948.53,156.847 956.157,156.188 963.784,155.441 
  971.411,154.583 979.038,153.591 986.665,152.433 994.292,151.072 1001.92,149.462 1009.55,147.549 1017.17,145.269 1024.8,142.555 1032.43,139.334 1040.05,135.547 
  1047.68,131.161 1055.31,126.195 1062.93,120.745 1070.56,115.001 1078.19,109.231 1085.81,103.724 1093.44,98.7173 1101.07,94.3396 1108.7,90.6136 1116.32,87.4915 
  1123.95,84.8958 1131.58,82.7449 1139.2,80.9642 1146.83,79.4886 1154.46,78.2631 1162.08,77.2416 1169.71,76.3864 1177.34,75.6665 1184.96,75.0571 1192.59,74.538 
  1200.22,74.093 1207.84,73.7091 1215.47,73.3759 1223.1,73.085 1230.73,72.8294 1238.35,72.6037 1245.98,72.4033 1253.61,72.2245 1261.23,72.0642 1268.86,71.9198 
  1276.49,71.7893 1284.11,71.6708 1291.74,71.5628 1299.37,71.4641 1306.99,71.3735 1314.62,71.2901 1322.25,71.2132 1329.88,71.1421 1337.5,71.0761 1345.13,71.0147 
  1352.76,70.9575 
  "/>
</svg>
