<?xml version="1.0" encoding="utf-8"?>
<svg xmlns="http://www.w3.org/2000/svg" xmlns:xlink="http://www.w3.org/1999/xlink" width="350" height="150" viewBox="0 0 1400 600">
<defs>
  <clipPath id="clip470">
    <rect x="0" y="0" width="1400" height="600"/>
  </clipPath>
</defs>
<path clip-path="url(#clip470)" d="
M0 600 L1400 600 L1400 0 L0 0  Z
  " fill="#ffffff" fill-rule="evenodd" fill-opacity="1"/>
<defs>
  <clipPath id="clip471">
    <rect x="280" y="0" width="981" height="600"/>
  </clipPath>
</defs>
<path clip-path="url(#clip470)" d="
M201.094 503.236 L1194.88 503.236 L1194.88 47.2441 L201.094 47.2441  Z
  " fill="#ffffff" fill-rule="evenodd" fill-opacity="1"/>
<defs>
  <clipPath id="clip472">
    <rect x="201" y="47" width="995" height="457"/>
  </clipPath>
</defs>
<polyline clip-path="url(#clip470)" style="stroke:#000000; stroke-linecap:round; stroke-linejoin:round; stroke-width:4; stroke-opacity:1; fill:none" points="
  201.094,503.236 1194.88,503.236 
  "/>
<polyline clip-path="url(#clip470)" style="stroke:#000000; stroke-linecap:round; stroke-linejoin:round; stroke-width:4; stroke-opacity:1; fill:none" points="
  201.094,503.236 201.094,484.339 
  "/>
<polyline clip-path="url(#clip470)" style="stroke:#000000; stroke-linecap:round; stroke-linejoin:round; stroke-width:4; stroke-opacity:1; fill:none" points="
  530.162,503.236 530.162,484.339 
  "/>
<polyline clip-path="url(#clip470)" style="stroke:#000000; stroke-linecap:round; stroke-linejoin:round; stroke-width:4; stroke-opacity:1; fill:none" points="
  859.229,503.236 859.229,484.339 
  "/>
<polyline clip-path="url(#clip470)" style="stroke:#000000; stroke-linecap:round; stroke-linejoin:round; stroke-width:4; stroke-opacity:1; fill:none" points="
  1188.3,503.236 1188.3,484.339 
  "/>
<path clip-path="url(#clip470)" d="M201.094 529.085 Q196.581 529.085 194.295 533.541 Q192.038 537.968 192.038 546.88 Q192.038 555.763 194.295 560.219 Q196.581 564.646 201.094 564.646 Q205.637 564.646 207.894 560.219 Q210.18 555.763 210.18 546.88 Q210.18 537.968 207.894 533.541 Q205.637 529.085 201.094 529.085 M201.094 524.455 Q208.357 524.455 212.177 530.213 Q216.025 535.942 216.025 546.88 Q216.025 557.788 212.177 563.546 Q208.357 569.276 201.094 569.276 Q193.832 569.276 189.983 563.546 Q186.164 557.788 186.164 546.88 Q186.164 535.942 189.983 530.213 Q193.832 524.455 201.094 524.455 Z" fill="#000000" fill-rule="evenodd" fill-opacity="1" /><path clip-path="url(#clip470)" d="M498.536 525.236 L521.481 525.236 L521.481 530.155 L503.889 530.155 L503.889 540.746 Q505.162 540.312 506.435 540.109 Q507.708 539.878 508.981 539.878 Q516.215 539.878 520.44 543.842 Q524.664 547.806 524.664 554.577 Q524.664 561.55 520.324 565.427 Q515.984 569.276 508.084 569.276 Q505.365 569.276 502.529 568.813 Q499.722 568.35 496.713 567.424 L496.713 561.55 Q499.317 562.968 502.095 563.662 Q504.873 564.357 507.969 564.357 Q512.975 564.357 515.897 561.724 Q518.819 559.09 518.819 554.577 Q518.819 550.063 515.897 547.43 Q512.975 544.797 507.969 544.797 Q505.625 544.797 503.281 545.317 Q500.966 545.838 498.536 546.938 L498.536 525.236 Z" fill="#000000" fill-rule="evenodd" fill-opacity="1" /><path clip-path="url(#clip470)" d="M548.68 529.085 Q544.166 529.085 541.881 533.541 Q539.624 537.968 539.624 546.88 Q539.624 555.763 541.881 560.219 Q544.166 564.646 548.68 564.646 Q553.223 564.646 555.48 560.219 Q557.766 555.763 557.766 546.88 Q557.766 537.968 555.48 533.541 Q553.223 529.085 548.68 529.085 M548.68 524.455 Q555.943 524.455 559.762 530.213 Q563.611 535.942 563.611 546.88 Q563.611 557.788 559.762 563.546 Q555.943 569.276 548.68 569.276 Q541.418 569.276 537.569 563.546 Q533.75 557.788 533.75 546.88 Q533.75 535.942 537.569 530.213 Q541.418 524.455 548.68 524.455 Z" fill="#000000" fill-rule="evenodd" fill-opacity="1" /><path clip-path="url(#clip470)" d="M808.738 563.517 L818.286 563.517 L818.286 530.56 L807.899 532.644 L807.899 527.32 L818.228 525.236 L824.073 525.236 L824.073 563.517 L833.622 563.517 L833.622 568.436 L808.738 568.436 L808.738 563.517 Z" fill="#000000" fill-rule="evenodd" fill-opacity="1" /><path clip-path="url(#clip470)" d="M857.927 529.085 Q853.413 529.085 851.128 533.541 Q848.871 537.968 848.871 546.88 Q848.871 555.763 851.128 560.219 Q853.413 564.646 857.927 564.646 Q862.47 564.646 864.727 560.219 Q867.013 555.763 867.013 546.88 Q867.013 537.968 864.727 533.541 Q862.47 529.085 857.927 529.085 M857.927 524.455 Q865.19 524.455 869.009 530.213 Q872.858 535.942 872.858 546.88 Q872.858 557.788 869.009 563.546 Q865.19 569.276 857.927 569.276 Q850.665 569.276 846.816 563.546 Q842.997 557.788 842.997 546.88 Q842.997 535.942 846.816 530.213 Q850.665 524.455 857.927 524.455 Z" fill="#000000" fill-rule="evenodd" fill-opacity="1" /><path clip-path="url(#clip470)" d="M895.63 529.085 Q891.116 529.085 888.83 533.541 Q886.573 537.968 886.573 546.88 Q886.573 555.763 888.83 560.219 Q891.116 564.646 895.63 564.646 Q900.172 564.646 902.429 560.219 Q904.715 555.763 904.715 546.88 Q904.715 537.968 902.429 533.541 Q900.172 529.085 895.63 529.085 M895.63 524.455 Q902.892 524.455 906.712 530.213 Q910.56 535.942 910.56 546.88 Q910.56 557.788 906.712 563.546 Q902.892 569.276 895.63 569.276 Q888.367 569.276 884.519 563.546 Q880.699 557.788 880.699 546.88 Q880.699 535.942 884.519 530.213 Q888.367 524.455 895.63 524.455 Z" fill="#000000" fill-rule="evenodd" fill-opacity="1" /><path clip-path="url(#clip470)" d="M1137.81 563.517 L1147.35 563.517 L1147.35 530.56 L1136.97 532.644 L1136.97 527.32 L1147.3 525.236 L1153.14 525.236 L1153.14 563.517 L1162.69 563.517 L1162.69 568.436 L1137.81 568.436 L1137.81 563.517 Z" fill="#000000" fill-rule="evenodd" fill-opacity="1" /><path clip-path="url(#clip470)" d="M1174.55 525.236 L1197.5 525.236 L1197.5 530.155 L1179.91 530.155 L1179.91 540.746 Q1181.18 540.312 1182.45 540.109 Q1183.73 539.878 1185 539.878 Q1192.23 539.878 1196.46 543.842 Q1200.68 547.806 1200.68 554.577 Q1200.68 561.55 1196.34 565.427 Q1192 569.276 1184.1 569.276 Q1181.38 569.276 1178.55 568.813 Q1175.74 568.35 1172.73 567.424 L1172.73 561.55 Q1175.33 562.968 1178.11 563.662 Q1180.89 564.357 1183.99 564.357 Q1188.99 564.357 1191.91 561.724 Q1194.84 559.09 1194.84 554.577 Q1194.84 550.063 1191.91 547.43 Q1188.99 544.797 1183.99 544.797 Q1181.64 544.797 1179.3 545.317 Q1176.98 545.838 1174.55 546.938 L1174.55 525.236 Z" fill="#000000" fill-rule="evenodd" fill-opacity="1" /><path clip-path="url(#clip470)" d="M1224.7 529.085 Q1220.18 529.085 1217.9 533.541 Q1215.64 537.968 1215.64 546.88 Q1215.64 555.763 1217.9 560.219 Q1220.18 564.646 1224.7 564.646 Q1229.24 564.646 1231.5 560.219 Q1233.78 555.763 1233.78 546.88 Q1233.78 537.968 1231.5 533.541 Q1229.24 529.085 1224.7 529.085 M1224.7 524.455 Q1231.96 524.455 1235.78 530.213 Q1239.63 535.942 1239.63 546.88 Q1239.63 557.788 1235.78 563.546 Q1231.96 569.276 1224.7 569.276 Q1217.43 569.276 1213.59 563.546 Q1209.77 557.788 1209.77 546.88 Q1209.77 535.942 1213.59 530.213 Q1217.43 524.455 1224.7 524.455 Z" fill="#000000" fill-rule="evenodd" fill-opacity="1" /><polyline clip-path="url(#clip470)" style="stroke:#000000; stroke-linecap:round; stroke-linejoin:round; stroke-width:4; stroke-opacity:1; fill:none" points="
  201.094,503.236 201.094,47.2441 
  "/>
<polyline clip-path="url(#clip470)" style="stroke:#000000; stroke-linecap:round; stroke-linejoin:round; stroke-width:4; stroke-opacity:1; fill:none" points="
  201.094,489.913 219.992,489.913 
  "/>
<polyline clip-path="url(#clip470)" style="stroke:#000000; stroke-linecap:round; stroke-linejoin:round; stroke-width:4; stroke-opacity:1; fill:none" points="
  201.094,382.469 219.992,382.469 
  "/>
<polyline clip-path="url(#clip470)" style="stroke:#000000; stroke-linecap:round; stroke-linejoin:round; stroke-width:4; stroke-opacity:1; fill:none" points="
  201.094,275.025 219.992,275.025 
  "/>
<polyline clip-path="url(#clip470)" style="stroke:#000000; stroke-linecap:round; stroke-linejoin:round; stroke-width:4; stroke-opacity:1; fill:none" points="
  201.094,167.581 219.992,167.581 
  "/>
<polyline clip-path="url(#clip470)" style="stroke:#000000; stroke-linecap:round; stroke-linejoin:round; stroke-width:4; stroke-opacity:1; fill:none" points="
  201.094,60.1374 219.992,60.1374 
  "/>
<path clip-path="url(#clip470)" d="M70.9226 472.162 Q66.4087 472.162 64.1229 476.618 Q61.8659 481.045 61.8659 489.957 Q61.8659 498.84 64.1229 503.296 Q66.4087 507.723 70.9226 507.723 Q75.4654 507.723 77.7223 503.296 Q80.0082 498.84 80.0082 489.957 Q80.0082 481.045 77.7223 476.618 Q75.4654 472.162 70.9226 472.162 M70.9226 467.532 Q78.1853 467.532 82.0047 473.29 Q85.8531 479.019 85.8531 489.957 Q85.8531 500.865 82.0047 506.623 Q78.1853 512.353 70.9226 512.353 Q63.6599 512.353 59.8115 506.623 Q55.9921 500.865 55.9921 489.957 Q55.9921 479.019 59.8115 473.29 Q63.6599 467.532 70.9226 467.532 Z" fill="#000000" fill-rule="evenodd" fill-opacity="1" /><path clip-path="url(#clip470)" d="M96.125 504.164 L102.23 504.164 L102.23 511.513 L96.125 511.513 L96.125 504.164 Z" fill="#000000" fill-rule="evenodd" fill-opacity="1" /><path clip-path="url(#clip470)" d="M127.462 472.162 Q122.948 472.162 120.662 476.618 Q118.405 481.045 118.405 489.957 Q118.405 498.84 120.662 503.296 Q122.948 507.723 127.462 507.723 Q132.004 507.723 134.261 503.296 Q136.547 498.84 136.547 489.957 Q136.547 481.045 134.261 476.618 Q132.004 472.162 127.462 472.162 M127.462 467.532 Q134.724 467.532 138.544 473.29 Q142.392 479.019 142.392 489.957 Q142.392 500.865 138.544 506.623 Q134.724 512.353 127.462 512.353 Q120.199 512.353 116.351 506.623 Q112.531 500.865 112.531 489.957 Q112.531 479.019 116.351 473.29 Q120.199 467.532 127.462 467.532 Z" fill="#000000" fill-rule="evenodd" fill-opacity="1" /><path clip-path="url(#clip470)" d="M165.164 472.162 Q160.65 472.162 158.364 476.618 Q156.107 481.045 156.107 489.957 Q156.107 498.84 158.364 503.296 Q160.65 507.723 165.164 507.723 Q169.707 507.723 171.964 503.296 Q174.25 498.84 174.25 489.957 Q174.25 481.045 171.964 476.618 Q169.707 472.162 165.164 472.162 M165.164 467.532 Q172.427 467.532 176.246 473.29 Q180.094 479.019 180.094 489.957 Q180.094 500.865 176.246 506.623 Q172.427 512.353 165.164 512.353 Q157.901 512.353 154.053 506.623 Q150.234 500.865 150.234 489.957 Q150.234 479.019 154.053 473.29 Q157.901 467.532 165.164 467.532 Z" fill="#000000" fill-rule="evenodd" fill-opacity="1" /><path clip-path="url(#clip470)" d="M72.1668 364.718 Q67.6529 364.718 65.3671 369.174 Q63.1101 373.601 63.1101 382.513 Q63.1101 391.396 65.3671 395.852 Q67.6529 400.279 72.1668 400.279 Q76.7096 400.279 78.9665 395.852 Q81.2524 391.396 81.2524 382.513 Q81.2524 373.601 78.9665 369.174 Q76.7096 364.718 72.1668 364.718 M72.1668 360.088 Q79.4295 360.088 83.2489 365.846 Q87.0973 371.575 87.0973 382.513 Q87.0973 393.421 83.2489 399.179 Q79.4295 404.909 72.1668 404.909 Q64.9041 404.909 61.0558 399.179 Q57.2363 393.421 57.2363 382.513 Q57.2363 371.575 61.0558 365.846 Q64.9041 360.088 72.1668 360.088 Z" fill="#000000" fill-rule="evenodd" fill-opacity="1" /><path clip-path="url(#clip470)" d="M97.3692 396.72 L103.475 396.72 L103.475 404.069 L97.3692 404.069 L97.3692 396.72 Z" fill="#000000" fill-rule="evenodd" fill-opacity="1" /><path clip-path="url(#clip470)" d="M121.241 399.15 L141.64 399.15 L141.64 404.069 L114.209 404.069 L114.209 399.15 Q117.537 395.707 123.266 389.92 Q129.024 384.104 130.5 382.426 Q133.307 379.272 134.406 377.102 Q135.535 374.903 135.535 372.791 Q135.535 369.347 133.104 367.177 Q130.702 365.007 126.825 365.007 Q124.076 365.007 121.009 365.962 Q117.971 366.917 114.499 368.855 L114.499 362.953 Q118.029 361.535 121.096 360.812 Q124.163 360.088 126.709 360.088 Q133.422 360.088 137.415 363.445 Q141.408 366.801 141.408 372.414 Q141.408 375.076 140.396 377.478 Q139.412 379.851 136.779 383.091 Q136.055 383.931 132.178 387.953 Q128.301 391.946 121.241 399.15 Z" fill="#000000" fill-rule="evenodd" fill-opacity="1" /><path clip-path="url(#clip470)" d="M153.966 360.869 L176.912 360.869 L176.912 365.788 L159.319 365.788 L159.319 376.379 Q160.592 375.945 161.865 375.742 Q163.139 375.511 164.412 375.511 Q171.645 375.511 175.87 379.475 Q180.094 383.439 180.094 390.21 Q180.094 397.183 175.754 401.06 Q171.414 404.909 163.515 404.909 Q160.795 404.909 157.959 404.446 Q155.152 403.983 152.143 403.057 L152.143 397.183 Q154.747 398.601 157.525 399.295 Q160.303 399.99 163.399 399.99 Q168.405 399.99 171.327 397.356 Q174.25 394.723 174.25 390.21 Q174.25 385.696 171.327 383.063 Q168.405 380.429 163.399 380.429 Q161.055 380.429 158.711 380.95 Q156.397 381.471 153.966 382.571 L153.966 360.869 Z" fill="#000000" fill-rule="evenodd" fill-opacity="1" /><path clip-path="url(#clip470)" d="M70.9226 257.274 Q66.4087 257.274 64.1229 261.73 Q61.8659 266.157 61.8659 275.069 Q61.8659 283.952 64.1229 288.408 Q66.4087 292.835 70.9226 292.835 Q75.4654 292.835 77.7223 288.408 Q80.0082 283.952 80.0082 275.069 Q80.0082 266.157 77.7223 261.73 Q75.4654 257.274 70.9226 257.274 M70.9226 252.644 Q78.1853 252.644 82.0047 258.402 Q85.8531 264.131 85.8531 275.069 Q85.8531 285.977 82.0047 291.735 Q78.1853 297.464 70.9226 297.464 Q63.6599 297.464 59.8115 291.735 Q55.9921 285.977 55.9921 275.069 Q55.9921 264.131 59.8115 258.402 Q63.6599 252.644 70.9226 252.644 Z" fill="#000000" fill-rule="evenodd" fill-opacity="1" /><path clip-path="url(#clip470)" d="M96.125 289.276 L102.23 289.276 L102.23 296.625 L96.125 296.625 L96.125 289.276 Z" fill="#000000" fill-rule="evenodd" fill-opacity="1" /><path clip-path="url(#clip470)" d="M115.02 253.425 L137.965 253.425 L137.965 258.344 L120.373 258.344 L120.373 268.935 Q121.646 268.501 122.919 268.298 Q124.192 268.067 125.465 268.067 Q132.699 268.067 136.923 272.031 Q141.148 275.995 141.148 282.766 Q141.148 289.739 136.808 293.616 Q132.467 297.464 124.568 297.464 Q121.848 297.464 119.013 297.002 Q116.206 296.539 113.197 295.613 L113.197 289.739 Q115.801 291.157 118.579 291.851 Q121.356 292.546 124.452 292.546 Q129.458 292.546 132.381 289.912 Q135.303 287.279 135.303 282.766 Q135.303 278.252 132.381 275.619 Q129.458 272.985 124.452 272.985 Q122.109 272.985 119.765 273.506 Q117.45 274.027 115.02 275.127 L115.02 253.425 Z" fill="#000000" fill-rule="evenodd" fill-opacity="1" /><path clip-path="url(#clip470)" d="M165.164 257.274 Q160.65 257.274 158.364 261.73 Q156.107 266.157 156.107 275.069 Q156.107 283.952 158.364 288.408 Q160.65 292.835 165.164 292.835 Q169.707 292.835 171.964 288.408 Q174.25 283.952 174.25 275.069 Q174.25 266.157 171.964 261.73 Q169.707 257.274 165.164 257.274 M165.164 252.644 Q172.427 252.644 176.246 258.402 Q180.094 264.131 180.094 275.069 Q180.094 285.977 176.246 291.735 Q172.427 297.464 165.164 297.464 Q157.901 297.464 154.053 291.735 Q150.234 285.977 150.234 275.069 Q150.234 264.131 154.053 258.402 Q157.901 252.644 165.164 252.644 Z" fill="#000000" fill-rule="evenodd" fill-opacity="1" /><path clip-path="url(#clip470)" d="M72.1668 149.83 Q67.6529 149.83 65.3671 154.286 Q63.1101 158.713 63.1101 167.625 Q63.1101 176.508 65.3671 180.964 Q67.6529 185.391 72.1668 185.391 Q76.7096 185.391 78.9665 180.964 Q81.2524 176.508 81.2524 167.625 Q81.2524 158.713 78.9665 154.286 Q76.7096 149.83 72.1668 149.83 M72.1668 145.2 Q79.4295 145.2 83.2489 150.958 Q87.0973 156.687 87.0973 167.625 Q87.0973 178.533 83.2489 184.291 Q79.4295 190.02 72.1668 190.02 Q64.9041 190.02 61.0558 184.291 Q57.2363 178.533 57.2363 167.625 Q57.2363 156.687 61.0558 150.958 Q64.9041 145.2 72.1668 145.2 Z" fill="#000000" fill-rule="evenodd" fill-opacity="1" /><path clip-path="url(#clip470)" d="M97.3692 181.832 L103.475 181.832 L103.475 189.181 L97.3692 189.181 L97.3692 181.832 Z" fill="#000000" fill-rule="evenodd" fill-opacity="1" /><path clip-path="url(#clip470)" d="M114.73 145.981 L142.508 145.981 L142.508 148.47 L126.825 189.181 L120.72 189.181 L135.477 150.9 L114.73 150.9 L114.73 145.981 Z" fill="#000000" fill-rule="evenodd" fill-opacity="1" /><path clip-path="url(#clip470)" d="M153.966 145.981 L176.912 145.981 L176.912 150.9 L159.319 150.9 L159.319 161.491 Q160.592 161.057 161.865 160.854 Q163.139 160.623 164.412 160.623 Q171.645 160.623 175.87 164.587 Q180.094 168.551 180.094 175.321 Q180.094 182.295 175.754 186.172 Q171.414 190.02 163.515 190.02 Q160.795 190.02 157.959 189.558 Q155.152 189.095 152.143 188.169 L152.143 182.295 Q154.747 183.713 157.525 184.407 Q160.303 185.102 163.399 185.102 Q168.405 185.102 171.327 182.468 Q174.25 179.835 174.25 175.321 Q174.25 170.808 171.327 168.175 Q168.405 165.541 163.399 165.541 Q161.055 165.541 158.711 166.062 Q156.397 166.583 153.966 167.683 L153.966 145.981 Z" fill="#000000" fill-rule="evenodd" fill-opacity="1" /><path clip-path="url(#clip470)" d="M59.4354 76.8184 L68.984 76.8184 L68.984 43.8614 L58.5963 45.9447 L58.5963 40.6207 L68.9261 38.5374 L74.771 38.5374 L74.771 76.8184 L84.3195 76.8184 L84.3195 81.7374 L59.4354 81.7374 L59.4354 76.8184 Z" fill="#000000" fill-rule="evenodd" fill-opacity="1" /><path clip-path="url(#clip470)" d="M96.125 74.3879 L102.23 74.3879 L102.23 81.7374 L96.125 81.7374 L96.125 74.3879 Z" fill="#000000" fill-rule="evenodd" fill-opacity="1" /><path clip-path="url(#clip470)" d="M127.462 42.3857 Q122.948 42.3857 120.662 46.8417 Q118.405 51.2688 118.405 60.1808 Q118.405 69.0638 120.662 73.5198 Q122.948 77.9469 127.462 77.9469 Q132.004 77.9469 134.261 73.5198 Q136.547 69.0638 136.547 60.1808 Q136.547 51.2688 134.261 46.8417 Q132.004 42.3857 127.462 42.3857 M127.462 37.7561 Q134.724 37.7561 138.544 43.5142 Q142.392 49.2433 142.392 60.1808 Q142.392 71.0893 138.544 76.8474 Q134.724 82.5765 127.462 82.5765 Q120.199 82.5765 116.351 76.8474 Q112.531 71.0893 112.531 60.1808 Q112.531 49.2433 116.351 43.5142 Q120.199 37.7561 127.462 37.7561 Z" fill="#000000" fill-rule="evenodd" fill-opacity="1" /><path clip-path="url(#clip470)" d="M165.164 42.3857 Q160.65 42.3857 158.364 46.8417 Q156.107 51.2688 156.107 60.1808 Q156.107 69.0638 158.364 73.5198 Q160.65 77.9469 165.164 77.9469 Q169.707 77.9469 171.964 73.5198 Q174.25 69.0638 174.25 60.1808 Q174.25 51.2688 171.964 46.8417 Q169.707 42.3857 165.164 42.3857 M165.164 37.7561 Q172.427 37.7561 176.246 43.5142 Q180.094 49.2433 180.094 60.1808 Q180.094 71.0893 176.246 76.8474 Q172.427 82.5765 165.164 82.5765 Q157.901 82.5765 154.053 76.8474 Q150.234 71.0893 150.234 60.1808 Q150.234 49.2433 154.053 43.5142 Q157.901 37.7561 165.164 37.7561 Z" fill="#000000" fill-rule="evenodd" fill-opacity="1" /><polyline clip-path="url(#clip472)" style="stroke:#ff00ff; stroke-linecap:round; stroke-linejoin:round; stroke-width:16; stroke-opacity:1; fill:none" points="
  207.676,275.133 214.257,275.22 220.839,275.37 227.42,275.63 234.001,276.079 240.583,276.849 247.164,278.167 253.745,280.407 260.327,284.165 266.908,290.344 
  273.489,300.177 280.071,315.028 286.652,335.78 293.233,361.841 299.815,390.505 306.396,417.782 312.977,440.387 319.559,457.073 326.14,468.37 332.721,475.584 
  339.303,480.029 345.884,482.722 352.465,484.35 359.047,485.349 365.628,485.976 372.21,486.38 378.791,486.642 385.372,486.811 391.954,486.915 398.535,486.972 
  405.116,486.992 411.698,486.98 418.279,486.938 424.86,486.864 431.442,486.754 438.023,486.602 444.604,486.399 451.186,486.137 457.767,485.803 464.348,485.389 
  470.93,484.885 477.511,484.291 484.092,483.609 490.674,482.851 497.255,482.037 503.837,481.188 510.418,480.33 516.999,479.485 523.581,478.671 530.162,477.902 
  536.743,477.186 543.325,476.527 549.906,475.926 556.487,475.382 563.069,474.89 569.65,474.447 576.231,474.049 582.813,473.689 589.394,473.366 595.975,473.073 
  602.557,472.808 609.138,472.568 615.719,472.35 622.301,472.151 628.882,471.969 635.463,471.803 642.045,471.649 648.626,471.508 655.208,471.378 661.789,471.258 
  668.37,471.146 674.952,471.042 681.533,470.945 688.114,470.854 694.696,470.769 701.277,470.69 707.858,470.616 714.44,470.545 721.021,470.479 727.602,470.417 
  734.184,470.358 740.765,470.303 747.346,470.25 753.928,470.2 760.509,470.152 767.09,470.107 773.672,470.064 780.253,470.023 786.835,469.983 793.416,469.946 
  799.997,469.91 806.579,469.876 813.16,469.843 819.741,469.811 826.323,469.781 832.904,469.752 839.485,469.724 846.067,469.697 852.648,469.671 859.229,469.646 
  865.811,469.622 872.392,469.599 878.973,469.577 885.555,469.555 892.136,469.534 898.717,469.514 905.299,469.495 911.88,469.476 918.461,469.457 925.043,469.44 
  931.624,469.422 938.206,469.406 944.787,469.389 951.368,469.374 957.95,469.358 964.531,469.343 971.112,469.329 977.694,469.315 984.275,469.301 990.856,469.288 
  997.438,469.275 1004.02,469.262 1010.6,469.25 1017.18,469.238 1023.76,469.226 1030.34,469.215 1036.93,469.203 1043.51,469.192 1050.09,469.182 1056.67,469.171 
  1063.25,469.161 1069.83,469.151 1076.41,469.141 1083,469.132 1089.58,469.123 1096.16,469.113 1102.74,469.105 1109.32,469.096 1115.9,469.087 1122.48,469.079 
  1129.06,469.071 1135.65,469.062 1142.23,469.055 1148.81,469.047 1155.39,469.039 1161.97,469.032 1168.55,469.024 1175.13,469.017 1181.72,469.01 1188.3,469.003 
  1194.88,468.996 
  "/>
<polyline clip-path="url(#clip472)" style="stroke:#2000d4; stroke-linecap:round; stroke-linejoin:round; stroke-width:16; stroke-opacity:1; fill:none" stroke-dasharray="8, 16" points="
  207.676,489.913 214.257,489.913 220.839,489.913 227.42,489.913 234.001,489.913 240.583,489.913 247.164,489.913 253.745,489.913 260.327,489.913 266.908,489.913 
  273.489,489.912 280.071,489.912 286.652,489.911 293.233,489.91 299.815,489.909 306.396,489.908 312.977,489.907 319.559,489.907 326.14,489.906 332.721,489.905 
  339.303,489.905 345.884,489.904 352.465,489.904 359.047,489.904 365.628,489.903 372.21,489.903 378.791,489.902 385.372,489.902 391.954,489.901 398.535,489.901 
  405.116,489.901 411.698,489.9 418.279,489.9 424.86,489.899 431.442,489.899 438.023,489.898 444.604,489.898 451.186,489.898 457.767,489.897 464.348,489.897 
  470.93,489.896 477.511,489.896 484.092,489.895 490.674,489.895 497.255,489.895 503.837,489.894 510.418,489.894 516.999,489.893 523.581,489.893 530.162,489.892 
  536.743,489.892 543.325,489.892 549.906,489.891 556.487,489.891 563.069,489.89 569.65,489.89 576.231,489.889 582.813,489.889 589.394,489.889 595.975,489.888 
  602.557,489.888 609.138,489.887 615.719,489.887 622.301,489.886 628.882,489.886 635.463,489.886 642.045,489.885 648.626,489.885 655.208,489.884 661.789,489.884 
  668.37,489.883 674.952,489.883 681.533,489.883 688.114,489.882 694.696,489.882 701.277,489.881 707.858,489.881 714.44,489.88 721.021,489.88 727.602,489.88 
  734.184,489.879 740.765,489.879 747.346,489.878 753.928,489.878 760.509,489.877 767.09,489.877 773.672,489.877 780.253,489.876 786.835,489.876 793.416,489.875 
  799.997,489.875 806.579,489.874 813.16,489.874 819.741,489.874 826.323,489.873 832.904,489.873 839.485,489.872 846.067,489.872 852.648,489.871 859.229,489.871 
  865.811,489.871 872.392,489.87 878.973,489.87 885.555,489.869 892.136,489.869 898.717,489.868 905.299,489.868 911.88,489.868 918.461,489.867 925.043,489.867 
  931.624,489.866 938.206,489.866 944.787,489.865 951.368,489.865 957.95,489.865 964.531,489.864 971.112,489.864 977.694,489.863 984.275,489.863 990.856,489.862 
  997.438,489.862 1004.02,489.862 1010.6,489.861 1017.18,489.861 1023.76,489.86 1030.34,489.86 1036.93,489.859 1043.51,489.859 1050.09,489.859 1056.67,489.858 
  1063.25,489.858 1069.83,489.857 1076.41,489.857 1083,489.856 1089.58,489.856 1096.16,489.856 1102.74,489.855 1109.32,489.855 1115.9,489.854 1122.48,489.854 
  1129.06,489.853 1135.65,489.853 1142.23,489.853 1148.81,489.852 1155.39,489.852 1161.97,489.851 1168.55,489.851 1175.13,489.85 1181.72,489.85 1188.3,489.85 
  1194.88,489.849 
  "/>
<polyline clip-path="url(#clip472)" style="stroke:#008900; stroke-linecap:round; stroke-linejoin:round; stroke-width:16; stroke-opacity:1; fill:none" stroke-dasharray="64, 40" points="
  207.676,489.913 214.257,489.913 220.839,489.913 227.42,489.913 234.001,489.912 240.583,489.912 247.164,489.91 253.745,489.908 260.327,489.904 266.908,489.898 
  273.489,489.888 280.071,489.873 286.652,489.851 293.233,489.824 299.815,489.792 306.396,489.758 312.977,489.724 319.559,489.688 326.14,489.644 332.721,489.582 
  339.303,489.49 345.884,489.353 352.465,489.154 359.047,488.876 365.628,488.504 372.21,488.025 378.791,487.43 385.372,486.715 391.954,485.882 398.535,484.936 
  405.116,483.88 411.698,482.715 418.279,481.433 424.86,480.024 431.442,478.475 438.023,476.772 444.604,474.91 451.186,472.892 457.767,470.735 464.348,468.474 
  470.93,466.157 477.511,463.844 484.092,461.596 490.674,459.464 497.255,457.49 503.837,455.697 510.418,454.094 516.999,452.676 523.581,451.432 530.162,450.346 
  536.743,449.399 543.325,448.574 549.906,447.854 556.487,447.223 563.069,446.67 569.65,446.182 576.231,445.75 582.813,445.365 589.394,445.022 595.975,444.715 
  602.557,444.438 609.138,444.189 615.719,443.962 622.301,443.756 628.882,443.568 635.463,443.396 642.045,443.238 648.626,443.092 655.208,442.958 661.789,442.834 
  668.37,442.719 674.952,442.612 681.533,442.513 688.114,442.42 694.696,442.334 701.277,442.253 707.858,442.177 714.44,442.106 721.021,442.039 727.602,441.976 
  734.184,441.917 740.765,441.861 747.346,441.809 753.928,441.759 760.509,441.712 767.09,441.667 773.672,441.625 780.253,441.585 786.835,441.547 793.416,441.511 
  799.997,441.477 806.579,441.444 813.16,441.413 819.741,441.383 826.323,441.355 832.904,441.328 839.485,441.302 846.067,441.277 852.648,441.253 859.229,441.231 
  865.811,441.209 872.392,441.188 878.973,441.168 885.555,441.149 892.136,441.131 898.717,441.113 905.299,441.096 911.88,441.08 918.461,441.064 925.043,441.049 
  931.624,441.034 938.206,441.02 944.787,441.007 951.368,440.994 957.95,440.981 964.531,440.969 971.112,440.957 977.694,440.945 984.275,440.934 990.856,440.924 
  997.438,440.913 1004.02,440.903 1010.6,440.894 1017.18,440.884 1023.76,440.875 1030.34,440.866 1036.93,440.858 1043.51,440.849 1050.09,440.841 1056.67,440.833 
  1063.25,440.826 1069.83,440.818 1076.41,440.811 1083,440.804 1089.58,440.797 1096.16,440.79 1102.74,440.784 1109.32,440.777 1115.9,440.771 1122.48,440.765 
  1129.06,440.759 1135.65,440.754 1142.23,440.748 1148.81,440.742 1155.39,440.737 1161.97,440.732 1168.55,440.727 1175.13,440.722 1181.72,440.717 1188.3,440.712 
  1194.88,440.708 
  "/>
<polyline clip-path="url(#clip472)" style="stroke:#008900; stroke-linecap:round; stroke-linejoin:round; stroke-width:16; stroke-opacity:1; fill:none" stroke-dasharray="8, 16" points="
  207.676,489.913 214.257,489.913 220.839,489.913 227.42,489.913 234.001,489.912 240.583,489.912 247.164,489.911 253.745,489.909 260.327,489.905 266.908,489.9 
  273.489,489.891 280.071,489.877 286.652,489.858 293.233,489.835 299.815,489.808 306.396,489.783 312.977,489.761 319.559,489.744 326.14,489.731 332.721,489.719 
  339.303,489.707 345.884,489.694 352.465,489.678 359.047,489.661 365.628,489.643 372.21,489.627 378.791,489.612 385.372,489.601 391.954,489.593 398.535,489.588 
  405.116,489.586 411.698,489.587 418.279,489.59 424.86,489.595 431.442,489.603 438.023,489.613 444.604,489.625 451.186,489.638 457.767,489.653 464.348,489.669 
  470.93,489.685 477.511,489.702 484.092,489.718 490.674,489.734 497.255,489.748 503.837,489.761 510.418,489.772 516.999,489.782 523.581,489.791 530.162,489.799 
  536.743,489.805 543.325,489.811 549.906,489.815 556.487,489.819 563.069,489.823 569.65,489.826 576.231,489.829 582.813,489.831 589.394,489.833 595.975,489.835 
  602.557,489.837 609.138,489.838 615.719,489.839 622.301,489.841 628.882,489.842 635.463,489.843 642.045,489.843 648.626,489.844 655.208,489.845 661.789,489.846 
  668.37,489.846 674.952,489.847 681.533,489.847 688.114,489.848 694.696,489.848 701.277,489.849 707.858,489.849 714.44,489.849 721.021,489.85 727.602,489.85 
  734.184,489.85 740.765,489.85 747.346,489.851 753.928,489.851 760.509,489.851 767.09,489.851 773.672,489.851 780.253,489.852 786.835,489.852 793.416,489.852 
  799.997,489.852 806.579,489.852 813.16,489.852 819.741,489.853 826.323,489.853 832.904,489.853 839.485,489.853 846.067,489.853 852.648,489.853 859.229,489.853 
  865.811,489.853 872.392,489.853 878.973,489.853 885.555,489.853 892.136,489.853 898.717,489.854 905.299,489.854 911.88,489.854 918.461,489.854 925.043,489.854 
  931.624,489.854 938.206,489.854 944.787,489.854 951.368,489.854 957.95,489.854 964.531,489.854 971.112,489.854 977.694,489.854 984.275,489.854 990.856,489.854 
  997.438,489.854 1004.02,489.854 1010.6,489.854 1017.18,489.854 1023.76,489.854 1030.34,489.854 1036.93,489.854 1043.51,489.854 1050.09,489.854 1056.67,489.854 
  1063.25,489.854 1069.83,489.854 1076.41,489.854 1083,489.854 1089.58,489.854 1096.16,489.854 1102.74,489.854 1109.32,489.854 1115.9,489.854 1122.48,489.854 
  1129.06,489.854 1135.65,489.854 1142.23,489.854 1148.81,489.854 1155.39,489.854 1161.97,489.854 1168.55,489.854 1175.13,489.854 1181.72,489.854 1188.3,489.854 
  1194.88,489.854 
  "/>
<polyline clip-path="url(#clip472)" style="stroke:#2000d4; stroke-linecap:round; stroke-linejoin:round; stroke-width:16; stroke-opacity:1; fill:none" points="
  207.676,489.484 214.257,489.133 220.839,488.529 227.42,487.487 234.001,485.7 240.583,482.646 247.164,477.471 253.745,468.824 260.327,454.701 266.908,432.477 
  273.489,399.476 280.071,354.462 286.652,299.681 293.233,241.564 299.815,188.231 306.396,145.418 312.977,114.593 319.559,94.094 326.14,81.1713 332.721,73.2937 
  339.303,68.585 345.884,65.7966 352.465,64.1464 359.047,63.1614 365.628,62.563 372.21,62.1904 378.791,61.9518 385.372,61.7947 391.954,61.6882 398.535,61.614 
  405.116,61.5606 411.698,61.5211 418.279,61.4909 424.86,61.4671 431.442,61.4477 438.023,61.4316 444.604,61.4179 451.186,61.406 457.767,61.3955 464.348,61.3861 
  470.93,61.3776 477.511,61.3698 484.092,61.3627 490.674,61.3562 497.255,61.3503 503.837,61.3449 510.418,61.3401 516.999,61.3356 523.581,61.3317 530.162,61.3282 
  536.743,61.325 543.325,61.3222 549.906,61.3197 556.487,61.3176 563.069,61.3157 569.65,61.314 576.231,61.3126 582.813,61.3113 589.394,61.3103 595.975,61.3094 
  602.557,61.3086 609.138,61.308 615.719,61.3075 622.301,61.3071 628.882,61.3068 635.463,61.3066 642.045,61.3065 648.626,61.3065 655.208,61.3065 661.789,61.3066 
  668.37,61.3068 674.952,61.307 681.533,61.3072 688.114,61.3075 694.696,61.3079 701.277,61.3082 707.858,61.3086 714.44,61.3091 721.021,61.3096 727.602,61.3101 
  734.184,61.3106 740.765,61.3111 747.346,61.3117 753.928,61.3123 760.509,61.3129 767.09,61.3135 773.672,61.3142 780.253,61.3148 786.835,61.3155 793.416,61.3162 
  799.997,61.3169 806.579,61.3176 813.16,61.3183 819.741,61.319 826.323,61.3198 832.904,61.3205 839.485,61.3213 846.067,61.322 852.648,61.3228 859.229,61.3236 
  865.811,61.3243 872.392,61.3251 878.973,61.3259 885.555,61.3267 892.136,61.3275 898.717,61.3283 905.299,61.3291 911.88,61.3299 918.461,61.3307 925.043,61.3315 
  931.624,61.3323 938.206,61.3332 944.787,61.334 951.368,61.3348 957.95,61.3356 964.531,61.3365 971.112,61.3373 977.694,61.3381 984.275,61.339 990.856,61.3398 
  997.438,61.3406 1004.02,61.3415 1010.6,61.3423 1017.18,61.3431 1023.76,61.344 1030.34,61.3448 1036.93,61.3457 1043.51,61.3465 1050.09,61.3473 1056.67,61.3482 
  1063.25,61.349 1069.83,61.3499 1076.41,61.3507 1083,61.3516 1089.58,61.3524 1096.16,61.3533 1102.74,61.3541 1109.32,61.355 1115.9,61.3558 1122.48,61.3567 
  1129.06,61.3575 1135.65,61.3584 1142.23,61.3592 1148.81,61.3601 1155.39,61.3609 1161.97,61.3618 1168.55,61.3626 1175.13,61.3635 1181.72,61.3644 1188.3,61.3652 
  1194.88,61.3661 
  "/>
<polyline clip-path="url(#clip472)" style="stroke:#008900; stroke-linecap:round; stroke-linejoin:round; stroke-width:16; stroke-opacity:1; fill:none" points="
  207.676,489.699 214.257,489.543 220.839,489.273 227.42,488.808 234.001,488.01 240.583,486.647 247.164,484.337 253.745,480.477 260.327,474.171 266.908,464.246 
  273.489,449.502 280.071,429.373 286.652,404.836 293.233,378.712 299.815,354.546 306.396,334.773 312.977,319.848 319.559,308.716 326.14,299.683 332.721,290.987 
  339.303,281.099 345.884,268.974 352.465,254.372 359.047,238.001 365.628,221.232 372.21,205.556 378.791,192.161 385.372,181.785 391.954,174.733 398.535,170.986 
  405.116,170.333 411.698,172.503 418.279,177.249 424.86,184.384 431.442,193.773 438.023,205.31 444.604,218.875 451.186,234.283 457.767,251.253 464.348,269.381 
  470.93,288.157 477.511,307.005 484.092,325.36 490.674,342.735 497.255,358.774 503.837,373.272 510.418,386.16 516.999,397.475 523.581,407.327 530.162,415.858 
  536.743,423.228 543.325,429.593 549.906,435.096 556.487,439.866 563.069,444.014 569.65,447.635 576.231,450.809 582.813,453.604 589.394,456.076 595.975,458.272 
  602.557,460.231 609.138,461.986 615.719,463.566 622.301,464.992 628.882,466.286 635.463,467.462 642.045,468.536 648.626,469.52 655.208,470.423 661.789,471.256 
  668.37,472.025 674.952,472.736 681.533,473.397 688.114,474.012 694.696,474.586 701.277,475.121 707.858,475.623 714.44,476.093 721.021,476.535 727.602,476.951 
  734.184,477.344 740.765,477.714 747.346,478.064 753.928,478.395 760.509,478.709 767.09,479.007 773.672,479.291 780.253,479.561 786.835,479.817 793.416,480.062 
  799.997,480.296 806.579,480.519 813.16,480.733 819.741,480.937 826.323,481.133 832.904,481.321 839.485,481.501 846.067,481.674 852.648,481.84 859.229,482 
  865.811,482.154 872.392,482.302 878.973,482.445 885.555,482.582 892.136,482.715 898.717,482.844 905.299,482.967 911.88,483.087 918.461,483.203 925.043,483.315 
  931.624,483.423 938.206,483.528 944.787,483.63 951.368,483.729 957.95,483.824 964.531,483.917 971.112,484.007 977.694,484.095 984.275,484.18 990.856,484.262 
  997.438,484.343 1004.02,484.421 1010.6,484.497 1017.18,484.571 1023.76,484.643 1030.34,484.713 1036.93,484.781 1043.51,484.848 1050.09,484.913 1056.67,484.976 
  1063.25,485.038 1069.83,485.098 1076.41,485.157 1083,485.214 1089.58,485.27 1096.16,485.325 1102.74,485.378 1109.32,485.431 1115.9,485.482 1122.48,485.532 
  1129.06,485.581 1135.65,485.628 1142.23,485.675 1148.81,485.721 1155.39,485.766 1161.97,485.81 1168.55,485.853 1175.13,485.895 1181.72,485.936 1188.3,485.976 
  1194.88,486.016 
  "/>
<polyline clip-path="url(#clip472)" style="stroke:#7f7f7f; stroke-linecap:round; stroke-linejoin:round; stroke-width:16; stroke-opacity:1; fill:none" points="
  207.676,60.1374 214.257,70.9624 220.839,77.2302 227.42,80.8703 234.001,83.032 240.583,84.3936 247.164,85.3771 253.745,86.2837 260.327,87.3876 266.908,89.0164 
  273.489,91.6388 280.071,95.9711 286.652,103.097 293.233,114.542 299.815,132.169 306.396,157.645 312.977,191.447 319.559,231.921 326.14,275.417 332.721,317.729 
  339.303,355.636 345.884,387.495 352.465,412.987 359.047,432.66 365.628,447.515 372.21,458.639 378.791,466.942 385.372,473.098 391.954,477.609 398.535,480.874 
  405.116,483.217 411.698,484.896 418.279,486.103 424.86,486.979 431.442,487.619 438.023,488.093 444.604,488.448 451.186,488.717 457.767,488.922 464.348,489.081 
  470.93,489.206 477.511,489.304 484.092,489.383 490.674,489.447 497.255,489.5 503.837,489.543 510.418,489.58 516.999,489.611 523.581,489.638 530.162,489.662 
  536.743,489.682 543.325,489.7 549.906,489.717 556.487,489.731 563.069,489.744 569.65,489.756 576.231,489.767 582.813,489.776 589.394,489.785 595.975,489.794 
  602.557,489.801 609.138,489.808 615.719,489.815 622.301,489.821 628.882,489.827 635.463,489.832 642.045,489.837 648.626,489.842 655.208,489.846 661.789,489.85 
  668.37,489.854 674.952,489.858 681.533,489.861 688.114,489.864 694.696,489.867 701.277,489.87 707.858,489.872 714.44,489.875 721.021,489.877 727.602,489.879 
  734.184,489.881 740.765,489.883 747.346,489.885 753.928,489.886 760.509,489.888 767.09,489.89 773.672,489.891 780.253,489.892 786.835,489.893 793.416,489.895 
  799.997,489.896 806.579,489.897 813.16,489.898 819.741,489.899 826.323,489.9 832.904,489.9 839.485,489.901 846.067,489.902 852.648,489.902 859.229,489.903 
  865.811,489.904 872.392,489.904 878.973,489.905 885.555,489.905 892.136,489.906 898.717,489.906 905.299,489.907 911.88,489.907 918.461,489.907 925.043,489.908 
  931.624,489.908 938.206,489.908 944.787,489.909 951.368,489.909 957.95,489.909 964.531,489.909 971.112,489.91 977.694,489.91 984.275,489.91 990.856,489.91 
  997.438,489.91 1004.02,489.911 1010.6,489.911 1017.18,489.911 1023.76,489.911 1030.34,489.911 1036.93,489.911 1043.51,489.911 1050.09,489.912 1056.67,489.912 
  1063.25,489.912 1069.83,489.912 1076.41,489.912 1083,489.912 1089.58,489.912 1096.16,489.912 1102.74,489.912 1109.32,489.912 1115.9,489.912 1122.48,489.912 
  1129.06,489.912 1135.65,489.913 1142.23,489.913 1148.81,489.913 1155.39,489.913 1161.97,489.913 1168.55,489.913 1175.13,489.913 1181.72,489.913 1188.3,489.913 
  1194.88,489.913 
  "/>
<polyline clip-path="url(#clip472)" style="stroke:#895f55; stroke-linecap:round; stroke-linejoin:round; stroke-width:16; stroke-opacity:1; fill:none" points="
  214.257,489.488 220.839,489.142 227.42,488.544 234.001,487.514 240.583,485.745 247.164,482.722 253.745,477.601 260.327,469.043 266.908,455.065 273.489,433.071 
  280.071,400.411 286.652,355.86 293.233,301.644 299.815,244.125 306.396,191.339 312.977,148.961 319.559,118.445 326.14,98.1419 332.721,85.3266 339.303,77.4898 
  345.884,72.7694 352.465,69.9275 359.047,68.1934 365.628,67.1099 372.21,66.4165 378.791,65.9671 385.372,65.6779 391.954,65.4987 398.535,65.399 405.116,65.3611 
  411.698,65.3758 418.279,65.4401 424.86,65.5552 431.442,65.7262 438.023,65.9613 444.604,66.2706 451.186,66.6656 457.767,67.1569 464.348,67.7517 470.93,68.4508 
  477.511,69.2461 484.092,70.1194 490.674,71.0442 497.255,71.9892 503.837,72.9233 510.418,73.8197 516.999,74.6588 523.581,75.4284 530.162,76.1233 536.743,76.7437 
  543.325,77.2933 549.906,77.7776 556.487,78.2036 563.069,78.5778 569.65,78.907 576.231,79.1971 582.813,79.4534 589.394,79.6806 595.975,79.8826 602.557,80.0629 
  609.138,80.2244 615.719,80.3697 622.301,80.5009 628.882,80.6197 635.463,80.7277 642.045,80.8262 648.626,80.9163 655.208,80.999 661.789,81.0751 668.37,81.1454 
  674.952,81.2105 681.533,81.2708 688.114,81.327 694.696,81.3793 701.277,81.4282 707.858,81.474 714.44,81.5169 721.021,81.5573 727.602,81.5952 734.184,81.6311 
  740.765,81.6649 747.346,81.6969 753.928,81.7272 760.509,81.756 767.09,81.7833 773.672,81.8093 780.253,81.834 786.835,81.8576 793.416,81.8801 799.997,81.9017 
  806.579,81.9223 813.16,81.942 819.741,81.9609 826.323,81.979 832.904,81.9964 839.485,82.0131 846.067,82.0292 852.648,82.0447 859.229,82.0597 865.811,82.074 
  872.392,82.0879 878.973,82.1013 885.555,82.1143 892.136,82.1268 898.717,82.1389 905.299,82.1506 911.88,82.162 918.461,82.173 925.043,82.1837 931.624,82.194 
  938.206,82.2041 944.787,82.2138 951.368,82.2233 957.95,82.2325 964.531,82.2415 971.112,82.2502 977.694,82.2587 984.275,82.267 990.856,82.2751 997.438,82.283 
  1004.02,82.2906 1010.6,82.2981 1017.18,82.3054 1023.76,82.3125 1030.34,82.3195 1036.93,82.3263 1043.51,82.333 1050.09,82.3395 1056.67,82.3458 1063.25,82.3521 
  1069.83,82.3581 1076.41,82.3641 1083,82.37 1089.58,82.3757 1096.16,82.3813 1102.74,82.3868 1109.32,82.3922 1115.9,82.3975 1122.48,82.4027 1129.06,82.4077 
  1135.65,82.4127 1142.23,82.4177 1148.81,82.4225 1155.39,82.4272 1161.97,82.4319 1168.55,82.4364 1175.13,82.4409 1181.72,82.4454 1188.3,82.4497 1194.88,82.454 
  
  "/>
<polyline clip-path="url(#clip472)" style="stroke:#2000d4; stroke-linecap:round; stroke-linejoin:round; stroke-width:16; stroke-opacity:1; fill:none" stroke-dasharray="64, 40" points="
  207.676,489.913 214.257,489.913 220.839,489.913 227.42,489.913 234.001,489.913 240.583,489.913 247.164,489.913 253.745,489.913 260.327,489.913 266.908,489.913 
  273.489,489.913 280.071,489.913 286.652,489.913 293.233,489.913 299.815,489.912 306.396,489.912 312.977,489.912 319.559,489.912 326.14,489.912 332.721,489.912 
  339.303,489.912 345.884,489.912 352.465,489.912 359.047,489.912 365.628,489.911 372.21,489.911 378.791,489.911 385.372,489.911 391.954,489.911 398.535,489.91 
  405.116,489.91 411.698,489.91 418.279,489.909 424.86,489.909 431.442,489.908 438.023,489.908 444.604,489.908 451.186,489.907 457.767,489.907 464.348,489.907 
  470.93,489.906 477.511,489.906 484.092,489.905 490.674,489.905 497.255,489.905 503.837,489.904 510.418,489.904 516.999,489.904 523.581,489.903 530.162,489.903 
  536.743,489.902 543.325,489.902 549.906,489.902 556.487,489.901 563.069,489.901 569.65,489.9 576.231,489.9 582.813,489.9 589.394,489.899 595.975,489.899 
  602.557,489.898 609.138,489.898 615.719,489.897 622.301,489.897 628.882,489.897 635.463,489.896 642.045,489.896 648.626,489.895 655.208,489.895 661.789,489.895 
  668.37,489.894 674.952,489.894 681.533,489.893 688.114,489.893 694.696,489.892 701.277,489.892 707.858,489.892 714.44,489.891 721.021,489.891 727.602,489.89 
  734.184,489.89 740.765,489.89 747.346,489.889 753.928,489.889 760.509,489.888 767.09,489.888 773.672,489.887 780.253,489.887 786.835,489.887 793.416,489.886 
  799.997,489.886 806.579,489.885 813.16,489.885 819.741,489.884 826.323,489.884 832.904,489.884 839.485,489.883 846.067,489.883 852.648,489.882 859.229,489.882 
  865.811,489.881 872.392,489.881 878.973,489.881 885.555,489.88 892.136,489.88 898.717,489.879 905.299,489.879 911.88,489.878 918.461,489.878 925.043,489.878 
  931.624,489.877 938.206,489.877 944.787,489.876 951.368,489.876 957.95,489.875 964.531,489.875 971.112,489.875 977.694,489.874 984.275,489.874 990.856,489.873 
  997.438,489.873 1004.02,489.872 1010.6,489.872 1017.18,489.872 1023.76,489.871 1030.34,489.871 1036.93,489.87 1043.51,489.87 1050.09,489.869 1056.67,489.869 
  1063.25,489.869 1069.83,489.868 1076.41,489.868 1083,489.867 1089.58,489.867 1096.16,489.866 1102.74,489.866 1109.32,489.866 1115.9,489.865 1122.48,489.865 
  1129.06,489.864 1135.65,489.864 1142.23,489.863 1148.81,489.863 1155.39,489.863 1161.97,489.862 1168.55,489.862 1175.13,489.861 1181.72,489.861 1188.3,489.86 
  1194.88,489.86 
  "/>
<polyline clip-path="url(#clip472)" style="stroke:#ff221c; stroke-linecap:round; stroke-linejoin:round; stroke-width:16; stroke-opacity:1; fill:none" points="
  207.676,489.913 214.257,489.909 220.839,489.903 227.42,489.894 234.001,489.879 240.583,489.854 247.164,489.81 253.745,489.737 260.327,489.614 266.908,489.411 
  273.489,489.087 280.071,488.597 286.652,487.907 293.233,487.029 299.815,486.036 306.396,485.035 312.977,484.095 319.559,483.197 326.14,482.233 332.721,481.033 
  339.303,479.392 345.884,477.109 352.465,474.045 359.047,470.153 365.628,465.478 372.21,460.107 378.791,454.136 385.372,447.646 391.954,440.686 398.535,433.254 
  405.116,425.29 411.698,416.682 418.279,407.282 424.86,396.926 431.442,385.458 438.023,372.757 444.604,358.761 451.186,343.508 457.767,327.154 464.348,309.989 
  470.93,292.418 477.511,274.918 484.092,257.97 490.674,241.993 497.255,227.291 503.837,214.038 510.418,202.286 516.999,191.993 523.581,183.054 530.162,175.331 
  536.743,168.676 543.325,162.943 549.906,157.997 556.487,153.72 563.069,150.009 569.65,146.775 576.231,143.946 582.813,141.459 589.394,139.264 595.975,137.316 
  602.557,135.582 609.138,134.029 615.719,132.634 622.301,131.376 628.882,130.237 635.463,129.202 642.045,128.258 648.626,127.394 655.208,126.601 661.789,125.872 
  668.37,125.199 674.952,124.576 681.533,123.999 688.114,123.462 694.696,122.961 701.277,122.494 707.858,122.057 714.44,121.648 721.021,121.263 727.602,120.902 
  734.184,120.561 740.765,120.24 747.346,119.936 753.928,119.648 760.509,119.376 767.09,119.118 773.672,118.873 780.253,118.639 786.835,118.417 793.416,118.206 
  799.997,118.004 806.579,117.811 813.16,117.627 819.741,117.45 826.323,117.281 832.904,117.12 839.485,116.964 846.067,116.816 852.648,116.672 859.229,116.535 
  865.811,116.402 872.392,116.275 878.973,116.152 885.555,116.034 892.136,115.92 898.717,115.81 905.299,115.703 911.88,115.601 918.461,115.501 925.043,115.405 
  931.624,115.312 938.206,115.222 944.787,115.135 951.368,115.05 957.95,114.968 964.531,114.889 971.112,114.812 977.694,114.737 984.275,114.664 990.856,114.593 
  997.438,114.525 1004.02,114.458 1010.6,114.393 1017.18,114.33 1023.76,114.268 1030.34,114.208 1036.93,114.15 1043.51,114.093 1050.09,114.037 1056.67,113.983 
  1063.25,113.931 1069.83,113.879 1076.41,113.829 1083,113.78 1089.58,113.732 1096.16,113.685 1102.74,113.64 1109.32,113.595 1115.9,113.551 1122.48,113.509 
  1129.06,113.467 1135.65,113.426 1142.23,113.386 1148.81,113.347 1155.39,113.309 1161.97,113.272 1168.55,113.235 1175.13,113.199 1181.72,113.164 1188.3,113.129 
  1194.88,113.096 
  "/>
<path clip-path="url(#clip470)" d="
M201.094 503.236 L1194.88 503.236 L1194.88 47.2441 L201.094 47.2441  Z
  " fill="#000000" fill-rule="evenodd" fill-opacity="0"/>
<polyline clip-path="url(#clip470)" style="stroke:#000000; stroke-linecap:round; stroke-linejoin:round; stroke-width:4; stroke-opacity:1; fill:none" points="
  1194.88,503.236 1194.88,47.2441 
  "/>
<polyline clip-path="url(#clip470)" style="stroke:#000000; stroke-linecap:round; stroke-linejoin:round; stroke-width:4; stroke-opacity:1; fill:none" points="
  1194.88,57.065 1175.98,57.065 
  "/>
<polyline clip-path="url(#clip470)" style="stroke:#000000; stroke-linecap:round; stroke-linejoin:round; stroke-width:4; stroke-opacity:1; fill:none" points="
  1194.88,168.608 1175.98,168.608 
  "/>
<polyline clip-path="url(#clip470)" style="stroke:#000000; stroke-linecap:round; stroke-linejoin:round; stroke-width:4; stroke-opacity:1; fill:none" points="
  1194.88,280.151 1175.98,280.151 
  "/>
<polyline clip-path="url(#clip470)" style="stroke:#000000; stroke-linecap:round; stroke-linejoin:round; stroke-width:4; stroke-opacity:1; fill:none" points="
  1194.88,391.694 1175.98,391.694 
  "/>
<polyline clip-path="url(#clip470)" style="stroke:#000000; stroke-linecap:round; stroke-linejoin:round; stroke-width:4; stroke-opacity:1; fill:none" points="
  1194.88,503.236 1175.98,503.236 
  "/>
<path clip-path="url(#clip470)" d="M1216.72 81.8055 L1226.27 81.8055 L1226.27 48.8485 L1215.88 50.9318 L1215.88 45.6078 L1226.21 43.5245 L1232.05 43.5245 L1232.05 81.8055 L1241.6 81.8055 L1241.6 86.7245 L1216.72 86.7245 L1216.72 81.8055 Z" fill="#000000" fill-rule="evenodd" fill-opacity="1" /><path clip-path="url(#clip470)" d="M1265.91 47.3728 Q1261.39 47.3728 1259.11 51.8288 Q1256.85 56.2559 1256.85 65.1679 Q1256.85 74.0509 1259.11 78.5069 Q1261.39 82.934 1265.91 82.934 Q1270.45 82.934 1272.71 78.5069 Q1274.99 74.0509 1274.99 65.1679 Q1274.99 56.2559 1272.71 51.8288 Q1270.45 47.3728 1265.91 47.3728 M1265.91 42.7432 Q1273.17 42.7432 1276.99 48.5013 Q1280.84 54.2304 1280.84 65.1679 Q1280.84 76.0764 1276.99 81.8344 Q1273.17 87.5636 1265.91 87.5636 Q1258.64 87.5636 1254.8 81.8344 Q1250.98 76.0764 1250.98 65.1679 Q1250.98 54.2304 1254.8 48.5013 Q1258.64 42.7432 1265.91 42.7432 Z" fill="#000000" fill-rule="evenodd" fill-opacity="1" /><path clip-path="url(#clip470)" d="M1292.97 20.4882 Q1289.3 20.4882 1287.44 24.1087 Q1285.61 27.7057 1285.61 34.9467 Q1285.61 42.1642 1287.44 45.7847 Q1289.3 49.3817 1292.97 49.3817 Q1296.66 49.3817 1298.49 45.7847 Q1300.35 42.1642 1300.35 34.9467 Q1300.35 27.7057 1298.49 24.1087 Q1296.66 20.4882 1292.97 20.4882 M1292.97 16.7267 Q1298.87 16.7267 1301.97 21.4051 Q1305.1 26.0601 1305.1 34.9467 Q1305.1 43.8099 1301.97 48.4883 Q1298.87 53.1432 1292.97 53.1432 Q1287.07 53.1432 1283.94 48.4883 Q1280.84 43.8099 1280.84 34.9467 Q1280.84 26.0601 1283.94 21.4051 Q1287.07 16.7267 1292.97 16.7267 Z" fill="#000000" fill-rule="evenodd" fill-opacity="1" /><path clip-path="url(#clip470)" d="M1216.72 193.348 L1226.27 193.348 L1226.27 160.391 L1215.88 162.475 L1215.88 157.151 L1226.21 155.067 L1232.05 155.067 L1232.05 193.348 L1241.6 193.348 L1241.6 198.267 L1216.72 198.267 L1216.72 193.348 Z" fill="#000000" fill-rule="evenodd" fill-opacity="1" /><path clip-path="url(#clip470)" d="M1265.91 158.916 Q1261.39 158.916 1259.11 163.372 Q1256.85 167.799 1256.85 176.711 Q1256.85 185.594 1259.11 190.05 Q1261.39 194.477 1265.91 194.477 Q1270.45 194.477 1272.71 190.05 Q1274.99 185.594 1274.99 176.711 Q1274.99 167.799 1272.71 163.372 Q1270.45 158.916 1265.91 158.916 M1265.91 154.286 Q1273.17 154.286 1276.99 160.044 Q1280.84 165.773 1280.84 176.711 Q1280.84 187.619 1276.99 193.377 Q1273.17 199.106 1265.91 199.106 Q1258.64 199.106 1254.8 193.377 Q1250.98 187.619 1250.98 176.711 Q1250.98 165.773 1254.8 160.044 Q1258.64 154.286 1265.91 154.286 Z" fill="#000000" fill-rule="evenodd" fill-opacity="1" /><path clip-path="url(#clip470)" d="M1280.84 146.913 L1310.98 146.913 L1310.98 150.909 L1280.84 150.909 L1280.84 146.913 Z" fill="#000000" fill-rule="evenodd" fill-opacity="1" /><path clip-path="url(#clip470)" d="M1325.32 160.008 L1341.89 160.008 L1341.89 164.004 L1319.6 164.004 L1319.6 160.008 Q1322.31 157.21 1326.96 152.508 Q1331.64 147.783 1332.84 146.419 Q1335.12 143.857 1336.01 142.093 Q1336.93 140.307 1336.93 138.59 Q1336.93 135.793 1334.96 134.029 Q1333.01 132.266 1329.86 132.266 Q1327.62 132.266 1325.13 133.042 Q1322.66 133.818 1319.84 135.393 L1319.84 130.597 Q1322.71 129.445 1325.2 128.857 Q1327.69 128.27 1329.76 128.27 Q1335.22 128.27 1338.46 130.997 Q1341.7 133.724 1341.7 138.285 Q1341.7 140.448 1340.88 142.399 Q1340.08 144.327 1337.94 146.96 Q1337.35 147.642 1334.2 150.909 Q1331.05 154.154 1325.32 160.008 Z" fill="#000000" fill-rule="evenodd" fill-opacity="1" /><path clip-path="url(#clip470)" d="M1216.72 304.891 L1226.27 304.891 L1226.27 271.934 L1215.88 274.018 L1215.88 268.694 L1226.21 266.61 L1232.05 266.61 L1232.05 304.891 L1241.6 304.891 L1241.6 309.81 L1216.72 309.81 L1216.72 304.891 Z" fill="#000000" fill-rule="evenodd" fill-opacity="1" /><path clip-path="url(#clip470)" d="M1265.91 270.459 Q1261.39 270.459 1259.11 274.915 Q1256.85 279.342 1256.85 288.254 Q1256.85 297.137 1259.11 301.593 Q1261.39 306.02 1265.91 306.02 Q1270.45 306.02 1272.71 301.593 Q1274.99 297.137 1274.99 288.254 Q1274.99 279.342 1272.71 274.915 Q1270.45 270.459 1265.91 270.459 M1265.91 265.829 Q1273.17 265.829 1276.99 271.587 Q1280.84 277.316 1280.84 288.254 Q1280.84 299.162 1276.99 304.92 Q1273.17 310.649 1265.91 310.649 Q1258.64 310.649 1254.8 304.92 Q1250.98 299.162 1250.98 288.254 Q1250.98 277.316 1254.8 271.587 Q1258.64 265.829 1265.91 265.829 Z" fill="#000000" fill-rule="evenodd" fill-opacity="1" /><path clip-path="url(#clip470)" d="M1280.84 258.456 L1310.98 258.456 L1310.98 262.452 L1280.84 262.452 L1280.84 258.456 Z" fill="#000000" fill-rule="evenodd" fill-opacity="1" /><path clip-path="url(#clip470)" d="M1334.27 244.585 L1322.28 263.322 L1334.27 263.322 L1334.27 244.585 M1333.03 240.447 L1339 240.447 L1339 263.322 L1344.01 263.322 L1344.01 267.272 L1339 267.272 L1339 275.547 L1334.27 275.547 L1334.27 267.272 L1318.43 267.272 L1318.43 262.687 L1333.03 240.447 Z" fill="#000000" fill-rule="evenodd" fill-opacity="1" /><path clip-path="url(#clip470)" d="M1216.72 416.434 L1226.27 416.434 L1226.27 383.477 L1215.88 385.56 L1215.88 380.236 L1226.21 378.153 L1232.05 378.153 L1232.05 416.434 L1241.6 416.434 L1241.6 421.353 L1216.72 421.353 L1216.72 416.434 Z" fill="#000000" fill-rule="evenodd" fill-opacity="1" /><path clip-path="url(#clip470)" d="M1265.91 382.001 Q1261.39 382.001 1259.11 386.457 Q1256.85 390.884 1256.85 399.796 Q1256.85 408.68 1259.11 413.136 Q1261.39 417.563 1265.91 417.563 Q1270.45 417.563 1272.71 413.136 Q1274.99 408.68 1274.99 399.796 Q1274.99 390.884 1272.71 386.457 Q1270.45 382.001 1265.91 382.001 M1265.91 377.372 Q1273.17 377.372 1276.99 383.13 Q1280.84 388.859 1280.84 399.796 Q1280.84 410.705 1276.99 416.463 Q1273.17 422.192 1265.91 422.192 Q1258.64 422.192 1254.8 416.463 Q1250.98 410.705 1250.98 399.796 Q1250.98 388.859 1254.8 383.13 Q1258.64 377.372 1265.91 377.372 Z" fill="#000000" fill-rule="evenodd" fill-opacity="1" /><path clip-path="url(#clip470)" d="M1280.84 369.999 L1310.98 369.999 L1310.98 373.995 L1280.84 373.995 L1280.84 369.999 Z" fill="#000000" fill-rule="evenodd" fill-opacity="1" /><path clip-path="url(#clip470)" d="M1331.97 367.648 Q1328.77 367.648 1326.89 369.834 Q1325.04 372.02 1325.04 375.829 Q1325.04 379.614 1326.89 381.824 Q1328.77 384.01 1331.97 384.01 Q1335.17 384.01 1337.03 381.824 Q1338.91 379.614 1338.91 375.829 Q1338.91 372.02 1337.03 369.834 Q1335.17 367.648 1331.97 367.648 M1341.4 352.766 L1341.4 357.092 Q1339.61 356.245 1337.78 355.799 Q1335.97 355.352 1334.18 355.352 Q1329.48 355.352 1326.99 358.526 Q1324.52 361.7 1324.17 368.118 Q1325.55 366.072 1327.65 364.991 Q1329.74 363.886 1332.25 363.886 Q1337.54 363.886 1340.6 367.107 Q1343.68 370.304 1343.68 375.829 Q1343.68 381.236 1340.48 384.504 Q1337.28 387.772 1331.97 387.772 Q1325.88 387.772 1322.66 383.117 Q1319.44 378.438 1319.44 369.575 Q1319.44 361.253 1323.39 356.316 Q1327.34 351.355 1333.99 351.355 Q1335.78 351.355 1337.59 351.708 Q1339.42 352.061 1341.4 352.766 Z" fill="#000000" fill-rule="evenodd" fill-opacity="1" /><path clip-path="url(#clip470)" d="M1216.72 527.977 L1226.27 527.977 L1226.27 495.02 L1215.88 497.103 L1215.88 491.779 L1226.21 489.696 L1232.05 489.696 L1232.05 527.977 L1241.6 527.977 L1241.6 532.896 L1216.72 532.896 L1216.72 527.977 Z" fill="#000000" fill-rule="evenodd" fill-opacity="1" /><path clip-path="url(#clip470)" d="M1265.91 493.544 Q1261.39 493.544 1259.11 498 Q1256.85 502.427 1256.85 511.339 Q1256.85 520.222 1259.11 524.678 Q1261.39 529.105 1265.91 529.105 Q1270.45 529.105 1272.71 524.678 Q1274.99 520.222 1274.99 511.339 Q1274.99 502.427 1272.71 498 Q1270.45 493.544 1265.91 493.544 M1265.91 488.915 Q1273.17 488.915 1276.99 494.673 Q1280.84 500.402 1280.84 511.339 Q1280.84 522.248 1276.99 528.006 Q1273.17 533.735 1265.91 533.735 Q1258.64 533.735 1254.8 528.006 Q1250.98 522.248 1250.98 511.339 Q1250.98 500.402 1254.8 494.673 Q1258.64 488.915 1265.91 488.915 Z" fill="#000000" fill-rule="evenodd" fill-opacity="1" /><path clip-path="url(#clip470)" d="M1280.84 481.541 L1310.98 481.541 L1310.98 485.538 L1280.84 485.538 L1280.84 481.541 Z" fill="#000000" fill-rule="evenodd" fill-opacity="1" /><path clip-path="url(#clip470)" d="M1331.38 481.965 Q1328 481.965 1326.05 483.775 Q1324.12 485.585 1324.12 488.759 Q1324.12 491.933 1326.05 493.743 Q1328 495.553 1331.38 495.553 Q1334.77 495.553 1336.72 493.743 Q1338.67 491.909 1338.67 488.759 Q1338.67 485.585 1336.72 483.775 Q1334.79 481.965 1331.38 481.965 M1326.63 479.943 Q1323.58 479.19 1321.86 477.098 Q1320.17 475.006 1320.17 471.996 Q1320.17 467.788 1323.15 465.343 Q1326.16 462.898 1331.38 462.898 Q1336.63 462.898 1339.61 465.343 Q1342.6 467.788 1342.6 471.996 Q1342.6 475.006 1340.88 477.098 Q1339.19 479.19 1336.16 479.943 Q1339.59 480.742 1341.49 483.07 Q1343.42 485.397 1343.42 488.759 Q1343.42 493.86 1340.29 496.588 Q1337.19 499.315 1331.38 499.315 Q1325.58 499.315 1322.45 496.588 Q1319.35 493.86 1319.35 488.759 Q1319.35 485.397 1321.27 483.07 Q1323.2 480.742 1326.63 479.943 M1324.89 472.443 Q1324.89 475.17 1326.59 476.698 Q1328.3 478.227 1331.38 478.227 Q1334.44 478.227 1336.16 476.698 Q1337.9 475.17 1337.9 472.443 Q1337.9 469.716 1336.16 468.188 Q1334.44 466.66 1331.38 466.66 Q1328.3 466.66 1326.59 468.188 Q1324.89 469.716 1324.89 472.443 Z" fill="#000000" fill-rule="evenodd" fill-opacity="1" /><polyline clip-path="url(#clip472)" style="stroke:#000000; stroke-linecap:round; stroke-linejoin:round; stroke-width:16; stroke-opacity:1; fill:none" stroke-dasharray="8, 16" points="
  207.676,57.065 214.257,57.0889 220.839,57.1125 227.42,57.1502 234.001,57.2148 240.583,57.3261 247.164,57.5174 253.745,57.845 260.327,58.4025 266.908,59.3412 
  273.489,60.8956 280.071,63.403 286.652,67.2981 293.233,73.0598 299.815,81.1236 306.396,91.8468 312.977,105.616 319.559,123.074 326.14,145.29 332.721,173.584 
  339.303,208.89 345.884,251.149 352.465,299.393 359.047,352.324 365.628,408.748 372.21,467.709 378.791,528.469 385.372,590.461 391.954,653.25 398.535,716.493 
  405.116,779.911 411.698,843.261 418.279,906.316 424.86,968.851 431.442,1030.63 438.023,1091.42 444.604,1150.95 451.186,1208.97 457.767,1265.23 464.348,1319.52 
  470.93,1371.68 477.511,1421.63 484.092,1469.37 490.674,1514.95 497.255,1558.53 503.837,1600.27 510.418,1640.36 516.999,1679.02 523.581,1716.42 530.162,1752.75 
  536.743,1788.15 543.325,1822.77 549.906,1856.71 556.487,1890.07 563.069,1922.94 569.65,1955.38 576.231,1987.45 582.813,2019.19 589.394,2050.65 595.975,2081.86 
  602.557,2112.85 609.138,2143.65 615.719,2174.27 622.301,2204.73 628.882,2235.06 635.463,2265.25 642.045,2295.33 648.626,2325.31 655.208,2355.19 661.789,2384.98 
  668.37,2414.69 674.952,2444.32 681.533,2473.89 688.114,2503.39 694.696,2532.83 701.277,2562.22 707.858,2591.55 714.44,2620.84 721.021,2650.08 727.602,2679.27 
  734.184,2708.43 740.765,2737.55 747.346,2766.63 753.928,2795.68 760.509,2824.69 767.09,2853.68 773.672,2882.63 780.253,2911.56 786.835,2940.47 793.416,2969.34 
  799.997,2998.2 806.579,3027.03 813.16,3055.83 819.741,3084.62 826.323,3113.39 832.904,3142.14 839.485,3170.87 846.067,3199.58 852.648,3228.27 859.229,3256.95 
  865.811,3285.61 872.392,3314.26 878.973,3342.89 885.555,3371.51 892.136,3400.11 898.717,3428.7 905.299,3457.28 911.88,3485.85 918.461,3514.4 925.043,3542.94 
  931.624,3571.47 938.206,3599.99 944.787,3628.5 951.368,3656.99 957.95,3685.48 964.531,3713.96 971.112,3742.43 977.694,3770.89 984.275,3799.34 990.856,3827.78 
  997.438,3856.21 1004.02,3884.64 1010.6,3913.05 1017.18,3941.46 1023.76,3969.86 1030.34,3998.25 1036.93,4026.64 1043.51,4055.01 1050.09,4083.39 1056.67,4111.75 
  1063.25,4140.11 1069.83,4168.46 1076.41,4196.8 1083,4225.14 1089.58,4253.47 1096.16,4281.79 1102.74,4310.11 1109.32,4338.43 1115.9,4366.73 1122.48,4395.04 
  1129.06,4423.33 1135.65,4451.62 1142.23,4479.91 1148.81,4508.19 1155.39,4536.47 1161.97,4564.74 1168.55,4593 1175.13,4621.26 1181.72,4649.52 1188.3,4677.77 
  1194.88,4706.01 
  "/>
</svg>
