<?xml version="1.0" encoding="utf-8"?>
<svg xmlns="http://www.w3.org/2000/svg" xmlns:xlink="http://www.w3.org/1999/xlink" width="325" height="150" viewBox="0 0 1300 600">
<defs>
  <clipPath id="clip190">
    <rect x="0" y="0" width="1300" height="600"/>
  </clipPath>
</defs>
<path clip-path="url(#clip190)" d="
M0 600 L1300 600 L1300 0 L0 0  Z
  " fill="#ffffff" fill-rule="evenodd" fill-opacity="1"/>
<defs>
  <clipPath id="clip191">
    <rect x="260" y="0" width="911" height="600"/>
  </clipPath>
</defs>
<path clip-path="url(#clip190)" d="
M200.094 501.1 L1252.76 501.1 L1252.76 47.2441 L200.094 47.2441  Z
  " fill="#ffffff" fill-rule="evenodd" fill-opacity="1"/>
<defs>
  <clipPath id="clip192">
    <rect x="200" y="47" width="1054" height="455"/>
  </clipPath>
</defs>
<polyline clip-path="url(#clip190)" style="stroke:#000000; stroke-linecap:butt; stroke-linejoin:round; stroke-width:4; stroke-opacity:1; fill:none" points="
  200.094,501.1 1252.76,501.1 
  "/>
<polyline clip-path="url(#clip190)" style="stroke:#000000; stroke-linecap:butt; stroke-linejoin:round; stroke-width:4; stroke-opacity:1; fill:none" points="
  200.094,501.1 200.094,482.203 
  "/>
<polyline clip-path="url(#clip190)" style="stroke:#000000; stroke-linecap:butt; stroke-linejoin:round; stroke-width:4; stroke-opacity:1; fill:none" points="
  548.658,501.1 548.658,482.203 
  "/>
<polyline clip-path="url(#clip190)" style="stroke:#000000; stroke-linecap:butt; stroke-linejoin:round; stroke-width:4; stroke-opacity:1; fill:none" points="
  897.221,501.1 897.221,482.203 
  "/>
<polyline clip-path="url(#clip190)" style="stroke:#000000; stroke-linecap:butt; stroke-linejoin:round; stroke-width:4; stroke-opacity:1; fill:none" points="
  1245.78,501.1 1245.78,482.203 
  "/>
<path clip-path="url(#clip190)" d="M200.094 526.149 Q195.581 526.149 193.295 530.605 Q191.038 535.032 191.038 543.944 Q191.038 552.827 193.295 557.283 Q195.581 561.71 200.094 561.71 Q204.637 561.71 206.894 557.283 Q209.18 552.827 209.18 543.944 Q209.18 535.032 206.894 530.605 Q204.637 526.149 200.094 526.149 M200.094 521.519 Q207.357 521.519 211.177 527.277 Q215.025 533.006 215.025 543.944 Q215.025 554.852 211.177 560.61 Q207.357 566.339 200.094 566.339 Q192.832 566.339 188.983 560.61 Q185.164 554.852 185.164 543.944 Q185.164 533.006 188.983 527.277 Q192.832 521.519 200.094 521.519 Z" fill="#000000" fill-rule="evenodd" fill-opacity="1" /><path clip-path="url(#clip190)" d="M517.032 522.3 L539.977 522.3 L539.977 527.219 L522.385 527.219 L522.385 537.809 Q523.658 537.375 524.931 537.173 Q526.204 536.941 527.477 536.941 Q534.711 536.941 538.936 540.905 Q543.16 544.87 543.16 551.64 Q543.16 558.614 538.82 562.491 Q534.48 566.339 526.58 566.339 Q523.861 566.339 521.025 565.876 Q518.218 565.413 515.209 564.487 L515.209 558.614 Q517.813 560.031 520.591 560.726 Q523.369 561.42 526.465 561.42 Q531.47 561.42 534.393 558.787 Q537.315 556.154 537.315 551.64 Q537.315 547.126 534.393 544.493 Q531.47 541.86 526.465 541.86 Q524.121 541.86 521.777 542.381 Q519.462 542.902 517.032 544.001 L517.032 522.3 Z" fill="#000000" fill-rule="evenodd" fill-opacity="1" /><path clip-path="url(#clip190)" d="M567.176 526.149 Q562.662 526.149 560.377 530.605 Q558.12 535.032 558.12 543.944 Q558.12 552.827 560.377 557.283 Q562.662 561.71 567.176 561.71 Q571.719 561.71 573.976 557.283 Q576.262 552.827 576.262 543.944 Q576.262 535.032 573.976 530.605 Q571.719 526.149 567.176 526.149 M567.176 521.519 Q574.439 521.519 578.258 527.277 Q582.107 533.006 582.107 543.944 Q582.107 554.852 578.258 560.61 Q574.439 566.339 567.176 566.339 Q559.914 566.339 556.065 560.61 Q552.246 554.852 552.246 543.944 Q552.246 533.006 556.065 527.277 Q559.914 521.519 567.176 521.519 Z" fill="#000000" fill-rule="evenodd" fill-opacity="1" /><path clip-path="url(#clip190)" d="M846.73 560.581 L856.278 560.581 L856.278 527.624 L845.891 529.708 L845.891 524.384 L856.22 522.3 L862.065 522.3 L862.065 560.581 L871.614 560.581 L871.614 565.5 L846.73 565.5 L846.73 560.581 Z" fill="#000000" fill-rule="evenodd" fill-opacity="1" /><path clip-path="url(#clip190)" d="M895.919 526.149 Q891.405 526.149 889.119 530.605 Q886.863 535.032 886.863 543.944 Q886.863 552.827 889.119 557.283 Q891.405 561.71 895.919 561.71 Q900.462 561.71 902.719 557.283 Q905.005 552.827 905.005 543.944 Q905.005 535.032 902.719 530.605 Q900.462 526.149 895.919 526.149 M895.919 521.519 Q903.182 521.519 907.001 527.277 Q910.85 533.006 910.85 543.944 Q910.85 554.852 907.001 560.61 Q903.182 566.339 895.919 566.339 Q888.656 566.339 884.808 560.61 Q880.989 554.852 880.989 543.944 Q880.989 533.006 884.808 527.277 Q888.656 521.519 895.919 521.519 Z" fill="#000000" fill-rule="evenodd" fill-opacity="1" /><path clip-path="url(#clip190)" d="M933.622 526.149 Q929.108 526.149 926.822 530.605 Q924.565 535.032 924.565 543.944 Q924.565 552.827 926.822 557.283 Q929.108 561.71 933.622 561.71 Q938.164 561.71 940.421 557.283 Q942.707 552.827 942.707 543.944 Q942.707 535.032 940.421 530.605 Q938.164 526.149 933.622 526.149 M933.622 521.519 Q940.884 521.519 944.704 527.277 Q948.552 533.006 948.552 543.944 Q948.552 554.852 944.704 560.61 Q940.884 566.339 933.622 566.339 Q926.359 566.339 922.51 560.61 Q918.691 554.852 918.691 543.944 Q918.691 533.006 922.51 527.277 Q926.359 521.519 933.622 521.519 Z" fill="#000000" fill-rule="evenodd" fill-opacity="1" /><path clip-path="url(#clip190)" d="M1195.29 560.581 L1204.84 560.581 L1204.84 527.624 L1194.45 529.708 L1194.45 524.384 L1204.78 522.3 L1210.63 522.3 L1210.63 560.581 L1220.18 560.581 L1220.18 565.5 L1195.29 565.5 L1195.29 560.581 Z" fill="#000000" fill-rule="evenodd" fill-opacity="1" /><path clip-path="url(#clip190)" d="M1232.04 522.3 L1254.99 522.3 L1254.99 527.219 L1237.39 527.219 L1237.39 537.809 Q1238.67 537.375 1239.94 537.173 Q1241.21 536.941 1242.49 536.941 Q1249.72 536.941 1253.94 540.905 Q1258.17 544.87 1258.17 551.64 Q1258.17 558.614 1253.83 562.491 Q1249.49 566.339 1241.59 566.339 Q1238.87 566.339 1236.03 565.876 Q1233.23 565.413 1230.22 564.487 L1230.22 558.614 Q1232.82 560.031 1235.6 560.726 Q1238.38 561.42 1241.47 561.42 Q1246.48 561.42 1249.4 558.787 Q1252.32 556.154 1252.32 551.64 Q1252.32 547.126 1249.4 544.493 Q1246.48 541.86 1241.47 541.86 Q1239.13 541.86 1236.79 542.381 Q1234.47 542.902 1232.04 544.001 L1232.04 522.3 Z" fill="#000000" fill-rule="evenodd" fill-opacity="1" /><path clip-path="url(#clip190)" d="M1282.18 526.149 Q1277.67 526.149 1275.39 530.605 Q1273.13 535.032 1273.13 543.944 Q1273.13 552.827 1275.39 557.283 Q1277.67 561.71 1282.18 561.71 Q1286.73 561.71 1288.98 557.283 Q1291.27 552.827 1291.27 543.944 Q1291.27 535.032 1288.98 530.605 Q1286.73 526.149 1282.18 526.149 M1282.18 521.519 Q1289.45 521.519 1293.27 527.277 Q1297.12 533.006 1297.12 543.944 Q1297.12 554.852 1293.27 560.61 Q1289.45 566.339 1282.18 566.339 Q1274.92 566.339 1271.07 560.61 Q1267.25 554.852 1267.25 543.944 Q1267.25 533.006 1271.07 527.277 Q1274.92 521.519 1282.18 521.519 Z" fill="#000000" fill-rule="evenodd" fill-opacity="1" /><polyline clip-path="url(#clip190)" style="stroke:#000000; stroke-linecap:butt; stroke-linejoin:round; stroke-width:4; stroke-opacity:1; fill:none" points="
  200.094,501.1 200.094,47.2441 
  "/>
<polyline clip-path="url(#clip190)" style="stroke:#000000; stroke-linecap:butt; stroke-linejoin:round; stroke-width:4; stroke-opacity:1; fill:none" points="
  200.094,487.84 218.992,487.84 
  "/>
<polyline clip-path="url(#clip190)" style="stroke:#000000; stroke-linecap:butt; stroke-linejoin:round; stroke-width:4; stroke-opacity:1; fill:none" points="
  200.094,380.899 218.992,380.899 
  "/>
<polyline clip-path="url(#clip190)" style="stroke:#000000; stroke-linecap:butt; stroke-linejoin:round; stroke-width:4; stroke-opacity:1; fill:none" points="
  200.094,273.958 218.992,273.958 
  "/>
<polyline clip-path="url(#clip190)" style="stroke:#000000; stroke-linecap:butt; stroke-linejoin:round; stroke-width:4; stroke-opacity:1; fill:none" points="
  200.094,167.018 218.992,167.018 
  "/>
<polyline clip-path="url(#clip190)" style="stroke:#000000; stroke-linecap:butt; stroke-linejoin:round; stroke-width:4; stroke-opacity:1; fill:none" points="
  200.094,60.077 218.992,60.077 
  "/>
<path clip-path="url(#clip190)" d="M71.4226 470.088 Q66.9087 470.088 64.6229 474.544 Q62.3659 478.971 62.3659 487.883 Q62.3659 496.766 64.6229 501.222 Q66.9087 505.649 71.4226 505.649 Q75.9654 505.649 78.2223 501.222 Q80.5082 496.766 80.5082 487.883 Q80.5082 478.971 78.2223 474.544 Q75.9654 470.088 71.4226 470.088 M71.4226 465.458 Q78.6853 465.458 82.5047 471.216 Q86.3531 476.946 86.3531 487.883 Q86.3531 498.791 82.5047 504.55 Q78.6853 510.279 71.4226 510.279 Q64.1599 510.279 60.3115 504.55 Q56.4921 498.791 56.4921 487.883 Q56.4921 476.946 60.3115 471.216 Q64.1599 465.458 71.4226 465.458 Z" fill="#000000" fill-rule="evenodd" fill-opacity="1" /><path clip-path="url(#clip190)" d="M96.625 502.09 L102.73 502.09 L102.73 509.44 L96.625 509.44 L96.625 502.09 Z" fill="#000000" fill-rule="evenodd" fill-opacity="1" /><path clip-path="url(#clip190)" d="M127.962 470.088 Q123.448 470.088 121.162 474.544 Q118.905 478.971 118.905 487.883 Q118.905 496.766 121.162 501.222 Q123.448 505.649 127.962 505.649 Q132.504 505.649 134.761 501.222 Q137.047 496.766 137.047 487.883 Q137.047 478.971 134.761 474.544 Q132.504 470.088 127.962 470.088 M127.962 465.458 Q135.224 465.458 139.044 471.216 Q142.892 476.946 142.892 487.883 Q142.892 498.791 139.044 504.55 Q135.224 510.279 127.962 510.279 Q120.699 510.279 116.851 504.55 Q113.031 498.791 113.031 487.883 Q113.031 476.946 116.851 471.216 Q120.699 465.458 127.962 465.458 Z" fill="#000000" fill-rule="evenodd" fill-opacity="1" /><path clip-path="url(#clip190)" d="M165.664 470.088 Q161.15 470.088 158.864 474.544 Q156.607 478.971 156.607 487.883 Q156.607 496.766 158.864 501.222 Q161.15 505.649 165.664 505.649 Q170.207 505.649 172.464 501.222 Q174.75 496.766 174.75 487.883 Q174.75 478.971 172.464 474.544 Q170.207 470.088 165.664 470.088 M165.664 465.458 Q172.927 465.458 176.746 471.216 Q180.594 476.946 180.594 487.883 Q180.594 498.791 176.746 504.55 Q172.927 510.279 165.664 510.279 Q158.401 510.279 154.553 504.55 Q150.734 498.791 150.734 487.883 Q150.734 476.946 154.553 471.216 Q158.401 465.458 165.664 465.458 Z" fill="#000000" fill-rule="evenodd" fill-opacity="1" /><path clip-path="url(#clip190)" d="M72.6668 363.147 Q68.1529 363.147 65.8671 367.603 Q63.6101 372.03 63.6101 380.942 Q63.6101 389.825 65.8671 394.281 Q68.1529 398.708 72.6668 398.708 Q77.2096 398.708 79.4665 394.281 Q81.7524 389.825 81.7524 380.942 Q81.7524 372.03 79.4665 367.603 Q77.2096 363.147 72.6668 363.147 M72.6668 358.518 Q79.9295 358.518 83.7489 364.276 Q87.5973 370.005 87.5973 380.942 Q87.5973 391.851 83.7489 397.609 Q79.9295 403.338 72.6668 403.338 Q65.4041 403.338 61.5558 397.609 Q57.7363 391.851 57.7363 380.942 Q57.7363 370.005 61.5558 364.276 Q65.4041 358.518 72.6668 358.518 Z" fill="#000000" fill-rule="evenodd" fill-opacity="1" /><path clip-path="url(#clip190)" d="M97.8692 395.149 L103.975 395.149 L103.975 402.499 L97.8692 402.499 L97.8692 395.149 Z" fill="#000000" fill-rule="evenodd" fill-opacity="1" /><path clip-path="url(#clip190)" d="M121.741 397.58 L142.14 397.58 L142.14 402.499 L114.709 402.499 L114.709 397.58 Q118.037 394.137 123.766 388.35 Q129.524 382.534 131 380.855 Q133.807 377.702 134.906 375.531 Q136.035 373.332 136.035 371.22 Q136.035 367.777 133.604 365.607 Q131.202 363.437 127.325 363.437 Q124.576 363.437 121.509 364.391 Q118.471 365.346 114.999 367.285 L114.999 361.382 Q118.529 359.964 121.596 359.241 Q124.663 358.518 127.209 358.518 Q133.922 358.518 137.915 361.874 Q141.908 365.231 141.908 370.844 Q141.908 373.506 140.896 375.908 Q139.912 378.28 137.279 381.521 Q136.555 382.36 132.678 386.382 Q128.801 390.375 121.741 397.58 Z" fill="#000000" fill-rule="evenodd" fill-opacity="1" /><path clip-path="url(#clip190)" d="M154.466 359.299 L177.412 359.299 L177.412 364.218 L159.819 364.218 L159.819 374.808 Q161.092 374.374 162.365 374.172 Q163.639 373.94 164.912 373.94 Q172.145 373.94 176.37 377.904 Q180.594 381.868 180.594 388.639 Q180.594 395.612 176.254 399.49 Q171.914 403.338 164.015 403.338 Q161.295 403.338 158.459 402.875 Q155.652 402.412 152.643 401.486 L152.643 395.612 Q155.247 397.03 158.025 397.725 Q160.803 398.419 163.899 398.419 Q168.905 398.419 171.827 395.786 Q174.75 393.153 174.75 388.639 Q174.75 384.125 171.827 381.492 Q168.905 378.859 163.899 378.859 Q161.555 378.859 159.211 379.38 Q156.897 379.901 154.466 381 L154.466 359.299 Z" fill="#000000" fill-rule="evenodd" fill-opacity="1" /><path clip-path="url(#clip190)" d="M71.4226 256.207 Q66.9087 256.207 64.6229 260.663 Q62.3659 265.09 62.3659 274.002 Q62.3659 282.885 64.6229 287.341 Q66.9087 291.768 71.4226 291.768 Q75.9654 291.768 78.2223 287.341 Q80.5082 282.885 80.5082 274.002 Q80.5082 265.09 78.2223 260.663 Q75.9654 256.207 71.4226 256.207 M71.4226 251.577 Q78.6853 251.577 82.5047 257.335 Q86.3531 263.064 86.3531 274.002 Q86.3531 284.91 82.5047 290.668 Q78.6853 296.397 71.4226 296.397 Q64.1599 296.397 60.3115 290.668 Q56.4921 284.91 56.4921 274.002 Q56.4921 263.064 60.3115 257.335 Q64.1599 251.577 71.4226 251.577 Z" fill="#000000" fill-rule="evenodd" fill-opacity="1" /><path clip-path="url(#clip190)" d="M96.625 288.209 L102.73 288.209 L102.73 295.558 L96.625 295.558 L96.625 288.209 Z" fill="#000000" fill-rule="evenodd" fill-opacity="1" /><path clip-path="url(#clip190)" d="M115.52 252.358 L138.465 252.358 L138.465 257.277 L120.873 257.277 L120.873 267.867 Q122.146 267.433 123.419 267.231 Q124.692 266.999 125.965 266.999 Q133.199 266.999 137.423 270.963 Q141.648 274.928 141.648 281.698 Q141.648 288.672 137.308 292.549 Q132.967 296.397 125.068 296.397 Q122.348 296.397 119.513 295.934 Q116.706 295.471 113.697 294.546 L113.697 288.672 Q116.301 290.09 119.079 290.784 Q121.856 291.478 124.952 291.478 Q129.958 291.478 132.881 288.845 Q135.803 286.212 135.803 281.698 Q135.803 277.185 132.881 274.551 Q129.958 271.918 124.952 271.918 Q122.609 271.918 120.265 272.439 Q117.95 272.96 115.52 274.06 L115.52 252.358 Z" fill="#000000" fill-rule="evenodd" fill-opacity="1" /><path clip-path="url(#clip190)" d="M165.664 256.207 Q161.15 256.207 158.864 260.663 Q156.607 265.09 156.607 274.002 Q156.607 282.885 158.864 287.341 Q161.15 291.768 165.664 291.768 Q170.207 291.768 172.464 287.341 Q174.75 282.885 174.75 274.002 Q174.75 265.09 172.464 260.663 Q170.207 256.207 165.664 256.207 M165.664 251.577 Q172.927 251.577 176.746 257.335 Q180.594 263.064 180.594 274.002 Q180.594 284.91 176.746 290.668 Q172.927 296.397 165.664 296.397 Q158.401 296.397 154.553 290.668 Q150.734 284.91 150.734 274.002 Q150.734 263.064 154.553 257.335 Q158.401 251.577 165.664 251.577 Z" fill="#000000" fill-rule="evenodd" fill-opacity="1" /><path clip-path="url(#clip190)" d="M72.6668 149.266 Q68.1529 149.266 65.8671 153.722 Q63.6101 158.149 63.6101 167.061 Q63.6101 175.944 65.8671 180.4 Q68.1529 184.827 72.6668 184.827 Q77.2096 184.827 79.4665 180.4 Q81.7524 175.944 81.7524 167.061 Q81.7524 158.149 79.4665 153.722 Q77.2096 149.266 72.6668 149.266 M72.6668 144.636 Q79.9295 144.636 83.7489 150.394 Q87.5973 156.124 87.5973 167.061 Q87.5973 177.97 83.7489 183.728 Q79.9295 189.457 72.6668 189.457 Q65.4041 189.457 61.5558 183.728 Q57.7363 177.97 57.7363 167.061 Q57.7363 156.124 61.5558 150.394 Q65.4041 144.636 72.6668 144.636 Z" fill="#000000" fill-rule="evenodd" fill-opacity="1" /><path clip-path="url(#clip190)" d="M97.8692 181.268 L103.975 181.268 L103.975 188.618 L97.8692 188.618 L97.8692 181.268 Z" fill="#000000" fill-rule="evenodd" fill-opacity="1" /><path clip-path="url(#clip190)" d="M115.23 145.418 L143.008 145.418 L143.008 147.906 L127.325 188.618 L121.22 188.618 L135.977 150.337 L115.23 150.337 L115.23 145.418 Z" fill="#000000" fill-rule="evenodd" fill-opacity="1" /><path clip-path="url(#clip190)" d="M154.466 145.418 L177.412 145.418 L177.412 150.337 L159.819 150.337 L159.819 160.927 Q161.092 160.493 162.365 160.29 Q163.639 160.059 164.912 160.059 Q172.145 160.059 176.37 164.023 Q180.594 167.987 180.594 174.758 Q180.594 181.731 176.254 185.608 Q171.914 189.457 164.015 189.457 Q161.295 189.457 158.459 188.994 Q155.652 188.531 152.643 187.605 L152.643 181.731 Q155.247 183.149 158.025 183.843 Q160.803 184.538 163.899 184.538 Q168.905 184.538 171.827 181.905 Q174.75 179.272 174.75 174.758 Q174.75 170.244 171.827 167.611 Q168.905 164.978 163.899 164.978 Q161.555 164.978 159.211 165.499 Q156.897 166.019 154.466 167.119 L154.466 145.418 Z" fill="#000000" fill-rule="evenodd" fill-opacity="1" /><path clip-path="url(#clip190)" d="M59.9354 76.758 L69.484 76.758 L69.484 43.801 L59.0963 45.8843 L59.0963 40.5603 L69.4261 38.477 L75.271 38.477 L75.271 76.758 L84.8195 76.758 L84.8195 81.677 L59.9354 81.677 L59.9354 76.758 Z" fill="#000000" fill-rule="evenodd" fill-opacity="1" /><path clip-path="url(#clip190)" d="M96.625 74.3275 L102.73 74.3275 L102.73 81.677 L96.625 81.677 L96.625 74.3275 Z" fill="#000000" fill-rule="evenodd" fill-opacity="1" /><path clip-path="url(#clip190)" d="M127.962 42.3253 Q123.448 42.3253 121.162 46.7813 Q118.905 51.2084 118.905 60.1204 Q118.905 69.0034 121.162 73.4594 Q123.448 77.8865 127.962 77.8865 Q132.504 77.8865 134.761 73.4594 Q137.047 69.0034 137.047 60.1204 Q137.047 51.2084 134.761 46.7813 Q132.504 42.3253 127.962 42.3253 M127.962 37.6957 Q135.224 37.6957 139.044 43.4538 Q142.892 49.1829 142.892 60.1204 Q142.892 71.0289 139.044 76.787 Q135.224 82.5161 127.962 82.5161 Q120.699 82.5161 116.851 76.787 Q113.031 71.0289 113.031 60.1204 Q113.031 49.1829 116.851 43.4538 Q120.699 37.6957 127.962 37.6957 Z" fill="#000000" fill-rule="evenodd" fill-opacity="1" /><path clip-path="url(#clip190)" d="M165.664 42.3253 Q161.15 42.3253 158.864 46.7813 Q156.607 51.2084 156.607 60.1204 Q156.607 69.0034 158.864 73.4594 Q161.15 77.8865 165.664 77.8865 Q170.207 77.8865 172.464 73.4594 Q174.75 69.0034 174.75 60.1204 Q174.75 51.2084 172.464 46.7813 Q170.207 42.3253 165.664 42.3253 M165.664 37.6957 Q172.927 37.6957 176.746 43.4538 Q180.594 49.1829 180.594 60.1204 Q180.594 71.0289 176.746 76.787 Q172.927 82.5161 165.664 82.5161 Q158.401 82.5161 154.553 76.787 Q150.734 71.0289 150.734 60.1204 Q150.734 49.1829 154.553 43.4538 Q158.401 37.6957 165.664 37.6957 Z" fill="#000000" fill-rule="evenodd" fill-opacity="1" /><polyline clip-path="url(#clip192)" style="stroke:#ff00ff; stroke-linecap:butt; stroke-linejoin:round; stroke-width:16; stroke-opacity:1; fill:none" points="
  207.066,274.065 214.037,274.152 221.008,274.305 227.98,274.578 234.951,275.059 241.922,275.905 248.893,277.388 255.865,279.964 262.836,284.372 269.807,291.73 
  276.778,303.517 283.75,321.208 290.721,345.319 297.692,374.198 304.663,403.888 311.635,429.981 318.606,449.938 325.577,463.642 332.549,472.374 339.52,477.683 
  346.491,480.83 353.462,482.682 360.434,483.784 367.405,484.455 374.376,484.874 381.347,485.14 388.319,485.306 395.29,485.409 402.261,485.47 409.233,485.506 
  416.204,485.527 423.175,485.539 430.146,485.546 437.118,485.551 444.089,485.553 451.06,485.554 458.031,485.555 465.003,485.555 471.974,485.555 478.945,485.555 
  485.916,485.555 492.888,485.554 499.859,485.554 506.83,485.553 513.802,485.553 520.773,485.552 527.744,485.552 534.715,485.551 541.687,485.55 548.658,485.549 
  555.629,485.548 562.6,485.547 569.572,485.546 576.543,485.544 583.514,485.543 590.485,485.542 597.457,485.54 604.428,485.538 611.399,485.536 618.371,485.533 
  625.342,485.531 632.313,485.528 639.284,485.524 646.256,485.521 653.227,485.516 660.198,485.511 667.169,485.506 674.141,485.499 681.112,485.491 688.083,485.482 
  695.054,485.471 702.026,485.459 708.997,485.443 715.968,485.425 722.94,485.403 729.911,485.375 736.882,485.342 743.853,485.3 750.825,485.247 757.796,485.181 
  764.767,485.096 771.738,484.989 778.71,484.85 785.681,484.673 792.652,484.445 799.623,484.155 806.595,483.79 813.566,483.337 820.537,482.789 827.509,482.142 
  834.48,481.403 841.451,480.585 848.422,479.712 855.394,478.809 862.365,477.904 869.336,477.02 876.307,476.177 883.279,475.387 890.25,474.657 897.221,473.991 
  904.193,473.388 911.164,472.844 918.135,472.355 925.106,471.917 932.078,471.524 939.049,471.171 946.02,470.853 952.991,470.567 959.963,470.309 966.934,470.075 
  973.905,469.862 980.876,469.669 987.848,469.492 994.819,469.33 1001.79,469.182 1008.76,469.045 1015.73,468.919 1022.7,468.802 1029.68,468.694 1036.65,468.593 
  1043.62,468.499 1050.59,468.412 1057.56,468.33 1064.53,468.253 1071.5,468.181 1078.47,468.113 1085.45,468.049 1092.42,467.989 1099.39,467.932 1106.36,467.878 
  1113.33,467.827 1120.3,467.779 1127.27,467.733 1134.24,467.689 1141.22,467.647 1148.19,467.607 1155.16,467.57 1162.13,467.533 1169.1,467.499 1176.07,467.465 
  1183.04,467.433 1190.01,467.403 1196.99,467.374 1203.96,467.345 1210.93,467.318 1217.9,467.292 1224.87,467.267 1231.84,467.243 1238.81,467.22 1245.78,467.197 
  1252.76,467.176 
  "/>
<polyline clip-path="url(#clip192)" style="stroke:#2000d4; stroke-linecap:butt; stroke-linejoin:round; stroke-width:16; stroke-opacity:1; fill:none" stroke-dasharray="8, 16" points="
  207.066,487.84 214.037,487.84 221.008,487.84 227.98,487.84 234.951,487.84 241.922,487.84 248.893,487.839 255.865,487.839 262.836,487.839 269.807,487.839 
  276.778,487.839 283.75,487.838 290.721,487.837 297.692,487.836 304.663,487.835 311.635,487.834 318.606,487.833 325.577,487.833 332.549,487.832 339.52,487.832 
  346.491,487.831 353.462,487.831 360.434,487.83 367.405,487.83 374.376,487.829 381.347,487.829 388.319,487.828 395.29,487.828 402.261,487.828 409.233,487.827 
  416.204,487.827 423.175,487.826 430.146,487.826 437.118,487.825 444.089,487.825 451.06,487.825 458.031,487.824 465.003,487.824 471.974,487.823 478.945,487.823 
  485.916,487.822 492.888,487.822 499.859,487.822 506.83,487.821 513.802,487.821 520.773,487.82 527.744,487.82 534.715,487.82 541.687,487.819 548.658,487.819 
  555.629,487.818 562.6,487.818 569.572,487.817 576.543,487.817 583.514,487.817 590.485,487.816 597.457,487.816 604.428,487.815 611.399,487.815 618.371,487.814 
  625.342,487.814 632.313,487.814 639.284,487.813 646.256,487.813 653.227,487.812 660.198,487.812 667.169,487.811 674.141,487.811 681.112,487.811 688.083,487.81 
  695.054,487.81 702.026,487.809 708.997,487.809 715.968,487.808 722.94,487.808 729.911,487.808 736.882,487.807 743.853,487.807 750.825,487.806 757.796,487.806 
  764.767,487.805 771.738,487.805 778.71,487.805 785.681,487.804 792.652,487.804 799.623,487.803 806.595,487.803 813.566,487.802 820.537,487.802 827.509,487.802 
  834.48,487.801 841.451,487.801 848.422,487.8 855.394,487.8 862.365,487.799 869.336,487.799 876.307,487.799 883.279,487.798 890.25,487.798 897.221,487.797 
  904.193,487.797 911.164,487.796 918.135,487.796 925.106,487.796 932.078,487.795 939.049,487.795 946.02,487.794 952.991,487.794 959.963,487.794 966.934,487.793 
  973.905,487.793 980.876,487.792 987.848,487.792 994.819,487.791 1001.79,487.791 1008.76,487.791 1015.73,487.79 1022.7,487.79 1029.68,487.789 1036.65,487.789 
  1043.62,487.788 1050.59,487.788 1057.56,487.788 1064.53,487.787 1071.5,487.787 1078.47,487.786 1085.45,487.786 1092.42,487.785 1099.39,487.785 1106.36,487.785 
  1113.33,487.784 1120.3,487.784 1127.27,487.783 1134.24,487.783 1141.22,487.782 1148.19,487.782 1155.16,487.782 1162.13,487.781 1169.1,487.781 1176.07,487.78 
  1183.04,487.78 1190.01,487.779 1196.99,487.779 1203.96,487.779 1210.93,487.778 1217.9,487.778 1224.87,487.777 1231.84,487.777 1238.81,487.776 1245.78,487.776 
  1252.76,487.776 
  "/>
<polyline clip-path="url(#clip192)" style="stroke:#008900; stroke-linecap:butt; stroke-linejoin:round; stroke-width:16; stroke-opacity:1; fill:none" stroke-dasharray="64, 40" points="
  207.066,487.84 214.037,487.839 221.008,487.839 227.98,487.839 234.951,487.838 241.922,487.838 248.893,487.836 255.865,487.833 262.836,487.828 269.807,487.82 
  276.778,487.807 283.75,487.787 290.721,487.76 297.692,487.726 304.663,487.689 311.635,487.652 318.606,487.613 325.577,487.569 332.549,487.508 339.52,487.416 
  346.491,487.274 353.462,487.057 360.434,486.741 367.405,486.299 374.376,485.713 381.347,484.973 388.319,484.094 395.29,483.116 402.261,482.102 409.233,481.121 
  416.204,480.227 423.175,479.453 430.146,478.802 437.118,478.261 444.089,477.805 451.06,477.41 458.031,477.055 465.003,476.724 471.974,476.404 478.945,476.086 
  485.916,475.765 492.888,475.436 499.859,475.095 506.83,474.74 513.802,474.369 520.773,473.979 527.744,473.569 534.715,473.136 541.687,472.678 548.658,472.193 
  555.629,471.679 562.6,471.133 569.572,470.552 576.543,469.933 583.514,469.272 590.485,468.564 597.457,467.806 604.428,466.991 611.399,466.114 618.371,465.168 
  625.342,464.144 632.313,463.035 639.284,461.829 646.256,460.515 653.227,459.078 660.198,457.503 667.169,455.771 674.141,453.859 681.112,451.741 688.083,449.388 
  695.054,446.762 702.026,443.821 708.997,440.514 715.968,436.78 722.94,432.547 729.911,427.73 736.882,422.229 743.853,415.927 750.825,408.69 757.796,400.366 
  764.767,390.792 771.738,379.805 778.71,367.254 785.681,353.03 792.652,337.101 799.623,319.554 806.595,300.626 813.566,280.721 820.537,260.379 827.509,240.215 
  834.48,220.828 841.451,202.711 848.422,186.201 855.394,171.465 862.365,158.523 869.336,147.288 876.307,137.609 883.279,129.305 890.25,122.193 897.221,116.098 
  904.193,110.862 911.164,106.35 918.135,102.447 925.106,99.0543 932.078,96.0917 939.049,93.4918 946.02,91.199 952.991,89.1672 959.963,87.3583 966.934,85.7405 
  973.905,84.2873 980.876,82.9766 987.848,81.7898 994.819,80.7112 1001.79,79.7275 1008.76,78.8273 1015.73,78.001 1022.7,77.2402 1029.68,76.5379 1036.65,75.8878 
  1043.62,75.2846 1050.59,74.7235 1057.56,74.2004 1064.53,73.7117 1071.5,73.2544 1078.47,72.8254 1085.45,72.4224 1092.42,72.0431 1099.39,71.6856 1106.36,71.3481 
  1113.33,71.029 1120.3,70.7268 1127.27,70.4404 1134.24,70.1684 1141.22,69.91 1148.19,69.664 1155.16,69.4298 1162.13,69.2063 1169.1,68.993 1176.07,68.7892 
  1183.04,68.5942 1190.01,68.4076 1196.99,68.2288 1203.96,68.0573 1210.93,67.8926 1217.9,67.7345 1224.87,67.5825 1231.84,67.4363 1238.81,67.2956 1245.78,67.16 
  1252.76,67.0294 
  "/>
<polyline clip-path="url(#clip192)" style="stroke:#008900; stroke-linecap:butt; stroke-linejoin:round; stroke-width:16; stroke-opacity:1; fill:none" stroke-dasharray="8, 16" points="
  207.066,487.84 214.037,487.839 221.008,487.839 227.98,487.839 234.951,487.839 241.922,487.838 248.893,487.836 255.865,487.834 262.836,487.83 269.807,487.823 
  276.778,487.811 283.75,487.794 290.721,487.771 297.692,487.743 304.663,487.714 311.635,487.688 318.606,487.667 325.577,487.651 332.549,487.638 339.52,487.625 
  346.491,487.609 353.462,487.59 360.434,487.568 367.405,487.543 374.376,487.518 381.347,487.494 388.319,487.473 395.29,487.455 402.261,487.441 409.233,487.43 
  416.204,487.423 423.175,487.418 430.146,487.414 437.118,487.411 444.089,487.41 451.06,487.408 458.031,487.407 465.003,487.407 471.974,487.406 478.945,487.405 
  485.916,487.405 492.888,487.404 499.859,487.404 506.83,487.403 513.802,487.403 520.773,487.403 527.744,487.402 534.715,487.402 541.687,487.401 548.658,487.401 
  555.629,487.4 562.6,487.4 569.572,487.4 576.543,487.399 583.514,487.399 590.485,487.398 597.457,487.398 604.428,487.397 611.399,487.397 618.371,487.397 
  625.342,487.396 632.313,487.396 639.284,487.395 646.256,487.395 653.227,487.394 660.198,487.394 667.169,487.394 674.141,487.393 681.112,487.393 688.083,487.392 
  695.054,487.392 702.026,487.391 708.997,487.391 715.968,487.391 722.94,487.39 729.911,487.39 736.882,487.389 743.853,487.389 750.825,487.389 757.796,487.388 
  764.767,487.388 771.738,487.387 778.71,487.387 785.681,487.386 792.652,487.386 799.623,487.386 806.595,487.385 813.566,487.385 820.537,487.384 827.509,487.384 
  834.48,487.384 841.451,487.383 848.422,487.383 855.394,487.382 862.365,487.382 869.336,487.382 876.307,487.381 883.279,487.381 890.25,487.38 897.221,487.38 
  904.193,487.379 911.164,487.379 918.135,487.379 925.106,487.378 932.078,487.378 939.049,487.377 946.02,487.377 952.991,487.376 959.963,487.376 966.934,487.376 
  973.905,487.375 980.876,487.375 987.848,487.374 994.819,487.374 1001.79,487.373 1008.76,487.373 1015.73,487.373 1022.7,487.372 1029.68,487.372 1036.65,487.371 
  1043.62,487.371 1050.59,487.37 1057.56,487.37 1064.53,487.37 1071.5,487.369 1078.47,487.369 1085.45,487.368 1092.42,487.368 1099.39,487.367 1106.36,487.367 
  1113.33,487.367 1120.3,487.366 1127.27,487.366 1134.24,487.365 1141.22,487.365 1148.19,487.364 1155.16,487.364 1162.13,487.364 1169.1,487.363 1176.07,487.363 
  1183.04,487.362 1190.01,487.362 1196.99,487.361 1203.96,487.361 1210.93,487.361 1217.9,487.36 1224.87,487.36 1231.84,487.359 1238.81,487.359 1245.78,487.359 
  1252.76,487.358 
  "/>
<polyline clip-path="url(#clip192)" style="stroke:#2000d4; stroke-linecap:butt; stroke-linejoin:round; stroke-width:16; stroke-opacity:1; fill:none" points="
  207.066,487.412 214.037,487.063 221.008,486.446 227.98,485.358 234.951,483.443 241.922,480.095 248.893,474.293 255.865,464.403 262.836,448.004 269.807,422.018 
  276.778,383.665 283.75,332.603 290.721,273.209 297.692,214.068 304.663,163.628 311.635,125.983 318.606,100.594 325.577,84.618 332.549,74.9984 339.52,69.3566 
  346.491,66.095 353.462,64.2203 360.434,63.1411 367.405,62.5149 374.376,62.1478 381.347,61.931 388.319,61.8035 395.29,61.7297 402.261,61.6882 409.233,61.6657 
  416.204,61.6538 423.175,61.6479 430.146,61.6451 437.118,61.6439 444.089,61.6436 451.06,61.6437 458.031,61.6442 465.003,61.6448 471.974,61.6454 478.945,61.6462 
  485.916,61.647 492.888,61.6478 499.859,61.6486 506.83,61.6494 513.802,61.6503 520.773,61.6511 527.744,61.652 534.715,61.6528 541.687,61.6537 548.658,61.6545 
  555.629,61.6554 562.6,61.6562 569.572,61.6571 576.543,61.6579 583.514,61.6588 590.485,61.6596 597.457,61.6605 604.428,61.6613 611.399,61.6622 618.371,61.663 
  625.342,61.6639 632.313,61.6647 639.284,61.6656 646.256,61.6664 653.227,61.6673 660.198,61.6681 667.169,61.669 674.141,61.6698 681.112,61.6707 688.083,61.6716 
  695.054,61.6724 702.026,61.6733 708.997,61.6741 715.968,61.675 722.94,61.6758 729.911,61.6767 736.882,61.6775 743.853,61.6784 750.825,61.6792 757.796,61.6801 
  764.767,61.6809 771.738,61.6818 778.71,61.6826 785.681,61.6835 792.652,61.6843 799.623,61.6852 806.595,61.686 813.566,61.6869 820.537,61.6877 827.509,61.6886 
  834.48,61.6895 841.451,61.6903 848.422,61.6912 855.394,61.692 862.365,61.6929 869.336,61.6937 876.307,61.6946 883.279,61.6954 890.25,61.6963 897.221,61.6971 
  904.193,61.698 911.164,61.6988 918.135,61.6997 925.106,61.7005 932.078,61.7014 939.049,61.7022 946.02,61.7031 952.991,61.7039 959.963,61.7048 966.934,61.7056 
  973.905,61.7065 980.876,61.7073 987.848,61.7082 994.819,61.7091 1001.79,61.7099 1008.76,61.7108 1015.73,61.7116 1022.7,61.7125 1029.68,61.7133 1036.65,61.7142 
  1043.62,61.715 1050.59,61.7159 1057.56,61.7167 1064.53,61.7176 1071.5,61.7184 1078.47,61.7193 1085.45,61.7201 1092.42,61.721 1099.39,61.7218 1106.36,61.7227 
  1113.33,61.7235 1120.3,61.7244 1127.27,61.7252 1134.24,61.7261 1141.22,61.727 1148.19,61.7278 1155.16,61.7287 1162.13,61.7295 1169.1,61.7304 1176.07,61.7312 
  1183.04,61.7321 1190.01,61.7329 1196.99,61.7338 1203.96,61.7346 1210.93,61.7355 1217.9,61.7363 1224.87,61.7372 1231.84,61.738 1238.81,61.7389 1245.78,61.7397 
  1252.76,61.7406 
  "/>
<polyline clip-path="url(#clip192)" style="stroke:#008900; stroke-linecap:butt; stroke-linejoin:round; stroke-width:16; stroke-opacity:1; fill:none" points="
  207.066,487.626 214.037,487.461 221.008,487.17 227.98,486.655 234.951,485.75 241.922,484.167 248.893,481.425 255.865,476.749 262.836,468.995 269.807,456.705 
  276.778,438.555 283.75,414.365 290.721,386.163 297.692,357.935 304.663,333.558 311.635,314.776 318.606,301.021 325.577,290.446 332.549,280.852 339.52,270.117 
  346.491,256.459 353.462,238.838 360.434,217.414 367.405,193.554 374.376,169.232 381.347,146.329 388.319,126.262 395.29,109.845 402.261,97.265 409.233,88.1849 
  416.204,81.9666 423.175,77.8965 430.146,75.337 437.118,73.7914 444.089,72.906 451.06,72.4438 458.031,72.2522 465.003,72.2349 471.974,72.3321 478.945,72.5068 
  485.916,72.7362 492.888,73.0063 499.859,73.3089 506.83,73.639 513.802,73.9943 520.773,74.3737 527.744,74.7772 534.715,75.2055 541.687,75.66 548.658,76.1423 
  555.629,76.6545 562.6,77.1991 569.572,77.7789 576.543,78.3971 583.514,79.0574 590.485,79.7638 597.457,80.5211 604.428,81.3345 611.399,82.2101 618.371,83.1546 
  625.342,84.176 632.313,85.2833 639.284,86.4867 646.256,87.7983 653.227,89.2319 660.198,90.8036 667.169,92.5321 674.141,94.4396 681.112,96.5518 688.083,98.8993 
  695.054,101.518 702.026,104.451 708.997,107.749 715.968,111.471 722.94,115.691 729.911,120.491 736.882,125.973 743.853,132.252 750.825,139.462 757.796,147.752 
  764.767,157.285 771.738,168.222 778.71,180.713 785.681,194.865 792.652,210.708 799.623,228.155 806.595,246.967 813.566,266.745 820.537,286.95 827.509,306.975 
  834.48,326.228 841.451,344.223 848.422,360.629 855.394,375.285 862.365,388.17 869.336,399.373 876.307,409.041 883.279,417.35 890.25,424.482 897.221,430.608 
  904.193,435.88 911.164,440.432 918.135,444.378 925.106,447.814 932.078,450.82 939.049,453.461 946.02,455.795 952.991,457.865 959.963,459.71 966.934,461.363 
  973.905,462.848 980.876,464.19 987.848,465.405 994.819,466.511 1001.79,467.52 1008.76,468.444 1015.73,469.293 1022.7,470.075 1029.68,470.797 1036.65,471.466 
  1043.62,472.087 1050.59,472.665 1057.56,473.204 1064.53,473.707 1071.5,474.179 1078.47,474.621 1085.45,475.037 1092.42,475.428 1099.39,475.797 1106.36,476.146 
  1113.33,476.476 1120.3,476.788 1127.27,477.084 1134.24,477.365 1141.22,477.632 1148.19,477.886 1155.16,478.129 1162.13,478.36 1169.1,478.58 1176.07,478.791 
  1183.04,478.993 1190.01,479.186 1196.99,479.371 1203.96,479.549 1210.93,479.719 1217.9,479.883 1224.87,480.041 1231.84,480.192 1238.81,480.338 1245.78,480.478 
  1252.76,480.614 
  "/>
<polyline clip-path="url(#clip192)" style="stroke:#7f7f7f; stroke-linecap:butt; stroke-linejoin:round; stroke-width:16; stroke-opacity:1; fill:none" points="
  207.066,60.077 214.037,65.6742 221.008,69.0933 227.98,71.1054 234.951,72.2986 241.922,73.0498 248.893,73.603 255.865,74.1398 262.836,74.8371 269.807,75.9233 
  276.778,77.7475 283.75,80.8766 290.721,86.2253 297.692,95.1957 304.663,109.72 311.635,131.957 318.606,163.359 325.577,203.304 332.549,248.426 339.52,293.744 
  346.491,334.797 353.462,369.008 360.434,395.817 367.405,416.173 374.376,431.806 381.347,444.464 388.319,455.287 395.29,464.59 402.261,472.15 409.233,477.769 
  416.204,481.595 423.175,484.03 430.146,485.52 437.118,486.416 444.089,486.956 451.06,487.285 458.031,487.488 465.003,487.615 471.974,487.696 478.945,487.747 
  485.916,487.78 492.888,487.801 499.859,487.815 506.83,487.824 513.802,487.829 520.773,487.833 527.744,487.835 534.715,487.837 541.687,487.838 548.658,487.838 
  555.629,487.839 562.6,487.839 569.572,487.839 576.543,487.839 583.514,487.839 590.485,487.839 597.457,487.839 604.428,487.84 611.399,487.84 618.371,487.84 
  625.342,487.84 632.313,487.84 639.284,487.84 646.256,487.84 653.227,487.84 660.198,487.84 667.169,487.84 674.141,487.84 681.112,487.84 688.083,487.84 
  695.054,487.84 702.026,487.84 708.997,487.84 715.968,487.84 722.94,487.84 729.911,487.84 736.882,487.84 743.853,487.84 750.825,487.84 757.796,487.84 
  764.767,487.84 771.738,487.84 778.71,487.84 785.681,487.84 792.652,487.84 799.623,487.84 806.595,487.84 813.566,487.84 820.537,487.84 827.509,487.84 
  834.48,487.84 841.451,487.84 848.422,487.84 855.394,487.84 862.365,487.84 869.336,487.84 876.307,487.84 883.279,487.84 890.25,487.84 897.221,487.84 
  904.193,487.84 911.164,487.84 918.135,487.84 925.106,487.84 932.078,487.84 939.049,487.84 946.02,487.84 952.991,487.84 959.963,487.84 966.934,487.84 
  973.905,487.84 980.876,487.84 987.848,487.84 994.819,487.84 1001.79,487.84 1008.76,487.84 1015.73,487.84 1022.7,487.84 1029.68,487.84 1036.65,487.84 
  1043.62,487.84 1050.59,487.84 1057.56,487.84 1064.53,487.84 1071.5,487.84 1078.47,487.84 1085.45,487.84 1092.42,487.84 1099.39,487.84 1106.36,487.84 
  1113.33,487.84 1120.3,487.84 1127.27,487.84 1134.24,487.84 1141.22,487.84 1148.19,487.84 1155.16,487.84 1162.13,487.84 1169.1,487.84 1176.07,487.84 
  1183.04,487.84 1190.01,487.84 1196.99,487.84 1203.96,487.84 1210.93,487.84 1217.9,487.84 1224.87,487.84 1231.84,487.84 1238.81,487.84 1245.78,487.84 
  1252.76,487.84 
  "/>
<polyline clip-path="url(#clip192)" style="stroke:#895f55; stroke-linecap:butt; stroke-linejoin:round; stroke-width:16; stroke-opacity:1; fill:none" points="
  207.066,487.84 214.037,487.416 221.008,487.071 227.98,486.46 234.951,485.38 241.922,483.481 248.893,480.16 255.865,474.406 262.836,464.597 269.807,448.332 
  276.778,422.559 283.75,384.52 290.721,333.876 297.692,274.966 304.663,216.308 311.635,166.276 318.606,128.932 325.577,103.739 332.549,87.8743 339.52,78.3005 
  346.491,72.653 353.462,69.342 360.434,67.3812 367.405,66.1923 374.376,65.4517 381.347,64.9838 388.319,64.6899 395.29,64.5091 402.261,64.4006 409.233,64.3369 
  416.204,64.3 423.175,64.2787 430.146,64.2663 437.118,64.2592 444.089,64.255 451.06,64.2527 458.031,64.2515 465.003,64.251 471.974,64.2509 478.945,64.2512 
  485.916,64.2517 492.888,64.2524 499.859,64.2532 506.83,64.2541 513.802,64.2551 520.773,64.2562 527.744,64.2574 534.715,64.2587 541.687,64.2602 548.658,64.2617 
  555.629,64.2633 562.6,64.2652 569.572,64.2671 576.543,64.2693 583.514,64.2716 590.485,64.2742 597.457,64.2771 604.428,64.2803 611.399,64.2838 618.371,64.2878 
  625.342,64.2922 632.313,64.2971 639.284,64.3027 646.256,64.3091 653.227,64.3164 660.198,64.3247 667.169,64.3342 674.141,64.3453 681.112,64.3582 688.083,64.3733 
  695.054,64.3911 702.026,64.4123 708.997,64.4375 715.968,64.4679 722.94,64.5048 729.911,64.5499 736.882,64.6054 743.853,64.6742 750.825,64.7602 757.796,64.8682 
  764.767,65.0049 771.738,65.1782 778.71,65.3986 785.681,65.6783 792.652,66.0316 799.623,66.4731 806.595,67.0163 813.566,67.6701 820.537,68.4353 827.509,69.3017 
  834.48,70.2474 841.451,71.2413 848.422,72.2477 855.394,73.2325 862.365,74.1679 869.336,75.0345 876.307,75.8217 883.279,76.5264 890.25,77.1505 897.221,77.6997 
  904.193,78.1809 911.164,78.602 918.135,78.9706 925.106,79.2936 932.078,79.5776 939.049,79.8279 946.02,80.0493 952.991,80.246 959.963,80.4214 966.934,80.5784 
  973.905,80.7195 980.876,80.8467 987.848,80.962 994.819,81.0667 1001.79,81.1623 1008.76,81.2497 1015.73,81.3299 1022.7,81.4037 1029.68,81.4718 1036.65,81.5349 
  1043.62,81.5934 1050.59,81.6479 1057.56,81.6986 1064.53,81.7461 1071.5,81.7905 1078.47,81.8321 1085.45,81.8713 1092.42,81.9081 1099.39,81.9429 1106.36,81.9757 
  1113.33,82.0068 1120.3,82.0362 1127.27,82.0641 1134.24,82.0907 1141.22,82.1159 1148.19,82.14 1155.16,82.1629 1162.13,82.1848 1169.1,82.2057 1176.07,82.2257 
  1183.04,82.2449 1190.01,82.2633 1196.99,82.2809 1203.96,82.2979 1210.93,82.3141 1217.9,82.3298 1224.87,82.3449 1231.84,82.3594 1238.81,82.3734 1245.78,82.387 
  1252.76,82.4 
  "/>
<polyline clip-path="url(#clip192)" style="stroke:#2000d4; stroke-linecap:butt; stroke-linejoin:round; stroke-width:16; stroke-opacity:1; fill:none" stroke-dasharray="64, 40" points="
  207.066,487.84 214.037,487.84 221.008,487.84 227.98,487.84 234.951,487.84 241.922,487.84 248.893,487.839 255.865,487.839 262.836,487.839 269.807,487.839 
  276.778,487.839 283.75,487.839 290.721,487.839 297.692,487.839 304.663,487.838 311.635,487.838 318.606,487.838 325.577,487.838 332.549,487.838 339.52,487.838 
  346.491,487.838 353.462,487.838 360.434,487.838 367.405,487.838 374.376,487.837 381.347,487.837 388.319,487.837 395.29,487.837 402.261,487.836 409.233,487.836 
  416.204,487.835 423.175,487.835 430.146,487.835 437.118,487.834 444.089,487.834 451.06,487.833 458.031,487.833 465.003,487.833 471.974,487.832 478.945,487.832 
  485.916,487.831 492.888,487.831 499.859,487.83 506.83,487.83 513.802,487.83 520.773,487.829 527.744,487.829 534.715,487.828 541.687,487.828 548.658,487.827 
  555.629,487.827 562.6,487.827 569.572,487.826 576.543,487.826 583.514,487.825 590.485,487.825 597.457,487.824 604.428,487.824 611.399,487.824 618.371,487.823 
  625.342,487.823 632.313,487.822 639.284,487.822 646.256,487.821 653.227,487.821 660.198,487.821 667.169,487.82 674.141,487.82 681.112,487.819 688.083,487.819 
  695.054,487.818 702.026,487.818 708.997,487.818 715.968,487.817 722.94,487.817 729.911,487.816 736.882,487.816 743.853,487.815 750.825,487.815 757.796,487.815 
  764.767,487.814 771.738,487.814 778.71,487.813 785.681,487.813 792.652,487.813 799.623,487.812 806.595,487.812 813.566,487.811 820.537,487.811 827.509,487.81 
  834.48,487.81 841.451,487.81 848.422,487.809 855.394,487.809 862.365,487.808 869.336,487.808 876.307,487.807 883.279,487.807 890.25,487.807 897.221,487.806 
  904.193,487.806 911.164,487.805 918.135,487.805 925.106,487.804 932.078,487.804 939.049,487.804 946.02,487.803 952.991,487.803 959.963,487.802 966.934,487.802 
  973.905,487.801 980.876,487.801 987.848,487.801 994.819,487.8 1001.79,487.8 1008.76,487.799 1015.73,487.799 1022.7,487.798 1029.68,487.798 1036.65,487.798 
  1043.62,487.797 1050.59,487.797 1057.56,487.796 1064.53,487.796 1071.5,487.795 1078.47,487.795 1085.45,487.795 1092.42,487.794 1099.39,487.794 1106.36,487.793 
  1113.33,487.793 1120.3,487.792 1127.27,487.792 1134.24,487.792 1141.22,487.791 1148.19,487.791 1155.16,487.79 1162.13,487.79 1169.1,487.789 1176.07,487.789 
  1183.04,487.789 1190.01,487.788 1196.99,487.788 1203.96,487.787 1210.93,487.787 1217.9,487.787 1224.87,487.786 1231.84,487.786 1238.81,487.785 1245.78,487.785 
  1252.76,487.784 
  "/>
<polyline clip-path="url(#clip192)" style="stroke:#000000; stroke-linecap:butt; stroke-linejoin:round; stroke-width:16; stroke-opacity:1; fill:none" stroke-dasharray="8, 16" points="
  207.066,60.077 214.037,60.5004 221.008,60.9159 227.98,61.5965 234.951,62.7889 241.922,64.8849 248.893,68.5507 255.865,74.9017 262.836,85.7259 269.807,103.669 
  276.778,132.085 283.75,173.984 290.721,229.658 297.692,294.153 304.663,357.801 311.635,410.972 318.606,448.735 325.577,471.404 332.549,482.464 339.52,486.547 
  346.491,487.615 353.462,487.81 360.434,487.837 367.405,487.839 374.376,487.84 381.347,487.84 388.319,487.84 395.29,487.84 402.261,487.84 409.233,487.84 
  416.204,487.84 423.175,487.84 430.146,487.84 437.118,487.84 444.089,487.84 451.06,487.84 458.031,487.84 465.003,487.84 471.974,487.84 478.945,487.84 
  485.916,487.84 492.888,487.84 499.859,487.84 506.83,487.84 513.802,487.84 520.773,487.84 527.744,487.84 534.715,487.84 541.687,487.84 548.658,487.84 
  555.629,487.84 562.6,487.84 569.572,487.84 576.543,487.84 583.514,487.84 590.485,487.84 597.457,487.84 604.428,487.84 611.399,487.84 618.371,487.84 
  625.342,487.84 632.313,487.84 639.284,487.84 646.256,487.84 653.227,487.84 660.198,487.84 667.169,487.84 674.141,487.84 681.112,487.84 688.083,487.84 
  695.054,487.84 702.026,487.84 708.997,487.84 715.968,487.84 722.94,487.84 729.911,487.84 736.882,487.84 743.853,487.84 750.825,487.84 757.796,487.84 
  764.767,487.84 771.738,487.84 778.71,487.84 785.681,487.84 792.652,487.84 799.623,487.84 806.595,487.84 813.566,487.84 820.537,487.84 827.509,487.84 
  834.48,487.84 841.451,487.84 848.422,487.84 855.394,487.84 862.365,487.84 869.336,487.84 876.307,487.84 883.279,487.84 890.25,487.84 897.221,487.84 
  904.193,487.84 911.164,487.84 918.135,487.84 925.106,487.84 932.078,487.84 939.049,487.84 946.02,487.84 952.991,487.84 959.963,487.84 966.934,487.84 
  973.905,487.84 980.876,487.84 987.848,487.84 994.819,487.84 1001.79,487.84 1008.76,487.84 1015.73,487.84 1022.7,487.84 1029.68,487.84 1036.65,487.84 
  1043.62,487.84 1050.59,487.84 1057.56,487.84 1064.53,487.84 1071.5,487.84 1078.47,487.84 1085.45,487.84 1092.42,487.84 1099.39,487.84 1106.36,487.84 
  1113.33,487.84 1120.3,487.84 1127.27,487.84 1134.24,487.84 1141.22,487.84 1148.19,487.84 1155.16,487.84 1162.13,487.84 1169.1,487.84 1176.07,487.84 
  1183.04,487.84 1190.01,487.84 1196.99,487.84 1203.96,487.84 1210.93,487.84 1217.9,487.84 1224.87,487.84 1231.84,487.84 1238.81,487.84 1245.78,487.84 
  1252.76,487.84 
  "/>
</svg>
