<?xml version="1.0" encoding="utf-8"?>
<svg xmlns="http://www.w3.org/2000/svg" xmlns:xlink="http://www.w3.org/1999/xlink" width="350" height="150" viewBox="0 0 1400 600">
<defs>
  <clipPath id="clip310">
    <rect x="0" y="0" width="1400" height="600"/>
  </clipPath>
</defs>
<path clip-path="url(#clip310)" d="
M0 600 L1400 600 L1400 0 L0 0  Z
  " fill="#ffffff" fill-rule="evenodd" fill-opacity="1"/>
<defs>
  <clipPath id="clip311">
    <rect x="280" y="0" width="981" height="600"/>
  </clipPath>
</defs>
<path clip-path="url(#clip310)" d="
M201.094 503.236 L1194.88 503.236 L1194.88 47.2441 L201.094 47.2441  Z
  " fill="#ffffff" fill-rule="evenodd" fill-opacity="1"/>
<defs>
  <clipPath id="clip312">
    <rect x="201" y="47" width="995" height="457"/>
  </clipPath>
</defs>
<polyline clip-path="url(#clip310)" style="stroke:#000000; stroke-linecap:round; stroke-linejoin:round; stroke-width:4; stroke-opacity:1; fill:none" points="
  201.094,503.236 1194.88,503.236 
  "/>
<polyline clip-path="url(#clip310)" style="stroke:#000000; stroke-linecap:round; stroke-linejoin:round; stroke-width:4; stroke-opacity:1; fill:none" points="
  201.094,503.236 201.094,484.339 
  "/>
<polyline clip-path="url(#clip310)" style="stroke:#000000; stroke-linecap:round; stroke-linejoin:round; stroke-width:4; stroke-opacity:1; fill:none" points="
  530.162,503.236 530.162,484.339 
  "/>
<polyline clip-path="url(#clip310)" style="stroke:#000000; stroke-linecap:round; stroke-linejoin:round; stroke-width:4; stroke-opacity:1; fill:none" points="
  859.229,503.236 859.229,484.339 
  "/>
<polyline clip-path="url(#clip310)" style="stroke:#000000; stroke-linecap:round; stroke-linejoin:round; stroke-width:4; stroke-opacity:1; fill:none" points="
  1188.3,503.236 1188.3,484.339 
  "/>
<path clip-path="url(#clip310)" d="M201.094 529.085 Q196.581 529.085 194.295 533.541 Q192.038 537.968 192.038 546.88 Q192.038 555.763 194.295 560.219 Q196.581 564.646 201.094 564.646 Q205.637 564.646 207.894 560.219 Q210.18 555.763 210.18 546.88 Q210.18 537.968 207.894 533.541 Q205.637 529.085 201.094 529.085 M201.094 524.455 Q208.357 524.455 212.177 530.213 Q216.025 535.942 216.025 546.88 Q216.025 557.788 212.177 563.546 Q208.357 569.276 201.094 569.276 Q193.832 569.276 189.983 563.546 Q186.164 557.788 186.164 546.88 Q186.164 535.942 189.983 530.213 Q193.832 524.455 201.094 524.455 Z" fill="#000000" fill-rule="evenodd" fill-opacity="1" /><path clip-path="url(#clip310)" d="M498.536 525.236 L521.481 525.236 L521.481 530.155 L503.889 530.155 L503.889 540.746 Q505.162 540.312 506.435 540.109 Q507.708 539.878 508.981 539.878 Q516.215 539.878 520.44 543.842 Q524.664 547.806 524.664 554.577 Q524.664 561.55 520.324 565.427 Q515.984 569.276 508.084 569.276 Q505.365 569.276 502.529 568.813 Q499.722 568.35 496.713 567.424 L496.713 561.55 Q499.317 562.968 502.095 563.662 Q504.873 564.357 507.969 564.357 Q512.975 564.357 515.897 561.724 Q518.819 559.09 518.819 554.577 Q518.819 550.063 515.897 547.43 Q512.975 544.797 507.969 544.797 Q505.625 544.797 503.281 545.317 Q500.966 545.838 498.536 546.938 L498.536 525.236 Z" fill="#000000" fill-rule="evenodd" fill-opacity="1" /><path clip-path="url(#clip310)" d="M548.68 529.085 Q544.166 529.085 541.881 533.541 Q539.624 537.968 539.624 546.88 Q539.624 555.763 541.881 560.219 Q544.166 564.646 548.68 564.646 Q553.223 564.646 555.48 560.219 Q557.766 555.763 557.766 546.88 Q557.766 537.968 555.48 533.541 Q553.223 529.085 548.68 529.085 M548.68 524.455 Q555.943 524.455 559.762 530.213 Q563.611 535.942 563.611 546.88 Q563.611 557.788 559.762 563.546 Q555.943 569.276 548.68 569.276 Q541.418 569.276 537.569 563.546 Q533.75 557.788 533.75 546.88 Q533.75 535.942 537.569 530.213 Q541.418 524.455 548.68 524.455 Z" fill="#000000" fill-rule="evenodd" fill-opacity="1" /><path clip-path="url(#clip310)" d="M808.738 563.517 L818.286 563.517 L818.286 530.56 L807.899 532.644 L807.899 527.32 L818.228 525.236 L824.073 525.236 L824.073 563.517 L833.622 563.517 L833.622 568.436 L808.738 568.436 L808.738 563.517 Z" fill="#000000" fill-rule="evenodd" fill-opacity="1" /><path clip-path="url(#clip310)" d="M857.927 529.085 Q853.413 529.085 851.128 533.541 Q848.871 537.968 848.871 546.88 Q848.871 555.763 851.128 560.219 Q853.413 564.646 857.927 564.646 Q862.47 564.646 864.727 560.219 Q867.013 555.763 867.013 546.88 Q867.013 537.968 864.727 533.541 Q862.47 529.085 857.927 529.085 M857.927 524.455 Q865.19 524.455 869.009 530.213 Q872.858 535.942 872.858 546.88 Q872.858 557.788 869.009 563.546 Q865.19 569.276 857.927 569.276 Q850.665 569.276 846.816 563.546 Q842.997 557.788 842.997 546.88 Q842.997 535.942 846.816 530.213 Q850.665 524.455 857.927 524.455 Z" fill="#000000" fill-rule="evenodd" fill-opacity="1" /><path clip-path="url(#clip310)" d="M895.63 529.085 Q891.116 529.085 888.83 533.541 Q886.573 537.968 886.573 546.88 Q886.573 555.763 888.83 560.219 Q891.116 564.646 895.63 564.646 Q900.172 564.646 902.429 560.219 Q904.715 555.763 904.715 546.88 Q904.715 537.968 902.429 533.541 Q900.172 529.085 895.63 529.085 M895.63 524.455 Q902.892 524.455 906.712 530.213 Q910.56 535.942 910.56 546.88 Q910.56 557.788 906.712 563.546 Q902.892 569.276 895.63 569.276 Q888.367 569.276 884.519 563.546 Q880.699 557.788 880.699 546.88 Q880.699 535.942 884.519 530.213 Q888.367 524.455 895.63 524.455 Z" fill="#000000" fill-rule="evenodd" fill-opacity="1" /><path clip-path="url(#clip310)" d="M1137.81 563.517 L1147.35 563.517 L1147.35 530.56 L1136.97 532.644 L1136.97 527.32 L1147.3 525.236 L1153.14 525.236 L1153.14 563.517 L1162.69 563.517 L1162.69 568.436 L1137.81 568.436 L1137.81 563.517 Z" fill="#000000" fill-rule="evenodd" fill-opacity="1" /><path clip-path="url(#clip310)" d="M1174.55 525.236 L1197.5 525.236 L1197.5 530.155 L1179.91 530.155 L1179.91 540.746 Q1181.18 540.312 1182.45 540.109 Q1183.73 539.878 1185 539.878 Q1192.23 539.878 1196.46 543.842 Q1200.68 547.806 1200.68 554.577 Q1200.68 561.55 1196.34 565.427 Q1192 569.276 1184.1 569.276 Q1181.38 569.276 1178.55 568.813 Q1175.74 568.35 1172.73 567.424 L1172.73 561.55 Q1175.33 562.968 1178.11 563.662 Q1180.89 564.357 1183.99 564.357 Q1188.99 564.357 1191.91 561.724 Q1194.84 559.09 1194.84 554.577 Q1194.84 550.063 1191.91 547.43 Q1188.99 544.797 1183.99 544.797 Q1181.64 544.797 1179.3 545.317 Q1176.98 545.838 1174.55 546.938 L1174.55 525.236 Z" fill="#000000" fill-rule="evenodd" fill-opacity="1" /><path clip-path="url(#clip310)" d="M1224.7 529.085 Q1220.18 529.085 1217.9 533.541 Q1215.64 537.968 1215.64 546.88 Q1215.64 555.763 1217.9 560.219 Q1220.18 564.646 1224.7 564.646 Q1229.24 564.646 1231.5 560.219 Q1233.78 555.763 1233.78 546.88 Q1233.78 537.968 1231.5 533.541 Q1229.24 529.085 1224.7 529.085 M1224.7 524.455 Q1231.96 524.455 1235.78 530.213 Q1239.63 535.942 1239.63 546.88 Q1239.63 557.788 1235.78 563.546 Q1231.96 569.276 1224.7 569.276 Q1217.43 569.276 1213.59 563.546 Q1209.77 557.788 1209.77 546.88 Q1209.77 535.942 1213.59 530.213 Q1217.43 524.455 1224.7 524.455 Z" fill="#000000" fill-rule="evenodd" fill-opacity="1" /><polyline clip-path="url(#clip310)" style="stroke:#000000; stroke-linecap:round; stroke-linejoin:round; stroke-width:4; stroke-opacity:1; fill:none" points="
  201.094,503.236 201.094,47.2441 
  "/>
<polyline clip-path="url(#clip310)" style="stroke:#000000; stroke-linecap:round; stroke-linejoin:round; stroke-width:4; stroke-opacity:1; fill:none" points="
  201.094,489.913 219.992,489.913 
  "/>
<polyline clip-path="url(#clip310)" style="stroke:#000000; stroke-linecap:round; stroke-linejoin:round; stroke-width:4; stroke-opacity:1; fill:none" points="
  201.094,382.469 219.992,382.469 
  "/>
<polyline clip-path="url(#clip310)" style="stroke:#000000; stroke-linecap:round; stroke-linejoin:round; stroke-width:4; stroke-opacity:1; fill:none" points="
  201.094,275.025 219.992,275.025 
  "/>
<polyline clip-path="url(#clip310)" style="stroke:#000000; stroke-linecap:round; stroke-linejoin:round; stroke-width:4; stroke-opacity:1; fill:none" points="
  201.094,167.581 219.992,167.581 
  "/>
<polyline clip-path="url(#clip310)" style="stroke:#000000; stroke-linecap:round; stroke-linejoin:round; stroke-width:4; stroke-opacity:1; fill:none" points="
  201.094,60.1374 219.992,60.1374 
  "/>
<path clip-path="url(#clip310)" d="M70.9226 472.162 Q66.4087 472.162 64.1229 476.618 Q61.8659 481.045 61.8659 489.957 Q61.8659 498.84 64.1229 503.296 Q66.4087 507.723 70.9226 507.723 Q75.4654 507.723 77.7223 503.296 Q80.0082 498.84 80.0082 489.957 Q80.0082 481.045 77.7223 476.618 Q75.4654 472.162 70.9226 472.162 M70.9226 467.532 Q78.1853 467.532 82.0047 473.29 Q85.8531 479.019 85.8531 489.957 Q85.8531 500.865 82.0047 506.623 Q78.1853 512.353 70.9226 512.353 Q63.6599 512.353 59.8115 506.623 Q55.9921 500.865 55.9921 489.957 Q55.9921 479.019 59.8115 473.29 Q63.6599 467.532 70.9226 467.532 Z" fill="#000000" fill-rule="evenodd" fill-opacity="1" /><path clip-path="url(#clip310)" d="M96.125 504.164 L102.23 504.164 L102.23 511.513 L96.125 511.513 L96.125 504.164 Z" fill="#000000" fill-rule="evenodd" fill-opacity="1" /><path clip-path="url(#clip310)" d="M127.462 472.162 Q122.948 472.162 120.662 476.618 Q118.405 481.045 118.405 489.957 Q118.405 498.84 120.662 503.296 Q122.948 507.723 127.462 507.723 Q132.004 507.723 134.261 503.296 Q136.547 498.84 136.547 489.957 Q136.547 481.045 134.261 476.618 Q132.004 472.162 127.462 472.162 M127.462 467.532 Q134.724 467.532 138.544 473.29 Q142.392 479.019 142.392 489.957 Q142.392 500.865 138.544 506.623 Q134.724 512.353 127.462 512.353 Q120.199 512.353 116.351 506.623 Q112.531 500.865 112.531 489.957 Q112.531 479.019 116.351 473.29 Q120.199 467.532 127.462 467.532 Z" fill="#000000" fill-rule="evenodd" fill-opacity="1" /><path clip-path="url(#clip310)" d="M165.164 472.162 Q160.65 472.162 158.364 476.618 Q156.107 481.045 156.107 489.957 Q156.107 498.84 158.364 503.296 Q160.65 507.723 165.164 507.723 Q169.707 507.723 171.964 503.296 Q174.25 498.84 174.25 489.957 Q174.25 481.045 171.964 476.618 Q169.707 472.162 165.164 472.162 M165.164 467.532 Q172.427 467.532 176.246 473.29 Q180.094 479.019 180.094 489.957 Q180.094 500.865 176.246 506.623 Q172.427 512.353 165.164 512.353 Q157.901 512.353 154.053 506.623 Q150.234 500.865 150.234 489.957 Q150.234 479.019 154.053 473.29 Q157.901 467.532 165.164 467.532 Z" fill="#000000" fill-rule="evenodd" fill-opacity="1" /><path clip-path="url(#clip310)" d="M72.1668 364.718 Q67.6529 364.718 65.3671 369.174 Q63.1101 373.601 63.1101 382.513 Q63.1101 391.396 65.3671 395.852 Q67.6529 400.279 72.1668 400.279 Q76.7096 400.279 78.9665 395.852 Q81.2524 391.396 81.2524 382.513 Q81.2524 373.601 78.9665 369.174 Q76.7096 364.718 72.1668 364.718 M72.1668 360.088 Q79.4295 360.088 83.2489 365.846 Q87.0973 371.575 87.0973 382.513 Q87.0973 393.421 83.2489 399.179 Q79.4295 404.909 72.1668 404.909 Q64.9041 404.909 61.0558 399.179 Q57.2363 393.421 57.2363 382.513 Q57.2363 371.575 61.0558 365.846 Q64.9041 360.088 72.1668 360.088 Z" fill="#000000" fill-rule="evenodd" fill-opacity="1" /><path clip-path="url(#clip310)" d="M97.3692 396.72 L103.475 396.72 L103.475 404.069 L97.3692 404.069 L97.3692 396.72 Z" fill="#000000" fill-rule="evenodd" fill-opacity="1" /><path clip-path="url(#clip310)" d="M121.241 399.15 L141.64 399.15 L141.64 404.069 L114.209 404.069 L114.209 399.15 Q117.537 395.707 123.266 389.92 Q129.024 384.104 130.5 382.426 Q133.307 379.272 134.406 377.102 Q135.535 374.903 135.535 372.791 Q135.535 369.347 133.104 367.177 Q130.702 365.007 126.825 365.007 Q124.076 365.007 121.009 365.962 Q117.971 366.917 114.499 368.855 L114.499 362.953 Q118.029 361.535 121.096 360.812 Q124.163 360.088 126.709 360.088 Q133.422 360.088 137.415 363.445 Q141.408 366.801 141.408 372.414 Q141.408 375.076 140.396 377.478 Q139.412 379.851 136.779 383.091 Q136.055 383.931 132.178 387.953 Q128.301 391.946 121.241 399.15 Z" fill="#000000" fill-rule="evenodd" fill-opacity="1" /><path clip-path="url(#clip310)" d="M153.966 360.869 L176.912 360.869 L176.912 365.788 L159.319 365.788 L159.319 376.379 Q160.592 375.945 161.865 375.742 Q163.139 375.511 164.412 375.511 Q171.645 375.511 175.87 379.475 Q180.094 383.439 180.094 390.21 Q180.094 397.183 175.754 401.06 Q171.414 404.909 163.515 404.909 Q160.795 404.909 157.959 404.446 Q155.152 403.983 152.143 403.057 L152.143 397.183 Q154.747 398.601 157.525 399.295 Q160.303 399.99 163.399 399.99 Q168.405 399.99 171.327 397.356 Q174.25 394.723 174.25 390.21 Q174.25 385.696 171.327 383.063 Q168.405 380.429 163.399 380.429 Q161.055 380.429 158.711 380.95 Q156.397 381.471 153.966 382.571 L153.966 360.869 Z" fill="#000000" fill-rule="evenodd" fill-opacity="1" /><path clip-path="url(#clip310)" d="M70.9226 257.274 Q66.4087 257.274 64.1229 261.73 Q61.8659 266.157 61.8659 275.069 Q61.8659 283.952 64.1229 288.408 Q66.4087 292.835 70.9226 292.835 Q75.4654 292.835 77.7223 288.408 Q80.0082 283.952 80.0082 275.069 Q80.0082 266.157 77.7223 261.73 Q75.4654 257.274 70.9226 257.274 M70.9226 252.644 Q78.1853 252.644 82.0047 258.402 Q85.8531 264.131 85.8531 275.069 Q85.8531 285.977 82.0047 291.735 Q78.1853 297.464 70.9226 297.464 Q63.6599 297.464 59.8115 291.735 Q55.9921 285.977 55.9921 275.069 Q55.9921 264.131 59.8115 258.402 Q63.6599 252.644 70.9226 252.644 Z" fill="#000000" fill-rule="evenodd" fill-opacity="1" /><path clip-path="url(#clip310)" d="M96.125 289.276 L102.23 289.276 L102.23 296.625 L96.125 296.625 L96.125 289.276 Z" fill="#000000" fill-rule="evenodd" fill-opacity="1" /><path clip-path="url(#clip310)" d="M115.02 253.425 L137.965 253.425 L137.965 258.344 L120.373 258.344 L120.373 268.935 Q121.646 268.501 122.919 268.298 Q124.192 268.067 125.465 268.067 Q132.699 268.067 136.923 272.031 Q141.148 275.995 141.148 282.766 Q141.148 289.739 136.808 293.616 Q132.467 297.464 124.568 297.464 Q121.848 297.464 119.013 297.002 Q116.206 296.539 113.197 295.613 L113.197 289.739 Q115.801 291.157 118.579 291.851 Q121.356 292.546 124.452 292.546 Q129.458 292.546 132.381 289.912 Q135.303 287.279 135.303 282.766 Q135.303 278.252 132.381 275.619 Q129.458 272.985 124.452 272.985 Q122.109 272.985 119.765 273.506 Q117.45 274.027 115.02 275.127 L115.02 253.425 Z" fill="#000000" fill-rule="evenodd" fill-opacity="1" /><path clip-path="url(#clip310)" d="M165.164 257.274 Q160.65 257.274 158.364 261.73 Q156.107 266.157 156.107 275.069 Q156.107 283.952 158.364 288.408 Q160.65 292.835 165.164 292.835 Q169.707 292.835 171.964 288.408 Q174.25 283.952 174.25 275.069 Q174.25 266.157 171.964 261.73 Q169.707 257.274 165.164 257.274 M165.164 252.644 Q172.427 252.644 176.246 258.402 Q180.094 264.131 180.094 275.069 Q180.094 285.977 176.246 291.735 Q172.427 297.464 165.164 297.464 Q157.901 297.464 154.053 291.735 Q150.234 285.977 150.234 275.069 Q150.234 264.131 154.053 258.402 Q157.901 252.644 165.164 252.644 Z" fill="#000000" fill-rule="evenodd" fill-opacity="1" /><path clip-path="url(#clip310)" d="M72.1668 149.83 Q67.6529 149.83 65.3671 154.286 Q63.1101 158.713 63.1101 167.625 Q63.1101 176.508 65.3671 180.964 Q67.6529 185.391 72.1668 185.391 Q76.7096 185.391 78.9665 180.964 Q81.2524 176.508 81.2524 167.625 Q81.2524 158.713 78.9665 154.286 Q76.7096 149.83 72.1668 149.83 M72.1668 145.2 Q79.4295 145.2 83.2489 150.958 Q87.0973 156.687 87.0973 167.625 Q87.0973 178.533 83.2489 184.291 Q79.4295 190.02 72.1668 190.02 Q64.9041 190.02 61.0558 184.291 Q57.2363 178.533 57.2363 167.625 Q57.2363 156.687 61.0558 150.958 Q64.9041 145.2 72.1668 145.2 Z" fill="#000000" fill-rule="evenodd" fill-opacity="1" /><path clip-path="url(#clip310)" d="M97.3692 181.832 L103.475 181.832 L103.475 189.181 L97.3692 189.181 L97.3692 181.832 Z" fill="#000000" fill-rule="evenodd" fill-opacity="1" /><path clip-path="url(#clip310)" d="M114.73 145.981 L142.508 145.981 L142.508 148.47 L126.825 189.181 L120.72 189.181 L135.477 150.9 L114.73 150.9 L114.73 145.981 Z" fill="#000000" fill-rule="evenodd" fill-opacity="1" /><path clip-path="url(#clip310)" d="M153.966 145.981 L176.912 145.981 L176.912 150.9 L159.319 150.9 L159.319 161.491 Q160.592 161.057 161.865 160.854 Q163.139 160.623 164.412 160.623 Q171.645 160.623 175.87 164.587 Q180.094 168.551 180.094 175.321 Q180.094 182.295 175.754 186.172 Q171.414 190.02 163.515 190.02 Q160.795 190.02 157.959 189.558 Q155.152 189.095 152.143 188.169 L152.143 182.295 Q154.747 183.713 157.525 184.407 Q160.303 185.102 163.399 185.102 Q168.405 185.102 171.327 182.468 Q174.25 179.835 174.25 175.321 Q174.25 170.808 171.327 168.175 Q168.405 165.541 163.399 165.541 Q161.055 165.541 158.711 166.062 Q156.397 166.583 153.966 167.683 L153.966 145.981 Z" fill="#000000" fill-rule="evenodd" fill-opacity="1" /><path clip-path="url(#clip310)" d="M59.4354 76.8184 L68.984 76.8184 L68.984 43.8614 L58.5963 45.9447 L58.5963 40.6207 L68.9261 38.5374 L74.771 38.5374 L74.771 76.8184 L84.3195 76.8184 L84.3195 81.7374 L59.4354 81.7374 L59.4354 76.8184 Z" fill="#000000" fill-rule="evenodd" fill-opacity="1" /><path clip-path="url(#clip310)" d="M96.125 74.3879 L102.23 74.3879 L102.23 81.7374 L96.125 81.7374 L96.125 74.3879 Z" fill="#000000" fill-rule="evenodd" fill-opacity="1" /><path clip-path="url(#clip310)" d="M127.462 42.3857 Q122.948 42.3857 120.662 46.8417 Q118.405 51.2688 118.405 60.1808 Q118.405 69.0638 120.662 73.5198 Q122.948 77.9469 127.462 77.9469 Q132.004 77.9469 134.261 73.5198 Q136.547 69.0638 136.547 60.1808 Q136.547 51.2688 134.261 46.8417 Q132.004 42.3857 127.462 42.3857 M127.462 37.7561 Q134.724 37.7561 138.544 43.5142 Q142.392 49.2433 142.392 60.1808 Q142.392 71.0893 138.544 76.8474 Q134.724 82.5765 127.462 82.5765 Q120.199 82.5765 116.351 76.8474 Q112.531 71.0893 112.531 60.1808 Q112.531 49.2433 116.351 43.5142 Q120.199 37.7561 127.462 37.7561 Z" fill="#000000" fill-rule="evenodd" fill-opacity="1" /><path clip-path="url(#clip310)" d="M165.164 42.3857 Q160.65 42.3857 158.364 46.8417 Q156.107 51.2688 156.107 60.1808 Q156.107 69.0638 158.364 73.5198 Q160.65 77.9469 165.164 77.9469 Q169.707 77.9469 171.964 73.5198 Q174.25 69.0638 174.25 60.1808 Q174.25 51.2688 171.964 46.8417 Q169.707 42.3857 165.164 42.3857 M165.164 37.7561 Q172.427 37.7561 176.246 43.5142 Q180.094 49.2433 180.094 60.1808 Q180.094 71.0893 176.246 76.8474 Q172.427 82.5765 165.164 82.5765 Q157.901 82.5765 154.053 76.8474 Q150.234 71.0893 150.234 60.1808 Q150.234 49.2433 154.053 43.5142 Q157.901 37.7561 165.164 37.7561 Z" fill="#000000" fill-rule="evenodd" fill-opacity="1" /><polyline clip-path="url(#clip312)" style="stroke:#ff00ff; stroke-linecap:round; stroke-linejoin:round; stroke-width:16; stroke-opacity:1; fill:none" points="
  207.676,275.133 214.257,275.219 220.839,275.372 227.42,275.645 234.001,276.127 240.583,276.975 247.164,278.461 253.745,281.04 260.327,285.454 266.908,292.817 
  273.489,304.601 280.071,322.258 286.652,346.269 293.233,374.939 299.815,404.289 306.396,429.927 312.977,449.311 319.559,462.244 326.14,469.793 332.721,473.114 
  339.303,472.92 345.884,469.769 352.465,464.921 359.047,460.189 365.628,456.604 372.21,454.229 378.791,452.769 385.372,451.913 391.954,451.424 398.535,451.15 
  405.116,450.996 411.698,450.911 418.279,450.863 424.86,450.836 431.442,450.82 438.023,450.811 444.604,450.806 451.186,450.802 457.767,450.799 464.348,450.797 
  470.93,450.795 477.511,450.793 484.092,450.792 490.674,450.79 497.255,450.788 503.837,450.786 510.418,450.784 516.999,450.782 523.581,450.78 530.162,450.778 
  536.743,450.775 543.325,450.773 549.906,450.77 556.487,450.767 563.069,450.764 569.65,450.761 576.231,450.758 582.813,450.754 589.394,450.751 595.975,450.747 
  602.557,450.742 609.138,450.738 615.719,450.733 622.301,450.728 628.882,450.722 635.463,450.716 642.045,450.71 648.626,450.703 655.208,450.696 661.789,450.688 
  668.37,450.679 674.952,450.67 681.533,450.66 688.114,450.649 694.696,450.637 701.277,450.624 707.858,450.61 714.44,450.595 721.021,450.578 727.602,450.559 
  734.184,450.538 740.765,450.516 747.346,450.49 753.928,450.462 760.509,450.431 767.09,450.396 773.672,450.357 780.253,450.312 786.835,450.262 793.416,450.204 
  799.997,450.139 806.579,450.063 813.16,449.977 819.741,449.876 826.323,449.759 832.904,449.621 839.485,449.459 846.067,449.266 852.648,449.035 859.229,448.758 
  865.811,448.421 872.392,448.01 878.973,447.504 885.555,446.877 892.136,446.094 898.717,445.109 905.299,443.866 911.88,442.287 918.461,440.281 925.043,437.733 
  931.624,434.512 938.206,430.48 944.787,425.509 951.368,419.507 957.95,412.458 964.531,404.443 971.112,395.654 977.694,386.377 984.275,376.942 990.856,367.674 
  997.438,358.843 1004.02,350.64 1010.6,343.173 1017.18,336.481 1023.76,330.548 1030.34,325.325 1036.93,320.748 1043.51,316.744 1050.09,313.241 1056.67,310.171 
  1063.25,307.476 1069.83,305.101 1076.41,303.002 1083,301.14 1089.58,299.481 1096.16,297.997 1102.74,296.666 1109.32,295.465 1115.9,294.38 1122.48,293.394 
  1129.06,292.497 1135.65,291.676 1142.23,290.924 1148.81,290.233 1155.39,289.596 1161.97,289.007 1168.55,288.461 1175.13,287.953 1181.72,287.481 1188.3,287.041 
  1194.88,286.629 
  "/>
<polyline clip-path="url(#clip312)" style="stroke:#2000d4; stroke-linecap:round; stroke-linejoin:round; stroke-width:16; stroke-opacity:1; fill:none" stroke-dasharray="8, 16" points="
  207.676,489.913 214.257,489.913 220.839,489.913 227.42,489.913 234.001,489.913 240.583,489.913 247.164,489.913 253.745,489.913 260.327,489.913 266.908,489.913 
  273.489,489.912 280.071,489.912 286.652,489.911 293.233,489.91 299.815,489.909 306.396,489.908 312.977,489.907 319.559,489.907 326.14,489.906 332.721,489.905 
  339.303,489.905 345.884,489.904 352.465,489.904 359.047,489.904 365.628,489.903 372.21,489.903 378.791,489.902 385.372,489.902 391.954,489.901 398.535,489.901 
  405.116,489.901 411.698,489.9 418.279,489.9 424.86,489.899 431.442,489.899 438.023,489.899 444.604,489.898 451.186,489.898 457.767,489.897 464.348,489.897 
  470.93,489.896 477.511,489.896 484.092,489.896 490.674,489.895 497.255,489.895 503.837,489.894 510.418,489.894 516.999,489.893 523.581,489.893 530.162,489.893 
  536.743,489.892 543.325,489.892 549.906,489.891 556.487,489.891 563.069,489.89 569.65,489.89 576.231,489.89 582.813,489.889 589.394,489.889 595.975,489.888 
  602.557,489.888 609.138,489.887 615.719,489.887 622.301,489.887 628.882,489.886 635.463,489.886 642.045,489.885 648.626,489.885 655.208,489.884 661.789,489.884 
  668.37,489.884 674.952,489.883 681.533,489.883 688.114,489.882 694.696,489.882 701.277,489.882 707.858,489.881 714.44,489.881 721.021,489.88 727.602,489.88 
  734.184,489.879 740.765,489.879 747.346,489.879 753.928,489.878 760.509,489.878 767.09,489.877 773.672,489.877 780.253,489.876 786.835,489.876 793.416,489.876 
  799.997,489.875 806.579,489.875 813.16,489.874 819.741,489.874 826.323,489.873 832.904,489.873 839.485,489.873 846.067,489.872 852.648,489.872 859.229,489.871 
  865.811,489.871 872.392,489.87 878.973,489.87 885.555,489.87 892.136,489.869 898.717,489.869 905.299,489.868 911.88,489.868 918.461,489.867 925.043,489.867 
  931.624,489.867 938.206,489.866 944.787,489.866 951.368,489.865 957.95,489.865 964.531,489.865 971.112,489.864 977.694,489.864 984.275,489.863 990.856,489.863 
  997.438,489.862 1004.02,489.862 1010.6,489.862 1017.18,489.861 1023.76,489.861 1030.34,489.86 1036.93,489.86 1043.51,489.859 1050.09,489.859 1056.67,489.859 
  1063.25,489.858 1069.83,489.858 1076.41,489.857 1083,489.857 1089.58,489.856 1096.16,489.856 1102.74,489.856 1109.32,489.855 1115.9,489.855 1122.48,489.854 
  1129.06,489.854 1135.65,489.853 1142.23,489.853 1148.81,489.853 1155.39,489.852 1161.97,489.852 1168.55,489.851 1175.13,489.851 1181.72,489.85 1188.3,489.85 
  1194.88,489.85 
  "/>
<polyline clip-path="url(#clip312)" style="stroke:#008900; stroke-linecap:round; stroke-linejoin:round; stroke-width:16; stroke-opacity:1; fill:none" stroke-dasharray="64, 40" points="
  207.676,489.913 214.257,489.913 220.839,489.913 227.42,489.913 234.001,489.912 240.583,489.911 247.164,489.91 253.745,489.907 260.327,489.901 266.908,489.893 
  273.489,489.879 280.071,489.857 286.652,489.828 293.233,489.79 299.815,489.746 306.396,489.698 312.977,489.64 319.559,489.559 326.14,489.432 332.721,489.222 
  339.303,488.885 345.884,488.397 352.465,487.776 359.047,487.067 365.628,486.331 372.21,485.642 378.791,485.055 385.372,484.594 391.954,484.25 398.535,483.998 
  405.116,483.809 411.698,483.66 418.279,483.535 424.86,483.422 431.442,483.315 438.023,483.21 444.604,483.105 451.186,482.999 457.767,482.891 464.348,482.78 
  470.93,482.666 477.511,482.548 484.092,482.427 490.674,482.302 497.255,482.173 503.837,482.04 510.418,481.902 516.999,481.76 523.581,481.612 530.162,481.46 
  536.743,481.302 543.325,481.138 549.906,480.968 556.487,480.792 563.069,480.609 569.65,480.419 576.231,480.222 582.813,480.016 589.394,479.802 595.975,479.579 
  602.557,479.347 609.138,479.104 615.719,478.851 622.301,478.586 628.882,478.309 635.463,478.018 642.045,477.714 648.626,477.395 655.208,477.059 661.789,476.707 
  668.37,476.335 674.952,475.944 681.533,475.531 688.114,475.094 694.696,474.633 701.277,474.143 707.858,473.624 714.44,473.072 721.021,472.485 727.602,471.858 
  734.184,471.189 740.765,470.473 747.346,469.705 753.928,468.88 760.509,467.992 767.09,467.033 773.672,465.996 780.253,464.871 786.835,463.648 793.416,462.314 
  799.997,460.855 806.579,459.255 813.16,457.494 819.741,455.549 826.323,453.394 832.904,450.997 839.485,448.32 846.067,445.319 852.648,441.941 859.229,438.122 
  865.811,433.788 872.392,428.848 878.973,423.198 885.555,416.711 892.136,409.244 898.717,400.634 905.299,390.703 911.88,379.265 918.461,366.146 925.043,351.212 
  931.624,334.405 938.206,315.79 944.787,295.603 951.368,274.268 957.95,252.385 964.531,230.657 971.112,209.793 977.694,190.395 984.275,172.882 990.856,157.462 
  997.438,144.156 1004.02,132.843 1010.6,123.319 1017.18,115.347 1023.76,108.688 1030.34,103.121 1036.93,98.454 1043.51,94.524 1050.09,91.1967 1056.67,88.3627 
  1063.25,85.9336 1069.83,83.8382 1076.41,82.0191 1083,80.43 1089.58,79.0337 1096.16,77.7998 1102.74,76.7036 1109.32,75.7247 1115.9,74.8465 1122.48,74.055 
  1129.06,73.3387 1135.65,72.6879 1142.23,72.0945 1148.81,71.5515 1155.39,71.053 1161.97,70.594 1168.55,70.1702 1175.13,69.7778 1181.72,69.4135 1188.3,69.0746 
  1194.88,68.7585 
  "/>
<polyline clip-path="url(#clip312)" style="stroke:#008900; stroke-linecap:round; stroke-linejoin:round; stroke-width:16; stroke-opacity:1; fill:none" stroke-dasharray="8, 16" points="
  207.676,489.913 214.257,489.913 220.839,489.913 227.42,489.913 234.001,489.912 240.583,489.912 247.164,489.91 253.745,489.908 260.327,489.903 266.908,489.896 
  273.489,489.885 280.071,489.867 286.652,489.844 293.233,489.816 299.815,489.786 306.396,489.759 312.977,489.736 319.559,489.717 326.14,489.697 332.721,489.673 
  339.303,489.642 345.884,489.605 352.465,489.57 359.047,489.541 365.628,489.519 372.21,489.504 378.791,489.495 385.372,489.488 391.954,489.485 398.535,489.482 
  405.116,489.481 411.698,489.48 418.279,489.479 424.86,489.478 431.442,489.478 438.023,489.477 444.604,489.477 451.186,489.476 457.767,489.476 464.348,489.476 
  470.93,489.475 477.511,489.475 484.092,489.474 490.674,489.474 497.255,489.473 503.837,489.473 510.418,489.473 516.999,489.472 523.581,489.472 530.162,489.471 
  536.743,489.471 543.325,489.47 549.906,489.47 556.487,489.47 563.069,489.469 569.65,489.469 576.231,489.468 582.813,489.468 589.394,489.467 595.975,489.467 
  602.557,489.467 609.138,489.466 615.719,489.466 622.301,489.465 628.882,489.465 635.463,489.464 642.045,489.464 648.626,489.464 655.208,489.463 661.789,489.463 
  668.37,489.462 674.952,489.462 681.533,489.461 688.114,489.461 694.696,489.461 701.277,489.46 707.858,489.46 714.44,489.459 721.021,489.459 727.602,489.458 
  734.184,489.458 740.765,489.458 747.346,489.457 753.928,489.457 760.509,489.456 767.09,489.456 773.672,489.455 780.253,489.455 786.835,489.455 793.416,489.454 
  799.997,489.454 806.579,489.453 813.16,489.453 819.741,489.452 826.323,489.452 832.904,489.452 839.485,489.451 846.067,489.451 852.648,489.45 859.229,489.45 
  865.811,489.449 872.392,489.449 878.973,489.449 885.555,489.448 892.136,489.448 898.717,489.447 905.299,489.447 911.88,489.446 918.461,489.446 925.043,489.446 
  931.624,489.445 938.206,489.445 944.787,489.444 951.368,489.444 957.95,489.444 964.531,489.443 971.112,489.443 977.694,489.442 984.275,489.442 990.856,489.442 
  997.438,489.441 1004.02,489.441 1010.6,489.44 1017.18,489.44 1023.76,489.439 1030.34,489.439 1036.93,489.439 1043.51,489.438 1050.09,489.438 1056.67,489.437 
  1063.25,489.437 1069.83,489.436 1076.41,489.436 1083,489.436 1089.58,489.435 1096.16,489.435 1102.74,489.434 1109.32,489.434 1115.9,489.433 1122.48,489.433 
  1129.06,489.433 1135.65,489.432 1142.23,489.432 1148.81,489.431 1155.39,489.431 1161.97,489.43 1168.55,489.43 1175.13,489.43 1181.72,489.429 1188.3,489.429 
  1194.88,489.428 
  "/>
<polyline clip-path="url(#clip312)" style="stroke:#2000d4; stroke-linecap:round; stroke-linejoin:round; stroke-width:16; stroke-opacity:1; fill:none" points="
  207.676,489.484 214.257,489.133 220.839,488.514 227.42,487.42 234.001,485.496 240.583,482.132 247.164,476.304 253.745,466.37 260.327,449.902 266.908,423.818 
  273.489,385.342 280.071,334.159 286.652,274.685 293.233,215.532 299.815,165.135 306.396,127.561 312.977,102.248 319.559,86.3486 326.14,76.817 332.721,71.2903 
  339.303,68.1845 345.884,66.5041 352.465,65.6316 359.047,65.1931 365.628,64.9788 372.21,64.878 378.791,64.8327 385.372,64.8131 391.954,64.8049 398.535,64.8016 
  405.116,64.8005 411.698,64.8004 418.279,64.8007 424.86,64.8012 431.442,64.8019 438.023,64.8026 444.604,64.8034 451.186,64.8042 457.767,64.8051 464.348,64.8059 
  470.93,64.8067 477.511,64.8076 484.092,64.8084 490.674,64.8093 497.255,64.8101 503.837,64.811 510.418,64.8118 516.999,64.8127 523.581,64.8135 530.162,64.8144 
  536.743,64.8152 543.325,64.8161 549.906,64.8169 556.487,64.8178 563.069,64.8186 569.65,64.8195 576.231,64.8203 582.813,64.8212 589.394,64.822 595.975,64.8229 
  602.557,64.8237 609.138,64.8246 615.719,64.8254 622.301,64.8263 628.882,64.8271 635.463,64.828 642.045,64.8288 648.626,64.8297 655.208,64.8305 661.789,64.8314 
  668.37,64.8322 674.952,64.8331 681.533,64.8339 688.114,64.8348 694.696,64.8356 701.277,64.8365 707.858,64.8373 714.44,64.8382 721.021,64.839 727.602,64.8399 
  734.184,64.8407 740.765,64.8416 747.346,64.8424 753.928,64.8433 760.509,64.8441 767.09,64.845 773.672,64.8458 780.253,64.8467 786.835,64.8475 793.416,64.8484 
  799.997,64.8492 806.579,64.8501 813.16,64.8509 819.741,64.8518 826.323,64.8526 832.904,64.8535 839.485,64.8543 846.067,64.8552 852.648,64.856 859.229,64.8569 
  865.811,64.8577 872.392,64.8586 878.973,64.8594 885.555,64.8603 892.136,64.8611 898.717,64.862 905.299,64.8628 911.88,64.8637 918.461,64.8645 925.043,64.8654 
  931.624,64.8662 938.206,64.8671 944.787,64.8679 951.368,64.8688 957.95,64.8696 964.531,64.8705 971.112,64.8713 977.694,64.8722 984.275,64.873 990.856,64.8739 
  997.438,64.8747 1004.02,64.8756 1010.6,64.8764 1017.18,64.8773 1023.76,64.8781 1030.34,64.879 1036.93,64.8798 1043.51,64.8807 1050.09,64.8815 1056.67,64.8824 
  1063.25,64.8832 1069.83,64.8841 1076.41,64.8849 1083,64.8858 1089.58,64.8866 1096.16,64.8875 1102.74,64.8883 1109.32,64.8892 1115.9,64.89 1122.48,64.8909 
  1129.06,64.8917 1135.65,64.8926 1142.23,64.8934 1148.81,64.8943 1155.39,64.8951 1161.97,64.896 1168.55,64.8968 1175.13,64.8977 1181.72,64.8985 1188.3,64.8994 
  1194.88,64.9002 
  "/>
<polyline clip-path="url(#clip312)" style="stroke:#008900; stroke-linecap:round; stroke-linejoin:round; stroke-width:16; stroke-opacity:1; fill:none" points="
  207.676,489.699 214.257,489.534 220.839,489.24 227.42,488.721 234.001,487.808 240.583,486.211 247.164,483.445 253.745,478.729 260.327,470.909 266.908,458.515 
  273.489,440.213 280.071,415.814 286.652,387.334 293.233,358.717 299.815,333.725 306.396,313.883 312.977,298.222 319.559,284.174 326.14,268.307 332.721,246.862 
  339.303,217.502 345.884,182.667 352.465,149.036 359.047,121.512 365.628,101.196 372.21,87.3681 378.791,78.6319 385.372,73.4343 391.954,70.4751 398.535,68.8462 
  405.116,67.9786 411.698,67.5384 418.279,67.3362 424.86,67.2668 431.442,67.272 438.023,67.3198 444.604,67.3926 451.186,67.4806 457.767,67.5786 464.348,67.6836 
  470.93,67.7941 477.511,67.9094 484.092,68.029 490.674,68.1528 497.255,68.2808 503.837,68.4131 510.418,68.55 516.999,68.6915 523.581,68.8379 530.162,68.9895 
  536.743,69.1464 543.325,69.309 549.906,69.4776 556.487,69.6524 563.069,69.834 569.65,70.0225 576.231,70.2185 582.813,70.4224 589.394,70.6346 595.975,70.8556 
  602.557,71.086 609.138,71.3264 615.719,71.5774 622.301,71.8397 628.882,72.114 635.463,72.4013 642.045,72.7023 648.626,73.0181 655.208,73.3497 661.789,73.6982 
  668.37,74.0651 674.952,74.4516 681.533,74.8594 688.114,75.2901 694.696,75.7456 701.277,76.2281 707.858,76.7399 714.44,77.2836 721.021,77.8621 727.602,78.4786 
  734.184,79.1368 740.765,79.8408 747.346,80.5953 753.928,81.4055 760.509,82.2773 767.09,83.2176 773.672,84.2341 780.253,85.3357 786.835,86.5325 793.416,87.8365 
  799.997,89.2613 806.579,90.8227 813.16,92.5393 819.741,94.4328 826.323,96.5287 832.904,98.857 839.485,101.453 846.067,104.359 852.648,107.625 859.229,111.311 
  865.811,115.486 872.392,120.233 878.973,125.653 885.555,131.858 892.136,138.982 898.717,147.172 905.299,156.591 911.88,167.402 918.461,179.757 925.043,193.771 
  931.624,209.486 938.206,226.83 944.787,245.584 951.368,265.364 957.95,285.644 964.531,305.817 971.112,325.281 977.694,343.533 984.275,360.22 990.856,375.158 
  997.438,388.315 1004.02,399.766 1010.6,409.655 1017.18,418.158 1023.76,425.456 1030.34,431.723 1036.93,437.115 1043.51,441.769 1050.09,445.801 1056.67,449.31 
  1063.25,452.378 1069.83,455.073 1076.41,457.452 1083,459.561 1089.58,461.441 1096.16,463.123 1102.74,464.634 1109.32,465.998 1115.9,467.234 1122.48,468.357 
  1129.06,469.382 1135.65,470.32 1142.23,471.181 1148.81,471.974 1155.39,472.707 1161.97,473.385 1168.55,474.014 1175.13,474.6 1181.72,475.146 1188.3,475.656 
  1194.88,476.133 
  "/>
<polyline clip-path="url(#clip312)" style="stroke:#7f7f7f; stroke-linecap:round; stroke-linejoin:round; stroke-width:16; stroke-opacity:1; fill:none" points="
  207.676,60.1374 214.257,65.7609 220.839,69.4785 227.42,71.7226 234.001,73.063 240.583,73.9051 247.164,74.5188 253.745,75.1049 260.327,75.8566 266.908,77.0198 
  273.489,78.968 280.071,82.3047 286.652,87.9998 293.233,97.5316 299.815,112.917 306.396,136.369 312.977,169.315 319.559,211.038 326.14,258.134 332.721,305.685 
  339.303,349.043 345.884,384.929 352.465,412.711 359.047,434.583 365.628,452.568 372.21,466.654 378.791,476.424 385.372,482.426 391.954,485.815 398.535,487.653 
  405.116,488.645 411.698,489.191 418.279,489.498 424.86,489.673 431.442,489.774 438.023,489.833 444.604,489.867 451.186,489.887 457.767,489.898 464.348,489.905 
  470.93,489.908 477.511,489.911 484.092,489.912 490.674,489.912 497.255,489.913 503.837,489.913 510.418,489.913 516.999,489.913 523.581,489.913 530.162,489.913 
  536.743,489.913 543.325,489.913 549.906,489.913 556.487,489.913 563.069,489.913 569.65,489.913 576.231,489.913 582.813,489.913 589.394,489.913 595.975,489.913 
  602.557,489.913 609.138,489.913 615.719,489.913 622.301,489.913 628.882,489.913 635.463,489.913 642.045,489.913 648.626,489.913 655.208,489.913 661.789,489.913 
  668.37,489.913 674.952,489.913 681.533,489.913 688.114,489.913 694.696,489.913 701.277,489.913 707.858,489.913 714.44,489.913 721.021,489.913 727.602,489.913 
  734.184,489.913 740.765,489.913 747.346,489.913 753.928,489.913 760.509,489.913 767.09,489.913 773.672,489.913 780.253,489.913 786.835,489.913 793.416,489.913 
  799.997,489.913 806.579,489.913 813.16,489.913 819.741,489.913 826.323,489.913 832.904,489.913 839.485,489.913 846.067,489.913 852.648,489.913 859.229,489.913 
  865.811,489.913 872.392,489.913 878.973,489.913 885.555,489.913 892.136,489.913 898.717,489.913 905.299,489.913 911.88,489.913 918.461,489.913 925.043,489.913 
  931.624,489.913 938.206,489.913 944.787,489.913 951.368,489.913 957.95,489.913 964.531,489.913 971.112,489.913 977.694,489.913 984.275,489.913 990.856,489.913 
  997.438,489.913 1004.02,489.913 1010.6,489.913 1017.18,489.913 1023.76,489.913 1030.34,489.913 1036.93,489.913 1043.51,489.913 1050.09,489.913 1056.67,489.913 
  1063.25,489.913 1069.83,489.913 1076.41,489.913 1083,489.913 1089.58,489.913 1096.16,489.913 1102.74,489.913 1109.32,489.913 1115.9,489.913 1122.48,489.913 
  1129.06,489.913 1135.65,489.913 1142.23,489.913 1148.81,489.913 1155.39,489.913 1161.97,489.913 1168.55,489.913 1175.13,489.913 1181.72,489.913 1188.3,489.913 
  1194.88,489.913 
  "/>
<polyline clip-path="url(#clip312)" style="stroke:#895f55; stroke-linecap:round; stroke-linejoin:round; stroke-width:16; stroke-opacity:1; fill:none" points="
  207.676,489.913 214.257,489.492 220.839,489.149 227.42,488.54 234.001,487.464 240.583,485.571 247.164,482.261 253.745,476.526 260.327,466.751 266.908,450.548 
  273.489,424.884 280.071,387.034 286.652,336.697 293.233,278.239 299.815,220.173 306.396,170.867 312.977,134.435 319.559,110.537 326.14,96.7694 332.721,90.849 
  339.303,91.5078 345.884,97.9122 352.465,107.886 359.047,117.875 365.628,125.605 372.21,130.794 378.791,134.005 385.372,135.897 391.954,136.98 398.535,137.589 
  405.116,137.929 411.698,138.119 418.279,138.225 424.86,138.285 431.442,138.319 438.023,138.339 444.604,138.352 451.186,138.36 457.767,138.365 464.348,138.37 
  470.93,138.374 477.511,138.377 484.092,138.381 490.674,138.384 497.255,138.388 503.837,138.392 510.418,138.395 516.999,138.4 523.581,138.404 530.162,138.409 
  536.743,138.413 543.325,138.418 549.906,138.424 556.487,138.429 563.069,138.435 569.65,138.442 576.231,138.448 582.813,138.455 589.394,138.463 595.975,138.471 
  602.557,138.48 609.138,138.489 615.719,138.498 622.301,138.509 628.882,138.52 635.463,138.532 642.045,138.544 648.626,138.558 655.208,138.573 661.789,138.589 
  668.37,138.606 674.952,138.624 681.533,138.644 688.114,138.666 694.696,138.69 701.277,138.716 707.858,138.744 714.44,138.775 721.021,138.809 727.602,138.846 
  734.184,138.887 740.765,138.933 747.346,138.983 753.928,139.039 760.509,139.102 767.09,139.172 773.672,139.251 780.253,139.34 786.835,139.441 793.416,139.556 
  799.997,139.687 806.579,139.837 813.16,140.011 819.741,140.212 826.323,140.447 832.904,140.722 839.485,141.047 846.067,141.432 852.648,141.894 859.229,142.449 
  865.811,143.122 872.392,143.944 878.973,144.956 885.555,146.211 892.136,147.777 898.717,149.746 905.299,152.233 911.88,155.39 918.461,159.402 925.043,164.498 
  931.624,170.94 938.206,179.004 944.787,188.947 951.368,200.949 957.95,215.048 964.531,231.079 971.112,248.655 977.694,267.21 984.275,286.08 990.856,304.617 
  997.438,322.279 1004.02,338.685 1010.6,353.618 1017.18,367.002 1023.76,378.869 1030.34,389.313 1036.93,398.467 1043.51,406.476 1050.09,413.483 1056.67,419.622 
  1063.25,425.013 1069.83,429.762 1076.41,433.96 1083,437.684 1089.58,441.002 1096.16,443.969 1102.74,446.633 1109.32,449.033 1115.9,451.205 1122.48,453.176 
  1129.06,454.971 1135.65,456.612 1142.23,458.116 1148.81,459.498 1155.39,460.773 1161.97,461.951 1168.55,463.043 1175.13,464.057 1181.72,465.002 1188.3,465.883 
  1194.88,466.706 
  "/>
<polyline clip-path="url(#clip312)" style="stroke:#2000d4; stroke-linecap:round; stroke-linejoin:round; stroke-width:16; stroke-opacity:1; fill:none" stroke-dasharray="64, 40" points="
  207.676,489.913 214.257,489.913 220.839,489.913 227.42,489.913 234.001,489.913 240.583,489.913 247.164,489.913 253.745,489.913 260.327,489.913 266.908,489.913 
  273.489,489.913 280.071,489.913 286.652,489.913 293.233,489.912 299.815,489.912 306.396,489.912 312.977,489.912 319.559,489.912 326.14,489.912 332.721,489.912 
  339.303,489.912 345.884,489.912 352.465,489.911 359.047,489.911 365.628,489.911 372.21,489.91 378.791,489.91 385.372,489.91 391.954,489.909 398.535,489.909 
  405.116,489.908 411.698,489.908 418.279,489.907 424.86,489.907 431.442,489.907 438.023,489.906 444.604,489.906 451.186,489.905 457.767,489.905 464.348,489.904 
  470.93,489.904 477.511,489.904 484.092,489.903 490.674,489.903 497.255,489.902 503.837,489.902 510.418,489.901 516.999,489.901 523.581,489.901 530.162,489.9 
  536.743,489.9 543.325,489.899 549.906,489.899 556.487,489.898 563.069,489.898 569.65,489.898 576.231,489.897 582.813,489.897 589.394,489.896 595.975,489.896 
  602.557,489.896 609.138,489.895 615.719,489.895 622.301,489.894 628.882,489.894 635.463,489.893 642.045,489.893 648.626,489.893 655.208,489.892 661.789,489.892 
  668.37,489.891 674.952,489.891 681.533,489.89 688.114,489.89 694.696,489.89 701.277,489.889 707.858,489.889 714.44,489.888 721.021,489.888 727.602,489.887 
  734.184,489.887 740.765,489.887 747.346,489.886 753.928,489.886 760.509,489.885 767.09,489.885 773.672,489.884 780.253,489.884 786.835,489.884 793.416,489.883 
  799.997,489.883 806.579,489.882 813.16,489.882 819.741,489.881 826.323,489.881 832.904,489.881 839.485,489.88 846.067,489.88 852.648,489.879 859.229,489.879 
  865.811,489.879 872.392,489.878 878.973,489.878 885.555,489.877 892.136,489.877 898.717,489.876 905.299,489.876 911.88,489.876 918.461,489.875 925.043,489.875 
  931.624,489.874 938.206,489.874 944.787,489.873 951.368,489.873 957.95,489.873 964.531,489.872 971.112,489.872 977.694,489.871 984.275,489.871 990.856,489.87 
  997.438,489.87 1004.02,489.87 1010.6,489.869 1017.18,489.869 1023.76,489.868 1030.34,489.868 1036.93,489.867 1043.51,489.867 1050.09,489.867 1056.67,489.866 
  1063.25,489.866 1069.83,489.865 1076.41,489.865 1083,489.864 1089.58,489.864 1096.16,489.864 1102.74,489.863 1109.32,489.863 1115.9,489.862 1122.48,489.862 
  1129.06,489.862 1135.65,489.861 1142.23,489.861 1148.81,489.86 1155.39,489.86 1161.97,489.859 1168.55,489.859 1175.13,489.859 1181.72,489.858 1188.3,489.858 
  1194.88,489.857 
  "/>
<polyline clip-path="url(#clip312)" style="stroke:#ff221c; stroke-linecap:round; stroke-linejoin:round; stroke-width:16; stroke-opacity:1; fill:none" points="
  207.676,489.913 214.257,489.912 220.839,489.91 227.42,489.905 234.001,489.897 240.583,489.882 247.164,489.855 253.745,489.808 260.327,489.724 266.908,489.578 
  273.489,489.323 280.071,488.883 286.652,488.138 293.233,486.884 299.815,484.776 306.396,481.171 312.977,474.83 319.559,463.363 326.14,442.378 332.721,405.121 
  339.303,346.068 345.884,271.044 352.465,198.951 359.047,144.451 365.628,109.076 372.21,87.8917 378.791,75.6977 385.372,68.8122 391.954,64.9602 398.535,62.815 
  405.116,61.6229 411.698,60.9613 418.279,60.5942 424.86,60.3907 431.442,60.2778 438.023,60.2152 444.604,60.1805 451.186,60.1613 457.767,60.1506 464.348,60.1447 
  470.93,60.1415 477.511,60.1396 484.092,60.1386 490.674,60.1381 497.255,60.1378 503.837,60.1376 510.418,60.1375 516.999,60.1374 523.581,60.1374 530.162,60.1374 
  536.743,60.1374 543.325,60.1374 549.906,60.1374 556.487,60.1374 563.069,60.1374 569.65,60.1374 576.231,60.1374 582.813,60.1374 589.394,60.1374 595.975,60.1374 
  602.557,60.1374 609.138,60.1374 615.719,60.1374 622.301,60.1374 628.882,60.1374 635.463,60.1374 642.045,60.1374 648.626,60.1374 655.208,60.1374 661.789,60.1374 
  668.37,60.1374 674.952,60.1374 681.533,60.1374 688.114,60.1374 694.696,60.1374 701.277,60.1374 707.858,60.1374 714.44,60.1374 721.021,60.1374 727.602,60.1374 
  734.184,60.1374 740.765,60.1374 747.346,60.1374 753.928,60.1374 760.509,60.1374 767.09,60.1374 773.672,60.1374 780.253,60.1374 786.835,60.1374 793.416,60.1374 
  799.997,60.1374 806.579,60.1374 813.16,60.1374 819.741,60.1374 826.323,60.1374 832.904,60.1374 839.485,60.1374 846.067,60.1374 852.648,60.1374 859.229,60.1374 
  865.811,60.1374 872.392,60.1374 878.973,60.1374 885.555,60.1374 892.136,60.1374 898.717,60.1374 905.299,60.1374 911.88,60.1374 918.461,60.1374 925.043,60.1374 
  931.624,60.1374 938.206,60.1374 944.787,60.1374 951.368,60.1374 957.95,60.1374 964.531,60.1374 971.112,60.1374 977.694,60.1374 984.275,60.1374 990.856,60.1374 
  997.438,60.1374 1004.02,60.1374 1010.6,60.1374 1017.18,60.1374 1023.76,60.1374 1030.34,60.1374 1036.93,60.1374 1043.51,60.1374 1050.09,60.1374 1056.67,60.1374 
  1063.25,60.1374 1069.83,60.1374 1076.41,60.1374 1083,60.1374 1089.58,60.1374 1096.16,60.1374 1102.74,60.1374 1109.32,60.1374 1115.9,60.1374 1122.48,60.1374 
  1129.06,60.1374 1135.65,60.1374 1142.23,60.1374 1148.81,60.1374 1155.39,60.1374 1161.97,60.1374 1168.55,60.1374 1175.13,60.1374 1181.72,60.1374 1188.3,60.1374 
  1194.88,60.1374 
  "/>
<path clip-path="url(#clip310)" d="
M201.094 503.236 L1194.88 503.236 L1194.88 47.2441 L201.094 47.2441  Z
  " fill="#000000" fill-rule="evenodd" fill-opacity="0"/>
<polyline clip-path="url(#clip310)" style="stroke:#000000; stroke-linecap:round; stroke-linejoin:round; stroke-width:4; stroke-opacity:1; fill:none" points="
  1194.88,503.236 1194.88,47.2441 
  "/>
<polyline clip-path="url(#clip310)" style="stroke:#000000; stroke-linecap:round; stroke-linejoin:round; stroke-width:4; stroke-opacity:1; fill:none" points="
  1194.88,57.065 1175.98,57.065 
  "/>
<polyline clip-path="url(#clip310)" style="stroke:#000000; stroke-linecap:round; stroke-linejoin:round; stroke-width:4; stroke-opacity:1; fill:none" points="
  1194.88,168.608 1175.98,168.608 
  "/>
<polyline clip-path="url(#clip310)" style="stroke:#000000; stroke-linecap:round; stroke-linejoin:round; stroke-width:4; stroke-opacity:1; fill:none" points="
  1194.88,280.151 1175.98,280.151 
  "/>
<polyline clip-path="url(#clip310)" style="stroke:#000000; stroke-linecap:round; stroke-linejoin:round; stroke-width:4; stroke-opacity:1; fill:none" points="
  1194.88,391.694 1175.98,391.694 
  "/>
<polyline clip-path="url(#clip310)" style="stroke:#000000; stroke-linecap:round; stroke-linejoin:round; stroke-width:4; stroke-opacity:1; fill:none" points="
  1194.88,503.236 1175.98,503.236 
  "/>
<path clip-path="url(#clip310)" d="M1216.72 81.8055 L1226.27 81.8055 L1226.27 48.8485 L1215.88 50.9318 L1215.88 45.6078 L1226.21 43.5245 L1232.05 43.5245 L1232.05 81.8055 L1241.6 81.8055 L1241.6 86.7245 L1216.72 86.7245 L1216.72 81.8055 Z" fill="#000000" fill-rule="evenodd" fill-opacity="1" /><path clip-path="url(#clip310)" d="M1265.91 47.3728 Q1261.39 47.3728 1259.11 51.8288 Q1256.85 56.2559 1256.85 65.1679 Q1256.85 74.0509 1259.11 78.5069 Q1261.39 82.934 1265.91 82.934 Q1270.45 82.934 1272.71 78.5069 Q1274.99 74.0509 1274.99 65.1679 Q1274.99 56.2559 1272.71 51.8288 Q1270.45 47.3728 1265.91 47.3728 M1265.91 42.7432 Q1273.17 42.7432 1276.99 48.5013 Q1280.84 54.2304 1280.84 65.1679 Q1280.84 76.0764 1276.99 81.8344 Q1273.17 87.5636 1265.91 87.5636 Q1258.64 87.5636 1254.8 81.8344 Q1250.98 76.0764 1250.98 65.1679 Q1250.98 54.2304 1254.8 48.5013 Q1258.64 42.7432 1265.91 42.7432 Z" fill="#000000" fill-rule="evenodd" fill-opacity="1" /><path clip-path="url(#clip310)" d="M1292.97 20.4882 Q1289.3 20.4882 1287.44 24.1087 Q1285.61 27.7057 1285.61 34.9467 Q1285.61 42.1642 1287.44 45.7847 Q1289.3 49.3817 1292.97 49.3817 Q1296.66 49.3817 1298.49 45.7847 Q1300.35 42.1642 1300.35 34.9467 Q1300.35 27.7057 1298.49 24.1087 Q1296.66 20.4882 1292.97 20.4882 M1292.97 16.7267 Q1298.87 16.7267 1301.97 21.4051 Q1305.1 26.0601 1305.1 34.9467 Q1305.1 43.8099 1301.97 48.4883 Q1298.87 53.1432 1292.97 53.1432 Q1287.07 53.1432 1283.94 48.4883 Q1280.84 43.8099 1280.84 34.9467 Q1280.84 26.0601 1283.94 21.4051 Q1287.07 16.7267 1292.97 16.7267 Z" fill="#000000" fill-rule="evenodd" fill-opacity="1" /><path clip-path="url(#clip310)" d="M1216.72 193.348 L1226.27 193.348 L1226.27 160.391 L1215.88 162.475 L1215.88 157.151 L1226.21 155.067 L1232.05 155.067 L1232.05 193.348 L1241.6 193.348 L1241.6 198.267 L1216.72 198.267 L1216.72 193.348 Z" fill="#000000" fill-rule="evenodd" fill-opacity="1" /><path clip-path="url(#clip310)" d="M1265.91 158.916 Q1261.39 158.916 1259.11 163.372 Q1256.85 167.799 1256.85 176.711 Q1256.85 185.594 1259.11 190.05 Q1261.39 194.477 1265.91 194.477 Q1270.45 194.477 1272.71 190.05 Q1274.99 185.594 1274.99 176.711 Q1274.99 167.799 1272.71 163.372 Q1270.45 158.916 1265.91 158.916 M1265.91 154.286 Q1273.17 154.286 1276.99 160.044 Q1280.84 165.773 1280.84 176.711 Q1280.84 187.619 1276.99 193.377 Q1273.17 199.106 1265.91 199.106 Q1258.64 199.106 1254.8 193.377 Q1250.98 187.619 1250.98 176.711 Q1250.98 165.773 1254.8 160.044 Q1258.64 154.286 1265.91 154.286 Z" fill="#000000" fill-rule="evenodd" fill-opacity="1" /><path clip-path="url(#clip310)" d="M1280.84 146.913 L1310.98 146.913 L1310.98 150.909 L1280.84 150.909 L1280.84 146.913 Z" fill="#000000" fill-rule="evenodd" fill-opacity="1" /><path clip-path="url(#clip310)" d="M1325.32 160.008 L1341.89 160.008 L1341.89 164.004 L1319.6 164.004 L1319.6 160.008 Q1322.31 157.21 1326.96 152.508 Q1331.64 147.783 1332.84 146.419 Q1335.12 143.857 1336.01 142.093 Q1336.93 140.307 1336.93 138.59 Q1336.93 135.793 1334.96 134.029 Q1333.01 132.266 1329.86 132.266 Q1327.62 132.266 1325.13 133.042 Q1322.66 133.818 1319.84 135.393 L1319.84 130.597 Q1322.71 129.445 1325.2 128.857 Q1327.69 128.27 1329.76 128.27 Q1335.22 128.27 1338.46 130.997 Q1341.7 133.724 1341.7 138.285 Q1341.7 140.448 1340.88 142.399 Q1340.08 144.327 1337.94 146.96 Q1337.35 147.642 1334.2 150.909 Q1331.05 154.154 1325.32 160.008 Z" fill="#000000" fill-rule="evenodd" fill-opacity="1" /><path clip-path="url(#clip310)" d="M1216.72 304.891 L1226.27 304.891 L1226.27 271.934 L1215.88 274.018 L1215.88 268.694 L1226.21 266.61 L1232.05 266.61 L1232.05 304.891 L1241.6 304.891 L1241.6 309.81 L1216.72 309.81 L1216.72 304.891 Z" fill="#000000" fill-rule="evenodd" fill-opacity="1" /><path clip-path="url(#clip310)" d="M1265.91 270.459 Q1261.39 270.459 1259.11 274.915 Q1256.85 279.342 1256.85 288.254 Q1256.85 297.137 1259.11 301.593 Q1261.39 306.02 1265.91 306.02 Q1270.45 306.02 1272.71 301.593 Q1274.99 297.137 1274.99 288.254 Q1274.99 279.342 1272.71 274.915 Q1270.45 270.459 1265.91 270.459 M1265.91 265.829 Q1273.17 265.829 1276.99 271.587 Q1280.84 277.316 1280.84 288.254 Q1280.84 299.162 1276.99 304.92 Q1273.17 310.649 1265.91 310.649 Q1258.64 310.649 1254.8 304.92 Q1250.98 299.162 1250.98 288.254 Q1250.98 277.316 1254.8 271.587 Q1258.64 265.829 1265.91 265.829 Z" fill="#000000" fill-rule="evenodd" fill-opacity="1" /><path clip-path="url(#clip310)" d="M1280.84 258.456 L1310.98 258.456 L1310.98 262.452 L1280.84 262.452 L1280.84 258.456 Z" fill="#000000" fill-rule="evenodd" fill-opacity="1" /><path clip-path="url(#clip310)" d="M1334.27 244.585 L1322.28 263.322 L1334.27 263.322 L1334.27 244.585 M1333.03 240.447 L1339 240.447 L1339 263.322 L1344.01 263.322 L1344.01 267.272 L1339 267.272 L1339 275.547 L1334.27 275.547 L1334.27 267.272 L1318.43 267.272 L1318.43 262.687 L1333.03 240.447 Z" fill="#000000" fill-rule="evenodd" fill-opacity="1" /><path clip-path="url(#clip310)" d="M1216.72 416.434 L1226.27 416.434 L1226.27 383.477 L1215.88 385.56 L1215.88 380.236 L1226.21 378.153 L1232.05 378.153 L1232.05 416.434 L1241.6 416.434 L1241.6 421.353 L1216.72 421.353 L1216.72 416.434 Z" fill="#000000" fill-rule="evenodd" fill-opacity="1" /><path clip-path="url(#clip310)" d="M1265.91 382.001 Q1261.39 382.001 1259.11 386.457 Q1256.85 390.884 1256.85 399.796 Q1256.85 408.68 1259.11 413.136 Q1261.39 417.563 1265.91 417.563 Q1270.45 417.563 1272.71 413.136 Q1274.99 408.68 1274.99 399.796 Q1274.99 390.884 1272.71 386.457 Q1270.45 382.001 1265.91 382.001 M1265.91 377.372 Q1273.17 377.372 1276.99 383.13 Q1280.84 388.859 1280.84 399.796 Q1280.84 410.705 1276.99 416.463 Q1273.17 422.192 1265.91 422.192 Q1258.64 422.192 1254.8 416.463 Q1250.98 410.705 1250.98 399.796 Q1250.98 388.859 1254.8 383.13 Q1258.64 377.372 1265.91 377.372 Z" fill="#000000" fill-rule="evenodd" fill-opacity="1" /><path clip-path="url(#clip310)" d="M1280.84 369.999 L1310.98 369.999 L1310.98 373.995 L1280.84 373.995 L1280.84 369.999 Z" fill="#000000" fill-rule="evenodd" fill-opacity="1" /><path clip-path="url(#clip310)" d="M1331.97 367.648 Q1328.77 367.648 1326.89 369.834 Q1325.04 372.02 1325.04 375.829 Q1325.04 379.614 1326.89 381.824 Q1328.77 384.01 1331.97 384.01 Q1335.17 384.01 1337.03 381.824 Q1338.91 379.614 1338.91 375.829 Q1338.91 372.02 1337.03 369.834 Q1335.17 367.648 1331.97 367.648 M1341.4 352.766 L1341.4 357.092 Q1339.61 356.245 1337.78 355.799 Q1335.97 355.352 1334.18 355.352 Q1329.48 355.352 1326.99 358.526 Q1324.52 361.7 1324.17 368.118 Q1325.55 366.072 1327.65 364.991 Q1329.74 363.886 1332.25 363.886 Q1337.54 363.886 1340.6 367.107 Q1343.68 370.304 1343.68 375.829 Q1343.68 381.236 1340.48 384.504 Q1337.28 387.772 1331.97 387.772 Q1325.88 387.772 1322.66 383.117 Q1319.44 378.438 1319.44 369.575 Q1319.44 361.253 1323.39 356.316 Q1327.34 351.355 1333.99 351.355 Q1335.78 351.355 1337.59 351.708 Q1339.42 352.061 1341.4 352.766 Z" fill="#000000" fill-rule="evenodd" fill-opacity="1" /><path clip-path="url(#clip310)" d="M1216.72 527.977 L1226.27 527.977 L1226.27 495.02 L1215.88 497.103 L1215.88 491.779 L1226.21 489.696 L1232.05 489.696 L1232.05 527.977 L1241.6 527.977 L1241.6 532.896 L1216.72 532.896 L1216.72 527.977 Z" fill="#000000" fill-rule="evenodd" fill-opacity="1" /><path clip-path="url(#clip310)" d="M1265.91 493.544 Q1261.39 493.544 1259.11 498 Q1256.85 502.427 1256.85 511.339 Q1256.85 520.222 1259.11 524.678 Q1261.39 529.105 1265.91 529.105 Q1270.45 529.105 1272.71 524.678 Q1274.99 520.222 1274.99 511.339 Q1274.99 502.427 1272.71 498 Q1270.45 493.544 1265.91 493.544 M1265.91 488.915 Q1273.17 488.915 1276.99 494.673 Q1280.84 500.402 1280.84 511.339 Q1280.84 522.248 1276.99 528.006 Q1273.17 533.735 1265.91 533.735 Q1258.64 533.735 1254.8 528.006 Q1250.98 522.248 1250.98 511.339 Q1250.98 500.402 1254.8 494.673 Q1258.64 488.915 1265.91 488.915 Z" fill="#000000" fill-rule="evenodd" fill-opacity="1" /><path clip-path="url(#clip310)" d="M1280.84 481.541 L1310.98 481.541 L1310.98 485.538 L1280.84 485.538 L1280.84 481.541 Z" fill="#000000" fill-rule="evenodd" fill-opacity="1" /><path clip-path="url(#clip310)" d="M1331.38 481.965 Q1328 481.965 1326.05 483.775 Q1324.12 485.585 1324.12 488.759 Q1324.12 491.933 1326.05 493.743 Q1328 495.553 1331.38 495.553 Q1334.77 495.553 1336.72 493.743 Q1338.67 491.909 1338.67 488.759 Q1338.67 485.585 1336.72 483.775 Q1334.79 481.965 1331.38 481.965 M1326.63 479.943 Q1323.58 479.19 1321.86 477.098 Q1320.17 475.006 1320.17 471.996 Q1320.17 467.788 1323.15 465.343 Q1326.16 462.898 1331.38 462.898 Q1336.63 462.898 1339.61 465.343 Q1342.6 467.788 1342.6 471.996 Q1342.6 475.006 1340.88 477.098 Q1339.19 479.19 1336.16 479.943 Q1339.59 480.742 1341.49 483.07 Q1343.42 485.397 1343.42 488.759 Q1343.42 493.86 1340.29 496.588 Q1337.19 499.315 1331.38 499.315 Q1325.58 499.315 1322.45 496.588 Q1319.35 493.86 1319.35 488.759 Q1319.35 485.397 1321.27 483.07 Q1323.2 480.742 1326.63 479.943 M1324.89 472.443 Q1324.89 475.17 1326.59 476.698 Q1328.3 478.227 1331.38 478.227 Q1334.44 478.227 1336.16 476.698 Q1337.9 475.17 1337.9 472.443 Q1337.9 469.716 1336.16 468.188 Q1334.44 466.66 1331.38 466.66 Q1328.3 466.66 1326.59 468.188 Q1324.89 469.716 1324.89 472.443 Z" fill="#000000" fill-rule="evenodd" fill-opacity="1" /><polyline clip-path="url(#clip312)" style="stroke:#000000; stroke-linecap:round; stroke-linejoin:round; stroke-width:16; stroke-opacity:1; fill:none" stroke-dasharray="8, 16" points="
  207.676,57.065 214.257,57.0887 220.839,57.1121 227.42,57.1504 234.001,57.2177 240.583,57.3364 247.164,57.5456 253.745,57.9122 260.327,58.5501 266.908,59.6457 
  273.489,61.4884 280.071,64.488 286.652,69.1487 293.233,75.9743 299.815,85.351 306.396,97.5235 312.977,112.7 319.559,131.08 326.14,152.443 332.721,175.208 
  339.303,196.111 345.884,211.995 352.465,222.019 359.047,227.375 365.628,229.66 372.21,230.088 378.791,229.439 385.372,228.179 391.954,226.58 398.535,224.798 
  405.116,222.918 411.698,220.988 418.279,219.036 424.86,217.077 431.442,215.12 438.023,213.17 444.604,211.232 451.186,209.307 457.767,207.397 464.348,205.504 
  470.93,203.63 477.511,201.775 484.092,199.942 490.674,198.132 497.255,196.345 503.837,194.585 510.418,192.852 516.999,191.148 523.581,189.475 530.162,187.833 
  536.743,186.226 543.325,184.653 549.906,183.117 556.487,181.619 563.069,180.16 569.65,178.743 576.231,177.367 582.813,176.034 589.394,174.744 595.975,173.499 
  602.557,172.299 609.138,171.145 615.719,170.036 622.301,168.973 628.882,167.955 635.463,166.983 642.045,166.054 648.626,165.17 655.208,164.328 661.789,163.529 
  668.37,162.769 674.952,162.049 681.533,161.366 688.114,160.719 694.696,160.106 701.277,159.525 707.858,158.975 714.44,158.452 721.021,157.956 727.602,157.484 
  734.184,157.033 740.765,156.602 747.346,156.188 753.928,155.788 760.509,155.4 767.09,155.021 773.672,154.648 780.253,154.278 786.835,153.908 793.416,153.534 
  799.997,153.151 806.579,152.756 813.16,152.342 819.741,151.904 826.323,151.434 832.904,150.925 839.485,150.365 846.067,149.743 852.648,149.045 859.229,148.253 
  865.811,147.344 872.392,146.292 878.973,145.065 885.555,143.622 892.136,141.916 898.717,139.887 905.299,137.471 911.88,134.594 918.461,131.18 925.043,127.166 
  931.624,122.517 938.206,117.252 944.787,111.475 951.368,105.386 957.95,99.2703 964.531,93.4333 971.112,88.1259 977.694,83.4856 984.275,79.536 990.856,76.2266 
  997.438,73.4751 1004.02,71.1952 1010.6,69.3077 1017.18,67.7435 1023.76,66.4444 1030.34,65.3617 1036.93,64.4551 1043.51,63.6921 1050.09,63.0461 1056.67,62.4958 
  1063.25,62.0241 1069.83,61.6172 1076.41,61.2641 1083,60.9557 1089.58,60.6848 1096.16,60.4455 1102.74,60.2331 1109.32,60.0436 1115.9,59.8736 1122.48,59.7206 
  1129.06,59.5822 1135.65,59.4566 1142.23,59.3421 1148.81,59.2375 1155.39,59.1415 1161.97,59.0531 1168.55,58.9716 1175.13,58.8962 1181.72,58.8262 1188.3,58.7612 
  1194.88,58.7006 
  "/>
</svg>
