<?xml version="1.0" encoding="utf-8"?>
<svg xmlns="http://www.w3.org/2000/svg" xmlns:xlink="http://www.w3.org/1999/xlink" width="350" height="150" viewBox="0 0 1400 600">
<defs>
  <clipPath id="clip910">
    <rect x="0" y="0" width="1400" height="600"/>
  </clipPath>
</defs>
<path clip-path="url(#clip910)" d="
M0 600 L1400 600 L1400 0 L0 0  Z
  " fill="#ffffff" fill-rule="evenodd" fill-opacity="1"/>
<defs>
  <clipPath id="clip911">
    <rect x="280" y="0" width="981" height="600"/>
  </clipPath>
</defs>
<path clip-path="url(#clip910)" d="
M201.094 503.236 L1352.76 503.236 L1352.76 47.2441 L201.094 47.2441  Z
  " fill="#ffffff" fill-rule="evenodd" fill-opacity="1"/>
<defs>
  <clipPath id="clip912">
    <rect x="201" y="47" width="1153" height="457"/>
  </clipPath>
</defs>
<polyline clip-path="url(#clip910)" style="stroke:#000000; stroke-linecap:butt; stroke-linejoin:round; stroke-width:4; stroke-opacity:1; fill:none" points="
  201.094,503.236 1352.76,503.236 
  "/>
<polyline clip-path="url(#clip910)" style="stroke:#000000; stroke-linecap:butt; stroke-linejoin:round; stroke-width:4; stroke-opacity:1; fill:none" points="
  201.094,503.236 201.094,484.339 
  "/>
<polyline clip-path="url(#clip910)" style="stroke:#000000; stroke-linecap:butt; stroke-linejoin:round; stroke-width:4; stroke-opacity:1; fill:none" points="
  582.439,503.236 582.439,484.339 
  "/>
<polyline clip-path="url(#clip910)" style="stroke:#000000; stroke-linecap:butt; stroke-linejoin:round; stroke-width:4; stroke-opacity:1; fill:none" points="
  963.784,503.236 963.784,484.339 
  "/>
<polyline clip-path="url(#clip910)" style="stroke:#000000; stroke-linecap:butt; stroke-linejoin:round; stroke-width:4; stroke-opacity:1; fill:none" points="
  1345.13,503.236 1345.13,484.339 
  "/>
<path clip-path="url(#clip910)" d="M201.094 529.085 Q196.581 529.085 194.295 533.541 Q192.038 537.968 192.038 546.88 Q192.038 555.763 194.295 560.219 Q196.581 564.646 201.094 564.646 Q205.637 564.646 207.894 560.219 Q210.18 555.763 210.18 546.88 Q210.18 537.968 207.894 533.541 Q205.637 529.085 201.094 529.085 M201.094 524.455 Q208.357 524.455 212.177 530.213 Q216.025 535.942 216.025 546.88 Q216.025 557.788 212.177 563.546 Q208.357 569.276 201.094 569.276 Q193.832 569.276 189.983 563.546 Q186.164 557.788 186.164 546.88 Q186.164 535.942 189.983 530.213 Q193.832 524.455 201.094 524.455 Z" fill="#000000" fill-rule="evenodd" fill-opacity="1" /><path clip-path="url(#clip910)" d="M550.813 525.236 L573.759 525.236 L573.759 530.155 L556.166 530.155 L556.166 540.746 Q557.439 540.312 558.713 540.109 Q559.986 539.878 561.259 539.878 Q568.493 539.878 572.717 543.842 Q576.942 547.806 576.942 554.577 Q576.942 561.55 572.601 565.427 Q568.261 569.276 560.362 569.276 Q557.642 569.276 554.806 568.813 Q552 568.35 548.99 567.424 L548.99 561.55 Q551.595 562.968 554.372 563.662 Q557.15 564.357 560.246 564.357 Q565.252 564.357 568.174 561.724 Q571.097 559.09 571.097 554.577 Q571.097 550.063 568.174 547.43 Q565.252 544.797 560.246 544.797 Q557.902 544.797 555.559 545.317 Q553.244 545.838 550.813 546.938 L550.813 525.236 Z" fill="#000000" fill-rule="evenodd" fill-opacity="1" /><path clip-path="url(#clip910)" d="M600.958 529.085 Q596.444 529.085 594.158 533.541 Q591.901 537.968 591.901 546.88 Q591.901 555.763 594.158 560.219 Q596.444 564.646 600.958 564.646 Q605.501 564.646 607.757 560.219 Q610.043 555.763 610.043 546.88 Q610.043 537.968 607.757 533.541 Q605.501 529.085 600.958 529.085 M600.958 524.455 Q608.22 524.455 612.04 530.213 Q615.888 535.942 615.888 546.88 Q615.888 557.788 612.04 563.546 Q608.22 569.276 600.958 569.276 Q593.695 569.276 589.847 563.546 Q586.027 557.788 586.027 546.88 Q586.027 535.942 589.847 530.213 Q593.695 524.455 600.958 524.455 Z" fill="#000000" fill-rule="evenodd" fill-opacity="1" /><path clip-path="url(#clip910)" d="M913.293 563.517 L922.841 563.517 L922.841 530.56 L912.453 532.644 L912.453 527.32 L922.783 525.236 L928.628 525.236 L928.628 563.517 L938.177 563.517 L938.177 568.436 L913.293 568.436 L913.293 563.517 Z" fill="#000000" fill-rule="evenodd" fill-opacity="1" /><path clip-path="url(#clip910)" d="M962.482 529.085 Q957.968 529.085 955.682 533.541 Q953.425 537.968 953.425 546.88 Q953.425 555.763 955.682 560.219 Q957.968 564.646 962.482 564.646 Q967.025 564.646 969.282 560.219 Q971.568 555.763 971.568 546.88 Q971.568 537.968 969.282 533.541 Q967.025 529.085 962.482 529.085 M962.482 524.455 Q969.745 524.455 973.564 530.213 Q977.413 535.942 977.413 546.88 Q977.413 557.788 973.564 563.546 Q969.745 569.276 962.482 569.276 Q955.219 569.276 951.371 563.546 Q947.552 557.788 947.552 546.88 Q947.552 535.942 951.371 530.213 Q955.219 524.455 962.482 524.455 Z" fill="#000000" fill-rule="evenodd" fill-opacity="1" /><path clip-path="url(#clip910)" d="M1000.18 529.085 Q995.671 529.085 993.385 533.541 Q991.128 537.968 991.128 546.88 Q991.128 555.763 993.385 560.219 Q995.671 564.646 1000.18 564.646 Q1004.73 564.646 1006.98 560.219 Q1009.27 555.763 1009.27 546.88 Q1009.27 537.968 1006.98 533.541 Q1004.73 529.085 1000.18 529.085 M1000.18 524.455 Q1007.45 524.455 1011.27 530.213 Q1015.11 535.942 1015.11 546.88 Q1015.11 557.788 1011.27 563.546 Q1007.45 569.276 1000.18 569.276 Q992.922 569.276 989.073 563.546 Q985.254 557.788 985.254 546.88 Q985.254 535.942 989.073 530.213 Q992.922 524.455 1000.18 524.455 Z" fill="#000000" fill-rule="evenodd" fill-opacity="1" /><path clip-path="url(#clip910)" d="M1294.64 563.517 L1304.19 563.517 L1304.19 530.56 L1293.8 532.644 L1293.8 527.32 L1304.13 525.236 L1309.97 525.236 L1309.97 563.517 L1319.52 563.517 L1319.52 568.436 L1294.64 568.436 L1294.64 563.517 Z" fill="#000000" fill-rule="evenodd" fill-opacity="1" /><path clip-path="url(#clip910)" d="M1331.38 525.236 L1354.33 525.236 L1354.33 530.155 L1336.74 530.155 L1336.74 540.746 Q1338.01 540.312 1339.28 540.109 Q1340.56 539.878 1341.83 539.878 Q1349.06 539.878 1353.29 543.842 Q1357.51 547.806 1357.51 554.577 Q1357.51 561.55 1353.17 565.427 Q1348.83 569.276 1340.93 569.276 Q1338.21 569.276 1335.38 568.813 Q1332.57 568.35 1329.56 567.424 L1329.56 561.55 Q1332.17 562.968 1334.94 563.662 Q1337.72 564.357 1340.82 564.357 Q1345.82 564.357 1348.75 561.724 Q1351.67 559.09 1351.67 554.577 Q1351.67 550.063 1348.75 547.43 Q1345.82 544.797 1340.82 544.797 Q1338.47 544.797 1336.13 545.317 Q1333.82 545.838 1331.38 546.938 L1331.38 525.236 Z" fill="#000000" fill-rule="evenodd" fill-opacity="1" /><path clip-path="url(#clip910)" d="M1381.53 529.085 Q1377.02 529.085 1374.73 533.541 Q1372.47 537.968 1372.47 546.88 Q1372.47 555.763 1374.73 560.219 Q1377.02 564.646 1381.53 564.646 Q1386.07 564.646 1388.33 560.219 Q1390.61 555.763 1390.61 546.88 Q1390.61 537.968 1388.33 533.541 Q1386.07 529.085 1381.53 529.085 M1381.53 524.455 Q1388.79 524.455 1392.61 530.213 Q1396.46 535.942 1396.46 546.88 Q1396.46 557.788 1392.61 563.546 Q1388.79 569.276 1381.53 569.276 Q1374.27 569.276 1370.42 563.546 Q1366.6 557.788 1366.6 546.88 Q1366.6 535.942 1370.42 530.213 Q1374.27 524.455 1381.53 524.455 Z" fill="#000000" fill-rule="evenodd" fill-opacity="1" /><polyline clip-path="url(#clip910)" style="stroke:#000000; stroke-linecap:butt; stroke-linejoin:round; stroke-width:4; stroke-opacity:1; fill:none" points="
  201.094,503.236 201.094,47.2441 
  "/>
<polyline clip-path="url(#clip910)" style="stroke:#000000; stroke-linecap:butt; stroke-linejoin:round; stroke-width:4; stroke-opacity:1; fill:none" points="
  201.094,489.913 219.992,489.913 
  "/>
<polyline clip-path="url(#clip910)" style="stroke:#000000; stroke-linecap:butt; stroke-linejoin:round; stroke-width:4; stroke-opacity:1; fill:none" points="
  201.094,382.469 219.992,382.469 
  "/>
<polyline clip-path="url(#clip910)" style="stroke:#000000; stroke-linecap:butt; stroke-linejoin:round; stroke-width:4; stroke-opacity:1; fill:none" points="
  201.094,275.025 219.992,275.025 
  "/>
<polyline clip-path="url(#clip910)" style="stroke:#000000; stroke-linecap:butt; stroke-linejoin:round; stroke-width:4; stroke-opacity:1; fill:none" points="
  201.094,167.581 219.992,167.581 
  "/>
<polyline clip-path="url(#clip910)" style="stroke:#000000; stroke-linecap:butt; stroke-linejoin:round; stroke-width:4; stroke-opacity:1; fill:none" points="
  201.094,60.1374 219.992,60.1374 
  "/>
<path clip-path="url(#clip910)" d="M70.9226 472.162 Q66.4087 472.162 64.1229 476.618 Q61.8659 481.045 61.8659 489.957 Q61.8659 498.84 64.1229 503.296 Q66.4087 507.723 70.9226 507.723 Q75.4654 507.723 77.7223 503.296 Q80.0082 498.84 80.0082 489.957 Q80.0082 481.045 77.7223 476.618 Q75.4654 472.162 70.9226 472.162 M70.9226 467.532 Q78.1853 467.532 82.0047 473.29 Q85.8531 479.019 85.8531 489.957 Q85.8531 500.865 82.0047 506.623 Q78.1853 512.353 70.9226 512.353 Q63.6599 512.353 59.8115 506.623 Q55.9921 500.865 55.9921 489.957 Q55.9921 479.019 59.8115 473.29 Q63.6599 467.532 70.9226 467.532 Z" fill="#000000" fill-rule="evenodd" fill-opacity="1" /><path clip-path="url(#clip910)" d="M96.125 504.164 L102.23 504.164 L102.23 511.513 L96.125 511.513 L96.125 504.164 Z" fill="#000000" fill-rule="evenodd" fill-opacity="1" /><path clip-path="url(#clip910)" d="M127.462 472.162 Q122.948 472.162 120.662 476.618 Q118.405 481.045 118.405 489.957 Q118.405 498.84 120.662 503.296 Q122.948 507.723 127.462 507.723 Q132.004 507.723 134.261 503.296 Q136.547 498.84 136.547 489.957 Q136.547 481.045 134.261 476.618 Q132.004 472.162 127.462 472.162 M127.462 467.532 Q134.724 467.532 138.544 473.29 Q142.392 479.019 142.392 489.957 Q142.392 500.865 138.544 506.623 Q134.724 512.353 127.462 512.353 Q120.199 512.353 116.351 506.623 Q112.531 500.865 112.531 489.957 Q112.531 479.019 116.351 473.29 Q120.199 467.532 127.462 467.532 Z" fill="#000000" fill-rule="evenodd" fill-opacity="1" /><path clip-path="url(#clip910)" d="M165.164 472.162 Q160.65 472.162 158.364 476.618 Q156.107 481.045 156.107 489.957 Q156.107 498.84 158.364 503.296 Q160.65 507.723 165.164 507.723 Q169.707 507.723 171.964 503.296 Q174.25 498.84 174.25 489.957 Q174.25 481.045 171.964 476.618 Q169.707 472.162 165.164 472.162 M165.164 467.532 Q172.427 467.532 176.246 473.29 Q180.094 479.019 180.094 489.957 Q180.094 500.865 176.246 506.623 Q172.427 512.353 165.164 512.353 Q157.901 512.353 154.053 506.623 Q150.234 500.865 150.234 489.957 Q150.234 479.019 154.053 473.29 Q157.901 467.532 165.164 467.532 Z" fill="#000000" fill-rule="evenodd" fill-opacity="1" /><path clip-path="url(#clip910)" d="M72.1668 364.718 Q67.6529 364.718 65.3671 369.174 Q63.1101 373.601 63.1101 382.513 Q63.1101 391.396 65.3671 395.852 Q67.6529 400.279 72.1668 400.279 Q76.7096 400.279 78.9665 395.852 Q81.2524 391.396 81.2524 382.513 Q81.2524 373.601 78.9665 369.174 Q76.7096 364.718 72.1668 364.718 M72.1668 360.088 Q79.4295 360.088 83.2489 365.846 Q87.0973 371.575 87.0973 382.513 Q87.0973 393.421 83.2489 399.179 Q79.4295 404.909 72.1668 404.909 Q64.9041 404.909 61.0558 399.179 Q57.2363 393.421 57.2363 382.513 Q57.2363 371.575 61.0558 365.846 Q64.9041 360.088 72.1668 360.088 Z" fill="#000000" fill-rule="evenodd" fill-opacity="1" /><path clip-path="url(#clip910)" d="M97.3692 396.72 L103.475 396.72 L103.475 404.069 L97.3692 404.069 L97.3692 396.72 Z" fill="#000000" fill-rule="evenodd" fill-opacity="1" /><path clip-path="url(#clip910)" d="M121.241 399.15 L141.64 399.15 L141.64 404.069 L114.209 404.069 L114.209 399.15 Q117.537 395.707 123.266 389.92 Q129.024 384.104 130.5 382.426 Q133.307 379.272 134.406 377.102 Q135.535 374.903 135.535 372.791 Q135.535 369.347 133.104 367.177 Q130.702 365.007 126.825 365.007 Q124.076 365.007 121.009 365.962 Q117.971 366.917 114.499 368.855 L114.499 362.953 Q118.029 361.535 121.096 360.812 Q124.163 360.088 126.709 360.088 Q133.422 360.088 137.415 363.445 Q141.408 366.801 141.408 372.414 Q141.408 375.076 140.396 377.478 Q139.412 379.851 136.779 383.091 Q136.055 383.931 132.178 387.953 Q128.301 391.946 121.241 399.15 Z" fill="#000000" fill-rule="evenodd" fill-opacity="1" /><path clip-path="url(#clip910)" d="M153.966 360.869 L176.912 360.869 L176.912 365.788 L159.319 365.788 L159.319 376.379 Q160.592 375.945 161.865 375.742 Q163.139 375.511 164.412 375.511 Q171.645 375.511 175.87 379.475 Q180.094 383.439 180.094 390.21 Q180.094 397.183 175.754 401.06 Q171.414 404.909 163.515 404.909 Q160.795 404.909 157.959 404.446 Q155.152 403.983 152.143 403.057 L152.143 397.183 Q154.747 398.601 157.525 399.295 Q160.303 399.99 163.399 399.99 Q168.405 399.99 171.327 397.356 Q174.25 394.723 174.25 390.21 Q174.25 385.696 171.327 383.063 Q168.405 380.429 163.399 380.429 Q161.055 380.429 158.711 380.95 Q156.397 381.471 153.966 382.571 L153.966 360.869 Z" fill="#000000" fill-rule="evenodd" fill-opacity="1" /><path clip-path="url(#clip910)" d="M70.9226 257.274 Q66.4087 257.274 64.1229 261.73 Q61.8659 266.157 61.8659 275.069 Q61.8659 283.952 64.1229 288.408 Q66.4087 292.835 70.9226 292.835 Q75.4654 292.835 77.7223 288.408 Q80.0082 283.952 80.0082 275.069 Q80.0082 266.157 77.7223 261.73 Q75.4654 257.274 70.9226 257.274 M70.9226 252.644 Q78.1853 252.644 82.0047 258.402 Q85.8531 264.131 85.8531 275.069 Q85.8531 285.977 82.0047 291.735 Q78.1853 297.464 70.9226 297.464 Q63.6599 297.464 59.8115 291.735 Q55.9921 285.977 55.9921 275.069 Q55.9921 264.131 59.8115 258.402 Q63.6599 252.644 70.9226 252.644 Z" fill="#000000" fill-rule="evenodd" fill-opacity="1" /><path clip-path="url(#clip910)" d="M96.125 289.276 L102.23 289.276 L102.23 296.625 L96.125 296.625 L96.125 289.276 Z" fill="#000000" fill-rule="evenodd" fill-opacity="1" /><path clip-path="url(#clip910)" d="M115.02 253.425 L137.965 253.425 L137.965 258.344 L120.373 258.344 L120.373 268.935 Q121.646 268.501 122.919 268.298 Q124.192 268.067 125.465 268.067 Q132.699 268.067 136.923 272.031 Q141.148 275.995 141.148 282.766 Q141.148 289.739 136.808 293.616 Q132.467 297.464 124.568 297.464 Q121.848 297.464 119.013 297.002 Q116.206 296.539 113.197 295.613 L113.197 289.739 Q115.801 291.157 118.579 291.851 Q121.356 292.546 124.452 292.546 Q129.458 292.546 132.381 289.912 Q135.303 287.279 135.303 282.766 Q135.303 278.252 132.381 275.619 Q129.458 272.985 124.452 272.985 Q122.109 272.985 119.765 273.506 Q117.45 274.027 115.02 275.127 L115.02 253.425 Z" fill="#000000" fill-rule="evenodd" fill-opacity="1" /><path clip-path="url(#clip910)" d="M165.164 257.274 Q160.65 257.274 158.364 261.73 Q156.107 266.157 156.107 275.069 Q156.107 283.952 158.364 288.408 Q160.65 292.835 165.164 292.835 Q169.707 292.835 171.964 288.408 Q174.25 283.952 174.25 275.069 Q174.25 266.157 171.964 261.73 Q169.707 257.274 165.164 257.274 M165.164 252.644 Q172.427 252.644 176.246 258.402 Q180.094 264.131 180.094 275.069 Q180.094 285.977 176.246 291.735 Q172.427 297.464 165.164 297.464 Q157.901 297.464 154.053 291.735 Q150.234 285.977 150.234 275.069 Q150.234 264.131 154.053 258.402 Q157.901 252.644 165.164 252.644 Z" fill="#000000" fill-rule="evenodd" fill-opacity="1" /><path clip-path="url(#clip910)" d="M72.1668 149.83 Q67.6529 149.83 65.3671 154.286 Q63.1101 158.713 63.1101 167.625 Q63.1101 176.508 65.3671 180.964 Q67.6529 185.391 72.1668 185.391 Q76.7096 185.391 78.9665 180.964 Q81.2524 176.508 81.2524 167.625 Q81.2524 158.713 78.9665 154.286 Q76.7096 149.83 72.1668 149.83 M72.1668 145.2 Q79.4295 145.2 83.2489 150.958 Q87.0973 156.687 87.0973 167.625 Q87.0973 178.533 83.2489 184.291 Q79.4295 190.02 72.1668 190.02 Q64.9041 190.02 61.0558 184.291 Q57.2363 178.533 57.2363 167.625 Q57.2363 156.687 61.0558 150.958 Q64.9041 145.2 72.1668 145.2 Z" fill="#000000" fill-rule="evenodd" fill-opacity="1" /><path clip-path="url(#clip910)" d="M97.3692 181.832 L103.475 181.832 L103.475 189.181 L97.3692 189.181 L97.3692 181.832 Z" fill="#000000" fill-rule="evenodd" fill-opacity="1" /><path clip-path="url(#clip910)" d="M114.73 145.981 L142.508 145.981 L142.508 148.47 L126.825 189.181 L120.72 189.181 L135.477 150.9 L114.73 150.9 L114.73 145.981 Z" fill="#000000" fill-rule="evenodd" fill-opacity="1" /><path clip-path="url(#clip910)" d="M153.966 145.981 L176.912 145.981 L176.912 150.9 L159.319 150.9 L159.319 161.491 Q160.592 161.057 161.865 160.854 Q163.139 160.623 164.412 160.623 Q171.645 160.623 175.87 164.587 Q180.094 168.551 180.094 175.321 Q180.094 182.295 175.754 186.172 Q171.414 190.02 163.515 190.02 Q160.795 190.02 157.959 189.558 Q155.152 189.095 152.143 188.169 L152.143 182.295 Q154.747 183.713 157.525 184.407 Q160.303 185.102 163.399 185.102 Q168.405 185.102 171.327 182.468 Q174.25 179.835 174.25 175.321 Q174.25 170.808 171.327 168.175 Q168.405 165.541 163.399 165.541 Q161.055 165.541 158.711 166.062 Q156.397 166.583 153.966 167.683 L153.966 145.981 Z" fill="#000000" fill-rule="evenodd" fill-opacity="1" /><path clip-path="url(#clip910)" d="M59.4354 76.8184 L68.984 76.8184 L68.984 43.8614 L58.5963 45.9447 L58.5963 40.6207 L68.9261 38.5374 L74.771 38.5374 L74.771 76.8184 L84.3195 76.8184 L84.3195 81.7374 L59.4354 81.7374 L59.4354 76.8184 Z" fill="#000000" fill-rule="evenodd" fill-opacity="1" /><path clip-path="url(#clip910)" d="M96.125 74.3879 L102.23 74.3879 L102.23 81.7374 L96.125 81.7374 L96.125 74.3879 Z" fill="#000000" fill-rule="evenodd" fill-opacity="1" /><path clip-path="url(#clip910)" d="M127.462 42.3857 Q122.948 42.3857 120.662 46.8417 Q118.405 51.2688 118.405 60.1808 Q118.405 69.0638 120.662 73.5198 Q122.948 77.9469 127.462 77.9469 Q132.004 77.9469 134.261 73.5198 Q136.547 69.0638 136.547 60.1808 Q136.547 51.2688 134.261 46.8417 Q132.004 42.3857 127.462 42.3857 M127.462 37.7561 Q134.724 37.7561 138.544 43.5142 Q142.392 49.2433 142.392 60.1808 Q142.392 71.0893 138.544 76.8474 Q134.724 82.5765 127.462 82.5765 Q120.199 82.5765 116.351 76.8474 Q112.531 71.0893 112.531 60.1808 Q112.531 49.2433 116.351 43.5142 Q120.199 37.7561 127.462 37.7561 Z" fill="#000000" fill-rule="evenodd" fill-opacity="1" /><path clip-path="url(#clip910)" d="M165.164 42.3857 Q160.65 42.3857 158.364 46.8417 Q156.107 51.2688 156.107 60.1808 Q156.107 69.0638 158.364 73.5198 Q160.65 77.9469 165.164 77.9469 Q169.707 77.9469 171.964 73.5198 Q174.25 69.0638 174.25 60.1808 Q174.25 51.2688 171.964 46.8417 Q169.707 42.3857 165.164 42.3857 M165.164 37.7561 Q172.427 37.7561 176.246 43.5142 Q180.094 49.2433 180.094 60.1808 Q180.094 71.0893 176.246 76.8474 Q172.427 82.5765 165.164 82.5765 Q157.901 82.5765 154.053 76.8474 Q150.234 71.0893 150.234 60.1808 Q150.234 49.2433 154.053 43.5142 Q157.901 37.7561 165.164 37.7561 Z" fill="#000000" fill-rule="evenodd" fill-opacity="1" /><polyline clip-path="url(#clip912)" style="stroke:#ff00ff; stroke-linecap:butt; stroke-linejoin:round; stroke-width:16; stroke-opacity:1; fill:none" points="
  208.721,275.133 216.348,275.22 223.975,275.37 231.602,275.63 239.229,276.079 246.856,276.849 254.483,278.167 262.11,280.407 269.737,284.165 277.363,290.344 
  284.99,300.177 292.617,315.028 300.244,335.78 307.871,361.841 315.498,390.505 323.125,417.782 330.752,440.387 338.379,457.073 346.006,468.37 353.632,475.584 
  361.259,480.029 368.886,482.722 376.513,484.35 384.14,485.349 391.767,485.976 399.394,486.38 407.021,486.642 414.648,486.811 422.274,486.915 429.901,486.972 
  437.528,486.992 445.155,486.98 452.782,486.938 460.409,486.864 468.036,486.754 475.663,486.602 483.29,486.399 490.917,486.137 498.543,485.803 506.17,485.389 
  513.797,484.885 521.424,484.291 529.051,483.609 536.678,482.851 544.305,482.037 551.932,481.188 559.559,480.33 567.186,479.485 574.812,478.671 582.439,477.902 
  590.066,477.186 597.693,476.527 605.32,475.926 612.947,475.382 620.574,474.89 628.201,474.447 635.828,474.049 643.454,473.689 651.081,473.366 658.708,473.073 
  666.335,472.808 673.962,472.568 681.589,472.35 689.216,472.151 696.843,471.969 704.47,471.803 712.097,471.649 719.723,471.508 727.35,471.378 734.977,471.258 
  742.604,471.146 750.231,471.042 757.858,470.945 765.485,470.854 773.112,470.769 780.739,470.69 788.366,470.616 795.992,470.545 803.619,470.479 811.246,470.417 
  818.873,470.358 826.5,470.303 834.127,470.25 841.754,470.2 849.381,470.152 857.008,470.107 864.635,470.064 872.261,470.023 879.888,469.983 887.515,469.946 
  895.142,469.91 902.769,469.876 910.396,469.843 918.023,469.811 925.65,469.781 933.277,469.752 940.903,469.724 948.53,469.697 956.157,469.671 963.784,469.646 
  971.411,469.622 979.038,469.599 986.665,469.577 994.292,469.555 1001.92,469.534 1009.55,469.514 1017.17,469.495 1024.8,469.476 1032.43,469.457 1040.05,469.44 
  1047.68,469.422 1055.31,469.406 1062.93,469.389 1070.56,469.374 1078.19,469.358 1085.81,469.343 1093.44,469.329 1101.07,469.315 1108.7,469.301 1116.32,469.288 
  1123.95,469.275 1131.58,469.262 1139.2,469.25 1146.83,469.238 1154.46,469.226 1162.08,469.215 1169.71,469.203 1177.34,469.192 1184.96,469.182 1192.59,469.171 
  1200.22,469.161 1207.84,469.151 1215.47,469.141 1223.1,469.132 1230.73,469.123 1238.35,469.113 1245.98,469.105 1253.61,469.096 1261.23,469.087 1268.86,469.079 
  1276.49,469.071 1284.11,469.062 1291.74,469.055 1299.37,469.047 1306.99,469.039 1314.62,469.032 1322.25,469.024 1329.88,469.017 1337.5,469.01 1345.13,469.003 
  1352.76,468.996 
  "/>
<polyline clip-path="url(#clip912)" style="stroke:#2000d4; stroke-linecap:butt; stroke-linejoin:round; stroke-width:16; stroke-opacity:1; fill:none" stroke-dasharray="8, 16" points="
  208.721,489.913 216.348,489.913 223.975,489.913 231.602,489.913 239.229,489.913 246.856,489.913 254.483,489.913 262.11,489.913 269.737,489.913 277.363,489.913 
  284.99,489.912 292.617,489.912 300.244,489.911 307.871,489.91 315.498,489.909 323.125,489.908 330.752,489.907 338.379,489.907 346.006,489.906 353.632,489.905 
  361.259,489.905 368.886,489.904 376.513,489.904 384.14,489.904 391.767,489.903 399.394,489.903 407.021,489.902 414.648,489.902 422.274,489.901 429.901,489.901 
  437.528,489.901 445.155,489.9 452.782,489.9 460.409,489.899 468.036,489.899 475.663,489.898 483.29,489.898 490.917,489.898 498.543,489.897 506.17,489.897 
  513.797,489.896 521.424,489.896 529.051,489.895 536.678,489.895 544.305,489.895 551.932,489.894 559.559,489.894 567.186,489.893 574.812,489.893 582.439,489.892 
  590.066,489.892 597.693,489.892 605.32,489.891 612.947,489.891 620.574,489.89 628.201,489.89 635.828,489.889 643.454,489.889 651.081,489.889 658.708,489.888 
  666.335,489.888 673.962,489.887 681.589,489.887 689.216,489.886 696.843,489.886 704.47,489.886 712.097,489.885 719.723,489.885 727.35,489.884 734.977,489.884 
  742.604,489.883 750.231,489.883 757.858,489.883 765.485,489.882 773.112,489.882 780.739,489.881 788.366,489.881 795.992,489.88 803.619,489.88 811.246,489.88 
  818.873,489.879 826.5,489.879 834.127,489.878 841.754,489.878 849.381,489.877 857.008,489.877 864.635,489.877 872.261,489.876 879.888,489.876 887.515,489.875 
  895.142,489.875 902.769,489.874 910.396,489.874 918.023,489.874 925.65,489.873 933.277,489.873 940.903,489.872 948.53,489.872 956.157,489.871 963.784,489.871 
  971.411,489.871 979.038,489.87 986.665,489.87 994.292,489.869 1001.92,489.869 1009.55,489.868 1017.17,489.868 1024.8,489.868 1032.43,489.867 1040.05,489.867 
  1047.68,489.866 1055.31,489.866 1062.93,489.865 1070.56,489.865 1078.19,489.865 1085.81,489.864 1093.44,489.864 1101.07,489.863 1108.7,489.863 1116.32,489.862 
  1123.95,489.862 1131.58,489.862 1139.2,489.861 1146.83,489.861 1154.46,489.86 1162.08,489.86 1169.71,489.859 1177.34,489.859 1184.96,489.859 1192.59,489.858 
  1200.22,489.858 1207.84,489.857 1215.47,489.857 1223.1,489.856 1230.73,489.856 1238.35,489.856 1245.98,489.855 1253.61,489.855 1261.23,489.854 1268.86,489.854 
  1276.49,489.853 1284.11,489.853 1291.74,489.853 1299.37,489.852 1306.99,489.852 1314.62,489.851 1322.25,489.851 1329.88,489.85 1337.5,489.85 1345.13,489.85 
  1352.76,489.849 
  "/>
<polyline clip-path="url(#clip912)" style="stroke:#008900; stroke-linecap:butt; stroke-linejoin:round; stroke-width:16; stroke-opacity:1; fill:none" stroke-dasharray="64, 40" points="
  208.721,489.913 216.348,489.913 223.975,489.913 231.602,489.913 239.229,489.912 246.856,489.912 254.483,489.91 262.11,489.908 269.737,489.904 277.363,489.898 
  284.99,489.888 292.617,489.873 300.244,489.851 307.871,489.824 315.498,489.792 323.125,489.758 330.752,489.724 338.379,489.688 346.006,489.644 353.632,489.582 
  361.259,489.49 368.886,489.353 376.513,489.154 384.14,488.876 391.767,488.504 399.394,488.025 407.021,487.43 414.648,486.715 422.274,485.882 429.901,484.936 
  437.528,483.88 445.155,482.715 452.782,481.433 460.409,480.024 468.036,478.475 475.663,476.772 483.29,474.91 490.917,472.892 498.543,470.735 506.17,468.474 
  513.797,466.157 521.424,463.844 529.051,461.596 536.678,459.464 544.305,457.49 551.932,455.697 559.559,454.094 567.186,452.676 574.812,451.432 582.439,450.346 
  590.066,449.399 597.693,448.574 605.32,447.854 612.947,447.223 620.574,446.67 628.201,446.182 635.828,445.75 643.454,445.365 651.081,445.022 658.708,444.715 
  666.335,444.438 673.962,444.189 681.589,443.962 689.216,443.756 696.843,443.568 704.47,443.396 712.097,443.238 719.723,443.092 727.35,442.958 734.977,442.834 
  742.604,442.719 750.231,442.612 757.858,442.513 765.485,442.42 773.112,442.334 780.739,442.253 788.366,442.177 795.992,442.106 803.619,442.039 811.246,441.976 
  818.873,441.917 826.5,441.861 834.127,441.809 841.754,441.759 849.381,441.712 857.008,441.667 864.635,441.625 872.261,441.585 879.888,441.547 887.515,441.511 
  895.142,441.477 902.769,441.444 910.396,441.413 918.023,441.383 925.65,441.355 933.277,441.328 940.903,441.302 948.53,441.277 956.157,441.253 963.784,441.231 
  971.411,441.209 979.038,441.188 986.665,441.168 994.292,441.149 1001.92,441.131 1009.55,441.113 1017.17,441.096 1024.8,441.08 1032.43,441.064 1040.05,441.049 
  1047.68,441.034 1055.31,441.02 1062.93,441.007 1070.56,440.994 1078.19,440.981 1085.81,440.969 1093.44,440.957 1101.07,440.945 1108.7,440.934 1116.32,440.924 
  1123.95,440.913 1131.58,440.903 1139.2,440.894 1146.83,440.884 1154.46,440.875 1162.08,440.866 1169.71,440.858 1177.34,440.849 1184.96,440.841 1192.59,440.833 
  1200.22,440.826 1207.84,440.818 1215.47,440.811 1223.1,440.804 1230.73,440.797 1238.35,440.79 1245.98,440.784 1253.61,440.777 1261.23,440.771 1268.86,440.765 
  1276.49,440.759 1284.11,440.754 1291.74,440.748 1299.37,440.742 1306.99,440.737 1314.62,440.732 1322.25,440.727 1329.88,440.722 1337.5,440.717 1345.13,440.712 
  1352.76,440.708 
  "/>
<polyline clip-path="url(#clip912)" style="stroke:#008900; stroke-linecap:butt; stroke-linejoin:round; stroke-width:16; stroke-opacity:1; fill:none" stroke-dasharray="8, 16" points="
  208.721,489.913 216.348,489.913 223.975,489.913 231.602,489.913 239.229,489.912 246.856,489.912 254.483,489.911 262.11,489.909 269.737,489.905 277.363,489.9 
  284.99,489.891 292.617,489.877 300.244,489.858 307.871,489.835 315.498,489.808 323.125,489.783 330.752,489.761 338.379,489.744 346.006,489.731 353.632,489.719 
  361.259,489.707 368.886,489.694 376.513,489.678 384.14,489.661 391.767,489.643 399.394,489.627 407.021,489.612 414.648,489.601 422.274,489.593 429.901,489.588 
  437.528,489.586 445.155,489.587 452.782,489.59 460.409,489.595 468.036,489.603 475.663,489.613 483.29,489.625 490.917,489.638 498.543,489.653 506.17,489.669 
  513.797,489.685 521.424,489.702 529.051,489.718 536.678,489.734 544.305,489.748 551.932,489.761 559.559,489.772 567.186,489.782 574.812,489.791 582.439,489.799 
  590.066,489.805 597.693,489.811 605.32,489.815 612.947,489.819 620.574,489.823 628.201,489.826 635.828,489.829 643.454,489.831 651.081,489.833 658.708,489.835 
  666.335,489.837 673.962,489.838 681.589,489.839 689.216,489.841 696.843,489.842 704.47,489.843 712.097,489.843 719.723,489.844 727.35,489.845 734.977,489.846 
  742.604,489.846 750.231,489.847 757.858,489.847 765.485,489.848 773.112,489.848 780.739,489.849 788.366,489.849 795.992,489.849 803.619,489.85 811.246,489.85 
  818.873,489.85 826.5,489.85 834.127,489.851 841.754,489.851 849.381,489.851 857.008,489.851 864.635,489.851 872.261,489.852 879.888,489.852 887.515,489.852 
  895.142,489.852 902.769,489.852 910.396,489.852 918.023,489.853 925.65,489.853 933.277,489.853 940.903,489.853 948.53,489.853 956.157,489.853 963.784,489.853 
  971.411,489.853 979.038,489.853 986.665,489.853 994.292,489.853 1001.92,489.853 1009.55,489.854 1017.17,489.854 1024.8,489.854 1032.43,489.854 1040.05,489.854 
  1047.68,489.854 1055.31,489.854 1062.93,489.854 1070.56,489.854 1078.19,489.854 1085.81,489.854 1093.44,489.854 1101.07,489.854 1108.7,489.854 1116.32,489.854 
  1123.95,489.854 1131.58,489.854 1139.2,489.854 1146.83,489.854 1154.46,489.854 1162.08,489.854 1169.71,489.854 1177.34,489.854 1184.96,489.854 1192.59,489.854 
  1200.22,489.854 1207.84,489.854 1215.47,489.854 1223.1,489.854 1230.73,489.854 1238.35,489.854 1245.98,489.854 1253.61,489.854 1261.23,489.854 1268.86,489.854 
  1276.49,489.854 1284.11,489.854 1291.74,489.854 1299.37,489.854 1306.99,489.854 1314.62,489.854 1322.25,489.854 1329.88,489.854 1337.5,489.854 1345.13,489.854 
  1352.76,489.854 
  "/>
<polyline clip-path="url(#clip912)" style="stroke:#2000d4; stroke-linecap:butt; stroke-linejoin:round; stroke-width:16; stroke-opacity:1; fill:none" points="
  208.721,489.484 216.348,489.133 223.975,488.529 231.602,487.487 239.229,485.7 246.856,482.646 254.483,477.471 262.11,468.824 269.737,454.701 277.363,432.477 
  284.99,399.476 292.617,354.462 300.244,299.681 307.871,241.564 315.498,188.231 323.125,145.418 330.752,114.593 338.379,94.094 346.006,81.1713 353.632,73.2937 
  361.259,68.585 368.886,65.7966 376.513,64.1464 384.14,63.1614 391.767,62.563 399.394,62.1904 407.021,61.9518 414.648,61.7947 422.274,61.6882 429.901,61.614 
  437.528,61.5606 445.155,61.5211 452.782,61.4909 460.409,61.4671 468.036,61.4477 475.663,61.4316 483.29,61.4179 490.917,61.406 498.543,61.3955 506.17,61.3861 
  513.797,61.3776 521.424,61.3698 529.051,61.3627 536.678,61.3562 544.305,61.3503 551.932,61.3449 559.559,61.3401 567.186,61.3356 574.812,61.3317 582.439,61.3282 
  590.066,61.325 597.693,61.3222 605.32,61.3197 612.947,61.3176 620.574,61.3157 628.201,61.314 635.828,61.3126 643.454,61.3113 651.081,61.3103 658.708,61.3094 
  666.335,61.3086 673.962,61.308 681.589,61.3075 689.216,61.3071 696.843,61.3068 704.47,61.3066 712.097,61.3065 719.723,61.3065 727.35,61.3065 734.977,61.3066 
  742.604,61.3068 750.231,61.307 757.858,61.3072 765.485,61.3075 773.112,61.3079 780.739,61.3082 788.366,61.3086 795.992,61.3091 803.619,61.3096 811.246,61.3101 
  818.873,61.3106 826.5,61.3111 834.127,61.3117 841.754,61.3123 849.381,61.3129 857.008,61.3135 864.635,61.3142 872.261,61.3148 879.888,61.3155 887.515,61.3162 
  895.142,61.3169 902.769,61.3176 910.396,61.3183 918.023,61.319 925.65,61.3198 933.277,61.3205 940.903,61.3213 948.53,61.322 956.157,61.3228 963.784,61.3236 
  971.411,61.3243 979.038,61.3251 986.665,61.3259 994.292,61.3267 1001.92,61.3275 1009.55,61.3283 1017.17,61.3291 1024.8,61.3299 1032.43,61.3307 1040.05,61.3315 
  1047.68,61.3323 1055.31,61.3332 1062.93,61.334 1070.56,61.3348 1078.19,61.3356 1085.81,61.3365 1093.44,61.3373 1101.07,61.3381 1108.7,61.339 1116.32,61.3398 
  1123.95,61.3406 1131.58,61.3415 1139.2,61.3423 1146.83,61.3431 1154.46,61.344 1162.08,61.3448 1169.71,61.3457 1177.34,61.3465 1184.96,61.3473 1192.59,61.3482 
  1200.22,61.349 1207.84,61.3499 1215.47,61.3507 1223.1,61.3516 1230.73,61.3524 1238.35,61.3533 1245.98,61.3541 1253.61,61.355 1261.23,61.3558 1268.86,61.3567 
  1276.49,61.3575 1284.11,61.3584 1291.74,61.3592 1299.37,61.3601 1306.99,61.3609 1314.62,61.3618 1322.25,61.3626 1329.88,61.3635 1337.5,61.3644 1345.13,61.3652 
  1352.76,61.3661 
  "/>
<polyline clip-path="url(#clip912)" style="stroke:#008900; stroke-linecap:butt; stroke-linejoin:round; stroke-width:16; stroke-opacity:1; fill:none" points="
  208.721,489.699 216.348,489.543 223.975,489.273 231.602,488.808 239.229,488.01 246.856,486.647 254.483,484.337 262.11,480.477 269.737,474.171 277.363,464.246 
  284.99,449.502 292.617,429.373 300.244,404.836 307.871,378.712 315.498,354.546 323.125,334.773 330.752,319.848 338.379,308.716 346.006,299.683 353.632,290.987 
  361.259,281.099 368.886,268.974 376.513,254.372 384.14,238.001 391.767,221.232 399.394,205.556 407.021,192.161 414.648,181.785 422.274,174.733 429.901,170.986 
  437.528,170.333 445.155,172.503 452.782,177.249 460.409,184.384 468.036,193.773 475.663,205.31 483.29,218.875 490.917,234.283 498.543,251.253 506.17,269.381 
  513.797,288.157 521.424,307.005 529.051,325.36 536.678,342.735 544.305,358.774 551.932,373.272 559.559,386.16 567.186,397.475 574.812,407.327 582.439,415.858 
  590.066,423.228 597.693,429.593 605.32,435.096 612.947,439.866 620.574,444.014 628.201,447.635 635.828,450.809 643.454,453.604 651.081,456.076 658.708,458.272 
  666.335,460.231 673.962,461.986 681.589,463.566 689.216,464.992 696.843,466.286 704.47,467.462 712.097,468.536 719.723,469.52 727.35,470.423 734.977,471.256 
  742.604,472.025 750.231,472.736 757.858,473.397 765.485,474.012 773.112,474.586 780.739,475.121 788.366,475.623 795.992,476.093 803.619,476.535 811.246,476.951 
  818.873,477.344 826.5,477.714 834.127,478.064 841.754,478.395 849.381,478.709 857.008,479.007 864.635,479.291 872.261,479.561 879.888,479.817 887.515,480.062 
  895.142,480.296 902.769,480.519 910.396,480.733 918.023,480.937 925.65,481.133 933.277,481.321 940.903,481.501 948.53,481.674 956.157,481.84 963.784,482 
  971.411,482.154 979.038,482.302 986.665,482.445 994.292,482.582 1001.92,482.715 1009.55,482.844 1017.17,482.967 1024.8,483.087 1032.43,483.203 1040.05,483.315 
  1047.68,483.423 1055.31,483.528 1062.93,483.63 1070.56,483.729 1078.19,483.824 1085.81,483.917 1093.44,484.007 1101.07,484.095 1108.7,484.18 1116.32,484.262 
  1123.95,484.343 1131.58,484.421 1139.2,484.497 1146.83,484.571 1154.46,484.643 1162.08,484.713 1169.71,484.781 1177.34,484.848 1184.96,484.913 1192.59,484.976 
  1200.22,485.038 1207.84,485.098 1215.47,485.157 1223.1,485.214 1230.73,485.27 1238.35,485.325 1245.98,485.378 1253.61,485.431 1261.23,485.482 1268.86,485.532 
  1276.49,485.581 1284.11,485.628 1291.74,485.675 1299.37,485.721 1306.99,485.766 1314.62,485.81 1322.25,485.853 1329.88,485.895 1337.5,485.936 1345.13,485.976 
  1352.76,486.016 
  "/>
<polyline clip-path="url(#clip912)" style="stroke:#7f7f7f; stroke-linecap:butt; stroke-linejoin:round; stroke-width:16; stroke-opacity:1; fill:none" points="
  208.721,60.1374 216.348,70.9624 223.975,77.2302 231.602,80.8703 239.229,83.032 246.856,84.3936 254.483,85.3771 262.11,86.2837 269.737,87.3876 277.363,89.0164 
  284.99,91.6388 292.617,95.9711 300.244,103.097 307.871,114.542 315.498,132.169 323.125,157.645 330.752,191.447 338.379,231.921 346.006,275.417 353.632,317.729 
  361.259,355.636 368.886,387.495 376.513,412.987 384.14,432.66 391.767,447.515 399.394,458.639 407.021,466.942 414.648,473.098 422.274,477.609 429.901,480.874 
  437.528,483.217 445.155,484.896 452.782,486.103 460.409,486.979 468.036,487.619 475.663,488.093 483.29,488.448 490.917,488.717 498.543,488.922 506.17,489.081 
  513.797,489.206 521.424,489.304 529.051,489.383 536.678,489.447 544.305,489.5 551.932,489.543 559.559,489.58 567.186,489.611 574.812,489.638 582.439,489.662 
  590.066,489.682 597.693,489.7 605.32,489.717 612.947,489.731 620.574,489.744 628.201,489.756 635.828,489.767 643.454,489.776 651.081,489.785 658.708,489.794 
  666.335,489.801 673.962,489.808 681.589,489.815 689.216,489.821 696.843,489.827 704.47,489.832 712.097,489.837 719.723,489.842 727.35,489.846 734.977,489.85 
  742.604,489.854 750.231,489.858 757.858,489.861 765.485,489.864 773.112,489.867 780.739,489.87 788.366,489.872 795.992,489.875 803.619,489.877 811.246,489.879 
  818.873,489.881 826.5,489.883 834.127,489.885 841.754,489.886 849.381,489.888 857.008,489.89 864.635,489.891 872.261,489.892 879.888,489.893 887.515,489.895 
  895.142,489.896 902.769,489.897 910.396,489.898 918.023,489.899 925.65,489.9 933.277,489.9 940.903,489.901 948.53,489.902 956.157,489.902 963.784,489.903 
  971.411,489.904 979.038,489.904 986.665,489.905 994.292,489.905 1001.92,489.906 1009.55,489.906 1017.17,489.907 1024.8,489.907 1032.43,489.907 1040.05,489.908 
  1047.68,489.908 1055.31,489.908 1062.93,489.909 1070.56,489.909 1078.19,489.909 1085.81,489.909 1093.44,489.91 1101.07,489.91 1108.7,489.91 1116.32,489.91 
  1123.95,489.91 1131.58,489.911 1139.2,489.911 1146.83,489.911 1154.46,489.911 1162.08,489.911 1169.71,489.911 1177.34,489.911 1184.96,489.912 1192.59,489.912 
  1200.22,489.912 1207.84,489.912 1215.47,489.912 1223.1,489.912 1230.73,489.912 1238.35,489.912 1245.98,489.912 1253.61,489.912 1261.23,489.912 1268.86,489.912 
  1276.49,489.912 1284.11,489.913 1291.74,489.913 1299.37,489.913 1306.99,489.913 1314.62,489.913 1322.25,489.913 1329.88,489.913 1337.5,489.913 1345.13,489.913 
  1352.76,489.913 
  "/>
<polyline clip-path="url(#clip912)" style="stroke:#895f55; stroke-linecap:butt; stroke-linejoin:round; stroke-width:16; stroke-opacity:1; fill:none" points="
  216.348,489.488 223.975,489.142 231.602,488.544 239.229,487.514 246.856,485.745 254.483,482.722 262.11,477.601 269.737,469.043 277.363,455.065 284.99,433.071 
  292.617,400.411 300.244,355.86 307.871,301.644 315.498,244.125 323.125,191.339 330.752,148.961 338.379,118.445 346.006,98.1419 353.632,85.3266 361.259,77.4898 
  368.886,72.7694 376.513,69.9275 384.14,68.1934 391.767,67.1099 399.394,66.4165 407.021,65.9671 414.648,65.6779 422.274,65.4987 429.901,65.399 437.528,65.3611 
  445.155,65.3758 452.782,65.4401 460.409,65.5552 468.036,65.7262 475.663,65.9613 483.29,66.2706 490.917,66.6656 498.543,67.1569 506.17,67.7517 513.797,68.4508 
  521.424,69.2461 529.051,70.1194 536.678,71.0442 544.305,71.9892 551.932,72.9233 559.559,73.8197 567.186,74.6588 574.812,75.4284 582.439,76.1233 590.066,76.7437 
  597.693,77.2933 605.32,77.7776 612.947,78.2036 620.574,78.5778 628.201,78.907 635.828,79.1971 643.454,79.4534 651.081,79.6806 658.708,79.8826 666.335,80.0629 
  673.962,80.2244 681.589,80.3697 689.216,80.5009 696.843,80.6197 704.47,80.7277 712.097,80.8262 719.723,80.9163 727.35,80.999 734.977,81.0751 742.604,81.1454 
  750.231,81.2105 757.858,81.2708 765.485,81.327 773.112,81.3793 780.739,81.4282 788.366,81.474 795.992,81.5169 803.619,81.5573 811.246,81.5952 818.873,81.6311 
  826.5,81.6649 834.127,81.6969 841.754,81.7272 849.381,81.756 857.008,81.7833 864.635,81.8093 872.261,81.834 879.888,81.8576 887.515,81.8801 895.142,81.9017 
  902.769,81.9223 910.396,81.942 918.023,81.9609 925.65,81.979 933.277,81.9964 940.903,82.0131 948.53,82.0292 956.157,82.0447 963.784,82.0597 971.411,82.074 
  979.038,82.0879 986.665,82.1013 994.292,82.1143 1001.92,82.1268 1009.55,82.1389 1017.17,82.1506 1024.8,82.162 1032.43,82.173 1040.05,82.1837 1047.68,82.194 
  1055.31,82.2041 1062.93,82.2138 1070.56,82.2233 1078.19,82.2325 1085.81,82.2415 1093.44,82.2502 1101.07,82.2587 1108.7,82.267 1116.32,82.2751 1123.95,82.283 
  1131.58,82.2906 1139.2,82.2981 1146.83,82.3054 1154.46,82.3125 1162.08,82.3195 1169.71,82.3263 1177.34,82.333 1184.96,82.3395 1192.59,82.3458 1200.22,82.3521 
  1207.84,82.3581 1215.47,82.3641 1223.1,82.37 1230.73,82.3757 1238.35,82.3813 1245.98,82.3868 1253.61,82.3922 1261.23,82.3975 1268.86,82.4027 1276.49,82.4077 
  1284.11,82.4127 1291.74,82.4177 1299.37,82.4225 1306.99,82.4272 1314.62,82.4319 1322.25,82.4364 1329.88,82.4409 1337.5,82.4454 1345.13,82.4497 1352.76,82.454 
  
  "/>
<polyline clip-path="url(#clip912)" style="stroke:#2000d4; stroke-linecap:butt; stroke-linejoin:round; stroke-width:16; stroke-opacity:1; fill:none" stroke-dasharray="64, 40" points="
  208.721,489.913 216.348,489.913 223.975,489.913 231.602,489.913 239.229,489.913 246.856,489.913 254.483,489.913 262.11,489.913 269.737,489.913 277.363,489.913 
  284.99,489.913 292.617,489.913 300.244,489.913 307.871,489.913 315.498,489.912 323.125,489.912 330.752,489.912 338.379,489.912 346.006,489.912 353.632,489.912 
  361.259,489.912 368.886,489.912 376.513,489.912 384.14,489.912 391.767,489.911 399.394,489.911 407.021,489.911 414.648,489.911 422.274,489.911 429.901,489.91 
  437.528,489.91 445.155,489.91 452.782,489.909 460.409,489.909 468.036,489.908 475.663,489.908 483.29,489.908 490.917,489.907 498.543,489.907 506.17,489.907 
  513.797,489.906 521.424,489.906 529.051,489.905 536.678,489.905 544.305,489.905 551.932,489.904 559.559,489.904 567.186,489.904 574.812,489.903 582.439,489.903 
  590.066,489.902 597.693,489.902 605.32,489.902 612.947,489.901 620.574,489.901 628.201,489.9 635.828,489.9 643.454,489.9 651.081,489.899 658.708,489.899 
  666.335,489.898 673.962,489.898 681.589,489.897 689.216,489.897 696.843,489.897 704.47,489.896 712.097,489.896 719.723,489.895 727.35,489.895 734.977,489.895 
  742.604,489.894 750.231,489.894 757.858,489.893 765.485,489.893 773.112,489.892 780.739,489.892 788.366,489.892 795.992,489.891 803.619,489.891 811.246,489.89 
  818.873,489.89 826.5,489.89 834.127,489.889 841.754,489.889 849.381,489.888 857.008,489.888 864.635,489.887 872.261,489.887 879.888,489.887 887.515,489.886 
  895.142,489.886 902.769,489.885 910.396,489.885 918.023,489.884 925.65,489.884 933.277,489.884 940.903,489.883 948.53,489.883 956.157,489.882 963.784,489.882 
  971.411,489.881 979.038,489.881 986.665,489.881 994.292,489.88 1001.92,489.88 1009.55,489.879 1017.17,489.879 1024.8,489.878 1032.43,489.878 1040.05,489.878 
  1047.68,489.877 1055.31,489.877 1062.93,489.876 1070.56,489.876 1078.19,489.875 1085.81,489.875 1093.44,489.875 1101.07,489.874 1108.7,489.874 1116.32,489.873 
  1123.95,489.873 1131.58,489.872 1139.2,489.872 1146.83,489.872 1154.46,489.871 1162.08,489.871 1169.71,489.87 1177.34,489.87 1184.96,489.869 1192.59,489.869 
  1200.22,489.869 1207.84,489.868 1215.47,489.868 1223.1,489.867 1230.73,489.867 1238.35,489.866 1245.98,489.866 1253.61,489.866 1261.23,489.865 1268.86,489.865 
  1276.49,489.864 1284.11,489.864 1291.74,489.863 1299.37,489.863 1306.99,489.863 1314.62,489.862 1322.25,489.862 1329.88,489.861 1337.5,489.861 1345.13,489.86 
  1352.76,489.86 
  "/>
<polyline clip-path="url(#clip912)" style="stroke:#ff221c; stroke-linecap:butt; stroke-linejoin:round; stroke-width:16; stroke-opacity:1; fill:none" points="
  208.721,489.913 216.348,489.909 223.975,489.903 231.602,489.894 239.229,489.879 246.856,489.854 254.483,489.81 262.11,489.737 269.737,489.614 277.363,489.411 
  284.99,489.087 292.617,488.597 300.244,487.907 307.871,487.029 315.498,486.036 323.125,485.035 330.752,484.095 338.379,483.197 346.006,482.233 353.632,481.033 
  361.259,479.392 368.886,477.109 376.513,474.045 384.14,470.153 391.767,465.478 399.394,460.107 407.021,454.136 414.648,447.646 422.274,440.686 429.901,433.254 
  437.528,425.29 445.155,416.682 452.782,407.282 460.409,396.926 468.036,385.458 475.663,372.757 483.29,358.761 490.917,343.508 498.543,327.154 506.17,309.989 
  513.797,292.418 521.424,274.918 529.051,257.97 536.678,241.993 544.305,227.291 551.932,214.038 559.559,202.286 567.186,191.993 574.812,183.054 582.439,175.331 
  590.066,168.676 597.693,162.943 605.32,157.997 612.947,153.72 620.574,150.009 628.201,146.775 635.828,143.946 643.454,141.459 651.081,139.264 658.708,137.316 
  666.335,135.582 673.962,134.029 681.589,132.634 689.216,131.376 696.843,130.237 704.47,129.202 712.097,128.258 719.723,127.394 727.35,126.601 734.977,125.872 
  742.604,125.199 750.231,124.576 757.858,123.999 765.485,123.462 773.112,122.961 780.739,122.494 788.366,122.057 795.992,121.648 803.619,121.263 811.246,120.902 
  818.873,120.561 826.5,120.24 834.127,119.936 841.754,119.648 849.381,119.376 857.008,119.118 864.635,118.873 872.261,118.639 879.888,118.417 887.515,118.206 
  895.142,118.004 902.769,117.811 910.396,117.627 918.023,117.45 925.65,117.281 933.277,117.12 940.903,116.964 948.53,116.816 956.157,116.672 963.784,116.535 
  971.411,116.402 979.038,116.275 986.665,116.152 994.292,116.034 1001.92,115.92 1009.55,115.81 1017.17,115.703 1024.8,115.601 1032.43,115.501 1040.05,115.405 
  1047.68,115.312 1055.31,115.222 1062.93,115.135 1070.56,115.05 1078.19,114.968 1085.81,114.889 1093.44,114.812 1101.07,114.737 1108.7,114.664 1116.32,114.593 
  1123.95,114.525 1131.58,114.458 1139.2,114.393 1146.83,114.33 1154.46,114.268 1162.08,114.208 1169.71,114.15 1177.34,114.093 1184.96,114.037 1192.59,113.983 
  1200.22,113.931 1207.84,113.879 1215.47,113.829 1223.1,113.78 1230.73,113.732 1238.35,113.685 1245.98,113.64 1253.61,113.595 1261.23,113.551 1268.86,113.509 
  1276.49,113.467 1284.11,113.426 1291.74,113.386 1299.37,113.347 1306.99,113.309 1314.62,113.272 1322.25,113.235 1329.88,113.199 1337.5,113.164 1345.13,113.129 
  1352.76,113.096 
  "/>
<path clip-path="url(#clip910)" d="
M201.094 503.236 L1352.76 503.236 L1352.76 47.2441 L201.094 47.2441  Z
  " fill="#000000" fill-rule="evenodd" fill-opacity="0"/>
<path clip-path="url(#clip910)" d="M201.094 529.085 Q196.581 529.085 194.295 533.541 Q192.038 537.968 192.038 546.88 Q192.038 555.763 194.295 560.219 Q196.581 564.646 201.094 564.646 Q205.637 564.646 207.894 560.219 Q210.18 555.763 210.18 546.88 Q210.18 537.968 207.894 533.541 Q205.637 529.085 201.094 529.085 M201.094 524.455 Q208.357 524.455 212.177 530.213 Q216.025 535.942 216.025 546.88 Q216.025 557.788 212.177 563.546 Q208.357 569.276 201.094 569.276 Q193.832 569.276 189.983 563.546 Q186.164 557.788 186.164 546.88 Q186.164 535.942 189.983 530.213 Q193.832 524.455 201.094 524.455 Z" fill="#000000" fill-rule="evenodd" fill-opacity="1" /><path clip-path="url(#clip910)" d="M550.813 525.236 L573.759 525.236 L573.759 530.155 L556.166 530.155 L556.166 540.746 Q557.439 540.312 558.713 540.109 Q559.986 539.878 561.259 539.878 Q568.493 539.878 572.717 543.842 Q576.942 547.806 576.942 554.577 Q576.942 561.55 572.601 565.427 Q568.261 569.276 560.362 569.276 Q557.642 569.276 554.806 568.813 Q552 568.35 548.99 567.424 L548.99 561.55 Q551.595 562.968 554.372 563.662 Q557.15 564.357 560.246 564.357 Q565.252 564.357 568.174 561.724 Q571.097 559.09 571.097 554.577 Q571.097 550.063 568.174 547.43 Q565.252 544.797 560.246 544.797 Q557.902 544.797 555.559 545.317 Q553.244 545.838 550.813 546.938 L550.813 525.236 Z" fill="#000000" fill-rule="evenodd" fill-opacity="1" /><path clip-path="url(#clip910)" d="M600.958 529.085 Q596.444 529.085 594.158 533.541 Q591.901 537.968 591.901 546.88 Q591.901 555.763 594.158 560.219 Q596.444 564.646 600.958 564.646 Q605.501 564.646 607.757 560.219 Q610.043 555.763 610.043 546.88 Q610.043 537.968 607.757 533.541 Q605.501 529.085 600.958 529.085 M600.958 524.455 Q608.22 524.455 612.04 530.213 Q615.888 535.942 615.888 546.88 Q615.888 557.788 612.04 563.546 Q608.22 569.276 600.958 569.276 Q593.695 569.276 589.847 563.546 Q586.027 557.788 586.027 546.88 Q586.027 535.942 589.847 530.213 Q593.695 524.455 600.958 524.455 Z" fill="#000000" fill-rule="evenodd" fill-opacity="1" /><path clip-path="url(#clip910)" d="M913.293 563.517 L922.841 563.517 L922.841 530.56 L912.453 532.644 L912.453 527.32 L922.783 525.236 L928.628 525.236 L928.628 563.517 L938.177 563.517 L938.177 568.436 L913.293 568.436 L913.293 563.517 Z" fill="#000000" fill-rule="evenodd" fill-opacity="1" /><path clip-path="url(#clip910)" d="M962.482 529.085 Q957.968 529.085 955.682 533.541 Q953.425 537.968 953.425 546.88 Q953.425 555.763 955.682 560.219 Q957.968 564.646 962.482 564.646 Q967.025 564.646 969.282 560.219 Q971.568 555.763 971.568 546.88 Q971.568 537.968 969.282 533.541 Q967.025 529.085 962.482 529.085 M962.482 524.455 Q969.745 524.455 973.564 530.213 Q977.413 535.942 977.413 546.88 Q977.413 557.788 973.564 563.546 Q969.745 569.276 962.482 569.276 Q955.219 569.276 951.371 563.546 Q947.552 557.788 947.552 546.88 Q947.552 535.942 951.371 530.213 Q955.219 524.455 962.482 524.455 Z" fill="#000000" fill-rule="evenodd" fill-opacity="1" /><path clip-path="url(#clip910)" d="M1000.18 529.085 Q995.671 529.085 993.385 533.541 Q991.128 537.968 991.128 546.88 Q991.128 555.763 993.385 560.219 Q995.671 564.646 1000.18 564.646 Q1004.73 564.646 1006.98 560.219 Q1009.27 555.763 1009.27 546.88 Q1009.27 537.968 1006.98 533.541 Q1004.73 529.085 1000.18 529.085 M1000.18 524.455 Q1007.45 524.455 1011.27 530.213 Q1015.11 535.942 1015.11 546.88 Q1015.11 557.788 1011.27 563.546 Q1007.45 569.276 1000.18 569.276 Q992.922 569.276 989.073 563.546 Q985.254 557.788 985.254 546.88 Q985.254 535.942 989.073 530.213 Q992.922 524.455 1000.18 524.455 Z" fill="#000000" fill-rule="evenodd" fill-opacity="1" /><path clip-path="url(#clip910)" d="M1294.64 563.517 L1304.19 563.517 L1304.19 530.56 L1293.8 532.644 L1293.8 527.32 L1304.13 525.236 L1309.97 525.236 L1309.97 563.517 L1319.52 563.517 L1319.52 568.436 L1294.64 568.436 L1294.64 563.517 Z" fill="#000000" fill-rule="evenodd" fill-opacity="1" /><path clip-path="url(#clip910)" d="M1331.38 525.236 L1354.33 525.236 L1354.33 530.155 L1336.74 530.155 L1336.74 540.746 Q1338.01 540.312 1339.28 540.109 Q1340.56 539.878 1341.83 539.878 Q1349.06 539.878 1353.29 543.842 Q1357.51 547.806 1357.51 554.577 Q1357.51 561.55 1353.17 565.427 Q1348.83 569.276 1340.93 569.276 Q1338.21 569.276 1335.38 568.813 Q1332.57 568.35 1329.56 567.424 L1329.56 561.55 Q1332.17 562.968 1334.94 563.662 Q1337.72 564.357 1340.82 564.357 Q1345.82 564.357 1348.75 561.724 Q1351.67 559.09 1351.67 554.577 Q1351.67 550.063 1348.75 547.43 Q1345.82 544.797 1340.82 544.797 Q1338.47 544.797 1336.13 545.317 Q1333.82 545.838 1331.38 546.938 L1331.38 525.236 Z" fill="#000000" fill-rule="evenodd" fill-opacity="1" /><path clip-path="url(#clip910)" d="M1381.53 529.085 Q1377.02 529.085 1374.73 533.541 Q1372.47 537.968 1372.47 546.88 Q1372.47 555.763 1374.73 560.219 Q1377.02 564.646 1381.53 564.646 Q1386.07 564.646 1388.33 560.219 Q1390.61 555.763 1390.61 546.88 Q1390.61 537.968 1388.33 533.541 Q1386.07 529.085 1381.53 529.085 M1381.53 524.455 Q1388.79 524.455 1392.61 530.213 Q1396.46 535.942 1396.46 546.88 Q1396.46 557.788 1392.61 563.546 Q1388.79 569.276 1381.53 569.276 Q1374.27 569.276 1370.42 563.546 Q1366.6 557.788 1366.6 546.88 Q1366.6 535.942 1370.42 530.213 Q1374.27 524.455 1381.53 524.455 Z" fill="#000000" fill-rule="evenodd" fill-opacity="1" /><polyline clip-path="url(#clip910)" style="stroke:#000000; stroke-linecap:butt; stroke-linejoin:round; stroke-width:4; stroke-opacity:1; fill:none" points="
  1352.76,503.236 1352.76,47.2441 
  "/>
<polyline clip-path="url(#clip910)" style="stroke:#000000; stroke-linecap:butt; stroke-linejoin:round; stroke-width:4; stroke-opacity:1; fill:none" points="
  1352.76,69.4145 1333.86,69.4145 
  "/>
<polyline clip-path="url(#clip910)" style="stroke:#000000; stroke-linecap:butt; stroke-linejoin:round; stroke-width:4; stroke-opacity:1; fill:none" points="
  1352.76,174.644 1333.86,174.644 
  "/>
<polyline clip-path="url(#clip910)" style="stroke:#000000; stroke-linecap:butt; stroke-linejoin:round; stroke-width:4; stroke-opacity:1; fill:none" points="
  1352.76,279.873 1333.86,279.873 
  "/>
<polyline clip-path="url(#clip910)" style="stroke:#000000; stroke-linecap:butt; stroke-linejoin:round; stroke-width:4; stroke-opacity:1; fill:none" points="
  1352.76,385.102 1333.86,385.102 
  "/>
<polyline clip-path="url(#clip910)" style="stroke:#000000; stroke-linecap:butt; stroke-linejoin:round; stroke-width:4; stroke-opacity:1; fill:none" points="
  1352.76,490.331 1333.86,490.331 
  "/>
<path clip-path="url(#clip910)" d="M1374.6 94.155 L1384.14 94.155 L1384.14 61.198 L1373.76 63.2814 L1373.76 57.9573 L1384.09 55.874 L1389.93 55.874 L1389.93 94.155 L1399.48 94.155 L1399.48 99.074 L1374.6 99.074 L1374.6 94.155 Z" fill="#000000" fill-rule="evenodd" fill-opacity="1" /><path clip-path="url(#clip910)" d="M1423.78 59.7224 Q1419.27 59.7224 1416.98 64.1784 Q1414.73 68.6054 1414.73 77.5174 Q1414.73 86.4005 1416.98 90.8565 Q1419.27 95.2835 1423.78 95.2835 Q1428.33 95.2835 1430.58 90.8565 Q1432.87 86.4005 1432.87 77.5174 Q1432.87 68.6054 1430.58 64.1784 Q1428.33 59.7224 1423.78 59.7224 M1423.78 55.0928 Q1431.05 55.0928 1434.87 60.8508 Q1438.72 66.58 1438.72 77.5174 Q1438.72 88.4259 1434.87 94.184 Q1431.05 99.9131 1423.78 99.9131 Q1416.52 99.9131 1412.67 94.184 Q1408.85 88.4259 1408.85 77.5174 Q1408.85 66.58 1412.67 60.8508 Q1416.52 55.0928 1423.78 55.0928 Z" fill="#000000" fill-rule="evenodd" fill-opacity="1" /><path clip-path="url(#clip910)" d="M1450.85 32.8378 Q1447.18 32.8378 1445.32 36.4583 Q1443.49 40.0553 1443.49 47.2963 Q1443.49 54.5137 1445.32 58.1342 Q1447.18 61.7312 1450.85 61.7312 Q1454.54 61.7312 1456.37 58.1342 Q1458.23 54.5137 1458.23 47.2963 Q1458.23 40.0553 1456.37 36.4583 Q1454.54 32.8378 1450.85 32.8378 M1450.85 29.0762 Q1456.75 29.0762 1459.85 33.7547 Q1462.98 38.4096 1462.98 47.2963 Q1462.98 56.1594 1459.85 60.8379 Q1456.75 65.4928 1450.85 65.4928 Q1444.95 65.4928 1441.82 60.8379 Q1438.72 56.1594 1438.72 47.2963 Q1438.72 38.4096 1441.82 33.7547 Q1444.95 29.0762 1450.85 29.0762 Z" fill="#000000" fill-rule="evenodd" fill-opacity="1" /><path clip-path="url(#clip910)" d="M1374.6 199.384 L1384.14 199.384 L1384.14 166.427 L1373.76 168.51 L1373.76 163.186 L1384.09 161.103 L1389.93 161.103 L1389.93 199.384 L1399.48 199.384 L1399.48 204.303 L1374.6 204.303 L1374.6 199.384 Z" fill="#000000" fill-rule="evenodd" fill-opacity="1" /><path clip-path="url(#clip910)" d="M1423.78 164.951 Q1419.27 164.951 1416.98 169.407 Q1414.73 173.835 1414.73 182.747 Q1414.73 191.63 1416.98 196.086 Q1419.27 200.513 1423.78 200.513 Q1428.33 200.513 1430.58 196.086 Q1432.87 191.63 1432.87 182.747 Q1432.87 173.835 1430.58 169.407 Q1428.33 164.951 1423.78 164.951 M1423.78 160.322 Q1431.05 160.322 1434.87 166.08 Q1438.72 171.809 1438.72 182.747 Q1438.72 193.655 1434.87 199.413 Q1431.05 205.142 1423.78 205.142 Q1416.52 205.142 1412.67 199.413 Q1408.85 193.655 1408.85 182.747 Q1408.85 171.809 1412.67 166.08 Q1416.52 160.322 1423.78 160.322 Z" fill="#000000" fill-rule="evenodd" fill-opacity="1" /><path clip-path="url(#clip910)" d="M1438.72 152.949 L1468.85 152.949 L1468.85 156.945 L1438.72 156.945 L1438.72 152.949 Z" fill="#000000" fill-rule="evenodd" fill-opacity="1" /><path clip-path="url(#clip910)" d="M1483.2 166.043 L1499.77 166.043 L1499.77 170.04 L1477.48 170.04 L1477.48 166.043 Q1480.19 163.246 1484.84 158.544 Q1489.52 153.818 1490.72 152.455 Q1493 149.892 1493.89 148.129 Q1494.81 146.342 1494.81 144.626 Q1494.81 141.828 1492.83 140.065 Q1490.88 138.302 1487.73 138.302 Q1485.5 138.302 1483.01 139.078 Q1480.54 139.854 1477.72 141.429 L1477.72 136.633 Q1480.59 135.481 1483.08 134.893 Q1485.57 134.305 1487.64 134.305 Q1493.09 134.305 1496.34 137.032 Q1499.58 139.76 1499.58 144.321 Q1499.58 146.483 1498.76 148.435 Q1497.96 150.362 1495.82 152.996 Q1495.23 153.677 1492.08 156.945 Q1488.93 160.19 1483.2 166.043 Z" fill="#000000" fill-rule="evenodd" fill-opacity="1" /><path clip-path="url(#clip910)" d="M1374.6 304.613 L1384.14 304.613 L1384.14 271.656 L1373.76 273.74 L1373.76 268.416 L1384.09 266.332 L1389.93 266.332 L1389.93 304.613 L1399.48 304.613 L1399.48 309.532 L1374.6 309.532 L1374.6 304.613 Z" fill="#000000" fill-rule="evenodd" fill-opacity="1" /><path clip-path="url(#clip910)" d="M1423.78 270.181 Q1419.27 270.181 1416.98 274.637 Q1414.73 279.064 1414.73 287.976 Q1414.73 296.859 1416.98 301.315 Q1419.27 305.742 1423.78 305.742 Q1428.33 305.742 1430.58 301.315 Q1432.87 296.859 1432.87 287.976 Q1432.87 279.064 1430.58 274.637 Q1428.33 270.181 1423.78 270.181 M1423.78 265.551 Q1431.05 265.551 1434.87 271.309 Q1438.72 277.038 1438.72 287.976 Q1438.72 298.884 1434.87 304.642 Q1431.05 310.371 1423.78 310.371 Q1416.52 310.371 1412.67 304.642 Q1408.85 298.884 1408.85 287.976 Q1408.85 277.038 1412.67 271.309 Q1416.52 265.551 1423.78 265.551 Z" fill="#000000" fill-rule="evenodd" fill-opacity="1" /><path clip-path="url(#clip910)" d="M1438.72 258.178 L1468.85 258.178 L1468.85 262.174 L1438.72 262.174 L1438.72 258.178 Z" fill="#000000" fill-rule="evenodd" fill-opacity="1" /><path clip-path="url(#clip910)" d="M1492.15 244.307 L1480.16 263.044 L1492.15 263.044 L1492.15 244.307 M1490.91 240.169 L1496.88 240.169 L1496.88 263.044 L1501.89 263.044 L1501.89 266.994 L1496.88 266.994 L1496.88 275.269 L1492.15 275.269 L1492.15 266.994 L1476.31 266.994 L1476.31 262.409 L1490.91 240.169 Z" fill="#000000" fill-rule="evenodd" fill-opacity="1" /><path clip-path="url(#clip910)" d="M1374.6 409.842 L1384.14 409.842 L1384.14 376.885 L1373.76 378.969 L1373.76 373.645 L1384.09 371.561 L1389.93 371.561 L1389.93 409.842 L1399.48 409.842 L1399.48 414.761 L1374.6 414.761 L1374.6 409.842 Z" fill="#000000" fill-rule="evenodd" fill-opacity="1" /><path clip-path="url(#clip910)" d="M1423.78 375.41 Q1419.27 375.41 1416.98 379.866 Q1414.73 384.293 1414.73 393.205 Q1414.73 402.088 1416.98 406.544 Q1419.27 410.971 1423.78 410.971 Q1428.33 410.971 1430.58 406.544 Q1432.87 402.088 1432.87 393.205 Q1432.87 384.293 1430.58 379.866 Q1428.33 375.41 1423.78 375.41 M1423.78 370.78 Q1431.05 370.78 1434.87 376.538 Q1438.72 382.267 1438.72 393.205 Q1438.72 404.113 1434.87 409.871 Q1431.05 415.6 1423.78 415.6 Q1416.52 415.6 1412.67 409.871 Q1408.85 404.113 1408.85 393.205 Q1408.85 382.267 1412.67 376.538 Q1416.52 370.78 1423.78 370.78 Z" fill="#000000" fill-rule="evenodd" fill-opacity="1" /><path clip-path="url(#clip910)" d="M1438.72 363.407 L1468.85 363.407 L1468.85 367.403 L1438.72 367.403 L1438.72 363.407 Z" fill="#000000" fill-rule="evenodd" fill-opacity="1" /><path clip-path="url(#clip910)" d="M1489.85 361.056 Q1486.65 361.056 1484.77 363.242 Q1482.91 365.429 1482.91 369.237 Q1482.91 373.022 1484.77 375.232 Q1486.65 377.419 1489.85 377.419 Q1493.05 377.419 1494.9 375.232 Q1496.78 373.022 1496.78 369.237 Q1496.78 365.429 1494.9 363.242 Q1493.05 361.056 1489.85 361.056 M1499.28 346.174 L1499.28 350.5 Q1497.49 349.654 1495.66 349.207 Q1493.85 348.76 1492.06 348.76 Q1487.36 348.76 1484.86 351.934 Q1482.4 355.108 1482.04 361.526 Q1483.43 359.481 1485.52 358.399 Q1487.62 357.294 1490.13 357.294 Q1495.42 357.294 1498.48 360.515 Q1501.56 363.712 1501.56 369.237 Q1501.56 374.644 1498.36 377.912 Q1495.16 381.18 1489.85 381.18 Q1483.76 381.18 1480.54 376.525 Q1477.32 371.847 1477.32 362.984 Q1477.32 354.661 1481.27 349.724 Q1485.22 344.764 1491.87 344.764 Q1493.66 344.764 1495.47 345.116 Q1497.3 345.469 1499.28 346.174 Z" fill="#000000" fill-rule="evenodd" fill-opacity="1" /><path clip-path="url(#clip910)" d="M1374.6 515.072 L1384.14 515.072 L1384.14 482.115 L1373.76 484.198 L1373.76 478.874 L1384.09 476.791 L1389.93 476.791 L1389.93 515.072 L1399.48 515.072 L1399.48 519.991 L1374.6 519.991 L1374.6 515.072 Z" fill="#000000" fill-rule="evenodd" fill-opacity="1" /><path clip-path="url(#clip910)" d="M1423.78 480.639 Q1419.27 480.639 1416.98 485.095 Q1414.73 489.522 1414.73 498.434 Q1414.73 507.317 1416.98 511.773 Q1419.27 516.2 1423.78 516.2 Q1428.33 516.2 1430.58 511.773 Q1432.87 507.317 1432.87 498.434 Q1432.87 489.522 1430.58 485.095 Q1428.33 480.639 1423.78 480.639 M1423.78 476.009 Q1431.05 476.009 1434.87 481.767 Q1438.72 487.496 1438.72 498.434 Q1438.72 509.342 1434.87 515.1 Q1431.05 520.83 1423.78 520.83 Q1416.52 520.83 1412.67 515.1 Q1408.85 509.342 1408.85 498.434 Q1408.85 487.496 1412.67 481.767 Q1416.52 476.009 1423.78 476.009 Z" fill="#000000" fill-rule="evenodd" fill-opacity="1" /><path clip-path="url(#clip910)" d="M1438.72 468.636 L1468.85 468.636 L1468.85 472.633 L1438.72 472.633 L1438.72 468.636 Z" fill="#000000" fill-rule="evenodd" fill-opacity="1" /><path clip-path="url(#clip910)" d="M1489.26 469.059 Q1485.88 469.059 1483.92 470.869 Q1482 472.68 1482 475.853 Q1482 479.027 1483.92 480.837 Q1485.88 482.648 1489.26 482.648 Q1492.65 482.648 1494.6 480.837 Q1496.55 479.004 1496.55 475.853 Q1496.55 472.68 1494.6 470.869 Q1492.67 469.059 1489.26 469.059 M1484.51 467.037 Q1481.46 466.285 1479.74 464.193 Q1478.05 462.1 1478.05 459.091 Q1478.05 454.883 1481.03 452.438 Q1484.04 449.993 1489.26 449.993 Q1494.5 449.993 1497.49 452.438 Q1500.48 454.883 1500.48 459.091 Q1500.48 462.1 1498.76 464.193 Q1497.07 466.285 1494.03 467.037 Q1497.47 467.837 1499.37 470.164 Q1501.3 472.492 1501.3 475.853 Q1501.3 480.955 1498.17 483.682 Q1495.07 486.409 1489.26 486.409 Q1483.45 486.409 1480.33 483.682 Q1477.22 480.955 1477.22 475.853 Q1477.22 472.492 1479.15 470.164 Q1481.08 467.837 1484.51 467.037 M1482.77 459.538 Q1482.77 462.265 1484.46 463.793 Q1486.18 465.321 1489.26 465.321 Q1492.32 465.321 1494.03 463.793 Q1495.77 462.265 1495.77 459.538 Q1495.77 456.811 1494.03 455.282 Q1492.32 453.754 1489.26 453.754 Q1486.18 453.754 1484.46 455.282 Q1482.77 456.811 1482.77 459.538 Z" fill="#000000" fill-rule="evenodd" fill-opacity="1" /><polyline clip-path="url(#clip912)" style="stroke:#000000; stroke-linecap:butt; stroke-linejoin:round; stroke-width:16; stroke-opacity:1; fill:none" stroke-dasharray="8, 16" points="
  208.721,69.4145 216.348,69.4371 223.975,69.4593 231.602,69.4949 239.229,69.5559 246.856,69.6609 254.483,69.8413 262.11,70.1504 269.737,70.6763 277.363,71.5619 
  284.99,73.0283 292.617,75.3938 300.244,79.0685 307.871,84.504 315.498,92.1114 323.125,102.228 330.752,115.217 338.379,131.687 346.006,152.646 353.632,179.338 
  361.259,212.646 368.886,252.513 376.513,298.025 384.14,347.96 391.767,401.191 399.394,456.815 407.021,514.135 414.648,572.619 422.274,631.853 429.901,691.517 
  437.528,751.345 445.155,811.109 452.782,870.595 460.409,929.59 468.036,987.875 475.663,1045.22 483.29,1101.38 490.917,1156.11 498.543,1209.19 506.17,1260.41 
  513.797,1309.62 521.424,1356.74 529.051,1401.77 536.678,1444.78 544.305,1485.89 551.932,1525.26 559.559,1563.09 567.186,1599.56 574.812,1634.84 582.439,1669.11 
  590.066,1702.51 597.693,1735.17 605.32,1767.19 612.947,1798.67 620.574,1829.67 628.201,1860.28 635.828,1890.53 643.454,1920.47 651.081,1950.15 658.708,1979.6 
  666.335,2008.84 673.962,2037.89 681.589,2066.78 689.216,2095.52 696.843,2124.12 704.47,2152.61 712.097,2180.99 719.723,2209.27 727.35,2237.45 734.977,2265.56 
  742.604,2293.59 750.231,2321.54 757.858,2349.44 765.485,2377.27 773.112,2405.04 780.739,2432.77 788.366,2460.44 795.992,2488.07 803.619,2515.65 811.246,2543.2 
  818.873,2570.7 826.5,2598.17 834.127,2625.61 841.754,2653.01 849.381,2680.38 857.008,2707.73 864.635,2735.05 872.261,2762.34 879.888,2789.6 887.515,2816.85 
  895.142,2844.07 902.769,2871.26 910.396,2898.44 918.023,2925.6 925.65,2952.74 933.277,2979.86 940.903,3006.96 948.53,3034.05 956.157,3061.12 963.784,3088.17 
  971.411,3115.21 979.038,3142.24 986.665,3169.25 994.292,3196.25 1001.92,3223.23 1009.55,3250.2 1017.17,3277.16 1024.8,3304.11 1032.43,3331.05 1040.05,3357.98 
  1047.68,3384.89 1055.31,3411.8 1062.93,3438.69 1070.56,3465.57 1078.19,3492.45 1085.81,3519.32 1093.44,3546.17 1101.07,3573.02 1108.7,3599.86 1116.32,3626.69 
  1123.95,3653.51 1131.58,3680.33 1139.2,3707.14 1146.83,3733.94 1154.46,3760.73 1162.08,3787.52 1169.71,3814.29 1177.34,3841.07 1184.96,3867.83 1192.59,3894.59 
  1200.22,3921.34 1207.84,3948.09 1215.47,3974.83 1223.1,4001.56 1230.73,4028.29 1238.35,4055.01 1245.98,4081.73 1253.61,4108.44 1261.23,4135.14 1268.86,4161.84 
  1276.49,4188.54 1284.11,4215.23 1291.74,4241.91 1299.37,4268.59 1306.99,4295.26 1314.62,4321.93 1322.25,4348.6 1329.88,4375.26 1337.5,4401.92 1345.13,4428.57 
  1352.76,4455.22 
  "/>
</svg>
