<?xml version="1.0" encoding="utf-8"?>
<svg xmlns="http://www.w3.org/2000/svg" xmlns:xlink="http://www.w3.org/1999/xlink" width="350" height="150" viewBox="0 0 1400 600">
<defs>
  <clipPath id="clip390">
    <rect x="0" y="0" width="1400" height="600"/>
  </clipPath>
</defs>
<path clip-path="url(#clip390)" d="
M0 600 L1400 600 L1400 0 L0 0  Z
  " fill="#ffffff" fill-rule="evenodd" fill-opacity="1"/>
<defs>
  <clipPath id="clip391">
    <rect x="280" y="0" width="981" height="600"/>
  </clipPath>
</defs>
<path clip-path="url(#clip390)" d="
M201.094 503.236 L1194.88 503.236 L1194.88 47.2441 L201.094 47.2441  Z
  " fill="#ffffff" fill-rule="evenodd" fill-opacity="1"/>
<defs>
  <clipPath id="clip392">
    <rect x="201" y="47" width="995" height="457"/>
  </clipPath>
</defs>
<polyline clip-path="url(#clip390)" style="stroke:#000000; stroke-linecap:round; stroke-linejoin:round; stroke-width:4; stroke-opacity:1; fill:none" points="
  201.094,503.236 1194.88,503.236 
  "/>
<polyline clip-path="url(#clip390)" style="stroke:#000000; stroke-linecap:round; stroke-linejoin:round; stroke-width:4; stroke-opacity:1; fill:none" points="
  201.094,503.236 201.094,484.339 
  "/>
<polyline clip-path="url(#clip390)" style="stroke:#000000; stroke-linecap:round; stroke-linejoin:round; stroke-width:4; stroke-opacity:1; fill:none" points="
  530.162,503.236 530.162,484.339 
  "/>
<polyline clip-path="url(#clip390)" style="stroke:#000000; stroke-linecap:round; stroke-linejoin:round; stroke-width:4; stroke-opacity:1; fill:none" points="
  859.229,503.236 859.229,484.339 
  "/>
<polyline clip-path="url(#clip390)" style="stroke:#000000; stroke-linecap:round; stroke-linejoin:round; stroke-width:4; stroke-opacity:1; fill:none" points="
  1188.3,503.236 1188.3,484.339 
  "/>
<path clip-path="url(#clip390)" d="M201.094 529.085 Q196.581 529.085 194.295 533.541 Q192.038 537.968 192.038 546.88 Q192.038 555.763 194.295 560.219 Q196.581 564.646 201.094 564.646 Q205.637 564.646 207.894 560.219 Q210.18 555.763 210.18 546.88 Q210.18 537.968 207.894 533.541 Q205.637 529.085 201.094 529.085 M201.094 524.455 Q208.357 524.455 212.177 530.213 Q216.025 535.942 216.025 546.88 Q216.025 557.788 212.177 563.546 Q208.357 569.276 201.094 569.276 Q193.832 569.276 189.983 563.546 Q186.164 557.788 186.164 546.88 Q186.164 535.942 189.983 530.213 Q193.832 524.455 201.094 524.455 Z" fill="#000000" fill-rule="evenodd" fill-opacity="1" /><path clip-path="url(#clip390)" d="M498.536 525.236 L521.481 525.236 L521.481 530.155 L503.889 530.155 L503.889 540.746 Q505.162 540.312 506.435 540.109 Q507.708 539.878 508.981 539.878 Q516.215 539.878 520.44 543.842 Q524.664 547.806 524.664 554.577 Q524.664 561.55 520.324 565.427 Q515.984 569.276 508.084 569.276 Q505.365 569.276 502.529 568.813 Q499.722 568.35 496.713 567.424 L496.713 561.55 Q499.317 562.968 502.095 563.662 Q504.873 564.357 507.969 564.357 Q512.975 564.357 515.897 561.724 Q518.819 559.09 518.819 554.577 Q518.819 550.063 515.897 547.43 Q512.975 544.797 507.969 544.797 Q505.625 544.797 503.281 545.317 Q500.966 545.838 498.536 546.938 L498.536 525.236 Z" fill="#000000" fill-rule="evenodd" fill-opacity="1" /><path clip-path="url(#clip390)" d="M548.68 529.085 Q544.166 529.085 541.881 533.541 Q539.624 537.968 539.624 546.88 Q539.624 555.763 541.881 560.219 Q544.166 564.646 548.68 564.646 Q553.223 564.646 555.48 560.219 Q557.766 555.763 557.766 546.88 Q557.766 537.968 555.48 533.541 Q553.223 529.085 548.68 529.085 M548.68 524.455 Q555.943 524.455 559.762 530.213 Q563.611 535.942 563.611 546.88 Q563.611 557.788 559.762 563.546 Q555.943 569.276 548.68 569.276 Q541.418 569.276 537.569 563.546 Q533.75 557.788 533.75 546.88 Q533.75 535.942 537.569 530.213 Q541.418 524.455 548.68 524.455 Z" fill="#000000" fill-rule="evenodd" fill-opacity="1" /><path clip-path="url(#clip390)" d="M808.738 563.517 L818.286 563.517 L818.286 530.56 L807.899 532.644 L807.899 527.32 L818.228 525.236 L824.073 525.236 L824.073 563.517 L833.622 563.517 L833.622 568.436 L808.738 568.436 L808.738 563.517 Z" fill="#000000" fill-rule="evenodd" fill-opacity="1" /><path clip-path="url(#clip390)" d="M857.927 529.085 Q853.413 529.085 851.128 533.541 Q848.871 537.968 848.871 546.88 Q848.871 555.763 851.128 560.219 Q853.413 564.646 857.927 564.646 Q862.47 564.646 864.727 560.219 Q867.013 555.763 867.013 546.88 Q867.013 537.968 864.727 533.541 Q862.47 529.085 857.927 529.085 M857.927 524.455 Q865.19 524.455 869.009 530.213 Q872.858 535.942 872.858 546.88 Q872.858 557.788 869.009 563.546 Q865.19 569.276 857.927 569.276 Q850.665 569.276 846.816 563.546 Q842.997 557.788 842.997 546.88 Q842.997 535.942 846.816 530.213 Q850.665 524.455 857.927 524.455 Z" fill="#000000" fill-rule="evenodd" fill-opacity="1" /><path clip-path="url(#clip390)" d="M895.63 529.085 Q891.116 529.085 888.83 533.541 Q886.573 537.968 886.573 546.88 Q886.573 555.763 888.83 560.219 Q891.116 564.646 895.63 564.646 Q900.172 564.646 902.429 560.219 Q904.715 555.763 904.715 546.88 Q904.715 537.968 902.429 533.541 Q900.172 529.085 895.63 529.085 M895.63 524.455 Q902.892 524.455 906.712 530.213 Q910.56 535.942 910.56 546.88 Q910.56 557.788 906.712 563.546 Q902.892 569.276 895.63 569.276 Q888.367 569.276 884.519 563.546 Q880.699 557.788 880.699 546.88 Q880.699 535.942 884.519 530.213 Q888.367 524.455 895.63 524.455 Z" fill="#000000" fill-rule="evenodd" fill-opacity="1" /><path clip-path="url(#clip390)" d="M1137.81 563.517 L1147.35 563.517 L1147.35 530.56 L1136.97 532.644 L1136.97 527.32 L1147.3 525.236 L1153.14 525.236 L1153.14 563.517 L1162.69 563.517 L1162.69 568.436 L1137.81 568.436 L1137.81 563.517 Z" fill="#000000" fill-rule="evenodd" fill-opacity="1" /><path clip-path="url(#clip390)" d="M1174.55 525.236 L1197.5 525.236 L1197.5 530.155 L1179.91 530.155 L1179.91 540.746 Q1181.18 540.312 1182.45 540.109 Q1183.73 539.878 1185 539.878 Q1192.23 539.878 1196.46 543.842 Q1200.68 547.806 1200.68 554.577 Q1200.68 561.55 1196.34 565.427 Q1192 569.276 1184.1 569.276 Q1181.38 569.276 1178.55 568.813 Q1175.74 568.35 1172.73 567.424 L1172.73 561.55 Q1175.33 562.968 1178.11 563.662 Q1180.89 564.357 1183.99 564.357 Q1188.99 564.357 1191.91 561.724 Q1194.84 559.09 1194.84 554.577 Q1194.84 550.063 1191.91 547.43 Q1188.99 544.797 1183.99 544.797 Q1181.64 544.797 1179.3 545.317 Q1176.98 545.838 1174.55 546.938 L1174.55 525.236 Z" fill="#000000" fill-rule="evenodd" fill-opacity="1" /><path clip-path="url(#clip390)" d="M1224.7 529.085 Q1220.18 529.085 1217.9 533.541 Q1215.64 537.968 1215.64 546.88 Q1215.64 555.763 1217.9 560.219 Q1220.18 564.646 1224.7 564.646 Q1229.24 564.646 1231.5 560.219 Q1233.78 555.763 1233.78 546.88 Q1233.78 537.968 1231.5 533.541 Q1229.24 529.085 1224.7 529.085 M1224.7 524.455 Q1231.96 524.455 1235.78 530.213 Q1239.63 535.942 1239.63 546.88 Q1239.63 557.788 1235.78 563.546 Q1231.96 569.276 1224.7 569.276 Q1217.43 569.276 1213.59 563.546 Q1209.77 557.788 1209.77 546.88 Q1209.77 535.942 1213.59 530.213 Q1217.43 524.455 1224.7 524.455 Z" fill="#000000" fill-rule="evenodd" fill-opacity="1" /><polyline clip-path="url(#clip390)" style="stroke:#000000; stroke-linecap:round; stroke-linejoin:round; stroke-width:4; stroke-opacity:1; fill:none" points="
  201.094,503.236 201.094,47.2441 
  "/>
<polyline clip-path="url(#clip390)" style="stroke:#000000; stroke-linecap:round; stroke-linejoin:round; stroke-width:4; stroke-opacity:1; fill:none" points="
  201.094,489.913 219.992,489.913 
  "/>
<polyline clip-path="url(#clip390)" style="stroke:#000000; stroke-linecap:round; stroke-linejoin:round; stroke-width:4; stroke-opacity:1; fill:none" points="
  201.094,382.469 219.992,382.469 
  "/>
<polyline clip-path="url(#clip390)" style="stroke:#000000; stroke-linecap:round; stroke-linejoin:round; stroke-width:4; stroke-opacity:1; fill:none" points="
  201.094,275.025 219.992,275.025 
  "/>
<polyline clip-path="url(#clip390)" style="stroke:#000000; stroke-linecap:round; stroke-linejoin:round; stroke-width:4; stroke-opacity:1; fill:none" points="
  201.094,167.581 219.992,167.581 
  "/>
<polyline clip-path="url(#clip390)" style="stroke:#000000; stroke-linecap:round; stroke-linejoin:round; stroke-width:4; stroke-opacity:1; fill:none" points="
  201.094,60.1374 219.992,60.1374 
  "/>
<path clip-path="url(#clip390)" d="M70.9226 472.162 Q66.4087 472.162 64.1229 476.618 Q61.8659 481.045 61.8659 489.957 Q61.8659 498.84 64.1229 503.296 Q66.4087 507.723 70.9226 507.723 Q75.4654 507.723 77.7223 503.296 Q80.0082 498.84 80.0082 489.957 Q80.0082 481.045 77.7223 476.618 Q75.4654 472.162 70.9226 472.162 M70.9226 467.532 Q78.1853 467.532 82.0047 473.29 Q85.8531 479.019 85.8531 489.957 Q85.8531 500.865 82.0047 506.623 Q78.1853 512.353 70.9226 512.353 Q63.6599 512.353 59.8115 506.623 Q55.9921 500.865 55.9921 489.957 Q55.9921 479.019 59.8115 473.29 Q63.6599 467.532 70.9226 467.532 Z" fill="#000000" fill-rule="evenodd" fill-opacity="1" /><path clip-path="url(#clip390)" d="M96.125 504.164 L102.23 504.164 L102.23 511.513 L96.125 511.513 L96.125 504.164 Z" fill="#000000" fill-rule="evenodd" fill-opacity="1" /><path clip-path="url(#clip390)" d="M127.462 472.162 Q122.948 472.162 120.662 476.618 Q118.405 481.045 118.405 489.957 Q118.405 498.84 120.662 503.296 Q122.948 507.723 127.462 507.723 Q132.004 507.723 134.261 503.296 Q136.547 498.84 136.547 489.957 Q136.547 481.045 134.261 476.618 Q132.004 472.162 127.462 472.162 M127.462 467.532 Q134.724 467.532 138.544 473.29 Q142.392 479.019 142.392 489.957 Q142.392 500.865 138.544 506.623 Q134.724 512.353 127.462 512.353 Q120.199 512.353 116.351 506.623 Q112.531 500.865 112.531 489.957 Q112.531 479.019 116.351 473.29 Q120.199 467.532 127.462 467.532 Z" fill="#000000" fill-rule="evenodd" fill-opacity="1" /><path clip-path="url(#clip390)" d="M165.164 472.162 Q160.65 472.162 158.364 476.618 Q156.107 481.045 156.107 489.957 Q156.107 498.84 158.364 503.296 Q160.65 507.723 165.164 507.723 Q169.707 507.723 171.964 503.296 Q174.25 498.84 174.25 489.957 Q174.25 481.045 171.964 476.618 Q169.707 472.162 165.164 472.162 M165.164 467.532 Q172.427 467.532 176.246 473.29 Q180.094 479.019 180.094 489.957 Q180.094 500.865 176.246 506.623 Q172.427 512.353 165.164 512.353 Q157.901 512.353 154.053 506.623 Q150.234 500.865 150.234 489.957 Q150.234 479.019 154.053 473.29 Q157.901 467.532 165.164 467.532 Z" fill="#000000" fill-rule="evenodd" fill-opacity="1" /><path clip-path="url(#clip390)" d="M72.1668 364.718 Q67.6529 364.718 65.3671 369.174 Q63.1101 373.601 63.1101 382.513 Q63.1101 391.396 65.3671 395.852 Q67.6529 400.279 72.1668 400.279 Q76.7096 400.279 78.9665 395.852 Q81.2524 391.396 81.2524 382.513 Q81.2524 373.601 78.9665 369.174 Q76.7096 364.718 72.1668 364.718 M72.1668 360.088 Q79.4295 360.088 83.2489 365.846 Q87.0973 371.575 87.0973 382.513 Q87.0973 393.421 83.2489 399.179 Q79.4295 404.909 72.1668 404.909 Q64.9041 404.909 61.0558 399.179 Q57.2363 393.421 57.2363 382.513 Q57.2363 371.575 61.0558 365.846 Q64.9041 360.088 72.1668 360.088 Z" fill="#000000" fill-rule="evenodd" fill-opacity="1" /><path clip-path="url(#clip390)" d="M97.3692 396.72 L103.475 396.72 L103.475 404.069 L97.3692 404.069 L97.3692 396.72 Z" fill="#000000" fill-rule="evenodd" fill-opacity="1" /><path clip-path="url(#clip390)" d="M121.241 399.15 L141.64 399.15 L141.64 404.069 L114.209 404.069 L114.209 399.15 Q117.537 395.707 123.266 389.92 Q129.024 384.104 130.5 382.426 Q133.307 379.272 134.406 377.102 Q135.535 374.903 135.535 372.791 Q135.535 369.347 133.104 367.177 Q130.702 365.007 126.825 365.007 Q124.076 365.007 121.009 365.962 Q117.971 366.917 114.499 368.855 L114.499 362.953 Q118.029 361.535 121.096 360.812 Q124.163 360.088 126.709 360.088 Q133.422 360.088 137.415 363.445 Q141.408 366.801 141.408 372.414 Q141.408 375.076 140.396 377.478 Q139.412 379.851 136.779 383.091 Q136.055 383.931 132.178 387.953 Q128.301 391.946 121.241 399.15 Z" fill="#000000" fill-rule="evenodd" fill-opacity="1" /><path clip-path="url(#clip390)" d="M153.966 360.869 L176.912 360.869 L176.912 365.788 L159.319 365.788 L159.319 376.379 Q160.592 375.945 161.865 375.742 Q163.139 375.511 164.412 375.511 Q171.645 375.511 175.87 379.475 Q180.094 383.439 180.094 390.21 Q180.094 397.183 175.754 401.06 Q171.414 404.909 163.515 404.909 Q160.795 404.909 157.959 404.446 Q155.152 403.983 152.143 403.057 L152.143 397.183 Q154.747 398.601 157.525 399.295 Q160.303 399.99 163.399 399.99 Q168.405 399.99 171.327 397.356 Q174.25 394.723 174.25 390.21 Q174.25 385.696 171.327 383.063 Q168.405 380.429 163.399 380.429 Q161.055 380.429 158.711 380.95 Q156.397 381.471 153.966 382.571 L153.966 360.869 Z" fill="#000000" fill-rule="evenodd" fill-opacity="1" /><path clip-path="url(#clip390)" d="M70.9226 257.274 Q66.4087 257.274 64.1229 261.73 Q61.8659 266.157 61.8659 275.069 Q61.8659 283.952 64.1229 288.408 Q66.4087 292.835 70.9226 292.835 Q75.4654 292.835 77.7223 288.408 Q80.0082 283.952 80.0082 275.069 Q80.0082 266.157 77.7223 261.73 Q75.4654 257.274 70.9226 257.274 M70.9226 252.644 Q78.1853 252.644 82.0047 258.402 Q85.8531 264.131 85.8531 275.069 Q85.8531 285.977 82.0047 291.735 Q78.1853 297.464 70.9226 297.464 Q63.6599 297.464 59.8115 291.735 Q55.9921 285.977 55.9921 275.069 Q55.9921 264.131 59.8115 258.402 Q63.6599 252.644 70.9226 252.644 Z" fill="#000000" fill-rule="evenodd" fill-opacity="1" /><path clip-path="url(#clip390)" d="M96.125 289.276 L102.23 289.276 L102.23 296.625 L96.125 296.625 L96.125 289.276 Z" fill="#000000" fill-rule="evenodd" fill-opacity="1" /><path clip-path="url(#clip390)" d="M115.02 253.425 L137.965 253.425 L137.965 258.344 L120.373 258.344 L120.373 268.935 Q121.646 268.501 122.919 268.298 Q124.192 268.067 125.465 268.067 Q132.699 268.067 136.923 272.031 Q141.148 275.995 141.148 282.766 Q141.148 289.739 136.808 293.616 Q132.467 297.464 124.568 297.464 Q121.848 297.464 119.013 297.002 Q116.206 296.539 113.197 295.613 L113.197 289.739 Q115.801 291.157 118.579 291.851 Q121.356 292.546 124.452 292.546 Q129.458 292.546 132.381 289.912 Q135.303 287.279 135.303 282.766 Q135.303 278.252 132.381 275.619 Q129.458 272.985 124.452 272.985 Q122.109 272.985 119.765 273.506 Q117.45 274.027 115.02 275.127 L115.02 253.425 Z" fill="#000000" fill-rule="evenodd" fill-opacity="1" /><path clip-path="url(#clip390)" d="M165.164 257.274 Q160.65 257.274 158.364 261.73 Q156.107 266.157 156.107 275.069 Q156.107 283.952 158.364 288.408 Q160.65 292.835 165.164 292.835 Q169.707 292.835 171.964 288.408 Q174.25 283.952 174.25 275.069 Q174.25 266.157 171.964 261.73 Q169.707 257.274 165.164 257.274 M165.164 252.644 Q172.427 252.644 176.246 258.402 Q180.094 264.131 180.094 275.069 Q180.094 285.977 176.246 291.735 Q172.427 297.464 165.164 297.464 Q157.901 297.464 154.053 291.735 Q150.234 285.977 150.234 275.069 Q150.234 264.131 154.053 258.402 Q157.901 252.644 165.164 252.644 Z" fill="#000000" fill-rule="evenodd" fill-opacity="1" /><path clip-path="url(#clip390)" d="M72.1668 149.83 Q67.6529 149.83 65.3671 154.286 Q63.1101 158.713 63.1101 167.625 Q63.1101 176.508 65.3671 180.964 Q67.6529 185.391 72.1668 185.391 Q76.7096 185.391 78.9665 180.964 Q81.2524 176.508 81.2524 167.625 Q81.2524 158.713 78.9665 154.286 Q76.7096 149.83 72.1668 149.83 M72.1668 145.2 Q79.4295 145.2 83.2489 150.958 Q87.0973 156.687 87.0973 167.625 Q87.0973 178.533 83.2489 184.291 Q79.4295 190.02 72.1668 190.02 Q64.9041 190.02 61.0558 184.291 Q57.2363 178.533 57.2363 167.625 Q57.2363 156.687 61.0558 150.958 Q64.9041 145.2 72.1668 145.2 Z" fill="#000000" fill-rule="evenodd" fill-opacity="1" /><path clip-path="url(#clip390)" d="M97.3692 181.832 L103.475 181.832 L103.475 189.181 L97.3692 189.181 L97.3692 181.832 Z" fill="#000000" fill-rule="evenodd" fill-opacity="1" /><path clip-path="url(#clip390)" d="M114.73 145.981 L142.508 145.981 L142.508 148.47 L126.825 189.181 L120.72 189.181 L135.477 150.9 L114.73 150.9 L114.73 145.981 Z" fill="#000000" fill-rule="evenodd" fill-opacity="1" /><path clip-path="url(#clip390)" d="M153.966 145.981 L176.912 145.981 L176.912 150.9 L159.319 150.9 L159.319 161.491 Q160.592 161.057 161.865 160.854 Q163.139 160.623 164.412 160.623 Q171.645 160.623 175.87 164.587 Q180.094 168.551 180.094 175.321 Q180.094 182.295 175.754 186.172 Q171.414 190.02 163.515 190.02 Q160.795 190.02 157.959 189.558 Q155.152 189.095 152.143 188.169 L152.143 182.295 Q154.747 183.713 157.525 184.407 Q160.303 185.102 163.399 185.102 Q168.405 185.102 171.327 182.468 Q174.25 179.835 174.25 175.321 Q174.25 170.808 171.327 168.175 Q168.405 165.541 163.399 165.541 Q161.055 165.541 158.711 166.062 Q156.397 166.583 153.966 167.683 L153.966 145.981 Z" fill="#000000" fill-rule="evenodd" fill-opacity="1" /><path clip-path="url(#clip390)" d="M59.4354 76.8184 L68.984 76.8184 L68.984 43.8614 L58.5963 45.9447 L58.5963 40.6207 L68.9261 38.5374 L74.771 38.5374 L74.771 76.8184 L84.3195 76.8184 L84.3195 81.7374 L59.4354 81.7374 L59.4354 76.8184 Z" fill="#000000" fill-rule="evenodd" fill-opacity="1" /><path clip-path="url(#clip390)" d="M96.125 74.3879 L102.23 74.3879 L102.23 81.7374 L96.125 81.7374 L96.125 74.3879 Z" fill="#000000" fill-rule="evenodd" fill-opacity="1" /><path clip-path="url(#clip390)" d="M127.462 42.3857 Q122.948 42.3857 120.662 46.8417 Q118.405 51.2688 118.405 60.1808 Q118.405 69.0638 120.662 73.5198 Q122.948 77.9469 127.462 77.9469 Q132.004 77.9469 134.261 73.5198 Q136.547 69.0638 136.547 60.1808 Q136.547 51.2688 134.261 46.8417 Q132.004 42.3857 127.462 42.3857 M127.462 37.7561 Q134.724 37.7561 138.544 43.5142 Q142.392 49.2433 142.392 60.1808 Q142.392 71.0893 138.544 76.8474 Q134.724 82.5765 127.462 82.5765 Q120.199 82.5765 116.351 76.8474 Q112.531 71.0893 112.531 60.1808 Q112.531 49.2433 116.351 43.5142 Q120.199 37.7561 127.462 37.7561 Z" fill="#000000" fill-rule="evenodd" fill-opacity="1" /><path clip-path="url(#clip390)" d="M165.164 42.3857 Q160.65 42.3857 158.364 46.8417 Q156.107 51.2688 156.107 60.1808 Q156.107 69.0638 158.364 73.5198 Q160.65 77.9469 165.164 77.9469 Q169.707 77.9469 171.964 73.5198 Q174.25 69.0638 174.25 60.1808 Q174.25 51.2688 171.964 46.8417 Q169.707 42.3857 165.164 42.3857 M165.164 37.7561 Q172.427 37.7561 176.246 43.5142 Q180.094 49.2433 180.094 60.1808 Q180.094 71.0893 176.246 76.8474 Q172.427 82.5765 165.164 82.5765 Q157.901 82.5765 154.053 76.8474 Q150.234 71.0893 150.234 60.1808 Q150.234 49.2433 154.053 43.5142 Q157.901 37.7561 165.164 37.7561 Z" fill="#000000" fill-rule="evenodd" fill-opacity="1" /><polyline clip-path="url(#clip392)" style="stroke:#ff00ff; stroke-linecap:round; stroke-linejoin:round; stroke-width:16; stroke-opacity:1; fill:none" points="
  207.676,275.133 214.257,275.212 220.839,275.347 227.42,275.577 234.001,275.968 240.583,276.63 247.164,277.748 253.745,279.621 260.327,282.733 266.908,287.817 
  273.489,295.904 280.071,308.243 286.652,325.913 293.233,349.054 299.815,376.054 306.396,403.616 312.977,428.166 319.559,447.51 326.14,461.321 332.721,470.479 
  339.303,476.219 345.884,479.62 352.465,481.445 359.047,482.152 365.628,481.969 372.21,480.992 378.791,479.312 385.372,477.135 391.954,474.793 398.535,472.623 
  405.116,470.834 411.698,469.482 418.279,468.519 424.86,467.859 431.442,467.419 438.023,467.13 444.604,466.943 451.186,466.822 457.767,466.743 464.348,466.693 
  470.93,466.661 477.511,466.64 484.092,466.626 490.674,466.617 497.255,466.611 503.837,466.607 510.418,466.604 516.999,466.602 523.581,466.601 530.162,466.6 
  536.743,466.598 543.325,466.598 549.906,466.597 556.487,466.596 563.069,466.595 569.65,466.594 576.231,466.594 582.813,466.593 589.394,466.592 595.975,466.591 
  602.557,466.591 609.138,466.59 615.719,466.589 622.301,466.588 628.882,466.588 635.463,466.587 642.045,466.586 648.626,466.586 655.208,466.585 661.789,466.584 
  668.37,466.583 674.952,466.583 681.533,466.582 688.114,466.581 694.696,466.58 701.277,466.58 707.858,466.579 714.44,466.578 721.021,466.578 727.602,466.577 
  734.184,466.576 740.765,466.575 747.346,466.575 753.928,466.574 760.509,466.573 767.09,466.572 773.672,466.572 780.253,466.571 786.835,466.57 793.416,466.57 
  799.997,466.569 806.579,466.568 813.16,466.567 819.741,466.567 826.323,466.566 832.904,466.565 839.485,466.565 846.067,466.564 852.648,466.563 859.229,466.562 
  865.811,466.562 872.392,466.561 878.973,466.56 885.555,466.559 892.136,466.559 898.717,466.558 905.299,466.557 911.88,466.557 918.461,466.556 925.043,466.555 
  931.624,466.554 938.206,466.554 944.787,466.553 951.368,466.552 957.95,466.551 964.531,466.551 971.112,466.55 977.694,466.549 984.275,466.549 990.856,466.548 
  997.438,466.547 1004.02,466.546 1010.6,466.546 1017.18,466.545 1023.76,466.544 1030.34,466.544 1036.93,466.543 1043.51,466.542 1050.09,466.541 1056.67,466.541 
  1063.25,466.54 1069.83,466.539 1076.41,466.538 1083,466.538 1089.58,466.537 1096.16,466.536 1102.74,466.536 1109.32,466.535 1115.9,466.534 1122.48,466.533 
  1129.06,466.533 1135.65,466.532 1142.23,466.531 1148.81,466.53 1155.39,466.53 1161.97,466.529 1168.55,466.528 1175.13,466.528 1181.72,466.527 1188.3,466.526 
  1194.88,466.525 
  "/>
<polyline clip-path="url(#clip392)" style="stroke:#2000d4; stroke-linecap:round; stroke-linejoin:round; stroke-width:16; stroke-opacity:1; fill:none" stroke-dasharray="8, 16" points="
  207.676,489.913 214.257,489.913 220.839,489.913 227.42,489.913 234.001,489.913 240.583,489.913 247.164,489.913 253.745,489.913 260.327,489.913 266.908,489.913 
  273.489,489.913 280.071,489.912 286.652,489.911 293.233,489.911 299.815,489.91 306.396,489.909 312.977,489.908 319.559,489.907 326.14,489.906 332.721,489.906 
  339.303,489.905 345.884,489.905 352.465,489.904 359.047,489.904 365.628,489.903 372.21,489.903 378.791,489.902 385.372,489.902 391.954,489.901 398.535,489.901 
  405.116,489.901 411.698,489.9 418.279,489.9 424.86,489.899 431.442,489.899 438.023,489.898 444.604,489.898 451.186,489.898 457.767,489.897 464.348,489.897 
  470.93,489.896 477.511,489.896 484.092,489.895 490.674,489.895 497.255,489.895 503.837,489.894 510.418,489.894 516.999,489.893 523.581,489.893 530.162,489.892 
  536.743,489.892 543.325,489.892 549.906,489.891 556.487,489.891 563.069,489.89 569.65,489.89 576.231,489.89 582.813,489.889 589.394,489.889 595.975,489.888 
  602.557,489.888 609.138,489.887 615.719,489.887 622.301,489.887 628.882,489.886 635.463,489.886 642.045,489.885 648.626,489.885 655.208,489.884 661.789,489.884 
  668.37,489.884 674.952,489.883 681.533,489.883 688.114,489.882 694.696,489.882 701.277,489.881 707.858,489.881 714.44,489.881 721.021,489.88 727.602,489.88 
  734.184,489.879 740.765,489.879 747.346,489.878 753.928,489.878 760.509,489.878 767.09,489.877 773.672,489.877 780.253,489.876 786.835,489.876 793.416,489.875 
  799.997,489.875 806.579,489.875 813.16,489.874 819.741,489.874 826.323,489.873 832.904,489.873 839.485,489.872 846.067,489.872 852.648,489.872 859.229,489.871 
  865.811,489.871 872.392,489.87 878.973,489.87 885.555,489.869 892.136,489.869 898.717,489.869 905.299,489.868 911.88,489.868 918.461,489.867 925.043,489.867 
  931.624,489.866 938.206,489.866 944.787,489.866 951.368,489.865 957.95,489.865 964.531,489.864 971.112,489.864 977.694,489.863 984.275,489.863 990.856,489.863 
  997.438,489.862 1004.02,489.862 1010.6,489.861 1017.18,489.861 1023.76,489.861 1030.34,489.86 1036.93,489.86 1043.51,489.859 1050.09,489.859 1056.67,489.858 
  1063.25,489.858 1069.83,489.858 1076.41,489.857 1083,489.857 1089.58,489.856 1096.16,489.856 1102.74,489.855 1109.32,489.855 1115.9,489.855 1122.48,489.854 
  1129.06,489.854 1135.65,489.853 1142.23,489.853 1148.81,489.852 1155.39,489.852 1161.97,489.852 1168.55,489.851 1175.13,489.851 1181.72,489.85 1188.3,489.85 
  1194.88,489.849 
  "/>
<polyline clip-path="url(#clip392)" style="stroke:#008900; stroke-linecap:round; stroke-linejoin:round; stroke-width:16; stroke-opacity:1; fill:none" stroke-dasharray="64, 40" points="
  207.676,489.913 214.257,489.913 220.839,489.913 227.42,489.913 234.001,489.912 240.583,489.912 247.164,489.91 253.745,489.908 260.327,489.905 266.908,489.899 
  273.489,489.889 280.071,489.875 286.652,489.854 293.233,489.826 299.815,489.792 306.396,489.755 312.977,489.717 319.559,489.677 326.14,489.632 332.721,489.573 
  339.303,489.49 345.884,489.371 352.465,489.205 359.047,488.993 365.628,488.746 372.21,488.494 378.791,488.269 385.372,488.095 391.954,487.976 398.535,487.901 
  405.116,487.856 411.698,487.829 418.279,487.812 424.86,487.801 431.442,487.793 438.023,487.787 444.604,487.783 451.186,487.78 457.767,487.778 464.348,487.776 
  470.93,487.775 477.511,487.774 484.092,487.773 490.674,487.773 497.255,487.772 503.837,487.772 510.418,487.771 516.999,487.771 523.581,487.77 530.162,487.77 
  536.743,487.769 543.325,487.769 549.906,487.768 556.487,487.768 563.069,487.767 569.65,487.767 576.231,487.767 582.813,487.766 589.394,487.766 595.975,487.765 
  602.557,487.765 609.138,487.764 615.719,487.764 622.301,487.764 628.882,487.763 635.463,487.763 642.045,487.762 648.626,487.762 655.208,487.761 661.789,487.761 
  668.37,487.761 674.952,487.76 681.533,487.76 688.114,487.759 694.696,487.759 701.277,487.758 707.858,487.758 714.44,487.758 721.021,487.757 727.602,487.757 
  734.184,487.756 740.765,487.756 747.346,487.755 753.928,487.755 760.509,487.755 767.09,487.754 773.672,487.754 780.253,487.753 786.835,487.753 793.416,487.752 
  799.997,487.752 806.579,487.752 813.16,487.751 819.741,487.751 826.323,487.75 832.904,487.75 839.485,487.749 846.067,487.749 852.648,487.749 859.229,487.748 
  865.811,487.748 872.392,487.747 878.973,487.747 885.555,487.746 892.136,487.746 898.717,487.746 905.299,487.745 911.88,487.745 918.461,487.744 925.043,487.744 
  931.624,487.743 938.206,487.743 944.787,487.743 951.368,487.742 957.95,487.742 964.531,487.741 971.112,487.741 977.694,487.74 984.275,487.74 990.856,487.74 
  997.438,487.739 1004.02,487.739 1010.6,487.738 1017.18,487.738 1023.76,487.737 1030.34,487.737 1036.93,487.737 1043.51,487.736 1050.09,487.736 1056.67,487.735 
  1063.25,487.735 1069.83,487.734 1076.41,487.734 1083,487.734 1089.58,487.733 1096.16,487.733 1102.74,487.732 1109.32,487.732 1115.9,487.731 1122.48,487.731 
  1129.06,487.731 1135.65,487.73 1142.23,487.73 1148.81,487.729 1155.39,487.729 1161.97,487.728 1168.55,487.728 1175.13,487.728 1181.72,487.727 1188.3,487.727 
  1194.88,487.726 
  "/>
<polyline clip-path="url(#clip392)" style="stroke:#008900; stroke-linecap:round; stroke-linejoin:round; stroke-width:16; stroke-opacity:1; fill:none" stroke-dasharray="8, 16" points="
  207.676,489.913 214.257,489.913 220.839,489.913 227.42,489.913 234.001,489.913 240.583,489.912 247.164,489.911 253.745,489.909 260.327,489.906 266.908,489.901 
  273.489,489.893 280.071,489.881 286.652,489.864 293.233,489.842 299.815,489.816 306.396,489.788 312.977,489.764 319.559,489.743 326.14,489.725 332.721,489.71 
  339.303,489.694 345.884,489.676 352.465,489.654 359.047,489.628 365.628,489.598 372.21,489.57 378.791,489.544 385.372,489.525 391.954,489.51 398.535,489.5 
  405.116,489.494 411.698,489.489 418.279,489.486 424.86,489.484 431.442,489.482 438.023,489.481 444.604,489.479 451.186,489.479 457.767,489.478 464.348,489.477 
  470.93,489.477 477.511,489.476 484.092,489.476 490.674,489.475 497.255,489.475 503.837,489.474 510.418,489.474 516.999,489.473 523.581,489.473 530.162,489.473 
  536.743,489.472 543.325,489.472 549.906,489.471 556.487,489.471 563.069,489.47 569.65,489.47 576.231,489.47 582.813,489.469 589.394,489.469 595.975,489.468 
  602.557,489.468 609.138,489.467 615.719,489.467 622.301,489.467 628.882,489.466 635.463,489.466 642.045,489.465 648.626,489.465 655.208,489.464 661.789,489.464 
  668.37,489.464 674.952,489.463 681.533,489.463 688.114,489.462 694.696,489.462 701.277,489.461 707.858,489.461 714.44,489.461 721.021,489.46 727.602,489.46 
  734.184,489.459 740.765,489.459 747.346,489.458 753.928,489.458 760.509,489.458 767.09,489.457 773.672,489.457 780.253,489.456 786.835,489.456 793.416,489.455 
  799.997,489.455 806.579,489.455 813.16,489.454 819.741,489.454 826.323,489.453 832.904,489.453 839.485,489.452 846.067,489.452 852.648,489.452 859.229,489.451 
  865.811,489.451 872.392,489.45 878.973,489.45 885.555,489.449 892.136,489.449 898.717,489.449 905.299,489.448 911.88,489.448 918.461,489.447 925.043,489.447 
  931.624,489.446 938.206,489.446 944.787,489.445 951.368,489.445 957.95,489.445 964.531,489.444 971.112,489.444 977.694,489.443 984.275,489.443 990.856,489.442 
  997.438,489.442 1004.02,489.442 1010.6,489.441 1017.18,489.441 1023.76,489.44 1030.34,489.44 1036.93,489.439 1043.51,489.439 1050.09,489.439 1056.67,489.438 
  1063.25,489.438 1069.83,489.437 1076.41,489.437 1083,489.436 1089.58,489.436 1096.16,489.436 1102.74,489.435 1109.32,489.435 1115.9,489.434 1122.48,489.434 
  1129.06,489.433 1135.65,489.433 1142.23,489.433 1148.81,489.432 1155.39,489.432 1161.97,489.431 1168.55,489.431 1175.13,489.43 1181.72,489.43 1188.3,489.43 
  1194.88,489.429 
  "/>
<polyline clip-path="url(#clip392)" style="stroke:#2000d4; stroke-linecap:round; stroke-linejoin:round; stroke-width:16; stroke-opacity:1; fill:none" points="
  207.676,489.484 214.257,489.164 220.839,488.62 227.42,487.698 234.001,486.138 240.583,483.51 247.164,479.113 253.745,471.839 260.327,460.03 266.908,441.433 
  273.489,413.499 280.071,374.392 286.652,324.709 293.233,268.833 299.815,213.985 306.396,166.886 312.977,130.865 319.559,105.684 326.14,89.1667 332.721,78.7814 
  339.303,72.4264 345.884,68.6056 352.465,66.3381 359.047,65.0109 365.628,64.2511 372.21,63.8331 378.791,63.6179 385.372,63.517 391.954,63.4746 398.535,63.4589 
  405.116,63.4539 411.698,63.4528 418.279,63.453 424.86,63.4537 431.442,63.4545 438.023,63.4553 444.604,63.4561 451.186,63.457 457.767,63.4578 464.348,63.4587 
  470.93,63.4595 477.511,63.4604 484.092,63.4613 490.674,63.4621 497.255,63.463 503.837,63.4638 510.418,63.4647 516.999,63.4655 523.581,63.4664 530.162,63.4672 
  536.743,63.4681 543.325,63.4689 549.906,63.4698 556.487,63.4706 563.069,63.4715 569.65,63.4723 576.231,63.4732 582.813,63.474 589.394,63.4749 595.975,63.4757 
  602.557,63.4766 609.138,63.4775 615.719,63.4783 622.301,63.4792 628.882,63.48 635.463,63.4809 642.045,63.4817 648.626,63.4826 655.208,63.4834 661.789,63.4843 
  668.37,63.4851 674.952,63.486 681.533,63.4868 688.114,63.4877 694.696,63.4885 701.277,63.4894 707.858,63.4902 714.44,63.4911 721.021,63.492 727.602,63.4928 
  734.184,63.4937 740.765,63.4945 747.346,63.4954 753.928,63.4962 760.509,63.4971 767.09,63.4979 773.672,63.4988 780.253,63.4996 786.835,63.5005 793.416,63.5013 
  799.997,63.5022 806.579,63.503 813.16,63.5039 819.741,63.5047 826.323,63.5056 832.904,63.5065 839.485,63.5073 846.067,63.5082 852.648,63.509 859.229,63.5099 
  865.811,63.5107 872.392,63.5116 878.973,63.5124 885.555,63.5133 892.136,63.5141 898.717,63.515 905.299,63.5158 911.88,63.5167 918.461,63.5175 925.043,63.5184 
  931.624,63.5192 938.206,63.5201 944.787,63.5209 951.368,63.5218 957.95,63.5227 964.531,63.5235 971.112,63.5244 977.694,63.5252 984.275,63.5261 990.856,63.5269 
  997.438,63.5278 1004.02,63.5286 1010.6,63.5295 1017.18,63.5303 1023.76,63.5312 1030.34,63.532 1036.93,63.5329 1043.51,63.5337 1050.09,63.5346 1056.67,63.5354 
  1063.25,63.5363 1069.83,63.5372 1076.41,63.538 1083,63.5389 1089.58,63.5397 1096.16,63.5406 1102.74,63.5414 1109.32,63.5423 1115.9,63.5431 1122.48,63.544 
  1129.06,63.5448 1135.65,63.5457 1142.23,63.5465 1148.81,63.5474 1155.39,63.5482 1161.97,63.5491 1168.55,63.5499 1175.13,63.5508 1181.72,63.5516 1188.3,63.5525 
  1194.88,63.5534 
  "/>
<polyline clip-path="url(#clip392)" style="stroke:#008900; stroke-linecap:round; stroke-linejoin:round; stroke-width:16; stroke-opacity:1; fill:none" points="
  207.676,489.699 214.257,489.548 220.839,489.292 227.42,488.857 234.001,488.12 240.583,486.879 247.164,484.802 253.745,481.366 260.327,475.788 266.908,467 
  273.489,453.792 280.071,435.284 286.652,411.726 293.233,385.13 299.815,358.809 306.396,335.784 312.977,317.389 319.559,303.133 326.14,291.409 332.721,280.177 
  339.303,267.348 345.884,251.065 352.465,230.141 359.047,204.675 365.628,176.437 372.21,148.504 378.791,124.024 385.372,104.843 391.954,91.0759 398.535,81.7223 
  405.116,75.5148 411.698,71.4007 418.279,68.6489 424.86,66.7882 431.442,65.5189 438.023,64.6483 444.604,64.049 451.186,63.6359 457.767,63.3508 464.348,63.154 
  470.93,63.0183 477.511,62.9247 484.092,62.8603 490.674,62.816 497.255,62.7856 503.837,62.7649 510.418,62.7508 516.999,62.7413 523.581,62.7351 530.162,62.731 
  536.743,62.7284 543.325,62.7269 549.906,62.7261 556.487,62.7259 563.069,62.7259 569.65,62.7262 576.231,62.7267 582.813,62.7273 589.394,62.728 595.975,62.7287 
  602.557,62.7295 609.138,62.7303 615.719,62.7311 622.301,62.7319 628.882,62.7328 635.463,62.7336 642.045,62.7344 648.626,62.7353 655.208,62.7361 661.789,62.737 
  668.37,62.7378 674.952,62.7387 681.533,62.7396 688.114,62.7404 694.696,62.7413 701.277,62.7421 707.858,62.743 714.44,62.7438 721.021,62.7447 727.602,62.7455 
  734.184,62.7464 740.765,62.7472 747.346,62.7481 753.928,62.7489 760.509,62.7498 767.09,62.7507 773.672,62.7515 780.253,62.7524 786.835,62.7532 793.416,62.7541 
  799.997,62.7549 806.579,62.7558 813.16,62.7566 819.741,62.7575 826.323,62.7583 832.904,62.7592 839.485,62.7601 846.067,62.7609 852.648,62.7618 859.229,62.7626 
  865.811,62.7635 872.392,62.7643 878.973,62.7652 885.555,62.766 892.136,62.7669 898.717,62.7677 905.299,62.7686 911.88,62.7695 918.461,62.7703 925.043,62.7712 
  931.624,62.772 938.206,62.7729 944.787,62.7737 951.368,62.7746 957.95,62.7754 964.531,62.7763 971.112,62.7771 977.694,62.778 984.275,62.7788 990.856,62.7797 
  997.438,62.7806 1004.02,62.7814 1010.6,62.7823 1017.18,62.7831 1023.76,62.784 1030.34,62.7848 1036.93,62.7857 1043.51,62.7865 1050.09,62.7874 1056.67,62.7882 
  1063.25,62.7891 1069.83,62.79 1076.41,62.7908 1083,62.7917 1089.58,62.7925 1096.16,62.7934 1102.74,62.7942 1109.32,62.7951 1115.9,62.7959 1122.48,62.7968 
  1129.06,62.7976 1135.65,62.7985 1142.23,62.7993 1148.81,62.8002 1155.39,62.8011 1161.97,62.8019 1168.55,62.8028 1175.13,62.8036 1181.72,62.8045 1188.3,62.8053 
  1194.88,62.8062 
  "/>
<polyline clip-path="url(#clip392)" style="stroke:#7f7f7f; stroke-linecap:round; stroke-linejoin:round; stroke-width:16; stroke-opacity:1; fill:none" points="
  207.676,60.1374 214.257,65.7605 220.839,69.4676 227.42,71.7326 234.001,73.1201 240.583,73.9998 247.164,74.6181 253.745,75.15 260.327,75.7472 266.908,76.5788 
  273.489,77.8781 280.071,80.0005 286.652,83.5033 293.233,89.2449 299.815,98.4741 306.396,112.821 312.977,134.017 319.559,163.174 326.14,199.808 332.721,241.331 
  339.303,283.762 345.884,323.259 352.465,357.328 359.047,385.159 365.628,407.3 372.21,425.027 378.791,439.672 385.372,452.129 391.954,462.669 398.535,471.163 
  405.116,477.528 411.698,481.975 418.279,484.918 424.86,486.796 431.442,487.968 438.023,488.692 444.604,489.139 451.186,489.416 457.767,489.589 464.348,489.7 
  470.93,489.771 477.511,489.818 484.092,489.848 490.674,489.869 497.255,489.883 503.837,489.893 510.418,489.899 516.999,489.904 523.581,489.907 530.162,489.909 
  536.743,489.91 543.325,489.911 549.906,489.912 556.487,489.912 563.069,489.913 569.65,489.913 576.231,489.913 582.813,489.913 589.394,489.913 595.975,489.913 
  602.557,489.913 609.138,489.913 615.719,489.913 622.301,489.913 628.882,489.913 635.463,489.913 642.045,489.913 648.626,489.913 655.208,489.913 661.789,489.913 
  668.37,489.913 674.952,489.913 681.533,489.913 688.114,489.913 694.696,489.913 701.277,489.913 707.858,489.913 714.44,489.913 721.021,489.913 727.602,489.913 
  734.184,489.913 740.765,489.913 747.346,489.913 753.928,489.913 760.509,489.913 767.09,489.913 773.672,489.913 780.253,489.913 786.835,489.913 793.416,489.913 
  799.997,489.913 806.579,489.913 813.16,489.913 819.741,489.913 826.323,489.913 832.904,489.913 839.485,489.913 846.067,489.913 852.648,489.913 859.229,489.913 
  865.811,489.913 872.392,489.913 878.973,489.913 885.555,489.913 892.136,489.913 898.717,489.913 905.299,489.913 911.88,489.913 918.461,489.913 925.043,489.913 
  931.624,489.913 938.206,489.913 944.787,489.913 951.368,489.913 957.95,489.913 964.531,489.913 971.112,489.913 977.694,489.913 984.275,489.913 990.856,489.913 
  997.438,489.913 1004.02,489.913 1010.6,489.913 1017.18,489.913 1023.76,489.913 1030.34,489.913 1036.93,489.913 1043.51,489.913 1050.09,489.913 1056.67,489.913 
  1063.25,489.913 1069.83,489.913 1076.41,489.913 1083,489.913 1089.58,489.913 1096.16,489.913 1102.74,489.913 1109.32,489.913 1115.9,489.913 1122.48,489.913 
  1129.06,489.913 1135.65,489.913 1142.23,489.913 1148.81,489.913 1155.39,489.913 1161.97,489.913 1168.55,489.913 1175.13,489.913 1181.72,489.913 1188.3,489.913 
  1194.88,489.913 
  "/>
<polyline clip-path="url(#clip392)" style="stroke:#895f55; stroke-linecap:round; stroke-linejoin:round; stroke-width:16; stroke-opacity:1; fill:none" points="
  207.676,489.913 214.257,489.489 220.839,489.174 227.42,488.637 234.001,487.725 240.583,486.182 247.164,483.582 253.745,479.231 260.327,472.035 266.908,460.352 
  273.489,441.953 280.071,414.318 286.652,375.628 293.233,326.478 299.815,271.202 306.396,216.949 312.977,170.37 319.559,134.768 326.14,109.916 332.721,93.6779 
  339.303,83.5797 345.884,77.5902 352.465,74.3049 359.047,72.8592 365.628,72.762 372.21,73.7044 378.791,75.3764 385.372,77.3842 391.954,79.3329 398.535,80.9651 
  405.116,82.1999 411.698,83.0738 418.279,83.6674 424.86,84.0606 431.442,84.3173 438.023,84.4835 444.604,84.5906 451.186,84.6595 457.767,84.7039 464.348,84.7325 
  470.93,84.751 477.511,84.7632 484.092,84.7712 490.674,84.7766 497.255,84.7803 503.837,84.783 510.418,84.785 516.999,84.7866 523.581,84.7879 530.162,84.789 
  536.743,84.79 543.325,84.7909 549.906,84.7918 556.487,84.7927 563.069,84.7935 569.65,84.7944 576.231,84.7952 582.813,84.796 589.394,84.7968 595.975,84.7976 
  602.557,84.7984 609.138,84.7992 615.719,84.8001 622.301,84.8009 628.882,84.8017 635.463,84.8025 642.045,84.8033 648.626,84.8041 655.208,84.8049 661.789,84.8057 
  668.37,84.8065 674.952,84.8074 681.533,84.8082 688.114,84.809 694.696,84.8098 701.277,84.8106 707.858,84.8114 714.44,84.8122 721.021,84.813 727.602,84.8138 
  734.184,84.8146 740.765,84.8155 747.346,84.8163 753.928,84.8171 760.509,84.8179 767.09,84.8187 773.672,84.8195 780.253,84.8203 786.835,84.8211 793.416,84.8219 
  799.997,84.8227 806.579,84.8236 813.16,84.8244 819.741,84.8252 826.323,84.826 832.904,84.8268 839.485,84.8276 846.067,84.8284 852.648,84.8292 859.229,84.83 
  865.811,84.8308 872.392,84.8317 878.973,84.8325 885.555,84.8333 892.136,84.8341 898.717,84.8349 905.299,84.8357 911.88,84.8365 918.461,84.8373 925.043,84.8381 
  931.624,84.839 938.206,84.8398 944.787,84.8406 951.368,84.8414 957.95,84.8422 964.531,84.843 971.112,84.8438 977.694,84.8446 984.275,84.8454 990.856,84.8462 
  997.438,84.8471 1004.02,84.8479 1010.6,84.8487 1017.18,84.8495 1023.76,84.8503 1030.34,84.8511 1036.93,84.8519 1043.51,84.8527 1050.09,84.8535 1056.67,84.8543 
  1063.25,84.8552 1069.83,84.856 1076.41,84.8568 1083,84.8576 1089.58,84.8584 1096.16,84.8592 1102.74,84.86 1109.32,84.8608 1115.9,84.8616 1122.48,84.8624 
  1129.06,84.8633 1135.65,84.8641 1142.23,84.8649 1148.81,84.8657 1155.39,84.8665 1161.97,84.8673 1168.55,84.8681 1175.13,84.8689 1181.72,84.8697 1188.3,84.8705 
  1194.88,84.8714 
  "/>
<polyline clip-path="url(#clip392)" style="stroke:#2000d4; stroke-linecap:round; stroke-linejoin:round; stroke-width:16; stroke-opacity:1; fill:none" stroke-dasharray="64, 40" points="
  207.676,489.913 214.257,489.913 220.839,489.913 227.42,489.913 234.001,489.913 240.583,489.913 247.164,489.913 253.745,489.913 260.327,489.913 266.908,489.913 
  273.489,489.913 280.071,489.913 286.652,489.913 293.233,489.913 299.815,489.912 306.396,489.912 312.977,489.912 319.559,489.912 326.14,489.912 332.721,489.912 
  339.303,489.912 345.884,489.912 352.465,489.912 359.047,489.912 365.628,489.911 372.21,489.911 378.791,489.911 385.372,489.91 391.954,489.91 398.535,489.91 
  405.116,489.909 411.698,489.909 418.279,489.908 424.86,489.908 431.442,489.907 438.023,489.907 444.604,489.907 451.186,489.906 457.767,489.906 464.348,489.905 
  470.93,489.905 477.511,489.904 484.092,489.904 490.674,489.904 497.255,489.903 503.837,489.903 510.418,489.902 516.999,489.902 523.581,489.902 530.162,489.901 
  536.743,489.901 543.325,489.9 549.906,489.9 556.487,489.899 563.069,489.899 569.65,489.899 576.231,489.898 582.813,489.898 589.394,489.897 595.975,489.897 
  602.557,489.896 609.138,489.896 615.719,489.896 622.301,489.895 628.882,489.895 635.463,489.894 642.045,489.894 648.626,489.893 655.208,489.893 661.789,489.893 
  668.37,489.892 674.952,489.892 681.533,489.891 688.114,489.891 694.696,489.89 701.277,489.89 707.858,489.89 714.44,489.889 721.021,489.889 727.602,489.888 
  734.184,489.888 740.765,489.887 747.346,489.887 753.928,489.887 760.509,489.886 767.09,489.886 773.672,489.885 780.253,489.885 786.835,489.884 793.416,489.884 
  799.997,489.884 806.579,489.883 813.16,489.883 819.741,489.882 826.323,489.882 832.904,489.881 839.485,489.881 846.067,489.881 852.648,489.88 859.229,489.88 
  865.811,489.879 872.392,489.879 878.973,489.878 885.555,489.878 892.136,489.878 898.717,489.877 905.299,489.877 911.88,489.876 918.461,489.876 925.043,489.875 
  931.624,489.875 938.206,489.875 944.787,489.874 951.368,489.874 957.95,489.873 964.531,489.873 971.112,489.873 977.694,489.872 984.275,489.872 990.856,489.871 
  997.438,489.871 1004.02,489.87 1010.6,489.87 1017.18,489.87 1023.76,489.869 1030.34,489.869 1036.93,489.868 1043.51,489.868 1050.09,489.867 1056.67,489.867 
  1063.25,489.867 1069.83,489.866 1076.41,489.866 1083,489.865 1089.58,489.865 1096.16,489.864 1102.74,489.864 1109.32,489.864 1115.9,489.863 1122.48,489.863 
  1129.06,489.862 1135.65,489.862 1142.23,489.861 1148.81,489.861 1155.39,489.861 1161.97,489.86 1168.55,489.86 1175.13,489.859 1181.72,489.859 1188.3,489.858 
  1194.88,489.858 
  "/>
<polyline clip-path="url(#clip392)" style="stroke:#ff221c; stroke-linecap:round; stroke-linejoin:round; stroke-width:16; stroke-opacity:1; fill:none" points="
  207.676,489.913 214.257,489.913 220.839,489.912 227.42,489.91 234.001,489.907 240.583,489.902 247.164,489.893 253.745,489.878 260.327,489.853 266.908,489.809 
  273.489,489.736 280.071,489.615 286.652,489.415 293.233,489.09 299.815,488.568 306.396,487.731 312.977,486.386 319.559,484.197 326.14,480.6 332.721,474.677 
  339.303,465.013 345.884,449.58 352.465,425.856 359.047,391.511 365.628,345.998 372.21,292.373 378.791,237.256 385.372,187.78 391.954,148.18 398.535,119.061 
  405.116,98.8223 411.698,85.2383 418.279,76.3094 424.86,70.5122 431.442,66.7758 438.023,64.3782 444.604,62.8438 451.186,61.8635 457.767,61.2379 464.348,60.8388 
  470.93,60.5844 477.511,60.4222 484.092,60.3189 490.674,60.253 497.255,60.211 503.837,60.1843 510.418,60.1673 516.999,60.1564 523.581,60.1495 530.162,60.1451 
  536.743,60.1423 543.325,60.1405 549.906,60.1394 556.487,60.1386 563.069,60.1382 569.65,60.1379 576.231,60.1377 582.813,60.1376 589.394,60.1375 595.975,60.1375 
  602.557,60.1374 609.138,60.1374 615.719,60.1374 622.301,60.1374 628.882,60.1374 635.463,60.1374 642.045,60.1374 648.626,60.1374 655.208,60.1374 661.789,60.1374 
  668.37,60.1374 674.952,60.1374 681.533,60.1374 688.114,60.1374 694.696,60.1374 701.277,60.1374 707.858,60.1374 714.44,60.1374 721.021,60.1374 727.602,60.1374 
  734.184,60.1374 740.765,60.1374 747.346,60.1374 753.928,60.1374 760.509,60.1374 767.09,60.1374 773.672,60.1374 780.253,60.1374 786.835,60.1374 793.416,60.1374 
  799.997,60.1374 806.579,60.1374 813.16,60.1374 819.741,60.1374 826.323,60.1374 832.904,60.1374 839.485,60.1374 846.067,60.1374 852.648,60.1374 859.229,60.1374 
  865.811,60.1374 872.392,60.1374 878.973,60.1374 885.555,60.1374 892.136,60.1374 898.717,60.1374 905.299,60.1374 911.88,60.1374 918.461,60.1374 925.043,60.1374 
  931.624,60.1374 938.206,60.1374 944.787,60.1374 951.368,60.1374 957.95,60.1374 964.531,60.1374 971.112,60.1374 977.694,60.1374 984.275,60.1374 990.856,60.1374 
  997.438,60.1374 1004.02,60.1374 1010.6,60.1374 1017.18,60.1374 1023.76,60.1374 1030.34,60.1374 1036.93,60.1374 1043.51,60.1374 1050.09,60.1374 1056.67,60.1374 
  1063.25,60.1374 1069.83,60.1374 1076.41,60.1374 1083,60.1374 1089.58,60.1374 1096.16,60.1374 1102.74,60.1374 1109.32,60.1374 1115.9,60.1374 1122.48,60.1374 
  1129.06,60.1374 1135.65,60.1374 1142.23,60.1374 1148.81,60.1374 1155.39,60.1374 1161.97,60.1374 1168.55,60.1374 1175.13,60.1374 1181.72,60.1374 1188.3,60.1374 
  1194.88,60.1374 
  "/>
<path clip-path="url(#clip390)" d="
M201.094 503.236 L1194.88 503.236 L1194.88 47.2441 L201.094 47.2441  Z
  " fill="#000000" fill-rule="evenodd" fill-opacity="0"/>
<polyline clip-path="url(#clip390)" style="stroke:#000000; stroke-linecap:round; stroke-linejoin:round; stroke-width:4; stroke-opacity:1; fill:none" points="
  1194.88,503.236 1194.88,47.2441 
  "/>
<polyline clip-path="url(#clip390)" style="stroke:#000000; stroke-linecap:round; stroke-linejoin:round; stroke-width:4; stroke-opacity:1; fill:none" points="
  1194.88,57.065 1175.98,57.065 
  "/>
<polyline clip-path="url(#clip390)" style="stroke:#000000; stroke-linecap:round; stroke-linejoin:round; stroke-width:4; stroke-opacity:1; fill:none" points="
  1194.88,168.608 1175.98,168.608 
  "/>
<polyline clip-path="url(#clip390)" style="stroke:#000000; stroke-linecap:round; stroke-linejoin:round; stroke-width:4; stroke-opacity:1; fill:none" points="
  1194.88,280.151 1175.98,280.151 
  "/>
<polyline clip-path="url(#clip390)" style="stroke:#000000; stroke-linecap:round; stroke-linejoin:round; stroke-width:4; stroke-opacity:1; fill:none" points="
  1194.88,391.694 1175.98,391.694 
  "/>
<polyline clip-path="url(#clip390)" style="stroke:#000000; stroke-linecap:round; stroke-linejoin:round; stroke-width:4; stroke-opacity:1; fill:none" points="
  1194.88,503.236 1175.98,503.236 
  "/>
<path clip-path="url(#clip390)" d="M1216.72 81.8055 L1226.27 81.8055 L1226.27 48.8485 L1215.88 50.9318 L1215.88 45.6078 L1226.21 43.5245 L1232.05 43.5245 L1232.05 81.8055 L1241.6 81.8055 L1241.6 86.7245 L1216.72 86.7245 L1216.72 81.8055 Z" fill="#000000" fill-rule="evenodd" fill-opacity="1" /><path clip-path="url(#clip390)" d="M1265.91 47.3728 Q1261.39 47.3728 1259.11 51.8288 Q1256.85 56.2559 1256.85 65.1679 Q1256.85 74.0509 1259.11 78.5069 Q1261.39 82.934 1265.91 82.934 Q1270.45 82.934 1272.71 78.5069 Q1274.99 74.0509 1274.99 65.1679 Q1274.99 56.2559 1272.71 51.8288 Q1270.45 47.3728 1265.91 47.3728 M1265.91 42.7432 Q1273.17 42.7432 1276.99 48.5013 Q1280.84 54.2304 1280.84 65.1679 Q1280.84 76.0764 1276.99 81.8344 Q1273.17 87.5636 1265.91 87.5636 Q1258.64 87.5636 1254.8 81.8344 Q1250.98 76.0764 1250.98 65.1679 Q1250.98 54.2304 1254.8 48.5013 Q1258.64 42.7432 1265.91 42.7432 Z" fill="#000000" fill-rule="evenodd" fill-opacity="1" /><path clip-path="url(#clip390)" d="M1292.97 20.4882 Q1289.3 20.4882 1287.44 24.1087 Q1285.61 27.7057 1285.61 34.9467 Q1285.61 42.1642 1287.44 45.7847 Q1289.3 49.3817 1292.97 49.3817 Q1296.66 49.3817 1298.49 45.7847 Q1300.35 42.1642 1300.35 34.9467 Q1300.35 27.7057 1298.49 24.1087 Q1296.66 20.4882 1292.97 20.4882 M1292.97 16.7267 Q1298.87 16.7267 1301.97 21.4051 Q1305.1 26.0601 1305.1 34.9467 Q1305.1 43.8099 1301.97 48.4883 Q1298.87 53.1432 1292.97 53.1432 Q1287.07 53.1432 1283.94 48.4883 Q1280.84 43.8099 1280.84 34.9467 Q1280.84 26.0601 1283.94 21.4051 Q1287.07 16.7267 1292.97 16.7267 Z" fill="#000000" fill-rule="evenodd" fill-opacity="1" /><path clip-path="url(#clip390)" d="M1216.72 193.348 L1226.27 193.348 L1226.27 160.391 L1215.88 162.475 L1215.88 157.151 L1226.21 155.067 L1232.05 155.067 L1232.05 193.348 L1241.6 193.348 L1241.6 198.267 L1216.72 198.267 L1216.72 193.348 Z" fill="#000000" fill-rule="evenodd" fill-opacity="1" /><path clip-path="url(#clip390)" d="M1265.91 158.916 Q1261.39 158.916 1259.11 163.372 Q1256.85 167.799 1256.85 176.711 Q1256.85 185.594 1259.11 190.05 Q1261.39 194.477 1265.91 194.477 Q1270.45 194.477 1272.71 190.05 Q1274.99 185.594 1274.99 176.711 Q1274.99 167.799 1272.71 163.372 Q1270.45 158.916 1265.91 158.916 M1265.91 154.286 Q1273.17 154.286 1276.99 160.044 Q1280.84 165.773 1280.84 176.711 Q1280.84 187.619 1276.99 193.377 Q1273.17 199.106 1265.91 199.106 Q1258.64 199.106 1254.8 193.377 Q1250.98 187.619 1250.98 176.711 Q1250.98 165.773 1254.8 160.044 Q1258.64 154.286 1265.91 154.286 Z" fill="#000000" fill-rule="evenodd" fill-opacity="1" /><path clip-path="url(#clip390)" d="M1280.84 146.913 L1310.98 146.913 L1310.98 150.909 L1280.84 150.909 L1280.84 146.913 Z" fill="#000000" fill-rule="evenodd" fill-opacity="1" /><path clip-path="url(#clip390)" d="M1325.32 160.008 L1341.89 160.008 L1341.89 164.004 L1319.6 164.004 L1319.6 160.008 Q1322.31 157.21 1326.96 152.508 Q1331.64 147.783 1332.84 146.419 Q1335.12 143.857 1336.01 142.093 Q1336.93 140.307 1336.93 138.59 Q1336.93 135.793 1334.96 134.029 Q1333.01 132.266 1329.86 132.266 Q1327.62 132.266 1325.13 133.042 Q1322.66 133.818 1319.84 135.393 L1319.84 130.597 Q1322.71 129.445 1325.2 128.857 Q1327.69 128.27 1329.76 128.27 Q1335.22 128.27 1338.46 130.997 Q1341.7 133.724 1341.7 138.285 Q1341.7 140.448 1340.88 142.399 Q1340.08 144.327 1337.94 146.96 Q1337.35 147.642 1334.2 150.909 Q1331.05 154.154 1325.32 160.008 Z" fill="#000000" fill-rule="evenodd" fill-opacity="1" /><path clip-path="url(#clip390)" d="M1216.72 304.891 L1226.27 304.891 L1226.27 271.934 L1215.88 274.018 L1215.88 268.694 L1226.21 266.61 L1232.05 266.61 L1232.05 304.891 L1241.6 304.891 L1241.6 309.81 L1216.72 309.81 L1216.72 304.891 Z" fill="#000000" fill-rule="evenodd" fill-opacity="1" /><path clip-path="url(#clip390)" d="M1265.91 270.459 Q1261.39 270.459 1259.11 274.915 Q1256.85 279.342 1256.85 288.254 Q1256.85 297.137 1259.11 301.593 Q1261.39 306.02 1265.91 306.02 Q1270.45 306.02 1272.71 301.593 Q1274.99 297.137 1274.99 288.254 Q1274.99 279.342 1272.71 274.915 Q1270.45 270.459 1265.91 270.459 M1265.91 265.829 Q1273.17 265.829 1276.99 271.587 Q1280.84 277.316 1280.84 288.254 Q1280.84 299.162 1276.99 304.92 Q1273.17 310.649 1265.91 310.649 Q1258.64 310.649 1254.8 304.92 Q1250.98 299.162 1250.98 288.254 Q1250.98 277.316 1254.8 271.587 Q1258.64 265.829 1265.91 265.829 Z" fill="#000000" fill-rule="evenodd" fill-opacity="1" /><path clip-path="url(#clip390)" d="M1280.84 258.456 L1310.98 258.456 L1310.98 262.452 L1280.84 262.452 L1280.84 258.456 Z" fill="#000000" fill-rule="evenodd" fill-opacity="1" /><path clip-path="url(#clip390)" d="M1334.27 244.585 L1322.28 263.322 L1334.27 263.322 L1334.27 244.585 M1333.03 240.447 L1339 240.447 L1339 263.322 L1344.01 263.322 L1344.01 267.272 L1339 267.272 L1339 275.547 L1334.27 275.547 L1334.27 267.272 L1318.43 267.272 L1318.43 262.687 L1333.03 240.447 Z" fill="#000000" fill-rule="evenodd" fill-opacity="1" /><path clip-path="url(#clip390)" d="M1216.72 416.434 L1226.27 416.434 L1226.27 383.477 L1215.88 385.56 L1215.88 380.236 L1226.21 378.153 L1232.05 378.153 L1232.05 416.434 L1241.6 416.434 L1241.6 421.353 L1216.72 421.353 L1216.72 416.434 Z" fill="#000000" fill-rule="evenodd" fill-opacity="1" /><path clip-path="url(#clip390)" d="M1265.91 382.001 Q1261.39 382.001 1259.11 386.457 Q1256.85 390.884 1256.85 399.796 Q1256.85 408.68 1259.11 413.136 Q1261.39 417.563 1265.91 417.563 Q1270.45 417.563 1272.71 413.136 Q1274.99 408.68 1274.99 399.796 Q1274.99 390.884 1272.71 386.457 Q1270.45 382.001 1265.91 382.001 M1265.91 377.372 Q1273.17 377.372 1276.99 383.13 Q1280.84 388.859 1280.84 399.796 Q1280.84 410.705 1276.99 416.463 Q1273.17 422.192 1265.91 422.192 Q1258.64 422.192 1254.8 416.463 Q1250.98 410.705 1250.98 399.796 Q1250.98 388.859 1254.8 383.13 Q1258.64 377.372 1265.91 377.372 Z" fill="#000000" fill-rule="evenodd" fill-opacity="1" /><path clip-path="url(#clip390)" d="M1280.84 369.999 L1310.98 369.999 L1310.98 373.995 L1280.84 373.995 L1280.84 369.999 Z" fill="#000000" fill-rule="evenodd" fill-opacity="1" /><path clip-path="url(#clip390)" d="M1331.97 367.648 Q1328.77 367.648 1326.89 369.834 Q1325.04 372.02 1325.04 375.829 Q1325.04 379.614 1326.89 381.824 Q1328.77 384.01 1331.97 384.01 Q1335.17 384.01 1337.03 381.824 Q1338.91 379.614 1338.91 375.829 Q1338.91 372.02 1337.03 369.834 Q1335.17 367.648 1331.97 367.648 M1341.4 352.766 L1341.4 357.092 Q1339.61 356.245 1337.78 355.799 Q1335.97 355.352 1334.18 355.352 Q1329.48 355.352 1326.99 358.526 Q1324.52 361.7 1324.17 368.118 Q1325.55 366.072 1327.65 364.991 Q1329.74 363.886 1332.25 363.886 Q1337.54 363.886 1340.6 367.107 Q1343.68 370.304 1343.68 375.829 Q1343.68 381.236 1340.48 384.504 Q1337.28 387.772 1331.97 387.772 Q1325.88 387.772 1322.66 383.117 Q1319.44 378.438 1319.44 369.575 Q1319.44 361.253 1323.39 356.316 Q1327.34 351.355 1333.99 351.355 Q1335.78 351.355 1337.59 351.708 Q1339.42 352.061 1341.4 352.766 Z" fill="#000000" fill-rule="evenodd" fill-opacity="1" /><path clip-path="url(#clip390)" d="M1216.72 527.977 L1226.27 527.977 L1226.27 495.02 L1215.88 497.103 L1215.88 491.779 L1226.21 489.696 L1232.05 489.696 L1232.05 527.977 L1241.6 527.977 L1241.6 532.896 L1216.72 532.896 L1216.72 527.977 Z" fill="#000000" fill-rule="evenodd" fill-opacity="1" /><path clip-path="url(#clip390)" d="M1265.91 493.544 Q1261.39 493.544 1259.11 498 Q1256.85 502.427 1256.85 511.339 Q1256.85 520.222 1259.11 524.678 Q1261.39 529.105 1265.91 529.105 Q1270.45 529.105 1272.71 524.678 Q1274.99 520.222 1274.99 511.339 Q1274.99 502.427 1272.71 498 Q1270.45 493.544 1265.91 493.544 M1265.91 488.915 Q1273.17 488.915 1276.99 494.673 Q1280.84 500.402 1280.84 511.339 Q1280.84 522.248 1276.99 528.006 Q1273.17 533.735 1265.91 533.735 Q1258.64 533.735 1254.8 528.006 Q1250.98 522.248 1250.98 511.339 Q1250.98 500.402 1254.8 494.673 Q1258.64 488.915 1265.91 488.915 Z" fill="#000000" fill-rule="evenodd" fill-opacity="1" /><path clip-path="url(#clip390)" d="M1280.84 481.541 L1310.98 481.541 L1310.98 485.538 L1280.84 485.538 L1280.84 481.541 Z" fill="#000000" fill-rule="evenodd" fill-opacity="1" /><path clip-path="url(#clip390)" d="M1331.38 481.965 Q1328 481.965 1326.05 483.775 Q1324.12 485.585 1324.12 488.759 Q1324.12 491.933 1326.05 493.743 Q1328 495.553 1331.38 495.553 Q1334.77 495.553 1336.72 493.743 Q1338.67 491.909 1338.67 488.759 Q1338.67 485.585 1336.72 483.775 Q1334.79 481.965 1331.38 481.965 M1326.63 479.943 Q1323.58 479.19 1321.86 477.098 Q1320.17 475.006 1320.17 471.996 Q1320.17 467.788 1323.15 465.343 Q1326.16 462.898 1331.38 462.898 Q1336.63 462.898 1339.61 465.343 Q1342.6 467.788 1342.6 471.996 Q1342.6 475.006 1340.88 477.098 Q1339.19 479.19 1336.16 479.943 Q1339.59 480.742 1341.49 483.07 Q1343.42 485.397 1343.42 488.759 Q1343.42 493.86 1340.29 496.588 Q1337.19 499.315 1331.38 499.315 Q1325.58 499.315 1322.45 496.588 Q1319.35 493.86 1319.35 488.759 Q1319.35 485.397 1321.27 483.07 Q1323.2 480.742 1326.63 479.943 M1324.89 472.443 Q1324.89 475.17 1326.59 476.698 Q1328.3 478.227 1331.38 478.227 Q1334.44 478.227 1336.16 476.698 Q1337.9 475.17 1337.9 472.443 Q1337.9 469.716 1336.16 468.188 Q1334.44 466.66 1331.38 466.66 Q1328.3 466.66 1326.59 468.188 Q1324.89 469.716 1324.89 472.443 Z" fill="#000000" fill-rule="evenodd" fill-opacity="1" /><polyline clip-path="url(#clip392)" style="stroke:#000000; stroke-linecap:round; stroke-linejoin:round; stroke-width:16; stroke-opacity:1; fill:none" stroke-dasharray="8, 16" points="
  207.676,57.065 214.257,57.0889 220.839,57.1106 227.42,57.1446 234.001,57.2019 240.583,57.2991 247.164,57.4636 253.745,57.7415 260.327,58.2082 266.908,58.9854 
  273.489,60.2618 280.071,62.3137 286.652,65.5102 293.233,70.2827 299.815,77.0546 306.396,86.1775 312.977,97.9592 319.559,112.817 326.14,131.459 332.721,154.886 
  339.303,183.985 345.884,218.819 352.465,258.223 359.047,300.112 365.628,342.161 372.21,382.463 378.791,419.949 385.372,454.437 391.954,486.332 398.535,516.251 
  405.116,544.774 411.698,572.357 418.279,599.321 424.86,625.883 431.442,652.187 438.023,678.325 444.604,704.356 451.186,730.32 457.767,756.239 464.348,782.131 
  470.93,808.004 477.511,833.865 484.092,859.719 490.674,885.567 497.255,911.411 503.837,937.253 510.418,963.093 516.999,988.931 523.581,1014.77 530.162,1040.6 
  536.743,1066.44 543.325,1092.27 549.906,1118.11 556.487,1143.94 563.069,1169.77 569.65,1195.6 576.231,1221.43 582.813,1247.26 589.394,1273.09 595.975,1298.91 
  602.557,1324.74 609.138,1350.57 615.719,1376.39 622.301,1402.22 628.882,1428.04 635.463,1453.86 642.045,1479.68 648.626,1505.5 655.208,1531.32 661.789,1557.14 
  668.37,1582.96 674.952,1608.78 681.533,1634.6 688.114,1660.41 694.696,1686.23 701.277,1712.04 707.858,1737.86 714.44,1763.67 721.021,1789.48 727.602,1815.29 
  734.184,1841.11 740.765,1866.92 747.346,1892.72 753.928,1918.53 760.509,1944.34 767.09,1970.15 773.672,1995.95 780.253,2021.76 786.835,2047.56 793.416,2073.37 
  799.997,2099.17 806.579,2124.97 813.16,2150.77 819.741,2176.57 826.323,2202.37 832.904,2228.17 839.485,2253.97 846.067,2279.77 852.648,2305.56 859.229,2331.36 
  865.811,2357.15 872.392,2382.95 878.973,2408.74 885.555,2434.53 892.136,2460.32 898.717,2486.11 905.299,2511.9 911.88,2537.69 918.461,2563.48 925.043,2589.27 
  931.624,2615.06 938.206,2640.84 944.787,2666.63 951.368,2692.41 957.95,2718.2 964.531,2743.98 971.112,2769.76 977.694,2795.54 984.275,2821.32 990.856,2847.1 
  997.438,2872.88 1004.02,2898.66 1010.6,2924.44 1017.18,2950.21 1023.76,2975.99 1030.34,3001.76 1036.93,3027.54 1043.51,3053.31 1050.09,3079.08 1056.67,3104.85 
  1063.25,3130.63 1069.83,3156.4 1076.41,3182.17 1083,3207.93 1089.58,3233.7 1096.16,3259.47 1102.74,3285.23 1109.32,3311 1115.9,3336.76 1122.48,3362.53 
  1129.06,3388.29 1135.65,3414.05 1142.23,3439.82 1148.81,3465.58 1155.39,3491.34 1161.97,3517.09 1168.55,3542.85 1175.13,3568.61 1181.72,3594.37 1188.3,3620.12 
  1194.88,3645.88 
  "/>
</svg>
