<?xml version="1.0" encoding="utf-8"?>
<svg xmlns="http://www.w3.org/2000/svg" xmlns:xlink="http://www.w3.org/1999/xlink" width="325" height="200" viewBox="0 0 1300 800">
<defs>
  <clipPath id="clip730">
    <rect x="0" y="0" width="1300" height="800"/>
  </clipPath>
</defs>
<path clip-path="url(#clip730)" d="
M0 800 L1300 800 L1300 0 L0 0  Z
  " fill="#ffffff" fill-rule="evenodd" fill-opacity="1"/>
<defs>
  <clipPath id="clip731">
    <rect x="260" y="0" width="911" height="800"/>
  </clipPath>
</defs>
<path clip-path="url(#clip730)" d="
M297.569 673.18 L1252.76 673.18 L1252.76 47.2441 L297.569 47.2441  Z
  " fill="#ffffff" fill-rule="evenodd" fill-opacity="1"/>
<defs>
  <clipPath id="clip732">
    <rect x="297" y="47" width="956" height="627"/>
  </clipPath>
</defs>
<polyline clip-path="url(#clip730)" style="stroke:#000000; stroke-linecap:butt; stroke-linejoin:round; stroke-width:4; stroke-opacity:1; fill:none" points="
  297.569,673.18 1252.76,673.18 
  "/>
<polyline clip-path="url(#clip730)" style="stroke:#000000; stroke-linecap:butt; stroke-linejoin:round; stroke-width:4; stroke-opacity:1; fill:none" points="
  297.569,673.18 297.569,654.283 
  "/>
<polyline clip-path="url(#clip730)" style="stroke:#000000; stroke-linecap:butt; stroke-linejoin:round; stroke-width:4; stroke-opacity:1; fill:none" points="
  488.606,673.18 488.606,654.283 
  "/>
<polyline clip-path="url(#clip730)" style="stroke:#000000; stroke-linecap:butt; stroke-linejoin:round; stroke-width:4; stroke-opacity:1; fill:none" points="
  679.644,673.18 679.644,654.283 
  "/>
<polyline clip-path="url(#clip730)" style="stroke:#000000; stroke-linecap:butt; stroke-linejoin:round; stroke-width:4; stroke-opacity:1; fill:none" points="
  870.681,673.18 870.681,654.283 
  "/>
<polyline clip-path="url(#clip730)" style="stroke:#000000; stroke-linecap:butt; stroke-linejoin:round; stroke-width:4; stroke-opacity:1; fill:none" points="
  1061.72,673.18 1061.72,654.283 
  "/>
<polyline clip-path="url(#clip730)" style="stroke:#000000; stroke-linecap:butt; stroke-linejoin:round; stroke-width:4; stroke-opacity:1; fill:none" points="
  1252.76,673.18 1252.76,654.283 
  "/>
<path clip-path="url(#clip730)" d="M257.992 704.088 Q251.672 704.088 248.472 710.326 Q245.312 716.524 245.312 729.001 Q245.312 741.437 248.472 747.676 Q251.672 753.873 257.992 753.873 Q264.352 753.873 267.511 747.676 Q270.711 741.437 270.711 729.001 Q270.711 716.524 267.511 710.326 Q264.352 704.088 257.992 704.088 M257.992 697.606 Q268.159 697.606 273.507 705.668 Q278.894 713.689 278.894 729.001 Q278.894 744.273 273.507 752.334 Q268.159 760.355 257.992 760.355 Q247.824 760.355 242.436 752.334 Q237.089 744.273 237.089 729.001 Q237.089 713.689 242.436 705.668 Q247.824 697.606 257.992 697.606 Z" fill="#000000" fill-rule="evenodd" fill-opacity="1" /><path clip-path="url(#clip730)" d="M293.275 748.891 L301.822 748.891 L301.822 759.18 L293.275 759.18 L293.275 748.891 Z" fill="#000000" fill-rule="evenodd" fill-opacity="1" /><path clip-path="url(#clip730)" d="M337.146 704.088 Q330.827 704.088 327.627 710.326 Q324.467 716.524 324.467 729.001 Q324.467 741.437 327.627 747.676 Q330.827 753.873 337.146 753.873 Q343.506 753.873 346.666 747.676 Q349.866 741.437 349.866 729.001 Q349.866 716.524 346.666 710.326 Q343.506 704.088 337.146 704.088 M337.146 697.606 Q347.314 697.606 352.661 705.668 Q358.049 713.689 358.049 729.001 Q358.049 744.273 352.661 752.334 Q347.314 760.355 337.146 760.355 Q326.979 760.355 321.591 752.334 Q316.244 744.273 316.244 729.001 Q316.244 713.689 321.591 705.668 Q326.979 697.606 337.146 697.606 Z" fill="#000000" fill-rule="evenodd" fill-opacity="1" /><path clip-path="url(#clip730)" d="M450.103 704.088 Q443.783 704.088 440.583 710.326 Q437.423 716.524 437.423 729.001 Q437.423 741.437 440.583 747.676 Q443.783 753.873 450.103 753.873 Q456.462 753.873 459.622 747.676 Q462.822 741.437 462.822 729.001 Q462.822 716.524 459.622 710.326 Q456.462 704.088 450.103 704.088 M450.103 697.606 Q460.27 697.606 465.617 705.668 Q471.005 713.689 471.005 729.001 Q471.005 744.273 465.617 752.334 Q460.27 760.355 450.103 760.355 Q439.935 760.355 434.547 752.334 Q429.2 744.273 429.2 729.001 Q429.2 713.689 434.547 705.668 Q439.935 697.606 450.103 697.606 Z" fill="#000000" fill-rule="evenodd" fill-opacity="1" /><path clip-path="url(#clip730)" d="M485.386 748.891 L493.933 748.891 L493.933 759.18 L485.386 759.18 L485.386 748.891 Z" fill="#000000" fill-rule="evenodd" fill-opacity="1" /><path clip-path="url(#clip730)" d="M513.175 752.294 L526.543 752.294 L526.543 706.154 L512 709.07 L512 701.617 L526.462 698.7 L534.645 698.7 L534.645 752.294 L548.013 752.294 L548.013 759.18 L513.175 759.18 L513.175 752.294 Z" fill="#000000" fill-rule="evenodd" fill-opacity="1" /><path clip-path="url(#clip730)" d="M641.464 704.088 Q635.145 704.088 631.944 710.326 Q628.785 716.524 628.785 729.001 Q628.785 741.437 631.944 747.676 Q635.145 753.873 641.464 753.873 Q647.824 753.873 650.984 747.676 Q654.184 741.437 654.184 729.001 Q654.184 716.524 650.984 710.326 Q647.824 704.088 641.464 704.088 M641.464 697.606 Q651.632 697.606 656.979 705.668 Q662.367 713.689 662.367 729.001 Q662.367 744.273 656.979 752.334 Q651.632 760.355 641.464 760.355 Q631.296 760.355 625.909 752.334 Q620.561 744.273 620.561 729.001 Q620.561 713.689 625.909 705.668 Q631.296 697.606 641.464 697.606 Z" fill="#000000" fill-rule="evenodd" fill-opacity="1" /><path clip-path="url(#clip730)" d="M676.747 748.891 L685.295 748.891 L685.295 759.18 L676.747 759.18 L676.747 748.891 Z" fill="#000000" fill-rule="evenodd" fill-opacity="1" /><path clip-path="url(#clip730)" d="M710.167 752.294 L738.726 752.294 L738.726 759.18 L700.324 759.18 L700.324 752.294 Q704.982 747.473 713.003 739.371 Q721.064 731.229 723.13 728.879 Q727.06 724.464 728.599 721.426 Q730.179 718.347 730.179 715.39 Q730.179 710.569 726.776 707.531 Q723.414 704.493 717.986 704.493 Q714.137 704.493 709.843 705.83 Q705.59 707.167 700.729 709.881 L700.729 701.617 Q705.671 699.632 709.965 698.619 Q714.259 697.606 717.824 697.606 Q727.222 697.606 732.812 702.305 Q738.402 707.005 738.402 714.863 Q738.402 718.59 736.984 721.952 Q735.607 725.274 731.921 729.811 Q730.908 730.986 725.48 736.617 Q720.052 742.207 710.167 752.294 Z" fill="#000000" fill-rule="evenodd" fill-opacity="1" /><path clip-path="url(#clip730)" d="M831.671 704.088 Q825.352 704.088 822.151 710.326 Q818.992 716.524 818.992 729.001 Q818.992 741.437 822.151 747.676 Q825.352 753.873 831.671 753.873 Q838.031 753.873 841.191 747.676 Q844.391 741.437 844.391 729.001 Q844.391 716.524 841.191 710.326 Q838.031 704.088 831.671 704.088 M831.671 697.606 Q841.839 697.606 847.186 705.668 Q852.574 713.689 852.574 729.001 Q852.574 744.273 847.186 752.334 Q841.839 760.355 831.671 760.355 Q821.503 760.355 816.115 752.334 Q810.768 744.273 810.768 729.001 Q810.768 713.689 816.115 705.668 Q821.503 697.606 831.671 697.606 Z" fill="#000000" fill-rule="evenodd" fill-opacity="1" /><path clip-path="url(#clip730)" d="M866.954 748.891 L875.502 748.891 L875.502 759.18 L866.954 759.18 L866.954 748.891 Z" fill="#000000" fill-rule="evenodd" fill-opacity="1" /><path clip-path="url(#clip730)" d="M918.117 726.57 Q923.991 727.826 927.272 731.796 Q930.594 735.766 930.594 741.599 Q930.594 750.552 924.437 755.453 Q918.279 760.355 906.937 760.355 Q903.129 760.355 899.078 759.585 Q895.068 758.856 890.774 757.357 L890.774 749.458 Q894.176 751.443 898.227 752.456 Q902.278 753.468 906.694 753.468 Q914.39 753.468 918.401 750.43 Q922.452 747.392 922.452 741.599 Q922.452 736.252 918.684 733.254 Q914.958 730.216 908.274 730.216 L901.225 730.216 L901.225 723.492 L908.598 723.492 Q914.633 723.492 917.834 721.102 Q921.034 718.671 921.034 714.134 Q921.034 709.476 917.712 707.005 Q914.431 704.493 908.274 704.493 Q904.911 704.493 901.063 705.222 Q897.215 705.951 892.597 707.491 L892.597 700.199 Q897.255 698.903 901.306 698.255 Q905.397 697.606 909.003 697.606 Q918.32 697.606 923.748 701.86 Q929.176 706.073 929.176 713.283 Q929.176 718.307 926.3 721.79 Q923.424 725.234 918.117 726.57 Z" fill="#000000" fill-rule="evenodd" fill-opacity="1" /><path clip-path="url(#clip730)" d="M1021.72 704.088 Q1015.4 704.088 1012.2 710.326 Q1009.04 716.524 1009.04 729.001 Q1009.04 741.437 1012.2 747.676 Q1015.4 753.873 1021.72 753.873 Q1028.08 753.873 1031.24 747.676 Q1034.44 741.437 1034.44 729.001 Q1034.44 716.524 1031.24 710.326 Q1028.08 704.088 1021.72 704.088 M1021.72 697.606 Q1031.88 697.606 1037.23 705.668 Q1042.62 713.689 1042.62 729.001 Q1042.62 744.273 1037.23 752.334 Q1031.88 760.355 1021.72 760.355 Q1011.55 760.355 1006.16 752.334 Q1000.81 744.273 1000.81 729.001 Q1000.81 713.689 1006.16 705.668 Q1011.55 697.606 1021.72 697.606 Z" fill="#000000" fill-rule="evenodd" fill-opacity="1" /><path clip-path="url(#clip730)" d="M1057 748.891 L1065.55 748.891 L1065.55 759.18 L1057 759.18 L1057 748.891 Z" fill="#000000" fill-rule="evenodd" fill-opacity="1" /><path clip-path="url(#clip730)" d="M1105.85 705.83 L1085.19 738.115 L1105.85 738.115 L1105.85 705.83 M1103.71 698.7 L1114 698.7 L1114 738.115 L1122.62 738.115 L1122.62 744.921 L1114 744.921 L1114 759.18 L1105.85 759.18 L1105.85 744.921 L1078.55 744.921 L1078.55 737.022 L1103.71 698.7 Z" fill="#000000" fill-rule="evenodd" fill-opacity="1" /><path clip-path="url(#clip730)" d="M1214.05 704.088 Q1207.73 704.088 1204.53 710.326 Q1201.37 716.524 1201.37 729.001 Q1201.37 741.437 1204.53 747.676 Q1207.73 753.873 1214.05 753.873 Q1220.41 753.873 1223.57 747.676 Q1226.77 741.437 1226.77 729.001 Q1226.77 716.524 1223.57 710.326 Q1220.41 704.088 1214.05 704.088 M1214.05 697.606 Q1224.22 697.606 1229.56 705.668 Q1234.95 713.689 1234.95 729.001 Q1234.95 744.273 1229.56 752.334 Q1224.22 760.355 1214.05 760.355 Q1203.88 760.355 1198.49 752.334 Q1193.15 744.273 1193.15 729.001 Q1193.15 713.689 1198.49 705.668 Q1203.88 697.606 1214.05 697.606 Z" fill="#000000" fill-rule="evenodd" fill-opacity="1" /><path clip-path="url(#clip730)" d="M1249.33 748.891 L1257.88 748.891 L1257.88 759.18 L1249.33 759.18 L1249.33 748.891 Z" fill="#000000" fill-rule="evenodd" fill-opacity="1" /><path clip-path="url(#clip730)" d="M1275.79 698.7 L1307.91 698.7 L1307.91 705.587 L1283.28 705.587 L1283.28 720.413 Q1285.06 719.805 1286.84 719.522 Q1288.63 719.198 1290.41 719.198 Q1300.54 719.198 1306.45 724.747 Q1312.36 730.297 1312.36 739.776 Q1312.36 749.539 1306.29 754.967 Q1300.21 760.355 1289.15 760.355 Q1285.35 760.355 1281.38 759.707 Q1277.45 759.059 1273.23 757.762 L1273.23 749.539 Q1276.88 751.524 1280.77 752.496 Q1284.66 753.468 1288.99 753.468 Q1296 753.468 1300.09 749.782 Q1304.18 746.096 1304.18 739.776 Q1304.18 733.457 1300.09 729.771 Q1296 726.084 1288.99 726.084 Q1285.71 726.084 1282.43 726.813 Q1279.19 727.543 1275.79 729.082 L1275.79 698.7 Z" fill="#000000" fill-rule="evenodd" fill-opacity="1" /><polyline clip-path="url(#clip730)" style="stroke:#000000; stroke-linecap:butt; stroke-linejoin:round; stroke-width:4; stroke-opacity:1; fill:none" points="
  297.569,673.18 297.569,47.2441 
  "/>
<polyline clip-path="url(#clip730)" style="stroke:#000000; stroke-linecap:butt; stroke-linejoin:round; stroke-width:4; stroke-opacity:1; fill:none" points="
  297.569,673.18 316.467,673.18 
  "/>
<polyline clip-path="url(#clip730)" style="stroke:#000000; stroke-linecap:butt; stroke-linejoin:round; stroke-width:4; stroke-opacity:1; fill:none" points="
  297.569,380.659 316.467,380.659 
  "/>
<polyline clip-path="url(#clip730)" style="stroke:#000000; stroke-linecap:butt; stroke-linejoin:round; stroke-width:4; stroke-opacity:1; fill:none" points="
  297.569,88.1369 316.467,88.1369 
  "/>
<path clip-path="url(#clip730)" d="M57.6669 707.817 L71.0349 707.817 L71.0349 661.677 L56.4921 664.594 L56.4921 657.14 L70.9539 654.223 L79.1367 654.223 L79.1367 707.817 L92.5047 707.817 L92.5047 714.703 L57.6669 714.703 L57.6669 707.817 Z" fill="#000000" fill-rule="evenodd" fill-opacity="1" /><path clip-path="url(#clip730)" d="M126.532 659.611 Q120.213 659.611 117.013 665.85 Q113.853 672.047 113.853 684.524 Q113.853 696.961 117.013 703.199 Q120.213 709.397 126.532 709.397 Q132.892 709.397 136.052 703.199 Q139.252 696.961 139.252 684.524 Q139.252 672.047 136.052 665.85 Q132.892 659.611 126.532 659.611 M126.532 653.13 Q136.7 653.13 142.047 661.191 Q147.435 669.212 147.435 684.524 Q147.435 699.796 142.047 707.857 Q136.7 715.878 126.532 715.878 Q116.364 715.878 110.977 707.857 Q105.63 699.796 105.63 684.524 Q105.63 669.212 110.977 661.191 Q116.364 653.13 126.532 653.13 Z" fill="#000000" fill-rule="evenodd" fill-opacity="1" /><path clip-path="url(#clip730)" d="M147.435 642.807 L189.63 642.807 L189.63 648.402 L147.435 648.402 L147.435 642.807 Z" fill="#000000" fill-rule="evenodd" fill-opacity="1" /><path clip-path="url(#clip730)" d="M205.132 661.14 L215.994 661.14 L215.994 623.651 L204.178 626.021 L204.178 619.965 L215.928 617.595 L222.577 617.595 L222.577 661.14 L233.438 661.14 L233.438 666.735 L205.132 666.735 L205.132 661.14 Z" fill="#000000" fill-rule="evenodd" fill-opacity="1" /><path clip-path="url(#clip730)" d="M261.086 621.973 Q255.951 621.973 253.351 627.041 Q250.784 632.077 250.784 642.215 Q250.784 652.319 253.351 657.388 Q255.951 662.424 261.086 662.424 Q266.253 662.424 268.82 657.388 Q271.42 652.319 271.42 642.215 Q271.42 632.077 268.82 627.041 Q266.253 621.973 261.086 621.973 M261.086 616.707 Q269.347 616.707 273.691 623.256 Q278.069 629.773 278.069 642.215 Q278.069 654.623 273.691 661.173 Q269.347 667.69 261.086 667.69 Q252.824 667.69 248.447 661.173 Q244.102 654.623 244.102 642.215 Q244.102 629.773 248.447 623.256 Q252.824 616.707 261.086 616.707 Z" fill="#000000" fill-rule="evenodd" fill-opacity="1" /><path clip-path="url(#clip730)" d="M101.969 415.295 L115.337 415.295 L115.337 369.155 L100.794 372.072 L100.794 364.618 L115.256 361.702 L123.438 361.702 L123.438 415.295 L136.806 415.295 L136.806 422.182 L101.969 422.182 L101.969 415.295 Z" fill="#000000" fill-rule="evenodd" fill-opacity="1" /><path clip-path="url(#clip730)" d="M170.834 367.09 Q164.515 367.09 161.314 373.328 Q158.155 379.526 158.155 392.003 Q158.155 404.439 161.314 410.677 Q164.515 416.875 170.834 416.875 Q177.194 416.875 180.354 410.677 Q183.554 404.439 183.554 392.003 Q183.554 379.526 180.354 373.328 Q177.194 367.09 170.834 367.09 M170.834 360.608 Q181.002 360.608 186.349 368.669 Q191.737 376.69 191.737 392.003 Q191.737 407.274 186.349 415.336 Q181.002 423.357 170.834 423.357 Q160.666 423.357 155.278 415.336 Q149.931 407.274 149.931 392.003 Q149.931 376.69 155.278 368.669 Q160.666 360.608 170.834 360.608 Z" fill="#000000" fill-rule="evenodd" fill-opacity="1" /><path clip-path="url(#clip730)" d="M191.737 350.285 L233.932 350.285 L233.932 355.881 L191.737 355.881 L191.737 350.285 Z" fill="#000000" fill-rule="evenodd" fill-opacity="1" /><path clip-path="url(#clip730)" d="M248.348 325.074 L274.448 325.074 L274.448 330.669 L254.437 330.669 L254.437 342.715 Q255.885 342.222 257.333 341.991 Q258.782 341.728 260.23 341.728 Q268.458 341.728 273.264 346.237 Q278.069 350.746 278.069 358.448 Q278.069 366.38 273.132 370.791 Q268.195 375.168 259.21 375.168 Q256.116 375.168 252.89 374.642 Q249.697 374.115 246.274 373.062 L246.274 366.38 Q249.237 367.993 252.396 368.783 Q255.556 369.573 259.078 369.573 Q264.772 369.573 268.096 366.578 Q271.42 363.583 271.42 358.448 Q271.42 353.313 268.096 350.318 Q264.772 347.323 259.078 347.323 Q256.412 347.323 253.746 347.916 Q251.113 348.508 248.348 349.759 L248.348 325.074 Z" fill="#000000" fill-rule="evenodd" fill-opacity="1" /><path clip-path="url(#clip730)" d="M154.334 122.774 L167.702 122.774 L167.702 76.6338 L153.159 79.5505 L153.159 72.0968 L167.621 69.1802 L175.804 69.1802 L175.804 122.774 L189.172 122.774 L189.172 129.66 L154.334 129.66 L154.334 122.774 Z" fill="#000000" fill-rule="evenodd" fill-opacity="1" /><path clip-path="url(#clip730)" d="M223.199 74.5679 Q216.88 74.5679 213.68 80.8063 Q210.52 87.0041 210.52 99.4809 Q210.52 111.917 213.68 118.156 Q216.88 124.353 223.199 124.353 Q229.559 124.353 232.719 118.156 Q235.919 111.917 235.919 99.4809 Q235.919 87.0041 232.719 80.8063 Q229.559 74.5679 223.199 74.5679 M223.199 68.0864 Q233.367 68.0864 238.714 76.1477 Q244.102 84.1685 244.102 99.4809 Q244.102 114.753 238.714 122.814 Q233.367 130.835 223.199 130.835 Q213.032 130.835 207.644 122.814 Q202.297 114.753 202.297 99.4809 Q202.297 84.1685 207.644 76.1477 Q213.032 68.0864 223.199 68.0864 Z" fill="#000000" fill-rule="evenodd" fill-opacity="1" /><path clip-path="url(#clip730)" d="M261.086 36.9295 Q255.951 36.9295 253.351 41.9982 Q250.784 47.0339 250.784 57.1713 Q250.784 67.2758 253.351 72.3445 Q255.951 77.3803 261.086 77.3803 Q266.253 77.3803 268.82 72.3445 Q271.42 67.2758 271.42 57.1713 Q271.42 47.0339 268.82 41.9982 Q266.253 36.9295 261.086 36.9295 M261.086 31.6633 Q269.347 31.6633 273.691 38.2131 Q278.069 44.73 278.069 57.1713 Q278.069 69.5798 273.691 76.1296 Q269.347 82.6465 261.086 82.6465 Q252.824 82.6465 248.447 76.1296 Q244.102 69.5798 244.102 57.1713 Q244.102 44.73 248.447 38.2131 Q252.824 31.6633 261.086 31.6633 Z" fill="#000000" fill-rule="evenodd" fill-opacity="1" /><polyline clip-path="url(#clip732)" style="stroke:#000000; stroke-linecap:butt; stroke-linejoin:round; stroke-width:16; stroke-opacity:1; fill:none" stroke-dasharray="8, 16" points="
  297.569,4569.67 307.121,4369.17 316.673,4095.76 326.225,3743.51 335.776,3357.59 345.328,3062.81 354.88,2835.86 364.432,2654.95 373.984,2506.93 383.536,2383.06 
  393.088,2277.3 402.64,2185.86 412.191,2105.44 421.743,2034.05 431.295,1969.75 440.847,1911.37 450.399,1857.9 459.951,1808.41 469.503,1762.29 479.055,1718.92 
  488.606,1677.89 498.158,1638.75 507.71,1601.36 517.262,1565.42 526.814,1530.6 536.366,1496.6 545.918,1463.78 555.469,1431.56 565.021,1399.88 574.573,1368.67 
  584.125,1337.83 593.677,1307.25 603.229,1276.87 612.781,1246.87 622.333,1216.79 631.884,1186.53 641.436,1156.5 650.988,1125.96 660.54,1095.47 670.092,1064.34 
  679.644,1032.96 689.196,1000.93 698.747,968.126 708.299,934.74 717.851,900.4 727.403,864.991 736.955,828.604 746.507,791.064 756.059,752.202 765.611,712.272 
  775.162,670.973 784.714,628.614 794.266,585.031 803.818,540.633 813.37,495.445 822.922,449.742 832.474,404.098 842.026,359.055 851.577,315.524 861.129,275.026 
  870.681,239.657 880.233,211.225 889.785,189.915 899.337,174.074 908.889,162.051 918.44,152.453 927.992,144.484 937.544,137.603 947.096,131.502 956.648,125.977 
  966.2,120.898 975.752,116.184 985.304,111.78 994.855,107.664 1004.41,103.757 1013.96,99.0034 1023.51,94.1443 1033.06,90.7595 1042.61,89.1014 1052.17,88.4609 
  1061.72,88.2427 1071.27,88.1752 1080.82,88.1709 1090.37,88.1696 1099.93,88.1687 1109.48,88.1679 1119.03,88.1673 1128.58,88.1668 1138.13,88.1663 1147.69,88.1659 
  1157.24,88.1655 1166.79,88.1653 1176.34,88.165 1185.89,88.1648 1195.44,88.1646 1205,88.1644 1214.55,88.1642 1224.1,88.1639 1233.65,88.1637 1243.2,88.1635 
  1252.76,88.1633 1262.31,88.163 1271.86,88.1628 1281.41,88.1626 1290.96,88.1624 1300.52,88.1622 1310.07,88.162 1319.62,88.162 1329.17,88.162 1338.72,88.162 
  1348.27,88.162 1357.83,88.162 1367.38,88.162 1376.93,88.162 1386.48,88.162 1396.03,88.162 1405.59,88.162 1415.14,88.162 1424.69,88.162 1434.24,88.162 
  1443.79,88.162 1453.35,88.162 1462.9,88.162 1472.45,88.162 1482,88.162 1491.55,88.162 1501.1,88.162 1510.66,88.162 1520.21,88.162 1529.76,88.162 
  1539.31,88.162 1548.86,88.162 1558.42,88.162 1567.97,88.162 1577.52,88.162 1587.07,88.162 1596.62,88.162 1606.18,88.162 1615.73,88.162 1625.28,88.162 
  1634.83,88.162 1644.38,88.162 1653.93,88.162 1663.49,88.162 1673.04,88.162 1682.59,88.162 1692.14,88.162 1701.69,88.162 1711.25,88.162 1720.8,88.162 
  1730.35,88.162 1739.9,88.162 1749.45,88.162 1759,88.162 1768.56,88.162 1778.11,88.162 1787.66,88.162 1797.21,88.162 1806.76,88.162 1816.32,88.162 
  1825.87,88.162 1835.42,88.162 1844.97,88.162 1854.52,88.162 1864.08,88.162 1873.63,88.162 1883.18,88.162 1892.73,88.162 1902.28,88.162 1911.83,88.162 
  1921.39,88.162 1930.94,88.162 1940.49,88.162 1950.04,88.162 1959.59,88.162 1969.15,88.162 1978.7,88.162 1988.25,88.162 1997.8,88.162 2007.35,88.162 
  2016.91,88.162 2026.46,88.162 2036.01,88.162 2045.56,88.162 2055.11,88.162 2064.66,88.162 2074.22,88.162 2083.77,88.162 2093.32,88.162 2102.87,88.162 
  2112.42,88.162 2121.98,88.162 2131.53,88.162 2141.08,88.162 2150.63,88.162 2160.18,88.162 2169.74,88.162 2179.29,88.162 2188.84,88.162 2198.39,88.162 
  2207.94,88.162 
  "/>
<polyline clip-path="url(#clip732)" style="stroke:#000000; stroke-linecap:butt; stroke-linejoin:round; stroke-width:16; stroke-opacity:1; fill:none" stroke-dasharray="64, 40" points="
  297.569,3449.27 307.121,3351.39 316.673,3234.21 326.225,3095.06 335.776,2932.62 345.328,2747.69 354.88,2543.52 364.432,2325.46 373.984,2100.1 383.536,1884.66 
  393.088,1694.66 402.64,1523.69 412.191,1366.84 421.743,1220.48 431.295,1081.93 440.847,949.171 450.399,820.779 459.951,696.193 469.503,575.38 479.055,459.751 
  488.606,353.025 498.158,263.892 507.71,206.426 517.262,176.287 526.814,158.512 536.366,145.98 545.918,136.052 555.469,127.363 565.021,117.812 574.573,108.268 
  584.125,100.21 593.677,94.5571 603.229,91.2362 612.781,89.5385 622.333,88.7468 631.884,88.3972 641.436,88.2786 650.988,88.2636 660.54,88.2532 670.092,88.2449 
  679.644,88.2381 689.196,88.2323 698.747,88.2272 708.299,88.2228 717.851,88.2187 727.403,88.2153 736.955,88.2119 746.507,88.2091 756.059,88.2064 765.611,88.2038 
  775.162,88.2015 784.714,88.1995 794.266,88.1975 803.818,88.1956 813.37,88.1937 822.922,88.1922 832.474,88.1908 842.026,88.1894 851.577,88.188 861.129,88.1866 
  870.681,88.1853 880.233,88.184 889.785,88.1831 899.337,88.1821 908.889,88.1812 918.44,88.1803 927.992,88.1794 937.544,88.1785 947.096,88.1776 956.648,88.1768 
  966.2,88.1759 975.752,88.1751 985.304,88.1743 994.855,88.1737 1004.41,88.1732 1013.96,88.1727 1023.51,88.1722 1033.06,88.1716 1042.61,88.1711 1052.17,88.1706 
  1061.72,88.1701 1071.27,88.1696 1080.82,88.1691 1090.37,88.1686 1099.93,88.1681 1109.48,88.1676 1119.03,88.1672 1128.58,88.1667 1138.13,88.1662 1147.69,88.1657 
  1157.24,88.1655 1166.79,88.1653 1176.34,88.165 1185.89,88.1648 1195.44,88.1646 1205,88.1644 1214.55,88.1642 1224.1,88.1639 1233.65,88.1637 1243.2,88.1635 
  1252.76,88.1633 1262.31,88.163 1271.86,88.1628 1281.41,88.1626 1290.96,88.1624 1300.52,88.1622 1310.07,88.162 1319.62,88.162 1329.17,88.162 1338.72,88.162 
  1348.27,88.162 1357.83,88.162 1367.38,88.162 1376.93,88.162 1386.48,88.162 1396.03,88.162 1405.59,88.162 1415.14,88.162 1424.69,88.162 1434.24,88.162 
  1443.79,88.162 1453.35,88.162 1462.9,88.162 1472.45,88.162 1482,88.162 1491.55,88.162 1501.1,88.162 1510.66,88.162 1520.21,88.162 1529.76,88.162 
  1539.31,88.162 1548.86,88.162 1558.42,88.162 1567.97,88.162 1577.52,88.162 1587.07,88.162 1596.62,88.162 1606.18,88.162 1615.73,88.162 1625.28,88.162 
  1634.83,88.162 1644.38,88.162 1653.93,88.162 1663.49,88.162 1673.04,88.162 1682.59,88.162 1692.14,88.162 1701.69,88.162 1711.25,88.162 1720.8,88.162 
  1730.35,88.162 1739.9,88.162 1749.45,88.162 1759,88.162 1768.56,88.162 1778.11,88.162 1787.66,88.162 1797.21,88.162 1806.76,88.162 1816.32,88.162 
  1825.87,88.162 1835.42,88.162 1844.97,88.162 1854.52,88.162 1864.08,88.162 1873.63,88.162 1883.18,88.162 1892.73,88.162 1902.28,88.162 1911.83,88.162 
  1921.39,88.162 1930.94,88.162 1940.49,88.162 1950.04,88.162 1959.59,88.162 1969.15,88.162 1978.7,88.162 1988.25,88.162 1997.8,88.162 2007.35,88.162 
  2016.91,88.162 2026.46,88.162 2036.01,88.162 2045.56,88.162 2055.11,88.162 2064.66,88.162 2074.22,88.162 2083.77,88.162 2093.32,88.162 2102.87,88.162 
  2112.42,88.162 2121.98,88.162 2131.53,88.162 2141.08,88.162 2150.63,88.162 2160.18,88.162 2169.74,88.162 2179.29,88.162 2188.84,88.162 2198.39,88.162 
  2207.94,88.162 
  "/>
<polyline clip-path="url(#clip732)" style="stroke:#808080; stroke-linecap:butt; stroke-linejoin:round; stroke-width:16; stroke-opacity:1; fill:none" stroke-dasharray="8, 16" points="
  297.569,5931.77 307.121,5730.1 316.673,5455.7 326.225,5102.62 335.776,4677.61 345.328,4230.29 354.88,3876.72 364.432,3596.87 373.984,3369.42 383.536,3180.73 
  393.088,3021.12 402.64,2884.34 412.191,2765.44 421.743,2660.88 431.295,2568.12 440.847,2484.87 450.399,2409.72 459.951,2341.41 469.503,2278.54 479.055,2220.7 
  488.606,2166.88 498.158,2116.54 507.71,2069.11 517.262,2024.69 526.814,1982.15 536.366,1942.04 545.918,1903.54 555.469,1866.57 565.021,1831 574.573,1796.68 
  584.125,1763.39 593.677,1731.16 603.229,1699.93 612.781,1669.32 622.333,1639.51 631.884,1610.36 641.436,1581.67 650.988,1553.4 660.54,1525.42 670.092,1497.58 
  679.644,1469.91 689.196,1442.03 698.747,1413.89 708.299,1385.12 717.851,1355.49 727.403,1324.68 736.955,1292.34 746.507,1258.06 756.059,1221.4 765.611,1181.98 
  775.162,1139.39 784.714,1093.25 794.266,1043.34 803.818,989.345 813.37,931.244 822.922,869.082 832.474,803.151 842.026,734.159 851.577,663.131 861.129,591.313 
  870.681,519.639 880.233,448.973 889.785,380.322 899.337,315.494 908.889,257.965 918.44,212.855 927.992,182.164 937.544,162.165 947.096,148.314 956.648,137.925 
  966.2,129.591 975.752,122.59 985.304,116.519 994.855,111.152 1004.41,106.217 1013.96,100.377 1023.51,94.7251 1033.06,90.9584 1042.61,89.1638 1052.17,88.4803 
  1061.72,88.2489 1071.27,88.1774 1080.82,88.173 1090.37,88.1718 1099.93,88.171 1109.48,88.1702 1119.03,88.1697 1128.58,88.1692 1138.13,88.1687 1147.69,88.1683 
  1157.24,88.1678 1166.79,88.1673 1176.34,88.1671 1185.89,88.1669 1195.44,88.1667 1205,88.1664 1214.55,88.1662 1224.1,88.166 1233.65,88.1658 1243.2,88.1656 
  1252.76,88.1653 1262.31,88.1651 1271.86,88.1649 1281.41,88.1647 1290.96,88.1645 1300.52,88.1642 1310.07,88.164 1319.62,88.1638 1329.17,88.1636 1338.72,88.1633 
  1348.27,88.1631 1357.83,88.1629 1367.38,88.1627 1376.93,88.1625 1386.48,88.1622 1396.03,88.162 1405.59,88.162 1415.14,88.162 1424.69,88.162 1434.24,88.162 
  1443.79,88.162 1453.35,88.162 1462.9,88.162 1472.45,88.162 1482,88.162 1491.55,88.162 1501.1,88.162 1510.66,88.162 1520.21,88.162 1529.76,88.162 
  1539.31,88.162 1548.86,88.162 1558.42,88.162 1567.97,88.162 1577.52,88.162 1587.07,88.162 1596.62,88.162 1606.18,88.162 1615.73,88.162 1625.28,88.162 
  1634.83,88.162 1644.38,88.162 1653.93,88.162 1663.49,88.162 1673.04,88.162 1682.59,88.162 1692.14,88.162 1701.69,88.162 1711.25,88.162 1720.8,88.162 
  1730.35,88.162 1739.9,88.162 1749.45,88.162 1759,88.162 1768.56,88.162 1778.11,88.162 1787.66,88.162 1797.21,88.162 1806.76,88.162 1816.32,88.162 
  1825.87,88.162 1835.42,88.162 1844.97,88.162 1854.52,88.162 1864.08,88.162 1873.63,88.162 1883.18,88.162 1892.73,88.162 1902.28,88.162 1911.83,88.162 
  1921.39,88.162 1930.94,88.162 1940.49,88.162 1950.04,88.162 1959.59,88.162 1969.15,88.162 1978.7,88.162 1988.25,88.162 1997.8,88.162 2007.35,88.162 
  2016.91,88.162 2026.46,88.162 2036.01,88.162 2045.56,88.162 2055.11,88.162 2064.66,88.162 2074.22,88.162 2083.77,88.162 2093.32,88.162 2102.87,88.162 
  2112.42,88.162 2121.98,88.162 2131.53,88.162 2141.08,88.162 2150.63,88.162 2160.18,88.162 2169.74,88.162 2179.29,88.162 2188.84,88.162 2198.39,88.162 
  2207.94,88.162 
  "/>
<polyline clip-path="url(#clip732)" style="stroke:#808080; stroke-linecap:butt; stroke-linejoin:round; stroke-width:16; stroke-opacity:1; fill:none" stroke-dasharray="64, 40" points="
  297.569,4539.49 307.121,4432.43 316.673,4306.66 326.225,4159.8 335.776,3990.7 345.328,3800.13 354.88,3591.01 364.432,3368.14 373.984,3137.4 383.536,2904.81 
  393.088,2675.73 402.64,2454.32 412.191,2244.76 421.743,2051.17 431.295,1869.7 440.847,1696.94 450.399,1530.07 459.951,1366.61 469.503,1204.99 479.055,1043.69 
  488.606,882.093 498.158,720.625 507.71,561.055 517.262,408.394 526.814,276.284 536.366,194.402 545.918,158.569 555.469,137.148 565.021,120.815 574.573,108.137 
  584.125,99.1549 593.677,93.6304 603.229,90.6768 612.781,89.2559 622.333,88.6167 631.884,88.3399 641.436,88.2457 650.988,88.2347 660.54,88.2272 670.092,88.2213 
  679.644,88.2164 689.196,88.2122 698.747,88.2087 708.299,88.2056 717.851,88.2028 727.403,88.2003 736.955,88.1981 746.507,88.196 756.059,88.1942 765.611,88.1925 
  775.162,88.1908 784.714,88.1894 794.266,88.1881 803.818,88.1869 813.37,88.1856 822.922,88.1844 832.474,88.1834 842.026,88.1826 851.577,88.1817 861.129,88.1809 
  870.681,88.1801 880.233,88.1792 889.785,88.1784 899.337,88.1776 908.889,88.177 918.44,88.1765 927.992,88.176 937.544,88.1755 947.096,88.175 956.648,88.1745 
  966.2,88.174 975.752,88.1735 985.304,88.173 994.855,88.1725 1004.41,88.172 1013.96,88.1716 1023.51,88.1711 1033.06,88.1706 1042.61,88.1702 1052.17,88.1698 
  1061.72,88.1696 1071.27,88.1694 1080.82,88.1692 1090.37,88.169 1099.93,88.1687 1109.48,88.1685 1119.03,88.1683 1128.58,88.1681 1138.13,88.1679 1147.69,88.1676 
  1157.24,88.1674 1166.79,88.1672 1176.34,88.167 1185.89,88.1668 1195.44,88.1665 1205,88.1663 1214.55,88.1661 1224.1,88.1659 1233.65,88.1657 1243.2,88.1654 
  1252.76,88.1652 1262.31,88.165 1271.86,88.1648 1281.41,88.1645 1290.96,88.1643 1300.52,88.1641 1310.07,88.1639 1319.62,88.1637 1329.17,88.1634 1338.72,88.1632 
  1348.27,88.163 1357.83,88.1628 1367.38,88.1626 1376.93,88.1623 1386.48,88.1621 1396.03,88.162 1405.59,88.162 1415.14,88.162 1424.69,88.162 1434.24,88.162 
  1443.79,88.162 1453.35,88.162 1462.9,88.162 1472.45,88.162 1482,88.162 1491.55,88.162 1501.1,88.162 1510.66,88.162 1520.21,88.162 1529.76,88.162 
  1539.31,88.162 1548.86,88.162 1558.42,88.162 1567.97,88.162 1577.52,88.162 1587.07,88.162 1596.62,88.162 1606.18,88.162 1615.73,88.162 1625.28,88.162 
  1634.83,88.162 1644.38,88.162 1653.93,88.162 1663.49,88.162 1673.04,88.162 1682.59,88.162 1692.14,88.162 1701.69,88.162 1711.25,88.162 1720.8,88.162 
  1730.35,88.162 1739.9,88.162 1749.45,88.162 1759,88.162 1768.56,88.162 1778.11,88.162 1787.66,88.162 1797.21,88.162 1806.76,88.162 1816.32,88.162 
  1825.87,88.162 1835.42,88.162 1844.97,88.162 1854.52,88.162 1864.08,88.162 1873.63,88.162 1883.18,88.162 1892.73,88.162 1902.28,88.162 1911.83,88.162 
  1921.39,88.162 1930.94,88.162 1940.49,88.162 1950.04,88.162 1959.59,88.162 1969.15,88.162 1978.7,88.162 1988.25,88.162 1997.8,88.162 2007.35,88.162 
  2016.91,88.162 2026.46,88.162 2036.01,88.162 2045.56,88.162 2055.11,88.162 2064.66,88.162 2074.22,88.162 2083.77,88.162 2093.32,88.162 2102.87,88.162 
  2112.42,88.162 2121.98,88.162 2131.53,88.162 2141.08,88.162 2150.63,88.162 2160.18,88.162 2169.74,88.162 2179.29,88.162 2188.84,88.162 2198.39,88.162 
  2207.94,88.162 
  "/>
<polyline clip-path="url(#clip732)" style="stroke:#0000ff; stroke-linecap:butt; stroke-linejoin:round; stroke-width:16; stroke-opacity:1; fill:none" stroke-dasharray="8, 16" points="
  297.569,3605.48 307.121,3406.63 316.673,3135.13 326.225,2801.97 335.776,2540.95 345.328,2347.37 354.88,2197 364.432,2076.14 373.984,1976.21 383.536,1891.65 
  393.088,1818.75 402.64,1754.91 412.191,1698 421.743,1646.78 431.295,1600 440.847,1556.76 450.399,1516.61 459.951,1478.72 469.503,1442.84 479.055,1408.65 
  488.606,1375.77 498.158,1343.77 507.71,1312.91 517.262,1282.44 526.814,1252.92 536.366,1223.65 545.918,1194.66 555.469,1165.92 565.021,1137.43 574.573,1109.12 
  584.125,1080.89 593.677,1052.74 603.229,1024.57 612.781,996.282 622.333,967.796 631.884,939.018 641.436,910.203 650.988,881.144 660.54,851.567 670.092,821.757 
  679.644,791.548 689.196,760.641 698.747,729.579 708.299,697.695 717.851,665.41 727.403,632.445 736.955,598.88 746.507,564.818 756.059,530.043 765.611,495.052 
  775.162,459.499 784.714,423.882 794.266,388.322 803.818,353.065 813.37,318.895 822.922,286.516 832.474,256.95 842.026,231.349 851.577,210.394 861.129,193.807 
  870.681,180.72 880.233,170.239 889.785,161.514 899.337,154.038 908.889,147.514 918.44,141.64 927.992,136.266 937.544,131.283 947.096,126.592 956.648,122.147 
  966.2,117.909 975.752,113.857 985.304,109.986 994.855,106.302 1004.41,102.724 1013.96,98.2603 1023.51,93.6982 1033.06,90.5463 1042.61,89.0177 1052.17,88.4317 
  1061.72,88.2329 1071.27,88.1716 1080.82,88.1678 1090.37,88.1669 1099.93,88.1663 1109.48,88.1658 1119.03,88.1654 1128.58,88.1651 1138.13,88.1649 1147.69,88.1646 
  1157.24,88.1644 1166.79,88.1642 1176.34,88.164 1185.89,88.1637 1195.44,88.1635 1205,88.1633 1214.55,88.1631 1224.1,88.1629 1233.65,88.1626 1243.2,88.1624 
  1252.76,88.1622 1262.31,88.162 1271.86,88.162 1281.41,88.162 1290.96,88.162 1300.52,88.162 1310.07,88.162 1319.62,88.162 1329.17,88.162 1338.72,88.162 
  1348.27,88.162 1357.83,88.162 1367.38,88.162 1376.93,88.162 1386.48,88.162 1396.03,88.162 1405.59,88.162 1415.14,88.162 1424.69,88.162 1434.24,88.162 
  1443.79,88.162 1453.35,88.162 1462.9,88.162 1472.45,88.162 1482,88.162 1491.55,88.162 1501.1,88.162 1510.66,88.162 1520.21,88.162 1529.76,88.162 
  1539.31,88.162 1548.86,88.162 1558.42,88.162 1567.97,88.162 1577.52,88.162 1587.07,88.162 1596.62,88.162 1606.18,88.162 1615.73,88.162 1625.28,88.162 
  1634.83,88.162 1644.38,88.162 1653.93,88.162 1663.49,88.162 1673.04,88.162 1682.59,88.162 1692.14,88.162 1701.69,88.162 1711.25,88.162 1720.8,88.162 
  1730.35,88.162 1739.9,88.162 1749.45,88.162 1759,88.162 1768.56,88.162 1778.11,88.162 1787.66,88.162 1797.21,88.162 1806.76,88.162 1816.32,88.162 
  1825.87,88.162 1835.42,88.162 1844.97,88.162 1854.52,88.162 1864.08,88.162 1873.63,88.162 1883.18,88.162 1892.73,88.162 1902.28,88.162 1911.83,88.162 
  1921.39,88.162 1930.94,88.162 1940.49,88.162 1950.04,88.162 1959.59,88.162 1969.15,88.162 1978.7,88.162 1988.25,88.162 1997.8,88.162 2007.35,88.162 
  2016.91,88.162 2026.46,88.162 2036.01,88.162 2045.56,88.162 2055.11,88.162 2064.66,88.162 2074.22,88.162 2083.77,88.162 2093.32,88.162 2102.87,88.162 
  2112.42,88.162 2121.98,88.162 2131.53,88.162 2141.08,88.162 2150.63,88.162 2160.18,88.162 2169.74,88.162 2179.29,88.162 2188.84,88.162 2198.39,88.162 
  2207.94,88.162 
  "/>
<polyline clip-path="url(#clip732)" style="stroke:#0000ff; stroke-linecap:butt; stroke-linejoin:round; stroke-width:16; stroke-opacity:1; fill:none" stroke-dasharray="64, 40" points="
  297.569,2602.81 307.121,2513.93 316.673,2407.48 326.225,2281.18 335.776,2134.03 345.328,1966.92 354.88,1782.97 364.432,1587.28 373.984,1405.43 383.536,1247.04 
  393.088,1105.97 402.64,977.618 412.191,859.087 421.743,748.041 431.295,643.132 440.847,543.818 450.399,450.265 459.951,364.09 469.503,289.443 479.055,233.923 
  488.606,199.763 498.158,179.04 507.71,164.889 517.262,154.041 526.814,145.041 536.366,137.175 545.918,130.049 555.469,122.105 565.021,113.005 574.573,104.257 
  584.125,97.3146 593.677,92.7919 603.229,90.3062 612.781,89.0957 622.333,88.5483 631.884,88.3109 641.436,88.2301 650.988,88.2208 660.54,88.2143 670.092,88.2093 
  679.644,88.2051 689.196,88.2016 698.747,88.1985 708.299,88.1959 717.851,88.1935 727.403,88.1914 736.955,88.1894 746.507,88.1878 756.059,88.1862 765.611,88.1846 
  775.162,88.1834 784.714,88.1822 794.266,88.181 803.818,88.1799 813.37,88.1789 822.922,88.1781 832.474,88.1773 842.026,88.1765 851.577,88.1757 861.129,88.1749 
  870.681,88.1741 880.233,88.1735 889.785,88.173 899.337,88.1725 908.889,88.1721 918.44,88.1716 927.992,88.1711 937.544,88.1706 947.096,88.1701 956.648,88.1697 
  966.2,88.1692 975.752,88.1688 985.304,88.1683 994.855,88.168 1004.41,88.1678 1013.96,88.1676 1023.51,88.1674 1033.06,88.1671 1042.61,88.1669 1052.17,88.1667 
  1061.72,88.1665 1071.27,88.1663 1080.82,88.166 1090.37,88.1658 1099.93,88.1656 1109.48,88.1654 1119.03,88.1651 1128.58,88.1649 1138.13,88.1647 1147.69,88.1645 
  1157.24,88.1643 1166.79,88.164 1176.34,88.1638 1185.89,88.1636 1195.44,88.1634 1205,88.1632 1214.55,88.1629 1224.1,88.1627 1233.65,88.1625 1243.2,88.1623 
  1252.76,88.1621 1262.31,88.162 1271.86,88.162 1281.41,88.162 1290.96,88.162 1300.52,88.162 1310.07,88.162 1319.62,88.162 1329.17,88.162 1338.72,88.162 
  1348.27,88.162 1357.83,88.162 1367.38,88.162 1376.93,88.162 1386.48,88.162 1396.03,88.162 1405.59,88.162 1415.14,88.162 1424.69,88.162 1434.24,88.162 
  1443.79,88.162 1453.35,88.162 1462.9,88.162 1472.45,88.162 1482,88.162 1491.55,88.162 1501.1,88.162 1510.66,88.162 1520.21,88.162 1529.76,88.162 
  1539.31,88.162 1548.86,88.162 1558.42,88.162 1567.97,88.162 1577.52,88.162 1587.07,88.162 1596.62,88.162 1606.18,88.162 1615.73,88.162 1625.28,88.162 
  1634.83,88.162 1644.38,88.162 1653.93,88.162 1663.49,88.162 1673.04,88.162 1682.59,88.162 1692.14,88.162 1701.69,88.162 1711.25,88.162 1720.8,88.162 
  1730.35,88.162 1739.9,88.162 1749.45,88.162 1759,88.162 1768.56,88.162 1778.11,88.162 1787.66,88.162 1797.21,88.162 1806.76,88.162 1816.32,88.162 
  1825.87,88.162 1835.42,88.162 1844.97,88.162 1854.52,88.162 1864.08,88.162 1873.63,88.162 1883.18,88.162 1892.73,88.162 1902.28,88.162 1911.83,88.162 
  1921.39,88.162 1930.94,88.162 1940.49,88.162 1950.04,88.162 1959.59,88.162 1969.15,88.162 1978.7,88.162 1988.25,88.162 1997.8,88.162 2007.35,88.162 
  2016.91,88.162 2026.46,88.162 2036.01,88.162 2045.56,88.162 2055.11,88.162 2064.66,88.162 2074.22,88.162 2083.77,88.162 2093.32,88.162 2102.87,88.162 
  2112.42,88.162 2121.98,88.162 2131.53,88.162 2141.08,88.162 2150.63,88.162 2160.18,88.162 2169.74,88.162 2179.29,88.162 2188.84,88.162 2198.39,88.162 
  2207.94,88.162 
  "/>
</svg>
