<?xml version="1.0" encoding="utf-8"?>
<svg xmlns="http://www.w3.org/2000/svg" xmlns:xlink="http://www.w3.org/1999/xlink" width="325" height="200" viewBox="0 0 1300 800">
<defs>
  <clipPath id="clip810">
    <rect x="0" y="0" width="1300" height="800"/>
  </clipPath>
</defs>
<path clip-path="url(#clip810)" d="
M0 800 L1300 800 L1300 0 L0 0  Z
  " fill="#ffffff" fill-rule="evenodd" fill-opacity="1"/>
<defs>
  <clipPath id="clip811">
    <rect x="260" y="0" width="911" height="800"/>
  </clipPath>
</defs>
<path clip-path="url(#clip810)" d="
M297.569 673.18 L1252.76 673.18 L1252.76 47.2441 L297.569 47.2441  Z
  " fill="#ffffff" fill-rule="evenodd" fill-opacity="1"/>
<defs>
  <clipPath id="clip812">
    <rect x="297" y="47" width="956" height="627"/>
  </clipPath>
</defs>
<polyline clip-path="url(#clip810)" style="stroke:#000000; stroke-linecap:butt; stroke-linejoin:round; stroke-width:4; stroke-opacity:1; fill:none" points="
  297.569,673.18 1252.76,673.18 
  "/>
<polyline clip-path="url(#clip810)" style="stroke:#000000; stroke-linecap:butt; stroke-linejoin:round; stroke-width:4; stroke-opacity:1; fill:none" points="
  297.569,673.18 297.569,654.283 
  "/>
<polyline clip-path="url(#clip810)" style="stroke:#000000; stroke-linecap:butt; stroke-linejoin:round; stroke-width:4; stroke-opacity:1; fill:none" points="
  488.606,673.18 488.606,654.283 
  "/>
<polyline clip-path="url(#clip810)" style="stroke:#000000; stroke-linecap:butt; stroke-linejoin:round; stroke-width:4; stroke-opacity:1; fill:none" points="
  679.644,673.18 679.644,654.283 
  "/>
<polyline clip-path="url(#clip810)" style="stroke:#000000; stroke-linecap:butt; stroke-linejoin:round; stroke-width:4; stroke-opacity:1; fill:none" points="
  870.681,673.18 870.681,654.283 
  "/>
<polyline clip-path="url(#clip810)" style="stroke:#000000; stroke-linecap:butt; stroke-linejoin:round; stroke-width:4; stroke-opacity:1; fill:none" points="
  1061.72,673.18 1061.72,654.283 
  "/>
<polyline clip-path="url(#clip810)" style="stroke:#000000; stroke-linecap:butt; stroke-linejoin:round; stroke-width:4; stroke-opacity:1; fill:none" points="
  1252.76,673.18 1252.76,654.283 
  "/>
<path clip-path="url(#clip810)" d="M257.992 704.088 Q251.672 704.088 248.472 710.326 Q245.312 716.524 245.312 729.001 Q245.312 741.437 248.472 747.676 Q251.672 753.873 257.992 753.873 Q264.352 753.873 267.511 747.676 Q270.711 741.437 270.711 729.001 Q270.711 716.524 267.511 710.326 Q264.352 704.088 257.992 704.088 M257.992 697.606 Q268.159 697.606 273.507 705.668 Q278.894 713.689 278.894 729.001 Q278.894 744.273 273.507 752.334 Q268.159 760.355 257.992 760.355 Q247.824 760.355 242.436 752.334 Q237.089 744.273 237.089 729.001 Q237.089 713.689 242.436 705.668 Q247.824 697.606 257.992 697.606 Z" fill="#000000" fill-rule="evenodd" fill-opacity="1" /><path clip-path="url(#clip810)" d="M293.275 748.891 L301.822 748.891 L301.822 759.18 L293.275 759.18 L293.275 748.891 Z" fill="#000000" fill-rule="evenodd" fill-opacity="1" /><path clip-path="url(#clip810)" d="M337.146 704.088 Q330.827 704.088 327.627 710.326 Q324.467 716.524 324.467 729.001 Q324.467 741.437 327.627 747.676 Q330.827 753.873 337.146 753.873 Q343.506 753.873 346.666 747.676 Q349.866 741.437 349.866 729.001 Q349.866 716.524 346.666 710.326 Q343.506 704.088 337.146 704.088 M337.146 697.606 Q347.314 697.606 352.661 705.668 Q358.049 713.689 358.049 729.001 Q358.049 744.273 352.661 752.334 Q347.314 760.355 337.146 760.355 Q326.979 760.355 321.591 752.334 Q316.244 744.273 316.244 729.001 Q316.244 713.689 321.591 705.668 Q326.979 697.606 337.146 697.606 Z" fill="#000000" fill-rule="evenodd" fill-opacity="1" /><path clip-path="url(#clip810)" d="M450.103 704.088 Q443.783 704.088 440.583 710.326 Q437.423 716.524 437.423 729.001 Q437.423 741.437 440.583 747.676 Q443.783 753.873 450.103 753.873 Q456.462 753.873 459.622 747.676 Q462.822 741.437 462.822 729.001 Q462.822 716.524 459.622 710.326 Q456.462 704.088 450.103 704.088 M450.103 697.606 Q460.27 697.606 465.617 705.668 Q471.005 713.689 471.005 729.001 Q471.005 744.273 465.617 752.334 Q460.27 760.355 450.103 760.355 Q439.935 760.355 434.547 752.334 Q429.2 744.273 429.2 729.001 Q429.2 713.689 434.547 705.668 Q439.935 697.606 450.103 697.606 Z" fill="#000000" fill-rule="evenodd" fill-opacity="1" /><path clip-path="url(#clip810)" d="M485.386 748.891 L493.933 748.891 L493.933 759.18 L485.386 759.18 L485.386 748.891 Z" fill="#000000" fill-rule="evenodd" fill-opacity="1" /><path clip-path="url(#clip810)" d="M513.175 752.294 L526.543 752.294 L526.543 706.154 L512 709.07 L512 701.617 L526.462 698.7 L534.645 698.7 L534.645 752.294 L548.013 752.294 L548.013 759.18 L513.175 759.18 L513.175 752.294 Z" fill="#000000" fill-rule="evenodd" fill-opacity="1" /><path clip-path="url(#clip810)" d="M641.464 704.088 Q635.145 704.088 631.944 710.326 Q628.785 716.524 628.785 729.001 Q628.785 741.437 631.944 747.676 Q635.145 753.873 641.464 753.873 Q647.824 753.873 650.984 747.676 Q654.184 741.437 654.184 729.001 Q654.184 716.524 650.984 710.326 Q647.824 704.088 641.464 704.088 M641.464 697.606 Q651.632 697.606 656.979 705.668 Q662.367 713.689 662.367 729.001 Q662.367 744.273 656.979 752.334 Q651.632 760.355 641.464 760.355 Q631.296 760.355 625.909 752.334 Q620.561 744.273 620.561 729.001 Q620.561 713.689 625.909 705.668 Q631.296 697.606 641.464 697.606 Z" fill="#000000" fill-rule="evenodd" fill-opacity="1" /><path clip-path="url(#clip810)" d="M676.747 748.891 L685.295 748.891 L685.295 759.18 L676.747 759.18 L676.747 748.891 Z" fill="#000000" fill-rule="evenodd" fill-opacity="1" /><path clip-path="url(#clip810)" d="M710.167 752.294 L738.726 752.294 L738.726 759.18 L700.324 759.18 L700.324 752.294 Q704.982 747.473 713.003 739.371 Q721.064 731.229 723.13 728.879 Q727.06 724.464 728.599 721.426 Q730.179 718.347 730.179 715.39 Q730.179 710.569 726.776 707.531 Q723.414 704.493 717.986 704.493 Q714.137 704.493 709.843 705.83 Q705.59 707.167 700.729 709.881 L700.729 701.617 Q705.671 699.632 709.965 698.619 Q714.259 697.606 717.824 697.606 Q727.222 697.606 732.812 702.305 Q738.402 707.005 738.402 714.863 Q738.402 718.59 736.984 721.952 Q735.607 725.274 731.921 729.811 Q730.908 730.986 725.48 736.617 Q720.052 742.207 710.167 752.294 Z" fill="#000000" fill-rule="evenodd" fill-opacity="1" /><path clip-path="url(#clip810)" d="M831.671 704.088 Q825.352 704.088 822.151 710.326 Q818.992 716.524 818.992 729.001 Q818.992 741.437 822.151 747.676 Q825.352 753.873 831.671 753.873 Q838.031 753.873 841.191 747.676 Q844.391 741.437 844.391 729.001 Q844.391 716.524 841.191 710.326 Q838.031 704.088 831.671 704.088 M831.671 697.606 Q841.839 697.606 847.186 705.668 Q852.574 713.689 852.574 729.001 Q852.574 744.273 847.186 752.334 Q841.839 760.355 831.671 760.355 Q821.503 760.355 816.115 752.334 Q810.768 744.273 810.768 729.001 Q810.768 713.689 816.115 705.668 Q821.503 697.606 831.671 697.606 Z" fill="#000000" fill-rule="evenodd" fill-opacity="1" /><path clip-path="url(#clip810)" d="M866.954 748.891 L875.502 748.891 L875.502 759.18 L866.954 759.18 L866.954 748.891 Z" fill="#000000" fill-rule="evenodd" fill-opacity="1" /><path clip-path="url(#clip810)" d="M918.117 726.57 Q923.991 727.826 927.272 731.796 Q930.594 735.766 930.594 741.599 Q930.594 750.552 924.437 755.453 Q918.279 760.355 906.937 760.355 Q903.129 760.355 899.078 759.585 Q895.068 758.856 890.774 757.357 L890.774 749.458 Q894.176 751.443 898.227 752.456 Q902.278 753.468 906.694 753.468 Q914.39 753.468 918.401 750.43 Q922.452 747.392 922.452 741.599 Q922.452 736.252 918.684 733.254 Q914.958 730.216 908.274 730.216 L901.225 730.216 L901.225 723.492 L908.598 723.492 Q914.633 723.492 917.834 721.102 Q921.034 718.671 921.034 714.134 Q921.034 709.476 917.712 707.005 Q914.431 704.493 908.274 704.493 Q904.911 704.493 901.063 705.222 Q897.215 705.951 892.597 707.491 L892.597 700.199 Q897.255 698.903 901.306 698.255 Q905.397 697.606 909.003 697.606 Q918.32 697.606 923.748 701.86 Q929.176 706.073 929.176 713.283 Q929.176 718.307 926.3 721.79 Q923.424 725.234 918.117 726.57 Z" fill="#000000" fill-rule="evenodd" fill-opacity="1" /><path clip-path="url(#clip810)" d="M1021.72 704.088 Q1015.4 704.088 1012.2 710.326 Q1009.04 716.524 1009.04 729.001 Q1009.04 741.437 1012.2 747.676 Q1015.4 753.873 1021.72 753.873 Q1028.08 753.873 1031.24 747.676 Q1034.44 741.437 1034.44 729.001 Q1034.44 716.524 1031.24 710.326 Q1028.08 704.088 1021.72 704.088 M1021.72 697.606 Q1031.88 697.606 1037.23 705.668 Q1042.62 713.689 1042.62 729.001 Q1042.62 744.273 1037.23 752.334 Q1031.88 760.355 1021.72 760.355 Q1011.55 760.355 1006.16 752.334 Q1000.81 744.273 1000.81 729.001 Q1000.81 713.689 1006.16 705.668 Q1011.55 697.606 1021.72 697.606 Z" fill="#000000" fill-rule="evenodd" fill-opacity="1" /><path clip-path="url(#clip810)" d="M1057 748.891 L1065.55 748.891 L1065.55 759.18 L1057 759.18 L1057 748.891 Z" fill="#000000" fill-rule="evenodd" fill-opacity="1" /><path clip-path="url(#clip810)" d="M1105.85 705.83 L1085.19 738.115 L1105.85 738.115 L1105.85 705.83 M1103.71 698.7 L1114 698.7 L1114 738.115 L1122.62 738.115 L1122.62 744.921 L1114 744.921 L1114 759.18 L1105.85 759.18 L1105.85 744.921 L1078.55 744.921 L1078.55 737.022 L1103.71 698.7 Z" fill="#000000" fill-rule="evenodd" fill-opacity="1" /><path clip-path="url(#clip810)" d="M1214.05 704.088 Q1207.73 704.088 1204.53 710.326 Q1201.37 716.524 1201.37 729.001 Q1201.37 741.437 1204.53 747.676 Q1207.73 753.873 1214.05 753.873 Q1220.41 753.873 1223.57 747.676 Q1226.77 741.437 1226.77 729.001 Q1226.77 716.524 1223.57 710.326 Q1220.41 704.088 1214.05 704.088 M1214.05 697.606 Q1224.22 697.606 1229.56 705.668 Q1234.95 713.689 1234.95 729.001 Q1234.95 744.273 1229.56 752.334 Q1224.22 760.355 1214.05 760.355 Q1203.88 760.355 1198.49 752.334 Q1193.15 744.273 1193.15 729.001 Q1193.15 713.689 1198.49 705.668 Q1203.88 697.606 1214.05 697.606 Z" fill="#000000" fill-rule="evenodd" fill-opacity="1" /><path clip-path="url(#clip810)" d="M1249.33 748.891 L1257.88 748.891 L1257.88 759.18 L1249.33 759.18 L1249.33 748.891 Z" fill="#000000" fill-rule="evenodd" fill-opacity="1" /><path clip-path="url(#clip810)" d="M1275.79 698.7 L1307.91 698.7 L1307.91 705.587 L1283.28 705.587 L1283.28 720.413 Q1285.06 719.805 1286.84 719.522 Q1288.63 719.198 1290.41 719.198 Q1300.54 719.198 1306.45 724.747 Q1312.36 730.297 1312.36 739.776 Q1312.36 749.539 1306.29 754.967 Q1300.21 760.355 1289.15 760.355 Q1285.35 760.355 1281.38 759.707 Q1277.45 759.059 1273.23 757.762 L1273.23 749.539 Q1276.88 751.524 1280.77 752.496 Q1284.66 753.468 1288.99 753.468 Q1296 753.468 1300.09 749.782 Q1304.18 746.096 1304.18 739.776 Q1304.18 733.457 1300.09 729.771 Q1296 726.084 1288.99 726.084 Q1285.71 726.084 1282.43 726.813 Q1279.19 727.543 1275.79 729.082 L1275.79 698.7 Z" fill="#000000" fill-rule="evenodd" fill-opacity="1" /><polyline clip-path="url(#clip810)" style="stroke:#000000; stroke-linecap:butt; stroke-linejoin:round; stroke-width:4; stroke-opacity:1; fill:none" points="
  297.569,673.18 297.569,47.2441 
  "/>
<polyline clip-path="url(#clip810)" style="stroke:#000000; stroke-linecap:butt; stroke-linejoin:round; stroke-width:4; stroke-opacity:1; fill:none" points="
  297.569,673.18 316.467,673.18 
  "/>
<polyline clip-path="url(#clip810)" style="stroke:#000000; stroke-linecap:butt; stroke-linejoin:round; stroke-width:4; stroke-opacity:1; fill:none" points="
  297.569,380.659 316.467,380.659 
  "/>
<polyline clip-path="url(#clip810)" style="stroke:#000000; stroke-linecap:butt; stroke-linejoin:round; stroke-width:4; stroke-opacity:1; fill:none" points="
  297.569,88.1369 316.467,88.1369 
  "/>
<path clip-path="url(#clip810)" d="M57.6669 707.817 L71.0349 707.817 L71.0349 661.677 L56.4921 664.594 L56.4921 657.14 L70.9539 654.223 L79.1367 654.223 L79.1367 707.817 L92.5047 707.817 L92.5047 714.703 L57.6669 714.703 L57.6669 707.817 Z" fill="#000000" fill-rule="evenodd" fill-opacity="1" /><path clip-path="url(#clip810)" d="M126.532 659.611 Q120.213 659.611 117.013 665.85 Q113.853 672.047 113.853 684.524 Q113.853 696.961 117.013 703.199 Q120.213 709.397 126.532 709.397 Q132.892 709.397 136.052 703.199 Q139.252 696.961 139.252 684.524 Q139.252 672.047 136.052 665.85 Q132.892 659.611 126.532 659.611 M126.532 653.13 Q136.7 653.13 142.047 661.191 Q147.435 669.212 147.435 684.524 Q147.435 699.796 142.047 707.857 Q136.7 715.878 126.532 715.878 Q116.364 715.878 110.977 707.857 Q105.63 699.796 105.63 684.524 Q105.63 669.212 110.977 661.191 Q116.364 653.13 126.532 653.13 Z" fill="#000000" fill-rule="evenodd" fill-opacity="1" /><path clip-path="url(#clip810)" d="M147.435 642.807 L189.63 642.807 L189.63 648.402 L147.435 648.402 L147.435 642.807 Z" fill="#000000" fill-rule="evenodd" fill-opacity="1" /><path clip-path="url(#clip810)" d="M205.132 661.14 L215.994 661.14 L215.994 623.651 L204.178 626.021 L204.178 619.965 L215.928 617.595 L222.577 617.595 L222.577 661.14 L233.438 661.14 L233.438 666.735 L205.132 666.735 L205.132 661.14 Z" fill="#000000" fill-rule="evenodd" fill-opacity="1" /><path clip-path="url(#clip810)" d="M261.086 621.973 Q255.951 621.973 253.351 627.041 Q250.784 632.077 250.784 642.215 Q250.784 652.319 253.351 657.388 Q255.951 662.424 261.086 662.424 Q266.253 662.424 268.82 657.388 Q271.42 652.319 271.42 642.215 Q271.42 632.077 268.82 627.041 Q266.253 621.973 261.086 621.973 M261.086 616.707 Q269.347 616.707 273.691 623.256 Q278.069 629.773 278.069 642.215 Q278.069 654.623 273.691 661.173 Q269.347 667.69 261.086 667.69 Q252.824 667.69 248.447 661.173 Q244.102 654.623 244.102 642.215 Q244.102 629.773 248.447 623.256 Q252.824 616.707 261.086 616.707 Z" fill="#000000" fill-rule="evenodd" fill-opacity="1" /><path clip-path="url(#clip810)" d="M101.969 415.295 L115.337 415.295 L115.337 369.155 L100.794 372.072 L100.794 364.618 L115.256 361.702 L123.438 361.702 L123.438 415.295 L136.806 415.295 L136.806 422.182 L101.969 422.182 L101.969 415.295 Z" fill="#000000" fill-rule="evenodd" fill-opacity="1" /><path clip-path="url(#clip810)" d="M170.834 367.09 Q164.515 367.09 161.314 373.328 Q158.155 379.526 158.155 392.003 Q158.155 404.439 161.314 410.677 Q164.515 416.875 170.834 416.875 Q177.194 416.875 180.354 410.677 Q183.554 404.439 183.554 392.003 Q183.554 379.526 180.354 373.328 Q177.194 367.09 170.834 367.09 M170.834 360.608 Q181.002 360.608 186.349 368.669 Q191.737 376.69 191.737 392.003 Q191.737 407.274 186.349 415.336 Q181.002 423.357 170.834 423.357 Q160.666 423.357 155.278 415.336 Q149.931 407.274 149.931 392.003 Q149.931 376.69 155.278 368.669 Q160.666 360.608 170.834 360.608 Z" fill="#000000" fill-rule="evenodd" fill-opacity="1" /><path clip-path="url(#clip810)" d="M191.737 350.285 L233.932 350.285 L233.932 355.881 L191.737 355.881 L191.737 350.285 Z" fill="#000000" fill-rule="evenodd" fill-opacity="1" /><path clip-path="url(#clip810)" d="M248.348 325.074 L274.448 325.074 L274.448 330.669 L254.437 330.669 L254.437 342.715 Q255.885 342.222 257.333 341.991 Q258.782 341.728 260.23 341.728 Q268.458 341.728 273.264 346.237 Q278.069 350.746 278.069 358.448 Q278.069 366.38 273.132 370.791 Q268.195 375.168 259.21 375.168 Q256.116 375.168 252.89 374.642 Q249.697 374.115 246.274 373.062 L246.274 366.38 Q249.237 367.993 252.396 368.783 Q255.556 369.573 259.078 369.573 Q264.772 369.573 268.096 366.578 Q271.42 363.583 271.42 358.448 Q271.42 353.313 268.096 350.318 Q264.772 347.323 259.078 347.323 Q256.412 347.323 253.746 347.916 Q251.113 348.508 248.348 349.759 L248.348 325.074 Z" fill="#000000" fill-rule="evenodd" fill-opacity="1" /><path clip-path="url(#clip810)" d="M154.334 122.774 L167.702 122.774 L167.702 76.6338 L153.159 79.5505 L153.159 72.0968 L167.621 69.1802 L175.804 69.1802 L175.804 122.774 L189.172 122.774 L189.172 129.66 L154.334 129.66 L154.334 122.774 Z" fill="#000000" fill-rule="evenodd" fill-opacity="1" /><path clip-path="url(#clip810)" d="M223.199 74.5679 Q216.88 74.5679 213.68 80.8063 Q210.52 87.0041 210.52 99.4809 Q210.52 111.917 213.68 118.156 Q216.88 124.353 223.199 124.353 Q229.559 124.353 232.719 118.156 Q235.919 111.917 235.919 99.4809 Q235.919 87.0041 232.719 80.8063 Q229.559 74.5679 223.199 74.5679 M223.199 68.0864 Q233.367 68.0864 238.714 76.1477 Q244.102 84.1685 244.102 99.4809 Q244.102 114.753 238.714 122.814 Q233.367 130.835 223.199 130.835 Q213.032 130.835 207.644 122.814 Q202.297 114.753 202.297 99.4809 Q202.297 84.1685 207.644 76.1477 Q213.032 68.0864 223.199 68.0864 Z" fill="#000000" fill-rule="evenodd" fill-opacity="1" /><path clip-path="url(#clip810)" d="M261.086 36.9295 Q255.951 36.9295 253.351 41.9982 Q250.784 47.0339 250.784 57.1713 Q250.784 67.2758 253.351 72.3445 Q255.951 77.3803 261.086 77.3803 Q266.253 77.3803 268.82 72.3445 Q271.42 67.2758 271.42 57.1713 Q271.42 47.0339 268.82 41.9982 Q266.253 36.9295 261.086 36.9295 M261.086 31.6633 Q269.347 31.6633 273.691 38.2131 Q278.069 44.73 278.069 57.1713 Q278.069 69.5798 273.691 76.1296 Q269.347 82.6465 261.086 82.6465 Q252.824 82.6465 248.447 76.1296 Q244.102 69.5798 244.102 57.1713 Q244.102 44.73 248.447 38.2131 Q252.824 31.6633 261.086 31.6633 Z" fill="#000000" fill-rule="evenodd" fill-opacity="1" /><polyline clip-path="url(#clip812)" style="stroke:#000000; stroke-linecap:butt; stroke-linejoin:round; stroke-width:16; stroke-opacity:1; fill:none" stroke-dasharray="8, 16" points="
  297.569,4569.67 307.121,4378.08 316.673,4138.16 326.225,3847 335.776,3508.24 345.328,3200.73 354.88,2963.2 364.432,2773.38 373.984,2617.3 383.536,2486.01 
  393.088,2373.1 402.64,2274.28 412.191,2185.97 421.743,2105.55 431.295,2030.78 440.847,1959.78 450.399,1890.55 459.951,1821.2 469.503,1750.23 479.055,1675.6 
  488.606,1596.24 498.158,1510.63 507.71,1418.66 517.262,1319.89 526.814,1214.08 536.366,1101.76 545.918,982.254 555.469,856.661 565.021,725.356 574.573,591.696 
  584.125,460.171 593.677,339.135 603.229,242.543 612.781,184.28 622.333,155.729 631.884,140.671 641.436,132.605 650.988,128.201 660.54,125.696 670.092,123.974 
  679.644,122.844 689.196,121.848 698.747,120.99 708.299,120.169 717.851,119.385 727.403,118.529 736.955,117.78 746.507,116.998 756.059,116.198 765.611,115.387 
  775.162,114.55 784.714,113.751 794.266,112.936 803.818,112.118 813.37,111.279 822.922,110.449 832.474,109.613 842.026,108.752 851.577,107.889 861.129,107.048 
  870.681,106.198 880.233,105.334 889.785,104.447 899.337,103.572 908.889,102.704 918.44,101.15 927.992,96.1862 937.544,91.732 947.096,89.4581 956.648,88.5792 
  966.2,88.279 975.752,88.1816 985.304,88.1621 994.855,88.1621 1004.41,88.1621 1013.96,88.1621 1023.51,88.1621 1033.06,88.1621 1042.61,88.1621 1052.17,88.1621 
  1061.72,88.1621 1071.27,88.1621 1080.82,88.1621 1090.37,88.1621 1099.93,88.1621 1109.48,88.1621 1119.03,88.1621 1128.58,88.1621 1138.13,88.1621 1147.69,88.1621 
  1157.24,88.1621 1166.79,88.1621 1176.34,88.1621 1185.89,88.1621 1195.44,88.1621 1205,88.1621 1214.55,88.1621 1224.1,88.1621 1233.65,88.1621 1243.2,88.1621 
  1252.76,88.1621 1262.31,88.1621 1271.86,88.1622 1281.41,88.1622 1290.96,88.1622 1300.52,88.1622 1310.07,88.1622 1319.62,88.1622 1329.17,88.1622 1338.72,88.1622 
  1348.27,88.1622 1357.83,88.1622 1367.38,88.1622 1376.93,88.1622 1386.48,88.1622 1396.03,88.1622 1405.59,88.1622 1415.14,88.1622 1424.69,88.1622 1434.24,88.1622 
  1443.79,88.1622 1453.35,88.1622 1462.9,88.1622 1472.45,88.1622 1482,88.1622 1491.55,88.1622 1501.1,88.1622 1510.66,88.1622 1520.21,88.1622 1529.76,88.1622 
  1539.31,88.1622 1548.86,88.1622 1558.42,88.1622 1567.97,88.1622 1577.52,88.1622 1587.07,88.1622 1596.62,88.1622 1606.18,88.1622 1615.73,88.1622 1625.28,88.1622 
  1634.83,88.1622 1644.38,88.1622 1653.93,88.1622 1663.49,88.1622 1673.04,88.1622 1682.59,88.1622 1692.14,88.1622 1701.69,88.1622 1711.25,88.1622 1720.8,88.1622 
  1730.35,88.1622 1739.9,88.1622 1749.45,88.1622 1759,88.1622 1768.56,88.1622 1778.11,88.1622 1787.66,88.1622 1797.21,88.1622 1806.76,88.1622 1816.32,88.1622 
  1825.87,88.1622 1835.42,88.1622 1844.97,88.1622 1854.52,88.1622 1864.08,88.1622 1873.63,88.1622 1883.18,88.1622 1892.73,88.1622 1902.28,88.1622 1911.83,88.1622 
  1921.39,88.1622 1930.94,88.1622 1940.49,88.1622 1950.04,88.1622 1959.59,88.1622 1969.15,88.1622 1978.7,88.1622 1988.25,88.1622 1997.8,88.1622 2007.35,88.1622 
  2016.91,88.1622 2026.46,88.1622 2036.01,88.1622 2045.56,88.1622 2055.11,88.1622 2064.66,88.1622 2074.22,88.1622 2083.77,88.1622 2093.32,88.1622 2102.87,88.1623 
  2112.42,88.1623 2121.98,88.1623 2131.53,88.1623 2141.08,88.1623 2150.63,88.1623 2160.18,88.1623 2169.74,88.1623 2179.29,88.1623 2188.84,88.1623 2198.39,88.1623 
  2207.94,88.1623 
  "/>
<polyline clip-path="url(#clip812)" style="stroke:#000000; stroke-linecap:butt; stroke-linejoin:round; stroke-width:16; stroke-opacity:1; fill:none" stroke-dasharray="64, 40" points="
  297.569,3449.27 307.121,3309.13 316.673,3146.91 326.225,2960.39 335.776,2748.53 345.328,2511.37 354.88,2249.09 364.432,1959.89 373.984,1637.21 383.536,1269.86 
  393.088,880.196 402.64,501.005 412.191,223.05 421.743,147.574 431.295,120.025 440.847,103.953 450.399,95.5842 459.951,92.826 469.503,91.5142 479.055,90.2443 
  488.606,89.2653 498.158,88.6749 507.71,88.3761 517.262,88.2535 526.814,88.2425 536.366,88.2335 545.918,88.226 555.469,88.2196 565.021,88.2142 574.573,88.2093 
  584.125,88.2052 593.677,88.2015 603.229,88.1981 612.781,88.1952 622.333,88.1924 631.884,88.1898 641.436,88.1877 650.988,88.1857 660.54,88.1838 670.092,88.182 
  679.644,88.1802 689.196,88.1787 698.747,88.1774 708.299,88.1762 717.851,88.175 727.403,88.1738 736.955,88.1727 746.507,88.1715 756.059,88.1704 765.611,88.1697 
  775.162,88.169 784.714,88.1683 794.266,88.1676 803.818,88.1669 813.37,88.1662 822.922,88.1656 832.474,88.1649 842.026,88.1643 851.577,88.1636 861.129,88.1632 
  870.681,88.1629 880.233,88.1626 889.785,88.1623 899.337,88.1621 908.889,88.1621 918.44,88.1621 927.992,88.1621 937.544,88.1621 947.096,88.1621 956.648,88.1621 
  966.2,88.1621 975.752,88.1621 985.304,88.1621 994.855,88.1621 1004.41,88.1621 1013.96,88.1621 1023.51,88.1621 1033.06,88.1621 1042.61,88.1621 1052.17,88.1621 
  1061.72,88.1621 1071.27,88.1621 1080.82,88.1621 1090.37,88.1621 1099.93,88.1621 1109.48,88.1621 1119.03,88.1621 1128.58,88.1621 1138.13,88.1621 1147.69,88.1621 
  1157.24,88.1621 1166.79,88.1621 1176.34,88.1621 1185.89,88.1621 1195.44,88.1621 1205,88.1621 1214.55,88.1621 1224.1,88.1621 1233.65,88.1621 1243.2,88.1621 
  1252.76,88.1621 1262.31,88.1621 1271.86,88.1622 1281.41,88.1622 1290.96,88.1622 1300.52,88.1622 1310.07,88.1622 1319.62,88.1622 1329.17,88.1622 1338.72,88.1622 
  1348.27,88.1622 1357.83,88.1622 1367.38,88.1622 1376.93,88.1622 1386.48,88.1622 1396.03,88.1622 1405.59,88.1622 1415.14,88.1622 1424.69,88.1622 1434.24,88.1622 
  1443.79,88.1622 1453.35,88.1622 1462.9,88.1622 1472.45,88.1622 1482,88.1622 1491.55,88.1622 1501.1,88.1622 1510.66,88.1622 1520.21,88.1622 1529.76,88.1622 
  1539.31,88.1622 1548.86,88.1622 1558.42,88.1622 1567.97,88.1622 1577.52,88.1622 1587.07,88.1622 1596.62,88.1622 1606.18,88.1622 1615.73,88.1622 1625.28,88.1622 
  1634.83,88.1622 1644.38,88.1622 1653.93,88.1622 1663.49,88.1622 1673.04,88.1622 1682.59,88.1622 1692.14,88.1622 1701.69,88.1622 1711.25,88.1622 1720.8,88.1622 
  1730.35,88.1622 1739.9,88.1622 1749.45,88.1622 1759,88.1622 1768.56,88.1622 1778.11,88.1622 1787.66,88.1622 1797.21,88.1622 1806.76,88.1622 1816.32,88.1622 
  1825.87,88.1622 1835.42,88.1622 1844.97,88.1622 1854.52,88.1622 1864.08,88.1622 1873.63,88.1622 1883.18,88.1622 1892.73,88.1622 1902.28,88.1622 1911.83,88.1622 
  1921.39,88.1622 1930.94,88.1622 1940.49,88.1622 1950.04,88.1622 1959.59,88.1622 1969.15,88.1622 1978.7,88.1622 1988.25,88.1622 1997.8,88.1622 2007.35,88.1622 
  2016.91,88.1622 2026.46,88.1622 2036.01,88.1622 2045.56,88.1622 2055.11,88.1622 2064.66,88.1622 2074.22,88.1622 2083.77,88.1622 2093.32,88.1622 2102.87,88.1623 
  2112.42,88.1623 2121.98,88.1623 2131.53,88.1623 2141.08,88.1623 2150.63,88.1623 2160.18,88.1623 2169.74,88.1623 2179.29,88.1623 2188.84,88.1623 2198.39,88.1623 
  2207.94,88.1623 
  "/>
<polyline clip-path="url(#clip812)" style="stroke:#808080; stroke-linecap:butt; stroke-linejoin:round; stroke-width:16; stroke-opacity:1; fill:none" stroke-dasharray="8, 16" points="
  297.569,5931.77 307.121,5737.29 316.673,5494.5 326.225,5200.48 335.776,4858.69 345.328,4479.2 354.88,4114.14 364.432,3823.77 373.984,3587.55 383.536,3390.83 
  393.088,3223.8 402.64,3079.22 412.191,2951.54 421.743,2836.82 431.295,2731.54 440.847,2632.37 450.399,2536.72 459.951,2441.85 469.503,2345.01 479.055,2243.72 
  488.606,2136.02 498.158,2020.67 507.71,1897.21 517.262,1765.81 526.814,1627.02 536.366,1481.47 545.918,1329.5 555.469,1171.68 565.021,1008.68 574.573,843.012 
  584.125,678.479 593.677,520.918 603.229,380.14 612.781,267.6 622.333,196.463 631.884,162.483 641.436,147.369 650.988,139.798 660.54,135.834 670.092,133.243 
  679.644,131.482 689.196,130.083 698.747,128.754 708.299,127.67 717.851,126.486 727.403,125.403 736.955,124.331 746.507,123.229 756.059,122.132 765.611,121.051 
  775.162,119.969 784.714,118.843 794.266,117.803 803.818,116.68 813.37,115.616 822.922,114.535 832.474,113.489 842.026,112.416 851.577,111.356 861.129,110.278 
  870.681,109.214 880.233,108.143 889.785,107.079 899.337,106.013 908.889,104.947 918.44,102.798 927.992,96.8635 937.544,91.945 947.096,89.5221 956.648,88.599 
  966.2,88.2853 975.752,88.1836 985.304,88.1621 994.855,88.1621 1004.41,88.1621 1013.96,88.1621 1023.51,88.1621 1033.06,88.1621 1042.61,88.1621 1052.17,88.1621 
  1061.72,88.1621 1071.27,88.1621 1080.82,88.1621 1090.37,88.1621 1099.93,88.1621 1109.48,88.1621 1119.03,88.1621 1128.58,88.1621 1138.13,88.1621 1147.69,88.1621 
  1157.24,88.1621 1166.79,88.1621 1176.34,88.1621 1185.89,88.1621 1195.44,88.1621 1205,88.1621 1214.55,88.1621 1224.1,88.1621 1233.65,88.1621 1243.2,88.1621 
  1252.76,88.1621 1262.31,88.1621 1271.86,88.1621 1281.41,88.1621 1290.96,88.1621 1300.52,88.1621 1310.07,88.1621 1319.62,88.1622 1329.17,88.1622 1338.72,88.1622 
  1348.27,88.1622 1357.83,88.1622 1367.38,88.1622 1376.93,88.1622 1386.48,88.1622 1396.03,88.1622 1405.59,88.1622 1415.14,88.1622 1424.69,88.1622 1434.24,88.1622 
  1443.79,88.1622 1453.35,88.1622 1462.9,88.1622 1472.45,88.1622 1482,88.1622 1491.55,88.1622 1501.1,88.1622 1510.66,88.1622 1520.21,88.1622 1529.76,88.1622 
  1539.31,88.1622 1548.86,88.1622 1558.42,88.1622 1567.97,88.1622 1577.52,88.1622 1587.07,88.1622 1596.62,88.1622 1606.18,88.1622 1615.73,88.1622 1625.28,88.1622 
  1634.83,88.1622 1644.38,88.1622 1653.93,88.1622 1663.49,88.1622 1673.04,88.1622 1682.59,88.1622 1692.14,88.1622 1701.69,88.1622 1711.25,88.1622 1720.8,88.1622 
  1730.35,88.1622 1739.9,88.1622 1749.45,88.1622 1759,88.1622 1768.56,88.1622 1778.11,88.1622 1787.66,88.1622 1797.21,88.1622 1806.76,88.1622 1816.32,88.1622 
  1825.87,88.1622 1835.42,88.1622 1844.97,88.1622 1854.52,88.1622 1864.08,88.1622 1873.63,88.1622 1883.18,88.1622 1892.73,88.1622 1902.28,88.1622 1911.83,88.1622 
  1921.39,88.1622 1930.94,88.1622 1940.49,88.1622 1950.04,88.1622 1959.59,88.1622 1969.15,88.1622 1978.7,88.1622 1988.25,88.1622 1997.8,88.1622 2007.35,88.1622 
  2016.91,88.1622 2026.46,88.1622 2036.01,88.1622 2045.56,88.1622 2055.11,88.1622 2064.66,88.1622 2074.22,88.1622 2083.77,88.1622 2093.32,88.1622 2102.87,88.1622 
  2112.42,88.1622 2121.98,88.1622 2131.53,88.1622 2141.08,88.1622 2150.63,88.1622 2160.18,88.1622 2169.74,88.1622 2179.29,88.1622 2188.84,88.1622 2198.39,88.1623 
  2207.94,88.1623 
  "/>
<polyline clip-path="url(#clip812)" style="stroke:#808080; stroke-linecap:butt; stroke-linejoin:round; stroke-width:16; stroke-opacity:1; fill:none" stroke-dasharray="64, 40" points="
  297.569,4539.49 307.121,4378.92 316.673,4194.72 326.225,3984.4 335.776,3746.34 345.328,3479.51 354.88,3182.37 364.432,2850.56 373.984,2474.18 383.536,2036.74 
  393.088,1521.55 402.64,949.969 412.191,438.094 421.743,169.461 431.295,121.997 440.847,103.535 450.399,95.4946 459.951,93.0489 469.503,91.3741 479.055,89.9865 
  488.606,89.0635 498.158,88.5614 507.71,88.3218 517.262,88.2306 526.814,88.2227 536.366,88.2163 545.918,88.2109 555.469,88.2064 565.021,88.2025 574.573,88.1992 
  584.125,88.1962 593.677,88.1937 603.229,88.1912 612.781,88.1892 622.333,88.1874 631.884,88.1857 641.436,88.184 650.988,88.1827 660.54,88.1815 670.092,88.1803 
  679.644,88.1792 689.196,88.1781 698.747,88.177 708.299,88.1762 717.851,88.1755 727.403,88.1748 736.955,88.1742 746.507,88.1735 756.059,88.1728 765.611,88.1722 
  775.162,88.1716 784.714,88.1709 794.266,88.1703 803.818,88.1697 813.37,88.1694 822.922,88.1691 832.474,88.1688 842.026,88.1685 851.577,88.1682 861.129,88.1679 
  870.681,88.1677 880.233,88.1674 889.785,88.1671 899.337,88.1668 908.889,88.1665 918.44,88.1663 927.992,88.166 937.544,88.1657 947.096,88.1655 956.648,88.1652 
  966.2,88.1649 975.752,88.1647 985.304,88.1644 994.855,88.1641 1004.41,88.1639 1013.96,88.1636 1023.51,88.1633 1033.06,88.1631 1042.61,88.1628 1052.17,88.1626 
  1061.72,88.1623 1071.27,88.1621 1080.82,88.1621 1090.37,88.1621 1099.93,88.1621 1109.48,88.1621 1119.03,88.1621 1128.58,88.1621 1138.13,88.1621 1147.69,88.1621 
  1157.24,88.1621 1166.79,88.1621 1176.34,88.1621 1185.89,88.1621 1195.44,88.1621 1205,88.1621 1214.55,88.1621 1224.1,88.1621 1233.65,88.1621 1243.2,88.1621 
  1252.76,88.1621 1262.31,88.1621 1271.86,88.1621 1281.41,88.1621 1290.96,88.1621 1300.52,88.1621 1310.07,88.1621 1319.62,88.1621 1329.17,88.1621 1338.72,88.1621 
  1348.27,88.1621 1357.83,88.1621 1367.38,88.1621 1376.93,88.1621 1386.48,88.1621 1396.03,88.1621 1405.59,88.1621 1415.14,88.1621 1424.69,88.1621 1434.24,88.1621 
  1443.79,88.1621 1453.35,88.1621 1462.9,88.1621 1472.45,88.1621 1482,88.1621 1491.55,88.1621 1501.1,88.1621 1510.66,88.1621 1520.21,88.1621 1529.76,88.1621 
  1539.31,88.1621 1548.86,88.1621 1558.42,88.1621 1567.97,88.1621 1577.52,88.1621 1587.07,88.1621 1596.62,88.1621 1606.18,88.1621 1615.73,88.1621 1625.28,88.1621 
  1634.83,88.1621 1644.38,88.1621 1653.93,88.1621 1663.49,88.1621 1673.04,88.1621 1682.59,88.1621 1692.14,88.1621 1701.69,88.1621 1711.25,88.1622 1720.8,88.1622 
  1730.35,88.1622 1739.9,88.1622 1749.45,88.1622 1759,88.1622 1768.56,88.1622 1778.11,88.1622 1787.66,88.1622 1797.21,88.1622 1806.76,88.1622 1816.32,88.1622 
  1825.87,88.1622 1835.42,88.1622 1844.97,88.1622 1854.52,88.1622 1864.08,88.1622 1873.63,88.1622 1883.18,88.1622 1892.73,88.1622 1902.28,88.1622 1911.83,88.1622 
  1921.39,88.1622 1930.94,88.1622 1940.49,88.1622 1950.04,88.1622 1959.59,88.1622 1969.15,88.1622 1978.7,88.1622 1988.25,88.1622 1997.8,88.1622 2007.35,88.1622 
  2016.91,88.1622 2026.46,88.1622 2036.01,88.1622 2045.56,88.1622 2055.11,88.1622 2064.66,88.1622 2074.22,88.1622 2083.77,88.1622 2093.32,88.1622 2102.87,88.1622 
  2112.42,88.1622 2121.98,88.1622 2131.53,88.1622 2141.08,88.1622 2150.63,88.1622 2160.18,88.1622 2169.74,88.1622 2179.29,88.1622 2188.84,88.1622 2198.39,88.1622 
  2207.94,88.1622 
  "/>
<polyline clip-path="url(#clip812)" style="stroke:#0000ff; stroke-linecap:butt; stroke-linejoin:round; stroke-width:16; stroke-opacity:1; fill:none" stroke-dasharray="8, 16" points="
  297.569,3605.48 307.121,3416.64 316.673,3179.75 326.225,2891.91 335.776,2618.82 345.328,2414.33 354.88,2254.31 364.432,2124.81 373.984,2017 383.536,1925 
  393.088,1844.87 402.64,1773.69 412.191,1709.2 421.743,1649.71 431.295,1593.61 440.847,1539.82 450.399,1486.71 459.951,1433.15 469.503,1378.09 479.055,1320.07 
  488.606,1257.91 498.158,1190.84 507.71,1118.31 517.262,1039.44 526.814,954.377 536.366,862.609 545.918,763.91 555.469,658.664 565.021,548.434 574.573,437.634 
  584.125,332.355 593.677,245.299 603.229,190.286 612.781,160.961 622.333,143.92 631.884,133.555 641.436,127.48 650.988,124.07 660.54,122.039 670.092,120.645 
  679.644,119.681 689.196,118.854 698.747,118.106 708.299,117.413 717.851,116.728 727.403,115.983 736.955,115.335 746.507,114.651 756.059,113.949 765.611,113.233 
  775.162,112.49 784.714,111.793 794.266,111.058 803.818,110.337 813.37,109.59 822.922,108.844 832.474,108.083 842.026,107.321 851.577,106.541 861.129,105.777 
  870.681,104.986 880.233,104.198 889.785,103.406 899.337,102.603 908.889,101.785 918.44,100.262 927.992,95.5628 937.544,91.4309 947.096,89.3427 956.648,88.5398 
  966.2,88.2662 975.752,88.1776 985.304,88.1621 994.855,88.1621 1004.41,88.1621 1013.96,88.1621 1023.51,88.1621 1033.06,88.1621 1042.61,88.1621 1052.17,88.1621 
  1061.72,88.1621 1071.27,88.1621 1080.82,88.1621 1090.37,88.1621 1099.93,88.1621 1109.48,88.1621 1119.03,88.1621 1128.58,88.1621 1138.13,88.1621 1147.69,88.1621 
  1157.24,88.1621 1166.79,88.1621 1176.34,88.1621 1185.89,88.1621 1195.44,88.1621 1205,88.1621 1214.55,88.1621 1224.1,88.1621 1233.65,88.1621 1243.2,88.1621 
  1252.76,88.1621 1262.31,88.1621 1271.86,88.1621 1281.41,88.1621 1290.96,88.1621 1300.52,88.1621 1310.07,88.1621 1319.62,88.1622 1329.17,88.1622 1338.72,88.1622 
  1348.27,88.1622 1357.83,88.1622 1367.38,88.1622 1376.93,88.1622 1386.48,88.1622 1396.03,88.1622 1405.59,88.1622 1415.14,88.1622 1424.69,88.1622 1434.24,88.1622 
  1443.79,88.1622 1453.35,88.1622 1462.9,88.1622 1472.45,88.1622 1482,88.1622 1491.55,88.1622 1501.1,88.1622 1510.66,88.1622 1520.21,88.1622 1529.76,88.1622 
  1539.31,88.1622 1548.86,88.1622 1558.42,88.1622 1567.97,88.1622 1577.52,88.1622 1587.07,88.1622 1596.62,88.1622 1606.18,88.1622 1615.73,88.1622 1625.28,88.1622 
  1634.83,88.1622 1644.38,88.1622 1653.93,88.1622 1663.49,88.1622 1673.04,88.1622 1682.59,88.1622 1692.14,88.1622 1701.69,88.1622 1711.25,88.1622 1720.8,88.1622 
  1730.35,88.1622 1739.9,88.1622 1749.45,88.1622 1759,88.1622 1768.56,88.1622 1778.11,88.1622 1787.66,88.1622 1797.21,88.1622 1806.76,88.1622 1816.32,88.1622 
  1825.87,88.1622 1835.42,88.1622 1844.97,88.1622 1854.52,88.1622 1864.08,88.1622 1873.63,88.1622 1883.18,88.1622 1892.73,88.1622 1902.28,88.1622 1911.83,88.1622 
  1921.39,88.1622 1930.94,88.1622 1940.49,88.1622 1950.04,88.1622 1959.59,88.1622 1969.15,88.1622 1978.7,88.1622 1988.25,88.1622 1997.8,88.1622 2007.35,88.1622 
  2016.91,88.1622 2026.46,88.1622 2036.01,88.1622 2045.56,88.1622 2055.11,88.1622 2064.66,88.1622 2074.22,88.1622 2083.77,88.1622 2093.32,88.1622 2102.87,88.1622 
  2112.42,88.1622 2121.98,88.1622 2131.53,88.1622 2141.08,88.1622 2150.63,88.1622 2160.18,88.1622 2169.74,88.1622 2179.29,88.1622 2188.84,88.1622 2198.39,88.1623 
  2207.94,88.1623 
  "/>
<polyline clip-path="url(#clip812)" style="stroke:#0000ff; stroke-linecap:butt; stroke-linejoin:round; stroke-width:16; stroke-opacity:1; fill:none" stroke-dasharray="64, 40" points="
  297.569,2602.81 307.121,2477.46 316.673,2332.73 326.225,2166.96 335.776,1979.6 345.328,1771.05 354.88,1541.61 364.432,1289.54 373.984,1012.45 383.536,729.853 
  393.088,453.595 402.64,238.567 412.191,163.737 421.743,133.458 431.295,113.535 440.847,100.688 450.399,94.3057 459.951,92.3005 469.503,90.9118 479.055,89.7351 
  488.606,88.9412 498.158,88.506 507.71,88.2977 517.262,88.2173 526.814,88.2105 536.366,88.205 545.918,88.2005 555.469,88.1966 565.021,88.1933 574.573,88.1904 
  584.125,88.188 593.677,88.1857 603.229,88.1837 612.781,88.182 622.333,88.1804 631.884,88.1788 641.436,88.1777 650.988,88.1766 660.54,88.1755 670.092,88.1744 
  679.644,88.1734 689.196,88.1727 698.747,88.172 708.299,88.1713 717.851,88.1707 727.403,88.17 736.955,88.1694 746.507,88.1688 756.059,88.1682 765.611,88.1677 
  775.162,88.1674 784.714,88.1671 794.266,88.1668 803.818,88.1665 813.37,88.1662 822.922,88.1659 832.474,88.1656 842.026,88.1654 851.577,88.1651 861.129,88.1648 
  870.681,88.1645 880.233,88.1642 889.785,88.1639 899.337,88.1637 908.889,88.1634 918.44,88.1631 927.992,88.1628 937.544,88.1626 947.096,88.1623 956.648,88.1621 
  966.2,88.1621 975.752,88.1621 985.304,88.1621 994.855,88.1621 1004.41,88.1621 1013.96,88.1621 1023.51,88.1621 1033.06,88.1621 1042.61,88.1621 1052.17,88.1621 
  1061.72,88.1621 1071.27,88.1621 1080.82,88.1621 1090.37,88.1621 1099.93,88.1621 1109.48,88.1621 1119.03,88.1621 1128.58,88.1621 1138.13,88.1621 1147.69,88.1621 
  1157.24,88.1621 1166.79,88.1621 1176.34,88.1621 1185.89,88.1621 1195.44,88.1621 1205,88.1621 1214.55,88.1621 1224.1,88.1621 1233.65,88.1621 1243.2,88.1621 
  1252.76,88.1621 1262.31,88.1621 1271.86,88.1621 1281.41,88.1621 1290.96,88.1621 1300.52,88.1621 1310.07,88.1621 1319.62,88.1621 1329.17,88.1621 1338.72,88.1621 
  1348.27,88.1621 1357.83,88.1621 1367.38,88.1621 1376.93,88.1621 1386.48,88.1621 1396.03,88.1621 1405.59,88.1621 1415.14,88.1621 1424.69,88.1621 1434.24,88.1621 
  1443.79,88.1621 1453.35,88.1621 1462.9,88.1621 1472.45,88.1621 1482,88.1621 1491.55,88.1621 1501.1,88.1621 1510.66,88.1621 1520.21,88.1621 1529.76,88.1621 
  1539.31,88.1621 1548.86,88.1621 1558.42,88.1621 1567.97,88.1621 1577.52,88.1621 1587.07,88.1621 1596.62,88.1621 1606.18,88.1621 1615.73,88.1621 1625.28,88.1621 
  1634.83,88.1621 1644.38,88.1621 1653.93,88.1621 1663.49,88.1621 1673.04,88.1621 1682.59,88.1621 1692.14,88.1621 1701.69,88.1621 1711.25,88.1622 1720.8,88.1622 
  1730.35,88.1622 1739.9,88.1622 1749.45,88.1622 1759,88.1622 1768.56,88.1622 1778.11,88.1622 1787.66,88.1622 1797.21,88.1622 1806.76,88.1622 1816.32,88.1622 
  1825.87,88.1622 1835.42,88.1622 1844.97,88.1622 1854.52,88.1622 1864.08,88.1622 1873.63,88.1622 1883.18,88.1622 1892.73,88.1622 1902.28,88.1622 1911.83,88.1622 
  1921.39,88.1622 1930.94,88.1622 1940.49,88.1622 1950.04,88.1622 1959.59,88.1622 1969.15,88.1622 1978.7,88.1622 1988.25,88.1622 1997.8,88.1622 2007.35,88.1622 
  2016.91,88.1622 2026.46,88.1622 2036.01,88.1622 2045.56,88.1622 2055.11,88.1622 2064.66,88.1622 2074.22,88.1622 2083.77,88.1622 2093.32,88.1622 2102.87,88.1622 
  2112.42,88.1622 2121.98,88.1622 2131.53,88.1622 2141.08,88.1622 2150.63,88.1622 2160.18,88.1622 2169.74,88.1622 2179.29,88.1622 2188.84,88.1622 2198.39,88.1622 
  2207.94,88.1622 
  "/>
</svg>
