<?xml version="1.0" encoding="utf-8"?>
<svg xmlns="http://www.w3.org/2000/svg" xmlns:xlink="http://www.w3.org/1999/xlink" width="325" height="200" viewBox="0 0 1300 800">
<defs>
  <clipPath id="clip890">
    <rect x="0" y="0" width="1300" height="800"/>
  </clipPath>
</defs>
<path clip-path="url(#clip890)" d="
M0 800 L1300 800 L1300 0 L0 0  Z
  " fill="#ffffff" fill-rule="evenodd" fill-opacity="1"/>
<defs>
  <clipPath id="clip891">
    <rect x="260" y="0" width="911" height="800"/>
  </clipPath>
</defs>
<path clip-path="url(#clip890)" d="
M297.569 673.18 L1252.76 673.18 L1252.76 47.2441 L297.569 47.2441  Z
  " fill="#ffffff" fill-rule="evenodd" fill-opacity="1"/>
<defs>
  <clipPath id="clip892">
    <rect x="297" y="47" width="956" height="627"/>
  </clipPath>
</defs>
<polyline clip-path="url(#clip890)" style="stroke:#000000; stroke-linecap:butt; stroke-linejoin:round; stroke-width:4; stroke-opacity:1; fill:none" points="
  297.569,673.18 1252.76,673.18 
  "/>
<polyline clip-path="url(#clip890)" style="stroke:#000000; stroke-linecap:butt; stroke-linejoin:round; stroke-width:4; stroke-opacity:1; fill:none" points="
  297.569,673.18 297.569,654.283 
  "/>
<polyline clip-path="url(#clip890)" style="stroke:#000000; stroke-linecap:butt; stroke-linejoin:round; stroke-width:4; stroke-opacity:1; fill:none" points="
  488.606,673.18 488.606,654.283 
  "/>
<polyline clip-path="url(#clip890)" style="stroke:#000000; stroke-linecap:butt; stroke-linejoin:round; stroke-width:4; stroke-opacity:1; fill:none" points="
  679.644,673.18 679.644,654.283 
  "/>
<polyline clip-path="url(#clip890)" style="stroke:#000000; stroke-linecap:butt; stroke-linejoin:round; stroke-width:4; stroke-opacity:1; fill:none" points="
  870.681,673.18 870.681,654.283 
  "/>
<polyline clip-path="url(#clip890)" style="stroke:#000000; stroke-linecap:butt; stroke-linejoin:round; stroke-width:4; stroke-opacity:1; fill:none" points="
  1061.72,673.18 1061.72,654.283 
  "/>
<polyline clip-path="url(#clip890)" style="stroke:#000000; stroke-linecap:butt; stroke-linejoin:round; stroke-width:4; stroke-opacity:1; fill:none" points="
  1252.76,673.18 1252.76,654.283 
  "/>
<path clip-path="url(#clip890)" d="M257.992 704.088 Q251.672 704.088 248.472 710.326 Q245.312 716.524 245.312 729.001 Q245.312 741.437 248.472 747.676 Q251.672 753.873 257.992 753.873 Q264.352 753.873 267.511 747.676 Q270.711 741.437 270.711 729.001 Q270.711 716.524 267.511 710.326 Q264.352 704.088 257.992 704.088 M257.992 697.606 Q268.159 697.606 273.507 705.668 Q278.894 713.689 278.894 729.001 Q278.894 744.273 273.507 752.334 Q268.159 760.355 257.992 760.355 Q247.824 760.355 242.436 752.334 Q237.089 744.273 237.089 729.001 Q237.089 713.689 242.436 705.668 Q247.824 697.606 257.992 697.606 Z" fill="#000000" fill-rule="evenodd" fill-opacity="1" /><path clip-path="url(#clip890)" d="M293.275 748.891 L301.822 748.891 L301.822 759.18 L293.275 759.18 L293.275 748.891 Z" fill="#000000" fill-rule="evenodd" fill-opacity="1" /><path clip-path="url(#clip890)" d="M337.146 704.088 Q330.827 704.088 327.627 710.326 Q324.467 716.524 324.467 729.001 Q324.467 741.437 327.627 747.676 Q330.827 753.873 337.146 753.873 Q343.506 753.873 346.666 747.676 Q349.866 741.437 349.866 729.001 Q349.866 716.524 346.666 710.326 Q343.506 704.088 337.146 704.088 M337.146 697.606 Q347.314 697.606 352.661 705.668 Q358.049 713.689 358.049 729.001 Q358.049 744.273 352.661 752.334 Q347.314 760.355 337.146 760.355 Q326.979 760.355 321.591 752.334 Q316.244 744.273 316.244 729.001 Q316.244 713.689 321.591 705.668 Q326.979 697.606 337.146 697.606 Z" fill="#000000" fill-rule="evenodd" fill-opacity="1" /><path clip-path="url(#clip890)" d="M450.103 704.088 Q443.783 704.088 440.583 710.326 Q437.423 716.524 437.423 729.001 Q437.423 741.437 440.583 747.676 Q443.783 753.873 450.103 753.873 Q456.462 753.873 459.622 747.676 Q462.822 741.437 462.822 729.001 Q462.822 716.524 459.622 710.326 Q456.462 704.088 450.103 704.088 M450.103 697.606 Q460.27 697.606 465.617 705.668 Q471.005 713.689 471.005 729.001 Q471.005 744.273 465.617 752.334 Q460.27 760.355 450.103 760.355 Q439.935 760.355 434.547 752.334 Q429.2 744.273 429.2 729.001 Q429.2 713.689 434.547 705.668 Q439.935 697.606 450.103 697.606 Z" fill="#000000" fill-rule="evenodd" fill-opacity="1" /><path clip-path="url(#clip890)" d="M485.386 748.891 L493.933 748.891 L493.933 759.18 L485.386 759.18 L485.386 748.891 Z" fill="#000000" fill-rule="evenodd" fill-opacity="1" /><path clip-path="url(#clip890)" d="M513.175 752.294 L526.543 752.294 L526.543 706.154 L512 709.07 L512 701.617 L526.462 698.7 L534.645 698.7 L534.645 752.294 L548.013 752.294 L548.013 759.18 L513.175 759.18 L513.175 752.294 Z" fill="#000000" fill-rule="evenodd" fill-opacity="1" /><path clip-path="url(#clip890)" d="M641.464 704.088 Q635.145 704.088 631.944 710.326 Q628.785 716.524 628.785 729.001 Q628.785 741.437 631.944 747.676 Q635.145 753.873 641.464 753.873 Q647.824 753.873 650.984 747.676 Q654.184 741.437 654.184 729.001 Q654.184 716.524 650.984 710.326 Q647.824 704.088 641.464 704.088 M641.464 697.606 Q651.632 697.606 656.979 705.668 Q662.367 713.689 662.367 729.001 Q662.367 744.273 656.979 752.334 Q651.632 760.355 641.464 760.355 Q631.296 760.355 625.909 752.334 Q620.561 744.273 620.561 729.001 Q620.561 713.689 625.909 705.668 Q631.296 697.606 641.464 697.606 Z" fill="#000000" fill-rule="evenodd" fill-opacity="1" /><path clip-path="url(#clip890)" d="M676.747 748.891 L685.295 748.891 L685.295 759.18 L676.747 759.18 L676.747 748.891 Z" fill="#000000" fill-rule="evenodd" fill-opacity="1" /><path clip-path="url(#clip890)" d="M710.167 752.294 L738.726 752.294 L738.726 759.18 L700.324 759.18 L700.324 752.294 Q704.982 747.473 713.003 739.371 Q721.064 731.229 723.13 728.879 Q727.06 724.464 728.599 721.426 Q730.179 718.347 730.179 715.39 Q730.179 710.569 726.776 707.531 Q723.414 704.493 717.986 704.493 Q714.137 704.493 709.843 705.83 Q705.59 707.167 700.729 709.881 L700.729 701.617 Q705.671 699.632 709.965 698.619 Q714.259 697.606 717.824 697.606 Q727.222 697.606 732.812 702.305 Q738.402 707.005 738.402 714.863 Q738.402 718.59 736.984 721.952 Q735.607 725.274 731.921 729.811 Q730.908 730.986 725.48 736.617 Q720.052 742.207 710.167 752.294 Z" fill="#000000" fill-rule="evenodd" fill-opacity="1" /><path clip-path="url(#clip890)" d="M831.671 704.088 Q825.352 704.088 822.151 710.326 Q818.992 716.524 818.992 729.001 Q818.992 741.437 822.151 747.676 Q825.352 753.873 831.671 753.873 Q838.031 753.873 841.191 747.676 Q844.391 741.437 844.391 729.001 Q844.391 716.524 841.191 710.326 Q838.031 704.088 831.671 704.088 M831.671 697.606 Q841.839 697.606 847.186 705.668 Q852.574 713.689 852.574 729.001 Q852.574 744.273 847.186 752.334 Q841.839 760.355 831.671 760.355 Q821.503 760.355 816.115 752.334 Q810.768 744.273 810.768 729.001 Q810.768 713.689 816.115 705.668 Q821.503 697.606 831.671 697.606 Z" fill="#000000" fill-rule="evenodd" fill-opacity="1" /><path clip-path="url(#clip890)" d="M866.954 748.891 L875.502 748.891 L875.502 759.18 L866.954 759.18 L866.954 748.891 Z" fill="#000000" fill-rule="evenodd" fill-opacity="1" /><path clip-path="url(#clip890)" d="M918.117 726.57 Q923.991 727.826 927.272 731.796 Q930.594 735.766 930.594 741.599 Q930.594 750.552 924.437 755.453 Q918.279 760.355 906.937 760.355 Q903.129 760.355 899.078 759.585 Q895.068 758.856 890.774 757.357 L890.774 749.458 Q894.176 751.443 898.227 752.456 Q902.278 753.468 906.694 753.468 Q914.39 753.468 918.401 750.43 Q922.452 747.392 922.452 741.599 Q922.452 736.252 918.684 733.254 Q914.958 730.216 908.274 730.216 L901.225 730.216 L901.225 723.492 L908.598 723.492 Q914.633 723.492 917.834 721.102 Q921.034 718.671 921.034 714.134 Q921.034 709.476 917.712 707.005 Q914.431 704.493 908.274 704.493 Q904.911 704.493 901.063 705.222 Q897.215 705.951 892.597 707.491 L892.597 700.199 Q897.255 698.903 901.306 698.255 Q905.397 697.606 909.003 697.606 Q918.32 697.606 923.748 701.86 Q929.176 706.073 929.176 713.283 Q929.176 718.307 926.3 721.79 Q923.424 725.234 918.117 726.57 Z" fill="#000000" fill-rule="evenodd" fill-opacity="1" /><path clip-path="url(#clip890)" d="M1021.72 704.088 Q1015.4 704.088 1012.2 710.326 Q1009.04 716.524 1009.04 729.001 Q1009.04 741.437 1012.2 747.676 Q1015.4 753.873 1021.72 753.873 Q1028.08 753.873 1031.24 747.676 Q1034.44 741.437 1034.44 729.001 Q1034.44 716.524 1031.24 710.326 Q1028.08 704.088 1021.72 704.088 M1021.72 697.606 Q1031.88 697.606 1037.23 705.668 Q1042.62 713.689 1042.62 729.001 Q1042.62 744.273 1037.23 752.334 Q1031.88 760.355 1021.72 760.355 Q1011.55 760.355 1006.16 752.334 Q1000.81 744.273 1000.81 729.001 Q1000.81 713.689 1006.16 705.668 Q1011.55 697.606 1021.72 697.606 Z" fill="#000000" fill-rule="evenodd" fill-opacity="1" /><path clip-path="url(#clip890)" d="M1057 748.891 L1065.55 748.891 L1065.55 759.18 L1057 759.18 L1057 748.891 Z" fill="#000000" fill-rule="evenodd" fill-opacity="1" /><path clip-path="url(#clip890)" d="M1105.85 705.83 L1085.19 738.115 L1105.85 738.115 L1105.85 705.83 M1103.71 698.7 L1114 698.7 L1114 738.115 L1122.62 738.115 L1122.62 744.921 L1114 744.921 L1114 759.18 L1105.85 759.18 L1105.85 744.921 L1078.55 744.921 L1078.55 737.022 L1103.71 698.7 Z" fill="#000000" fill-rule="evenodd" fill-opacity="1" /><path clip-path="url(#clip890)" d="M1214.05 704.088 Q1207.73 704.088 1204.53 710.326 Q1201.37 716.524 1201.37 729.001 Q1201.37 741.437 1204.53 747.676 Q1207.73 753.873 1214.05 753.873 Q1220.41 753.873 1223.57 747.676 Q1226.77 741.437 1226.77 729.001 Q1226.77 716.524 1223.57 710.326 Q1220.41 704.088 1214.05 704.088 M1214.05 697.606 Q1224.22 697.606 1229.56 705.668 Q1234.95 713.689 1234.95 729.001 Q1234.95 744.273 1229.56 752.334 Q1224.22 760.355 1214.05 760.355 Q1203.88 760.355 1198.49 752.334 Q1193.15 744.273 1193.15 729.001 Q1193.15 713.689 1198.49 705.668 Q1203.88 697.606 1214.05 697.606 Z" fill="#000000" fill-rule="evenodd" fill-opacity="1" /><path clip-path="url(#clip890)" d="M1249.33 748.891 L1257.88 748.891 L1257.88 759.18 L1249.33 759.18 L1249.33 748.891 Z" fill="#000000" fill-rule="evenodd" fill-opacity="1" /><path clip-path="url(#clip890)" d="M1275.79 698.7 L1307.91 698.7 L1307.91 705.587 L1283.28 705.587 L1283.28 720.413 Q1285.06 719.805 1286.84 719.522 Q1288.63 719.198 1290.41 719.198 Q1300.54 719.198 1306.45 724.747 Q1312.36 730.297 1312.36 739.776 Q1312.36 749.539 1306.29 754.967 Q1300.21 760.355 1289.15 760.355 Q1285.35 760.355 1281.38 759.707 Q1277.45 759.059 1273.23 757.762 L1273.23 749.539 Q1276.88 751.524 1280.77 752.496 Q1284.66 753.468 1288.99 753.468 Q1296 753.468 1300.09 749.782 Q1304.18 746.096 1304.18 739.776 Q1304.18 733.457 1300.09 729.771 Q1296 726.084 1288.99 726.084 Q1285.71 726.084 1282.43 726.813 Q1279.19 727.543 1275.79 729.082 L1275.79 698.7 Z" fill="#000000" fill-rule="evenodd" fill-opacity="1" /><polyline clip-path="url(#clip890)" style="stroke:#000000; stroke-linecap:butt; stroke-linejoin:round; stroke-width:4; stroke-opacity:1; fill:none" points="
  297.569,673.18 297.569,47.2441 
  "/>
<polyline clip-path="url(#clip890)" style="stroke:#000000; stroke-linecap:butt; stroke-linejoin:round; stroke-width:4; stroke-opacity:1; fill:none" points="
  297.569,673.18 316.467,673.18 
  "/>
<polyline clip-path="url(#clip890)" style="stroke:#000000; stroke-linecap:butt; stroke-linejoin:round; stroke-width:4; stroke-opacity:1; fill:none" points="
  297.569,380.659 316.467,380.659 
  "/>
<polyline clip-path="url(#clip890)" style="stroke:#000000; stroke-linecap:butt; stroke-linejoin:round; stroke-width:4; stroke-opacity:1; fill:none" points="
  297.569,88.1369 316.467,88.1369 
  "/>
<path clip-path="url(#clip890)" d="M57.6669 707.817 L71.0349 707.817 L71.0349 661.677 L56.4921 664.594 L56.4921 657.14 L70.9539 654.223 L79.1367 654.223 L79.1367 707.817 L92.5047 707.817 L92.5047 714.703 L57.6669 714.703 L57.6669 707.817 Z" fill="#000000" fill-rule="evenodd" fill-opacity="1" /><path clip-path="url(#clip890)" d="M126.532 659.611 Q120.213 659.611 117.013 665.85 Q113.853 672.047 113.853 684.524 Q113.853 696.961 117.013 703.199 Q120.213 709.397 126.532 709.397 Q132.892 709.397 136.052 703.199 Q139.252 696.961 139.252 684.524 Q139.252 672.047 136.052 665.85 Q132.892 659.611 126.532 659.611 M126.532 653.13 Q136.7 653.13 142.047 661.191 Q147.435 669.212 147.435 684.524 Q147.435 699.796 142.047 707.857 Q136.7 715.878 126.532 715.878 Q116.364 715.878 110.977 707.857 Q105.63 699.796 105.63 684.524 Q105.63 669.212 110.977 661.191 Q116.364 653.13 126.532 653.13 Z" fill="#000000" fill-rule="evenodd" fill-opacity="1" /><path clip-path="url(#clip890)" d="M147.435 642.807 L189.63 642.807 L189.63 648.402 L147.435 648.402 L147.435 642.807 Z" fill="#000000" fill-rule="evenodd" fill-opacity="1" /><path clip-path="url(#clip890)" d="M205.132 661.14 L215.994 661.14 L215.994 623.651 L204.178 626.021 L204.178 619.965 L215.928 617.595 L222.577 617.595 L222.577 661.14 L233.438 661.14 L233.438 666.735 L205.132 666.735 L205.132 661.14 Z" fill="#000000" fill-rule="evenodd" fill-opacity="1" /><path clip-path="url(#clip890)" d="M261.086 621.973 Q255.951 621.973 253.351 627.041 Q250.784 632.077 250.784 642.215 Q250.784 652.319 253.351 657.388 Q255.951 662.424 261.086 662.424 Q266.253 662.424 268.82 657.388 Q271.42 652.319 271.42 642.215 Q271.42 632.077 268.82 627.041 Q266.253 621.973 261.086 621.973 M261.086 616.707 Q269.347 616.707 273.691 623.256 Q278.069 629.773 278.069 642.215 Q278.069 654.623 273.691 661.173 Q269.347 667.69 261.086 667.69 Q252.824 667.69 248.447 661.173 Q244.102 654.623 244.102 642.215 Q244.102 629.773 248.447 623.256 Q252.824 616.707 261.086 616.707 Z" fill="#000000" fill-rule="evenodd" fill-opacity="1" /><path clip-path="url(#clip890)" d="M101.969 415.295 L115.337 415.295 L115.337 369.155 L100.794 372.072 L100.794 364.618 L115.256 361.702 L123.438 361.702 L123.438 415.295 L136.806 415.295 L136.806 422.182 L101.969 422.182 L101.969 415.295 Z" fill="#000000" fill-rule="evenodd" fill-opacity="1" /><path clip-path="url(#clip890)" d="M170.834 367.09 Q164.515 367.09 161.314 373.328 Q158.155 379.526 158.155 392.003 Q158.155 404.439 161.314 410.677 Q164.515 416.875 170.834 416.875 Q177.194 416.875 180.354 410.677 Q183.554 404.439 183.554 392.003 Q183.554 379.526 180.354 373.328 Q177.194 367.09 170.834 367.09 M170.834 360.608 Q181.002 360.608 186.349 368.669 Q191.737 376.69 191.737 392.003 Q191.737 407.274 186.349 415.336 Q181.002 423.357 170.834 423.357 Q160.666 423.357 155.278 415.336 Q149.931 407.274 149.931 392.003 Q149.931 376.69 155.278 368.669 Q160.666 360.608 170.834 360.608 Z" fill="#000000" fill-rule="evenodd" fill-opacity="1" /><path clip-path="url(#clip890)" d="M191.737 350.285 L233.932 350.285 L233.932 355.881 L191.737 355.881 L191.737 350.285 Z" fill="#000000" fill-rule="evenodd" fill-opacity="1" /><path clip-path="url(#clip890)" d="M248.348 325.074 L274.448 325.074 L274.448 330.669 L254.437 330.669 L254.437 342.715 Q255.885 342.222 257.333 341.991 Q258.782 341.728 260.23 341.728 Q268.458 341.728 273.264 346.237 Q278.069 350.746 278.069 358.448 Q278.069 366.38 273.132 370.791 Q268.195 375.168 259.21 375.168 Q256.116 375.168 252.89 374.642 Q249.697 374.115 246.274 373.062 L246.274 366.38 Q249.237 367.993 252.396 368.783 Q255.556 369.573 259.078 369.573 Q264.772 369.573 268.096 366.578 Q271.42 363.583 271.42 358.448 Q271.42 353.313 268.096 350.318 Q264.772 347.323 259.078 347.323 Q256.412 347.323 253.746 347.916 Q251.113 348.508 248.348 349.759 L248.348 325.074 Z" fill="#000000" fill-rule="evenodd" fill-opacity="1" /><path clip-path="url(#clip890)" d="M154.334 122.774 L167.702 122.774 L167.702 76.6338 L153.159 79.5505 L153.159 72.0968 L167.621 69.1802 L175.804 69.1802 L175.804 122.774 L189.172 122.774 L189.172 129.66 L154.334 129.66 L154.334 122.774 Z" fill="#000000" fill-rule="evenodd" fill-opacity="1" /><path clip-path="url(#clip890)" d="M223.199 74.5679 Q216.88 74.5679 213.68 80.8063 Q210.52 87.0041 210.52 99.4809 Q210.52 111.917 213.68 118.156 Q216.88 124.353 223.199 124.353 Q229.559 124.353 232.719 118.156 Q235.919 111.917 235.919 99.4809 Q235.919 87.0041 232.719 80.8063 Q229.559 74.5679 223.199 74.5679 M223.199 68.0864 Q233.367 68.0864 238.714 76.1477 Q244.102 84.1685 244.102 99.4809 Q244.102 114.753 238.714 122.814 Q233.367 130.835 223.199 130.835 Q213.032 130.835 207.644 122.814 Q202.297 114.753 202.297 99.4809 Q202.297 84.1685 207.644 76.1477 Q213.032 68.0864 223.199 68.0864 Z" fill="#000000" fill-rule="evenodd" fill-opacity="1" /><path clip-path="url(#clip890)" d="M261.086 36.9295 Q255.951 36.9295 253.351 41.9982 Q250.784 47.0339 250.784 57.1713 Q250.784 67.2758 253.351 72.3445 Q255.951 77.3803 261.086 77.3803 Q266.253 77.3803 268.82 72.3445 Q271.42 67.2758 271.42 57.1713 Q271.42 47.0339 268.82 41.9982 Q266.253 36.9295 261.086 36.9295 M261.086 31.6633 Q269.347 31.6633 273.691 38.2131 Q278.069 44.73 278.069 57.1713 Q278.069 69.5798 273.691 76.1296 Q269.347 82.6465 261.086 82.6465 Q252.824 82.6465 248.447 76.1296 Q244.102 69.5798 244.102 57.1713 Q244.102 44.73 248.447 38.2131 Q252.824 31.6633 261.086 31.6633 Z" fill="#000000" fill-rule="evenodd" fill-opacity="1" /><polyline clip-path="url(#clip892)" style="stroke:#000000; stroke-linecap:butt; stroke-linejoin:round; stroke-width:16; stroke-opacity:1; fill:none" stroke-dasharray="8, 16" points="
  297.569,4569.67 307.121,4550.94 316.673,4533.45 326.225,4516.98 335.776,4501.32 345.328,4486.3 354.88,4471.75 364.432,4457.56 373.984,4443.61 383.536,4429.81 
  393.088,4416.06 402.64,4402.31 412.191,4388.49 421.743,4374.54 431.295,4360.43 440.847,4346.09 450.399,4331.5 459.951,4316.62 469.503,4301.41 479.055,4285.83 
  488.606,4269.87 498.158,4253.48 507.71,4236.62 517.262,4219.28 526.814,4201.41 536.366,4182.99 545.918,4163.96 555.469,4144.3 565.021,4123.97 574.573,4102.92 
  584.125,4081.11 593.677,4058.48 603.229,4035 612.781,4010.59 622.333,3985.21 631.884,3958.78 641.436,3931.23 650.988,3902.5 660.54,3872.5 670.092,3841.13 
  679.644,3808.3 689.196,3773.91 698.747,3737.85 708.299,3699.97 717.851,3660.16 727.403,3618.26 736.955,3574.1 746.507,3527.51 756.059,3478.3 765.611,3426.25 
  775.162,3371.13 784.714,3312.67 794.266,3250.61 803.818,3184.63 813.37,3114.4 822.922,3039.54 832.474,2959.65 842.026,2874.3 851.577,2783 861.129,2685.22 
  870.681,2580.4 880.233,2467.94 889.785,2347.17 899.337,2217.42 908.889,2078 918.44,1928.2 927.992,1767.39 937.544,1595.03 947.096,1410.81 956.648,1214.83 
  966.2,1007.85 975.752,791.781 985.304,570.51 994.855,352.575 1004.41,191.309 1013.96,133.424 1023.51,108.486 1033.06,96.355 1042.61,91.2203 1052.17,89.2853 
  1061.72,88.5846 1071.27,88.3276 1080.82,88.2444 1090.37,88.2148 1099.93,88.1987 1109.48,88.1885 1119.03,88.1813 1128.58,88.1761 1138.13,88.1722 1147.69,88.1692 
  1157.24,88.1671 1166.79,88.166 1176.34,88.1655 1185.89,88.165 1195.44,88.1647 1205,88.1645 1214.55,88.1643 1224.1,88.1641 1233.65,88.1639 1243.2,88.1636 
  1252.76,88.1634 1262.31,88.1632 1271.86,88.163 1281.41,88.1627 1290.96,88.1625 1300.52,88.1623 1310.07,88.1622 1319.62,88.1622 1329.17,88.1622 1338.72,88.1622 
  1348.27,88.1622 1357.83,88.1622 1367.38,88.1622 1376.93,88.1622 1386.48,88.1622 1396.03,88.1622 1405.59,88.1622 1415.14,88.1622 1424.69,88.1622 1434.24,88.1622 
  1443.79,88.1622 1453.35,88.1622 1462.9,88.1622 1472.45,88.1622 1482,88.1622 1491.55,88.1622 1501.1,88.1622 1510.66,88.1622 1520.21,88.1622 1529.76,88.1622 
  1539.31,88.1622 1548.86,88.1622 1558.42,88.1622 1567.97,88.1622 1577.52,88.1622 1587.07,88.1622 1596.62,88.1622 1606.18,88.1622 1615.73,88.1622 1625.28,88.1622 
  1634.83,88.1622 1644.38,88.1622 1653.93,88.1622 1663.49,88.1622 1673.04,88.1622 1682.59,88.1622 1692.14,88.1622 1701.69,88.1622 1711.25,88.1622 1720.8,88.1622 
  1730.35,88.1622 1739.9,88.1622 1749.45,88.1622 1759,88.1622 1768.56,88.1622 1778.11,88.1622 1787.66,88.1622 1797.21,88.1622 1806.76,88.1622 1816.32,88.1622 
  1825.87,88.1622 1835.42,88.1622 1844.97,88.1622 1854.52,88.1622 1864.08,88.1622 1873.63,88.1622 1883.18,88.1622 1892.73,88.1622 1902.28,88.1622 1911.83,88.1622 
  1921.39,88.1622 1930.94,88.1622 1940.49,88.1622 1950.04,88.1622 1959.59,88.1622 1969.15,88.1622 1978.7,88.1622 1988.25,88.1622 1997.8,88.1622 2007.35,88.1622 
  2016.91,88.1622 2026.46,88.1622 2036.01,88.1622 2045.56,88.1622 2055.11,88.1622 2064.66,88.1622 2074.22,88.1622 2083.77,88.1622 2093.32,88.1622 2102.87,88.1623 
  2112.42,88.1623 2121.98,88.1623 2131.53,88.1623 2141.08,88.1623 2150.63,88.1623 2160.18,88.1623 2169.74,88.1623 2179.29,88.1623 2188.84,88.1623 2198.39,88.1623 
  2207.94,88.1623 
  "/>
<polyline clip-path="url(#clip892)" style="stroke:#000000; stroke-linecap:butt; stroke-linejoin:round; stroke-width:16; stroke-opacity:1; fill:none" stroke-dasharray="64, 40" points="
  297.569,3449.27 307.121,3408.55 316.673,3365.96 326.225,3321.33 335.776,3274.47 345.328,3225.18 354.88,3173.21 364.432,3118.31 373.984,3060.18 383.536,2998.47 
  393.088,2932.8 402.64,2862.73 412.191,2787.76 421.743,2707.3 431.295,2620.69 440.847,2527.14 450.399,2425.76 459.951,2315.45 469.503,2194.98 479.055,2062.86 
  488.606,1917.34 498.158,1756.4 507.71,1577.82 517.262,1379.41 526.814,1159.82 536.366,920.383 545.918,669.461 555.469,430.178 565.021,249.604 574.573,167.022 
  584.125,133.834 593.677,115.155 603.229,103.549 612.781,96.6253 622.333,92.7554 631.884,90.6869 641.436,89.5982 650.988,89.0742 660.54,88.8445 670.092,88.7109 
  679.644,88.6216 689.196,88.5571 698.747,88.508 708.299,88.4692 717.851,88.4377 727.403,88.4116 736.955,88.3896 746.507,88.3707 756.059,88.3543 765.611,88.34 
  775.162,88.3273 784.714,88.3161 794.266,88.306 803.818,88.2968 813.37,88.2886 822.922,88.281 832.474,88.2741 842.026,88.2678 851.577,88.2619 861.129,88.2565 
  870.681,88.2515 880.233,88.2468 889.785,88.2425 899.337,88.2384 908.889,88.2346 918.44,88.231 927.992,88.2276 937.544,88.2244 947.096,88.2214 956.648,88.2185 
  966.2,88.2159 975.752,88.2133 985.304,88.2108 994.855,88.2086 1004.41,88.2063 1013.96,88.2042 1023.51,88.2022 1033.06,88.2003 1042.61,88.1985 1052.17,88.1967 
  1061.72,88.195 1071.27,88.1934 1080.82,88.1918 1090.37,88.1903 1099.93,88.1889 1109.48,88.1875 1119.03,88.1862 1128.58,88.1849 1138.13,88.1836 1147.69,88.1824 
  1157.24,88.1813 1166.79,88.1801 1176.34,88.1791 1185.89,88.178 1195.44,88.177 1205,88.176 1214.55,88.1751 1224.1,88.1741 1233.65,88.1732 1243.2,88.1724 
  1252.76,88.1715 1262.31,88.1707 1271.86,88.1699 1281.41,88.1691 1290.96,88.1684 1300.52,88.1677 1310.07,88.1669 1319.62,88.1662 1329.17,88.1656 1338.72,88.1649 
  1348.27,88.1643 1357.83,88.1637 1367.38,88.1631 1376.93,88.1625 1386.48,88.1622 1396.03,88.1622 1405.59,88.1622 1415.14,88.1622 1424.69,88.1622 1434.24,88.1622 
  1443.79,88.1622 1453.35,88.1622 1462.9,88.1622 1472.45,88.1622 1482,88.1622 1491.55,88.1622 1501.1,88.1622 1510.66,88.1622 1520.21,88.1622 1529.76,88.1622 
  1539.31,88.1622 1548.86,88.1622 1558.42,88.1622 1567.97,88.1622 1577.52,88.1622 1587.07,88.1622 1596.62,88.1622 1606.18,88.1622 1615.73,88.1622 1625.28,88.1622 
  1634.83,88.1622 1644.38,88.1622 1653.93,88.1622 1663.49,88.1622 1673.04,88.1622 1682.59,88.1622 1692.14,88.1622 1701.69,88.1622 1711.25,88.1622 1720.8,88.1622 
  1730.35,88.1622 1739.9,88.1622 1749.45,88.1622 1759,88.1622 1768.56,88.1622 1778.11,88.1622 1787.66,88.1622 1797.21,88.1622 1806.76,88.1622 1816.32,88.1622 
  1825.87,88.1622 1835.42,88.1622 1844.97,88.1622 1854.52,88.1622 1864.08,88.1622 1873.63,88.1622 1883.18,88.1622 1892.73,88.1622 1902.28,88.1622 1911.83,88.1622 
  1921.39,88.1622 1930.94,88.1622 1940.49,88.1622 1950.04,88.1622 1959.59,88.1622 1969.15,88.1622 1978.7,88.1622 1988.25,88.1622 1997.8,88.1622 2007.35,88.1622 
  2016.91,88.1622 2026.46,88.1622 2036.01,88.1622 2045.56,88.1622 2055.11,88.1622 2064.66,88.1622 2074.22,88.1622 2083.77,88.1622 2093.32,88.1622 2102.87,88.1623 
  2112.42,88.1623 2121.98,88.1623 2131.53,88.1623 2141.08,88.1623 2150.63,88.1623 2160.18,88.1623 2169.74,88.1623 2179.29,88.1623 2188.84,88.1623 2198.39,88.1623 
  2207.94,88.1623 
  "/>
<polyline clip-path="url(#clip892)" style="stroke:#808080; stroke-linecap:butt; stroke-linejoin:round; stroke-width:16; stroke-opacity:1; fill:none" stroke-dasharray="8, 16" points="
  297.569,5931.77 307.121,5911.42 316.673,5892.27 326.225,5874.1 335.776,5856.69 345.328,5839.88 354.88,5823.5 364.432,5807.43 373.984,5791.55 383.536,5775.76 
  393.088,5759.98 402.64,5744.14 412.191,5728.17 421.743,5712.01 431.295,5695.61 440.847,5678.94 450.399,5661.94 459.951,5644.57 469.503,5626.79 479.055,5608.58 
  488.606,5589.89 498.158,5570.68 507.71,5550.92 517.262,5530.58 526.814,5509.6 536.366,5487.96 545.918,5465.6 555.469,5442.49 565.021,5418.58 574.573,5393.82 
  584.125,5368.16 593.677,5341.53 603.229,5313.88 612.781,5285.14 622.333,5255.24 631.884,5224.1 641.436,5191.65 650.988,5157.78 660.54,5122.42 670.092,5085.44 
  679.644,5046.73 689.196,5006.17 698.747,4963.63 708.299,4918.94 717.851,4871.96 727.403,4822.49 736.955,4770.35 746.507,4715.32 756.059,4657.16 765.611,4595.61 
  775.162,4530.39 784.714,4461.18 794.266,4387.64 803.818,4309.38 813.37,4225.97 822.922,4136.94 832.474,4041.78 842.026,3939.89 851.577,3830.65 861.129,3713.33 
  870.681,3587.14 880.233,3451.19 889.785,3304.52 899.337,3146.03 908.889,2974.53 918.44,2788.69 927.992,2587.07 937.544,2368.13 947.096,2130.19 956.648,1871.55 
  966.2,1590.47 975.752,1285.33 985.304,954.754 994.855,599.439 1004.41,276.252 1013.96,145.431 1023.51,110.932 1033.06,96.9881 1042.61,91.4124 1052.17,89.3518 
  1061.72,88.6105 1071.27,88.3391 1080.82,88.2517 1090.37,88.2207 1099.93,88.204 1109.48,88.1934 1119.03,88.186 1128.58,88.1806 1138.13,88.1766 1147.69,88.1736 
  1157.24,88.1715 1166.79,88.1704 1176.34,88.1697 1185.89,88.1691 1195.44,88.1687 1205,88.1682 1214.55,88.1678 1224.1,88.1673 1233.65,88.167 1243.2,88.1668 
  1252.76,88.1666 1262.31,88.1663 1271.86,88.1661 1281.41,88.1659 1290.96,88.1657 1300.52,88.1655 1310.07,88.1653 1319.62,88.1651 1329.17,88.1649 1338.72,88.1647 
  1348.27,88.1644 1357.83,88.1642 1367.38,88.164 1376.93,88.1638 1386.48,88.1636 1396.03,88.1634 1405.59,88.1632 1415.14,88.163 1424.69,88.1628 1434.24,88.1625 
  1443.79,88.1623 1453.35,88.1622 1462.9,88.1622 1472.45,88.1622 1482,88.1622 1491.55,88.1622 1501.1,88.1622 1510.66,88.1622 1520.21,88.1622 1529.76,88.1622 
  1539.31,88.1622 1548.86,88.1622 1558.42,88.1622 1567.97,88.1622 1577.52,88.1622 1587.07,88.1622 1596.62,88.1622 1606.18,88.1622 1615.73,88.1622 1625.28,88.1622 
  1634.83,88.1622 1644.38,88.1622 1653.93,88.1622 1663.49,88.1622 1673.04,88.1622 1682.59,88.1622 1692.14,88.1622 1701.69,88.1622 1711.25,88.1622 1720.8,88.1622 
  1730.35,88.1622 1739.9,88.1622 1749.45,88.1622 1759,88.1622 1768.56,88.1622 1778.11,88.1622 1787.66,88.1622 1797.21,88.1622 1806.76,88.1622 1816.32,88.1622 
  1825.87,88.1622 1835.42,88.1622 1844.97,88.1622 1854.52,88.1622 1864.08,88.1622 1873.63,88.1622 1883.18,88.1622 1892.73,88.1622 1902.28,88.1622 1911.83,88.1622 
  1921.39,88.1622 1930.94,88.1622 1940.49,88.1622 1950.04,88.1622 1959.59,88.1622 1969.15,88.1622 1978.7,88.1622 1988.25,88.1622 1997.8,88.1622 2007.35,88.1622 
  2016.91,88.1622 2026.46,88.1622 2036.01,88.1622 2045.56,88.1622 2055.11,88.1622 2064.66,88.1622 2074.22,88.1622 2083.77,88.1622 2093.32,88.1622 2102.87,88.1622 
  2112.42,88.1622 2121.98,88.1622 2131.53,88.1622 2141.08,88.1622 2150.63,88.1622 2160.18,88.1622 2169.74,88.1622 2179.29,88.1622 2188.84,88.1622 2198.39,88.1623 
  2207.94,88.1623 
  "/>
<polyline clip-path="url(#clip892)" style="stroke:#808080; stroke-linecap:butt; stroke-linejoin:round; stroke-width:16; stroke-opacity:1; fill:none" stroke-dasharray="64, 40" points="
  297.569,4539.49 307.121,4488.27 316.673,4434.6 326.225,4378.26 335.776,4319 345.328,4256.54 354.88,4190.59 364.432,4120.79 373.984,4046.74 383.536,3968 
  393.088,3884.07 402.64,3794.34 412.191,3698.16 421.743,3594.75 431.295,3483.2 440.847,3362.46 450.399,3231.29 459.951,3088.22 469.503,2931.54 479.055,2759.17 
  488.606,2568.68 498.158,2357.23 507.71,2121.67 517.262,1858.87 526.814,1566.8 536.366,1247.07 545.918,910.24 555.469,583.871 565.021,319.192 574.573,178.868 
  584.125,132.493 593.677,112.097 603.229,101.027 612.781,94.9763 622.333,91.779 631.884,90.1257 641.436,89.2712 650.988,88.8655 660.54,88.6895 670.092,88.5875 
  679.644,88.5196 689.196,88.4706 698.747,88.4334 708.299,88.404 717.851,88.3802 727.403,88.3605 736.955,88.3439 746.507,88.3296 756.059,88.3173 765.611,88.3065 
  775.162,88.297 784.714,88.2885 794.266,88.2809 803.818,88.274 813.37,88.2678 822.922,88.2622 832.474,88.257 842.026,88.2522 851.577,88.2479 861.129,88.2438 
  870.681,88.2401 880.233,88.2366 889.785,88.2333 899.337,88.2303 908.889,88.2274 918.44,88.2247 927.992,88.2222 937.544,88.2198 947.096,88.2176 956.648,88.2154 
  966.2,88.2134 975.752,88.2115 985.304,88.2097 994.855,88.208 1004.41,88.2063 1013.96,88.2047 1023.51,88.2032 1033.06,88.2018 1042.61,88.2004 1052.17,88.1991 
  1061.72,88.1979 1071.27,88.1967 1080.82,88.1955 1090.37,88.1944 1099.93,88.1933 1109.48,88.1923 1119.03,88.1913 1128.58,88.1904 1138.13,88.1894 1147.69,88.1885 
  1157.24,88.1877 1166.79,88.1868 1176.34,88.1861 1185.89,88.1853 1195.44,88.1845 1205,88.1838 1214.55,88.1831 1224.1,88.1824 1233.65,88.1818 1243.2,88.1811 
  1252.76,88.1805 1262.31,88.1799 1271.86,88.1793 1281.41,88.1787 1290.96,88.1782 1300.52,88.1776 1310.07,88.1771 1319.62,88.1766 1329.17,88.1761 1338.72,88.1756 
  1348.27,88.1752 1357.83,88.1747 1367.38,88.1743 1376.93,88.1739 1386.48,88.1734 1396.03,88.173 1405.59,88.1726 1415.14,88.1722 1424.69,88.1719 1434.24,88.1715 
  1443.79,88.1712 1453.35,88.1708 1462.9,88.1705 1472.45,88.1702 1482,88.1699 1491.55,88.1695 1501.1,88.1692 1510.66,88.169 1520.21,88.1687 1529.76,88.1684 
  1539.31,88.1682 1548.86,88.1679 1558.42,88.1677 1567.97,88.1674 1577.52,88.1672 1587.07,88.167 1596.62,88.1667 1606.18,88.1665 1615.73,88.1662 1625.28,88.1661 
  1634.83,88.1659 1644.38,88.1658 1653.93,88.1656 1663.49,88.1654 1673.04,88.1653 1682.59,88.1651 1692.14,88.165 1701.69,88.1648 1711.25,88.1647 1720.8,88.1645 
  1730.35,88.1644 1739.9,88.1642 1749.45,88.1641 1759,88.1639 1768.56,88.1638 1778.11,88.1636 1787.66,88.1634 1797.21,88.1633 1806.76,88.1631 1816.32,88.163 
  1825.87,88.1628 1835.42,88.1627 1844.97,88.1625 1854.52,88.1624 1864.08,88.1622 1873.63,88.1622 1883.18,88.1622 1892.73,88.1622 1902.28,88.1622 1911.83,88.1622 
  1921.39,88.1622 1930.94,88.1622 1940.49,88.1622 1950.04,88.1622 1959.59,88.1622 1969.15,88.1622 1978.7,88.1622 1988.25,88.1622 1997.8,88.1622 2007.35,88.1622 
  2016.91,88.1622 2026.46,88.1622 2036.01,88.1622 2045.56,88.1622 2055.11,88.1622 2064.66,88.1622 2074.22,88.1622 2083.77,88.1622 2093.32,88.1622 2102.87,88.1622 
  2112.42,88.1622 2121.98,88.1622 2131.53,88.1622 2141.08,88.1622 2150.63,88.1622 2160.18,88.1622 2169.74,88.1622 2179.29,88.1622 2188.84,88.1622 2198.39,88.1622 
  2207.94,88.1622 
  "/>
<polyline clip-path="url(#clip892)" style="stroke:#0000ff; stroke-linecap:butt; stroke-linejoin:round; stroke-width:16; stroke-opacity:1; fill:none" stroke-dasharray="8, 16" points="
  297.569,3605.48 307.121,3587.89 316.673,3571.57 326.225,3556.3 335.776,3541.87 345.328,3528.11 354.88,3514.87 364.432,3502.01 373.984,3489.44 383.536,3477.04 
  393.088,3464.75 402.64,3452.49 412.191,3440.21 421.743,3427.84 431.295,3415.35 440.847,3402.7 450.399,3389.84 459.951,3376.74 469.503,3363.37 479.055,3349.7 
  488.606,3335.69 498.158,3321.33 507.71,3306.57 517.262,3291.4 526.814,3275.78 536.366,3259.67 545.918,3243.06 555.469,3225.9 565.021,3208.16 574.573,3189.8 
  584.125,3170.78 593.677,3151.07 603.229,3130.6 612.781,3109.35 622.333,3087.25 631.884,3064.25 641.436,3040.28 650.988,3015.29 660.54,2989.2 670.092,2961.94 
  679.644,2933.41 689.196,2903.54 698.747,2872.22 708.299,2839.34 717.851,2804.79 727.403,2768.45 736.955,2730.17 746.507,2689.8 756.059,2647.18 765.611,2602.14 
  775.162,2554.48 784.714,2503.98 794.266,2450.43 803.818,2393.56 813.37,2333.12 822.922,2268.81 832.474,2200.32 842.026,2127.31 851.577,2049.42 861.129,1966.28 
  870.681,1877.5 880.233,1782.67 889.785,1681.41 899.337,1573.34 908.889,1458.16 918.44,1335.64 927.992,1205.77 937.544,1068.81 947.096,925.499 956.648,777.362 
  966.2,627.162 975.752,479.767 985.304,343.853 994.855,234.36 1004.41,164.268 1013.96,127.305 1023.51,106.404 1033.06,95.5734 1042.61,90.9307 1052.17,89.1776 
  1061.72,88.5429 1071.27,88.3101 1080.82,88.2352 1090.37,88.2087 1099.93,88.1944 1109.48,88.1853 1119.03,88.179 1128.58,88.1744 1138.13,88.1709 1147.69,88.1683 
  1157.24,88.1666 1166.79,88.1657 1176.34,88.1652 1185.89,88.1649 1195.44,88.1647 1205,88.1644 1214.55,88.1642 1224.1,88.164 1233.65,88.1638 1243.2,88.1636 
  1252.76,88.1634 1262.31,88.1632 1271.86,88.163 1281.41,88.1628 1290.96,88.1625 1300.52,88.1623 1310.07,88.1621 1319.62,88.1622 1329.17,88.1622 1338.72,88.1622 
  1348.27,88.1622 1357.83,88.1622 1367.38,88.1622 1376.93,88.1622 1386.48,88.1622 1396.03,88.1622 1405.59,88.1622 1415.14,88.1622 1424.69,88.1622 1434.24,88.1622 
  1443.79,88.1622 1453.35,88.1622 1462.9,88.1622 1472.45,88.1622 1482,88.1622 1491.55,88.1622 1501.1,88.1622 1510.66,88.1622 1520.21,88.1622 1529.76,88.1622 
  1539.31,88.1622 1548.86,88.1622 1558.42,88.1622 1567.97,88.1622 1577.52,88.1622 1587.07,88.1622 1596.62,88.1622 1606.18,88.1622 1615.73,88.1622 1625.28,88.1622 
  1634.83,88.1622 1644.38,88.1622 1653.93,88.1622 1663.49,88.1622 1673.04,88.1622 1682.59,88.1622 1692.14,88.1622 1701.69,88.1622 1711.25,88.1622 1720.8,88.1622 
  1730.35,88.1622 1739.9,88.1622 1749.45,88.1622 1759,88.1622 1768.56,88.1622 1778.11,88.1622 1787.66,88.1622 1797.21,88.1622 1806.76,88.1622 1816.32,88.1622 
  1825.87,88.1622 1835.42,88.1622 1844.97,88.1622 1854.52,88.1622 1864.08,88.1622 1873.63,88.1622 1883.18,88.1622 1892.73,88.1622 1902.28,88.1622 1911.83,88.1622 
  1921.39,88.1622 1930.94,88.1622 1940.49,88.1622 1950.04,88.1622 1959.59,88.1622 1969.15,88.1622 1978.7,88.1622 1988.25,88.1622 1997.8,88.1622 2007.35,88.1622 
  2016.91,88.1622 2026.46,88.1622 2036.01,88.1622 2045.56,88.1622 2055.11,88.1622 2064.66,88.1622 2074.22,88.1622 2083.77,88.1622 2093.32,88.1622 2102.87,88.1622 
  2112.42,88.1622 2121.98,88.1622 2131.53,88.1622 2141.08,88.1622 2150.63,88.1622 2160.18,88.1622 2169.74,88.1622 2179.29,88.1622 2188.84,88.1622 2198.39,88.1623 
  2207.94,88.1623 
  "/>
<polyline clip-path="url(#clip892)" style="stroke:#0000ff; stroke-linecap:butt; stroke-linejoin:round; stroke-width:16; stroke-opacity:1; fill:none" stroke-dasharray="64, 40" points="
  297.569,2602.81 307.121,2567.7 316.673,2531.03 326.225,2492.66 335.776,2452.45 345.328,2410.21 354.88,2365.76 364.432,2318.87 373.984,2269.29 383.536,2216.74 
  393.088,2160.92 402.64,2101.45 412.191,2037.93 421.743,1969.88 431.295,1896.77 440.847,1817.97 450.399,1732.74 459.951,1640.26 469.503,1539.55 479.055,1429.47 
  488.606,1308.77 498.158,1176.09 507.71,1030.18 517.262,870.43 526.814,698.156 536.366,519.589 545.918,351.803 555.469,229.152 565.021,169.339 574.573,139.445 
  584.125,120.239 593.677,107.171 603.229,98.7994 612.781,93.9006 622.333,91.2326 631.884,89.8338 641.436,89.1063 650.988,88.7601 660.54,88.6098 670.092,88.5226 
  679.644,88.4645 689.196,88.4227 698.747,88.3908 708.299,88.3657 717.851,88.3453 727.403,88.3284 736.955,88.3142 746.507,88.302 756.059,88.2915 765.611,88.2822 
  775.162,88.2741 784.714,88.2668 794.266,88.2603 803.818,88.2544 813.37,88.2491 822.922,88.2443 832.474,88.2398 842.026,88.2357 851.577,88.232 861.129,88.2285 
  870.681,88.2253 880.233,88.2223 889.785,88.2195 899.337,88.2169 908.889,88.2145 918.44,88.2122 927.992,88.21 937.544,88.208 947.096,88.206 956.648,88.2042 
  966.2,88.2025 975.752,88.2009 985.304,88.1993 994.855,88.1978 1004.41,88.1964 1013.96,88.1951 1023.51,88.1938 1033.06,88.1926 1042.61,88.1914 1052.17,88.1902 
  1061.72,88.1892 1071.27,88.1882 1080.82,88.1872 1090.37,88.1862 1099.93,88.1853 1109.48,88.1844 1119.03,88.1836 1128.58,88.1827 1138.13,88.1819 1147.69,88.1812 
  1157.24,88.1804 1166.79,88.1797 1176.34,88.1791 1185.89,88.1784 1195.44,88.1777 1205,88.1771 1214.55,88.1765 1224.1,88.1759 1233.65,88.1754 1243.2,88.1748 
  1252.76,88.1743 1262.31,88.1738 1271.86,88.1733 1281.41,88.1728 1290.96,88.1723 1300.52,88.1719 1310.07,88.1714 1319.62,88.171 1329.17,88.1705 1338.72,88.1702 
  1348.27,88.1698 1357.83,88.1694 1367.38,88.169 1376.93,88.1686 1386.48,88.1683 1396.03,88.1679 1405.59,88.1676 1415.14,88.1673 1424.69,88.167 1434.24,88.1667 
  1443.79,88.1664 1453.35,88.1661 1462.9,88.1659 1472.45,88.1656 1482,88.1654 1491.55,88.1652 1501.1,88.1649 1510.66,88.1647 1520.21,88.1646 1529.76,88.1644 
  1539.31,88.1643 1548.86,88.1641 1558.42,88.164 1567.97,88.1638 1577.52,88.1637 1587.07,88.1635 1596.62,88.1634 1606.18,88.1632 1615.73,88.1631 1625.28,88.1629 
  1634.83,88.1627 1644.38,88.1626 1653.93,88.1624 1663.49,88.1623 1673.04,88.1621 1682.59,88.1621 1692.14,88.1621 1701.69,88.1621 1711.25,88.1622 1720.8,88.1622 
  1730.35,88.1622 1739.9,88.1622 1749.45,88.1622 1759,88.1622 1768.56,88.1622 1778.11,88.1622 1787.66,88.1622 1797.21,88.1622 1806.76,88.1622 1816.32,88.1622 
  1825.87,88.1622 1835.42,88.1622 1844.97,88.1622 1854.52,88.1622 1864.08,88.1622 1873.63,88.1622 1883.18,88.1622 1892.73,88.1622 1902.28,88.1622 1911.83,88.1622 
  1921.39,88.1622 1930.94,88.1622 1940.49,88.1622 1950.04,88.1622 1959.59,88.1622 1969.15,88.1622 1978.7,88.1622 1988.25,88.1622 1997.8,88.1622 2007.35,88.1622 
  2016.91,88.1622 2026.46,88.1622 2036.01,88.1622 2045.56,88.1622 2055.11,88.1622 2064.66,88.1622 2074.22,88.1622 2083.77,88.1622 2093.32,88.1622 2102.87,88.1622 
  2112.42,88.1622 2121.98,88.1622 2131.53,88.1622 2141.08,88.1622 2150.63,88.1622 2160.18,88.1622 2169.74,88.1622 2179.29,88.1622 2188.84,88.1622 2198.39,88.1622 
  2207.94,88.1622 
  "/>
</svg>
