<?xml version="1.0" encoding="utf-8"?>
<svg xmlns="http://www.w3.org/2000/svg" xmlns:xlink="http://www.w3.org/1999/xlink" width="300" height="180" viewBox="0 0 1200 720">
<defs>
  <clipPath id="clip990">
    <rect x="0" y="0" width="1200" height="720"/>
  </clipPath>
</defs>
<path clip-path="url(#clip990)" d="
M0 720 L1200 720 L1200 0 L0 0  Z
  " fill="#ffffff" fill-rule="evenodd" fill-opacity="1"/>
<defs>
  <clipPath id="clip991">
    <rect x="240" y="0" width="841" height="720"/>
  </clipPath>
</defs>
<path clip-path="url(#clip990)" d="
M264.915 603.152 L1152.76 603.152 L1152.76 47.2441 L264.915 47.2441  Z
  " fill="#ffffff" fill-rule="evenodd" fill-opacity="1"/>
<defs>
  <clipPath id="clip992">
    <rect x="264" y="47" width="889" height="557"/>
  </clipPath>
</defs>
<polyline clip-path="url(#clip990)" style="stroke:#000000; stroke-linecap:round; stroke-linejoin:round; stroke-width:4; stroke-opacity:1; fill:none" points="
  264.915,603.152 1152.76,603.152 
  "/>
<polyline clip-path="url(#clip990)" style="stroke:#000000; stroke-linecap:round; stroke-linejoin:round; stroke-width:4; stroke-opacity:1; fill:none" points="
  264.915,603.152 264.915,584.254 
  "/>
<polyline clip-path="url(#clip990)" style="stroke:#000000; stroke-linecap:round; stroke-linejoin:round; stroke-width:4; stroke-opacity:1; fill:none" points="
  442.483,603.152 442.483,584.254 
  "/>
<polyline clip-path="url(#clip990)" style="stroke:#000000; stroke-linecap:round; stroke-linejoin:round; stroke-width:4; stroke-opacity:1; fill:none" points="
  620.051,603.152 620.051,584.254 
  "/>
<polyline clip-path="url(#clip990)" style="stroke:#000000; stroke-linecap:round; stroke-linejoin:round; stroke-width:4; stroke-opacity:1; fill:none" points="
  797.62,603.152 797.62,584.254 
  "/>
<polyline clip-path="url(#clip990)" style="stroke:#000000; stroke-linecap:round; stroke-linejoin:round; stroke-width:4; stroke-opacity:1; fill:none" points="
  975.188,603.152 975.188,584.254 
  "/>
<polyline clip-path="url(#clip990)" style="stroke:#000000; stroke-linecap:round; stroke-linejoin:round; stroke-width:4; stroke-opacity:1; fill:none" points="
  1152.76,603.152 1152.76,584.254 
  "/>
<path clip-path="url(#clip990)" d="M230.992 630.33 Q225.575 630.33 222.832 635.677 Q220.124 640.99 220.124 651.684 Q220.124 662.344 222.832 667.691 Q225.575 673.003 230.992 673.003 Q236.443 673.003 239.151 667.691 Q241.894 662.344 241.894 651.684 Q241.894 640.99 239.151 635.677 Q236.443 630.33 230.992 630.33 M230.992 624.774 Q239.707 624.774 244.29 631.684 Q248.908 638.559 248.908 651.684 Q248.908 664.774 244.29 671.684 Q239.707 678.559 230.992 678.559 Q222.276 678.559 217.658 671.684 Q213.075 664.774 213.075 651.684 Q213.075 638.559 217.658 631.684 Q222.276 624.774 230.992 624.774 Z" fill="#000000" fill-rule="evenodd" fill-opacity="1" /><path clip-path="url(#clip990)" d="M261.235 668.732 L268.561 668.732 L268.561 677.552 L261.235 677.552 L261.235 668.732 Z" fill="#000000" fill-rule="evenodd" fill-opacity="1" /><path clip-path="url(#clip990)" d="M298.839 630.33 Q293.422 630.33 290.679 635.677 Q287.971 640.99 287.971 651.684 Q287.971 662.344 290.679 667.691 Q293.422 673.003 298.839 673.003 Q304.29 673.003 306.998 667.691 Q309.741 662.344 309.741 651.684 Q309.741 640.99 306.998 635.677 Q304.29 630.33 298.839 630.33 M298.839 624.774 Q307.554 624.774 312.137 631.684 Q316.755 638.559 316.755 651.684 Q316.755 664.774 312.137 671.684 Q307.554 678.559 298.839 678.559 Q290.123 678.559 285.505 671.684 Q280.922 664.774 280.922 651.684 Q280.922 638.559 285.505 631.684 Q290.123 624.774 298.839 624.774 Z" fill="#000000" fill-rule="evenodd" fill-opacity="1" /><path clip-path="url(#clip990)" d="M409.48 630.33 Q404.063 630.33 401.32 635.677 Q398.612 640.99 398.612 651.684 Q398.612 662.344 401.32 667.691 Q404.063 673.003 409.48 673.003 Q414.931 673.003 417.64 667.691 Q420.383 662.344 420.383 651.684 Q420.383 640.99 417.64 635.677 Q414.931 630.33 409.48 630.33 M409.48 624.774 Q418.195 624.774 422.779 631.684 Q427.397 638.559 427.397 651.684 Q427.397 664.774 422.779 671.684 Q418.195 678.559 409.48 678.559 Q400.765 678.559 396.147 671.684 Q391.563 664.774 391.563 651.684 Q391.563 638.559 396.147 631.684 Q400.765 624.774 409.48 624.774 Z" fill="#000000" fill-rule="evenodd" fill-opacity="1" /><path clip-path="url(#clip990)" d="M439.723 668.732 L447.049 668.732 L447.049 677.552 L439.723 677.552 L439.723 668.732 Z" fill="#000000" fill-rule="evenodd" fill-opacity="1" /><path clip-path="url(#clip990)" d="M463.542 671.649 L475 671.649 L475 632.101 L462.535 634.601 L462.535 628.212 L474.931 625.712 L481.945 625.712 L481.945 671.649 L493.403 671.649 L493.403 677.552 L463.542 677.552 L463.542 671.649 Z" fill="#000000" fill-rule="evenodd" fill-opacity="1" /><path clip-path="url(#clip990)" d="M587.326 630.33 Q581.909 630.33 579.166 635.677 Q576.458 640.99 576.458 651.684 Q576.458 662.344 579.166 667.691 Q581.909 673.003 587.326 673.003 Q592.777 673.003 595.486 667.691 Q598.229 662.344 598.229 651.684 Q598.229 640.99 595.486 635.677 Q592.777 630.33 587.326 630.33 M587.326 624.774 Q596.041 624.774 600.624 631.684 Q605.243 638.559 605.243 651.684 Q605.243 664.774 600.624 671.684 Q596.041 678.559 587.326 678.559 Q578.611 678.559 573.993 671.684 Q569.409 664.774 569.409 651.684 Q569.409 638.559 573.993 631.684 Q578.611 624.774 587.326 624.774 Z" fill="#000000" fill-rule="evenodd" fill-opacity="1" /><path clip-path="url(#clip990)" d="M617.569 668.732 L624.895 668.732 L624.895 677.552 L617.569 677.552 L617.569 668.732 Z" fill="#000000" fill-rule="evenodd" fill-opacity="1" /><path clip-path="url(#clip990)" d="M646.215 671.649 L670.694 671.649 L670.694 677.552 L637.777 677.552 L637.777 671.649 Q641.77 667.517 648.645 660.573 Q655.555 653.594 657.326 651.58 Q660.694 647.795 662.013 645.191 Q663.367 642.552 663.367 640.017 Q663.367 635.885 660.451 633.281 Q657.569 630.677 652.916 630.677 Q649.617 630.677 645.937 631.823 Q642.291 632.969 638.124 635.295 L638.124 628.212 Q642.36 626.51 646.041 625.642 Q649.721 624.774 652.777 624.774 Q660.832 624.774 665.624 628.802 Q670.416 632.83 670.416 639.566 Q670.416 642.76 669.2 645.642 Q668.02 648.49 664.86 652.378 Q663.992 653.385 659.339 658.212 Q654.687 663.003 646.215 671.649 Z" fill="#000000" fill-rule="evenodd" fill-opacity="1" /><path clip-path="url(#clip990)" d="M764.182 630.33 Q758.766 630.33 756.023 635.677 Q753.314 640.99 753.314 651.684 Q753.314 662.344 756.023 667.691 Q758.766 673.003 764.182 673.003 Q769.634 673.003 772.342 667.691 Q775.085 662.344 775.085 651.684 Q775.085 640.99 772.342 635.677 Q769.634 630.33 764.182 630.33 M764.182 624.774 Q772.898 624.774 777.481 631.684 Q782.099 638.559 782.099 651.684 Q782.099 664.774 777.481 671.684 Q772.898 678.559 764.182 678.559 Q755.467 678.559 750.849 671.684 Q746.266 664.774 746.266 651.684 Q746.266 638.559 750.849 631.684 Q755.467 624.774 764.182 624.774 Z" fill="#000000" fill-rule="evenodd" fill-opacity="1" /><path clip-path="url(#clip990)" d="M794.425 668.732 L801.752 668.732 L801.752 677.552 L794.425 677.552 L794.425 668.732 Z" fill="#000000" fill-rule="evenodd" fill-opacity="1" /><path clip-path="url(#clip990)" d="M838.279 649.601 Q843.314 650.677 846.126 654.08 Q848.973 657.483 848.973 662.483 Q848.973 670.156 843.696 674.357 Q838.418 678.559 828.696 678.559 Q825.432 678.559 821.96 677.899 Q818.522 677.274 814.842 675.989 L814.842 669.219 Q817.758 670.92 821.231 671.788 Q824.703 672.656 828.487 672.656 Q835.085 672.656 838.522 670.052 Q841.994 667.448 841.994 662.483 Q841.994 657.899 838.765 655.33 Q835.571 652.726 829.842 652.726 L823.8 652.726 L823.8 646.962 L830.119 646.962 Q835.293 646.962 838.036 644.913 Q840.779 642.83 840.779 638.941 Q840.779 634.948 837.932 632.83 Q835.119 630.677 829.842 630.677 Q826.96 630.677 823.661 631.302 Q820.363 631.927 816.404 633.247 L816.404 626.997 Q820.397 625.885 823.869 625.33 Q827.376 624.774 830.467 624.774 Q838.453 624.774 843.105 628.42 Q847.758 632.031 847.758 638.212 Q847.758 642.517 845.293 645.503 Q842.828 648.455 838.279 649.601 Z" fill="#000000" fill-rule="evenodd" fill-opacity="1" /><path clip-path="url(#clip990)" d="M940.9 630.33 Q935.483 630.33 932.74 635.677 Q930.032 640.99 930.032 651.684 Q930.032 662.344 932.74 667.691 Q935.483 673.003 940.9 673.003 Q946.351 673.003 949.059 667.691 Q951.802 662.344 951.802 651.684 Q951.802 640.99 949.059 635.677 Q946.351 630.33 940.9 630.33 M940.9 624.774 Q949.615 624.774 954.198 631.684 Q958.816 638.559 958.816 651.684 Q958.816 664.774 954.198 671.684 Q949.615 678.559 940.9 678.559 Q932.185 678.559 927.566 671.684 Q922.983 664.774 922.983 651.684 Q922.983 638.559 927.566 631.684 Q932.185 624.774 940.9 624.774 Z" fill="#000000" fill-rule="evenodd" fill-opacity="1" /><path clip-path="url(#clip990)" d="M971.143 668.732 L978.469 668.732 L978.469 677.552 L971.143 677.552 L971.143 668.732 Z" fill="#000000" fill-rule="evenodd" fill-opacity="1" /><path clip-path="url(#clip990)" d="M1013.02 631.823 L995.309 659.496 L1013.02 659.496 L1013.02 631.823 M1011.18 625.712 L1020 625.712 L1020 659.496 L1027.39 659.496 L1027.39 665.33 L1020 665.33 L1020 677.552 L1013.02 677.552 L1013.02 665.33 L989.615 665.33 L989.615 658.559 L1011.18 625.712 Z" fill="#000000" fill-rule="evenodd" fill-opacity="1" /><path clip-path="url(#clip990)" d="M1119.58 630.33 Q1114.16 630.33 1111.42 635.677 Q1108.71 640.99 1108.71 651.684 Q1108.71 662.344 1111.42 667.691 Q1114.16 673.003 1119.58 673.003 Q1125.03 673.003 1127.74 667.691 Q1130.48 662.344 1130.48 651.684 Q1130.48 640.99 1127.74 635.677 Q1125.03 630.33 1119.58 630.33 M1119.58 624.774 Q1128.29 624.774 1132.88 631.684 Q1137.5 638.559 1137.5 651.684 Q1137.5 664.774 1132.88 671.684 Q1128.29 678.559 1119.58 678.559 Q1110.86 678.559 1106.25 671.684 Q1101.66 664.774 1101.66 651.684 Q1101.66 638.559 1106.25 631.684 Q1110.86 624.774 1119.58 624.774 Z" fill="#000000" fill-rule="evenodd" fill-opacity="1" /><path clip-path="url(#clip990)" d="M1149.82 668.732 L1157.15 668.732 L1157.15 677.552 L1149.82 677.552 L1149.82 668.732 Z" fill="#000000" fill-rule="evenodd" fill-opacity="1" /><path clip-path="url(#clip990)" d="M1172.5 625.712 L1200.03 625.712 L1200.03 631.615 L1178.92 631.615 L1178.92 644.323 Q1180.45 643.802 1181.97 643.559 Q1183.5 643.281 1185.03 643.281 Q1193.71 643.281 1198.78 648.038 Q1203.85 652.795 1203.85 660.92 Q1203.85 669.288 1198.64 673.941 Q1193.43 678.559 1183.95 678.559 Q1180.69 678.559 1177.29 678.003 Q1173.92 677.448 1170.31 676.337 L1170.31 669.288 Q1173.43 670.989 1176.77 671.823 Q1180.1 672.656 1183.81 672.656 Q1189.82 672.656 1193.33 669.496 Q1196.84 666.337 1196.84 660.92 Q1196.84 655.503 1193.33 652.344 Q1189.82 649.184 1183.81 649.184 Q1181 649.184 1178.19 649.809 Q1175.41 650.434 1172.5 651.753 L1172.5 625.712 Z" fill="#000000" fill-rule="evenodd" fill-opacity="1" /><polyline clip-path="url(#clip990)" style="stroke:#000000; stroke-linecap:round; stroke-linejoin:round; stroke-width:4; stroke-opacity:1; fill:none" points="
  264.915,603.152 264.915,47.2441 
  "/>
<polyline clip-path="url(#clip990)" style="stroke:#000000; stroke-linecap:round; stroke-linejoin:round; stroke-width:4; stroke-opacity:1; fill:none" points="
  264.915,603.152 283.813,603.152 
  "/>
<polyline clip-path="url(#clip990)" style="stroke:#000000; stroke-linecap:round; stroke-linejoin:round; stroke-width:4; stroke-opacity:1; fill:none" points="
  264.915,343.357 283.813,343.357 
  "/>
<polyline clip-path="url(#clip990)" style="stroke:#000000; stroke-linecap:round; stroke-linejoin:round; stroke-width:4; stroke-opacity:1; fill:none" points="
  264.915,83.5619 283.813,83.5619 
  "/>
<path clip-path="url(#clip990)" d="M57.9991 632.841 L69.4573 632.841 L69.4573 593.292 L56.9921 595.792 L56.9921 589.403 L69.3879 586.903 L76.4017 586.903 L76.4017 632.841 L87.86 632.841 L87.86 638.743 L57.9991 638.743 L57.9991 632.841 Z" fill="#000000" fill-rule="evenodd" fill-opacity="1" /><path clip-path="url(#clip990)" d="M117.027 591.521 Q111.61 591.521 108.867 596.868 Q106.159 602.181 106.159 612.875 Q106.159 623.535 108.867 628.882 Q111.61 634.195 117.027 634.195 Q122.478 634.195 125.186 628.882 Q127.929 623.535 127.929 612.875 Q127.929 602.181 125.186 596.868 Q122.478 591.521 117.027 591.521 M117.027 585.966 Q125.742 585.966 130.325 592.875 Q134.943 599.75 134.943 612.875 Q134.943 625.966 130.325 632.875 Q125.742 639.75 117.027 639.75 Q108.311 639.75 103.693 632.875 Q99.11 625.966 99.11 612.875 Q99.11 599.75 103.693 592.875 Q108.311 585.966 117.027 585.966 Z" fill="#000000" fill-rule="evenodd" fill-opacity="1" /><path clip-path="url(#clip990)" d="M134.943 577.118 L171.11 577.118 L171.11 581.914 L134.943 581.914 L134.943 577.118 Z" fill="#000000" fill-rule="evenodd" fill-opacity="1" /><path clip-path="url(#clip990)" d="M184.398 592.832 L193.708 592.832 L193.708 560.699 L183.58 562.73 L183.58 557.539 L193.652 555.508 L199.35 555.508 L199.35 592.832 L208.66 592.832 L208.66 597.628 L184.398 597.628 L184.398 592.832 Z" fill="#000000" fill-rule="evenodd" fill-opacity="1" /><path clip-path="url(#clip990)" d="M232.358 559.26 Q227.957 559.26 225.728 563.604 Q223.528 567.921 223.528 576.61 Q223.528 585.271 225.728 589.616 Q227.957 593.932 232.358 593.932 Q236.787 593.932 238.988 589.616 Q241.216 585.271 241.216 576.61 Q241.216 567.921 238.988 563.604 Q236.787 559.26 232.358 559.26 M232.358 554.746 Q239.439 554.746 243.163 560.36 Q246.915 565.946 246.915 576.61 Q246.915 587.246 243.163 592.86 Q239.439 598.446 232.358 598.446 Q225.277 598.446 221.525 592.86 Q217.801 587.246 217.801 576.61 Q217.801 565.946 221.525 560.36 Q225.277 554.746 232.358 554.746 Z" fill="#000000" fill-rule="evenodd" fill-opacity="1" /><path clip-path="url(#clip990)" d="M95.972 373.046 L107.43 373.046 L107.43 333.497 L94.965 335.997 L94.965 329.608 L107.361 327.108 L114.375 327.108 L114.375 373.046 L125.833 373.046 L125.833 378.948 L95.972 378.948 L95.972 373.046 Z" fill="#000000" fill-rule="evenodd" fill-opacity="1" /><path clip-path="url(#clip990)" d="M154.999 331.726 Q149.583 331.726 146.84 337.073 Q144.131 342.386 144.131 353.08 Q144.131 363.74 146.84 369.087 Q149.583 374.4 154.999 374.4 Q160.451 374.4 163.159 369.087 Q165.902 363.74 165.902 353.08 Q165.902 342.386 163.159 337.073 Q160.451 331.726 154.999 331.726 M154.999 326.171 Q163.715 326.171 168.298 333.08 Q172.916 339.955 172.916 353.08 Q172.916 366.171 168.298 373.08 Q163.715 379.955 154.999 379.955 Q146.284 379.955 141.666 373.08 Q137.083 366.171 137.083 353.08 Q137.083 339.955 141.666 333.08 Q146.284 326.171 154.999 326.171 Z" fill="#000000" fill-rule="evenodd" fill-opacity="1" /><path clip-path="url(#clip990)" d="M172.916 317.323 L209.083 317.323 L209.083 322.119 L172.916 322.119 L172.916 317.323 Z" fill="#000000" fill-rule="evenodd" fill-opacity="1" /><path clip-path="url(#clip990)" d="M221.44 295.713 L243.812 295.713 L243.812 300.509 L226.659 300.509 L226.659 310.834 Q227.9 310.411 229.142 310.213 Q230.383 309.988 231.624 309.988 Q238.677 309.988 242.796 313.853 Q246.915 317.718 246.915 324.319 Q246.915 331.118 242.683 334.899 Q238.452 338.651 230.75 338.651 Q228.098 338.651 225.333 338.199 Q222.597 337.748 219.663 336.845 L219.663 331.118 Q222.202 332.501 224.91 333.178 Q227.618 333.855 230.637 333.855 Q235.518 333.855 238.367 331.288 Q241.216 328.72 241.216 324.319 Q241.216 319.918 238.367 317.351 Q235.518 314.784 230.637 314.784 Q228.352 314.784 226.067 315.292 Q223.81 315.799 221.44 316.871 L221.44 295.713 Z" fill="#000000" fill-rule="evenodd" fill-opacity="1" /><path clip-path="url(#clip990)" d="M140.857 113.251 L152.315 113.251 L152.315 73.7021 L139.85 76.2021 L139.85 69.8133 L152.246 67.3133 L159.259 67.3133 L159.259 113.251 L170.718 113.251 L170.718 119.153 L140.857 119.153 L140.857 113.251 Z" fill="#000000" fill-rule="evenodd" fill-opacity="1" /><path clip-path="url(#clip990)" d="M199.884 71.9313 Q194.468 71.9313 191.724 77.2785 Q189.016 82.591 189.016 93.2854 Q189.016 103.945 191.724 109.292 Q194.468 114.605 199.884 114.605 Q205.336 114.605 208.044 109.292 Q210.787 103.945 210.787 93.2854 Q210.787 82.591 208.044 77.2785 Q205.336 71.9313 199.884 71.9313 M199.884 66.3758 Q208.599 66.3758 213.183 73.2855 Q217.801 80.1604 217.801 93.2854 Q217.801 106.376 213.183 113.285 Q208.599 120.16 199.884 120.16 Q191.169 120.16 186.551 113.285 Q181.968 106.376 181.968 93.2854 Q181.968 80.1604 186.551 73.2855 Q191.169 66.3758 199.884 66.3758 Z" fill="#000000" fill-rule="evenodd" fill-opacity="1" /><path clip-path="url(#clip990)" d="M232.358 39.6698 Q227.957 39.6698 225.728 44.0144 Q223.528 48.3308 223.528 57.02 Q223.528 65.681 225.728 70.0256 Q227.957 74.342 232.358 74.342 Q236.787 74.342 238.988 70.0256 Q241.216 65.681 241.216 57.02 Q241.216 48.3308 238.988 44.0144 Q236.787 39.6698 232.358 39.6698 M232.358 35.156 Q239.439 35.156 243.163 40.7701 Q246.915 46.356 246.915 57.02 Q246.915 67.6558 243.163 73.2699 Q239.439 78.8558 232.358 78.8558 Q225.277 78.8558 221.525 73.2699 Q217.801 67.6558 217.801 57.02 Q217.801 46.356 221.525 40.7701 Q225.277 35.156 232.358 35.156 Z" fill="#000000" fill-rule="evenodd" fill-opacity="1" /><polyline clip-path="url(#clip992)" style="stroke:#000000; stroke-linecap:round; stroke-linejoin:round; stroke-width:16; stroke-opacity:1; fill:none" stroke-dasharray="8, 16" points="
  264.915,4063.71 273.794,4047.07 282.672,4031.55 291.55,4016.92 300.429,4003.01 309.307,3989.67 318.186,3976.75 327.064,3964.15 335.942,3951.76 344.821,3939.5 
  353.699,3927.29 362.578,3915.08 371.456,3902.8 380.334,3890.42 389.213,3877.88 398.091,3865.15 406.97,3852.19 415.848,3838.97 424.726,3825.46 433.605,3811.63 
  442.483,3797.45 451.362,3782.89 460.24,3767.93 469.119,3752.52 477.997,3736.65 486.875,3720.29 495.754,3703.39 504.632,3685.93 513.511,3667.88 522.389,3649.18 
  531.267,3629.81 540.146,3609.72 549.024,3588.86 557.903,3567.18 566.781,3544.64 575.659,3521.16 584.538,3496.7 593.416,3471.18 602.295,3444.53 611.173,3416.68 
  620.051,3387.52 628.93,3356.98 637.808,3324.95 646.687,3291.31 655.565,3255.96 664.443,3218.74 673.322,3179.52 682.2,3138.15 691.079,3094.44 699.957,3048.22 
  708.836,2999.26 717.714,2947.34 726.592,2892.22 735.471,2833.63 744.349,2771.25 753.228,2704.77 762.106,2633.82 770.984,2558.02 779.863,2476.93 788.741,2390.09 
  797.62,2297 806.498,2197.11 815.376,2089.86 824.255,1974.63 833.133,1850.8 842.012,1717.77 850.89,1574.94 859.768,1421.87 868.647,1258.26 877.525,1084.2 
  886.404,900.375 895.282,708.484 904.16,511.968 913.039,318.415 921.917,175.191 930.796,123.782 939.674,101.635 948.553,90.8606 957.431,86.3004 966.309,84.5818 
  975.188,83.9596 984.066,83.7313 992.945,83.6574 1001.82,83.6311 1010.7,83.6168 1019.58,83.6077 1028.46,83.6014 1037.34,83.5967 1046.22,83.5932 1055.09,83.5906 
  1063.97,83.5888 1072.85,83.5878 1081.73,83.5873 1090.61,83.5869 1099.49,83.5866 1108.36,83.5864 1117.24,83.5862 1126.12,83.586 1135,83.5858 1143.88,83.5856 
  1152.76,83.5854 1161.63,83.5853 1170.51,83.5851 1179.39,83.5849 1188.27,83.5847 1197.15,83.5845 1206.03,83.5843 1214.9,83.5843 1223.78,83.5843 1232.66,83.5843 
  1241.54,83.5843 1250.42,83.5843 1259.3,83.5843 1268.18,83.5843 1277.05,83.5843 1285.93,83.5843 1294.81,83.5843 1303.69,83.5843 1312.57,83.5843 1321.45,83.5843 
  1330.32,83.5843 1339.2,83.5844 1348.08,83.5844 1356.96,83.5844 1365.84,83.5844 1374.72,83.5844 1383.59,83.5844 1392.47,83.5844 1401.35,83.5844 1410.23,83.5844 
  1419.11,83.5844 1427.99,83.5844 1436.86,83.5844 1445.74,83.5844 1454.62,83.5844 1463.5,83.5844 1472.38,83.5844 1481.26,83.5844 1490.14,83.5844 1499.01,83.5844 
  1507.89,83.5844 1516.77,83.5844 1525.65,83.5844 1534.53,83.5844 1543.41,83.5844 1552.28,83.5844 1561.16,83.5844 1570.04,83.5844 1578.92,83.5844 1587.8,83.5844 
  1596.68,83.5844 1605.55,83.5844 1614.43,83.5844 1623.31,83.5844 1632.19,83.5844 1641.07,83.5844 1649.95,83.5844 1658.83,83.5844 1667.7,83.5844 1676.58,83.5844 
  1685.46,83.5844 1694.34,83.5844 1703.22,83.5844 1712.1,83.5844 1720.97,83.5844 1729.85,83.5844 1738.73,83.5844 1747.61,83.5844 1756.49,83.5844 1765.37,83.5844 
  1774.24,83.5844 1783.12,83.5844 1792,83.5844 1800.88,83.5844 1809.76,83.5844 1818.64,83.5844 1827.51,83.5844 1836.39,83.5844 1845.27,83.5844 1854.15,83.5844 
  1863.03,83.5844 1871.91,83.5844 1880.79,83.5844 1889.66,83.5844 1898.54,83.5844 1907.42,83.5844 1916.3,83.5844 1925.18,83.5844 1934.06,83.5844 1942.93,83.5844 
  1951.81,83.5844 1960.69,83.5844 1969.57,83.5844 1978.45,83.5844 1987.33,83.5844 1996.2,83.5844 2005.08,83.5844 2013.96,83.5844 2022.84,83.5844 2031.72,83.5844 
  2040.6,83.5844 
  "/>
<polyline clip-path="url(#clip992)" style="stroke:#000000; stroke-linecap:round; stroke-linejoin:round; stroke-width:16; stroke-opacity:1; fill:none" stroke-dasharray="64, 40" points="
  264.915,3068.66 273.794,3032.5 282.672,2994.67 291.55,2955.03 300.429,2913.42 309.307,2869.64 318.186,2823.49 327.064,2774.73 335.942,2723.1 344.821,2668.29 
  353.699,2609.97 362.578,2547.74 371.456,2481.16 380.334,2409.7 389.213,2332.78 398.091,2249.7 406.97,2159.65 415.848,2061.69 424.726,1954.7 433.605,1837.36 
  442.483,1708.11 451.362,1565.18 460.24,1406.58 469.119,1230.37 477.997,1035.34 486.875,822.698 495.754,599.849 504.632,387.336 513.511,226.964 522.389,153.621 
  531.267,124.147 540.146,107.557 549.024,97.2497 557.903,91.1006 566.781,87.6637 575.659,85.8266 584.538,84.8598 593.416,84.3943 602.295,84.1904 611.173,84.0717 
  620.051,83.9924 628.93,83.9351 637.808,83.8915 646.687,83.857 655.565,83.8291 664.443,83.8059 673.322,83.7863 682.2,83.7696 691.079,83.755 699.957,83.7423 
  708.836,83.731 717.714,83.721 726.592,83.712 735.471,83.7039 744.349,83.6966 753.228,83.6899 762.106,83.6838 770.984,83.6781 779.863,83.673 788.741,83.6682 
  797.62,83.6637 806.498,83.6596 815.376,83.6557 824.255,83.6521 833.133,83.6486 842.012,83.6455 850.89,83.6425 859.768,83.6396 868.647,83.637 877.525,83.6344 
  886.404,83.632 895.282,83.6298 904.16,83.6276 913.039,83.6255 921.917,83.6236 930.796,83.6217 939.674,83.6199 948.553,83.6182 957.431,83.6166 966.309,83.615 
  975.188,83.6135 984.066,83.6121 992.945,83.6107 1001.82,83.6093 1010.7,83.6081 1019.58,83.6068 1028.46,83.6057 1037.34,83.6045 1046.22,83.6034 1055.09,83.6023 
  1063.97,83.6013 1072.85,83.6003 1081.73,83.5994 1090.61,83.5984 1099.49,83.5975 1108.36,83.5966 1117.24,83.5958 1126.12,83.595 1135,83.5942 1143.88,83.5934 
  1152.76,83.5927 1161.63,83.5919 1170.51,83.5912 1179.39,83.5905 1188.27,83.5899 1197.15,83.5892 1206.03,83.5886 1214.9,83.588 1223.78,83.5874 1232.66,83.5868 
  1241.54,83.5862 1250.42,83.5857 1259.3,83.5851 1268.18,83.5846 1277.05,83.5843 1285.93,83.5843 1294.81,83.5843 1303.69,83.5843 1312.57,83.5843 1321.45,83.5843 
  1330.32,83.5843 1339.2,83.5844 1348.08,83.5844 1356.96,83.5844 1365.84,83.5844 1374.72,83.5844 1383.59,83.5844 1392.47,83.5844 1401.35,83.5844 1410.23,83.5844 
  1419.11,83.5844 1427.99,83.5844 1436.86,83.5844 1445.74,83.5844 1454.62,83.5844 1463.5,83.5844 1472.38,83.5844 1481.26,83.5844 1490.14,83.5844 1499.01,83.5844 
  1507.89,83.5844 1516.77,83.5844 1525.65,83.5844 1534.53,83.5844 1543.41,83.5844 1552.28,83.5844 1561.16,83.5844 1570.04,83.5844 1578.92,83.5844 1587.8,83.5844 
  1596.68,83.5844 1605.55,83.5844 1614.43,83.5844 1623.31,83.5844 1632.19,83.5844 1641.07,83.5844 1649.95,83.5844 1658.83,83.5844 1667.7,83.5844 1676.58,83.5844 
  1685.46,83.5844 1694.34,83.5844 1703.22,83.5844 1712.1,83.5844 1720.97,83.5844 1729.85,83.5844 1738.73,83.5844 1747.61,83.5844 1756.49,83.5844 1765.37,83.5844 
  1774.24,83.5844 1783.12,83.5844 1792,83.5844 1800.88,83.5844 1809.76,83.5844 1818.64,83.5844 1827.51,83.5844 1836.39,83.5844 1845.27,83.5844 1854.15,83.5844 
  1863.03,83.5844 1871.91,83.5844 1880.79,83.5844 1889.66,83.5844 1898.54,83.5844 1907.42,83.5844 1916.3,83.5844 1925.18,83.5844 1934.06,83.5844 1942.93,83.5844 
  1951.81,83.5844 1960.69,83.5844 1969.57,83.5844 1978.45,83.5844 1987.33,83.5844 1996.2,83.5844 2005.08,83.5844 2013.96,83.5844 2022.84,83.5844 2031.72,83.5844 
  2040.6,83.5844 
  "/>
<polyline clip-path="url(#clip992)" style="stroke:#e38512; stroke-linecap:round; stroke-linejoin:round; stroke-width:16; stroke-opacity:1; fill:none" stroke-dasharray="8, 16" points="
  264.915,7367.54 273.794,7347.3 282.672,7328.08 291.55,7309.67 300.429,7291.89 309.307,7274.57 318.186,7257.58 327.064,7240.79 335.942,7224.11 344.821,7207.44 
  353.699,7190.7 362.578,7173.83 371.456,7156.77 380.334,7139.46 389.213,7121.85 398.091,7103.9 406.97,7085.57 415.848,7066.82 424.726,7047.6 433.605,7027.89 
  442.483,7007.63 451.362,6986.8 460.24,6965.35 469.119,6943.25 477.997,6920.46 486.875,6896.92 495.754,6872.6 504.632,6847.45 513.511,6821.42 522.389,6794.45 
  531.267,6766.48 540.146,6737.46 549.024,6707.32 557.903,6675.98 566.781,6643.37 575.659,6609.4 584.538,6573.99 593.416,6537.03 602.295,6498.42 611.173,6458.05 
  620.051,6415.78 628.93,6371.49 637.808,6325.01 646.687,6276.18 655.565,6224.83 664.443,6170.75 673.322,6113.72 682.2,6053.51 691.079,5989.85 699.957,5922.45 
  708.836,5850.98 717.714,5775.08 726.592,5694.36 735.471,5608.37 744.349,5516.61 753.228,5418.53 762.106,5313.51 770.984,5200.84 779.863,5079.75 788.741,4949.34 
  797.62,4808.62 806.498,4656.42 815.376,4491.44 824.255,4312.19 833.133,4116.94 842.012,3903.7 850.89,3670.13 859.768,3413.53 868.647,3130.66 877.525,2817.66 
  886.404,2469.81 895.282,2081.15 904.16,1643.97 913.039,1149 921.917,631.072 930.796,255.31 939.674,123.2 948.553,96.213 957.431,87.9976 966.309,85.1833 
  975.188,84.1927 984.066,83.8316 992.945,83.715 1001.82,83.6737 1010.7,83.6514 1019.58,83.6372 1028.46,83.6274 1037.34,83.6202 1046.22,83.6148 1055.09,83.6108 
  1063.97,83.6079 1072.85,83.606 1081.73,83.6045 1090.61,83.6033 1099.49,83.6022 1108.36,83.6013 1117.24,83.6003 1126.12,83.5996 1135,83.5989 1143.88,83.5983 
  1152.76,83.5976 1161.63,83.597 1170.51,83.5963 1179.39,83.5959 1188.27,83.5955 1197.15,83.5951 1206.03,83.5947 1214.9,83.5943 1223.78,83.5939 1232.66,83.5935 
  1241.54,83.5931 1250.42,83.5927 1259.3,83.5923 1268.18,83.5919 1277.05,83.5915 1285.93,83.5912 1294.81,83.5909 1303.69,83.5907 1312.57,83.5905 1321.45,83.5903 
  1330.32,83.5901 1339.2,83.5899 1348.08,83.5897 1356.96,83.5895 1365.84,83.5894 1374.72,83.5892 1383.59,83.589 1392.47,83.5888 1401.35,83.5886 1410.23,83.5884 
  1419.11,83.5882 1427.99,83.588 1436.86,83.5879 1445.74,83.5877 1454.62,83.5875 1463.5,83.5873 1472.38,83.5871 1481.26,83.5869 1490.14,83.5867 1499.01,83.5865 
  1507.89,83.5864 1516.77,83.5862 1525.65,83.586 1534.53,83.5858 1543.41,83.5856 1552.28,83.5854 1561.16,83.5852 1570.04,83.585 1578.92,83.5849 1587.8,83.5847 
  1596.68,83.5845 1605.55,83.5844 1614.43,83.5844 1623.31,83.5844 1632.19,83.5844 1641.07,83.5844 1649.95,83.5844 1658.83,83.5844 1667.7,83.5844 1676.58,83.5844 
  1685.46,83.5844 1694.34,83.5844 1703.22,83.5844 1712.1,83.5844 1720.97,83.5844 1729.85,83.5844 1738.73,83.5844 1747.61,83.5844 1756.49,83.5844 1765.37,83.5844 
  1774.24,83.5844 1783.12,83.5844 1792,83.5844 1800.88,83.5844 1809.76,83.5844 1818.64,83.5844 1827.51,83.5844 1836.39,83.5844 1845.27,83.5844 1854.15,83.5844 
  1863.03,83.5844 1871.91,83.5844 1880.79,83.5844 1889.66,83.5844 1898.54,83.5844 1907.42,83.5844 1916.3,83.5844 1925.18,83.5844 1934.06,83.5844 1942.93,83.5844 
  1951.81,83.5844 1960.69,83.5844 1969.57,83.5844 1978.45,83.5844 1987.33,83.5844 1996.2,83.5844 2005.08,83.5844 2013.96,83.5844 2022.84,83.5844 2031.72,83.5844 
  2040.6,83.5844 
  "/>
<polyline clip-path="url(#clip992)" style="stroke:#e38512; stroke-linecap:round; stroke-linejoin:round; stroke-width:16; stroke-opacity:1; fill:none" stroke-dasharray="64, 40" points="
  264.915,5844.89 273.794,5787.55 282.672,5727.37 291.55,5664.11 300.429,5597.49 309.307,5527.18 318.186,5452.84 327.064,5374.06 335.942,5290.39 344.821,5201.31 
  353.699,5106.24 362.578,5004.48 371.456,4895.26 380.334,4777.68 389.213,4650.68 398.091,4513.01 406.97,4363.22 415.848,4199.58 424.726,4020.02 433.605,3822.04 
  442.483,3602.68 451.362,3358.39 460.24,3085.04 469.119,2778.14 477.997,2433.59 486.875,2049.7 495.754,1631.45 504.632,1196.94 513.511,782.06 522.389,436.714 
  531.267,212.933 540.146,127.966 549.024,103.244 557.903,93.2509 566.781,88.5604 575.659,86.2544 584.538,85.0892 593.416,84.5395 602.295,84.3021 611.173,84.1648 
  620.051,84.0735 628.93,84.0078 637.808,83.9579 646.687,83.9186 655.565,83.8867 664.443,83.8603 673.322,83.838 682.2,83.819 691.079,83.8025 699.957,83.7881 
  708.836,83.7753 717.714,83.764 726.592,83.7538 735.471,83.7447 744.349,83.7364 753.228,83.7288 762.106,83.7219 770.984,83.7155 779.863,83.7097 788.741,83.7043 
  797.62,83.6993 806.498,83.6946 815.376,83.6902 824.255,83.6862 833.133,83.6823 842.012,83.6788 850.89,83.6754 859.768,83.6722 868.647,83.6692 877.525,83.6663 
  886.404,83.6637 895.282,83.6611 904.16,83.6587 913.039,83.6564 921.917,83.6542 930.796,83.6521 939.674,83.65 948.553,83.6482 957.431,83.6463 966.309,83.6446 
  975.188,83.6429 984.066,83.6413 992.945,83.6397 1001.82,83.6382 1010.7,83.6368 1019.58,83.6354 1028.46,83.6341 1037.34,83.6328 1046.22,83.6316 1055.09,83.6304 
  1063.97,83.6292 1072.85,83.6281 1081.73,83.627 1090.61,83.626 1099.49,83.625 1108.36,83.624 1117.24,83.623 1126.12,83.6221 1135,83.6212 1143.88,83.6203 
  1152.76,83.6195 1161.63,83.6187 1170.51,83.6179 1179.39,83.6171 1188.27,83.6164 1197.15,83.6157 1206.03,83.6149 1214.9,83.6142 1223.78,83.6135 1232.66,83.6129 
  1241.54,83.6123 1250.42,83.6116 1259.3,83.611 1268.18,83.6104 1277.05,83.6099 1285.93,83.6093 1294.81,83.6087 1303.69,83.6082 1312.57,83.6077 1321.45,83.6071 
  1330.32,83.6066 1339.2,83.6061 1348.08,83.6056 1356.96,83.6052 1365.84,83.6047 1374.72,83.6043 1383.59,83.6038 1392.47,83.6034 1401.35,83.603 1410.23,83.6026 
  1419.11,83.6021 1427.99,83.6017 1436.86,83.6013 1445.74,83.601 1454.62,83.6006 1463.5,83.6002 1472.38,83.5998 1481.26,83.5995 1490.14,83.5991 1499.01,83.5988 
  1507.89,83.5984 1516.77,83.5981 1525.65,83.5978 1534.53,83.5975 1543.41,83.5972 1552.28,83.5969 1561.16,83.5965 1570.04,83.5962 1578.92,83.596 1587.8,83.5957 
  1596.68,83.5954 1605.55,83.5951 1614.43,83.5948 1623.31,83.5945 1632.19,83.5943 1641.07,83.594 1649.95,83.5937 1658.83,83.5935 1667.7,83.5932 1676.58,83.593 
  1685.46,83.5927 1694.34,83.5925 1703.22,83.5923 1712.1,83.5921 1720.97,83.5918 1729.85,83.5916 1738.73,83.5914 1747.61,83.5912 1756.49,83.5909 1765.37,83.5907 
  1774.24,83.5905 1783.12,83.5903 1792,83.5901 1800.88,83.5899 1809.76,83.5897 1818.64,83.5895 1827.51,83.5893 1836.39,83.5891 1845.27,83.5889 1854.15,83.5888 
  1863.03,83.5886 1871.91,83.5884 1880.79,83.5882 1889.66,83.588 1898.54,83.5879 1907.42,83.5877 1916.3,83.5875 1925.18,83.5873 1934.06,83.5872 1942.93,83.587 
  1951.81,83.5869 1960.69,83.5867 1969.57,83.5865 1978.45,83.5864 1987.33,83.5862 1996.2,83.5861 2005.08,83.5859 2013.96,83.5858 2022.84,83.5856 2031.72,83.5855 
  2040.6,83.5853 
  "/>
<polyline clip-path="url(#clip992)" style="stroke:#7a4c8f; stroke-linecap:round; stroke-linejoin:round; stroke-width:16; stroke-opacity:1; fill:none" stroke-dasharray="8, 16" points="
  264.915,2011.33 273.794,1997.27 282.672,1984.38 291.55,1972.46 300.429,1961.32 309.307,1950.83 318.186,1940.84 327.064,1931.24 335.942,1921.94 344.821,1912.85 
  353.699,1903.9 362.578,1895.04 371.456,1886.22 380.334,1877.38 389.213,1868.5 398.091,1859.54 406.97,1850.46 415.848,1841.25 424.726,1831.87 433.605,1822.3 
  442.483,1812.52 451.362,1802.51 460.24,1792.24 469.119,1781.7 477.997,1770.86 486.875,1759.71 495.754,1748.21 504.632,1736.34 513.511,1724.09 522.389,1711.42 
  531.267,1698.31 540.146,1684.73 549.024,1670.65 557.903,1656.03 566.781,1640.84 575.659,1625.04 584.538,1608.59 593.416,1591.45 602.295,1573.56 611.173,1554.88 
  620.051,1535.36 628.93,1514.92 637.808,1493.51 646.687,1471.05 655.565,1447.47 664.443,1422.69 673.322,1396.62 682.2,1369.16 691.079,1340.21 699.957,1309.66 
  708.836,1277.39 717.714,1243.28 726.592,1207.19 735.471,1168.98 744.349,1128.51 753.228,1085.62 762.106,1040.15 770.984,991.962 779.863,940.897 788.741,886.826 
  797.62,829.642 806.498,769.282 815.376,705.753 824.255,639.166 833.133,570.815 842.012,502.444 850.89,434.949 859.768,369.939 868.647,309.853 877.525,258.826 
  886.404,220.829 895.282,194.747 904.16,176.264 913.039,161.957 921.917,138.874 930.796,115.101 939.674,98.7795 948.553,89.8321 957.431,85.9272 966.309,84.444 
  975.188,83.9061 984.066,83.7087 992.945,83.6453 1001.82,83.6228 1010.7,83.6107 1019.58,83.6029 1028.46,83.5976 1037.34,83.5937 1046.22,83.5907 1055.09,83.5886 
  1063.97,83.5871 1072.85,83.5863 1081.73,83.586 1090.61,83.5858 1099.49,83.5856 1108.36,83.5854 1117.24,83.5852 1126.12,83.5851 1135,83.5849 1143.88,83.5847 
  1152.76,83.5845 1161.63,83.5843 1170.51,83.5843 1179.39,83.5843 1188.27,83.5843 1197.15,83.5843 1206.03,83.5843 1214.9,83.5843 1223.78,83.5843 1232.66,83.5843 
  1241.54,83.5843 1250.42,83.5843 1259.3,83.5843 1268.18,83.5843 1277.05,83.5843 1285.93,83.5843 1294.81,83.5843 1303.69,83.5843 1312.57,83.5843 1321.45,83.5843 
  1330.32,83.5843 1339.2,83.5843 1348.08,83.5843 1356.96,83.5843 1365.84,83.5843 1374.72,83.5843 1383.59,83.5843 1392.47,83.5844 1401.35,83.5844 1410.23,83.5844 
  1419.11,83.5844 1427.99,83.5844 1436.86,83.5844 1445.74,83.5844 1454.62,83.5844 1463.5,83.5844 1472.38,83.5844 1481.26,83.5844 1490.14,83.5844 1499.01,83.5844 
  1507.89,83.5844 1516.77,83.5844 1525.65,83.5844 1534.53,83.5844 1543.41,83.5844 1552.28,83.5844 1561.16,83.5844 1570.04,83.5844 1578.92,83.5844 1587.8,83.5844 
  1596.68,83.5844 1605.55,83.5844 1614.43,83.5844 1623.31,83.5844 1632.19,83.5844 1641.07,83.5844 1649.95,83.5844 1658.83,83.5844 1667.7,83.5844 1676.58,83.5844 
  1685.46,83.5844 1694.34,83.5844 1703.22,83.5844 1712.1,83.5844 1720.97,83.5844 1729.85,83.5844 1738.73,83.5844 1747.61,83.5844 1756.49,83.5844 1765.37,83.5844 
  1774.24,83.5844 1783.12,83.5844 1792,83.5844 1800.88,83.5844 1809.76,83.5844 1818.64,83.5844 1827.51,83.5844 1836.39,83.5844 1845.27,83.5844 1854.15,83.5844 
  1863.03,83.5844 1871.91,83.5844 1880.79,83.5844 1889.66,83.5844 1898.54,83.5844 1907.42,83.5844 1916.3,83.5844 1925.18,83.5844 1934.06,83.5844 1942.93,83.5844 
  1951.81,83.5844 1960.69,83.5844 1969.57,83.5844 1978.45,83.5844 1987.33,83.5844 1996.2,83.5844 2005.08,83.5844 2013.96,83.5844 2022.84,83.5844 2031.72,83.5844 
  2040.6,83.5844 
  "/>
<polyline clip-path="url(#clip992)" style="stroke:#7a4c8f; stroke-linecap:round; stroke-linejoin:round; stroke-width:16; stroke-opacity:1; fill:none" stroke-dasharray="64, 40" points="
  264.915,1355.91 273.794,1334.39 282.672,1312.04 291.55,1288.78 300.429,1264.53 309.307,1239.2 318.186,1212.68 327.064,1184.85 335.942,1155.6 344.821,1124.76 
  353.699,1092.19 362.578,1057.7 371.456,1021.1 380.334,982.139 389.213,940.577 398.091,896.126 406.97,848.464 415.848,797.238 424.726,742.061 433.605,682.533 
  442.483,618.281 451.362,549.064 460.24,475.022 469.119,397.265 477.997,319.192 486.875,248.8 495.754,197.001 504.632,164.06 513.511,141.304 522.389,123.661 
  531.267,109.721 540.146,99.3876 549.024,92.5161 557.903,88.4258 566.781,86.1803 575.659,84.9987 584.538,84.383 593.416,84.0899 602.295,83.9627 611.173,83.8888 
  620.051,83.8396 628.93,83.8041 637.808,83.7771 646.687,83.7558 655.565,83.7386 664.443,83.7243 673.322,83.7122 682.2,83.7019 691.079,83.6929 699.957,83.6851 
  708.836,83.6782 717.714,83.672 726.592,83.6665 735.471,83.6615 744.349,83.657 753.228,83.6529 762.106,83.6492 770.984,83.6457 779.863,83.6425 788.741,83.6396 
  797.62,83.6368 806.498,83.6343 815.376,83.6319 824.255,83.6297 833.133,83.6277 842.012,83.6257 850.89,83.6239 859.768,83.6222 868.647,83.6205 877.525,83.619 
  886.404,83.6175 895.282,83.6161 904.16,83.6148 913.039,83.6136 921.917,83.6124 930.796,83.6112 939.674,83.6101 948.553,83.6091 957.431,83.6081 966.309,83.6071 
  975.188,83.6062 984.066,83.6054 992.945,83.6045 1001.82,83.6037 1010.7,83.6029 1019.58,83.6022 1028.46,83.6015 1037.34,83.6008 1046.22,83.6001 1055.09,83.5994 
  1063.97,83.5988 1072.85,83.5982 1081.73,83.5976 1090.61,83.5971 1099.49,83.5965 1108.36,83.596 1117.24,83.5955 1126.12,83.595 1135,83.5945 1143.88,83.5941 
  1152.76,83.5936 1161.63,83.5932 1170.51,83.5927 1179.39,83.5923 1188.27,83.5919 1197.15,83.5915 1206.03,83.5912 1214.9,83.5908 1223.78,83.5904 1232.66,83.5901 
  1241.54,83.5898 1250.42,83.5894 1259.3,83.5891 1268.18,83.5888 1277.05,83.5885 1285.93,83.5882 1294.81,83.588 1303.69,83.5877 1312.57,83.5874 1321.45,83.5872 
  1330.32,83.5869 1339.2,83.5867 1348.08,83.5865 1356.96,83.5863 1365.84,83.5861 1374.72,83.586 1383.59,83.5858 1392.47,83.5857 1401.35,83.5856 1410.23,83.5854 
  1419.11,83.5853 1427.99,83.5851 1436.86,83.585 1445.74,83.5849 1454.62,83.5847 1463.5,83.5846 1472.38,83.5845 1481.26,83.5843 1490.14,83.5843 1499.01,83.5843 
  1507.89,83.5843 1516.77,83.5843 1525.65,83.5843 1534.53,83.5843 1543.41,83.5843 1552.28,83.5843 1561.16,83.5843 1570.04,83.5843 1578.92,83.5843 1587.8,83.5843 
  1596.68,83.5843 1605.55,83.5843 1614.43,83.5843 1623.31,83.5843 1632.19,83.5843 1641.07,83.5843 1649.95,83.5843 1658.83,83.5843 1667.7,83.5843 1676.58,83.5843 
  1685.46,83.5843 1694.34,83.5843 1703.22,83.5843 1712.1,83.5843 1720.97,83.5843 1729.85,83.5843 1738.73,83.5843 1747.61,83.5843 1756.49,83.5843 1765.37,83.5843 
  1774.24,83.5843 1783.12,83.5843 1792,83.5843 1800.88,83.5843 1809.76,83.5843 1818.64,83.5843 1827.51,83.5844 1836.39,83.5844 1845.27,83.5844 1854.15,83.5844 
  1863.03,83.5844 1871.91,83.5844 1880.79,83.5844 1889.66,83.5844 1898.54,83.5844 1907.42,83.5844 1916.3,83.5844 1925.18,83.5844 1934.06,83.5844 1942.93,83.5844 
  1951.81,83.5844 1960.69,83.5844 1969.57,83.5844 1978.45,83.5844 1987.33,83.5844 1996.2,83.5844 2005.08,83.5844 2013.96,83.5844 2022.84,83.5844 2031.72,83.5844 
  2040.6,83.5844 
  "/>
</svg>
