<?xml version="1.0" encoding="utf-8"?>
<svg xmlns="http://www.w3.org/2000/svg" xmlns:xlink="http://www.w3.org/1999/xlink" width="300" height="180" viewBox="0 0 1200 720">
<defs>
  <clipPath id="clip070">
    <rect x="0" y="0" width="1200" height="720"/>
  </clipPath>
</defs>
<path clip-path="url(#clip070)" d="
M0 720 L1200 720 L1200 0 L0 0  Z
  " fill="#ffffff" fill-rule="evenodd" fill-opacity="1"/>
<defs>
  <clipPath id="clip071">
    <rect x="240" y="0" width="841" height="720"/>
  </clipPath>
</defs>
<path clip-path="url(#clip070)" d="
M264.915 603.152 L1152.76 603.152 L1152.76 47.2441 L264.915 47.2441  Z
  " fill="#ffffff" fill-rule="evenodd" fill-opacity="1"/>
<defs>
  <clipPath id="clip072">
    <rect x="264" y="47" width="889" height="557"/>
  </clipPath>
</defs>
<polyline clip-path="url(#clip070)" style="stroke:#000000; stroke-linecap:round; stroke-linejoin:round; stroke-width:4; stroke-opacity:1; fill:none" points="
  264.915,603.152 1152.76,603.152 
  "/>
<polyline clip-path="url(#clip070)" style="stroke:#000000; stroke-linecap:round; stroke-linejoin:round; stroke-width:4; stroke-opacity:1; fill:none" points="
  264.915,603.152 264.915,584.254 
  "/>
<polyline clip-path="url(#clip070)" style="stroke:#000000; stroke-linecap:round; stroke-linejoin:round; stroke-width:4; stroke-opacity:1; fill:none" points="
  442.483,603.152 442.483,584.254 
  "/>
<polyline clip-path="url(#clip070)" style="stroke:#000000; stroke-linecap:round; stroke-linejoin:round; stroke-width:4; stroke-opacity:1; fill:none" points="
  620.051,603.152 620.051,584.254 
  "/>
<polyline clip-path="url(#clip070)" style="stroke:#000000; stroke-linecap:round; stroke-linejoin:round; stroke-width:4; stroke-opacity:1; fill:none" points="
  797.62,603.152 797.62,584.254 
  "/>
<polyline clip-path="url(#clip070)" style="stroke:#000000; stroke-linecap:round; stroke-linejoin:round; stroke-width:4; stroke-opacity:1; fill:none" points="
  975.188,603.152 975.188,584.254 
  "/>
<polyline clip-path="url(#clip070)" style="stroke:#000000; stroke-linecap:round; stroke-linejoin:round; stroke-width:4; stroke-opacity:1; fill:none" points="
  1152.76,603.152 1152.76,584.254 
  "/>
<path clip-path="url(#clip070)" d="M230.992 630.33 Q225.575 630.33 222.832 635.677 Q220.124 640.99 220.124 651.684 Q220.124 662.344 222.832 667.691 Q225.575 673.003 230.992 673.003 Q236.443 673.003 239.151 667.691 Q241.894 662.344 241.894 651.684 Q241.894 640.99 239.151 635.677 Q236.443 630.33 230.992 630.33 M230.992 624.774 Q239.707 624.774 244.29 631.684 Q248.908 638.559 248.908 651.684 Q248.908 664.774 244.29 671.684 Q239.707 678.559 230.992 678.559 Q222.276 678.559 217.658 671.684 Q213.075 664.774 213.075 651.684 Q213.075 638.559 217.658 631.684 Q222.276 624.774 230.992 624.774 Z" fill="#000000" fill-rule="evenodd" fill-opacity="1" /><path clip-path="url(#clip070)" d="M261.235 668.732 L268.561 668.732 L268.561 677.552 L261.235 677.552 L261.235 668.732 Z" fill="#000000" fill-rule="evenodd" fill-opacity="1" /><path clip-path="url(#clip070)" d="M298.839 630.33 Q293.422 630.33 290.679 635.677 Q287.971 640.99 287.971 651.684 Q287.971 662.344 290.679 667.691 Q293.422 673.003 298.839 673.003 Q304.29 673.003 306.998 667.691 Q309.741 662.344 309.741 651.684 Q309.741 640.99 306.998 635.677 Q304.29 630.33 298.839 630.33 M298.839 624.774 Q307.554 624.774 312.137 631.684 Q316.755 638.559 316.755 651.684 Q316.755 664.774 312.137 671.684 Q307.554 678.559 298.839 678.559 Q290.123 678.559 285.505 671.684 Q280.922 664.774 280.922 651.684 Q280.922 638.559 285.505 631.684 Q290.123 624.774 298.839 624.774 Z" fill="#000000" fill-rule="evenodd" fill-opacity="1" /><path clip-path="url(#clip070)" d="M409.48 630.33 Q404.063 630.33 401.32 635.677 Q398.612 640.99 398.612 651.684 Q398.612 662.344 401.32 667.691 Q404.063 673.003 409.48 673.003 Q414.931 673.003 417.64 667.691 Q420.383 662.344 420.383 651.684 Q420.383 640.99 417.64 635.677 Q414.931 630.33 409.48 630.33 M409.48 624.774 Q418.195 624.774 422.779 631.684 Q427.397 638.559 427.397 651.684 Q427.397 664.774 422.779 671.684 Q418.195 678.559 409.48 678.559 Q400.765 678.559 396.147 671.684 Q391.563 664.774 391.563 651.684 Q391.563 638.559 396.147 631.684 Q400.765 624.774 409.48 624.774 Z" fill="#000000" fill-rule="evenodd" fill-opacity="1" /><path clip-path="url(#clip070)" d="M439.723 668.732 L447.049 668.732 L447.049 677.552 L439.723 677.552 L439.723 668.732 Z" fill="#000000" fill-rule="evenodd" fill-opacity="1" /><path clip-path="url(#clip070)" d="M463.542 671.649 L475 671.649 L475 632.101 L462.535 634.601 L462.535 628.212 L474.931 625.712 L481.945 625.712 L481.945 671.649 L493.403 671.649 L493.403 677.552 L463.542 677.552 L463.542 671.649 Z" fill="#000000" fill-rule="evenodd" fill-opacity="1" /><path clip-path="url(#clip070)" d="M587.326 630.33 Q581.909 630.33 579.166 635.677 Q576.458 640.99 576.458 651.684 Q576.458 662.344 579.166 667.691 Q581.909 673.003 587.326 673.003 Q592.777 673.003 595.486 667.691 Q598.229 662.344 598.229 651.684 Q598.229 640.99 595.486 635.677 Q592.777 630.33 587.326 630.33 M587.326 624.774 Q596.041 624.774 600.624 631.684 Q605.243 638.559 605.243 651.684 Q605.243 664.774 600.624 671.684 Q596.041 678.559 587.326 678.559 Q578.611 678.559 573.993 671.684 Q569.409 664.774 569.409 651.684 Q569.409 638.559 573.993 631.684 Q578.611 624.774 587.326 624.774 Z" fill="#000000" fill-rule="evenodd" fill-opacity="1" /><path clip-path="url(#clip070)" d="M617.569 668.732 L624.895 668.732 L624.895 677.552 L617.569 677.552 L617.569 668.732 Z" fill="#000000" fill-rule="evenodd" fill-opacity="1" /><path clip-path="url(#clip070)" d="M646.215 671.649 L670.694 671.649 L670.694 677.552 L637.777 677.552 L637.777 671.649 Q641.77 667.517 648.645 660.573 Q655.555 653.594 657.326 651.58 Q660.694 647.795 662.013 645.191 Q663.367 642.552 663.367 640.017 Q663.367 635.885 660.451 633.281 Q657.569 630.677 652.916 630.677 Q649.617 630.677 645.937 631.823 Q642.291 632.969 638.124 635.295 L638.124 628.212 Q642.36 626.51 646.041 625.642 Q649.721 624.774 652.777 624.774 Q660.832 624.774 665.624 628.802 Q670.416 632.83 670.416 639.566 Q670.416 642.76 669.2 645.642 Q668.02 648.49 664.86 652.378 Q663.992 653.385 659.339 658.212 Q654.687 663.003 646.215 671.649 Z" fill="#000000" fill-rule="evenodd" fill-opacity="1" /><path clip-path="url(#clip070)" d="M764.182 630.33 Q758.766 630.33 756.023 635.677 Q753.314 640.99 753.314 651.684 Q753.314 662.344 756.023 667.691 Q758.766 673.003 764.182 673.003 Q769.634 673.003 772.342 667.691 Q775.085 662.344 775.085 651.684 Q775.085 640.99 772.342 635.677 Q769.634 630.33 764.182 630.33 M764.182 624.774 Q772.898 624.774 777.481 631.684 Q782.099 638.559 782.099 651.684 Q782.099 664.774 777.481 671.684 Q772.898 678.559 764.182 678.559 Q755.467 678.559 750.849 671.684 Q746.266 664.774 746.266 651.684 Q746.266 638.559 750.849 631.684 Q755.467 624.774 764.182 624.774 Z" fill="#000000" fill-rule="evenodd" fill-opacity="1" /><path clip-path="url(#clip070)" d="M794.425 668.732 L801.752 668.732 L801.752 677.552 L794.425 677.552 L794.425 668.732 Z" fill="#000000" fill-rule="evenodd" fill-opacity="1" /><path clip-path="url(#clip070)" d="M838.279 649.601 Q843.314 650.677 846.126 654.08 Q848.973 657.483 848.973 662.483 Q848.973 670.156 843.696 674.357 Q838.418 678.559 828.696 678.559 Q825.432 678.559 821.96 677.899 Q818.522 677.274 814.842 675.989 L814.842 669.219 Q817.758 670.92 821.231 671.788 Q824.703 672.656 828.487 672.656 Q835.085 672.656 838.522 670.052 Q841.994 667.448 841.994 662.483 Q841.994 657.899 838.765 655.33 Q835.571 652.726 829.842 652.726 L823.8 652.726 L823.8 646.962 L830.119 646.962 Q835.293 646.962 838.036 644.913 Q840.779 642.83 840.779 638.941 Q840.779 634.948 837.932 632.83 Q835.119 630.677 829.842 630.677 Q826.96 630.677 823.661 631.302 Q820.363 631.927 816.404 633.247 L816.404 626.997 Q820.397 625.885 823.869 625.33 Q827.376 624.774 830.467 624.774 Q838.453 624.774 843.105 628.42 Q847.758 632.031 847.758 638.212 Q847.758 642.517 845.293 645.503 Q842.828 648.455 838.279 649.601 Z" fill="#000000" fill-rule="evenodd" fill-opacity="1" /><path clip-path="url(#clip070)" d="M940.9 630.33 Q935.483 630.33 932.74 635.677 Q930.032 640.99 930.032 651.684 Q930.032 662.344 932.74 667.691 Q935.483 673.003 940.9 673.003 Q946.351 673.003 949.059 667.691 Q951.802 662.344 951.802 651.684 Q951.802 640.99 949.059 635.677 Q946.351 630.33 940.9 630.33 M940.9 624.774 Q949.615 624.774 954.198 631.684 Q958.816 638.559 958.816 651.684 Q958.816 664.774 954.198 671.684 Q949.615 678.559 940.9 678.559 Q932.185 678.559 927.566 671.684 Q922.983 664.774 922.983 651.684 Q922.983 638.559 927.566 631.684 Q932.185 624.774 940.9 624.774 Z" fill="#000000" fill-rule="evenodd" fill-opacity="1" /><path clip-path="url(#clip070)" d="M971.143 668.732 L978.469 668.732 L978.469 677.552 L971.143 677.552 L971.143 668.732 Z" fill="#000000" fill-rule="evenodd" fill-opacity="1" /><path clip-path="url(#clip070)" d="M1013.02 631.823 L995.309 659.496 L1013.02 659.496 L1013.02 631.823 M1011.18 625.712 L1020 625.712 L1020 659.496 L1027.39 659.496 L1027.39 665.33 L1020 665.33 L1020 677.552 L1013.02 677.552 L1013.02 665.33 L989.615 665.33 L989.615 658.559 L1011.18 625.712 Z" fill="#000000" fill-rule="evenodd" fill-opacity="1" /><path clip-path="url(#clip070)" d="M1119.58 630.33 Q1114.16 630.33 1111.42 635.677 Q1108.71 640.99 1108.71 651.684 Q1108.71 662.344 1111.42 667.691 Q1114.16 673.003 1119.58 673.003 Q1125.03 673.003 1127.74 667.691 Q1130.48 662.344 1130.48 651.684 Q1130.48 640.99 1127.74 635.677 Q1125.03 630.33 1119.58 630.33 M1119.58 624.774 Q1128.29 624.774 1132.88 631.684 Q1137.5 638.559 1137.5 651.684 Q1137.5 664.774 1132.88 671.684 Q1128.29 678.559 1119.58 678.559 Q1110.86 678.559 1106.25 671.684 Q1101.66 664.774 1101.66 651.684 Q1101.66 638.559 1106.25 631.684 Q1110.86 624.774 1119.58 624.774 Z" fill="#000000" fill-rule="evenodd" fill-opacity="1" /><path clip-path="url(#clip070)" d="M1149.82 668.732 L1157.15 668.732 L1157.15 677.552 L1149.82 677.552 L1149.82 668.732 Z" fill="#000000" fill-rule="evenodd" fill-opacity="1" /><path clip-path="url(#clip070)" d="M1172.5 625.712 L1200.03 625.712 L1200.03 631.615 L1178.92 631.615 L1178.92 644.323 Q1180.45 643.802 1181.97 643.559 Q1183.5 643.281 1185.03 643.281 Q1193.71 643.281 1198.78 648.038 Q1203.85 652.795 1203.85 660.92 Q1203.85 669.288 1198.64 673.941 Q1193.43 678.559 1183.95 678.559 Q1180.69 678.559 1177.29 678.003 Q1173.92 677.448 1170.31 676.337 L1170.31 669.288 Q1173.43 670.989 1176.77 671.823 Q1180.1 672.656 1183.81 672.656 Q1189.82 672.656 1193.33 669.496 Q1196.84 666.337 1196.84 660.92 Q1196.84 655.503 1193.33 652.344 Q1189.82 649.184 1183.81 649.184 Q1181 649.184 1178.19 649.809 Q1175.41 650.434 1172.5 651.753 L1172.5 625.712 Z" fill="#000000" fill-rule="evenodd" fill-opacity="1" /><polyline clip-path="url(#clip070)" style="stroke:#000000; stroke-linecap:round; stroke-linejoin:round; stroke-width:4; stroke-opacity:1; fill:none" points="
  264.915,603.152 264.915,47.2441 
  "/>
<polyline clip-path="url(#clip070)" style="stroke:#000000; stroke-linecap:round; stroke-linejoin:round; stroke-width:4; stroke-opacity:1; fill:none" points="
  264.915,603.152 283.813,603.152 
  "/>
<polyline clip-path="url(#clip070)" style="stroke:#000000; stroke-linecap:round; stroke-linejoin:round; stroke-width:4; stroke-opacity:1; fill:none" points="
  264.915,343.357 283.813,343.357 
  "/>
<polyline clip-path="url(#clip070)" style="stroke:#000000; stroke-linecap:round; stroke-linejoin:round; stroke-width:4; stroke-opacity:1; fill:none" points="
  264.915,83.5619 283.813,83.5619 
  "/>
<path clip-path="url(#clip070)" d="M57.9991 632.841 L69.4573 632.841 L69.4573 593.292 L56.9921 595.792 L56.9921 589.403 L69.3879 586.903 L76.4017 586.903 L76.4017 632.841 L87.86 632.841 L87.86 638.743 L57.9991 638.743 L57.9991 632.841 Z" fill="#000000" fill-rule="evenodd" fill-opacity="1" /><path clip-path="url(#clip070)" d="M117.027 591.521 Q111.61 591.521 108.867 596.868 Q106.159 602.181 106.159 612.875 Q106.159 623.535 108.867 628.882 Q111.61 634.195 117.027 634.195 Q122.478 634.195 125.186 628.882 Q127.929 623.535 127.929 612.875 Q127.929 602.181 125.186 596.868 Q122.478 591.521 117.027 591.521 M117.027 585.966 Q125.742 585.966 130.325 592.875 Q134.943 599.75 134.943 612.875 Q134.943 625.966 130.325 632.875 Q125.742 639.75 117.027 639.75 Q108.311 639.75 103.693 632.875 Q99.11 625.966 99.11 612.875 Q99.11 599.75 103.693 592.875 Q108.311 585.966 117.027 585.966 Z" fill="#000000" fill-rule="evenodd" fill-opacity="1" /><path clip-path="url(#clip070)" d="M134.943 577.118 L171.11 577.118 L171.11 581.914 L134.943 581.914 L134.943 577.118 Z" fill="#000000" fill-rule="evenodd" fill-opacity="1" /><path clip-path="url(#clip070)" d="M184.398 592.832 L193.708 592.832 L193.708 560.699 L183.58 562.73 L183.58 557.539 L193.652 555.508 L199.35 555.508 L199.35 592.832 L208.66 592.832 L208.66 597.628 L184.398 597.628 L184.398 592.832 Z" fill="#000000" fill-rule="evenodd" fill-opacity="1" /><path clip-path="url(#clip070)" d="M232.358 559.26 Q227.957 559.26 225.728 563.604 Q223.528 567.921 223.528 576.61 Q223.528 585.271 225.728 589.616 Q227.957 593.932 232.358 593.932 Q236.787 593.932 238.988 589.616 Q241.216 585.271 241.216 576.61 Q241.216 567.921 238.988 563.604 Q236.787 559.26 232.358 559.26 M232.358 554.746 Q239.439 554.746 243.163 560.36 Q246.915 565.946 246.915 576.61 Q246.915 587.246 243.163 592.86 Q239.439 598.446 232.358 598.446 Q225.277 598.446 221.525 592.86 Q217.801 587.246 217.801 576.61 Q217.801 565.946 221.525 560.36 Q225.277 554.746 232.358 554.746 Z" fill="#000000" fill-rule="evenodd" fill-opacity="1" /><path clip-path="url(#clip070)" d="M95.972 373.046 L107.43 373.046 L107.43 333.497 L94.965 335.997 L94.965 329.608 L107.361 327.108 L114.375 327.108 L114.375 373.046 L125.833 373.046 L125.833 378.948 L95.972 378.948 L95.972 373.046 Z" fill="#000000" fill-rule="evenodd" fill-opacity="1" /><path clip-path="url(#clip070)" d="M154.999 331.726 Q149.583 331.726 146.84 337.073 Q144.131 342.386 144.131 353.08 Q144.131 363.74 146.84 369.087 Q149.583 374.4 154.999 374.4 Q160.451 374.4 163.159 369.087 Q165.902 363.74 165.902 353.08 Q165.902 342.386 163.159 337.073 Q160.451 331.726 154.999 331.726 M154.999 326.171 Q163.715 326.171 168.298 333.08 Q172.916 339.955 172.916 353.08 Q172.916 366.171 168.298 373.08 Q163.715 379.955 154.999 379.955 Q146.284 379.955 141.666 373.08 Q137.083 366.171 137.083 353.08 Q137.083 339.955 141.666 333.08 Q146.284 326.171 154.999 326.171 Z" fill="#000000" fill-rule="evenodd" fill-opacity="1" /><path clip-path="url(#clip070)" d="M172.916 317.323 L209.083 317.323 L209.083 322.119 L172.916 322.119 L172.916 317.323 Z" fill="#000000" fill-rule="evenodd" fill-opacity="1" /><path clip-path="url(#clip070)" d="M221.44 295.713 L243.812 295.713 L243.812 300.509 L226.659 300.509 L226.659 310.834 Q227.9 310.411 229.142 310.213 Q230.383 309.988 231.624 309.988 Q238.677 309.988 242.796 313.853 Q246.915 317.718 246.915 324.319 Q246.915 331.118 242.683 334.899 Q238.452 338.651 230.75 338.651 Q228.098 338.651 225.333 338.199 Q222.597 337.748 219.663 336.845 L219.663 331.118 Q222.202 332.501 224.91 333.178 Q227.618 333.855 230.637 333.855 Q235.518 333.855 238.367 331.288 Q241.216 328.72 241.216 324.319 Q241.216 319.918 238.367 317.351 Q235.518 314.784 230.637 314.784 Q228.352 314.784 226.067 315.292 Q223.81 315.799 221.44 316.871 L221.44 295.713 Z" fill="#000000" fill-rule="evenodd" fill-opacity="1" /><path clip-path="url(#clip070)" d="M140.857 113.251 L152.315 113.251 L152.315 73.7021 L139.85 76.2021 L139.85 69.8133 L152.246 67.3133 L159.259 67.3133 L159.259 113.251 L170.718 113.251 L170.718 119.153 L140.857 119.153 L140.857 113.251 Z" fill="#000000" fill-rule="evenodd" fill-opacity="1" /><path clip-path="url(#clip070)" d="M199.884 71.9313 Q194.468 71.9313 191.724 77.2785 Q189.016 82.591 189.016 93.2854 Q189.016 103.945 191.724 109.292 Q194.468 114.605 199.884 114.605 Q205.336 114.605 208.044 109.292 Q210.787 103.945 210.787 93.2854 Q210.787 82.591 208.044 77.2785 Q205.336 71.9313 199.884 71.9313 M199.884 66.3758 Q208.599 66.3758 213.183 73.2855 Q217.801 80.1604 217.801 93.2854 Q217.801 106.376 213.183 113.285 Q208.599 120.16 199.884 120.16 Q191.169 120.16 186.551 113.285 Q181.968 106.376 181.968 93.2854 Q181.968 80.1604 186.551 73.2855 Q191.169 66.3758 199.884 66.3758 Z" fill="#000000" fill-rule="evenodd" fill-opacity="1" /><path clip-path="url(#clip070)" d="M232.358 39.6698 Q227.957 39.6698 225.728 44.0144 Q223.528 48.3308 223.528 57.02 Q223.528 65.681 225.728 70.0256 Q227.957 74.342 232.358 74.342 Q236.787 74.342 238.988 70.0256 Q241.216 65.681 241.216 57.02 Q241.216 48.3308 238.988 44.0144 Q236.787 39.6698 232.358 39.6698 M232.358 35.156 Q239.439 35.156 243.163 40.7701 Q246.915 46.356 246.915 57.02 Q246.915 67.6558 243.163 73.2699 Q239.439 78.8558 232.358 78.8558 Q225.277 78.8558 221.525 73.2699 Q217.801 67.6558 217.801 57.02 Q217.801 46.356 221.525 40.7701 Q225.277 35.156 232.358 35.156 Z" fill="#000000" fill-rule="evenodd" fill-opacity="1" /><polyline clip-path="url(#clip072)" style="stroke:#000000; stroke-linecap:round; stroke-linejoin:round; stroke-width:16; stroke-opacity:1; fill:none" stroke-dasharray="8, 16" points="
  264.915,4374.34 273.794,4256.44 282.672,4063.71 291.55,3755.7 300.429,3303.23 309.307,2784.83 318.186,2428.72 327.064,2179.78 335.942,1995.34 344.821,1852.32 
  353.699,1736.94 362.578,1640.63 371.456,1557.89 380.334,1484.93 389.213,1419.14 398.091,1358.41 406.97,1301.26 415.848,1246.82 424.726,1193.84 433.605,1141.45 
  442.483,1088.74 451.362,1034.87 460.24,978.941 469.119,919.836 477.997,856.731 486.875,789.047 495.754,716.764 504.632,639.403 513.511,558.072 522.389,473.206 
  531.267,387.655 540.146,305.108 549.024,232.907 557.903,181.76 566.781,152.331 575.659,134.96 584.538,124.122 593.416,117.98 602.295,114.953 611.173,113.236 
  620.051,112.018 628.93,111.06 637.808,110.167 646.687,109.29 655.565,108.459 664.443,107.583 673.322,106.751 682.2,105.896 691.079,105.032 699.957,104.175 
  708.836,103.332 717.714,102.502 726.592,101.681 735.471,100.854 744.349,100.043 753.228,99.2319 762.106,98.4381 770.984,97.664 779.863,96.8998 788.741,96.1448 
  797.62,95.4053 806.498,94.6814 815.376,93.9733 824.255,93.2812 833.133,92.6067 842.012,91.9493 850.89,91.2932 859.768,89.896 868.647,87.682 877.525,85.6189 
  886.404,84.3899 895.282,83.8564 904.16,83.6609 913.039,83.5944 921.917,83.5842 930.796,83.5842 939.674,83.5842 948.553,83.5842 957.431,83.5842 966.309,83.5842 
  975.188,83.5842 984.066,83.5842 992.945,83.5842 1001.82,83.5842 1010.7,83.5842 1019.58,83.5842 1028.46,83.5842 1037.34,83.5842 1046.22,83.5842 1055.09,83.5842 
  1063.97,83.5842 1072.85,83.5842 1081.73,83.5842 1090.61,83.5842 1099.49,83.5842 1108.36,83.5842 1117.24,83.5842 1126.12,83.5842 1135,83.5842 1143.88,83.5842 
  1152.76,83.5842 1161.63,83.5842 1170.51,83.5842 1179.39,83.5842 1188.27,83.5842 1197.15,83.5842 1206.03,83.5842 1214.9,83.5842 1223.78,83.5842 1232.66,83.5842 
  1241.54,83.5842 1250.42,83.5842 1259.3,83.5842 1268.18,83.5842 1277.05,83.5842 1285.93,83.5842 1294.81,83.5842 1303.69,83.5842 1312.57,83.5842 1321.45,83.5842 
  1330.32,83.5842 1339.2,83.5842 1348.08,83.5842 1356.96,83.5842 1365.84,83.5842 1374.72,83.5842 1383.59,83.5842 1392.47,83.5842 1401.35,83.5842 1410.23,83.5842 
  1419.11,83.5842 1427.99,83.5842 1436.86,83.5842 1445.74,83.5842 1454.62,83.5842 1463.5,83.5842 1472.38,83.5842 1481.26,83.5842 1490.14,83.5842 1499.01,83.5842 
  1507.89,83.5842 1516.77,83.5842 1525.65,83.5842 1534.53,83.5842 1543.41,83.5842 1552.28,83.5842 1561.16,83.5842 1570.04,83.5842 1578.92,83.5842 1587.8,83.5842 
  1596.68,83.5842 1605.55,83.5842 1614.43,83.5842 1623.31,83.5842 1632.19,83.5842 1641.07,83.5842 1649.95,83.5842 1658.83,83.5842 1667.7,83.5842 1676.58,83.5842 
  1685.46,83.5842 1694.34,83.5842 1703.22,83.5842 1712.1,83.5842 1720.97,83.5842 1729.85,83.5842 1738.73,83.5842 1747.61,83.5842 1756.49,83.5842 1765.37,83.5842 
  1774.24,83.5842 1783.12,83.5842 1792,83.5842 1800.88,83.5842 1809.76,83.5842 1818.64,83.5842 1827.51,83.5842 1836.39,83.5842 1845.27,83.5842 1854.15,83.5842 
  1863.03,83.5842 1871.91,83.5842 1880.79,83.5842 1889.66,83.5842 1898.54,83.5842 1907.42,83.5842 1916.3,83.5842 1925.18,83.5842 1934.06,83.5842 1942.93,83.5842 
  1951.81,83.5842 1960.69,83.5842 1969.57,83.5842 1978.45,83.5842 1987.33,83.5842 1996.2,83.5842 2005.08,83.5842 2013.96,83.5842 2022.84,83.5842 2031.72,83.5842 
  2040.6,83.5842 
  "/>
<polyline clip-path="url(#clip072)" style="stroke:#000000; stroke-linecap:round; stroke-linejoin:round; stroke-width:16; stroke-opacity:1; fill:none" stroke-dasharray="64, 40" points="
  264.915,3294.98 273.794,3193.57 282.672,3068.66 291.55,2913.2 300.429,2721.13 309.307,2490.34 318.186,2225.18 327.064,1935.94 335.942,1634.83 344.821,1332.78 
  353.699,1046.8 362.578,767.243 371.456,491.938 380.334,255.023 389.213,154.823 398.091,124.274 406.97,106.348 415.848,95.0123 424.726,89.3589 433.605,87.7653 
  442.483,86.6304 451.362,85.5139 460.24,84.6355 469.119,84.0891 477.997,83.8034 486.875,83.6686 495.754,83.6542 504.632,83.6464 513.511,83.6399 522.389,83.6343 
  531.267,83.6296 540.146,83.6253 549.024,83.6218 557.903,83.6185 566.781,83.6156 575.659,83.613 584.538,83.6106 593.416,83.6083 602.295,83.6064 611.173,83.6047 
  620.051,83.603 628.93,83.6014 637.808,83.5998 646.687,83.5986 655.565,83.5975 664.443,83.5964 673.322,83.5953 682.2,83.5943 691.079,83.5932 699.957,83.5923 
  708.836,83.5913 717.714,83.5907 726.592,83.59 735.471,83.5894 744.349,83.5888 753.228,83.5882 762.106,83.5876 770.984,83.587 779.863,83.5864 788.741,83.5859 
  797.62,83.5853 806.498,83.585 815.376,83.5848 824.255,83.5845 833.133,83.5842 842.012,83.5842 850.89,83.5842 859.768,83.5842 868.647,83.5842 877.525,83.5842 
  886.404,83.5842 895.282,83.5842 904.16,83.5842 913.039,83.5842 921.917,83.5842 930.796,83.5842 939.674,83.5842 948.553,83.5842 957.431,83.5842 966.309,83.5842 
  975.188,83.5842 984.066,83.5842 992.945,83.5842 1001.82,83.5842 1010.7,83.5842 1019.58,83.5842 1028.46,83.5842 1037.34,83.5842 1046.22,83.5842 1055.09,83.5842 
  1063.97,83.5842 1072.85,83.5842 1081.73,83.5842 1090.61,83.5842 1099.49,83.5842 1108.36,83.5842 1117.24,83.5842 1126.12,83.5842 1135,83.5842 1143.88,83.5842 
  1152.76,83.5842 1161.63,83.5842 1170.51,83.5842 1179.39,83.5842 1188.27,83.5842 1197.15,83.5842 1206.03,83.5842 1214.9,83.5842 1223.78,83.5842 1232.66,83.5842 
  1241.54,83.5842 1250.42,83.5842 1259.3,83.5842 1268.18,83.5842 1277.05,83.5842 1285.93,83.5842 1294.81,83.5842 1303.69,83.5842 1312.57,83.5842 1321.45,83.5842 
  1330.32,83.5842 1339.2,83.5842 1348.08,83.5842 1356.96,83.5842 1365.84,83.5842 1374.72,83.5842 1383.59,83.5842 1392.47,83.5842 1401.35,83.5842 1410.23,83.5842 
  1419.11,83.5842 1427.99,83.5842 1436.86,83.5842 1445.74,83.5842 1454.62,83.5842 1463.5,83.5842 1472.38,83.5842 1481.26,83.5842 1490.14,83.5842 1499.01,83.5842 
  1507.89,83.5842 1516.77,83.5842 1525.65,83.5842 1534.53,83.5842 1543.41,83.5842 1552.28,83.5842 1561.16,83.5842 1570.04,83.5842 1578.92,83.5842 1587.8,83.5842 
  1596.68,83.5842 1605.55,83.5842 1614.43,83.5842 1623.31,83.5842 1632.19,83.5842 1641.07,83.5842 1649.95,83.5842 1658.83,83.5842 1667.7,83.5842 1676.58,83.5842 
  1685.46,83.5842 1694.34,83.5842 1703.22,83.5842 1712.1,83.5842 1720.97,83.5842 1729.85,83.5842 1738.73,83.5842 1747.61,83.5842 1756.49,83.5842 1765.37,83.5842 
  1774.24,83.5842 1783.12,83.5842 1792,83.5842 1800.88,83.5842 1809.76,83.5842 1818.64,83.5842 1827.51,83.5842 1836.39,83.5842 1845.27,83.5842 1854.15,83.5842 
  1863.03,83.5842 1871.91,83.5842 1880.79,83.5842 1889.66,83.5842 1898.54,83.5842 1907.42,83.5842 1916.3,83.5842 1925.18,83.5842 1934.06,83.5842 1942.93,83.5842 
  1951.81,83.5842 1960.69,83.5842 1969.57,83.5842 1978.45,83.5842 1987.33,83.5842 1996.2,83.5842 2005.08,83.5842 2013.96,83.5842 2022.84,83.5842 2031.72,83.5842 
  2040.6,83.5842 
  "/>
<polyline clip-path="url(#clip072)" style="stroke:#e38512; stroke-linecap:round; stroke-linejoin:round; stroke-width:16; stroke-opacity:1; fill:none" stroke-dasharray="8, 16" points="
  264.915,7691.58 273.794,7567.03 282.672,7367.54 291.55,7052.77 300.429,6593.56 309.307,5999.8 318.186,5326.85 327.064,4670.9 335.942,4174.16 344.821,3801.75 
  353.699,3514.3 362.578,3287.12 371.456,3104.16 380.334,2954.26 389.213,2829.72 398.091,2725.14 406.97,2636 415.848,2558.93 424.726,2490.6 433.605,2427.46 
  442.483,2364.99 451.362,2297.65 460.24,2220.01 469.119,2128.07 477.997,2021.16 486.875,1900.26 495.754,1767.95 504.632,1626.35 513.511,1477.63 522.389,1323.3 
  531.267,1165.12 540.146,1004.95 549.024,846.218 557.903,693.087 566.781,551.78 575.659,429.197 584.538,332.104 593.416,265.112 602.295,225.666 611.173,204.016 
  620.051,191.221 628.93,182.474 637.808,175.598 646.687,169.623 655.565,164.11 664.443,158.937 673.322,154.089 682.2,149.375 691.079,144.981 699.957,140.724 
  708.836,136.814 717.714,133.104 726.592,129.61 735.471,126.32 744.349,123.255 753.228,120.392 762.106,117.707 770.984,115.186 779.863,112.82 788.741,110.599 
  797.62,108.512 806.498,106.566 815.376,104.72 824.255,102.991 833.133,101.37 842.012,99.8315 850.89,98.1232 859.768,94.6472 868.647,90.2564 877.525,86.7305 
  886.404,84.8039 895.282,83.9998 904.16,83.7091 913.039,83.6105 921.917,83.5894 930.796,83.5892 939.674,83.589 948.553,83.5887 957.431,83.5885 966.309,83.5882 
  975.188,83.588 984.066,83.5877 992.945,83.5875 1001.82,83.5873 1010.7,83.587 1019.58,83.5868 1028.46,83.5866 1037.34,83.5864 1046.22,83.5861 1055.09,83.5859 
  1063.97,83.5857 1072.85,83.5855 1081.73,83.5852 1090.61,83.585 1099.49,83.5848 1108.36,83.5846 1117.24,83.5844 1126.12,83.5842 1135,83.5842 1143.88,83.5842 
  1152.76,83.5842 1161.63,83.5842 1170.51,83.5842 1179.39,83.5842 1188.27,83.5842 1197.15,83.5842 1206.03,83.5842 1214.9,83.5842 1223.78,83.5842 1232.66,83.5842 
  1241.54,83.5842 1250.42,83.5842 1259.3,83.5842 1268.18,83.5842 1277.05,83.5842 1285.93,83.5842 1294.81,83.5842 1303.69,83.5842 1312.57,83.5842 1321.45,83.5842 
  1330.32,83.5842 1339.2,83.5842 1348.08,83.5842 1356.96,83.5842 1365.84,83.5842 1374.72,83.5842 1383.59,83.5842 1392.47,83.5842 1401.35,83.5842 1410.23,83.5842 
  1419.11,83.5842 1427.99,83.5842 1436.86,83.5842 1445.74,83.5842 1454.62,83.5842 1463.5,83.5842 1472.38,83.5842 1481.26,83.5842 1490.14,83.5842 1499.01,83.5842 
  1507.89,83.5842 1516.77,83.5842 1525.65,83.5842 1534.53,83.5842 1543.41,83.5842 1552.28,83.5842 1561.16,83.5842 1570.04,83.5842 1578.92,83.5842 1587.8,83.5842 
  1596.68,83.5842 1605.55,83.5842 1614.43,83.5842 1623.31,83.5842 1632.19,83.5842 1641.07,83.5842 1649.95,83.5842 1658.83,83.5842 1667.7,83.5842 1676.58,83.5842 
  1685.46,83.5842 1694.34,83.5842 1703.22,83.5842 1712.1,83.5842 1720.97,83.5842 1729.85,83.5842 1738.73,83.5842 1747.61,83.5842 1756.49,83.5842 1765.37,83.5842 
  1774.24,83.5842 1783.12,83.5842 1792,83.5842 1800.88,83.5842 1809.76,83.5842 1818.64,83.5842 1827.51,83.5842 1836.39,83.5842 1845.27,83.5842 1854.15,83.5842 
  1863.03,83.5842 1871.91,83.5842 1880.79,83.5842 1889.66,83.5842 1898.54,83.5842 1907.42,83.5842 1916.3,83.5842 1925.18,83.5842 1934.06,83.5842 1942.93,83.5842 
  1951.81,83.5842 1960.69,83.5842 1969.57,83.5842 1978.45,83.5842 1987.33,83.5842 1996.2,83.5842 2005.08,83.5842 2013.96,83.5842 2022.84,83.5842 2031.72,83.5842 
  2040.6,83.5842 
  "/>
<polyline clip-path="url(#clip072)" style="stroke:#e38512; stroke-linecap:round; stroke-linejoin:round; stroke-width:16; stroke-opacity:1; fill:none" stroke-dasharray="64, 40" points="
  264.915,6148.79 273.794,6010.19 282.672,5844.89 291.55,5645.76 300.429,5406.56 309.307,5124.58 318.186,4802.6 327.064,4448.2 335.942,4069.61 344.821,3670.25 
  353.699,3244.01 362.578,2773.97 371.456,2238.66 380.334,1631.7 389.213,990.189 398.091,432.425 406.97,146.464 415.848,103.386 424.726,93.2419 433.605,90.3105 
  442.483,87.9392 451.362,86.0656 460.24,84.8354 469.119,84.1588 477.997,83.8291 486.875,83.6841 495.754,83.6737 504.632,83.6652 513.511,83.658 522.389,83.652 
  531.267,83.6468 540.146,83.6422 549.024,83.6383 557.903,83.6347 566.781,83.6313 575.659,83.6287 584.538,83.6261 593.416,83.6236 602.295,83.6213 611.173,83.6195 
  620.051,83.6177 628.93,83.616 637.808,83.6143 646.687,83.6127 655.565,83.6113 664.443,83.6102 673.322,83.6091 682.2,83.608 691.079,83.6069 699.957,83.6059 
  708.836,83.6049 717.714,83.6039 726.592,83.6029 735.471,83.602 744.349,83.6014 753.228,83.6008 762.106,83.6002 770.984,83.5996 779.863,83.599 788.741,83.5985 
  797.62,83.5979 806.498,83.5973 815.376,83.5968 824.255,83.5963 833.133,83.5957 842.012,83.5952 850.89,83.5947 859.768,83.5942 868.647,83.5937 877.525,83.5932 
  886.404,83.5927 895.282,83.5924 904.16,83.5922 913.039,83.5919 921.917,83.5917 930.796,83.5914 939.674,83.5912 948.553,83.591 957.431,83.5908 966.309,83.5905 
  975.188,83.5903 984.066,83.5901 992.945,83.5898 1001.82,83.5896 1010.7,83.5894 1019.58,83.5892 1028.46,83.589 1037.34,83.5887 1046.22,83.5885 1055.09,83.5883 
  1063.97,83.5881 1072.85,83.5879 1081.73,83.5877 1090.61,83.5875 1099.49,83.5873 1108.36,83.5871 1117.24,83.5868 1126.12,83.5866 1135,83.5864 1143.88,83.5862 
  1152.76,83.586 1161.63,83.5858 1170.51,83.5856 1179.39,83.5854 1188.27,83.5853 1197.15,83.5851 1206.03,83.5849 1214.9,83.5847 1223.78,83.5845 1232.66,83.5843 
  1241.54,83.5842 1250.42,83.5842 1259.3,83.5842 1268.18,83.5842 1277.05,83.5842 1285.93,83.5842 1294.81,83.5842 1303.69,83.5842 1312.57,83.5842 1321.45,83.5842 
  1330.32,83.5842 1339.2,83.5842 1348.08,83.5842 1356.96,83.5842 1365.84,83.5842 1374.72,83.5842 1383.59,83.5842 1392.47,83.5842 1401.35,83.5842 1410.23,83.5842 
  1419.11,83.5842 1427.99,83.5842 1436.86,83.5842 1445.74,83.5842 1454.62,83.5842 1463.5,83.5842 1472.38,83.5842 1481.26,83.5842 1490.14,83.5842 1499.01,83.5842 
  1507.89,83.5842 1516.77,83.5842 1525.65,83.5842 1534.53,83.5842 1543.41,83.5842 1552.28,83.5842 1561.16,83.5842 1570.04,83.5842 1578.92,83.5842 1587.8,83.5842 
  1596.68,83.5842 1605.55,83.5842 1614.43,83.5842 1623.31,83.5842 1632.19,83.5842 1641.07,83.5842 1649.95,83.5842 1658.83,83.5842 1667.7,83.5842 1676.58,83.5842 
  1685.46,83.5842 1694.34,83.5842 1703.22,83.5842 1712.1,83.5842 1720.97,83.5842 1729.85,83.5842 1738.73,83.5842 1747.61,83.5842 1756.49,83.5842 1765.37,83.5842 
  1774.24,83.5842 1783.12,83.5842 1792,83.5842 1800.88,83.5842 1809.76,83.5842 1818.64,83.5842 1827.51,83.5842 1836.39,83.5842 1845.27,83.5842 1854.15,83.5842 
  1863.03,83.5842 1871.91,83.5842 1880.79,83.5842 1889.66,83.5842 1898.54,83.5842 1907.42,83.5842 1916.3,83.5842 1925.18,83.5842 1934.06,83.5842 1942.93,83.5842 
  1951.81,83.5842 1960.69,83.5842 1969.57,83.5842 1978.45,83.5842 1987.33,83.5842 1996.2,83.5842 2005.08,83.5842 2013.96,83.5842 2022.84,83.5842 2031.72,83.5842 
  2040.6,83.5842 
  "/>
<polyline clip-path="url(#clip072)" style="stroke:#7a4c8f; stroke-linecap:round; stroke-linejoin:round; stroke-width:16; stroke-opacity:1; fill:none" stroke-dasharray="8, 16" points="
  264.915,2311.39 273.794,2198.57 282.672,2011.33 291.55,1713.14 300.429,1474.44 309.307,1329.48 318.186,1229.38 327.064,1153.53 335.942,1091.88 344.821,1039.1 
  353.699,991.761 362.578,947.981 371.456,906.666 380.334,866.649 389.213,827.41 398.091,788.757 406.97,750.139 415.848,711.346 424.726,672.244 433.605,632.652 
  442.483,592.373 451.362,551.214 460.24,509.254 469.119,466.435 477.997,422.539 486.875,377.791 495.754,332.745 504.632,288.527 513.511,247.214 522.389,212.225 
  531.267,185.783 540.146,166.537 549.024,151.884 557.903,140.165 566.781,130.268 575.659,122.014 584.538,115.605 593.416,111.609 602.295,109.533 611.173,108.311 
  620.051,107.453 628.93,106.707 637.808,106.052 646.687,105.377 655.565,104.731 664.443,104.055 673.322,103.397 682.2,102.713 691.079,102.022 699.957,101.347 
  708.836,100.664 717.714,99.979 726.592,99.309 735.471,98.6298 744.349,97.9559 753.228,97.2797 762.106,96.6146 770.984,95.9622 779.863,95.3139 788.741,94.6721 
  797.62,94.0397 806.498,93.4163 815.376,92.8064 824.255,92.206 833.133,91.6205 842.012,91.0453 850.89,90.4666 859.768,89.2034 868.647,87.2149 877.525,85.3747 
  886.404,84.288 895.282,83.8193 904.16,83.6483 913.039,83.5902 921.917,83.5842 930.796,83.5842 939.674,83.5842 948.553,83.5842 957.431,83.5842 966.309,83.5842 
  975.188,83.5842 984.066,83.5842 992.945,83.5842 1001.82,83.5842 1010.7,83.5842 1019.58,83.5842 1028.46,83.5842 1037.34,83.5842 1046.22,83.5842 1055.09,83.5842 
  1063.97,83.5842 1072.85,83.5842 1081.73,83.5842 1090.61,83.5842 1099.49,83.5842 1108.36,83.5842 1117.24,83.5842 1126.12,83.5842 1135,83.5842 1143.88,83.5842 
  1152.76,83.5842 1161.63,83.5842 1170.51,83.5842 1179.39,83.5842 1188.27,83.5842 1197.15,83.5842 1206.03,83.5842 1214.9,83.5842 1223.78,83.5842 1232.66,83.5842 
  1241.54,83.5842 1250.42,83.5842 1259.3,83.5842 1268.18,83.5842 1277.05,83.5842 1285.93,83.5842 1294.81,83.5842 1303.69,83.5842 1312.57,83.5842 1321.45,83.5842 
  1330.32,83.5842 1339.2,83.5842 1348.08,83.5842 1356.96,83.5842 1365.84,83.5842 1374.72,83.5842 1383.59,83.5842 1392.47,83.5842 1401.35,83.5842 1410.23,83.5842 
  1419.11,83.5842 1427.99,83.5842 1436.86,83.5842 1445.74,83.5842 1454.62,83.5842 1463.5,83.5842 1472.38,83.5842 1481.26,83.5842 1490.14,83.5842 1499.01,83.5842 
  1507.89,83.5842 1516.77,83.5842 1525.65,83.5842 1534.53,83.5842 1543.41,83.5842 1552.28,83.5842 1561.16,83.5842 1570.04,83.5842 1578.92,83.5842 1587.8,83.5842 
  1596.68,83.5842 1605.55,83.5842 1614.43,83.5842 1623.31,83.5842 1632.19,83.5842 1641.07,83.5842 1649.95,83.5842 1658.83,83.5842 1667.7,83.5842 1676.58,83.5842 
  1685.46,83.5842 1694.34,83.5842 1703.22,83.5842 1712.1,83.5842 1720.97,83.5842 1729.85,83.5842 1738.73,83.5842 1747.61,83.5842 1756.49,83.5842 1765.37,83.5842 
  1774.24,83.5842 1783.12,83.5842 1792,83.5842 1800.88,83.5842 1809.76,83.5842 1818.64,83.5842 1827.51,83.5842 1836.39,83.5842 1845.27,83.5842 1854.15,83.5842 
  1863.03,83.5842 1871.91,83.5842 1880.79,83.5842 1889.66,83.5842 1898.54,83.5842 1907.42,83.5842 1916.3,83.5842 1925.18,83.5842 1934.06,83.5842 1942.93,83.5842 
  1951.81,83.5842 1960.69,83.5842 1969.57,83.5842 1978.45,83.5842 1987.33,83.5842 1996.2,83.5842 2005.08,83.5842 2013.96,83.5842 2022.84,83.5842 2031.72,83.5842 
  2040.6,83.5842 
  "/>
<polyline clip-path="url(#clip072)" style="stroke:#7a4c8f; stroke-linecap:round; stroke-linejoin:round; stroke-width:16; stroke-opacity:1; fill:none" stroke-dasharray="64, 40" points="
  264.915,1523.4 273.794,1449.43 282.672,1355.91 291.55,1237.01 300.429,1088.13 309.307,908.688 318.186,714.736 327.064,555.659 335.942,423.449 344.821,312.507 
  353.699,230.411 362.578,185.94 371.456,161.562 380.334,143.682 389.213,127.87 398.091,113.232 406.97,100.81 415.848,92.2862 424.726,88.3393 433.605,87.0861 
  442.483,85.963 451.362,84.9824 460.24,84.2984 469.119,83.9099 477.997,83.7179 486.875,83.6301 495.754,83.6234 504.632,83.6189 513.511,83.6151 522.389,83.6119 
  531.267,83.6092 540.146,83.6068 549.024,83.6047 557.903,83.6028 566.781,83.6013 575.659,83.5998 584.538,83.5984 593.416,83.5972 602.295,83.5962 611.173,83.5953 
  620.051,83.5943 628.93,83.5934 637.808,83.5927 646.687,83.5921 655.565,83.5915 664.443,83.5909 673.322,83.5904 682.2,83.5898 691.079,83.5893 699.957,83.5887 
  708.836,83.5884 717.714,83.5881 726.592,83.5879 735.471,83.5876 744.349,83.5874 753.228,83.5871 762.106,83.5868 770.984,83.5866 779.863,83.5863 788.741,83.5861 
  797.62,83.5858 806.498,83.5855 815.376,83.5853 824.255,83.585 833.133,83.5848 842.012,83.5845 850.89,83.5843 859.768,83.5842 868.647,83.5842 877.525,83.5842 
  886.404,83.5842 895.282,83.5842 904.16,83.5842 913.039,83.5842 921.917,83.5842 930.796,83.5842 939.674,83.5842 948.553,83.5842 957.431,83.5842 966.309,83.5842 
  975.188,83.5842 984.066,83.5842 992.945,83.5842 1001.82,83.5842 1010.7,83.5842 1019.58,83.5842 1028.46,83.5842 1037.34,83.5842 1046.22,83.5842 1055.09,83.5842 
  1063.97,83.5842 1072.85,83.5842 1081.73,83.5842 1090.61,83.5842 1099.49,83.5842 1108.36,83.5842 1117.24,83.5842 1126.12,83.5842 1135,83.5842 1143.88,83.5842 
  1152.76,83.5842 1161.63,83.5842 1170.51,83.5842 1179.39,83.5842 1188.27,83.5842 1197.15,83.5842 1206.03,83.5842 1214.9,83.5842 1223.78,83.5842 1232.66,83.5842 
  1241.54,83.5842 1250.42,83.5842 1259.3,83.5842 1268.18,83.5842 1277.05,83.5842 1285.93,83.5842 1294.81,83.5842 1303.69,83.5842 1312.57,83.5842 1321.45,83.5842 
  1330.32,83.5842 1339.2,83.5842 1348.08,83.5842 1356.96,83.5842 1365.84,83.5842 1374.72,83.5842 1383.59,83.5842 1392.47,83.5842 1401.35,83.5842 1410.23,83.5842 
  1419.11,83.5842 1427.99,83.5842 1436.86,83.5842 1445.74,83.5842 1454.62,83.5842 1463.5,83.5842 1472.38,83.5842 1481.26,83.5842 1490.14,83.5842 1499.01,83.5842 
  1507.89,83.5842 1516.77,83.5842 1525.65,83.5842 1534.53,83.5842 1543.41,83.5842 1552.28,83.5842 1561.16,83.5842 1570.04,83.5842 1578.92,83.5842 1587.8,83.5842 
  1596.68,83.5842 1605.55,83.5842 1614.43,83.5842 1623.31,83.5842 1632.19,83.5842 1641.07,83.5842 1649.95,83.5842 1658.83,83.5842 1667.7,83.5842 1676.58,83.5842 
  1685.46,83.5842 1694.34,83.5842 1703.22,83.5842 1712.1,83.5842 1720.97,83.5842 1729.85,83.5842 1738.73,83.5842 1747.61,83.5842 1756.49,83.5842 1765.37,83.5842 
  1774.24,83.5842 1783.12,83.5842 1792,83.5842 1800.88,83.5842 1809.76,83.5842 1818.64,83.5842 1827.51,83.5842 1836.39,83.5842 1845.27,83.5842 1854.15,83.5842 
  1863.03,83.5842 1871.91,83.5842 1880.79,83.5842 1889.66,83.5842 1898.54,83.5842 1907.42,83.5842 1916.3,83.5842 1925.18,83.5842 1934.06,83.5842 1942.93,83.5842 
  1951.81,83.5842 1960.69,83.5842 1969.57,83.5842 1978.45,83.5842 1987.33,83.5842 1996.2,83.5842 2005.08,83.5842 2013.96,83.5842 2022.84,83.5842 2031.72,83.5842 
  2040.6,83.5842 
  "/>
</svg>
