<?xml version="1.0" encoding="utf-8"?>
<svg xmlns="http://www.w3.org/2000/svg" xmlns:xlink="http://www.w3.org/1999/xlink" width="325" height="200" viewBox="0 0 1300 800">
<defs>
  <clipPath id="clip970">
    <rect x="0" y="0" width="1300" height="800"/>
  </clipPath>
</defs>
<path clip-path="url(#clip970)" d="
M0 800 L1300 800 L1300 0 L0 0  Z
  " fill="#ffffff" fill-rule="evenodd" fill-opacity="1"/>
<defs>
  <clipPath id="clip971">
    <rect x="260" y="0" width="911" height="800"/>
  </clipPath>
</defs>
<path clip-path="url(#clip970)" d="
M297.569 673.18 L1252.76 673.18 L1252.76 47.2441 L297.569 47.2441  Z
  " fill="#ffffff" fill-rule="evenodd" fill-opacity="1"/>
<defs>
  <clipPath id="clip972">
    <rect x="297" y="47" width="956" height="627"/>
  </clipPath>
</defs>
<polyline clip-path="url(#clip970)" style="stroke:#000000; stroke-linecap:butt; stroke-linejoin:round; stroke-width:4; stroke-opacity:1; fill:none" points="
  297.569,673.18 1252.76,673.18 
  "/>
<polyline clip-path="url(#clip970)" style="stroke:#000000; stroke-linecap:butt; stroke-linejoin:round; stroke-width:4; stroke-opacity:1; fill:none" points="
  297.569,673.18 297.569,654.283 
  "/>
<polyline clip-path="url(#clip970)" style="stroke:#000000; stroke-linecap:butt; stroke-linejoin:round; stroke-width:4; stroke-opacity:1; fill:none" points="
  488.606,673.18 488.606,654.283 
  "/>
<polyline clip-path="url(#clip970)" style="stroke:#000000; stroke-linecap:butt; stroke-linejoin:round; stroke-width:4; stroke-opacity:1; fill:none" points="
  679.644,673.18 679.644,654.283 
  "/>
<polyline clip-path="url(#clip970)" style="stroke:#000000; stroke-linecap:butt; stroke-linejoin:round; stroke-width:4; stroke-opacity:1; fill:none" points="
  870.681,673.18 870.681,654.283 
  "/>
<polyline clip-path="url(#clip970)" style="stroke:#000000; stroke-linecap:butt; stroke-linejoin:round; stroke-width:4; stroke-opacity:1; fill:none" points="
  1061.72,673.18 1061.72,654.283 
  "/>
<polyline clip-path="url(#clip970)" style="stroke:#000000; stroke-linecap:butt; stroke-linejoin:round; stroke-width:4; stroke-opacity:1; fill:none" points="
  1252.76,673.18 1252.76,654.283 
  "/>
<path clip-path="url(#clip970)" d="M257.992 704.088 Q251.672 704.088 248.472 710.326 Q245.312 716.524 245.312 729.001 Q245.312 741.437 248.472 747.676 Q251.672 753.873 257.992 753.873 Q264.352 753.873 267.511 747.676 Q270.711 741.437 270.711 729.001 Q270.711 716.524 267.511 710.326 Q264.352 704.088 257.992 704.088 M257.992 697.606 Q268.159 697.606 273.507 705.668 Q278.894 713.689 278.894 729.001 Q278.894 744.273 273.507 752.334 Q268.159 760.355 257.992 760.355 Q247.824 760.355 242.436 752.334 Q237.089 744.273 237.089 729.001 Q237.089 713.689 242.436 705.668 Q247.824 697.606 257.992 697.606 Z" fill="#000000" fill-rule="evenodd" fill-opacity="1" /><path clip-path="url(#clip970)" d="M293.275 748.891 L301.822 748.891 L301.822 759.18 L293.275 759.18 L293.275 748.891 Z" fill="#000000" fill-rule="evenodd" fill-opacity="1" /><path clip-path="url(#clip970)" d="M337.146 704.088 Q330.827 704.088 327.627 710.326 Q324.467 716.524 324.467 729.001 Q324.467 741.437 327.627 747.676 Q330.827 753.873 337.146 753.873 Q343.506 753.873 346.666 747.676 Q349.866 741.437 349.866 729.001 Q349.866 716.524 346.666 710.326 Q343.506 704.088 337.146 704.088 M337.146 697.606 Q347.314 697.606 352.661 705.668 Q358.049 713.689 358.049 729.001 Q358.049 744.273 352.661 752.334 Q347.314 760.355 337.146 760.355 Q326.979 760.355 321.591 752.334 Q316.244 744.273 316.244 729.001 Q316.244 713.689 321.591 705.668 Q326.979 697.606 337.146 697.606 Z" fill="#000000" fill-rule="evenodd" fill-opacity="1" /><path clip-path="url(#clip970)" d="M450.103 704.088 Q443.783 704.088 440.583 710.326 Q437.423 716.524 437.423 729.001 Q437.423 741.437 440.583 747.676 Q443.783 753.873 450.103 753.873 Q456.462 753.873 459.622 747.676 Q462.822 741.437 462.822 729.001 Q462.822 716.524 459.622 710.326 Q456.462 704.088 450.103 704.088 M450.103 697.606 Q460.27 697.606 465.617 705.668 Q471.005 713.689 471.005 729.001 Q471.005 744.273 465.617 752.334 Q460.27 760.355 450.103 760.355 Q439.935 760.355 434.547 752.334 Q429.2 744.273 429.2 729.001 Q429.2 713.689 434.547 705.668 Q439.935 697.606 450.103 697.606 Z" fill="#000000" fill-rule="evenodd" fill-opacity="1" /><path clip-path="url(#clip970)" d="M485.386 748.891 L493.933 748.891 L493.933 759.18 L485.386 759.18 L485.386 748.891 Z" fill="#000000" fill-rule="evenodd" fill-opacity="1" /><path clip-path="url(#clip970)" d="M513.175 752.294 L526.543 752.294 L526.543 706.154 L512 709.07 L512 701.617 L526.462 698.7 L534.645 698.7 L534.645 752.294 L548.013 752.294 L548.013 759.18 L513.175 759.18 L513.175 752.294 Z" fill="#000000" fill-rule="evenodd" fill-opacity="1" /><path clip-path="url(#clip970)" d="M641.464 704.088 Q635.145 704.088 631.944 710.326 Q628.785 716.524 628.785 729.001 Q628.785 741.437 631.944 747.676 Q635.145 753.873 641.464 753.873 Q647.824 753.873 650.984 747.676 Q654.184 741.437 654.184 729.001 Q654.184 716.524 650.984 710.326 Q647.824 704.088 641.464 704.088 M641.464 697.606 Q651.632 697.606 656.979 705.668 Q662.367 713.689 662.367 729.001 Q662.367 744.273 656.979 752.334 Q651.632 760.355 641.464 760.355 Q631.296 760.355 625.909 752.334 Q620.561 744.273 620.561 729.001 Q620.561 713.689 625.909 705.668 Q631.296 697.606 641.464 697.606 Z" fill="#000000" fill-rule="evenodd" fill-opacity="1" /><path clip-path="url(#clip970)" d="M676.747 748.891 L685.295 748.891 L685.295 759.18 L676.747 759.18 L676.747 748.891 Z" fill="#000000" fill-rule="evenodd" fill-opacity="1" /><path clip-path="url(#clip970)" d="M710.167 752.294 L738.726 752.294 L738.726 759.18 L700.324 759.18 L700.324 752.294 Q704.982 747.473 713.003 739.371 Q721.064 731.229 723.13 728.879 Q727.06 724.464 728.599 721.426 Q730.179 718.347 730.179 715.39 Q730.179 710.569 726.776 707.531 Q723.414 704.493 717.986 704.493 Q714.137 704.493 709.843 705.83 Q705.59 707.167 700.729 709.881 L700.729 701.617 Q705.671 699.632 709.965 698.619 Q714.259 697.606 717.824 697.606 Q727.222 697.606 732.812 702.305 Q738.402 707.005 738.402 714.863 Q738.402 718.59 736.984 721.952 Q735.607 725.274 731.921 729.811 Q730.908 730.986 725.48 736.617 Q720.052 742.207 710.167 752.294 Z" fill="#000000" fill-rule="evenodd" fill-opacity="1" /><path clip-path="url(#clip970)" d="M831.671 704.088 Q825.352 704.088 822.151 710.326 Q818.992 716.524 818.992 729.001 Q818.992 741.437 822.151 747.676 Q825.352 753.873 831.671 753.873 Q838.031 753.873 841.191 747.676 Q844.391 741.437 844.391 729.001 Q844.391 716.524 841.191 710.326 Q838.031 704.088 831.671 704.088 M831.671 697.606 Q841.839 697.606 847.186 705.668 Q852.574 713.689 852.574 729.001 Q852.574 744.273 847.186 752.334 Q841.839 760.355 831.671 760.355 Q821.503 760.355 816.115 752.334 Q810.768 744.273 810.768 729.001 Q810.768 713.689 816.115 705.668 Q821.503 697.606 831.671 697.606 Z" fill="#000000" fill-rule="evenodd" fill-opacity="1" /><path clip-path="url(#clip970)" d="M866.954 748.891 L875.502 748.891 L875.502 759.18 L866.954 759.18 L866.954 748.891 Z" fill="#000000" fill-rule="evenodd" fill-opacity="1" /><path clip-path="url(#clip970)" d="M918.117 726.57 Q923.991 727.826 927.272 731.796 Q930.594 735.766 930.594 741.599 Q930.594 750.552 924.437 755.453 Q918.279 760.355 906.937 760.355 Q903.129 760.355 899.078 759.585 Q895.068 758.856 890.774 757.357 L890.774 749.458 Q894.176 751.443 898.227 752.456 Q902.278 753.468 906.694 753.468 Q914.39 753.468 918.401 750.43 Q922.452 747.392 922.452 741.599 Q922.452 736.252 918.684 733.254 Q914.958 730.216 908.274 730.216 L901.225 730.216 L901.225 723.492 L908.598 723.492 Q914.633 723.492 917.834 721.102 Q921.034 718.671 921.034 714.134 Q921.034 709.476 917.712 707.005 Q914.431 704.493 908.274 704.493 Q904.911 704.493 901.063 705.222 Q897.215 705.951 892.597 707.491 L892.597 700.199 Q897.255 698.903 901.306 698.255 Q905.397 697.606 909.003 697.606 Q918.32 697.606 923.748 701.86 Q929.176 706.073 929.176 713.283 Q929.176 718.307 926.3 721.79 Q923.424 725.234 918.117 726.57 Z" fill="#000000" fill-rule="evenodd" fill-opacity="1" /><path clip-path="url(#clip970)" d="M1021.72 704.088 Q1015.4 704.088 1012.2 710.326 Q1009.04 716.524 1009.04 729.001 Q1009.04 741.437 1012.2 747.676 Q1015.4 753.873 1021.72 753.873 Q1028.08 753.873 1031.24 747.676 Q1034.44 741.437 1034.44 729.001 Q1034.44 716.524 1031.24 710.326 Q1028.08 704.088 1021.72 704.088 M1021.72 697.606 Q1031.88 697.606 1037.23 705.668 Q1042.62 713.689 1042.62 729.001 Q1042.62 744.273 1037.23 752.334 Q1031.88 760.355 1021.72 760.355 Q1011.55 760.355 1006.16 752.334 Q1000.81 744.273 1000.81 729.001 Q1000.81 713.689 1006.16 705.668 Q1011.55 697.606 1021.72 697.606 Z" fill="#000000" fill-rule="evenodd" fill-opacity="1" /><path clip-path="url(#clip970)" d="M1057 748.891 L1065.55 748.891 L1065.55 759.18 L1057 759.18 L1057 748.891 Z" fill="#000000" fill-rule="evenodd" fill-opacity="1" /><path clip-path="url(#clip970)" d="M1105.85 705.83 L1085.19 738.115 L1105.85 738.115 L1105.85 705.83 M1103.71 698.7 L1114 698.7 L1114 738.115 L1122.62 738.115 L1122.62 744.921 L1114 744.921 L1114 759.18 L1105.85 759.18 L1105.85 744.921 L1078.55 744.921 L1078.55 737.022 L1103.71 698.7 Z" fill="#000000" fill-rule="evenodd" fill-opacity="1" /><path clip-path="url(#clip970)" d="M1214.05 704.088 Q1207.73 704.088 1204.53 710.326 Q1201.37 716.524 1201.37 729.001 Q1201.37 741.437 1204.53 747.676 Q1207.73 753.873 1214.05 753.873 Q1220.41 753.873 1223.57 747.676 Q1226.77 741.437 1226.77 729.001 Q1226.77 716.524 1223.57 710.326 Q1220.41 704.088 1214.05 704.088 M1214.05 697.606 Q1224.22 697.606 1229.56 705.668 Q1234.95 713.689 1234.95 729.001 Q1234.95 744.273 1229.56 752.334 Q1224.22 760.355 1214.05 760.355 Q1203.88 760.355 1198.49 752.334 Q1193.15 744.273 1193.15 729.001 Q1193.15 713.689 1198.49 705.668 Q1203.88 697.606 1214.05 697.606 Z" fill="#000000" fill-rule="evenodd" fill-opacity="1" /><path clip-path="url(#clip970)" d="M1249.33 748.891 L1257.88 748.891 L1257.88 759.18 L1249.33 759.18 L1249.33 748.891 Z" fill="#000000" fill-rule="evenodd" fill-opacity="1" /><path clip-path="url(#clip970)" d="M1275.79 698.7 L1307.91 698.7 L1307.91 705.587 L1283.28 705.587 L1283.28 720.413 Q1285.06 719.805 1286.84 719.522 Q1288.63 719.198 1290.41 719.198 Q1300.54 719.198 1306.45 724.747 Q1312.36 730.297 1312.36 739.776 Q1312.36 749.539 1306.29 754.967 Q1300.21 760.355 1289.15 760.355 Q1285.35 760.355 1281.38 759.707 Q1277.45 759.059 1273.23 757.762 L1273.23 749.539 Q1276.88 751.524 1280.77 752.496 Q1284.66 753.468 1288.99 753.468 Q1296 753.468 1300.09 749.782 Q1304.18 746.096 1304.18 739.776 Q1304.18 733.457 1300.09 729.771 Q1296 726.084 1288.99 726.084 Q1285.71 726.084 1282.43 726.813 Q1279.19 727.543 1275.79 729.082 L1275.79 698.7 Z" fill="#000000" fill-rule="evenodd" fill-opacity="1" /><polyline clip-path="url(#clip970)" style="stroke:#000000; stroke-linecap:butt; stroke-linejoin:round; stroke-width:4; stroke-opacity:1; fill:none" points="
  297.569,673.18 297.569,47.2441 
  "/>
<polyline clip-path="url(#clip970)" style="stroke:#000000; stroke-linecap:butt; stroke-linejoin:round; stroke-width:4; stroke-opacity:1; fill:none" points="
  297.569,673.18 316.467,673.18 
  "/>
<polyline clip-path="url(#clip970)" style="stroke:#000000; stroke-linecap:butt; stroke-linejoin:round; stroke-width:4; stroke-opacity:1; fill:none" points="
  297.569,380.659 316.467,380.659 
  "/>
<polyline clip-path="url(#clip970)" style="stroke:#000000; stroke-linecap:butt; stroke-linejoin:round; stroke-width:4; stroke-opacity:1; fill:none" points="
  297.569,88.1369 316.467,88.1369 
  "/>
<path clip-path="url(#clip970)" d="M57.6669 707.817 L71.0349 707.817 L71.0349 661.677 L56.4921 664.594 L56.4921 657.14 L70.9539 654.223 L79.1367 654.223 L79.1367 707.817 L92.5047 707.817 L92.5047 714.703 L57.6669 714.703 L57.6669 707.817 Z" fill="#000000" fill-rule="evenodd" fill-opacity="1" /><path clip-path="url(#clip970)" d="M126.532 659.611 Q120.213 659.611 117.013 665.85 Q113.853 672.047 113.853 684.524 Q113.853 696.961 117.013 703.199 Q120.213 709.397 126.532 709.397 Q132.892 709.397 136.052 703.199 Q139.252 696.961 139.252 684.524 Q139.252 672.047 136.052 665.85 Q132.892 659.611 126.532 659.611 M126.532 653.13 Q136.7 653.13 142.047 661.191 Q147.435 669.212 147.435 684.524 Q147.435 699.796 142.047 707.857 Q136.7 715.878 126.532 715.878 Q116.364 715.878 110.977 707.857 Q105.63 699.796 105.63 684.524 Q105.63 669.212 110.977 661.191 Q116.364 653.13 126.532 653.13 Z" fill="#000000" fill-rule="evenodd" fill-opacity="1" /><path clip-path="url(#clip970)" d="M147.435 642.807 L189.63 642.807 L189.63 648.402 L147.435 648.402 L147.435 642.807 Z" fill="#000000" fill-rule="evenodd" fill-opacity="1" /><path clip-path="url(#clip970)" d="M205.132 661.14 L215.994 661.14 L215.994 623.651 L204.178 626.021 L204.178 619.965 L215.928 617.595 L222.577 617.595 L222.577 661.14 L233.438 661.14 L233.438 666.735 L205.132 666.735 L205.132 661.14 Z" fill="#000000" fill-rule="evenodd" fill-opacity="1" /><path clip-path="url(#clip970)" d="M261.086 621.973 Q255.951 621.973 253.351 627.041 Q250.784 632.077 250.784 642.215 Q250.784 652.319 253.351 657.388 Q255.951 662.424 261.086 662.424 Q266.253 662.424 268.82 657.388 Q271.42 652.319 271.42 642.215 Q271.42 632.077 268.82 627.041 Q266.253 621.973 261.086 621.973 M261.086 616.707 Q269.347 616.707 273.691 623.256 Q278.069 629.773 278.069 642.215 Q278.069 654.623 273.691 661.173 Q269.347 667.69 261.086 667.69 Q252.824 667.69 248.447 661.173 Q244.102 654.623 244.102 642.215 Q244.102 629.773 248.447 623.256 Q252.824 616.707 261.086 616.707 Z" fill="#000000" fill-rule="evenodd" fill-opacity="1" /><path clip-path="url(#clip970)" d="M101.969 415.295 L115.337 415.295 L115.337 369.155 L100.794 372.072 L100.794 364.618 L115.256 361.702 L123.438 361.702 L123.438 415.295 L136.806 415.295 L136.806 422.182 L101.969 422.182 L101.969 415.295 Z" fill="#000000" fill-rule="evenodd" fill-opacity="1" /><path clip-path="url(#clip970)" d="M170.834 367.09 Q164.515 367.09 161.314 373.328 Q158.155 379.526 158.155 392.003 Q158.155 404.439 161.314 410.677 Q164.515 416.875 170.834 416.875 Q177.194 416.875 180.354 410.677 Q183.554 404.439 183.554 392.003 Q183.554 379.526 180.354 373.328 Q177.194 367.09 170.834 367.09 M170.834 360.608 Q181.002 360.608 186.349 368.669 Q191.737 376.69 191.737 392.003 Q191.737 407.274 186.349 415.336 Q181.002 423.357 170.834 423.357 Q160.666 423.357 155.278 415.336 Q149.931 407.274 149.931 392.003 Q149.931 376.69 155.278 368.669 Q160.666 360.608 170.834 360.608 Z" fill="#000000" fill-rule="evenodd" fill-opacity="1" /><path clip-path="url(#clip970)" d="M191.737 350.285 L233.932 350.285 L233.932 355.881 L191.737 355.881 L191.737 350.285 Z" fill="#000000" fill-rule="evenodd" fill-opacity="1" /><path clip-path="url(#clip970)" d="M248.348 325.074 L274.448 325.074 L274.448 330.669 L254.437 330.669 L254.437 342.715 Q255.885 342.222 257.333 341.991 Q258.782 341.728 260.23 341.728 Q268.458 341.728 273.264 346.237 Q278.069 350.746 278.069 358.448 Q278.069 366.38 273.132 370.791 Q268.195 375.168 259.21 375.168 Q256.116 375.168 252.89 374.642 Q249.697 374.115 246.274 373.062 L246.274 366.38 Q249.237 367.993 252.396 368.783 Q255.556 369.573 259.078 369.573 Q264.772 369.573 268.096 366.578 Q271.42 363.583 271.42 358.448 Q271.42 353.313 268.096 350.318 Q264.772 347.323 259.078 347.323 Q256.412 347.323 253.746 347.916 Q251.113 348.508 248.348 349.759 L248.348 325.074 Z" fill="#000000" fill-rule="evenodd" fill-opacity="1" /><path clip-path="url(#clip970)" d="M154.334 122.774 L167.702 122.774 L167.702 76.6338 L153.159 79.5505 L153.159 72.0968 L167.621 69.1802 L175.804 69.1802 L175.804 122.774 L189.172 122.774 L189.172 129.66 L154.334 129.66 L154.334 122.774 Z" fill="#000000" fill-rule="evenodd" fill-opacity="1" /><path clip-path="url(#clip970)" d="M223.199 74.5679 Q216.88 74.5679 213.68 80.8063 Q210.52 87.0041 210.52 99.4809 Q210.52 111.917 213.68 118.156 Q216.88 124.353 223.199 124.353 Q229.559 124.353 232.719 118.156 Q235.919 111.917 235.919 99.4809 Q235.919 87.0041 232.719 80.8063 Q229.559 74.5679 223.199 74.5679 M223.199 68.0864 Q233.367 68.0864 238.714 76.1477 Q244.102 84.1685 244.102 99.4809 Q244.102 114.753 238.714 122.814 Q233.367 130.835 223.199 130.835 Q213.032 130.835 207.644 122.814 Q202.297 114.753 202.297 99.4809 Q202.297 84.1685 207.644 76.1477 Q213.032 68.0864 223.199 68.0864 Z" fill="#000000" fill-rule="evenodd" fill-opacity="1" /><path clip-path="url(#clip970)" d="M261.086 36.9295 Q255.951 36.9295 253.351 41.9982 Q250.784 47.0339 250.784 57.1713 Q250.784 67.2758 253.351 72.3445 Q255.951 77.3803 261.086 77.3803 Q266.253 77.3803 268.82 72.3445 Q271.42 67.2758 271.42 57.1713 Q271.42 47.0339 268.82 41.9982 Q266.253 36.9295 261.086 36.9295 M261.086 31.6633 Q269.347 31.6633 273.691 38.2131 Q278.069 44.73 278.069 57.1713 Q278.069 69.5798 273.691 76.1296 Q269.347 82.6465 261.086 82.6465 Q252.824 82.6465 248.447 76.1296 Q244.102 69.5798 244.102 57.1713 Q244.102 44.73 248.447 38.2131 Q252.824 31.6633 261.086 31.6633 Z" fill="#000000" fill-rule="evenodd" fill-opacity="1" /><polyline clip-path="url(#clip972)" style="stroke:#000000; stroke-linecap:butt; stroke-linejoin:round; stroke-width:16; stroke-opacity:1; fill:none" stroke-dasharray="8, 16" points="
  297.569,4919.43 307.121,4786.68 316.673,4569.67 326.225,4222.86 335.776,3713.38 345.328,3129.69 354.88,2728.71 364.432,2448.42 373.984,2240.74 383.536,2079.71 
  393.088,1949.79 402.64,1841.35 412.191,1748.18 421.743,1666.04 431.295,1591.96 440.847,1523.58 450.399,1459.23 459.951,1397.93 469.503,1338.28 479.055,1279.29 
  488.606,1219.94 498.158,1159.28 507.71,1096.31 517.262,1029.76 526.814,958.703 536.366,882.493 545.918,801.104 555.469,713.998 565.021,622.422 574.573,526.864 
  584.125,430.536 593.677,337.592 603.229,256.295 612.781,198.705 622.333,165.569 631.884,146.01 641.436,133.807 650.988,126.89 660.54,123.483 670.092,121.549 
  679.644,120.178 689.196,119.099 698.747,118.094 708.299,117.105 717.851,116.171 727.403,115.184 736.955,114.247 746.507,113.285 756.059,112.311 765.611,111.347 
  775.162,110.398 784.714,109.463 794.266,108.538 803.818,107.607 813.37,106.694 822.922,105.781 832.474,104.887 842.026,104.015 851.577,103.155 861.129,102.305 
  870.681,101.472 880.233,100.657 889.785,99.8598 899.337,99.0805 908.889,98.3211 918.44,97.5809 927.992,96.8421 937.544,95.269 947.096,92.776 956.648,90.453 
  966.2,89.0692 975.752,88.4684 985.304,88.2483 994.855,88.1735 1004.41,88.162 1013.96,88.162 1023.51,88.162 1033.06,88.162 1042.61,88.162 1052.17,88.162 
  1061.72,88.162 1071.27,88.162 1080.82,88.162 1090.37,88.162 1099.93,88.162 1109.48,88.162 1119.03,88.162 1128.58,88.162 1138.13,88.162 1147.69,88.162 
  1157.24,88.162 1166.79,88.162 1176.34,88.162 1185.89,88.162 1195.44,88.162 1205,88.162 1214.55,88.162 1224.1,88.162 1233.65,88.162 1243.2,88.162 
  1252.76,88.162 1262.31,88.162 1271.86,88.162 1281.41,88.162 1290.96,88.162 1300.52,88.162 1310.07,88.162 1319.62,88.162 1329.17,88.162 1338.72,88.162 
  1348.27,88.162 1357.83,88.162 1367.38,88.162 1376.93,88.162 1386.48,88.162 1396.03,88.162 1405.59,88.162 1415.14,88.162 1424.69,88.162 1434.24,88.162 
  1443.79,88.162 1453.35,88.162 1462.9,88.162 1472.45,88.162 1482,88.162 1491.55,88.162 1501.1,88.162 1510.66,88.162 1520.21,88.162 1529.76,88.162 
  1539.31,88.162 1548.86,88.162 1558.42,88.162 1567.97,88.162 1577.52,88.162 1587.07,88.162 1596.62,88.162 1606.18,88.162 1615.73,88.162 1625.28,88.162 
  1634.83,88.162 1644.38,88.162 1653.93,88.162 1663.49,88.162 1673.04,88.162 1682.59,88.162 1692.14,88.162 1701.69,88.162 1711.25,88.162 1720.8,88.162 
  1730.35,88.162 1739.9,88.162 1749.45,88.162 1759,88.162 1768.56,88.162 1778.11,88.162 1787.66,88.162 1797.21,88.162 1806.76,88.162 1816.32,88.162 
  1825.87,88.162 1835.42,88.162 1844.97,88.162 1854.52,88.162 1864.08,88.162 1873.63,88.162 1883.18,88.162 1892.73,88.162 1902.28,88.162 1911.83,88.162 
  1921.39,88.162 1930.94,88.162 1940.49,88.162 1950.04,88.162 1959.59,88.162 1969.15,88.162 1978.7,88.162 1988.25,88.162 1997.8,88.162 2007.35,88.162 
  2016.91,88.162 2026.46,88.162 2036.01,88.162 2045.56,88.162 2055.11,88.162 2064.66,88.162 2074.22,88.162 2083.77,88.162 2093.32,88.162 2102.87,88.162 
  2112.42,88.162 2121.98,88.162 2131.53,88.162 2141.08,88.162 2150.63,88.162 2160.18,88.162 2169.74,88.162 2179.29,88.162 2188.84,88.162 2198.39,88.162 
  2207.94,88.162 
  "/>
<polyline clip-path="url(#clip972)" style="stroke:#000000; stroke-linecap:butt; stroke-linejoin:round; stroke-width:16; stroke-opacity:1; fill:none" stroke-dasharray="64, 40" points="
  297.569,3704.1 307.121,3589.91 316.673,3449.27 326.225,3274.23 335.776,3057.96 345.328,2798.1 354.88,2499.54 364.432,2173.86 373.984,1834.83 383.536,1494.72 
  393.088,1172.72 402.64,857.942 412.191,547.957 421.743,281.197 431.295,168.375 440.847,133.978 450.399,113.793 459.951,101.03 469.503,94.6641 479.055,92.8698 
  488.606,91.592 498.158,90.3348 507.71,89.3457 517.262,88.7305 526.814,88.4088 536.366,88.2571 545.918,88.2408 555.469,88.232 565.021,88.2247 574.573,88.2184 
  584.125,88.2131 593.677,88.2083 603.229,88.2043 612.781,88.2006 622.333,88.1973 631.884,88.1945 641.436,88.1917 650.988,88.1891 660.54,88.187 670.092,88.1851 
  679.644,88.1832 689.196,88.1814 698.747,88.1796 708.299,88.1782 717.851,88.1769 727.403,88.1757 736.955,88.1745 746.507,88.1733 756.059,88.1722 765.611,88.1711 
  775.162,88.17 784.714,88.1693 794.266,88.1686 803.818,88.1679 813.37,88.1672 822.922,88.1665 832.474,88.1658 842.026,88.1652 851.577,88.1645 861.129,88.1639 
  870.681,88.1633 880.233,88.1629 889.785,88.1626 899.337,88.1623 908.889,88.162 918.44,88.162 927.992,88.162 937.544,88.162 947.096,88.162 956.648,88.162 
  966.2,88.162 975.752,88.162 985.304,88.162 994.855,88.162 1004.41,88.162 1013.96,88.162 1023.51,88.162 1033.06,88.162 1042.61,88.162 1052.17,88.162 
  1061.72,88.162 1071.27,88.162 1080.82,88.162 1090.37,88.162 1099.93,88.162 1109.48,88.162 1119.03,88.162 1128.58,88.162 1138.13,88.162 1147.69,88.162 
  1157.24,88.162 1166.79,88.162 1176.34,88.162 1185.89,88.162 1195.44,88.162 1205,88.162 1214.55,88.162 1224.1,88.162 1233.65,88.162 1243.2,88.162 
  1252.76,88.162 1262.31,88.162 1271.86,88.162 1281.41,88.162 1290.96,88.162 1300.52,88.162 1310.07,88.162 1319.62,88.162 1329.17,88.162 1338.72,88.162 
  1348.27,88.162 1357.83,88.162 1367.38,88.162 1376.93,88.162 1386.48,88.162 1396.03,88.162 1405.59,88.162 1415.14,88.162 1424.69,88.162 1434.24,88.162 
  1443.79,88.162 1453.35,88.162 1462.9,88.162 1472.45,88.162 1482,88.162 1491.55,88.162 1501.1,88.162 1510.66,88.162 1520.21,88.162 1529.76,88.162 
  1539.31,88.162 1548.86,88.162 1558.42,88.162 1567.97,88.162 1577.52,88.162 1587.07,88.162 1596.62,88.162 1606.18,88.162 1615.73,88.162 1625.28,88.162 
  1634.83,88.162 1644.38,88.162 1653.93,88.162 1663.49,88.162 1673.04,88.162 1682.59,88.162 1692.14,88.162 1701.69,88.162 1711.25,88.162 1720.8,88.162 
  1730.35,88.162 1739.9,88.162 1749.45,88.162 1759,88.162 1768.56,88.162 1778.11,88.162 1787.66,88.162 1797.21,88.162 1806.76,88.162 1816.32,88.162 
  1825.87,88.162 1835.42,88.162 1844.97,88.162 1854.52,88.162 1864.08,88.162 1873.63,88.162 1883.18,88.162 1892.73,88.162 1902.28,88.162 1911.83,88.162 
  1921.39,88.162 1930.94,88.162 1940.49,88.162 1950.04,88.162 1959.59,88.162 1969.15,88.162 1978.7,88.162 1988.25,88.162 1997.8,88.162 2007.35,88.162 
  2016.91,88.162 2026.46,88.162 2036.01,88.162 2045.56,88.162 2055.11,88.162 2064.66,88.162 2074.22,88.162 2083.77,88.162 2093.32,88.162 2102.87,88.162 
  2112.42,88.162 2121.98,88.162 2131.53,88.162 2141.08,88.162 2150.63,88.162 2160.18,88.162 2169.74,88.162 2179.29,88.162 2188.84,88.162 2198.39,88.162 
  2207.94,88.162 
  "/>
<polyline clip-path="url(#clip972)" style="stroke:#808080; stroke-linecap:butt; stroke-linejoin:round; stroke-width:16; stroke-opacity:1; fill:none" stroke-dasharray="8, 16" points="
  297.569,6287.2 307.121,6151.58 316.673,5931.77 326.225,5582.37 335.776,5070.58 345.328,4407.54 354.88,3779.46 364.432,3342.82 373.984,3024.04 383.536,2781.3 
  393.088,2590.08 402.64,2434.91 412.191,2305.42 421.743,2195.13 431.295,2098.79 440.847,2013.29 450.399,1935.65 459.951,1863.94 469.503,1796.15 479.055,1730.47 
  488.606,1665.16 498.158,1597.69 507.71,1525.79 517.262,1447.4 526.814,1360.8 536.366,1265.76 545.918,1162.35 555.469,1051.26 565.021,933.329 574.573,809.656 
  584.125,681.958 593.677,553.224 603.229,428.878 612.781,316.424 622.333,228.126 631.884,175.846 641.436,150.401 650.988,138.486 660.54,133.035 670.092,130.039 
  679.644,128.004 689.196,126.388 698.747,124.971 708.299,123.575 717.851,122.264 727.403,120.938 736.955,119.648 746.507,118.329 756.059,117.077 765.611,115.83 
  775.162,114.595 784.714,113.375 794.266,112.164 803.818,111.013 813.37,109.851 822.922,108.738 832.474,107.637 842.026,106.557 851.577,105.503 861.129,104.476 
  870.681,103.476 880.233,102.504 889.785,101.552 899.337,100.636 908.889,99.7403 918.44,98.8791 927.992,97.9911 937.544,96.0596 947.096,93.1731 956.648,90.602 
  966.2,89.1177 975.752,88.484 985.304,88.2534 994.855,88.1752 1004.41,88.162 1013.96,88.162 1023.51,88.162 1033.06,88.162 1042.61,88.162 1052.17,88.162 
  1061.72,88.162 1071.27,88.162 1080.82,88.162 1090.37,88.162 1099.93,88.162 1109.48,88.162 1119.03,88.162 1128.58,88.162 1138.13,88.162 1147.69,88.162 
  1157.24,88.162 1166.79,88.162 1176.34,88.162 1185.89,88.162 1195.44,88.162 1205,88.162 1214.55,88.162 1224.1,88.162 1233.65,88.162 1243.2,88.162 
  1252.76,88.162 1262.31,88.162 1271.86,88.162 1281.41,88.162 1290.96,88.162 1300.52,88.162 1310.07,88.162 1319.62,88.162 1329.17,88.162 1338.72,88.162 
  1348.27,88.162 1357.83,88.162 1367.38,88.162 1376.93,88.162 1386.48,88.162 1396.03,88.162 1405.59,88.162 1415.14,88.162 1424.69,88.162 1434.24,88.162 
  1443.79,88.162 1453.35,88.162 1462.9,88.162 1472.45,88.162 1482,88.162 1491.55,88.162 1501.1,88.162 1510.66,88.162 1520.21,88.162 1529.76,88.162 
  1539.31,88.162 1548.86,88.162 1558.42,88.162 1567.97,88.162 1577.52,88.162 1587.07,88.162 1596.62,88.162 1606.18,88.162 1615.73,88.162 1625.28,88.162 
  1634.83,88.162 1644.38,88.162 1653.93,88.162 1663.49,88.162 1673.04,88.162 1682.59,88.162 1692.14,88.162 1701.69,88.162 1711.25,88.162 1720.8,88.162 
  1730.35,88.162 1739.9,88.162 1749.45,88.162 1759,88.162 1768.56,88.162 1778.11,88.162 1787.66,88.162 1797.21,88.162 1806.76,88.162 1816.32,88.162 
  1825.87,88.162 1835.42,88.162 1844.97,88.162 1854.52,88.162 1864.08,88.162 1873.63,88.162 1883.18,88.162 1892.73,88.162 1902.28,88.162 1911.83,88.162 
  1921.39,88.162 1930.94,88.162 1940.49,88.162 1950.04,88.162 1959.59,88.162 1969.15,88.162 1978.7,88.162 1988.25,88.162 1997.8,88.162 2007.35,88.162 
  2016.91,88.162 2026.46,88.162 2036.01,88.162 2045.56,88.162 2055.11,88.162 2064.66,88.162 2074.22,88.162 2083.77,88.162 2093.32,88.162 2102.87,88.162 
  2112.42,88.162 2121.98,88.162 2131.53,88.162 2141.08,88.162 2150.63,88.162 2160.18,88.162 2169.74,88.162 2179.29,88.162 2188.84,88.162 2198.39,88.162 
  2207.94,88.162 
  "/>
<polyline clip-path="url(#clip972)" style="stroke:#808080; stroke-linecap:butt; stroke-linejoin:round; stroke-width:16; stroke-opacity:1; fill:none" stroke-dasharray="64, 40" points="
  297.569,4830.87 307.121,4698.91 316.673,4539.49 326.225,4345.01 335.776,4109.02 345.328,3829.16 354.88,3509.51 364.432,3159.75 373.984,2790.78 383.536,2408.62 
  393.088,2009.48 402.64,1578.81 412.191,1108.56 421.743,639.088 431.295,262.542 440.847,144.274 450.399,114.985 459.951,100.769 469.503,94.8796 479.055,93.047 
  488.606,91.4397 498.158,90.0725 507.71,89.1348 517.262,88.6073 526.814,88.3477 536.366,88.2291 545.918,88.2214 555.469,88.2152 565.021,88.2099 574.573,88.2055 
  584.125,88.2018 593.677,88.1984 603.229,88.1956 612.781,88.193 622.333,88.1906 631.884,88.1887 641.436,88.1869 650.988,88.1851 660.54,88.1835 670.092,88.1822 
  679.644,88.1811 689.196,88.1799 698.747,88.1787 708.299,88.1776 717.851,88.1766 727.403,88.1759 736.955,88.1752 746.507,88.1745 756.059,88.1738 765.611,88.1732 
  775.162,88.1725 784.714,88.1719 794.266,88.1712 803.818,88.1706 813.37,88.17 822.922,88.1695 832.474,88.1692 842.026,88.1689 851.577,88.1686 861.129,88.1683 
  870.681,88.168 880.233,88.1677 889.785,88.1674 899.337,88.1671 908.889,88.1669 918.44,88.1666 927.992,88.1663 937.544,88.166 947.096,88.1658 956.648,88.1655 
  966.2,88.1652 975.752,88.1649 985.304,88.1647 994.855,88.1644 1004.41,88.1641 1013.96,88.1639 1023.51,88.1636 1033.06,88.1634 1042.61,88.1631 1052.17,88.1628 
  1061.72,88.1626 1071.27,88.1623 1080.82,88.1621 1090.37,88.162 1099.93,88.162 1109.48,88.162 1119.03,88.162 1128.58,88.162 1138.13,88.162 1147.69,88.162 
  1157.24,88.162 1166.79,88.162 1176.34,88.162 1185.89,88.162 1195.44,88.162 1205,88.162 1214.55,88.162 1224.1,88.162 1233.65,88.162 1243.2,88.162 
  1252.76,88.162 1262.31,88.162 1271.86,88.162 1281.41,88.162 1290.96,88.162 1300.52,88.162 1310.07,88.162 1319.62,88.162 1329.17,88.162 1338.72,88.162 
  1348.27,88.162 1357.83,88.162 1367.38,88.162 1376.93,88.162 1386.48,88.162 1396.03,88.162 1405.59,88.162 1415.14,88.162 1424.69,88.162 1434.24,88.162 
  1443.79,88.162 1453.35,88.162 1462.9,88.162 1472.45,88.162 1482,88.162 1491.55,88.162 1501.1,88.162 1510.66,88.162 1520.21,88.162 1529.76,88.162 
  1539.31,88.162 1548.86,88.162 1558.42,88.162 1567.97,88.162 1577.52,88.162 1587.07,88.162 1596.62,88.162 1606.18,88.162 1615.73,88.162 1625.28,88.162 
  1634.83,88.162 1644.38,88.162 1653.93,88.162 1663.49,88.162 1673.04,88.162 1682.59,88.162 1692.14,88.162 1701.69,88.162 1711.25,88.162 1720.8,88.162 
  1730.35,88.162 1739.9,88.162 1749.45,88.162 1759,88.162 1768.56,88.162 1778.11,88.162 1787.66,88.162 1797.21,88.162 1806.76,88.162 1816.32,88.162 
  1825.87,88.162 1835.42,88.162 1844.97,88.162 1854.52,88.162 1864.08,88.162 1873.63,88.162 1883.18,88.162 1892.73,88.162 1902.28,88.162 1911.83,88.162 
  1921.39,88.162 1930.94,88.162 1940.49,88.162 1950.04,88.162 1959.59,88.162 1969.15,88.162 1978.7,88.162 1988.25,88.162 1997.8,88.162 2007.35,88.162 
  2016.91,88.162 2026.46,88.162 2036.01,88.162 2045.56,88.162 2055.11,88.162 2064.66,88.162 2074.22,88.162 2083.77,88.162 2093.32,88.162 2102.87,88.162 
  2112.42,88.162 2121.98,88.162 2131.53,88.162 2141.08,88.162 2150.63,88.162 2160.18,88.162 2169.74,88.162 2179.29,88.162 2188.84,88.162 2198.39,88.162 
  2207.94,88.162 
  "/>
<polyline clip-path="url(#clip972)" style="stroke:#0000ff; stroke-linecap:butt; stroke-linejoin:round; stroke-width:16; stroke-opacity:1; fill:none" stroke-dasharray="8, 16" points="
  297.569,3950.18 307.121,3819.81 316.673,3605.48 326.225,3261.81 335.776,2763.09 345.328,2360.3 354.88,2096.39 364.432,1908.95 373.984,1767.29 383.536,1654.58 
  393.088,1561.25 402.64,1481.02 412.191,1409.96 421.743,1345.1 431.295,1284.97 440.847,1227.74 450.399,1172.89 459.951,1119.04 469.503,1065.78 479.055,1012.59 
  488.606,958.84 498.158,903.885 507.71,847.093 517.262,787.886 526.814,725.776 536.366,660.404 545.918,591.609 555.469,519.541 565.021,444.876 574.573,369.643 
  584.125,297.78 593.677,236.974 603.229,194.513 612.781,167.828 622.333,150.091 631.884,137.284 641.436,128.234 650.988,122.841 660.54,120.103 670.092,118.508 
  679.644,117.366 689.196,116.434 698.747,115.574 708.299,114.708 717.851,113.897 727.403,113.029 736.955,112.206 746.507,111.355 756.059,110.491 765.611,109.631 
  775.162,108.782 784.714,107.944 794.266,107.109 803.818,106.263 813.37,105.44 822.922,104.612 832.474,103.797 842.026,102.997 851.577,102.203 861.129,101.424 
  870.681,100.657 880.233,99.8997 889.785,99.1633 899.337,98.438 908.889,97.7335 918.44,97.0419 927.992,96.3444 937.544,94.821 947.096,92.4481 956.648,90.2699 
  966.2,88.99 975.752,88.4392 985.304,88.2383 994.855,88.1702 1004.41,88.162 1013.96,88.162 1023.51,88.162 1033.06,88.162 1042.61,88.162 1052.17,88.162 
  1061.72,88.162 1071.27,88.162 1080.82,88.162 1090.37,88.162 1099.93,88.162 1109.48,88.162 1119.03,88.162 1128.58,88.162 1138.13,88.162 1147.69,88.162 
  1157.24,88.162 1166.79,88.162 1176.34,88.162 1185.89,88.162 1195.44,88.162 1205,88.162 1214.55,88.162 1224.1,88.162 1233.65,88.162 1243.2,88.162 
  1252.76,88.162 1262.31,88.162 1271.86,88.162 1281.41,88.162 1290.96,88.162 1300.52,88.162 1310.07,88.162 1319.62,88.162 1329.17,88.162 1338.72,88.162 
  1348.27,88.162 1357.83,88.162 1367.38,88.162 1376.93,88.162 1386.48,88.162 1396.03,88.162 1405.59,88.162 1415.14,88.162 1424.69,88.162 1434.24,88.162 
  1443.79,88.162 1453.35,88.162 1462.9,88.162 1472.45,88.162 1482,88.162 1491.55,88.162 1501.1,88.162 1510.66,88.162 1520.21,88.162 1529.76,88.162 
  1539.31,88.162 1548.86,88.162 1558.42,88.162 1567.97,88.162 1577.52,88.162 1587.07,88.162 1596.62,88.162 1606.18,88.162 1615.73,88.162 1625.28,88.162 
  1634.83,88.162 1644.38,88.162 1653.93,88.162 1663.49,88.162 1673.04,88.162 1682.59,88.162 1692.14,88.162 1701.69,88.162 1711.25,88.162 1720.8,88.162 
  1730.35,88.162 1739.9,88.162 1749.45,88.162 1759,88.162 1768.56,88.162 1778.11,88.162 1787.66,88.162 1797.21,88.162 1806.76,88.162 1816.32,88.162 
  1825.87,88.162 1835.42,88.162 1844.97,88.162 1854.52,88.162 1864.08,88.162 1873.63,88.162 1883.18,88.162 1892.73,88.162 1902.28,88.162 1911.83,88.162 
  1921.39,88.162 1930.94,88.162 1940.49,88.162 1950.04,88.162 1959.59,88.162 1969.15,88.162 1978.7,88.162 1988.25,88.162 1997.8,88.162 2007.35,88.162 
  2016.91,88.162 2026.46,88.162 2036.01,88.162 2045.56,88.162 2055.11,88.162 2064.66,88.162 2074.22,88.162 2083.77,88.162 2093.32,88.162 2102.87,88.162 
  2112.42,88.162 2121.98,88.162 2131.53,88.162 2141.08,88.162 2150.63,88.162 2160.18,88.162 2169.74,88.162 2179.29,88.162 2188.84,88.162 2198.39,88.162 
  2207.94,88.162 
  "/>
<polyline clip-path="url(#clip972)" style="stroke:#0000ff; stroke-linecap:butt; stroke-linejoin:round; stroke-width:16; stroke-opacity:1; fill:none" stroke-dasharray="64, 40" points="
  297.569,2833.04 307.121,2730.06 316.673,2602.81 326.225,2444.27 335.776,2248.7 345.328,2014.68 354.88,1747.48 364.432,1458.42 373.984,1168.48 383.536,909.526 
  393.088,670.098 402.64,445.639 412.191,261.222 421.743,179.201 431.295,146.643 440.847,125.048 450.399,108.98 459.951,98.5373 469.503,93.8025 479.055,92.3051 
  488.606,90.9691 498.158,89.809 507.71,89.0027 517.262,88.5458 526.814,88.3202 536.366,88.217 545.918,88.2094 555.469,88.2041 565.021,88.1996 574.573,88.1958 
  584.125,88.1927 593.677,88.1898 603.229,88.1874 612.781,88.1851 622.333,88.1832 631.884,88.1816 641.436,88.1799 650.988,88.1785 660.54,88.1773 670.092,88.1762 
  679.644,88.1751 689.196,88.174 698.747,88.173 708.299,88.1724 717.851,88.1717 727.403,88.171 736.955,88.1704 746.507,88.1697 756.059,88.1691 765.611,88.1685 
  775.162,88.1679 784.714,88.1675 794.266,88.1672 803.818,88.1669 813.37,88.1666 822.922,88.1663 832.474,88.166 842.026,88.1657 851.577,88.1654 861.129,88.1651 
  870.681,88.1649 880.233,88.1646 889.785,88.1643 899.337,88.164 908.889,88.1637 918.44,88.1634 927.992,88.1632 937.544,88.1629 947.096,88.1626 956.648,88.1623 
  966.2,88.1621 975.752,88.162 985.304,88.162 994.855,88.162 1004.41,88.162 1013.96,88.162 1023.51,88.162 1033.06,88.162 1042.61,88.162 1052.17,88.162 
  1061.72,88.162 1071.27,88.162 1080.82,88.162 1090.37,88.162 1099.93,88.162 1109.48,88.162 1119.03,88.162 1128.58,88.162 1138.13,88.162 1147.69,88.162 
  1157.24,88.162 1166.79,88.162 1176.34,88.162 1185.89,88.162 1195.44,88.162 1205,88.162 1214.55,88.162 1224.1,88.162 1233.65,88.162 1243.2,88.162 
  1252.76,88.162 1262.31,88.162 1271.86,88.162 1281.41,88.162 1290.96,88.162 1300.52,88.162 1310.07,88.162 1319.62,88.162 1329.17,88.162 1338.72,88.162 
  1348.27,88.162 1357.83,88.162 1367.38,88.162 1376.93,88.162 1386.48,88.162 1396.03,88.162 1405.59,88.162 1415.14,88.162 1424.69,88.162 1434.24,88.162 
  1443.79,88.162 1453.35,88.162 1462.9,88.162 1472.45,88.162 1482,88.162 1491.55,88.162 1501.1,88.162 1510.66,88.162 1520.21,88.162 1529.76,88.162 
  1539.31,88.162 1548.86,88.162 1558.42,88.162 1567.97,88.162 1577.52,88.162 1587.07,88.162 1596.62,88.162 1606.18,88.162 1615.73,88.162 1625.28,88.162 
  1634.83,88.162 1644.38,88.162 1653.93,88.162 1663.49,88.162 1673.04,88.162 1682.59,88.162 1692.14,88.162 1701.69,88.162 1711.25,88.162 1720.8,88.162 
  1730.35,88.162 1739.9,88.162 1749.45,88.162 1759,88.162 1768.56,88.162 1778.11,88.162 1787.66,88.162 1797.21,88.162 1806.76,88.162 1816.32,88.162 
  1825.87,88.162 1835.42,88.162 1844.97,88.162 1854.52,88.162 1864.08,88.162 1873.63,88.162 1883.18,88.162 1892.73,88.162 1902.28,88.162 1911.83,88.162 
  1921.39,88.162 1930.94,88.162 1940.49,88.162 1950.04,88.162 1959.59,88.162 1969.15,88.162 1978.7,88.162 1988.25,88.162 1997.8,88.162 2007.35,88.162 
  2016.91,88.162 2026.46,88.162 2036.01,88.162 2045.56,88.162 2055.11,88.162 2064.66,88.162 2074.22,88.162 2083.77,88.162 2093.32,88.162 2102.87,88.162 
  2112.42,88.162 2121.98,88.162 2131.53,88.162 2141.08,88.162 2150.63,88.162 2160.18,88.162 2169.74,88.162 2179.29,88.162 2188.84,88.162 2198.39,88.162 
  2207.94,88.162 
  "/>
</svg>
