<?xml version="1.0" encoding="utf-8"?>
<svg xmlns="http://www.w3.org/2000/svg" xmlns:xlink="http://www.w3.org/1999/xlink" width="325" height="200" viewBox="0 0 1300 800">
<defs>
  <clipPath id="clip570">
    <rect x="0" y="0" width="1300" height="800"/>
  </clipPath>
</defs>
<path clip-path="url(#clip570)" d="
M0 800 L1300 800 L1300 0 L0 0  Z
  " fill="#ffffff" fill-rule="evenodd" fill-opacity="1"/>
<defs>
  <clipPath id="clip571">
    <rect x="260" y="0" width="911" height="800"/>
  </clipPath>
</defs>
<path clip-path="url(#clip570)" d="
M297.569 673.18 L1252.76 673.18 L1252.76 47.2441 L297.569 47.2441  Z
  " fill="#ffffff" fill-rule="evenodd" fill-opacity="1"/>
<defs>
  <clipPath id="clip572">
    <rect x="297" y="47" width="956" height="627"/>
  </clipPath>
</defs>
<polyline clip-path="url(#clip570)" style="stroke:#000000; stroke-linecap:butt; stroke-linejoin:round; stroke-width:4; stroke-opacity:1; fill:none" points="
  297.569,673.18 1252.76,673.18 
  "/>
<polyline clip-path="url(#clip570)" style="stroke:#000000; stroke-linecap:butt; stroke-linejoin:round; stroke-width:4; stroke-opacity:1; fill:none" points="
  324.603,673.18 324.603,654.283 
  "/>
<polyline clip-path="url(#clip570)" style="stroke:#000000; stroke-linecap:butt; stroke-linejoin:round; stroke-width:4; stroke-opacity:1; fill:none" points="
  549.883,673.18 549.883,654.283 
  "/>
<polyline clip-path="url(#clip570)" style="stroke:#000000; stroke-linecap:butt; stroke-linejoin:round; stroke-width:4; stroke-opacity:1; fill:none" points="
  775.162,673.18 775.162,654.283 
  "/>
<polyline clip-path="url(#clip570)" style="stroke:#000000; stroke-linecap:butt; stroke-linejoin:round; stroke-width:4; stroke-opacity:1; fill:none" points="
  1000.44,673.18 1000.44,654.283 
  "/>
<polyline clip-path="url(#clip570)" style="stroke:#000000; stroke-linecap:butt; stroke-linejoin:round; stroke-width:4; stroke-opacity:1; fill:none" points="
  1225.72,673.18 1225.72,654.283 
  "/>
<path clip-path="url(#clip570)" d="M258.634 704.088 Q252.314 704.088 249.114 710.326 Q245.954 716.524 245.954 729.001 Q245.954 741.437 249.114 747.676 Q252.314 753.873 258.634 753.873 Q264.994 753.873 268.153 747.676 Q271.353 741.437 271.353 729.001 Q271.353 716.524 268.153 710.326 Q264.994 704.088 258.634 704.088 M258.634 697.606 Q268.801 697.606 274.149 705.668 Q279.536 713.689 279.536 729.001 Q279.536 744.273 274.149 752.334 Q268.801 760.355 258.634 760.355 Q248.466 760.355 243.078 752.334 Q237.731 744.273 237.731 729.001 Q237.731 713.689 243.078 705.668 Q248.466 697.606 258.634 697.606 Z" fill="#000000" fill-rule="evenodd" fill-opacity="1" /><path clip-path="url(#clip570)" d="M293.917 748.891 L302.464 748.891 L302.464 759.18 L293.917 759.18 L293.917 748.891 Z" fill="#000000" fill-rule="evenodd" fill-opacity="1" /><path clip-path="url(#clip570)" d="M337.788 704.088 Q331.469 704.088 328.269 710.326 Q325.109 716.524 325.109 729.001 Q325.109 741.437 328.269 747.676 Q331.469 753.873 337.788 753.873 Q344.148 753.873 347.308 747.676 Q350.508 741.437 350.508 729.001 Q350.508 716.524 347.308 710.326 Q344.148 704.088 337.788 704.088 M337.788 697.606 Q347.956 697.606 353.303 705.668 Q358.691 713.689 358.691 729.001 Q358.691 744.273 353.303 752.334 Q347.956 760.355 337.788 760.355 Q327.621 760.355 322.233 752.334 Q316.886 744.273 316.886 729.001 Q316.886 713.689 322.233 705.668 Q327.621 697.606 337.788 697.606 Z" fill="#000000" fill-rule="evenodd" fill-opacity="1" /><path clip-path="url(#clip570)" d="M390.572 704.088 Q384.252 704.088 381.052 710.326 Q377.892 716.524 377.892 729.001 Q377.892 741.437 381.052 747.676 Q384.252 753.873 390.572 753.873 Q396.931 753.873 400.091 747.676 Q403.291 741.437 403.291 729.001 Q403.291 716.524 400.091 710.326 Q396.931 704.088 390.572 704.088 M390.572 697.606 Q400.739 697.606 406.087 705.668 Q411.474 713.689 411.474 729.001 Q411.474 744.273 406.087 752.334 Q400.739 760.355 390.572 760.355 Q380.404 760.355 375.016 752.334 Q369.669 744.273 369.669 729.001 Q369.669 713.689 375.016 705.668 Q380.404 697.606 390.572 697.606 Z" fill="#000000" fill-rule="evenodd" fill-opacity="1" /><path clip-path="url(#clip570)" d="M484.784 704.088 Q478.465 704.088 475.265 710.326 Q472.105 716.524 472.105 729.001 Q472.105 741.437 475.265 747.676 Q478.465 753.873 484.784 753.873 Q491.144 753.873 494.304 747.676 Q497.504 741.437 497.504 729.001 Q497.504 716.524 494.304 710.326 Q491.144 704.088 484.784 704.088 M484.784 697.606 Q494.952 697.606 500.299 705.668 Q505.687 713.689 505.687 729.001 Q505.687 744.273 500.299 752.334 Q494.952 760.355 484.784 760.355 Q474.617 760.355 469.229 752.334 Q463.882 744.273 463.882 729.001 Q463.882 713.689 469.229 705.668 Q474.617 697.606 484.784 697.606 Z" fill="#000000" fill-rule="evenodd" fill-opacity="1" /><path clip-path="url(#clip570)" d="M520.068 748.891 L528.615 748.891 L528.615 759.18 L520.068 759.18 L520.068 748.891 Z" fill="#000000" fill-rule="evenodd" fill-opacity="1" /><path clip-path="url(#clip570)" d="M553.488 752.294 L582.047 752.294 L582.047 759.18 L543.644 759.18 L543.644 752.294 Q548.303 747.473 556.323 739.371 Q564.385 731.229 566.451 728.879 Q570.38 724.464 571.919 721.426 Q573.499 718.347 573.499 715.39 Q573.499 710.569 570.097 707.531 Q566.734 704.493 561.306 704.493 Q557.458 704.493 553.164 705.83 Q548.91 707.167 544.049 709.881 L544.049 701.617 Q548.991 699.632 553.285 698.619 Q557.579 697.606 561.144 697.606 Q570.542 697.606 576.132 702.305 Q581.723 707.005 581.723 714.863 Q581.723 718.59 580.305 721.952 Q578.927 725.274 575.241 729.811 Q574.228 730.986 568.8 736.617 Q563.372 742.207 553.488 752.294 Z" fill="#000000" fill-rule="evenodd" fill-opacity="1" /><path clip-path="url(#clip570)" d="M599.304 698.7 L631.427 698.7 L631.427 705.587 L606.798 705.587 L606.798 720.413 Q608.58 719.805 610.363 719.522 Q612.145 719.198 613.927 719.198 Q624.055 719.198 629.969 724.747 Q635.883 730.297 635.883 739.776 Q635.883 749.539 629.807 754.967 Q623.73 760.355 612.672 760.355 Q608.864 760.355 604.894 759.707 Q600.964 759.059 596.751 757.762 L596.751 749.539 Q600.397 751.524 604.286 752.496 Q608.175 753.468 612.509 753.468 Q619.518 753.468 623.609 749.782 Q627.7 746.096 627.7 739.776 Q627.7 733.457 623.609 729.771 Q619.518 726.084 612.509 726.084 Q609.228 726.084 605.947 726.813 Q602.706 727.543 599.304 729.082 L599.304 698.7 Z" fill="#000000" fill-rule="evenodd" fill-opacity="1" /><path clip-path="url(#clip570)" d="M709.193 704.088 Q702.874 704.088 699.674 710.326 Q696.514 716.524 696.514 729.001 Q696.514 741.437 699.674 747.676 Q702.874 753.873 709.193 753.873 Q715.553 753.873 718.713 747.676 Q721.913 741.437 721.913 729.001 Q721.913 716.524 718.713 710.326 Q715.553 704.088 709.193 704.088 M709.193 697.606 Q719.361 697.606 724.708 705.668 Q730.096 713.689 730.096 729.001 Q730.096 744.273 724.708 752.334 Q719.361 760.355 709.193 760.355 Q699.026 760.355 693.638 752.334 Q688.291 744.273 688.291 729.001 Q688.291 713.689 693.638 705.668 Q699.026 697.606 709.193 697.606 Z" fill="#000000" fill-rule="evenodd" fill-opacity="1" /><path clip-path="url(#clip570)" d="M744.477 748.891 L753.024 748.891 L753.024 759.18 L744.477 759.18 L744.477 748.891 Z" fill="#000000" fill-rule="evenodd" fill-opacity="1" /><path clip-path="url(#clip570)" d="M770.929 698.7 L803.053 698.7 L803.053 705.587 L778.423 705.587 L778.423 720.413 Q780.206 719.805 781.988 719.522 Q783.771 719.198 785.553 719.198 Q795.68 719.198 801.595 724.747 Q807.509 730.297 807.509 739.776 Q807.509 749.539 801.433 754.967 Q795.356 760.355 784.297 760.355 Q780.489 760.355 776.52 759.707 Q772.59 759.059 768.377 757.762 L768.377 749.539 Q772.023 751.524 775.912 752.496 Q779.801 753.468 784.135 753.468 Q791.143 753.468 795.235 749.782 Q799.326 746.096 799.326 739.776 Q799.326 733.457 795.235 729.771 Q791.143 726.084 784.135 726.084 Q780.854 726.084 777.573 726.813 Q774.332 727.543 770.929 729.082 L770.929 698.7 Z" fill="#000000" fill-rule="evenodd" fill-opacity="1" /><path clip-path="url(#clip570)" d="M841.131 704.088 Q834.812 704.088 831.612 710.326 Q828.452 716.524 828.452 729.001 Q828.452 741.437 831.612 747.676 Q834.812 753.873 841.131 753.873 Q847.491 753.873 850.651 747.676 Q853.851 741.437 853.851 729.001 Q853.851 716.524 850.651 710.326 Q847.491 704.088 841.131 704.088 M841.131 697.606 Q851.299 697.606 856.646 705.668 Q862.034 713.689 862.034 729.001 Q862.034 744.273 856.646 752.334 Q851.299 760.355 841.131 760.355 Q830.964 760.355 825.576 752.334 Q820.229 744.273 820.229 729.001 Q820.229 713.689 825.576 705.668 Q830.964 697.606 841.131 697.606 Z" fill="#000000" fill-rule="evenodd" fill-opacity="1" /><path clip-path="url(#clip570)" d="M935.344 704.088 Q929.025 704.088 925.825 710.326 Q922.665 716.524 922.665 729.001 Q922.665 741.437 925.825 747.676 Q929.025 753.873 935.344 753.873 Q941.704 753.873 944.864 747.676 Q948.064 741.437 948.064 729.001 Q948.064 716.524 944.864 710.326 Q941.704 704.088 935.344 704.088 M935.344 697.606 Q945.512 697.606 950.859 705.668 Q956.247 713.689 956.247 729.001 Q956.247 744.273 950.859 752.334 Q945.512 760.355 935.344 760.355 Q925.177 760.355 919.789 752.334 Q914.442 744.273 914.442 729.001 Q914.442 713.689 919.789 705.668 Q925.177 697.606 935.344 697.606 Z" fill="#000000" fill-rule="evenodd" fill-opacity="1" /><path clip-path="url(#clip570)" d="M970.628 748.891 L979.175 748.891 L979.175 759.18 L970.628 759.18 L970.628 748.891 Z" fill="#000000" fill-rule="evenodd" fill-opacity="1" /><path clip-path="url(#clip570)" d="M994.933 698.7 L1033.82 698.7 L1033.82 702.184 L1011.87 759.18 L1003.32 759.18 L1023.98 705.587 L994.933 705.587 L994.933 698.7 Z" fill="#000000" fill-rule="evenodd" fill-opacity="1" /><path clip-path="url(#clip570)" d="M1049.86 698.7 L1081.99 698.7 L1081.99 705.587 L1057.36 705.587 L1057.36 720.413 Q1059.14 719.805 1060.92 719.522 Q1062.7 719.198 1064.49 719.198 Q1074.61 719.198 1080.53 724.747 Q1086.44 730.297 1086.44 739.776 Q1086.44 749.539 1080.37 754.967 Q1074.29 760.355 1063.23 760.355 Q1059.42 760.355 1055.45 759.707 Q1051.52 759.059 1047.31 757.762 L1047.31 749.539 Q1050.96 751.524 1054.85 752.496 Q1058.73 753.468 1063.07 753.468 Q1070.08 753.468 1074.17 749.782 Q1078.26 746.096 1078.26 739.776 Q1078.26 733.457 1074.17 729.771 Q1070.08 726.084 1063.07 726.084 Q1059.79 726.084 1056.51 726.813 Q1053.27 727.543 1049.86 729.082 L1049.86 698.7 Z" fill="#000000" fill-rule="evenodd" fill-opacity="1" /><path clip-path="url(#clip570)" d="M1141.85 752.294 L1155.22 752.294 L1155.22 706.154 L1140.67 709.07 L1140.67 701.617 L1155.14 698.7 L1163.32 698.7 L1163.32 752.294 L1176.69 752.294 L1176.69 759.18 L1141.85 759.18 L1141.85 752.294 Z" fill="#000000" fill-rule="evenodd" fill-opacity="1" /><path clip-path="url(#clip570)" d="M1193.21 748.891 L1201.76 748.891 L1201.76 759.18 L1193.21 759.18 L1193.21 748.891 Z" fill="#000000" fill-rule="evenodd" fill-opacity="1" /><path clip-path="url(#clip570)" d="M1237.09 704.088 Q1230.77 704.088 1227.57 710.326 Q1224.41 716.524 1224.41 729.001 Q1224.41 741.437 1227.57 747.676 Q1230.77 753.873 1237.09 753.873 Q1243.45 753.873 1246.6 747.676 Q1249.8 741.437 1249.8 729.001 Q1249.8 716.524 1246.6 710.326 Q1243.45 704.088 1237.09 704.088 M1237.09 697.606 Q1247.25 697.606 1252.6 705.668 Q1257.99 713.689 1257.99 729.001 Q1257.99 744.273 1252.6 752.334 Q1247.25 760.355 1237.09 760.355 Q1226.92 760.355 1221.53 752.334 Q1216.18 744.273 1216.18 729.001 Q1216.18 713.689 1221.53 705.668 Q1226.92 697.606 1237.09 697.606 Z" fill="#000000" fill-rule="evenodd" fill-opacity="1" /><path clip-path="url(#clip570)" d="M1289.87 704.088 Q1283.55 704.088 1280.35 710.326 Q1277.19 716.524 1277.19 729.001 Q1277.19 741.437 1280.35 747.676 Q1283.55 753.873 1289.87 753.873 Q1296.23 753.873 1299.39 747.676 Q1302.59 741.437 1302.59 729.001 Q1302.59 716.524 1299.39 710.326 Q1296.23 704.088 1289.87 704.088 M1289.87 697.606 Q1300.04 697.606 1305.38 705.668 Q1310.77 713.689 1310.77 729.001 Q1310.77 744.273 1305.38 752.334 Q1300.04 760.355 1289.87 760.355 Q1279.7 760.355 1274.31 752.334 Q1268.97 744.273 1268.97 729.001 Q1268.97 713.689 1274.31 705.668 Q1279.7 697.606 1289.87 697.606 Z" fill="#000000" fill-rule="evenodd" fill-opacity="1" /><polyline clip-path="url(#clip570)" style="stroke:#000000; stroke-linecap:butt; stroke-linejoin:round; stroke-width:4; stroke-opacity:1; fill:none" points="
  297.569,673.18 297.569,47.2441 
  "/>
<polyline clip-path="url(#clip570)" style="stroke:#000000; stroke-linecap:butt; stroke-linejoin:round; stroke-width:4; stroke-opacity:1; fill:none" points="
  297.569,673.18 316.467,673.18 
  "/>
<polyline clip-path="url(#clip570)" style="stroke:#000000; stroke-linecap:butt; stroke-linejoin:round; stroke-width:4; stroke-opacity:1; fill:none" points="
  297.569,380.659 316.467,380.659 
  "/>
<polyline clip-path="url(#clip570)" style="stroke:#000000; stroke-linecap:butt; stroke-linejoin:round; stroke-width:4; stroke-opacity:1; fill:none" points="
  297.569,88.1369 316.467,88.1369 
  "/>
<path clip-path="url(#clip570)" d="M57.6669 707.817 L71.0349 707.817 L71.0349 661.677 L56.4921 664.594 L56.4921 657.14 L70.9539 654.223 L79.1367 654.223 L79.1367 707.817 L92.5047 707.817 L92.5047 714.703 L57.6669 714.703 L57.6669 707.817 Z" fill="#000000" fill-rule="evenodd" fill-opacity="1" /><path clip-path="url(#clip570)" d="M126.532 659.611 Q120.213 659.611 117.013 665.85 Q113.853 672.047 113.853 684.524 Q113.853 696.961 117.013 703.199 Q120.213 709.397 126.532 709.397 Q132.892 709.397 136.052 703.199 Q139.252 696.961 139.252 684.524 Q139.252 672.047 136.052 665.85 Q132.892 659.611 126.532 659.611 M126.532 653.13 Q136.7 653.13 142.047 661.191 Q147.435 669.212 147.435 684.524 Q147.435 699.796 142.047 707.857 Q136.7 715.878 126.532 715.878 Q116.364 715.878 110.977 707.857 Q105.63 699.796 105.63 684.524 Q105.63 669.212 110.977 661.191 Q116.364 653.13 126.532 653.13 Z" fill="#000000" fill-rule="evenodd" fill-opacity="1" /><path clip-path="url(#clip570)" d="M147.435 642.807 L189.63 642.807 L189.63 648.402 L147.435 648.402 L147.435 642.807 Z" fill="#000000" fill-rule="evenodd" fill-opacity="1" /><path clip-path="url(#clip570)" d="M205.132 661.14 L215.994 661.14 L215.994 623.651 L204.178 626.021 L204.178 619.965 L215.928 617.595 L222.577 617.595 L222.577 661.14 L233.438 661.14 L233.438 666.735 L205.132 666.735 L205.132 661.14 Z" fill="#000000" fill-rule="evenodd" fill-opacity="1" /><path clip-path="url(#clip570)" d="M261.086 621.973 Q255.951 621.973 253.351 627.041 Q250.784 632.077 250.784 642.215 Q250.784 652.319 253.351 657.388 Q255.951 662.424 261.086 662.424 Q266.253 662.424 268.82 657.388 Q271.42 652.319 271.42 642.215 Q271.42 632.077 268.82 627.041 Q266.253 621.973 261.086 621.973 M261.086 616.707 Q269.347 616.707 273.691 623.256 Q278.069 629.773 278.069 642.215 Q278.069 654.623 273.691 661.173 Q269.347 667.69 261.086 667.69 Q252.824 667.69 248.447 661.173 Q244.102 654.623 244.102 642.215 Q244.102 629.773 248.447 623.256 Q252.824 616.707 261.086 616.707 Z" fill="#000000" fill-rule="evenodd" fill-opacity="1" /><path clip-path="url(#clip570)" d="M101.969 415.295 L115.337 415.295 L115.337 369.155 L100.794 372.072 L100.794 364.618 L115.256 361.702 L123.438 361.702 L123.438 415.295 L136.806 415.295 L136.806 422.182 L101.969 422.182 L101.969 415.295 Z" fill="#000000" fill-rule="evenodd" fill-opacity="1" /><path clip-path="url(#clip570)" d="M170.834 367.09 Q164.515 367.09 161.314 373.328 Q158.155 379.526 158.155 392.003 Q158.155 404.439 161.314 410.677 Q164.515 416.875 170.834 416.875 Q177.194 416.875 180.354 410.677 Q183.554 404.439 183.554 392.003 Q183.554 379.526 180.354 373.328 Q177.194 367.09 170.834 367.09 M170.834 360.608 Q181.002 360.608 186.349 368.669 Q191.737 376.69 191.737 392.003 Q191.737 407.274 186.349 415.336 Q181.002 423.357 170.834 423.357 Q160.666 423.357 155.278 415.336 Q149.931 407.274 149.931 392.003 Q149.931 376.69 155.278 368.669 Q160.666 360.608 170.834 360.608 Z" fill="#000000" fill-rule="evenodd" fill-opacity="1" /><path clip-path="url(#clip570)" d="M191.737 350.285 L233.932 350.285 L233.932 355.881 L191.737 355.881 L191.737 350.285 Z" fill="#000000" fill-rule="evenodd" fill-opacity="1" /><path clip-path="url(#clip570)" d="M248.348 325.074 L274.448 325.074 L274.448 330.669 L254.437 330.669 L254.437 342.715 Q255.885 342.222 257.333 341.991 Q258.782 341.728 260.23 341.728 Q268.458 341.728 273.264 346.237 Q278.069 350.746 278.069 358.448 Q278.069 366.38 273.132 370.791 Q268.195 375.168 259.21 375.168 Q256.116 375.168 252.89 374.642 Q249.697 374.115 246.274 373.062 L246.274 366.38 Q249.237 367.993 252.396 368.783 Q255.556 369.573 259.078 369.573 Q264.772 369.573 268.096 366.578 Q271.42 363.583 271.42 358.448 Q271.42 353.313 268.096 350.318 Q264.772 347.323 259.078 347.323 Q256.412 347.323 253.746 347.916 Q251.113 348.508 248.348 349.759 L248.348 325.074 Z" fill="#000000" fill-rule="evenodd" fill-opacity="1" /><path clip-path="url(#clip570)" d="M154.334 122.774 L167.702 122.774 L167.702 76.6338 L153.159 79.5505 L153.159 72.0968 L167.621 69.1802 L175.804 69.1802 L175.804 122.774 L189.172 122.774 L189.172 129.66 L154.334 129.66 L154.334 122.774 Z" fill="#000000" fill-rule="evenodd" fill-opacity="1" /><path clip-path="url(#clip570)" d="M223.199 74.5679 Q216.88 74.5679 213.68 80.8063 Q210.52 87.0041 210.52 99.4809 Q210.52 111.917 213.68 118.156 Q216.88 124.353 223.199 124.353 Q229.559 124.353 232.719 118.156 Q235.919 111.917 235.919 99.4809 Q235.919 87.0041 232.719 80.8063 Q229.559 74.5679 223.199 74.5679 M223.199 68.0864 Q233.367 68.0864 238.714 76.1477 Q244.102 84.1685 244.102 99.4809 Q244.102 114.753 238.714 122.814 Q233.367 130.835 223.199 130.835 Q213.032 130.835 207.644 122.814 Q202.297 114.753 202.297 99.4809 Q202.297 84.1685 207.644 76.1477 Q213.032 68.0864 223.199 68.0864 Z" fill="#000000" fill-rule="evenodd" fill-opacity="1" /><path clip-path="url(#clip570)" d="M261.086 36.9295 Q255.951 36.9295 253.351 41.9982 Q250.784 47.0339 250.784 57.1713 Q250.784 67.2758 253.351 72.3445 Q255.951 77.3803 261.086 77.3803 Q266.253 77.3803 268.82 72.3445 Q271.42 67.2758 271.42 57.1713 Q271.42 47.0339 268.82 41.9982 Q266.253 36.9295 261.086 36.9295 M261.086 31.6633 Q269.347 31.6633 273.691 38.2131 Q278.069 44.73 278.069 57.1713 Q278.069 69.5798 273.691 76.1296 Q269.347 82.6465 261.086 82.6465 Q252.824 82.6465 248.447 76.1296 Q244.102 69.5798 244.102 57.1713 Q244.102 44.73 248.447 38.2131 Q252.824 31.6633 261.086 31.6633 Z" fill="#000000" fill-rule="evenodd" fill-opacity="1" /><polyline clip-path="url(#clip572)" style="stroke:#000000; stroke-linecap:butt; stroke-linejoin:round; stroke-width:16; stroke-opacity:1; fill:none" stroke-dasharray="8, 16" points="
  1225.72,4569.67 1216.71,4517.24 1207.7,4533.57 1198.69,4916.62 1189.68,5585.47 1180.67,4923.01 1171.66,4356.15 1162.64,3867.23 1153.63,3438.65 1144.62,3057.51 
  1135.61,2714.46 1126.6,2402.63 1117.59,2116.83 1108.58,1853.04 1099.57,1608.12 1090.55,1379.55 1081.54,1165.27 1072.53,976.178 1063.52,897.223 1054.51,843.605 
  1045.5,799.463 1036.49,760.887 1027.48,726.413 1018.46,694.933 1009.45,666.002 1000.44,639.249 991.431,614.309 982.42,590.82 973.409,568.931 964.398,548.235 
  955.386,528.666 946.375,510.161 937.364,492.654 928.353,475.815 919.342,460.156 910.33,444.922 901.319,430.542 892.308,416.918 883.297,403.644 874.286,391.137 
  865.274,379.285 856.263,367.729 847.252,356.647 838.241,346.362 829.23,336.332 820.218,326.55 811.207,317.475 802.196,308.819 793.185,300.383 784.174,292.165 
  775.162,284.723 766.151,277.515 757.14,270.506 748.129,263.698 739.118,257.611 730.106,251.705 721.095,245.981 712.084,240.439 703.073,235.472 694.062,230.722 
  685.05,226.134 676.039,221.707 667.028,217.606 658.017,213.845 649.006,210.221 639.994,206.732 630.983,203.375 621.972,200.287 612.961,197.444 603.95,194.706 
  594.939,192.072 585.927,189.538 576.916,187.101 567.905,184.878 558.894,182.8 549.883,180.796 540.871,178.864 531.86,177.002 522.849,175.206 513.838,173.474 
  504.827,171.816 495.815,170.315 486.804,168.863 477.793,167.458 468.782,166.097 459.771,164.779 450.759,163.503 441.748,162.265 432.737,161.066 423.726,159.902 
  414.715,158.774 405.703,157.697 396.692,156.692 387.681,155.713 378.67,154.76 369.659,153.831 360.647,152.927 351.636,152.045 342.625,151.186 333.614,150.347 
  324.603,149.529 
  "/>
<polyline clip-path="url(#clip572)" style="stroke:#000000; stroke-linecap:butt; stroke-linejoin:round; stroke-width:16; stroke-opacity:1; fill:none" stroke-dasharray="64, 40" points="
  1225.72,3449.27 1216.71,3429.65 1207.7,3476.32 1198.69,4207.1 1189.68,4063.53 1180.67,3588.98 1171.66,3155.27 1162.64,2770.61 1153.63,2428 1144.62,2120.1 
  1135.61,1840.92 1126.6,1585.77 1117.59,1350.96 1108.58,1133.62 1099.57,931.442 1090.55,742.616 1081.54,565.706 1072.53,399.723 1063.52,305.643 1054.51,260.363 
  1045.5,232.46 1036.49,213.631 1027.48,200.153 1018.46,189.973 1009.45,182.003 1000.44,175.5 991.431,170.08 982.42,165.468 973.409,161.459 964.398,157.904 
  955.386,154.782 946.375,151.927 937.364,149.371 928.353,147 919.342,144.834 910.33,142.826 901.319,140.941 892.308,139.189 883.297,137.55 874.286,135.997 
  865.274,134.522 856.263,133.13 847.252,131.816 838.241,130.558 829.23,129.354 820.218,128.198 811.207,127.088 802.196,126.035 793.185,125.02 784.174,124.042 
  775.162,123.096 766.151,122.182 757.14,121.297 748.129,120.439 739.118,119.608 730.106,118.808 721.095,118.032 712.084,117.278 703.073,116.544 694.062,115.829 
  685.05,115.132 676.039,114.453 667.028,113.791 658.017,113.145 649.006,112.514 639.994,111.897 630.983,111.295 621.972,110.706 612.961,110.13 603.95,109.569 
  594.939,109.019 585.927,108.481 576.916,107.953 567.905,107.436 558.894,106.928 549.883,106.43 540.871,105.942 531.86,105.462 522.849,104.991 513.838,104.528 
  504.827,104.073 495.815,103.627 486.804,103.187 477.793,102.755 468.782,102.33 459.771,101.912 450.759,101.501 441.748,101.096 432.737,100.697 423.726,100.305 
  414.715,99.918 405.703,99.5372 396.692,99.162 387.681,98.7922 378.67,98.4277 369.659,98.0684 360.647,97.7142 351.636,97.3648 342.625,97.0202 333.614,96.6803 
  324.603,96.3449 
  "/>
<polyline clip-path="url(#clip572)" style="stroke:#808080; stroke-linecap:butt; stroke-linejoin:round; stroke-width:16; stroke-opacity:1; fill:none" stroke-dasharray="8, 16" points="
  1225.72,5931.77 1216.71,5879.2 1207.7,5895.36 1198.69,6278.15 1189.68,6945.49 1180.67,6283.37 1171.66,5716.74 1162.64,5227.98 1153.63,4799.5 1144.62,4418.41 
  1135.61,4075.38 1126.6,3763.53 1117.59,3477.69 1108.58,3213.84 1099.57,2968.83 1090.55,2740.15 1081.54,2525.75 1072.53,2323.94 1063.52,2133.32 1054.51,1952.71 
  1045.5,1781.1 1036.49,1617.64 1027.48,1461.58 1018.46,1312.28 1009.45,1169.18 1000.44,1031.77 991.431,945.071 982.42,897.232 973.409,859.233 964.398,826.345 
  955.386,796.895 946.375,769.955 937.364,744.971 928.353,721.678 919.342,699.724 910.33,679.127 901.319,659.572 892.308,640.806 883.297,623.183 874.286,606.091 
  865.274,589.993 856.263,574.256 847.252,559.478 838.241,545.09 829.23,531.149 820.218,518.006 811.207,505.129 802.196,492.566 793.185,480.81 784.174,469.28 
  775.162,457.967 766.151,447.154 757.14,436.835 748.129,426.703 739.118,416.752 730.106,407.199 721.095,398.138 712.084,389.236 703.073,380.488 694.062,371.89 
  685.05,363.866 676.039,356.058 667.028,348.384 658.017,340.84 649.006,333.425 639.994,326.538 630.983,319.834 621.972,313.245 612.961,306.771 603.95,300.41 
  594.939,294.39 585.927,288.676 576.916,283.066 567.905,277.559 558.894,272.155 549.883,266.854 540.871,262.014 531.86,257.295 522.849,252.671 513.838,248.143 
  504.827,243.71 495.815,239.4 486.804,235.492 477.793,231.672 468.782,227.939 459.771,224.294 450.759,220.736 441.748,217.265 432.737,214.124 423.726,211.095 
  414.715,208.143 405.703,205.267 396.692,202.467 387.681,199.742 378.67,197.106 369.659,194.74 360.647,192.438 351.636,190.198 342.625,188.02 333.614,185.902 
  324.603,183.843 
  "/>
<polyline clip-path="url(#clip572)" style="stroke:#808080; stroke-linecap:butt; stroke-linejoin:round; stroke-width:16; stroke-opacity:1; fill:none" stroke-dasharray="64, 40" points="
  1225.72,4539.49 1216.71,4519.12 1207.7,4563.69 1198.69,5264.77 1189.68,5134.89 1180.67,4670.17 1171.66,4244.25 1162.64,3865.97 1153.63,3528.7 1144.62,3225.31 
  1135.61,2949.95 1126.6,2698.04 1117.59,2465.94 1108.58,2250.8 1099.57,2050.34 1090.55,1862.68 1081.54,1686.3 1072.53,1519.95 1063.52,1362.55 1054.51,1213.22 
  1045.5,1071.2 1036.49,935.846 1027.48,806.602 1018.46,683.002 1009.45,564.651 1000.44,451.248 991.431,352.762 982.42,299.181 973.409,264.811 964.398,240.377 
  955.386,222.149 946.375,208.133 937.364,197.098 928.353,188.157 919.342,180.786 910.33,174.568 901.319,169.261 892.308,164.668 883.297,160.631 874.286,157.027 
  865.274,153.801 856.263,150.886 847.252,148.222 838.241,145.778 829.23,143.535 820.218,141.433 811.207,139.493 802.196,137.679 793.185,135.965 784.174,134.342 
  775.162,132.833 766.151,131.396 757.14,130.025 748.129,128.716 739.118,127.463 730.106,126.282 721.095,125.147 712.084,124.056 703.073,123.006 694.062,121.993 
  685.05,121.016 676.039,120.073 667.028,119.166 658.017,118.293 649.006,117.446 639.994,116.625 630.983,115.827 621.972,115.053 612.961,114.3 603.95,113.568 
  594.939,112.855 585.927,112.161 576.916,111.484 567.905,110.825 558.894,110.181 549.883,109.553 540.871,108.942 531.86,108.346 522.849,107.762 513.838,107.192 
  504.827,106.633 495.815,106.086 486.804,105.55 477.793,105.025 468.782,104.511 459.771,104.006 450.759,103.511 441.748,103.025 432.737,102.549 423.726,102.081 
  414.715,101.621 405.703,101.17 396.692,100.726 387.681,100.29 378.67,99.8611 369.659,99.4394 360.647,99.0247 351.636,98.6167 342.625,98.2152 333.614,97.8199 
  324.603,97.4308 
  "/>
<polyline clip-path="url(#clip572)" style="stroke:#0000ff; stroke-linecap:butt; stroke-linejoin:round; stroke-width:16; stroke-opacity:1; fill:none" stroke-dasharray="8, 16" points="
  1225.72,3605.48 1216.71,3553.32 1207.7,3569.9 1198.69,3953.12 1189.68,4620.9 1180.67,3959.23 1171.66,3393.07 1162.64,2904.78 1153.63,2476.78 1144.62,2096.19 
  1135.61,1753.67 1126.6,1442.36 1117.59,1157.06 1108.58,938.494 1099.57,856.285 1090.55,797.049 1081.54,747.887 1072.53,705.149 1063.52,667.108 1054.51,632.734 
  1045.5,601.335 1036.49,572.399 1027.48,545.75 1018.46,521.135 1009.45,497.894 1000.44,476.573 991.431,456.254 982.42,437.535 973.409,419.497 964.398,403.07 
  955.386,387.184 946.375,372.424 937.364,358.501 928.353,345.026 919.342,332.869 910.33,321.114 901.319,309.892 892.308,299.71 883.297,289.876 874.286,280.553 
  865.274,272.129 856.263,264.019 847.252,256.312 838.241,249.457 829.23,242.885 820.218,236.596 811.207,231.036 802.196,225.795 793.185,220.797 784.174,216.152 
  775.162,212.014 766.151,208.072 757.14,204.321 748.129,200.804 739.118,197.695 730.106,194.731 721.095,191.906 712.084,189.214 703.073,186.675 694.062,184.416 
  685.05,182.254 676.039,180.186 667.028,178.206 658.017,176.31 649.006,174.493 639.994,172.802 630.983,171.238 621.972,169.733 612.961,168.283 603.95,166.885 
  594.939,165.537 585.927,164.237 576.916,162.981 567.905,161.768 558.894,160.596 549.883,159.492 540.871,158.449 531.86,157.436 522.849,156.453 513.838,155.497 
  504.827,154.569 495.815,153.666 486.804,152.787 477.793,151.931 468.782,151.098 459.771,150.286 450.759,149.495 441.748,148.723 432.737,147.97 423.726,147.234 
  414.715,146.516 405.703,145.815 396.692,145.132 387.681,144.484 378.67,143.849 369.659,143.227 360.647,142.618 351.636,142.021 342.625,141.435 333.614,140.861 
  324.603,140.297 
  "/>
<polyline clip-path="url(#clip572)" style="stroke:#0000ff; stroke-linecap:butt; stroke-linejoin:round; stroke-width:16; stroke-opacity:1; fill:none" stroke-dasharray="64, 40" points="
  1225.72,2602.81 1216.71,2584.32 1207.7,2630.79 1198.69,3333.83 1189.68,3205.95 1180.67,2743.29 1171.66,2319.52 1162.64,1943.51 1153.63,1608.66 1144.62,1307.92 
  1135.61,1035.54 1126.6,787.058 1117.59,559.122 1108.58,358.756 1099.57,276.986 1090.55,238.358 1081.54,215.651 1072.53,200.666 1063.52,189.922 1054.51,181.763 
  1045.5,175.249 1036.49,169.883 1027.48,165.347 1018.46,161.418 1009.45,157.968 1000.44,154.914 991.431,152.144 982.42,149.649 973.409,147.355 964.398,145.229 
  955.386,143.284 946.375,141.456 937.364,139.734 928.353,138.139 919.342,136.629 910.33,135.193 901.319,133.826 892.308,132.536 883.297,131.309 874.286,130.133 
  865.274,129.003 856.263,127.917 847.252,126.871 838.241,125.878 829.23,124.918 820.218,123.99 811.207,123.092 802.196,122.222 793.185,121.379 784.174,120.561 
  775.162,119.767 766.151,119.003 757.14,118.26 748.129,117.536 739.118,116.831 730.106,116.143 721.095,115.473 712.084,114.818 703.073,114.179 694.062,113.555 
  685.05,112.945 676.039,112.349 667.028,111.766 658.017,111.196 649.006,110.641 639.994,110.096 630.983,109.563 621.972,109.039 612.961,108.526 603.95,108.023 
  594.939,107.529 585.927,107.043 576.916,106.567 567.905,106.099 558.894,105.639 549.883,105.188 540.871,104.743 531.86,104.306 522.849,103.877 513.838,103.454 
  504.827,103.038 495.815,102.629 486.804,102.226 477.793,101.829 468.782,101.438 459.771,101.053 450.759,100.674 441.748,100.3 432.737,99.9315 423.726,99.5683 
  414.715,99.2102 405.703,98.8571 396.692,98.5088 387.681,98.1652 378.67,97.8263 369.659,97.4918 360.647,97.1617 351.636,96.8359 342.625,96.5143 333.614,96.1968 
  324.603,95.8832 
  "/>
</svg>
