<?xml version="1.0" encoding="utf-8"?>
<svg xmlns="http://www.w3.org/2000/svg" xmlns:xlink="http://www.w3.org/1999/xlink" width="325" height="150" viewBox="0 0 1300 600">
<defs>
  <clipPath id="clip110">
    <rect x="0" y="0" width="1300" height="600"/>
  </clipPath>
</defs>
<path clip-path="url(#clip110)" d="
M0 600 L1300 600 L1300 0 L0 0  Z
  " fill="#ffffff" fill-rule="evenodd" fill-opacity="1"/>
<defs>
  <clipPath id="clip111">
    <rect x="260" y="0" width="911" height="600"/>
  </clipPath>
</defs>
<path clip-path="url(#clip110)" d="
M175.274 507.082 L1252.76 507.082 L1252.76 47.2441 L175.274 47.2441  Z
  " fill="#ffffff" fill-rule="evenodd" fill-opacity="1"/>
<defs>
  <clipPath id="clip112">
    <rect x="175" y="47" width="1078" height="461"/>
  </clipPath>
</defs>
<polyline clip-path="url(#clip110)" style="stroke:#000000; stroke-linecap:round; stroke-linejoin:round; stroke-width:4; stroke-opacity:1; fill:none" points="
  175.274,507.082 1252.76,507.082 
  "/>
<polyline clip-path="url(#clip110)" style="stroke:#000000; stroke-linecap:round; stroke-linejoin:round; stroke-width:4; stroke-opacity:1; fill:none" points="
  195.995,507.082 195.995,488.184 
  "/>
<polyline clip-path="url(#clip110)" style="stroke:#000000; stroke-linecap:round; stroke-linejoin:round; stroke-width:4; stroke-opacity:1; fill:none" points="
  455.005,507.082 455.005,488.184 
  "/>
<polyline clip-path="url(#clip110)" style="stroke:#000000; stroke-linecap:round; stroke-linejoin:round; stroke-width:4; stroke-opacity:1; fill:none" points="
  714.015,507.082 714.015,488.184 
  "/>
<polyline clip-path="url(#clip110)" style="stroke:#000000; stroke-linecap:round; stroke-linejoin:round; stroke-width:4; stroke-opacity:1; fill:none" points="
  973.025,507.082 973.025,488.184 
  "/>
<polyline clip-path="url(#clip110)" style="stroke:#000000; stroke-linecap:round; stroke-linejoin:round; stroke-width:4; stroke-opacity:1; fill:none" points="
  1232.04,507.082 1232.04,488.184 
  "/>
<path clip-path="url(#clip110)" d="M158.298 529.2 Q154.687 529.2 152.858 532.765 Q151.053 536.307 151.053 543.436 Q151.053 550.543 152.858 554.108 Q154.687 557.649 158.298 557.649 Q161.932 557.649 163.738 554.108 Q165.567 550.543 165.567 543.436 Q165.567 536.307 163.738 532.765 Q161.932 529.2 158.298 529.2 M158.298 525.497 Q164.108 525.497 167.164 530.103 Q170.243 534.686 170.243 543.436 Q170.243 552.163 167.164 556.77 Q164.108 561.353 158.298 561.353 Q152.488 561.353 149.409 556.77 Q146.354 552.163 146.354 543.436 Q146.354 534.686 149.409 530.103 Q152.488 525.497 158.298 525.497 Z" fill="#000000" fill-rule="evenodd" fill-opacity="1" /><path clip-path="url(#clip110)" d="M178.46 554.802 L183.344 554.802 L183.344 560.682 L178.46 560.682 L178.46 554.802 Z" fill="#000000" fill-rule="evenodd" fill-opacity="1" /><path clip-path="url(#clip110)" d="M203.529 529.2 Q199.918 529.2 198.09 532.765 Q196.284 536.307 196.284 543.436 Q196.284 550.543 198.09 554.108 Q199.918 557.649 203.529 557.649 Q207.164 557.649 208.969 554.108 Q210.798 550.543 210.798 543.436 Q210.798 536.307 208.969 532.765 Q207.164 529.2 203.529 529.2 M203.529 525.497 Q209.34 525.497 212.395 530.103 Q215.474 534.686 215.474 543.436 Q215.474 552.163 212.395 556.77 Q209.34 561.353 203.529 561.353 Q197.719 561.353 194.641 556.77 Q191.585 552.163 191.585 543.436 Q191.585 534.686 194.641 530.103 Q197.719 525.497 203.529 525.497 Z" fill="#000000" fill-rule="evenodd" fill-opacity="1" /><path clip-path="url(#clip110)" d="M233.691 529.2 Q230.08 529.2 228.252 532.765 Q226.446 536.307 226.446 543.436 Q226.446 550.543 228.252 554.108 Q230.08 557.649 233.691 557.649 Q237.326 557.649 239.131 554.108 Q240.96 550.543 240.96 543.436 Q240.96 536.307 239.131 532.765 Q237.326 529.2 233.691 529.2 M233.691 525.497 Q239.502 525.497 242.557 530.103 Q245.636 534.686 245.636 543.436 Q245.636 552.163 242.557 556.77 Q239.502 561.353 233.691 561.353 Q227.881 561.353 224.803 556.77 Q221.747 552.163 221.747 543.436 Q221.747 534.686 224.803 530.103 Q227.881 525.497 233.691 525.497 Z" fill="#000000" fill-rule="evenodd" fill-opacity="1" /><path clip-path="url(#clip110)" d="M417.806 529.2 Q414.195 529.2 412.366 532.765 Q410.561 536.307 410.561 543.436 Q410.561 550.543 412.366 554.108 Q414.195 557.649 417.806 557.649 Q421.44 557.649 423.246 554.108 Q425.074 550.543 425.074 543.436 Q425.074 536.307 423.246 532.765 Q421.44 529.2 417.806 529.2 M417.806 525.497 Q423.616 525.497 426.672 530.103 Q429.75 534.686 429.75 543.436 Q429.75 552.163 426.672 556.77 Q423.616 561.353 417.806 561.353 Q411.996 561.353 408.917 556.77 Q405.862 552.163 405.862 543.436 Q405.862 534.686 408.917 530.103 Q411.996 525.497 417.806 525.497 Z" fill="#000000" fill-rule="evenodd" fill-opacity="1" /><path clip-path="url(#clip110)" d="M437.968 554.802 L442.852 554.802 L442.852 560.682 L437.968 560.682 L437.968 554.802 Z" fill="#000000" fill-rule="evenodd" fill-opacity="1" /><path clip-path="url(#clip110)" d="M457.065 556.747 L473.384 556.747 L473.384 560.682 L451.44 560.682 L451.44 556.747 Q454.102 553.992 458.685 549.362 Q463.292 544.71 464.472 543.367 Q466.718 540.844 467.597 539.108 Q468.5 537.349 468.5 535.659 Q468.5 532.904 466.556 531.168 Q464.634 529.432 461.533 529.432 Q459.334 529.432 456.88 530.196 Q454.449 530.96 451.672 532.511 L451.672 527.788 Q454.496 526.654 456.949 526.075 Q459.403 525.497 461.44 525.497 Q466.81 525.497 470.005 528.182 Q473.199 530.867 473.199 535.358 Q473.199 537.487 472.389 539.409 Q471.602 541.307 469.496 543.899 Q468.917 544.571 465.815 547.788 Q462.713 550.983 457.065 556.747 Z" fill="#000000" fill-rule="evenodd" fill-opacity="1" /><path clip-path="url(#clip110)" d="M483.245 526.122 L501.602 526.122 L501.602 530.057 L487.528 530.057 L487.528 538.529 Q488.546 538.182 489.565 538.02 Q490.583 537.835 491.602 537.835 Q497.389 537.835 500.769 541.006 Q504.148 544.177 504.148 549.594 Q504.148 555.172 500.676 558.274 Q497.204 561.353 490.884 561.353 Q488.708 561.353 486.44 560.983 Q484.195 560.612 481.787 559.872 L481.787 555.172 Q483.87 556.307 486.093 556.862 Q488.315 557.418 490.792 557.418 Q494.796 557.418 497.134 555.311 Q499.472 553.205 499.472 549.594 Q499.472 545.983 497.134 543.876 Q494.796 541.77 490.792 541.77 Q488.917 541.77 487.042 542.186 Q485.19 542.603 483.245 543.483 L483.245 526.122 Z" fill="#000000" fill-rule="evenodd" fill-opacity="1" /><path clip-path="url(#clip110)" d="M676.318 529.2 Q672.707 529.2 670.879 532.765 Q669.073 536.307 669.073 543.436 Q669.073 550.543 670.879 554.108 Q672.707 557.649 676.318 557.649 Q679.953 557.649 681.758 554.108 Q683.587 550.543 683.587 543.436 Q683.587 536.307 681.758 532.765 Q679.953 529.2 676.318 529.2 M676.318 525.497 Q682.129 525.497 685.184 530.103 Q688.263 534.686 688.263 543.436 Q688.263 552.163 685.184 556.77 Q682.129 561.353 676.318 561.353 Q670.508 561.353 667.43 556.77 Q664.374 552.163 664.374 543.436 Q664.374 534.686 667.43 530.103 Q670.508 525.497 676.318 525.497 Z" fill="#000000" fill-rule="evenodd" fill-opacity="1" /><path clip-path="url(#clip110)" d="M696.48 554.802 L701.365 554.802 L701.365 560.682 L696.48 560.682 L696.48 554.802 Z" fill="#000000" fill-rule="evenodd" fill-opacity="1" /><path clip-path="url(#clip110)" d="M711.596 526.122 L729.952 526.122 L729.952 530.057 L715.878 530.057 L715.878 538.529 Q716.897 538.182 717.915 538.02 Q718.934 537.835 719.952 537.835 Q725.739 537.835 729.119 541.006 Q732.499 544.177 732.499 549.594 Q732.499 555.172 729.026 558.274 Q725.554 561.353 719.235 561.353 Q717.059 561.353 714.79 560.983 Q712.545 560.612 710.138 559.872 L710.138 555.172 Q712.221 556.307 714.443 556.862 Q716.665 557.418 719.142 557.418 Q723.147 557.418 725.485 555.311 Q727.823 553.205 727.823 549.594 Q727.823 545.983 725.485 543.876 Q723.147 541.77 719.142 541.77 Q717.267 541.77 715.392 542.186 Q713.54 542.603 711.596 543.483 L711.596 526.122 Z" fill="#000000" fill-rule="evenodd" fill-opacity="1" /><path clip-path="url(#clip110)" d="M751.712 529.2 Q748.1 529.2 746.272 532.765 Q744.466 536.307 744.466 543.436 Q744.466 550.543 746.272 554.108 Q748.1 557.649 751.712 557.649 Q755.346 557.649 757.151 554.108 Q758.98 550.543 758.98 543.436 Q758.98 536.307 757.151 532.765 Q755.346 529.2 751.712 529.2 M751.712 525.497 Q757.522 525.497 760.577 530.103 Q763.656 534.686 763.656 543.436 Q763.656 552.163 760.577 556.77 Q757.522 561.353 751.712 561.353 Q745.901 561.353 742.823 556.77 Q739.767 552.163 739.767 543.436 Q739.767 534.686 742.823 530.103 Q745.901 525.497 751.712 525.497 Z" fill="#000000" fill-rule="evenodd" fill-opacity="1" /><path clip-path="url(#clip110)" d="M935.826 529.2 Q932.215 529.2 930.386 532.765 Q928.581 536.307 928.581 543.436 Q928.581 550.543 930.386 554.108 Q932.215 557.649 935.826 557.649 Q939.46 557.649 941.266 554.108 Q943.095 550.543 943.095 543.436 Q943.095 536.307 941.266 532.765 Q939.46 529.2 935.826 529.2 M935.826 525.497 Q941.636 525.497 944.692 530.103 Q947.771 534.686 947.771 543.436 Q947.771 552.163 944.692 556.77 Q941.636 561.353 935.826 561.353 Q930.016 561.353 926.937 556.77 Q923.882 552.163 923.882 543.436 Q923.882 534.686 926.937 530.103 Q930.016 525.497 935.826 525.497 Z" fill="#000000" fill-rule="evenodd" fill-opacity="1" /><path clip-path="url(#clip110)" d="M955.988 554.802 L960.872 554.802 L960.872 560.682 L955.988 560.682 L955.988 554.802 Z" fill="#000000" fill-rule="evenodd" fill-opacity="1" /><path clip-path="url(#clip110)" d="M969.877 526.122 L992.099 526.122 L992.099 528.112 L979.553 560.682 L974.669 560.682 L986.474 530.057 L969.877 530.057 L969.877 526.122 Z" fill="#000000" fill-rule="evenodd" fill-opacity="1" /><path clip-path="url(#clip110)" d="M1001.27 526.122 L1019.62 526.122 L1019.62 530.057 L1005.55 530.057 L1005.55 538.529 Q1006.57 538.182 1007.59 538.02 Q1008.6 537.835 1009.62 537.835 Q1015.41 537.835 1018.79 541.006 Q1022.17 544.177 1022.17 549.594 Q1022.17 555.172 1018.7 558.274 Q1015.22 561.353 1008.9 561.353 Q1006.73 561.353 1004.46 560.983 Q1002.21 560.612 999.807 559.872 L999.807 555.172 Q1001.89 556.307 1004.11 556.862 Q1006.34 557.418 1008.81 557.418 Q1012.82 557.418 1015.15 555.311 Q1017.49 553.205 1017.49 549.594 Q1017.49 545.983 1015.15 543.876 Q1012.82 541.77 1008.81 541.77 Q1006.94 541.77 1005.06 542.186 Q1003.21 542.603 1001.27 543.483 L1001.27 526.122 Z" fill="#000000" fill-rule="evenodd" fill-opacity="1" /><path clip-path="url(#clip110)" d="M1184.11 556.747 L1191.75 556.747 L1191.75 530.381 L1183.44 532.048 L1183.44 527.788 L1191.7 526.122 L1196.38 526.122 L1196.38 556.747 L1204.01 556.747 L1204.01 560.682 L1184.11 560.682 L1184.11 556.747 Z" fill="#000000" fill-rule="evenodd" fill-opacity="1" /><path clip-path="url(#clip110)" d="M1213.46 554.802 L1218.34 554.802 L1218.34 560.682 L1213.46 560.682 L1213.46 554.802 Z" fill="#000000" fill-rule="evenodd" fill-opacity="1" /><path clip-path="url(#clip110)" d="M1238.53 529.2 Q1234.92 529.2 1233.09 532.765 Q1231.28 536.307 1231.28 543.436 Q1231.28 550.543 1233.09 554.108 Q1234.92 557.649 1238.53 557.649 Q1242.16 557.649 1243.97 554.108 Q1245.8 550.543 1245.8 543.436 Q1245.8 536.307 1243.97 532.765 Q1242.16 529.2 1238.53 529.2 M1238.53 525.497 Q1244.34 525.497 1247.39 530.103 Q1250.47 534.686 1250.47 543.436 Q1250.47 552.163 1247.39 556.77 Q1244.34 561.353 1238.53 561.353 Q1232.72 561.353 1229.64 556.77 Q1226.58 552.163 1226.58 543.436 Q1226.58 534.686 1229.64 530.103 Q1232.72 525.497 1238.53 525.497 Z" fill="#000000" fill-rule="evenodd" fill-opacity="1" /><path clip-path="url(#clip110)" d="M1268.69 529.2 Q1265.08 529.2 1263.25 532.765 Q1261.44 536.307 1261.44 543.436 Q1261.44 550.543 1263.25 554.108 Q1265.08 557.649 1268.69 557.649 Q1272.32 557.649 1274.13 554.108 Q1275.96 550.543 1275.96 543.436 Q1275.96 536.307 1274.13 532.765 Q1272.32 529.2 1268.69 529.2 M1268.69 525.497 Q1274.5 525.497 1277.56 530.103 Q1280.63 534.686 1280.63 543.436 Q1280.63 552.163 1277.56 556.77 Q1274.5 561.353 1268.69 561.353 Q1262.88 561.353 1259.8 556.77 Q1256.75 552.163 1256.75 543.436 Q1256.75 534.686 1259.8 530.103 Q1262.88 525.497 1268.69 525.497 Z" fill="#000000" fill-rule="evenodd" fill-opacity="1" /><polyline clip-path="url(#clip110)" style="stroke:#000000; stroke-linecap:round; stroke-linejoin:round; stroke-width:4; stroke-opacity:1; fill:none" points="
  175.274,507.082 175.274,47.2441 
  "/>
<polyline clip-path="url(#clip110)" style="stroke:#000000; stroke-linecap:round; stroke-linejoin:round; stroke-width:4; stroke-opacity:1; fill:none" points="
  175.274,498.239 194.172,498.239 
  "/>
<polyline clip-path="url(#clip110)" style="stroke:#000000; stroke-linecap:round; stroke-linejoin:round; stroke-width:4; stroke-opacity:1; fill:none" points="
  175.274,387.701 194.172,387.701 
  "/>
<polyline clip-path="url(#clip110)" style="stroke:#000000; stroke-linecap:round; stroke-linejoin:round; stroke-width:4; stroke-opacity:1; fill:none" points="
  175.274,277.163 194.172,277.163 
  "/>
<polyline clip-path="url(#clip110)" style="stroke:#000000; stroke-linecap:round; stroke-linejoin:round; stroke-width:4; stroke-opacity:1; fill:none" points="
  175.274,166.625 194.172,166.625 
  "/>
<polyline clip-path="url(#clip110)" style="stroke:#000000; stroke-linecap:round; stroke-linejoin:round; stroke-width:4; stroke-opacity:1; fill:none" points="
  175.274,56.0871 194.172,56.0871 
  "/>
<path clip-path="url(#clip110)" d="M68.4365 484.037 Q64.8254 484.037 62.9967 487.602 Q61.1912 491.144 61.1912 498.273 Q61.1912 505.38 62.9967 508.945 Q64.8254 512.486 68.4365 512.486 Q72.0707 512.486 73.8763 508.945 Q75.705 505.38 75.705 498.273 Q75.705 491.144 73.8763 487.602 Q72.0707 484.037 68.4365 484.037 M68.4365 480.334 Q74.2467 480.334 77.3022 484.94 Q80.3809 489.523 80.3809 498.273 Q80.3809 507 77.3022 511.607 Q74.2467 516.19 68.4365 516.19 Q62.6264 516.19 59.5477 511.607 Q56.4921 507 56.4921 498.273 Q56.4921 489.523 59.5477 484.94 Q62.6264 480.334 68.4365 480.334 Z" fill="#000000" fill-rule="evenodd" fill-opacity="1" /><path clip-path="url(#clip110)" d="M88.5984 509.639 L93.4827 509.639 L93.4827 515.519 L88.5984 515.519 L88.5984 509.639 Z" fill="#000000" fill-rule="evenodd" fill-opacity="1" /><path clip-path="url(#clip110)" d="M113.668 484.037 Q110.057 484.037 108.228 487.602 Q106.422 491.144 106.422 498.273 Q106.422 505.38 108.228 508.945 Q110.057 512.486 113.668 512.486 Q117.302 512.486 119.108 508.945 Q120.936 505.38 120.936 498.273 Q120.936 491.144 119.108 487.602 Q117.302 484.037 113.668 484.037 M113.668 480.334 Q119.478 480.334 122.533 484.94 Q125.612 489.523 125.612 498.273 Q125.612 507 122.533 511.607 Q119.478 516.19 113.668 516.19 Q107.858 516.19 104.779 511.607 Q101.723 507 101.723 498.273 Q101.723 489.523 104.779 484.94 Q107.858 480.334 113.668 480.334 Z" fill="#000000" fill-rule="evenodd" fill-opacity="1" /><path clip-path="url(#clip110)" d="M143.83 484.037 Q140.219 484.037 138.39 487.602 Q136.584 491.144 136.584 498.273 Q136.584 505.38 138.39 508.945 Q140.219 512.486 143.83 512.486 Q147.464 512.486 149.269 508.945 Q151.098 505.38 151.098 498.273 Q151.098 491.144 149.269 487.602 Q147.464 484.037 143.83 484.037 M143.83 480.334 Q149.64 480.334 152.695 484.94 Q155.774 489.523 155.774 498.273 Q155.774 507 152.695 511.607 Q149.64 516.19 143.83 516.19 Q138.019 516.19 134.941 511.607 Q131.885 507 131.885 498.273 Q131.885 489.523 134.941 484.94 Q138.019 480.334 143.83 480.334 Z" fill="#000000" fill-rule="evenodd" fill-opacity="1" /><path clip-path="url(#clip110)" d="M69.4319 373.499 Q65.8208 373.499 63.9921 377.064 Q62.1865 380.606 62.1865 387.736 Q62.1865 394.842 63.9921 398.407 Q65.8208 401.948 69.4319 401.948 Q73.0661 401.948 74.8717 398.407 Q76.7004 394.842 76.7004 387.736 Q76.7004 380.606 74.8717 377.064 Q73.0661 373.499 69.4319 373.499 M69.4319 369.796 Q75.242 369.796 78.2976 374.402 Q81.3763 378.986 81.3763 387.736 Q81.3763 396.462 78.2976 401.069 Q75.242 405.652 69.4319 405.652 Q63.6217 405.652 60.543 401.069 Q57.4875 396.462 57.4875 387.736 Q57.4875 378.986 60.543 374.402 Q63.6217 369.796 69.4319 369.796 Z" fill="#000000" fill-rule="evenodd" fill-opacity="1" /><path clip-path="url(#clip110)" d="M89.5938 399.101 L94.478 399.101 L94.478 404.981 L89.5938 404.981 L89.5938 399.101 Z" fill="#000000" fill-rule="evenodd" fill-opacity="1" /><path clip-path="url(#clip110)" d="M108.691 401.046 L125.01 401.046 L125.01 404.981 L103.066 404.981 L103.066 401.046 Q105.728 398.291 110.311 393.661 Q114.918 389.009 116.098 387.666 Q118.344 385.143 119.223 383.407 Q120.126 381.648 120.126 379.958 Q120.126 377.203 118.182 375.467 Q116.26 373.731 113.158 373.731 Q110.959 373.731 108.506 374.495 Q106.075 375.259 103.297 376.81 L103.297 372.087 Q106.121 370.953 108.575 370.375 Q111.029 369.796 113.066 369.796 Q118.436 369.796 121.631 372.481 Q124.825 375.166 124.825 379.657 Q124.825 381.786 124.015 383.708 Q123.228 385.606 121.121 388.198 Q120.543 388.87 117.441 392.087 Q114.339 395.282 108.691 401.046 Z" fill="#000000" fill-rule="evenodd" fill-opacity="1" /><path clip-path="url(#clip110)" d="M134.871 370.421 L153.228 370.421 L153.228 374.356 L139.154 374.356 L139.154 382.828 Q140.172 382.481 141.191 382.319 Q142.209 382.134 143.228 382.134 Q149.015 382.134 152.394 385.305 Q155.774 388.476 155.774 393.893 Q155.774 399.472 152.302 402.573 Q148.83 405.652 142.51 405.652 Q140.334 405.652 138.066 405.282 Q135.82 404.911 133.413 404.171 L133.413 399.472 Q135.496 400.606 137.719 401.161 Q139.941 401.717 142.418 401.717 Q146.422 401.717 148.76 399.61 Q151.098 397.504 151.098 393.893 Q151.098 390.282 148.76 388.175 Q146.422 386.069 142.418 386.069 Q140.543 386.069 138.668 386.486 Q136.816 386.902 134.871 387.782 L134.871 370.421 Z" fill="#000000" fill-rule="evenodd" fill-opacity="1" /><path clip-path="url(#clip110)" d="M68.4365 262.962 Q64.8254 262.962 62.9967 266.526 Q61.1912 270.068 61.1912 277.198 Q61.1912 284.304 62.9967 287.869 Q64.8254 291.411 68.4365 291.411 Q72.0707 291.411 73.8763 287.869 Q75.705 284.304 75.705 277.198 Q75.705 270.068 73.8763 266.526 Q72.0707 262.962 68.4365 262.962 M68.4365 259.258 Q74.2467 259.258 77.3022 263.864 Q80.3809 268.448 80.3809 277.198 Q80.3809 285.924 77.3022 290.531 Q74.2467 295.114 68.4365 295.114 Q62.6264 295.114 59.5477 290.531 Q56.4921 285.924 56.4921 277.198 Q56.4921 268.448 59.5477 263.864 Q62.6264 259.258 68.4365 259.258 Z" fill="#000000" fill-rule="evenodd" fill-opacity="1" /><path clip-path="url(#clip110)" d="M88.5984 288.563 L93.4827 288.563 L93.4827 294.443 L88.5984 294.443 L88.5984 288.563 Z" fill="#000000" fill-rule="evenodd" fill-opacity="1" /><path clip-path="url(#clip110)" d="M103.714 259.883 L122.07 259.883 L122.07 263.818 L107.996 263.818 L107.996 272.29 Q109.015 271.943 110.034 271.781 Q111.052 271.596 112.071 271.596 Q117.858 271.596 121.237 274.767 Q124.617 277.938 124.617 283.355 Q124.617 288.934 121.145 292.036 Q117.672 295.114 111.353 295.114 Q109.177 295.114 106.909 294.744 Q104.663 294.373 102.256 293.633 L102.256 288.934 Q104.339 290.068 106.561 290.623 Q108.784 291.179 111.26 291.179 Q115.265 291.179 117.603 289.073 Q119.941 286.966 119.941 283.355 Q119.941 279.744 117.603 277.637 Q115.265 275.531 111.26 275.531 Q109.385 275.531 107.51 275.948 Q105.659 276.364 103.714 277.244 L103.714 259.883 Z" fill="#000000" fill-rule="evenodd" fill-opacity="1" /><path clip-path="url(#clip110)" d="M143.83 262.962 Q140.219 262.962 138.39 266.526 Q136.584 270.068 136.584 277.198 Q136.584 284.304 138.39 287.869 Q140.219 291.411 143.83 291.411 Q147.464 291.411 149.269 287.869 Q151.098 284.304 151.098 277.198 Q151.098 270.068 149.269 266.526 Q147.464 262.962 143.83 262.962 M143.83 259.258 Q149.64 259.258 152.695 263.864 Q155.774 268.448 155.774 277.198 Q155.774 285.924 152.695 290.531 Q149.64 295.114 143.83 295.114 Q138.019 295.114 134.941 290.531 Q131.885 285.924 131.885 277.198 Q131.885 268.448 134.941 263.864 Q138.019 259.258 143.83 259.258 Z" fill="#000000" fill-rule="evenodd" fill-opacity="1" /><path clip-path="url(#clip110)" d="M69.4319 152.424 Q65.8208 152.424 63.9921 155.988 Q62.1865 159.53 62.1865 166.66 Q62.1865 173.766 63.9921 177.331 Q65.8208 180.873 69.4319 180.873 Q73.0661 180.873 74.8717 177.331 Q76.7004 173.766 76.7004 166.66 Q76.7004 159.53 74.8717 155.988 Q73.0661 152.424 69.4319 152.424 M69.4319 148.72 Q75.242 148.72 78.2976 153.326 Q81.3763 157.91 81.3763 166.66 Q81.3763 175.387 78.2976 179.993 Q75.242 184.576 69.4319 184.576 Q63.6217 184.576 60.543 179.993 Q57.4875 175.387 57.4875 166.66 Q57.4875 157.91 60.543 153.326 Q63.6217 148.72 69.4319 148.72 Z" fill="#000000" fill-rule="evenodd" fill-opacity="1" /><path clip-path="url(#clip110)" d="M89.5938 178.025 L94.478 178.025 L94.478 183.905 L89.5938 183.905 L89.5938 178.025 Z" fill="#000000" fill-rule="evenodd" fill-opacity="1" /><path clip-path="url(#clip110)" d="M103.483 149.345 L125.705 149.345 L125.705 151.336 L113.158 183.905 L108.274 183.905 L120.08 153.28 L103.483 153.28 L103.483 149.345 Z" fill="#000000" fill-rule="evenodd" fill-opacity="1" /><path clip-path="url(#clip110)" d="M134.871 149.345 L153.228 149.345 L153.228 153.28 L139.154 153.28 L139.154 161.752 Q140.172 161.405 141.191 161.243 Q142.209 161.058 143.228 161.058 Q149.015 161.058 152.394 164.229 Q155.774 167.4 155.774 172.817 Q155.774 178.396 152.302 181.498 Q148.83 184.576 142.51 184.576 Q140.334 184.576 138.066 184.206 Q135.82 183.836 133.413 183.095 L133.413 178.396 Q135.496 179.53 137.719 180.086 Q139.941 180.641 142.418 180.641 Q146.422 180.641 148.76 178.535 Q151.098 176.428 151.098 172.817 Q151.098 169.206 148.76 167.1 Q146.422 164.993 142.418 164.993 Q140.543 164.993 138.668 165.41 Q136.816 165.826 134.871 166.706 L134.871 149.345 Z" fill="#000000" fill-rule="evenodd" fill-opacity="1" /><path clip-path="url(#clip110)" d="M59.2467 69.432 L66.8856 69.432 L66.8856 43.0664 L58.5754 44.733 L58.5754 40.4738 L66.8393 38.8071 L71.5152 38.8071 L71.5152 69.432 L79.154 69.432 L79.154 73.3671 L59.2467 73.3671 L59.2467 69.432 Z" fill="#000000" fill-rule="evenodd" fill-opacity="1" /><path clip-path="url(#clip110)" d="M88.5984 67.4875 L93.4827 67.4875 L93.4827 73.3671 L88.5984 73.3671 L88.5984 67.4875 Z" fill="#000000" fill-rule="evenodd" fill-opacity="1" /><path clip-path="url(#clip110)" d="M113.668 41.8858 Q110.057 41.8858 108.228 45.4506 Q106.422 48.9923 106.422 56.1218 Q106.422 63.2283 108.228 66.7931 Q110.057 70.3347 113.668 70.3347 Q117.302 70.3347 119.108 66.7931 Q120.936 63.2283 120.936 56.1218 Q120.936 48.9923 119.108 45.4506 Q117.302 41.8858 113.668 41.8858 M113.668 38.1821 Q119.478 38.1821 122.533 42.7886 Q125.612 47.3719 125.612 56.1218 Q125.612 64.8487 122.533 69.4551 Q119.478 74.0384 113.668 74.0384 Q107.858 74.0384 104.779 69.4551 Q101.723 64.8487 101.723 56.1218 Q101.723 47.3719 104.779 42.7886 Q107.858 38.1821 113.668 38.1821 Z" fill="#000000" fill-rule="evenodd" fill-opacity="1" /><path clip-path="url(#clip110)" d="M143.83 41.8858 Q140.219 41.8858 138.39 45.4506 Q136.584 48.9923 136.584 56.1218 Q136.584 63.2283 138.39 66.7931 Q140.219 70.3347 143.83 70.3347 Q147.464 70.3347 149.269 66.7931 Q151.098 63.2283 151.098 56.1218 Q151.098 48.9923 149.269 45.4506 Q147.464 41.8858 143.83 41.8858 M143.83 38.1821 Q149.64 38.1821 152.695 42.7886 Q155.774 47.3719 155.774 56.1218 Q155.774 64.8487 152.695 69.4551 Q149.64 74.0384 143.83 74.0384 Q138.019 74.0384 134.941 69.4551 Q131.885 64.8487 131.885 56.1218 Q131.885 47.3719 134.941 42.7886 Q138.019 38.1821 143.83 38.1821 Z" fill="#000000" fill-rule="evenodd" fill-opacity="1" /><path clip-path="url(#clip112)" d="
M195.995 940.39 L486.086 940.39 L486.086 -386.064 L195.995 -386.064 L195.995 940.39  Z
  " fill="#808080" fill-rule="evenodd" fill-opacity="0.3"/>
<polyline clip-path="url(#clip112)" style="stroke:#000000; stroke-linecap:round; stroke-linejoin:round; stroke-width:4; stroke-opacity:0.3; fill:none" points="
  195.995,940.39 486.086,940.39 486.086,-386.064 195.995,-386.064 195.995,940.39 
  "/>
<path clip-path="url(#clip112)" d="
M195.995 940.39 L268.518 940.39 L268.518 -386.064 L195.995 -386.064 L195.995 940.39  Z
  " fill="#808080" fill-rule="evenodd" fill-opacity="0.3"/>
<polyline clip-path="url(#clip112)" style="stroke:#000000; stroke-linecap:round; stroke-linejoin:round; stroke-width:4; stroke-opacity:0.3; fill:none" points="
  195.995,940.39 268.518,940.39 268.518,-386.064 195.995,-386.064 195.995,940.39 
  "/>
<path clip-path="url(#clip112)" d="
M620.771 940.39 L1232.04 940.39 L1232.04 -386.064 L620.771 -386.064 L620.771 940.39  Z
  " fill="#808080" fill-rule="evenodd" fill-opacity="0.3"/>
<polyline clip-path="url(#clip112)" style="stroke:#000000; stroke-linecap:round; stroke-linejoin:round; stroke-width:4; stroke-opacity:0.3; fill:none" points="
  620.771,940.39 1232.04,940.39 1232.04,-386.064 620.771,-386.064 620.771,940.39 
  "/>
<polyline clip-path="url(#clip112)" style="stroke:#000000; stroke-linecap:round; stroke-linejoin:round; stroke-width:16; stroke-opacity:1; fill:none" stroke-dasharray="8, 16" points="
  195.995,498.239 206.355,498.239 216.716,498.239 227.076,498.239 237.436,498.239 247.797,498.239 258.157,498.239 268.518,498.239 278.878,498.239 289.238,498.239 
  299.599,498.239 309.959,498.239 320.32,498.239 330.68,498.239 341.04,498.239 351.401,498.239 361.761,498.239 372.122,498.239 382.482,498.239 392.842,498.239 
  403.203,498.239 413.563,498.239 423.924,498.239 434.284,498.239 444.644,498.239 455.005,498.239 465.365,498.239 475.726,498.239 486.086,498.239 496.446,498.236 
  506.807,498.194 517.167,497.727 527.528,495.372 537.888,489.818 548.249,481.137 558.609,469.174 568.969,452.616 579.33,427.859 589.69,384.161 600.051,273.276 
  610.411,86.0833 620.771,68.7895 631.132,65.4498 641.492,63.6982 651.853,62.5594 662.213,61.7439 672.573,61.1252 682.934,60.6367 693.294,60.2402 703.655,59.9108 
  714.015,59.6323 724.375,59.3936 734.736,59.1863 745.096,59.0045 755.457,58.844 765.817,58.7005 776.177,58.572 786.538,58.4561 796.898,58.3508 807.259,58.2548 
  817.619,58.1668 827.979,58.0859 838.34,58.0115 848.7,57.9426 859.061,57.8784 869.421,57.8188 879.781,57.7633 890.142,57.711 900.502,57.6625 910.863,57.6164 
  921.223,57.5736 931.583,57.5326 941.944,57.4945 952.304,57.4581 962.665,57.4238 973.025,57.3913 983.385,57.3601 993.746,57.331 1004.11,57.3028 1014.47,57.2763 
  1024.83,57.251 1035.19,57.2266 1045.55,57.2037 1055.91,57.1817 1066.27,57.1603 1076.63,57.1406 1086.99,57.1214 1097.35,57.103 1107.71,57.0858 1118.07,57.0691 
  1128.43,57.0535 1138.79,57.0387 1149.15,57.0248 1159.51,57.012 1169.87,57.0003 1180.23,56.9898 1190.59,56.9808 1200.95,56.9731 1211.31,56.9654 1221.67,56.9584 
  1232.04,56.9542 
  "/>
<polyline clip-path="url(#clip112)" style="stroke:#2000d4; stroke-linecap:round; stroke-linejoin:round; stroke-width:16; stroke-opacity:1; fill:none" points="
  195.995,57.8181 206.355,58.6448 216.716,59.3252 227.076,59.9706 237.436,60.6106 247.797,61.2602 258.157,61.9264 268.518,62.6148 278.878,63.333 289.238,64.0835 
  299.599,64.8723 309.959,65.7033 320.32,66.582 330.68,67.5133 341.04,68.5003 351.401,69.5523 361.761,70.6761 372.122,71.878 382.482,73.1681 392.842,74.5585 
  403.203,76.0577 413.563,77.6814 423.924,79.4446 434.284,81.371 444.644,83.4819 455.005,85.8015 465.365,88.374 475.726,91.242 486.086,94.4586 496.446,98.1037 
  506.807,102.266 517.167,107.091 527.528,112.765 537.888,119.578 548.249,127.97 558.609,138.706 568.969,153.231 579.33,174.735 589.69,212.434 600.051,307.314 
  610.411,472.119 620.771,487.226 631.132,490.122 641.492,491.64 651.853,492.627 662.213,493.334 672.573,493.87 682.934,494.293 693.294,494.636 703.655,494.922 
  714.015,495.163 724.375,495.37 734.736,495.549 745.096,495.706 755.457,495.846 765.817,495.97 776.177,496.081 786.538,496.181 796.898,496.272 807.259,496.355 
  817.619,496.431 827.979,496.501 838.34,496.566 848.7,496.625 859.061,496.681 869.421,496.733 879.781,496.78 890.142,496.826 900.502,496.868 910.863,496.907 
  921.223,496.945 931.583,496.98 941.944,497.013 952.304,497.044 962.665,497.074 973.025,497.102 983.385,497.129 993.746,497.154 1004.11,497.178 1014.47,497.201 
  1024.83,497.223 1035.19,497.244 1045.55,497.264 1055.91,497.283 1066.27,497.301 1076.63,497.318 1086.99,497.335 1097.35,497.35 1107.71,497.365 1118.07,497.38 
  1128.43,497.393 1138.79,497.406 1149.15,497.418 1159.51,497.429 1169.87,497.438 1180.23,497.447 1190.59,497.453 1200.95,497.455 1211.31,497.455 1221.67,497.455 
  1232.04,497.455 
  "/>
<polyline clip-path="url(#clip112)" style="stroke:#008900; stroke-linecap:round; stroke-linejoin:round; stroke-width:16; stroke-opacity:1; fill:none" points="
  195.995,379.097 206.355,379.558 216.716,380.028 227.076,380.396 237.436,380.779 247.797,381.051 258.157,381.301 268.518,381.502 278.878,381.643 289.238,381.722 
  299.599,381.754 309.959,381.68 320.32,381.542 330.68,381.309 341.04,380.967 351.401,380.483 361.761,379.84 372.122,379.038 382.482,378.138 392.842,377.246 
  403.203,376.427 413.563,375.718 423.924,375.141 434.284,374.718 444.644,374.457 455.005,374.387 465.365,374.526 475.726,374.901 486.086,375.559 496.446,376.553 
  506.807,377.955 517.167,379.876 527.528,383.593 537.888,385.976 548.249,390.758 558.609,397.411 568.969,406.945 579.33,421.126 589.69,442.988 600.051,475.001 
  610.411,497.349 620.771,497.888 631.132,497.954 641.492,497.968 651.853,497.968 662.213,497.968 672.573,497.968 682.934,497.968 693.294,497.968 703.655,497.968 
  714.015,497.968 724.375,497.968 734.736,497.968 745.096,497.968 755.457,497.968 765.817,497.968 776.177,497.968 786.538,497.968 796.898,497.968 807.259,497.968 
  817.619,497.968 827.979,497.968 838.34,497.968 848.7,497.968 859.061,497.968 869.421,497.968 879.781,497.968 890.142,497.968 900.502,497.968 910.863,497.968 
  921.223,497.968 931.583,497.968 941.944,497.968 952.304,497.968 962.665,497.968 973.025,497.968 983.385,497.968 993.746,497.968 1004.11,497.968 1014.47,497.968 
  1024.83,497.968 1035.19,497.968 1045.55,497.968 1055.91,497.968 1066.27,497.968 1076.63,497.968 1086.99,497.968 1097.35,497.968 1107.71,497.968 1118.07,497.968 
  1128.43,497.968 1138.79,497.968 1149.15,497.968 1159.51,497.968 1169.87,497.968 1180.23,497.968 1190.59,497.968 1200.95,497.968 1211.31,497.968 1221.67,497.968 
  1232.04,497.968 
  "/>
</svg>
