<?xml version="1.0" encoding="utf-8"?>
<svg xmlns="http://www.w3.org/2000/svg" xmlns:xlink="http://www.w3.org/1999/xlink" width="325" height="150" viewBox="0 0 1300 600">
<defs>
  <clipPath id="clip440">
    <rect x="0" y="0" width="1300" height="600"/>
  </clipPath>
</defs>
<path clip-path="url(#clip440)" d="
M0 600 L1300 600 L1300 0 L0 0  Z
  " fill="#ffffff" fill-rule="evenodd" fill-opacity="1"/>
<defs>
  <clipPath id="clip441">
    <rect x="260" y="0" width="911" height="600"/>
  </clipPath>
</defs>
<path clip-path="url(#clip440)" d="
M200.094 501.1 L1252.76 501.1 L1252.76 47.2441 L200.094 47.2441  Z
  " fill="#ffffff" fill-rule="evenodd" fill-opacity="1"/>
<defs>
  <clipPath id="clip442">
    <rect x="200" y="47" width="1054" height="455"/>
  </clipPath>
</defs>
<polyline clip-path="url(#clip440)" style="stroke:#000000; stroke-linecap:butt; stroke-linejoin:round; stroke-width:4; stroke-opacity:1; fill:none" points="
  200.094,501.1 1252.76,501.1 
  "/>
<polyline clip-path="url(#clip440)" style="stroke:#000000; stroke-linecap:butt; stroke-linejoin:round; stroke-width:4; stroke-opacity:1; fill:none" points="
  200.094,501.1 200.094,482.203 
  "/>
<polyline clip-path="url(#clip440)" style="stroke:#000000; stroke-linecap:butt; stroke-linejoin:round; stroke-width:4; stroke-opacity:1; fill:none" points="
  548.658,501.1 548.658,482.203 
  "/>
<polyline clip-path="url(#clip440)" style="stroke:#000000; stroke-linecap:butt; stroke-linejoin:round; stroke-width:4; stroke-opacity:1; fill:none" points="
  897.221,501.1 897.221,482.203 
  "/>
<polyline clip-path="url(#clip440)" style="stroke:#000000; stroke-linecap:butt; stroke-linejoin:round; stroke-width:4; stroke-opacity:1; fill:none" points="
  1245.78,501.1 1245.78,482.203 
  "/>
<path clip-path="url(#clip440)" d="M200.094 526.149 Q195.581 526.149 193.295 530.605 Q191.038 535.032 191.038 543.944 Q191.038 552.827 193.295 557.283 Q195.581 561.71 200.094 561.71 Q204.637 561.71 206.894 557.283 Q209.18 552.827 209.18 543.944 Q209.18 535.032 206.894 530.605 Q204.637 526.149 200.094 526.149 M200.094 521.519 Q207.357 521.519 211.177 527.277 Q215.025 533.006 215.025 543.944 Q215.025 554.852 211.177 560.61 Q207.357 566.339 200.094 566.339 Q192.832 566.339 188.983 560.61 Q185.164 554.852 185.164 543.944 Q185.164 533.006 188.983 527.277 Q192.832 521.519 200.094 521.519 Z" fill="#000000" fill-rule="evenodd" fill-opacity="1" /><path clip-path="url(#clip440)" d="M517.032 522.3 L539.977 522.3 L539.977 527.219 L522.385 527.219 L522.385 537.809 Q523.658 537.375 524.931 537.173 Q526.204 536.941 527.477 536.941 Q534.711 536.941 538.936 540.905 Q543.16 544.87 543.16 551.64 Q543.16 558.614 538.82 562.491 Q534.48 566.339 526.58 566.339 Q523.861 566.339 521.025 565.876 Q518.218 565.413 515.209 564.487 L515.209 558.614 Q517.813 560.031 520.591 560.726 Q523.369 561.42 526.465 561.42 Q531.47 561.42 534.393 558.787 Q537.315 556.154 537.315 551.64 Q537.315 547.126 534.393 544.493 Q531.47 541.86 526.465 541.86 Q524.121 541.86 521.777 542.381 Q519.462 542.902 517.032 544.001 L517.032 522.3 Z" fill="#000000" fill-rule="evenodd" fill-opacity="1" /><path clip-path="url(#clip440)" d="M567.176 526.149 Q562.662 526.149 560.377 530.605 Q558.12 535.032 558.12 543.944 Q558.12 552.827 560.377 557.283 Q562.662 561.71 567.176 561.71 Q571.719 561.71 573.976 557.283 Q576.262 552.827 576.262 543.944 Q576.262 535.032 573.976 530.605 Q571.719 526.149 567.176 526.149 M567.176 521.519 Q574.439 521.519 578.258 527.277 Q582.107 533.006 582.107 543.944 Q582.107 554.852 578.258 560.61 Q574.439 566.339 567.176 566.339 Q559.914 566.339 556.065 560.61 Q552.246 554.852 552.246 543.944 Q552.246 533.006 556.065 527.277 Q559.914 521.519 567.176 521.519 Z" fill="#000000" fill-rule="evenodd" fill-opacity="1" /><path clip-path="url(#clip440)" d="M846.73 560.581 L856.278 560.581 L856.278 527.624 L845.891 529.708 L845.891 524.384 L856.22 522.3 L862.065 522.3 L862.065 560.581 L871.614 560.581 L871.614 565.5 L846.73 565.5 L846.73 560.581 Z" fill="#000000" fill-rule="evenodd" fill-opacity="1" /><path clip-path="url(#clip440)" d="M895.919 526.149 Q891.405 526.149 889.119 530.605 Q886.863 535.032 886.863 543.944 Q886.863 552.827 889.119 557.283 Q891.405 561.71 895.919 561.71 Q900.462 561.71 902.719 557.283 Q905.005 552.827 905.005 543.944 Q905.005 535.032 902.719 530.605 Q900.462 526.149 895.919 526.149 M895.919 521.519 Q903.182 521.519 907.001 527.277 Q910.85 533.006 910.85 543.944 Q910.85 554.852 907.001 560.61 Q903.182 566.339 895.919 566.339 Q888.656 566.339 884.808 560.61 Q880.989 554.852 880.989 543.944 Q880.989 533.006 884.808 527.277 Q888.656 521.519 895.919 521.519 Z" fill="#000000" fill-rule="evenodd" fill-opacity="1" /><path clip-path="url(#clip440)" d="M933.622 526.149 Q929.108 526.149 926.822 530.605 Q924.565 535.032 924.565 543.944 Q924.565 552.827 926.822 557.283 Q929.108 561.71 933.622 561.71 Q938.164 561.71 940.421 557.283 Q942.707 552.827 942.707 543.944 Q942.707 535.032 940.421 530.605 Q938.164 526.149 933.622 526.149 M933.622 521.519 Q940.884 521.519 944.704 527.277 Q948.552 533.006 948.552 543.944 Q948.552 554.852 944.704 560.61 Q940.884 566.339 933.622 566.339 Q926.359 566.339 922.51 560.61 Q918.691 554.852 918.691 543.944 Q918.691 533.006 922.51 527.277 Q926.359 521.519 933.622 521.519 Z" fill="#000000" fill-rule="evenodd" fill-opacity="1" /><path clip-path="url(#clip440)" d="M1195.29 560.581 L1204.84 560.581 L1204.84 527.624 L1194.45 529.708 L1194.45 524.384 L1204.78 522.3 L1210.63 522.3 L1210.63 560.581 L1220.18 560.581 L1220.18 565.5 L1195.29 565.5 L1195.29 560.581 Z" fill="#000000" fill-rule="evenodd" fill-opacity="1" /><path clip-path="url(#clip440)" d="M1232.04 522.3 L1254.99 522.3 L1254.99 527.219 L1237.39 527.219 L1237.39 537.809 Q1238.67 537.375 1239.94 537.173 Q1241.21 536.941 1242.49 536.941 Q1249.72 536.941 1253.94 540.905 Q1258.17 544.87 1258.17 551.64 Q1258.17 558.614 1253.83 562.491 Q1249.49 566.339 1241.59 566.339 Q1238.87 566.339 1236.03 565.876 Q1233.23 565.413 1230.22 564.487 L1230.22 558.614 Q1232.82 560.031 1235.6 560.726 Q1238.38 561.42 1241.47 561.42 Q1246.48 561.42 1249.4 558.787 Q1252.32 556.154 1252.32 551.64 Q1252.32 547.126 1249.4 544.493 Q1246.48 541.86 1241.47 541.86 Q1239.13 541.86 1236.79 542.381 Q1234.47 542.902 1232.04 544.001 L1232.04 522.3 Z" fill="#000000" fill-rule="evenodd" fill-opacity="1" /><path clip-path="url(#clip440)" d="M1282.18 526.149 Q1277.67 526.149 1275.39 530.605 Q1273.13 535.032 1273.13 543.944 Q1273.13 552.827 1275.39 557.283 Q1277.67 561.71 1282.18 561.71 Q1286.73 561.71 1288.98 557.283 Q1291.27 552.827 1291.27 543.944 Q1291.27 535.032 1288.98 530.605 Q1286.73 526.149 1282.18 526.149 M1282.18 521.519 Q1289.45 521.519 1293.27 527.277 Q1297.12 533.006 1297.12 543.944 Q1297.12 554.852 1293.27 560.61 Q1289.45 566.339 1282.18 566.339 Q1274.92 566.339 1271.07 560.61 Q1267.25 554.852 1267.25 543.944 Q1267.25 533.006 1271.07 527.277 Q1274.92 521.519 1282.18 521.519 Z" fill="#000000" fill-rule="evenodd" fill-opacity="1" /><polyline clip-path="url(#clip440)" style="stroke:#000000; stroke-linecap:butt; stroke-linejoin:round; stroke-width:4; stroke-opacity:1; fill:none" points="
  200.094,501.1 200.094,47.2441 
  "/>
<polyline clip-path="url(#clip440)" style="stroke:#000000; stroke-linecap:butt; stroke-linejoin:round; stroke-width:4; stroke-opacity:1; fill:none" points="
  200.094,487.84 218.992,487.84 
  "/>
<polyline clip-path="url(#clip440)" style="stroke:#000000; stroke-linecap:butt; stroke-linejoin:round; stroke-width:4; stroke-opacity:1; fill:none" points="
  200.094,380.899 218.992,380.899 
  "/>
<polyline clip-path="url(#clip440)" style="stroke:#000000; stroke-linecap:butt; stroke-linejoin:round; stroke-width:4; stroke-opacity:1; fill:none" points="
  200.094,273.958 218.992,273.958 
  "/>
<polyline clip-path="url(#clip440)" style="stroke:#000000; stroke-linecap:butt; stroke-linejoin:round; stroke-width:4; stroke-opacity:1; fill:none" points="
  200.094,167.018 218.992,167.018 
  "/>
<polyline clip-path="url(#clip440)" style="stroke:#000000; stroke-linecap:butt; stroke-linejoin:round; stroke-width:4; stroke-opacity:1; fill:none" points="
  200.094,60.077 218.992,60.077 
  "/>
<path clip-path="url(#clip440)" d="M71.4226 470.088 Q66.9087 470.088 64.6229 474.544 Q62.3659 478.971 62.3659 487.883 Q62.3659 496.766 64.6229 501.222 Q66.9087 505.649 71.4226 505.649 Q75.9654 505.649 78.2223 501.222 Q80.5082 496.766 80.5082 487.883 Q80.5082 478.971 78.2223 474.544 Q75.9654 470.088 71.4226 470.088 M71.4226 465.458 Q78.6853 465.458 82.5047 471.216 Q86.3531 476.946 86.3531 487.883 Q86.3531 498.791 82.5047 504.55 Q78.6853 510.279 71.4226 510.279 Q64.1599 510.279 60.3115 504.55 Q56.4921 498.791 56.4921 487.883 Q56.4921 476.946 60.3115 471.216 Q64.1599 465.458 71.4226 465.458 Z" fill="#000000" fill-rule="evenodd" fill-opacity="1" /><path clip-path="url(#clip440)" d="M96.625 502.09 L102.73 502.09 L102.73 509.44 L96.625 509.44 L96.625 502.09 Z" fill="#000000" fill-rule="evenodd" fill-opacity="1" /><path clip-path="url(#clip440)" d="M127.962 470.088 Q123.448 470.088 121.162 474.544 Q118.905 478.971 118.905 487.883 Q118.905 496.766 121.162 501.222 Q123.448 505.649 127.962 505.649 Q132.504 505.649 134.761 501.222 Q137.047 496.766 137.047 487.883 Q137.047 478.971 134.761 474.544 Q132.504 470.088 127.962 470.088 M127.962 465.458 Q135.224 465.458 139.044 471.216 Q142.892 476.946 142.892 487.883 Q142.892 498.791 139.044 504.55 Q135.224 510.279 127.962 510.279 Q120.699 510.279 116.851 504.55 Q113.031 498.791 113.031 487.883 Q113.031 476.946 116.851 471.216 Q120.699 465.458 127.962 465.458 Z" fill="#000000" fill-rule="evenodd" fill-opacity="1" /><path clip-path="url(#clip440)" d="M165.664 470.088 Q161.15 470.088 158.864 474.544 Q156.607 478.971 156.607 487.883 Q156.607 496.766 158.864 501.222 Q161.15 505.649 165.664 505.649 Q170.207 505.649 172.464 501.222 Q174.75 496.766 174.75 487.883 Q174.75 478.971 172.464 474.544 Q170.207 470.088 165.664 470.088 M165.664 465.458 Q172.927 465.458 176.746 471.216 Q180.594 476.946 180.594 487.883 Q180.594 498.791 176.746 504.55 Q172.927 510.279 165.664 510.279 Q158.401 510.279 154.553 504.55 Q150.734 498.791 150.734 487.883 Q150.734 476.946 154.553 471.216 Q158.401 465.458 165.664 465.458 Z" fill="#000000" fill-rule="evenodd" fill-opacity="1" /><path clip-path="url(#clip440)" d="M72.6668 363.147 Q68.1529 363.147 65.8671 367.603 Q63.6101 372.03 63.6101 380.942 Q63.6101 389.825 65.8671 394.281 Q68.1529 398.708 72.6668 398.708 Q77.2096 398.708 79.4665 394.281 Q81.7524 389.825 81.7524 380.942 Q81.7524 372.03 79.4665 367.603 Q77.2096 363.147 72.6668 363.147 M72.6668 358.518 Q79.9295 358.518 83.7489 364.276 Q87.5973 370.005 87.5973 380.942 Q87.5973 391.851 83.7489 397.609 Q79.9295 403.338 72.6668 403.338 Q65.4041 403.338 61.5558 397.609 Q57.7363 391.851 57.7363 380.942 Q57.7363 370.005 61.5558 364.276 Q65.4041 358.518 72.6668 358.518 Z" fill="#000000" fill-rule="evenodd" fill-opacity="1" /><path clip-path="url(#clip440)" d="M97.8692 395.149 L103.975 395.149 L103.975 402.499 L97.8692 402.499 L97.8692 395.149 Z" fill="#000000" fill-rule="evenodd" fill-opacity="1" /><path clip-path="url(#clip440)" d="M121.741 397.58 L142.14 397.58 L142.14 402.499 L114.709 402.499 L114.709 397.58 Q118.037 394.137 123.766 388.35 Q129.524 382.534 131 380.855 Q133.807 377.702 134.906 375.531 Q136.035 373.332 136.035 371.22 Q136.035 367.777 133.604 365.607 Q131.202 363.437 127.325 363.437 Q124.576 363.437 121.509 364.391 Q118.471 365.346 114.999 367.285 L114.999 361.382 Q118.529 359.964 121.596 359.241 Q124.663 358.518 127.209 358.518 Q133.922 358.518 137.915 361.874 Q141.908 365.231 141.908 370.844 Q141.908 373.506 140.896 375.908 Q139.912 378.28 137.279 381.521 Q136.555 382.36 132.678 386.382 Q128.801 390.375 121.741 397.58 Z" fill="#000000" fill-rule="evenodd" fill-opacity="1" /><path clip-path="url(#clip440)" d="M154.466 359.299 L177.412 359.299 L177.412 364.218 L159.819 364.218 L159.819 374.808 Q161.092 374.374 162.365 374.172 Q163.639 373.94 164.912 373.94 Q172.145 373.94 176.37 377.904 Q180.594 381.868 180.594 388.639 Q180.594 395.612 176.254 399.49 Q171.914 403.338 164.015 403.338 Q161.295 403.338 158.459 402.875 Q155.652 402.412 152.643 401.486 L152.643 395.612 Q155.247 397.03 158.025 397.725 Q160.803 398.419 163.899 398.419 Q168.905 398.419 171.827 395.786 Q174.75 393.153 174.75 388.639 Q174.75 384.125 171.827 381.492 Q168.905 378.859 163.899 378.859 Q161.555 378.859 159.211 379.38 Q156.897 379.901 154.466 381 L154.466 359.299 Z" fill="#000000" fill-rule="evenodd" fill-opacity="1" /><path clip-path="url(#clip440)" d="M71.4226 256.207 Q66.9087 256.207 64.6229 260.663 Q62.3659 265.09 62.3659 274.002 Q62.3659 282.885 64.6229 287.341 Q66.9087 291.768 71.4226 291.768 Q75.9654 291.768 78.2223 287.341 Q80.5082 282.885 80.5082 274.002 Q80.5082 265.09 78.2223 260.663 Q75.9654 256.207 71.4226 256.207 M71.4226 251.577 Q78.6853 251.577 82.5047 257.335 Q86.3531 263.064 86.3531 274.002 Q86.3531 284.91 82.5047 290.668 Q78.6853 296.397 71.4226 296.397 Q64.1599 296.397 60.3115 290.668 Q56.4921 284.91 56.4921 274.002 Q56.4921 263.064 60.3115 257.335 Q64.1599 251.577 71.4226 251.577 Z" fill="#000000" fill-rule="evenodd" fill-opacity="1" /><path clip-path="url(#clip440)" d="M96.625 288.209 L102.73 288.209 L102.73 295.558 L96.625 295.558 L96.625 288.209 Z" fill="#000000" fill-rule="evenodd" fill-opacity="1" /><path clip-path="url(#clip440)" d="M115.52 252.358 L138.465 252.358 L138.465 257.277 L120.873 257.277 L120.873 267.867 Q122.146 267.433 123.419 267.231 Q124.692 266.999 125.965 266.999 Q133.199 266.999 137.423 270.963 Q141.648 274.928 141.648 281.698 Q141.648 288.672 137.308 292.549 Q132.967 296.397 125.068 296.397 Q122.348 296.397 119.513 295.934 Q116.706 295.471 113.697 294.546 L113.697 288.672 Q116.301 290.09 119.079 290.784 Q121.856 291.478 124.952 291.478 Q129.958 291.478 132.881 288.845 Q135.803 286.212 135.803 281.698 Q135.803 277.185 132.881 274.551 Q129.958 271.918 124.952 271.918 Q122.609 271.918 120.265 272.439 Q117.95 272.96 115.52 274.06 L115.52 252.358 Z" fill="#000000" fill-rule="evenodd" fill-opacity="1" /><path clip-path="url(#clip440)" d="M165.664 256.207 Q161.15 256.207 158.864 260.663 Q156.607 265.09 156.607 274.002 Q156.607 282.885 158.864 287.341 Q161.15 291.768 165.664 291.768 Q170.207 291.768 172.464 287.341 Q174.75 282.885 174.75 274.002 Q174.75 265.09 172.464 260.663 Q170.207 256.207 165.664 256.207 M165.664 251.577 Q172.927 251.577 176.746 257.335 Q180.594 263.064 180.594 274.002 Q180.594 284.91 176.746 290.668 Q172.927 296.397 165.664 296.397 Q158.401 296.397 154.553 290.668 Q150.734 284.91 150.734 274.002 Q150.734 263.064 154.553 257.335 Q158.401 251.577 165.664 251.577 Z" fill="#000000" fill-rule="evenodd" fill-opacity="1" /><path clip-path="url(#clip440)" d="M72.6668 149.266 Q68.1529 149.266 65.8671 153.722 Q63.6101 158.149 63.6101 167.061 Q63.6101 175.944 65.8671 180.4 Q68.1529 184.827 72.6668 184.827 Q77.2096 184.827 79.4665 180.4 Q81.7524 175.944 81.7524 167.061 Q81.7524 158.149 79.4665 153.722 Q77.2096 149.266 72.6668 149.266 M72.6668 144.636 Q79.9295 144.636 83.7489 150.394 Q87.5973 156.124 87.5973 167.061 Q87.5973 177.97 83.7489 183.728 Q79.9295 189.457 72.6668 189.457 Q65.4041 189.457 61.5558 183.728 Q57.7363 177.97 57.7363 167.061 Q57.7363 156.124 61.5558 150.394 Q65.4041 144.636 72.6668 144.636 Z" fill="#000000" fill-rule="evenodd" fill-opacity="1" /><path clip-path="url(#clip440)" d="M97.8692 181.268 L103.975 181.268 L103.975 188.618 L97.8692 188.618 L97.8692 181.268 Z" fill="#000000" fill-rule="evenodd" fill-opacity="1" /><path clip-path="url(#clip440)" d="M115.23 145.418 L143.008 145.418 L143.008 147.906 L127.325 188.618 L121.22 188.618 L135.977 150.337 L115.23 150.337 L115.23 145.418 Z" fill="#000000" fill-rule="evenodd" fill-opacity="1" /><path clip-path="url(#clip440)" d="M154.466 145.418 L177.412 145.418 L177.412 150.337 L159.819 150.337 L159.819 160.927 Q161.092 160.493 162.365 160.29 Q163.639 160.059 164.912 160.059 Q172.145 160.059 176.37 164.023 Q180.594 167.987 180.594 174.758 Q180.594 181.731 176.254 185.608 Q171.914 189.457 164.015 189.457 Q161.295 189.457 158.459 188.994 Q155.652 188.531 152.643 187.605 L152.643 181.731 Q155.247 183.149 158.025 183.843 Q160.803 184.538 163.899 184.538 Q168.905 184.538 171.827 181.905 Q174.75 179.272 174.75 174.758 Q174.75 170.244 171.827 167.611 Q168.905 164.978 163.899 164.978 Q161.555 164.978 159.211 165.499 Q156.897 166.019 154.466 167.119 L154.466 145.418 Z" fill="#000000" fill-rule="evenodd" fill-opacity="1" /><path clip-path="url(#clip440)" d="M59.9354 76.758 L69.484 76.758 L69.484 43.801 L59.0963 45.8843 L59.0963 40.5603 L69.4261 38.477 L75.271 38.477 L75.271 76.758 L84.8195 76.758 L84.8195 81.677 L59.9354 81.677 L59.9354 76.758 Z" fill="#000000" fill-rule="evenodd" fill-opacity="1" /><path clip-path="url(#clip440)" d="M96.625 74.3275 L102.73 74.3275 L102.73 81.677 L96.625 81.677 L96.625 74.3275 Z" fill="#000000" fill-rule="evenodd" fill-opacity="1" /><path clip-path="url(#clip440)" d="M127.962 42.3253 Q123.448 42.3253 121.162 46.7813 Q118.905 51.2084 118.905 60.1204 Q118.905 69.0034 121.162 73.4594 Q123.448 77.8865 127.962 77.8865 Q132.504 77.8865 134.761 73.4594 Q137.047 69.0034 137.047 60.1204 Q137.047 51.2084 134.761 46.7813 Q132.504 42.3253 127.962 42.3253 M127.962 37.6957 Q135.224 37.6957 139.044 43.4538 Q142.892 49.1829 142.892 60.1204 Q142.892 71.0289 139.044 76.787 Q135.224 82.5161 127.962 82.5161 Q120.699 82.5161 116.851 76.787 Q113.031 71.0289 113.031 60.1204 Q113.031 49.1829 116.851 43.4538 Q120.699 37.6957 127.962 37.6957 Z" fill="#000000" fill-rule="evenodd" fill-opacity="1" /><path clip-path="url(#clip440)" d="M165.664 42.3253 Q161.15 42.3253 158.864 46.7813 Q156.607 51.2084 156.607 60.1204 Q156.607 69.0034 158.864 73.4594 Q161.15 77.8865 165.664 77.8865 Q170.207 77.8865 172.464 73.4594 Q174.75 69.0034 174.75 60.1204 Q174.75 51.2084 172.464 46.7813 Q170.207 42.3253 165.664 42.3253 M165.664 37.6957 Q172.927 37.6957 176.746 43.4538 Q180.594 49.1829 180.594 60.1204 Q180.594 71.0289 176.746 76.787 Q172.927 82.5161 165.664 82.5161 Q158.401 82.5161 154.553 76.787 Q150.734 71.0289 150.734 60.1204 Q150.734 49.1829 154.553 43.4538 Q158.401 37.6957 165.664 37.6957 Z" fill="#000000" fill-rule="evenodd" fill-opacity="1" /><polyline clip-path="url(#clip442)" style="stroke:#ff00ff; stroke-linecap:butt; stroke-linejoin:round; stroke-width:16; stroke-opacity:1; fill:none" points="
  207.066,274.065 214.037,274.147 221.008,274.2 227.98,274.256 234.951,274.311 241.922,274.365 248.893,274.419 255.865,274.473 262.836,274.525 269.807,274.577 
  276.778,274.629 283.75,274.679 290.721,274.729 297.692,274.778 304.663,274.827 311.635,274.875 318.606,274.922 325.577,274.969 332.549,275.015 339.52,275.061 
  346.491,275.106 353.462,275.15 360.434,275.194 367.405,275.237 374.376,275.279 381.347,275.321 388.319,275.363 395.29,275.404 402.261,275.444 409.233,275.484 
  416.204,275.523 423.175,275.562 430.146,275.6 437.118,275.638 444.089,275.675 451.06,275.712 458.031,275.749 465.003,275.785 471.974,275.82 478.945,275.855 
  485.916,275.889 492.888,275.923 499.859,275.957 506.83,275.99 513.802,276.023 520.773,276.056 527.744,276.088 534.715,276.119 541.687,276.15 548.658,276.181 
  555.629,276.212 562.6,276.242 569.572,276.271 576.543,276.301 583.514,276.33 590.485,276.358 597.457,276.387 604.428,276.415 611.399,276.442 618.371,276.47 
  625.342,276.497 632.313,276.523 639.284,276.55 646.256,276.576 653.227,276.602 660.198,276.627 667.169,276.652 674.141,276.677 681.112,276.702 688.083,276.726 
  695.054,276.751 702.026,276.774 708.997,276.798 715.968,276.822 722.94,276.845 729.911,276.868 736.882,276.89 743.853,276.913 750.825,276.935 757.796,276.957 
  764.767,276.979 771.738,277 778.71,277.022 785.681,277.043 792.652,277.064 799.623,277.085 806.595,277.105 813.566,277.126 820.537,277.146 827.509,277.166 
  834.48,277.186 841.451,277.206 848.422,277.225 855.394,277.245 862.365,277.264 869.336,277.283 876.307,277.302 883.279,277.321 890.25,277.339 897.221,277.358 
  904.193,277.376 911.164,277.394 918.135,277.412 925.106,277.43 932.078,277.448 939.049,277.465 946.02,277.483 952.991,277.5 959.963,277.518 966.934,277.535 
  973.905,277.552 980.876,277.569 987.848,277.586 994.819,277.602 1001.79,277.619 1008.76,277.635 1015.73,277.652 1022.7,277.668 1029.68,277.684 1036.65,277.7 
  1043.62,277.716 1050.59,277.732 1057.56,277.748 1064.53,277.764 1071.5,277.78 1078.47,277.795 1085.45,277.811 1092.42,277.826 1099.39,277.841 1106.36,277.857 
  1113.33,277.872 1120.3,277.887 1127.27,277.902 1134.24,277.917 1141.22,277.932 1148.19,277.947 1155.16,277.961 1162.13,277.976 1169.1,277.991 1176.07,278.005 
  1183.04,278.02 1190.01,278.034 1196.99,278.049 1203.96,278.063 1210.93,278.077 1217.9,278.091 1224.87,278.106 1231.84,278.12 1238.81,278.134 1245.78,278.148 
  1252.76,278.162 
  "/>
<polyline clip-path="url(#clip442)" style="stroke:#2000d4; stroke-linecap:butt; stroke-linejoin:round; stroke-width:16; stroke-opacity:1; fill:none" stroke-dasharray="8, 16" points="
  207.066,487.84 214.037,487.84 221.008,487.84 227.98,487.84 234.951,487.84 241.922,487.84 248.893,487.84 255.865,487.84 262.836,487.84 269.807,487.84 
  276.778,487.84 283.75,487.84 290.721,487.84 297.692,487.839 304.663,487.839 311.635,487.839 318.606,487.839 325.577,487.839 332.549,487.839 339.52,487.839 
  346.491,487.839 353.462,487.839 360.434,487.839 367.405,487.839 374.376,487.839 381.347,487.839 388.319,487.839 395.29,487.839 402.261,487.839 409.233,487.839 
  416.204,487.839 423.175,487.839 430.146,487.839 437.118,487.839 444.089,487.839 451.06,487.839 458.031,487.839 465.003,487.839 471.974,487.839 478.945,487.839 
  485.916,487.839 492.888,487.839 499.859,487.839 506.83,487.839 513.802,487.839 520.773,487.839 527.744,487.839 534.715,487.839 541.687,487.839 548.658,487.839 
  555.629,487.839 562.6,487.839 569.572,487.839 576.543,487.839 583.514,487.839 590.485,487.839 597.457,487.839 604.428,487.839 611.399,487.839 618.371,487.839 
  625.342,487.839 632.313,487.839 639.284,487.839 646.256,487.839 653.227,487.839 660.198,487.839 667.169,487.839 674.141,487.838 681.112,487.838 688.083,487.838 
  695.054,487.838 702.026,487.838 708.997,487.838 715.968,487.838 722.94,487.838 729.911,487.838 736.882,487.838 743.853,487.838 750.825,487.838 757.796,487.838 
  764.767,487.838 771.738,487.838 778.71,487.838 785.681,487.838 792.652,487.838 799.623,487.838 806.595,487.838 813.566,487.838 820.537,487.838 827.509,487.838 
  834.48,487.838 841.451,487.838 848.422,487.838 855.394,487.837 862.365,487.837 869.336,487.837 876.307,487.837 883.279,487.837 890.25,487.837 897.221,487.837 
  904.193,487.837 911.164,487.837 918.135,487.837 925.106,487.837 932.078,487.837 939.049,487.837 946.02,487.837 952.991,487.837 959.963,487.837 966.934,487.837 
  973.905,487.837 980.876,487.837 987.848,487.836 994.819,487.836 1001.79,487.836 1008.76,487.836 1015.73,487.836 1022.7,487.836 1029.68,487.836 1036.65,487.836 
  1043.62,487.836 1050.59,487.836 1057.56,487.836 1064.53,487.836 1071.5,487.836 1078.47,487.836 1085.45,487.836 1092.42,487.836 1099.39,487.835 1106.36,487.835 
  1113.33,487.835 1120.3,487.835 1127.27,487.835 1134.24,487.835 1141.22,487.835 1148.19,487.835 1155.16,487.835 1162.13,487.835 1169.1,487.835 1176.07,487.835 
  1183.04,487.834 1190.01,487.834 1196.99,487.834 1203.96,487.834 1210.93,487.834 1217.9,487.834 1224.87,487.834 1231.84,487.834 1238.81,487.834 1245.78,487.834 
  1252.76,487.834 
  "/>
<polyline clip-path="url(#clip442)" style="stroke:#008900; stroke-linecap:butt; stroke-linejoin:round; stroke-width:16; stroke-opacity:1; fill:none" stroke-dasharray="64, 40" points="
  207.066,487.84 214.037,487.84 221.008,487.839 227.98,487.839 234.951,487.839 241.922,487.839 248.893,487.839 255.865,487.839 262.836,487.839 269.807,487.839 
  276.778,487.839 283.75,487.839 290.721,487.839 297.692,487.839 304.663,487.839 311.635,487.839 318.606,487.839 325.577,487.839 332.549,487.839 339.52,487.839 
  346.491,487.839 353.462,487.839 360.434,487.839 367.405,487.839 374.376,487.839 381.347,487.839 388.319,487.839 395.29,487.839 402.261,487.839 409.233,487.839 
  416.204,487.839 423.175,487.839 430.146,487.839 437.118,487.839 444.089,487.839 451.06,487.839 458.031,487.839 465.003,487.839 471.974,487.839 478.945,487.839 
  485.916,487.839 492.888,487.839 499.859,487.839 506.83,487.839 513.802,487.839 520.773,487.839 527.744,487.839 534.715,487.839 541.687,487.839 548.658,487.839 
  555.629,487.839 562.6,487.839 569.572,487.839 576.543,487.839 583.514,487.839 590.485,487.839 597.457,487.839 604.428,487.839 611.399,487.839 618.371,487.839 
  625.342,487.839 632.313,487.839 639.284,487.839 646.256,487.839 653.227,487.839 660.198,487.839 667.169,487.839 674.141,487.839 681.112,487.839 688.083,487.839 
  695.054,487.839 702.026,487.839 708.997,487.839 715.968,487.839 722.94,487.839 729.911,487.839 736.882,487.839 743.853,487.839 750.825,487.839 757.796,487.839 
  764.767,487.839 771.738,487.839 778.71,487.839 785.681,487.839 792.652,487.839 799.623,487.839 806.595,487.839 813.566,487.839 820.537,487.839 827.509,487.839 
  834.48,487.839 841.451,487.839 848.422,487.839 855.394,487.839 862.365,487.839 869.336,487.839 876.307,487.839 883.279,487.839 890.25,487.839 897.221,487.839 
  904.193,487.839 911.164,487.839 918.135,487.839 925.106,487.839 932.078,487.839 939.049,487.839 946.02,487.839 952.991,487.839 959.963,487.839 966.934,487.839 
  973.905,487.839 980.876,487.839 987.848,487.839 994.819,487.839 1001.79,487.839 1008.76,487.839 1015.73,487.839 1022.7,487.839 1029.68,487.839 1036.65,487.839 
  1043.62,487.839 1050.59,487.839 1057.56,487.839 1064.53,487.839 1071.5,487.839 1078.47,487.839 1085.45,487.839 1092.42,487.839 1099.39,487.839 1106.36,487.839 
  1113.33,487.839 1120.3,487.839 1127.27,487.839 1134.24,487.839 1141.22,487.839 1148.19,487.839 1155.16,487.839 1162.13,487.839 1169.1,487.839 1176.07,487.839 
  1183.04,487.839 1190.01,487.839 1196.99,487.839 1203.96,487.839 1210.93,487.839 1217.9,487.839 1224.87,487.839 1231.84,487.839 1238.81,487.839 1245.78,487.839 
  1252.76,487.839 
  "/>
<polyline clip-path="url(#clip442)" style="stroke:#008900; stroke-linecap:butt; stroke-linejoin:round; stroke-width:16; stroke-opacity:1; fill:none" stroke-dasharray="8, 16" points="
  207.066,487.84 214.037,487.84 221.008,487.839 227.98,487.839 234.951,487.839 241.922,487.839 248.893,487.839 255.865,487.839 262.836,487.839 269.807,487.839 
  276.778,487.839 283.75,487.839 290.721,487.839 297.692,487.839 304.663,487.839 311.635,487.839 318.606,487.839 325.577,487.839 332.549,487.839 339.52,487.839 
  346.491,487.839 353.462,487.839 360.434,487.839 367.405,487.839 374.376,487.839 381.347,487.839 388.319,487.839 395.29,487.839 402.261,487.839 409.233,487.839 
  416.204,487.839 423.175,487.839 430.146,487.839 437.118,487.839 444.089,487.839 451.06,487.839 458.031,487.839 465.003,487.839 471.974,487.839 478.945,487.839 
  485.916,487.839 492.888,487.839 499.859,487.839 506.83,487.839 513.802,487.839 520.773,487.839 527.744,487.839 534.715,487.839 541.687,487.839 548.658,487.839 
  555.629,487.839 562.6,487.839 569.572,487.839 576.543,487.839 583.514,487.839 590.485,487.839 597.457,487.839 604.428,487.839 611.399,487.839 618.371,487.839 
  625.342,487.839 632.313,487.839 639.284,487.839 646.256,487.839 653.227,487.839 660.198,487.839 667.169,487.839 674.141,487.839 681.112,487.839 688.083,487.839 
  695.054,487.839 702.026,487.839 708.997,487.839 715.968,487.839 722.94,487.839 729.911,487.839 736.882,487.839 743.853,487.839 750.825,487.839 757.796,487.839 
  764.767,487.839 771.738,487.839 778.71,487.839 785.681,487.839 792.652,487.839 799.623,487.839 806.595,487.839 813.566,487.839 820.537,487.839 827.509,487.839 
  834.48,487.839 841.451,487.839 848.422,487.839 855.394,487.839 862.365,487.839 869.336,487.839 876.307,487.839 883.279,487.839 890.25,487.839 897.221,487.839 
  904.193,487.839 911.164,487.839 918.135,487.839 925.106,487.839 932.078,487.839 939.049,487.839 946.02,487.839 952.991,487.839 959.963,487.839 966.934,487.839 
  973.905,487.839 980.876,487.839 987.848,487.839 994.819,487.839 1001.79,487.839 1008.76,487.839 1015.73,487.839 1022.7,487.839 1029.68,487.839 1036.65,487.839 
  1043.62,487.839 1050.59,487.839 1057.56,487.839 1064.53,487.839 1071.5,487.839 1078.47,487.839 1085.45,487.839 1092.42,487.839 1099.39,487.839 1106.36,487.839 
  1113.33,487.839 1120.3,487.839 1127.27,487.839 1134.24,487.839 1141.22,487.839 1148.19,487.839 1155.16,487.839 1162.13,487.839 1169.1,487.839 1176.07,487.839 
  1183.04,487.839 1190.01,487.839 1196.99,487.839 1203.96,487.839 1210.93,487.839 1217.9,487.839 1224.87,487.839 1231.84,487.839 1238.81,487.839 1245.78,487.839 
  1252.76,487.839 
  "/>
<polyline clip-path="url(#clip442)" style="stroke:#2000d4; stroke-linecap:butt; stroke-linejoin:round; stroke-width:16; stroke-opacity:1; fill:none" points="
  207.066,487.412 214.037,487.081 221.008,486.848 227.98,486.617 234.951,486.389 241.922,486.165 248.893,485.943 255.865,485.724 262.836,485.509 269.807,485.296 
  276.778,485.086 283.75,484.879 290.721,484.675 297.692,484.474 304.663,484.276 311.635,484.08 318.606,483.887 325.577,483.696 332.549,483.508 339.52,483.323 
  346.491,483.14 353.462,482.96 360.434,482.782 367.405,482.607 374.376,482.434 381.347,482.263 388.319,482.095 395.29,481.929 402.261,481.765 409.233,481.604 
  416.204,481.444 423.175,481.287 430.146,481.132 437.118,480.979 444.089,480.828 451.06,480.679 458.031,480.532 465.003,480.387 471.974,480.244 478.945,480.102 
  485.916,479.963 492.888,479.825 499.859,479.69 506.83,479.555 513.802,479.423 520.773,479.292 527.744,479.164 534.715,479.036 541.687,478.91 548.658,478.786 
  555.629,478.664 562.6,478.543 569.572,478.423 576.543,478.305 583.514,478.188 590.485,478.073 597.457,477.959 604.428,477.847 611.399,477.736 618.371,477.626 
  625.342,477.517 632.313,477.41 639.284,477.304 646.256,477.199 653.227,477.096 660.198,476.993 667.169,476.892 674.141,476.792 681.112,476.693 688.083,476.595 
  695.054,476.498 702.026,476.403 708.997,476.308 715.968,476.214 722.94,476.121 729.911,476.03 736.882,475.939 743.853,475.849 750.825,475.76 757.796,475.672 
  764.767,475.585 771.738,475.498 778.71,475.413 785.681,475.328 792.652,475.244 799.623,475.161 806.595,475.079 813.566,474.997 820.537,474.917 827.509,474.836 
  834.48,474.757 841.451,474.678 848.422,474.601 855.394,474.523 862.365,474.447 869.336,474.371 876.307,474.295 883.279,474.221 890.25,474.146 897.221,474.073 
  904.193,474 911.164,473.928 918.135,473.856 925.106,473.785 932.078,473.714 939.049,473.644 946.02,473.574 952.991,473.505 959.963,473.436 966.934,473.368 
  973.905,473.3 980.876,473.233 987.848,473.166 994.819,473.099 1001.79,473.033 1008.76,472.968 1015.73,472.903 1022.7,472.838 1029.68,472.774 1036.65,472.71 
  1043.62,472.646 1050.59,472.583 1057.56,472.52 1064.53,472.458 1071.5,472.395 1078.47,472.334 1085.45,472.272 1092.42,472.211 1099.39,472.15 1106.36,472.09 
  1113.33,472.03 1120.3,471.97 1127.27,471.91 1134.24,471.851 1141.22,471.792 1148.19,471.733 1155.16,471.675 1162.13,471.616 1169.1,471.558 1176.07,471.501 
  1183.04,471.443 1190.01,471.386 1196.99,471.329 1203.96,471.272 1210.93,471.216 1217.9,471.16 1224.87,471.104 1231.84,471.048 1238.81,470.992 1245.78,470.937 
  1252.76,470.882 
  "/>
<polyline clip-path="url(#clip442)" style="stroke:#008900; stroke-linecap:butt; stroke-linejoin:round; stroke-width:16; stroke-opacity:1; fill:none" points="
  207.066,487.626 214.037,487.58 221.008,487.58 227.98,487.578 234.951,487.576 241.922,487.574 248.893,487.572 255.865,487.57 262.836,487.568 269.807,487.566 
  276.778,487.565 283.75,487.563 290.721,487.561 297.692,487.559 304.663,487.557 311.635,487.555 318.606,487.554 325.577,487.552 332.549,487.55 339.52,487.548 
  346.491,487.547 353.462,487.545 360.434,487.543 367.405,487.542 374.376,487.54 381.347,487.538 388.319,487.537 395.29,487.535 402.261,487.534 409.233,487.532 
  416.204,487.531 423.175,487.529 430.146,487.528 437.118,487.526 444.089,487.525 451.06,487.523 458.031,487.522 465.003,487.521 471.974,487.519 478.945,487.518 
  485.916,487.516 492.888,487.515 499.859,487.514 506.83,487.512 513.802,487.511 520.773,487.51 527.744,487.508 534.715,487.507 541.687,487.506 548.658,487.504 
  555.629,487.503 562.6,487.502 569.572,487.5 576.543,487.499 583.514,487.498 590.485,487.496 597.457,487.495 604.428,487.494 611.399,487.493 618.371,487.491 
  625.342,487.49 632.313,487.489 639.284,487.488 646.256,487.486 653.227,487.485 660.198,487.484 667.169,487.483 674.141,487.482 681.112,487.48 688.083,487.479 
  695.054,487.478 702.026,487.477 708.997,487.475 715.968,487.474 722.94,487.473 729.911,487.472 736.882,487.471 743.853,487.469 750.825,487.468 757.796,487.467 
  764.767,487.466 771.738,487.465 778.71,487.463 785.681,487.462 792.652,487.461 799.623,487.46 806.595,487.459 813.566,487.457 820.537,487.456 827.509,487.455 
  834.48,487.454 841.451,487.453 848.422,487.452 855.394,487.45 862.365,487.449 869.336,487.448 876.307,487.447 883.279,487.446 890.25,487.444 897.221,487.443 
  904.193,487.442 911.164,487.441 918.135,487.44 925.106,487.439 932.078,487.437 939.049,487.436 946.02,487.435 952.991,487.434 959.963,487.433 966.934,487.431 
  973.905,487.43 980.876,487.429 987.848,487.428 994.819,487.427 1001.79,487.426 1008.76,487.424 1015.73,487.423 1022.7,487.422 1029.68,487.421 1036.65,487.42 
  1043.62,487.419 1050.59,487.417 1057.56,487.416 1064.53,487.415 1071.5,487.414 1078.47,487.413 1085.45,487.411 1092.42,487.41 1099.39,487.409 1106.36,487.408 
  1113.33,487.407 1120.3,487.405 1127.27,487.404 1134.24,487.403 1141.22,487.402 1148.19,487.401 1155.16,487.4 1162.13,487.398 1169.1,487.397 1176.07,487.396 
  1183.04,487.395 1190.01,487.394 1196.99,487.392 1203.96,487.391 1210.93,487.39 1217.9,487.389 1224.87,487.388 1231.84,487.387 1238.81,487.385 1245.78,487.384 
  1252.76,487.383 
  "/>
<polyline clip-path="url(#clip442)" style="stroke:#7f7f7f; stroke-linecap:butt; stroke-linejoin:round; stroke-width:16; stroke-opacity:1; fill:none" points="
  207.066,60.077 214.037,133.824 221.008,179.292 227.98,211.714 234.951,236 241.922,255.121 248.893,270.656 255.865,283.6 262.836,294.6 269.807,304.098 
  276.778,312.407 283.75,319.755 290.721,326.313 297.692,332.213 304.663,337.557 311.635,342.426 318.606,346.886 325.577,350.99 332.549,354.783 339.52,358.3 
  346.491,361.574 353.462,364.629 360.434,367.489 367.405,370.172 374.376,372.696 381.347,375.074 388.319,377.321 395.29,379.446 402.261,381.46 409.233,383.371 
  416.204,385.188 423.175,386.917 430.146,388.565 437.118,390.137 444.089,391.639 451.06,393.075 458.031,394.449 465.003,395.766 471.974,397.028 478.945,398.24 
  485.916,399.403 492.888,400.521 499.859,401.596 506.83,402.631 513.802,403.627 520.773,404.587 527.744,405.513 534.715,406.405 541.687,407.267 548.658,408.099 
  555.629,408.902 562.6,409.679 569.572,410.43 576.543,411.156 583.514,411.859 590.485,412.539 597.457,413.198 604.428,413.836 611.399,414.454 618.371,415.053 
  625.342,415.634 632.313,416.197 639.284,416.744 646.256,417.274 653.227,417.789 660.198,418.289 667.169,418.775 674.141,419.246 681.112,419.704 688.083,420.149 
  695.054,420.582 702.026,421.002 708.997,421.411 715.968,421.809 722.94,422.196 729.911,422.573 736.882,422.939 743.853,423.295 750.825,423.642 757.796,423.98 
  764.767,424.309 771.738,424.629 778.71,424.941 785.681,425.245 792.652,425.541 799.623,425.83 806.595,426.111 813.566,426.385 820.537,426.652 827.509,426.913 
  834.48,427.167 841.451,427.415 848.422,427.656 855.394,427.892 862.365,428.122 869.336,428.346 876.307,428.565 883.279,428.778 890.25,428.987 897.221,429.19 
  904.193,429.389 911.164,429.583 918.135,429.772 925.106,429.957 932.078,430.138 939.049,430.314 946.02,430.486 952.991,430.655 959.963,430.819 966.934,430.98 
  973.905,431.137 980.876,431.291 987.848,431.441 994.819,431.588 1001.79,431.732 1008.76,431.872 1015.73,432.009 1022.7,432.144 1029.68,432.275 1036.65,432.403 
  1043.62,432.529 1050.59,432.652 1057.56,432.773 1064.53,432.891 1071.5,433.006 1078.47,433.119 1085.45,433.23 1092.42,433.339 1099.39,433.445 1106.36,433.549 
  1113.33,433.651 1120.3,433.751 1127.27,433.849 1134.24,433.945 1141.22,434.039 1148.19,434.131 1155.16,434.222 1162.13,434.311 1169.1,434.398 1176.07,434.483 
  1183.04,434.567 1190.01,434.65 1196.99,434.73 1203.96,434.81 1210.93,434.888 1217.9,434.964 1224.87,435.04 1231.84,435.113 1238.81,435.186 1245.78,435.258 
  1252.76,435.328 
  "/>
<polyline clip-path="url(#clip442)" style="stroke:#895f55; stroke-linecap:butt; stroke-linejoin:round; stroke-width:16; stroke-opacity:1; fill:none" points="
  214.037,487.416 221.008,487.107 227.98,486.883 234.951,486.663 241.922,486.444 248.893,486.228 255.865,486.015 262.836,485.805 269.807,485.598 276.778,485.393 
  283.75,485.192 290.721,484.993 297.692,484.796 304.663,484.603 311.635,484.412 318.606,484.224 325.577,484.038 332.549,483.855 339.52,483.674 346.491,483.496 
  353.462,483.32 360.434,483.147 367.405,482.976 374.376,482.808 381.347,482.641 388.319,482.477 395.29,482.315 402.261,482.156 409.233,481.998 416.204,481.843 
  423.175,481.69 430.146,481.538 437.118,481.389 444.089,481.242 451.06,481.097 458.031,480.954 465.003,480.812 471.974,480.673 478.945,480.535 485.916,480.399 
  492.888,480.265 499.859,480.133 506.83,480.002 513.802,479.873 520.773,479.746 527.744,479.62 534.715,479.496 541.687,479.374 548.658,479.253 555.629,479.134 
  562.6,479.016 569.572,478.899 576.543,478.784 583.514,478.671 590.485,478.559 597.457,478.448 604.428,478.338 611.399,478.23 618.371,478.123 625.342,478.018 
  632.313,477.913 639.284,477.81 646.256,477.708 653.227,477.608 660.198,477.508 667.169,477.41 674.141,477.312 681.112,477.216 688.083,477.121 695.054,477.027 
  702.026,476.933 708.997,476.841 715.968,476.75 722.94,476.66 729.911,476.571 736.882,476.483 743.853,476.395 750.825,476.309 757.796,476.223 764.767,476.139 
  771.738,476.055 778.71,475.972 785.681,475.889 792.652,475.808 799.623,475.727 806.595,475.647 813.566,475.568 820.537,475.49 827.509,475.412 834.48,475.335 
  841.451,475.259 848.422,475.183 855.394,475.108 862.365,475.034 869.336,474.96 876.307,474.887 883.279,474.815 890.25,474.743 897.221,474.672 904.193,474.601 
  911.164,474.531 918.135,474.461 925.106,474.392 932.078,474.323 939.049,474.255 946.02,474.188 952.991,474.121 959.963,474.054 966.934,473.988 973.905,473.923 
  980.876,473.857 987.848,473.793 994.819,473.728 1001.79,473.664 1008.76,473.601 1015.73,473.538 1022.7,473.475 1029.68,473.413 1036.65,473.351 1043.62,473.29 
  1050.59,473.228 1057.56,473.168 1064.53,473.107 1071.5,473.047 1078.47,472.987 1085.45,472.928 1092.42,472.869 1099.39,472.81 1106.36,472.752 1113.33,472.693 
  1120.3,472.635 1127.27,472.578 1134.24,472.52 1141.22,472.463 1148.19,472.407 1155.16,472.35 1162.13,472.294 1169.1,472.238 1176.07,472.182 1183.04,472.127 
  1190.01,472.071 1196.99,472.016 1203.96,471.962 1210.93,471.907 1217.9,471.853 1224.87,471.799 1231.84,471.745 1238.81,471.691 1245.78,471.637 1252.76,471.584 
  
  "/>
<polyline clip-path="url(#clip442)" style="stroke:#2000d4; stroke-linecap:butt; stroke-linejoin:round; stroke-width:16; stroke-opacity:1; fill:none" stroke-dasharray="64, 40" points="
  207.066,487.84 214.037,487.84 221.008,487.84 227.98,487.84 234.951,487.84 241.922,487.84 248.893,487.84 255.865,487.84 262.836,487.84 269.807,487.84 
  276.778,487.84 283.75,487.84 290.721,487.84 297.692,487.84 304.663,487.84 311.635,487.839 318.606,487.839 325.577,487.839 332.549,487.839 339.52,487.839 
  346.491,487.839 353.462,487.839 360.434,487.839 367.405,487.839 374.376,487.839 381.347,487.839 388.319,487.839 395.29,487.839 402.261,487.839 409.233,487.839 
  416.204,487.839 423.175,487.839 430.146,487.839 437.118,487.839 444.089,487.839 451.06,487.839 458.031,487.839 465.003,487.839 471.974,487.839 478.945,487.839 
  485.916,487.839 492.888,487.839 499.859,487.839 506.83,487.839 513.802,487.839 520.773,487.839 527.744,487.839 534.715,487.839 541.687,487.839 548.658,487.839 
  555.629,487.839 562.6,487.839 569.572,487.839 576.543,487.839 583.514,487.839 590.485,487.839 597.457,487.839 604.428,487.839 611.399,487.839 618.371,487.839 
  625.342,487.839 632.313,487.839 639.284,487.839 646.256,487.839 653.227,487.839 660.198,487.839 667.169,487.839 674.141,487.839 681.112,487.839 688.083,487.839 
  695.054,487.839 702.026,487.839 708.997,487.839 715.968,487.839 722.94,487.839 729.911,487.839 736.882,487.839 743.853,487.839 750.825,487.839 757.796,487.839 
  764.767,487.839 771.738,487.839 778.71,487.839 785.681,487.839 792.652,487.839 799.623,487.839 806.595,487.839 813.566,487.839 820.537,487.839 827.509,487.839 
  834.48,487.839 841.451,487.839 848.422,487.839 855.394,487.839 862.365,487.839 869.336,487.839 876.307,487.839 883.279,487.839 890.25,487.839 897.221,487.839 
  904.193,487.839 911.164,487.839 918.135,487.839 925.106,487.839 932.078,487.839 939.049,487.839 946.02,487.839 952.991,487.839 959.963,487.839 966.934,487.838 
  973.905,487.838 980.876,487.838 987.848,487.838 994.819,487.838 1001.79,487.838 1008.76,487.838 1015.73,487.838 1022.7,487.838 1029.68,487.838 1036.65,487.838 
  1043.62,487.838 1050.59,487.838 1057.56,487.838 1064.53,487.838 1071.5,487.838 1078.47,487.838 1085.45,487.838 1092.42,487.838 1099.39,487.838 1106.36,487.838 
  1113.33,487.838 1120.3,487.838 1127.27,487.838 1134.24,487.838 1141.22,487.838 1148.19,487.838 1155.16,487.838 1162.13,487.838 1169.1,487.838 1176.07,487.838 
  1183.04,487.838 1190.01,487.838 1196.99,487.838 1203.96,487.838 1210.93,487.838 1217.9,487.838 1224.87,487.838 1231.84,487.838 1238.81,487.838 1245.78,487.838 
  1252.76,487.838 
  "/>
<polyline clip-path="url(#clip442)" style="stroke:#ff221c; stroke-linecap:butt; stroke-linejoin:round; stroke-width:16; stroke-opacity:1; fill:none" points="
  207.066,316.792 214.037,316.735 221.008,316.733 227.98,316.732 234.951,316.73 241.922,316.727 248.893,316.725 255.865,316.722 262.836,316.718 269.807,316.715 
  276.778,316.711 283.75,316.707 290.721,316.702 297.692,316.697 304.663,316.692 311.635,316.686 318.606,316.681 325.577,316.675 332.549,316.668 339.52,316.662 
  346.491,316.655 353.462,316.647 360.434,316.64 367.405,316.632 374.376,316.624 381.347,316.616 388.319,316.607 395.29,316.598 402.261,316.589 409.233,316.58 
  416.204,316.57 423.175,316.56 430.146,316.55 437.118,316.54 444.089,316.529 451.06,316.518 458.031,316.507 465.003,316.496 471.974,316.484 478.945,316.473 
  485.916,316.461 492.888,316.449 499.859,316.436 506.83,316.424 513.802,316.411 520.773,316.398 527.744,316.384 534.715,316.371 541.687,316.357 548.658,316.343 
  555.629,316.329 562.6,316.315 569.572,316.301 576.543,316.286 583.514,316.271 590.485,316.256 597.457,316.241 604.428,316.226 611.399,316.21 618.371,316.194 
  625.342,316.179 632.313,316.162 639.284,316.146 646.256,316.13 653.227,316.113 660.198,316.096 667.169,316.079 674.141,316.062 681.112,316.045 688.083,316.028 
  695.054,316.01 702.026,315.992 708.997,315.974 715.968,315.956 722.94,315.938 729.911,315.92 736.882,315.901 743.853,315.883 750.825,315.864 757.796,315.845 
  764.767,315.826 771.738,315.807 778.71,315.787 785.681,315.768 792.652,315.748 799.623,315.728 806.595,315.708 813.566,315.688 820.537,315.668 827.509,315.648 
  834.48,315.627 841.451,315.607 848.422,315.586 855.394,315.565 862.365,315.544 869.336,315.523 876.307,315.502 883.279,315.48 890.25,315.459 897.221,315.437 
  904.193,315.415 911.164,315.394 918.135,315.372 925.106,315.349 932.078,315.327 939.049,315.305 946.02,315.282 952.991,315.26 959.963,315.237 966.934,315.214 
  973.905,315.191 980.876,315.168 987.848,315.145 994.819,315.122 1001.79,315.098 1008.76,315.075 1015.73,315.051 1022.7,315.027 1029.68,315.003 1036.65,314.979 
  1043.62,314.955 1050.59,314.931 1057.56,314.907 1064.53,314.882 1071.5,314.858 1078.47,314.833 1085.45,314.809 1092.42,314.784 1099.39,314.759 1106.36,314.734 
  1113.33,314.709 1120.3,314.683 1127.27,314.658 1134.24,314.632 1141.22,314.607 1148.19,314.581 1155.16,314.555 1162.13,314.53 1169.1,314.504 1176.07,314.477 
  1183.04,314.451 1190.01,314.425 1196.99,314.399 1203.96,314.372 1210.93,314.345 1217.9,314.319 1224.87,314.292 1231.84,314.265 1238.81,314.238 1245.78,314.211 
  1252.76,314.184 
  "/>
<polyline clip-path="url(#clip442)" style="stroke:#000000; stroke-linecap:butt; stroke-linejoin:round; stroke-width:16; stroke-opacity:1; fill:none" stroke-dasharray="8, 16" points="
  207.066,60.077 214.037,60.5004 221.008,60.8805 227.98,61.1669 234.951,61.4353 241.922,61.6987 248.893,61.9584 255.865,62.2147 262.836,62.4675 269.807,62.7169 
  276.778,62.9629 283.75,63.2056 290.721,63.445 297.692,63.6811 304.663,63.9139 311.635,64.1436 318.606,64.3701 325.577,64.5935 332.549,64.8139 339.52,65.0312 
  346.491,65.2456 353.462,65.457 360.434,65.6656 367.405,65.8713 374.376,66.0742 381.347,66.2743 388.319,66.4717 395.29,66.6664 402.261,66.8585 409.233,67.048 
  416.204,67.2349 423.175,67.4193 430.146,67.6013 437.118,67.7807 444.089,67.9578 451.06,68.1325 458.031,68.3049 465.003,68.475 471.974,68.6429 478.945,68.8085 
  485.916,68.972 492.888,69.1333 499.859,69.2925 506.83,69.4496 513.802,69.6047 520.773,69.7579 527.744,69.909 534.715,70.0582 541.687,70.2055 548.658,70.351 
  555.629,70.4946 562.6,70.6364 569.572,70.7765 576.543,70.9148 583.514,71.0514 590.485,71.1864 597.457,71.3197 604.428,71.4513 611.399,71.5814 618.371,71.71 
  625.342,71.837 632.313,71.9625 639.284,72.0866 646.256,72.2092 653.227,72.3303 660.198,72.4501 667.169,72.5686 674.141,72.6857 681.112,72.8014 688.083,72.9159 
  695.054,73.0291 702.026,73.1411 708.997,73.2519 715.968,73.3615 722.94,73.4699 729.911,73.5772 736.882,73.6833 743.853,73.7883 750.825,73.8923 757.796,73.9952 
  764.767,74.0971 771.738,74.1979 778.71,74.2978 785.681,74.3967 792.652,74.4946 799.623,74.5916 806.595,74.6876 813.566,74.7828 820.537,74.8771 827.509,74.9705 
  834.48,75.063 841.451,75.1548 848.422,75.2457 855.394,75.3358 862.365,75.4252 869.336,75.5138 876.307,75.6016 883.279,75.6887 890.25,75.7751 897.221,75.8608 
  904.193,75.9458 911.164,76.0301 918.135,76.1138 925.106,76.1968 932.078,76.2792 939.049,76.3609 946.02,76.4421 952.991,76.5227 959.963,76.6027 966.934,76.6821 
  973.905,76.761 980.876,76.8393 987.848,76.9171 994.819,76.9943 1001.79,77.0711 1008.76,77.1473 1015.73,77.2231 1022.7,77.2984 1029.68,77.3732 1036.65,77.4476 
  1043.62,77.5215 1050.59,77.5949 1057.56,77.668 1064.53,77.7406 1071.5,77.8128 1078.47,77.8846 1085.45,77.956 1092.42,78.027 1099.39,78.0977 1106.36,78.1679 
  1113.33,78.2378 1120.3,78.3074 1127.27,78.3766 1134.24,78.4454 1141.22,78.514 1148.19,78.5822 1155.16,78.65 1162.13,78.7176 1169.1,78.7848 1176.07,78.8518 
  1183.04,78.9185 1190.01,78.9848 1196.99,79.0509 1203.96,79.1167 1210.93,79.1822 1217.9,79.2475 1224.87,79.3125 1231.84,79.3773 1238.81,79.4418 1245.78,79.506 
  1252.76,79.57 
  "/>
</svg>
