<?xml version="1.0" encoding="utf-8"?>
<svg xmlns="http://www.w3.org/2000/svg" xmlns:xlink="http://www.w3.org/1999/xlink" width="325" height="150" viewBox="0 0 1300 600">
<defs>
  <clipPath id="clip160">
    <rect x="0" y="0" width="1300" height="600"/>
  </clipPath>
</defs>
<path clip-path="url(#clip160)" d="
M0 600 L1300 600 L1300 0 L0 0  Z
  " fill="#ffffff" fill-rule="evenodd" fill-opacity="1"/>
<defs>
  <clipPath id="clip161">
    <rect x="260" y="0" width="911" height="600"/>
  </clipPath>
</defs>
<path clip-path="url(#clip160)" d="
M200.094 501.1 L1252.76 501.1 L1252.76 47.2441 L200.094 47.2441  Z
  " fill="#ffffff" fill-rule="evenodd" fill-opacity="1"/>
<defs>
  <clipPath id="clip162">
    <rect x="200" y="47" width="1054" height="455"/>
  </clipPath>
</defs>
<polyline clip-path="url(#clip160)" style="stroke:#000000; stroke-linecap:butt; stroke-linejoin:round; stroke-width:4; stroke-opacity:1; fill:none" points="
  200.094,501.1 1252.76,501.1 
  "/>
<polyline clip-path="url(#clip160)" style="stroke:#000000; stroke-linecap:butt; stroke-linejoin:round; stroke-width:4; stroke-opacity:1; fill:none" points="
  200.094,501.1 200.094,482.203 
  "/>
<polyline clip-path="url(#clip160)" style="stroke:#000000; stroke-linecap:butt; stroke-linejoin:round; stroke-width:4; stroke-opacity:1; fill:none" points="
  548.658,501.1 548.658,482.203 
  "/>
<polyline clip-path="url(#clip160)" style="stroke:#000000; stroke-linecap:butt; stroke-linejoin:round; stroke-width:4; stroke-opacity:1; fill:none" points="
  897.221,501.1 897.221,482.203 
  "/>
<polyline clip-path="url(#clip160)" style="stroke:#000000; stroke-linecap:butt; stroke-linejoin:round; stroke-width:4; stroke-opacity:1; fill:none" points="
  1245.78,501.1 1245.78,482.203 
  "/>
<path clip-path="url(#clip160)" d="M200.094 526.149 Q195.581 526.149 193.295 530.605 Q191.038 535.032 191.038 543.944 Q191.038 552.827 193.295 557.283 Q195.581 561.71 200.094 561.71 Q204.637 561.71 206.894 557.283 Q209.18 552.827 209.18 543.944 Q209.18 535.032 206.894 530.605 Q204.637 526.149 200.094 526.149 M200.094 521.519 Q207.357 521.519 211.177 527.277 Q215.025 533.006 215.025 543.944 Q215.025 554.852 211.177 560.61 Q207.357 566.339 200.094 566.339 Q192.832 566.339 188.983 560.61 Q185.164 554.852 185.164 543.944 Q185.164 533.006 188.983 527.277 Q192.832 521.519 200.094 521.519 Z" fill="#000000" fill-rule="evenodd" fill-opacity="1" /><path clip-path="url(#clip160)" d="M517.032 522.3 L539.977 522.3 L539.977 527.219 L522.385 527.219 L522.385 537.809 Q523.658 537.375 524.931 537.173 Q526.204 536.941 527.477 536.941 Q534.711 536.941 538.936 540.905 Q543.16 544.87 543.16 551.64 Q543.16 558.614 538.82 562.491 Q534.48 566.339 526.58 566.339 Q523.861 566.339 521.025 565.876 Q518.218 565.413 515.209 564.487 L515.209 558.614 Q517.813 560.031 520.591 560.726 Q523.369 561.42 526.465 561.42 Q531.47 561.42 534.393 558.787 Q537.315 556.154 537.315 551.64 Q537.315 547.126 534.393 544.493 Q531.47 541.86 526.465 541.86 Q524.121 541.86 521.777 542.381 Q519.462 542.902 517.032 544.001 L517.032 522.3 Z" fill="#000000" fill-rule="evenodd" fill-opacity="1" /><path clip-path="url(#clip160)" d="M567.176 526.149 Q562.662 526.149 560.377 530.605 Q558.12 535.032 558.12 543.944 Q558.12 552.827 560.377 557.283 Q562.662 561.71 567.176 561.71 Q571.719 561.71 573.976 557.283 Q576.262 552.827 576.262 543.944 Q576.262 535.032 573.976 530.605 Q571.719 526.149 567.176 526.149 M567.176 521.519 Q574.439 521.519 578.258 527.277 Q582.107 533.006 582.107 543.944 Q582.107 554.852 578.258 560.61 Q574.439 566.339 567.176 566.339 Q559.914 566.339 556.065 560.61 Q552.246 554.852 552.246 543.944 Q552.246 533.006 556.065 527.277 Q559.914 521.519 567.176 521.519 Z" fill="#000000" fill-rule="evenodd" fill-opacity="1" /><path clip-path="url(#clip160)" d="M846.73 560.581 L856.278 560.581 L856.278 527.624 L845.891 529.708 L845.891 524.384 L856.22 522.3 L862.065 522.3 L862.065 560.581 L871.614 560.581 L871.614 565.5 L846.73 565.5 L846.73 560.581 Z" fill="#000000" fill-rule="evenodd" fill-opacity="1" /><path clip-path="url(#clip160)" d="M895.919 526.149 Q891.405 526.149 889.119 530.605 Q886.863 535.032 886.863 543.944 Q886.863 552.827 889.119 557.283 Q891.405 561.71 895.919 561.71 Q900.462 561.71 902.719 557.283 Q905.005 552.827 905.005 543.944 Q905.005 535.032 902.719 530.605 Q900.462 526.149 895.919 526.149 M895.919 521.519 Q903.182 521.519 907.001 527.277 Q910.85 533.006 910.85 543.944 Q910.85 554.852 907.001 560.61 Q903.182 566.339 895.919 566.339 Q888.656 566.339 884.808 560.61 Q880.989 554.852 880.989 543.944 Q880.989 533.006 884.808 527.277 Q888.656 521.519 895.919 521.519 Z" fill="#000000" fill-rule="evenodd" fill-opacity="1" /><path clip-path="url(#clip160)" d="M933.622 526.149 Q929.108 526.149 926.822 530.605 Q924.565 535.032 924.565 543.944 Q924.565 552.827 926.822 557.283 Q929.108 561.71 933.622 561.71 Q938.164 561.71 940.421 557.283 Q942.707 552.827 942.707 543.944 Q942.707 535.032 940.421 530.605 Q938.164 526.149 933.622 526.149 M933.622 521.519 Q940.884 521.519 944.704 527.277 Q948.552 533.006 948.552 543.944 Q948.552 554.852 944.704 560.61 Q940.884 566.339 933.622 566.339 Q926.359 566.339 922.51 560.61 Q918.691 554.852 918.691 543.944 Q918.691 533.006 922.51 527.277 Q926.359 521.519 933.622 521.519 Z" fill="#000000" fill-rule="evenodd" fill-opacity="1" /><path clip-path="url(#clip160)" d="M1195.29 560.581 L1204.84 560.581 L1204.84 527.624 L1194.45 529.708 L1194.45 524.384 L1204.78 522.3 L1210.63 522.3 L1210.63 560.581 L1220.18 560.581 L1220.18 565.5 L1195.29 565.5 L1195.29 560.581 Z" fill="#000000" fill-rule="evenodd" fill-opacity="1" /><path clip-path="url(#clip160)" d="M1232.04 522.3 L1254.99 522.3 L1254.99 527.219 L1237.39 527.219 L1237.39 537.809 Q1238.67 537.375 1239.94 537.173 Q1241.21 536.941 1242.49 536.941 Q1249.72 536.941 1253.94 540.905 Q1258.17 544.87 1258.17 551.64 Q1258.17 558.614 1253.83 562.491 Q1249.49 566.339 1241.59 566.339 Q1238.87 566.339 1236.03 565.876 Q1233.23 565.413 1230.22 564.487 L1230.22 558.614 Q1232.82 560.031 1235.6 560.726 Q1238.38 561.42 1241.47 561.42 Q1246.48 561.42 1249.4 558.787 Q1252.32 556.154 1252.32 551.64 Q1252.32 547.126 1249.4 544.493 Q1246.48 541.86 1241.47 541.86 Q1239.13 541.86 1236.79 542.381 Q1234.47 542.902 1232.04 544.001 L1232.04 522.3 Z" fill="#000000" fill-rule="evenodd" fill-opacity="1" /><path clip-path="url(#clip160)" d="M1282.18 526.149 Q1277.67 526.149 1275.39 530.605 Q1273.13 535.032 1273.13 543.944 Q1273.13 552.827 1275.39 557.283 Q1277.67 561.71 1282.18 561.71 Q1286.73 561.71 1288.98 557.283 Q1291.27 552.827 1291.27 543.944 Q1291.27 535.032 1288.98 530.605 Q1286.73 526.149 1282.18 526.149 M1282.18 521.519 Q1289.45 521.519 1293.27 527.277 Q1297.12 533.006 1297.12 543.944 Q1297.12 554.852 1293.27 560.61 Q1289.45 566.339 1282.18 566.339 Q1274.92 566.339 1271.07 560.61 Q1267.25 554.852 1267.25 543.944 Q1267.25 533.006 1271.07 527.277 Q1274.92 521.519 1282.18 521.519 Z" fill="#000000" fill-rule="evenodd" fill-opacity="1" /><polyline clip-path="url(#clip160)" style="stroke:#000000; stroke-linecap:butt; stroke-linejoin:round; stroke-width:4; stroke-opacity:1; fill:none" points="
  200.094,501.1 200.094,47.2441 
  "/>
<polyline clip-path="url(#clip160)" style="stroke:#000000; stroke-linecap:butt; stroke-linejoin:round; stroke-width:4; stroke-opacity:1; fill:none" points="
  200.094,487.84 218.992,487.84 
  "/>
<polyline clip-path="url(#clip160)" style="stroke:#000000; stroke-linecap:butt; stroke-linejoin:round; stroke-width:4; stroke-opacity:1; fill:none" points="
  200.094,380.899 218.992,380.899 
  "/>
<polyline clip-path="url(#clip160)" style="stroke:#000000; stroke-linecap:butt; stroke-linejoin:round; stroke-width:4; stroke-opacity:1; fill:none" points="
  200.094,273.958 218.992,273.958 
  "/>
<polyline clip-path="url(#clip160)" style="stroke:#000000; stroke-linecap:butt; stroke-linejoin:round; stroke-width:4; stroke-opacity:1; fill:none" points="
  200.094,167.018 218.992,167.018 
  "/>
<polyline clip-path="url(#clip160)" style="stroke:#000000; stroke-linecap:butt; stroke-linejoin:round; stroke-width:4; stroke-opacity:1; fill:none" points="
  200.094,60.077 218.992,60.077 
  "/>
<path clip-path="url(#clip160)" d="M71.4226 470.088 Q66.9087 470.088 64.6229 474.544 Q62.3659 478.971 62.3659 487.883 Q62.3659 496.766 64.6229 501.222 Q66.9087 505.649 71.4226 505.649 Q75.9654 505.649 78.2223 501.222 Q80.5082 496.766 80.5082 487.883 Q80.5082 478.971 78.2223 474.544 Q75.9654 470.088 71.4226 470.088 M71.4226 465.458 Q78.6853 465.458 82.5047 471.216 Q86.3531 476.946 86.3531 487.883 Q86.3531 498.791 82.5047 504.55 Q78.6853 510.279 71.4226 510.279 Q64.1599 510.279 60.3115 504.55 Q56.4921 498.791 56.4921 487.883 Q56.4921 476.946 60.3115 471.216 Q64.1599 465.458 71.4226 465.458 Z" fill="#000000" fill-rule="evenodd" fill-opacity="1" /><path clip-path="url(#clip160)" d="M96.625 502.09 L102.73 502.09 L102.73 509.44 L96.625 509.44 L96.625 502.09 Z" fill="#000000" fill-rule="evenodd" fill-opacity="1" /><path clip-path="url(#clip160)" d="M127.962 470.088 Q123.448 470.088 121.162 474.544 Q118.905 478.971 118.905 487.883 Q118.905 496.766 121.162 501.222 Q123.448 505.649 127.962 505.649 Q132.504 505.649 134.761 501.222 Q137.047 496.766 137.047 487.883 Q137.047 478.971 134.761 474.544 Q132.504 470.088 127.962 470.088 M127.962 465.458 Q135.224 465.458 139.044 471.216 Q142.892 476.946 142.892 487.883 Q142.892 498.791 139.044 504.55 Q135.224 510.279 127.962 510.279 Q120.699 510.279 116.851 504.55 Q113.031 498.791 113.031 487.883 Q113.031 476.946 116.851 471.216 Q120.699 465.458 127.962 465.458 Z" fill="#000000" fill-rule="evenodd" fill-opacity="1" /><path clip-path="url(#clip160)" d="M165.664 470.088 Q161.15 470.088 158.864 474.544 Q156.607 478.971 156.607 487.883 Q156.607 496.766 158.864 501.222 Q161.15 505.649 165.664 505.649 Q170.207 505.649 172.464 501.222 Q174.75 496.766 174.75 487.883 Q174.75 478.971 172.464 474.544 Q170.207 470.088 165.664 470.088 M165.664 465.458 Q172.927 465.458 176.746 471.216 Q180.594 476.946 180.594 487.883 Q180.594 498.791 176.746 504.55 Q172.927 510.279 165.664 510.279 Q158.401 510.279 154.553 504.55 Q150.734 498.791 150.734 487.883 Q150.734 476.946 154.553 471.216 Q158.401 465.458 165.664 465.458 Z" fill="#000000" fill-rule="evenodd" fill-opacity="1" /><path clip-path="url(#clip160)" d="M72.6668 363.147 Q68.1529 363.147 65.8671 367.603 Q63.6101 372.03 63.6101 380.942 Q63.6101 389.825 65.8671 394.281 Q68.1529 398.708 72.6668 398.708 Q77.2096 398.708 79.4665 394.281 Q81.7524 389.825 81.7524 380.942 Q81.7524 372.03 79.4665 367.603 Q77.2096 363.147 72.6668 363.147 M72.6668 358.518 Q79.9295 358.518 83.7489 364.276 Q87.5973 370.005 87.5973 380.942 Q87.5973 391.851 83.7489 397.609 Q79.9295 403.338 72.6668 403.338 Q65.4041 403.338 61.5558 397.609 Q57.7363 391.851 57.7363 380.942 Q57.7363 370.005 61.5558 364.276 Q65.4041 358.518 72.6668 358.518 Z" fill="#000000" fill-rule="evenodd" fill-opacity="1" /><path clip-path="url(#clip160)" d="M97.8692 395.149 L103.975 395.149 L103.975 402.499 L97.8692 402.499 L97.8692 395.149 Z" fill="#000000" fill-rule="evenodd" fill-opacity="1" /><path clip-path="url(#clip160)" d="M121.741 397.58 L142.14 397.58 L142.14 402.499 L114.709 402.499 L114.709 397.58 Q118.037 394.137 123.766 388.35 Q129.524 382.534 131 380.855 Q133.807 377.702 134.906 375.531 Q136.035 373.332 136.035 371.22 Q136.035 367.777 133.604 365.607 Q131.202 363.437 127.325 363.437 Q124.576 363.437 121.509 364.391 Q118.471 365.346 114.999 367.285 L114.999 361.382 Q118.529 359.964 121.596 359.241 Q124.663 358.518 127.209 358.518 Q133.922 358.518 137.915 361.874 Q141.908 365.231 141.908 370.844 Q141.908 373.506 140.896 375.908 Q139.912 378.28 137.279 381.521 Q136.555 382.36 132.678 386.382 Q128.801 390.375 121.741 397.58 Z" fill="#000000" fill-rule="evenodd" fill-opacity="1" /><path clip-path="url(#clip160)" d="M154.466 359.299 L177.412 359.299 L177.412 364.218 L159.819 364.218 L159.819 374.808 Q161.092 374.374 162.365 374.172 Q163.639 373.94 164.912 373.94 Q172.145 373.94 176.37 377.904 Q180.594 381.868 180.594 388.639 Q180.594 395.612 176.254 399.49 Q171.914 403.338 164.015 403.338 Q161.295 403.338 158.459 402.875 Q155.652 402.412 152.643 401.486 L152.643 395.612 Q155.247 397.03 158.025 397.725 Q160.803 398.419 163.899 398.419 Q168.905 398.419 171.827 395.786 Q174.75 393.153 174.75 388.639 Q174.75 384.125 171.827 381.492 Q168.905 378.859 163.899 378.859 Q161.555 378.859 159.211 379.38 Q156.897 379.901 154.466 381 L154.466 359.299 Z" fill="#000000" fill-rule="evenodd" fill-opacity="1" /><path clip-path="url(#clip160)" d="M71.4226 256.207 Q66.9087 256.207 64.6229 260.663 Q62.3659 265.09 62.3659 274.002 Q62.3659 282.885 64.6229 287.341 Q66.9087 291.768 71.4226 291.768 Q75.9654 291.768 78.2223 287.341 Q80.5082 282.885 80.5082 274.002 Q80.5082 265.09 78.2223 260.663 Q75.9654 256.207 71.4226 256.207 M71.4226 251.577 Q78.6853 251.577 82.5047 257.335 Q86.3531 263.064 86.3531 274.002 Q86.3531 284.91 82.5047 290.668 Q78.6853 296.397 71.4226 296.397 Q64.1599 296.397 60.3115 290.668 Q56.4921 284.91 56.4921 274.002 Q56.4921 263.064 60.3115 257.335 Q64.1599 251.577 71.4226 251.577 Z" fill="#000000" fill-rule="evenodd" fill-opacity="1" /><path clip-path="url(#clip160)" d="M96.625 288.209 L102.73 288.209 L102.73 295.558 L96.625 295.558 L96.625 288.209 Z" fill="#000000" fill-rule="evenodd" fill-opacity="1" /><path clip-path="url(#clip160)" d="M115.52 252.358 L138.465 252.358 L138.465 257.277 L120.873 257.277 L120.873 267.867 Q122.146 267.433 123.419 267.231 Q124.692 266.999 125.965 266.999 Q133.199 266.999 137.423 270.963 Q141.648 274.928 141.648 281.698 Q141.648 288.672 137.308 292.549 Q132.967 296.397 125.068 296.397 Q122.348 296.397 119.513 295.934 Q116.706 295.471 113.697 294.546 L113.697 288.672 Q116.301 290.09 119.079 290.784 Q121.856 291.478 124.952 291.478 Q129.958 291.478 132.881 288.845 Q135.803 286.212 135.803 281.698 Q135.803 277.185 132.881 274.551 Q129.958 271.918 124.952 271.918 Q122.609 271.918 120.265 272.439 Q117.95 272.96 115.52 274.06 L115.52 252.358 Z" fill="#000000" fill-rule="evenodd" fill-opacity="1" /><path clip-path="url(#clip160)" d="M165.664 256.207 Q161.15 256.207 158.864 260.663 Q156.607 265.09 156.607 274.002 Q156.607 282.885 158.864 287.341 Q161.15 291.768 165.664 291.768 Q170.207 291.768 172.464 287.341 Q174.75 282.885 174.75 274.002 Q174.75 265.09 172.464 260.663 Q170.207 256.207 165.664 256.207 M165.664 251.577 Q172.927 251.577 176.746 257.335 Q180.594 263.064 180.594 274.002 Q180.594 284.91 176.746 290.668 Q172.927 296.397 165.664 296.397 Q158.401 296.397 154.553 290.668 Q150.734 284.91 150.734 274.002 Q150.734 263.064 154.553 257.335 Q158.401 251.577 165.664 251.577 Z" fill="#000000" fill-rule="evenodd" fill-opacity="1" /><path clip-path="url(#clip160)" d="M72.6668 149.266 Q68.1529 149.266 65.8671 153.722 Q63.6101 158.149 63.6101 167.061 Q63.6101 175.944 65.8671 180.4 Q68.1529 184.827 72.6668 184.827 Q77.2096 184.827 79.4665 180.4 Q81.7524 175.944 81.7524 167.061 Q81.7524 158.149 79.4665 153.722 Q77.2096 149.266 72.6668 149.266 M72.6668 144.636 Q79.9295 144.636 83.7489 150.394 Q87.5973 156.124 87.5973 167.061 Q87.5973 177.97 83.7489 183.728 Q79.9295 189.457 72.6668 189.457 Q65.4041 189.457 61.5558 183.728 Q57.7363 177.97 57.7363 167.061 Q57.7363 156.124 61.5558 150.394 Q65.4041 144.636 72.6668 144.636 Z" fill="#000000" fill-rule="evenodd" fill-opacity="1" /><path clip-path="url(#clip160)" d="M97.8692 181.268 L103.975 181.268 L103.975 188.618 L97.8692 188.618 L97.8692 181.268 Z" fill="#000000" fill-rule="evenodd" fill-opacity="1" /><path clip-path="url(#clip160)" d="M115.23 145.418 L143.008 145.418 L143.008 147.906 L127.325 188.618 L121.22 188.618 L135.977 150.337 L115.23 150.337 L115.23 145.418 Z" fill="#000000" fill-rule="evenodd" fill-opacity="1" /><path clip-path="url(#clip160)" d="M154.466 145.418 L177.412 145.418 L177.412 150.337 L159.819 150.337 L159.819 160.927 Q161.092 160.493 162.365 160.29 Q163.639 160.059 164.912 160.059 Q172.145 160.059 176.37 164.023 Q180.594 167.987 180.594 174.758 Q180.594 181.731 176.254 185.608 Q171.914 189.457 164.015 189.457 Q161.295 189.457 158.459 188.994 Q155.652 188.531 152.643 187.605 L152.643 181.731 Q155.247 183.149 158.025 183.843 Q160.803 184.538 163.899 184.538 Q168.905 184.538 171.827 181.905 Q174.75 179.272 174.75 174.758 Q174.75 170.244 171.827 167.611 Q168.905 164.978 163.899 164.978 Q161.555 164.978 159.211 165.499 Q156.897 166.019 154.466 167.119 L154.466 145.418 Z" fill="#000000" fill-rule="evenodd" fill-opacity="1" /><path clip-path="url(#clip160)" d="M59.9354 76.758 L69.484 76.758 L69.484 43.801 L59.0963 45.8843 L59.0963 40.5603 L69.4261 38.477 L75.271 38.477 L75.271 76.758 L84.8195 76.758 L84.8195 81.677 L59.9354 81.677 L59.9354 76.758 Z" fill="#000000" fill-rule="evenodd" fill-opacity="1" /><path clip-path="url(#clip160)" d="M96.625 74.3275 L102.73 74.3275 L102.73 81.677 L96.625 81.677 L96.625 74.3275 Z" fill="#000000" fill-rule="evenodd" fill-opacity="1" /><path clip-path="url(#clip160)" d="M127.962 42.3253 Q123.448 42.3253 121.162 46.7813 Q118.905 51.2084 118.905 60.1204 Q118.905 69.0034 121.162 73.4594 Q123.448 77.8865 127.962 77.8865 Q132.504 77.8865 134.761 73.4594 Q137.047 69.0034 137.047 60.1204 Q137.047 51.2084 134.761 46.7813 Q132.504 42.3253 127.962 42.3253 M127.962 37.6957 Q135.224 37.6957 139.044 43.4538 Q142.892 49.1829 142.892 60.1204 Q142.892 71.0289 139.044 76.787 Q135.224 82.5161 127.962 82.5161 Q120.699 82.5161 116.851 76.787 Q113.031 71.0289 113.031 60.1204 Q113.031 49.1829 116.851 43.4538 Q120.699 37.6957 127.962 37.6957 Z" fill="#000000" fill-rule="evenodd" fill-opacity="1" /><path clip-path="url(#clip160)" d="M165.664 42.3253 Q161.15 42.3253 158.864 46.7813 Q156.607 51.2084 156.607 60.1204 Q156.607 69.0034 158.864 73.4594 Q161.15 77.8865 165.664 77.8865 Q170.207 77.8865 172.464 73.4594 Q174.75 69.0034 174.75 60.1204 Q174.75 51.2084 172.464 46.7813 Q170.207 42.3253 165.664 42.3253 M165.664 37.6957 Q172.927 37.6957 176.746 43.4538 Q180.594 49.1829 180.594 60.1204 Q180.594 71.0289 176.746 76.787 Q172.927 82.5161 165.664 82.5161 Q158.401 82.5161 154.553 76.787 Q150.734 71.0289 150.734 60.1204 Q150.734 49.1829 154.553 43.4538 Q158.401 37.6957 165.664 37.6957 Z" fill="#000000" fill-rule="evenodd" fill-opacity="1" /><polyline clip-path="url(#clip162)" style="stroke:#ff00ff; stroke-linecap:butt; stroke-linejoin:round; stroke-width:16; stroke-opacity:1; fill:none" points="
  207.066,274.065 214.037,274.146 221.008,274.162 227.98,274.186 234.951,274.212 241.922,274.241 248.893,274.271 255.865,274.303 262.836,274.338 269.807,274.375 
  276.778,274.414 283.75,274.457 290.721,274.502 297.692,274.551 304.663,274.603 311.635,274.658 318.606,274.718 325.577,274.781 332.549,274.85 339.52,274.923 
  346.491,275.001 353.462,275.084 360.434,275.174 367.405,275.27 374.376,275.373 381.347,275.482 388.319,275.6 395.29,275.726 402.261,275.86 409.233,276.004 
  416.204,276.158 423.175,276.323 430.146,276.498 437.118,276.687 444.089,276.888 451.06,277.102 458.031,277.332 465.003,277.576 471.974,277.838 478.945,278.117 
  485.916,278.414 492.888,278.731 499.859,279.069 506.83,279.429 513.802,279.812 520.773,280.22 527.744,280.653 534.715,281.114 541.687,281.603 548.658,282.122 
  555.629,282.672 562.6,283.255 569.572,283.872 576.543,284.525 583.514,285.214 590.485,285.942 597.457,286.708 604.428,287.516 611.399,288.365 618.371,289.257 
  625.342,290.192 632.313,291.171 639.284,292.194 646.256,293.262 653.227,294.375 660.198,295.532 667.169,296.733 674.141,297.977 681.112,299.262 688.083,300.588 
  695.054,301.952 702.026,303.351 708.997,304.784 715.968,306.246 722.94,307.734 729.911,309.244 736.882,310.772 743.853,312.313 750.825,313.862 757.796,315.413 
  764.767,316.961 771.738,318.499 778.71,320.023 785.681,321.524 792.652,322.998 799.623,324.437 806.595,325.836 813.566,327.189 820.537,328.489 827.509,329.732 
  834.48,330.911 841.451,332.022 848.422,333.061 855.394,334.023 862.365,334.905 869.336,335.705 876.307,336.42 883.279,337.048 890.25,337.589 897.221,338.041 
  904.193,338.406 911.164,338.683 918.135,338.874 925.106,338.982 932.078,339.007 939.049,338.954 946.02,338.825 952.991,338.624 959.963,338.355 966.934,338.021 
  973.905,337.627 980.876,337.178 987.848,336.677 994.819,336.129 1001.79,335.539 1008.76,334.911 1015.73,334.248 1022.7,333.556 1029.68,332.837 1036.65,332.096 
  1043.62,331.336 1050.59,330.56 1057.56,329.771 1064.53,328.971 1071.5,328.164 1078.47,327.352 1085.45,326.536 1092.42,325.718 1099.39,324.9 1106.36,324.084 
  1113.33,323.27 1120.3,322.461 1127.27,321.656 1134.24,320.856 1141.22,320.064 1148.19,319.278 1155.16,318.499 1162.13,317.729 1169.1,316.967 1176.07,316.213 
  1183.04,315.469 1190.01,314.733 1196.99,314.007 1203.96,313.29 1210.93,312.583 1217.9,311.885 1224.87,311.197 1231.84,310.518 1238.81,309.849 1245.78,309.19 
  1252.76,308.54 
  "/>
<polyline clip-path="url(#clip162)" style="stroke:#2000d4; stroke-linecap:butt; stroke-linejoin:round; stroke-width:16; stroke-opacity:1; fill:none" stroke-dasharray="8, 16" points="
  207.066,487.84 214.037,487.84 221.008,487.84 227.98,487.84 234.951,487.84 241.922,487.84 248.893,487.84 255.865,487.84 262.836,487.84 269.807,487.84 
  276.778,487.84 283.75,487.84 290.721,487.84 297.692,487.84 304.663,487.84 311.635,487.839 318.606,487.839 325.577,487.839 332.549,487.839 339.52,487.839 
  346.491,487.839 353.462,487.839 360.434,487.839 367.405,487.839 374.376,487.839 381.347,487.839 388.319,487.839 395.29,487.839 402.261,487.839 409.233,487.839 
  416.204,487.839 423.175,487.839 430.146,487.839 437.118,487.839 444.089,487.839 451.06,487.839 458.031,487.839 465.003,487.839 471.974,487.839 478.945,487.839 
  485.916,487.839 492.888,487.839 499.859,487.838 506.83,487.838 513.802,487.838 520.773,487.838 527.744,487.838 534.715,487.838 541.687,487.838 548.658,487.838 
  555.629,487.837 562.6,487.837 569.572,487.837 576.543,487.837 583.514,487.836 590.485,487.836 597.457,487.836 604.428,487.836 611.399,487.835 618.371,487.835 
  625.342,487.835 632.313,487.834 639.284,487.834 646.256,487.833 653.227,487.833 660.198,487.832 667.169,487.832 674.141,487.831 681.112,487.831 688.083,487.83 
  695.054,487.829 702.026,487.829 708.997,487.828 715.968,487.827 722.94,487.827 729.911,487.826 736.882,487.825 743.853,487.824 750.825,487.823 757.796,487.823 
  764.767,487.822 771.738,487.821 778.71,487.82 785.681,487.819 792.652,487.818 799.623,487.817 806.595,487.816 813.566,487.815 820.537,487.815 827.509,487.814 
  834.48,487.813 841.451,487.812 848.422,487.811 855.394,487.81 862.365,487.809 869.336,487.808 876.307,487.808 883.279,487.807 890.25,487.806 897.221,487.805 
  904.193,487.805 911.164,487.804 918.135,487.803 925.106,487.802 932.078,487.802 939.049,487.801 946.02,487.801 952.991,487.8 959.963,487.8 966.934,487.799 
  973.905,487.799 980.876,487.798 987.848,487.798 994.819,487.797 1001.79,487.797 1008.76,487.797 1015.73,487.796 1022.7,487.796 1029.68,487.796 1036.65,487.796 
  1043.62,487.795 1050.59,487.795 1057.56,487.795 1064.53,487.795 1071.5,487.795 1078.47,487.795 1085.45,487.795 1092.42,487.794 1099.39,487.794 1106.36,487.794 
  1113.33,487.794 1120.3,487.794 1127.27,487.794 1134.24,487.794 1141.22,487.794 1148.19,487.794 1155.16,487.794 1162.13,487.794 1169.1,487.794 1176.07,487.794 
  1183.04,487.794 1190.01,487.795 1196.99,487.795 1203.96,487.795 1210.93,487.795 1217.9,487.795 1224.87,487.795 1231.84,487.795 1238.81,487.795 1245.78,487.795 
  1252.76,487.795 
  "/>
<polyline clip-path="url(#clip162)" style="stroke:#008900; stroke-linecap:butt; stroke-linejoin:round; stroke-width:16; stroke-opacity:1; fill:none" stroke-dasharray="64, 40" points="
  207.066,487.84 214.037,487.839 221.008,487.839 227.98,487.839 234.951,487.839 241.922,487.839 248.893,487.839 255.865,487.839 262.836,487.839 269.807,487.839 
  276.778,487.838 283.75,487.838 290.721,487.838 297.692,487.838 304.663,487.838 311.635,487.837 318.606,487.837 325.577,487.837 332.549,487.837 339.52,487.836 
  346.491,487.836 353.462,487.836 360.434,487.836 367.405,487.835 374.376,487.835 381.347,487.834 388.319,487.834 395.29,487.833 402.261,487.833 409.233,487.832 
  416.204,487.832 423.175,487.831 430.146,487.83 437.118,487.83 444.089,487.829 451.06,487.828 458.031,487.827 465.003,487.826 471.974,487.825 478.945,487.824 
  485.916,487.823 492.888,487.822 499.859,487.82 506.83,487.819 513.802,487.817 520.773,487.816 527.744,487.814 534.715,487.812 541.687,487.81 548.658,487.808 
  555.629,487.806 562.6,487.803 569.572,487.801 576.543,487.798 583.514,487.795 590.485,487.792 597.457,487.788 604.428,487.785 611.399,487.781 618.371,487.777 
  625.342,487.772 632.313,487.768 639.284,487.763 646.256,487.757 653.227,487.752 660.198,487.746 667.169,487.74 674.141,487.733 681.112,487.726 688.083,487.718 
  695.054,487.71 702.026,487.702 708.997,487.693 715.968,487.683 722.94,487.673 729.911,487.663 736.882,487.652 743.853,487.64 750.825,487.628 757.796,487.615 
  764.767,487.601 771.738,487.587 778.71,487.572 785.681,487.556 792.652,487.539 799.623,487.522 806.595,487.504 813.566,487.485 820.537,487.465 827.509,487.444 
  834.48,487.423 841.451,487.401 848.422,487.377 855.394,487.354 862.365,487.329 869.336,487.303 876.307,487.277 883.279,487.249 890.25,487.221 897.221,487.193 
  904.193,487.163 911.164,487.133 918.135,487.103 925.106,487.072 932.078,487.04 939.049,487.008 946.02,486.976 952.991,486.943 959.963,486.91 966.934,486.877 
  973.905,486.844 980.876,486.811 987.848,486.778 994.819,486.746 1001.79,486.713 1008.76,486.68 1015.73,486.648 1022.7,486.616 1029.68,486.585 1036.65,486.554 
  1043.62,486.523 1050.59,486.493 1057.56,486.463 1064.53,486.434 1071.5,486.405 1078.47,486.377 1085.45,486.349 1092.42,486.322 1099.39,486.295 1106.36,486.268 
  1113.33,486.243 1120.3,486.217 1127.27,486.192 1134.24,486.168 1141.22,486.144 1148.19,486.12 1155.16,486.097 1162.13,486.074 1169.1,486.051 1176.07,486.029 
  1183.04,486.007 1190.01,485.986 1196.99,485.965 1203.96,485.944 1210.93,485.924 1217.9,485.903 1224.87,485.883 1231.84,485.864 1238.81,485.844 1245.78,485.825 
  1252.76,485.806 
  "/>
<polyline clip-path="url(#clip162)" style="stroke:#008900; stroke-linecap:butt; stroke-linejoin:round; stroke-width:16; stroke-opacity:1; fill:none" stroke-dasharray="8, 16" points="
  207.066,487.84 214.037,487.839 221.008,487.839 227.98,487.839 234.951,487.839 241.922,487.839 248.893,487.839 255.865,487.839 262.836,487.839 269.807,487.839 
  276.778,487.839 283.75,487.839 290.721,487.839 297.692,487.839 304.663,487.839 311.635,487.839 318.606,487.839 325.577,487.839 332.549,487.839 339.52,487.839 
  346.491,487.839 353.462,487.839 360.434,487.838 367.405,487.838 374.376,487.838 381.347,487.838 388.319,487.838 395.29,487.838 402.261,487.838 409.233,487.838 
  416.204,487.838 423.175,487.837 430.146,487.837 437.118,487.837 444.089,487.837 451.06,487.837 458.031,487.836 465.003,487.836 471.974,487.836 478.945,487.836 
  485.916,487.835 492.888,487.835 499.859,487.835 506.83,487.835 513.802,487.834 520.773,487.834 527.744,487.833 534.715,487.833 541.687,487.832 548.658,487.832 
  555.629,487.831 562.6,487.831 569.572,487.83 576.543,487.83 583.514,487.829 590.485,487.828 597.457,487.828 604.428,487.827 611.399,487.826 618.371,487.825 
  625.342,487.824 632.313,487.823 639.284,487.822 646.256,487.821 653.227,487.82 660.198,487.819 667.169,487.817 674.141,487.816 681.112,487.815 688.083,487.813 
  695.054,487.812 702.026,487.81 708.997,487.809 715.968,487.807 722.94,487.805 729.911,487.803 736.882,487.801 743.853,487.8 750.825,487.798 757.796,487.795 
  764.767,487.793 771.738,487.791 778.71,487.789 785.681,487.787 792.652,487.784 799.623,487.782 806.595,487.78 813.566,487.777 820.537,487.775 827.509,487.772 
  834.48,487.77 841.451,487.767 848.422,487.765 855.394,487.762 862.365,487.76 869.336,487.757 876.307,487.755 883.279,487.752 890.25,487.75 897.221,487.748 
  904.193,487.745 911.164,487.743 918.135,487.74 925.106,487.738 932.078,487.736 939.049,487.733 946.02,487.731 952.991,487.729 959.963,487.727 966.934,487.725 
  973.905,487.723 980.876,487.721 987.848,487.719 994.819,487.717 1001.79,487.716 1008.76,487.714 1015.73,487.712 1022.7,487.711 1029.68,487.709 1036.65,487.708 
  1043.62,487.706 1050.59,487.705 1057.56,487.704 1064.53,487.702 1071.5,487.701 1078.47,487.7 1085.45,487.699 1092.42,487.698 1099.39,487.697 1106.36,487.696 
  1113.33,487.695 1120.3,487.694 1127.27,487.693 1134.24,487.693 1141.22,487.692 1148.19,487.691 1155.16,487.691 1162.13,487.69 1169.1,487.689 1176.07,487.689 
  1183.04,487.688 1190.01,487.688 1196.99,487.687 1203.96,487.687 1210.93,487.686 1217.9,487.686 1224.87,487.685 1231.84,487.685 1238.81,487.685 1245.78,487.684 
  1252.76,487.684 
  "/>
<polyline clip-path="url(#clip162)" style="stroke:#2000d4; stroke-linecap:butt; stroke-linejoin:round; stroke-width:16; stroke-opacity:1; fill:none" points="
  207.066,487.412 214.037,487.085 221.008,486.993 227.98,486.894 234.951,486.788 241.922,486.675 248.893,486.554 255.865,486.424 262.836,486.286 269.807,486.138 
  276.778,485.98 283.75,485.81 290.721,485.629 297.692,485.435 304.663,485.228 311.635,485.006 318.606,484.768 325.577,484.514 332.549,484.242 339.52,483.952 
  346.491,483.64 353.462,483.307 360.434,482.951 367.405,482.571 374.376,482.163 381.347,481.728 388.319,481.262 395.29,480.765 402.261,480.233 409.233,479.665 
  416.204,479.058 423.175,478.411 430.146,477.719 437.118,476.981 444.089,476.194 451.06,475.354 458.031,474.459 465.003,473.506 471.974,472.491 478.945,471.41 
  485.916,470.26 492.888,469.038 499.859,467.739 506.83,466.361 513.802,464.898 520.773,463.347 527.744,461.704 534.715,459.965 541.687,458.126 548.658,456.184 
  555.629,454.134 562.6,451.973 569.572,449.697 576.543,447.305 583.514,444.792 590.485,442.156 597.457,439.396 604.428,436.509 611.399,433.496 618.371,430.355 
  625.342,427.086 632.313,423.692 639.284,420.173 646.256,416.533 653.227,412.775 660.198,408.904 667.169,404.925 674.141,400.845 681.112,396.672 688.083,392.413 
  695.054,388.079 702.026,383.68 708.997,379.228 715.968,374.733 722.94,370.211 729.911,365.672 736.882,361.133 743.853,356.607 750.825,352.11 757.796,347.655 
  764.767,343.258 771.738,338.934 778.71,334.696 785.681,330.56 792.652,326.539 799.623,322.646 806.595,318.893 813.566,315.292 820.537,311.852 827.509,308.585 
  834.48,305.497 841.451,302.598 848.422,299.892 855.394,297.387 862.365,295.085 869.336,292.989 876.307,291.103 883.279,289.427 890.25,287.961 897.221,286.704 
  904.193,285.654 911.164,284.808 918.135,284.163 925.106,283.714 932.078,283.457 939.049,283.384 946.02,283.491 952.991,283.77 959.963,284.214 966.934,284.815 
  973.905,285.566 980.876,286.457 987.848,287.482 994.819,288.631 1001.79,289.897 1008.76,291.27 1015.73,292.743 1022.7,294.308 1029.68,295.956 1036.65,297.681 
  1043.62,299.475 1050.59,301.33 1057.56,303.241 1064.53,305.202 1071.5,307.205 1078.47,309.245 1085.45,311.319 1092.42,313.419 1099.39,315.543 1106.36,317.685 
  1113.33,319.843 1120.3,322.011 1127.27,324.189 1134.24,326.371 1141.22,328.556 1148.19,330.742 1155.16,332.925 1162.13,335.105 1169.1,337.279 1176.07,339.445 
  1183.04,341.602 1190.01,343.749 1196.99,345.885 1203.96,348.008 1210.93,350.117 1217.9,352.212 1224.87,354.292 1231.84,356.356 1238.81,358.404 1245.78,360.434 
  1252.76,362.447 
  "/>
<polyline clip-path="url(#clip162)" style="stroke:#008900; stroke-linecap:butt; stroke-linejoin:round; stroke-width:16; stroke-opacity:1; fill:none" points="
  207.066,487.626 214.037,487.482 221.008,487.455 227.98,487.419 234.951,487.382 241.922,487.341 248.893,487.298 255.865,487.251 262.836,487.202 269.807,487.148 
  276.778,487.091 283.75,487.03 290.721,486.964 297.692,486.894 304.663,486.819 311.635,486.739 318.606,486.652 325.577,486.56 332.549,486.461 339.52,486.355 
  346.491,486.242 353.462,486.121 360.434,485.991 367.405,485.852 374.376,485.703 381.347,485.544 388.319,485.373 395.29,485.191 402.261,484.996 409.233,484.787 
  416.204,484.564 423.175,484.326 430.146,484.071 437.118,483.799 444.089,483.509 451.06,483.198 458.031,482.867 465.003,482.514 471.974,482.137 478.945,481.735 
  485.916,481.308 492.888,480.852 499.859,480.367 506.83,479.85 513.802,479.302 520.773,478.718 527.744,478.099 534.715,477.442 541.687,476.745 548.658,476.007 
  555.629,475.225 562.6,474.398 569.572,473.525 576.543,472.602 583.514,471.629 590.485,470.604 597.457,469.526 604.428,468.392 611.399,467.201 618.371,465.953 
  625.342,464.645 632.313,463.278 639.284,461.85 646.256,460.36 653.227,458.809 660.198,457.196 667.169,455.521 674.141,453.786 681.112,451.989 688.083,450.133 
  695.054,448.219 702.026,446.247 708.997,444.22 715.968,442.139 722.94,440.008 729.911,437.827 736.882,435.6 743.853,433.33 750.825,431.019 757.796,428.67 
  764.767,426.288 771.738,423.874 778.71,421.433 785.681,418.968 792.652,416.483 799.623,413.98 806.595,411.465 813.566,408.94 820.537,406.408 827.509,403.875 
  834.48,401.343 841.451,398.815 848.422,396.297 855.394,393.791 862.365,391.301 869.336,388.831 876.307,386.384 883.279,383.965 890.25,381.576 897.221,379.221 
  904.193,376.904 911.164,374.628 918.135,372.396 925.106,370.212 932.078,368.078 939.049,365.996 946.02,363.97 952.991,362.001 959.963,360.092 966.934,358.244 
  973.905,356.458 980.876,354.736 987.848,353.079 994.819,351.486 1001.79,349.958 1008.76,348.496 1015.73,347.098 1022.7,345.765 1029.68,344.495 1036.65,343.287 
  1043.62,342.141 1050.59,341.055 1057.56,340.028 1064.53,339.058 1071.5,338.143 1078.47,337.283 1085.45,336.475 1092.42,335.718 1099.39,335.01 1106.36,334.349 
  1113.33,333.733 1120.3,333.162 1127.27,332.633 1134.24,332.145 1141.22,331.696 1148.19,331.285 1155.16,330.91 1162.13,330.571 1169.1,330.264 1176.07,329.99 
  1183.04,329.748 1190.01,329.535 1196.99,329.351 1203.96,329.194 1210.93,329.064 1217.9,328.96 1224.87,328.881 1231.84,328.825 1238.81,328.793 1245.78,328.782 
  1252.76,328.793 
  "/>
<polyline clip-path="url(#clip162)" style="stroke:#7f7f7f; stroke-linecap:butt; stroke-linejoin:round; stroke-width:16; stroke-opacity:1; fill:none" points="
  207.066,60.077 214.037,71.0592 221.008,80.9717 227.98,92.528 234.951,102.595 241.922,111.511 248.893,119.369 255.865,126.325 262.836,132.506 269.807,138.02 
  276.778,142.956 283.75,147.386 290.721,151.375 297.692,154.975 304.663,158.233 311.635,161.187 318.606,163.871 325.577,166.314 332.549,168.543 339.52,170.58 
  346.491,172.445 353.462,174.155 360.434,175.727 367.405,177.174 374.376,178.509 381.347,179.743 388.319,180.887 395.29,181.949 402.261,182.938 409.233,183.862 
  416.204,184.727 423.175,185.54 430.146,186.307 437.118,187.033 444.089,187.724 451.06,188.383 458.031,189.015 465.003,189.624 471.974,190.215 478.945,190.791 
  485.916,191.354 492.888,191.909 499.859,192.459 506.83,193.007 513.802,193.554 520.773,194.106 527.744,194.663 534.715,195.229 541.687,195.806 548.658,196.397 
  555.629,197.005 562.6,197.631 569.572,198.278 576.543,198.949 583.514,199.645 590.485,200.369 597.457,201.123 604.428,201.91 611.399,202.73 618.371,203.587 
  625.342,204.482 632.313,205.417 639.284,206.394 646.256,207.413 653.227,208.476 660.198,209.585 667.169,210.741 674.141,211.943 681.112,213.193 688.083,214.492 
  695.054,215.838 702.026,217.231 708.997,218.672 715.968,220.158 722.94,221.69 729.911,223.264 736.882,224.88 743.853,226.535 750.825,228.226 757.796,229.951 
  764.767,231.706 771.738,233.488 778.71,235.293 785.681,237.118 792.652,238.958 799.623,240.81 806.595,242.669 813.566,244.532 820.537,246.393 827.509,248.251 
  834.48,250.099 841.451,251.937 848.422,253.759 855.394,255.563 862.365,257.348 869.336,259.11 876.307,260.848 883.279,262.56 890.25,264.247 897.221,265.907 
  904.193,267.541 911.164,269.15 918.135,270.733 925.106,272.293 932.078,273.83 939.049,275.348 946.02,276.846 952.991,278.329 959.963,279.797 966.934,281.253 
  973.905,282.7 980.876,284.138 987.848,285.571 994.819,287 1001.79,288.426 1008.76,289.852 1015.73,291.278 1022.7,292.704 1029.68,294.133 1036.65,295.564 
  1043.62,296.998 1050.59,298.434 1057.56,299.873 1064.53,301.313 1071.5,302.756 1078.47,304.199 1085.45,305.643 1092.42,307.087 1099.39,308.529 1106.36,309.97 
  1113.33,311.408 1120.3,312.842 1127.27,314.272 1134.24,315.696 1141.22,317.115 1148.19,318.526 1155.16,319.931 1162.13,321.327 1169.1,322.715 1176.07,324.093 
  1183.04,325.462 1190.01,326.821 1196.99,328.17 1203.96,329.508 1210.93,330.836 1217.9,332.152 1224.87,333.457 1231.84,334.75 1238.81,336.032 1245.78,337.303 
  1252.76,338.561 
  "/>
<polyline clip-path="url(#clip162)" style="stroke:#895f55; stroke-linecap:butt; stroke-linejoin:round; stroke-width:16; stroke-opacity:1; fill:none" points="
  214.037,487.416 221.008,487.117 227.98,487.027 234.951,486.932 241.922,486.828 248.893,486.718 255.865,486.6 262.836,486.473 269.807,486.338 276.778,486.193 
  283.75,486.039 290.721,485.873 297.692,485.696 304.663,485.507 311.635,485.304 318.606,485.087 325.577,484.856 332.549,484.607 339.52,484.342 346.491,484.058 
  353.462,483.754 360.434,483.429 367.405,483.081 374.376,482.71 381.347,482.312 388.319,481.887 395.29,481.433 402.261,480.947 409.233,480.428 416.204,479.873 
  423.175,479.281 430.146,478.649 437.118,477.974 444.089,477.253 451.06,476.485 458.031,475.665 465.003,474.792 471.974,473.861 478.945,472.871 485.916,471.816 
  492.888,470.694 499.859,469.501 506.83,468.234 513.802,466.889 520.773,465.461 527.744,463.948 534.715,462.345 541.687,460.648 548.658,458.854 555.629,456.959 
  562.6,454.959 569.572,452.851 576.543,450.632 583.514,448.298 590.485,445.847 597.457,443.276 604.428,440.585 611.399,437.77 618.371,434.831 625.342,431.769 
  632.313,428.583 639.284,425.274 646.256,421.845 653.227,418.298 660.198,414.636 667.169,410.865 674.141,406.989 681.112,403.016 688.083,398.952 695.054,394.807 
  702.026,390.589 708.997,386.309 715.968,381.978 722.94,377.608 729.911,373.212 736.882,368.803 743.853,364.395 750.825,360.002 757.796,355.638 764.767,351.319 
  771.738,347.059 778.71,342.873 785.681,338.774 792.652,334.777 799.623,330.895 806.595,327.141 813.566,323.527 820.537,320.064 827.509,316.763 834.48,313.633 
  841.451,310.682 848.422,307.918 855.394,305.346 862.365,302.973 869.336,300.801 876.307,298.834 883.279,297.073 890.25,295.52 897.221,294.174 904.193,293.034 
  911.164,292.096 918.135,291.36 925.106,290.819 932.078,290.47 939.049,290.306 946.02,290.323 952.991,290.512 959.963,290.867 966.934,291.381 973.905,292.045 
  980.876,292.85 987.848,293.79 994.819,294.854 1001.79,296.035 1008.76,297.325 1015.73,298.714 1022.7,300.194 1029.68,301.758 1036.65,303.398 1043.62,305.106 
  1050.59,306.875 1057.56,308.699 1064.53,310.57 1071.5,312.484 1078.47,314.434 1085.45,316.415 1092.42,318.423 1099.39,320.453 1106.36,322.5 1113.33,324.562 
  1120.3,326.634 1127.27,328.713 1134.24,330.797 1141.22,332.883 1148.19,334.969 1155.16,337.053 1162.13,339.132 1169.1,341.206 1176.07,343.272 1183.04,345.329 
  1190.01,347.376 1196.99,349.412 1203.96,351.436 1210.93,353.447 1217.9,355.444 1224.87,357.427 1231.84,359.394 1238.81,361.346 1245.78,363.281 1252.76,365.2 
  
  "/>
<polyline clip-path="url(#clip162)" style="stroke:#2000d4; stroke-linecap:butt; stroke-linejoin:round; stroke-width:16; stroke-opacity:1; fill:none" stroke-dasharray="64, 40" points="
  207.066,487.84 214.037,487.84 221.008,487.84 227.98,487.84 234.951,487.84 241.922,487.84 248.893,487.84 255.865,487.84 262.836,487.84 269.807,487.84 
  276.778,487.84 283.75,487.84 290.721,487.84 297.692,487.84 304.663,487.84 311.635,487.84 318.606,487.84 325.577,487.84 332.549,487.84 339.52,487.839 
  346.491,487.839 353.462,487.839 360.434,487.839 367.405,487.839 374.376,487.839 381.347,487.839 388.319,487.839 395.29,487.839 402.261,487.839 409.233,487.839 
  416.204,487.839 423.175,487.839 430.146,487.839 437.118,487.839 444.089,487.839 451.06,487.839 458.031,487.839 465.003,487.839 471.974,487.839 478.945,487.839 
  485.916,487.839 492.888,487.839 499.859,487.839 506.83,487.839 513.802,487.839 520.773,487.839 527.744,487.839 534.715,487.839 541.687,487.839 548.658,487.839 
  555.629,487.839 562.6,487.839 569.572,487.839 576.543,487.839 583.514,487.839 590.485,487.839 597.457,487.839 604.428,487.839 611.399,487.839 618.371,487.839 
  625.342,487.839 632.313,487.838 639.284,487.838 646.256,487.838 653.227,487.838 660.198,487.838 667.169,487.838 674.141,487.838 681.112,487.838 688.083,487.838 
  695.054,487.838 702.026,487.838 708.997,487.838 715.968,487.837 722.94,487.837 729.911,487.837 736.882,487.837 743.853,487.837 750.825,487.837 757.796,487.837 
  764.767,487.837 771.738,487.837 778.71,487.836 785.681,487.836 792.652,487.836 799.623,487.836 806.595,487.836 813.566,487.836 820.537,487.836 827.509,487.836 
  834.48,487.835 841.451,487.835 848.422,487.835 855.394,487.835 862.365,487.835 869.336,487.835 876.307,487.834 883.279,487.834 890.25,487.834 897.221,487.834 
  904.193,487.834 911.164,487.834 918.135,487.833 925.106,487.833 932.078,487.833 939.049,487.833 946.02,487.833 952.991,487.832 959.963,487.832 966.934,487.832 
  973.905,487.832 980.876,487.831 987.848,487.831 994.819,487.831 1001.79,487.831 1008.76,487.83 1015.73,487.83 1022.7,487.83 1029.68,487.83 1036.65,487.829 
  1043.62,487.829 1050.59,487.829 1057.56,487.828 1064.53,487.828 1071.5,487.828 1078.47,487.828 1085.45,487.827 1092.42,487.827 1099.39,487.827 1106.36,487.827 
  1113.33,487.826 1120.3,487.826 1127.27,487.826 1134.24,487.825 1141.22,487.825 1148.19,487.825 1155.16,487.825 1162.13,487.824 1169.1,487.824 1176.07,487.824 
  1183.04,487.824 1190.01,487.823 1196.99,487.823 1203.96,487.823 1210.93,487.822 1217.9,487.822 1224.87,487.822 1231.84,487.822 1238.81,487.821 1245.78,487.821 
  1252.76,487.821 
  "/>
<polyline clip-path="url(#clip162)" style="stroke:#ff221c; stroke-linecap:butt; stroke-linejoin:round; stroke-width:16; stroke-opacity:1; fill:none" points="
  207.066,145.744 214.037,145.631 221.008,145.629 227.98,145.627 234.951,145.625 241.922,145.622 248.893,145.618 255.865,145.614 262.836,145.608 269.807,145.602 
  276.778,145.594 283.75,145.586 290.721,145.576 297.692,145.566 304.663,145.554 311.635,145.54 318.606,145.525 325.577,145.509 332.549,145.49 339.52,145.47 
  346.491,145.448 353.462,145.424 360.434,145.398 367.405,145.369 374.376,145.338 381.347,145.304 388.319,145.267 395.29,145.227 402.261,145.184 409.233,145.137 
  416.204,145.086 423.175,145.031 430.146,144.972 437.118,144.908 444.089,144.839 451.06,144.765 458.031,144.685 465.003,144.599 471.974,144.506 478.945,144.407 
  485.916,144.299 492.888,144.184 499.859,144.06 506.83,143.927 513.802,143.785 520.773,143.631 527.744,143.467 534.715,143.291 541.687,143.102 548.658,142.9 
  555.629,142.683 562.6,142.452 569.572,142.203 576.543,141.938 583.514,141.654 590.485,141.351 597.457,141.027 604.428,140.681 611.399,140.311 618.371,139.918 
  625.342,139.498 632.313,139.05 639.284,138.574 646.256,138.068 653.227,137.529 660.198,136.956 667.169,136.348 674.141,135.704 681.112,135.02 688.083,134.297 
  695.054,133.531 702.026,132.722 708.997,131.868 715.968,130.968 722.94,130.02 729.911,129.022 736.882,127.975 743.853,126.876 750.825,125.725 757.796,124.523 
  764.767,123.267 771.738,121.959 778.71,120.599 785.681,119.187 792.652,117.725 799.623,116.214 806.595,114.656 813.566,113.054 820.537,111.41 827.509,109.727 
  834.48,108.01 841.451,106.263 848.422,104.489 855.394,102.696 862.365,100.886 869.336,99.068 876.307,97.246 883.279,95.4269 890.25,93.6168 897.221,91.8223 
  904.193,90.0495 911.164,88.3048 918.135,86.5941 925.106,84.9231 932.078,83.2972 939.049,81.7211 946.02,80.1992 952.991,78.7354 959.963,77.3328 966.934,75.9941 
  973.905,74.7212 980.876,73.5155 987.848,72.3777 994.819,71.3078 1001.79,70.3056 1008.76,69.3701 1015.73,68.4999 1022.7,67.6932 1029.68,66.9479 1036.65,66.2615 
  1043.62,65.6315 1050.59,65.0549 1057.56,64.5289 1064.53,64.0503 1071.5,63.6162 1078.47,63.2234 1085.45,62.8691 1092.42,62.5501 1099.39,62.2638 1106.36,62.0074 
  1113.33,61.7783 1120.3,61.574 1127.27,61.3922 1134.24,61.2308 1141.22,61.0878 1148.19,60.9613 1155.16,60.8496 1162.13,60.7512 1169.1,60.6646 1176.07,60.5886 
  1183.04,60.5218 1190.01,60.4634 1196.99,60.4123 1203.96,60.3677 1210.93,60.3288 1217.9,60.2949 1224.87,60.2654 1231.84,60.2397 1238.81,60.2175 1245.78,60.1982 
  1252.76,60.1814 
  "/>
<polyline clip-path="url(#clip162)" style="stroke:#000000; stroke-linecap:butt; stroke-linejoin:round; stroke-width:16; stroke-opacity:1; fill:none" stroke-dasharray="8, 16" points="
  207.066,60.077 214.037,60.5005 221.008,60.87 227.98,61.0212 234.951,61.1421 241.922,61.2656 248.893,61.3968 255.865,61.5369 262.836,61.6867 269.807,61.8468 
  276.778,62.0181 283.75,62.2013 290.721,62.3973 297.692,62.6069 304.663,62.8312 311.635,63.0711 318.606,63.3278 325.577,63.6024 332.549,63.8963 339.52,64.2107 
  346.491,64.547 353.462,64.9068 360.434,65.2917 367.405,65.7034 374.376,66.1436 381.347,66.6144 388.319,67.1178 395.29,67.656 402.261,68.2312 409.233,68.8458 
  416.204,69.5024 423.175,70.2038 430.146,70.9527 437.118,71.7521 444.089,72.6052 451.06,73.5152 458.031,74.4857 465.003,75.52 471.974,76.6221 478.945,77.7956 
  485.916,79.0448 492.888,80.3736 499.859,81.7863 506.83,83.2873 513.802,84.8811 520.773,86.5721 527.744,88.3649 534.715,90.2641 541.687,92.2743 548.658,94.3999 
  555.629,96.6455 562.6,99.0153 569.572,101.514 576.543,104.144 583.514,106.91 590.485,109.816 597.457,112.863 604.428,116.055 611.399,119.393 618.371,122.878 
  625.342,126.51 632.313,130.29 639.284,134.216 646.256,138.286 653.227,142.497 660.198,146.844 667.169,151.323 674.141,155.927 681.112,160.648 688.083,165.479 
  695.054,170.408 702.026,175.425 708.997,180.519 715.968,185.675 722.94,190.881 729.911,196.12 736.882,201.379 743.853,206.639 750.825,211.886 757.796,217.101 
  764.767,222.269 771.738,227.37 778.71,232.389 785.681,237.308 792.652,242.112 799.623,246.784 806.595,251.309 813.566,255.673 820.537,259.863 827.509,263.866 
  834.48,267.671 841.451,271.268 848.422,274.648 855.394,277.803 862.365,280.726 869.336,283.413 876.307,285.86 883.279,288.063 890.25,290.021 897.221,291.735 
  904.193,293.203 911.164,294.43 918.135,295.416 925.106,296.168 932.078,296.689 939.049,296.985 946.02,297.062 952.991,296.93 959.963,296.594 966.934,296.064 
  973.905,295.35 980.876,294.46 987.848,293.404 994.819,292.192 1001.79,290.835 1008.76,289.343 1015.73,287.725 1022.7,285.992 1029.68,284.154 1036.65,282.22 
  1043.62,280.198 1050.59,278.099 1057.56,275.931 1064.53,273.701 1071.5,271.416 1078.47,269.085 1085.45,266.714 1092.42,264.308 1099.39,261.873 1106.36,259.415 
  1113.33,256.938 1120.3,254.447 1127.27,251.946 1134.24,249.437 1141.22,246.926 1148.19,244.413 1155.16,241.903 1162.13,239.397 1169.1,236.898 1176.07,234.407 
  1183.04,231.927 1190.01,229.458 1196.99,227.003 1203.96,224.562 1210.93,222.136 1217.9,219.727 1224.87,217.336 1231.84,214.962 1238.81,212.608 1245.78,210.273 
  1252.76,207.958 
  "/>
</svg>
