<?xml version="1.0" encoding="utf-8"?>
<svg xmlns="http://www.w3.org/2000/svg" xmlns:xlink="http://www.w3.org/1999/xlink" width="325" height="150" viewBox="0 0 1300 600">
<defs>
  <clipPath id="clip950">
    <rect x="0" y="0" width="1300" height="600"/>
  </clipPath>
</defs>
<path clip-path="url(#clip950)" d="
M0 600 L1300 600 L1300 0 L0 0  Z
  " fill="#ffffff" fill-rule="evenodd" fill-opacity="1"/>
<defs>
  <clipPath id="clip951">
    <rect x="260" y="0" width="911" height="600"/>
  </clipPath>
</defs>
<path clip-path="url(#clip950)" d="
M200.094 501.1 L1252.76 501.1 L1252.76 47.2441 L200.094 47.2441  Z
  " fill="#ffffff" fill-rule="evenodd" fill-opacity="1"/>
<defs>
  <clipPath id="clip952">
    <rect x="200" y="47" width="1054" height="455"/>
  </clipPath>
</defs>
<polyline clip-path="url(#clip950)" style="stroke:#000000; stroke-linecap:round; stroke-linejoin:round; stroke-width:4; stroke-opacity:1; fill:none" points="
  200.094,501.1 1252.76,501.1 
  "/>
<polyline clip-path="url(#clip950)" style="stroke:#000000; stroke-linecap:round; stroke-linejoin:round; stroke-width:4; stroke-opacity:1; fill:none" points="
  200.094,501.1 200.094,482.203 
  "/>
<polyline clip-path="url(#clip950)" style="stroke:#000000; stroke-linecap:round; stroke-linejoin:round; stroke-width:4; stroke-opacity:1; fill:none" points="
  548.658,501.1 548.658,482.203 
  "/>
<polyline clip-path="url(#clip950)" style="stroke:#000000; stroke-linecap:round; stroke-linejoin:round; stroke-width:4; stroke-opacity:1; fill:none" points="
  897.221,501.1 897.221,482.203 
  "/>
<polyline clip-path="url(#clip950)" style="stroke:#000000; stroke-linecap:round; stroke-linejoin:round; stroke-width:4; stroke-opacity:1; fill:none" points="
  1245.78,501.1 1245.78,482.203 
  "/>
<path clip-path="url(#clip950)" d="M200.094 526.149 Q195.581 526.149 193.295 530.605 Q191.038 535.032 191.038 543.944 Q191.038 552.827 193.295 557.283 Q195.581 561.71 200.094 561.71 Q204.637 561.71 206.894 557.283 Q209.18 552.827 209.18 543.944 Q209.18 535.032 206.894 530.605 Q204.637 526.149 200.094 526.149 M200.094 521.519 Q207.357 521.519 211.177 527.277 Q215.025 533.006 215.025 543.944 Q215.025 554.852 211.177 560.61 Q207.357 566.339 200.094 566.339 Q192.832 566.339 188.983 560.61 Q185.164 554.852 185.164 543.944 Q185.164 533.006 188.983 527.277 Q192.832 521.519 200.094 521.519 Z" fill="#000000" fill-rule="evenodd" fill-opacity="1" /><path clip-path="url(#clip950)" d="M517.032 522.3 L539.977 522.3 L539.977 527.219 L522.385 527.219 L522.385 537.809 Q523.658 537.375 524.931 537.173 Q526.204 536.941 527.477 536.941 Q534.711 536.941 538.936 540.905 Q543.16 544.87 543.16 551.64 Q543.16 558.614 538.82 562.491 Q534.48 566.339 526.58 566.339 Q523.861 566.339 521.025 565.876 Q518.218 565.413 515.209 564.487 L515.209 558.614 Q517.813 560.031 520.591 560.726 Q523.369 561.42 526.465 561.42 Q531.47 561.42 534.393 558.787 Q537.315 556.154 537.315 551.64 Q537.315 547.126 534.393 544.493 Q531.47 541.86 526.465 541.86 Q524.121 541.86 521.777 542.381 Q519.462 542.902 517.032 544.001 L517.032 522.3 Z" fill="#000000" fill-rule="evenodd" fill-opacity="1" /><path clip-path="url(#clip950)" d="M567.176 526.149 Q562.662 526.149 560.377 530.605 Q558.12 535.032 558.12 543.944 Q558.12 552.827 560.377 557.283 Q562.662 561.71 567.176 561.71 Q571.719 561.71 573.976 557.283 Q576.262 552.827 576.262 543.944 Q576.262 535.032 573.976 530.605 Q571.719 526.149 567.176 526.149 M567.176 521.519 Q574.439 521.519 578.258 527.277 Q582.107 533.006 582.107 543.944 Q582.107 554.852 578.258 560.61 Q574.439 566.339 567.176 566.339 Q559.914 566.339 556.065 560.61 Q552.246 554.852 552.246 543.944 Q552.246 533.006 556.065 527.277 Q559.914 521.519 567.176 521.519 Z" fill="#000000" fill-rule="evenodd" fill-opacity="1" /><path clip-path="url(#clip950)" d="M846.73 560.581 L856.278 560.581 L856.278 527.624 L845.891 529.708 L845.891 524.384 L856.22 522.3 L862.065 522.3 L862.065 560.581 L871.614 560.581 L871.614 565.5 L846.73 565.5 L846.73 560.581 Z" fill="#000000" fill-rule="evenodd" fill-opacity="1" /><path clip-path="url(#clip950)" d="M895.919 526.149 Q891.405 526.149 889.119 530.605 Q886.863 535.032 886.863 543.944 Q886.863 552.827 889.119 557.283 Q891.405 561.71 895.919 561.71 Q900.462 561.71 902.719 557.283 Q905.005 552.827 905.005 543.944 Q905.005 535.032 902.719 530.605 Q900.462 526.149 895.919 526.149 M895.919 521.519 Q903.182 521.519 907.001 527.277 Q910.85 533.006 910.85 543.944 Q910.85 554.852 907.001 560.61 Q903.182 566.339 895.919 566.339 Q888.656 566.339 884.808 560.61 Q880.989 554.852 880.989 543.944 Q880.989 533.006 884.808 527.277 Q888.656 521.519 895.919 521.519 Z" fill="#000000" fill-rule="evenodd" fill-opacity="1" /><path clip-path="url(#clip950)" d="M933.622 526.149 Q929.108 526.149 926.822 530.605 Q924.565 535.032 924.565 543.944 Q924.565 552.827 926.822 557.283 Q929.108 561.71 933.622 561.71 Q938.164 561.71 940.421 557.283 Q942.707 552.827 942.707 543.944 Q942.707 535.032 940.421 530.605 Q938.164 526.149 933.622 526.149 M933.622 521.519 Q940.884 521.519 944.704 527.277 Q948.552 533.006 948.552 543.944 Q948.552 554.852 944.704 560.61 Q940.884 566.339 933.622 566.339 Q926.359 566.339 922.51 560.61 Q918.691 554.852 918.691 543.944 Q918.691 533.006 922.51 527.277 Q926.359 521.519 933.622 521.519 Z" fill="#000000" fill-rule="evenodd" fill-opacity="1" /><path clip-path="url(#clip950)" d="M1195.29 560.581 L1204.84 560.581 L1204.84 527.624 L1194.45 529.708 L1194.45 524.384 L1204.78 522.3 L1210.63 522.3 L1210.63 560.581 L1220.18 560.581 L1220.18 565.5 L1195.29 565.5 L1195.29 560.581 Z" fill="#000000" fill-rule="evenodd" fill-opacity="1" /><path clip-path="url(#clip950)" d="M1232.04 522.3 L1254.99 522.3 L1254.99 527.219 L1237.39 527.219 L1237.39 537.809 Q1238.67 537.375 1239.94 537.173 Q1241.21 536.941 1242.49 536.941 Q1249.72 536.941 1253.94 540.905 Q1258.17 544.87 1258.17 551.64 Q1258.17 558.614 1253.83 562.491 Q1249.49 566.339 1241.59 566.339 Q1238.87 566.339 1236.03 565.876 Q1233.23 565.413 1230.22 564.487 L1230.22 558.614 Q1232.82 560.031 1235.6 560.726 Q1238.38 561.42 1241.47 561.42 Q1246.48 561.42 1249.4 558.787 Q1252.32 556.154 1252.32 551.64 Q1252.32 547.126 1249.4 544.493 Q1246.48 541.86 1241.47 541.86 Q1239.13 541.86 1236.79 542.381 Q1234.47 542.902 1232.04 544.001 L1232.04 522.3 Z" fill="#000000" fill-rule="evenodd" fill-opacity="1" /><path clip-path="url(#clip950)" d="M1282.18 526.149 Q1277.67 526.149 1275.39 530.605 Q1273.13 535.032 1273.13 543.944 Q1273.13 552.827 1275.39 557.283 Q1277.67 561.71 1282.18 561.71 Q1286.73 561.71 1288.98 557.283 Q1291.27 552.827 1291.27 543.944 Q1291.27 535.032 1288.98 530.605 Q1286.73 526.149 1282.18 526.149 M1282.18 521.519 Q1289.45 521.519 1293.27 527.277 Q1297.12 533.006 1297.12 543.944 Q1297.12 554.852 1293.27 560.61 Q1289.45 566.339 1282.18 566.339 Q1274.92 566.339 1271.07 560.61 Q1267.25 554.852 1267.25 543.944 Q1267.25 533.006 1271.07 527.277 Q1274.92 521.519 1282.18 521.519 Z" fill="#000000" fill-rule="evenodd" fill-opacity="1" /><polyline clip-path="url(#clip950)" style="stroke:#000000; stroke-linecap:round; stroke-linejoin:round; stroke-width:4; stroke-opacity:1; fill:none" points="
  200.094,501.1 200.094,47.2441 
  "/>
<polyline clip-path="url(#clip950)" style="stroke:#000000; stroke-linecap:round; stroke-linejoin:round; stroke-width:4; stroke-opacity:1; fill:none" points="
  200.094,487.84 218.992,487.84 
  "/>
<polyline clip-path="url(#clip950)" style="stroke:#000000; stroke-linecap:round; stroke-linejoin:round; stroke-width:4; stroke-opacity:1; fill:none" points="
  200.094,380.899 218.992,380.899 
  "/>
<polyline clip-path="url(#clip950)" style="stroke:#000000; stroke-linecap:round; stroke-linejoin:round; stroke-width:4; stroke-opacity:1; fill:none" points="
  200.094,273.958 218.992,273.958 
  "/>
<polyline clip-path="url(#clip950)" style="stroke:#000000; stroke-linecap:round; stroke-linejoin:round; stroke-width:4; stroke-opacity:1; fill:none" points="
  200.094,167.018 218.992,167.018 
  "/>
<polyline clip-path="url(#clip950)" style="stroke:#000000; stroke-linecap:round; stroke-linejoin:round; stroke-width:4; stroke-opacity:1; fill:none" points="
  200.094,60.077 218.992,60.077 
  "/>
<path clip-path="url(#clip950)" d="M71.4226 470.088 Q66.9087 470.088 64.6229 474.544 Q62.3659 478.971 62.3659 487.883 Q62.3659 496.766 64.6229 501.222 Q66.9087 505.649 71.4226 505.649 Q75.9654 505.649 78.2223 501.222 Q80.5082 496.766 80.5082 487.883 Q80.5082 478.971 78.2223 474.544 Q75.9654 470.088 71.4226 470.088 M71.4226 465.458 Q78.6853 465.458 82.5047 471.216 Q86.3531 476.946 86.3531 487.883 Q86.3531 498.791 82.5047 504.55 Q78.6853 510.279 71.4226 510.279 Q64.1599 510.279 60.3115 504.55 Q56.4921 498.791 56.4921 487.883 Q56.4921 476.946 60.3115 471.216 Q64.1599 465.458 71.4226 465.458 Z" fill="#000000" fill-rule="evenodd" fill-opacity="1" /><path clip-path="url(#clip950)" d="M96.625 502.09 L102.73 502.09 L102.73 509.44 L96.625 509.44 L96.625 502.09 Z" fill="#000000" fill-rule="evenodd" fill-opacity="1" /><path clip-path="url(#clip950)" d="M127.962 470.088 Q123.448 470.088 121.162 474.544 Q118.905 478.971 118.905 487.883 Q118.905 496.766 121.162 501.222 Q123.448 505.649 127.962 505.649 Q132.504 505.649 134.761 501.222 Q137.047 496.766 137.047 487.883 Q137.047 478.971 134.761 474.544 Q132.504 470.088 127.962 470.088 M127.962 465.458 Q135.224 465.458 139.044 471.216 Q142.892 476.946 142.892 487.883 Q142.892 498.791 139.044 504.55 Q135.224 510.279 127.962 510.279 Q120.699 510.279 116.851 504.55 Q113.031 498.791 113.031 487.883 Q113.031 476.946 116.851 471.216 Q120.699 465.458 127.962 465.458 Z" fill="#000000" fill-rule="evenodd" fill-opacity="1" /><path clip-path="url(#clip950)" d="M165.664 470.088 Q161.15 470.088 158.864 474.544 Q156.607 478.971 156.607 487.883 Q156.607 496.766 158.864 501.222 Q161.15 505.649 165.664 505.649 Q170.207 505.649 172.464 501.222 Q174.75 496.766 174.75 487.883 Q174.75 478.971 172.464 474.544 Q170.207 470.088 165.664 470.088 M165.664 465.458 Q172.927 465.458 176.746 471.216 Q180.594 476.946 180.594 487.883 Q180.594 498.791 176.746 504.55 Q172.927 510.279 165.664 510.279 Q158.401 510.279 154.553 504.55 Q150.734 498.791 150.734 487.883 Q150.734 476.946 154.553 471.216 Q158.401 465.458 165.664 465.458 Z" fill="#000000" fill-rule="evenodd" fill-opacity="1" /><path clip-path="url(#clip950)" d="M72.6668 363.147 Q68.1529 363.147 65.8671 367.603 Q63.6101 372.03 63.6101 380.942 Q63.6101 389.825 65.8671 394.281 Q68.1529 398.708 72.6668 398.708 Q77.2096 398.708 79.4665 394.281 Q81.7524 389.825 81.7524 380.942 Q81.7524 372.03 79.4665 367.603 Q77.2096 363.147 72.6668 363.147 M72.6668 358.518 Q79.9295 358.518 83.7489 364.276 Q87.5973 370.005 87.5973 380.942 Q87.5973 391.851 83.7489 397.609 Q79.9295 403.338 72.6668 403.338 Q65.4041 403.338 61.5558 397.609 Q57.7363 391.851 57.7363 380.942 Q57.7363 370.005 61.5558 364.276 Q65.4041 358.518 72.6668 358.518 Z" fill="#000000" fill-rule="evenodd" fill-opacity="1" /><path clip-path="url(#clip950)" d="M97.8692 395.149 L103.975 395.149 L103.975 402.499 L97.8692 402.499 L97.8692 395.149 Z" fill="#000000" fill-rule="evenodd" fill-opacity="1" /><path clip-path="url(#clip950)" d="M121.741 397.58 L142.14 397.58 L142.14 402.499 L114.709 402.499 L114.709 397.58 Q118.037 394.137 123.766 388.35 Q129.524 382.534 131 380.855 Q133.807 377.702 134.906 375.531 Q136.035 373.332 136.035 371.22 Q136.035 367.777 133.604 365.607 Q131.202 363.437 127.325 363.437 Q124.576 363.437 121.509 364.391 Q118.471 365.346 114.999 367.285 L114.999 361.382 Q118.529 359.964 121.596 359.241 Q124.663 358.518 127.209 358.518 Q133.922 358.518 137.915 361.874 Q141.908 365.231 141.908 370.844 Q141.908 373.506 140.896 375.908 Q139.912 378.28 137.279 381.521 Q136.555 382.36 132.678 386.382 Q128.801 390.375 121.741 397.58 Z" fill="#000000" fill-rule="evenodd" fill-opacity="1" /><path clip-path="url(#clip950)" d="M154.466 359.299 L177.412 359.299 L177.412 364.218 L159.819 364.218 L159.819 374.808 Q161.092 374.374 162.365 374.172 Q163.639 373.94 164.912 373.94 Q172.145 373.94 176.37 377.904 Q180.594 381.868 180.594 388.639 Q180.594 395.612 176.254 399.49 Q171.914 403.338 164.015 403.338 Q161.295 403.338 158.459 402.875 Q155.652 402.412 152.643 401.486 L152.643 395.612 Q155.247 397.03 158.025 397.725 Q160.803 398.419 163.899 398.419 Q168.905 398.419 171.827 395.786 Q174.75 393.153 174.75 388.639 Q174.75 384.125 171.827 381.492 Q168.905 378.859 163.899 378.859 Q161.555 378.859 159.211 379.38 Q156.897 379.901 154.466 381 L154.466 359.299 Z" fill="#000000" fill-rule="evenodd" fill-opacity="1" /><path clip-path="url(#clip950)" d="M71.4226 256.207 Q66.9087 256.207 64.6229 260.663 Q62.3659 265.09 62.3659 274.002 Q62.3659 282.885 64.6229 287.341 Q66.9087 291.768 71.4226 291.768 Q75.9654 291.768 78.2223 287.341 Q80.5082 282.885 80.5082 274.002 Q80.5082 265.09 78.2223 260.663 Q75.9654 256.207 71.4226 256.207 M71.4226 251.577 Q78.6853 251.577 82.5047 257.335 Q86.3531 263.064 86.3531 274.002 Q86.3531 284.91 82.5047 290.668 Q78.6853 296.397 71.4226 296.397 Q64.1599 296.397 60.3115 290.668 Q56.4921 284.91 56.4921 274.002 Q56.4921 263.064 60.3115 257.335 Q64.1599 251.577 71.4226 251.577 Z" fill="#000000" fill-rule="evenodd" fill-opacity="1" /><path clip-path="url(#clip950)" d="M96.625 288.209 L102.73 288.209 L102.73 295.558 L96.625 295.558 L96.625 288.209 Z" fill="#000000" fill-rule="evenodd" fill-opacity="1" /><path clip-path="url(#clip950)" d="M115.52 252.358 L138.465 252.358 L138.465 257.277 L120.873 257.277 L120.873 267.867 Q122.146 267.433 123.419 267.231 Q124.692 266.999 125.965 266.999 Q133.199 266.999 137.423 270.963 Q141.648 274.928 141.648 281.698 Q141.648 288.672 137.308 292.549 Q132.967 296.397 125.068 296.397 Q122.348 296.397 119.513 295.934 Q116.706 295.471 113.697 294.546 L113.697 288.672 Q116.301 290.09 119.079 290.784 Q121.856 291.478 124.952 291.478 Q129.958 291.478 132.881 288.845 Q135.803 286.212 135.803 281.698 Q135.803 277.185 132.881 274.551 Q129.958 271.918 124.952 271.918 Q122.609 271.918 120.265 272.439 Q117.95 272.96 115.52 274.06 L115.52 252.358 Z" fill="#000000" fill-rule="evenodd" fill-opacity="1" /><path clip-path="url(#clip950)" d="M165.664 256.207 Q161.15 256.207 158.864 260.663 Q156.607 265.09 156.607 274.002 Q156.607 282.885 158.864 287.341 Q161.15 291.768 165.664 291.768 Q170.207 291.768 172.464 287.341 Q174.75 282.885 174.75 274.002 Q174.75 265.09 172.464 260.663 Q170.207 256.207 165.664 256.207 M165.664 251.577 Q172.927 251.577 176.746 257.335 Q180.594 263.064 180.594 274.002 Q180.594 284.91 176.746 290.668 Q172.927 296.397 165.664 296.397 Q158.401 296.397 154.553 290.668 Q150.734 284.91 150.734 274.002 Q150.734 263.064 154.553 257.335 Q158.401 251.577 165.664 251.577 Z" fill="#000000" fill-rule="evenodd" fill-opacity="1" /><path clip-path="url(#clip950)" d="M72.6668 149.266 Q68.1529 149.266 65.8671 153.722 Q63.6101 158.149 63.6101 167.061 Q63.6101 175.944 65.8671 180.4 Q68.1529 184.827 72.6668 184.827 Q77.2096 184.827 79.4665 180.4 Q81.7524 175.944 81.7524 167.061 Q81.7524 158.149 79.4665 153.722 Q77.2096 149.266 72.6668 149.266 M72.6668 144.636 Q79.9295 144.636 83.7489 150.394 Q87.5973 156.124 87.5973 167.061 Q87.5973 177.97 83.7489 183.728 Q79.9295 189.457 72.6668 189.457 Q65.4041 189.457 61.5558 183.728 Q57.7363 177.97 57.7363 167.061 Q57.7363 156.124 61.5558 150.394 Q65.4041 144.636 72.6668 144.636 Z" fill="#000000" fill-rule="evenodd" fill-opacity="1" /><path clip-path="url(#clip950)" d="M97.8692 181.268 L103.975 181.268 L103.975 188.618 L97.8692 188.618 L97.8692 181.268 Z" fill="#000000" fill-rule="evenodd" fill-opacity="1" /><path clip-path="url(#clip950)" d="M115.23 145.418 L143.008 145.418 L143.008 147.906 L127.325 188.618 L121.22 188.618 L135.977 150.337 L115.23 150.337 L115.23 145.418 Z" fill="#000000" fill-rule="evenodd" fill-opacity="1" /><path clip-path="url(#clip950)" d="M154.466 145.418 L177.412 145.418 L177.412 150.337 L159.819 150.337 L159.819 160.927 Q161.092 160.493 162.365 160.29 Q163.639 160.059 164.912 160.059 Q172.145 160.059 176.37 164.023 Q180.594 167.987 180.594 174.758 Q180.594 181.731 176.254 185.608 Q171.914 189.457 164.015 189.457 Q161.295 189.457 158.459 188.994 Q155.652 188.531 152.643 187.605 L152.643 181.731 Q155.247 183.149 158.025 183.843 Q160.803 184.538 163.899 184.538 Q168.905 184.538 171.827 181.905 Q174.75 179.272 174.75 174.758 Q174.75 170.244 171.827 167.611 Q168.905 164.978 163.899 164.978 Q161.555 164.978 159.211 165.499 Q156.897 166.019 154.466 167.119 L154.466 145.418 Z" fill="#000000" fill-rule="evenodd" fill-opacity="1" /><path clip-path="url(#clip950)" d="M59.9354 76.758 L69.484 76.758 L69.484 43.801 L59.0963 45.8843 L59.0963 40.5603 L69.4261 38.477 L75.271 38.477 L75.271 76.758 L84.8195 76.758 L84.8195 81.677 L59.9354 81.677 L59.9354 76.758 Z" fill="#000000" fill-rule="evenodd" fill-opacity="1" /><path clip-path="url(#clip950)" d="M96.625 74.3275 L102.73 74.3275 L102.73 81.677 L96.625 81.677 L96.625 74.3275 Z" fill="#000000" fill-rule="evenodd" fill-opacity="1" /><path clip-path="url(#clip950)" d="M127.962 42.3253 Q123.448 42.3253 121.162 46.7813 Q118.905 51.2084 118.905 60.1204 Q118.905 69.0034 121.162 73.4594 Q123.448 77.8865 127.962 77.8865 Q132.504 77.8865 134.761 73.4594 Q137.047 69.0034 137.047 60.1204 Q137.047 51.2084 134.761 46.7813 Q132.504 42.3253 127.962 42.3253 M127.962 37.6957 Q135.224 37.6957 139.044 43.4538 Q142.892 49.1829 142.892 60.1204 Q142.892 71.0289 139.044 76.787 Q135.224 82.5161 127.962 82.5161 Q120.699 82.5161 116.851 76.787 Q113.031 71.0289 113.031 60.1204 Q113.031 49.1829 116.851 43.4538 Q120.699 37.6957 127.962 37.6957 Z" fill="#000000" fill-rule="evenodd" fill-opacity="1" /><path clip-path="url(#clip950)" d="M165.664 42.3253 Q161.15 42.3253 158.864 46.7813 Q156.607 51.2084 156.607 60.1204 Q156.607 69.0034 158.864 73.4594 Q161.15 77.8865 165.664 77.8865 Q170.207 77.8865 172.464 73.4594 Q174.75 69.0034 174.75 60.1204 Q174.75 51.2084 172.464 46.7813 Q170.207 42.3253 165.664 42.3253 M165.664 37.6957 Q172.927 37.6957 176.746 43.4538 Q180.594 49.1829 180.594 60.1204 Q180.594 71.0289 176.746 76.787 Q172.927 82.5161 165.664 82.5161 Q158.401 82.5161 154.553 76.787 Q150.734 71.0289 150.734 60.1204 Q150.734 49.1829 154.553 43.4538 Q158.401 37.6957 165.664 37.6957 Z" fill="#000000" fill-rule="evenodd" fill-opacity="1" /><polyline clip-path="url(#clip952)" style="stroke:#ff00ff; stroke-linecap:round; stroke-linejoin:round; stroke-width:16; stroke-opacity:1; fill:none" points="
  207.066,274.065 214.037,274.147 221.008,274.157 227.98,274.169 234.951,274.177 241.922,274.184 248.893,274.188 255.865,274.191 262.836,274.193 269.807,274.194 
  276.778,274.194 283.75,274.194 290.721,274.193 297.692,274.192 304.663,274.19 311.635,274.189 318.606,274.187 325.577,274.185 332.549,274.183 339.52,274.181 
  346.491,274.179 353.462,274.177 360.434,274.175 367.405,274.173 374.376,274.171 381.347,274.169 388.319,274.167 395.29,274.165 402.261,274.163 409.233,274.161 
  416.204,274.159 423.175,274.157 430.146,274.155 437.118,274.153 444.089,274.151 451.06,274.149 458.031,274.147 465.003,274.145 471.974,274.143 478.945,274.141 
  485.916,274.14 492.888,274.138 499.859,274.136 506.83,274.134 513.802,274.132 520.773,274.131 527.744,274.129 534.715,274.127 541.687,274.126 548.658,274.124 
  555.629,274.122 562.6,274.121 569.572,274.119 576.543,274.117 583.514,274.116 590.485,274.114 597.457,274.113 604.428,274.111 611.399,274.11 618.371,274.108 
  625.342,274.107 632.313,274.105 639.284,274.104 646.256,274.102 653.227,274.101 660.198,274.099 667.169,274.098 674.141,274.097 681.112,274.095 688.083,274.094 
  695.054,274.092 702.026,274.091 708.997,274.09 715.968,274.088 722.94,274.087 729.911,274.086 736.882,274.085 743.853,274.083 750.825,274.082 757.796,274.081 
  764.767,274.08 771.738,274.078 778.71,274.077 785.681,274.076 792.652,274.075 799.623,274.074 806.595,274.073 813.566,274.071 820.537,274.07 827.509,274.069 
  834.48,274.068 841.451,274.067 848.422,274.066 855.394,274.065 862.365,274.064 869.336,274.063 876.307,274.062 883.279,274.061 890.25,274.06 897.221,274.059 
  904.193,274.058 911.164,274.057 918.135,274.056 925.106,274.055 932.078,274.054 939.049,274.053 946.02,274.052 952.991,274.051 959.963,274.05 966.934,274.049 
  973.905,274.048 980.876,274.047 987.848,274.046 994.819,274.045 1001.79,274.045 1008.76,274.044 1015.73,274.043 1022.7,274.042 1029.68,274.041 1036.65,274.04 
  1043.62,274.039 1050.59,274.039 1057.56,274.038 1064.53,274.037 1071.5,274.036 1078.47,274.036 1085.45,274.035 1092.42,274.034 1099.39,274.033 1106.36,274.032 
  1113.33,274.032 1120.3,274.031 1127.27,274.03 1134.24,274.03 1141.22,274.029 1148.19,274.028 1155.16,274.027 1162.13,274.027 1169.1,274.026 1176.07,274.025 
  1183.04,274.025 1190.01,274.024 1196.99,274.023 1203.96,274.023 1210.93,274.022 1217.9,274.021 1224.87,274.021 1231.84,274.02 1238.81,274.02 1245.78,274.019 
  1252.76,274.018 
  "/>
<polyline clip-path="url(#clip952)" style="stroke:#2000d4; stroke-linecap:round; stroke-linejoin:round; stroke-width:16; stroke-opacity:1; fill:none" stroke-dasharray="8, 16" points="
  207.066,487.84 214.037,487.84 221.008,487.84 227.98,487.84 234.951,487.84 241.922,487.84 248.893,487.84 255.865,487.84 262.836,487.84 269.807,487.84 
  276.778,487.84 283.75,487.84 290.721,487.84 297.692,487.84 304.663,487.84 311.635,487.84 318.606,487.84 325.577,487.84 332.549,487.84 339.52,487.84 
  346.491,487.84 353.462,487.84 360.434,487.84 367.405,487.84 374.376,487.84 381.347,487.84 388.319,487.84 395.29,487.84 402.261,487.84 409.233,487.84 
  416.204,487.84 423.175,487.84 430.146,487.84 437.118,487.84 444.089,487.84 451.06,487.84 458.031,487.84 465.003,487.84 471.974,487.84 478.945,487.84 
  485.916,487.84 492.888,487.84 499.859,487.84 506.83,487.84 513.802,487.84 520.773,487.84 527.744,487.84 534.715,487.839 541.687,487.839 548.658,487.839 
  555.629,487.839 562.6,487.839 569.572,487.839 576.543,487.839 583.514,487.839 590.485,487.839 597.457,487.839 604.428,487.839 611.399,487.839 618.371,487.839 
  625.342,487.839 632.313,487.839 639.284,487.839 646.256,487.839 653.227,487.839 660.198,487.839 667.169,487.839 674.141,487.839 681.112,487.839 688.083,487.839 
  695.054,487.839 702.026,487.839 708.997,487.839 715.968,487.839 722.94,487.839 729.911,487.839 736.882,487.839 743.853,487.839 750.825,487.839 757.796,487.839 
  764.767,487.839 771.738,487.839 778.71,487.839 785.681,487.839 792.652,487.839 799.623,487.839 806.595,487.839 813.566,487.839 820.537,487.839 827.509,487.839 
  834.48,487.839 841.451,487.839 848.422,487.839 855.394,487.839 862.365,487.839 869.336,487.839 876.307,487.839 883.279,487.839 890.25,487.839 897.221,487.839 
  904.193,487.839 911.164,487.839 918.135,487.839 925.106,487.839 932.078,487.839 939.049,487.839 946.02,487.839 952.991,487.839 959.963,487.839 966.934,487.839 
  973.905,487.839 980.876,487.839 987.848,487.839 994.819,487.839 1001.79,487.839 1008.76,487.839 1015.73,487.839 1022.7,487.839 1029.68,487.839 1036.65,487.839 
  1043.62,487.839 1050.59,487.839 1057.56,487.839 1064.53,487.839 1071.5,487.839 1078.47,487.839 1085.45,487.839 1092.42,487.839 1099.39,487.839 1106.36,487.839 
  1113.33,487.839 1120.3,487.839 1127.27,487.839 1134.24,487.839 1141.22,487.839 1148.19,487.839 1155.16,487.839 1162.13,487.839 1169.1,487.839 1176.07,487.839 
  1183.04,487.839 1190.01,487.839 1196.99,487.839 1203.96,487.839 1210.93,487.839 1217.9,487.839 1224.87,487.839 1231.84,487.839 1238.81,487.839 1245.78,487.839 
  1252.76,487.839 
  "/>
<polyline clip-path="url(#clip952)" style="stroke:#008900; stroke-linecap:round; stroke-linejoin:round; stroke-width:16; stroke-opacity:1; fill:none" stroke-dasharray="64, 40" points="
  207.066,487.84 214.037,487.84 221.008,487.839 227.98,487.839 234.951,487.839 241.922,487.839 248.893,487.839 255.865,487.839 262.836,487.839 269.807,487.839 
  276.778,487.84 283.75,487.84 290.721,487.84 297.692,487.84 304.663,487.84 311.635,487.84 318.606,487.84 325.577,487.84 332.549,487.84 339.52,487.84 
  346.491,487.84 353.462,487.84 360.434,487.84 367.405,487.84 374.376,487.84 381.347,487.84 388.319,487.84 395.29,487.84 402.261,487.84 409.233,487.84 
  416.204,487.84 423.175,487.84 430.146,487.84 437.118,487.84 444.089,487.84 451.06,487.84 458.031,487.84 465.003,487.84 471.974,487.84 478.945,487.84 
  485.916,487.84 492.888,487.84 499.859,487.84 506.83,487.84 513.802,487.84 520.773,487.84 527.744,487.84 534.715,487.84 541.687,487.84 548.658,487.84 
  555.629,487.84 562.6,487.84 569.572,487.84 576.543,487.84 583.514,487.84 590.485,487.84 597.457,487.84 604.428,487.84 611.399,487.84 618.371,487.84 
  625.342,487.84 632.313,487.84 639.284,487.84 646.256,487.84 653.227,487.84 660.198,487.84 667.169,487.84 674.141,487.84 681.112,487.84 688.083,487.84 
  695.054,487.84 702.026,487.84 708.997,487.84 715.968,487.84 722.94,487.84 729.911,487.84 736.882,487.84 743.853,487.84 750.825,487.84 757.796,487.84 
  764.767,487.84 771.738,487.84 778.71,487.84 785.681,487.84 792.652,487.84 799.623,487.84 806.595,487.84 813.566,487.84 820.537,487.84 827.509,487.84 
  834.48,487.84 841.451,487.84 848.422,487.84 855.394,487.84 862.365,487.84 869.336,487.84 876.307,487.84 883.279,487.84 890.25,487.84 897.221,487.84 
  904.193,487.84 911.164,487.84 918.135,487.84 925.106,487.84 932.078,487.84 939.049,487.84 946.02,487.84 952.991,487.84 959.963,487.84 966.934,487.84 
  973.905,487.84 980.876,487.84 987.848,487.84 994.819,487.84 1001.79,487.84 1008.76,487.84 1015.73,487.84 1022.7,487.84 1029.68,487.84 1036.65,487.84 
  1043.62,487.84 1050.59,487.84 1057.56,487.84 1064.53,487.84 1071.5,487.84 1078.47,487.84 1085.45,487.84 1092.42,487.84 1099.39,487.84 1106.36,487.84 
  1113.33,487.84 1120.3,487.84 1127.27,487.84 1134.24,487.84 1141.22,487.84 1148.19,487.84 1155.16,487.84 1162.13,487.84 1169.1,487.84 1176.07,487.84 
  1183.04,487.84 1190.01,487.84 1196.99,487.84 1203.96,487.84 1210.93,487.84 1217.9,487.84 1224.87,487.84 1231.84,487.84 1238.81,487.84 1245.78,487.84 
  1252.76,487.84 
  "/>
<polyline clip-path="url(#clip952)" style="stroke:#008900; stroke-linecap:round; stroke-linejoin:round; stroke-width:16; stroke-opacity:1; fill:none" stroke-dasharray="8, 16" points="
  207.066,487.84 214.037,487.84 221.008,487.839 227.98,487.839 234.951,487.839 241.922,487.839 248.893,487.84 255.865,487.84 262.836,487.84 269.807,487.84 
  276.778,487.84 283.75,487.84 290.721,487.84 297.692,487.84 304.663,487.84 311.635,487.84 318.606,487.84 325.577,487.84 332.549,487.84 339.52,487.84 
  346.491,487.84 353.462,487.84 360.434,487.84 367.405,487.84 374.376,487.84 381.347,487.84 388.319,487.84 395.29,487.84 402.261,487.84 409.233,487.84 
  416.204,487.84 423.175,487.84 430.146,487.84 437.118,487.84 444.089,487.84 451.06,487.84 458.031,487.84 465.003,487.84 471.974,487.84 478.945,487.84 
  485.916,487.84 492.888,487.84 499.859,487.84 506.83,487.84 513.802,487.84 520.773,487.84 527.744,487.84 534.715,487.84 541.687,487.84 548.658,487.84 
  555.629,487.84 562.6,487.84 569.572,487.84 576.543,487.84 583.514,487.84 590.485,487.84 597.457,487.84 604.428,487.84 611.399,487.84 618.371,487.84 
  625.342,487.84 632.313,487.84 639.284,487.84 646.256,487.84 653.227,487.84 660.198,487.84 667.169,487.84 674.141,487.84 681.112,487.84 688.083,487.84 
  695.054,487.84 702.026,487.84 708.997,487.84 715.968,487.84 722.94,487.84 729.911,487.84 736.882,487.84 743.853,487.84 750.825,487.84 757.796,487.84 
  764.767,487.84 771.738,487.84 778.71,487.84 785.681,487.84 792.652,487.84 799.623,487.84 806.595,487.84 813.566,487.84 820.537,487.84 827.509,487.84 
  834.48,487.84 841.451,487.84 848.422,487.84 855.394,487.84 862.365,487.84 869.336,487.84 876.307,487.84 883.279,487.84 890.25,487.84 897.221,487.84 
  904.193,487.84 911.164,487.84 918.135,487.84 925.106,487.84 932.078,487.84 939.049,487.84 946.02,487.84 952.991,487.84 959.963,487.84 966.934,487.84 
  973.905,487.84 980.876,487.84 987.848,487.84 994.819,487.84 1001.79,487.84 1008.76,487.84 1015.73,487.84 1022.7,487.84 1029.68,487.84 1036.65,487.84 
  1043.62,487.84 1050.59,487.84 1057.56,487.84 1064.53,487.84 1071.5,487.84 1078.47,487.84 1085.45,487.84 1092.42,487.84 1099.39,487.84 1106.36,487.84 
  1113.33,487.84 1120.3,487.84 1127.27,487.84 1134.24,487.84 1141.22,487.84 1148.19,487.84 1155.16,487.84 1162.13,487.84 1169.1,487.84 1176.07,487.84 
  1183.04,487.84 1190.01,487.84 1196.99,487.84 1203.96,487.84 1210.93,487.84 1217.9,487.84 1224.87,487.84 1231.84,487.84 1238.81,487.84 1245.78,487.84 
  1252.76,487.84 
  "/>
<polyline clip-path="url(#clip952)" style="stroke:#2000d4; stroke-linecap:round; stroke-linejoin:round; stroke-width:16; stroke-opacity:1; fill:none" points="
  207.066,487.412 214.037,487.081 221.008,487.013 227.98,486.962 234.951,486.925 241.922,486.899 248.893,486.88 255.865,486.868 262.836,486.861 269.807,486.857 
  276.778,486.857 283.75,486.859 290.721,486.862 297.692,486.867 304.663,486.873 311.635,486.88 318.606,486.887 325.577,486.895 332.549,486.903 339.52,486.911 
  346.491,486.92 353.462,486.928 360.434,486.937 367.405,486.945 374.376,486.954 381.347,486.963 388.319,486.971 395.29,486.98 402.261,486.988 409.233,486.997 
  416.204,487.005 423.175,487.013 430.146,487.021 437.118,487.029 444.089,487.038 451.06,487.045 458.031,487.053 465.003,487.061 471.974,487.069 478.945,487.077 
  485.916,487.084 492.888,487.092 499.859,487.099 506.83,487.107 513.802,487.114 520.773,487.121 527.744,487.128 534.715,487.135 541.687,487.142 548.658,487.149 
  555.629,487.156 562.6,487.163 569.572,487.17 576.543,487.177 583.514,487.183 590.485,487.19 597.457,487.196 604.428,487.203 611.399,487.209 618.371,487.215 
  625.342,487.222 632.313,487.228 639.284,487.234 646.256,487.24 653.227,487.246 660.198,487.252 667.169,487.258 674.141,487.263 681.112,487.269 688.083,487.275 
  695.054,487.281 702.026,487.286 708.997,487.292 715.968,487.297 722.94,487.303 729.911,487.308 736.882,487.313 743.853,487.318 750.825,487.324 757.796,487.329 
  764.767,487.334 771.738,487.339 778.71,487.344 785.681,487.349 792.652,487.354 799.623,487.359 806.595,487.363 813.566,487.368 820.537,487.373 827.509,487.378 
  834.48,487.382 841.451,487.387 848.422,487.391 855.394,487.396 862.365,487.4 869.336,487.405 876.307,487.409 883.279,487.413 890.25,487.417 897.221,487.422 
  904.193,487.426 911.164,487.43 918.135,487.434 925.106,487.438 932.078,487.442 939.049,487.446 946.02,487.45 952.991,487.454 959.963,487.458 966.934,487.462 
  973.905,487.465 980.876,487.469 987.848,487.473 994.819,487.476 1001.79,487.48 1008.76,487.484 1015.73,487.487 1022.7,487.491 1029.68,487.494 1036.65,487.498 
  1043.62,487.501 1050.59,487.504 1057.56,487.508 1064.53,487.511 1071.5,487.514 1078.47,487.518 1085.45,487.521 1092.42,487.524 1099.39,487.527 1106.36,487.53 
  1113.33,487.533 1120.3,487.536 1127.27,487.54 1134.24,487.543 1141.22,487.545 1148.19,487.548 1155.16,487.551 1162.13,487.554 1169.1,487.557 1176.07,487.56 
  1183.04,487.563 1190.01,487.565 1196.99,487.568 1203.96,487.571 1210.93,487.574 1217.9,487.576 1224.87,487.579 1231.84,487.581 1238.81,487.584 1245.78,487.587 
  1252.76,487.589 
  "/>
<polyline clip-path="url(#clip952)" style="stroke:#008900; stroke-linecap:round; stroke-linejoin:round; stroke-width:16; stroke-opacity:1; fill:none" points="
  207.066,487.626 214.037,487.58 221.008,487.637 227.98,487.678 234.951,487.71 241.922,487.734 248.893,487.754 255.865,487.769 262.836,487.78 269.807,487.79 
  276.778,487.797 283.75,487.803 290.721,487.807 297.692,487.81 304.663,487.813 311.635,487.815 318.606,487.817 325.577,487.818 332.549,487.82 339.52,487.821 
  346.491,487.821 353.462,487.822 360.434,487.822 367.405,487.823 374.376,487.823 381.347,487.823 388.319,487.824 395.29,487.824 402.261,487.824 409.233,487.824 
  416.204,487.825 423.175,487.825 430.146,487.825 437.118,487.825 444.089,487.825 451.06,487.825 458.031,487.826 465.003,487.826 471.974,487.826 478.945,487.826 
  485.916,487.826 492.888,487.826 499.859,487.826 506.83,487.827 513.802,487.827 520.773,487.827 527.744,487.827 534.715,487.827 541.687,487.827 548.658,487.827 
  555.629,487.827 562.6,487.828 569.572,487.828 576.543,487.828 583.514,487.828 590.485,487.828 597.457,487.828 604.428,487.828 611.399,487.828 618.371,487.829 
  625.342,487.829 632.313,487.829 639.284,487.829 646.256,487.829 653.227,487.829 660.198,487.829 667.169,487.829 674.141,487.829 681.112,487.829 688.083,487.83 
  695.054,487.83 702.026,487.83 708.997,487.83 715.968,487.83 722.94,487.83 729.911,487.83 736.882,487.83 743.853,487.83 750.825,487.83 757.796,487.831 
  764.767,487.831 771.738,487.831 778.71,487.831 785.681,487.831 792.652,487.831 799.623,487.831 806.595,487.831 813.566,487.831 820.537,487.831 827.509,487.831 
  834.48,487.831 841.451,487.832 848.422,487.832 855.394,487.832 862.365,487.832 869.336,487.832 876.307,487.832 883.279,487.832 890.25,487.832 897.221,487.832 
  904.193,487.832 911.164,487.832 918.135,487.832 925.106,487.832 932.078,487.833 939.049,487.833 946.02,487.833 952.991,487.833 959.963,487.833 966.934,487.833 
  973.905,487.833 980.876,487.833 987.848,487.833 994.819,487.833 1001.79,487.833 1008.76,487.833 1015.73,487.833 1022.7,487.833 1029.68,487.833 1036.65,487.834 
  1043.62,487.834 1050.59,487.834 1057.56,487.834 1064.53,487.834 1071.5,487.834 1078.47,487.834 1085.45,487.834 1092.42,487.834 1099.39,487.834 1106.36,487.834 
  1113.33,487.834 1120.3,487.834 1127.27,487.834 1134.24,487.834 1141.22,487.834 1148.19,487.834 1155.16,487.834 1162.13,487.835 1169.1,487.835 1176.07,487.835 
  1183.04,487.835 1190.01,487.835 1196.99,487.835 1203.96,487.835 1210.93,487.835 1217.9,487.835 1224.87,487.835 1231.84,487.835 1238.81,487.835 1245.78,487.835 
  1252.76,487.835 
  "/>
<polyline clip-path="url(#clip952)" style="stroke:#7f7f7f; stroke-linecap:round; stroke-linejoin:round; stroke-width:16; stroke-opacity:1; fill:none" points="
  207.066,60.077 214.037,133.824 221.008,189.208 227.98,235.286 234.951,272.926 241.922,304.53 248.893,331.424 255.865,354.567 262.836,374.619 269.807,392.052 
  276.778,407.214 283.75,420.367 290.721,431.722 297.692,441.461 304.663,449.746 311.635,456.735 318.606,462.578 325.577,467.42 332.549,471.401 339.52,474.65 
  346.491,477.285 353.462,479.409 360.434,481.115 367.405,482.479 374.376,483.565 381.347,484.429 388.319,485.115 395.29,485.658 402.261,486.088 409.233,486.427 
  416.204,486.695 423.175,486.907 430.146,487.074 437.118,487.206 444.089,487.311 451.06,487.393 458.031,487.458 465.003,487.51 471.974,487.551 478.945,487.583 
  485.916,487.609 492.888,487.629 499.859,487.646 506.83,487.659 513.802,487.67 520.773,487.678 527.744,487.686 534.715,487.691 541.687,487.696 548.658,487.7 
  555.629,487.704 562.6,487.707 569.572,487.709 576.543,487.712 583.514,487.714 590.485,487.716 597.457,487.717 604.428,487.719 611.399,487.721 618.371,487.722 
  625.342,487.723 632.313,487.725 639.284,487.726 646.256,487.727 653.227,487.728 660.198,487.73 667.169,487.731 674.141,487.732 681.112,487.733 688.083,487.734 
  695.054,487.735 702.026,487.736 708.997,487.737 715.968,487.738 722.94,487.739 729.911,487.74 736.882,487.741 743.853,487.742 750.825,487.743 757.796,487.744 
  764.767,487.745 771.738,487.746 778.71,487.747 785.681,487.748 792.652,487.749 799.623,487.75 806.595,487.751 813.566,487.751 820.537,487.752 827.509,487.753 
  834.48,487.754 841.451,487.755 848.422,487.756 855.394,487.757 862.365,487.757 869.336,487.758 876.307,487.759 883.279,487.76 890.25,487.761 897.221,487.761 
  904.193,487.762 911.164,487.763 918.135,487.764 925.106,487.765 932.078,487.765 939.049,487.766 946.02,487.767 952.991,487.767 959.963,487.768 966.934,487.769 
  973.905,487.77 980.876,487.77 987.848,487.771 994.819,487.772 1001.79,487.772 1008.76,487.773 1015.73,487.774 1022.7,487.774 1029.68,487.775 1036.65,487.776 
  1043.62,487.776 1050.59,487.777 1057.56,487.778 1064.53,487.778 1071.5,487.779 1078.47,487.779 1085.45,487.78 1092.42,487.781 1099.39,487.781 1106.36,487.782 
  1113.33,487.782 1120.3,487.783 1127.27,487.783 1134.24,487.784 1141.22,487.785 1148.19,487.785 1155.16,487.786 1162.13,487.786 1169.1,487.787 1176.07,487.787 
  1183.04,487.788 1190.01,487.788 1196.99,487.789 1203.96,487.789 1210.93,487.79 1217.9,487.79 1224.87,487.791 1231.84,487.791 1238.81,487.792 1245.78,487.792 
  1252.76,487.793 
  "/>
<polyline clip-path="url(#clip952)" style="stroke:#895f55; stroke-linecap:round; stroke-linejoin:round; stroke-width:16; stroke-opacity:1; fill:none" points="
  214.037,487.416 221.008,487.115 227.98,487.05 234.951,487.002 241.922,486.967 248.893,486.941 255.865,486.923 262.836,486.912 269.807,486.905 276.778,486.901 
  283.75,486.901 290.721,486.903 297.692,486.906 304.663,486.911 311.635,486.916 318.606,486.923 325.577,486.93 332.549,486.937 339.52,486.945 346.491,486.953 
  353.462,486.961 360.434,486.969 367.405,486.977 374.376,486.985 381.347,486.994 388.319,487.002 395.29,487.01 402.261,487.018 409.233,487.026 416.204,487.034 
  423.175,487.042 430.146,487.05 437.118,487.058 444.089,487.066 451.06,487.073 458.031,487.081 465.003,487.088 471.974,487.096 478.945,487.103 485.916,487.111 
  492.888,487.118 499.859,487.125 506.83,487.132 513.802,487.139 520.773,487.146 527.744,487.153 534.715,487.16 541.687,487.167 548.658,487.174 555.629,487.18 
  562.6,487.187 569.572,487.193 576.543,487.2 583.514,487.206 590.485,487.212 597.457,487.219 604.428,487.225 611.399,487.231 618.371,487.237 625.342,487.243 
  632.313,487.249 639.284,487.255 646.256,487.261 653.227,487.267 660.198,487.272 667.169,487.278 674.141,487.284 681.112,487.289 688.083,487.295 695.054,487.3 
  702.026,487.305 708.997,487.311 715.968,487.316 722.94,487.321 729.911,487.326 736.882,487.332 743.853,487.337 750.825,487.342 757.796,487.347 764.767,487.352 
  771.738,487.356 778.71,487.361 785.681,487.366 792.652,487.371 799.623,487.375 806.595,487.38 813.566,487.385 820.537,487.389 827.509,487.394 834.48,487.398 
  841.451,487.403 848.422,487.407 855.394,487.411 862.365,487.416 869.336,487.42 876.307,487.424 883.279,487.428 890.25,487.432 897.221,487.436 904.193,487.44 
  911.164,487.444 918.135,487.448 925.106,487.452 932.078,487.456 939.049,487.46 946.02,487.464 952.991,487.467 959.963,487.471 966.934,487.475 973.905,487.478 
  980.876,487.482 987.848,487.486 994.819,487.489 1001.79,487.493 1008.76,487.496 1015.73,487.5 1022.7,487.503 1029.68,487.506 1036.65,487.51 1043.62,487.513 
  1050.59,487.516 1057.56,487.519 1064.53,487.523 1071.5,487.526 1078.47,487.529 1085.45,487.532 1092.42,487.535 1099.39,487.538 1106.36,487.541 1113.33,487.544 
  1120.3,487.547 1127.27,487.55 1134.24,487.553 1141.22,487.556 1148.19,487.559 1155.16,487.561 1162.13,487.564 1169.1,487.567 1176.07,487.57 1183.04,487.572 
  1190.01,487.575 1196.99,487.578 1203.96,487.58 1210.93,487.583 1217.9,487.585 1224.87,487.588 1231.84,487.59 1238.81,487.593 1245.78,487.595 1252.76,487.598 
  
  "/>
<polyline clip-path="url(#clip952)" style="stroke:#2000d4; stroke-linecap:round; stroke-linejoin:round; stroke-width:16; stroke-opacity:1; fill:none" stroke-dasharray="64, 40" points="
  207.066,487.84 214.037,487.84 221.008,487.84 227.98,487.84 234.951,487.84 241.922,487.84 248.893,487.84 255.865,487.84 262.836,487.84 269.807,487.84 
  276.778,487.84 283.75,487.84 290.721,487.84 297.692,487.84 304.663,487.84 311.635,487.84 318.606,487.84 325.577,487.84 332.549,487.84 339.52,487.84 
  346.491,487.84 353.462,487.84 360.434,487.84 367.405,487.84 374.376,487.84 381.347,487.84 388.319,487.84 395.29,487.84 402.261,487.84 409.233,487.84 
  416.204,487.84 423.175,487.84 430.146,487.84 437.118,487.84 444.089,487.84 451.06,487.84 458.031,487.84 465.003,487.84 471.974,487.84 478.945,487.84 
  485.916,487.84 492.888,487.84 499.859,487.84 506.83,487.84 513.802,487.84 520.773,487.84 527.744,487.84 534.715,487.84 541.687,487.839 548.658,487.839 
  555.629,487.839 562.6,487.839 569.572,487.839 576.543,487.839 583.514,487.839 590.485,487.839 597.457,487.839 604.428,487.839 611.399,487.839 618.371,487.839 
  625.342,487.839 632.313,487.839 639.284,487.839 646.256,487.839 653.227,487.839 660.198,487.839 667.169,487.839 674.141,487.839 681.112,487.839 688.083,487.839 
  695.054,487.839 702.026,487.839 708.997,487.839 715.968,487.839 722.94,487.839 729.911,487.839 736.882,487.839 743.853,487.839 750.825,487.839 757.796,487.839 
  764.767,487.839 771.738,487.839 778.71,487.839 785.681,487.839 792.652,487.839 799.623,487.839 806.595,487.839 813.566,487.839 820.537,487.839 827.509,487.839 
  834.48,487.839 841.451,487.839 848.422,487.839 855.394,487.839 862.365,487.839 869.336,487.839 876.307,487.839 883.279,487.839 890.25,487.839 897.221,487.839 
  904.193,487.839 911.164,487.839 918.135,487.839 925.106,487.839 932.078,487.839 939.049,487.839 946.02,487.839 952.991,487.839 959.963,487.839 966.934,487.839 
  973.905,487.839 980.876,487.839 987.848,487.839 994.819,487.839 1001.79,487.839 1008.76,487.839 1015.73,487.839 1022.7,487.839 1029.68,487.839 1036.65,487.839 
  1043.62,487.839 1050.59,487.839 1057.56,487.839 1064.53,487.839 1071.5,487.839 1078.47,487.839 1085.45,487.839 1092.42,487.839 1099.39,487.839 1106.36,487.839 
  1113.33,487.839 1120.3,487.839 1127.27,487.839 1134.24,487.839 1141.22,487.839 1148.19,487.839 1155.16,487.839 1162.13,487.839 1169.1,487.839 1176.07,487.839 
  1183.04,487.839 1190.01,487.839 1196.99,487.839 1203.96,487.839 1210.93,487.839 1217.9,487.839 1224.87,487.839 1231.84,487.839 1238.81,487.839 1245.78,487.839 
  1252.76,487.839 
  "/>
<polyline clip-path="url(#clip952)" style="stroke:#ff221c; stroke-linecap:round; stroke-linejoin:round; stroke-width:16; stroke-opacity:1; fill:none" points="
  207.066,145.744 214.037,145.631 221.008,145.629 227.98,145.628 234.951,145.627 241.922,145.626 248.893,145.625 255.865,145.624 262.836,145.623 269.807,145.622 
  276.778,145.62 283.75,145.619 290.721,145.618 297.692,145.616 304.663,145.615 311.635,145.614 318.606,145.613 325.577,145.611 332.549,145.61 339.52,145.609 
  346.491,145.608 353.462,145.606 360.434,145.605 367.405,145.604 374.376,145.603 381.347,145.601 388.319,145.6 395.29,145.599 402.261,145.598 409.233,145.597 
  416.204,145.596 423.175,145.595 430.146,145.593 437.118,145.592 444.089,145.591 451.06,145.59 458.031,145.589 465.003,145.588 471.974,145.587 478.945,145.586 
  485.916,145.585 492.888,145.584 499.859,145.583 506.83,145.582 513.802,145.581 520.773,145.58 527.744,145.579 534.715,145.578 541.687,145.577 548.658,145.576 
  555.629,145.575 562.6,145.574 569.572,145.573 576.543,145.573 583.514,145.572 590.485,145.571 597.457,145.57 604.428,145.569 611.399,145.568 618.371,145.567 
  625.342,145.566 632.313,145.566 639.284,145.565 646.256,145.564 653.227,145.563 660.198,145.562 667.169,145.562 674.141,145.561 681.112,145.56 688.083,145.559 
  695.054,145.558 702.026,145.558 708.997,145.557 715.968,145.556 722.94,145.556 729.911,145.555 736.882,145.554 743.853,145.553 750.825,145.553 757.796,145.552 
  764.767,145.551 771.738,145.551 778.71,145.55 785.681,145.549 792.652,145.549 799.623,145.548 806.595,145.547 813.566,145.547 820.537,145.546 827.509,145.545 
  834.48,145.545 841.451,145.544 848.422,145.544 855.394,145.543 862.365,145.542 869.336,145.542 876.307,145.541 883.279,145.541 890.25,145.54 897.221,145.539 
  904.193,145.539 911.164,145.538 918.135,145.538 925.106,145.537 932.078,145.537 939.049,145.536 946.02,145.536 952.991,145.535 959.963,145.535 966.934,145.534 
  973.905,145.534 980.876,145.533 987.848,145.533 994.819,145.532 1001.79,145.532 1008.76,145.531 1015.73,145.531 1022.7,145.53 1029.68,145.53 1036.65,145.529 
  1043.62,145.529 1050.59,145.528 1057.56,145.528 1064.53,145.527 1071.5,145.527 1078.47,145.527 1085.45,145.526 1092.42,145.526 1099.39,145.525 1106.36,145.525 
  1113.33,145.524 1120.3,145.524 1127.27,145.524 1134.24,145.523 1141.22,145.523 1148.19,145.522 1155.16,145.522 1162.13,145.522 1169.1,145.521 1176.07,145.521 
  1183.04,145.52 1190.01,145.52 1196.99,145.52 1203.96,145.519 1210.93,145.519 1217.9,145.519 1224.87,145.518 1231.84,145.518 1238.81,145.518 1245.78,145.517 
  1252.76,145.517 
  "/>
<polyline clip-path="url(#clip952)" style="stroke:#000000; stroke-linecap:round; stroke-linejoin:round; stroke-width:16; stroke-opacity:1; fill:none" stroke-dasharray="8, 16" points="
  207.066,60.077 214.037,60.5004 221.008,60.8721 227.98,60.9986 234.951,61.0677 241.922,61.1149 248.893,61.1483 255.865,61.1717 262.836,61.1873 269.807,61.1968 
  276.778,61.2017 283.75,61.203 290.721,61.2015 297.692,61.1978 304.663,61.1926 311.635,61.186 318.606,61.1786 325.577,61.1704 332.549,61.1616 339.52,61.1525 
  346.491,61.1431 353.462,61.1335 360.434,61.1237 367.405,61.1139 374.376,61.1041 381.347,61.0942 388.319,61.0843 395.29,61.0745 402.261,61.0648 409.233,61.055 
  416.204,61.0454 423.175,61.0358 430.146,61.0263 437.118,61.0169 444.089,61.0076 451.06,60.9983 458.031,60.9892 465.003,60.9801 471.974,60.9711 478.945,60.9622 
  485.916,60.9534 492.888,60.9446 499.859,60.936 506.83,60.9274 513.802,60.9189 520.773,60.9105 527.744,60.9022 534.715,60.894 541.687,60.8858 548.658,60.8778 
  555.629,60.8698 562.6,60.8619 569.572,60.854 576.543,60.8463 583.514,60.8386 590.485,60.831 597.457,60.8235 604.428,60.816 611.399,60.8086 618.371,60.8013 
  625.342,60.7941 632.313,60.787 639.284,60.7799 646.256,60.7728 653.227,60.7659 660.198,60.759 667.169,60.7522 674.141,60.7455 681.112,60.7388 688.083,60.7322 
  695.054,60.7257 702.026,60.7192 708.997,60.7128 715.968,60.7064 722.94,60.7001 729.911,60.6939 736.882,60.6878 743.853,60.6817 750.825,60.6756 757.796,60.6696 
  764.767,60.6637 771.738,60.6579 778.71,60.6521 785.681,60.6463 792.652,60.6406 799.623,60.635 806.595,60.6294 813.566,60.6239 820.537,60.6185 827.509,60.6131 
  834.48,60.6077 841.451,60.6024 848.422,60.5972 855.394,60.592 862.365,60.5868 869.336,60.5817 876.307,60.5767 883.279,60.5717 890.25,60.5668 897.221,60.5619 
  904.193,60.557 911.164,60.5522 918.135,60.5475 925.106,60.5428 932.078,60.5381 939.049,60.5335 946.02,60.529 952.991,60.5244 959.963,60.52 966.934,60.5156 
  973.905,60.5112 980.876,60.5068 987.848,60.5025 994.819,60.4983 1001.79,60.4941 1008.76,60.4899 1015.73,60.4858 1022.7,60.4817 1029.68,60.4777 1036.65,60.4737 
  1043.62,60.4697 1050.59,60.4658 1057.56,60.4619 1064.53,60.458 1071.5,60.4542 1078.47,60.4505 1085.45,60.4467 1092.42,60.443 1099.39,60.4394 1106.36,60.4358 
  1113.33,60.4322 1120.3,60.4286 1127.27,60.4251 1134.24,60.4216 1141.22,60.4182 1148.19,60.4148 1155.16,60.4114 1162.13,60.4081 1169.1,60.4048 1176.07,60.4015 
  1183.04,60.3982 1190.01,60.395 1196.99,60.3918 1203.96,60.3887 1210.93,60.3856 1217.9,60.3825 1224.87,60.3795 1231.84,60.3764 1238.81,60.3734 1245.78,60.3705 
  1252.76,60.3675 
  "/>
</svg>
