<?xml version="1.0" encoding="utf-8"?>
<svg xmlns="http://www.w3.org/2000/svg" xmlns:xlink="http://www.w3.org/1999/xlink" width="325" height="150" viewBox="0 0 1300 600">
<defs>
  <clipPath id="clip560">
    <rect x="0" y="0" width="1300" height="600"/>
  </clipPath>
</defs>
<path clip-path="url(#clip560)" d="
M0 600 L1300 600 L1300 0 L0 0  Z
  " fill="#ffffff" fill-rule="evenodd" fill-opacity="1"/>
<defs>
  <clipPath id="clip561">
    <rect x="260" y="0" width="911" height="600"/>
  </clipPath>
</defs>
<path clip-path="url(#clip560)" d="
M200.094 501.1 L1252.76 501.1 L1252.76 47.2441 L200.094 47.2441  Z
  " fill="#ffffff" fill-rule="evenodd" fill-opacity="1"/>
<defs>
  <clipPath id="clip562">
    <rect x="200" y="47" width="1054" height="455"/>
  </clipPath>
</defs>
<polyline clip-path="url(#clip560)" style="stroke:#000000; stroke-linecap:butt; stroke-linejoin:round; stroke-width:4; stroke-opacity:1; fill:none" points="
  200.094,501.1 1252.76,501.1 
  "/>
<polyline clip-path="url(#clip560)" style="stroke:#000000; stroke-linecap:butt; stroke-linejoin:round; stroke-width:4; stroke-opacity:1; fill:none" points="
  200.094,501.1 200.094,482.203 
  "/>
<polyline clip-path="url(#clip560)" style="stroke:#000000; stroke-linecap:butt; stroke-linejoin:round; stroke-width:4; stroke-opacity:1; fill:none" points="
  548.658,501.1 548.658,482.203 
  "/>
<polyline clip-path="url(#clip560)" style="stroke:#000000; stroke-linecap:butt; stroke-linejoin:round; stroke-width:4; stroke-opacity:1; fill:none" points="
  897.221,501.1 897.221,482.203 
  "/>
<polyline clip-path="url(#clip560)" style="stroke:#000000; stroke-linecap:butt; stroke-linejoin:round; stroke-width:4; stroke-opacity:1; fill:none" points="
  1245.78,501.1 1245.78,482.203 
  "/>
<path clip-path="url(#clip560)" d="M200.094 526.149 Q195.581 526.149 193.295 530.605 Q191.038 535.032 191.038 543.944 Q191.038 552.827 193.295 557.283 Q195.581 561.71 200.094 561.71 Q204.637 561.71 206.894 557.283 Q209.18 552.827 209.18 543.944 Q209.18 535.032 206.894 530.605 Q204.637 526.149 200.094 526.149 M200.094 521.519 Q207.357 521.519 211.177 527.277 Q215.025 533.006 215.025 543.944 Q215.025 554.852 211.177 560.61 Q207.357 566.339 200.094 566.339 Q192.832 566.339 188.983 560.61 Q185.164 554.852 185.164 543.944 Q185.164 533.006 188.983 527.277 Q192.832 521.519 200.094 521.519 Z" fill="#000000" fill-rule="evenodd" fill-opacity="1" /><path clip-path="url(#clip560)" d="M517.032 522.3 L539.977 522.3 L539.977 527.219 L522.385 527.219 L522.385 537.809 Q523.658 537.375 524.931 537.173 Q526.204 536.941 527.477 536.941 Q534.711 536.941 538.936 540.905 Q543.16 544.87 543.16 551.64 Q543.16 558.614 538.82 562.491 Q534.48 566.339 526.58 566.339 Q523.861 566.339 521.025 565.876 Q518.218 565.413 515.209 564.487 L515.209 558.614 Q517.813 560.031 520.591 560.726 Q523.369 561.42 526.465 561.42 Q531.47 561.42 534.393 558.787 Q537.315 556.154 537.315 551.64 Q537.315 547.126 534.393 544.493 Q531.47 541.86 526.465 541.86 Q524.121 541.86 521.777 542.381 Q519.462 542.902 517.032 544.001 L517.032 522.3 Z" fill="#000000" fill-rule="evenodd" fill-opacity="1" /><path clip-path="url(#clip560)" d="M567.176 526.149 Q562.662 526.149 560.377 530.605 Q558.12 535.032 558.12 543.944 Q558.12 552.827 560.377 557.283 Q562.662 561.71 567.176 561.71 Q571.719 561.71 573.976 557.283 Q576.262 552.827 576.262 543.944 Q576.262 535.032 573.976 530.605 Q571.719 526.149 567.176 526.149 M567.176 521.519 Q574.439 521.519 578.258 527.277 Q582.107 533.006 582.107 543.944 Q582.107 554.852 578.258 560.61 Q574.439 566.339 567.176 566.339 Q559.914 566.339 556.065 560.61 Q552.246 554.852 552.246 543.944 Q552.246 533.006 556.065 527.277 Q559.914 521.519 567.176 521.519 Z" fill="#000000" fill-rule="evenodd" fill-opacity="1" /><path clip-path="url(#clip560)" d="M846.73 560.581 L856.278 560.581 L856.278 527.624 L845.891 529.708 L845.891 524.384 L856.22 522.3 L862.065 522.3 L862.065 560.581 L871.614 560.581 L871.614 565.5 L846.73 565.5 L846.73 560.581 Z" fill="#000000" fill-rule="evenodd" fill-opacity="1" /><path clip-path="url(#clip560)" d="M895.919 526.149 Q891.405 526.149 889.119 530.605 Q886.863 535.032 886.863 543.944 Q886.863 552.827 889.119 557.283 Q891.405 561.71 895.919 561.71 Q900.462 561.71 902.719 557.283 Q905.005 552.827 905.005 543.944 Q905.005 535.032 902.719 530.605 Q900.462 526.149 895.919 526.149 M895.919 521.519 Q903.182 521.519 907.001 527.277 Q910.85 533.006 910.85 543.944 Q910.85 554.852 907.001 560.61 Q903.182 566.339 895.919 566.339 Q888.656 566.339 884.808 560.61 Q880.989 554.852 880.989 543.944 Q880.989 533.006 884.808 527.277 Q888.656 521.519 895.919 521.519 Z" fill="#000000" fill-rule="evenodd" fill-opacity="1" /><path clip-path="url(#clip560)" d="M933.622 526.149 Q929.108 526.149 926.822 530.605 Q924.565 535.032 924.565 543.944 Q924.565 552.827 926.822 557.283 Q929.108 561.71 933.622 561.71 Q938.164 561.71 940.421 557.283 Q942.707 552.827 942.707 543.944 Q942.707 535.032 940.421 530.605 Q938.164 526.149 933.622 526.149 M933.622 521.519 Q940.884 521.519 944.704 527.277 Q948.552 533.006 948.552 543.944 Q948.552 554.852 944.704 560.61 Q940.884 566.339 933.622 566.339 Q926.359 566.339 922.51 560.61 Q918.691 554.852 918.691 543.944 Q918.691 533.006 922.51 527.277 Q926.359 521.519 933.622 521.519 Z" fill="#000000" fill-rule="evenodd" fill-opacity="1" /><path clip-path="url(#clip560)" d="M1195.29 560.581 L1204.84 560.581 L1204.84 527.624 L1194.45 529.708 L1194.45 524.384 L1204.78 522.3 L1210.63 522.3 L1210.63 560.581 L1220.18 560.581 L1220.18 565.5 L1195.29 565.5 L1195.29 560.581 Z" fill="#000000" fill-rule="evenodd" fill-opacity="1" /><path clip-path="url(#clip560)" d="M1232.04 522.3 L1254.99 522.3 L1254.99 527.219 L1237.39 527.219 L1237.39 537.809 Q1238.67 537.375 1239.94 537.173 Q1241.21 536.941 1242.49 536.941 Q1249.72 536.941 1253.94 540.905 Q1258.17 544.87 1258.17 551.64 Q1258.17 558.614 1253.83 562.491 Q1249.49 566.339 1241.59 566.339 Q1238.87 566.339 1236.03 565.876 Q1233.23 565.413 1230.22 564.487 L1230.22 558.614 Q1232.82 560.031 1235.6 560.726 Q1238.38 561.42 1241.47 561.42 Q1246.48 561.42 1249.4 558.787 Q1252.32 556.154 1252.32 551.64 Q1252.32 547.126 1249.4 544.493 Q1246.48 541.86 1241.47 541.86 Q1239.13 541.86 1236.79 542.381 Q1234.47 542.902 1232.04 544.001 L1232.04 522.3 Z" fill="#000000" fill-rule="evenodd" fill-opacity="1" /><path clip-path="url(#clip560)" d="M1282.18 526.149 Q1277.67 526.149 1275.39 530.605 Q1273.13 535.032 1273.13 543.944 Q1273.13 552.827 1275.39 557.283 Q1277.67 561.71 1282.18 561.71 Q1286.73 561.71 1288.98 557.283 Q1291.27 552.827 1291.27 543.944 Q1291.27 535.032 1288.98 530.605 Q1286.73 526.149 1282.18 526.149 M1282.18 521.519 Q1289.45 521.519 1293.27 527.277 Q1297.12 533.006 1297.12 543.944 Q1297.12 554.852 1293.27 560.61 Q1289.45 566.339 1282.18 566.339 Q1274.92 566.339 1271.07 560.61 Q1267.25 554.852 1267.25 543.944 Q1267.25 533.006 1271.07 527.277 Q1274.92 521.519 1282.18 521.519 Z" fill="#000000" fill-rule="evenodd" fill-opacity="1" /><polyline clip-path="url(#clip560)" style="stroke:#000000; stroke-linecap:butt; stroke-linejoin:round; stroke-width:4; stroke-opacity:1; fill:none" points="
  200.094,501.1 200.094,47.2441 
  "/>
<polyline clip-path="url(#clip560)" style="stroke:#000000; stroke-linecap:butt; stroke-linejoin:round; stroke-width:4; stroke-opacity:1; fill:none" points="
  200.094,487.84 218.992,487.84 
  "/>
<polyline clip-path="url(#clip560)" style="stroke:#000000; stroke-linecap:butt; stroke-linejoin:round; stroke-width:4; stroke-opacity:1; fill:none" points="
  200.094,380.899 218.992,380.899 
  "/>
<polyline clip-path="url(#clip560)" style="stroke:#000000; stroke-linecap:butt; stroke-linejoin:round; stroke-width:4; stroke-opacity:1; fill:none" points="
  200.094,273.958 218.992,273.958 
  "/>
<polyline clip-path="url(#clip560)" style="stroke:#000000; stroke-linecap:butt; stroke-linejoin:round; stroke-width:4; stroke-opacity:1; fill:none" points="
  200.094,167.018 218.992,167.018 
  "/>
<polyline clip-path="url(#clip560)" style="stroke:#000000; stroke-linecap:butt; stroke-linejoin:round; stroke-width:4; stroke-opacity:1; fill:none" points="
  200.094,60.077 218.992,60.077 
  "/>
<path clip-path="url(#clip560)" d="M71.4226 470.088 Q66.9087 470.088 64.6229 474.544 Q62.3659 478.971 62.3659 487.883 Q62.3659 496.766 64.6229 501.222 Q66.9087 505.649 71.4226 505.649 Q75.9654 505.649 78.2223 501.222 Q80.5082 496.766 80.5082 487.883 Q80.5082 478.971 78.2223 474.544 Q75.9654 470.088 71.4226 470.088 M71.4226 465.458 Q78.6853 465.458 82.5047 471.216 Q86.3531 476.946 86.3531 487.883 Q86.3531 498.791 82.5047 504.55 Q78.6853 510.279 71.4226 510.279 Q64.1599 510.279 60.3115 504.55 Q56.4921 498.791 56.4921 487.883 Q56.4921 476.946 60.3115 471.216 Q64.1599 465.458 71.4226 465.458 Z" fill="#000000" fill-rule="evenodd" fill-opacity="1" /><path clip-path="url(#clip560)" d="M96.625 502.09 L102.73 502.09 L102.73 509.44 L96.625 509.44 L96.625 502.09 Z" fill="#000000" fill-rule="evenodd" fill-opacity="1" /><path clip-path="url(#clip560)" d="M127.962 470.088 Q123.448 470.088 121.162 474.544 Q118.905 478.971 118.905 487.883 Q118.905 496.766 121.162 501.222 Q123.448 505.649 127.962 505.649 Q132.504 505.649 134.761 501.222 Q137.047 496.766 137.047 487.883 Q137.047 478.971 134.761 474.544 Q132.504 470.088 127.962 470.088 M127.962 465.458 Q135.224 465.458 139.044 471.216 Q142.892 476.946 142.892 487.883 Q142.892 498.791 139.044 504.55 Q135.224 510.279 127.962 510.279 Q120.699 510.279 116.851 504.55 Q113.031 498.791 113.031 487.883 Q113.031 476.946 116.851 471.216 Q120.699 465.458 127.962 465.458 Z" fill="#000000" fill-rule="evenodd" fill-opacity="1" /><path clip-path="url(#clip560)" d="M165.664 470.088 Q161.15 470.088 158.864 474.544 Q156.607 478.971 156.607 487.883 Q156.607 496.766 158.864 501.222 Q161.15 505.649 165.664 505.649 Q170.207 505.649 172.464 501.222 Q174.75 496.766 174.75 487.883 Q174.75 478.971 172.464 474.544 Q170.207 470.088 165.664 470.088 M165.664 465.458 Q172.927 465.458 176.746 471.216 Q180.594 476.946 180.594 487.883 Q180.594 498.791 176.746 504.55 Q172.927 510.279 165.664 510.279 Q158.401 510.279 154.553 504.55 Q150.734 498.791 150.734 487.883 Q150.734 476.946 154.553 471.216 Q158.401 465.458 165.664 465.458 Z" fill="#000000" fill-rule="evenodd" fill-opacity="1" /><path clip-path="url(#clip560)" d="M72.6668 363.147 Q68.1529 363.147 65.8671 367.603 Q63.6101 372.03 63.6101 380.942 Q63.6101 389.825 65.8671 394.281 Q68.1529 398.708 72.6668 398.708 Q77.2096 398.708 79.4665 394.281 Q81.7524 389.825 81.7524 380.942 Q81.7524 372.03 79.4665 367.603 Q77.2096 363.147 72.6668 363.147 M72.6668 358.518 Q79.9295 358.518 83.7489 364.276 Q87.5973 370.005 87.5973 380.942 Q87.5973 391.851 83.7489 397.609 Q79.9295 403.338 72.6668 403.338 Q65.4041 403.338 61.5558 397.609 Q57.7363 391.851 57.7363 380.942 Q57.7363 370.005 61.5558 364.276 Q65.4041 358.518 72.6668 358.518 Z" fill="#000000" fill-rule="evenodd" fill-opacity="1" /><path clip-path="url(#clip560)" d="M97.8692 395.149 L103.975 395.149 L103.975 402.499 L97.8692 402.499 L97.8692 395.149 Z" fill="#000000" fill-rule="evenodd" fill-opacity="1" /><path clip-path="url(#clip560)" d="M121.741 397.58 L142.14 397.58 L142.14 402.499 L114.709 402.499 L114.709 397.58 Q118.037 394.137 123.766 388.35 Q129.524 382.534 131 380.855 Q133.807 377.702 134.906 375.531 Q136.035 373.332 136.035 371.22 Q136.035 367.777 133.604 365.607 Q131.202 363.437 127.325 363.437 Q124.576 363.437 121.509 364.391 Q118.471 365.346 114.999 367.285 L114.999 361.382 Q118.529 359.964 121.596 359.241 Q124.663 358.518 127.209 358.518 Q133.922 358.518 137.915 361.874 Q141.908 365.231 141.908 370.844 Q141.908 373.506 140.896 375.908 Q139.912 378.28 137.279 381.521 Q136.555 382.36 132.678 386.382 Q128.801 390.375 121.741 397.58 Z" fill="#000000" fill-rule="evenodd" fill-opacity="1" /><path clip-path="url(#clip560)" d="M154.466 359.299 L177.412 359.299 L177.412 364.218 L159.819 364.218 L159.819 374.808 Q161.092 374.374 162.365 374.172 Q163.639 373.94 164.912 373.94 Q172.145 373.94 176.37 377.904 Q180.594 381.868 180.594 388.639 Q180.594 395.612 176.254 399.49 Q171.914 403.338 164.015 403.338 Q161.295 403.338 158.459 402.875 Q155.652 402.412 152.643 401.486 L152.643 395.612 Q155.247 397.03 158.025 397.725 Q160.803 398.419 163.899 398.419 Q168.905 398.419 171.827 395.786 Q174.75 393.153 174.75 388.639 Q174.75 384.125 171.827 381.492 Q168.905 378.859 163.899 378.859 Q161.555 378.859 159.211 379.38 Q156.897 379.901 154.466 381 L154.466 359.299 Z" fill="#000000" fill-rule="evenodd" fill-opacity="1" /><path clip-path="url(#clip560)" d="M71.4226 256.207 Q66.9087 256.207 64.6229 260.663 Q62.3659 265.09 62.3659 274.002 Q62.3659 282.885 64.6229 287.341 Q66.9087 291.768 71.4226 291.768 Q75.9654 291.768 78.2223 287.341 Q80.5082 282.885 80.5082 274.002 Q80.5082 265.09 78.2223 260.663 Q75.9654 256.207 71.4226 256.207 M71.4226 251.577 Q78.6853 251.577 82.5047 257.335 Q86.3531 263.064 86.3531 274.002 Q86.3531 284.91 82.5047 290.668 Q78.6853 296.397 71.4226 296.397 Q64.1599 296.397 60.3115 290.668 Q56.4921 284.91 56.4921 274.002 Q56.4921 263.064 60.3115 257.335 Q64.1599 251.577 71.4226 251.577 Z" fill="#000000" fill-rule="evenodd" fill-opacity="1" /><path clip-path="url(#clip560)" d="M96.625 288.209 L102.73 288.209 L102.73 295.558 L96.625 295.558 L96.625 288.209 Z" fill="#000000" fill-rule="evenodd" fill-opacity="1" /><path clip-path="url(#clip560)" d="M115.52 252.358 L138.465 252.358 L138.465 257.277 L120.873 257.277 L120.873 267.867 Q122.146 267.433 123.419 267.231 Q124.692 266.999 125.965 266.999 Q133.199 266.999 137.423 270.963 Q141.648 274.928 141.648 281.698 Q141.648 288.672 137.308 292.549 Q132.967 296.397 125.068 296.397 Q122.348 296.397 119.513 295.934 Q116.706 295.471 113.697 294.546 L113.697 288.672 Q116.301 290.09 119.079 290.784 Q121.856 291.478 124.952 291.478 Q129.958 291.478 132.881 288.845 Q135.803 286.212 135.803 281.698 Q135.803 277.185 132.881 274.551 Q129.958 271.918 124.952 271.918 Q122.609 271.918 120.265 272.439 Q117.95 272.96 115.52 274.06 L115.52 252.358 Z" fill="#000000" fill-rule="evenodd" fill-opacity="1" /><path clip-path="url(#clip560)" d="M165.664 256.207 Q161.15 256.207 158.864 260.663 Q156.607 265.09 156.607 274.002 Q156.607 282.885 158.864 287.341 Q161.15 291.768 165.664 291.768 Q170.207 291.768 172.464 287.341 Q174.75 282.885 174.75 274.002 Q174.75 265.09 172.464 260.663 Q170.207 256.207 165.664 256.207 M165.664 251.577 Q172.927 251.577 176.746 257.335 Q180.594 263.064 180.594 274.002 Q180.594 284.91 176.746 290.668 Q172.927 296.397 165.664 296.397 Q158.401 296.397 154.553 290.668 Q150.734 284.91 150.734 274.002 Q150.734 263.064 154.553 257.335 Q158.401 251.577 165.664 251.577 Z" fill="#000000" fill-rule="evenodd" fill-opacity="1" /><path clip-path="url(#clip560)" d="M72.6668 149.266 Q68.1529 149.266 65.8671 153.722 Q63.6101 158.149 63.6101 167.061 Q63.6101 175.944 65.8671 180.4 Q68.1529 184.827 72.6668 184.827 Q77.2096 184.827 79.4665 180.4 Q81.7524 175.944 81.7524 167.061 Q81.7524 158.149 79.4665 153.722 Q77.2096 149.266 72.6668 149.266 M72.6668 144.636 Q79.9295 144.636 83.7489 150.394 Q87.5973 156.124 87.5973 167.061 Q87.5973 177.97 83.7489 183.728 Q79.9295 189.457 72.6668 189.457 Q65.4041 189.457 61.5558 183.728 Q57.7363 177.97 57.7363 167.061 Q57.7363 156.124 61.5558 150.394 Q65.4041 144.636 72.6668 144.636 Z" fill="#000000" fill-rule="evenodd" fill-opacity="1" /><path clip-path="url(#clip560)" d="M97.8692 181.268 L103.975 181.268 L103.975 188.618 L97.8692 188.618 L97.8692 181.268 Z" fill="#000000" fill-rule="evenodd" fill-opacity="1" /><path clip-path="url(#clip560)" d="M115.23 145.418 L143.008 145.418 L143.008 147.906 L127.325 188.618 L121.22 188.618 L135.977 150.337 L115.23 150.337 L115.23 145.418 Z" fill="#000000" fill-rule="evenodd" fill-opacity="1" /><path clip-path="url(#clip560)" d="M154.466 145.418 L177.412 145.418 L177.412 150.337 L159.819 150.337 L159.819 160.927 Q161.092 160.493 162.365 160.29 Q163.639 160.059 164.912 160.059 Q172.145 160.059 176.37 164.023 Q180.594 167.987 180.594 174.758 Q180.594 181.731 176.254 185.608 Q171.914 189.457 164.015 189.457 Q161.295 189.457 158.459 188.994 Q155.652 188.531 152.643 187.605 L152.643 181.731 Q155.247 183.149 158.025 183.843 Q160.803 184.538 163.899 184.538 Q168.905 184.538 171.827 181.905 Q174.75 179.272 174.75 174.758 Q174.75 170.244 171.827 167.611 Q168.905 164.978 163.899 164.978 Q161.555 164.978 159.211 165.499 Q156.897 166.019 154.466 167.119 L154.466 145.418 Z" fill="#000000" fill-rule="evenodd" fill-opacity="1" /><path clip-path="url(#clip560)" d="M59.9354 76.758 L69.484 76.758 L69.484 43.801 L59.0963 45.8843 L59.0963 40.5603 L69.4261 38.477 L75.271 38.477 L75.271 76.758 L84.8195 76.758 L84.8195 81.677 L59.9354 81.677 L59.9354 76.758 Z" fill="#000000" fill-rule="evenodd" fill-opacity="1" /><path clip-path="url(#clip560)" d="M96.625 74.3275 L102.73 74.3275 L102.73 81.677 L96.625 81.677 L96.625 74.3275 Z" fill="#000000" fill-rule="evenodd" fill-opacity="1" /><path clip-path="url(#clip560)" d="M127.962 42.3253 Q123.448 42.3253 121.162 46.7813 Q118.905 51.2084 118.905 60.1204 Q118.905 69.0034 121.162 73.4594 Q123.448 77.8865 127.962 77.8865 Q132.504 77.8865 134.761 73.4594 Q137.047 69.0034 137.047 60.1204 Q137.047 51.2084 134.761 46.7813 Q132.504 42.3253 127.962 42.3253 M127.962 37.6957 Q135.224 37.6957 139.044 43.4538 Q142.892 49.1829 142.892 60.1204 Q142.892 71.0289 139.044 76.787 Q135.224 82.5161 127.962 82.5161 Q120.699 82.5161 116.851 76.787 Q113.031 71.0289 113.031 60.1204 Q113.031 49.1829 116.851 43.4538 Q120.699 37.6957 127.962 37.6957 Z" fill="#000000" fill-rule="evenodd" fill-opacity="1" /><path clip-path="url(#clip560)" d="M165.664 42.3253 Q161.15 42.3253 158.864 46.7813 Q156.607 51.2084 156.607 60.1204 Q156.607 69.0034 158.864 73.4594 Q161.15 77.8865 165.664 77.8865 Q170.207 77.8865 172.464 73.4594 Q174.75 69.0034 174.75 60.1204 Q174.75 51.2084 172.464 46.7813 Q170.207 42.3253 165.664 42.3253 M165.664 37.6957 Q172.927 37.6957 176.746 43.4538 Q180.594 49.1829 180.594 60.1204 Q180.594 71.0289 176.746 76.787 Q172.927 82.5161 165.664 82.5161 Q158.401 82.5161 154.553 76.787 Q150.734 71.0289 150.734 60.1204 Q150.734 49.1829 154.553 43.4538 Q158.401 37.6957 165.664 37.6957 Z" fill="#000000" fill-rule="evenodd" fill-opacity="1" /><polyline clip-path="url(#clip562)" style="stroke:#ff00ff; stroke-linecap:butt; stroke-linejoin:round; stroke-width:16; stroke-opacity:1; fill:none" points="
  207.066,274.065 214.037,274.147 221.008,274.135 227.98,274.132 234.951,274.13 241.922,274.127 248.893,274.125 255.865,274.123 262.836,274.122 269.807,274.12 
  276.778,274.118 283.75,274.117 290.721,274.115 297.692,274.113 304.663,274.112 311.635,274.11 318.606,274.109 325.577,274.107 332.549,274.106 339.52,274.104 
  346.491,274.103 353.462,274.101 360.434,274.1 367.405,274.098 374.376,274.097 381.347,274.096 388.319,274.094 395.29,274.093 402.261,274.092 409.233,274.09 
  416.204,274.089 423.175,274.088 430.146,274.086 437.118,274.085 444.089,274.084 451.06,274.083 458.031,274.081 465.003,274.08 471.974,274.079 478.945,274.078 
  485.916,274.076 492.888,274.075 499.859,274.074 506.83,274.073 513.802,274.072 520.773,274.071 527.744,274.07 534.715,274.068 541.687,274.067 548.658,274.066 
  555.629,274.065 562.6,274.064 569.572,274.063 576.543,274.062 583.514,274.061 590.485,274.06 597.457,274.059 604.428,274.058 611.399,274.057 618.371,274.056 
  625.342,274.055 632.313,274.054 639.284,274.053 646.256,274.052 653.227,274.051 660.198,274.05 667.169,274.049 674.141,274.048 681.112,274.047 688.083,274.047 
  695.054,274.046 702.026,274.045 708.997,274.044 715.968,274.043 722.94,274.042 729.911,274.041 736.882,274.041 743.853,274.04 750.825,274.039 757.796,274.038 
  764.767,274.037 771.738,274.037 778.71,274.036 785.681,274.035 792.652,274.034 799.623,274.033 806.595,274.033 813.566,274.032 820.537,274.031 827.509,274.03 
  834.48,274.03 841.451,274.029 848.422,274.028 855.394,274.028 862.365,274.027 869.336,274.026 876.307,274.026 883.279,274.025 890.25,274.024 897.221,274.024 
  904.193,274.023 911.164,274.022 918.135,274.022 925.106,274.021 932.078,274.02 939.049,274.02 946.02,274.019 952.991,274.019 959.963,274.018 966.934,274.017 
  973.905,274.017 980.876,274.016 987.848,274.016 994.819,274.015 1001.79,274.014 1008.76,274.014 1015.73,274.013 1022.7,274.013 1029.68,274.012 1036.65,274.012 
  1043.62,274.011 1050.59,274.011 1057.56,274.01 1064.53,274.01 1071.5,274.009 1078.47,274.009 1085.45,274.008 1092.42,274.008 1099.39,274.007 1106.36,274.007 
  1113.33,274.006 1120.3,274.006 1127.27,274.005 1134.24,274.005 1141.22,274.004 1148.19,274.004 1155.16,274.003 1162.13,274.003 1169.1,274.002 1176.07,274.002 
  1183.04,274.002 1190.01,274.001 1196.99,274.001 1203.96,274 1210.93,274 1217.9,273.999 1224.87,273.999 1231.84,273.999 1238.81,273.998 1245.78,273.998 
  1252.76,273.997 
  "/>
<polyline clip-path="url(#clip562)" style="stroke:#2000d4; stroke-linecap:butt; stroke-linejoin:round; stroke-width:16; stroke-opacity:1; fill:none" stroke-dasharray="8, 16" points="
  207.066,487.84 214.037,487.84 221.008,487.84 227.98,487.84 234.951,487.84 241.922,487.84 248.893,487.84 255.865,487.84 262.836,487.84 269.807,487.84 
  276.778,487.84 283.75,487.84 290.721,487.84 297.692,487.84 304.663,487.84 311.635,487.84 318.606,487.84 325.577,487.84 332.549,487.84 339.52,487.84 
  346.491,487.84 353.462,487.84 360.434,487.84 367.405,487.84 374.376,487.84 381.347,487.84 388.319,487.84 395.29,487.84 402.261,487.84 409.233,487.84 
  416.204,487.84 423.175,487.84 430.146,487.84 437.118,487.84 444.089,487.84 451.06,487.84 458.031,487.84 465.003,487.84 471.974,487.84 478.945,487.84 
  485.916,487.84 492.888,487.84 499.859,487.84 506.83,487.84 513.802,487.84 520.773,487.84 527.744,487.84 534.715,487.84 541.687,487.84 548.658,487.84 
  555.629,487.84 562.6,487.84 569.572,487.84 576.543,487.84 583.514,487.84 590.485,487.84 597.457,487.84 604.428,487.84 611.399,487.84 618.371,487.84 
  625.342,487.84 632.313,487.84 639.284,487.84 646.256,487.84 653.227,487.84 660.198,487.84 667.169,487.84 674.141,487.84 681.112,487.84 688.083,487.84 
  695.054,487.84 702.026,487.84 708.997,487.84 715.968,487.84 722.94,487.84 729.911,487.84 736.882,487.84 743.853,487.84 750.825,487.84 757.796,487.84 
  764.767,487.84 771.738,487.84 778.71,487.84 785.681,487.839 792.652,487.839 799.623,487.839 806.595,487.839 813.566,487.839 820.537,487.839 827.509,487.839 
  834.48,487.839 841.451,487.839 848.422,487.839 855.394,487.839 862.365,487.839 869.336,487.839 876.307,487.839 883.279,487.839 890.25,487.839 897.221,487.839 
  904.193,487.839 911.164,487.839 918.135,487.839 925.106,487.839 932.078,487.839 939.049,487.839 946.02,487.839 952.991,487.839 959.963,487.839 966.934,487.839 
  973.905,487.839 980.876,487.839 987.848,487.839 994.819,487.839 1001.79,487.839 1008.76,487.839 1015.73,487.839 1022.7,487.839 1029.68,487.839 1036.65,487.839 
  1043.62,487.839 1050.59,487.839 1057.56,487.839 1064.53,487.839 1071.5,487.839 1078.47,487.839 1085.45,487.839 1092.42,487.839 1099.39,487.839 1106.36,487.839 
  1113.33,487.839 1120.3,487.839 1127.27,487.839 1134.24,487.839 1141.22,487.839 1148.19,487.839 1155.16,487.839 1162.13,487.839 1169.1,487.839 1176.07,487.839 
  1183.04,487.839 1190.01,487.839 1196.99,487.839 1203.96,487.839 1210.93,487.839 1217.9,487.839 1224.87,487.839 1231.84,487.839 1238.81,487.839 1245.78,487.839 
  1252.76,487.839 
  "/>
<polyline clip-path="url(#clip562)" style="stroke:#008900; stroke-linecap:butt; stroke-linejoin:round; stroke-width:16; stroke-opacity:1; fill:none" stroke-dasharray="64, 40" points="
  207.066,487.84 214.037,487.84 221.008,487.839 227.98,487.839 234.951,487.839 241.922,487.839 248.893,487.84 255.865,487.84 262.836,487.84 269.807,487.84 
  276.778,487.84 283.75,487.84 290.721,487.84 297.692,487.84 304.663,487.84 311.635,487.84 318.606,487.84 325.577,487.84 332.549,487.84 339.52,487.84 
  346.491,487.84 353.462,487.84 360.434,487.84 367.405,487.84 374.376,487.84 381.347,487.84 388.319,487.84 395.29,487.84 402.261,487.84 409.233,487.84 
  416.204,487.84 423.175,487.84 430.146,487.84 437.118,487.84 444.089,487.84 451.06,487.84 458.031,487.84 465.003,487.84 471.974,487.84 478.945,487.84 
  485.916,487.84 492.888,487.84 499.859,487.84 506.83,487.84 513.802,487.84 520.773,487.84 527.744,487.84 534.715,487.84 541.687,487.84 548.658,487.84 
  555.629,487.84 562.6,487.84 569.572,487.84 576.543,487.84 583.514,487.84 590.485,487.84 597.457,487.84 604.428,487.84 611.399,487.84 618.371,487.84 
  625.342,487.84 632.313,487.84 639.284,487.84 646.256,487.84 653.227,487.84 660.198,487.84 667.169,487.84 674.141,487.84 681.112,487.84 688.083,487.84 
  695.054,487.84 702.026,487.84 708.997,487.84 715.968,487.84 722.94,487.84 729.911,487.84 736.882,487.84 743.853,487.84 750.825,487.84 757.796,487.84 
  764.767,487.84 771.738,487.84 778.71,487.84 785.681,487.84 792.652,487.84 799.623,487.84 806.595,487.84 813.566,487.84 820.537,487.84 827.509,487.84 
  834.48,487.84 841.451,487.84 848.422,487.84 855.394,487.84 862.365,487.84 869.336,487.84 876.307,487.84 883.279,487.84 890.25,487.84 897.221,487.84 
  904.193,487.84 911.164,487.84 918.135,487.84 925.106,487.84 932.078,487.84 939.049,487.84 946.02,487.84 952.991,487.84 959.963,487.84 966.934,487.84 
  973.905,487.84 980.876,487.84 987.848,487.84 994.819,487.84 1001.79,487.84 1008.76,487.84 1015.73,487.84 1022.7,487.84 1029.68,487.84 1036.65,487.84 
  1043.62,487.84 1050.59,487.84 1057.56,487.84 1064.53,487.84 1071.5,487.84 1078.47,487.84 1085.45,487.84 1092.42,487.84 1099.39,487.84 1106.36,487.84 
  1113.33,487.84 1120.3,487.84 1127.27,487.84 1134.24,487.84 1141.22,487.84 1148.19,487.84 1155.16,487.84 1162.13,487.84 1169.1,487.84 1176.07,487.84 
  1183.04,487.84 1190.01,487.84 1196.99,487.84 1203.96,487.84 1210.93,487.84 1217.9,487.84 1224.87,487.84 1231.84,487.84 1238.81,487.84 1245.78,487.84 
  1252.76,487.84 
  "/>
<polyline clip-path="url(#clip562)" style="stroke:#008900; stroke-linecap:butt; stroke-linejoin:round; stroke-width:16; stroke-opacity:1; fill:none" stroke-dasharray="8, 16" points="
  207.066,487.84 214.037,487.84 221.008,487.839 227.98,487.84 234.951,487.84 241.922,487.84 248.893,487.84 255.865,487.84 262.836,487.84 269.807,487.84 
  276.778,487.84 283.75,487.84 290.721,487.84 297.692,487.84 304.663,487.84 311.635,487.84 318.606,487.84 325.577,487.84 332.549,487.84 339.52,487.84 
  346.491,487.84 353.462,487.84 360.434,487.84 367.405,487.84 374.376,487.84 381.347,487.84 388.319,487.84 395.29,487.84 402.261,487.84 409.233,487.84 
  416.204,487.84 423.175,487.84 430.146,487.84 437.118,487.84 444.089,487.84 451.06,487.84 458.031,487.84 465.003,487.84 471.974,487.84 478.945,487.84 
  485.916,487.84 492.888,487.84 499.859,487.84 506.83,487.84 513.802,487.84 520.773,487.84 527.744,487.84 534.715,487.84 541.687,487.84 548.658,487.84 
  555.629,487.84 562.6,487.84 569.572,487.84 576.543,487.84 583.514,487.84 590.485,487.84 597.457,487.84 604.428,487.84 611.399,487.84 618.371,487.84 
  625.342,487.84 632.313,487.84 639.284,487.84 646.256,487.84 653.227,487.84 660.198,487.84 667.169,487.84 674.141,487.84 681.112,487.84 688.083,487.84 
  695.054,487.84 702.026,487.84 708.997,487.84 715.968,487.84 722.94,487.84 729.911,487.84 736.882,487.84 743.853,487.84 750.825,487.84 757.796,487.84 
  764.767,487.84 771.738,487.84 778.71,487.84 785.681,487.84 792.652,487.84 799.623,487.84 806.595,487.84 813.566,487.84 820.537,487.84 827.509,487.84 
  834.48,487.84 841.451,487.84 848.422,487.84 855.394,487.84 862.365,487.84 869.336,487.84 876.307,487.84 883.279,487.84 890.25,487.84 897.221,487.84 
  904.193,487.84 911.164,487.84 918.135,487.84 925.106,487.84 932.078,487.84 939.049,487.84 946.02,487.84 952.991,487.84 959.963,487.84 966.934,487.84 
  973.905,487.84 980.876,487.84 987.848,487.84 994.819,487.84 1001.79,487.84 1008.76,487.84 1015.73,487.84 1022.7,487.84 1029.68,487.84 1036.65,487.84 
  1043.62,487.84 1050.59,487.84 1057.56,487.84 1064.53,487.84 1071.5,487.84 1078.47,487.84 1085.45,487.84 1092.42,487.84 1099.39,487.84 1106.36,487.84 
  1113.33,487.84 1120.3,487.84 1127.27,487.84 1134.24,487.84 1141.22,487.84 1148.19,487.84 1155.16,487.84 1162.13,487.84 1169.1,487.84 1176.07,487.84 
  1183.04,487.84 1190.01,487.84 1196.99,487.84 1203.96,487.84 1210.93,487.84 1217.9,487.84 1224.87,487.84 1231.84,487.84 1238.81,487.84 1245.78,487.84 
  1252.76,487.84 
  "/>
<polyline clip-path="url(#clip562)" style="stroke:#2000d4; stroke-linecap:butt; stroke-linejoin:round; stroke-width:16; stroke-opacity:1; fill:none" points="
  207.066,487.412 214.037,487.081 221.008,487.096 227.98,487.108 234.951,487.119 241.922,487.128 248.893,487.137 255.865,487.145 262.836,487.152 269.807,487.159 
  276.778,487.166 283.75,487.173 290.721,487.18 297.692,487.187 304.663,487.193 311.635,487.2 318.606,487.206 325.577,487.213 332.549,487.219 339.52,487.225 
  346.491,487.231 353.462,487.237 360.434,487.243 367.405,487.249 374.376,487.255 381.347,487.261 388.319,487.267 395.29,487.273 402.261,487.278 409.233,487.284 
  416.204,487.289 423.175,487.295 430.146,487.3 437.118,487.306 444.089,487.311 451.06,487.316 458.031,487.322 465.003,487.327 471.974,487.332 478.945,487.337 
  485.916,487.342 492.888,487.347 499.859,487.352 506.83,487.357 513.802,487.362 520.773,487.366 527.744,487.371 534.715,487.376 541.687,487.38 548.658,487.385 
  555.629,487.389 562.6,487.394 569.572,487.398 576.543,487.403 583.514,487.407 590.485,487.412 597.457,487.416 604.428,487.42 611.399,487.424 618.371,487.428 
  625.342,487.432 632.313,487.437 639.284,487.441 646.256,487.445 653.227,487.449 660.198,487.452 667.169,487.456 674.141,487.46 681.112,487.464 688.083,487.468 
  695.054,487.471 702.026,487.475 708.997,487.479 715.968,487.482 722.94,487.486 729.911,487.489 736.882,487.493 743.853,487.496 750.825,487.5 757.796,487.503 
  764.767,487.507 771.738,487.51 778.71,487.513 785.681,487.516 792.652,487.52 799.623,487.523 806.595,487.526 813.566,487.529 820.537,487.532 827.509,487.535 
  834.48,487.538 841.451,487.541 848.422,487.544 855.394,487.547 862.365,487.55 869.336,487.553 876.307,487.556 883.279,487.559 890.25,487.562 897.221,487.564 
  904.193,487.567 911.164,487.57 918.135,487.573 925.106,487.575 932.078,487.578 939.049,487.581 946.02,487.583 952.991,487.586 959.963,487.588 966.934,487.591 
  973.905,487.593 980.876,487.596 987.848,487.598 994.819,487.601 1001.79,487.603 1008.76,487.605 1015.73,487.608 1022.7,487.61 1029.68,487.612 1036.65,487.615 
  1043.62,487.617 1050.59,487.619 1057.56,487.621 1064.53,487.623 1071.5,487.626 1078.47,487.628 1085.45,487.63 1092.42,487.632 1099.39,487.634 1106.36,487.636 
  1113.33,487.638 1120.3,487.64 1127.27,487.642 1134.24,487.644 1141.22,487.646 1148.19,487.648 1155.16,487.65 1162.13,487.652 1169.1,487.654 1176.07,487.655 
  1183.04,487.657 1190.01,487.659 1196.99,487.661 1203.96,487.663 1210.93,487.664 1217.9,487.666 1224.87,487.668 1231.84,487.67 1238.81,487.671 1245.78,487.673 
  1252.76,487.675 
  "/>
<polyline clip-path="url(#clip562)" style="stroke:#008900; stroke-linecap:butt; stroke-linejoin:round; stroke-width:16; stroke-opacity:1; fill:none" points="
  207.066,487.626 214.037,487.58 221.008,487.665 227.98,487.718 234.951,487.754 241.922,487.778 248.893,487.794 255.865,487.804 262.836,487.812 269.807,487.817 
  276.778,487.82 283.75,487.822 290.721,487.824 297.692,487.825 304.663,487.826 311.635,487.826 318.606,487.826 325.577,487.827 332.549,487.827 339.52,487.827 
  346.491,487.827 353.462,487.828 360.434,487.828 367.405,487.828 374.376,487.828 381.347,487.828 388.319,487.828 395.29,487.828 402.261,487.828 409.233,487.829 
  416.204,487.829 423.175,487.829 430.146,487.829 437.118,487.829 444.089,487.829 451.06,487.829 458.031,487.829 465.003,487.829 471.974,487.83 478.945,487.83 
  485.916,487.83 492.888,487.83 499.859,487.83 506.83,487.83 513.802,487.83 520.773,487.83 527.744,487.83 534.715,487.83 541.687,487.83 548.658,487.831 
  555.629,487.831 562.6,487.831 569.572,487.831 576.543,487.831 583.514,487.831 590.485,487.831 597.457,487.831 604.428,487.831 611.399,487.831 618.371,487.831 
  625.342,487.832 632.313,487.832 639.284,487.832 646.256,487.832 653.227,487.832 660.198,487.832 667.169,487.832 674.141,487.832 681.112,487.832 688.083,487.832 
  695.054,487.832 702.026,487.832 708.997,487.832 715.968,487.832 722.94,487.833 729.911,487.833 736.882,487.833 743.853,487.833 750.825,487.833 757.796,487.833 
  764.767,487.833 771.738,487.833 778.71,487.833 785.681,487.833 792.652,487.833 799.623,487.833 806.595,487.833 813.566,487.833 820.537,487.833 827.509,487.834 
  834.48,487.834 841.451,487.834 848.422,487.834 855.394,487.834 862.365,487.834 869.336,487.834 876.307,487.834 883.279,487.834 890.25,487.834 897.221,487.834 
  904.193,487.834 911.164,487.834 918.135,487.834 925.106,487.834 932.078,487.834 939.049,487.834 946.02,487.834 952.991,487.835 959.963,487.835 966.934,487.835 
  973.905,487.835 980.876,487.835 987.848,487.835 994.819,487.835 1001.79,487.835 1008.76,487.835 1015.73,487.835 1022.7,487.835 1029.68,487.835 1036.65,487.835 
  1043.62,487.835 1050.59,487.835 1057.56,487.835 1064.53,487.835 1071.5,487.835 1078.47,487.835 1085.45,487.835 1092.42,487.835 1099.39,487.835 1106.36,487.836 
  1113.33,487.836 1120.3,487.836 1127.27,487.836 1134.24,487.836 1141.22,487.836 1148.19,487.836 1155.16,487.836 1162.13,487.836 1169.1,487.836 1176.07,487.836 
  1183.04,487.836 1190.01,487.836 1196.99,487.836 1203.96,487.836 1210.93,487.836 1217.9,487.836 1224.87,487.836 1231.84,487.836 1238.81,487.836 1245.78,487.836 
  1252.76,487.836 
  "/>
<polyline clip-path="url(#clip562)" style="stroke:#7f7f7f; stroke-linecap:butt; stroke-linejoin:round; stroke-width:16; stroke-opacity:1; fill:none" points="
  207.066,60.077 214.037,133.824 221.008,196.019 227.98,251.923 234.951,298.647 241.922,337.847 248.893,370.561 255.865,397.63 262.836,419.709 269.807,437.357 
  276.778,451.118 283.75,461.569 290.721,469.306 297.692,474.906 304.663,478.886 311.635,481.674 318.606,483.607 325.577,484.936 332.549,485.846 339.52,486.466 
  346.491,486.888 353.462,487.174 360.434,487.368 367.405,487.5 374.376,487.589 381.347,487.65 388.319,487.691 395.29,487.719 402.261,487.739 409.233,487.752 
  416.204,487.761 423.175,487.767 430.146,487.772 437.118,487.775 444.089,487.777 451.06,487.779 458.031,487.78 465.003,487.781 471.974,487.782 478.945,487.783 
  485.916,487.784 492.888,487.785 499.859,487.785 506.83,487.786 513.802,487.786 520.773,487.787 527.744,487.787 534.715,487.788 541.687,487.789 548.658,487.789 
  555.629,487.79 562.6,487.79 569.572,487.791 576.543,487.791 583.514,487.792 590.485,487.792 597.457,487.792 604.428,487.793 611.399,487.793 618.371,487.794 
  625.342,487.794 632.313,487.795 639.284,487.795 646.256,487.796 653.227,487.796 660.198,487.797 667.169,487.797 674.141,487.797 681.112,487.798 688.083,487.798 
  695.054,487.799 702.026,487.799 708.997,487.799 715.968,487.8 722.94,487.8 729.911,487.801 736.882,487.801 743.853,487.801 750.825,487.802 757.796,487.802 
  764.767,487.803 771.738,487.803 778.71,487.803 785.681,487.804 792.652,487.804 799.623,487.804 806.595,487.805 813.566,487.805 820.537,487.805 827.509,487.806 
  834.48,487.806 841.451,487.806 848.422,487.807 855.394,487.807 862.365,487.807 869.336,487.808 876.307,487.808 883.279,487.808 890.25,487.809 897.221,487.809 
  904.193,487.809 911.164,487.81 918.135,487.81 925.106,487.81 932.078,487.81 939.049,487.811 946.02,487.811 952.991,487.811 959.963,487.812 966.934,487.812 
  973.905,487.812 980.876,487.812 987.848,487.813 994.819,487.813 1001.79,487.813 1008.76,487.813 1015.73,487.814 1022.7,487.814 1029.68,487.814 1036.65,487.815 
  1043.62,487.815 1050.59,487.815 1057.56,487.815 1064.53,487.816 1071.5,487.816 1078.47,487.816 1085.45,487.816 1092.42,487.816 1099.39,487.817 1106.36,487.817 
  1113.33,487.817 1120.3,487.817 1127.27,487.818 1134.24,487.818 1141.22,487.818 1148.19,487.818 1155.16,487.818 1162.13,487.819 1169.1,487.819 1176.07,487.819 
  1183.04,487.819 1190.01,487.819 1196.99,487.82 1203.96,487.82 1210.93,487.82 1217.9,487.82 1224.87,487.82 1231.84,487.821 1238.81,487.821 1245.78,487.821 
  1252.76,487.821 
  "/>
<polyline clip-path="url(#clip562)" style="stroke:#895f55; stroke-linecap:butt; stroke-linejoin:round; stroke-width:16; stroke-opacity:1; fill:none" points="
  214.037,487.416 221.008,487.119 227.98,487.133 234.951,487.144 241.922,487.154 248.893,487.163 255.865,487.171 262.836,487.179 269.807,487.186 276.778,487.193 
  283.75,487.2 290.721,487.206 297.692,487.213 304.663,487.219 311.635,487.225 318.606,487.232 325.577,487.238 332.549,487.244 339.52,487.25 346.491,487.256 
  353.462,487.261 360.434,487.267 367.405,487.273 374.376,487.279 381.347,487.284 388.319,487.29 395.29,487.295 402.261,487.301 409.233,487.306 416.204,487.311 
  423.175,487.317 430.146,487.322 437.118,487.327 444.089,487.332 451.06,487.337 458.031,487.342 465.003,487.347 471.974,487.352 478.945,487.357 485.916,487.362 
  492.888,487.367 499.859,487.371 506.83,487.376 513.802,487.381 520.773,487.385 527.744,487.39 534.715,487.394 541.687,487.399 548.658,487.403 555.629,487.407 
  562.6,487.412 569.572,487.416 576.543,487.42 583.514,487.424 590.485,487.429 597.457,487.433 604.428,487.437 611.399,487.441 618.371,487.445 625.342,487.449 
  632.313,487.453 639.284,487.457 646.256,487.46 653.227,487.464 660.198,487.468 667.169,487.472 674.141,487.475 681.112,487.479 688.083,487.483 695.054,487.486 
  702.026,487.49 708.997,487.493 715.968,487.497 722.94,487.5 729.911,487.503 736.882,487.507 743.853,487.51 750.825,487.513 757.796,487.517 764.767,487.52 
  771.738,487.523 778.71,487.526 785.681,487.529 792.652,487.532 799.623,487.536 806.595,487.539 813.566,487.542 820.537,487.545 827.509,487.548 834.48,487.55 
  841.451,487.553 848.422,487.556 855.394,487.559 862.365,487.562 869.336,487.565 876.307,487.567 883.279,487.57 890.25,487.573 897.221,487.575 904.193,487.578 
  911.164,487.581 918.135,487.583 925.106,487.586 932.078,487.588 939.049,487.591 946.02,487.593 952.991,487.596 959.963,487.598 966.934,487.601 973.905,487.603 
  980.876,487.605 987.848,487.608 994.819,487.61 1001.79,487.612 1008.76,487.615 1015.73,487.617 1022.7,487.619 1029.68,487.621 1036.65,487.624 1043.62,487.626 
  1050.59,487.628 1057.56,487.63 1064.53,487.632 1071.5,487.634 1078.47,487.636 1085.45,487.638 1092.42,487.64 1099.39,487.642 1106.36,487.644 1113.33,487.646 
  1120.3,487.648 1127.27,487.65 1134.24,487.652 1141.22,487.654 1148.19,487.656 1155.16,487.657 1162.13,487.659 1169.1,487.661 1176.07,487.663 1183.04,487.665 
  1190.01,487.666 1196.99,487.668 1203.96,487.67 1210.93,487.671 1217.9,487.673 1224.87,487.675 1231.84,487.676 1238.81,487.678 1245.78,487.68 1252.76,487.681 
  
  "/>
<polyline clip-path="url(#clip562)" style="stroke:#2000d4; stroke-linecap:butt; stroke-linejoin:round; stroke-width:16; stroke-opacity:1; fill:none" stroke-dasharray="64, 40" points="
  207.066,487.84 214.037,487.84 221.008,487.84 227.98,487.84 234.951,487.84 241.922,487.84 248.893,487.84 255.865,487.84 262.836,487.84 269.807,487.84 
  276.778,487.84 283.75,487.84 290.721,487.84 297.692,487.84 304.663,487.84 311.635,487.84 318.606,487.84 325.577,487.84 332.549,487.84 339.52,487.84 
  346.491,487.84 353.462,487.84 360.434,487.84 367.405,487.84 374.376,487.84 381.347,487.84 388.319,487.84 395.29,487.84 402.261,487.84 409.233,487.84 
  416.204,487.84 423.175,487.84 430.146,487.84 437.118,487.84 444.089,487.84 451.06,487.84 458.031,487.84 465.003,487.84 471.974,487.84 478.945,487.84 
  485.916,487.84 492.888,487.84 499.859,487.84 506.83,487.84 513.802,487.84 520.773,487.84 527.744,487.84 534.715,487.84 541.687,487.84 548.658,487.84 
  555.629,487.84 562.6,487.84 569.572,487.84 576.543,487.84 583.514,487.84 590.485,487.84 597.457,487.84 604.428,487.84 611.399,487.84 618.371,487.84 
  625.342,487.84 632.313,487.84 639.284,487.84 646.256,487.84 653.227,487.84 660.198,487.84 667.169,487.84 674.141,487.84 681.112,487.84 688.083,487.84 
  695.054,487.84 702.026,487.84 708.997,487.84 715.968,487.84 722.94,487.84 729.911,487.84 736.882,487.84 743.853,487.84 750.825,487.84 757.796,487.84 
  764.767,487.84 771.738,487.84 778.71,487.84 785.681,487.839 792.652,487.839 799.623,487.839 806.595,487.839 813.566,487.839 820.537,487.839 827.509,487.839 
  834.48,487.839 841.451,487.839 848.422,487.839 855.394,487.839 862.365,487.839 869.336,487.839 876.307,487.839 883.279,487.839 890.25,487.839 897.221,487.839 
  904.193,487.839 911.164,487.839 918.135,487.839 925.106,487.839 932.078,487.839 939.049,487.839 946.02,487.839 952.991,487.839 959.963,487.839 966.934,487.839 
  973.905,487.839 980.876,487.839 987.848,487.839 994.819,487.839 1001.79,487.839 1008.76,487.839 1015.73,487.839 1022.7,487.839 1029.68,487.839 1036.65,487.839 
  1043.62,487.839 1050.59,487.839 1057.56,487.839 1064.53,487.839 1071.5,487.839 1078.47,487.839 1085.45,487.839 1092.42,487.839 1099.39,487.839 1106.36,487.839 
  1113.33,487.839 1120.3,487.839 1127.27,487.839 1134.24,487.839 1141.22,487.839 1148.19,487.839 1155.16,487.839 1162.13,487.839 1169.1,487.839 1176.07,487.839 
  1183.04,487.839 1190.01,487.839 1196.99,487.839 1203.96,487.839 1210.93,487.839 1217.9,487.839 1224.87,487.839 1231.84,487.839 1238.81,487.839 1245.78,487.839 
  1252.76,487.839 
  "/>
<polyline clip-path="url(#clip562)" style="stroke:#ff221c; stroke-linecap:butt; stroke-linejoin:round; stroke-width:16; stroke-opacity:1; fill:none" points="
  207.066,60.2195 214.037,60.0783 221.008,60.0783 227.98,60.0781 234.951,60.078 241.922,60.078 248.893,60.078 255.865,60.078 262.836,60.078 269.807,60.078 
  276.778,60.078 283.75,60.078 290.721,60.078 297.692,60.078 304.663,60.078 311.635,60.078 318.606,60.078 325.577,60.078 332.549,60.078 339.52,60.078 
  346.491,60.078 353.462,60.078 360.434,60.078 367.405,60.078 374.376,60.078 381.347,60.078 388.319,60.078 395.29,60.078 402.261,60.078 409.233,60.078 
  416.204,60.078 423.175,60.078 430.146,60.078 437.118,60.078 444.089,60.078 451.06,60.078 458.031,60.078 465.003,60.078 471.974,60.078 478.945,60.078 
  485.916,60.078 492.888,60.078 499.859,60.078 506.83,60.078 513.802,60.078 520.773,60.078 527.744,60.078 534.715,60.078 541.687,60.078 548.658,60.078 
  555.629,60.078 562.6,60.078 569.572,60.078 576.543,60.078 583.514,60.078 590.485,60.078 597.457,60.078 604.428,60.078 611.399,60.078 618.371,60.078 
  625.342,60.078 632.313,60.078 639.284,60.078 646.256,60.078 653.227,60.078 660.198,60.078 667.169,60.078 674.141,60.078 681.112,60.078 688.083,60.078 
  695.054,60.078 702.026,60.078 708.997,60.078 715.968,60.078 722.94,60.078 729.911,60.078 736.882,60.078 743.853,60.078 750.825,60.078 757.796,60.078 
  764.767,60.078 771.738,60.078 778.71,60.078 785.681,60.078 792.652,60.078 799.623,60.078 806.595,60.078 813.566,60.078 820.537,60.078 827.509,60.078 
  834.48,60.078 841.451,60.078 848.422,60.078 855.394,60.078 862.365,60.078 869.336,60.078 876.307,60.078 883.279,60.078 890.25,60.078 897.221,60.078 
  904.193,60.078 911.164,60.078 918.135,60.078 925.106,60.078 932.078,60.078 939.049,60.078 946.02,60.078 952.991,60.078 959.963,60.078 966.934,60.078 
  973.905,60.078 980.876,60.078 987.848,60.078 994.819,60.078 1001.79,60.078 1008.76,60.078 1015.73,60.078 1022.7,60.078 1029.68,60.078 1036.65,60.078 
  1043.62,60.078 1050.59,60.078 1057.56,60.078 1064.53,60.078 1071.5,60.078 1078.47,60.078 1085.45,60.078 1092.42,60.078 1099.39,60.078 1106.36,60.078 
  1113.33,60.078 1120.3,60.078 1127.27,60.078 1134.24,60.078 1141.22,60.078 1148.19,60.078 1155.16,60.078 1162.13,60.078 1169.1,60.078 1176.07,60.078 
  1183.04,60.078 1190.01,60.078 1196.99,60.078 1203.96,60.078 1210.93,60.078 1217.9,60.078 1224.87,60.078 1231.84,60.078 1238.81,60.078 1245.78,60.078 
  1252.76,60.078 
  "/>
<polyline clip-path="url(#clip562)" style="stroke:#000000; stroke-linecap:butt; stroke-linejoin:round; stroke-width:16; stroke-opacity:1; fill:none" stroke-dasharray="8, 16" points="
  207.066,60.077 214.037,60.5004 221.008,60.8678 227.98,60.9158 234.951,60.9119 241.922,60.9012 248.893,60.8906 255.865,60.8807 262.836,60.8715 269.807,60.8627 
  276.778,60.8544 283.75,60.8462 290.721,60.8383 297.692,60.8306 304.663,60.8229 311.635,60.8154 318.606,60.808 325.577,60.8006 332.549,60.7934 339.52,60.7862 
  346.491,60.7791 353.462,60.7721 360.434,60.7652 367.405,60.7583 374.376,60.7515 381.347,60.7447 388.319,60.7381 395.29,60.7315 402.261,60.7249 409.233,60.7184 
  416.204,60.712 423.175,60.7057 430.146,60.6994 437.118,60.6932 444.089,60.687 451.06,60.6809 458.031,60.6749 465.003,60.6689 471.974,60.663 478.945,60.6572 
  485.916,60.6514 492.888,60.6456 499.859,60.6399 506.83,60.6343 513.802,60.6288 520.773,60.6232 527.744,60.6178 534.715,60.6124 541.687,60.607 548.658,60.6017 
  555.629,60.5965 562.6,60.5913 569.572,60.5862 576.543,60.5811 583.514,60.576 590.485,60.571 597.457,60.5661 604.428,60.5612 611.399,60.5564 618.371,60.5516 
  625.342,60.5468 632.313,60.5422 639.284,60.5375 646.256,60.5329 653.227,60.5283 660.198,60.5238 667.169,60.5194 674.141,60.5149 681.112,60.5106 688.083,60.5062 
  695.054,60.5019 702.026,60.4977 708.997,60.4935 715.968,60.4893 722.94,60.4852 729.911,60.4811 736.882,60.4771 743.853,60.4731 750.825,60.4691 757.796,60.4652 
  764.767,60.4613 771.738,60.4575 778.71,60.4537 785.681,60.4499 792.652,60.4462 799.623,60.4425 806.595,60.4389 813.566,60.4352 820.537,60.4317 827.509,60.4281 
  834.48,60.4246 841.451,60.4211 848.422,60.4177 855.394,60.4143 862.365,60.4109 869.336,60.4076 876.307,60.4043 883.279,60.401 890.25,60.3978 897.221,60.3945 
  904.193,60.3914 911.164,60.3882 918.135,60.3851 925.106,60.382 932.078,60.379 939.049,60.376 946.02,60.373 952.991,60.37 959.963,60.3671 966.934,60.3642 
  973.905,60.3613 980.876,60.3585 987.848,60.3557 994.819,60.3529 1001.79,60.3501 1008.76,60.3474 1015.73,60.3447 1022.7,60.342 1029.68,60.3394 1036.65,60.3367 
  1043.62,60.3341 1050.59,60.3316 1057.56,60.329 1064.53,60.3265 1071.5,60.324 1078.47,60.3215 1085.45,60.3191 1092.42,60.3167 1099.39,60.3143 1106.36,60.3119 
  1113.33,60.3096 1120.3,60.3072 1127.27,60.3049 1134.24,60.3026 1141.22,60.3004 1148.19,60.2982 1155.16,60.2959 1162.13,60.2938 1169.1,60.2916 1176.07,60.2894 
  1183.04,60.2873 1190.01,60.2852 1196.99,60.2831 1203.96,60.2811 1210.93,60.279 1217.9,60.277 1224.87,60.275 1231.84,60.273 1238.81,60.2711 1245.78,60.2691 
  1252.76,60.2672 
  "/>
</svg>
