<?xml version="1.0" encoding="utf-8"?>
<svg xmlns="http://www.w3.org/2000/svg" xmlns:xlink="http://www.w3.org/1999/xlink" width="325" height="150" viewBox="0 0 1300 600">
<defs>
  <clipPath id="clip500">
    <rect x="0" y="0" width="1300" height="600"/>
  </clipPath>
</defs>
<path clip-path="url(#clip500)" d="
M0 600 L1300 600 L1300 0 L0 0  Z
  " fill="#ffffff" fill-rule="evenodd" fill-opacity="1"/>
<defs>
  <clipPath id="clip501">
    <rect x="260" y="0" width="911" height="600"/>
  </clipPath>
</defs>
<path clip-path="url(#clip500)" d="
M200.094 501.1 L1252.76 501.1 L1252.76 47.2441 L200.094 47.2441  Z
  " fill="#ffffff" fill-rule="evenodd" fill-opacity="1"/>
<defs>
  <clipPath id="clip502">
    <rect x="200" y="47" width="1054" height="455"/>
  </clipPath>
</defs>
<polyline clip-path="url(#clip500)" style="stroke:#000000; stroke-linecap:butt; stroke-linejoin:round; stroke-width:4; stroke-opacity:1; fill:none" points="
  200.094,501.1 1252.76,501.1 
  "/>
<polyline clip-path="url(#clip500)" style="stroke:#000000; stroke-linecap:butt; stroke-linejoin:round; stroke-width:4; stroke-opacity:1; fill:none" points="
  200.094,501.1 200.094,482.203 
  "/>
<polyline clip-path="url(#clip500)" style="stroke:#000000; stroke-linecap:butt; stroke-linejoin:round; stroke-width:4; stroke-opacity:1; fill:none" points="
  548.658,501.1 548.658,482.203 
  "/>
<polyline clip-path="url(#clip500)" style="stroke:#000000; stroke-linecap:butt; stroke-linejoin:round; stroke-width:4; stroke-opacity:1; fill:none" points="
  897.221,501.1 897.221,482.203 
  "/>
<polyline clip-path="url(#clip500)" style="stroke:#000000; stroke-linecap:butt; stroke-linejoin:round; stroke-width:4; stroke-opacity:1; fill:none" points="
  1245.78,501.1 1245.78,482.203 
  "/>
<path clip-path="url(#clip500)" d="M200.094 526.149 Q195.581 526.149 193.295 530.605 Q191.038 535.032 191.038 543.944 Q191.038 552.827 193.295 557.283 Q195.581 561.71 200.094 561.71 Q204.637 561.71 206.894 557.283 Q209.18 552.827 209.18 543.944 Q209.18 535.032 206.894 530.605 Q204.637 526.149 200.094 526.149 M200.094 521.519 Q207.357 521.519 211.177 527.277 Q215.025 533.006 215.025 543.944 Q215.025 554.852 211.177 560.61 Q207.357 566.339 200.094 566.339 Q192.832 566.339 188.983 560.61 Q185.164 554.852 185.164 543.944 Q185.164 533.006 188.983 527.277 Q192.832 521.519 200.094 521.519 Z" fill="#000000" fill-rule="evenodd" fill-opacity="1" /><path clip-path="url(#clip500)" d="M517.032 522.3 L539.977 522.3 L539.977 527.219 L522.385 527.219 L522.385 537.809 Q523.658 537.375 524.931 537.173 Q526.204 536.941 527.477 536.941 Q534.711 536.941 538.936 540.905 Q543.16 544.87 543.16 551.64 Q543.16 558.614 538.82 562.491 Q534.48 566.339 526.58 566.339 Q523.861 566.339 521.025 565.876 Q518.218 565.413 515.209 564.487 L515.209 558.614 Q517.813 560.031 520.591 560.726 Q523.369 561.42 526.465 561.42 Q531.47 561.42 534.393 558.787 Q537.315 556.154 537.315 551.64 Q537.315 547.126 534.393 544.493 Q531.47 541.86 526.465 541.86 Q524.121 541.86 521.777 542.381 Q519.462 542.902 517.032 544.001 L517.032 522.3 Z" fill="#000000" fill-rule="evenodd" fill-opacity="1" /><path clip-path="url(#clip500)" d="M567.176 526.149 Q562.662 526.149 560.377 530.605 Q558.12 535.032 558.12 543.944 Q558.12 552.827 560.377 557.283 Q562.662 561.71 567.176 561.71 Q571.719 561.71 573.976 557.283 Q576.262 552.827 576.262 543.944 Q576.262 535.032 573.976 530.605 Q571.719 526.149 567.176 526.149 M567.176 521.519 Q574.439 521.519 578.258 527.277 Q582.107 533.006 582.107 543.944 Q582.107 554.852 578.258 560.61 Q574.439 566.339 567.176 566.339 Q559.914 566.339 556.065 560.61 Q552.246 554.852 552.246 543.944 Q552.246 533.006 556.065 527.277 Q559.914 521.519 567.176 521.519 Z" fill="#000000" fill-rule="evenodd" fill-opacity="1" /><path clip-path="url(#clip500)" d="M846.73 560.581 L856.278 560.581 L856.278 527.624 L845.891 529.708 L845.891 524.384 L856.22 522.3 L862.065 522.3 L862.065 560.581 L871.614 560.581 L871.614 565.5 L846.73 565.5 L846.73 560.581 Z" fill="#000000" fill-rule="evenodd" fill-opacity="1" /><path clip-path="url(#clip500)" d="M895.919 526.149 Q891.405 526.149 889.119 530.605 Q886.863 535.032 886.863 543.944 Q886.863 552.827 889.119 557.283 Q891.405 561.71 895.919 561.71 Q900.462 561.71 902.719 557.283 Q905.005 552.827 905.005 543.944 Q905.005 535.032 902.719 530.605 Q900.462 526.149 895.919 526.149 M895.919 521.519 Q903.182 521.519 907.001 527.277 Q910.85 533.006 910.85 543.944 Q910.85 554.852 907.001 560.61 Q903.182 566.339 895.919 566.339 Q888.656 566.339 884.808 560.61 Q880.989 554.852 880.989 543.944 Q880.989 533.006 884.808 527.277 Q888.656 521.519 895.919 521.519 Z" fill="#000000" fill-rule="evenodd" fill-opacity="1" /><path clip-path="url(#clip500)" d="M933.622 526.149 Q929.108 526.149 926.822 530.605 Q924.565 535.032 924.565 543.944 Q924.565 552.827 926.822 557.283 Q929.108 561.71 933.622 561.71 Q938.164 561.71 940.421 557.283 Q942.707 552.827 942.707 543.944 Q942.707 535.032 940.421 530.605 Q938.164 526.149 933.622 526.149 M933.622 521.519 Q940.884 521.519 944.704 527.277 Q948.552 533.006 948.552 543.944 Q948.552 554.852 944.704 560.61 Q940.884 566.339 933.622 566.339 Q926.359 566.339 922.51 560.61 Q918.691 554.852 918.691 543.944 Q918.691 533.006 922.51 527.277 Q926.359 521.519 933.622 521.519 Z" fill="#000000" fill-rule="evenodd" fill-opacity="1" /><path clip-path="url(#clip500)" d="M1195.29 560.581 L1204.84 560.581 L1204.84 527.624 L1194.45 529.708 L1194.45 524.384 L1204.78 522.3 L1210.63 522.3 L1210.63 560.581 L1220.18 560.581 L1220.18 565.5 L1195.29 565.5 L1195.29 560.581 Z" fill="#000000" fill-rule="evenodd" fill-opacity="1" /><path clip-path="url(#clip500)" d="M1232.04 522.3 L1254.99 522.3 L1254.99 527.219 L1237.39 527.219 L1237.39 537.809 Q1238.67 537.375 1239.94 537.173 Q1241.21 536.941 1242.49 536.941 Q1249.72 536.941 1253.94 540.905 Q1258.17 544.87 1258.17 551.64 Q1258.17 558.614 1253.83 562.491 Q1249.49 566.339 1241.59 566.339 Q1238.87 566.339 1236.03 565.876 Q1233.23 565.413 1230.22 564.487 L1230.22 558.614 Q1232.82 560.031 1235.6 560.726 Q1238.38 561.42 1241.47 561.42 Q1246.48 561.42 1249.4 558.787 Q1252.32 556.154 1252.32 551.64 Q1252.32 547.126 1249.4 544.493 Q1246.48 541.86 1241.47 541.86 Q1239.13 541.86 1236.79 542.381 Q1234.47 542.902 1232.04 544.001 L1232.04 522.3 Z" fill="#000000" fill-rule="evenodd" fill-opacity="1" /><path clip-path="url(#clip500)" d="M1282.18 526.149 Q1277.67 526.149 1275.39 530.605 Q1273.13 535.032 1273.13 543.944 Q1273.13 552.827 1275.39 557.283 Q1277.67 561.71 1282.18 561.71 Q1286.73 561.71 1288.98 557.283 Q1291.27 552.827 1291.27 543.944 Q1291.27 535.032 1288.98 530.605 Q1286.73 526.149 1282.18 526.149 M1282.18 521.519 Q1289.45 521.519 1293.27 527.277 Q1297.12 533.006 1297.12 543.944 Q1297.12 554.852 1293.27 560.61 Q1289.45 566.339 1282.18 566.339 Q1274.92 566.339 1271.07 560.61 Q1267.25 554.852 1267.25 543.944 Q1267.25 533.006 1271.07 527.277 Q1274.92 521.519 1282.18 521.519 Z" fill="#000000" fill-rule="evenodd" fill-opacity="1" /><polyline clip-path="url(#clip500)" style="stroke:#000000; stroke-linecap:butt; stroke-linejoin:round; stroke-width:4; stroke-opacity:1; fill:none" points="
  200.094,501.1 200.094,47.2441 
  "/>
<polyline clip-path="url(#clip500)" style="stroke:#000000; stroke-linecap:butt; stroke-linejoin:round; stroke-width:4; stroke-opacity:1; fill:none" points="
  200.094,487.84 218.992,487.84 
  "/>
<polyline clip-path="url(#clip500)" style="stroke:#000000; stroke-linecap:butt; stroke-linejoin:round; stroke-width:4; stroke-opacity:1; fill:none" points="
  200.094,380.899 218.992,380.899 
  "/>
<polyline clip-path="url(#clip500)" style="stroke:#000000; stroke-linecap:butt; stroke-linejoin:round; stroke-width:4; stroke-opacity:1; fill:none" points="
  200.094,273.958 218.992,273.958 
  "/>
<polyline clip-path="url(#clip500)" style="stroke:#000000; stroke-linecap:butt; stroke-linejoin:round; stroke-width:4; stroke-opacity:1; fill:none" points="
  200.094,167.018 218.992,167.018 
  "/>
<polyline clip-path="url(#clip500)" style="stroke:#000000; stroke-linecap:butt; stroke-linejoin:round; stroke-width:4; stroke-opacity:1; fill:none" points="
  200.094,60.077 218.992,60.077 
  "/>
<path clip-path="url(#clip500)" d="M71.4226 470.088 Q66.9087 470.088 64.6229 474.544 Q62.3659 478.971 62.3659 487.883 Q62.3659 496.766 64.6229 501.222 Q66.9087 505.649 71.4226 505.649 Q75.9654 505.649 78.2223 501.222 Q80.5082 496.766 80.5082 487.883 Q80.5082 478.971 78.2223 474.544 Q75.9654 470.088 71.4226 470.088 M71.4226 465.458 Q78.6853 465.458 82.5047 471.216 Q86.3531 476.946 86.3531 487.883 Q86.3531 498.791 82.5047 504.55 Q78.6853 510.279 71.4226 510.279 Q64.1599 510.279 60.3115 504.55 Q56.4921 498.791 56.4921 487.883 Q56.4921 476.946 60.3115 471.216 Q64.1599 465.458 71.4226 465.458 Z" fill="#000000" fill-rule="evenodd" fill-opacity="1" /><path clip-path="url(#clip500)" d="M96.625 502.09 L102.73 502.09 L102.73 509.44 L96.625 509.44 L96.625 502.09 Z" fill="#000000" fill-rule="evenodd" fill-opacity="1" /><path clip-path="url(#clip500)" d="M127.962 470.088 Q123.448 470.088 121.162 474.544 Q118.905 478.971 118.905 487.883 Q118.905 496.766 121.162 501.222 Q123.448 505.649 127.962 505.649 Q132.504 505.649 134.761 501.222 Q137.047 496.766 137.047 487.883 Q137.047 478.971 134.761 474.544 Q132.504 470.088 127.962 470.088 M127.962 465.458 Q135.224 465.458 139.044 471.216 Q142.892 476.946 142.892 487.883 Q142.892 498.791 139.044 504.55 Q135.224 510.279 127.962 510.279 Q120.699 510.279 116.851 504.55 Q113.031 498.791 113.031 487.883 Q113.031 476.946 116.851 471.216 Q120.699 465.458 127.962 465.458 Z" fill="#000000" fill-rule="evenodd" fill-opacity="1" /><path clip-path="url(#clip500)" d="M165.664 470.088 Q161.15 470.088 158.864 474.544 Q156.607 478.971 156.607 487.883 Q156.607 496.766 158.864 501.222 Q161.15 505.649 165.664 505.649 Q170.207 505.649 172.464 501.222 Q174.75 496.766 174.75 487.883 Q174.75 478.971 172.464 474.544 Q170.207 470.088 165.664 470.088 M165.664 465.458 Q172.927 465.458 176.746 471.216 Q180.594 476.946 180.594 487.883 Q180.594 498.791 176.746 504.55 Q172.927 510.279 165.664 510.279 Q158.401 510.279 154.553 504.55 Q150.734 498.791 150.734 487.883 Q150.734 476.946 154.553 471.216 Q158.401 465.458 165.664 465.458 Z" fill="#000000" fill-rule="evenodd" fill-opacity="1" /><path clip-path="url(#clip500)" d="M72.6668 363.147 Q68.1529 363.147 65.8671 367.603 Q63.6101 372.03 63.6101 380.942 Q63.6101 389.825 65.8671 394.281 Q68.1529 398.708 72.6668 398.708 Q77.2096 398.708 79.4665 394.281 Q81.7524 389.825 81.7524 380.942 Q81.7524 372.03 79.4665 367.603 Q77.2096 363.147 72.6668 363.147 M72.6668 358.518 Q79.9295 358.518 83.7489 364.276 Q87.5973 370.005 87.5973 380.942 Q87.5973 391.851 83.7489 397.609 Q79.9295 403.338 72.6668 403.338 Q65.4041 403.338 61.5558 397.609 Q57.7363 391.851 57.7363 380.942 Q57.7363 370.005 61.5558 364.276 Q65.4041 358.518 72.6668 358.518 Z" fill="#000000" fill-rule="evenodd" fill-opacity="1" /><path clip-path="url(#clip500)" d="M97.8692 395.149 L103.975 395.149 L103.975 402.499 L97.8692 402.499 L97.8692 395.149 Z" fill="#000000" fill-rule="evenodd" fill-opacity="1" /><path clip-path="url(#clip500)" d="M121.741 397.58 L142.14 397.58 L142.14 402.499 L114.709 402.499 L114.709 397.58 Q118.037 394.137 123.766 388.35 Q129.524 382.534 131 380.855 Q133.807 377.702 134.906 375.531 Q136.035 373.332 136.035 371.22 Q136.035 367.777 133.604 365.607 Q131.202 363.437 127.325 363.437 Q124.576 363.437 121.509 364.391 Q118.471 365.346 114.999 367.285 L114.999 361.382 Q118.529 359.964 121.596 359.241 Q124.663 358.518 127.209 358.518 Q133.922 358.518 137.915 361.874 Q141.908 365.231 141.908 370.844 Q141.908 373.506 140.896 375.908 Q139.912 378.28 137.279 381.521 Q136.555 382.36 132.678 386.382 Q128.801 390.375 121.741 397.58 Z" fill="#000000" fill-rule="evenodd" fill-opacity="1" /><path clip-path="url(#clip500)" d="M154.466 359.299 L177.412 359.299 L177.412 364.218 L159.819 364.218 L159.819 374.808 Q161.092 374.374 162.365 374.172 Q163.639 373.94 164.912 373.94 Q172.145 373.94 176.37 377.904 Q180.594 381.868 180.594 388.639 Q180.594 395.612 176.254 399.49 Q171.914 403.338 164.015 403.338 Q161.295 403.338 158.459 402.875 Q155.652 402.412 152.643 401.486 L152.643 395.612 Q155.247 397.03 158.025 397.725 Q160.803 398.419 163.899 398.419 Q168.905 398.419 171.827 395.786 Q174.75 393.153 174.75 388.639 Q174.75 384.125 171.827 381.492 Q168.905 378.859 163.899 378.859 Q161.555 378.859 159.211 379.38 Q156.897 379.901 154.466 381 L154.466 359.299 Z" fill="#000000" fill-rule="evenodd" fill-opacity="1" /><path clip-path="url(#clip500)" d="M71.4226 256.207 Q66.9087 256.207 64.6229 260.663 Q62.3659 265.09 62.3659 274.002 Q62.3659 282.885 64.6229 287.341 Q66.9087 291.768 71.4226 291.768 Q75.9654 291.768 78.2223 287.341 Q80.5082 282.885 80.5082 274.002 Q80.5082 265.09 78.2223 260.663 Q75.9654 256.207 71.4226 256.207 M71.4226 251.577 Q78.6853 251.577 82.5047 257.335 Q86.3531 263.064 86.3531 274.002 Q86.3531 284.91 82.5047 290.668 Q78.6853 296.397 71.4226 296.397 Q64.1599 296.397 60.3115 290.668 Q56.4921 284.91 56.4921 274.002 Q56.4921 263.064 60.3115 257.335 Q64.1599 251.577 71.4226 251.577 Z" fill="#000000" fill-rule="evenodd" fill-opacity="1" /><path clip-path="url(#clip500)" d="M96.625 288.209 L102.73 288.209 L102.73 295.558 L96.625 295.558 L96.625 288.209 Z" fill="#000000" fill-rule="evenodd" fill-opacity="1" /><path clip-path="url(#clip500)" d="M115.52 252.358 L138.465 252.358 L138.465 257.277 L120.873 257.277 L120.873 267.867 Q122.146 267.433 123.419 267.231 Q124.692 266.999 125.965 266.999 Q133.199 266.999 137.423 270.963 Q141.648 274.928 141.648 281.698 Q141.648 288.672 137.308 292.549 Q132.967 296.397 125.068 296.397 Q122.348 296.397 119.513 295.934 Q116.706 295.471 113.697 294.546 L113.697 288.672 Q116.301 290.09 119.079 290.784 Q121.856 291.478 124.952 291.478 Q129.958 291.478 132.881 288.845 Q135.803 286.212 135.803 281.698 Q135.803 277.185 132.881 274.551 Q129.958 271.918 124.952 271.918 Q122.609 271.918 120.265 272.439 Q117.95 272.96 115.52 274.06 L115.52 252.358 Z" fill="#000000" fill-rule="evenodd" fill-opacity="1" /><path clip-path="url(#clip500)" d="M165.664 256.207 Q161.15 256.207 158.864 260.663 Q156.607 265.09 156.607 274.002 Q156.607 282.885 158.864 287.341 Q161.15 291.768 165.664 291.768 Q170.207 291.768 172.464 287.341 Q174.75 282.885 174.75 274.002 Q174.75 265.09 172.464 260.663 Q170.207 256.207 165.664 256.207 M165.664 251.577 Q172.927 251.577 176.746 257.335 Q180.594 263.064 180.594 274.002 Q180.594 284.91 176.746 290.668 Q172.927 296.397 165.664 296.397 Q158.401 296.397 154.553 290.668 Q150.734 284.91 150.734 274.002 Q150.734 263.064 154.553 257.335 Q158.401 251.577 165.664 251.577 Z" fill="#000000" fill-rule="evenodd" fill-opacity="1" /><path clip-path="url(#clip500)" d="M72.6668 149.266 Q68.1529 149.266 65.8671 153.722 Q63.6101 158.149 63.6101 167.061 Q63.6101 175.944 65.8671 180.4 Q68.1529 184.827 72.6668 184.827 Q77.2096 184.827 79.4665 180.4 Q81.7524 175.944 81.7524 167.061 Q81.7524 158.149 79.4665 153.722 Q77.2096 149.266 72.6668 149.266 M72.6668 144.636 Q79.9295 144.636 83.7489 150.394 Q87.5973 156.124 87.5973 167.061 Q87.5973 177.97 83.7489 183.728 Q79.9295 189.457 72.6668 189.457 Q65.4041 189.457 61.5558 183.728 Q57.7363 177.97 57.7363 167.061 Q57.7363 156.124 61.5558 150.394 Q65.4041 144.636 72.6668 144.636 Z" fill="#000000" fill-rule="evenodd" fill-opacity="1" /><path clip-path="url(#clip500)" d="M97.8692 181.268 L103.975 181.268 L103.975 188.618 L97.8692 188.618 L97.8692 181.268 Z" fill="#000000" fill-rule="evenodd" fill-opacity="1" /><path clip-path="url(#clip500)" d="M115.23 145.418 L143.008 145.418 L143.008 147.906 L127.325 188.618 L121.22 188.618 L135.977 150.337 L115.23 150.337 L115.23 145.418 Z" fill="#000000" fill-rule="evenodd" fill-opacity="1" /><path clip-path="url(#clip500)" d="M154.466 145.418 L177.412 145.418 L177.412 150.337 L159.819 150.337 L159.819 160.927 Q161.092 160.493 162.365 160.29 Q163.639 160.059 164.912 160.059 Q172.145 160.059 176.37 164.023 Q180.594 167.987 180.594 174.758 Q180.594 181.731 176.254 185.608 Q171.914 189.457 164.015 189.457 Q161.295 189.457 158.459 188.994 Q155.652 188.531 152.643 187.605 L152.643 181.731 Q155.247 183.149 158.025 183.843 Q160.803 184.538 163.899 184.538 Q168.905 184.538 171.827 181.905 Q174.75 179.272 174.75 174.758 Q174.75 170.244 171.827 167.611 Q168.905 164.978 163.899 164.978 Q161.555 164.978 159.211 165.499 Q156.897 166.019 154.466 167.119 L154.466 145.418 Z" fill="#000000" fill-rule="evenodd" fill-opacity="1" /><path clip-path="url(#clip500)" d="M59.9354 76.758 L69.484 76.758 L69.484 43.801 L59.0963 45.8843 L59.0963 40.5603 L69.4261 38.477 L75.271 38.477 L75.271 76.758 L84.8195 76.758 L84.8195 81.677 L59.9354 81.677 L59.9354 76.758 Z" fill="#000000" fill-rule="evenodd" fill-opacity="1" /><path clip-path="url(#clip500)" d="M96.625 74.3275 L102.73 74.3275 L102.73 81.677 L96.625 81.677 L96.625 74.3275 Z" fill="#000000" fill-rule="evenodd" fill-opacity="1" /><path clip-path="url(#clip500)" d="M127.962 42.3253 Q123.448 42.3253 121.162 46.7813 Q118.905 51.2084 118.905 60.1204 Q118.905 69.0034 121.162 73.4594 Q123.448 77.8865 127.962 77.8865 Q132.504 77.8865 134.761 73.4594 Q137.047 69.0034 137.047 60.1204 Q137.047 51.2084 134.761 46.7813 Q132.504 42.3253 127.962 42.3253 M127.962 37.6957 Q135.224 37.6957 139.044 43.4538 Q142.892 49.1829 142.892 60.1204 Q142.892 71.0289 139.044 76.787 Q135.224 82.5161 127.962 82.5161 Q120.699 82.5161 116.851 76.787 Q113.031 71.0289 113.031 60.1204 Q113.031 49.1829 116.851 43.4538 Q120.699 37.6957 127.962 37.6957 Z" fill="#000000" fill-rule="evenodd" fill-opacity="1" /><path clip-path="url(#clip500)" d="M165.664 42.3253 Q161.15 42.3253 158.864 46.7813 Q156.607 51.2084 156.607 60.1204 Q156.607 69.0034 158.864 73.4594 Q161.15 77.8865 165.664 77.8865 Q170.207 77.8865 172.464 73.4594 Q174.75 69.0034 174.75 60.1204 Q174.75 51.2084 172.464 46.7813 Q170.207 42.3253 165.664 42.3253 M165.664 37.6957 Q172.927 37.6957 176.746 43.4538 Q180.594 49.1829 180.594 60.1204 Q180.594 71.0289 176.746 76.787 Q172.927 82.5161 165.664 82.5161 Q158.401 82.5161 154.553 76.787 Q150.734 71.0289 150.734 60.1204 Q150.734 49.1829 154.553 43.4538 Q158.401 37.6957 165.664 37.6957 Z" fill="#000000" fill-rule="evenodd" fill-opacity="1" /><polyline clip-path="url(#clip502)" style="stroke:#ff00ff; stroke-linecap:butt; stroke-linejoin:round; stroke-width:16; stroke-opacity:1; fill:none" points="
  207.066,274.065 214.037,274.146 221.008,274.222 227.98,274.33 234.951,274.479 241.922,274.685 248.893,274.966 255.865,275.353 262.836,275.881 269.807,276.602 
  276.778,277.585 283.75,278.921 290.721,280.727 297.692,283.156 304.663,286.396 311.635,290.672 318.606,296.239 325.577,303.355 332.549,312.244 339.52,323.033 
  346.491,335.681 353.462,349.914 360.434,365.214 367.405,380.868 374.376,396.092 381.347,410.178 388.319,422.609 395.29,433.112 402.261,441.639 409.233,448.3 
  416.204,453.293 423.175,456.848 430.146,459.182 437.118,460.492 444.089,460.949 451.06,460.711 458.031,459.938 465.003,458.794 471.974,457.446 478.945,456.043 
  485.916,454.703 492.888,453.498 499.859,452.457 506.83,451.58 513.802,450.844 520.773,450.222 527.744,449.685 534.715,449.208 541.687,448.774 548.658,448.366 
  555.629,447.976 562.6,447.596 569.572,447.22 576.543,446.845 583.514,446.469 590.485,446.09 597.457,445.707 604.428,445.32 611.399,444.927 618.371,444.529 
  625.342,444.125 632.313,443.715 639.284,443.299 646.256,442.877 653.227,442.448 660.198,442.013 667.169,441.572 674.141,441.124 681.112,440.67 688.083,440.208 
  695.054,439.741 702.026,439.266 708.997,438.785 715.968,438.296 722.94,437.801 729.911,437.299 736.882,436.79 743.853,436.273 750.825,435.75 757.796,435.22 
  764.767,434.682 771.738,434.137 778.71,433.585 785.681,433.026 792.652,432.459 799.623,431.885 806.595,431.304 813.566,430.715 820.537,430.119 827.509,429.515 
  834.48,428.904 841.451,428.286 848.422,427.66 855.394,427.027 862.365,426.386 869.336,425.737 876.307,425.082 883.279,424.418 890.25,423.748 897.221,423.069 
  904.193,422.384 911.164,421.691 918.135,420.99 925.106,420.283 932.078,419.567 939.049,418.845 946.02,418.115 952.991,417.378 959.963,416.634 966.934,415.882 
  973.905,415.124 980.876,414.358 987.848,413.586 994.819,412.806 1001.79,412.02 1008.76,411.227 1015.73,410.427 1022.7,409.621 1029.68,408.807 1036.65,407.988 
  1043.62,407.162 1050.59,406.33 1057.56,405.491 1064.53,404.646 1071.5,403.796 1078.47,402.939 1085.45,402.077 1092.42,401.209 1099.39,400.335 1106.36,399.456 
  1113.33,398.572 1120.3,397.683 1127.27,396.788 1134.24,395.889 1141.22,394.985 1148.19,394.076 1155.16,393.163 1162.13,392.246 1169.1,391.324 1176.07,390.399 
  1183.04,389.469 1190.01,388.536 1196.99,387.6 1203.96,386.66 1210.93,385.717 1217.9,384.771 1224.87,383.822 1231.84,382.871 1238.81,381.917 1245.78,380.961 
  1252.76,380.003 
  "/>
<polyline clip-path="url(#clip502)" style="stroke:#2000d4; stroke-linecap:butt; stroke-linejoin:round; stroke-width:16; stroke-opacity:1; fill:none" stroke-dasharray="8, 16" points="
  207.066,487.84 214.037,487.84 221.008,487.84 227.98,487.84 234.951,487.84 241.922,487.84 248.893,487.84 255.865,487.84 262.836,487.839 269.807,487.839 
  276.778,487.839 283.75,487.839 290.721,487.839 297.692,487.839 304.663,487.839 311.635,487.839 318.606,487.838 325.577,487.838 332.549,487.837 339.52,487.836 
  346.491,487.835 353.462,487.834 360.434,487.833 367.405,487.832 374.376,487.831 381.347,487.83 388.319,487.829 395.29,487.828 402.261,487.827 409.233,487.826 
  416.204,487.826 423.175,487.825 430.146,487.824 437.118,487.824 444.089,487.823 451.06,487.822 458.031,487.822 465.003,487.821 471.974,487.821 478.945,487.82 
  485.916,487.819 492.888,487.819 499.859,487.818 506.83,487.818 513.802,487.817 520.773,487.816 527.744,487.816 534.715,487.815 541.687,487.814 548.658,487.814 
  555.629,487.813 562.6,487.812 569.572,487.812 576.543,487.811 583.514,487.811 590.485,487.81 597.457,487.809 604.428,487.809 611.399,487.808 618.371,487.807 
  625.342,487.806 632.313,487.806 639.284,487.805 646.256,487.804 653.227,487.804 660.198,487.803 667.169,487.802 674.141,487.802 681.112,487.801 688.083,487.8 
  695.054,487.799 702.026,487.799 708.997,487.798 715.968,487.797 722.94,487.796 729.911,487.796 736.882,487.795 743.853,487.794 750.825,487.793 757.796,487.793 
  764.767,487.792 771.738,487.791 778.71,487.79 785.681,487.789 792.652,487.789 799.623,487.788 806.595,487.787 813.566,487.786 820.537,487.785 827.509,487.785 
  834.48,487.784 841.451,487.783 848.422,487.782 855.394,487.781 862.365,487.781 869.336,487.78 876.307,487.779 883.279,487.778 890.25,487.777 897.221,487.776 
  904.193,487.776 911.164,487.775 918.135,487.774 925.106,487.773 932.078,487.772 939.049,487.771 946.02,487.77 952.991,487.77 959.963,487.769 966.934,487.768 
  973.905,487.767 980.876,487.766 987.848,487.765 994.819,487.765 1001.79,487.764 1008.76,487.763 1015.73,487.762 1022.7,487.761 1029.68,487.76 1036.65,487.759 
  1043.62,487.759 1050.59,487.758 1057.56,487.757 1064.53,487.756 1071.5,487.755 1078.47,487.754 1085.45,487.753 1092.42,487.753 1099.39,487.752 1106.36,487.751 
  1113.33,487.75 1120.3,487.749 1127.27,487.748 1134.24,487.748 1141.22,487.747 1148.19,487.746 1155.16,487.745 1162.13,487.744 1169.1,487.744 1176.07,487.743 
  1183.04,487.742 1190.01,487.741 1196.99,487.74 1203.96,487.74 1210.93,487.739 1217.9,487.738 1224.87,487.737 1231.84,487.737 1238.81,487.736 1245.78,487.735 
  1252.76,487.734 
  "/>
<polyline clip-path="url(#clip502)" style="stroke:#008900; stroke-linecap:butt; stroke-linejoin:round; stroke-width:16; stroke-opacity:1; fill:none" stroke-dasharray="64, 40" points="
  207.066,487.84 214.037,487.839 221.008,487.839 227.98,487.839 234.951,487.839 241.922,487.839 248.893,487.838 255.865,487.838 262.836,487.837 269.807,487.836 
  276.778,487.834 283.75,487.832 290.721,487.83 297.692,487.826 304.663,487.822 311.635,487.815 318.606,487.807 325.577,487.796 332.549,487.783 339.52,487.766 
  346.491,487.747 353.462,487.723 360.434,487.697 367.405,487.668 374.376,487.637 381.347,487.603 388.319,487.565 395.29,487.524 402.261,487.477 409.233,487.423 
  416.204,487.36 423.175,487.286 430.146,487.201 437.118,487.106 444.089,487.004 451.06,486.898 458.031,486.793 465.003,486.693 471.974,486.602 478.945,486.522 
  485.916,486.453 492.888,486.396 499.859,486.347 506.83,486.307 513.802,486.274 520.773,486.245 527.744,486.221 534.715,486.201 541.687,486.183 548.658,486.167 
  555.629,486.154 562.6,486.142 569.572,486.131 576.543,486.122 583.514,486.114 590.485,486.107 597.457,486.1 604.428,486.094 611.399,486.089 618.371,486.084 
  625.342,486.079 632.313,486.075 639.284,486.071 646.256,486.068 653.227,486.065 660.198,486.061 667.169,486.059 674.141,486.056 681.112,486.053 688.083,486.051 
  695.054,486.048 702.026,486.046 708.997,486.044 715.968,486.042 722.94,486.04 729.911,486.038 736.882,486.036 743.853,486.034 750.825,486.032 757.796,486.03 
  764.767,486.029 771.738,486.027 778.71,486.025 785.681,486.024 792.652,486.022 799.623,486.02 806.595,486.019 813.566,486.017 820.537,486.015 827.509,486.014 
  834.48,486.012 841.451,486.011 848.422,486.009 855.394,486.007 862.365,486.006 869.336,486.004 876.307,486.003 883.279,486.001 890.25,486 897.221,485.998 
  904.193,485.996 911.164,485.995 918.135,485.993 925.106,485.992 932.078,485.99 939.049,485.989 946.02,485.987 952.991,485.986 959.963,485.984 966.934,485.983 
  973.905,485.981 980.876,485.98 987.848,485.978 994.819,485.976 1001.79,485.975 1008.76,485.973 1015.73,485.972 1022.7,485.97 1029.68,485.969 1036.65,485.967 
  1043.62,485.966 1050.59,485.964 1057.56,485.963 1064.53,485.961 1071.5,485.96 1078.47,485.958 1085.45,485.956 1092.42,485.955 1099.39,485.953 1106.36,485.952 
  1113.33,485.95 1120.3,485.949 1127.27,485.947 1134.24,485.946 1141.22,485.944 1148.19,485.942 1155.16,485.941 1162.13,485.939 1169.1,485.938 1176.07,485.936 
  1183.04,485.935 1190.01,485.933 1196.99,485.931 1203.96,485.93 1210.93,485.928 1217.9,485.927 1224.87,485.925 1231.84,485.924 1238.81,485.922 1245.78,485.92 
  1252.76,485.919 
  "/>
<polyline clip-path="url(#clip502)" style="stroke:#008900; stroke-linecap:butt; stroke-linejoin:round; stroke-width:16; stroke-opacity:1; fill:none" stroke-dasharray="8, 16" points="
  207.066,487.84 214.037,487.839 221.008,487.839 227.98,487.839 234.951,487.839 241.922,487.839 248.893,487.839 255.865,487.838 262.836,487.838 269.807,487.837 
  276.778,487.836 283.75,487.835 290.721,487.833 297.692,487.831 304.663,487.828 311.635,487.824 318.606,487.819 325.577,487.812 332.549,487.804 339.52,487.794 
  346.491,487.782 353.462,487.768 360.434,487.754 367.405,487.738 374.376,487.722 381.347,487.707 388.319,487.692 395.29,487.678 402.261,487.664 409.233,487.65 
  416.204,487.636 423.175,487.621 430.146,487.605 437.118,487.589 444.089,487.572 451.06,487.555 458.031,487.539 465.003,487.524 471.974,487.511 478.945,487.499 
  485.916,487.489 492.888,487.48 499.859,487.472 506.83,487.466 513.802,487.46 520.773,487.455 527.744,487.451 534.715,487.447 541.687,487.444 548.658,487.441 
  555.629,487.439 562.6,487.437 569.572,487.435 576.543,487.433 583.514,487.431 590.485,487.43 597.457,487.429 604.428,487.427 611.399,487.426 618.371,487.425 
  625.342,487.424 632.313,487.424 639.284,487.423 646.256,487.422 653.227,487.421 660.198,487.42 667.169,487.42 674.141,487.419 681.112,487.419 688.083,487.418 
  695.054,487.417 702.026,487.417 708.997,487.416 715.968,487.416 722.94,487.415 729.911,487.415 736.882,487.414 743.853,487.414 750.825,487.413 757.796,487.413 
  764.767,487.412 771.738,487.412 778.71,487.411 785.681,487.411 792.652,487.41 799.623,487.41 806.595,487.41 813.566,487.409 820.537,487.409 827.509,487.408 
  834.48,487.408 841.451,487.407 848.422,487.407 855.394,487.406 862.365,487.406 869.336,487.406 876.307,487.405 883.279,487.405 890.25,487.404 897.221,487.404 
  904.193,487.403 911.164,487.403 918.135,487.403 925.106,487.402 932.078,487.402 939.049,487.401 946.02,487.401 952.991,487.401 959.963,487.4 966.934,487.4 
  973.905,487.399 980.876,487.399 987.848,487.398 994.819,487.398 1001.79,487.398 1008.76,487.397 1015.73,487.397 1022.7,487.396 1029.68,487.396 1036.65,487.396 
  1043.62,487.395 1050.59,487.395 1057.56,487.394 1064.53,487.394 1071.5,487.394 1078.47,487.393 1085.45,487.393 1092.42,487.392 1099.39,487.392 1106.36,487.392 
  1113.33,487.391 1120.3,487.391 1127.27,487.39 1134.24,487.39 1141.22,487.389 1148.19,487.389 1155.16,487.389 1162.13,487.388 1169.1,487.388 1176.07,487.387 
  1183.04,487.387 1190.01,487.387 1196.99,487.386 1203.96,487.386 1210.93,487.385 1217.9,487.385 1224.87,487.385 1231.84,487.384 1238.81,487.384 1245.78,487.384 
  1252.76,487.383 
  "/>
<polyline clip-path="url(#clip502)" style="stroke:#2000d4; stroke-linecap:butt; stroke-linejoin:round; stroke-width:16; stroke-opacity:1; fill:none" points="
  207.066,487.412 214.037,487.085 221.008,486.766 227.98,486.327 234.951,485.726 241.922,484.903 248.893,483.776 255.865,482.238 262.836,480.143 269.807,477.297 
  276.778,473.449 283.75,468.277 290.721,461.382 297.692,452.287 304.663,440.458 311.635,425.352 318.606,406.509 325.577,383.675 332.549,356.961 339.52,326.96 
  346.491,294.78 353.462,261.917 360.434,230 367.405,200.48 374.376,174.386 381.347,152.231 388.319,134.061 395.29,119.583 402.261,108.32 409.233,99.7327 
  416.204,93.3013 423.175,88.5692 430.146,85.157 437.118,82.761 444.089,81.1421 451.06,80.1132 458.031,79.5265 465.003,79.2643 471.974,79.2332 478.945,79.3607 
  485.916,79.593 492.888,79.8925 499.859,80.2342 506.83,80.6028 513.802,80.9892 520.773,81.3883 527.744,81.7976 534.715,82.2157 541.687,82.6419 548.658,83.076 
  555.629,83.5179 562.6,83.9677 569.572,84.4255 576.543,84.8915 583.514,85.3657 590.485,85.8482 597.457,86.3393 604.428,86.8391 611.399,87.3477 618.371,87.8652 
  625.342,88.3918 632.313,88.9276 639.284,89.4727 646.256,90.0274 653.227,90.5917 660.198,91.1658 667.169,91.7497 674.141,92.3438 681.112,92.948 688.083,93.5626 
  695.054,94.1876 702.026,94.8232 708.997,95.4697 715.968,96.127 722.94,96.7953 729.911,97.4749 736.882,98.1658 743.853,98.8681 750.825,99.5821 757.796,100.308 
  764.767,101.046 771.738,101.795 778.71,102.557 785.681,103.331 792.652,104.118 799.623,104.918 806.595,105.73 813.566,106.555 820.537,107.393 827.509,108.244 
  834.48,109.109 841.451,109.987 848.422,110.878 855.394,111.784 862.365,112.703 869.336,113.636 876.307,114.584 883.279,115.545 890.25,116.521 897.221,117.512 
  904.193,118.517 911.164,119.537 918.135,120.572 925.106,121.622 932.078,122.687 939.049,123.767 946.02,124.862 952.991,125.973 959.963,127.099 966.934,128.241 
  973.905,129.399 980.876,130.573 987.848,131.762 994.819,132.967 1001.79,134.189 1008.76,135.426 1015.73,136.68 1022.7,137.95 1029.68,139.236 1036.65,140.538 
  1043.62,141.857 1050.59,143.193 1057.56,144.544 1064.53,145.913 1071.5,147.298 1078.47,148.699 1085.45,150.117 1092.42,151.551 1099.39,153.002 1106.36,154.47 
  1113.33,155.954 1120.3,157.455 1127.27,158.972 1134.24,160.505 1141.22,162.055 1148.19,163.622 1155.16,165.204 1162.13,166.803 1169.1,168.418 1176.07,170.049 
  1183.04,171.696 1190.01,173.359 1196.99,175.037 1203.96,176.732 1210.93,178.441 1217.9,180.167 1224.87,181.907 1231.84,183.662 1238.81,185.433 1245.78,187.218 
  1252.76,189.017 
  "/>
<polyline clip-path="url(#clip502)" style="stroke:#008900; stroke-linecap:butt; stroke-linejoin:round; stroke-width:16; stroke-opacity:1; fill:none" points="
  207.066,487.626 214.037,487.482 221.008,487.347 227.98,487.159 234.951,486.9 241.922,486.546 248.893,486.061 255.865,485.399 262.836,484.497 269.807,483.271 
  276.778,481.612 283.75,479.383 290.721,476.409 297.692,472.483 304.663,467.372 311.635,460.838 318.606,452.671 325.577,442.749 332.549,431.094 339.52,417.928 
  346.491,403.681 353.462,388.931 360.434,374.297 367.405,360.296 374.376,347.242 381.347,335.195 388.319,323.982 395.29,313.26 402.261,302.587 409.233,291.508 
  416.204,279.626 423.175,266.681 430.146,252.605 437.118,237.562 444.089,221.936 451.06,206.267 458.031,191.141 465.003,177.071 471.974,164.405 478.945,153.297 
  485.916,143.733 492.888,135.587 499.859,128.683 506.83,122.836 513.802,117.876 520.773,113.659 527.744,110.063 534.715,106.99 541.687,104.357 548.658,102.098 
  555.629,100.155 562.6,98.4818 569.572,97.0383 576.543,95.7912 583.514,94.7122 590.485,93.7773 597.457,92.9664 604.428,92.2619 611.399,91.6494 618.371,91.1161 
  625.342,90.6513 632.313,90.2459 639.284,89.892 646.256,89.5828 653.227,89.3125 660.198,89.076 667.169,88.8692 674.141,88.6881 681.112,88.5297 688.083,88.3911 
  695.054,88.2699 702.026,88.164 708.997,88.0716 715.968,87.991 722.94,87.9208 729.911,87.86 736.882,87.8073 743.853,87.7619 750.825,87.7229 757.796,87.6896 
  764.767,87.6614 771.738,87.6378 778.71,87.6182 785.681,87.6022 792.652,87.5895 799.623,87.5796 806.595,87.5724 813.566,87.5675 820.537,87.5646 827.509,87.5637 
  834.48,87.5644 841.451,87.5667 848.422,87.5704 855.394,87.5753 862.365,87.5813 869.336,87.5884 876.307,87.5964 883.279,87.6052 890.25,87.6149 897.221,87.6252 
  904.193,87.6361 911.164,87.6476 918.135,87.6597 925.106,87.6722 932.078,87.6851 939.049,87.6985 946.02,87.7123 952.991,87.7263 959.963,87.7407 966.934,87.7554 
  973.905,87.7704 980.876,87.7855 987.848,87.801 994.819,87.8166 1001.79,87.8324 1008.76,87.8484 1015.73,87.8645 1022.7,87.8808 1029.68,87.8972 1036.65,87.9138 
  1043.62,87.9305 1050.59,87.9473 1057.56,87.9642 1064.53,87.9812 1071.5,87.9983 1078.47,88.0155 1085.45,88.0327 1092.42,88.0501 1099.39,88.0675 1106.36,88.085 
  1113.33,88.1025 1120.3,88.1201 1127.27,88.1377 1134.24,88.1554 1141.22,88.1732 1148.19,88.191 1155.16,88.2088 1162.13,88.2267 1169.1,88.2446 1176.07,88.2626 
  1183.04,88.2806 1190.01,88.2986 1196.99,88.3167 1203.96,88.3347 1210.93,88.3529 1217.9,88.371 1224.87,88.3892 1231.84,88.4074 1238.81,88.4256 1245.78,88.4439 
  1252.76,88.4622 
  "/>
<polyline clip-path="url(#clip502)" style="stroke:#7f7f7f; stroke-linecap:butt; stroke-linejoin:round; stroke-width:16; stroke-opacity:1; fill:none" points="
  207.066,60.077 214.037,71.0592 221.008,78.8837 227.98,85.2811 234.951,89.8443 241.922,93.1541 248.893,95.5593 255.865,97.3409 262.836,98.7028 269.807,99.7988 
  276.778,100.75 283.75,101.658 290.721,102.619 297.692,103.729 304.663,105.099 311.635,106.856 318.606,109.162 325.577,112.214 332.549,116.255 339.52,121.578 
  346.491,128.514 353.462,137.417 360.434,148.62 367.405,162.371 374.376,178.758 381.347,197.637 388.319,218.595 395.29,240.978 402.261,263.979 409.233,286.763 
  416.204,308.602 423.175,328.957 430.146,347.525 437.118,364.224 444.089,379.145 451.06,392.484 458.031,404.462 465.003,415.269 471.974,425.031 478.945,433.809 
  485.916,441.627 492.888,448.502 499.859,454.47 506.83,459.591 513.802,463.944 520.773,467.619 527.744,470.709 534.715,473.299 541.687,475.469 548.658,477.288 
  555.629,478.813 562.6,480.094 569.572,481.173 576.543,482.084 583.514,482.855 590.485,483.509 597.457,484.067 604.428,484.544 611.399,484.953 618.371,485.304 
  625.342,485.607 632.313,485.87 639.284,486.098 646.256,486.297 653.227,486.47 660.198,486.622 667.169,486.755 674.141,486.873 681.112,486.976 688.083,487.068 
  695.054,487.149 702.026,487.222 708.997,487.286 715.968,487.344 722.94,487.395 729.911,487.441 736.882,487.483 743.853,487.52 750.825,487.553 757.796,487.584 
  764.767,487.611 771.738,487.636 778.71,487.659 785.681,487.679 792.652,487.698 799.623,487.715 806.595,487.731 813.566,487.745 820.537,487.758 827.509,487.77 
  834.48,487.781 841.451,487.792 848.422,487.801 855.394,487.81 862.365,487.818 869.336,487.825 876.307,487.832 883.279,487.839 890.25,487.845 897.221,487.851 
  904.193,487.856 911.164,487.861 918.135,487.866 925.106,487.87 932.078,487.874 939.049,487.878 946.02,487.882 952.991,487.885 959.963,487.889 966.934,487.892 
  973.905,487.895 980.876,487.898 987.848,487.9 994.819,487.903 1001.79,487.905 1008.76,487.908 1015.73,487.91 1022.7,487.912 1029.68,487.914 1036.65,487.916 
  1043.62,487.918 1050.59,487.92 1057.56,487.922 1064.53,487.924 1071.5,487.925 1078.47,487.927 1085.45,487.928 1092.42,487.93 1099.39,487.931 1106.36,487.933 
  1113.33,487.934 1120.3,487.936 1127.27,487.937 1134.24,487.938 1141.22,487.94 1148.19,487.941 1155.16,487.942 1162.13,487.943 1169.1,487.944 1176.07,487.945 
  1183.04,487.946 1190.01,487.948 1196.99,487.949 1203.96,487.95 1210.93,487.951 1217.9,487.952 1224.87,487.953 1231.84,487.953 1238.81,487.954 1245.78,487.955 
  1252.76,487.956 
  "/>
<polyline clip-path="url(#clip502)" style="stroke:#895f55; stroke-linecap:butt; stroke-linejoin:round; stroke-width:16; stroke-opacity:1; fill:none" points="
  214.037,487.416 221.008,487.105 227.98,486.794 234.951,486.365 241.922,485.776 248.893,484.969 255.865,483.864 262.836,482.356 269.807,480.301 276.778,477.51 
  283.75,473.737 290.721,468.665 297.692,461.904 304.663,452.985 311.635,441.386 318.606,426.574 325.577,408.098 332.549,385.711 339.52,359.52 346.491,330.111 
  353.462,298.572 360.434,266.372 367.405,235.114 374.376,206.224 381.347,180.719 388.319,159.11 395.29,141.452 402.261,127.472 409.233,116.719 416.204,108.679 
  423.175,102.864 430.146,98.8411 437.118,96.246 444.089,94.7755 451.06,94.1711 458.031,94.2058 465.003,94.6773 471.974,95.4103 478.945,96.2636 485.916,97.1351 
  492.888,97.9623 499.859,98.716 506.83,99.3903 513.802,99.993 520.773,100.538 527.744,101.039 534.715,101.51 541.687,101.962 548.658,102.402 555.629,102.836 
  562.6,103.269 569.572,103.703 576.543,104.141 583.514,104.584 590.485,105.033 597.457,105.489 604.428,105.952 611.399,106.423 618.371,106.902 625.342,107.389 
  632.313,107.884 639.284,108.388 646.256,108.901 653.227,109.423 660.198,109.953 667.169,110.493 674.141,111.043 681.112,111.601 688.083,112.17 695.054,112.747 
  702.026,113.335 708.997,113.933 715.968,114.541 722.94,115.159 729.911,115.788 736.882,116.427 743.853,117.077 750.825,117.737 757.796,118.409 764.767,119.092 
  771.738,119.785 778.71,120.49 785.681,121.207 792.652,121.935 799.623,122.675 806.595,123.427 813.566,124.191 820.537,124.967 827.509,125.755 834.48,126.556 
  841.451,127.369 848.422,128.195 855.394,129.033 862.365,129.885 869.336,130.75 876.307,131.627 883.279,132.518 890.25,133.423 897.221,134.341 904.193,135.273 
  911.164,136.218 918.135,137.177 925.106,138.151 932.078,139.138 939.049,140.14 946.02,141.155 952.991,142.186 959.963,143.231 966.934,144.29 973.905,145.364 
  980.876,146.453 987.848,147.557 994.819,148.675 1001.79,149.809 1008.76,150.958 1015.73,152.122 1022.7,153.301 1029.68,154.495 1036.65,155.705 1043.62,156.93 
  1050.59,158.17 1057.56,159.426 1064.53,160.698 1071.5,161.985 1078.47,163.287 1085.45,164.605 1092.42,165.939 1099.39,167.288 1106.36,168.653 1113.33,170.033 
  1120.3,171.429 1127.27,172.84 1134.24,174.267 1141.22,175.71 1148.19,177.168 1155.16,178.641 1162.13,180.129 1169.1,181.633 1176.07,183.152 1183.04,184.686 
  1190.01,186.235 1196.99,187.799 1203.96,189.378 1210.93,190.971 1217.9,192.579 1224.87,194.202 1231.84,195.839 1238.81,197.49 1245.78,199.155 1252.76,200.834 
  
  "/>
<polyline clip-path="url(#clip502)" style="stroke:#2000d4; stroke-linecap:butt; stroke-linejoin:round; stroke-width:16; stroke-opacity:1; fill:none" stroke-dasharray="64, 40" points="
  207.066,487.84 214.037,487.84 221.008,487.84 227.98,487.84 234.951,487.84 241.922,487.84 248.893,487.84 255.865,487.84 262.836,487.84 269.807,487.839 
  276.778,487.839 283.75,487.839 290.721,487.839 297.692,487.839 304.663,487.839 311.635,487.839 318.606,487.839 325.577,487.839 332.549,487.839 339.52,487.839 
  346.491,487.839 353.462,487.838 360.434,487.838 367.405,487.838 374.376,487.838 381.347,487.838 388.319,487.838 395.29,487.838 402.261,487.837 409.233,487.837 
  416.204,487.837 423.175,487.837 430.146,487.837 437.118,487.837 444.089,487.836 451.06,487.836 458.031,487.836 465.003,487.835 471.974,487.835 478.945,487.835 
  485.916,487.834 492.888,487.834 499.859,487.833 506.83,487.832 513.802,487.832 520.773,487.831 527.744,487.831 534.715,487.83 541.687,487.83 548.658,487.829 
  555.629,487.828 562.6,487.828 569.572,487.827 576.543,487.827 583.514,487.826 590.485,487.825 597.457,487.825 604.428,487.824 611.399,487.823 618.371,487.822 
  625.342,487.822 632.313,487.821 639.284,487.82 646.256,487.819 653.227,487.819 660.198,487.818 667.169,487.817 674.141,487.816 681.112,487.815 688.083,487.814 
  695.054,487.814 702.026,487.813 708.997,487.812 715.968,487.811 722.94,487.81 729.911,487.809 736.882,487.808 743.853,487.807 750.825,487.806 757.796,487.805 
  764.767,487.804 771.738,487.803 778.71,487.802 785.681,487.801 792.652,487.8 799.623,487.799 806.595,487.798 813.566,487.796 820.537,487.795 827.509,487.794 
  834.48,487.793 841.451,487.792 848.422,487.79 855.394,487.789 862.365,487.788 869.336,487.787 876.307,487.785 883.279,487.784 890.25,487.783 897.221,487.781 
  904.193,487.78 911.164,487.778 918.135,487.777 925.106,487.775 932.078,487.774 939.049,487.772 946.02,487.771 952.991,487.769 959.963,487.768 966.934,487.766 
  973.905,487.765 980.876,487.763 987.848,487.761 994.819,487.76 1001.79,487.758 1008.76,487.756 1015.73,487.754 1022.7,487.753 1029.68,487.751 1036.65,487.749 
  1043.62,487.747 1050.59,487.745 1057.56,487.744 1064.53,487.742 1071.5,487.74 1078.47,487.738 1085.45,487.736 1092.42,487.734 1099.39,487.732 1106.36,487.73 
  1113.33,487.728 1120.3,487.726 1127.27,487.723 1134.24,487.721 1141.22,487.719 1148.19,487.717 1155.16,487.715 1162.13,487.713 1169.1,487.71 1176.07,487.708 
  1183.04,487.706 1190.01,487.703 1196.99,487.701 1203.96,487.699 1210.93,487.696 1217.9,487.694 1224.87,487.691 1231.84,487.689 1238.81,487.687 1245.78,487.684 
  1252.76,487.682 
  "/>
<polyline clip-path="url(#clip502)" style="stroke:#ff221c; stroke-linecap:butt; stroke-linejoin:round; stroke-width:16; stroke-opacity:1; fill:none" points="
  207.066,316.792 214.037,316.735 221.008,316.733 227.98,316.729 234.951,316.724 241.922,316.717 248.893,316.707 255.865,316.691 262.836,316.67 269.807,316.64 
  276.778,316.599 283.75,316.541 290.721,316.461 297.692,316.351 304.663,316.2 311.635,315.994 318.606,315.711 325.577,315.327 332.549,314.805 339.52,314.099 
  346.491,313.148 353.462,311.873 360.434,310.171 367.405,307.909 374.376,304.914 381.347,300.966 388.319,295.795 395.29,289.076 402.261,280.455 409.233,269.583 
  416.204,256.183 423.175,240.149 430.146,221.646 437.118,201.192 444.089,179.663 451.06,158.187 458.031,137.94 465.003,119.899 471.974,104.667 478.945,92.427 
  485.916,83.0065 492.888,76.0164 499.859,70.9832 506.83,67.4453 513.802,65.0054 520.773,63.3477 527.744,62.2342 534.715,61.493 541.687,61.0029 548.658,60.6807 
  555.629,60.4697 562.6,60.3319 569.572,60.2423 576.543,60.184 583.514,60.1462 590.485,60.1217 597.457,60.1059 604.428,60.0956 611.399,60.089 618.371,60.0847 
  625.342,60.082 632.313,60.0802 639.284,60.0791 646.256,60.0783 653.227,60.0778 660.198,60.0775 667.169,60.0773 674.141,60.0772 681.112,60.0771 688.083,60.0771 
  695.054,60.077 702.026,60.077 708.997,60.077 715.968,60.077 722.94,60.077 729.911,60.077 736.882,60.077 743.853,60.077 750.825,60.077 757.796,60.077 
  764.767,60.077 771.738,60.077 778.71,60.077 785.681,60.077 792.652,60.077 799.623,60.077 806.595,60.077 813.566,60.077 820.537,60.077 827.509,60.077 
  834.48,60.077 841.451,60.077 848.422,60.077 855.394,60.077 862.365,60.077 869.336,60.077 876.307,60.077 883.279,60.077 890.25,60.077 897.221,60.077 
  904.193,60.077 911.164,60.077 918.135,60.077 925.106,60.077 932.078,60.077 939.049,60.077 946.02,60.077 952.991,60.077 959.963,60.077 966.934,60.077 
  973.905,60.077 980.876,60.077 987.848,60.077 994.819,60.077 1001.79,60.077 1008.76,60.077 1015.73,60.077 1022.7,60.077 1029.68,60.077 1036.65,60.077 
  1043.62,60.077 1050.59,60.077 1057.56,60.077 1064.53,60.077 1071.5,60.077 1078.47,60.077 1085.45,60.077 1092.42,60.077 1099.39,60.077 1106.36,60.077 
  1113.33,60.077 1120.3,60.077 1127.27,60.077 1134.24,60.077 1141.22,60.077 1148.19,60.077 1155.16,60.077 1162.13,60.077 1169.1,60.077 1176.07,60.077 
  1183.04,60.077 1190.01,60.077 1196.99,60.077 1203.96,60.077 1210.93,60.077 1217.9,60.077 1224.87,60.077 1231.84,60.077 1238.81,60.077 1245.78,60.077 
  1252.76,60.077 
  "/>
<polyline clip-path="url(#clip502)" style="stroke:#000000; stroke-linecap:butt; stroke-linejoin:round; stroke-width:16; stroke-opacity:1; fill:none" stroke-dasharray="8, 16" points="
  207.066,60.077 214.037,60.5005 221.008,60.8816 227.98,61.2568 234.951,61.7479 241.922,62.4187 248.893,63.3374 255.865,64.5942 262.836,66.3106 269.807,68.6489 
  276.778,71.8244 283.75,76.1176 290.721,81.8873 297.692,89.5791 304.663,99.7235 311.635,112.914 318.606,129.753 325.577,150.75 332.549,176.178 339.52,205.901 
  346.491,239.236 353.462,274.919 360.434,311.243 367.405,346.343 374.376,378.545 381.347,406.635 388.319,429.969 395.29,448.438 402.261,462.338 409.233,472.231 
  416.204,478.841 423.175,482.953 430.146,485.326 437.118,486.601 444.089,487.245 451.06,487.557 458.031,487.705 465.003,487.774 471.974,487.807 478.945,487.823 
  485.916,487.831 492.888,487.835 499.859,487.837 506.83,487.838 513.802,487.839 520.773,487.839 527.744,487.839 534.715,487.839 541.687,487.839 548.658,487.839 
  555.629,487.84 562.6,487.84 569.572,487.84 576.543,487.84 583.514,487.84 590.485,487.84 597.457,487.84 604.428,487.84 611.399,487.84 618.371,487.84 
  625.342,487.84 632.313,487.84 639.284,487.84 646.256,487.84 653.227,487.84 660.198,487.84 667.169,487.84 674.141,487.84 681.112,487.84 688.083,487.84 
  695.054,487.84 702.026,487.84 708.997,487.84 715.968,487.84 722.94,487.84 729.911,487.84 736.882,487.84 743.853,487.84 750.825,487.84 757.796,487.84 
  764.767,487.84 771.738,487.84 778.71,487.84 785.681,487.84 792.652,487.84 799.623,487.84 806.595,487.84 813.566,487.84 820.537,487.84 827.509,487.84 
  834.48,487.84 841.451,487.84 848.422,487.84 855.394,487.84 862.365,487.84 869.336,487.84 876.307,487.84 883.279,487.84 890.25,487.84 897.221,487.84 
  904.193,487.84 911.164,487.84 918.135,487.84 925.106,487.84 932.078,487.84 939.049,487.84 946.02,487.84 952.991,487.84 959.963,487.84 966.934,487.84 
  973.905,487.84 980.876,487.84 987.848,487.84 994.819,487.84 1001.79,487.84 1008.76,487.84 1015.73,487.84 1022.7,487.84 1029.68,487.84 1036.65,487.84 
  1043.62,487.84 1050.59,487.84 1057.56,487.84 1064.53,487.84 1071.5,487.84 1078.47,487.84 1085.45,487.84 1092.42,487.84 1099.39,487.84 1106.36,487.84 
  1113.33,487.84 1120.3,487.84 1127.27,487.84 1134.24,487.84 1141.22,487.84 1148.19,487.84 1155.16,487.84 1162.13,487.84 1169.1,487.84 1176.07,487.84 
  1183.04,487.839 1190.01,487.839 1196.99,487.839 1203.96,487.839 1210.93,487.839 1217.9,487.838 1224.87,487.837 1231.84,487.835 1238.81,487.831 1245.78,487.823 
  1252.76,487.806 
  "/>
</svg>
