<?xml version="1.0" encoding="utf-8"?>
<svg xmlns="http://www.w3.org/2000/svg" xmlns:xlink="http://www.w3.org/1999/xlink" width="975" height="450" viewBox="0 0 3900 1800">
<defs>
  <clipPath id="clip6700">
    <rect x="0" y="0" width="3900" height="1800"/>
  </clipPath>
</defs>
<path clip-path="url(#clip6700)" d="
M0 1800 L3900 1800 L3900 0 L0 0  Z
  " fill="#ffffff" fill-rule="evenodd" fill-opacity="1"/>
<defs>
  <clipPath id="clip6701">
    <rect x="780" y="0" width="2731" height="1800"/>
  </clipPath>
</defs>
<path clip-path="url(#clip6700)" d="
M579.232 1505.97 L3758.27 1505.97 L3758.27 141.732 L579.232 141.732  Z
  " fill="#ffffff" fill-rule="evenodd" fill-opacity="1"/>
<defs>
  <clipPath id="clip6702">
    <rect x="579" y="141" width="3180" height="1365"/>
  </clipPath>
</defs>
<polyline clip-path="url(#clip6700)" style="stroke:#000000; stroke-width:12; stroke-opacity:1; fill:none" points="
  579.232,1505.97 3758.27,1505.97 
  "/>
<polyline clip-path="url(#clip6700)" style="stroke:#000000; stroke-width:12; stroke-opacity:1; fill:none" points="
  579.232,1505.97 579.232,141.732 
  "/>
<polyline clip-path="url(#clip6700)" style="stroke:#000000; stroke-width:12; stroke-opacity:1; fill:none" points="
  579.232,1505.97 579.232,1489.6 
  "/>
<polyline clip-path="url(#clip6700)" style="stroke:#000000; stroke-width:12; stroke-opacity:1; fill:none" points="
  1366.12,1505.97 1366.12,1489.6 
  "/>
<polyline clip-path="url(#clip6700)" style="stroke:#000000; stroke-width:12; stroke-opacity:1; fill:none" points="
  2153.01,1505.97 2153.01,1489.6 
  "/>
<polyline clip-path="url(#clip6700)" style="stroke:#000000; stroke-width:12; stroke-opacity:1; fill:none" points="
  2939.9,1505.97 2939.9,1489.6 
  "/>
<polyline clip-path="url(#clip6700)" style="stroke:#000000; stroke-width:12; stroke-opacity:1; fill:none" points="
  3726.79,1505.97 3726.79,1489.6 
  "/>
<polyline clip-path="url(#clip6700)" style="stroke:#000000; stroke-width:12; stroke-opacity:1; fill:none" points="
  579.232,1466.11 617.381,1466.11 
  "/>
<polyline clip-path="url(#clip6700)" style="stroke:#000000; stroke-width:12; stroke-opacity:1; fill:none" points="
  579.232,1144.66 617.381,1144.66 
  "/>
<polyline clip-path="url(#clip6700)" style="stroke:#000000; stroke-width:12; stroke-opacity:1; fill:none" points="
  579.232,823.206 617.381,823.206 
  "/>
<polyline clip-path="url(#clip6700)" style="stroke:#000000; stroke-width:12; stroke-opacity:1; fill:none" points="
  579.232,501.756 617.381,501.756 
  "/>
<polyline clip-path="url(#clip6700)" style="stroke:#000000; stroke-width:12; stroke-opacity:1; fill:none" points="
  579.232,180.306 617.381,180.306 
  "/>
<g clip-path="url(#clip6700)">
<text style="fill:#000000; fill-opacity:1; font-family:Arial,Helvetica Neue,Helvetica,sans-serif; font-size:178px; text-anchor:middle;" transform="rotate(0, 579.232, 1681.47)" x="579.232" y="1681.47">0</text>
</g>
<g clip-path="url(#clip6700)">
<text style="fill:#000000; fill-opacity:1; font-family:Arial,Helvetica Neue,Helvetica,sans-serif; font-size:178px; text-anchor:middle;" transform="rotate(0, 1366.12, 1681.47)" x="1366.12" y="1681.47">25</text>
</g>
<g clip-path="url(#clip6700)">
<text style="fill:#000000; fill-opacity:1; font-family:Arial,Helvetica Neue,Helvetica,sans-serif; font-size:178px; text-anchor:middle;" transform="rotate(0, 2153.01, 1681.47)" x="2153.01" y="1681.47">50</text>
</g>
<g clip-path="url(#clip6700)">
<text style="fill:#000000; fill-opacity:1; font-family:Arial,Helvetica Neue,Helvetica,sans-serif; font-size:178px; text-anchor:middle;" transform="rotate(0, 2939.9, 1681.47)" x="2939.9" y="1681.47">75</text>
</g>
<g clip-path="url(#clip6700)">
<text style="fill:#000000; fill-opacity:1; font-family:Arial,Helvetica Neue,Helvetica,sans-serif; font-size:178px; text-anchor:middle;" transform="rotate(0, 3726.79, 1681.47)" x="3726.79" y="1681.47">100</text>
</g>
<g clip-path="url(#clip6700)">
<text style="fill:#000000; fill-opacity:1; font-family:Arial,Helvetica Neue,Helvetica,sans-serif; font-size:178px; text-anchor:end;" transform="rotate(0, 540.232, 1531.11)" x="540.232" y="1531.11">0.00</text>
</g>
<g clip-path="url(#clip6700)">
<text style="fill:#000000; fill-opacity:1; font-family:Arial,Helvetica Neue,Helvetica,sans-serif; font-size:178px; text-anchor:end;" transform="rotate(0, 540.232, 1209.66)" x="540.232" y="1209.66">0.25</text>
</g>
<g clip-path="url(#clip6700)">
<text style="fill:#000000; fill-opacity:1; font-family:Arial,Helvetica Neue,Helvetica,sans-serif; font-size:178px; text-anchor:end;" transform="rotate(0, 540.232, 888.206)" x="540.232" y="888.206">0.50</text>
</g>
<g clip-path="url(#clip6700)">
<text style="fill:#000000; fill-opacity:1; font-family:Arial,Helvetica Neue,Helvetica,sans-serif; font-size:178px; text-anchor:end;" transform="rotate(0, 540.232, 566.756)" x="540.232" y="566.756">0.75</text>
</g>
<g clip-path="url(#clip6700)">
<text style="fill:#000000; fill-opacity:1; font-family:Arial,Helvetica Neue,Helvetica,sans-serif; font-size:178px; text-anchor:end;" transform="rotate(0, 540.232, 245.306)" x="540.232" y="245.306">1.00</text>
</g>
<polyline clip-path="url(#clip6702)" style="stroke:#ff00ff; stroke-width:48; stroke-opacity:1; fill:none" points="
  610.708,853.821 642.183,876.491 673.659,894.509 705.134,909.943 736.61,923.216 768.086,934.682 799.561,944.633 831.037,953.306 862.512,960.893 893.988,967.554 
  925.464,973.419 956.939,978.598 988.415,983.181 1019.89,987.246 1051.37,990.858 1082.84,994.072 1114.32,996.938 1145.79,999.496 1177.27,1001.78 1208.74,1003.83 
  1240.22,1005.66 1271.7,1007.3 1303.17,1008.77 1334.65,1010.09 1366.12,1011.27 1397.6,1012.34 1429.07,1013.3 1460.55,1014.16 1492.02,1014.93 1523.5,1015.63 
  1554.98,1016.25 1586.45,1016.82 1617.93,1017.33 1649.4,1017.78 1680.88,1018.2 1712.35,1018.57 1743.83,1018.9 1775.3,1019.2 1806.78,1019.48 1838.26,1019.72 
  1869.73,1019.94 1901.21,1020.14 1932.68,1020.32 1964.16,1020.48 1995.63,1020.62 2027.11,1020.76 2058.59,1020.87 2090.06,1020.98 2121.54,1021.07 2153.01,1021.16 
  2184.49,1021.24 2215.96,1021.31 2247.44,1021.37 2278.91,1021.42 2310.39,1021.47 2341.87,1021.52 2373.34,1021.56 2404.82,1021.59 2436.29,1021.63 2467.77,1021.66 
  2499.24,1021.68 2530.72,1021.7 2562.19,1021.72 2593.67,1021.74 2625.15,1021.76 2656.62,1021.77 2688.1,1021.78 2719.57,1021.8 2751.05,1021.81 2782.52,1021.81 
  2814,1021.82 2845.48,1021.83 2876.95,1021.83 2908.43,1021.84 2939.9,1021.84 2971.38,1021.84 3002.85,1021.85 3034.33,1021.85 3065.8,1021.85 3097.28,1021.85 
  3128.76,1021.85 3160.23,1021.85 3191.71,1021.85 3223.18,1021.85 3254.66,1021.85 3286.13,1021.85 3317.61,1021.85 3349.08,1021.84 3380.56,1021.84 3412.04,1021.84 
  3443.51,1021.84 3474.99,1021.84 3506.46,1021.84 3537.94,1021.83 3569.41,1021.83 3600.89,1021.83 3632.37,1021.83 3663.84,1021.82 3695.32,1021.82 3726.79,1021.82 
  3758.27,1021.82 
  "/>
<polyline clip-path="url(#clip6702)" style="stroke:#2000d4; stroke-width:48; stroke-opacity:1; fill:none" stroke-dasharray="24, 48" points="
  610.708,1466.11 642.183,1466.11 673.659,1466.11 705.134,1466.11 736.61,1466.11 768.086,1466.11 799.561,1466.11 831.037,1466.11 862.512,1466.11 893.988,1466.11 
  925.464,1466.11 956.939,1466.11 988.415,1466.11 1019.89,1466.11 1051.37,1466.11 1082.84,1466.11 1114.32,1466.11 1145.79,1466.11 1177.27,1466.11 1208.74,1466.11 
  1240.22,1466.11 1271.7,1466.11 1303.17,1466.11 1334.65,1466.11 1366.12,1466.11 1397.6,1466.11 1429.07,1466.11 1460.55,1466.11 1492.02,1466.11 1523.5,1466.11 
  1554.98,1466.11 1586.45,1466.11 1617.93,1466.11 1649.4,1466.11 1680.88,1466.11 1712.35,1466.11 1743.83,1466.11 1775.3,1466.11 1806.78,1466.11 1838.26,1466.11 
  1869.73,1466.11 1901.21,1466.11 1932.68,1466.11 1964.16,1466.11 1995.63,1466.11 2027.11,1466.11 2058.59,1466.11 2090.06,1466.11 2121.54,1466.11 2153.01,1466.11 
  2184.49,1466.11 2215.96,1466.11 2247.44,1466.11 2278.91,1466.11 2310.39,1466.11 2341.87,1466.11 2373.34,1466.11 2404.82,1466.11 2436.29,1466.11 2467.77,1466.11 
  2499.24,1466.11 2530.72,1466.11 2562.19,1466.11 2593.67,1466.11 2625.15,1466.11 2656.62,1466.11 2688.1,1466.11 2719.57,1466.11 2751.05,1466.11 2782.52,1466.11 
  2814,1466.11 2845.48,1466.11 2876.95,1466.11 2908.43,1466.11 2939.9,1466.11 2971.38,1466.11 3002.85,1466.11 3034.33,1466.11 3065.8,1466.11 3097.28,1466.11 
  3128.76,1466.11 3160.23,1466.11 3191.71,1466.11 3223.18,1466.11 3254.66,1466.11 3286.13,1466.11 3317.61,1466.11 3349.08,1466.11 3380.56,1466.11 3412.04,1466.11 
  3443.51,1466.11 3474.99,1466.11 3506.46,1466.11 3537.94,1466.11 3569.41,1466.11 3600.89,1466.11 3632.37,1466.11 3663.84,1466.11 3695.32,1466.11 3726.79,1466.11 
  3758.27,1466.11 
  "/>
<polyline clip-path="url(#clip6702)" style="stroke:#008900; stroke-width:48; stroke-opacity:1; fill:none" stroke-dasharray="192, 120" points="
  610.708,1466.11 642.183,1466.11 673.659,1466.11 705.134,1466.11 736.61,1466.11 768.086,1466.11 799.561,1466.11 831.037,1466.11 862.512,1466.11 893.988,1466.11 
  925.464,1466.11 956.939,1466.11 988.415,1466.11 1019.89,1466.11 1051.37,1466.11 1082.84,1466.11 1114.32,1466.11 1145.79,1466.11 1177.27,1466.11 1208.74,1466.11 
  1240.22,1466.11 1271.7,1466.11 1303.17,1466.11 1334.65,1466.11 1366.12,1466.11 1397.6,1466.11 1429.07,1466.11 1460.55,1466.11 1492.02,1466.11 1523.5,1466.11 
  1554.98,1466.11 1586.45,1466.11 1617.93,1466.11 1649.4,1466.11 1680.88,1466.11 1712.35,1466.11 1743.83,1466.11 1775.3,1466.11 1806.78,1466.11 1838.26,1466.11 
  1869.73,1466.11 1901.21,1466.11 1932.68,1466.11 1964.16,1466.11 1995.63,1466.11 2027.11,1466.11 2058.59,1466.11 2090.06,1466.11 2121.54,1466.11 2153.01,1466.11 
  2184.49,1466.11 2215.96,1466.11 2247.44,1466.11 2278.91,1466.11 2310.39,1466.11 2341.87,1466.11 2373.34,1466.11 2404.82,1466.11 2436.29,1466.11 2467.77,1466.11 
  2499.24,1466.11 2530.72,1466.11 2562.19,1466.11 2593.67,1466.11 2625.15,1466.11 2656.62,1466.11 2688.1,1466.11 2719.57,1466.11 2751.05,1466.11 2782.52,1466.11 
  2814,1466.11 2845.48,1466.11 2876.95,1466.11 2908.43,1466.11 2939.9,1466.11 2971.38,1466.11 3002.85,1466.11 3034.33,1466.11 3065.8,1466.11 3097.28,1466.11 
  3128.76,1466.11 3160.23,1466.11 3191.71,1466.11 3223.18,1466.11 3254.66,1466.11 3286.13,1466.11 3317.61,1466.11 3349.08,1466.11 3380.56,1466.11 3412.04,1466.11 
  3443.51,1466.11 3474.99,1466.11 3506.46,1466.11 3537.94,1466.11 3569.41,1466.11 3600.89,1466.11 3632.37,1466.11 3663.84,1466.11 3695.32,1466.11 3726.79,1466.11 
  3758.27,1466.11 
  "/>
<polyline clip-path="url(#clip6702)" style="stroke:#008900; stroke-width:48; stroke-opacity:1; fill:none" stroke-dasharray="24, 48" points="
  610.708,1466.11 642.183,1466.11 673.659,1466.11 705.134,1466.11 736.61,1466.11 768.086,1466.11 799.561,1466.11 831.037,1466.11 862.512,1466.11 893.988,1466.11 
  925.464,1466.11 956.939,1466.11 988.415,1466.11 1019.89,1466.11 1051.37,1466.11 1082.84,1466.11 1114.32,1466.11 1145.79,1466.11 1177.27,1466.11 1208.74,1466.11 
  1240.22,1466.11 1271.7,1466.11 1303.17,1466.11 1334.65,1466.11 1366.12,1466.11 1397.6,1466.11 1429.07,1466.11 1460.55,1466.11 1492.02,1466.11 1523.5,1466.11 
  1554.98,1466.11 1586.45,1466.11 1617.93,1466.11 1649.4,1466.11 1680.88,1466.11 1712.35,1466.11 1743.83,1466.11 1775.3,1466.11 1806.78,1466.11 1838.26,1466.11 
  1869.73,1466.11 1901.21,1466.11 1932.68,1466.11 1964.16,1466.11 1995.63,1466.11 2027.11,1466.11 2058.59,1466.11 2090.06,1466.11 2121.54,1466.11 2153.01,1466.11 
  2184.49,1466.11 2215.96,1466.11 2247.44,1466.11 2278.91,1466.11 2310.39,1466.11 2341.87,1466.11 2373.34,1466.11 2404.82,1466.11 2436.29,1466.11 2467.77,1466.11 
  2499.24,1466.11 2530.72,1466.11 2562.19,1466.11 2593.67,1466.11 2625.15,1466.11 2656.62,1466.11 2688.1,1466.11 2719.57,1466.11 2751.05,1466.11 2782.52,1466.11 
  2814,1466.11 2845.48,1466.11 2876.95,1466.11 2908.43,1466.11 2939.9,1466.11 2971.38,1466.11 3002.85,1466.11 3034.33,1466.11 3065.8,1466.11 3097.28,1466.11 
  3128.76,1466.11 3160.23,1466.11 3191.71,1466.11 3223.18,1466.11 3254.66,1466.11 3286.13,1466.11 3317.61,1466.11 3349.08,1466.11 3380.56,1466.11 3412.04,1466.11 
  3443.51,1466.11 3474.99,1466.11 3506.46,1466.11 3537.94,1466.11 3569.41,1466.11 3600.89,1466.11 3632.37,1466.11 3663.84,1466.11 3695.32,1466.11 3726.79,1466.11 
  3758.27,1466.11 
  "/>
<polyline clip-path="url(#clip6702)" style="stroke:#2000d4; stroke-width:48; stroke-opacity:1; fill:none" points="
  610.708,1349.22 642.183,1268.29 673.659,1203.87 705.134,1151.61 736.61,1108.55 768.086,1072.64 799.561,1042.36 831.037,1016.62 862.512,994.57 893.988,975.564 
  925.464,959.093 956.939,944.749 988.415,932.208 1019.89,921.204 1051.37,911.517 1082.84,902.966 1114.32,895.4 1145.79,888.69 1177.27,882.729 1208.74,877.423 
  1240.22,872.693 1271.7,868.472 1303.17,864.699 1334.65,861.324 1366.12,858.302 1397.6,855.593 1429.07,853.163 1460.55,850.982 1492.02,849.023 1523.5,847.262 
  1554.98,845.679 1586.45,844.255 1617.93,842.973 1649.4,841.819 1680.88,840.78 1712.35,839.844 1743.83,839 1775.3,838.24 1806.78,837.554 1838.26,836.936 
  1869.73,836.378 1901.21,835.875 1932.68,835.421 1964.16,835.012 1995.63,834.642 2027.11,834.308 2058.59,834.007 2090.06,833.735 2121.54,833.49 2153.01,833.268 
  2184.49,833.068 2215.96,832.888 2247.44,832.724 2278.91,832.577 2310.39,832.444 2341.87,832.324 2373.34,832.215 2404.82,832.117 2436.29,832.028 2467.77,831.948 
  2499.24,831.876 2530.72,831.81 2562.19,831.751 2593.67,831.698 2625.15,831.65 2656.62,831.606 2688.1,831.567 2719.57,831.531 2751.05,831.499 2782.52,831.47 
  2814,831.444 2845.48,831.42 2876.95,831.399 2908.43,831.379 2939.9,831.362 2971.38,831.346 3002.85,831.332 3034.33,831.319 3065.8,831.307 3097.28,831.297 
  3128.76,831.287 3160.23,831.278 3191.71,831.271 3223.18,831.264 3254.66,831.257 3286.13,831.251 3317.61,831.246 3349.08,831.242 3380.56,831.237 3412.04,831.233 
  3443.51,831.23 3474.99,831.227 3506.46,831.224 3537.94,831.221 3569.41,831.219 3600.89,831.217 3632.37,831.215 3663.84,831.213 3695.32,831.212 3726.79,831.21 
  3758.27,831.209 
  "/>
<polyline clip-path="url(#clip6702)" style="stroke:#008900; stroke-width:48; stroke-opacity:1; fill:none" points="
  610.708,1407.66 642.183,1416.65 673.659,1423.66 705.134,1429.29 736.61,1433.91 768.086,1437.75 799.561,1440.98 831.037,1443.73 862.512,1446.09 893.988,1448.12 
  925.464,1449.88 956.939,1451.41 988.415,1452.75 1019.89,1453.93 1051.37,1454.96 1082.84,1455.88 1114.32,1456.69 1145.79,1457.41 1177.27,1458.05 1208.74,1458.62 
  1240.22,1459.13 1271.7,1459.58 1303.17,1459.99 1334.65,1460.35 1366.12,1460.68 1397.6,1460.97 1429.07,1461.23 1460.55,1461.47 1492.02,1461.69 1523.5,1461.88 
  1554.98,1462.05 1586.45,1462.21 1617.93,1462.35 1649.4,1462.48 1680.88,1462.59 1712.35,1462.7 1743.83,1462.79 1775.3,1462.88 1806.78,1462.96 1838.26,1463.03 
  1869.73,1463.09 1901.21,1463.15 1932.68,1463.2 1964.16,1463.25 1995.63,1463.3 2027.11,1463.34 2058.59,1463.38 2090.06,1463.41 2121.54,1463.44 2153.01,1463.47 
  2184.49,1463.5 2215.96,1463.52 2247.44,1463.54 2278.91,1463.56 2310.39,1463.58 2341.87,1463.6 2373.34,1463.62 2404.82,1463.63 2436.29,1463.65 2467.77,1463.66 
  2499.24,1463.67 2530.72,1463.68 2562.19,1463.69 2593.67,1463.71 2625.15,1463.72 2656.62,1463.72 2688.1,1463.73 2719.57,1463.74 2751.05,1463.75 2782.52,1463.76 
  2814,1463.77 2845.48,1463.77 2876.95,1463.78 2908.43,1463.79 2939.9,1463.79 2971.38,1463.8 3002.85,1463.81 3034.33,1463.81 3065.8,1463.82 3097.28,1463.82 
  3128.76,1463.83 3160.23,1463.83 3191.71,1463.84 3223.18,1463.84 3254.66,1463.85 3286.13,1463.85 3317.61,1463.86 3349.08,1463.86 3380.56,1463.87 3412.04,1463.87 
  3443.51,1463.88 3474.99,1463.88 3506.46,1463.89 3537.94,1463.89 3569.41,1463.9 3600.89,1463.9 3632.37,1463.91 3663.84,1463.91 3695.32,1463.91 3726.79,1463.92 
  3758.27,1463.92 
  "/>
<polyline clip-path="url(#clip6702)" style="stroke:#7f7f7f; stroke-width:48; stroke-opacity:1; fill:none" points="
  610.708,180.306 642.183,595.616 673.659,793.141 705.134,914.421 736.61,998.416 768.086,1060.88 799.561,1109.59 831.037,1148.91 862.512,1181.48 893.988,1209.01 
  925.464,1232.68 956.939,1253.3 988.415,1271.46 1019.89,1287.62 1051.37,1302.11 1082.84,1315.19 1114.32,1327.06 1145.79,1337.89 1177.27,1347.81 1208.74,1356.93 
  1240.22,1365.34 1271.7,1373.1 1303.17,1380.29 1334.65,1386.95 1366.12,1393.12 1397.6,1398.85 1429.07,1404.17 1460.55,1409.1 1492.02,1413.68 1523.5,1417.93 
  1554.98,1421.87 1586.45,1425.52 1617.93,1428.9 1649.4,1432.02 1680.88,1434.91 1712.35,1437.57 1743.83,1440.02 1775.3,1442.28 1806.78,1444.36 1838.26,1446.27 
  1869.73,1448.03 1901.21,1449.64 1932.68,1451.11 1964.16,1452.46 1995.63,1453.69 2027.11,1454.82 2058.59,1455.85 2090.06,1456.79 2121.54,1457.65 2153.01,1458.43 
  2184.49,1459.14 2215.96,1459.78 2247.44,1460.37 2278.91,1460.9 2310.39,1461.39 2341.87,1461.83 2373.34,1462.23 2404.82,1462.6 2436.29,1462.93 2467.77,1463.23 
  2499.24,1463.5 2530.72,1463.74 2562.19,1463.97 2593.67,1464.17 2625.15,1464.35 2656.62,1464.52 2688.1,1464.67 2719.57,1464.8 2751.05,1464.93 2782.52,1465.04 
  2814,1465.14 2845.48,1465.23 2876.95,1465.32 2908.43,1465.39 2939.9,1465.46 2971.38,1465.52 3002.85,1465.58 3034.33,1465.63 3065.8,1465.67 3097.28,1465.71 
  3128.76,1465.75 3160.23,1465.78 3191.71,1465.82 3223.18,1465.84 3254.66,1465.87 3286.13,1465.89 3317.61,1465.91 3349.08,1465.93 3380.56,1465.95 3412.04,1465.96 
  3443.51,1465.98 3474.99,1465.99 3506.46,1466 3537.94,1466.01 3569.41,1466.02 3600.89,1466.03 3632.37,1466.03 3663.84,1466.04 3695.32,1466.05 3726.79,1466.05 
  3758.27,1466.06 
  "/>
<polyline clip-path="url(#clip6702)" style="stroke:#895f55; stroke-width:48; stroke-opacity:1; fill:none" points="
  610.708,1466.11 642.183,1350.28 673.659,1274.14 705.134,1213.33 736.61,1163.93 768.086,1123.2 799.561,1089.21 831.037,1060.56 862.512,1036.19 893.988,1015.32 
  925.464,997.335 956.939,981.746 988.415,968.172 1019.89,956.304 1051.37,945.89 1082.84,936.724 1114.32,928.634 1145.79,921.475 1177.27,915.128 1208.74,909.488 
  1240.22,904.47 1271.7,899.997 1303.17,896.005 1334.65,892.438 1366.12,889.248 1397.6,886.391 1429.07,883.831 1460.55,881.535 1492.02,879.474 1523.5,877.624 
  1554.98,875.962 1586.45,874.468 1617.93,873.124 1649.4,871.915 1680.88,870.827 1712.35,869.848 1743.83,868.966 1775.3,868.172 1806.78,867.457 1838.26,866.812 
  1869.73,866.231 1901.21,865.708 1932.68,865.236 1964.16,864.811 1995.63,864.428 2027.11,864.082 2058.59,863.771 2090.06,863.49 2121.54,863.237 2153.01,863.009 
  2184.49,862.804 2215.96,862.619 2247.44,862.452 2278.91,862.302 2310.39,862.167 2341.87,862.045 2373.34,861.936 2404.82,861.837 2436.29,861.749 2467.77,861.669 
  2499.24,861.597 2530.72,861.533 2562.19,861.475 2593.67,861.424 2625.15,861.377 2656.62,861.336 2688.1,861.299 2719.57,861.266 2751.05,861.236 2782.52,861.21 
  2814,861.186 2845.48,861.166 2876.95,861.147 2908.43,861.131 2939.9,861.117 2971.38,861.104 3002.85,861.093 3034.33,861.084 3065.8,861.075 3097.28,861.068 
  3128.76,861.062 3160.23,861.057 3191.71,861.053 3223.18,861.049 3254.66,861.047 3286.13,861.044 3317.61,861.043 3349.08,861.042 3380.56,861.041 3412.04,861.041 
  3443.51,861.041 3474.99,861.042 3506.46,861.042 3537.94,861.043 3569.41,861.045 3600.89,861.046 3632.37,861.048 3663.84,861.05 3695.32,861.052 3726.79,861.054 
  3758.27,861.056 
  "/>
<polyline clip-path="url(#clip6702)" style="stroke:#2000d4; stroke-width:48; stroke-opacity:1; fill:none" stroke-dasharray="192, 120" points="
  610.708,1466.11 642.183,1466.11 673.659,1466.11 705.134,1466.11 736.61,1466.11 768.086,1466.11 799.561,1466.11 831.037,1466.11 862.512,1466.11 893.988,1466.11 
  925.464,1466.11 956.939,1466.11 988.415,1466.11 1019.89,1466.11 1051.37,1466.11 1082.84,1466.11 1114.32,1466.11 1145.79,1466.11 1177.27,1466.11 1208.74,1466.11 
  1240.22,1466.11 1271.7,1466.11 1303.17,1466.11 1334.65,1466.11 1366.12,1466.11 1397.6,1466.11 1429.07,1466.11 1460.55,1466.11 1492.02,1466.11 1523.5,1466.11 
  1554.98,1466.11 1586.45,1466.11 1617.93,1466.11 1649.4,1466.11 1680.88,1466.11 1712.35,1466.11 1743.83,1466.11 1775.3,1466.11 1806.78,1466.11 1838.26,1466.11 
  1869.73,1466.11 1901.21,1466.11 1932.68,1466.11 1964.16,1466.11 1995.63,1466.11 2027.11,1466.11 2058.59,1466.11 2090.06,1466.11 2121.54,1466.11 2153.01,1466.11 
  2184.49,1466.11 2215.96,1466.11 2247.44,1466.11 2278.91,1466.11 2310.39,1466.11 2341.87,1466.11 2373.34,1466.11 2404.82,1466.11 2436.29,1466.11 2467.77,1466.11 
  2499.24,1466.11 2530.72,1466.11 2562.19,1466.11 2593.67,1466.11 2625.15,1466.11 2656.62,1466.11 2688.1,1466.11 2719.57,1466.11 2751.05,1466.11 2782.52,1466.11 
  2814,1466.11 2845.48,1466.11 2876.95,1466.11 2908.43,1466.11 2939.9,1466.11 2971.38,1466.11 3002.85,1466.11 3034.33,1466.11 3065.8,1466.11 3097.28,1466.11 
  3128.76,1466.11 3160.23,1466.11 3191.71,1466.11 3223.18,1466.11 3254.66,1466.11 3286.13,1466.11 3317.61,1466.11 3349.08,1466.11 3380.56,1466.11 3412.04,1466.11 
  3443.51,1466.11 3474.99,1466.11 3506.46,1466.11 3537.94,1466.11 3569.41,1466.11 3600.89,1466.11 3632.37,1466.11 3663.84,1466.11 3695.32,1466.11 3726.79,1466.11 
  3758.27,1466.11 
  "/>
<polyline clip-path="url(#clip6702)" style="stroke:#000000; stroke-width:48; stroke-opacity:1; fill:none" stroke-dasharray="24, 48" points="
  610.708,180.306 642.183,296.135 673.659,390.033 705.134,465.583 736.61,527.108 768.086,577.89 799.561,620.304 831.037,656.088 862.512,686.537 893.988,712.636 
  925.464,735.148 956.939,754.671 988.415,771.68 1019.89,786.559 1051.37,799.623 1082.84,811.127 1114.32,821.285 1145.79,830.278 1177.27,838.255 1208.74,845.344 
  1240.22,851.656 1271.7,857.283 1303.17,862.306 1334.65,866.796 1366.12,870.813 1397.6,874.411 1429.07,877.636 1460.55,880.528 1492.02,883.125 1523.5,885.456 
  1554.98,887.552 1586.45,889.436 1617.93,891.13 1649.4,892.654 1680.88,894.026 1712.35,895.261 1743.83,896.374 1775.3,897.375 1806.78,898.278 1838.26,899.091 
  1869.73,899.824 1901.21,900.485 1932.68,901.08 1964.16,901.617 1995.63,902.101 2027.11,902.537 2058.59,902.93 2090.06,903.284 2121.54,903.603 2153.01,903.891 
  2184.49,904.151 2215.96,904.384 2247.44,904.595 2278.91,904.785 2310.39,904.956 2341.87,905.109 2373.34,905.248 2404.82,905.372 2436.29,905.485 2467.77,905.585 
  2499.24,905.676 2530.72,905.757 2562.19,905.83 2593.67,905.896 2625.15,905.954 2656.62,906.007 2688.1,906.054 2719.57,906.096 2751.05,906.134 2782.52,906.167 
  2814,906.197 2845.48,906.223 2876.95,906.247 2908.43,906.267 2939.9,906.286 2971.38,906.302 3002.85,906.316 3034.33,906.328 3065.8,906.339 3097.28,906.348 
  3128.76,906.356 3160.23,906.363 3191.71,906.368 3223.18,906.373 3254.66,906.377 3286.13,906.379 3317.61,906.382 3349.08,906.383 3380.56,906.384 3412.04,906.385 
  3443.51,906.385 3474.99,906.384 3506.46,906.384 3537.94,906.383 3569.41,906.381 3600.89,906.379 3632.37,906.378 3663.84,906.375 3695.32,906.373 3726.79,906.37 
  3758.27,906.368 
  "/>
</svg>
