<?xml version="1.0" encoding="utf-8"?>
<svg xmlns="http://www.w3.org/2000/svg" xmlns:xlink="http://www.w3.org/1999/xlink" width="975" height="450" viewBox="0 0 3900 1800">
<defs>
  <clipPath id="clip7900">
    <rect x="0" y="0" width="3900" height="1800"/>
  </clipPath>
</defs>
<path clip-path="url(#clip7900)" d="
M0 1800 L3900 1800 L3900 0 L0 0  Z
  " fill="#ffffff" fill-rule="evenodd" fill-opacity="1"/>
<defs>
  <clipPath id="clip7901">
    <rect x="780" y="0" width="2731" height="1800"/>
  </clipPath>
</defs>
<path clip-path="url(#clip7900)" d="
M579.232 1505.97 L3758.27 1505.97 L3758.27 141.732 L579.232 141.732  Z
  " fill="#ffffff" fill-rule="evenodd" fill-opacity="1"/>
<defs>
  <clipPath id="clip7902">
    <rect x="579" y="141" width="3180" height="1365"/>
  </clipPath>
</defs>
<polyline clip-path="url(#clip7900)" style="stroke:#000000; stroke-width:12; stroke-opacity:1; fill:none" points="
  579.232,1505.97 3758.27,1505.97 
  "/>
<polyline clip-path="url(#clip7900)" style="stroke:#000000; stroke-width:12; stroke-opacity:1; fill:none" points="
  579.232,1505.97 579.232,141.732 
  "/>
<polyline clip-path="url(#clip7900)" style="stroke:#000000; stroke-width:12; stroke-opacity:1; fill:none" points="
  579.232,1505.97 579.232,1489.6 
  "/>
<polyline clip-path="url(#clip7900)" style="stroke:#000000; stroke-width:12; stroke-opacity:1; fill:none" points="
  1202.57,1505.97 1202.57,1489.6 
  "/>
<polyline clip-path="url(#clip7900)" style="stroke:#000000; stroke-width:12; stroke-opacity:1; fill:none" points="
  1825.91,1505.97 1825.91,1489.6 
  "/>
<polyline clip-path="url(#clip7900)" style="stroke:#000000; stroke-width:12; stroke-opacity:1; fill:none" points="
  2449.25,1505.97 2449.25,1489.6 
  "/>
<polyline clip-path="url(#clip7900)" style="stroke:#000000; stroke-width:12; stroke-opacity:1; fill:none" points="
  3072.59,1505.97 3072.59,1489.6 
  "/>
<polyline clip-path="url(#clip7900)" style="stroke:#000000; stroke-width:12; stroke-opacity:1; fill:none" points="
  3695.93,1505.97 3695.93,1489.6 
  "/>
<polyline clip-path="url(#clip7900)" style="stroke:#000000; stroke-width:12; stroke-opacity:1; fill:none" points="
  579.232,1466.11 617.381,1466.11 
  "/>
<polyline clip-path="url(#clip7900)" style="stroke:#000000; stroke-width:12; stroke-opacity:1; fill:none" points="
  579.232,1144.66 617.381,1144.66 
  "/>
<polyline clip-path="url(#clip7900)" style="stroke:#000000; stroke-width:12; stroke-opacity:1; fill:none" points="
  579.232,823.206 617.381,823.206 
  "/>
<polyline clip-path="url(#clip7900)" style="stroke:#000000; stroke-width:12; stroke-opacity:1; fill:none" points="
  579.232,501.756 617.381,501.756 
  "/>
<polyline clip-path="url(#clip7900)" style="stroke:#000000; stroke-width:12; stroke-opacity:1; fill:none" points="
  579.232,180.306 617.381,180.306 
  "/>
<g clip-path="url(#clip7900)">
<text style="fill:#000000; fill-opacity:1; font-family:Arial,Helvetica Neue,Helvetica,sans-serif; font-size:178px; text-anchor:middle;" transform="rotate(0, 579.232, 1681.47)" x="579.232" y="1681.47">0</text>
</g>
<g clip-path="url(#clip7900)">
<text style="fill:#000000; fill-opacity:1; font-family:Arial,Helvetica Neue,Helvetica,sans-serif; font-size:178px; text-anchor:middle;" transform="rotate(0, 1202.57, 1681.47)" x="1202.57" y="1681.47">10</text>
</g>
<g clip-path="url(#clip7900)">
<text style="fill:#000000; fill-opacity:1; font-family:Arial,Helvetica Neue,Helvetica,sans-serif; font-size:178px; text-anchor:middle;" transform="rotate(0, 1825.91, 1681.47)" x="1825.91" y="1681.47">20</text>
</g>
<g clip-path="url(#clip7900)">
<text style="fill:#000000; fill-opacity:1; font-family:Arial,Helvetica Neue,Helvetica,sans-serif; font-size:178px; text-anchor:middle;" transform="rotate(0, 2449.25, 1681.47)" x="2449.25" y="1681.47">30</text>
</g>
<g clip-path="url(#clip7900)">
<text style="fill:#000000; fill-opacity:1; font-family:Arial,Helvetica Neue,Helvetica,sans-serif; font-size:178px; text-anchor:middle;" transform="rotate(0, 3072.59, 1681.47)" x="3072.59" y="1681.47">40</text>
</g>
<g clip-path="url(#clip7900)">
<text style="fill:#000000; fill-opacity:1; font-family:Arial,Helvetica Neue,Helvetica,sans-serif; font-size:178px; text-anchor:middle;" transform="rotate(0, 3695.93, 1681.47)" x="3695.93" y="1681.47">50</text>
</g>
<g clip-path="url(#clip7900)">
<text style="fill:#000000; fill-opacity:1; font-family:Arial,Helvetica Neue,Helvetica,sans-serif; font-size:178px; text-anchor:end;" transform="rotate(0, 540.232, 1531.11)" x="540.232" y="1531.11">0.00</text>
</g>
<g clip-path="url(#clip7900)">
<text style="fill:#000000; fill-opacity:1; font-family:Arial,Helvetica Neue,Helvetica,sans-serif; font-size:178px; text-anchor:end;" transform="rotate(0, 540.232, 1209.66)" x="540.232" y="1209.66">0.25</text>
</g>
<g clip-path="url(#clip7900)">
<text style="fill:#000000; fill-opacity:1; font-family:Arial,Helvetica Neue,Helvetica,sans-serif; font-size:178px; text-anchor:end;" transform="rotate(0, 540.232, 888.206)" x="540.232" y="888.206">0.50</text>
</g>
<g clip-path="url(#clip7900)">
<text style="fill:#000000; fill-opacity:1; font-family:Arial,Helvetica Neue,Helvetica,sans-serif; font-size:178px; text-anchor:end;" transform="rotate(0, 540.232, 566.756)" x="540.232" y="566.756">0.75</text>
</g>
<g clip-path="url(#clip7900)">
<text style="fill:#000000; fill-opacity:1; font-family:Arial,Helvetica Neue,Helvetica,sans-serif; font-size:178px; text-anchor:end;" transform="rotate(0, 540.232, 245.306)" x="540.232" y="245.306">1.00</text>
</g>
<polyline clip-path="url(#clip7902)" style="stroke:#2000d4; stroke-width:48; stroke-opacity:1; fill:none" points="
  641.566,1464.82 703.9,1463.77 766.234,1461.92 828.568,1458.64 890.902,1452.87 953.236,1442.78 1015.57,1425.27 1077.9,1395.41 1140.24,1345.86 1202.57,1267.31 
  1264.91,1151.41 1327.24,997.245 1389.57,818.222 1451.91,640.386 1514.24,489.117 1576.58,376.519 1638.91,300.756 1701.24,253.175 1763.58,224.573 1825.91,207.821 
  1888.25,198.148 1950.58,192.594 2012.91,189.4 2075.25,187.549 2137.58,186.465 2199.92,185.827 2262.25,185.454 2324.58,185.24 2386.92,185.121 2449.25,185.058 
  2511.59,185.027 2573.92,185.011 2636.26,185.004 2698.59,185.001 2760.92,184.999 2823.26,184.999 2885.59,184.998 2947.93,184.998 3010.26,184.998 3072.59,184.998 
  3134.93,184.998 3197.26,184.998 3259.6,184.998 3321.93,184.998 3384.26,184.998 3446.6,184.998 3508.93,184.998 3571.27,184.998 3633.6,184.998 3695.93,184.998 
  3758.27,184.998 
  "/>
<polyline clip-path="url(#clip7902)" style="stroke:#008900; stroke-width:48; stroke-opacity:1; fill:none" points="
  641.566,1465.46 703.9,1464.97 766.234,1464.09 828.568,1462.54 890.902,1459.8 953.236,1455.02 1015.57,1446.71 1077.9,1432.55 1140.24,1409.04 1202.57,1371.78 
  1264.91,1316.75 1327.24,1243.48 1389.57,1158.19 1451.91,1073.03 1514.24,999.663 1576.58,943.25 1638.91,901.961 1701.24,870.152 1763.58,841.141 1825.91,808.488 
  1888.25,766.775 1950.58,712.845 2012.91,647.184 2075.25,573.916 2137.58,498.965 2199.92,427.956 2262.25,365.147 2324.58,313.057 2386.92,272.389 2449.25,242.32 
  2511.59,221.098 2573.92,206.677 2636.26,197.158 2698.59,191.005 2760.92,187.079 2823.26,184.592 2885.59,183.021 2947.93,182.03 3010.26,181.402 3072.59,181.004 
  3134.93,180.752 3197.26,180.591 3259.6,180.488 3321.93,180.422 3384.26,180.381 3446.6,180.354 3508.93,180.337 3571.27,180.326 3633.6,180.319 3695.93,180.314 
  3758.27,180.311 
  "/>
<polyline clip-path="url(#clip7902)" style="stroke:#7f7f7f; stroke-width:48; stroke-opacity:1; fill:none" points="
  641.566,180.306 703.9,196.509 766.234,206.31 828.568,212.02 890.902,215.375 953.236,217.475 1015.57,219.022 1077.9,220.537 1140.24,222.526 1202.57,225.645 
  1264.91,230.905 1327.24,239.951 1389.57,255.451 1451.91,281.522 1514.24,323.897 1576.58,389.104 1638.91,481.776 1701.24,600.498 1763.58,735.522 1825.91,871.832 
  1888.25,995.599 1950.58,1098.58 2012.91,1178.7 2075.25,1238.51 2137.58,1282.99 2199.92,1317.37 2262.25,1345.6 2324.58,1369.9 2386.92,1391.06 2449.25,1409.17 
  2511.59,1424.14 2573.92,1436 2636.26,1445.03 2698.59,1451.65 2760.92,1456.36 2823.26,1459.62 2885.59,1461.83 2947.93,1463.31 3010.26,1464.29 3072.59,1464.93 
  3134.93,1465.35 3197.26,1465.62 3259.6,1465.79 3321.93,1465.91 3384.26,1465.98 3446.6,1466.02 3508.93,1466.05 3571.27,1466.07 3633.6,1466.08 3695.93,1466.09 
  3758.27,1466.1 
  "/>
<polyline clip-path="url(#clip7902)" style="stroke:#000000; stroke-width:48; stroke-opacity:1; fill:none" stroke-dasharray="24, 48" points="
  641.566,180.306 703.9,181.579 766.234,182.828 828.568,184.875 890.902,188.464 953.236,194.777 1015.57,205.828 1077.9,224.99 1140.24,257.676 1202.57,311.891 
  1264.91,397.778 1327.24,524.391 1389.57,692.473 1451.91,886.849 1514.24,1078.19 1576.58,1237.56 1638.91,1350.34 1701.24,1417.74 1763.58,1450.42 1825.91,1462.37 
  1888.25,1465.47 1950.58,1466.02 2012.91,1466.1 2075.25,1466.11 2137.58,1466.11 2199.92,1466.11 2262.25,1466.11 2324.58,1466.11 2386.92,1466.11 2449.25,1466.11 
  2511.59,1466.11 2573.92,1466.11 2636.26,1466.11 2698.59,1466.11 2760.92,1466.11 2823.26,1466.11 2885.59,1466.11 2947.93,1466.11 3010.26,1466.11 3072.59,1466.11 
  3134.93,1466.11 3197.26,1466.11 3259.6,1466.11 3321.93,1466.11 3384.26,1466.11 3446.6,1466.11 3508.93,1466.11 3571.27,1466.11 3633.6,1466.11 3695.93,1466.11 
  3758.27,1466.11 
  "/>
</svg>
